<?xml version="1.0" encoding="UTF-8" standalone="no"?>
<!DOCTYPE svg PUBLIC "-//W3C//DTD SVG 1.1//EN"
 "http://www.w3.org/Graphics/SVG/1.1/DTD/svg11.dtd">
<!-- Generated by graphviz version 2.38.0 (20140413.2041)
 -->
<!-- Title: g Pages: 1 -->
<svg width="135pt" height="209pt"
 viewBox="0.00 0.00 135.00 209.00" xmlns="http://www.w3.org/2000/svg" xmlns:xlink="http://www.w3.org/1999/xlink">
<g id="graph0" class="graph" transform="scale(1 1) rotate(0) translate(4 205)">
<title>g</title>
<polygon fill="white" stroke="none" points="-4,4 -4,-205 131,-205 131,4 -4,4"/>
<!-- N0 -->
<g id="node1" class="node"><title>N0</title>
<path fill="#ffffff" stroke="#2e3436" stroke-width="1.5" d="M65,-164.5C65,-164.5 115,-164.5 115,-164.5 121,-164.5 127,-170.5 127,-176.5 127,-176.5 127,-188.5 127,-188.5 127,-194.5 121,-200.5 115,-200.5 115,-200.5 65,-200.5 65,-200.5 59,-200.5 53,-194.5 53,-188.5 53,-188.5 53,-176.5 53,-176.5 53,-170.5 59,-164.5 65,-164.5"/>
<text text-anchor="start" x="61" y="-180.6" font-family="FreeSans" font-size="8.00" fill="#1c2021">name = &#39;ROOT&#39;</text>
</g>
<!-- N2 -->
<g id="node2" class="node"><title>N2</title>
<path fill="#ffffff" stroke="#2e3436" stroke-width="1.5" d="M12,-82.5C12,-82.5 42,-82.5 42,-82.5 48,-82.5 54,-88.5 54,-94.5 54,-94.5 54,-106.5 54,-106.5 54,-112.5 48,-118.5 42,-118.5 42,-118.5 12,-118.5 12,-118.5 6,-118.5 0,-112.5 0,-106.5 0,-106.5 0,-94.5 0,-94.5 0,-88.5 6,-82.5 12,-82.5"/>
<text text-anchor="start" x="8" y="-98.6" font-family="FreeSans" font-size="8.00" fill="#1c2021">value = 10</text>
</g>
<!-- N0&#45;&gt;N2 -->
<g id="edge1" class="edge"><title>N0&#45;&gt;N2</title>
<path fill="none" stroke="#2e3436" stroke-width="2" d="M76.3299,-164.141C67.1865,-152.531 55.0547,-137.125 45.1103,-124.497"/>
<polygon fill="#2e3436" stroke="#2e3436" stroke-width="2" points="40.427,-118.55 47.7187,-122.354 43.1399,-121.187 45.46,-124.133 45.0672,-124.442 44.6743,-124.752 42.3542,-121.806 42.4156,-126.53 40.427,-118.55 40.427,-118.55"/>
<text text-anchor="middle" x="70.5" y="-139.6" font-family="FreeSans" font-size="8.00" fill="#2e3436">LINK</text>
</g>
<!-- N1 -->
<g id="node3" class="node"><title>N1</title>
<path fill="#ffffff" stroke="#2e3436" stroke-width="1.5" d="M66,-0.5C66,-0.5 96,-0.5 96,-0.5 102,-0.5 108,-6.5 108,-12.5 108,-12.5 108,-24.5 108,-24.5 108,-30.5 102,-36.5 96,-36.5 96,-36.5 66,-36.5 66,-36.5 60,-36.5 54,-30.5 54,-24.5 54,-24.5 54,-12.5 54,-12.5 54,-6.5 60,-0.5 66,-0.5"/>
<text text-anchor="start" x="62" y="-16.6" font-family="FreeSans" font-size="8.00" fill="#1c2021">value = 25</text>
</g>
<!-- N2&#45;&gt;N1 -->
<g id="edge3" class="edge"><title>N2&#45;&gt;N1</title>
<path fill="none" stroke="#2e3436" stroke-width="2" d="M38.7172,-82.1412C46.4831,-70.6361 56.7643,-55.4048 65.2439,-42.8423"/>
<polygon fill="#2e3436" stroke="#2e3436" stroke-width="2" points="69.4912,-36.5501 68.0925,-44.6547 67.8076,-39.938 65.7095,-43.0462 65.2951,-42.7665 64.8807,-42.4867 66.9787,-39.3785 62.4977,-40.8782 69.4912,-36.5501 69.4912,-36.5501"/>
<text text-anchor="middle" x="65.5" y="-57.6" font-family="FreeSans" font-size="8.00" fill="#2e3436">LINK</text>
</g>
<!-- N1&#45;&gt;N0 -->
<g id="edge2" class="edge"><title>N1&#45;&gt;N0</title>
<path fill="none" stroke="#2e3436" stroke-width="2" d="M81.9606,-36.79C83.5596,-65.5735 86.7735,-123.423 88.6166,-156.599"/>
<polygon fill="#2e3436" stroke="#2e3436" stroke-width="2" points="89.0539,-164.469 85.2679,-157.168 88.3466,-160.753 88.1385,-157.009 88.6377,-156.981 89.137,-156.953 89.345,-160.697 92.0075,-156.794 89.0539,-164.469 89.0539,-164.469"/>
<text text-anchor="middle" x="95.5" y="-98.6" font-family="FreeSans" font-size="8.00" fill="#2e3436">LINK</text>
</g>
</g>
</svg>
