<?xml version="1.0" encoding="UTF-8" standalone="no"?>
<!DOCTYPE svg PUBLIC "-//W3C//DTD SVG 1.1//EN"
 "http://www.w3.org/Graphics/SVG/1.1/DTD/svg11.dtd">
<!-- Generated by graphviz version 2.38.0 (20140413.2041)
 -->
<!-- Title: g Pages: 1 -->
<svg width="108pt" height="136pt"
 viewBox="0.00 0.00 108.00 136.00" xmlns="http://www.w3.org/2000/svg" xmlns:xlink="http://www.w3.org/1999/xlink">
<g id="graph0" class="graph" transform="scale(1 1) rotate(0) translate(4 132)">
<title>g</title>
<polygon fill="white" stroke="none" points="-4,4 -4,-132 104,-132 104,4 -4,4"/>
<!-- N220 -->
<g id="node1" class="node"><title>N220</title>
<path fill="#ffffff" stroke="#2e3436" stroke-width="1.5" d="M12,-91.5C12,-91.5 88,-91.5 88,-91.5 94,-91.5 100,-97.5 100,-103.5 100,-103.5 100,-115.5 100,-115.5 100,-121.5 94,-127.5 88,-127.5 88,-127.5 12,-127.5 12,-127.5 6,-127.5 0,-121.5 0,-115.5 0,-115.5 0,-103.5 0,-103.5 0,-97.5 6,-91.5 12,-91.5"/>
<text text-anchor="start" x="8" y="-107.6" font-family="FreeSans" font-size="8.00" fill="#1c2021">Node[220]name = &#39;bob&#39;</text>
</g>
<!-- N221 -->
<g id="node2" class="node"><title>N221</title>
<path fill="#ffffff" stroke="#2e3436" stroke-width="1.5" d="M19,-0.5C19,-0.5 81,-0.5 81,-0.5 87,-0.5 93,-6.5 93,-12.5 93,-12.5 93,-24.5 93,-24.5 93,-30.5 87,-36.5 81,-36.5 81,-36.5 19,-36.5 19,-36.5 13,-36.5 7,-30.5 7,-24.5 7,-24.5 7,-12.5 7,-12.5 7,-6.5 13,-0.5 19,-0.5"/>
<text text-anchor="start" x="15" y="-16.6" font-family="FreeSans" font-size="8.00" fill="#1c2021">Node[221]age = 12</text>
</g>
<!-- N220&#45;&gt;N221 -->
<g id="edge1" class="edge"><title>N220&#45;&gt;N221</title>
<path fill="none" stroke="#2e3436" stroke-width="2" d="M50,-91.3399C50,-78.0425 50,-59.4274 50,-44.4783"/>
<polygon fill="#2e3436" stroke="#2e3436" stroke-width="2" points="50,-36.6074 53.3751,-44.1074 50.5,-40.3574 50.5001,-44.1074 50.0001,-44.1074 49.5001,-44.1074 49.5,-40.3574 46.6251,-44.1075 50,-36.6074 50,-36.6074"/>
<text text-anchor="middle" x="74.5" y="-66.6" font-family="FreeSans" font-size="8.00" fill="#2e3436">KNOWS</text>
<text text-anchor="start" x="50" y="-57.6" font-family="FreeSans" font-size="8.00" fill="#2e3436">since = &#39;2010&#39;</text>
</g>
</g>
</svg>
