<?xml version="1.0" encoding="UTF-8" standalone="no"?>
<!DOCTYPE svg PUBLIC "-//W3C//DTD SVG 1.1//EN"
 "http://www.w3.org/Graphics/SVG/1.1/DTD/svg11.dtd">
<!-- Generated by graphviz version 2.38.0 (20140413.2041)
 -->
<!-- Title: g Pages: 1 -->
<svg width="421pt" height="44pt"
 viewBox="0.00 0.00 421.00 44.00" xmlns="http://www.w3.org/2000/svg" xmlns:xlink="http://www.w3.org/1999/xlink">
<g id="graph0" class="graph" transform="scale(1 1) rotate(0) translate(4 40)">
<title>g</title>
<polygon fill="white" stroke="none" points="-4,4 -4,-40 417,-40 417,4 -4,4"/>
<!-- START -->
<g id="node1" class="node"><title>START</title>
<path fill="#ffffff" stroke="#2e3436" stroke-width="1.5" d="M42,-36C42,-36 12,-36 12,-36 6,-36 0,-30 0,-24 0,-24 0,-12 0,-12 0,-6 6,-0 12,-0 12,-0 42,-0 42,-0 48,-0 54,-6 54,-12 54,-12 54,-24 54,-24 54,-30 48,-36 42,-36"/>
</g>
<!-- MIDDLE -->
<g id="node2" class="node"><title>MIDDLE</title>
<path fill="#fcee7d" stroke="#2e3436" stroke-width="1.5" d="M223,-36C223,-36 193,-36 193,-36 187,-36 181,-30 181,-24 181,-24 181,-12 181,-12 181,-6 187,-0 193,-0 193,-0 223,-0 223,-0 229,-0 235,-6 235,-12 235,-12 235,-24 235,-24 235,-30 229,-36 223,-36"/>
<text text-anchor="middle" x="208" y="-15.5" font-family="FreeSans" font-size="10.00" fill="#1c2021">Node</text>
</g>
<!-- START&#45;&gt;MIDDLE -->
<g id="edge2" class="edge"><title>START&#45;&gt;MIDDLE</title>
<path fill="none" stroke="#2e3436" stroke-width="2" d="M54.0281,-18C85.5791,-18 138.812,-18 173.424,-18"/>
<polygon fill="#2e3436" stroke="#2e3436" stroke-width="2" points="180.94,-18 173.44,-21.3751 177.19,-18.5 173.44,-18.5001 173.44,-18.0001 173.44,-17.5001 177.19,-17.5 173.44,-14.6251 180.94,-18 180.94,-18"/>
<text text-anchor="middle" x="117.5" y="-21" font-family="FreeSans" font-size="10.00" fill="#1c2021">incoming relationship</text>
</g>
<!-- END -->
<g id="node3" class="node"><title>END</title>
<path fill="#ffffff" stroke="#2e3436" stroke-width="1.5" d="M401,-36C401,-36 371,-36 371,-36 365,-36 359,-30 359,-24 359,-24 359,-12 359,-12 359,-6 365,-0 371,-0 371,-0 401,-0 401,-0 407,-0 413,-6 413,-12 413,-12 413,-24 413,-24 413,-30 407,-36 401,-36"/>
</g>
<!-- MIDDLE&#45;&gt;END -->
<g id="edge1" class="edge"><title>MIDDLE&#45;&gt;END</title>
<path fill="none" stroke="#2e3436" stroke-width="2" d="M235.349,-18C266.155,-18 317.217,-18 350.989,-18"/>
<polygon fill="#2e3436" stroke="#2e3436" stroke-width="2" points="358.759,-18 351.259,-21.3751 355.009,-18.5 351.259,-18.5001 351.259,-18.0001 351.259,-17.5001 355.009,-17.5 351.259,-14.6251 358.759,-18 358.759,-18"/>
<text text-anchor="middle" x="297" y="-21" font-family="FreeSans" font-size="10.00" fill="#1c2021">outgoing relationship</text>
</g>
</g>
</svg>
