<?xml version="1.0" encoding="UTF-8" standalone="no"?>
<!DOCTYPE svg PUBLIC "-//W3C//DTD SVG 1.1//EN"
 "http://www.w3.org/Graphics/SVG/1.1/DTD/svg11.dtd">
<!-- Generated by graphviz version 2.38.0 (20140413.2041)
 -->
<!-- Title: g Pages: 1 -->
<svg width="361pt" height="210pt"
 viewBox="0.00 0.00 360.50 210.00" xmlns="http://www.w3.org/2000/svg" xmlns:xlink="http://www.w3.org/1999/xlink">
<g id="graph0" class="graph" transform="scale(1 1) rotate(0) translate(4 206)">
<title>g</title>
<polygon fill="white" stroke="none" points="-4,4 -4,-206 356.5,-206 356.5,4 -4,4"/>
<!-- A Relationship -->
<g id="node1" class="node"><title>A Relationship</title>
<path fill="#a8e270" stroke="#2e3436" stroke-width="1.5" d="M184.5,-202C184.5,-202 130.5,-202 130.5,-202 124.5,-202 118.5,-196 118.5,-190 118.5,-190 118.5,-178 118.5,-178 118.5,-172 124.5,-166 130.5,-166 130.5,-166 184.5,-166 184.5,-166 190.5,-166 196.5,-172 196.5,-178 196.5,-178 196.5,-190 196.5,-190 196.5,-196 190.5,-202 184.5,-202"/>
<text text-anchor="middle" x="157.5" y="-181.5" font-family="FreeSans" font-size="10.00" fill="#1c2021">A Relationship</text>
</g>
<!-- Start node -->
<g id="node2" class="node"><title>Start node</title>
<path fill="#fadcad" stroke="#2e3436" stroke-width="1.5" d="M49,-119C49,-119 12,-119 12,-119 6,-119 -3.55271e-15,-113 -3.55271e-15,-107 -3.55271e-15,-107 -3.55271e-15,-95 -3.55271e-15,-95 -3.55271e-15,-89 6,-83 12,-83 12,-83 49,-83 49,-83 55,-83 61,-89 61,-95 61,-95 61,-107 61,-107 61,-113 55,-119 49,-119"/>
<text text-anchor="middle" x="30.5" y="-98.5" font-family="FreeSans" font-size="10.00" fill="#1c2021">Start node</text>
</g>
<!-- A Relationship&#45;&gt;Start node -->
<g id="edge1" class="edge"><title>A Relationship&#45;&gt;Start node</title>
<path fill="none" stroke="#2e3436" stroke-width="2" d="M130.567,-165.822C111.119,-153.418 84.7299,-136.588 63.9341,-123.324"/>
<polygon fill="#2e3436" stroke="#2e3436" stroke-width="2" points="57.3946,-119.153 65.5329,-120.341 60.8252,-120.748 63.9869,-122.765 63.718,-123.186 63.4491,-123.608 60.2874,-121.591 61.9031,-126.032 57.3946,-119.153 57.3946,-119.153"/>
<text text-anchor="middle" x="114" y="-140" font-family="FreeSans" font-size="10.00" fill="#1c2021">has a</text>
</g>
<!-- End node -->
<g id="node3" class="node"><title>End node</title>
<path fill="#fadcad" stroke="#2e3436" stroke-width="1.5" d="M134.5,-119C134.5,-119 102.5,-119 102.5,-119 96.5,-119 90.5,-113 90.5,-107 90.5,-107 90.5,-95 90.5,-95 90.5,-89 96.5,-83 102.5,-83 102.5,-83 134.5,-83 134.5,-83 140.5,-83 146.5,-89 146.5,-95 146.5,-95 146.5,-107 146.5,-107 146.5,-113 140.5,-119 134.5,-119"/>
<text text-anchor="middle" x="118.5" y="-98.5" font-family="FreeSans" font-size="10.00" fill="#1c2021">End node</text>
</g>
<!-- A Relationship&#45;&gt;End node -->
<g id="edge2" class="edge"><title>A Relationship&#45;&gt;End node</title>
<path fill="none" stroke="#2e3436" stroke-width="2" d="M147.726,-165.709C144.667,-160.112 141.349,-153.842 138.5,-148 135.136,-141.102 131.718,-133.503 128.682,-126.501"/>
<polygon fill="#2e3436" stroke="#2e3436" stroke-width="2" points="125.558,-119.201 131.612,-124.768 127.493,-122.452 128.968,-125.899 128.509,-126.096 128.049,-126.293 126.574,-122.845 125.406,-127.424 125.558,-119.201 125.558,-119.201"/>
<text text-anchor="middle" x="150" y="-140" font-family="FreeSans" font-size="10.00" fill="#1c2021">has a</text>
</g>
<!-- Relationship type -->
<g id="node4" class="node"><title>Relationship type</title>
<path fill="#fadcad" stroke="#2e3436" stroke-width="1.5" d="M252,-119C252,-119 187,-119 187,-119 181,-119 175,-113 175,-107 175,-107 175,-95 175,-95 175,-89 181,-83 187,-83 187,-83 252,-83 252,-83 258,-83 264,-89 264,-95 264,-95 264,-107 264,-107 264,-113 258,-119 252,-119"/>
<text text-anchor="middle" x="219.5" y="-98.5" font-family="FreeSans" font-size="10.00" fill="#1c2021">Relationship type</text>
</g>
<!-- A Relationship&#45;&gt;Relationship type -->
<g id="edge3" class="edge"><title>A Relationship&#45;&gt;Relationship type</title>
<path fill="none" stroke="#2e3436" stroke-width="2" d="M170.649,-165.822C179.691,-154.009 191.806,-138.18 201.71,-125.242"/>
<polygon fill="#2e3436" stroke="#2e3436" stroke-width="2" points="206.37,-119.153 204.492,-127.16 204.488,-122.435 202.209,-125.413 201.812,-125.109 201.415,-124.805 203.694,-121.827 199.132,-123.057 206.37,-119.153 206.37,-119.153"/>
<text text-anchor="middle" x="204" y="-140" font-family="FreeSans" font-size="10.00" fill="#1c2021">has a</text>
</g>
<!-- Properties -->
<g id="node5" class="node"><title>Properties</title>
<path fill="#fadcad" stroke="#2e3436" stroke-width="1.5" d="M340.5,-119C340.5,-119 304.5,-119 304.5,-119 298.5,-119 292.5,-113 292.5,-107 292.5,-107 292.5,-95 292.5,-95 292.5,-89 298.5,-83 304.5,-83 304.5,-83 340.5,-83 340.5,-83 346.5,-83 352.5,-89 352.5,-95 352.5,-95 352.5,-107 352.5,-107 352.5,-113 346.5,-119 340.5,-119"/>
<text text-anchor="middle" x="322.5" y="-98.5" font-family="FreeSans" font-size="10.00" fill="#1c2021">Properties</text>
</g>
<!-- A Relationship&#45;&gt;Properties -->
<g id="edge4" class="edge"><title>A Relationship&#45;&gt;Properties</title>
<path fill="none" stroke="#2e3436" stroke-width="2" d="M192.492,-165.822C219.788,-152.422 257.61,-133.855 285.423,-120.201"/>
<polygon fill="#2e3436" stroke="#2e3436" stroke-width="2" points="292.266,-116.842 287.021,-123.177 289.121,-118.943 285.754,-120.596 285.534,-120.147 285.314,-119.698 288.68,-118.046 284.047,-117.117 292.266,-116.842 292.266,-116.842"/>
<text text-anchor="middle" x="270" y="-140" font-family="FreeSans" font-size="10.00" fill="#1c2021">can have</text>
</g>
<!-- Name -->
<g id="node6" class="node"><title>Name</title>
<path fill="#fadcad" stroke="#2e3436" stroke-width="1.5" d="M234.5,-36C234.5,-36 204.5,-36 204.5,-36 198.5,-36 192.5,-30 192.5,-24 192.5,-24 192.5,-12 192.5,-12 192.5,-6 198.5,-0 204.5,-0 204.5,-0 234.5,-0 234.5,-0 240.5,-0 246.5,-6 246.5,-12 246.5,-12 246.5,-24 246.5,-24 246.5,-30 240.5,-36 234.5,-36"/>
<text text-anchor="middle" x="219.5" y="-15.5" font-family="FreeSans" font-size="10.00" fill="#1c2021">Name</text>
</g>
<!-- Relationship type&#45;&gt;Name -->
<g id="edge5" class="edge"><title>Relationship type&#45;&gt;Name</title>
<path fill="none" stroke="#2e3436" stroke-width="2" d="M219.5,-82.822C219.5,-71.4386 219.5,-56.3263 219.5,-43.6649"/>
<polygon fill="#2e3436" stroke="#2e3436" stroke-width="2" points="219.5,-36.1533 222.875,-43.6532 220,-39.9032 220,-43.6532 219.5,-43.6533 219,-43.6533 219,-39.9033 216.125,-43.6533 219.5,-36.1533 219.5,-36.1533"/>
<text text-anchor="middle" x="263.5" y="-57" font-family="FreeSans" font-size="10.00" fill="#1c2021">uniquely identified by</text>
</g>
</g>
</svg>
