<?xml version="1.0" encoding="UTF-8" standalone="no"?>
<!DOCTYPE svg PUBLIC "-//W3C//DTD SVG 1.1//EN"
 "http://www.w3.org/Graphics/SVG/1.1/DTD/svg11.dtd">
<!-- Generated by graphviz version 2.38.0 (20140413.2041)
 -->
<!-- Title: g Pages: 1 -->
<svg width="452pt" height="291pt"
 viewBox="0.00 0.00 451.50 291.00" xmlns="http://www.w3.org/2000/svg" xmlns:xlink="http://www.w3.org/1999/xlink">
<g id="graph0" class="graph" transform="scale(1 1) rotate(0) translate(4 287)">
<title>g</title>
<polygon fill="white" stroke="none" points="-4,4 -4,-287 447.5,-287 447.5,4 -4,4"/>
<!-- N0 -->
<g id="node1" class="node"><title>N0</title>
<path fill="#ffffff" stroke="#2e3436" stroke-width="1.5" d="M170,-246.5C170,-246.5 279,-246.5 279,-246.5 285,-246.5 291,-252.5 291,-258.5 291,-258.5 291,-270.5 291,-270.5 291,-276.5 285,-282.5 279,-282.5 279,-282.5 170,-282.5 170,-282.5 164,-282.5 158,-276.5 158,-270.5 158,-270.5 158,-258.5 158,-258.5 158,-252.5 164,-246.5 170,-246.5"/>
<text text-anchor="middle" x="224.5" y="-271.6" font-family="FreeSans" font-size="8.00" fill="#1c2021">TVShow</text>
<polyline fill="none" stroke="#2e3436" stroke-width="1.5" points="158,-264.5 291,-264.5 "/>
<text text-anchor="start" x="166" y="-253.6" font-family="FreeSans" font-size="8.00" fill="#1c2021">name = &#39;How I Met Your Mother&#39;</text>
</g>
<!-- N1 -->
<g id="node2" class="node"><title>N1</title>
<path fill="#ffffff" stroke="#2e3436" stroke-width="1.5" d="M180.5,-164.5C180.5,-164.5 268.5,-164.5 268.5,-164.5 274.5,-164.5 280.5,-170.5 280.5,-176.5 280.5,-176.5 280.5,-188.5 280.5,-188.5 280.5,-194.5 274.5,-200.5 268.5,-200.5 268.5,-200.5 180.5,-200.5 180.5,-200.5 174.5,-200.5 168.5,-194.5 168.5,-188.5 168.5,-188.5 168.5,-176.5 168.5,-176.5 168.5,-170.5 174.5,-164.5 180.5,-164.5"/>
<text text-anchor="middle" x="224.5" y="-189.6" font-family="FreeSans" font-size="8.00" fill="#1c2021">Season</text>
<polyline fill="none" stroke="#2e3436" stroke-width="1.5" points="168.5,-182.5 280.5,-182.5 "/>
<text text-anchor="start" x="176.5" y="-171.6" font-family="FreeSans" font-size="8.00" fill="#1c2021">name = &#39;HIMYM Season 1&#39;</text>
</g>
<!-- N0&#45;&gt;N1 -->
<g id="edge1" class="edge"><title>N0&#45;&gt;N1</title>
<path fill="none" stroke="#2e3436" stroke-width="2" d="M224.5,-246.141C224.5,-235.058 224.5,-220.518 224.5,-208.236"/>
<polygon fill="#2e3436" stroke="#2e3436" stroke-width="2" points="224.5,-200.55 227.875,-208.05 225,-204.3 225,-208.05 224.5,-208.05 224,-208.05 224,-204.3 221.125,-208.05 224.5,-200.55 224.5,-200.55"/>
<text text-anchor="middle" x="252" y="-221.6" font-family="FreeSans" font-size="8.00" fill="#2e3436">HAS_SEASON</text>
</g>
<!-- N2 -->
<g id="node3" class="node"><title>N2</title>
<path fill="#ffffff" stroke="#2e3436" stroke-width="1.5" d="M204.5,-82.5C204.5,-82.5 244.5,-82.5 244.5,-82.5 250.5,-82.5 256.5,-88.5 256.5,-94.5 256.5,-94.5 256.5,-106.5 256.5,-106.5 256.5,-112.5 250.5,-118.5 244.5,-118.5 244.5,-118.5 204.5,-118.5 204.5,-118.5 198.5,-118.5 192.5,-112.5 192.5,-106.5 192.5,-106.5 192.5,-94.5 192.5,-94.5 192.5,-88.5 198.5,-82.5 204.5,-82.5"/>
<text text-anchor="middle" x="224.5" y="-107.6" font-family="FreeSans" font-size="8.00" fill="#1c2021">Episode</text>
<polyline fill="none" stroke="#2e3436" stroke-width="1.5" points="192.5,-100.5 256.5,-100.5 "/>
<text text-anchor="start" x="200.5" y="-89.6" font-family="FreeSans" font-size="8.00" fill="#1c2021">name = &#39;Pilot&#39;</text>
</g>
<!-- N1&#45;&gt;N2 -->
<g id="edge2" class="edge"><title>N1&#45;&gt;N2</title>
<path fill="none" stroke="#4e9a06" stroke-width="2" d="M224.5,-164.141C224.5,-153.058 224.5,-138.518 224.5,-126.236"/>
<polygon fill="#4e9a06" stroke="#4e9a06" stroke-width="2" points="224.5,-118.55 227.875,-126.05 225,-122.3 225,-126.05 224.5,-126.05 224,-126.05 224,-122.3 221.125,-126.05 224.5,-118.55 224.5,-118.55"/>
<text text-anchor="middle" x="253.5" y="-139.6" font-family="FreeSans" font-size="8.00" fill="#4e9a06">HAS_EPISODE</text>
</g>
<!-- N3 -->
<g id="node4" class="node"><title>N3</title>
<path fill="#ffffff" stroke="#2e3436" stroke-width="1.5" d="M96,-0.5C96,-0.5 161,-0.5 161,-0.5 167,-0.5 173,-6.5 173,-12.5 173,-12.5 173,-24.5 173,-24.5 173,-30.5 167,-36.5 161,-36.5 161,-36.5 96,-36.5 96,-36.5 90,-36.5 84,-30.5 84,-24.5 84,-24.5 84,-12.5 84,-12.5 84,-6.5 90,-0.5 96,-0.5"/>
<text text-anchor="middle" x="128.5" y="-25.6" font-family="FreeSans" font-size="8.00" fill="#1c2021">Character</text>
<polyline fill="none" stroke="#2e3436" stroke-width="1.5" points="84,-18.5 173,-18.5 "/>
<text text-anchor="start" x="92" y="-7.6" font-family="FreeSans" font-size="8.00" fill="#1c2021">name = &#39;Ted Mosby&#39;</text>
</g>
<!-- N2&#45;&gt;N3 -->
<g id="edge3" class="edge"><title>N2&#45;&gt;N3</title>
<path fill="none" stroke="#a40000" stroke-width="2" d="M193.474,-82.4636C184.707,-77.0539 175.408,-70.7167 167.5,-64 160.037,-57.6617 152.725,-49.8745 146.486,-42.596"/>
<polygon fill="#a40000" stroke="#a40000" stroke-width="2" points="141.518,-36.6447 148.916,-40.2395 144.305,-39.2031 146.708,-42.0819 146.325,-42.4023 145.941,-42.7227 143.538,-39.8439 143.734,-44.5651 141.518,-36.6447 141.518,-36.6447"/>
<text text-anchor="middle" x="217.5" y="-57.6" font-family="FreeSans" font-size="8.00" fill="#a40000">FEATURED_CHARACTER</text>
</g>
<!-- N5 -->
<g id="node5" class="node"><title>N5</title>
<path fill="#ffffff" stroke="#2e3436" stroke-width="1.5" d="M255.5,-0.5C255.5,-0.5 431.5,-0.5 431.5,-0.5 437.5,-0.5 443.5,-6.5 443.5,-12.5 443.5,-12.5 443.5,-24.5 443.5,-24.5 443.5,-30.5 437.5,-36.5 431.5,-36.5 431.5,-36.5 255.5,-36.5 255.5,-36.5 249.5,-36.5 243.5,-30.5 243.5,-24.5 243.5,-24.5 243.5,-12.5 243.5,-12.5 243.5,-6.5 249.5,-0.5 255.5,-0.5"/>
<text text-anchor="start" x="251.5" y="-21.1" font-family="FreeSans" font-size="8.00" fill="#1c2021">title = &#39;Meet Me At The Bar In 15 Minutes &amp; Suit Up&#39;</text>
<text text-anchor="start" x="251.5" y="-12.1" font-family="FreeSans" font-size="8.00" fill="#1c2021">content = &#39;It was awesome&#39;</text>
</g>
<!-- N2&#45;&gt;N5 -->
<g id="edge4" class="edge"><title>N2&#45;&gt;N5</title>
<path fill="none" stroke="#204a87" stroke-width="2" d="M250.028,-82.338C268.067,-70.2109 292.372,-53.8721 311.675,-40.8948"/>
<polygon fill="#204a87" stroke="#204a87" stroke-width="2" points="318.014,-36.6336 313.672,-43.6189 315.181,-39.1408 312.068,-41.233 311.789,-40.818 311.511,-40.4031 314.623,-38.3109 309.906,-38.0171 318.014,-36.6336 318.014,-36.6336"/>
<text text-anchor="middle" x="315" y="-57.6" font-family="FreeSans" font-size="8.00" fill="#204a87">HAS_REVIEW</text>
</g>
<!-- N4 -->
<g id="node6" class="node"><title>N4</title>
<path fill="#ffffff" stroke="#2e3436" stroke-width="1.5" d="M12,-82.5C12,-82.5 83,-82.5 83,-82.5 89,-82.5 95,-88.5 95,-94.5 95,-94.5 95,-106.5 95,-106.5 95,-112.5 89,-118.5 83,-118.5 83,-118.5 12,-118.5 12,-118.5 6,-118.5 0,-112.5 0,-106.5 0,-106.5 0,-94.5 0,-94.5 0,-88.5 6,-82.5 12,-82.5"/>
<text text-anchor="middle" x="47.5" y="-107.6" font-family="FreeSans" font-size="8.00" fill="#1c2021">Actor</text>
<polyline fill="none" stroke="#2e3436" stroke-width="1.5" points="0,-100.5 95,-100.5 "/>
<text text-anchor="start" x="8" y="-89.6" font-family="FreeSans" font-size="8.00" fill="#1c2021">name = &#39;Josh Radnor&#39;</text>
</g>
<!-- N4&#45;&gt;N3 -->
<g id="edge5" class="edge"><title>N4&#45;&gt;N3</title>
<path fill="none" stroke="#8f5902" stroke-width="2" d="M42.1583,-82.1594C40.514,-73.3503 40.3033,-62.8747 45.5,-55 52.7882,-43.9559 64.297,-36.3352 76.4497,-31.0811"/>
<polygon fill="#8f5902" stroke="#8f5902" stroke-width="2" points="83.6524,-28.253 77.9048,-34.1357 80.3446,-30.089 76.854,-31.4596 76.6713,-30.9942 76.4885,-30.5287 79.9791,-29.1582 75.4378,-27.8526 83.6524,-28.253 83.6524,-28.253"/>
<text text-anchor="middle" x="89.5" y="-57.6" font-family="FreeSans" font-size="8.00" fill="#8f5902">PLAYED_CHARACTER</text>
</g>
<!-- N6 -->
<g id="node7" class="node"><title>N6</title>
<path fill="#ffffff" stroke="#2e3436" stroke-width="1.5" d="M354,-82.5C354,-82.5 427,-82.5 427,-82.5 433,-82.5 439,-88.5 439,-94.5 439,-94.5 439,-106.5 439,-106.5 439,-112.5 433,-118.5 427,-118.5 427,-118.5 354,-118.5 354,-118.5 348,-118.5 342,-112.5 342,-106.5 342,-106.5 342,-94.5 342,-94.5 342,-88.5 348,-82.5 354,-82.5"/>
<text text-anchor="middle" x="390.5" y="-107.6" font-family="FreeSans" font-size="8.00" fill="#1c2021">User</text>
<polyline fill="none" stroke="#2e3436" stroke-width="1.5" points="342,-100.5 439,-100.5 "/>
<text text-anchor="start" x="350" y="-89.6" font-family="FreeSans" font-size="8.00" fill="#1c2021">name = &#39;WakenPayne&#39;</text>
</g>
<!-- N6&#45;&gt;N5 -->
<g id="edge6" class="edge"><title>N6&#45;&gt;N5</title>
<path fill="none" stroke="#5c3566" stroke-width="2" d="M380.302,-82.1412C373.604,-70.7416 364.758,-55.6839 357.417,-43.1887"/>
<polygon fill="#5c3566" stroke="#5c3566" stroke-width="2" points="353.517,-36.5501 360.226,-41.3071 355.848,-39.5301 357.747,-42.7634 357.316,-43.0167 356.885,-43.27 354.985,-40.0367 354.406,-44.7263 353.517,-36.5501 353.517,-36.5501"/>
<text text-anchor="middle" x="402" y="-57.6" font-family="FreeSans" font-size="8.00" fill="#5c3566">WROTE_REVIEW</text>
</g>
</g>
</svg>
