<?xml version="1.0" encoding="UTF-8" standalone="no"?>
<!DOCTYPE svg PUBLIC "-//W3C//DTD SVG 1.1//EN"
 "http://www.w3.org/Graphics/SVG/1.1/DTD/svg11.dtd">
<!-- Generated by graphviz version 2.38.0 (20140413.2041)
 -->
<!-- Title: g Pages: 1 -->
<svg width="159pt" height="136pt"
 viewBox="0.00 0.00 159.00 136.00" xmlns="http://www.w3.org/2000/svg" xmlns:xlink="http://www.w3.org/1999/xlink">
<g id="graph0" class="graph" transform="scale(1 1) rotate(0) translate(4 132)">
<title>g</title>
<polygon fill="white" stroke="none" points="-4,4 -4,-132 155,-132 155,4 -4,4"/>
<!-- N0 -->
<g id="node1" class="node"><title>N0</title>
<path fill="#ffffff" stroke="#2e3436" stroke-width="1.5" d="M12,-91.5C12,-91.5 48,-91.5 48,-91.5 54,-91.5 60,-97.5 60,-103.5 60,-103.5 60,-115.5 60,-115.5 60,-121.5 54,-127.5 48,-127.5 48,-127.5 12,-127.5 12,-127.5 6,-127.5 0,-121.5 0,-115.5 0,-115.5 0,-103.5 0,-103.5 0,-97.5 6,-91.5 12,-91.5"/>
<text text-anchor="start" x="8" y="-107.6" font-family="FreeSans" font-size="8.00" fill="#1c2021">name = &#39;me&#39;</text>
</g>
<!-- N1 -->
<g id="node2" class="node"><title>N1</title>
<path fill="#ffffff" stroke="#2e3436" stroke-width="1.5" d="M53.5,-0.5C53.5,-0.5 96.5,-0.5 96.5,-0.5 102.5,-0.5 108.5,-6.5 108.5,-12.5 108.5,-12.5 108.5,-24.5 108.5,-24.5 108.5,-30.5 102.5,-36.5 96.5,-36.5 96.5,-36.5 53.5,-36.5 53.5,-36.5 47.5,-36.5 41.5,-30.5 41.5,-24.5 41.5,-24.5 41.5,-12.5 41.5,-12.5 41.5,-6.5 47.5,-0.5 53.5,-0.5"/>
<text text-anchor="start" x="49.5" y="-16.6" font-family="FreeSans" font-size="8.00" fill="#1c2021">name = &#39;meat&#39;</text>
</g>
<!-- N0&#45;&gt;N1 -->
<g id="edge1" class="edge"><title>N0&#45;&gt;N1</title>
<path fill="none" stroke="#2e3436" stroke-width="2" d="M33.7329,-91.4897C36.509,-80.6541 40.8798,-66.5366 47,-55 49.221,-50.8135 51.9517,-46.6271 54.8283,-42.6737"/>
<polygon fill="#2e3436" stroke="#2e3436" stroke-width="2" points="59.4163,-36.6864 57.5333,-44.6924 57.5322,-39.9671 55.2513,-42.9437 54.8544,-42.6396 54.4575,-42.3355 56.7384,-39.3589 52.1755,-40.5867 59.4163,-36.6864 59.4163,-36.6864"/>
<text text-anchor="middle" x="65.5" y="-66.6" font-family="FreeSans" font-size="8.00" fill="#2e3436">ATE</text>
<text text-anchor="start" x="47" y="-57.6" font-family="FreeSans" font-size="8.00" fill="#2e3436">times = 10</text>
</g>
<!-- N2 -->
<g id="node3" class="node"><title>N2</title>
<path fill="#ffffff" stroke="#2e3436" stroke-width="1.5" d="M101,-91.5C101,-91.5 139,-91.5 139,-91.5 145,-91.5 151,-97.5 151,-103.5 151,-103.5 151,-115.5 151,-115.5 151,-121.5 145,-127.5 139,-127.5 139,-127.5 101,-127.5 101,-127.5 95,-127.5 89,-121.5 89,-115.5 89,-115.5 89,-103.5 89,-103.5 89,-97.5 95,-91.5 101,-91.5"/>
<text text-anchor="start" x="97" y="-107.6" font-family="FreeSans" font-size="8.00" fill="#1c2021">name = &#39;you&#39;</text>
</g>
<!-- N2&#45;&gt;N1 -->
<g id="edge2" class="edge"><title>N2&#45;&gt;N1</title>
<path fill="none" stroke="#2e3436" stroke-width="2" d="M111.324,-91.3399C104.476,-77.7963 94.8385,-58.7362 87.2115,-43.6516"/>
<polygon fill="#2e3436" stroke="#2e3436" stroke-width="2" points="83.6498,-36.6074 90.0459,-41.7776 85.7881,-39.7284 87.4802,-43.0749 87.034,-43.3005 86.5878,-43.5261 84.8957,-40.1796 84.0221,-44.8234 83.6498,-36.6074 83.6498,-36.6074"/>
<text text-anchor="middle" x="117.5" y="-66.6" font-family="FreeSans" font-size="8.00" fill="#2e3436">ATE</text>
<text text-anchor="start" x="101" y="-57.6" font-family="FreeSans" font-size="8.00" fill="#2e3436">times = 5</text>
</g>
</g>
</svg>
