<?xml version="1.0" encoding="UTF-8" standalone="no"?>
<!DOCTYPE svg PUBLIC "-//W3C//DTD SVG 1.1//EN"
 "http://www.w3.org/Graphics/SVG/1.1/DTD/svg11.dtd">
<!-- Generated by graphviz version 2.38.0 (20140413.2041)
 -->
<!-- Title: g Pages: 1 -->
<svg width="179pt" height="143pt"
 viewBox="0.00 0.00 178.50 143.00" xmlns="http://www.w3.org/2000/svg" xmlns:xlink="http://www.w3.org/1999/xlink">
<g id="graph0" class="graph" transform="scale(1 1) rotate(0) translate(4 139)">
<title>g</title>
<polygon fill="white" stroke="none" points="-4,4 -4,-139 174.5,-139 174.5,4 -4,4"/>
<!-- N0 -->
<g id="node1" class="node"><title>N0</title>
<path fill="#ffffff" stroke="#2e3436" stroke-width="1.5" d="M12,-0.5C12,-0.5 61,-0.5 61,-0.5 67,-0.5 73,-6.5 73,-12.5 73,-12.5 73,-24.5 73,-24.5 73,-30.5 67,-36.5 61,-36.5 61,-36.5 12,-36.5 12,-36.5 6,-36.5 0,-30.5 0,-24.5 0,-24.5 0,-12.5 0,-12.5 0,-6.5 6,-0.5 12,-0.5"/>
<text text-anchor="start" x="8" y="-21.1" font-family="FreeSans" font-size="8.00" fill="#1c2021">name = &#39;Tobias&#39;</text>
<text text-anchor="start" x="8" y="-12.1" font-family="FreeSans" font-size="8.00" fill="#1c2021">age = 25</text>
</g>
<!-- N1 -->
<g id="node2" class="node"><title>N1</title>
<path fill="#ffffff" stroke="#2e3436" stroke-width="1.5" d="M114.5,-0.5C114.5,-0.5 158.5,-0.5 158.5,-0.5 164.5,-0.5 170.5,-6.5 170.5,-12.5 170.5,-12.5 170.5,-24.5 170.5,-24.5 170.5,-30.5 164.5,-36.5 158.5,-36.5 158.5,-36.5 114.5,-36.5 114.5,-36.5 108.5,-36.5 102.5,-30.5 102.5,-24.5 102.5,-24.5 102.5,-12.5 102.5,-12.5 102.5,-6.5 108.5,-0.5 114.5,-0.5"/>
<text text-anchor="start" x="110.5" y="-21.1" font-family="FreeSans" font-size="8.00" fill="#1c2021">name = &#39;Peter&#39;</text>
<text text-anchor="start" x="110.5" y="-12.1" font-family="FreeSans" font-size="8.00" fill="#1c2021">age = 34</text>
</g>
<!-- N2 -->
<g id="node3" class="node"><title>N2</title>
<path fill="#ffffff" stroke="#2e3436" stroke-width="1.5" d="M61.5,-82.5C61.5,-82.5 111.5,-82.5 111.5,-82.5 117.5,-82.5 123.5,-88.5 123.5,-94.5 123.5,-94.5 123.5,-122.5 123.5,-122.5 123.5,-128.5 117.5,-134.5 111.5,-134.5 111.5,-134.5 61.5,-134.5 61.5,-134.5 55.5,-134.5 49.5,-128.5 49.5,-122.5 49.5,-122.5 49.5,-94.5 49.5,-94.5 49.5,-88.5 55.5,-82.5 61.5,-82.5"/>
<text text-anchor="middle" x="86.5" y="-124.1" font-family="FreeSans" font-size="8.00" fill="#1c2021">Swedish</text>
<polyline fill="none" stroke="#2e3436" stroke-width="1.5" points="49.5,-117.5 123.5,-117.5 "/>
<text text-anchor="start" x="57.5" y="-107.1" font-family="FreeSans" font-size="8.00" fill="#1c2021">name = &#39;Andres&#39;</text>
<text text-anchor="start" x="57.5" y="-98.1" font-family="FreeSans" font-size="8.00" fill="#1c2021">age = 36</text>
<text text-anchor="start" x="57.5" y="-89.1" font-family="FreeSans" font-size="8.00" fill="#1c2021">belt = &#39;white&#39;</text>
</g>
<!-- N2&#45;&gt;N0 -->
<g id="edge2" class="edge"><title>N2&#45;&gt;N0</title>
<path fill="none" stroke="#2e3436" stroke-width="2" d="M72.0379,-82.0468C65.0943,-69.826 56.8232,-55.2688 50.0082,-43.2744"/>
<polygon fill="#2e3436" stroke="#2e3436" stroke-width="2" points="46.185,-36.5455 52.8245,-41.3992 48.4722,-39.559 50.3248,-42.8195 49.8901,-43.0665 49.4553,-43.3135 47.6028,-40.053 46.9557,-44.7338 46.185,-36.5455 46.185,-36.5455"/>
<text text-anchor="middle" x="77" y="-57.6" font-family="FreeSans" font-size="8.00" fill="#2e3436">KNOWS</text>
</g>
<!-- N2&#45;&gt;N1 -->
<g id="edge1" class="edge"><title>N2&#45;&gt;N1</title>
<path fill="none" stroke="#2e3436" stroke-width="2" d="M100.962,-82.0468C107.906,-69.826 116.177,-55.2688 122.992,-43.2744"/>
<polygon fill="#2e3436" stroke="#2e3436" stroke-width="2" points="126.815,-36.5455 126.044,-44.7338 125.397,-40.053 123.545,-43.3135 123.11,-43.0665 122.675,-42.8195 124.528,-39.559 120.176,-41.3992 126.815,-36.5455 126.815,-36.5455"/>
<text text-anchor="middle" x="132" y="-57.6" font-family="FreeSans" font-size="8.00" fill="#2e3436">KNOWS</text>
</g>
</g>
</svg>
