<?xml version="1.0" encoding="UTF-8" standalone="no"?>
<!DOCTYPE svg PUBLIC "-//W3C//DTD SVG 1.1//EN"
 "http://www.w3.org/Graphics/SVG/1.1/DTD/svg11.dtd">
<!-- Generated by graphviz version 2.38.0 (20140413.2041)
 -->
<!-- Title: g Pages: 1 -->
<svg width="191pt" height="141pt"
 viewBox="0.00 0.00 190.50 141.00" xmlns="http://www.w3.org/2000/svg" xmlns:xlink="http://www.w3.org/1999/xlink">
<g id="graph0" class="graph" transform="scale(1 1) rotate(0) translate(4 137)">
<title>g</title>
<polygon fill="white" stroke="none" points="-4,4 -4,-137 186.5,-137 186.5,4 -4,4"/>
<!-- N0 -->
<g id="node1" class="node"><title>N0</title>
<path fill="#ffffff" stroke="#2e3436" stroke-width="1.5" d="M12,-0.5C12,-0.5 61,-0.5 61,-0.5 67,-0.5 73,-6.5 73,-12.5 73,-12.5 73,-31.5 73,-31.5 73,-37.5 67,-43.5 61,-43.5 61,-43.5 12,-43.5 12,-43.5 6,-43.5 0,-37.5 0,-31.5 0,-31.5 0,-12.5 0,-12.5 0,-6.5 6,-0.5 12,-0.5"/>
<text text-anchor="middle" x="36.5" y="-33.1" font-family="FreeSans" font-size="8.00" fill="#1c2021">Swedish</text>
<polyline fill="none" stroke="#2e3436" stroke-width="1.5" points="0,-26.5 73,-26.5 "/>
<text text-anchor="start" x="8" y="-16.1" font-family="FreeSans" font-size="8.00" fill="#1c2021">name = &#39;Tobias&#39;</text>
<text text-anchor="start" x="8" y="-7.1" font-family="FreeSans" font-size="8.00" fill="#1c2021">age = 25</text>
</g>
<!-- N1 -->
<g id="node2" class="node"><title>N1</title>
<path fill="#ffffff" stroke="#2e3436" stroke-width="1.5" d="M114.5,-0.5C114.5,-0.5 170.5,-0.5 170.5,-0.5 176.5,-0.5 182.5,-6.5 182.5,-12.5 182.5,-12.5 182.5,-31.5 182.5,-31.5 182.5,-37.5 176.5,-43.5 170.5,-43.5 170.5,-43.5 114.5,-43.5 114.5,-43.5 108.5,-43.5 102.5,-37.5 102.5,-31.5 102.5,-31.5 102.5,-12.5 102.5,-12.5 102.5,-6.5 108.5,-0.5 114.5,-0.5"/>
<text text-anchor="middle" x="142.5" y="-33.1" font-family="FreeSans" font-size="8.00" fill="#1c2021">Swedish, German</text>
<polyline fill="none" stroke="#2e3436" stroke-width="1.5" points="102.5,-26.5 182.5,-26.5 "/>
<text text-anchor="start" x="110.5" y="-16.1" font-family="FreeSans" font-size="8.00" fill="#1c2021">name = &#39;Peter&#39;</text>
<text text-anchor="start" x="110.5" y="-7.1" font-family="FreeSans" font-size="8.00" fill="#1c2021">age = 34</text>
</g>
<!-- N2 -->
<g id="node3" class="node"><title>N2</title>
<path fill="#ffffff" stroke="#2e3436" stroke-width="1.5" d="M64.5,-89.5C64.5,-89.5 114.5,-89.5 114.5,-89.5 120.5,-89.5 126.5,-95.5 126.5,-101.5 126.5,-101.5 126.5,-120.5 126.5,-120.5 126.5,-126.5 120.5,-132.5 114.5,-132.5 114.5,-132.5 64.5,-132.5 64.5,-132.5 58.5,-132.5 52.5,-126.5 52.5,-120.5 52.5,-120.5 52.5,-101.5 52.5,-101.5 52.5,-95.5 58.5,-89.5 64.5,-89.5"/>
<text text-anchor="middle" x="89.5" y="-122.1" font-family="FreeSans" font-size="8.00" fill="#1c2021">Swedish</text>
<polyline fill="none" stroke="#2e3436" stroke-width="1.5" points="52.5,-115.5 126.5,-115.5 "/>
<text text-anchor="start" x="60.5" y="-105.1" font-family="FreeSans" font-size="8.00" fill="#1c2021">name = &#39;Andres&#39;</text>
<text text-anchor="start" x="60.5" y="-96.1" font-family="FreeSans" font-size="8.00" fill="#1c2021">age = 36</text>
</g>
<!-- N2&#45;&gt;N0 -->
<g id="edge2" class="edge"><title>N2&#45;&gt;N0</title>
<path fill="none" stroke="#2e3436" stroke-width="2" d="M76.9397,-89.3822C69.8629,-77.7655 60.9318,-63.1051 53.264,-50.5182"/>
<polygon fill="#2e3436" stroke="#2e3436" stroke-width="2" points="49.1538,-43.7713 55.938,-48.4205 51.5318,-46.7137 53.4828,-49.9162 53.0558,-50.1764 52.6288,-50.4365 50.6778,-47.234 50.1735,-51.9323 49.1538,-43.7713 49.1538,-43.7713"/>
<text text-anchor="middle" x="81" y="-64.6" font-family="FreeSans" font-size="8.00" fill="#2e3436">KNOWS</text>
</g>
<!-- N2&#45;&gt;N1 -->
<g id="edge1" class="edge"><title>N2&#45;&gt;N1</title>
<path fill="none" stroke="#2e3436" stroke-width="2" d="M102.06,-89.3822C109.137,-77.7655 118.068,-63.1051 125.736,-50.5182"/>
<polygon fill="#2e3436" stroke="#2e3436" stroke-width="2" points="129.846,-43.7713 128.827,-51.9323 128.322,-47.234 126.371,-50.4365 125.944,-50.1764 125.517,-49.9162 127.468,-46.7137 123.062,-48.4205 129.846,-43.7713 129.846,-43.7713"/>
<text text-anchor="middle" x="134" y="-64.6" font-family="FreeSans" font-size="8.00" fill="#2e3436">KNOWS</text>
</g>
</g>
</svg>
