<?xml version="1.0" encoding="UTF-8" standalone="no"?>
<!DOCTYPE svg PUBLIC "-//W3C//DTD SVG 1.1//EN"
 "http://www.w3.org/Graphics/SVG/1.1/DTD/svg11.dtd">
<!-- Generated by graphviz version 2.38.0 (20140413.2041)
 -->
<!-- Title: g Pages: 1 -->
<svg width="175pt" height="225pt"
 viewBox="0.00 0.00 175.00 225.00" xmlns="http://www.w3.org/2000/svg" xmlns:xlink="http://www.w3.org/1999/xlink">
<g id="graph0" class="graph" transform="scale(1 1) rotate(0) translate(4 221)">
<title>g</title>
<polygon fill="white" stroke="none" points="-4,4 -4,-221 171,-221 171,4 -4,4"/>
<!-- N0 -->
<g id="node1" class="node"><title>N0</title>
<path fill="#ffffff" stroke="#2e3436" stroke-width="1.5" d="M12,-90.5C12,-90.5 52,-90.5 52,-90.5 58,-90.5 64,-96.5 64,-102.5 64,-102.5 64,-114.5 64,-114.5 64,-120.5 58,-126.5 52,-126.5 52,-126.5 12,-126.5 12,-126.5 6,-126.5 0,-120.5 0,-114.5 0,-114.5 0,-102.5 0,-102.5 0,-96.5 6,-90.5 12,-90.5"/>
<text text-anchor="start" x="8" y="-106.6" font-family="FreeSans" font-size="8.00" fill="#1c2021">name = &#39;Emil&#39;</text>
</g>
<!-- N2 -->
<g id="node2" class="node"><title>N2</title>
<path fill="#ffffff" stroke="#2e3436" stroke-width="1.5" d="M50,-0.5C50,-0.5 94,-0.5 94,-0.5 100,-0.5 106,-6.5 106,-12.5 106,-12.5 106,-24.5 106,-24.5 106,-30.5 100,-36.5 94,-36.5 94,-36.5 50,-36.5 50,-36.5 44,-36.5 38,-30.5 38,-24.5 38,-24.5 38,-12.5 38,-12.5 38,-6.5 44,-0.5 50,-0.5"/>
<text text-anchor="start" x="46" y="-21.1" font-family="FreeSans" font-size="8.00" fill="#1c2021">name = &#39;Peter&#39;</text>
<text text-anchor="start" x="46" y="-12.1" font-family="FreeSans" font-size="8.00" fill="#1c2021">age = 34</text>
</g>
<!-- N0&#45;&gt;N2 -->
<g id="edge1" class="edge"><title>N0&#45;&gt;N2</title>
<path fill="none" stroke="#2e3436" stroke-width="2" d="M34.8885,-90.3856C37.0705,-79.8388 40.6247,-66.2317 46,-55 47.9437,-50.9387 50.3705,-46.8658 52.9549,-43.0019"/>
<polygon fill="#2e3436" stroke="#2e3436" stroke-width="2" points="57.3958,-36.7355 55.8129,-44.8062 55.6354,-40.0842 53.4672,-43.1438 53.0592,-42.8547 52.6513,-42.5656 54.8195,-39.506 50.3056,-40.9033 57.3958,-36.7355 57.3958,-36.7355"/>
<text text-anchor="middle" x="61.5" y="-57.6" font-family="FreeSans" font-size="8.00" fill="#2e3436">KNOWS</text>
</g>
<!-- N1 -->
<g id="node3" class="node"><title>N1</title>
<path fill="#ffffff" stroke="#2e3436" stroke-width="1.5" d="M106,-180.5C106,-180.5 154,-180.5 154,-180.5 160,-180.5 166,-186.5 166,-192.5 166,-192.5 166,-204.5 166,-204.5 166,-210.5 160,-216.5 154,-216.5 154,-216.5 106,-216.5 106,-216.5 100,-216.5 94,-210.5 94,-204.5 94,-204.5 94,-192.5 94,-192.5 94,-186.5 100,-180.5 106,-180.5"/>
<text text-anchor="start" x="102" y="-196.6" font-family="FreeSans" font-size="8.00" fill="#1c2021">name = &#39;Stefan&#39;</text>
</g>
<!-- N3 -->
<g id="node4" class="node"><title>N3</title>
<path fill="#ffffff" stroke="#2e3436" stroke-width="1.5" d="M105,-82.5C105,-82.5 155,-82.5 155,-82.5 161,-82.5 167,-88.5 167,-94.5 167,-94.5 167,-122.5 167,-122.5 167,-128.5 161,-134.5 155,-134.5 155,-134.5 105,-134.5 105,-134.5 99,-134.5 93,-128.5 93,-122.5 93,-122.5 93,-94.5 93,-94.5 93,-88.5 99,-82.5 105,-82.5"/>
<text text-anchor="middle" x="130" y="-124.1" font-family="FreeSans" font-size="8.00" fill="#1c2021">Swedish</text>
<polyline fill="none" stroke="#2e3436" stroke-width="1.5" points="93,-117.5 167,-117.5 "/>
<text text-anchor="start" x="101" y="-107.1" font-family="FreeSans" font-size="8.00" fill="#1c2021">name = &#39;Andres&#39;</text>
<text text-anchor="start" x="101" y="-98.1" font-family="FreeSans" font-size="8.00" fill="#1c2021">age = 36</text>
<text text-anchor="start" x="101" y="-89.1" font-family="FreeSans" font-size="8.00" fill="#1c2021">hungry = true</text>
</g>
<!-- N1&#45;&gt;N3 -->
<g id="edge2" class="edge"><title>N1&#45;&gt;N3</title>
<path fill="none" stroke="#2e3436" stroke-width="2" d="M130,-180.114C130,-169.329 130,-155.127 130,-142.289"/>
<polygon fill="#2e3436" stroke="#2e3436" stroke-width="2" points="130,-134.515 133.375,-142.015 130.5,-138.265 130.5,-142.015 130,-142.015 129.5,-142.015 129.5,-138.265 126.625,-142.015 130,-134.515 130,-134.515"/>
<text text-anchor="middle" x="145.5" y="-155.6" font-family="FreeSans" font-size="8.00" fill="#2e3436">KNOWS</text>
</g>
<!-- N3&#45;&gt;N2 -->
<g id="edge3" class="edge"><title>N3&#45;&gt;N2</title>
<path fill="none" stroke="#2e3436" stroke-width="2" d="M113.224,-82.0468C105.094,-69.7118 95.3954,-54.9965 87.4483,-42.9388"/>
<polygon fill="#2e3436" stroke="#2e3436" stroke-width="2" points="83.2345,-36.5455 90.1799,-40.9504 85.7157,-39.4015 87.7794,-42.5326 87.3619,-42.8077 86.9445,-43.0829 84.8808,-39.9518 84.544,-44.6651 83.2345,-36.5455 83.2345,-36.5455"/>
<text text-anchor="middle" x="116.5" y="-57.6" font-family="FreeSans" font-size="8.00" fill="#2e3436">KNOWS</text>
</g>
</g>
</svg>
