<?xml version="1.0" encoding="UTF-8" standalone="no"?>
<!DOCTYPE svg PUBLIC "-//W3C//DTD SVG 1.1//EN"
 "http://www.w3.org/Graphics/SVG/1.1/DTD/svg11.dtd">
<!-- Generated by graphviz version 2.38.0 (20140413.2041)
 -->
<!-- Title: g Pages: 1 -->
<svg width="381pt" height="209pt"
 viewBox="0.00 0.00 381.00 209.00" xmlns="http://www.w3.org/2000/svg" xmlns:xlink="http://www.w3.org/1999/xlink">
<g id="graph0" class="graph" transform="scale(1 1) rotate(0) translate(4 205)">
<title>g</title>
<polygon fill="white" stroke="none" points="-4,4 -4,-205 377,-205 377,4 -4,4"/>
<!-- N0 -->
<g id="node1" class="node"><title>N0</title>
<path fill="#ffffff" stroke="#2e3436" stroke-width="1.5" d="M116.5,-164.5C116.5,-164.5 175.5,-164.5 175.5,-164.5 181.5,-164.5 187.5,-170.5 187.5,-176.5 187.5,-176.5 187.5,-188.5 187.5,-188.5 187.5,-194.5 181.5,-200.5 175.5,-200.5 175.5,-200.5 116.5,-200.5 116.5,-200.5 110.5,-200.5 104.5,-194.5 104.5,-188.5 104.5,-188.5 104.5,-176.5 104.5,-176.5 104.5,-170.5 110.5,-164.5 116.5,-164.5"/>
<text text-anchor="start" x="112.5" y="-180.6" font-family="FreeSans" font-size="8.00" fill="#1c2021">name = &#39;startnode&#39;</text>
</g>
<!-- N4 -->
<g id="node2" class="node"><title>N4</title>
<path fill="#ffffff" stroke="#2e3436" stroke-width="1.5" d="M12,-82.5C12,-82.5 42,-82.5 42,-82.5 48,-82.5 54,-88.5 54,-94.5 54,-94.5 54,-106.5 54,-106.5 54,-112.5 48,-118.5 42,-118.5 42,-118.5 12,-118.5 12,-118.5 6,-118.5 0,-112.5 0,-106.5 0,-106.5 0,-94.5 0,-94.5 0,-88.5 6,-82.5 12,-82.5"/>
<text text-anchor="middle" x="27" y="-98.6" font-family="FreeSans" font-size="8.00" fill="#1c2021"> </text>
</g>
<!-- N0&#45;&gt;N4 -->
<g id="edge1" class="edge"><title>N0&#45;&gt;N4</title>
<path fill="none" stroke="#2e3436" stroke-width="2" d="M104.06,-169.76C88.8586,-164.178 72.1974,-156.4 59,-146 51.7899,-140.318 45.4697,-132.6 40.3926,-125.186"/>
<polygon fill="#2e3436" stroke="#2e3436" stroke-width="2" points="36.0895,-118.53 42.9959,-122.996 38.5455,-121.408 40.5815,-124.557 40.1616,-124.829 39.7418,-125.1 37.7057,-121.951 37.3274,-126.661 36.0895,-118.53 36.0895,-118.53"/>
<text text-anchor="middle" x="74.5" y="-139.6" font-family="FreeSans" font-size="8.00" fill="#2e3436">KNOWS</text>
</g>
<!-- N3 -->
<g id="node3" class="node"><title>N3</title>
<path fill="#ffffff" stroke="#2e3436" stroke-width="1.5" d="M112,-0.5C112,-0.5 142,-0.5 142,-0.5 148,-0.5 154,-6.5 154,-12.5 154,-12.5 154,-24.5 154,-24.5 154,-30.5 148,-36.5 142,-36.5 142,-36.5 112,-36.5 112,-36.5 106,-36.5 100,-30.5 100,-24.5 100,-24.5 100,-12.5 100,-12.5 100,-6.5 106,-0.5 112,-0.5"/>
<text text-anchor="middle" x="127" y="-16.6" font-family="FreeSans" font-size="8.00" fill="#1c2021"> </text>
</g>
<!-- N0&#45;&gt;N3 -->
<g id="edge2" class="edge"><title>N0&#45;&gt;N3</title>
<path fill="none" stroke="#2e3436" stroke-width="2" d="M139.27,-164.305C134.798,-151.925 129.334,-134.705 127,-119 123.233,-93.6585 123.831,-64.2836 125,-44.0545"/>
<polygon fill="#2e3436" stroke="#2e3436" stroke-width="2" points="125.487,-36.513 128.372,-44.2149 125.745,-40.2874 125.503,-44.0296 125.004,-43.9974 124.505,-43.9651 124.747,-40.2229 121.636,-43.7798 125.487,-36.513 125.487,-36.513"/>
<text text-anchor="middle" x="142.5" y="-98.6" font-family="FreeSans" font-size="8.00" fill="#2e3436">KNOWS</text>
</g>
<!-- N2 -->
<g id="node4" class="node"><title>N2</title>
<path fill="#ffffff" stroke="#2e3436" stroke-width="1.5" d="M184,-82.5C184,-82.5 214,-82.5 214,-82.5 220,-82.5 226,-88.5 226,-94.5 226,-94.5 226,-106.5 226,-106.5 226,-112.5 220,-118.5 214,-118.5 214,-118.5 184,-118.5 184,-118.5 178,-118.5 172,-112.5 172,-106.5 172,-106.5 172,-94.5 172,-94.5 172,-88.5 178,-82.5 184,-82.5"/>
<text text-anchor="middle" x="199" y="-98.6" font-family="FreeSans" font-size="8.00" fill="#1c2021"> </text>
</g>
<!-- N0&#45;&gt;N2 -->
<g id="edge3" class="edge"><title>N0&#45;&gt;N2</title>
<path fill="none" stroke="#2e3436" stroke-width="2" d="M157.5,-164.141C165.122,-152.636 175.213,-137.405 183.536,-124.842"/>
<polygon fill="#2e3436" stroke="#2e3436" stroke-width="2" points="187.704,-118.55 186.376,-126.666 186.05,-121.952 183.979,-125.079 183.562,-124.802 183.145,-124.526 185.216,-121.4 180.748,-122.938 187.704,-118.55 187.704,-118.55"/>
<text text-anchor="middle" x="189.5" y="-139.6" font-family="FreeSans" font-size="8.00" fill="#2e3436">KNOWS</text>
</g>
<!-- N1 -->
<g id="node5" class="node"><title>N1</title>
<path fill="#ffffff" stroke="#2e3436" stroke-width="1.5" d="M267,-82.5C267,-82.5 297,-82.5 297,-82.5 303,-82.5 309,-88.5 309,-94.5 309,-94.5 309,-106.5 309,-106.5 309,-112.5 303,-118.5 297,-118.5 297,-118.5 267,-118.5 267,-118.5 261,-118.5 255,-112.5 255,-106.5 255,-106.5 255,-94.5 255,-94.5 255,-88.5 261,-82.5 267,-82.5"/>
<text text-anchor="middle" x="282" y="-98.6" font-family="FreeSans" font-size="8.00" fill="#1c2021"> </text>
</g>
<!-- N0&#45;&gt;N1 -->
<g id="edge4" class="edge"><title>N0&#45;&gt;N1</title>
<path fill="none" stroke="#2e3436" stroke-width="2" d="M178.824,-164.451C189.496,-158.747 201.335,-152.247 212,-146 224.476,-138.692 237.934,-130.271 249.684,-122.735"/>
<polygon fill="#2e3436" stroke="#2e3436" stroke-width="2" points="256.019,-118.651 251.544,-125.551 253.138,-121.103 249.986,-123.135 249.715,-122.715 249.444,-122.294 252.596,-120.263 247.887,-119.878 256.019,-118.651 256.019,-118.651"/>
<text text-anchor="middle" x="240.5" y="-139.6" font-family="FreeSans" font-size="8.00" fill="#2e3436">KNOWS</text>
</g>
<!-- N2&#45;&gt;N3 -->
<g id="edge7" class="edge"><title>N2&#45;&gt;N3</title>
<path fill="none" stroke="#2e3436" stroke-width="2" d="M183.377,-82.1412C172.832,-70.425 158.81,-54.8446 147.388,-42.1535"/>
<polygon fill="#2e3436" stroke="#2e3436" stroke-width="2" points="142.345,-36.5501 149.871,-39.8671 145.225,-39.003 147.734,-41.7903 147.362,-42.1248 146.991,-42.4593 144.482,-39.6719 144.854,-44.3826 142.345,-36.5501 142.345,-36.5501"/>
<text text-anchor="middle" x="180.5" y="-57.6" font-family="FreeSans" font-size="8.00" fill="#2e3436">KNOWS</text>
</g>
<!-- N6 -->
<g id="node6" class="node"><title>N6</title>
<path fill="#ffffff" stroke="#2e3436" stroke-width="1.5" d="M248,-0.5C248,-0.5 278,-0.5 278,-0.5 284,-0.5 290,-6.5 290,-12.5 290,-12.5 290,-24.5 290,-24.5 290,-30.5 284,-36.5 278,-36.5 278,-36.5 248,-36.5 248,-36.5 242,-36.5 236,-30.5 236,-24.5 236,-24.5 236,-12.5 236,-12.5 236,-6.5 242,-0.5 248,-0.5"/>
<text text-anchor="middle" x="263" y="-16.6" font-family="FreeSans" font-size="8.00" fill="#1c2021"> </text>
</g>
<!-- N1&#45;&gt;N6 -->
<g id="edge5" class="edge"><title>N1&#45;&gt;N6</title>
<path fill="none" stroke="#2e3436" stroke-width="2" d="M277.877,-82.1412C275.22,-70.9527 271.726,-56.2404 268.792,-43.8855"/>
<polygon fill="#2e3436" stroke="#2e3436" stroke-width="2" points="267.049,-36.5501 272.066,-43.0672 268.402,-40.0831 269.269,-43.7316 268.783,-43.8471 268.296,-43.9627 267.429,-40.3142 265.499,-44.627 267.049,-36.5501 267.049,-36.5501"/>
<text text-anchor="middle" x="288.5" y="-57.6" font-family="FreeSans" font-size="8.00" fill="#2e3436">KNOWS</text>
</g>
<!-- N5 -->
<g id="node7" class="node"><title>N5</title>
<path fill="#ffffff" stroke="#2e3436" stroke-width="1.5" d="M331,-0.5C331,-0.5 361,-0.5 361,-0.5 367,-0.5 373,-6.5 373,-12.5 373,-12.5 373,-24.5 373,-24.5 373,-30.5 367,-36.5 361,-36.5 361,-36.5 331,-36.5 331,-36.5 325,-36.5 319,-30.5 319,-24.5 319,-24.5 319,-12.5 319,-12.5 319,-6.5 325,-0.5 331,-0.5"/>
<text text-anchor="middle" x="346" y="-16.6" font-family="FreeSans" font-size="8.00" fill="#1c2021"> </text>
</g>
<!-- N1&#45;&gt;N5 -->
<g id="edge6" class="edge"><title>N1&#45;&gt;N5</title>
<path fill="none" stroke="#2e3436" stroke-width="2" d="M296.225,-82.2181C300.949,-76.4436 306.222,-69.9611 311,-64 316.46,-57.1888 322.344,-49.7477 327.701,-42.9335"/>
<polygon fill="#2e3436" stroke="#2e3436" stroke-width="2" points="332.444,-36.8879 330.47,-44.8717 330.523,-40.1467 328.208,-43.0969 327.815,-42.7882 327.421,-42.4796 329.736,-39.5294 325.159,-40.7048 332.444,-36.8879 332.444,-36.8879"/>
<text text-anchor="middle" x="332.5" y="-57.6" font-family="FreeSans" font-size="8.00" fill="#2e3436">KNOWS</text>
</g>
</g>
</svg>
