<?xml version="1.0" encoding="UTF-8" standalone="no"?>
<!DOCTYPE svg PUBLIC "-//W3C//DTD SVG 1.1//EN"
 "http://www.w3.org/Graphics/SVG/1.1/DTD/svg11.dtd">
<!-- Generated by graphviz version 2.38.0 (20140413.2041)
 -->
<!-- Title: g Pages: 1 -->
<svg width="179pt" height="127pt"
 viewBox="0.00 0.00 178.50 127.00" xmlns="http://www.w3.org/2000/svg" xmlns:xlink="http://www.w3.org/1999/xlink">
<g id="graph0" class="graph" transform="scale(1 1) rotate(0) translate(4 123)">
<title>g</title>
<polygon fill="white" stroke="none" points="-4,4 -4,-123 174.5,-123 174.5,4 -4,4"/>
<!-- N0 -->
<g id="node1" class="node"><title>N0</title>
<path fill="#ffffff" stroke="#2e3436" stroke-width="1.5" d="M12,-0.5C12,-0.5 61,-0.5 61,-0.5 67,-0.5 73,-6.5 73,-12.5 73,-12.5 73,-24.5 73,-24.5 73,-30.5 67,-36.5 61,-36.5 61,-36.5 12,-36.5 12,-36.5 6,-36.5 0,-30.5 0,-24.5 0,-24.5 0,-12.5 0,-12.5 0,-6.5 6,-0.5 12,-0.5"/>
<text text-anchor="start" x="8" y="-21.1" font-family="FreeSans" font-size="8.00" fill="#1c2021">name = &#39;Tobias&#39;</text>
<text text-anchor="start" x="8" y="-12.1" font-family="FreeSans" font-size="8.00" fill="#1c2021">age = 25</text>
</g>
<!-- N1 -->
<g id="node2" class="node"><title>N1</title>
<path fill="#ffffff" stroke="#2e3436" stroke-width="1.5" d="M114.5,-0.5C114.5,-0.5 158.5,-0.5 158.5,-0.5 164.5,-0.5 170.5,-6.5 170.5,-12.5 170.5,-12.5 170.5,-24.5 170.5,-24.5 170.5,-30.5 164.5,-36.5 158.5,-36.5 158.5,-36.5 114.5,-36.5 114.5,-36.5 108.5,-36.5 102.5,-30.5 102.5,-24.5 102.5,-24.5 102.5,-12.5 102.5,-12.5 102.5,-6.5 108.5,-0.5 114.5,-0.5"/>
<text text-anchor="start" x="110.5" y="-21.1" font-family="FreeSans" font-size="8.00" fill="#1c2021">name = &#39;Peter&#39;</text>
<text text-anchor="start" x="110.5" y="-12.1" font-family="FreeSans" font-size="8.00" fill="#1c2021">age = 34</text>
</g>
<!-- N2 -->
<g id="node3" class="node"><title>N2</title>
<path fill="#ffffff" stroke="#2e3436" stroke-width="1.5" d="M61.5,-82.5C61.5,-82.5 111.5,-82.5 111.5,-82.5 117.5,-82.5 123.5,-88.5 123.5,-94.5 123.5,-94.5 123.5,-106.5 123.5,-106.5 123.5,-112.5 117.5,-118.5 111.5,-118.5 111.5,-118.5 61.5,-118.5 61.5,-118.5 55.5,-118.5 49.5,-112.5 49.5,-106.5 49.5,-106.5 49.5,-94.5 49.5,-94.5 49.5,-88.5 55.5,-82.5 61.5,-82.5"/>
<text text-anchor="start" x="57.5" y="-103.1" font-family="FreeSans" font-size="8.00" fill="#1c2021">name = &#39;Andres&#39;</text>
<text text-anchor="start" x="57.5" y="-94.1" font-family="FreeSans" font-size="8.00" fill="#1c2021">age = 36</text>
</g>
<!-- N2&#45;&gt;N0 -->
<g id="edge2" class="edge"><title>N2&#45;&gt;N0</title>
<path fill="none" stroke="#2e3436" stroke-width="2" d="M75.6507,-82.1412C68.526,-70.7416 59.115,-55.6839 51.3055,-43.1887"/>
<polygon fill="#2e3436" stroke="#2e3436" stroke-width="2" points="47.1563,-36.5501 53.9933,-41.1213 49.5678,-39.4651 51.5553,-42.6451 51.1313,-42.9101 50.7073,-43.1751 48.7198,-39.9951 48.2693,-44.6989 47.1563,-36.5501 47.1563,-36.5501"/>
<text text-anchor="middle" x="79" y="-57.6" font-family="FreeSans" font-size="8.00" fill="#2e3436">KNOWS</text>
</g>
<!-- N2&#45;&gt;N1 -->
<g id="edge1" class="edge"><title>N2&#45;&gt;N1</title>
<path fill="none" stroke="#2e3436" stroke-width="2" d="M97.3493,-82.1412C104.474,-70.7416 113.885,-55.6839 121.695,-43.1887"/>
<polygon fill="#2e3436" stroke="#2e3436" stroke-width="2" points="125.844,-36.5501 124.731,-44.6989 124.28,-39.9951 122.293,-43.1751 121.869,-42.9101 121.445,-42.6451 123.432,-39.4651 119.007,-41.1213 125.844,-36.5501 125.844,-36.5501"/>
<text text-anchor="middle" x="129" y="-57.6" font-family="FreeSans" font-size="8.00" fill="#2e3436">KNOWS</text>
</g>
</g>
</svg>
