<?xml version="1.0" encoding="UTF-8" standalone="no"?>
<!DOCTYPE svg PUBLIC "-//W3C//DTD SVG 1.1//EN"
 "http://www.w3.org/Graphics/SVG/1.1/DTD/svg11.dtd">
<!-- Generated by graphviz version 2.38.0 (20140413.2041)
 -->
<!-- Title: g Pages: 1 -->
<svg width="206pt" height="210pt"
 viewBox="0.00 0.00 205.76 210.07" xmlns="http://www.w3.org/2000/svg" xmlns:xlink="http://www.w3.org/1999/xlink">
<g id="graph0" class="graph" transform="scale(1 1) rotate(0) translate(103.085 104.925)">
<title>g</title>
<polygon fill="white" stroke="none" points="-103.085,105.142 -103.085,-104.925 102.676,-104.925 102.676,105.142 -103.085,105.142"/>
<!-- N0 -->
<g id="node1" class="node"><title>N0</title>
<path fill="#ffffff" stroke="#2e3436" stroke-width="1.5" d="M-15.302,18.1289C-15.302,18.1289 14.698,18.1289 14.698,18.1289 20.698,18.1289 26.698,12.1289 26.698,6.12888 26.698,6.12888 26.698,-5.87112 26.698,-5.87112 26.698,-11.8711 20.698,-17.8711 14.698,-17.8711 14.698,-17.8711 -15.302,-17.8711 -15.302,-17.8711 -21.302,-17.8711 -27.302,-11.8711 -27.302,-5.87112 -27.302,-5.87112 -27.302,6.12888 -27.302,6.12888 -27.302,12.1289 -21.302,18.1289 -15.302,18.1289"/>
<text text-anchor="middle" x="-0.301983" y="2.02888" font-family="FreeSans" font-size="8.00" fill="#1c2021"> </text>
</g>
<!-- N6 -->
<g id="node2" class="node"><title>N6</title>
<path fill="#ffffff" stroke="#2e3436" stroke-width="1.5" d="M56.0917,59.6342C56.0917,59.6342 86.0917,59.6342 86.0917,59.6342 92.0917,59.6342 98.0917,53.6342 98.0917,47.6342 98.0917,47.6342 98.0917,35.6342 98.0917,35.6342 98.0917,29.6342 92.0917,23.6342 86.0917,23.6342 86.0917,23.6342 56.0917,23.6342 56.0917,23.6342 50.0917,23.6342 44.0917,29.6342 44.0917,35.6342 44.0917,35.6342 44.0917,47.6342 44.0917,47.6342 44.0917,53.6342 50.0917,59.6342 56.0917,59.6342"/>
<text text-anchor="middle" x="71.0917" y="43.5342" font-family="FreeSans" font-size="8.00" fill="#1c2021"> </text>
</g>
<!-- N0&#45;&gt;N6 -->
<g id="edge1" class="edge"><title>N0&#45;&gt;N6</title>
<path fill="none" stroke="#2e3436" stroke-width="2" d="M27.0965,16.0572C30.4512,18.0075 33.9095,20.018 37.3436,22.0145"/>
<polygon fill="#2e3436" stroke="#2e3436" stroke-width="2" points="43.8844,25.817 39.0968,19.1297 40.8937,23.5 37.6518,21.6152 37.4005,22.0475 37.1492,22.4798 40.3911,24.3645 35.7042,24.9653 43.8844,25.817 43.8844,25.817"/>
<text text-anchor="middle" x="29.2201" y="16.4359" font-family="FreeSans" font-size="8.00" fill="#2e3436">X</text>
</g>
<!-- N5 -->
<g id="node3" class="node"><title>N5</title>
<path fill="#ffffff" stroke="#2e3436" stroke-width="1.5" d="M-15.4675,100.642C-15.4675,100.642 14.5325,100.642 14.5325,100.642 20.5325,100.642 26.5325,94.6424 26.5325,88.6424 26.5325,88.6424 26.5325,76.6424 26.5325,76.6424 26.5325,70.6424 20.5325,64.6424 14.5325,64.6424 14.5325,64.6424 -15.4675,64.6424 -15.4675,64.6424 -21.4675,64.6424 -27.4675,70.6424 -27.4675,76.6424 -27.4675,76.6424 -27.4675,88.6424 -27.4675,88.6424 -27.4675,94.6424 -21.4675,100.642 -15.4675,100.642"/>
<text text-anchor="middle" x="-0.467455" y="84.5424" font-family="FreeSans" font-size="8.00" fill="#1c2021"> </text>
</g>
<!-- N0&#45;&gt;N5 -->
<g id="edge2" class="edge"><title>N0&#45;&gt;N5</title>
<path fill="none" stroke="#2e3436" stroke-width="2" d="M-0.338707,18.4413C-0.361201,29.6582 -0.390349,44.1928 -0.41522,56.5952"/>
<polygon fill="#2e3436" stroke="#2e3436" stroke-width="2" points="-0.430834,64.3812 2.9593,56.888 0.0767332,60.6322 0.0843015,56.8822 -0.415698,56.8812 -0.915697,56.8802 -0.923265,60.6302 -3.79069,56.8744 -0.430834,64.3812 -0.430834,64.3812"/>
<text text-anchor="middle" x="-3.37696" y="34.9183" font-family="FreeSans" font-size="8.00" fill="#2e3436">X</text>
</g>
<!-- N4 -->
<g id="node4" class="node"><title>N4</title>
<path fill="#ffffff" stroke="#2e3436" stroke-width="1.5" d="M-86.0483,-24.3191C-86.0483,-24.3191 -56.0483,-24.3191 -56.0483,-24.3191 -50.0483,-24.3191 -44.0483,-30.3191 -44.0483,-36.3191 -44.0483,-36.3191 -44.0483,-48.3191 -44.0483,-48.3191 -44.0483,-54.3191 -50.0483,-60.3191 -56.0483,-60.3191 -56.0483,-60.3191 -86.0483,-60.3191 -86.0483,-60.3191 -92.0483,-60.3191 -98.0483,-54.3191 -98.0483,-48.3191 -98.0483,-48.3191 -98.0483,-36.3191 -98.0483,-36.3191 -98.0483,-30.3191 -92.0483,-24.3191 -86.0483,-24.3191"/>
<text text-anchor="middle" x="-71.0483" y="-40.4191" font-family="FreeSans" font-size="8.00" fill="#1c2021"> </text>
</g>
<!-- N0&#45;&gt;N4 -->
<g id="edge3" class="edge"><title>N0&#45;&gt;N4</title>
<path fill="none" stroke="#2e3436" stroke-width="2" d="M-27.452,-16.1612C-30.5986,-18.0492 -33.837,-19.9922 -37.0601,-21.9261"/>
<polygon fill="#2e3436" stroke="#2e3436" stroke-width="2" points="-43.62,-25.8621 -38.9252,-19.1092 -40.6616,-23.5039 -37.446,-21.5745 -37.1888,-22.0033 -36.9315,-22.432 -40.1471,-24.3614 -35.4523,-24.8973 -43.62,-25.8621 -43.62,-25.8621"/>
<text text-anchor="middle" x="-35.2561" y="-21.6437" font-family="FreeSans" font-size="8.00" fill="#2e3436">X</text>
</g>
<!-- N3 -->
<g id="node5" class="node"><title>N3</title>
<path fill="#ffffff" stroke="#2e3436" stroke-width="1.5" d="M56.6758,-22.4075C56.6758,-22.4075 86.6758,-22.4075 86.6758,-22.4075 92.6758,-22.4075 98.6758,-28.4075 98.6758,-34.4075 98.6758,-34.4075 98.6758,-46.4075 98.6758,-46.4075 98.6758,-52.4075 92.6758,-58.4075 86.6758,-58.4075 86.6758,-58.4075 56.6758,-58.4075 56.6758,-58.4075 50.6758,-58.4075 44.6758,-52.4075 44.6758,-46.4075 44.6758,-46.4075 44.6758,-34.4075 44.6758,-34.4075 44.6758,-28.4075 50.6758,-22.4075 56.6758,-22.4075"/>
<text text-anchor="middle" x="71.6758" y="-38.5075" font-family="FreeSans" font-size="8.00" fill="#1c2021"> </text>
</g>
<!-- N0&#45;&gt;N3 -->
<g id="edge4" class="edge"><title>N0&#45;&gt;N3</title>
<path fill="none" stroke="#2e3436" stroke-width="2" d="M26.9097,-15.1962C30.4926,-17.214 34.1992,-19.3015 37.8751,-21.3717"/>
<polygon fill="#2e3436" stroke="#2e3436" stroke-width="2" points="44.4256,-25.0608 36.2345,-24.3211 40.9128,-23.6562 37.6453,-21.8161 37.8907,-21.3804 38.136,-20.9447 41.4035,-22.7849 39.5468,-18.4397 44.4256,-25.0608 44.4256,-25.0608"/>
<text text-anchor="middle" x="29.3924" y="-20.8839" font-family="FreeSans" font-size="8.00" fill="#2e3436">X</text>
</g>
<!-- N2 -->
<g id="node6" class="node"><title>N2</title>
<path fill="#ffffff" stroke="#2e3436" stroke-width="1.5" d="M-13.865,-64.4252C-13.865,-64.4252 16.135,-64.4252 16.135,-64.4252 22.135,-64.4252 28.135,-70.4252 28.135,-76.4252 28.135,-76.4252 28.135,-88.4252 28.135,-88.4252 28.135,-94.4252 22.135,-100.425 16.135,-100.425 16.135,-100.425 -13.865,-100.425 -13.865,-100.425 -19.865,-100.425 -25.865,-94.4252 -25.865,-88.4252 -25.865,-88.4252 -25.865,-76.4252 -25.865,-76.4252 -25.865,-70.4252 -19.865,-64.4252 -13.865,-64.4252"/>
<text text-anchor="middle" x="1.13501" y="-80.5252" font-family="FreeSans" font-size="8.00" fill="#1c2021"> </text>
</g>
<!-- N0&#45;&gt;N2 -->
<g id="edge5" class="edge"><title>N0&#45;&gt;N2</title>
<path fill="none" stroke="#2e3436" stroke-width="2" d="M0.0169311,-18.1925C0.212275,-29.4149 0.465399,-43.9567 0.681389,-56.3652"/>
<polygon fill="#2e3436" stroke="#2e3436" stroke-width="2" points="0.816983,-64.155 -2.68813,-56.7149 0.251746,-60.4143 0.186434,-56.6648 0.686358,-56.6561 1.18628,-56.6474 1.25159,-60.3968 4.06085,-56.5973 0.816983,-64.155 0.816983,-64.155"/>
<text text-anchor="middle" x="-2.65084" y="-39.8789" font-family="FreeSans" font-size="8.00" fill="#2e3436">X</text>
</g>
<!-- N1 -->
<g id="node7" class="node"><title>N1</title>
<path fill="#ffffff" stroke="#2e3436" stroke-width="1.5" d="M-87.0847,58.7463C-87.0847,58.7463 -57.0847,58.7463 -57.0847,58.7463 -51.0847,58.7463 -45.0847,52.7463 -45.0847,46.7463 -45.0847,46.7463 -45.0847,34.7463 -45.0847,34.7463 -45.0847,28.7463 -51.0847,22.7463 -57.0847,22.7463 -57.0847,22.7463 -87.0847,22.7463 -87.0847,22.7463 -93.0847,22.7463 -99.0847,28.7463 -99.0847,34.7463 -99.0847,34.7463 -99.0847,46.7463 -99.0847,46.7463 -99.0847,52.7463 -93.0847,58.7463 -87.0847,58.7463"/>
<text text-anchor="middle" x="-72.0847" y="42.6463" font-family="FreeSans" font-size="8.00" fill="#1c2021"> </text>
</g>
<!-- N0&#45;&gt;N1 -->
<g id="edge6" class="edge"><title>N0&#45;&gt;N1</title>
<path fill="none" stroke="#2e3436" stroke-width="2" d="M-27.44,15.4846C-31.0132,17.5065 -34.7097,19.5981 -38.3757,21.6724"/>
<polygon fill="#2e3436" stroke="#2e3436" stroke-width="2" points="-44.9084,25.3689 -36.7188,24.6127 -41.3984,23.9573 -38.1346,22.1105 -38.3809,21.6753 -38.6271,21.2402 -41.8909,23.087 -40.043,18.738 -44.9084,25.3689 -44.9084,25.3689"/>
<text text-anchor="middle" x="-35.9078" y="15.9785" font-family="FreeSans" font-size="8.00" fill="#2e3436">X</text>
</g>
</g>
</svg>
