<?xml version="1.0" encoding="UTF-8" standalone="no"?>
<!DOCTYPE svg PUBLIC "-//W3C//DTD SVG 1.1//EN"
 "http://www.w3.org/Graphics/SVG/1.1/DTD/svg11.dtd">
<!-- Generated by graphviz version 2.38.0 (20140413.2041)
 -->
<!-- Title: g Pages: 1 -->
<svg width="408pt" height="373pt"
 viewBox="0.00 0.00 408.00 373.00" xmlns="http://www.w3.org/2000/svg" xmlns:xlink="http://www.w3.org/1999/xlink">
<g id="graph0" class="graph" transform="scale(1 1) rotate(0) translate(4 369)">
<title>g</title>
<polygon fill="white" stroke="none" points="-4,4 -4,-369 404,-369 404,4 -4,4"/>
<!-- root -->
<g id="node1" class="node"><title>root</title>
<path fill="#ffffff" stroke="#2e3436" stroke-width="1.5" d="M106,-328.5C106,-328.5 136,-328.5 136,-328.5 142,-328.5 148,-334.5 148,-340.5 148,-340.5 148,-352.5 148,-352.5 148,-358.5 142,-364.5 136,-364.5 136,-364.5 106,-364.5 106,-364.5 100,-364.5 94,-358.5 94,-352.5 94,-352.5 94,-340.5 94,-340.5 94,-334.5 100,-328.5 106,-328.5"/>
<text text-anchor="middle" x="121" y="-344.6" font-family="FreeSans" font-size="8.00" fill="#1c2021">Root</text>
</g>
<!-- Y10 -->
<g id="node2" class="node"><title>Y10</title>
<path fill="#ffffff" stroke="#2e3436" stroke-width="1.5" d="M50,-246.5C50,-246.5 80,-246.5 80,-246.5 86,-246.5 92,-252.5 92,-258.5 92,-258.5 92,-270.5 92,-270.5 92,-276.5 86,-282.5 80,-282.5 80,-282.5 50,-282.5 50,-282.5 44,-282.5 38,-276.5 38,-270.5 38,-270.5 38,-258.5 38,-258.5 38,-252.5 44,-246.5 50,-246.5"/>
<text text-anchor="middle" x="65" y="-262.6" font-family="FreeSans" font-size="8.00" fill="#1c2021">Year 2010</text>
</g>
<!-- root&#45;&gt;Y10 -->
<g id="edge1" class="edge"><title>root&#45;&gt;Y10</title>
<path fill="none" stroke="green" stroke-width="3" d="M108.849,-328.141C100.795,-316.636 90.1334,-301.405 81.3396,-288.842"/>
<polygon fill="green" stroke="green" stroke-width="3" points="76.9351,-282.55 84.001,-286.759 79.9048,-285.049 82.0553,-288.121 81.2361,-288.694 80.4168,-289.268 78.2663,-286.196 78.4712,-290.63 76.9351,-282.55 76.9351,-282.55"/>
<text text-anchor="middle" x="104.5" y="-303.6" font-family="FreeSans" font-size="8.00" fill="#1c2021">2010</text>
</g>
<!-- Y11 -->
<g id="node3" class="node"><title>Y11</title>
<path fill="#ffffff" stroke="#2e3436" stroke-width="1.5" d="M167,-246.5C167,-246.5 197,-246.5 197,-246.5 203,-246.5 209,-252.5 209,-258.5 209,-258.5 209,-270.5 209,-270.5 209,-276.5 203,-282.5 197,-282.5 197,-282.5 167,-282.5 167,-282.5 161,-282.5 155,-276.5 155,-270.5 155,-270.5 155,-258.5 155,-258.5 155,-252.5 161,-246.5 167,-246.5"/>
<text text-anchor="middle" x="182" y="-262.6" font-family="FreeSans" font-size="8.00" fill="#1c2021">Year 2011</text>
</g>
<!-- root&#45;&gt;Y11 -->
<g id="edge2" class="edge"><title>root&#45;&gt;Y11</title>
<path fill="none" stroke="#2e3436" stroke-width="2" d="M134.236,-328.141C143.009,-316.636 154.623,-301.405 164.201,-288.842"/>
<polygon fill="#2e3436" stroke="#2e3436" stroke-width="2" points="168.999,-282.55 167.136,-290.561 167.123,-285.835 164.849,-288.817 164.452,-288.514 164.054,-288.211 166.328,-285.229 161.768,-286.468 168.999,-282.55 168.999,-282.55"/>
<text text-anchor="middle" x="163.5" y="-303.6" font-family="FreeSans" font-size="8.00" fill="#1c2021">2011</text>
</g>
<!-- Y10M12 -->
<g id="node4" class="node"><title>Y10M12</title>
<path fill="#ffffff" stroke="#2e3436" stroke-width="1.5" d="M42,-164.5C42,-164.5 72,-164.5 72,-164.5 78,-164.5 84,-170.5 84,-176.5 84,-176.5 84,-188.5 84,-188.5 84,-194.5 78,-200.5 72,-200.5 72,-200.5 42,-200.5 42,-200.5 36,-200.5 30,-194.5 30,-188.5 30,-188.5 30,-176.5 30,-176.5 30,-170.5 36,-164.5 42,-164.5"/>
<text text-anchor="middle" x="57" y="-180.6" font-family="FreeSans" font-size="8.00" fill="#1c2021">Month 12</text>
</g>
<!-- Y10&#45;&gt;Y10M12 -->
<g id="edge3" class="edge"><title>Y10&#45;&gt;Y10M12</title>
<path fill="none" stroke="green" stroke-width="3" d="M63.2641,-246.141C62.1558,-235.058 60.7018,-220.518 59.4736,-208.236"/>
<polygon fill="green" stroke="green" stroke-width="3" points="58.705,-200.55 62.8096,-207.677 60.0732,-204.182 60.4464,-207.913 59.4514,-208.013 58.4563,-208.112 58.0832,-204.381 56.0931,-208.349 58.705,-200.55 58.705,-200.55"/>
<text text-anchor="middle" x="67" y="-221.6" font-family="FreeSans" font-size="8.00" fill="#1c2021">12</text>
</g>
<!-- Y11M01 -->
<g id="node5" class="node"><title>Y11M01</title>
<path fill="#ffffff" stroke="#2e3436" stroke-width="1.5" d="M173,-164.5C173,-164.5 203,-164.5 203,-164.5 209,-164.5 215,-170.5 215,-176.5 215,-176.5 215,-188.5 215,-188.5 215,-194.5 209,-200.5 203,-200.5 203,-200.5 173,-200.5 173,-200.5 167,-200.5 161,-194.5 161,-188.5 161,-188.5 161,-176.5 161,-176.5 161,-170.5 167,-164.5 173,-164.5"/>
<text text-anchor="middle" x="188" y="-180.6" font-family="FreeSans" font-size="8.00" fill="#1c2021">Month 01</text>
</g>
<!-- Y11&#45;&gt;Y11M01 -->
<g id="edge4" class="edge"><title>Y11&#45;&gt;Y11M01</title>
<path fill="none" stroke="#2e3436" stroke-width="2" d="M183.302,-246.141C184.133,-235.058 185.224,-220.518 186.145,-208.236"/>
<polygon fill="#2e3436" stroke="#2e3436" stroke-width="2" points="186.721,-200.55 189.526,-208.282 186.939,-204.327 186.659,-208.066 186.16,-208.029 185.662,-207.992 185.942,-204.252 182.795,-207.777 186.721,-200.55 186.721,-200.55"/>
<text text-anchor="middle" x="191" y="-221.6" font-family="FreeSans" font-size="8.00" fill="#1c2021">01</text>
</g>
<!-- Y10M12D31 -->
<g id="node6" class="node"><title>Y10M12D31</title>
<path fill="#ffffff" stroke="#2e3436" stroke-width="1.5" d="M22,-82.5C22,-82.5 52,-82.5 52,-82.5 58,-82.5 64,-88.5 64,-94.5 64,-94.5 64,-106.5 64,-106.5 64,-112.5 58,-118.5 52,-118.5 52,-118.5 22,-118.5 22,-118.5 16,-118.5 10,-112.5 10,-106.5 10,-106.5 10,-94.5 10,-94.5 10,-88.5 16,-82.5 22,-82.5"/>
<text text-anchor="middle" x="37" y="-98.6" font-family="FreeSans" font-size="8.00" fill="#1c2021">Day 31</text>
</g>
<!-- Y10M12&#45;&gt;Y10M12D31 -->
<g id="edge5" class="edge"><title>Y10M12&#45;&gt;Y10M12D31</title>
<path fill="none" stroke="green" stroke-width="3" d="M52.6603,-164.141C49.8632,-152.953 46.1851,-138.24 43.0964,-125.886"/>
<polygon fill="green" stroke="green" stroke-width="3" points="41.2625,-118.55 46.3558,-125.008 43.1422,-121.946 44.0518,-125.584 43.0816,-125.826 42.1115,-126.069 41.2019,-122.431 39.8074,-126.645 41.2625,-118.55 41.2625,-118.55"/>
<text text-anchor="middle" x="53" y="-139.6" font-family="FreeSans" font-size="8.00" fill="#1c2021">31</text>
</g>
<!-- Y11M01D01 -->
<g id="node7" class="node"><title>Y11M01D01</title>
<path fill="#ffffff" stroke="#2e3436" stroke-width="1.5" d="M134,-82.5C134,-82.5 164,-82.5 164,-82.5 170,-82.5 176,-88.5 176,-94.5 176,-94.5 176,-106.5 176,-106.5 176,-112.5 170,-118.5 164,-118.5 164,-118.5 134,-118.5 134,-118.5 128,-118.5 122,-112.5 122,-106.5 122,-106.5 122,-94.5 122,-94.5 122,-88.5 128,-82.5 134,-82.5"/>
<text text-anchor="middle" x="149" y="-98.6" font-family="FreeSans" font-size="8.00" fill="#1c2021">Day 01</text>
</g>
<!-- Y11M01&#45;&gt;Y11M01D01 -->
<g id="edge6" class="edge"><title>Y11M01&#45;&gt;Y11M01D01</title>
<path fill="none" stroke="#2e3436" stroke-width="2" d="M179.538,-164.141C174.032,-152.847 166.775,-137.962 160.718,-125.536"/>
<polygon fill="#2e3436" stroke="#2e3436" stroke-width="2" points="157.312,-118.55 163.632,-123.813 159.405,-121.702 161.048,-125.073 160.598,-125.292 160.149,-125.511 158.506,-122.14 157.565,-126.771 157.312,-118.55 157.312,-118.55"/>
<text text-anchor="middle" x="175" y="-139.6" font-family="FreeSans" font-size="8.00" fill="#1c2021">01</text>
</g>
<!-- Y11M01D02 -->
<g id="node8" class="node"><title>Y11M01D02</title>
<path fill="#ffffff" stroke="#2e3436" stroke-width="1.5" d="M246,-82.5C246,-82.5 276,-82.5 276,-82.5 282,-82.5 288,-88.5 288,-94.5 288,-94.5 288,-106.5 288,-106.5 288,-112.5 282,-118.5 276,-118.5 276,-118.5 246,-118.5 246,-118.5 240,-118.5 234,-112.5 234,-106.5 234,-106.5 234,-94.5 234,-94.5 234,-88.5 240,-82.5 246,-82.5"/>
<text text-anchor="middle" x="261" y="-98.6" font-family="FreeSans" font-size="8.00" fill="#1c2021">Day 02</text>
</g>
<!-- Y11M01&#45;&gt;Y11M01D02 -->
<g id="edge7" class="edge"><title>Y11M01&#45;&gt;Y11M01D02</title>
<path fill="none" stroke="#2e3436" stroke-width="2" d="M203.84,-164.141C214.531,-152.425 228.748,-136.845 240.329,-124.154"/>
<polygon fill="#2e3436" stroke="#2e3436" stroke-width="2" points="245.442,-118.55 242.879,-126.365 243.283,-121.657 240.756,-124.427 240.386,-124.09 240.017,-123.753 242.545,-120.983 237.893,-121.815 245.442,-118.55 245.442,-118.55"/>
<text text-anchor="middle" x="232" y="-139.6" font-family="FreeSans" font-size="8.00" fill="#1c2021">02</text>
</g>
<!-- Y11M01D03 -->
<g id="node9" class="node"><title>Y11M01D03</title>
<path fill="#ffffff" stroke="#2e3436" stroke-width="1.5" d="M358,-82.5C358,-82.5 388,-82.5 388,-82.5 394,-82.5 400,-88.5 400,-94.5 400,-94.5 400,-106.5 400,-106.5 400,-112.5 394,-118.5 388,-118.5 388,-118.5 358,-118.5 358,-118.5 352,-118.5 346,-112.5 346,-106.5 346,-106.5 346,-94.5 346,-94.5 346,-88.5 352,-82.5 358,-82.5"/>
<text text-anchor="middle" x="373" y="-98.6" font-family="FreeSans" font-size="8.00" fill="#1c2021">Day 03</text>
</g>
<!-- Y11M01&#45;&gt;Y11M01D03 -->
<g id="edge8" class="edge"><title>Y11M01&#45;&gt;Y11M01D03</title>
<path fill="none" stroke="#2e3436" stroke-width="2" d="M215.297,-169.696C248.046,-155.534 302.979,-131.779 338.599,-116.376"/>
<polygon fill="#2e3436" stroke="#2e3436" stroke-width="2" points="345.892,-113.222 340.348,-119.297 342.648,-115.17 339.207,-116.658 339.008,-116.199 338.81,-115.74 342.252,-114.252 337.668,-113.102 345.892,-113.222 345.892,-113.222"/>
<text text-anchor="middle" x="292" y="-139.6" font-family="FreeSans" font-size="8.00" fill="#1c2021">03</text>
</g>
<!-- Y10M12D31&#45;&gt;Y11M01D01 -->
<g id="edge9" class="edge"><title>Y10M12D31&#45;&gt;Y11M01D01</title>
<path fill="none" stroke="#2e3436" stroke-width="2" d="M64.1121,-100.5C79.1337,-100.5 97.9742,-100.5 114.087,-100.5"/>
<polygon fill="#2e3436" stroke="#2e3436" stroke-width="2" points="121.749,-100.5 114.249,-103.875 117.999,-101 114.249,-101 114.249,-100.5 114.249,-100 117.999,-100 114.249,-97.1251 121.749,-100.5 121.749,-100.5"/>
<text text-anchor="middle" x="93" y="-106.1" font-family="FreeSans" font-size="8.00" fill="#1c2021">NEXT</text>
</g>
<!-- E1 -->
<g id="node10" class="node"><title>E1</title>
<path fill="#ffffff" stroke="#2e3436" stroke-width="2" d="M12,-0.5C12,-0.5 42,-0.5 42,-0.5 48,-0.5 54,-6.5 54,-12.5 54,-12.5 54,-24.5 54,-24.5 54,-30.5 48,-36.5 42,-36.5 42,-36.5 12,-36.5 12,-36.5 6,-36.5 0,-30.5 0,-24.5 0,-24.5 0,-12.5 0,-12.5 0,-6.5 6,-0.5 12,-0.5"/>
<text text-anchor="middle" x="27" y="-16.6" font-family="FreeSans" font-size="8.00" fill="#1c2021">Event1</text>
</g>
<!-- Y10M12D31&#45;&gt;E1 -->
<g id="edge12" class="edge"><title>Y10M12D31&#45;&gt;E1</title>
<path fill="none" stroke="red" stroke-width="3" d="M29.9845,-82.4544C27.9543,-76.6957 26.0134,-70.1628 25,-64 23.9588,-57.6687 23.8026,-50.767 24.0671,-44.3298"/>
<polygon fill="red" stroke="red" stroke-width="3" points="24.5922,-36.5022 27.4576,-44.2113 25.3389,-40.3108 25.0879,-44.0524 24.0901,-43.9854 23.0924,-43.9185 23.3434,-40.1769 20.7227,-43.7595 24.5922,-36.5022 24.5922,-36.5022"/>
<text text-anchor="middle" x="38.5" y="-57.6" font-family="FreeSans" font-size="8.00" fill="#1c2021">VALUE</text>
</g>
<!-- E2 -->
<g id="node11" class="node"><title>E2</title>
<path fill="#ffffff" stroke="#2e3436" stroke-width="2" d="M115,-0.5C115,-0.5 145,-0.5 145,-0.5 151,-0.5 157,-6.5 157,-12.5 157,-12.5 157,-24.5 157,-24.5 157,-30.5 151,-36.5 145,-36.5 145,-36.5 115,-36.5 115,-36.5 109,-36.5 103,-30.5 103,-24.5 103,-24.5 103,-12.5 103,-12.5 103,-6.5 109,-0.5 115,-0.5"/>
<text text-anchor="middle" x="130" y="-16.6" font-family="FreeSans" font-size="8.00" fill="#1c2021">Event2</text>
</g>
<!-- Y10M12D31&#45;&gt;E2 -->
<g id="edge13" class="edge"><title>Y10M12D31&#45;&gt;E2</title>
<path fill="none" stroke="red" stroke-width="3" d="M57.1796,-82.1412C71.0451,-70.2139 89.5661,-54.2819 104.459,-41.4704"/>
<polygon fill="red" stroke="red" stroke-width="3" points="110.179,-36.5501 106.694,-43.9997 107.988,-39.7537 105.146,-42.1992 104.493,-41.4411 103.841,-40.683 106.684,-38.2375 102.292,-38.8825 110.179,-36.5501 110.179,-36.5501"/>
<text text-anchor="middle" x="100.5" y="-57.6" font-family="FreeSans" font-size="8.00" fill="#1c2021">VALUE</text>
</g>
<!-- Y11M01D01&#45;&gt;Y11M01D02 -->
<g id="edge10" class="edge"><title>Y11M01D01&#45;&gt;Y11M01D02</title>
<path fill="none" stroke="#2e3436" stroke-width="2" d="M176.112,-100.5C191.134,-100.5 209.974,-100.5 226.087,-100.5"/>
<polygon fill="#2e3436" stroke="#2e3436" stroke-width="2" points="233.749,-100.5 226.249,-103.875 229.999,-101 226.249,-101 226.249,-100.5 226.249,-100 229.999,-100 226.249,-97.1251 233.749,-100.5 233.749,-100.5"/>
<text text-anchor="middle" x="205" y="-106.1" font-family="FreeSans" font-size="8.00" fill="#1c2021">NEXT</text>
</g>
<!-- Y11M01D01&#45;&gt;E2 -->
<g id="edge14" class="edge"><title>Y11M01D01&#45;&gt;E2</title>
<path fill="none" stroke="#2e3436" stroke-width="2" d="M144.877,-82.1412C142.22,-70.9527 138.726,-56.2404 135.792,-43.8855"/>
<polygon fill="#2e3436" stroke="#2e3436" stroke-width="2" points="134.049,-36.5501 139.066,-43.0672 135.402,-40.0831 136.269,-43.7316 135.783,-43.8471 135.296,-43.9627 134.429,-40.3142 132.499,-44.627 134.049,-36.5501 134.049,-36.5501"/>
<text text-anchor="middle" x="154.5" y="-57.6" font-family="FreeSans" font-size="8.00" fill="#1c2021">VALUE</text>
</g>
<!-- Y11M01D02&#45;&gt;Y11M01D03 -->
<g id="edge11" class="edge"><title>Y11M01D02&#45;&gt;Y11M01D03</title>
<path fill="none" stroke="#2e3436" stroke-width="2" d="M288.112,-100.5C303.134,-100.5 321.974,-100.5 338.087,-100.5"/>
<polygon fill="#2e3436" stroke="#2e3436" stroke-width="2" points="345.749,-100.5 338.249,-103.875 341.999,-101 338.249,-101 338.249,-100.5 338.249,-100 341.999,-100 338.249,-97.1251 345.749,-100.5 345.749,-100.5"/>
<text text-anchor="middle" x="317" y="-106.1" font-family="FreeSans" font-size="8.00" fill="#1c2021">NEXT</text>
</g>
<!-- E3 -->
<g id="node12" class="node"><title>E3</title>
<path fill="#ffffff" stroke="#2e3436" stroke-width="2" d="M358,-0.5C358,-0.5 388,-0.5 388,-0.5 394,-0.5 400,-6.5 400,-12.5 400,-12.5 400,-24.5 400,-24.5 400,-30.5 394,-36.5 388,-36.5 388,-36.5 358,-36.5 358,-36.5 352,-36.5 346,-30.5 346,-24.5 346,-24.5 346,-12.5 346,-12.5 346,-6.5 352,-0.5 358,-0.5"/>
<text text-anchor="middle" x="373" y="-16.6" font-family="FreeSans" font-size="8.00" fill="#1c2021">Event3</text>
</g>
<!-- Y11M01D03&#45;&gt;E3 -->
<g id="edge15" class="edge"><title>Y11M01D03&#45;&gt;E3</title>
<path fill="none" stroke="#2e3436" stroke-width="2" d="M373,-82.1412C373,-71.0583 373,-56.5177 373,-44.2358"/>
<polygon fill="#2e3436" stroke="#2e3436" stroke-width="2" points="373,-36.5501 376.375,-44.0501 373.5,-40.3001 373.5,-44.0501 373,-44.0501 372.5,-44.0501 372.5,-40.3001 369.625,-44.0501 373,-36.5501 373,-36.5501"/>
<text text-anchor="middle" x="386.5" y="-57.6" font-family="FreeSans" font-size="8.00" fill="#1c2021">VALUE</text>
</g>
</g>
</svg>
