<?xml version="1.0" encoding="UTF-8" standalone="no"?>
<!DOCTYPE svg PUBLIC "-//W3C//DTD SVG 1.1//EN"
 "http://www.w3.org/Graphics/SVG/1.1/DTD/svg11.dtd">
<!-- Generated by graphviz version 2.38.0 (20140413.2041)
 -->
<!-- Title: g Pages: 1 -->
<svg width="209pt" height="209pt"
 viewBox="0.00 0.00 209.00 209.00" xmlns="http://www.w3.org/2000/svg" xmlns:xlink="http://www.w3.org/1999/xlink">
<g id="graph0" class="graph" transform="scale(1 1) rotate(0) translate(4 205)">
<title>g</title>
<polygon fill="white" stroke="none" points="-4,4 -4,-205 205,-205 205,4 -4,4"/>
<!-- N0 -->
<g id="node1" class="node"><title>N0</title>
<path fill="#ffffff" stroke="#2e3436" stroke-width="1.5" d="M12,-82.5C12,-82.5 42,-82.5 42,-82.5 48,-82.5 54,-88.5 54,-94.5 54,-94.5 54,-106.5 54,-106.5 54,-112.5 48,-118.5 42,-118.5 42,-118.5 12,-118.5 12,-118.5 6,-118.5 0,-112.5 0,-106.5 0,-106.5 0,-94.5 0,-94.5 0,-88.5 6,-82.5 12,-82.5"/>
<text text-anchor="start" x="8" y="-98.6" font-family="FreeSans" font-size="8.00" fill="#1c2021">name = &#39;A&#39;</text>
</g>
<!-- N3 -->
<g id="node2" class="node"><title>N3</title>
<path fill="#ffffff" stroke="#2e3436" stroke-width="1.5" d="M62.5,-0.5C62.5,-0.5 93.5,-0.5 93.5,-0.5 99.5,-0.5 105.5,-6.5 105.5,-12.5 105.5,-12.5 105.5,-24.5 105.5,-24.5 105.5,-30.5 99.5,-36.5 93.5,-36.5 93.5,-36.5 62.5,-36.5 62.5,-36.5 56.5,-36.5 50.5,-30.5 50.5,-24.5 50.5,-24.5 50.5,-12.5 50.5,-12.5 50.5,-6.5 56.5,-0.5 62.5,-0.5"/>
<text text-anchor="start" x="58.5" y="-16.6" font-family="FreeSans" font-size="8.00" fill="#1c2021">name = &#39;C&#39;</text>
</g>
<!-- N0&#45;&gt;N3 -->
<g id="edge1" class="edge"><title>N0&#45;&gt;N3</title>
<path fill="none" stroke="#2e3436" stroke-width="2" d="M38.0662,-82.1412C45.3335,-70.7416 54.9327,-55.6839 62.8984,-43.1887"/>
<polygon fill="#2e3436" stroke="#2e3436" stroke-width="2" points="67.1306,-36.5501 65.9447,-44.6886 65.5363,-39.981 63.5205,-43.1431 63.0988,-42.8743 62.6772,-42.6055 64.6931,-39.4434 60.2529,-41.06 67.1306,-36.5501 67.1306,-36.5501"/>
<text text-anchor="middle" x="70.5" y="-57.6" font-family="FreeSans" font-size="8.00" fill="#2e3436">KNOWS</text>
</g>
<!-- N1 -->
<g id="node3" class="node"><title>N1</title>
<path fill="#ffffff" stroke="#2e3436" stroke-width="1.5" d="M92.5,-164.5C92.5,-164.5 131.5,-164.5 131.5,-164.5 137.5,-164.5 143.5,-170.5 143.5,-176.5 143.5,-176.5 143.5,-188.5 143.5,-188.5 143.5,-194.5 137.5,-200.5 131.5,-200.5 131.5,-200.5 92.5,-200.5 92.5,-200.5 86.5,-200.5 80.5,-194.5 80.5,-188.5 80.5,-188.5 80.5,-176.5 80.5,-176.5 80.5,-170.5 86.5,-164.5 92.5,-164.5"/>
<text text-anchor="start" x="88.5" y="-180.6" font-family="FreeSans" font-size="8.00" fill="#1c2021">name = &#39;root&#39;</text>
</g>
<!-- N1&#45;&gt;N0 -->
<g id="edge4" class="edge"><title>N1&#45;&gt;N0</title>
<path fill="none" stroke="#4e9a06" stroke-width="2" d="M93.5563,-164.141C80.9956,-152.319 64.255,-136.564 50.7057,-123.811"/>
<polygon fill="#4e9a06" stroke="#4e9a06" stroke-width="2" points="45.1157,-118.55 52.8904,-121.233 48.1892,-120.756 50.9199,-123.326 50.5773,-123.69 50.2346,-124.054 47.5038,-121.484 48.2641,-126.148 45.1157,-118.55 45.1157,-118.55"/>
<text text-anchor="middle" x="76" y="-139.6" font-family="FreeSans" font-size="8.00" fill="#4e9a06">X</text>
</g>
<!-- N1&#45;&gt;N3 -->
<g id="edge2" class="edge"><title>N1&#45;&gt;N3</title>
<path fill="none" stroke="#4e9a06" stroke-width="2" d="M110.801,-164.437C108.77,-139.866 103.773,-93.265 93,-55 91.9393,-51.2324 90.58,-47.3329 89.1141,-43.5585"/>
<polygon fill="#4e9a06" stroke="#4e9a06" stroke-width="2" points="86.214,-36.5221 92.1924,-42.1702 88.1053,-39.7987 89.5343,-43.2657 89.072,-43.4563 88.6098,-43.6468 87.1808,-40.1797 85.9517,-44.7424 86.214,-36.5221 86.214,-36.5221"/>
<text text-anchor="middle" x="108" y="-98.6" font-family="FreeSans" font-size="8.00" fill="#4e9a06">X</text>
</g>
<!-- N2 -->
<g id="node4" class="node"><title>N2</title>
<path fill="#ffffff" stroke="#2e3436" stroke-width="1.5" d="M159,-82.5C159,-82.5 189,-82.5 189,-82.5 195,-82.5 201,-88.5 201,-94.5 201,-94.5 201,-106.5 201,-106.5 201,-112.5 195,-118.5 189,-118.5 189,-118.5 159,-118.5 159,-118.5 153,-118.5 147,-112.5 147,-106.5 147,-106.5 147,-94.5 147,-94.5 147,-88.5 153,-82.5 159,-82.5"/>
<text text-anchor="start" x="155" y="-98.6" font-family="FreeSans" font-size="8.00" fill="#1c2021">name = &#39;B&#39;</text>
</g>
<!-- N1&#45;&gt;N2 -->
<g id="edge3" class="edge"><title>N1&#45;&gt;N2</title>
<path fill="none" stroke="#4e9a06" stroke-width="2" d="M125.453,-164.141C134.451,-152.531 146.391,-137.125 156.177,-124.497"/>
<polygon fill="#4e9a06" stroke="#4e9a06" stroke-width="2" points="160.786,-118.55 158.86,-126.546 158.884,-121.82 156.587,-124.785 156.192,-124.478 155.797,-124.172 158.094,-121.208 153.524,-122.411 160.786,-118.55 160.786,-118.55"/>
<text text-anchor="middle" x="147" y="-139.6" font-family="FreeSans" font-size="8.00" fill="#4e9a06">X</text>
</g>
</g>
</svg>
