<?xml version="1.0" encoding="UTF-8" standalone="no"?>
<!DOCTYPE svg PUBLIC "-//W3C//DTD SVG 1.1//EN"
 "http://www.w3.org/Graphics/SVG/1.1/DTD/svg11.dtd">
<!-- Generated by graphviz version 2.38.0 (20140413.2041)
 -->
<!-- Title: g Pages: 1 -->
<svg width="504pt" height="90pt"
 viewBox="0.00 0.00 504.00 89.86" xmlns="http://www.w3.org/2000/svg" xmlns:xlink="http://www.w3.org/1999/xlink">
<g id="graph0" class="graph" transform="scale(0.429948 0.429948) rotate(0) translate(4 205)">
<title>g</title>
<polygon fill="white" stroke="none" points="-4,4 -4,-205 1168.23,-205 1168.23,4 -4,4"/>
<!-- N0 -->
<g id="node1" class="node"><title>N0</title>
<path fill="#ffffff" stroke="#2e3436" stroke-width="1.5" d="M148.734,-82.5C148.734,-82.5 209.734,-82.5 209.734,-82.5 215.734,-82.5 221.734,-88.5 221.734,-94.5 221.734,-94.5 221.734,-106.5 221.734,-106.5 221.734,-112.5 215.734,-118.5 209.734,-118.5 209.734,-118.5 148.734,-118.5 148.734,-118.5 142.734,-118.5 136.734,-112.5 136.734,-106.5 136.734,-106.5 136.734,-94.5 136.734,-94.5 136.734,-88.5 142.734,-82.5 148.734,-82.5"/>
<text text-anchor="start" x="144.734" y="-98.6" font-family="FreeSans" font-size="8.00" fill="#1c2021">name = &#39;U2G2R34&#39;</text>
</g>
<!-- N11 -->
<g id="node2" class="node"><title>N11</title>
<path fill="#ffffff" stroke="#2e3436" stroke-width="1.5" d="M14.2344,-0.5C14.2344,-0.5 66.2344,-0.5 66.2344,-0.5 72.2344,-0.5 78.2344,-6.5 78.2344,-12.5 78.2344,-12.5 78.2344,-24.5 78.2344,-24.5 78.2344,-30.5 72.2344,-36.5 66.2344,-36.5 66.2344,-36.5 14.2344,-36.5 14.2344,-36.5 8.23436,-36.5 2.23436,-30.5 2.23436,-24.5 2.23436,-24.5 2.23436,-12.5 2.23436,-12.5 2.23436,-6.5 8.23436,-0.5 14.2344,-0.5"/>
<text text-anchor="start" x="10.2344" y="-16.6" font-family="FreeSans" font-size="8.00" fill="#1c2021">name = &#39;Group2&#39;</text>
</g>
<!-- N0&#45;&gt;N11 -->
<g id="edge1" class="edge"><title>N0&#45;&gt;N11</title>
<path fill="none" stroke="#2e3436" stroke-width="2" d="M136.604,-96.9486C90.0126,-93.1656 19.7685,-84.2022 3.23436,-64 -2.69864,-56.7508 0.597568,-48.8794 7.18744,-41.8006"/>
<polygon fill="#2e3436" stroke="#2e3436" stroke-width="2" points="12.7705,-36.5653 9.60811,-44.1574 10.377,-39.4951 7.64153,-42.0602 7.29951,-41.6955 6.9575,-41.3308 9.69298,-38.7656 4.99091,-39.2336 12.7705,-36.5653 12.7705,-36.5653"/>
<text text-anchor="middle" x="21.2344" y="-57.6" font-family="FreeSans" font-size="8.00" fill="#2e3436">hasGroup</text>
</g>
<!-- N12 -->
<g id="node3" class="node"><title>N12</title>
<path fill="#ffffff" stroke="#2e3436" stroke-width="1.5" d="M186.234,-0.5C186.234,-0.5 232.234,-0.5 232.234,-0.5 238.234,-0.5 244.234,-6.5 244.234,-12.5 244.234,-12.5 244.234,-24.5 244.234,-24.5 244.234,-30.5 238.234,-36.5 232.234,-36.5 232.234,-36.5 186.234,-36.5 186.234,-36.5 180.234,-36.5 174.234,-30.5 174.234,-24.5 174.234,-24.5 174.234,-12.5 174.234,-12.5 174.234,-6.5 180.234,-0.5 186.234,-0.5"/>
<text text-anchor="start" x="182.234" y="-16.6" font-family="FreeSans" font-size="8.00" fill="#1c2021">name = &#39;Role3&#39;</text>
</g>
<!-- N0&#45;&gt;N12 -->
<g id="edge2" class="edge"><title>N0&#45;&gt;N12</title>
<path fill="none" stroke="#4e9a06" stroke-width="2" d="M152.458,-82.1685C143.702,-74.2655 137.525,-64.5538 143.234,-55 148.766,-45.7433 157.634,-38.7594 167.098,-33.5469"/>
<polygon fill="#4e9a06" stroke="#4e9a06" stroke-width="2" points="174.056,-30.0572 168.865,-36.4366 170.928,-32.1854 167.576,-33.8667 167.352,-33.4198 167.128,-32.9728 170.48,-31.2916 165.839,-30.4029 174.056,-30.0572 174.056,-30.0572"/>
<text text-anchor="middle" x="158.234" y="-57.6" font-family="FreeSans" font-size="8.00" fill="#4e9a06">hasRole</text>
</g>
<!-- N6 -->
<g id="node4" class="node"><title>N6</title>
<path fill="#ffffff" stroke="#2e3436" stroke-width="1.5" d="M336.234,-0.5C336.234,-0.5 382.234,-0.5 382.234,-0.5 388.234,-0.5 394.234,-6.5 394.234,-12.5 394.234,-12.5 394.234,-24.5 394.234,-24.5 394.234,-30.5 388.234,-36.5 382.234,-36.5 382.234,-36.5 336.234,-36.5 336.234,-36.5 330.234,-36.5 324.234,-30.5 324.234,-24.5 324.234,-24.5 324.234,-12.5 324.234,-12.5 324.234,-6.5 330.234,-0.5 336.234,-0.5"/>
<text text-anchor="start" x="332.234" y="-16.6" font-family="FreeSans" font-size="8.00" fill="#1c2021">name = &#39;Role4&#39;</text>
</g>
<!-- N0&#45;&gt;N6 -->
<g id="edge3" class="edge"><title>N0&#45;&gt;N6</title>
<path fill="none" stroke="#4e9a06" stroke-width="2" d="M221.797,-89.3553C252.067,-81.7764 289.816,-71.4788 304.234,-64 315.504,-58.1547 326.639,-49.7754 335.911,-41.8611"/>
<polygon fill="#4e9a06" stroke="#4e9a06" stroke-width="2" points="341.718,-36.7588 338.312,-44.2447 339.231,-39.6097 336.414,-42.085 336.084,-41.7094 335.754,-41.3338 338.571,-38.8585 333.856,-39.174 341.718,-36.7588 341.718,-36.7588"/>
<text text-anchor="middle" x="332.234" y="-57.6" font-family="FreeSans" font-size="8.00" fill="#4e9a06">hasRole</text>
</g>
<!-- N1 -->
<g id="node5" class="node"><title>N1</title>
<path fill="#ffffff" stroke="#2e3436" stroke-width="1.5" d="M397.734,-82.5C397.734,-82.5 458.734,-82.5 458.734,-82.5 464.734,-82.5 470.734,-88.5 470.734,-94.5 470.734,-94.5 470.734,-106.5 470.734,-106.5 470.734,-112.5 464.734,-118.5 458.734,-118.5 458.734,-118.5 397.734,-118.5 397.734,-118.5 391.734,-118.5 385.734,-112.5 385.734,-106.5 385.734,-106.5 385.734,-94.5 385.734,-94.5 385.734,-88.5 391.734,-82.5 397.734,-82.5"/>
<text text-anchor="start" x="393.734" y="-98.6" font-family="FreeSans" font-size="8.00" fill="#1c2021">name = &#39;U1G3R34&#39;</text>
</g>
<!-- N1&#45;&gt;N12 -->
<g id="edge6" class="edge"><title>N1&#45;&gt;N12</title>
<path fill="none" stroke="#4e9a06" stroke-width="2" d="M385.671,-87.3297C378.539,-85.4435 371.196,-83.5947 364.234,-82 321.494,-72.209 307.289,-81.8376 267.234,-64 254.945,-58.5271 242.888,-49.957 232.979,-41.7929"/>
<polygon fill="#4e9a06" stroke="#4e9a06" stroke-width="2" points="227.104,-36.7934 235.003,-39.0835 230.284,-38.8428 233.14,-41.2731 232.816,-41.6539 232.492,-42.0347 229.636,-39.6044 230.629,-44.2243 227.104,-36.7934 227.104,-36.7934"/>
<text text-anchor="middle" x="282.234" y="-57.6" font-family="FreeSans" font-size="8.00" fill="#4e9a06">hasRole</text>
</g>
<!-- N1&#45;&gt;N6 -->
<g id="edge5" class="edge"><title>N1&#45;&gt;N6</title>
<path fill="none" stroke="#4e9a06" stroke-width="2" d="M413.262,-82.1412C403.248,-70.5305 389.961,-55.125 379.069,-42.4972"/>
<polygon fill="#4e9a06" stroke="#4e9a06" stroke-width="2" points="373.94,-36.5501 381.394,-40.0252 376.768,-39.0632 379.217,-41.9029 378.839,-42.2295 378.46,-42.5561 376.011,-39.7164 376.283,-44.4338 373.94,-36.5501 373.94,-36.5501"/>
<text text-anchor="middle" x="410.234" y="-57.6" font-family="FreeSans" font-size="8.00" fill="#4e9a06">hasRole</text>
</g>
<!-- N13 -->
<g id="node6" class="node"><title>N13</title>
<path fill="#ffffff" stroke="#2e3436" stroke-width="1.5" d="M458.234,-0.5C458.234,-0.5 510.234,-0.5 510.234,-0.5 516.234,-0.5 522.234,-6.5 522.234,-12.5 522.234,-12.5 522.234,-24.5 522.234,-24.5 522.234,-30.5 516.234,-36.5 510.234,-36.5 510.234,-36.5 458.234,-36.5 458.234,-36.5 452.234,-36.5 446.234,-30.5 446.234,-24.5 446.234,-24.5 446.234,-12.5 446.234,-12.5 446.234,-6.5 452.234,-0.5 458.234,-0.5"/>
<text text-anchor="start" x="454.234" y="-16.6" font-family="FreeSans" font-size="8.00" fill="#1c2021">name = &#39;Group3&#39;</text>
</g>
<!-- N1&#45;&gt;N13 -->
<g id="edge4" class="edge"><title>N1&#45;&gt;N13</title>
<path fill="none" stroke="#2e3436" stroke-width="2" d="M440.386,-82.1412C448.439,-70.6361 459.101,-55.4048 467.895,-42.8423"/>
<polygon fill="#2e3436" stroke="#2e3436" stroke-width="2" points="472.299,-36.5501 470.763,-44.6298 470.558,-39.909 468.408,-42.9811 467.998,-42.6944 467.589,-42.4076 469.739,-39.3355 465.233,-40.7589 472.299,-36.5501 472.299,-36.5501"/>
<text text-anchor="middle" x="475.234" y="-57.6" font-family="FreeSans" font-size="8.00" fill="#2e3436">hasGroup</text>
</g>
<!-- N2 -->
<g id="node7" class="node"><title>N2</title>
<path fill="#ffffff" stroke="#2e3436" stroke-width="1.5" d="M424.734,-164.5C424.734,-164.5 471.734,-164.5 471.734,-164.5 477.734,-164.5 483.734,-170.5 483.734,-176.5 483.734,-176.5 483.734,-188.5 483.734,-188.5 483.734,-194.5 477.734,-200.5 471.734,-200.5 471.734,-200.5 424.734,-200.5 424.734,-200.5 418.734,-200.5 412.734,-194.5 412.734,-188.5 412.734,-188.5 412.734,-176.5 412.734,-176.5 412.734,-170.5 418.734,-164.5 424.734,-164.5"/>
<text text-anchor="start" x="420.734" y="-180.6" font-family="FreeSans" font-size="8.00" fill="#1c2021">name = &#39;User2&#39;</text>
</g>
<!-- N2&#45;&gt;N0 -->
<g id="edge8" class="edge"><title>N2&#45;&gt;N0</title>
<path fill="none" stroke="#a40000" stroke-width="2" d="M412.439,-174.35C381.837,-167.924 336.769,-157.714 298.234,-146 274.819,-138.882 249.346,-129.574 227.998,-121.312"/>
<polygon fill="#a40000" stroke="#a40000" stroke-width="2" points="220.925,-118.555 229.139,-118.135 224.601,-119.452 228.095,-120.814 227.913,-121.279 227.731,-121.745 224.238,-120.383 226.687,-124.424 220.925,-118.555 220.925,-118.555"/>
<text text-anchor="middle" x="327.734" y="-139.6" font-family="FreeSans" font-size="8.00" fill="#a40000">hasRoleInGroup</text>
</g>
<!-- N16 -->
<g id="node8" class="node"><title>N16</title>
<path fill="#ffffff" stroke="#2e3436" stroke-width="1.5" d="M539.734,-82.5C539.734,-82.5 600.734,-82.5 600.734,-82.5 606.734,-82.5 612.734,-88.5 612.734,-94.5 612.734,-94.5 612.734,-106.5 612.734,-106.5 612.734,-112.5 606.734,-118.5 600.734,-118.5 600.734,-118.5 539.734,-118.5 539.734,-118.5 533.734,-118.5 527.734,-112.5 527.734,-106.5 527.734,-106.5 527.734,-94.5 527.734,-94.5 527.734,-88.5 533.734,-82.5 539.734,-82.5"/>
<text text-anchor="start" x="535.734" y="-98.6" font-family="FreeSans" font-size="8.00" fill="#1c2021">name = &#39;U2G3R56&#39;</text>
</g>
<!-- N2&#45;&gt;N16 -->
<g id="edge7" class="edge"><title>N2&#45;&gt;N16</title>
<path fill="none" stroke="#a40000" stroke-width="2" d="M484.057,-166.948C496.585,-161.186 510.454,-154.015 522.234,-146 531.368,-139.785 540.487,-131.873 548.285,-124.449"/>
<polygon fill="#a40000" stroke="#a40000" stroke-width="2" points="553.969,-118.903 550.958,-126.556 551.635,-121.88 548.95,-124.499 548.601,-124.141 548.252,-123.783 550.936,-121.164 546.244,-121.725 553.969,-118.903 553.969,-118.903"/>
<text text-anchor="middle" x="562.734" y="-139.6" font-family="FreeSans" font-size="8.00" fill="#a40000">hasRoleInGroup</text>
</g>
<!-- N8 -->
<g id="node9" class="node"><title>N8</title>
<path fill="#ffffff" stroke="#2e3436" stroke-width="1.5" d="M766.734,-82.5C766.734,-82.5 827.734,-82.5 827.734,-82.5 833.734,-82.5 839.734,-88.5 839.734,-94.5 839.734,-94.5 839.734,-106.5 839.734,-106.5 839.734,-112.5 833.734,-118.5 827.734,-118.5 827.734,-118.5 766.734,-118.5 766.734,-118.5 760.734,-118.5 754.734,-112.5 754.734,-106.5 754.734,-106.5 754.734,-94.5 754.734,-94.5 754.734,-88.5 760.734,-82.5 766.734,-82.5"/>
<text text-anchor="start" x="762.734" y="-98.6" font-family="FreeSans" font-size="8.00" fill="#1c2021">name = &#39;U2G1R25&#39;</text>
</g>
<!-- N2&#45;&gt;N8 -->
<g id="edge9" class="edge"><title>N2&#45;&gt;N8</title>
<path fill="none" stroke="#a40000" stroke-width="2" d="M483.798,-168.273C488.614,-166.711 493.52,-165.237 498.234,-164 542.339,-152.431 554.536,-155.001 599.234,-146 649.586,-135.86 706.799,-122.838 746.731,-113.505"/>
<polygon fill="#a40000" stroke="#a40000" stroke-width="2" points="754.48,-111.689 747.948,-116.686 750.943,-113.032 747.292,-113.887 747.178,-113.4 747.064,-112.913 750.715,-112.058 746.408,-110.114 754.48,-111.689 754.48,-111.689"/>
<text text-anchor="middle" x="666.734" y="-139.6" font-family="FreeSans" font-size="8.00" fill="#a40000">hasRoleInGroup</text>
</g>
<!-- N16&#45;&gt;N13 -->
<g id="edge22" class="edge"><title>N16&#45;&gt;N13</title>
<path fill="none" stroke="#2e3436" stroke-width="2" d="M551.574,-82.1412C538.865,-70.3194 521.928,-54.5635 508.219,-41.8112"/>
<polygon fill="#2e3436" stroke="#2e3436" stroke-width="2" points="502.563,-36.5501 510.353,-39.1873 505.649,-38.7382 508.395,-41.2923 508.055,-41.6584 507.714,-42.0245 504.968,-39.4703 505.756,-44.1296 502.563,-36.5501 502.563,-36.5501"/>
<text text-anchor="middle" x="547.234" y="-57.6" font-family="FreeSans" font-size="8.00" fill="#2e3436">hasGroup</text>
</g>
<!-- N4 -->
<g id="node13" class="node"><title>N4</title>
<path fill="#ffffff" stroke="#2e3436" stroke-width="1.5" d="M582.234,-0.5C582.234,-0.5 628.234,-0.5 628.234,-0.5 634.234,-0.5 640.234,-6.5 640.234,-12.5 640.234,-12.5 640.234,-24.5 640.234,-24.5 640.234,-30.5 634.234,-36.5 628.234,-36.5 628.234,-36.5 582.234,-36.5 582.234,-36.5 576.234,-36.5 570.234,-30.5 570.234,-24.5 570.234,-24.5 570.234,-12.5 570.234,-12.5 570.234,-6.5 576.234,-0.5 582.234,-0.5"/>
<text text-anchor="start" x="578.234" y="-16.6" font-family="FreeSans" font-size="8.00" fill="#1c2021">name = &#39;Role6&#39;</text>
</g>
<!-- N16&#45;&gt;N4 -->
<g id="edge24" class="edge"><title>N16&#45;&gt;N4</title>
<path fill="none" stroke="#4e9a06" stroke-width="2" d="M577.829,-82.1412C582.77,-70.8472 589.282,-55.9625 594.718,-43.5365"/>
<polygon fill="#4e9a06" stroke="#4e9a06" stroke-width="2" points="597.775,-36.5501 597.861,-44.7741 596.73,-40.1861 595.227,-43.6217 594.769,-43.4213 594.311,-43.2209 595.814,-39.7853 591.677,-42.0685 597.775,-36.5501 597.775,-36.5501"/>
<text text-anchor="middle" x="603.234" y="-57.6" font-family="FreeSans" font-size="8.00" fill="#4e9a06">hasRole</text>
</g>
<!-- N7 -->
<g id="node15" class="node"><title>N7</title>
<path fill="#ffffff" stroke="#2e3436" stroke-width="1.5" d="M696.234,-0.5C696.234,-0.5 742.234,-0.5 742.234,-0.5 748.234,-0.5 754.234,-6.5 754.234,-12.5 754.234,-12.5 754.234,-24.5 754.234,-24.5 754.234,-30.5 748.234,-36.5 742.234,-36.5 742.234,-36.5 696.234,-36.5 696.234,-36.5 690.234,-36.5 684.234,-30.5 684.234,-24.5 684.234,-24.5 684.234,-12.5 684.234,-12.5 684.234,-6.5 690.234,-0.5 696.234,-0.5"/>
<text text-anchor="start" x="692.234" y="-16.6" font-family="FreeSans" font-size="8.00" fill="#1c2021">name = &#39;Role5&#39;</text>
</g>
<!-- N16&#45;&gt;N7 -->
<g id="edge23" class="edge"><title>N16&#45;&gt;N7</title>
<path fill="none" stroke="#4e9a06" stroke-width="2" d="M602.199,-82.338C625.178,-70 656.277,-53.3025 680.642,-40.2208"/>
<polygon fill="#4e9a06" stroke="#4e9a06" stroke-width="2" points="687.323,-36.6336 682.312,-43.155 684.256,-38.8481 680.952,-40.622 680.715,-40.1815 680.479,-39.741 683.783,-37.967 679.119,-37.208 687.323,-36.6336 687.323,-36.6336"/>
<text text-anchor="middle" x="663.234" y="-57.6" font-family="FreeSans" font-size="8.00" fill="#4e9a06">hasRole</text>
</g>
<!-- N10 -->
<g id="node14" class="node"><title>N10</title>
<path fill="#ffffff" stroke="#2e3436" stroke-width="1.5" d="M838.234,-0.5C838.234,-0.5 884.234,-0.5 884.234,-0.5 890.234,-0.5 896.234,-6.5 896.234,-12.5 896.234,-12.5 896.234,-24.5 896.234,-24.5 896.234,-30.5 890.234,-36.5 884.234,-36.5 884.234,-36.5 838.234,-36.5 838.234,-36.5 832.234,-36.5 826.234,-30.5 826.234,-24.5 826.234,-24.5 826.234,-12.5 826.234,-12.5 826.234,-6.5 832.234,-0.5 838.234,-0.5"/>
<text text-anchor="start" x="834.234" y="-16.6" font-family="FreeSans" font-size="8.00" fill="#1c2021">name = &#39;Role2&#39;</text>
</g>
<!-- N8&#45;&gt;N10 -->
<g id="edge18" class="edge"><title>N8&#45;&gt;N10</title>
<path fill="none" stroke="#4e9a06" stroke-width="2" d="M812.652,-82.4019C817.717,-76.6396 823.308,-70.1179 828.234,-64 833.684,-57.2322 839.398,-49.699 844.51,-42.7836"/>
<polygon fill="#4e9a06" stroke="#4e9a06" stroke-width="2" points="849.01,-36.6461 847.297,-44.69 847.196,-39.9658 844.978,-42.9899 844.575,-42.6942 844.172,-42.3985 846.39,-39.3745 841.853,-40.6984 849.01,-36.6461 849.01,-36.6461"/>
<text text-anchor="middle" x="849.234" y="-57.6" font-family="FreeSans" font-size="8.00" fill="#4e9a06">hasRole</text>
</g>
<!-- N8&#45;&gt;N7 -->
<g id="edge17" class="edge"><title>N8&#45;&gt;N7</title>
<path fill="none" stroke="#4e9a06" stroke-width="2" d="M754.684,-83.2172C745.909,-78.1898 737.458,-71.8503 731.234,-64 726.708,-58.2903 723.883,-51.0119 722.122,-44.0034"/>
<polygon fill="#4e9a06" stroke="#4e9a06" stroke-width="2" points="720.599,-36.5913 725.415,-43.2584 721.844,-40.1639 722.598,-43.8371 722.109,-43.9378 721.619,-44.0384 720.864,-40.3652 718.803,-44.6171 720.599,-36.5913 720.599,-36.5913"/>
<text text-anchor="middle" x="746.234" y="-57.6" font-family="FreeSans" font-size="8.00" fill="#4e9a06">hasRole</text>
</g>
<!-- N9 -->
<g id="node16" class="node"><title>N9</title>
<path fill="#ffffff" stroke="#2e3436" stroke-width="1.5" d="M982.234,-0.5C982.234,-0.5 1034.23,-0.5 1034.23,-0.5 1040.23,-0.5 1046.23,-6.5 1046.23,-12.5 1046.23,-12.5 1046.23,-24.5 1046.23,-24.5 1046.23,-30.5 1040.23,-36.5 1034.23,-36.5 1034.23,-36.5 982.234,-36.5 982.234,-36.5 976.234,-36.5 970.234,-30.5 970.234,-24.5 970.234,-24.5 970.234,-12.5 970.234,-12.5 970.234,-6.5 976.234,-0.5 982.234,-0.5"/>
<text text-anchor="start" x="978.234" y="-16.6" font-family="FreeSans" font-size="8.00" fill="#1c2021">name = &#39;Group1&#39;</text>
</g>
<!-- N8&#45;&gt;N9 -->
<g id="edge16" class="edge"><title>N8&#45;&gt;N9</title>
<path fill="none" stroke="#2e3436" stroke-width="2" d="M839.96,-95.6564C873.098,-91.3589 919.428,-82.408 956.234,-64 967.287,-58.4724 977.941,-50.0918 986.697,-42.0884"/>
<polygon fill="#2e3436" stroke="#2e3436" stroke-width="2" points="992.437,-36.6476 989.315,-44.2567 990.059,-39.5903 987.337,-42.1701 986.993,-41.8073 986.649,-41.4444 989.371,-38.8646 984.671,-39.3578 992.437,-36.6476 992.437,-36.6476"/>
<text text-anchor="middle" x="988.234" y="-57.6" font-family="FreeSans" font-size="8.00" fill="#2e3436">hasGroup</text>
</g>
<!-- N3 -->
<g id="node10" class="node"><title>N3</title>
<path fill="#ffffff" stroke="#2e3436" stroke-width="1.5" d="M524.734,-164.5C524.734,-164.5 571.734,-164.5 571.734,-164.5 577.734,-164.5 583.734,-170.5 583.734,-176.5 583.734,-176.5 583.734,-188.5 583.734,-188.5 583.734,-194.5 577.734,-200.5 571.734,-200.5 571.734,-200.5 524.734,-200.5 524.734,-200.5 518.734,-200.5 512.734,-194.5 512.734,-188.5 512.734,-188.5 512.734,-176.5 512.734,-176.5 512.734,-170.5 518.734,-164.5 524.734,-164.5"/>
<text text-anchor="start" x="520.734" y="-180.6" font-family="FreeSans" font-size="8.00" fill="#1c2021">name = &#39;User1&#39;</text>
</g>
<!-- N3&#45;&gt;N1 -->
<g id="edge10" class="edge"><title>N3&#45;&gt;N1</title>
<path fill="none" stroke="#a40000" stroke-width="2" d="M512.714,-168.247C490.295,-159.697 464.738,-149.534 460.234,-146 453.013,-140.333 446.69,-132.617 441.614,-125.203"/>
<polygon fill="#a40000" stroke="#a40000" stroke-width="2" points="437.312,-118.545 444.217,-123.013 439.767,-121.423 441.802,-124.573 441.382,-124.845 440.962,-125.116 438.927,-121.966 438.548,-126.676 437.312,-118.545 437.312,-118.545"/>
<text text-anchor="middle" x="489.734" y="-139.6" font-family="FreeSans" font-size="8.00" fill="#a40000">hasRoleInGroup</text>
</g>
<!-- N5 -->
<g id="node11" class="node"><title>N5</title>
<path fill="#ffffff" stroke="#2e3436" stroke-width="1.5" d="M276.734,-82.5C276.734,-82.5 337.734,-82.5 337.734,-82.5 343.734,-82.5 349.734,-88.5 349.734,-94.5 349.734,-94.5 349.734,-106.5 349.734,-106.5 349.734,-112.5 343.734,-118.5 337.734,-118.5 337.734,-118.5 276.734,-118.5 276.734,-118.5 270.734,-118.5 264.734,-112.5 264.734,-106.5 264.734,-106.5 264.734,-94.5 264.734,-94.5 264.734,-88.5 270.734,-82.5 276.734,-82.5"/>
<text text-anchor="start" x="272.734" y="-98.6" font-family="FreeSans" font-size="8.00" fill="#1c2021">name = &#39;U1G2R23&#39;</text>
</g>
<!-- N3&#45;&gt;N5 -->
<g id="edge11" class="edge"><title>N3&#45;&gt;N5</title>
<path fill="none" stroke="#a40000" stroke-width="2" d="M512.691,-168.191C507.873,-166.643 502.96,-165.193 498.234,-164 448.926,-151.55 433.209,-162.874 385.234,-146 368.93,-140.265 352.119,-131.152 338.299,-122.663"/>
<polygon fill="#a40000" stroke="#a40000" stroke-width="2" points="331.77,-118.562 339.916,-119.693 335.211,-120.133 338.387,-122.128 338.121,-122.551 337.855,-122.974 334.679,-120.98 336.326,-125.409 331.77,-118.562 331.77,-118.562"/>
<text text-anchor="middle" x="414.734" y="-139.6" font-family="FreeSans" font-size="8.00" fill="#a40000">hasRoleInGroup</text>
</g>
<!-- N14 -->
<g id="node12" class="node"><title>N14</title>
<path fill="#ffffff" stroke="#2e3436" stroke-width="1.5" d="M961.734,-82.5C961.734,-82.5 1022.73,-82.5 1022.73,-82.5 1028.73,-82.5 1034.73,-88.5 1034.73,-94.5 1034.73,-94.5 1034.73,-106.5 1034.73,-106.5 1034.73,-112.5 1028.73,-118.5 1022.73,-118.5 1022.73,-118.5 961.734,-118.5 961.734,-118.5 955.734,-118.5 949.734,-112.5 949.734,-106.5 949.734,-106.5 949.734,-94.5 949.734,-94.5 949.734,-88.5 955.734,-82.5 961.734,-82.5"/>
<text text-anchor="start" x="957.734" y="-98.6" font-family="FreeSans" font-size="8.00" fill="#1c2021">name = &#39;U1G1R12&#39;</text>
</g>
<!-- N3&#45;&gt;N14 -->
<g id="edge12" class="edge"><title>N3&#45;&gt;N14</title>
<path fill="none" stroke="#a40000" stroke-width="2" d="M583.818,-175.088C662.479,-160.915 851.334,-126.887 941.999,-110.551"/>
<polygon fill="#a40000" stroke="#a40000" stroke-width="2" points="949.408,-109.216 942.626,-113.868 945.806,-110.374 942.116,-111.039 942.027,-110.546 941.938,-110.054 945.629,-109.389 941.429,-107.225 949.408,-109.216 949.408,-109.216"/>
<text text-anchor="middle" x="812.734" y="-139.6" font-family="FreeSans" font-size="8.00" fill="#a40000">hasRoleInGroup</text>
</g>
<!-- N5&#45;&gt;N11 -->
<g id="edge13" class="edge"><title>N5&#45;&gt;N11</title>
<path fill="none" stroke="#2e3436" stroke-width="2" d="M264.602,-88.1712C255.295,-85.9283 245.467,-83.7344 236.234,-82 175.445,-70.5809 155.394,-87.6343 98.2344,-64 85.6077,-58.7791 73.3437,-50.0796 63.3704,-41.7506"/>
<polygon fill="#2e3436" stroke="#2e3436" stroke-width="2" points="57.4738,-36.6468 65.3535,-39.0033 60.6365,-38.723 63.4719,-41.1771 63.1447,-41.5552 62.8175,-41.9333 59.982,-39.4791 60.9359,-44.1071 57.4738,-36.6468 57.4738,-36.6468"/>
<text text-anchor="middle" x="116.234" y="-57.6" font-family="FreeSans" font-size="8.00" fill="#2e3436">hasGroup</text>
</g>
<!-- N5&#45;&gt;N12 -->
<g id="edge14" class="edge"><title>N5&#45;&gt;N12</title>
<path fill="none" stroke="#4e9a06" stroke-width="2" d="M264.514,-89.5726C240.616,-83.0602 214.248,-73.9322 207.234,-64 203.259,-58.3698 202.294,-51.2662 202.725,-44.3976"/>
<polygon fill="#4e9a06" stroke="#4e9a06" stroke-width="2" points="203.776,-36.5447 206.126,-44.4261 203.774,-40.3279 203.276,-44.0447 202.781,-43.9784 202.285,-43.9121 202.783,-40.1952 199.436,-43.5307 203.776,-36.5447 203.776,-36.5447"/>
<text text-anchor="middle" x="222.234" y="-57.6" font-family="FreeSans" font-size="8.00" fill="#4e9a06">hasRole</text>
</g>
<!-- N5&#45;&gt;N10 -->
<g id="edge15" class="edge"><title>N5&#45;&gt;N10</title>
<path fill="none" stroke="#4e9a06" stroke-width="2" d="M349.983,-86.4117C357.027,-84.6604 364.293,-83.0941 371.234,-82 543.952,-54.775 594.311,-105.213 764.234,-64 775.689,-61.2219 799.717,-50.2135 820.991,-39.8419"/>
<polygon fill="#4e9a06" stroke="#4e9a06" stroke-width="2" points="827.783,-36.5081 822.537,-42.8428 824.637,-38.6095 821.27,-40.262 821.05,-39.8132 820.83,-39.3644 824.196,-37.7118 819.563,-36.7836 827.783,-36.5081 827.783,-36.5081"/>
<text text-anchor="middle" x="802.234" y="-57.6" font-family="FreeSans" font-size="8.00" fill="#4e9a06">hasRole</text>
</g>
<!-- N14&#45;&gt;N10 -->
<g id="edge20" class="edge"><title>N14&#45;&gt;N10</title>
<path fill="none" stroke="#4e9a06" stroke-width="2" d="M956.582,-82.4202C945.693,-76.8694 933.808,-70.466 923.234,-64 911.908,-57.0736 899.949,-48.7517 889.589,-41.1878"/>
<polygon fill="#4e9a06" stroke="#4e9a06" stroke-width="2" points="883.364,-36.5955 891.403,-38.3324 886.679,-38.4195 889.696,-40.6459 889.4,-41.0482 889.103,-41.4506 886.085,-39.2242 887.396,-43.7641 883.364,-36.5955 883.364,-36.5955"/>
<text text-anchor="middle" x="938.234" y="-57.6" font-family="FreeSans" font-size="8.00" fill="#4e9a06">hasRole</text>
</g>
<!-- N14&#45;&gt;N9 -->
<g id="edge19" class="edge"><title>N14&#45;&gt;N9</title>
<path fill="none" stroke="#2e3436" stroke-width="2" d="M1013.68,-82.337C1018.76,-77.0514 1023.5,-70.8104 1026.23,-64 1028.88,-57.4121 1027.77,-50.2811 1025.12,-43.6979"/>
<polygon fill="#2e3436" stroke="#2e3436" stroke-width="2" points="1021.73,-36.8211 1028.07,-42.0585 1023.83,-39.9644 1025.49,-43.3286 1025.04,-43.5495 1024.59,-43.7704 1022.94,-40.4062 1022.01,-45.0405 1021.73,-36.8211 1021.73,-36.8211"/>
<text text-anchor="middle" x="1045.23" y="-57.6" font-family="FreeSans" font-size="8.00" fill="#2e3436">hasGroup</text>
</g>
<!-- N15 -->
<g id="node17" class="node"><title>N15</title>
<path fill="#ffffff" stroke="#2e3436" stroke-width="1.5" d="M1106.23,-0.5C1106.23,-0.5 1152.23,-0.5 1152.23,-0.5 1158.23,-0.5 1164.23,-6.5 1164.23,-12.5 1164.23,-12.5 1164.23,-24.5 1164.23,-24.5 1164.23,-30.5 1158.23,-36.5 1152.23,-36.5 1152.23,-36.5 1106.23,-36.5 1106.23,-36.5 1100.23,-36.5 1094.23,-30.5 1094.23,-24.5 1094.23,-24.5 1094.23,-12.5 1094.23,-12.5 1094.23,-6.5 1100.23,-0.5 1106.23,-0.5"/>
<text text-anchor="start" x="1102.23" y="-16.6" font-family="FreeSans" font-size="8.00" fill="#1c2021">name = &#39;Role1&#39;</text>
</g>
<!-- N14&#45;&gt;N15 -->
<g id="edge21" class="edge"><title>N14&#45;&gt;N15</title>
<path fill="none" stroke="#4e9a06" stroke-width="2" d="M1034.38,-82.3491C1046.25,-76.9806 1058.98,-70.6939 1070.23,-64 1081.47,-57.3185 1093.1,-48.909 1103.04,-41.2043"/>
<polygon fill="#4e9a06" stroke="#4e9a06" stroke-width="2" points="1108.99,-36.5199 1105.18,-43.8111 1106.35,-39.2325 1103.41,-41.5521 1103.1,-41.1593 1102.79,-40.7664 1105.73,-38.4467 1101.01,-38.5074 1108.99,-36.5199 1108.99,-36.5199"/>
<text text-anchor="middle" x="1098.23" y="-57.6" font-family="FreeSans" font-size="8.00" fill="#4e9a06">hasRole</text>
</g>
</g>
</svg>
