<?xml version="1.0" encoding="UTF-8" standalone="no"?>
<!DOCTYPE svg PUBLIC "-//W3C//DTD SVG 1.1//EN"
 "http://www.w3.org/Graphics/SVG/1.1/DTD/svg11.dtd">
<!-- Generated by graphviz version 2.38.0 (20140413.2041)
 -->
<!-- Title: g Pages: 1 -->
<svg width="67pt" height="291pt"
 viewBox="0.00 0.00 66.50 291.00" xmlns="http://www.w3.org/2000/svg" xmlns:xlink="http://www.w3.org/1999/xlink">
<g id="graph0" class="graph" transform="scale(1 1) rotate(0) translate(4 287)">
<title>g</title>
<polygon fill="white" stroke="none" points="-4,4 -4,-287 62.5,-287 62.5,4 -4,4"/>
<!-- N0 -->
<g id="node1" class="node"><title>N0</title>
<path fill="#ffffff" stroke="#2e3436" stroke-width="1.5" d="M12,-0.5C12,-0.5 43,-0.5 43,-0.5 49,-0.5 55,-6.5 55,-12.5 55,-12.5 55,-24.5 55,-24.5 55,-30.5 49,-36.5 43,-36.5 43,-36.5 12,-36.5 12,-36.5 6,-36.5 0,-30.5 0,-24.5 0,-24.5 0,-12.5 0,-12.5 0,-6.5 6,-0.5 12,-0.5"/>
<text text-anchor="start" x="8" y="-16.6" font-family="FreeSans" font-size="8.00" fill="#1c2021">name = &#39;D&#39;</text>
</g>
<!-- N1 -->
<g id="node2" class="node"><title>N1</title>
<path fill="#ffffff" stroke="#2e3436" stroke-width="1.5" d="M12.5,-246.5C12.5,-246.5 42.5,-246.5 42.5,-246.5 48.5,-246.5 54.5,-252.5 54.5,-258.5 54.5,-258.5 54.5,-270.5 54.5,-270.5 54.5,-276.5 48.5,-282.5 42.5,-282.5 42.5,-282.5 12.5,-282.5 12.5,-282.5 6.5,-282.5 0.5,-276.5 0.5,-270.5 0.5,-270.5 0.5,-258.5 0.5,-258.5 0.5,-252.5 6.5,-246.5 12.5,-246.5"/>
<text text-anchor="start" x="8.5" y="-262.6" font-family="FreeSans" font-size="8.00" fill="#1c2021">name = &#39;A&#39;</text>
</g>
<!-- N2 -->
<g id="node3" class="node"><title>N2</title>
<path fill="#ffffff" stroke="#2e3436" stroke-width="1.5" d="M12.5,-164.5C12.5,-164.5 42.5,-164.5 42.5,-164.5 48.5,-164.5 54.5,-170.5 54.5,-176.5 54.5,-176.5 54.5,-188.5 54.5,-188.5 54.5,-194.5 48.5,-200.5 42.5,-200.5 42.5,-200.5 12.5,-200.5 12.5,-200.5 6.5,-200.5 0.5,-194.5 0.5,-188.5 0.5,-188.5 0.5,-176.5 0.5,-176.5 0.5,-170.5 6.5,-164.5 12.5,-164.5"/>
<text text-anchor="start" x="8.5" y="-180.6" font-family="FreeSans" font-size="8.00" fill="#1c2021">name = &#39;B&#39;</text>
</g>
<!-- N1&#45;&gt;N2 -->
<g id="edge1" class="edge"><title>N1&#45;&gt;N2</title>
<path fill="none" stroke="#2e3436" stroke-width="2" d="M27.5,-246.141C27.5,-235.058 27.5,-220.518 27.5,-208.236"/>
<polygon fill="#2e3436" stroke="#2e3436" stroke-width="2" points="27.5,-200.55 30.8751,-208.05 28,-204.3 28.0001,-208.05 27.5001,-208.05 27.0001,-208.05 27,-204.3 24.1251,-208.05 27.5,-200.55 27.5,-200.55"/>
<text text-anchor="middle" x="43" y="-221.6" font-family="FreeSans" font-size="8.00" fill="#2e3436">KNOWS</text>
</g>
<!-- N3 -->
<g id="node4" class="node"><title>N3</title>
<path fill="#ffffff" stroke="#2e3436" stroke-width="1.5" d="M12,-82.5C12,-82.5 43,-82.5 43,-82.5 49,-82.5 55,-88.5 55,-94.5 55,-94.5 55,-106.5 55,-106.5 55,-112.5 49,-118.5 43,-118.5 43,-118.5 12,-118.5 12,-118.5 6,-118.5 0,-112.5 0,-106.5 0,-106.5 0,-94.5 0,-94.5 0,-88.5 6,-82.5 12,-82.5"/>
<text text-anchor="start" x="8" y="-98.6" font-family="FreeSans" font-size="8.00" fill="#1c2021">name = &#39;C&#39;</text>
</g>
<!-- N2&#45;&gt;N3 -->
<g id="edge2" class="edge"><title>N2&#45;&gt;N3</title>
<path fill="none" stroke="#2e3436" stroke-width="2" d="M27.5,-164.141C27.5,-153.058 27.5,-138.518 27.5,-126.236"/>
<polygon fill="#2e3436" stroke="#2e3436" stroke-width="2" points="27.5,-118.55 30.8751,-126.05 28,-122.3 28.0001,-126.05 27.5001,-126.05 27.0001,-126.05 27,-122.3 24.1251,-126.05 27.5,-118.55 27.5,-118.55"/>
<text text-anchor="middle" x="43" y="-139.6" font-family="FreeSans" font-size="8.00" fill="#2e3436">KNOWS</text>
</g>
<!-- N3&#45;&gt;N0 -->
<g id="edge3" class="edge"><title>N3&#45;&gt;N0</title>
<path fill="none" stroke="#2e3436" stroke-width="2" d="M27.5,-82.1412C27.5,-71.0583 27.5,-56.5177 27.5,-44.2358"/>
<polygon fill="#2e3436" stroke="#2e3436" stroke-width="2" points="27.5,-36.5501 30.8751,-44.0501 28,-40.3001 28.0001,-44.0501 27.5001,-44.0501 27.0001,-44.0501 27,-40.3001 24.1251,-44.0501 27.5,-36.5501 27.5,-36.5501"/>
<text text-anchor="middle" x="43" y="-57.6" font-family="FreeSans" font-size="8.00" fill="#2e3436">KNOWS</text>
</g>
</g>
</svg>
