<?xml version="1.0" encoding="UTF-8" standalone="no"?>
<!DOCTYPE svg PUBLIC "-//W3C//DTD SVG 1.1//EN"
 "http://www.w3.org/Graphics/SVG/1.1/DTD/svg11.dtd">
<!-- Generated by graphviz version 2.38.0 (20140413.2041)
 -->
<!-- Title: g Pages: 1 -->
<svg width="433pt" height="127pt"
 viewBox="0.00 0.00 433.00 127.00" xmlns="http://www.w3.org/2000/svg" xmlns:xlink="http://www.w3.org/1999/xlink">
<g id="graph0" class="graph" transform="scale(1 1) rotate(0) translate(4 123)">
<title>g</title>
<polygon fill="white" stroke="none" points="-4,4 -4,-123 429,-123 429,4 -4,4"/>
<!-- N0 -->
<g id="node1" class="node"><title>N0</title>
<path fill="#ffffff" stroke="#2e3436" stroke-width="1.5" d="M24.5,-0.5C24.5,-0.5 94.5,-0.5 94.5,-0.5 100.5,-0.5 106.5,-6.5 106.5,-12.5 106.5,-12.5 106.5,-24.5 106.5,-24.5 106.5,-30.5 100.5,-36.5 94.5,-36.5 94.5,-36.5 24.5,-36.5 24.5,-36.5 18.5,-36.5 12.5,-30.5 12.5,-24.5 12.5,-24.5 12.5,-12.5 12.5,-12.5 12.5,-6.5 18.5,-0.5 24.5,-0.5"/>
<text text-anchor="start" x="20.5" y="-16.6" font-family="FreeSans" font-size="8.00" fill="#1c2021">Node[0]name = &#39;Pet1&#39;</text>
</g>
<!-- N1 -->
<g id="node2" class="node"><title>N1</title>
<path fill="#ffffff" stroke="#2e3436" stroke-width="1.5" d="M280.5,-0.5C280.5,-0.5 350.5,-0.5 350.5,-0.5 356.5,-0.5 362.5,-6.5 362.5,-12.5 362.5,-12.5 362.5,-24.5 362.5,-24.5 362.5,-30.5 356.5,-36.5 350.5,-36.5 350.5,-36.5 280.5,-36.5 280.5,-36.5 274.5,-36.5 268.5,-30.5 268.5,-24.5 268.5,-24.5 268.5,-12.5 268.5,-12.5 268.5,-6.5 274.5,-0.5 280.5,-0.5"/>
<text text-anchor="start" x="276.5" y="-16.6" font-family="FreeSans" font-size="8.00" fill="#1c2021">Node[1]name = &#39;Pet2&#39;</text>
</g>
<!-- N2 -->
<g id="node3" class="node"><title>N2</title>
<path fill="#ffffff" stroke="#2e3436" stroke-width="1.5" d="M179.5,-82.5C179.5,-82.5 249.5,-82.5 249.5,-82.5 255.5,-82.5 261.5,-88.5 261.5,-94.5 261.5,-94.5 261.5,-106.5 261.5,-106.5 261.5,-112.5 255.5,-118.5 249.5,-118.5 249.5,-118.5 179.5,-118.5 179.5,-118.5 173.5,-118.5 167.5,-112.5 167.5,-106.5 167.5,-106.5 167.5,-94.5 167.5,-94.5 167.5,-88.5 173.5,-82.5 179.5,-82.5"/>
<text text-anchor="start" x="175.5" y="-98.6" font-family="FreeSans" font-size="8.00" fill="#1c2021">Node[2]name = &#39;Pet0&#39;</text>
</g>
<!-- N2&#45;&gt;N0 -->
<g id="edge3" class="edge"><title>N2&#45;&gt;N0</title>
<path fill="none" stroke="#2e3436" stroke-width="2" d="M181.249,-82.338C157.344,-70 124.992,-53.3025 99.6466,-40.2208"/>
<polygon fill="#2e3436" stroke="#2e3436" stroke-width="2" points="92.6964,-36.6336 100.909,-37.0744 96.2581,-37.9092 99.5904,-39.6292 99.3611,-40.0735 99.1317,-40.5178 95.7994,-38.7979 97.8131,-43.0726 92.6964,-36.6336 92.6964,-36.6336"/>
<text text-anchor="middle" x="164" y="-57.6" font-family="FreeSans" font-size="8.00" fill="#2e3436">descendant</text>
</g>
<!-- N2&#45;&gt;N1 -->
<g id="edge2" class="edge"><title>N2&#45;&gt;N1</title>
<path fill="none" stroke="#2e3436" stroke-width="2" d="M236.415,-82.1412C251.474,-70.2139 271.588,-54.2819 287.762,-41.4704"/>
<polygon fill="#2e3436" stroke="#2e3436" stroke-width="2" points="293.974,-36.5501 290.191,-43.8525 291.345,-39.2704 288.406,-41.5988 288.095,-41.2069 287.785,-40.815 290.724,-38.4866 286,-38.5613 293.974,-36.5501 293.974,-36.5501"/>
<text text-anchor="middle" x="290" y="-57.6" font-family="FreeSans" font-size="8.00" fill="#2e3436">descendant</text>
</g>
<!-- N3 -->
<g id="node4" class="node"><title>N3</title>
<path fill="#ffffff" stroke="#2e3436" stroke-width="1.5" d="M154.5,-0.5C154.5,-0.5 224.5,-0.5 224.5,-0.5 230.5,-0.5 236.5,-6.5 236.5,-12.5 236.5,-12.5 236.5,-24.5 236.5,-24.5 236.5,-30.5 230.5,-36.5 224.5,-36.5 224.5,-36.5 154.5,-36.5 154.5,-36.5 148.5,-36.5 142.5,-30.5 142.5,-24.5 142.5,-24.5 142.5,-12.5 142.5,-12.5 142.5,-6.5 148.5,-0.5 154.5,-0.5"/>
<text text-anchor="start" x="150.5" y="-16.6" font-family="FreeSans" font-size="8.00" fill="#1c2021">Node[3]name = &#39;Pet3&#39;</text>
</g>
<!-- N2&#45;&gt;N3 -->
<g id="edge1" class="edge"><title>N2&#45;&gt;N3</title>
<path fill="none" stroke="#2e3436" stroke-width="2" d="M209.075,-82.1412C205.579,-70.9527 200.981,-56.2404 197.12,-43.8855"/>
<polygon fill="#2e3436" stroke="#2e3436" stroke-width="2" points="194.828,-36.5501 200.287,-42.702 196.424,-39.9803 197.543,-43.5596 197.065,-43.7087 196.588,-43.8578 195.469,-40.2785 193.844,-44.7154 194.828,-36.5501 194.828,-36.5501"/>
<text text-anchor="middle" x="225" y="-57.6" font-family="FreeSans" font-size="8.00" fill="#2e3436">descendant</text>
</g>
<!-- N4 -->
<g id="node5" class="node"><title>N4</title>
<path fill="#ffffff" stroke="#2e3436" stroke-width="1.5" d="M12,-82.5C12,-82.5 101,-82.5 101,-82.5 107,-82.5 113,-88.5 113,-94.5 113,-94.5 113,-106.5 113,-106.5 113,-112.5 107,-118.5 101,-118.5 101,-118.5 12,-118.5 12,-118.5 6,-118.5 0,-112.5 0,-106.5 0,-106.5 0,-94.5 0,-94.5 0,-88.5 6,-82.5 12,-82.5"/>
<text text-anchor="start" x="8" y="-98.6" font-family="FreeSans" font-size="8.00" fill="#1c2021">Node[4]name = &#39;Principal1&#39;</text>
</g>
<!-- N4&#45;&gt;N0 -->
<g id="edge5" class="edge"><title>N4&#45;&gt;N0</title>
<path fill="none" stroke="#4e9a06" stroke-width="2" d="M37.1804,-82.1217C30.755,-74.2101 26.0218,-64.5045 29.5,-55 31.0633,-50.7281 33.3929,-46.6161 36.0755,-42.8007"/>
<polygon fill="#4e9a06" stroke="#4e9a06" stroke-width="2" points="40.8505,-36.684 38.8958,-44.6727 38.9371,-39.9476 36.6295,-42.9036 36.2354,-42.5959 35.8412,-42.2883 38.1488,-39.3323 33.575,-40.5191 40.8505,-36.684 40.8505,-36.684"/>
<text text-anchor="middle" x="39" y="-57.6" font-family="FreeSans" font-size="8.00" fill="#4e9a06">owns</text>
</g>
<!-- N4&#45;&gt;N3 -->
<g id="edge4" class="edge"><title>N4&#45;&gt;N3</title>
<path fill="none" stroke="#4e9a06" stroke-width="2" d="M63.0293,-82.2209C67.3067,-72.9905 73.742,-62.0995 82.5,-55 91.1399,-47.9963 113.198,-40.2143 135.056,-33.7255"/>
<polygon fill="#4e9a06" stroke="#4e9a06" stroke-width="2" points="142.442,-31.5776 136.183,-36.9128 138.981,-33.1049 135.38,-34.1522 135.24,-33.6721 135.101,-33.192 138.702,-32.1447 134.298,-30.4313 142.442,-31.5776 142.442,-31.5776"/>
<text text-anchor="middle" x="92" y="-57.6" font-family="FreeSans" font-size="8.00" fill="#4e9a06">owns</text>
</g>
<!-- N5 -->
<g id="node6" class="node"><title>N5</title>
<path fill="#ffffff" stroke="#2e3436" stroke-width="1.5" d="M324,-82.5C324,-82.5 413,-82.5 413,-82.5 419,-82.5 425,-88.5 425,-94.5 425,-94.5 425,-106.5 425,-106.5 425,-112.5 419,-118.5 413,-118.5 413,-118.5 324,-118.5 324,-118.5 318,-118.5 312,-112.5 312,-106.5 312,-106.5 312,-94.5 312,-94.5 312,-88.5 318,-82.5 324,-82.5"/>
<text text-anchor="start" x="320" y="-98.6" font-family="FreeSans" font-size="8.00" fill="#1c2021">Node[5]name = &#39;Principal2&#39;</text>
</g>
<!-- N5&#45;&gt;N1 -->
<g id="edge6" class="edge"><title>N5&#45;&gt;N1</title>
<path fill="none" stroke="#4e9a06" stroke-width="2" d="M357,-82.1412C349.378,-70.6361 339.287,-55.4048 330.964,-42.8423"/>
<polygon fill="#4e9a06" stroke="#4e9a06" stroke-width="2" points="326.796,-36.5501 333.752,-40.9385 329.284,-39.4001 331.355,-42.5263 330.938,-42.8025 330.521,-43.0786 328.45,-39.9524 328.124,-44.6665 326.796,-36.5501 326.796,-36.5501"/>
<text text-anchor="middle" x="353" y="-57.6" font-family="FreeSans" font-size="8.00" fill="#4e9a06">owns</text>
</g>
</g>
</svg>
