<?xml version="1.0" encoding="UTF-8" standalone="no"?>
<!DOCTYPE svg PUBLIC "-//W3C//DTD SVG 1.1//EN"
 "http://www.w3.org/Graphics/SVG/1.1/DTD/svg11.dtd">
<!-- Generated by graphviz version 2.38.0 (20140413.2041)
 -->
<!-- Title: g Pages: 1 -->
<svg width="125pt" height="293pt"
 viewBox="0.00 0.00 125.00 293.00" xmlns="http://www.w3.org/2000/svg" xmlns:xlink="http://www.w3.org/1999/xlink">
<g id="graph0" class="graph" transform="scale(1 1) rotate(0) translate(4 289)">
<title>g</title>
<polygon fill="white" stroke="none" points="-4,4 -4,-289 121,-289 121,4 -4,4"/>
<!-- A -->
<g id="node1" class="node"><title>A</title>
<path fill="#ffffff" stroke="#2e3436" stroke-width="1.5" d="M104,-285C104,-285 74,-285 74,-285 68,-285 62,-279 62,-273 62,-273 62,-261 62,-261 62,-255 68,-249 74,-249 74,-249 104,-249 104,-249 110,-249 116,-255 116,-261 116,-261 116,-273 116,-273 116,-279 110,-285 104,-285"/>
<text text-anchor="middle" x="89" y="-264.5" font-family="FreeSans" font-size="10.00" fill="#1c2021">A</text>
</g>
<!-- B -->
<g id="node2" class="node"><title>B</title>
<path fill="#ffffff" stroke="#2e3436" stroke-width="1.5" d="M42,-202C42,-202 12,-202 12,-202 6,-202 0,-196 0,-190 0,-190 0,-178 0,-178 0,-172 6,-166 12,-166 12,-166 42,-166 42,-166 48,-166 54,-172 54,-178 54,-178 54,-190 54,-190 54,-196 48,-202 42,-202"/>
<text text-anchor="middle" x="27" y="-181.5" font-family="FreeSans" font-size="10.00" fill="#1c2021">B</text>
</g>
<!-- A&#45;&gt;B -->
<g id="edge1" class="edge"><title>A&#45;&gt;B</title>
<path fill="none" stroke="#a40000" stroke-width="2" d="M75.8514,-248.822C66.8094,-237.009 54.6937,-221.18 44.7904,-208.242"/>
<polygon fill="#a40000" stroke="#a40000" stroke-width="2" points="40.1297,-202.153 47.3683,-206.057 42.806,-204.827 45.0853,-207.805 44.6883,-208.109 44.2913,-208.413 42.0119,-205.435 42.0083,-210.16 40.1297,-202.153 40.1297,-202.153"/>
<text text-anchor="middle" x="74" y="-223" font-family="FreeSans" font-size="10.00" fill="#a40000">REL1</text>
</g>
<!-- C -->
<g id="node3" class="node"><title>C</title>
<path fill="#ffffff" stroke="#2e3436" stroke-width="1.5" d="M95,-119C95,-119 65,-119 65,-119 59,-119 53,-113 53,-107 53,-107 53,-95 53,-95 53,-89 59,-83 65,-83 65,-83 95,-83 95,-83 101,-83 107,-89 107,-95 107,-95 107,-107 107,-107 107,-113 101,-119 95,-119"/>
<text text-anchor="middle" x="80" y="-98.5" font-family="FreeSans" font-size="10.00" fill="#1c2021">C</text>
</g>
<!-- A&#45;&gt;C -->
<g id="edge2" class="edge"><title>A&#45;&gt;C</title>
<path fill="none" stroke="#2e3436" stroke-width="2" d="M91.3431,-248.944C92.0202,-243.249 92.6661,-236.862 93,-231 94.7431,-200.397 94.2155,-180.341 88,-137 87.5191,-133.647 86.8819,-130.14 86.1764,-126.696"/>
<polygon fill="#2e3436" stroke="#2e3436" stroke-width="2" points="84.557,-119.341 89.4658,-125.94 85.8517,-122.896 86.658,-126.558 86.1697,-126.666 85.6814,-126.773 84.8751,-123.111 82.8737,-127.391 84.557,-119.341 84.557,-119.341"/>
<text text-anchor="middle" x="105" y="-181.5" font-family="FreeSans" font-size="10.00" fill="#1c2021">REL2</text>
</g>
<!-- B&#45;&gt;C -->
<g id="edge3" class="edge"><title>B&#45;&gt;C</title>
<path fill="none" stroke="#a40000" stroke-width="2" d="M38.2399,-165.822C45.8991,-154.116 56.1383,-138.468 64.5607,-125.596"/>
<polygon fill="#a40000" stroke="#a40000" stroke-width="2" points="68.7763,-119.153 67.4939,-127.277 67.1414,-122.565 65.0882,-125.703 64.6698,-125.429 64.2514,-125.155 66.3046,-122.017 61.8456,-123.581 68.7763,-119.153 68.7763,-119.153"/>
<text text-anchor="middle" x="69" y="-140" font-family="FreeSans" font-size="10.00" fill="#a40000">REL2</text>
</g>
<!-- D -->
<g id="node4" class="node"><title>D</title>
<path fill="#ffffff" stroke="#2e3436" stroke-width="1.5" d="M95,-36C95,-36 65,-36 65,-36 59,-36 53,-30 53,-24 53,-24 53,-12 53,-12 53,-6 59,-0 65,-0 65,-0 95,-0 95,-0 101,-0 107,-6 107,-12 107,-12 107,-24 107,-24 107,-30 101,-36 95,-36"/>
<text text-anchor="middle" x="80" y="-15.5" font-family="FreeSans" font-size="10.00" fill="#1c2021">D</text>
</g>
<!-- C&#45;&gt;D -->
<g id="edge4" class="edge"><title>C&#45;&gt;D</title>
<path fill="none" stroke="#a40000" stroke-width="2" d="M80,-82.822C80,-71.4386 80,-56.3263 80,-43.6649"/>
<polygon fill="#a40000" stroke="#a40000" stroke-width="2" points="80,-36.1533 83.3751,-43.6532 80.5,-39.9032 80.5001,-43.6532 80.0001,-43.6533 79.5001,-43.6533 79.5,-39.9033 76.6251,-43.6533 80,-36.1533 80,-36.1533"/>
<text text-anchor="middle" x="92" y="-57" font-family="FreeSans" font-size="10.00" fill="#a40000">REL3</text>
</g>
</g>
</svg>
