<?xml version="1.0" encoding="UTF-8" standalone="no"?>
<!DOCTYPE svg PUBLIC "-//W3C//DTD SVG 1.1//EN"
 "http://www.w3.org/Graphics/SVG/1.1/DTD/svg11.dtd">
<!-- Generated by graphviz version 2.38.0 (20140413.2041)
 -->
<!-- Title: g Pages: 1 -->
<svg width="433pt" height="45pt"
 viewBox="0.00 0.00 432.50 45.00" xmlns="http://www.w3.org/2000/svg" xmlns:xlink="http://www.w3.org/1999/xlink">
<g id="graph0" class="graph" transform="scale(1 1) rotate(0) translate(4 41)">
<title>g</title>
<polygon fill="white" stroke="none" points="-4,4 -4,-41 428.5,-41 428.5,4 -4,4"/>
<!-- N45 -->
<g id="node1" class="node"><title>N45</title>
<path fill="#ffffff" stroke="#2e3436" stroke-width="1.5" d="M12,-0.5C12,-0.5 101,-0.5 101,-0.5 107,-0.5 113,-6.5 113,-12.5 113,-12.5 113,-24.5 113,-24.5 113,-30.5 107,-36.5 101,-36.5 101,-36.5 12,-36.5 12,-36.5 6,-36.5 0,-30.5 0,-24.5 0,-24.5 0,-12.5 0,-12.5 0,-6.5 6,-0.5 12,-0.5"/>
<text text-anchor="middle" x="56.5" y="-25.6" font-family="FreeSans" font-size="8.00" fill="#1c2021">Node[45]: Person, Director</text>
<polyline fill="none" stroke="#2e3436" stroke-width="1.5" points="0,-18.5 113,-18.5 "/>
<text text-anchor="start" x="8" y="-7.6" font-family="FreeSans" font-size="8.00" fill="#1c2021">name = &#39;Steven Spielberg&#39;</text>
</g>
<!-- N46 -->
<g id="node2" class="node"><title>N46</title>
<path fill="#ffffff" stroke="#2e3436" stroke-width="1.5" d="M154,-0.5C154,-0.5 267,-0.5 267,-0.5 273,-0.5 279,-6.5 279,-12.5 279,-12.5 279,-24.5 279,-24.5 279,-30.5 273,-36.5 267,-36.5 267,-36.5 154,-36.5 154,-36.5 148,-36.5 142,-30.5 142,-24.5 142,-24.5 142,-12.5 142,-12.5 142,-6.5 148,-0.5 154,-0.5"/>
<text text-anchor="middle" x="210.5" y="-25.6" font-family="FreeSans" font-size="8.00" fill="#1c2021">Node[46]: Person, Actor, Director</text>
<polyline fill="none" stroke="#2e3436" stroke-width="1.5" points="142,-18.5 279,-18.5 "/>
<text text-anchor="start" x="150" y="-7.6" font-family="FreeSans" font-size="8.00" fill="#1c2021">name = &#39;Clint Eastwood&#39;</text>
</g>
<!-- N47 -->
<g id="node3" class="node"><title>N47</title>
<path fill="#ffffff" stroke="#2e3436" stroke-width="1.5" d="M320.5,-0.5C320.5,-0.5 412.5,-0.5 412.5,-0.5 418.5,-0.5 424.5,-6.5 424.5,-12.5 424.5,-12.5 424.5,-24.5 424.5,-24.5 424.5,-30.5 418.5,-36.5 412.5,-36.5 412.5,-36.5 320.5,-36.5 320.5,-36.5 314.5,-36.5 308.5,-30.5 308.5,-24.5 308.5,-24.5 308.5,-12.5 308.5,-12.5 308.5,-6.5 314.5,-0.5 320.5,-0.5"/>
<text text-anchor="middle" x="366.5" y="-25.6" font-family="FreeSans" font-size="8.00" fill="#1c2021">Node[47]: Person, Actor</text>
<polyline fill="none" stroke="#2e3436" stroke-width="1.5" points="308.5,-18.5 424.5,-18.5 "/>
<text text-anchor="start" x="316.5" y="-7.6" font-family="FreeSans" font-size="8.00" fill="#1c2021">name = &#39;Donald Sutherland&#39;</text>
</g>
</g>
</svg>
