<?xml version="1.0" encoding="UTF-8" standalone="no"?>
<!DOCTYPE svg PUBLIC "-//W3C//DTD SVG 1.1//EN"
 "http://www.w3.org/Graphics/SVG/1.1/DTD/svg11.dtd">
<!-- Generated by graphviz version 2.38.0 (20140413.2041)
 -->
<!-- Title: g Pages: 1 -->
<svg width="241pt" height="127pt"
 viewBox="0.00 0.00 240.50 127.00" xmlns="http://www.w3.org/2000/svg" xmlns:xlink="http://www.w3.org/1999/xlink">
<g id="graph0" class="graph" transform="scale(1 1) rotate(0) translate(4 123)">
<title>g</title>
<polygon fill="white" stroke="none" points="-4,4 -4,-123 236.5,-123 236.5,4 -4,4"/>
<!-- N4 -->
<g id="node1" class="node"><title>N4</title>
<path fill="#ffffff" stroke="#2e3436" stroke-width="1.5" d="M12,-0.5C12,-0.5 88,-0.5 88,-0.5 94,-0.5 100,-6.5 100,-12.5 100,-12.5 100,-24.5 100,-24.5 100,-30.5 94,-36.5 88,-36.5 88,-36.5 12,-36.5 12,-36.5 6,-36.5 0,-30.5 0,-24.5 0,-24.5 0,-12.5 0,-12.5 0,-6.5 6,-0.5 12,-0.5"/>
<text text-anchor="start" x="8" y="-16.6" font-family="FreeSans" font-size="8.00" fill="#1c2021">Node[4]name = &#39;Johan&#39;</text>
</g>
<!-- N5 -->
<g id="node2" class="node"><title>N5</title>
<path fill="#ffffff" stroke="#2e3436" stroke-width="1.5" d="M79.5,-82.5C79.5,-82.5 150.5,-82.5 150.5,-82.5 156.5,-82.5 162.5,-88.5 162.5,-94.5 162.5,-94.5 162.5,-106.5 162.5,-106.5 162.5,-112.5 156.5,-118.5 150.5,-118.5 150.5,-118.5 79.5,-118.5 79.5,-118.5 73.5,-118.5 67.5,-112.5 67.5,-106.5 67.5,-106.5 67.5,-94.5 67.5,-94.5 67.5,-88.5 73.5,-82.5 79.5,-82.5"/>
<text text-anchor="start" x="75.5" y="-98.6" font-family="FreeSans" font-size="8.00" fill="#1c2021">Node[5]name = &#39;Root&#39;</text>
</g>
<!-- N5&#45;&gt;N4 -->
<g id="edge1" class="edge"><title>N5&#45;&gt;N4</title>
<path fill="none" stroke="#2e3436" stroke-width="2" d="M100.896,-82.1412C91.4623,-70.5305 78.9453,-55.125 68.6853,-42.4972"/>
<polygon fill="#2e3436" stroke="#2e3436" stroke-width="2" points="63.8532,-36.5501 71.2021,-40.2427 66.606,-39.1452 68.9707,-42.0557 68.5827,-42.371 68.1946,-42.6863 65.8299,-39.7758 65.9633,-44.4992 63.8532,-36.5501 63.8532,-36.5501"/>
<text text-anchor="middle" x="97" y="-57.6" font-family="FreeSans" font-size="8.00" fill="#2e3436">knows</text>
</g>
<!-- N6 -->
<g id="node3" class="node"><title>N6</title>
<path fill="#ffffff" stroke="#2e3436" stroke-width="1.5" d="M141.5,-0.5C141.5,-0.5 220.5,-0.5 220.5,-0.5 226.5,-0.5 232.5,-6.5 232.5,-12.5 232.5,-12.5 232.5,-24.5 232.5,-24.5 232.5,-30.5 226.5,-36.5 220.5,-36.5 220.5,-36.5 141.5,-36.5 141.5,-36.5 135.5,-36.5 129.5,-30.5 129.5,-24.5 129.5,-24.5 129.5,-12.5 129.5,-12.5 129.5,-6.5 135.5,-0.5 141.5,-0.5"/>
<text text-anchor="start" x="137.5" y="-16.6" font-family="FreeSans" font-size="8.00" fill="#1c2021">Node[6]name = &#39;Mattias&#39;</text>
</g>
<!-- N5&#45;&gt;N6 -->
<g id="edge2" class="edge"><title>N5&#45;&gt;N6</title>
<path fill="none" stroke="#2e3436" stroke-width="2" d="M129.321,-82.1412C138.9,-70.5305 151.609,-55.125 162.027,-42.4972"/>
<polygon fill="#2e3436" stroke="#2e3436" stroke-width="2" points="166.934,-36.5501 164.764,-44.4832 164.933,-39.761 162.546,-42.6536 162.161,-42.3354 161.775,-42.0172 164.162,-39.1246 159.557,-40.1876 166.934,-36.5501 166.934,-36.5501"/>
<text text-anchor="middle" x="162" y="-57.6" font-family="FreeSans" font-size="8.00" fill="#2e3436">knows</text>
</g>
</g>
</svg>
