<?xml version="1.0" encoding="UTF-8" standalone="no"?>
<!DOCTYPE svg PUBLIC "-//W3C//DTD SVG 1.1//EN"
 "http://www.w3.org/Graphics/SVG/1.1/DTD/svg11.dtd">
<!-- Generated by graphviz version 2.38.0 (20140413.2041)
 -->
<!-- Title: g Pages: 1 -->
<svg width="373pt" height="127pt"
 viewBox="0.00 0.00 373.00 127.00" xmlns="http://www.w3.org/2000/svg" xmlns:xlink="http://www.w3.org/1999/xlink">
<g id="graph0" class="graph" transform="scale(1 1) rotate(0) translate(4 123)">
<title>g</title>
<polygon fill="white" stroke="none" points="-4,4 -4,-123 369,-123 369,4 -4,4"/>
<!-- N0 -->
<g id="node1" class="node"><title>N0</title>
<path fill="#ffffff" stroke="#2e3436" stroke-width="1.5" d="M12,-0.5C12,-0.5 91,-0.5 91,-0.5 97,-0.5 103,-6.5 103,-12.5 103,-12.5 103,-24.5 103,-24.5 103,-30.5 97,-36.5 91,-36.5 91,-36.5 12,-36.5 12,-36.5 6,-36.5 0,-30.5 0,-24.5 0,-24.5 0,-12.5 0,-12.5 0,-6.5 6,-0.5 12,-0.5"/>
<text text-anchor="start" x="8" y="-16.6" font-family="FreeSans" font-size="8.00" fill="#1c2021">Node[0]name = &#39;Cookie&#39;</text>
</g>
<!-- N1 -->
<g id="node2" class="node"><title>N1</title>
<path fill="#ffffff" stroke="#2e3436" stroke-width="1.5" d="M144.5,-0.5C144.5,-0.5 220.5,-0.5 220.5,-0.5 226.5,-0.5 232.5,-6.5 232.5,-12.5 232.5,-12.5 232.5,-24.5 232.5,-24.5 232.5,-30.5 226.5,-36.5 220.5,-36.5 220.5,-36.5 144.5,-36.5 144.5,-36.5 138.5,-36.5 132.5,-30.5 132.5,-24.5 132.5,-24.5 132.5,-12.5 132.5,-12.5 132.5,-6.5 138.5,-0.5 144.5,-0.5"/>
<text text-anchor="start" x="140.5" y="-16.6" font-family="FreeSans" font-size="8.00" fill="#1c2021">Node[1]name = &#39;Johan&#39;</text>
</g>
<!-- N2 -->
<g id="node3" class="node"><title>N2</title>
<path fill="#ffffff" stroke="#2e3436" stroke-width="1.5" d="M147,-82.5C147,-82.5 218,-82.5 218,-82.5 224,-82.5 230,-88.5 230,-94.5 230,-94.5 230,-106.5 230,-106.5 230,-112.5 224,-118.5 218,-118.5 218,-118.5 147,-118.5 147,-118.5 141,-118.5 135,-112.5 135,-106.5 135,-106.5 135,-94.5 135,-94.5 135,-88.5 141,-82.5 147,-82.5"/>
<text text-anchor="start" x="143" y="-98.6" font-family="FreeSans" font-size="8.00" fill="#1c2021">Node[2]name = &#39;Root&#39;</text>
</g>
<!-- N2&#45;&gt;N0 -->
<g id="edge3" class="edge"><title>N2&#45;&gt;N0</title>
<path fill="none" stroke="#4e9a06" stroke-width="2" d="M154.397,-82.338C134.366,-70.1055 107.318,-53.5876 85.9809,-40.557"/>
<polygon fill="#4e9a06" stroke="#4e9a06" stroke-width="2" points="79.5563,-36.6336 87.7162,-37.6622 83.0173,-38.1614 86.2177,-40.1158 85.9571,-40.5426 85.6965,-40.9693 82.4961,-39.0148 84.1981,-43.4229 79.5563,-36.6336 79.5563,-36.6336"/>
<text text-anchor="middle" x="133" y="-57.6" font-family="FreeSans" font-size="8.00" fill="#4e9a06">LIKES</text>
</g>
<!-- N2&#45;&gt;N1 -->
<g id="edge1" class="edge"><title>N2&#45;&gt;N1</title>
<path fill="none" stroke="#2e3436" stroke-width="2" d="M182.5,-82.1412C182.5,-71.0583 182.5,-56.5177 182.5,-44.2358"/>
<polygon fill="#2e3436" stroke="#2e3436" stroke-width="2" points="182.5,-36.5501 185.875,-44.0501 183,-40.3001 183,-44.0501 182.5,-44.0501 182,-44.0501 182,-40.3001 179.125,-44.0501 182.5,-36.5501 182.5,-36.5501"/>
<text text-anchor="middle" x="198" y="-57.6" font-family="FreeSans" font-size="8.00" fill="#2e3436">KNOWS</text>
</g>
<!-- N3 -->
<g id="node4" class="node"><title>N3</title>
<path fill="#ffffff" stroke="#2e3436" stroke-width="1.5" d="M274,-0.5C274,-0.5 353,-0.5 353,-0.5 359,-0.5 365,-6.5 365,-12.5 365,-12.5 365,-24.5 365,-24.5 365,-30.5 359,-36.5 353,-36.5 353,-36.5 274,-36.5 274,-36.5 268,-36.5 262,-30.5 262,-24.5 262,-24.5 262,-12.5 262,-12.5 262,-6.5 268,-0.5 274,-0.5"/>
<text text-anchor="start" x="270" y="-16.6" font-family="FreeSans" font-size="8.00" fill="#1c2021">Node[3]name = &#39;Mattias&#39;</text>
</g>
<!-- N2&#45;&gt;N3 -->
<g id="edge2" class="edge"><title>N2&#45;&gt;N3</title>
<path fill="none" stroke="#2e3436" stroke-width="2" d="M210.603,-82.338C230.634,-70.1055 257.682,-53.5876 279.019,-40.557"/>
<polygon fill="#2e3436" stroke="#2e3436" stroke-width="2" points="285.444,-36.6336 280.802,-43.4229 282.504,-39.0148 279.303,-40.9693 279.043,-40.5426 278.782,-40.1158 281.983,-38.1614 277.284,-37.6622 285.444,-36.6336 285.444,-36.6336"/>
<text text-anchor="middle" x="268" y="-57.6" font-family="FreeSans" font-size="8.00" fill="#2e3436">KNOWS</text>
</g>
</g>
</svg>
