<?xml version="1.0" encoding="UTF-8" standalone="no"?>
<!DOCTYPE svg PUBLIC "-//W3C//DTD SVG 1.1//EN"
 "http://www.w3.org/Graphics/SVG/1.1/DTD/svg11.dtd">
<!-- Generated by graphviz version 2.38.0 (20140413.2041)
 -->
<!-- Title: g Pages: 1 -->
<svg width="63pt" height="127pt"
 viewBox="0.00 0.00 63.00 127.00" xmlns="http://www.w3.org/2000/svg" xmlns:xlink="http://www.w3.org/1999/xlink">
<g id="graph0" class="graph" transform="scale(1 1) rotate(0) translate(4 123)">
<title>g</title>
<polygon fill="white" stroke="none" points="-4,4 -4,-123 59,-123 59,4 -4,4"/>
<!-- N33 -->
<g id="node1" class="node"><title>N33</title>
<path fill="#ffffff" stroke="#2e3436" stroke-width="1.5" d="M12,-82.5C12,-82.5 42,-82.5 42,-82.5 48,-82.5 54,-88.5 54,-94.5 54,-94.5 54,-106.5 54,-106.5 54,-112.5 48,-118.5 42,-118.5 42,-118.5 12,-118.5 12,-118.5 6,-118.5 0,-112.5 0,-106.5 0,-106.5 0,-94.5 0,-94.5 0,-88.5 6,-82.5 12,-82.5"/>
<text text-anchor="middle" x="27" y="-98.6" font-family="FreeSans" font-size="8.00" fill="#1c2021">Node[33]</text>
</g>
<!-- N34 -->
<g id="node2" class="node"><title>N34</title>
<path fill="#ffffff" stroke="#2e3436" stroke-width="1.5" d="M12,-0.5C12,-0.5 42,-0.5 42,-0.5 48,-0.5 54,-6.5 54,-12.5 54,-12.5 54,-24.5 54,-24.5 54,-30.5 48,-36.5 42,-36.5 42,-36.5 12,-36.5 12,-36.5 6,-36.5 0,-30.5 0,-24.5 0,-24.5 0,-12.5 0,-12.5 0,-6.5 6,-0.5 12,-0.5"/>
<text text-anchor="middle" x="27" y="-16.6" font-family="FreeSans" font-size="8.00" fill="#1c2021">Node[34]</text>
</g>
<!-- N33&#45;&gt;N34 -->
<g id="edge1" class="edge"><title>N33&#45;&gt;N34</title>
<path fill="none" stroke="#2e3436" stroke-width="2" d="M27,-82.1412C27,-71.0583 27,-56.5177 27,-44.2358"/>
<polygon fill="#2e3436" stroke="#2e3436" stroke-width="2" points="27,-36.5501 30.3751,-44.0501 27.5,-40.3001 27.5001,-44.0501 27.0001,-44.0501 26.5001,-44.0501 26.5,-40.3001 23.6251,-44.0501 27,-36.5501 27,-36.5501"/>
<text text-anchor="middle" x="41" y="-57.6" font-family="FreeSans" font-size="8.00" fill="#2e3436">LOVES</text>
</g>
</g>
</svg>
