<?xml version="1.0" encoding="UTF-8" standalone="no"?>
<!DOCTYPE svg PUBLIC "-//W3C//DTD SVG 1.1//EN"
 "http://www.w3.org/Graphics/SVG/1.1/DTD/svg11.dtd">
<!-- Generated by graphviz version 2.38.0 (20140413.2041)
 -->
<!-- Title: g Pages: 1 -->
<svg width="289pt" height="337pt"
 viewBox="0.00 0.00 289.00 337.00" xmlns="http://www.w3.org/2000/svg" xmlns:xlink="http://www.w3.org/1999/xlink">
<g id="graph0" class="graph" transform="scale(1 1) rotate(0) translate(4 333)">
<title>g</title>
<polygon fill="white" stroke="none" points="-4,4 -4,-333 285,-333 285,4 -4,4"/>
<!-- N161 -->
<g id="node1" class="node"><title>N161</title>
<path fill="#ffffff" stroke="#2e3436" stroke-width="1.5" d="M12,-146.5C12,-146.5 77,-146.5 77,-146.5 83,-146.5 89,-152.5 89,-158.5 89,-158.5 89,-170.5 89,-170.5 89,-176.5 83,-182.5 77,-182.5 77,-182.5 12,-182.5 12,-182.5 6,-182.5 0,-176.5 0,-170.5 0,-170.5 0,-158.5 0,-158.5 0,-152.5 6,-146.5 12,-146.5"/>
<text text-anchor="start" x="8" y="-162.6" font-family="FreeSans" font-size="8.00" fill="#1c2021">Node[161]name = &#39;f&#39;</text>
</g>
<!-- N163 -->
<g id="node2" class="node"><title>N163</title>
<path fill="#ffffff" stroke="#2e3436" stroke-width="1.5" d="M98,-0.5C98,-0.5 165,-0.5 165,-0.5 171,-0.5 177,-6.5 177,-12.5 177,-12.5 177,-24.5 177,-24.5 177,-30.5 171,-36.5 165,-36.5 165,-36.5 98,-36.5 98,-36.5 92,-36.5 86,-30.5 86,-24.5 86,-24.5 86,-12.5 86,-12.5 86,-6.5 92,-0.5 98,-0.5"/>
<text text-anchor="start" x="94" y="-16.6" font-family="FreeSans" font-size="8.00" fill="#1c2021">Node[163]name = &#39;e&#39;</text>
</g>
<!-- N161&#45;&gt;N163 -->
<g id="edge1" class="edge"><title>N161&#45;&gt;N163</title>
<path fill="none" stroke="#2e3436" stroke-width="2" d="M54.8217,-146.416C70.3229,-120.759 99.6632,-72.1954 117.212,-43.1495"/>
<polygon fill="#2e3436" stroke="#2e3436" stroke-width="2" points="121.192,-36.5619 120.202,-44.7266 119.68,-40.0302 117.741,-43.2399 117.313,-42.9813 116.885,-42.7228 118.825,-39.5131 114.425,-41.236 121.192,-36.5619 121.192,-36.5619"/>
<text text-anchor="middle" x="103" y="-112.1" font-family="FreeSans" font-size="8.00" fill="#2e3436">to</text>
<text text-anchor="start" x="88.5" y="-103.1" font-family="FreeSans" font-size="8.00" fill="#2e3436">cost = 1</text>
</g>
<!-- N162 -->
<g id="node3" class="node"><title>N162</title>
<path fill="#ffffff" stroke="#2e3436" stroke-width="1.5" d="M202,-91.5C202,-91.5 269,-91.5 269,-91.5 275,-91.5 281,-97.5 281,-103.5 281,-103.5 281,-115.5 281,-115.5 281,-121.5 275,-127.5 269,-127.5 269,-127.5 202,-127.5 202,-127.5 196,-127.5 190,-121.5 190,-115.5 190,-115.5 190,-103.5 190,-103.5 190,-97.5 196,-91.5 202,-91.5"/>
<text text-anchor="start" x="198" y="-107.6" font-family="FreeSans" font-size="8.00" fill="#1c2021">Node[162]name = &#39;d&#39;</text>
</g>
<!-- N162&#45;&gt;N163 -->
<g id="edge2" class="edge"><title>N162&#45;&gt;N163</title>
<path fill="none" stroke="#2e3436" stroke-width="2" d="M215.448,-91.3399C198.902,-77.1806 175.311,-56.992 157.348,-41.6202"/>
<polygon fill="#2e3436" stroke="#2e3436" stroke-width="2" points="151.491,-36.6074 159.383,-38.9196 154.665,-38.6658 157.514,-41.104 157.189,-41.4839 156.864,-41.8638 154.015,-39.4255 154.995,-44.0481 151.491,-36.6074 151.491,-36.6074"/>
<text text-anchor="middle" x="208" y="-66.6" font-family="FreeSans" font-size="8.00" fill="#2e3436">to</text>
<text text-anchor="start" x="193.5" y="-57.6" font-family="FreeSans" font-size="8.00" fill="#2e3436">cost = 1</text>
</g>
<!-- N164 -->
<g id="node4" class="node"><title>N164</title>
<path fill="#ffffff" stroke="#2e3436" stroke-width="1.5" d="M106,-146.5C106,-146.5 173,-146.5 173,-146.5 179,-146.5 185,-152.5 185,-158.5 185,-158.5 185,-170.5 185,-170.5 185,-176.5 179,-182.5 173,-182.5 173,-182.5 106,-182.5 106,-182.5 100,-182.5 94,-176.5 94,-170.5 94,-170.5 94,-158.5 94,-158.5 94,-152.5 100,-146.5 106,-146.5"/>
<text text-anchor="start" x="102" y="-162.6" font-family="FreeSans" font-size="8.00" fill="#1c2021">Node[164]name = &#39;b&#39;</text>
</g>
<!-- N164&#45;&gt;N163 -->
<g id="edge3" class="edge"><title>N164&#45;&gt;N163</title>
<path fill="none" stroke="#2e3436" stroke-width="2" d="M138.551,-146.416C137.144,-121.083 134.496,-73.4212 132.876,-44.2618"/>
<polygon fill="#2e3436" stroke="#2e3436" stroke-width="2" points="132.448,-36.5619 136.234,-43.8631 133.155,-40.2784 133.363,-44.0226 132.864,-44.0504 132.365,-44.0781 132.157,-40.3339 129.494,-44.2376 132.448,-36.5619 132.448,-36.5619"/>
<text text-anchor="middle" x="152" y="-112.1" font-family="FreeSans" font-size="8.00" fill="#2e3436">to</text>
<text text-anchor="start" x="137.5" y="-103.1" font-family="FreeSans" font-size="8.00" fill="#2e3436">cost = 1</text>
</g>
<!-- N165 -->
<g id="node5" class="node"><title>N165</title>
<path fill="#ffffff" stroke="#2e3436" stroke-width="1.5" d="M197,-201.5C197,-201.5 264,-201.5 264,-201.5 270,-201.5 276,-207.5 276,-213.5 276,-213.5 276,-225.5 276,-225.5 276,-231.5 270,-237.5 264,-237.5 264,-237.5 197,-237.5 197,-237.5 191,-237.5 185,-231.5 185,-225.5 185,-225.5 185,-213.5 185,-213.5 185,-207.5 191,-201.5 197,-201.5"/>
<text text-anchor="start" x="193" y="-217.6" font-family="FreeSans" font-size="8.00" fill="#1c2021">Node[165]name = &#39;c&#39;</text>
</g>
<!-- N165&#45;&gt;N162 -->
<g id="edge4" class="edge"><title>N165&#45;&gt;N162</title>
<path fill="none" stroke="#2e3436" stroke-width="2" d="M231.303,-201.148C232.127,-183.356 233.416,-155.513 234.348,-135.378"/>
<polygon fill="#2e3436" stroke="#2e3436" stroke-width="2" points="234.699,-127.809 237.723,-135.457 235.025,-131.578 234.851,-135.324 234.352,-135.301 233.852,-135.278 234.026,-131.532 230.98,-135.145 234.699,-127.809 234.699,-127.809"/>
<text text-anchor="middle" x="249" y="-167.1" font-family="FreeSans" font-size="8.00" fill="#2e3436">to</text>
<text text-anchor="start" x="234.5" y="-158.1" font-family="FreeSans" font-size="8.00" fill="#2e3436">cost = 1</text>
</g>
<!-- N166 -->
<g id="node6" class="node"><title>N166</title>
<path fill="#ffffff" stroke="#2e3436" stroke-width="1.5" d="M106,-292.5C106,-292.5 173,-292.5 173,-292.5 179,-292.5 185,-298.5 185,-304.5 185,-304.5 185,-316.5 185,-316.5 185,-322.5 179,-328.5 173,-328.5 173,-328.5 106,-328.5 106,-328.5 100,-328.5 94,-322.5 94,-316.5 94,-316.5 94,-304.5 94,-304.5 94,-298.5 100,-292.5 106,-292.5"/>
<text text-anchor="start" x="102" y="-308.6" font-family="FreeSans" font-size="8.00" fill="#1c2021">Node[166]name = &#39;a&#39;</text>
</g>
<!-- N166&#45;&gt;N161 -->
<g id="edge6" class="edge"><title>N166&#45;&gt;N161</title>
<path fill="none" stroke="#2e3436" stroke-width="2" d="M120.086,-292.403C114.372,-286.851 108.356,-280.452 103.5,-274 83.2546,-247.103 65.6498,-212.386 55.0618,-189.559"/>
<polygon fill="#2e3436" stroke="#2e3436" stroke-width="2" points="51.8763,-182.59 58.0639,-188.008 53.8901,-185.793 55.4492,-189.203 54.9944,-189.411 54.5397,-189.619 52.9806,-186.208 51.9249,-190.814 51.8763,-182.59 51.8763,-182.59"/>
<text text-anchor="middle" x="118" y="-267.6" font-family="FreeSans" font-size="8.00" fill="#2e3436">to</text>
<text text-anchor="start" x="103.5" y="-258.6" font-family="FreeSans" font-size="8.00" fill="#2e3436">cost = 1</text>
</g>
<!-- N166&#45;&gt;N164 -->
<g id="edge5" class="edge"><title>N166&#45;&gt;N164</title>
<path fill="none" stroke="#2e3436" stroke-width="2" d="M139.5,-292.416C139.5,-267.083 139.5,-219.421 139.5,-190.262"/>
<polygon fill="#2e3436" stroke="#2e3436" stroke-width="2" points="139.5,-182.562 142.875,-190.062 140,-186.312 140,-190.062 139.5,-190.062 139,-190.062 139,-186.312 136.125,-190.062 139.5,-182.562 139.5,-182.562"/>
<text text-anchor="middle" x="154" y="-267.6" font-family="FreeSans" font-size="8.00" fill="#2e3436">to</text>
<text text-anchor="start" x="139.5" y="-258.6" font-family="FreeSans" font-size="8.00" fill="#2e3436">cost = 1</text>
</g>
<!-- N166&#45;&gt;N165 -->
<g id="edge7" class="edge"><title>N166&#45;&gt;N165</title>
<path fill="none" stroke="#2e3436" stroke-width="2" d="M157.046,-292.34C171.397,-278.304 191.807,-258.343 207.472,-243.022"/>
<polygon fill="#2e3436" stroke="#2e3436" stroke-width="2" points="213.008,-237.607 210.006,-245.264 210.677,-240.587 207.996,-243.209 207.646,-242.851 207.297,-242.494 209.978,-239.872 205.286,-240.439 213.008,-237.607 213.008,-237.607"/>
<text text-anchor="middle" x="208" y="-267.6" font-family="FreeSans" font-size="8.00" fill="#2e3436">to</text>
<text text-anchor="start" x="193.5" y="-258.6" font-family="FreeSans" font-size="8.00" fill="#2e3436">cost = 1</text>
</g>
</g>
</svg>
