<?xml version="1.0" encoding="UTF-8" standalone="no"?>
<!DOCTYPE svg PUBLIC "-//W3C//DTD SVG 1.1//EN"
 "http://www.w3.org/Graphics/SVG/1.1/DTD/svg11.dtd">
<!-- Generated by graphviz version 2.38.0 (20140413.2041)
 -->
<!-- Title: g Pages: 1 -->
<svg width="303pt" height="337pt"
 viewBox="0.00 0.00 303.00 337.00" xmlns="http://www.w3.org/2000/svg" xmlns:xlink="http://www.w3.org/1999/xlink">
<g id="graph0" class="graph" transform="scale(1 1) rotate(0) translate(4 333)">
<title>g</title>
<polygon fill="white" stroke="none" points="-4,4 -4,-333 299,-333 299,4 -4,4"/>
<!-- N135 -->
<g id="node1" class="node"><title>N135</title>
<path fill="#ffffff" stroke="#2e3436" stroke-width="1.5" d="M12,-146.5C12,-146.5 77,-146.5 77,-146.5 83,-146.5 89,-152.5 89,-158.5 89,-158.5 89,-170.5 89,-170.5 89,-176.5 83,-182.5 77,-182.5 77,-182.5 12,-182.5 12,-182.5 6,-182.5 0,-176.5 0,-170.5 0,-170.5 0,-158.5 0,-158.5 0,-152.5 6,-146.5 12,-146.5"/>
<text text-anchor="start" x="8" y="-162.6" font-family="FreeSans" font-size="8.00" fill="#1c2021">Node[135]name = &#39;f&#39;</text>
</g>
<!-- N137 -->
<g id="node2" class="node"><title>N137</title>
<path fill="#ffffff" stroke="#2e3436" stroke-width="1.5" d="M105,-0.5C105,-0.5 172,-0.5 172,-0.5 178,-0.5 184,-6.5 184,-12.5 184,-12.5 184,-24.5 184,-24.5 184,-30.5 178,-36.5 172,-36.5 172,-36.5 105,-36.5 105,-36.5 99,-36.5 93,-30.5 93,-24.5 93,-24.5 93,-12.5 93,-12.5 93,-6.5 99,-0.5 105,-0.5"/>
<text text-anchor="start" x="101" y="-16.6" font-family="FreeSans" font-size="8.00" fill="#1c2021">Node[137]name = &#39;e&#39;</text>
</g>
<!-- N135&#45;&gt;N137 -->
<g id="edge1" class="edge"><title>N135&#45;&gt;N137</title>
<path fill="none" stroke="#2e3436" stroke-width="2" d="M55.6522,-146.416C72.4006,-120.759 104.102,-72.1954 123.062,-43.1495"/>
<polygon fill="#2e3436" stroke="#2e3436" stroke-width="2" points="127.362,-36.5619 126.089,-44.6872 125.731,-39.9754 123.681,-43.1156 123.263,-42.8423 122.844,-42.569 124.894,-39.4288 120.436,-40.9974 127.362,-36.5619 127.362,-36.5619"/>
<text text-anchor="middle" x="109.5" y="-112.1" font-family="FreeSans" font-size="8.00" fill="#2e3436">to</text>
<text text-anchor="start" x="91.5" y="-103.1" font-family="FreeSans" font-size="8.00" fill="#2e3436">cost = 1.0</text>
</g>
<!-- N136 -->
<g id="node3" class="node"><title>N136</title>
<path fill="#ffffff" stroke="#2e3436" stroke-width="1.5" d="M216,-91.5C216,-91.5 283,-91.5 283,-91.5 289,-91.5 295,-97.5 295,-103.5 295,-103.5 295,-115.5 295,-115.5 295,-121.5 289,-127.5 283,-127.5 283,-127.5 216,-127.5 216,-127.5 210,-127.5 204,-121.5 204,-115.5 204,-115.5 204,-103.5 204,-103.5 204,-97.5 210,-91.5 216,-91.5"/>
<text text-anchor="start" x="212" y="-107.6" font-family="FreeSans" font-size="8.00" fill="#1c2021">Node[136]name = &#39;d&#39;</text>
</g>
<!-- N136&#45;&gt;N137 -->
<g id="edge2" class="edge"><title>N136&#45;&gt;N137</title>
<path fill="none" stroke="#2e3436" stroke-width="2" d="M228.098,-91.3399C210.362,-77.1191 185.041,-56.8164 165.838,-41.4199"/>
<polygon fill="#2e3436" stroke="#2e3436" stroke-width="2" points="159.836,-36.6074 167.799,-38.666 163.075,-38.5632 166,-40.909 165.688,-41.2991 165.375,-41.6892 162.449,-39.3433 163.576,-43.9322 159.836,-36.6074 159.836,-36.6074"/>
<text text-anchor="middle" x="222.5" y="-66.6" font-family="FreeSans" font-size="8.00" fill="#2e3436">to</text>
<text text-anchor="start" x="204.5" y="-57.6" font-family="FreeSans" font-size="8.00" fill="#2e3436">cost = 0.5</text>
</g>
<!-- N138 -->
<g id="node4" class="node"><title>N138</title>
<path fill="#ffffff" stroke="#2e3436" stroke-width="1.5" d="M106,-146.5C106,-146.5 173,-146.5 173,-146.5 179,-146.5 185,-152.5 185,-158.5 185,-158.5 185,-170.5 185,-170.5 185,-176.5 179,-182.5 173,-182.5 173,-182.5 106,-182.5 106,-182.5 100,-182.5 94,-176.5 94,-170.5 94,-170.5 94,-158.5 94,-158.5 94,-152.5 100,-146.5 106,-146.5"/>
<text text-anchor="start" x="102" y="-162.6" font-family="FreeSans" font-size="8.00" fill="#1c2021">Node[138]name = &#39;b&#39;</text>
</g>
<!-- N138&#45;&gt;N137 -->
<g id="edge3" class="edge"><title>N138&#45;&gt;N137</title>
<path fill="none" stroke="#2e3436" stroke-width="2" d="M139.381,-146.416C139.205,-121.083 138.874,-73.4212 138.672,-44.2618"/>
<polygon fill="#2e3436" stroke="#2e3436" stroke-width="2" points="138.618,-36.5619 142.046,-44.0383 139.145,-40.3084 139.171,-44.0583 138.671,-44.0618 138.171,-44.0652 138.145,-40.3153 135.296,-44.0852 138.618,-36.5619 138.618,-36.5619"/>
<text text-anchor="middle" x="157.5" y="-112.1" font-family="FreeSans" font-size="8.00" fill="#2e3436">to</text>
<text text-anchor="start" x="139.5" y="-103.1" font-family="FreeSans" font-size="8.00" fill="#2e3436">cost = 0.5</text>
</g>
<!-- N139 -->
<g id="node5" class="node"><title>N139</title>
<path fill="#ffffff" stroke="#2e3436" stroke-width="1.5" d="M201,-201.5C201,-201.5 268,-201.5 268,-201.5 274,-201.5 280,-207.5 280,-213.5 280,-213.5 280,-225.5 280,-225.5 280,-231.5 274,-237.5 268,-237.5 268,-237.5 201,-237.5 201,-237.5 195,-237.5 189,-231.5 189,-225.5 189,-225.5 189,-213.5 189,-213.5 189,-207.5 195,-201.5 201,-201.5"/>
<text text-anchor="start" x="197" y="-217.6" font-family="FreeSans" font-size="8.00" fill="#1c2021">Node[139]name = &#39;c&#39;</text>
</g>
<!-- N139&#45;&gt;N136 -->
<g id="edge4" class="edge"><title>N139&#45;&gt;N136</title>
<path fill="none" stroke="#2e3436" stroke-width="2" d="M236.91,-201.148C239.381,-183.356 243.248,-155.513 246.045,-135.378"/>
<polygon fill="#2e3436" stroke="#2e3436" stroke-width="2" points="247.096,-127.809 249.407,-135.702 247.075,-131.592 246.559,-135.306 246.064,-135.238 245.569,-135.169 246.085,-131.455 242.721,-134.773 247.096,-127.809 247.096,-127.809"/>
<text text-anchor="middle" x="262.5" y="-167.1" font-family="FreeSans" font-size="8.00" fill="#2e3436">to</text>
<text text-anchor="start" x="244.5" y="-158.1" font-family="FreeSans" font-size="8.00" fill="#2e3436">cost = 0.5</text>
</g>
<!-- N140 -->
<g id="node6" class="node"><title>N140</title>
<path fill="#ffffff" stroke="#2e3436" stroke-width="1.5" d="M106,-292.5C106,-292.5 173,-292.5 173,-292.5 179,-292.5 185,-298.5 185,-304.5 185,-304.5 185,-316.5 185,-316.5 185,-322.5 179,-328.5 173,-328.5 173,-328.5 106,-328.5 106,-328.5 100,-328.5 94,-322.5 94,-316.5 94,-316.5 94,-304.5 94,-304.5 94,-298.5 100,-292.5 106,-292.5"/>
<text text-anchor="start" x="102" y="-308.6" font-family="FreeSans" font-size="8.00" fill="#1c2021">Node[140]name = &#39;a&#39;</text>
</g>
<!-- N140&#45;&gt;N135 -->
<g id="edge5" class="edge"><title>N140&#45;&gt;N135</title>
<path fill="none" stroke="#2e3436" stroke-width="2" d="M115.031,-292.37C108.47,-287.002 101.749,-280.71 96.5,-274 76.1779,-248.019 61.1413,-212.807 52.6019,-189.638"/>
<polygon fill="#2e3436" stroke="#2e3436" stroke-width="2" points="50.0592,-182.565 55.7727,-188.481 51.7985,-185.925 53.0672,-189.454 52.5967,-189.623 52.1262,-189.792 50.8574,-186.263 49.4207,-190.765 50.0592,-182.565 50.0592,-182.565"/>
<text text-anchor="middle" x="114.5" y="-267.6" font-family="FreeSans" font-size="8.00" fill="#2e3436">to</text>
<text text-anchor="start" x="96.5" y="-258.6" font-family="FreeSans" font-size="8.00" fill="#2e3436">cost = 0.5</text>
</g>
<!-- N140&#45;&gt;N138 -->
<g id="edge7" class="edge"><title>N140&#45;&gt;N138</title>
<path fill="none" stroke="#2e3436" stroke-width="2" d="M139.5,-292.416C139.5,-267.083 139.5,-219.421 139.5,-190.262"/>
<polygon fill="#2e3436" stroke="#2e3436" stroke-width="2" points="139.5,-182.562 142.875,-190.062 140,-186.312 140,-190.062 139.5,-190.062 139,-190.062 139,-186.312 136.125,-190.062 139.5,-182.562 139.5,-182.562"/>
<text text-anchor="middle" x="157.5" y="-267.6" font-family="FreeSans" font-size="8.00" fill="#2e3436">to</text>
<text text-anchor="start" x="139.5" y="-258.6" font-family="FreeSans" font-size="8.00" fill="#2e3436">cost = 1.5</text>
</g>
<!-- N140&#45;&gt;N139 -->
<g id="edge6" class="edge"><title>N140&#45;&gt;N139</title>
<path fill="none" stroke="#2e3436" stroke-width="2" d="M161.328,-292.255C168.236,-286.594 175.81,-280.169 182.5,-274 193.007,-264.311 204.118,-253.035 213.359,-243.34"/>
<polygon fill="#2e3436" stroke="#2e3436" stroke-width="2" points="218.566,-237.839 215.862,-245.606 216.351,-240.906 213.773,-243.63 213.41,-243.286 213.047,-242.942 215.625,-240.219 210.959,-240.966 218.566,-237.839 218.566,-237.839"/>
<text text-anchor="middle" x="218.5" y="-267.6" font-family="FreeSans" font-size="8.00" fill="#2e3436">to</text>
<text text-anchor="start" x="200.5" y="-258.6" font-family="FreeSans" font-size="8.00" fill="#2e3436">cost = 0.5</text>
</g>
</g>
</svg>
