<?xml version="1.0" encoding="UTF-8" standalone="no"?>
<!DOCTYPE svg PUBLIC "-//W3C//DTD SVG 1.1//EN"
 "http://www.w3.org/Graphics/SVG/1.1/DTD/svg11.dtd">
<!-- Generated by graphviz version 2.38.0 (20140413.2041)
 -->
<!-- Title: g Pages: 1 -->
<svg width="106pt" height="127pt"
 viewBox="0.00 0.00 106.00 127.00" xmlns="http://www.w3.org/2000/svg" xmlns:xlink="http://www.w3.org/1999/xlink">
<g id="graph0" class="graph" transform="scale(1 1) rotate(0) translate(4 123)">
<title>g</title>
<polygon fill="white" stroke="none" points="-4,4 -4,-123 102,-123 102,4 -4,4"/>
<!-- N254 -->
<g id="node1" class="node"><title>N254</title>
<path fill="#ffffff" stroke="#2e3436" stroke-width="1.5" d="M16.5,-82.5C16.5,-82.5 81.5,-82.5 81.5,-82.5 87.5,-82.5 93.5,-88.5 93.5,-94.5 93.5,-94.5 93.5,-106.5 93.5,-106.5 93.5,-112.5 87.5,-118.5 81.5,-118.5 81.5,-118.5 16.5,-118.5 16.5,-118.5 10.5,-118.5 4.5,-112.5 4.5,-106.5 4.5,-106.5 4.5,-94.5 4.5,-94.5 4.5,-88.5 10.5,-82.5 16.5,-82.5"/>
<text text-anchor="start" x="12.5" y="-98.6" font-family="FreeSans" font-size="8.00" fill="#1c2021">Node[254]age = &#39;18&#39;</text>
</g>
<!-- N255 -->
<g id="node2" class="node"><title>N255</title>
<path fill="#ffffff" stroke="#2e3436" stroke-width="1.5" d="M12,-0.5C12,-0.5 86,-0.5 86,-0.5 92,-0.5 98,-6.5 98,-12.5 98,-12.5 98,-24.5 98,-24.5 98,-30.5 92,-36.5 86,-36.5 86,-36.5 12,-36.5 12,-36.5 6,-36.5 -7.10543e-15,-30.5 -7.10543e-15,-24.5 -7.10543e-15,-24.5 -7.10543e-15,-12.5 -7.10543e-15,-12.5 -7.10543e-15,-6.5 6,-0.5 12,-0.5"/>
<text text-anchor="start" x="8" y="-16.6" font-family="FreeSans" font-size="8.00" fill="#1c2021">Node[255]name = &#39;joe&#39;</text>
</g>
<!-- N254&#45;&gt;N255 -->
<g id="edge1" class="edge"><title>N254&#45;&gt;N255</title>
<path fill="none" stroke="#2e3436" stroke-width="2" d="M49,-82.1412C49,-71.0583 49,-56.5177 49,-44.2358"/>
<polygon fill="#2e3436" stroke="#2e3436" stroke-width="2" points="49,-36.5501 52.3751,-44.0501 49.5,-40.3001 49.5001,-44.0501 49.0001,-44.0501 48.5001,-44.0501 48.5,-40.3001 45.6251,-44.0501 49,-36.5501 49,-36.5501"/>
<text text-anchor="middle" x="61" y="-57.6" font-family="FreeSans" font-size="8.00" fill="#2e3436">knows</text>
</g>
</g>
</svg>
