<?xml version="1.0" encoding="UTF-8" standalone="no"?>
<!DOCTYPE svg PUBLIC "-//W3C//DTD SVG 1.1//EN"
 "http://www.w3.org/Graphics/SVG/1.1/DTD/svg11.dtd">
<!-- Generated by graphviz version 2.38.0 (20140413.2041)
 -->
<!-- Title: g Pages: 1 -->
<svg width="184pt" height="185pt"
 viewBox="0.00 0.00 184.00 185.00" xmlns="http://www.w3.org/2000/svg" xmlns:xlink="http://www.w3.org/1999/xlink">
<g id="graph0" class="graph" transform="scale(1 1) rotate(0) translate(4 181)">
<title>g</title>
<polygon fill="white" stroke="none" points="-4,4 -4,-181 180,-181 180,4 -4,4"/>
<g id="clust1" class="cluster"><title>cluster_0</title>
<polygon fill="none" stroke="none" points="8,-95 8,-169 78,-169 78,-95 8,-95"/>
</g>
<g id="clust2" class="cluster"><title>cluster_1</title>
<polygon fill="none" stroke="none" points="98,-19 98,-169 168,-169 168,-19 98,-19"/>
</g>
<g id="clust3" class="cluster"><title>cluster_2</title>
<polygon fill="none" stroke="none" points="8,-8 8,-82 78,-82 78,-8 8,-8"/>
</g>
<!-- A -->
<g id="node1" class="node"><title>A</title>
<path fill="#a8e270" stroke="#2e3436" stroke-width="1.5" d="M28,-103.5C28,-103.5 58,-103.5 58,-103.5 64,-103.5 70,-109.5 70,-115.5 70,-115.5 70,-148.5 70,-148.5 70,-154.5 64,-160.5 58,-160.5 58,-160.5 28,-160.5 28,-160.5 22,-160.5 16,-154.5 16,-148.5 16,-148.5 16,-115.5 16,-115.5 16,-109.5 22,-103.5 28,-103.5"/>
<text text-anchor="middle" x="43" y="-148.5" font-family="FreeSans" font-size="10.00" fill="#1c2021">A1</text>
<polyline fill="none" stroke="#2e3436" stroke-width="1.5" points="16,-141.5 70,-141.5 "/>
<text text-anchor="middle" x="43" y="-129.5" font-family="FreeSans" font-size="10.00" fill="#1c2021">A2</text>
<polyline fill="none" stroke="#2e3436" stroke-width="1.5" points="16,-122.5 70,-122.5 "/>
<text text-anchor="middle" x="43" y="-110.5" font-family="FreeSans" font-size="10.00" fill="#1c2021">A3</text>
</g>
<!-- B -->
<g id="node2" class="node"><title>B</title>
<path fill="#fadcad" stroke="#2e3436" stroke-width="1.5" d="M118,-27.5C118,-27.5 148,-27.5 148,-27.5 154,-27.5 160,-33.5 160,-39.5 160,-39.5 160,-148.5 160,-148.5 160,-154.5 154,-160.5 148,-160.5 148,-160.5 118,-160.5 118,-160.5 112,-160.5 106,-154.5 106,-148.5 106,-148.5 106,-39.5 106,-39.5 106,-33.5 112,-27.5 118,-27.5"/>
<text text-anchor="middle" x="133" y="-148.5" font-family="FreeSans" font-size="10.00" fill="#1c2021">B1</text>
<polyline fill="none" stroke="#2e3436" stroke-width="1.5" points="106,-141.5 160,-141.5 "/>
<text text-anchor="middle" x="133" y="-129.5" font-family="FreeSans" font-size="10.00" fill="#1c2021">B2</text>
<polyline fill="none" stroke="#2e3436" stroke-width="1.5" points="106,-122.5 160,-122.5 "/>
<text text-anchor="middle" x="133" y="-110.5" font-family="FreeSans" font-size="10.00" fill="#1c2021">B3</text>
<polyline fill="none" stroke="#2e3436" stroke-width="1.5" points="106,-103.5 160,-103.5 "/>
<text text-anchor="middle" x="133" y="-91.5" font-family="FreeSans" font-size="10.00" fill="#1c2021">B4</text>
<polyline fill="none" stroke="#2e3436" stroke-width="1.5" points="106,-84.5 160,-84.5 "/>
<text text-anchor="middle" x="133" y="-72.5" font-family="FreeSans" font-size="10.00" fill="#1c2021">B5</text>
<polyline fill="none" stroke="#2e3436" stroke-width="1.5" points="106,-65.5 160,-65.5 "/>
<text text-anchor="middle" x="133" y="-53.5" font-family="FreeSans" font-size="10.00" fill="#1c2021">B6</text>
<polyline fill="none" stroke="#2e3436" stroke-width="1.5" points="106,-46.5 160,-46.5 "/>
<text text-anchor="middle" x="133" y="-34.5" font-family="FreeSans" font-size="10.00" fill="#1c2021">B7</text>
</g>
<!-- A&#45;&gt;B -->
<g id="edge1" class="edge"><title>A:1&#45;&gt;B:1</title>
<path fill="none" stroke="#2e3436" stroke-width="2" d="M71,-151C86.1111,-151 89.8889,-151 105,-151"/>
</g>
<!-- A&#45;&gt;B -->
<g id="edge2" class="edge"><title>A:1&#45;&gt;B:2</title>
<path fill="none" stroke="#2e3436" stroke-width="2" d="M71,-151C88.3105,-151 87.6895,-132 105,-132"/>
</g>
<!-- A&#45;&gt;B -->
<g id="edge3" class="edge"><title>A:2&#45;&gt;B:4</title>
<path fill="none" stroke="#2e3436" stroke-width="2" d="M71,-132C93.6623,-132 82.3377,-94 105,-94"/>
</g>
<!-- A&#45;&gt;B -->
<g id="edge4" class="edge"><title>A:2&#45;&gt;B:6</title>
<path fill="none" stroke="#2e3436" stroke-width="2" d="M71,-132C108.004,-132 67.9962,-56 105,-56"/>
</g>
<!-- A&#45;&gt;B -->
<g id="edge5" class="edge"><title>A:3&#45;&gt;B:3</title>
<path fill="none" stroke="#2e3436" stroke-width="2" d="M71,-113C86.1111,-113 89.8889,-113 105,-113"/>
</g>
<!-- A&#45;&gt;B -->
<g id="edge6" class="edge"><title>A:3&#45;&gt;B:5</title>
<path fill="none" stroke="#2e3436" stroke-width="2" d="M71,-113C93.6623,-113 82.3377,-75 105,-75"/>
</g>
<!-- A&#45;&gt;B -->
<g id="edge7" class="edge"><title>A:3&#45;&gt;B:7</title>
<path fill="none" stroke="#2e3436" stroke-width="2" d="M71,-113C108.004,-113 67.9962,-37 105,-37"/>
</g>
<!-- C -->
<g id="node3" class="node"><title>C</title>
<path fill="#95bbe3" stroke="#2e3436" stroke-width="1.5" d="M28,-16.5C28,-16.5 58,-16.5 58,-16.5 64,-16.5 70,-22.5 70,-28.5 70,-28.5 70,-61.5 70,-61.5 70,-67.5 64,-73.5 58,-73.5 58,-73.5 28,-73.5 28,-73.5 22,-73.5 16,-67.5 16,-61.5 16,-61.5 16,-28.5 16,-28.5 16,-22.5 22,-16.5 28,-16.5"/>
<text text-anchor="middle" x="43" y="-61.5" font-family="FreeSans" font-size="10.00" fill="#1c2021">C1</text>
<polyline fill="none" stroke="#2e3436" stroke-width="1.5" points="16,-54.5 70,-54.5 "/>
<text text-anchor="middle" x="43" y="-42.5" font-family="FreeSans" font-size="10.00" fill="#1c2021">C2</text>
<polyline fill="none" stroke="#2e3436" stroke-width="1.5" points="16,-35.5 70,-35.5 "/>
<text text-anchor="middle" x="43" y="-23.5" font-family="FreeSans" font-size="10.00" fill="#1c2021">C3</text>
</g>
<!-- C&#45;&gt;B -->
<g id="edge8" class="edge"><title>C:1&#45;&gt;B:1</title>
<path fill="none" stroke="#2e3436" stroke-width="2" d="M71,-64C112.515,-64 63.4855,-151 105,-151"/>
</g>
<!-- C&#45;&gt;B -->
<g id="edge9" class="edge"><title>C:1&#45;&gt;B:4</title>
<path fill="none" stroke="#2e3436" stroke-width="2" d="M71,-64C91.1525,-64 84.8475,-94 105,-94"/>
</g>
<!-- C&#45;&gt;B -->
<g id="edge10" class="edge"><title>C:1&#45;&gt;B:5</title>
<path fill="none" stroke="#2e3436" stroke-width="2" d="M71,-64C86.8823,-64 89.1177,-75 105,-75"/>
</g>
<!-- C&#45;&gt;B -->
<g id="edge11" class="edge"><title>C:2&#45;&gt;B:3</title>
<path fill="none" stroke="#2e3436" stroke-width="2" d="M71,-45C104.789,-45 71.2105,-113 105,-113"/>
</g>
<!-- C&#45;&gt;B -->
<g id="edge12" class="edge"><title>C:2&#45;&gt;B:7</title>
<path fill="none" stroke="#2e3436" stroke-width="2" d="M71,-45C86.5238,-45 89.4762,-37 105,-37"/>
</g>
<!-- C&#45;&gt;B -->
<g id="edge13" class="edge"><title>C:3&#45;&gt;B:2</title>
<path fill="none" stroke="#2e3436" stroke-width="2" d="M71,-26C120.475,-26 55.5247,-132 105,-132"/>
</g>
<!-- C&#45;&gt;B -->
<g id="edge14" class="edge"><title>C:3&#45;&gt;B:6</title>
<path fill="none" stroke="#2e3436" stroke-width="2" d="M71,-26C91.1525,-26 84.8475,-56 105,-56"/>
</g>
</g>
</svg>
