<?xml version="1.0" encoding="UTF-8" standalone="no"?>
<!DOCTYPE svg PUBLIC "-//W3C//DTD SVG 1.1//EN"
 "http://www.w3.org/Graphics/SVG/1.1/DTD/svg11.dtd">
<!-- Generated by graphviz version 2.38.0 (20140413.2041)
 -->
<!-- Title: g Pages: 1 -->
<svg width="504pt" height="130pt"
 viewBox="0.00 0.00 504.00 129.76" xmlns="http://www.w3.org/2000/svg" xmlns:xlink="http://www.w3.org/1999/xlink">
<g id="graph0" class="graph" transform="scale(0.940299 0.940299) rotate(0) translate(4 134)">
<title>g</title>
<polygon fill="white" stroke="none" points="-4,4 -4,-134 532,-134 532,4 -4,4"/>
<g id="clust1" class="cluster"><title>cluster_0</title>
<polygon fill="#a8e270" stroke="#2e3436" points="8,-8 8,-122 177,-122 177,-8 8,-8"/>
<text text-anchor="middle" x="92.5" y="-106.8" font-family="FreeSans" font-size="14.00">D1</text>
</g>
<g id="clust2" class="cluster"><title>cluster_1</title>
<polygon fill="#95bbe3" stroke="#2e3436" points="16,-16 16,-91 169,-91 169,-16 16,-16"/>
<text text-anchor="middle" x="92.5" y="-75.8" font-family="FreeSans" font-size="14.00">S1</text>
</g>
<g id="clust3" class="cluster"><title>cluster_2</title>
<polygon fill="#a8e270" stroke="#2e3436" points="185,-8 185,-122 520,-122 520,-8 185,-8"/>
<text text-anchor="middle" x="352.5" y="-106.8" font-family="FreeSans" font-size="14.00">D2</text>
</g>
<g id="clust4" class="cluster"><title>cluster_3</title>
<polygon fill="#95bbe3" stroke="#2e3436" points="359,-16 359,-91 512,-91 512,-16 359,-16"/>
<text text-anchor="middle" x="435.5" y="-75.8" font-family="FreeSans" font-size="14.00">S2</text>
</g>
<g id="clust5" class="cluster"><title>cluster_4</title>
<polygon fill="#95bbe3" stroke="#2e3436" points="193,-16 193,-91 346,-91 346,-16 193,-16"/>
<text text-anchor="middle" x="269.5" y="-75.8" font-family="FreeSans" font-size="14.00">S3</text>
</g>
<!-- V1 -->
<g id="node1" class="node"><title>V1</title>
<path fill="#fadcad" stroke="#2e3436" stroke-width="1.5" d="M149,-60C149,-60 119,-60 119,-60 113,-60 107,-54 107,-48 107,-48 107,-36 107,-36 107,-30 113,-24 119,-24 119,-24 149,-24 149,-24 155,-24 161,-30 161,-36 161,-36 161,-48 161,-48 161,-54 155,-60 149,-60"/>
<text text-anchor="middle" x="134" y="-39.5" font-family="FreeSans" font-size="10.00" fill="#1c2021">V1</text>
</g>
<!-- D2/S2 -->
<g id="node2" class="node"><title>D2/S2</title>
<path fill="#fadcad" stroke="#2e3436" stroke-width="1.5" d="M66,-60C66,-60 36,-60 36,-60 30,-60 24,-54 24,-48 24,-48 24,-36 24,-36 24,-30 30,-24 36,-24 36,-24 66,-24 66,-24 72,-24 78,-30 78,-36 78,-36 78,-48 78,-48 78,-54 72,-60 66,-60"/>
<text text-anchor="middle" x="51" y="-39.5" font-family="FreeSans" font-size="10.00" fill="#1c2021">D2/S2</text>
</g>
<!-- V2 -->
<g id="node3" class="node"><title>V2</title>
<path fill="#fadcad" stroke="#2e3436" stroke-width="1.5" d="M492,-60C492,-60 462,-60 462,-60 456,-60 450,-54 450,-48 450,-48 450,-36 450,-36 450,-30 456,-24 462,-24 462,-24 492,-24 492,-24 498,-24 504,-30 504,-36 504,-36 504,-48 504,-48 504,-54 498,-60 492,-60"/>
<text text-anchor="middle" x="477" y="-39.5" font-family="FreeSans" font-size="10.00" fill="#1c2021">V2</text>
</g>
<!-- V3 -->
<g id="node4" class="node"><title>V3</title>
<path fill="#fadcad" stroke="#2e3436" stroke-width="1.5" d="M409,-60C409,-60 379,-60 379,-60 373,-60 367,-54 367,-48 367,-48 367,-36 367,-36 367,-30 373,-24 379,-24 379,-24 409,-24 409,-24 415,-24 421,-30 421,-36 421,-36 421,-48 421,-48 421,-54 415,-60 409,-60"/>
<text text-anchor="middle" x="394" y="-39.5" font-family="FreeSans" font-size="10.00" fill="#1c2021">V3</text>
</g>
<!-- V4 -->
<g id="node5" class="node"><title>V4</title>
<path fill="#fadcad" stroke="#2e3436" stroke-width="1.5" d="M326,-60C326,-60 296,-60 296,-60 290,-60 284,-54 284,-48 284,-48 284,-36 284,-36 284,-30 290,-24 296,-24 296,-24 326,-24 326,-24 332,-24 338,-30 338,-36 338,-36 338,-48 338,-48 338,-54 332,-60 326,-60"/>
<text text-anchor="middle" x="311" y="-39.5" font-family="FreeSans" font-size="10.00" fill="#1c2021">V4</text>
</g>
<!-- D1/S1 -->
<g id="node6" class="node"><title>D1/S1</title>
<path fill="#fadcad" stroke="#2e3436" stroke-width="1.5" d="M243,-60C243,-60 213,-60 213,-60 207,-60 201,-54 201,-48 201,-48 201,-36 201,-36 201,-30 207,-24 213,-24 213,-24 243,-24 243,-24 249,-24 255,-30 255,-36 255,-36 255,-48 255,-48 255,-54 249,-60 243,-60"/>
<text text-anchor="middle" x="228" y="-39.5" font-family="FreeSans" font-size="10.00" fill="#1c2021">D1/S1</text>
</g>
</g>
</svg>
