<?xml version="1.0" encoding="UTF-8" standalone="no"?>
<!DOCTYPE svg PUBLIC "-//W3C//DTD SVG 1.1//EN"
 "http://www.w3.org/Graphics/SVG/1.1/DTD/svg11.dtd">
<!-- Generated by graphviz version 2.38.0 (20140413.2041)
 -->
<!-- Title: g Pages: 1 -->
<svg width="348pt" height="206pt"
 viewBox="0.00 0.00 348.00 206.00" xmlns="http://www.w3.org/2000/svg" xmlns:xlink="http://www.w3.org/1999/xlink">
<g id="graph0" class="graph" transform="scale(1 1) rotate(0) translate(4 202)">
<title>g</title>
<polygon fill="white" stroke="none" points="-4,4 -4,-202 344,-202 344,4 -4,4"/>
<g id="clust1" class="cluster"><title>cluster_0</title>
<polygon fill="none" stroke="none" points="8,-8 8,-190 78,-190 78,-8 8,-8"/>
</g>
<!-- gV1 -->
<g id="node1" class="node"><title>gV1</title>
<path fill="#fadcad" stroke="#2e3436" stroke-width="1.5" d="M148,-118C148,-118 118,-118 118,-118 112,-118 106,-112 106,-106 106,-106 106,-94 106,-94 106,-88 112,-82 118,-82 118,-82 148,-82 148,-82 154,-82 160,-88 160,-94 160,-94 160,-106 160,-106 160,-112 154,-118 148,-118"/>
<text text-anchor="middle" x="133" y="-97.5" font-family="FreeSans" font-size="10.00" fill="#1c2021">V1</text>
</g>
<!-- gV2 -->
<g id="node2" class="node"><title>gV2</title>
<path fill="#fadcad" stroke="#2e3436" stroke-width="1.5" d="M238,-173C238,-173 208,-173 208,-173 202,-173 196,-167 196,-161 196,-161 196,-149 196,-149 196,-143 202,-137 208,-137 208,-137 238,-137 238,-137 244,-137 250,-143 250,-149 250,-149 250,-161 250,-161 250,-167 244,-173 238,-173"/>
<text text-anchor="middle" x="223" y="-152.5" font-family="FreeSans" font-size="10.00" fill="#1c2021">V2</text>
</g>
<!-- gV1&#45;&gt;gV2 -->
<g id="edge2" class="edge"><title>gV1&#45;&gt;gV2</title>
<path fill="none" stroke="#2e3436" stroke-width="2" d="M160.403,-106.787C173.164,-113.563 188.29,-123.192 200.358,-132.286"/>
<polygon fill="#2e3436" stroke="#2e3436" stroke-width="2" points="206.362,-136.975 198.374,-135.019 203.099,-135.061 200.144,-132.753 200.452,-132.359 200.759,-131.965 203.715,-134.273 202.529,-129.699 206.362,-136.975 206.362,-136.975"/>
</g>
<!-- gV2&#45;&gt;gV1 -->
<g id="edge3" class="edge"><title>gV2&#45;&gt;gV1</title>
<path fill="none" stroke="#2e3436" stroke-width="2" d="M195.938,-149.085C182.884,-142.273 167.29,-132.321 155.014,-122.89"/>
<polygon fill="#2e3436" stroke="#2e3436" stroke-width="2" points="148.928,-118.025 156.894,-120.072 152.169,-119.976 155.099,-122.317 154.786,-122.708 154.474,-123.099 151.545,-120.757 152.679,-125.344 148.928,-118.025 148.928,-118.025"/>
</g>
<!-- gV3 -->
<g id="node3" class="node"><title>gV3</title>
<path fill="#fadcad" stroke="#2e3436" stroke-width="1.5" d="M328,-111C328,-111 298,-111 298,-111 292,-111 286,-105 286,-99 286,-99 286,-87 286,-87 286,-81 292,-75 298,-75 298,-75 328,-75 328,-75 334,-75 340,-81 340,-87 340,-87 340,-99 340,-99 340,-105 334,-111 328,-111"/>
<text text-anchor="middle" x="313" y="-90.5" font-family="FreeSans" font-size="10.00" fill="#1c2021">V3</text>
</g>
<!-- gV2&#45;&gt;gV3 -->
<g id="edge4" class="edge"><title>gV2&#45;&gt;gV3</title>
<path fill="none" stroke="#2e3436" stroke-width="2" d="M249.927,-136.733C259.326,-130.111 270.057,-122.551 279.923,-115.6"/>
<polygon fill="#2e3436" stroke="#2e3436" stroke-width="2" points="286.258,-111.136 282.071,-118.215 283.481,-113.705 280.415,-115.865 280.127,-115.456 279.839,-115.047 282.905,-112.887 278.183,-112.697 286.258,-111.136 286.258,-111.136"/>
</g>
<!-- gV3&#45;&gt;gV1 -->
<g id="edge5" class="edge"><title>gV3&#45;&gt;gV1</title>
<path fill="none" stroke="#2e3436" stroke-width="2" d="M285.918,-94.0257C254.754,-95.2512 202.525,-97.3052 168.164,-98.6565"/>
<polygon fill="#2e3436" stroke="#2e3436" stroke-width="2" points="160.265,-98.9671 167.626,-95.2999 163.992,-98.3201 167.739,-98.1727 167.759,-98.6723 167.778,-99.1719 164.031,-99.3193 167.891,-102.045 160.265,-98.9671 160.265,-98.9671"/>
</g>
<!-- K1 -->
<g id="node4" class="node"><title>K1</title>
<path fill="#a8e270" stroke="#2e3436" stroke-width="1.5" d="M58,-117C58,-117 28,-117 28,-117 22,-117 16,-111 16,-105 16,-105 16,-93 16,-93 16,-87 22,-81 28,-81 28,-81 58,-81 58,-81 64,-81 70,-87 70,-93 70,-93 70,-105 70,-105 70,-111 64,-117 58,-117"/>
<text text-anchor="middle" x="43" y="-96.5" font-family="FreeSans" font-size="10.00" fill="#1c2021">K1</text>
</g>
<!-- K1&#45;&gt;gV1 -->
<g id="edge1" class="edge"><title>K1&#45;&gt;gV1</title>
<path fill="none" stroke="#2e3436" stroke-width="2" d="M70.4029,-99.3C79.1835,-99.3998 89.0835,-99.5123 98.3369,-99.6175"/>
<polygon fill="#2e3436" stroke="#2e3436" stroke-width="2" points="105.919,-99.7036 98.3811,-102.993 102.164,-100.161 98.4138,-100.118 98.4195,-99.6183 98.4252,-99.1183 102.175,-99.161 98.4579,-96.2435 105.919,-99.7036 105.919,-99.7036"/>
</g>
<!-- K2 -->
<g id="node5" class="node"><title>K2</title>
<path fill="#a8e270" stroke="#2e3436" stroke-width="1.5" d="M58,-182C58,-182 28,-182 28,-182 22,-182 16,-176 16,-170 16,-170 16,-158 16,-158 16,-152 22,-146 28,-146 28,-146 58,-146 58,-146 64,-146 70,-152 70,-158 70,-158 70,-170 70,-170 70,-176 64,-182 58,-182"/>
<text text-anchor="middle" x="43" y="-161.5" font-family="FreeSans" font-size="10.00" fill="#1c2021">K2</text>
</g>
<!-- K2&#45;&gt;gV2 -->
<g id="edge6" class="edge"><title>K2&#45;&gt;gV2</title>
<path fill="none" stroke="#2e3436" stroke-width="2" d="M70.2645,-162.672C101.51,-161.092 153.745,-158.451 188.037,-156.717"/>
<polygon fill="#2e3436" stroke="#2e3436" stroke-width="2" points="195.918,-156.319 188.598,-160.068 192.198,-157.008 188.453,-157.197 188.427,-156.698 188.402,-156.198 192.147,-156.009 188.257,-153.327 195.918,-156.319 195.918,-156.319"/>
</g>
<!-- K3 -->
<g id="node6" class="node"><title>K3</title>
<path fill="#a8e270" stroke="#2e3436" stroke-width="1.5" d="M58,-52C58,-52 28,-52 28,-52 22,-52 16,-46 16,-40 16,-40 16,-28 16,-28 16,-22 22,-16 28,-16 28,-16 58,-16 58,-16 64,-16 70,-22 70,-28 70,-28 70,-40 70,-40 70,-46 64,-52 58,-52"/>
<text text-anchor="middle" x="43" y="-31.5" font-family="FreeSans" font-size="10.00" fill="#1c2021">K3</text>
</g>
<!-- K3&#45;&gt;gV3 -->
<g id="edge7" class="edge"><title>K3&#45;&gt;gV3</title>
<path fill="none" stroke="#2e3436" stroke-width="2" d="M70.1849,-39.7646C119.019,-50.5153 223.933,-73.6121 278.098,-85.5365"/>
<polygon fill="#2e3436" stroke="#2e3436" stroke-width="2" points="285.709,-87.212 277.659,-88.8955 281.939,-86.894 278.277,-86.0877 278.384,-85.5994 278.492,-85.1111 282.154,-85.9174 279.11,-82.3034 285.709,-87.212 285.709,-87.212"/>
</g>
</g>
</svg>
