<?xml version="1.0" encoding="UTF-8" standalone="no"?>
<!DOCTYPE svg PUBLIC "-//W3C//DTD SVG 1.1//EN"
 "http://www.w3.org/Graphics/SVG/1.1/DTD/svg11.dtd">
<!-- Generated by graphviz version 2.38.0 (20140413.2041)
 -->
<!-- Title: g Pages: 1 -->
<svg width="98pt" height="127pt"
 viewBox="0.00 0.00 98.00 127.00" xmlns="http://www.w3.org/2000/svg" xmlns:xlink="http://www.w3.org/1999/xlink">
<g id="graph0" class="graph" transform="scale(1 1) rotate(0) translate(4 123)">
<title>g</title>
<polygon fill="white" stroke="none" points="-4,4 -4,-123 94,-123 94,4 -4,4"/>
<!-- N0 -->
<g id="node1" class="node"><title>N0</title>
<path fill="#ffffff" stroke="#2e3436" stroke-width="1.5" d="M12,-0.5C12,-0.5 78,-0.5 78,-0.5 84,-0.5 90,-6.5 90,-12.5 90,-12.5 90,-24.5 90,-24.5 90,-30.5 84,-36.5 78,-36.5 78,-36.5 12,-36.5 12,-36.5 6,-36.5 0,-30.5 0,-24.5 0,-24.5 0,-12.5 0,-12.5 0,-6.5 6,-0.5 12,-0.5"/>
<text text-anchor="start" x="8" y="-16.6" font-family="FreeSans" font-size="8.00" fill="#1c2021">Node[0]name = &#39;you&#39;</text>
</g>
<!-- N1 -->
<g id="node2" class="node"><title>N1</title>
<path fill="#ffffff" stroke="#2e3436" stroke-width="1.5" d="M17,-82.5C17,-82.5 73,-82.5 73,-82.5 79,-82.5 85,-88.5 85,-94.5 85,-94.5 85,-106.5 85,-106.5 85,-112.5 79,-118.5 73,-118.5 73,-118.5 17,-118.5 17,-118.5 11,-118.5 5,-112.5 5,-106.5 5,-106.5 5,-94.5 5,-94.5 5,-88.5 11,-82.5 17,-82.5"/>
<text text-anchor="start" x="13" y="-98.6" font-family="FreeSans" font-size="8.00" fill="#1c2021">Node[1]name = &#39;I&#39;</text>
</g>
<!-- N1&#45;&gt;N0 -->
<g id="edge1" class="edge"><title>N1&#45;&gt;N0</title>
<path fill="none" stroke="#2e3436" stroke-width="2" d="M45,-82.1412C45,-71.0583 45,-56.5177 45,-44.2358"/>
<polygon fill="#2e3436" stroke="#2e3436" stroke-width="2" points="45,-36.5501 48.3751,-44.0501 45.5,-40.3001 45.5001,-44.0501 45.0001,-44.0501 44.5001,-44.0501 44.5,-40.3001 41.6251,-44.0501 45,-36.5501 45,-36.5501"/>
<text text-anchor="middle" x="55" y="-57.6" font-family="FreeSans" font-size="8.00" fill="#2e3436">know</text>
</g>
</g>
</svg>
