<?xml version="1.0" encoding="UTF-8" standalone="no"?>
<!DOCTYPE svg PUBLIC "-//W3C//DTD SVG 1.1//EN"
 "http://www.w3.org/Graphics/SVG/1.1/DTD/svg11.dtd">
<!-- Generated by graphviz version 2.38.0 (20140413.2041)
 -->
<!-- Title: g Pages: 1 -->
<svg width="201pt" height="473pt"
 viewBox="0.00 0.00 200.50 473.00" xmlns="http://www.w3.org/2000/svg" xmlns:xlink="http://www.w3.org/1999/xlink">
<g id="graph0" class="graph" transform="scale(1 1) rotate(0) translate(4 469)">
<title>g</title>
<polygon fill="white" stroke="none" points="-4,4 -4,-469 196.5,-469 196.5,4 -4,4"/>
<!-- N0 -->
<g id="node1" class="node"><title>N0</title>
<path fill="#ffffff" stroke="#2e3436" stroke-width="1.5" d="M51.5,-428.5C51.5,-428.5 81.5,-428.5 81.5,-428.5 87.5,-428.5 93.5,-434.5 93.5,-440.5 93.5,-440.5 93.5,-452.5 93.5,-452.5 93.5,-458.5 87.5,-464.5 81.5,-464.5 81.5,-464.5 51.5,-464.5 51.5,-464.5 45.5,-464.5 39.5,-458.5 39.5,-452.5 39.5,-452.5 39.5,-440.5 39.5,-440.5 39.5,-434.5 45.5,-428.5 51.5,-428.5"/>
<text text-anchor="middle" x="66.5" y="-444.6" font-family="FreeSans" font-size="8.00" fill="#1c2021"> </text>
</g>
<!-- N1 -->
<g id="node2" class="node"><title>N1</title>
<path fill="#ffffff" stroke="#2e3436" stroke-width="1.5" d="M19,-346.5C19,-346.5 114,-346.5 114,-346.5 120,-346.5 126,-352.5 126,-358.5 126,-358.5 126,-370.5 126,-370.5 126,-376.5 120,-382.5 114,-382.5 114,-382.5 19,-382.5 19,-382.5 13,-382.5 7,-376.5 7,-370.5 7,-370.5 7,-358.5 7,-358.5 7,-352.5 13,-346.5 19,-346.5"/>
<text text-anchor="start" x="15" y="-362.6" font-family="FreeSans" font-size="8.00" fill="#1c2021">name = &#39;Thomas Andersson&#39;</text>
</g>
<!-- N0&#45;&gt;N1 -->
<g id="edge1" class="edge"><title>N0&#45;&gt;N1</title>
<path fill="none" stroke="#2e3436" stroke-width="2" d="M66.5,-428.141C66.5,-417.058 66.5,-402.518 66.5,-390.236"/>
<polygon fill="#2e3436" stroke="#2e3436" stroke-width="2" points="66.5,-382.55 69.8751,-390.05 67,-386.3 67.0001,-390.05 66.5001,-390.05 66.0001,-390.05 66,-386.3 63.1251,-390.05 66.5,-382.55 66.5,-382.55"/>
<text text-anchor="middle" x="79" y="-403.6" font-family="FreeSans" font-size="8.00" fill="#2e3436">ROOT</text>
</g>
<!-- N2 -->
<g id="node3" class="node"><title>N2</title>
<path fill="#ffffff" stroke="#2e3436" stroke-width="1.5" d="M12,-164.5C12,-164.5 59,-164.5 59,-164.5 65,-164.5 71,-170.5 71,-176.5 71,-176.5 71,-188.5 71,-188.5 71,-194.5 65,-200.5 59,-200.5 59,-200.5 12,-200.5 12,-200.5 6,-200.5 0,-194.5 0,-188.5 0,-188.5 0,-176.5 0,-176.5 0,-170.5 6,-164.5 12,-164.5"/>
<text text-anchor="start" x="8" y="-180.6" font-family="FreeSans" font-size="8.00" fill="#1c2021">name = &#39;Trinity&#39;</text>
</g>
<!-- N1&#45;&gt;N2 -->
<g id="edge2" class="edge"><title>N1&#45;&gt;N2</title>
<path fill="none" stroke="#4e9a06" stroke-width="2" d="M59.7519,-346.464C54.3973,-332.163 47.2154,-311.07 43.5,-292 37.967,-263.6 36.1913,-230.338 35.6573,-208.202"/>
<polygon fill="#4e9a06" stroke="#4e9a06" stroke-width="2" points="35.5121,-200.579 39.0294,-208.014 36.0835,-204.319 36.155,-208.069 35.6551,-208.078 35.1551,-208.088 35.0837,-204.338 32.2807,-208.142 35.5121,-200.579 35.5121,-200.579"/>
<text text-anchor="middle" x="59" y="-271.6" font-family="FreeSans" font-size="8.00" fill="#4e9a06">KNOWS</text>
</g>
<!-- N3 -->
<g id="node4" class="node"><title>N3</title>
<path fill="#ffffff" stroke="#2e3436" stroke-width="1.5" d="M101,-255.5C101,-255.5 162,-255.5 162,-255.5 168,-255.5 174,-261.5 174,-267.5 174,-267.5 174,-279.5 174,-279.5 174,-285.5 168,-291.5 162,-291.5 162,-291.5 101,-291.5 101,-291.5 95,-291.5 89,-285.5 89,-279.5 89,-279.5 89,-267.5 89,-267.5 89,-261.5 95,-255.5 101,-255.5"/>
<text text-anchor="start" x="97" y="-271.6" font-family="FreeSans" font-size="8.00" fill="#1c2021">name = &#39;Morpheus&#39;</text>
</g>
<!-- N1&#45;&gt;N3 -->
<g id="edge3" class="edge"><title>N1&#45;&gt;N3</title>
<path fill="none" stroke="#4e9a06" stroke-width="2" d="M79.0327,-346.34C89.1039,-332.55 103.352,-313.041 114.459,-297.833"/>
<polygon fill="#4e9a06" stroke="#4e9a06" stroke-width="2" points="119.006,-291.607 117.308,-299.655 117.198,-294.931 114.986,-297.959 114.582,-297.664 114.179,-297.369 116.39,-294.341 111.857,-295.674 119.006,-291.607 119.006,-291.607"/>
<text text-anchor="middle" x="121" y="-321.6" font-family="FreeSans" font-size="8.00" fill="#4e9a06">KNOWS</text>
<text text-anchor="start" x="105.5" y="-312.6" font-family="FreeSans" font-size="8.00" fill="#4e9a06">age = 3</text>
</g>
<!-- N3&#45;&gt;N2 -->
<g id="edge4" class="edge"><title>N3&#45;&gt;N2</title>
<path fill="none" stroke="#4e9a06" stroke-width="2" d="M112.99,-255.34C97.8501,-241.304 76.3191,-221.343 59.7937,-206.022"/>
<polygon fill="#4e9a06" stroke="#4e9a06" stroke-width="2" points="53.9529,-200.607 61.7476,-203.231 57.0429,-202.79 59.7929,-205.34 59.453,-205.706 59.1131,-206.073 56.363,-203.524 57.1584,-208.181 53.9529,-200.607 53.9529,-200.607"/>
<text text-anchor="middle" x="108.5" y="-230.6" font-family="FreeSans" font-size="8.00" fill="#4e9a06">KNOWS</text>
<text text-anchor="start" x="92.5" y="-221.6" font-family="FreeSans" font-size="8.00" fill="#4e9a06">age = 90</text>
</g>
<!-- N4 -->
<g id="node5" class="node"><title>N4</title>
<path fill="#ffffff" stroke="#2e3436" stroke-width="1.5" d="M118,-164.5C118,-164.5 169,-164.5 169,-164.5 175,-164.5 181,-170.5 181,-176.5 181,-176.5 181,-188.5 181,-188.5 181,-194.5 175,-200.5 169,-200.5 169,-200.5 118,-200.5 118,-200.5 112,-200.5 106,-194.5 106,-188.5 106,-188.5 106,-176.5 106,-176.5 106,-170.5 112,-164.5 118,-164.5"/>
<text text-anchor="start" x="114" y="-180.6" font-family="FreeSans" font-size="8.00" fill="#1c2021">name = &#39;Cypher&#39;</text>
</g>
<!-- N3&#45;&gt;N4 -->
<g id="edge5" class="edge"><title>N3&#45;&gt;N4</title>
<path fill="none" stroke="#4e9a06" stroke-width="2" d="M133.814,-255.34C135.623,-241.919 138.163,-223.082 140.188,-208.064"/>
<polygon fill="#4e9a06" stroke="#4e9a06" stroke-width="2" points="141.193,-200.607 143.536,-208.491 141.188,-204.391 140.687,-208.107 140.191,-208.04 139.696,-207.973 140.197,-204.257 136.846,-207.589 141.193,-200.607 141.193,-200.607"/>
<text text-anchor="middle" x="155" y="-226.1" font-family="FreeSans" font-size="8.00" fill="#4e9a06">KNOWS</text>
</g>
<!-- N5 -->
<g id="node6" class="node"><title>N5</title>
<path fill="#ffffff" stroke="#2e3436" stroke-width="1.5" d="M109.5,-82.5C109.5,-82.5 177.5,-82.5 177.5,-82.5 183.5,-82.5 189.5,-88.5 189.5,-94.5 189.5,-94.5 189.5,-106.5 189.5,-106.5 189.5,-112.5 183.5,-118.5 177.5,-118.5 177.5,-118.5 109.5,-118.5 109.5,-118.5 103.5,-118.5 97.5,-112.5 97.5,-106.5 97.5,-106.5 97.5,-94.5 97.5,-94.5 97.5,-88.5 103.5,-82.5 109.5,-82.5"/>
<text text-anchor="start" x="105.5" y="-98.6" font-family="FreeSans" font-size="8.00" fill="#1c2021">name = &#39;Agent Smith&#39;</text>
</g>
<!-- N4&#45;&gt;N5 -->
<g id="edge6" class="edge"><title>N4&#45;&gt;N5</title>
<path fill="none" stroke="#4e9a06" stroke-width="2" d="M143.5,-164.141C143.5,-153.058 143.5,-138.518 143.5,-126.236"/>
<polygon fill="#4e9a06" stroke="#4e9a06" stroke-width="2" points="143.5,-118.55 146.875,-126.05 144,-122.3 144,-126.05 143.5,-126.05 143,-126.05 143,-122.3 140.125,-126.05 143.5,-118.55 143.5,-118.55"/>
<text text-anchor="middle" x="159" y="-139.6" font-family="FreeSans" font-size="8.00" fill="#4e9a06">KNOWS</text>
</g>
<!-- N6 -->
<g id="node7" class="node"><title>N6</title>
<path fill="#ffffff" stroke="#2e3436" stroke-width="1.5" d="M106.5,-0.5C106.5,-0.5 180.5,-0.5 180.5,-0.5 186.5,-0.5 192.5,-6.5 192.5,-12.5 192.5,-12.5 192.5,-24.5 192.5,-24.5 192.5,-30.5 186.5,-36.5 180.5,-36.5 180.5,-36.5 106.5,-36.5 106.5,-36.5 100.5,-36.5 94.5,-30.5 94.5,-24.5 94.5,-24.5 94.5,-12.5 94.5,-12.5 94.5,-6.5 100.5,-0.5 106.5,-0.5"/>
<text text-anchor="start" x="102.5" y="-16.6" font-family="FreeSans" font-size="8.00" fill="#1c2021">name = &#39;The Architect&#39;</text>
</g>
<!-- N5&#45;&gt;N6 -->
<g id="edge7" class="edge"><title>N5&#45;&gt;N6</title>
<path fill="none" stroke="#a40000" stroke-width="2" d="M143.5,-82.1412C143.5,-71.0583 143.5,-56.5177 143.5,-44.2358"/>
<polygon fill="#a40000" stroke="#a40000" stroke-width="2" points="143.5,-36.5501 146.875,-44.0501 144,-40.3001 144,-44.0501 143.5,-44.0501 143,-44.0501 143,-40.3001 140.125,-44.0501 143.5,-36.5501 143.5,-36.5501"/>
<text text-anchor="middle" x="166.5" y="-57.6" font-family="FreeSans" font-size="8.00" fill="#a40000">CODED_BY</text>
</g>
</g>
</svg>
