<?xml version="1.0" encoding="UTF-8" standalone="no"?>
<!DOCTYPE svg PUBLIC "-//W3C//DTD SVG 1.1//EN"
 "http://www.w3.org/Graphics/SVG/1.1/DTD/svg11.dtd">
<!-- Generated by graphviz version 2.38.0 (20140413.2041)
 -->
<!-- Title: g Pages: 1 -->
<svg width="265pt" height="232pt"
 viewBox="0.00 0.00 264.50 232.00" xmlns="http://www.w3.org/2000/svg" xmlns:xlink="http://www.w3.org/1999/xlink">
<g id="graph0" class="graph" transform="scale(1 1) rotate(0) translate(4 228)">
<title>g</title>
<polygon fill="white" stroke="none" points="-4,4 -4,-228 260.5,-228 260.5,4 -4,4"/>
<!-- N0 -->
<g id="node1" class="node"><title>N0</title>
<path fill="#ffffff" stroke="#2e3436" stroke-width="1.5" d="M12,-87C12,-87 56,-87 56,-87 62,-87 68,-93 68,-99 68,-99 68,-118 68,-118 68,-124 62,-130 56,-130 56,-130 12,-130 12,-130 6,-130 0,-124 0,-118 0,-118 0,-99 0,-99 0,-93 6,-87 12,-87"/>
<text text-anchor="middle" x="34" y="-119.6" font-family="FreeSans" font-size="8.00" fill="#1c2021">Person</text>
<polyline fill="none" stroke="#2e3436" stroke-width="1.5" points="0,-113 68,-113 "/>
<text text-anchor="start" x="8" y="-102.6" font-family="FreeSans" font-size="8.00" fill="#1c2021">name = &#39;D&#39;</text>
<text text-anchor="start" x="8" y="-93.6" font-family="FreeSans" font-size="8.00" fill="#1c2021">eyes = &#39;brown&#39;</text>
</g>
<!-- N1 -->
<g id="node2" class="node"><title>N1</title>
<path fill="#ffffff" stroke="#2e3436" stroke-width="1.5" d="M109.5,-180.5C109.5,-180.5 150.5,-180.5 150.5,-180.5 156.5,-180.5 162.5,-186.5 162.5,-192.5 162.5,-192.5 162.5,-211.5 162.5,-211.5 162.5,-217.5 156.5,-223.5 150.5,-223.5 150.5,-223.5 109.5,-223.5 109.5,-223.5 103.5,-223.5 97.5,-217.5 97.5,-211.5 97.5,-211.5 97.5,-192.5 97.5,-192.5 97.5,-186.5 103.5,-180.5 109.5,-180.5"/>
<text text-anchor="middle" x="130" y="-213.1" font-family="FreeSans" font-size="8.00" fill="#1c2021">Person</text>
<polyline fill="none" stroke="#2e3436" stroke-width="1.5" points="97.5,-206.5 162.5,-206.5 "/>
<text text-anchor="start" x="105.5" y="-196.1" font-family="FreeSans" font-size="8.00" fill="#1c2021">name = &#39;A&#39;</text>
<text text-anchor="start" x="105.5" y="-187.1" font-family="FreeSans" font-size="8.00" fill="#1c2021">property = 13</text>
</g>
<!-- N1&#45;&gt;N0 -->
<g id="edge1" class="edge"><title>N1&#45;&gt;N0</title>
<path fill="none" stroke="#2e3436" stroke-width="2" d="M108.216,-180.237C94.3463,-167.018 76.2637,-149.783 61.4202,-135.635"/>
<polygon fill="#2e3436" stroke="#2e3436" stroke-width="2" points="55.6977,-130.181 63.4553,-132.912 58.7572,-132.406 61.4717,-134.993 61.1267,-135.355 60.7818,-135.717 58.0672,-133.13 58.7982,-137.798 55.6977,-130.181 55.6977,-130.181"/>
<text text-anchor="middle" x="103.5" y="-155.6" font-family="FreeSans" font-size="8.00" fill="#2e3436">KNOWS</text>
</g>
<!-- N3 -->
<g id="node3" class="node"><title>N3</title>
<path fill="#ffffff" stroke="#2e3436" stroke-width="1.5" d="M109.5,-82.5C109.5,-82.5 150.5,-82.5 150.5,-82.5 156.5,-82.5 162.5,-88.5 162.5,-94.5 162.5,-94.5 162.5,-122.5 162.5,-122.5 162.5,-128.5 156.5,-134.5 150.5,-134.5 150.5,-134.5 109.5,-134.5 109.5,-134.5 103.5,-134.5 97.5,-128.5 97.5,-122.5 97.5,-122.5 97.5,-94.5 97.5,-94.5 97.5,-88.5 103.5,-82.5 109.5,-82.5"/>
<text text-anchor="middle" x="130" y="-124.1" font-family="FreeSans" font-size="8.00" fill="#1c2021">Person</text>
<polyline fill="none" stroke="#2e3436" stroke-width="1.5" points="97.5,-117.5 162.5,-117.5 "/>
<text text-anchor="start" x="105.5" y="-107.1" font-family="FreeSans" font-size="8.00" fill="#1c2021">name = &#39;C&#39;</text>
<text text-anchor="start" x="105.5" y="-98.1" font-family="FreeSans" font-size="8.00" fill="#1c2021">property = 44</text>
<text text-anchor="start" x="105.5" y="-89.1" font-family="FreeSans" font-size="8.00" fill="#1c2021">eyes = &#39;blue&#39;</text>
</g>
<!-- N1&#45;&gt;N3 -->
<g id="edge2" class="edge"><title>N1&#45;&gt;N3</title>
<path fill="none" stroke="#2e3436" stroke-width="2" d="M130,-180.237C130,-169.059 130,-155.01 130,-142.384"/>
<polygon fill="#2e3436" stroke="#2e3436" stroke-width="2" points="130,-134.745 133.375,-142.245 130.5,-138.495 130.5,-142.245 130,-142.245 129.5,-142.245 129.5,-138.495 126.625,-142.245 130,-134.745 130,-134.745"/>
<text text-anchor="middle" x="145.5" y="-155.6" font-family="FreeSans" font-size="8.00" fill="#2e3436">KNOWS</text>
</g>
<!-- N2 -->
<g id="node4" class="node"><title>N2</title>
<path fill="#ffffff" stroke="#2e3436" stroke-width="1.5" d="M203.5,-82.5C203.5,-82.5 244.5,-82.5 244.5,-82.5 250.5,-82.5 256.5,-88.5 256.5,-94.5 256.5,-94.5 256.5,-122.5 256.5,-122.5 256.5,-128.5 250.5,-134.5 244.5,-134.5 244.5,-134.5 203.5,-134.5 203.5,-134.5 197.5,-134.5 191.5,-128.5 191.5,-122.5 191.5,-122.5 191.5,-94.5 191.5,-94.5 191.5,-88.5 197.5,-82.5 203.5,-82.5"/>
<text text-anchor="middle" x="224" y="-124.1" font-family="FreeSans" font-size="8.00" fill="#1c2021">Person</text>
<polyline fill="none" stroke="#2e3436" stroke-width="1.5" points="191.5,-117.5 256.5,-117.5 "/>
<text text-anchor="start" x="199.5" y="-107.1" font-family="FreeSans" font-size="8.00" fill="#1c2021">name = &#39;B&#39;</text>
<text text-anchor="start" x="199.5" y="-98.1" font-family="FreeSans" font-size="8.00" fill="#1c2021">property = 33</text>
<text text-anchor="start" x="199.5" y="-89.1" font-family="FreeSans" font-size="8.00" fill="#1c2021">eyes = &#39;blue&#39;</text>
</g>
<!-- N1&#45;&gt;N2 -->
<g id="edge3" class="edge"><title>N1&#45;&gt;N2</title>
<path fill="none" stroke="#2e3436" stroke-width="2" d="M151.33,-180.237C163.464,-168.426 178.89,-153.41 192.405,-140.255"/>
<polygon fill="#2e3436" stroke="#2e3436" stroke-width="2" points="198.065,-134.745 195.045,-142.395 195.727,-137.719 193.04,-140.335 192.691,-139.976 192.342,-139.618 195.029,-137.002 190.337,-137.558 198.065,-134.745 198.065,-134.745"/>
<text text-anchor="middle" x="192.5" y="-155.6" font-family="FreeSans" font-size="8.00" fill="#2e3436">KNOWS</text>
</g>
<!-- N4 -->
<g id="node5" class="node"><title>N4</title>
<path fill="#ffffff" stroke="#2e3436" stroke-width="1.5" d="M164.5,-0.5C164.5,-0.5 195.5,-0.5 195.5,-0.5 201.5,-0.5 207.5,-6.5 207.5,-12.5 207.5,-12.5 207.5,-24.5 207.5,-24.5 207.5,-30.5 201.5,-36.5 195.5,-36.5 195.5,-36.5 164.5,-36.5 164.5,-36.5 158.5,-36.5 152.5,-30.5 152.5,-24.5 152.5,-24.5 152.5,-12.5 152.5,-12.5 152.5,-6.5 158.5,-0.5 164.5,-0.5"/>
<text text-anchor="middle" x="180" y="-25.6" font-family="FreeSans" font-size="8.00" fill="#1c2021">Person</text>
<polyline fill="none" stroke="#2e3436" stroke-width="1.5" points="152.5,-18.5 207.5,-18.5 "/>
<text text-anchor="start" x="160.5" y="-7.6" font-family="FreeSans" font-size="8.00" fill="#1c2021">name = &#39;D&#39;</text>
</g>
<!-- N3&#45;&gt;N4 -->
<g id="edge5" class="edge"><title>N3&#45;&gt;N4</title>
<path fill="none" stroke="#2e3436" stroke-width="2" d="M144.462,-82.0468C151.406,-69.826 159.677,-55.2688 166.492,-43.2744"/>
<polygon fill="#2e3436" stroke="#2e3436" stroke-width="2" points="170.315,-36.5455 169.544,-44.7338 168.897,-40.053 167.045,-43.3135 166.61,-43.0665 166.175,-42.8195 168.028,-39.559 163.676,-41.3992 170.315,-36.5455 170.315,-36.5455"/>
<text text-anchor="middle" x="175.5" y="-57.6" font-family="FreeSans" font-size="8.00" fill="#2e3436">KNOWS</text>
</g>
<!-- N2&#45;&gt;N4 -->
<g id="edge4" class="edge"><title>N2&#45;&gt;N4</title>
<path fill="none" stroke="#2e3436" stroke-width="2" d="M211.273,-82.0468C205.163,-69.826 197.884,-55.2688 191.887,-43.2744"/>
<polygon fill="#2e3436" stroke="#2e3436" stroke-width="2" points="188.523,-36.5455 194.896,-41.7444 190.647,-39.676 192.324,-43.0301 191.877,-43.2537 191.43,-43.4773 189.753,-40.1232 188.858,-44.7631 188.523,-36.5455 188.523,-36.5455"/>
<text text-anchor="middle" x="217.5" y="-57.6" font-family="FreeSans" font-size="8.00" fill="#2e3436">KNOWS</text>
</g>
</g>
</svg>
