<?xml version="1.0" encoding="UTF-8" standalone="no"?>
<!DOCTYPE svg PUBLIC "-//W3C//DTD SVG 1.1//EN"
 "http://www.w3.org/Graphics/SVG/1.1/DTD/svg11.dtd">
<!-- Generated by graphviz version 2.38.0 (20140413.2041)
 -->
<!-- Title: g Pages: 1 -->
<svg width="305pt" height="209pt"
 viewBox="0.00 0.00 304.50 209.00" xmlns="http://www.w3.org/2000/svg" xmlns:xlink="http://www.w3.org/1999/xlink">
<g id="graph0" class="graph" transform="scale(1 1) rotate(0) translate(4 205)">
<title>g</title>
<polygon fill="white" stroke="none" points="-4,4 -4,-205 300.5,-205 300.5,4 -4,4"/>
<!-- N0 -->
<g id="node1" class="node"><title>N0</title>
<path fill="#ffffff" stroke="#2e3436" stroke-width="1.5" d="M83.5,-164.5C83.5,-164.5 169.5,-164.5 169.5,-164.5 175.5,-164.5 181.5,-170.5 181.5,-176.5 181.5,-176.5 181.5,-188.5 181.5,-188.5 181.5,-194.5 175.5,-200.5 169.5,-200.5 169.5,-200.5 83.5,-200.5 83.5,-200.5 77.5,-200.5 71.5,-194.5 71.5,-188.5 71.5,-188.5 71.5,-176.5 71.5,-176.5 71.5,-170.5 77.5,-164.5 83.5,-164.5"/>
<text text-anchor="middle" x="126.5" y="-189.6" font-family="FreeSans" font-size="8.00" fill="#1c2021">Actor</text>
<polyline fill="none" stroke="#2e3436" stroke-width="1.5" points="71.5,-182.5 181.5,-182.5 "/>
<text text-anchor="start" x="79.5" y="-171.6" font-family="FreeSans" font-size="8.00" fill="#1c2021">name = &#39;Anthony Hopkins&#39;</text>
</g>
<!-- N1 -->
<g id="node2" class="node"><title>N1</title>
<path fill="#ffffff" stroke="#2e3436" stroke-width="1.5" d="M12,-82.5C12,-82.5 83,-82.5 83,-82.5 89,-82.5 95,-88.5 95,-94.5 95,-94.5 95,-106.5 95,-106.5 95,-112.5 89,-118.5 83,-118.5 83,-118.5 12,-118.5 12,-118.5 6,-118.5 0,-112.5 0,-106.5 0,-106.5 0,-94.5 0,-94.5 0,-88.5 6,-82.5 12,-82.5"/>
<text text-anchor="middle" x="47.5" y="-107.6" font-family="FreeSans" font-size="8.00" fill="#1c2021">Actor</text>
<polyline fill="none" stroke="#2e3436" stroke-width="1.5" points="0,-100.5 95,-100.5 "/>
<text text-anchor="start" x="8" y="-89.6" font-family="FreeSans" font-size="8.00" fill="#1c2021">name = &#39;Helen Mirren&#39;</text>
</g>
<!-- N0&#45;&gt;N1 -->
<g id="edge1" class="edge"><title>N0&#45;&gt;N1</title>
<path fill="none" stroke="#2e3436" stroke-width="2" d="M109.358,-164.141C97.7884,-152.425 82.4028,-136.845 69.8704,-124.154"/>
<polygon fill="#2e3436" stroke="#2e3436" stroke-width="2" points="64.337,-118.55 72.0083,-121.515 67.3277,-120.867 69.9626,-123.535 69.6068,-123.887 69.2511,-124.238 66.6161,-121.57 67.2054,-126.258 64.337,-118.55 64.337,-118.55"/>
<text text-anchor="middle" x="105" y="-139.6" font-family="FreeSans" font-size="8.00" fill="#2e3436">KNOWS</text>
</g>
<!-- N3 -->
<g id="node3" class="node"><title>N3</title>
<path fill="#ffffff" stroke="#2e3436" stroke-width="1.5" d="M87,-0.5C87,-0.5 140,-0.5 140,-0.5 146,-0.5 152,-6.5 152,-12.5 152,-12.5 152,-24.5 152,-24.5 152,-30.5 146,-36.5 140,-36.5 140,-36.5 87,-36.5 87,-36.5 81,-36.5 75,-30.5 75,-24.5 75,-24.5 75,-12.5 75,-12.5 75,-6.5 81,-0.5 87,-0.5"/>
<text text-anchor="middle" x="113.5" y="-25.6" font-family="FreeSans" font-size="8.00" fill="#1c2021">Movie</text>
<polyline fill="none" stroke="#2e3436" stroke-width="1.5" points="75,-18.5 152,-18.5 "/>
<text text-anchor="start" x="83" y="-7.6" font-family="FreeSans" font-size="8.00" fill="#1c2021">title = &#39;Hitchcock&#39;</text>
</g>
<!-- N0&#45;&gt;N3 -->
<g id="edge2" class="edge"><title>N0&#45;&gt;N3</title>
<path fill="none" stroke="#4e9a06" stroke-width="2" d="M127.882,-164.16C129.463,-139.645 131.058,-93.543 124.5,-55 123.883,-51.3743 122.996,-47.6032 121.989,-43.9313"/>
<polygon fill="#4e9a06" stroke="#4e9a06" stroke-width="2" points="119.802,-36.6116 125.183,-42.8318 121.354,-40.0616 122.428,-43.6547 121.949,-43.7978 121.47,-43.9409 120.396,-40.3478 118.715,-44.7639 119.802,-36.6116 119.802,-36.6116"/>
<text text-anchor="middle" x="147" y="-98.6" font-family="FreeSans" font-size="8.00" fill="#4e9a06">ACTS_IN</text>
</g>
<!-- N1&#45;&gt;N3 -->
<g id="edge3" class="edge"><title>N1&#45;&gt;N3</title>
<path fill="none" stroke="#4e9a06" stroke-width="2" d="M61.821,-82.1412C71.3998,-70.5305 84.1094,-55.125 94.5273,-42.4972"/>
<polygon fill="#4e9a06" stroke="#4e9a06" stroke-width="2" points="99.4337,-36.5501 97.2642,-44.4832 97.4329,-39.761 95.0464,-42.6536 94.6608,-42.3354 94.2751,-42.0172 96.6615,-39.1246 92.0574,-40.1876 99.4337,-36.5501 99.4337,-36.5501"/>
<text text-anchor="middle" x="100" y="-57.6" font-family="FreeSans" font-size="8.00" fill="#4e9a06">ACTS_IN</text>
</g>
<!-- N2 -->
<g id="node4" class="node"><title>N2</title>
<path fill="#ffffff" stroke="#2e3436" stroke-width="1.5" d="M222.5,-164.5C222.5,-164.5 284.5,-164.5 284.5,-164.5 290.5,-164.5 296.5,-170.5 296.5,-176.5 296.5,-176.5 296.5,-188.5 296.5,-188.5 296.5,-194.5 290.5,-200.5 284.5,-200.5 284.5,-200.5 222.5,-200.5 222.5,-200.5 216.5,-200.5 210.5,-194.5 210.5,-188.5 210.5,-188.5 210.5,-176.5 210.5,-176.5 210.5,-170.5 216.5,-164.5 222.5,-164.5"/>
<text text-anchor="middle" x="253.5" y="-189.6" font-family="FreeSans" font-size="8.00" fill="#1c2021">Actor</text>
<polyline fill="none" stroke="#2e3436" stroke-width="1.5" points="210.5,-182.5 296.5,-182.5 "/>
<text text-anchor="start" x="218.5" y="-171.6" font-family="FreeSans" font-size="8.00" fill="#1c2021">name = &#39;Hitchcock&#39;</text>
</g>
</g>
</svg>
