<?xml version="1.0" encoding="UTF-8" standalone="no"?>
<!DOCTYPE svg PUBLIC "-//W3C//DTD SVG 1.1//EN"
 "http://www.w3.org/Graphics/SVG/1.1/DTD/svg11.dtd">
<!-- Generated by graphviz version 2.38.0 (20140413.2041)
 -->
<!-- Title: g Pages: 1 -->
<svg width="353pt" height="373pt"
 viewBox="0.00 0.00 353.00 373.00" xmlns="http://www.w3.org/2000/svg" xmlns:xlink="http://www.w3.org/1999/xlink">
<g id="graph0" class="graph" transform="scale(1 1) rotate(0) translate(4 369)">
<title>g</title>
<polygon fill="white" stroke="none" points="-4,4 -4,-369 349,-369 349,4 -4,4"/>
<!-- N94 -->
<g id="node1" class="node"><title>N94</title>
<path fill="#ffffff" stroke="#2e3436" stroke-width="1.5" d="M15.5,-0.5C15.5,-0.5 90.5,-0.5 90.5,-0.5 96.5,-0.5 102.5,-6.5 102.5,-12.5 102.5,-12.5 102.5,-24.5 102.5,-24.5 102.5,-30.5 96.5,-36.5 90.5,-36.5 90.5,-36.5 15.5,-36.5 15.5,-36.5 9.5,-36.5 3.5,-30.5 3.5,-24.5 3.5,-24.5 3.5,-12.5 3.5,-12.5 3.5,-6.5 9.5,-0.5 15.5,-0.5"/>
<text text-anchor="start" x="11.5" y="-16.6" font-family="FreeSans" font-size="8.00" fill="#1c2021">Node[94]name = &#39;Sara&#39;</text>
</g>
<!-- N95 -->
<g id="node2" class="node"><title>N95</title>
<path fill="#ffffff" stroke="#2e3436" stroke-width="1.5" d="M112,-246.5C112,-246.5 192,-246.5 192,-246.5 198,-246.5 204,-252.5 204,-258.5 204,-258.5 204,-270.5 204,-270.5 204,-276.5 198,-282.5 192,-282.5 192,-282.5 112,-282.5 112,-282.5 106,-282.5 100,-276.5 100,-270.5 100,-270.5 100,-258.5 100,-258.5 100,-252.5 106,-246.5 112,-246.5"/>
<text text-anchor="start" x="108" y="-262.6" font-family="FreeSans" font-size="8.00" fill="#1c2021">Node[95]name = &#39;Johan&#39;</text>
</g>
<!-- N96 -->
<g id="node3" class="node"><title>N96</title>
<path fill="#ffffff" stroke="#2e3436" stroke-width="1.5" d="M115.5,-164.5C115.5,-164.5 188.5,-164.5 188.5,-164.5 194.5,-164.5 200.5,-170.5 200.5,-176.5 200.5,-176.5 200.5,-188.5 200.5,-188.5 200.5,-194.5 194.5,-200.5 188.5,-200.5 188.5,-200.5 115.5,-200.5 115.5,-200.5 109.5,-200.5 103.5,-194.5 103.5,-188.5 103.5,-188.5 103.5,-176.5 103.5,-176.5 103.5,-170.5 109.5,-164.5 115.5,-164.5"/>
<text text-anchor="start" x="111.5" y="-180.6" font-family="FreeSans" font-size="8.00" fill="#1c2021">Node[96]name = &#39;Emil&#39;</text>
</g>
<!-- N95&#45;&gt;N96 -->
<g id="edge1" class="edge"><title>N95&#45;&gt;N96</title>
<path fill="none" stroke="#2e3436" stroke-width="2" d="M152,-246.141C152,-235.058 152,-220.518 152,-208.236"/>
<polygon fill="#2e3436" stroke="#2e3436" stroke-width="2" points="152,-200.55 155.375,-208.05 152.5,-204.3 152.5,-208.05 152,-208.05 151.5,-208.05 151.5,-204.3 148.625,-208.05 152,-200.55 152,-200.55"/>
<text text-anchor="middle" x="164" y="-221.6" font-family="FreeSans" font-size="8.00" fill="#2e3436">knows</text>
</g>
<!-- N98 -->
<g id="node4" class="node"><title>N98</title>
<path fill="#ffffff" stroke="#2e3436" stroke-width="1.5" d="M12,-82.5C12,-82.5 94,-82.5 94,-82.5 100,-82.5 106,-88.5 106,-94.5 106,-94.5 106,-106.5 106,-106.5 106,-112.5 100,-118.5 94,-118.5 94,-118.5 12,-118.5 12,-118.5 6,-118.5 0,-112.5 0,-106.5 0,-106.5 0,-94.5 0,-94.5 0,-88.5 6,-82.5 12,-82.5"/>
<text text-anchor="start" x="8" y="-98.6" font-family="FreeSans" font-size="8.00" fill="#1c2021">Node[98]name = &#39;Tobias&#39;</text>
</g>
<!-- N96&#45;&gt;N98 -->
<g id="edge2" class="edge"><title>N96&#45;&gt;N98</title>
<path fill="none" stroke="#2e3436" stroke-width="2" d="M130.518,-164.141C115.758,-152.214 96.0426,-136.282 80.1884,-123.47"/>
<polygon fill="#2e3436" stroke="#2e3436" stroke-width="2" points="74.0995,-118.55 82.0542,-120.639 77.3305,-120.518 80.2472,-122.875 79.933,-123.264 79.6187,-123.653 76.702,-121.296 77.8117,-125.889 74.0995,-118.55 74.0995,-118.55"/>
<text text-anchor="middle" x="118" y="-139.6" font-family="FreeSans" font-size="8.00" fill="#2e3436">knows</text>
</g>
<!-- N99 -->
<g id="node5" class="node"><title>N99</title>
<path fill="#ffffff" stroke="#2e3436" stroke-width="1.5" d="M147.5,-82.5C147.5,-82.5 224.5,-82.5 224.5,-82.5 230.5,-82.5 236.5,-88.5 236.5,-94.5 236.5,-94.5 236.5,-106.5 236.5,-106.5 236.5,-112.5 230.5,-118.5 224.5,-118.5 224.5,-118.5 147.5,-118.5 147.5,-118.5 141.5,-118.5 135.5,-112.5 135.5,-106.5 135.5,-106.5 135.5,-94.5 135.5,-94.5 135.5,-88.5 141.5,-82.5 147.5,-82.5"/>
<text text-anchor="start" x="143.5" y="-98.6" font-family="FreeSans" font-size="8.00" fill="#1c2021">Node[99]name = &#39;Peter&#39;</text>
</g>
<!-- N96&#45;&gt;N99 -->
<g id="edge3" class="edge"><title>N96&#45;&gt;N99</title>
<path fill="none" stroke="#2e3436" stroke-width="2" d="M159.377,-164.141C164.177,-152.847 170.503,-137.962 175.784,-125.536"/>
<polygon fill="#2e3436" stroke="#2e3436" stroke-width="2" points="178.754,-118.55 178.926,-126.773 177.747,-122.197 176.28,-125.648 175.82,-125.453 175.36,-125.257 176.827,-121.806 172.714,-124.132 178.754,-118.55 178.754,-118.55"/>
<text text-anchor="middle" x="183" y="-139.6" font-family="FreeSans" font-size="8.00" fill="#2e3436">knows</text>
</g>
<!-- N98&#45;&gt;N94 -->
<g id="edge6" class="edge"><title>N98&#45;&gt;N94</title>
<path fill="none" stroke="#4e9a06" stroke-width="2" d="M53,-82.1412C53,-71.0583 53,-56.5177 53,-44.2358"/>
<polygon fill="#4e9a06" stroke="#4e9a06" stroke-width="2" points="53,-36.5501 56.3751,-44.0501 53.5,-40.3001 53.5001,-44.0501 53.0001,-44.0501 52.5001,-44.0501 52.5,-40.3001 49.6251,-44.0501 53,-36.5501 53,-36.5501"/>
<text text-anchor="middle" x="62.5" y="-57.6" font-family="FreeSans" font-size="8.00" fill="#4e9a06">loves</text>
</g>
<!-- N97 -->
<g id="node6" class="node"><title>N97</title>
<path fill="#ffffff" stroke="#2e3436" stroke-width="1.5" d="M202.5,-328.5C202.5,-328.5 277.5,-328.5 277.5,-328.5 283.5,-328.5 289.5,-334.5 289.5,-340.5 289.5,-340.5 289.5,-352.5 289.5,-352.5 289.5,-358.5 283.5,-364.5 277.5,-364.5 277.5,-364.5 202.5,-364.5 202.5,-364.5 196.5,-364.5 190.5,-358.5 190.5,-352.5 190.5,-352.5 190.5,-340.5 190.5,-340.5 190.5,-334.5 196.5,-328.5 202.5,-328.5"/>
<text text-anchor="start" x="198.5" y="-344.6" font-family="FreeSans" font-size="8.00" fill="#1c2021">Node[97]name = &#39;Root&#39;</text>
</g>
<!-- N97&#45;&gt;N95 -->
<g id="edge5" class="edge"><title>N97&#45;&gt;N95</title>
<path fill="none" stroke="#2e3436" stroke-width="2" d="M220.905,-328.141C207.901,-316.319 190.57,-300.564 176.542,-287.811"/>
<polygon fill="#2e3436" stroke="#2e3436" stroke-width="2" points="170.755,-282.55 178.575,-285.098 173.866,-284.703 176.641,-287.225 176.305,-287.595 175.968,-287.965 173.194,-285.443 174.034,-290.092 170.755,-282.55 170.755,-282.55"/>
<text text-anchor="middle" x="211" y="-303.6" font-family="FreeSans" font-size="8.00" fill="#2e3436">knows</text>
</g>
<!-- N100 -->
<g id="node7" class="node"><title>N100</title>
<path fill="#ffffff" stroke="#2e3436" stroke-width="1.5" d="M245,-246.5C245,-246.5 333,-246.5 333,-246.5 339,-246.5 345,-252.5 345,-258.5 345,-258.5 345,-270.5 345,-270.5 345,-276.5 339,-282.5 333,-282.5 333,-282.5 245,-282.5 245,-282.5 239,-282.5 233,-276.5 233,-270.5 233,-270.5 233,-258.5 233,-258.5 233,-252.5 239,-246.5 245,-246.5"/>
<text text-anchor="start" x="241" y="-262.6" font-family="FreeSans" font-size="8.00" fill="#1c2021">Node[100]name = &#39;Mattias&#39;</text>
</g>
<!-- N97&#45;&gt;N100 -->
<g id="edge4" class="edge"><title>N97&#45;&gt;N100</title>
<path fill="none" stroke="#2e3436" stroke-width="2" d="M250.632,-328.141C257.614,-316.742 266.837,-301.684 274.491,-289.189"/>
<polygon fill="#2e3436" stroke="#2e3436" stroke-width="2" points="278.557,-282.55 277.517,-290.709 277.024,-286.009 275.066,-289.207 274.639,-288.946 274.213,-288.685 276.172,-285.487 271.761,-287.183 278.557,-282.55 278.557,-282.55"/>
<text text-anchor="middle" x="278" y="-303.6" font-family="FreeSans" font-size="8.00" fill="#2e3436">knows</text>
</g>
</g>
</svg>
