<?xml version="1.0" encoding="UTF-8" standalone="no"?>
<!DOCTYPE svg PUBLIC "-//W3C//DTD SVG 1.1//EN"
 "http://www.w3.org/Graphics/SVG/1.1/DTD/svg11.dtd">
<!-- Generated by graphviz version 2.38.0 (20140413.2041)
 -->
<!-- Title: g Pages: 1 -->
<svg width="103pt" height="127pt"
 viewBox="0.00 0.00 103.00 127.00" xmlns="http://www.w3.org/2000/svg" xmlns:xlink="http://www.w3.org/1999/xlink">
<g id="graph0" class="graph" transform="scale(1 1) rotate(0) translate(4 123)">
<title>g</title>
<polygon fill="white" stroke="none" points="-4,4 -4,-123 99,-123 99,4 -4,4"/>
<!-- N52 -->
<g id="node1" class="node"><title>N52</title>
<path fill="#ffffff" stroke="#2e3436" stroke-width="1.5" d="M12,-0.5C12,-0.5 83,-0.5 83,-0.5 89,-0.5 95,-6.5 95,-12.5 95,-12.5 95,-24.5 95,-24.5 95,-30.5 89,-36.5 83,-36.5 83,-36.5 12,-36.5 12,-36.5 6,-36.5 0,-30.5 0,-24.5 0,-24.5 0,-12.5 0,-12.5 0,-6.5 6,-0.5 12,-0.5"/>
<text text-anchor="start" x="8" y="-16.6" font-family="FreeSans" font-size="8.00" fill="#1c2021">Node[52]name = &#39;you&#39;</text>
</g>
<!-- N53 -->
<g id="node2" class="node"><title>N53</title>
<path fill="#ffffff" stroke="#2e3436" stroke-width="1.5" d="M17.5,-82.5C17.5,-82.5 77.5,-82.5 77.5,-82.5 83.5,-82.5 89.5,-88.5 89.5,-94.5 89.5,-94.5 89.5,-106.5 89.5,-106.5 89.5,-112.5 83.5,-118.5 77.5,-118.5 77.5,-118.5 17.5,-118.5 17.5,-118.5 11.5,-118.5 5.5,-112.5 5.5,-106.5 5.5,-106.5 5.5,-94.5 5.5,-94.5 5.5,-88.5 11.5,-82.5 17.5,-82.5"/>
<text text-anchor="start" x="13.5" y="-98.6" font-family="FreeSans" font-size="8.00" fill="#1c2021">Node[53]name = &#39;I&#39;</text>
</g>
<!-- N53&#45;&gt;N52 -->
<g id="edge1" class="edge"><title>N53&#45;&gt;N52</title>
<path fill="none" stroke="#2e3436" stroke-width="2" d="M47.5,-82.1412C47.5,-71.0583 47.5,-56.5177 47.5,-44.2358"/>
<polygon fill="#2e3436" stroke="#2e3436" stroke-width="2" points="47.5,-36.5501 50.8751,-44.0501 48,-40.3001 48.0001,-44.0501 47.5001,-44.0501 47.0001,-44.0501 47,-40.3001 44.1251,-44.0501 47.5,-36.5501 47.5,-36.5501"/>
<text text-anchor="middle" x="57.5" y="-57.6" font-family="FreeSans" font-size="8.00" fill="#2e3436">know</text>
</g>
</g>
</svg>
