<?xml version="1.0" encoding="UTF-8" standalone="no"?>
<!DOCTYPE svg PUBLIC "-//W3C//DTD SVG 1.1//EN"
 "http://www.w3.org/Graphics/SVG/1.1/DTD/svg11.dtd">
<!-- Generated by graphviz version 2.38.0 (20140413.2041)
 -->
<!-- Title: g Pages: 1 -->
<svg width="348pt" height="127pt"
 viewBox="0.00 0.00 347.50 127.00" xmlns="http://www.w3.org/2000/svg" xmlns:xlink="http://www.w3.org/1999/xlink">
<g id="graph0" class="graph" transform="scale(1 1) rotate(0) translate(4 123)">
<title>g</title>
<polygon fill="white" stroke="none" points="-4,4 -4,-123 343.5,-123 343.5,4 -4,4"/>
<!-- N10420 -->
<g id="node1" class="node"><title>N10420</title>
<path fill="#ffffff" stroke="#2e3436" stroke-width="1.5" d="M12,-0.5C12,-0.5 101,-0.5 101,-0.5 107,-0.5 113,-6.5 113,-12.5 113,-12.5 113,-24.5 113,-24.5 113,-30.5 107,-36.5 101,-36.5 101,-36.5 12,-36.5 12,-36.5 6,-36.5 0,-30.5 0,-24.5 0,-24.5 0,-12.5 0,-12.5 0,-6.5 6,-0.5 12,-0.5"/>
<text text-anchor="start" x="8" y="-16.6" font-family="FreeSans" font-size="8.00" fill="#1c2021">Node[10420]name = &#39;John&#39;</text>
</g>
<!-- N10421 -->
<g id="node2" class="node"><title>N10421</title>
<path fill="#ffffff" stroke="#2e3436" stroke-width="1.5" d="M23.5,-82.5C23.5,-82.5 89.5,-82.5 89.5,-82.5 95.5,-82.5 101.5,-88.5 101.5,-94.5 101.5,-94.5 101.5,-106.5 101.5,-106.5 101.5,-112.5 95.5,-118.5 89.5,-118.5 89.5,-118.5 23.5,-118.5 23.5,-118.5 17.5,-118.5 11.5,-112.5 11.5,-106.5 11.5,-106.5 11.5,-94.5 11.5,-94.5 11.5,-88.5 17.5,-82.5 23.5,-82.5"/>
<text text-anchor="start" x="19.5" y="-98.6" font-family="FreeSans" font-size="8.00" fill="#1c2021">Node[10421]age = 1</text>
</g>
<!-- N10421&#45;&gt;N10420 -->
<g id="edge1" class="edge"><title>N10421&#45;&gt;N10420</title>
<path fill="none" stroke="#2e3436" stroke-width="2" d="M56.5,-82.1412C56.5,-71.0583 56.5,-56.5177 56.5,-44.2358"/>
<polygon fill="#2e3436" stroke="#2e3436" stroke-width="2" points="56.5,-36.5501 59.8751,-44.0501 57,-40.3001 57.0001,-44.0501 56.5001,-44.0501 56.0001,-44.0501 56,-40.3001 53.1251,-44.0501 56.5,-36.5501 56.5,-36.5501"/>
<text text-anchor="middle" x="68.5" y="-57.6" font-family="FreeSans" font-size="8.00" fill="#2e3436">knows</text>
</g>
<!-- N10422 -->
<g id="node3" class="node"><title>N10422</title>
<path fill="#ffffff" stroke="#2e3436" stroke-width="1.5" d="M142.5,-82.5C142.5,-82.5 208.5,-82.5 208.5,-82.5 214.5,-82.5 220.5,-88.5 220.5,-94.5 220.5,-94.5 220.5,-106.5 220.5,-106.5 220.5,-112.5 214.5,-118.5 208.5,-118.5 208.5,-118.5 142.5,-118.5 142.5,-118.5 136.5,-118.5 130.5,-112.5 130.5,-106.5 130.5,-106.5 130.5,-94.5 130.5,-94.5 130.5,-88.5 136.5,-82.5 142.5,-82.5"/>
<text text-anchor="start" x="138.5" y="-98.6" font-family="FreeSans" font-size="8.00" fill="#1c2021">Node[10422]age = 1</text>
</g>
<!-- N10423 -->
<g id="node4" class="node"><title>N10423</title>
<path fill="#ffffff" stroke="#2e3436" stroke-width="1.5" d="M261.5,-82.5C261.5,-82.5 327.5,-82.5 327.5,-82.5 333.5,-82.5 339.5,-88.5 339.5,-94.5 339.5,-94.5 339.5,-106.5 339.5,-106.5 339.5,-112.5 333.5,-118.5 327.5,-118.5 327.5,-118.5 261.5,-118.5 261.5,-118.5 255.5,-118.5 249.5,-112.5 249.5,-106.5 249.5,-106.5 249.5,-94.5 249.5,-94.5 249.5,-88.5 255.5,-82.5 261.5,-82.5"/>
<text text-anchor="start" x="257.5" y="-98.6" font-family="FreeSans" font-size="8.00" fill="#1c2021">Node[10423]age = 1</text>
</g>
</g>
</svg>
