<?xml version="1.0" encoding="UTF-8" standalone="no"?>
<!DOCTYPE svg PUBLIC "-//W3C//DTD SVG 1.1//EN"
 "http://www.w3.org/Graphics/SVG/1.1/DTD/svg11.dtd">
<!-- Generated by graphviz version 2.38.0 (20140413.2041)
 -->
<!-- Title: g Pages: 1 -->
<svg width="293pt" height="337pt"
 viewBox="0.00 0.00 293.00 337.00" xmlns="http://www.w3.org/2000/svg" xmlns:xlink="http://www.w3.org/1999/xlink">
<g id="graph0" class="graph" transform="scale(1 1) rotate(0) translate(4 333)">
<title>g</title>
<polygon fill="white" stroke="none" points="-4,4 -4,-333 289,-333 289,4 -4,4"/>
<!-- N27 -->
<g id="node1" class="node"><title>N27</title>
<path fill="#ffffff" stroke="#2e3436" stroke-width="1.5" d="M12,-146.5C12,-146.5 72,-146.5 72,-146.5 78,-146.5 84,-152.5 84,-158.5 84,-158.5 84,-170.5 84,-170.5 84,-176.5 78,-182.5 72,-182.5 72,-182.5 12,-182.5 12,-182.5 6,-182.5 0,-176.5 0,-170.5 0,-170.5 0,-158.5 0,-158.5 0,-152.5 6,-146.5 12,-146.5"/>
<text text-anchor="start" x="8" y="-162.6" font-family="FreeSans" font-size="8.00" fill="#1c2021">Node[27]name = &#39;f&#39;</text>
</g>
<!-- N29 -->
<g id="node2" class="node"><title>N29</title>
<path fill="#ffffff" stroke="#2e3436" stroke-width="1.5" d="M103,-0.5C103,-0.5 165,-0.5 165,-0.5 171,-0.5 177,-6.5 177,-12.5 177,-12.5 177,-24.5 177,-24.5 177,-30.5 171,-36.5 165,-36.5 165,-36.5 103,-36.5 103,-36.5 97,-36.5 91,-30.5 91,-24.5 91,-24.5 91,-12.5 91,-12.5 91,-6.5 97,-0.5 103,-0.5"/>
<text text-anchor="start" x="99" y="-16.6" font-family="FreeSans" font-size="8.00" fill="#1c2021">Node[29]name = &#39;e&#39;</text>
</g>
<!-- N27&#45;&gt;N29 -->
<g id="edge1" class="edge"><title>N27&#45;&gt;N29</title>
<path fill="none" stroke="#2e3436" stroke-width="2" d="M52.9149,-146.416C69.307,-120.759 100.333,-72.1954 118.891,-43.1495"/>
<polygon fill="#2e3436" stroke="#2e3436" stroke-width="2" points="123.099,-36.5619 121.905,-44.6993 121.502,-39.9913 119.483,-43.1514 119.061,-42.8822 118.64,-42.613 120.659,-39.4529 116.217,-41.0651 123.099,-36.5619 123.099,-36.5619"/>
<text text-anchor="middle" x="106" y="-112.1" font-family="FreeSans" font-size="8.00" fill="#2e3436">to</text>
<text text-anchor="start" x="88" y="-103.1" font-family="FreeSans" font-size="8.00" fill="#2e3436">cost = 1.2</text>
</g>
<!-- N28 -->
<g id="node3" class="node"><title>N28</title>
<path fill="#ffffff" stroke="#2e3436" stroke-width="1.5" d="M211,-91.5C211,-91.5 273,-91.5 273,-91.5 279,-91.5 285,-97.5 285,-103.5 285,-103.5 285,-115.5 285,-115.5 285,-121.5 279,-127.5 273,-127.5 273,-127.5 211,-127.5 211,-127.5 205,-127.5 199,-121.5 199,-115.5 199,-115.5 199,-103.5 199,-103.5 199,-97.5 205,-91.5 211,-91.5"/>
<text text-anchor="start" x="207" y="-107.6" font-family="FreeSans" font-size="8.00" fill="#1c2021">Node[28]name = &#39;d&#39;</text>
</g>
<!-- N28&#45;&gt;N29 -->
<g id="edge2" class="edge"><title>N28&#45;&gt;N29</title>
<path fill="none" stroke="#2e3436" stroke-width="2" d="M221.177,-91.3399C203.994,-77.1806 179.496,-56.992 160.842,-41.6202"/>
<polygon fill="#2e3436" stroke="#2e3436" stroke-width="2" points="154.76,-36.6074 162.694,-38.7726 157.972,-38.6064 160.865,-40.9913 160.548,-41.3771 160.23,-41.763 157.336,-39.3781 158.401,-43.9817 154.76,-36.6074 154.76,-36.6074"/>
<text text-anchor="middle" x="215" y="-66.6" font-family="FreeSans" font-size="8.00" fill="#2e3436">to</text>
<text text-anchor="start" x="197" y="-57.6" font-family="FreeSans" font-size="8.00" fill="#2e3436">cost = 0.5</text>
</g>
<!-- N30 -->
<g id="node4" class="node"><title>N30</title>
<path fill="#ffffff" stroke="#2e3436" stroke-width="1.5" d="M103,-146.5C103,-146.5 165,-146.5 165,-146.5 171,-146.5 177,-152.5 177,-158.5 177,-158.5 177,-170.5 177,-170.5 177,-176.5 171,-182.5 165,-182.5 165,-182.5 103,-182.5 103,-182.5 97,-182.5 91,-176.5 91,-170.5 91,-170.5 91,-158.5 91,-158.5 91,-152.5 97,-146.5 103,-146.5"/>
<text text-anchor="start" x="99" y="-162.6" font-family="FreeSans" font-size="8.00" fill="#1c2021">Node[30]name = &#39;b&#39;</text>
</g>
<!-- N30&#45;&gt;N29 -->
<g id="edge3" class="edge"><title>N30&#45;&gt;N29</title>
<path fill="none" stroke="#2e3436" stroke-width="2" d="M134,-146.416C134,-121.083 134,-73.4212 134,-44.2618"/>
<polygon fill="#2e3436" stroke="#2e3436" stroke-width="2" points="134,-36.5619 137.375,-44.0619 134.5,-40.3119 134.5,-44.0619 134,-44.0619 133.5,-44.0619 133.5,-40.3119 130.625,-44.062 134,-36.5619 134,-36.5619"/>
<text text-anchor="middle" x="152" y="-112.1" font-family="FreeSans" font-size="8.00" fill="#2e3436">to</text>
<text text-anchor="start" x="134" y="-103.1" font-family="FreeSans" font-size="8.00" fill="#2e3436">cost = 0.5</text>
</g>
<!-- N31 -->
<g id="node5" class="node"><title>N31</title>
<path fill="#ffffff" stroke="#2e3436" stroke-width="1.5" d="M195,-201.5C195,-201.5 257,-201.5 257,-201.5 263,-201.5 269,-207.5 269,-213.5 269,-213.5 269,-225.5 269,-225.5 269,-231.5 263,-237.5 257,-237.5 257,-237.5 195,-237.5 195,-237.5 189,-237.5 183,-231.5 183,-225.5 183,-225.5 183,-213.5 183,-213.5 183,-207.5 189,-201.5 195,-201.5"/>
<text text-anchor="start" x="191" y="-217.6" font-family="FreeSans" font-size="8.00" fill="#1c2021">Node[31]name = &#39;c&#39;</text>
</g>
<!-- N31&#45;&gt;N28 -->
<g id="edge4" class="edge"><title>N31&#45;&gt;N28</title>
<path fill="none" stroke="#2e3436" stroke-width="2" d="M228.571,-201.148C231.207,-183.356 235.331,-155.513 238.314,-135.378"/>
<polygon fill="#2e3436" stroke="#2e3436" stroke-width="2" points="239.436,-127.809 241.675,-135.723 239.381,-131.592 238.831,-135.301 238.337,-135.228 237.842,-135.155 238.392,-131.445 234.998,-134.733 239.436,-127.809 239.436,-127.809"/>
<text text-anchor="middle" x="254" y="-167.1" font-family="FreeSans" font-size="8.00" fill="#2e3436">to</text>
<text text-anchor="start" x="236" y="-158.1" font-family="FreeSans" font-size="8.00" fill="#2e3436">cost = 0.5</text>
</g>
<!-- N32 -->
<g id="node6" class="node"><title>N32</title>
<path fill="#ffffff" stroke="#2e3436" stroke-width="1.5" d="M103,-292.5C103,-292.5 165,-292.5 165,-292.5 171,-292.5 177,-298.5 177,-304.5 177,-304.5 177,-316.5 177,-316.5 177,-322.5 171,-328.5 165,-328.5 165,-328.5 103,-328.5 103,-328.5 97,-328.5 91,-322.5 91,-316.5 91,-316.5 91,-304.5 91,-304.5 91,-298.5 97,-292.5 103,-292.5"/>
<text text-anchor="start" x="99" y="-308.6" font-family="FreeSans" font-size="8.00" fill="#1c2021">Node[32]name = &#39;a&#39;</text>
</g>
<!-- N32&#45;&gt;N27 -->
<g id="edge6" class="edge"><title>N32&#45;&gt;N27</title>
<path fill="none" stroke="#2e3436" stroke-width="2" d="M109.432,-292.446C102.869,-287.08 96.172,-280.769 91,-274 71.2709,-248.178 57.2929,-213.148 49.4435,-189.96"/>
<polygon fill="#2e3436" stroke="#2e3436" stroke-width="2" points="47.0171,-182.581 52.566,-188.651 48.6635,-185.987 49.8349,-189.549 49.3599,-189.706 48.8849,-189.862 47.7135,-186.299 46.1538,-190.76 47.0171,-182.581 47.0171,-182.581"/>
<text text-anchor="middle" x="109" y="-267.6" font-family="FreeSans" font-size="8.00" fill="#2e3436">to</text>
<text text-anchor="start" x="91" y="-258.6" font-family="FreeSans" font-size="8.00" fill="#2e3436">cost = 0.5</text>
</g>
<!-- N32&#45;&gt;N30 -->
<g id="edge5" class="edge"><title>N32&#45;&gt;N30</title>
<path fill="none" stroke="#2e3436" stroke-width="2" d="M134,-292.416C134,-267.083 134,-219.421 134,-190.262"/>
<polygon fill="#2e3436" stroke="#2e3436" stroke-width="2" points="134,-182.562 137.375,-190.062 134.5,-186.312 134.5,-190.062 134,-190.062 133.5,-190.062 133.5,-186.312 130.625,-190.062 134,-182.562 134,-182.562"/>
<text text-anchor="middle" x="152" y="-267.6" font-family="FreeSans" font-size="8.00" fill="#2e3436">to</text>
<text text-anchor="start" x="134" y="-258.6" font-family="FreeSans" font-size="8.00" fill="#2e3436">cost = 1.5</text>
</g>
<!-- N32&#45;&gt;N31 -->
<g id="edge7" class="edge"><title>N32&#45;&gt;N31</title>
<path fill="none" stroke="#2e3436" stroke-width="2" d="M155.939,-292.373C162.852,-286.718 170.402,-280.267 177,-274 186.982,-264.518 197.374,-253.379 206.005,-243.727"/>
<polygon fill="#2e3436" stroke="#2e3436" stroke-width="2" points="211.132,-237.937 208.687,-245.789 209.021,-241.076 206.534,-243.883 206.16,-243.552 205.786,-243.22 208.272,-240.413 203.633,-241.314 211.132,-237.937 211.132,-237.937"/>
<text text-anchor="middle" x="211" y="-267.6" font-family="FreeSans" font-size="8.00" fill="#2e3436">to</text>
<text text-anchor="start" x="193" y="-258.6" font-family="FreeSans" font-size="8.00" fill="#2e3436">cost = 0.5</text>
</g>
</g>
</svg>
