<?xml version="1.0" encoding="UTF-8" standalone="no"?>
<!DOCTYPE svg PUBLIC "-//W3C//DTD SVG 1.1//EN"
 "http://www.w3.org/Graphics/SVG/1.1/DTD/svg11.dtd">
<!-- Generated by graphviz version 2.38.0 (20140413.2041)
 -->
<!-- Title: g Pages: 1 -->
<svg width="116pt" height="127pt"
 viewBox="0.00 0.00 116.00 127.00" xmlns="http://www.w3.org/2000/svg" xmlns:xlink="http://www.w3.org/1999/xlink">
<g id="graph0" class="graph" transform="scale(1 1) rotate(0) translate(4 123)">
<title>g</title>
<polygon fill="white" stroke="none" points="-4,4 -4,-123 112,-123 112,4 -4,4"/>
<!-- N44 -->
<g id="node1" class="node"><title>N44</title>
<path fill="#ffffff" stroke="#2e3436" stroke-width="1.5" d="M15.5,-0.5C15.5,-0.5 92.5,-0.5 92.5,-0.5 98.5,-0.5 104.5,-6.5 104.5,-12.5 104.5,-12.5 104.5,-24.5 104.5,-24.5 104.5,-30.5 98.5,-36.5 92.5,-36.5 92.5,-36.5 15.5,-36.5 15.5,-36.5 9.5,-36.5 3.5,-30.5 3.5,-24.5 3.5,-24.5 3.5,-12.5 3.5,-12.5 3.5,-6.5 9.5,-0.5 15.5,-0.5"/>
<text text-anchor="start" x="11.5" y="-16.6" font-family="FreeSans" font-size="8.00" fill="#1c2021">Node[44]name = &#39;Juliet&#39;</text>
</g>
<!-- N45 -->
<g id="node2" class="node"><title>N45</title>
<path fill="#ffffff" stroke="#2e3436" stroke-width="1.5" d="M12,-82.5C12,-82.5 96,-82.5 96,-82.5 102,-82.5 108,-88.5 108,-94.5 108,-94.5 108,-106.5 108,-106.5 108,-112.5 102,-118.5 96,-118.5 96,-118.5 12,-118.5 12,-118.5 6,-118.5 0,-112.5 0,-106.5 0,-106.5 0,-94.5 0,-94.5 0,-88.5 6,-82.5 12,-82.5"/>
<text text-anchor="start" x="8" y="-98.6" font-family="FreeSans" font-size="8.00" fill="#1c2021">Node[45]name = &#39;Romeo&#39;</text>
</g>
<!-- N45&#45;&gt;N44 -->
<g id="edge1" class="edge"><title>N45&#45;&gt;N44</title>
<path fill="none" stroke="#2e3436" stroke-width="2" d="M54,-82.1412C54,-71.0583 54,-56.5177 54,-44.2358"/>
<polygon fill="#2e3436" stroke="#2e3436" stroke-width="2" points="54,-36.5501 57.3751,-44.0501 54.5,-40.3001 54.5001,-44.0501 54.0001,-44.0501 53.5001,-44.0501 53.5,-40.3001 50.6251,-44.0501 54,-36.5501 54,-36.5501"/>
<text text-anchor="middle" x="68" y="-57.6" font-family="FreeSans" font-size="8.00" fill="#2e3436">LOVES</text>
</g>
</g>
</svg>
