<?xml version="1.0" encoding="UTF-8" standalone="no"?>
<!DOCTYPE svg PUBLIC "-//W3C//DTD SVG 1.1//EN"
 "http://www.w3.org/Graphics/SVG/1.1/DTD/svg11.dtd">
<!-- Generated by graphviz version 2.38.0 (20140413.2041)
 -->
<!-- Title: g Pages: 1 -->
<svg width="359pt" height="373pt"
 viewBox="0.00 0.00 359.00 373.00" xmlns="http://www.w3.org/2000/svg" xmlns:xlink="http://www.w3.org/1999/xlink">
<g id="graph0" class="graph" transform="scale(1 1) rotate(0) translate(4 369)">
<title>g</title>
<polygon fill="white" stroke="none" points="-4,4 -4,-369 355,-369 355,4 -4,4"/>
<!-- N20 -->
<g id="node1" class="node"><title>N20</title>
<path fill="#ffffff" stroke="#2e3436" stroke-width="1.5" d="M252,-82.5C252,-82.5 312,-82.5 312,-82.5 318,-82.5 324,-88.5 324,-94.5 324,-94.5 324,-106.5 324,-106.5 324,-112.5 318,-118.5 312,-118.5 312,-118.5 252,-118.5 252,-118.5 246,-118.5 240,-112.5 240,-106.5 240,-106.5 240,-94.5 240,-94.5 240,-88.5 246,-82.5 252,-82.5"/>
<text text-anchor="start" x="248" y="-98.6" font-family="FreeSans" font-size="8.00" fill="#1c2021">Node[20]name = &#39;f&#39;</text>
</g>
<!-- N21 -->
<g id="node2" class="node"><title>N21</title>
<path fill="#ffffff" stroke="#2e3436" stroke-width="1.5" d="M138,-0.5C138,-0.5 200,-0.5 200,-0.5 206,-0.5 212,-6.5 212,-12.5 212,-12.5 212,-24.5 212,-24.5 212,-30.5 206,-36.5 200,-36.5 200,-36.5 138,-36.5 138,-36.5 132,-36.5 126,-30.5 126,-24.5 126,-24.5 126,-12.5 126,-12.5 126,-6.5 132,-0.5 138,-0.5"/>
<text text-anchor="start" x="134" y="-16.6" font-family="FreeSans" font-size="8.00" fill="#1c2021">Node[21]name = &#39;g&#39;</text>
</g>
<!-- N20&#45;&gt;N21 -->
<g id="edge1" class="edge"><title>N20&#45;&gt;N21</title>
<path fill="none" stroke="#2e3436" stroke-width="2" d="M257.759,-82.338C240.778,-70.3164 217.951,-54.1559 199.699,-41.2341"/>
<polygon fill="#2e3436" stroke="#2e3436" stroke-width="2" points="193.201,-36.6336 201.273,-38.2127 196.551,-38.3924 199.611,-40.5592 199.323,-40.9673 199.034,-41.3754 195.973,-39.2085 197.372,-43.7219 193.201,-36.6336 193.201,-36.6336"/>
<text text-anchor="middle" x="231.5" y="-57.6" font-family="FreeSans" font-size="8.00" fill="#2e3436">to</text>
</g>
<!-- N22 -->
<g id="node3" class="node"><title>N22</title>
<path fill="#ffffff" stroke="#2e3436" stroke-width="1.5" d="M77,-164.5C77,-164.5 139,-164.5 139,-164.5 145,-164.5 151,-170.5 151,-176.5 151,-176.5 151,-188.5 151,-188.5 151,-194.5 145,-200.5 139,-200.5 139,-200.5 77,-200.5 77,-200.5 71,-200.5 65,-194.5 65,-188.5 65,-188.5 65,-176.5 65,-176.5 65,-170.5 71,-164.5 77,-164.5"/>
<text text-anchor="start" x="73" y="-180.6" font-family="FreeSans" font-size="8.00" fill="#1c2021">Node[22]name = &#39;d&#39;</text>
</g>
<!-- N22&#45;&gt;N21 -->
<g id="edge3" class="edge"><title>N22&#45;&gt;N21</title>
<path fill="none" stroke="#2e3436" stroke-width="2" d="M114.413,-164.469C125.276,-135.619 147.333,-77.0431 159.828,-43.8595"/>
<polygon fill="#2e3436" stroke="#2e3436" stroke-width="2" points="162.49,-36.79 163.005,-44.9983 161.636,-40.4757 160.314,-43.9852 159.847,-43.809 159.379,-43.6328 160.7,-40.1233 156.688,-42.6196 162.49,-36.79 162.49,-36.79"/>
<text text-anchor="middle" x="148.5" y="-98.6" font-family="FreeSans" font-size="8.00" fill="#2e3436">to</text>
</g>
<!-- N23 -->
<g id="node4" class="node"><title>N23</title>
<path fill="#ffffff" stroke="#2e3436" stroke-width="1.5" d="M12,-82.5C12,-82.5 74,-82.5 74,-82.5 80,-82.5 86,-88.5 86,-94.5 86,-94.5 86,-106.5 86,-106.5 86,-112.5 80,-118.5 74,-118.5 74,-118.5 12,-118.5 12,-118.5 6,-118.5 0,-112.5 0,-106.5 0,-106.5 0,-94.5 0,-94.5 0,-88.5 6,-82.5 12,-82.5"/>
<text text-anchor="start" x="8" y="-98.6" font-family="FreeSans" font-size="8.00" fill="#1c2021">Node[23]name = &#39;e&#39;</text>
</g>
<!-- N22&#45;&gt;N23 -->
<g id="edge2" class="edge"><title>N22&#45;&gt;N23</title>
<path fill="none" stroke="#2e3436" stroke-width="2" d="M93.896,-164.141C84.4623,-152.531 71.9453,-137.125 61.6853,-124.497"/>
<polygon fill="#2e3436" stroke="#2e3436" stroke-width="2" points="56.8532,-118.55 64.2021,-122.243 59.606,-121.145 61.9707,-124.056 61.5827,-124.371 61.1946,-124.686 58.8299,-121.776 58.9633,-126.499 56.8532,-118.55 56.8532,-118.55"/>
<text text-anchor="middle" x="81.5" y="-139.6" font-family="FreeSans" font-size="8.00" fill="#2e3436">to</text>
</g>
<!-- N23&#45;&gt;N21 -->
<g id="edge4" class="edge"><title>N23&#45;&gt;N21</title>
<path fill="none" stroke="#2e3436" stroke-width="2" d="M70.0302,-82.338C89.2133,-70.1582 115.088,-53.7299 135.569,-40.7257"/>
<polygon fill="#2e3436" stroke="#2e3436" stroke-width="2" points="142.015,-36.6336 137.492,-43.503 139.117,-39.0658 135.951,-41.0758 135.683,-40.6537 135.415,-40.2316 138.581,-38.2216 133.874,-37.8045 142.015,-36.6336 142.015,-36.6336"/>
<text text-anchor="middle" x="113.5" y="-57.6" font-family="FreeSans" font-size="8.00" fill="#2e3436">to</text>
</g>
<!-- N24 -->
<g id="node5" class="node"><title>N24</title>
<path fill="#ffffff" stroke="#2e3436" stroke-width="1.5" d="M251,-164.5C251,-164.5 313,-164.5 313,-164.5 319,-164.5 325,-170.5 325,-176.5 325,-176.5 325,-188.5 325,-188.5 325,-194.5 319,-200.5 313,-200.5 313,-200.5 251,-200.5 251,-200.5 245,-200.5 239,-194.5 239,-188.5 239,-188.5 239,-176.5 239,-176.5 239,-170.5 245,-164.5 251,-164.5"/>
<text text-anchor="start" x="247" y="-180.6" font-family="FreeSans" font-size="8.00" fill="#1c2021">Node[24]name = &#39;b&#39;</text>
</g>
<!-- N24&#45;&gt;N20 -->
<g id="edge5" class="edge"><title>N24&#45;&gt;N20</title>
<path fill="none" stroke="#2e3436" stroke-width="2" d="M282,-164.141C282,-153.058 282,-138.518 282,-126.236"/>
<polygon fill="#2e3436" stroke="#2e3436" stroke-width="2" points="282,-118.55 285.375,-126.05 282.5,-122.3 282.5,-126.05 282,-126.05 281.5,-126.05 281.5,-122.3 278.625,-126.05 282,-118.55 282,-118.55"/>
<text text-anchor="middle" x="285.5" y="-139.6" font-family="FreeSans" font-size="8.00" fill="#2e3436">to</text>
</g>
<!-- N25 -->
<g id="node6" class="node"><title>N25</title>
<path fill="#ffffff" stroke="#2e3436" stroke-width="1.5" d="M209,-246.5C209,-246.5 271,-246.5 271,-246.5 277,-246.5 283,-252.5 283,-258.5 283,-258.5 283,-270.5 283,-270.5 283,-276.5 277,-282.5 271,-282.5 271,-282.5 209,-282.5 209,-282.5 203,-282.5 197,-276.5 197,-270.5 197,-270.5 197,-258.5 197,-258.5 197,-252.5 203,-246.5 209,-246.5"/>
<text text-anchor="start" x="205" y="-262.6" font-family="FreeSans" font-size="8.00" fill="#1c2021">Node[25]name = &#39;c&#39;</text>
</g>
<!-- N25&#45;&gt;N20 -->
<g id="edge8" class="edge"><title>N25&#45;&gt;N20</title>
<path fill="none" stroke="#2e3436" stroke-width="2" d="M283.043,-248.254C304.231,-238.314 327.793,-223.025 340,-201 354.859,-174.19 331.123,-143.809 309.688,-123.748"/>
<polygon fill="#2e3436" stroke="#2e3436" stroke-width="2" points="304.026,-118.627 311.852,-121.154 307.142,-120.771 309.924,-123.286 309.588,-123.657 309.253,-124.028 306.471,-121.513 307.324,-126.16 304.026,-118.627 304.026,-118.627"/>
<text text-anchor="middle" x="347.5" y="-180.6" font-family="FreeSans" font-size="8.00" fill="#2e3436">to</text>
</g>
<!-- N25&#45;&gt;N21 -->
<g id="edge7" class="edge"><title>N25&#45;&gt;N21</title>
<path fill="none" stroke="#2e3436" stroke-width="2" d="M235.007,-246.342C222.633,-203.817 190.511,-93.4237 176.136,-44.0236"/>
<polygon fill="#2e3436" stroke="#2e3436" stroke-width="2" points="173.987,-36.6386 179.323,-42.897 175.515,-40.0996 176.563,-43.7003 176.083,-43.84 175.603,-43.9797 174.555,-40.379 172.842,-44.783 173.987,-36.6386 173.987,-36.6386"/>
<text text-anchor="middle" x="208.5" y="-139.6" font-family="FreeSans" font-size="8.00" fill="#2e3436">to</text>
</g>
<!-- N25&#45;&gt;N24 -->
<g id="edge6" class="edge"><title>N25&#45;&gt;N24</title>
<path fill="none" stroke="#2e3436" stroke-width="2" d="M249.113,-246.141C255.043,-234.847 262.857,-219.962 269.381,-207.536"/>
<polygon fill="#2e3436" stroke="#2e3436" stroke-width="2" points="273.049,-200.55 272.551,-208.759 271.748,-204.103 270.005,-207.423 269.562,-207.191 269.12,-206.958 270.863,-203.638 266.574,-205.622 273.049,-200.55 273.049,-200.55"/>
<text text-anchor="middle" x="265.5" y="-221.6" font-family="FreeSans" font-size="8.00" fill="#2e3436">to</text>
</g>
<!-- N26 -->
<g id="node7" class="node"><title>N26</title>
<path fill="#ffffff" stroke="#2e3436" stroke-width="1.5" d="M144,-328.5C144,-328.5 206,-328.5 206,-328.5 212,-328.5 218,-334.5 218,-340.5 218,-340.5 218,-352.5 218,-352.5 218,-358.5 212,-364.5 206,-364.5 206,-364.5 144,-364.5 144,-364.5 138,-364.5 132,-358.5 132,-352.5 132,-352.5 132,-340.5 132,-340.5 132,-334.5 138,-328.5 144,-328.5"/>
<text text-anchor="start" x="140" y="-344.6" font-family="FreeSans" font-size="8.00" fill="#1c2021">Node[26]name = &#39;a&#39;</text>
</g>
<!-- N26&#45;&gt;N22 -->
<g id="edge9" class="edge"><title>N26&#45;&gt;N22</title>
<path fill="none" stroke="#2e3436" stroke-width="2" d="M167.956,-328.469C156.025,-299.619 131.799,-241.043 118.075,-207.86"/>
<polygon fill="#2e3436" stroke="#2e3436" stroke-width="2" points="115.151,-200.79 121.136,-206.431 117.046,-204.064 118.479,-207.53 118.017,-207.721 117.555,-207.912 116.122,-204.446 114.898,-209.011 115.151,-200.79 115.151,-200.79"/>
<text text-anchor="middle" x="152.5" y="-262.6" font-family="FreeSans" font-size="8.00" fill="#2e3436">to</text>
</g>
<!-- N26&#45;&gt;N25 -->
<g id="edge10" class="edge"><title>N26&#45;&gt;N25</title>
<path fill="none" stroke="#2e3436" stroke-width="2" d="M189.104,-328.141C198.538,-316.531 211.055,-301.125 221.315,-288.497"/>
<polygon fill="#2e3436" stroke="#2e3436" stroke-width="2" points="226.147,-282.55 224.037,-290.499 224.17,-285.776 221.805,-288.686 221.417,-288.371 221.029,-288.056 223.394,-285.145 218.798,-286.243 226.147,-282.55 226.147,-282.55"/>
<text text-anchor="middle" x="212.5" y="-303.6" font-family="FreeSans" font-size="8.00" fill="#2e3436">to</text>
</g>
</g>
</svg>
