<?xml version="1.0" encoding="UTF-8" standalone="no"?>
<!DOCTYPE svg PUBLIC "-//W3C//DTD SVG 1.1//EN"
 "http://www.w3.org/Graphics/SVG/1.1/DTD/svg11.dtd">
<!-- Generated by graphviz version 2.38.0 (20140413.2041)
 -->
<!-- Title: g Pages: 1 -->
<svg width="253pt" height="127pt"
 viewBox="0.00 0.00 253.00 127.00" xmlns="http://www.w3.org/2000/svg" xmlns:xlink="http://www.w3.org/1999/xlink">
<g id="graph0" class="graph" transform="scale(1 1) rotate(0) translate(4 123)">
<title>g</title>
<polygon fill="white" stroke="none" points="-4,4 -4,-123 249,-123 249,4 -4,4"/>
<!-- N10354 -->
<g id="node1" class="node"><title>N10354</title>
<path fill="#ffffff" stroke="#2e3436" stroke-width="1.5" d="M12,-0.5C12,-0.5 96,-0.5 96,-0.5 102,-0.5 108,-6.5 108,-12.5 108,-12.5 108,-24.5 108,-24.5 108,-30.5 102,-36.5 96,-36.5 96,-36.5 12,-36.5 12,-36.5 6,-36.5 0,-30.5 0,-24.5 0,-24.5 0,-12.5 0,-12.5 0,-6.5 6,-0.5 12,-0.5"/>
<text text-anchor="start" x="8" y="-16.6" font-family="FreeSans" font-size="8.00" fill="#1c2021">Node[10354]name = &#39;you&#39;</text>
</g>
<!-- N10355 -->
<g id="node2" class="node"><title>N10355</title>
<path fill="#ffffff" stroke="#2e3436" stroke-width="1.5" d="M149,-0.5C149,-0.5 233,-0.5 233,-0.5 239,-0.5 245,-6.5 245,-12.5 245,-12.5 245,-24.5 245,-24.5 245,-30.5 239,-36.5 233,-36.5 233,-36.5 149,-36.5 149,-36.5 143,-36.5 137,-30.5 137,-24.5 137,-24.5 137,-12.5 137,-12.5 137,-6.5 143,-0.5 149,-0.5"/>
<text text-anchor="start" x="145" y="-21.1" font-family="FreeSans" font-size="8.00" fill="#1c2021">Node[10355]name = &#39;him&#39;</text>
<text text-anchor="start" x="145" y="-12.1" font-family="FreeSans" font-size="8.00" fill="#1c2021">age = 25</text>
</g>
<!-- N10356 -->
<g id="node3" class="node"><title>N10356</title>
<path fill="#ffffff" stroke="#2e3436" stroke-width="1.5" d="M85,-82.5C85,-82.5 159,-82.5 159,-82.5 165,-82.5 171,-88.5 171,-94.5 171,-94.5 171,-106.5 171,-106.5 171,-112.5 165,-118.5 159,-118.5 159,-118.5 85,-118.5 85,-118.5 79,-118.5 73,-112.5 73,-106.5 73,-106.5 73,-94.5 73,-94.5 73,-88.5 79,-82.5 85,-82.5"/>
<text text-anchor="start" x="81" y="-98.6" font-family="FreeSans" font-size="8.00" fill="#1c2021">Node[10356]name = &#39;I&#39;</text>
</g>
<!-- N10356&#45;&gt;N10354 -->
<g id="edge1" class="edge"><title>N10356&#45;&gt;N10354</title>
<path fill="none" stroke="#2e3436" stroke-width="2" d="M107.245,-82.1412C97.376,-70.5305 84.2813,-55.125 73.5477,-42.4972"/>
<polygon fill="#2e3436" stroke="#2e3436" stroke-width="2" points="68.4926,-36.5501 75.9215,-40.0788 71.3023,-39.0836 73.731,-41.9408 73.35,-42.2647 72.969,-42.5885 70.5403,-39.7312 70.7784,-44.4505 68.4926,-36.5501 68.4926,-36.5501"/>
<text text-anchor="middle" x="101" y="-57.6" font-family="FreeSans" font-size="8.00" fill="#2e3436">know</text>
</g>
<!-- N10356&#45;&gt;N10355 -->
<g id="edge2" class="edge"><title>N10356&#45;&gt;N10355</title>
<path fill="none" stroke="#2e3436" stroke-width="2" d="M136.972,-82.1412C146.986,-70.5305 160.273,-55.125 171.165,-42.4972"/>
<polygon fill="#2e3436" stroke="#2e3436" stroke-width="2" points="176.294,-36.5501 173.952,-44.4338 174.224,-39.7164 171.774,-42.5561 171.396,-42.2295 171.017,-41.9029 173.466,-39.0632 168.84,-40.0252 176.294,-36.5501 176.294,-36.5501"/>
<text text-anchor="middle" x="168" y="-57.6" font-family="FreeSans" font-size="8.00" fill="#2e3436">know</text>
</g>
</g>
</svg>
