<?xml version="1.0" encoding="UTF-8" standalone="no"?>
<!DOCTYPE svg PUBLIC "-//W3C//DTD SVG 1.1//EN"
 "http://www.w3.org/Graphics/SVG/1.1/DTD/svg11.dtd">
<!-- Generated by graphviz version 2.38.0 (20140413.2041)
 -->
<!-- Title: g Pages: 1 -->
<svg width="358pt" height="45pt"
 viewBox="0.00 0.00 358.00 45.00" xmlns="http://www.w3.org/2000/svg" xmlns:xlink="http://www.w3.org/1999/xlink">
<g id="graph0" class="graph" transform="scale(1 1) rotate(0) translate(4 41)">
<title>g</title>
<polygon fill="white" stroke="none" points="-4,4 -4,-41 354,-41 354,4 -4,4"/>
<!-- N15 -->
<g id="node1" class="node"><title>N15</title>
<path fill="#ffffff" stroke="#2e3436" stroke-width="1.5" d="M12,-0.5C12,-0.5 98,-0.5 98,-0.5 104,-0.5 110,-6.5 110,-12.5 110,-12.5 110,-24.5 110,-24.5 110,-30.5 104,-36.5 98,-36.5 98,-36.5 12,-36.5 12,-36.5 6,-36.5 0,-30.5 0,-24.5 0,-24.5 0,-12.5 0,-12.5 0,-6.5 6,-0.5 12,-0.5"/>
<text text-anchor="middle" x="55" y="-25.6" font-family="FreeSans" font-size="8.00" fill="#1c2021">Node[15]: Person</text>
<polyline fill="none" stroke="#2e3436" stroke-width="1.5" points="0,-18.5 110,-18.5 "/>
<text text-anchor="start" x="8" y="-7.6" font-family="FreeSans" font-size="8.00" fill="#1c2021">name = &#39;Steven Spielberg&#39;</text>
</g>
<!-- N16 -->
<g id="node2" class="node"><title>N16</title>
<path fill="#ffffff" stroke="#2e3436" stroke-width="1.5" d="M151,-0.5C151,-0.5 229,-0.5 229,-0.5 235,-0.5 241,-6.5 241,-12.5 241,-12.5 241,-24.5 241,-24.5 241,-30.5 235,-36.5 229,-36.5 229,-36.5 151,-36.5 151,-36.5 145,-36.5 139,-30.5 139,-24.5 139,-24.5 139,-12.5 139,-12.5 139,-6.5 145,-0.5 151,-0.5"/>
<text text-anchor="middle" x="190" y="-25.6" font-family="FreeSans" font-size="8.00" fill="#1c2021">Node[16]: Person</text>
<polyline fill="none" stroke="#2e3436" stroke-width="1.5" points="139,-18.5 241,-18.5 "/>
<text text-anchor="start" x="147" y="-7.6" font-family="FreeSans" font-size="8.00" fill="#1c2021">name = &#39;Clint Eastwood&#39;</text>
</g>
<!-- N17 -->
<g id="node3" class="node"><title>N17</title>
<path fill="#ffffff" stroke="#2e3436" stroke-width="1.5" d="M282,-0.5C282,-0.5 338,-0.5 338,-0.5 344,-0.5 350,-6.5 350,-12.5 350,-12.5 350,-24.5 350,-24.5 350,-30.5 344,-36.5 338,-36.5 338,-36.5 282,-36.5 282,-36.5 276,-36.5 270,-30.5 270,-24.5 270,-24.5 270,-12.5 270,-12.5 270,-6.5 276,-0.5 282,-0.5"/>
<text text-anchor="middle" x="310" y="-25.6" font-family="FreeSans" font-size="8.00" fill="#1c2021">Node[17]: Person</text>
<polyline fill="none" stroke="#2e3436" stroke-width="1.5" points="270,-18.5 350,-18.5 "/>
<text text-anchor="middle" x="310" y="-7.6" font-family="FreeSans" font-size="8.00" fill="#1c2021"> </text>
</g>
</g>
</svg>
