<?xml version="1.0" encoding="UTF-8" standalone="no"?>
<!DOCTYPE svg PUBLIC "-//W3C//DTD SVG 1.1//EN"
 "http://www.w3.org/Graphics/SVG/1.1/DTD/svg11.dtd">
<!-- Generated by graphviz version 2.38.0 (20140413.2041)
 -->
<!-- Title: g Pages: 1 -->
<svg width="115pt" height="127pt"
 viewBox="0.00 0.00 115.00 127.00" xmlns="http://www.w3.org/2000/svg" xmlns:xlink="http://www.w3.org/1999/xlink">
<g id="graph0" class="graph" transform="scale(1 1) rotate(0) translate(4 123)">
<title>g</title>
<polygon fill="white" stroke="none" points="-4,4 -4,-123 111,-123 111,4 -4,4"/>
<!-- N10328 -->
<g id="node1" class="node"><title>N10328</title>
<path fill="#ffffff" stroke="#2e3436" stroke-width="1.5" d="M16.5,-82.5C16.5,-82.5 90.5,-82.5 90.5,-82.5 96.5,-82.5 102.5,-88.5 102.5,-94.5 102.5,-94.5 102.5,-106.5 102.5,-106.5 102.5,-112.5 96.5,-118.5 90.5,-118.5 90.5,-118.5 16.5,-118.5 16.5,-118.5 10.5,-118.5 4.5,-112.5 4.5,-106.5 4.5,-106.5 4.5,-94.5 4.5,-94.5 4.5,-88.5 10.5,-82.5 16.5,-82.5"/>
<text text-anchor="start" x="12.5" y="-98.6" font-family="FreeSans" font-size="8.00" fill="#1c2021">Node[10328]age = &#39;18&#39;</text>
</g>
<!-- N10329 -->
<g id="node2" class="node"><title>N10329</title>
<path fill="#ffffff" stroke="#2e3436" stroke-width="1.5" d="M12,-0.5C12,-0.5 95,-0.5 95,-0.5 101,-0.5 107,-6.5 107,-12.5 107,-12.5 107,-24.5 107,-24.5 107,-30.5 101,-36.5 95,-36.5 95,-36.5 12,-36.5 12,-36.5 6,-36.5 -7.10543e-15,-30.5 -7.10543e-15,-24.5 -7.10543e-15,-24.5 -7.10543e-15,-12.5 -7.10543e-15,-12.5 -7.10543e-15,-6.5 6,-0.5 12,-0.5"/>
<text text-anchor="start" x="8" y="-16.6" font-family="FreeSans" font-size="8.00" fill="#1c2021">Node[10329]name = &#39;joe&#39;</text>
</g>
<!-- N10328&#45;&gt;N10329 -->
<g id="edge1" class="edge"><title>N10328&#45;&gt;N10329</title>
<path fill="none" stroke="#2e3436" stroke-width="2" d="M53.5,-82.1412C53.5,-71.0583 53.5,-56.5177 53.5,-44.2358"/>
<polygon fill="#2e3436" stroke="#2e3436" stroke-width="2" points="53.5,-36.5501 56.8751,-44.0501 54,-40.3001 54.0001,-44.0501 53.5001,-44.0501 53.0001,-44.0501 53,-40.3001 50.1251,-44.0501 53.5,-36.5501 53.5,-36.5501"/>
<text text-anchor="middle" x="65.5" y="-57.6" font-family="FreeSans" font-size="8.00" fill="#2e3436">knows</text>
</g>
</g>
</svg>
