<?xml version="1.0" encoding="UTF-8" standalone="no"?>
<!DOCTYPE svg PUBLIC "-//W3C//DTD SVG 1.1//EN"
 "http://www.w3.org/Graphics/SVG/1.1/DTD/svg11.dtd">
<!-- Generated by graphviz version 2.38.0 (20140413.2041)
 -->
<!-- Title: g Pages: 1 -->
<svg width="105pt" height="136pt"
 viewBox="0.00 0.00 104.50 136.00" xmlns="http://www.w3.org/2000/svg" xmlns:xlink="http://www.w3.org/1999/xlink">
<g id="graph0" class="graph" transform="scale(1 1) rotate(0) translate(4 132)">
<title>g</title>
<polygon fill="white" stroke="none" points="-4,4 -4,-132 100.5,-132 100.5,4 -4,4"/>
<!-- N83 -->
<g id="node1" class="node"><title>N83</title>
<path fill="#ffffff" stroke="#2e3436" stroke-width="1.5" d="M12,-91.5C12,-91.5 83,-91.5 83,-91.5 89,-91.5 95,-97.5 95,-103.5 95,-103.5 95,-115.5 95,-115.5 95,-121.5 89,-127.5 83,-127.5 83,-127.5 12,-127.5 12,-127.5 6,-127.5 0,-121.5 0,-115.5 0,-115.5 0,-103.5 0,-103.5 0,-97.5 6,-91.5 12,-91.5"/>
<text text-anchor="start" x="8" y="-107.6" font-family="FreeSans" font-size="8.00" fill="#1c2021">Node[83]name = &#39;bob&#39;</text>
</g>
<!-- N84 -->
<g id="node2" class="node"><title>N84</title>
<path fill="#ffffff" stroke="#2e3436" stroke-width="1.5" d="M19,-0.5C19,-0.5 76,-0.5 76,-0.5 82,-0.5 88,-6.5 88,-12.5 88,-12.5 88,-24.5 88,-24.5 88,-30.5 82,-36.5 76,-36.5 76,-36.5 19,-36.5 19,-36.5 13,-36.5 7,-30.5 7,-24.5 7,-24.5 7,-12.5 7,-12.5 7,-6.5 13,-0.5 19,-0.5"/>
<text text-anchor="start" x="15" y="-16.6" font-family="FreeSans" font-size="8.00" fill="#1c2021">Node[84]age = 12</text>
</g>
<!-- N83&#45;&gt;N84 -->
<g id="edge1" class="edge"><title>N83&#45;&gt;N84</title>
<path fill="none" stroke="#2e3436" stroke-width="2" d="M47.5,-91.3399C47.5,-78.0425 47.5,-59.4274 47.5,-44.4783"/>
<polygon fill="#2e3436" stroke="#2e3436" stroke-width="2" points="47.5,-36.6074 50.8751,-44.1074 48,-40.3574 48.0001,-44.1074 47.5001,-44.1074 47.0001,-44.1074 47,-40.3574 44.1251,-44.1075 47.5,-36.6074 47.5,-36.6074"/>
<text text-anchor="middle" x="72" y="-66.6" font-family="FreeSans" font-size="8.00" fill="#2e3436">KNOWS</text>
<text text-anchor="start" x="47.5" y="-57.6" font-family="FreeSans" font-size="8.00" fill="#2e3436">since = &#39;2010&#39;</text>
</g>
</g>
</svg>
