<?xml version="1.0" encoding="UTF-8" standalone="no"?>
<!DOCTYPE svg PUBLIC "-//W3C//DTD SVG 1.1//EN"
 "http://www.w3.org/Graphics/SVG/1.1/DTD/svg11.dtd">
<!-- Generated by graphviz version 2.38.0 (20140413.2041)
 -->
<!-- Title: g Pages: 1 -->
<svg width="304pt" height="337pt"
 viewBox="0.00 0.00 304.00 337.00" xmlns="http://www.w3.org/2000/svg" xmlns:xlink="http://www.w3.org/1999/xlink">
<g id="graph0" class="graph" transform="scale(1 1) rotate(0) translate(4 333)">
<title>g</title>
<polygon fill="white" stroke="none" points="-4,4 -4,-333 300,-333 300,4 -4,4"/>
<!-- N10396 -->
<g id="node1" class="node"><title>N10396</title>
<path fill="#ffffff" stroke="#2e3436" stroke-width="1.5" d="M12,-146.5C12,-146.5 86,-146.5 86,-146.5 92,-146.5 98,-152.5 98,-158.5 98,-158.5 98,-170.5 98,-170.5 98,-176.5 92,-182.5 86,-182.5 86,-182.5 12,-182.5 12,-182.5 6,-182.5 0,-176.5 0,-170.5 0,-170.5 0,-158.5 0,-158.5 0,-152.5 6,-146.5 12,-146.5"/>
<text text-anchor="start" x="8" y="-162.6" font-family="FreeSans" font-size="8.00" fill="#1c2021">Node[10396]name = &#39;f&#39;</text>
</g>
<!-- N10398 -->
<g id="node2" class="node"><title>N10398</title>
<path fill="#ffffff" stroke="#2e3436" stroke-width="1.5" d="M100,-0.5C100,-0.5 176,-0.5 176,-0.5 182,-0.5 188,-6.5 188,-12.5 188,-12.5 188,-24.5 188,-24.5 188,-30.5 182,-36.5 176,-36.5 176,-36.5 100,-36.5 100,-36.5 94,-36.5 88,-30.5 88,-24.5 88,-24.5 88,-12.5 88,-12.5 88,-6.5 94,-0.5 100,-0.5"/>
<text text-anchor="start" x="96" y="-16.6" font-family="FreeSans" font-size="8.00" fill="#1c2021">Node[10398]name = &#39;e&#39;</text>
</g>
<!-- N10396&#45;&gt;N10398 -->
<g id="edge1" class="edge"><title>N10396&#45;&gt;N10398</title>
<path fill="none" stroke="#2e3436" stroke-width="2" d="M59.559,-146.416C75.4165,-120.759 105.431,-72.1954 123.383,-43.1495"/>
<polygon fill="#2e3436" stroke="#2e3436" stroke-width="2" points="127.455,-36.5619 126.383,-44.7162 125.909,-40.0147 123.937,-43.2046 123.512,-42.9418 123.086,-42.6789 125.058,-39.489 120.641,-41.1674 127.455,-36.5619 127.455,-36.5619"/>
<text text-anchor="middle" x="108.5" y="-112.1" font-family="FreeSans" font-size="8.00" fill="#2e3436">to</text>
<text text-anchor="start" x="94" y="-103.1" font-family="FreeSans" font-size="8.00" fill="#2e3436">cost = 1</text>
</g>
<!-- N10397 -->
<g id="node3" class="node"><title>N10397</title>
<path fill="#ffffff" stroke="#2e3436" stroke-width="1.5" d="M208,-91.5C208,-91.5 284,-91.5 284,-91.5 290,-91.5 296,-97.5 296,-103.5 296,-103.5 296,-115.5 296,-115.5 296,-121.5 290,-127.5 284,-127.5 284,-127.5 208,-127.5 208,-127.5 202,-127.5 196,-121.5 196,-115.5 196,-115.5 196,-103.5 196,-103.5 196,-97.5 202,-91.5 208,-91.5"/>
<text text-anchor="start" x="204" y="-107.6" font-family="FreeSans" font-size="8.00" fill="#1c2021">Node[10397]name = &#39;d&#39;</text>
</g>
<!-- N10397&#45;&gt;N10398 -->
<g id="edge2" class="edge"><title>N10397&#45;&gt;N10398</title>
<path fill="none" stroke="#2e3436" stroke-width="2" d="M225.177,-91.3399C207.994,-77.1806 183.496,-56.992 164.842,-41.6202"/>
<polygon fill="#2e3436" stroke="#2e3436" stroke-width="2" points="158.76,-36.6074 166.694,-38.7726 161.972,-38.6064 164.865,-40.9913 164.548,-41.3771 164.23,-41.763 161.336,-39.3781 162.401,-43.9817 158.76,-36.6074 158.76,-36.6074"/>
<text text-anchor="middle" x="215.5" y="-66.6" font-family="FreeSans" font-size="8.00" fill="#2e3436">to</text>
<text text-anchor="start" x="201" y="-57.6" font-family="FreeSans" font-size="8.00" fill="#2e3436">cost = 1</text>
</g>
<!-- N10399 -->
<g id="node4" class="node"><title>N10399</title>
<path fill="#ffffff" stroke="#2e3436" stroke-width="1.5" d="M115,-146.5C115,-146.5 191,-146.5 191,-146.5 197,-146.5 203,-152.5 203,-158.5 203,-158.5 203,-170.5 203,-170.5 203,-176.5 197,-182.5 191,-182.5 191,-182.5 115,-182.5 115,-182.5 109,-182.5 103,-176.5 103,-170.5 103,-170.5 103,-158.5 103,-158.5 103,-152.5 109,-146.5 115,-146.5"/>
<text text-anchor="start" x="111" y="-162.6" font-family="FreeSans" font-size="8.00" fill="#1c2021">Node[10399]name = &#39;b&#39;</text>
</g>
<!-- N10399&#45;&gt;N10398 -->
<g id="edge3" class="edge"><title>N10399&#45;&gt;N10398</title>
<path fill="none" stroke="#2e3436" stroke-width="2" d="M151.22,-146.416C148.582,-121.083 143.617,-73.4212 140.579,-44.2618"/>
<polygon fill="#2e3436" stroke="#2e3436" stroke-width="2" points="139.777,-36.5619 143.911,-43.6719 140.663,-40.2399 141.052,-43.9698 140.554,-44.0216 140.057,-44.0734 139.669,-40.3436 137.198,-44.3713 139.777,-36.5619 139.777,-36.5619"/>
<text text-anchor="middle" x="163.5" y="-112.1" font-family="FreeSans" font-size="8.00" fill="#2e3436">to</text>
<text text-anchor="start" x="149" y="-103.1" font-family="FreeSans" font-size="8.00" fill="#2e3436">cost = 1</text>
</g>
<!-- N10400 -->
<g id="node5" class="node"><title>N10400</title>
<path fill="#ffffff" stroke="#2e3436" stroke-width="1.5" d="M208,-201.5C208,-201.5 284,-201.5 284,-201.5 290,-201.5 296,-207.5 296,-213.5 296,-213.5 296,-225.5 296,-225.5 296,-231.5 290,-237.5 284,-237.5 284,-237.5 208,-237.5 208,-237.5 202,-237.5 196,-231.5 196,-225.5 196,-225.5 196,-213.5 196,-213.5 196,-207.5 202,-201.5 208,-201.5"/>
<text text-anchor="start" x="204" y="-217.6" font-family="FreeSans" font-size="8.00" fill="#1c2021">Node[10400]name = &#39;c&#39;</text>
</g>
<!-- N10400&#45;&gt;N10397 -->
<g id="edge4" class="edge"><title>N10400&#45;&gt;N10397</title>
<path fill="none" stroke="#2e3436" stroke-width="2" d="M246,-201.148C246,-183.356 246,-155.513 246,-135.378"/>
<polygon fill="#2e3436" stroke="#2e3436" stroke-width="2" points="246,-127.809 249.375,-135.309 246.5,-131.559 246.5,-135.309 246,-135.309 245.5,-135.309 245.5,-131.559 242.625,-135.309 246,-127.809 246,-127.809"/>
<text text-anchor="middle" x="260.5" y="-167.1" font-family="FreeSans" font-size="8.00" fill="#2e3436">to</text>
<text text-anchor="start" x="246" y="-158.1" font-family="FreeSans" font-size="8.00" fill="#2e3436">cost = 1</text>
</g>
<!-- N10401 -->
<g id="node6" class="node"><title>N10401</title>
<path fill="#ffffff" stroke="#2e3436" stroke-width="1.5" d="M114,-292.5C114,-292.5 190,-292.5 190,-292.5 196,-292.5 202,-298.5 202,-304.5 202,-304.5 202,-316.5 202,-316.5 202,-322.5 196,-328.5 190,-328.5 190,-328.5 114,-328.5 114,-328.5 108,-328.5 102,-322.5 102,-316.5 102,-316.5 102,-304.5 102,-304.5 102,-298.5 108,-292.5 114,-292.5"/>
<text text-anchor="start" x="110" y="-308.6" font-family="FreeSans" font-size="8.00" fill="#1c2021">Node[10401]name = &#39;a&#39;</text>
</g>
<!-- N10401&#45;&gt;N10396 -->
<g id="edge5" class="edge"><title>N10401&#45;&gt;N10396</title>
<path fill="none" stroke="#2e3436" stroke-width="2" d="M132.802,-292.235C127.097,-286.677 121.032,-280.316 116,-274 94.37,-246.854 74.1041,-212.263 61.6442,-189.528"/>
<polygon fill="#2e3436" stroke="#2e3436" stroke-width="2" points="58.0351,-182.874 64.5777,-187.858 60.2626,-185.932 62.0506,-189.228 61.611,-189.467 61.1715,-189.705 59.3835,-186.409 58.6444,-191.076 58.0351,-182.874 58.0351,-182.874"/>
<text text-anchor="middle" x="130.5" y="-267.6" font-family="FreeSans" font-size="8.00" fill="#2e3436">to</text>
<text text-anchor="start" x="116" y="-258.6" font-family="FreeSans" font-size="8.00" fill="#2e3436">cost = 1</text>
</g>
<!-- N10401&#45;&gt;N10399 -->
<g id="edge6" class="edge"><title>N10401&#45;&gt;N10399</title>
<path fill="none" stroke="#2e3436" stroke-width="2" d="M152.119,-292.416C152.295,-267.083 152.626,-219.421 152.828,-190.262"/>
<polygon fill="#2e3436" stroke="#2e3436" stroke-width="2" points="152.882,-182.562 156.204,-190.085 153.355,-186.315 153.329,-190.065 152.829,-190.062 152.329,-190.058 152.355,-186.308 149.454,-190.038 152.882,-182.562 152.882,-182.562"/>
<text text-anchor="middle" x="166.5" y="-267.6" font-family="FreeSans" font-size="8.00" fill="#2e3436">to</text>
<text text-anchor="start" x="152" y="-258.6" font-family="FreeSans" font-size="8.00" fill="#2e3436">cost = 1</text>
</g>
<!-- N10401&#45;&gt;N10400 -->
<g id="edge7" class="edge"><title>N10401&#45;&gt;N10400</title>
<path fill="none" stroke="#2e3436" stroke-width="2" d="M170.124,-292.34C184.949,-278.304 206.031,-258.343 222.212,-243.022"/>
<polygon fill="#2e3436" stroke="#2e3436" stroke-width="2" points="227.931,-237.607 224.806,-245.215 225.552,-240.549 222.829,-243.127 222.485,-242.764 222.142,-242.401 224.865,-239.823 220.165,-240.313 227.931,-237.607 227.931,-237.607"/>
<text text-anchor="middle" x="221.5" y="-267.6" font-family="FreeSans" font-size="8.00" fill="#2e3436">to</text>
<text text-anchor="start" x="207" y="-258.6" font-family="FreeSans" font-size="8.00" fill="#2e3436">cost = 1</text>
</g>
</g>
</svg>
