<?xml version="1.0" encoding="UTF-8" standalone="no"?>
<!DOCTYPE svg PUBLIC "-//W3C//DTD SVG 1.1//EN"
 "http://www.w3.org/Graphics/SVG/1.1/DTD/svg11.dtd">
<!-- Generated by graphviz version 2.38.0 (20140413.2041)
 -->
<!-- Title: g Pages: 1 -->
<svg width="101pt" height="70pt"
 viewBox="0.00 0.00 101.00 70.00" xmlns="http://www.w3.org/2000/svg" xmlns:xlink="http://www.w3.org/1999/xlink">
<g id="graph0" class="graph" transform="scale(1 1) rotate(0) translate(4 66)">
<title>g</title>
<polygon fill="white" stroke="none" points="-4,4 -4,-66 97,-66 97,4 -4,4"/>
<!-- N10331 -->
<g id="node1" class="node"><title>N10331</title>
<path fill="#ffffff" stroke="#2e3436" stroke-width="1.5" d="M12,-0.5C12,-0.5 81,-0.5 81,-0.5 87,-0.5 93,-6.5 93,-12.5 93,-12.5 93,-49.5 93,-49.5 93,-55.5 87,-61.5 81,-61.5 81,-61.5 12,-61.5 12,-61.5 6,-61.5 -7.10543e-15,-55.5 -7.10543e-15,-49.5 -7.10543e-15,-49.5 -7.10543e-15,-12.5 -7.10543e-15,-12.5 -7.10543e-15,-6.5 6,-0.5 12,-0.5"/>
<text text-anchor="middle" x="46.5" y="-51.1" font-family="FreeSans" font-size="8.00" fill="#1c2021">Node[10331]: Person</text>
<polyline fill="none" stroke="#2e3436" stroke-width="1.5" points="-7.10543e-15,-44.5 93,-44.5 "/>
<text text-anchor="start" x="8" y="-34.1" font-family="FreeSans" font-size="8.00" fill="#1c2021">name = &#39;Michael&#39;</text>
<text text-anchor="start" x="8" y="-25.1" font-family="FreeSans" font-size="8.00" fill="#1c2021">position = &#39;Developer&#39;</text>
<text text-anchor="start" x="8" y="-16.1" font-family="FreeSans" font-size="8.00" fill="#1c2021">awesome = true</text>
<text text-anchor="start" x="8" y="-7.1" font-family="FreeSans" font-size="8.00" fill="#1c2021">children = 3</text>
</g>
</g>
</svg>
