<?xml version="1.0" encoding="UTF-8" standalone="no"?>
<!DOCTYPE svg PUBLIC "-//W3C//DTD SVG 1.1//EN"
 "http://www.w3.org/Graphics/SVG/1.1/DTD/svg11.dtd">
<!-- Generated by graphviz version 2.38.0 (20140413.2041)
 -->
<!-- Title: g Pages: 1 -->
<svg width="112pt" height="136pt"
 viewBox="0.00 0.00 112.00 136.00" xmlns="http://www.w3.org/2000/svg" xmlns:xlink="http://www.w3.org/1999/xlink">
<g id="graph0" class="graph" transform="scale(1 1) rotate(0) translate(4 132)">
<title>g</title>
<polygon fill="white" stroke="none" points="-4,4 -4,-132 108,-132 108,4 -4,4"/>
<!-- N8 -->
<g id="node1" class="node"><title>N8</title>
<path fill="#ffffff" stroke="#2e3436" stroke-width="1.5" d="M16,-0.5C16,-0.5 88,-0.5 88,-0.5 94,-0.5 100,-6.5 100,-12.5 100,-12.5 100,-24.5 100,-24.5 100,-30.5 94,-36.5 88,-36.5 88,-36.5 16,-36.5 16,-36.5 10,-36.5 4,-30.5 4,-24.5 4,-24.5 4,-12.5 4,-12.5 4,-6.5 10,-0.5 16,-0.5"/>
<text text-anchor="start" x="12" y="-16.6" font-family="FreeSans" font-size="8.00" fill="#1c2021">Node[8]name = &#39;Juliet&#39;</text>
</g>
<!-- N9 -->
<g id="node2" class="node"><title>N9</title>
<path fill="#ffffff" stroke="#2e3436" stroke-width="1.5" d="M12,-91.5C12,-91.5 92,-91.5 92,-91.5 98,-91.5 104,-97.5 104,-103.5 104,-103.5 104,-115.5 104,-115.5 104,-121.5 98,-127.5 92,-127.5 92,-127.5 12,-127.5 12,-127.5 6,-127.5 0,-121.5 0,-115.5 0,-115.5 0,-103.5 0,-103.5 0,-97.5 6,-91.5 12,-91.5"/>
<text text-anchor="start" x="8" y="-107.6" font-family="FreeSans" font-size="8.00" fill="#1c2021">Node[9]name = &#39;Romeo&#39;</text>
</g>
<!-- N9&#45;&gt;N8 -->
<g id="edge1" class="edge"><title>N9&#45;&gt;N8</title>
<path fill="none" stroke="#2e3436" stroke-width="2" d="M52,-91.3399C52,-78.0425 52,-59.4274 52,-44.4783"/>
<polygon fill="#2e3436" stroke="#2e3436" stroke-width="2" points="52,-36.6074 55.3751,-44.1074 52.5,-40.3574 52.5001,-44.1074 52.0001,-44.1074 51.5001,-44.1074 51.5,-40.3574 48.6251,-44.1075 52,-36.6074 52,-36.6074"/>
<text text-anchor="middle" x="77.5" y="-66.6" font-family="FreeSans" font-size="8.00" fill="#2e3436">LOVES</text>
<text text-anchor="start" x="52" y="-57.6" font-family="FreeSans" font-size="8.00" fill="#2e3436">cost = &#39;deadly&#39;</text>
</g>
</g>
</svg>
