<?xml version="1.0" encoding="UTF-8" standalone="no"?>
<!DOCTYPE svg PUBLIC "-//W3C//DTD SVG 1.1//EN"
 "http://www.w3.org/Graphics/SVG/1.1/DTD/svg11.dtd">
<!-- Generated by graphviz version 2.38.0 (20140413.2041)
 -->
<!-- Title: g Pages: 1 -->
<svg width="426pt" height="45pt"
 viewBox="0.00 0.00 426.00 45.00" xmlns="http://www.w3.org/2000/svg" xmlns:xlink="http://www.w3.org/1999/xlink">
<g id="graph0" class="graph" transform="scale(1 1) rotate(0) translate(4 41)">
<title>g</title>
<polygon fill="white" stroke="none" points="-4,4 -4,-41 422,-41 422,4 -4,4"/>
<!-- N8 -->
<g id="node1" class="node"><title>N8</title>
<path fill="#ffffff" stroke="#2e3436" stroke-width="1.5" d="M12,-0.5C12,-0.5 98,-0.5 98,-0.5 104,-0.5 110,-6.5 110,-12.5 110,-12.5 110,-24.5 110,-24.5 110,-30.5 104,-36.5 98,-36.5 98,-36.5 12,-36.5 12,-36.5 6,-36.5 0,-30.5 0,-24.5 0,-24.5 0,-12.5 0,-12.5 0,-6.5 6,-0.5 12,-0.5"/>
<text text-anchor="middle" x="55" y="-25.6" font-family="FreeSans" font-size="8.00" fill="#1c2021">Node[8]: Person, Director</text>
<polyline fill="none" stroke="#2e3436" stroke-width="1.5" points="0,-18.5 110,-18.5 "/>
<text text-anchor="start" x="8" y="-7.6" font-family="FreeSans" font-size="8.00" fill="#1c2021">name = &#39;Steven Spielberg&#39;</text>
</g>
<!-- N9 -->
<g id="node2" class="node"><title>N9</title>
<path fill="#ffffff" stroke="#2e3436" stroke-width="1.5" d="M151.5,-0.5C151.5,-0.5 260.5,-0.5 260.5,-0.5 266.5,-0.5 272.5,-6.5 272.5,-12.5 272.5,-12.5 272.5,-24.5 272.5,-24.5 272.5,-30.5 266.5,-36.5 260.5,-36.5 260.5,-36.5 151.5,-36.5 151.5,-36.5 145.5,-36.5 139.5,-30.5 139.5,-24.5 139.5,-24.5 139.5,-12.5 139.5,-12.5 139.5,-6.5 145.5,-0.5 151.5,-0.5"/>
<text text-anchor="middle" x="206" y="-25.6" font-family="FreeSans" font-size="8.00" fill="#1c2021">Node[9]: Person, Actor, Director</text>
<polyline fill="none" stroke="#2e3436" stroke-width="1.5" points="139.5,-18.5 272.5,-18.5 "/>
<text text-anchor="start" x="147.5" y="-7.6" font-family="FreeSans" font-size="8.00" fill="#1c2021">name = &#39;Clint Eastwood&#39;</text>
</g>
<!-- N10 -->
<g id="node3" class="node"><title>N10</title>
<path fill="#ffffff" stroke="#2e3436" stroke-width="1.5" d="M314,-0.5C314,-0.5 406,-0.5 406,-0.5 412,-0.5 418,-6.5 418,-12.5 418,-12.5 418,-24.5 418,-24.5 418,-30.5 412,-36.5 406,-36.5 406,-36.5 314,-36.5 314,-36.5 308,-36.5 302,-30.5 302,-24.5 302,-24.5 302,-12.5 302,-12.5 302,-6.5 308,-0.5 314,-0.5"/>
<text text-anchor="middle" x="360" y="-25.6" font-family="FreeSans" font-size="8.00" fill="#1c2021">Node[10]: Person, Actor</text>
<polyline fill="none" stroke="#2e3436" stroke-width="1.5" points="302,-18.5 418,-18.5 "/>
<text text-anchor="start" x="310" y="-7.6" font-family="FreeSans" font-size="8.00" fill="#1c2021">name = &#39;Donald Sutherland&#39;</text>
</g>
</g>
</svg>
