<?xml version="1.0" encoding="UTF-8" standalone="no"?>
<!DOCTYPE svg PUBLIC "-//W3C//DTD SVG 1.1//EN"
 "http://www.w3.org/Graphics/SVG/1.1/DTD/svg11.dtd">
<!-- Generated by graphviz version 2.38.0 (20140413.2041)
 -->
<!-- Title: g Pages: 1 -->
<svg width="107pt" height="136pt"
 viewBox="0.00 0.00 107.00 136.00" xmlns="http://www.w3.org/2000/svg" xmlns:xlink="http://www.w3.org/1999/xlink">
<g id="graph0" class="graph" transform="scale(1 1) rotate(0) translate(4 132)">
<title>g</title>
<polygon fill="white" stroke="none" points="-4,4 -4,-132 103,-132 103,4 -4,4"/>
<!-- N10 -->
<g id="node1" class="node"><title>N10</title>
<path fill="#ffffff" stroke="#2e3436" stroke-width="1.5" d="M12,-0.5C12,-0.5 87,-0.5 87,-0.5 93,-0.5 99,-6.5 99,-12.5 99,-12.5 99,-24.5 99,-24.5 99,-30.5 93,-36.5 87,-36.5 87,-36.5 12,-36.5 12,-36.5 6,-36.5 0,-30.5 0,-24.5 0,-24.5 0,-12.5 0,-12.5 0,-6.5 6,-0.5 12,-0.5"/>
<text text-anchor="start" x="8" y="-16.6" font-family="FreeSans" font-size="8.00" fill="#1c2021">Node[10]name = &#39;Sara&#39;</text>
</g>
<!-- N11 -->
<g id="node2" class="node"><title>N11</title>
<path fill="#ffffff" stroke="#2e3436" stroke-width="1.5" d="M14,-91.5C14,-91.5 85,-91.5 85,-91.5 91,-91.5 97,-97.5 97,-103.5 97,-103.5 97,-115.5 97,-115.5 97,-121.5 91,-127.5 85,-127.5 85,-127.5 14,-127.5 14,-127.5 8,-127.5 2,-121.5 2,-115.5 2,-115.5 2,-103.5 2,-103.5 2,-97.5 8,-91.5 14,-91.5"/>
<text text-anchor="start" x="10" y="-107.6" font-family="FreeSans" font-size="8.00" fill="#1c2021">Node[11]name = &#39;Joe&#39;</text>
</g>
<!-- N11&#45;&gt;N10 -->
<g id="edge1" class="edge"><title>N11&#45;&gt;N10</title>
<path fill="none" stroke="#2e3436" stroke-width="2" d="M30.2386,-91.4106C25.4827,-86.0432 21.0292,-79.7416 18.5,-73 15.6899,-65.5098 15.6899,-62.4902 18.5,-55 20.1598,-50.5758 22.6483,-46.3411 25.5072,-42.4356"/>
<polygon fill="#2e3436" stroke="#2e3436" stroke-width="2" points="30.2386,-36.5894 28.1438,-44.5425 28.2681,-39.8189 25.909,-42.7339 25.5203,-42.4193 25.1317,-42.1048 27.4908,-39.1898 22.8969,-40.2961 30.2386,-36.5894 30.2386,-36.5894"/>
<text text-anchor="middle" x="30.5" y="-62.1" font-family="FreeSans" font-size="8.00" fill="#2e3436">knows</text>
</g>
<!-- N11&#45;&gt;N10 -->
<g id="edge2" class="edge"><title>N11&#45;&gt;N10</title>
<path fill="none" stroke="#4e9a06" stroke-width="2" d="M49.5,-91.3399C49.5,-78.0425 49.5,-59.4274 49.5,-44.4783"/>
<polygon fill="#4e9a06" stroke="#4e9a06" stroke-width="2" points="49.5,-36.6074 52.8751,-44.1074 50,-40.3574 50.0001,-44.1074 49.5001,-44.1074 49.0001,-44.1074 49,-40.3574 46.1251,-44.1075 49.5,-36.6074 49.5,-36.6074"/>
<text text-anchor="middle" x="67.5" y="-66.6" font-family="FreeSans" font-size="8.00" fill="#4e9a06">LOVES</text>
<text text-anchor="start" x="49.5" y="-57.6" font-family="FreeSans" font-size="8.00" fill="#4e9a06">foo = &#39;bar&#39;</text>
</g>
</g>
</svg>
