<?xml version="1.0" encoding="UTF-8" standalone="no"?>
<!DOCTYPE svg PUBLIC "-//W3C//DTD SVG 1.1//EN"
 "http://www.w3.org/Graphics/SVG/1.1/DTD/svg11.dtd">
<!-- Generated by graphviz version 2.38.0 (20140413.2041)
 -->
<!-- Title: g Pages: 1 -->
<svg width="235pt" height="127pt"
 viewBox="0.00 0.00 235.00 127.00" xmlns="http://www.w3.org/2000/svg" xmlns:xlink="http://www.w3.org/1999/xlink">
<g id="graph0" class="graph" transform="scale(1 1) rotate(0) translate(4 123)">
<title>g</title>
<polygon fill="white" stroke="none" points="-4,4 -4,-123 231,-123 231,4 -4,4"/>
<!-- N160 -->
<g id="node1" class="node"><title>N160</title>
<path fill="#ffffff" stroke="#2e3436" stroke-width="1.5" d="M12,-0.5C12,-0.5 87,-0.5 87,-0.5 93,-0.5 99,-6.5 99,-12.5 99,-12.5 99,-24.5 99,-24.5 99,-30.5 93,-36.5 87,-36.5 87,-36.5 12,-36.5 12,-36.5 6,-36.5 0,-30.5 0,-24.5 0,-24.5 0,-12.5 0,-12.5 0,-6.5 6,-0.5 12,-0.5"/>
<text text-anchor="start" x="8" y="-16.6" font-family="FreeSans" font-size="8.00" fill="#1c2021">Node[160]name = &#39;you&#39;</text>
</g>
<!-- N161 -->
<g id="node2" class="node"><title>N161</title>
<path fill="#ffffff" stroke="#2e3436" stroke-width="1.5" d="M140,-0.5C140,-0.5 215,-0.5 215,-0.5 221,-0.5 227,-6.5 227,-12.5 227,-12.5 227,-24.5 227,-24.5 227,-30.5 221,-36.5 215,-36.5 215,-36.5 140,-36.5 140,-36.5 134,-36.5 128,-30.5 128,-24.5 128,-24.5 128,-12.5 128,-12.5 128,-6.5 134,-0.5 140,-0.5"/>
<text text-anchor="start" x="136" y="-21.1" font-family="FreeSans" font-size="8.00" fill="#1c2021">Node[161]name = &#39;him&#39;</text>
<text text-anchor="start" x="136" y="-12.1" font-family="FreeSans" font-size="8.00" fill="#1c2021">age = 25</text>
</g>
<!-- N162 -->
<g id="node3" class="node"><title>N162</title>
<path fill="#ffffff" stroke="#2e3436" stroke-width="1.5" d="M81,-82.5C81,-82.5 146,-82.5 146,-82.5 152,-82.5 158,-88.5 158,-94.5 158,-94.5 158,-106.5 158,-106.5 158,-112.5 152,-118.5 146,-118.5 146,-118.5 81,-118.5 81,-118.5 75,-118.5 69,-112.5 69,-106.5 69,-106.5 69,-94.5 69,-94.5 69,-88.5 75,-82.5 81,-82.5"/>
<text text-anchor="start" x="77" y="-98.6" font-family="FreeSans" font-size="8.00" fill="#1c2021">Node[162]name = &#39;I&#39;</text>
</g>
<!-- N162&#45;&gt;N160 -->
<g id="edge1" class="edge"><title>N162&#45;&gt;N160</title>
<path fill="none" stroke="#2e3436" stroke-width="2" d="M99.613,-82.1412C90.3244,-70.5305 78,-55.125 67.8978,-42.4972"/>
<polygon fill="#2e3436" stroke="#2e3436" stroke-width="2" points="63.1401,-36.5501 70.4608,-40.2983 65.8731,-39.166 68.2158,-42.0943 67.8253,-42.4066 67.4349,-42.719 65.0923,-39.7907 65.1899,-44.515 63.1401,-36.5501 63.1401,-36.5501"/>
<text text-anchor="middle" x="93.5" y="-57.6" font-family="FreeSans" font-size="8.00" fill="#2e3436">know</text>
</g>
<!-- N162&#45;&gt;N161 -->
<g id="edge2" class="edge"><title>N162&#45;&gt;N161</title>
<path fill="none" stroke="#2e3436" stroke-width="2" d="M127.387,-82.1412C136.676,-70.5305 149,-55.125 159.102,-42.4972"/>
<polygon fill="#2e3436" stroke="#2e3436" stroke-width="2" points="163.86,-36.5501 161.81,-44.515 161.908,-39.7907 159.565,-42.719 159.175,-42.4066 158.784,-42.0943 161.127,-39.166 156.539,-40.2983 163.86,-36.5501 163.86,-36.5501"/>
<text text-anchor="middle" x="156.5" y="-57.6" font-family="FreeSans" font-size="8.00" fill="#2e3436">know</text>
</g>
</g>
</svg>
