<?xml version="1.0" encoding="UTF-8" standalone="no"?>
<!DOCTYPE svg PUBLIC "-//W3C//DTD SVG 1.1//EN"
 "http://www.w3.org/Graphics/SVG/1.1/DTD/svg11.dtd">
<!-- Generated by graphviz version 2.38.0 (20140413.2041)
 -->
<!-- Title: g Pages: 1 -->
<svg width="223pt" height="52pt"
 viewBox="0.00 0.00 223.00 52.00" xmlns="http://www.w3.org/2000/svg" xmlns:xlink="http://www.w3.org/1999/xlink">
<g id="graph0" class="graph" transform="scale(1 1) rotate(0) translate(4 48)">
<title>g</title>
<polygon fill="white" stroke="none" points="-4,4 -4,-48 219,-48 219,4 -4,4"/>
<!-- N10335 -->
<g id="node1" class="node"><title>N10335</title>
<path fill="#ffffff" stroke="#2e3436" stroke-width="1.5" d="M12,-0.5C12,-0.5 81,-0.5 81,-0.5 87,-0.5 93,-6.5 93,-12.5 93,-12.5 93,-31.5 93,-31.5 93,-37.5 87,-43.5 81,-43.5 81,-43.5 12,-43.5 12,-43.5 6,-43.5 -7.10543e-15,-37.5 -7.10543e-15,-31.5 -7.10543e-15,-31.5 -7.10543e-15,-12.5 -7.10543e-15,-12.5 -7.10543e-15,-6.5 6,-0.5 12,-0.5"/>
<text text-anchor="middle" x="46.5" y="-33.1" font-family="FreeSans" font-size="8.00" fill="#1c2021">Node[10335]: Person</text>
<polyline fill="none" stroke="#2e3436" stroke-width="1.5" points="-7.10543e-15,-26.5 93,-26.5 "/>
<text text-anchor="start" x="8" y="-16.1" font-family="FreeSans" font-size="8.00" fill="#1c2021">name = &#39;Andres&#39;</text>
<text text-anchor="start" x="8" y="-7.1" font-family="FreeSans" font-size="8.00" fill="#1c2021">position = &#39;Developer&#39;</text>
</g>
<!-- N10336 -->
<g id="node2" class="node"><title>N10336</title>
<path fill="#ffffff" stroke="#2e3436" stroke-width="1.5" d="M134,-0.5C134,-0.5 203,-0.5 203,-0.5 209,-0.5 215,-6.5 215,-12.5 215,-12.5 215,-31.5 215,-31.5 215,-37.5 209,-43.5 203,-43.5 203,-43.5 134,-43.5 134,-43.5 128,-43.5 122,-37.5 122,-31.5 122,-31.5 122,-12.5 122,-12.5 122,-6.5 128,-0.5 134,-0.5"/>
<text text-anchor="middle" x="168.5" y="-33.1" font-family="FreeSans" font-size="8.00" fill="#1c2021">Node[10336]: Person</text>
<polyline fill="none" stroke="#2e3436" stroke-width="1.5" points="122,-26.5 215,-26.5 "/>
<text text-anchor="start" x="130" y="-16.1" font-family="FreeSans" font-size="8.00" fill="#1c2021">name = &#39;Michael&#39;</text>
<text text-anchor="start" x="130" y="-7.1" font-family="FreeSans" font-size="8.00" fill="#1c2021">position = &#39;Developer&#39;</text>
</g>
</g>
</svg>
