<?xml version="1.0" encoding="UTF-8" standalone="no"?>
<!DOCTYPE svg PUBLIC "-//W3C//DTD SVG 1.1//EN"
 "http://www.w3.org/Graphics/SVG/1.1/DTD/svg11.dtd">
<!-- Generated by graphviz version 2.38.0 (20140413.2041)
 -->
<!-- Title: g Pages: 1 -->
<svg width="276pt" height="373pt"
 viewBox="0.00 0.00 276.00 373.00" xmlns="http://www.w3.org/2000/svg" xmlns:xlink="http://www.w3.org/1999/xlink">
<g id="graph0" class="graph" transform="scale(1 1) rotate(0) translate(4 369)">
<title>g</title>
<polygon fill="white" stroke="none" points="-4,4 -4,-369 272,-369 272,4 -4,4"/>
<!-- N24 -->
<g id="node1" class="node"><title>N24</title>
<path fill="#ffffff" stroke="#2e3436" stroke-width="1.5" d="M146,-0.5C146,-0.5 221,-0.5 221,-0.5 227,-0.5 233,-6.5 233,-12.5 233,-12.5 233,-24.5 233,-24.5 233,-30.5 227,-36.5 221,-36.5 221,-36.5 146,-36.5 146,-36.5 140,-36.5 134,-30.5 134,-24.5 134,-24.5 134,-12.5 134,-12.5 134,-6.5 140,-0.5 146,-0.5"/>
<text text-anchor="start" x="142" y="-16.6" font-family="FreeSans" font-size="8.00" fill="#1c2021">Node[24]name = &#39;Sara&#39;</text>
</g>
<!-- N25 -->
<g id="node2" class="node"><title>N25</title>
<path fill="#ffffff" stroke="#2e3436" stroke-width="1.5" d="M39.5,-246.5C39.5,-246.5 119.5,-246.5 119.5,-246.5 125.5,-246.5 131.5,-252.5 131.5,-258.5 131.5,-258.5 131.5,-270.5 131.5,-270.5 131.5,-276.5 125.5,-282.5 119.5,-282.5 119.5,-282.5 39.5,-282.5 39.5,-282.5 33.5,-282.5 27.5,-276.5 27.5,-270.5 27.5,-270.5 27.5,-258.5 27.5,-258.5 27.5,-252.5 33.5,-246.5 39.5,-246.5"/>
<text text-anchor="start" x="35.5" y="-262.6" font-family="FreeSans" font-size="8.00" fill="#1c2021">Node[25]name = &#39;Johan&#39;</text>
</g>
<!-- N26 -->
<g id="node3" class="node"><title>N26</title>
<path fill="#ffffff" stroke="#2e3436" stroke-width="1.5" d="M43,-164.5C43,-164.5 116,-164.5 116,-164.5 122,-164.5 128,-170.5 128,-176.5 128,-176.5 128,-188.5 128,-188.5 128,-194.5 122,-200.5 116,-200.5 116,-200.5 43,-200.5 43,-200.5 37,-200.5 31,-194.5 31,-188.5 31,-188.5 31,-176.5 31,-176.5 31,-170.5 37,-164.5 43,-164.5"/>
<text text-anchor="start" x="39" y="-180.6" font-family="FreeSans" font-size="8.00" fill="#1c2021">Node[26]name = &#39;Emil&#39;</text>
</g>
<!-- N25&#45;&gt;N26 -->
<g id="edge1" class="edge"><title>N25&#45;&gt;N26</title>
<path fill="none" stroke="#2e3436" stroke-width="2" d="M79.5,-246.141C79.5,-235.058 79.5,-220.518 79.5,-208.236"/>
<polygon fill="#2e3436" stroke="#2e3436" stroke-width="2" points="79.5,-200.55 82.8751,-208.05 80,-204.3 80.0001,-208.05 79.5001,-208.05 79.0001,-208.05 79,-204.3 76.1251,-208.05 79.5,-200.55 79.5,-200.55"/>
<text text-anchor="middle" x="91.5" y="-221.6" font-family="FreeSans" font-size="8.00" fill="#2e3436">knows</text>
</g>
<!-- N29 -->
<g id="node4" class="node"><title>N29</title>
<path fill="#ffffff" stroke="#2e3436" stroke-width="1.5" d="M12,-82.5C12,-82.5 89,-82.5 89,-82.5 95,-82.5 101,-88.5 101,-94.5 101,-94.5 101,-106.5 101,-106.5 101,-112.5 95,-118.5 89,-118.5 89,-118.5 12,-118.5 12,-118.5 6,-118.5 0,-112.5 0,-106.5 0,-106.5 0,-94.5 0,-94.5 0,-88.5 6,-82.5 12,-82.5"/>
<text text-anchor="start" x="8" y="-98.6" font-family="FreeSans" font-size="8.00" fill="#1c2021">Node[29]name = &#39;Peter&#39;</text>
</g>
<!-- N26&#45;&gt;N29 -->
<g id="edge2" class="edge"><title>N26&#45;&gt;N29</title>
<path fill="none" stroke="#2e3436" stroke-width="2" d="M73.2074,-164.141C69.1516,-152.953 63.8184,-138.24 59.3398,-125.886"/>
<polygon fill="#2e3436" stroke="#2e3436" stroke-width="2" points="56.6807,-118.55 62.4097,-124.451 58.4288,-121.905 59.7068,-125.431 59.2367,-125.601 58.7667,-125.772 57.4886,-122.246 56.0638,-126.751 56.6807,-118.55 56.6807,-118.55"/>
<text text-anchor="middle" x="78.5" y="-139.6" font-family="FreeSans" font-size="8.00" fill="#2e3436">knows</text>
</g>
<!-- N28 -->
<g id="node5" class="node"><title>N28</title>
<path fill="#ffffff" stroke="#2e3436" stroke-width="1.5" d="M142.5,-82.5C142.5,-82.5 224.5,-82.5 224.5,-82.5 230.5,-82.5 236.5,-88.5 236.5,-94.5 236.5,-94.5 236.5,-106.5 236.5,-106.5 236.5,-112.5 230.5,-118.5 224.5,-118.5 224.5,-118.5 142.5,-118.5 142.5,-118.5 136.5,-118.5 130.5,-112.5 130.5,-106.5 130.5,-106.5 130.5,-94.5 130.5,-94.5 130.5,-88.5 136.5,-82.5 142.5,-82.5"/>
<text text-anchor="start" x="138.5" y="-98.6" font-family="FreeSans" font-size="8.00" fill="#1c2021">Node[28]name = &#39;Tobias&#39;</text>
</g>
<!-- N26&#45;&gt;N28 -->
<g id="edge3" class="edge"><title>N26&#45;&gt;N28</title>
<path fill="none" stroke="#2e3436" stroke-width="2" d="M101.811,-164.338C117.439,-152.316 138.447,-136.156 155.246,-123.234"/>
<polygon fill="#2e3436" stroke="#2e3436" stroke-width="2" points="161.226,-118.634 157.339,-125.882 158.559,-121.316 155.586,-123.603 155.282,-123.206 154.977,-122.81 157.949,-120.524 153.224,-120.531 161.226,-118.634 161.226,-118.634"/>
<text text-anchor="middle" x="147.5" y="-139.6" font-family="FreeSans" font-size="8.00" fill="#2e3436">knows</text>
</g>
<!-- N28&#45;&gt;N24 -->
<g id="edge6" class="edge"><title>N28&#45;&gt;N24</title>
<path fill="none" stroke="#4e9a06" stroke-width="2" d="M183.5,-82.1412C183.5,-71.0583 183.5,-56.5177 183.5,-44.2358"/>
<polygon fill="#4e9a06" stroke="#4e9a06" stroke-width="2" points="183.5,-36.5501 186.875,-44.0501 184,-40.3001 184,-44.0501 183.5,-44.0501 183,-44.0501 183,-40.3001 180.125,-44.0501 183.5,-36.5501 183.5,-36.5501"/>
<text text-anchor="middle" x="193" y="-57.6" font-family="FreeSans" font-size="8.00" fill="#4e9a06">loves</text>
</g>
<!-- N27 -->
<g id="node6" class="node"><title>N27</title>
<path fill="#ffffff" stroke="#2e3436" stroke-width="1.5" d="M128,-328.5C128,-328.5 203,-328.5 203,-328.5 209,-328.5 215,-334.5 215,-340.5 215,-340.5 215,-352.5 215,-352.5 215,-358.5 209,-364.5 203,-364.5 203,-364.5 128,-364.5 128,-364.5 122,-364.5 116,-358.5 116,-352.5 116,-352.5 116,-340.5 116,-340.5 116,-334.5 122,-328.5 128,-328.5"/>
<text text-anchor="start" x="124" y="-344.6" font-family="FreeSans" font-size="8.00" fill="#1c2021">Node[27]name = &#39;Root&#39;</text>
</g>
<!-- N27&#45;&gt;N25 -->
<g id="edge4" class="edge"><title>N27&#45;&gt;N25</title>
<path fill="none" stroke="#2e3436" stroke-width="2" d="M146.839,-328.141C134.131,-316.319 117.193,-300.564 103.485,-287.811"/>
<polygon fill="#2e3436" stroke="#2e3436" stroke-width="2" points="97.8289,-282.55 105.619,-285.187 100.915,-284.738 103.661,-287.292 103.32,-287.658 102.98,-288.025 100.234,-285.47 101.022,-290.13 97.8289,-282.55 97.8289,-282.55"/>
<text text-anchor="middle" x="137.5" y="-303.6" font-family="FreeSans" font-size="8.00" fill="#2e3436">knows</text>
</g>
<!-- N30 -->
<g id="node7" class="node"><title>N30</title>
<path fill="#ffffff" stroke="#2e3436" stroke-width="1.5" d="M173,-246.5C173,-246.5 256,-246.5 256,-246.5 262,-246.5 268,-252.5 268,-258.5 268,-258.5 268,-270.5 268,-270.5 268,-276.5 262,-282.5 256,-282.5 256,-282.5 173,-282.5 173,-282.5 167,-282.5 161,-276.5 161,-270.5 161,-270.5 161,-258.5 161,-258.5 161,-252.5 167,-246.5 173,-246.5"/>
<text text-anchor="start" x="169" y="-262.6" font-family="FreeSans" font-size="8.00" fill="#1c2021">Node[30]name = &#39;Mattias&#39;</text>
</g>
<!-- N27&#45;&gt;N30 -->
<g id="edge5" class="edge"><title>N27&#45;&gt;N30</title>
<path fill="none" stroke="#2e3436" stroke-width="2" d="M176.132,-328.141C183.114,-316.742 192.337,-301.684 199.991,-289.189"/>
<polygon fill="#2e3436" stroke="#2e3436" stroke-width="2" points="204.057,-282.55 203.017,-290.709 202.524,-286.009 200.566,-289.207 200.139,-288.946 199.713,-288.685 201.672,-285.487 197.261,-287.183 204.057,-282.55 204.057,-282.55"/>
<text text-anchor="middle" x="203.5" y="-303.6" font-family="FreeSans" font-size="8.00" fill="#2e3436">knows</text>
</g>
</g>
</svg>
