<?xml version="1.0" encoding="UTF-8" standalone="no"?>
<!DOCTYPE svg PUBLIC "-//W3C//DTD SVG 1.1//EN"
 "http://www.w3.org/Graphics/SVG/1.1/DTD/svg11.dtd">
<!-- Generated by graphviz version 2.38.0 (20140413.2041)
 -->
<!-- Title: g Pages: 1 -->
<svg width="388pt" height="373pt"
 viewBox="0.00 0.00 388.00 373.00" xmlns="http://www.w3.org/2000/svg" xmlns:xlink="http://www.w3.org/1999/xlink">
<g id="graph0" class="graph" transform="scale(1 1) rotate(0) translate(4 369)">
<title>g</title>
<polygon fill="white" stroke="none" points="-4,4 -4,-369 384,-369 384,4 -4,4"/>
<!-- N10376 -->
<g id="node1" class="node"><title>N10376</title>
<path fill="#ffffff" stroke="#2e3436" stroke-width="1.5" d="M266,-82.5C266,-82.5 340,-82.5 340,-82.5 346,-82.5 352,-88.5 352,-94.5 352,-94.5 352,-106.5 352,-106.5 352,-112.5 346,-118.5 340,-118.5 340,-118.5 266,-118.5 266,-118.5 260,-118.5 254,-112.5 254,-106.5 254,-106.5 254,-94.5 254,-94.5 254,-88.5 260,-82.5 266,-82.5"/>
<text text-anchor="start" x="262" y="-98.6" font-family="FreeSans" font-size="8.00" fill="#1c2021">Node[10376]name = &#39;f&#39;</text>
</g>
<!-- N10377 -->
<g id="node2" class="node"><title>N10377</title>
<path fill="#ffffff" stroke="#2e3436" stroke-width="1.5" d="M145,-0.5C145,-0.5 221,-0.5 221,-0.5 227,-0.5 233,-6.5 233,-12.5 233,-12.5 233,-24.5 233,-24.5 233,-30.5 227,-36.5 221,-36.5 221,-36.5 145,-36.5 145,-36.5 139,-36.5 133,-30.5 133,-24.5 133,-24.5 133,-12.5 133,-12.5 133,-6.5 139,-0.5 145,-0.5"/>
<text text-anchor="start" x="141" y="-16.6" font-family="FreeSans" font-size="8.00" fill="#1c2021">Node[10377]name = &#39;g&#39;</text>
</g>
<!-- N10376&#45;&gt;N10377 -->
<g id="edge1" class="edge"><title>N10376&#45;&gt;N10377</title>
<path fill="none" stroke="#2e3436" stroke-width="2" d="M277.257,-82.338C259.066,-70.2109 234.558,-53.8721 215.092,-40.8948"/>
<polygon fill="#2e3436" stroke="#2e3436" stroke-width="2" points="208.7,-36.6336 216.813,-37.9857 212.098,-38.2977 215.218,-40.3779 214.941,-40.7939 214.663,-41.2099 211.543,-39.1298 213.069,-43.6021 208.7,-36.6336 208.7,-36.6336"/>
<text text-anchor="middle" x="249.5" y="-57.6" font-family="FreeSans" font-size="8.00" fill="#2e3436">to</text>
</g>
<!-- N10378 -->
<g id="node3" class="node"><title>N10378</title>
<path fill="#ffffff" stroke="#2e3436" stroke-width="1.5" d="M77,-164.5C77,-164.5 153,-164.5 153,-164.5 159,-164.5 165,-170.5 165,-176.5 165,-176.5 165,-188.5 165,-188.5 165,-194.5 159,-200.5 153,-200.5 153,-200.5 77,-200.5 77,-200.5 71,-200.5 65,-194.5 65,-188.5 65,-188.5 65,-176.5 65,-176.5 65,-170.5 71,-164.5 77,-164.5"/>
<text text-anchor="start" x="73" y="-180.6" font-family="FreeSans" font-size="8.00" fill="#1c2021">Node[10378]name = &#39;d&#39;</text>
</g>
<!-- N10378&#45;&gt;N10377 -->
<g id="edge3" class="edge"><title>N10378&#45;&gt;N10377</title>
<path fill="none" stroke="#2e3436" stroke-width="2" d="M122.149,-164.469C134.259,-135.619 158.846,-77.0431 172.775,-43.8595"/>
<polygon fill="#2e3436" stroke="#2e3436" stroke-width="2" points="175.742,-36.79 175.952,-45.0118 174.752,-40.4413 173.301,-43.8991 172.84,-43.7055 172.379,-43.512 173.83,-40.0543 169.728,-42.3992 175.742,-36.79 175.742,-36.79"/>
<text text-anchor="middle" x="159.5" y="-98.6" font-family="FreeSans" font-size="8.00" fill="#2e3436">to</text>
</g>
<!-- N10379 -->
<g id="node4" class="node"><title>N10379</title>
<path fill="#ffffff" stroke="#2e3436" stroke-width="1.5" d="M12,-82.5C12,-82.5 88,-82.5 88,-82.5 94,-82.5 100,-88.5 100,-94.5 100,-94.5 100,-106.5 100,-106.5 100,-112.5 94,-118.5 88,-118.5 88,-118.5 12,-118.5 12,-118.5 6,-118.5 0,-112.5 0,-106.5 0,-106.5 0,-94.5 0,-94.5 0,-88.5 6,-82.5 12,-82.5"/>
<text text-anchor="start" x="8" y="-98.6" font-family="FreeSans" font-size="8.00" fill="#1c2021">Node[10379]name = &#39;e&#39;</text>
</g>
<!-- N10378&#45;&gt;N10379 -->
<g id="edge2" class="edge"><title>N10378&#45;&gt;N10379</title>
<path fill="none" stroke="#2e3436" stroke-width="2" d="M100.896,-164.141C91.4623,-152.531 78.9453,-137.125 68.6853,-124.497"/>
<polygon fill="#2e3436" stroke="#2e3436" stroke-width="2" points="63.8532,-118.55 71.2021,-122.243 66.606,-121.145 68.9707,-124.056 68.5827,-124.371 68.1946,-124.686 65.8299,-121.776 65.9633,-126.499 63.8532,-118.55 63.8532,-118.55"/>
<text text-anchor="middle" x="88.5" y="-139.6" font-family="FreeSans" font-size="8.00" fill="#2e3436">to</text>
</g>
<!-- N10379&#45;&gt;N10377 -->
<g id="edge4" class="edge"><title>N10379&#45;&gt;N10377</title>
<path fill="none" stroke="#2e3436" stroke-width="2" d="M78.5318,-82.338C98.8684,-70.1055 126.329,-53.5876 147.993,-40.557"/>
<polygon fill="#2e3436" stroke="#2e3436" stroke-width="2" points="154.515,-36.6336 149.828,-43.3916 151.56,-38.995 148.346,-40.928 148.088,-40.4995 147.831,-40.071 151.044,-38.1381 146.349,-37.6074 154.515,-36.6336 154.515,-36.6336"/>
<text text-anchor="middle" x="124.5" y="-57.6" font-family="FreeSans" font-size="8.00" fill="#2e3436">to</text>
</g>
<!-- N10380 -->
<g id="node5" class="node"><title>N10380</title>
<path fill="#ffffff" stroke="#2e3436" stroke-width="1.5" d="M265,-164.5C265,-164.5 341,-164.5 341,-164.5 347,-164.5 353,-170.5 353,-176.5 353,-176.5 353,-188.5 353,-188.5 353,-194.5 347,-200.5 341,-200.5 341,-200.5 265,-200.5 265,-200.5 259,-200.5 253,-194.5 253,-188.5 253,-188.5 253,-176.5 253,-176.5 253,-170.5 259,-164.5 265,-164.5"/>
<text text-anchor="start" x="261" y="-180.6" font-family="FreeSans" font-size="8.00" fill="#1c2021">Node[10380]name = &#39;b&#39;</text>
</g>
<!-- N10380&#45;&gt;N10376 -->
<g id="edge5" class="edge"><title>N10380&#45;&gt;N10376</title>
<path fill="none" stroke="#2e3436" stroke-width="2" d="M303,-164.141C303,-153.058 303,-138.518 303,-126.236"/>
<polygon fill="#2e3436" stroke="#2e3436" stroke-width="2" points="303,-118.55 306.375,-126.05 303.5,-122.3 303.5,-126.05 303,-126.05 302.5,-126.05 302.5,-122.3 299.625,-126.05 303,-118.55 303,-118.55"/>
<text text-anchor="middle" x="306.5" y="-139.6" font-family="FreeSans" font-size="8.00" fill="#2e3436">to</text>
</g>
<!-- N10381 -->
<g id="node6" class="node"><title>N10381</title>
<path fill="#ffffff" stroke="#2e3436" stroke-width="1.5" d="M232,-246.5C232,-246.5 308,-246.5 308,-246.5 314,-246.5 320,-252.5 320,-258.5 320,-258.5 320,-270.5 320,-270.5 320,-276.5 314,-282.5 308,-282.5 308,-282.5 232,-282.5 232,-282.5 226,-282.5 220,-276.5 220,-270.5 220,-270.5 220,-258.5 220,-258.5 220,-252.5 226,-246.5 232,-246.5"/>
<text text-anchor="start" x="228" y="-262.6" font-family="FreeSans" font-size="8.00" fill="#1c2021">Node[10381]name = &#39;c&#39;</text>
</g>
<!-- N10381&#45;&gt;N10376 -->
<g id="edge6" class="edge"><title>N10381&#45;&gt;N10376</title>
<path fill="none" stroke="#2e3436" stroke-width="2" d="M315.517,-246.413C335.387,-236.409 356.697,-221.614 368,-201 375.906,-186.581 374.442,-179.13 368,-164 361.202,-148.032 348.102,-134.173 335.433,-123.591"/>
<polygon fill="#2e3436" stroke="#2e3436" stroke-width="2" points="329.278,-118.665 337.243,-120.716 332.519,-120.618 335.446,-122.961 335.134,-123.351 334.821,-123.742 331.894,-121.398 333.025,-125.986 329.278,-118.665 329.278,-118.665"/>
<text text-anchor="middle" x="376.5" y="-180.6" font-family="FreeSans" font-size="8.00" fill="#2e3436">to</text>
</g>
<!-- N10381&#45;&gt;N10377 -->
<g id="edge8" class="edge"><title>N10381&#45;&gt;N10377</title>
<path fill="none" stroke="#2e3436" stroke-width="2" d="M260.546,-246.332C253.969,-233.964 245.287,-216.748 239,-201 217.118,-146.191 198.462,-79.3122 189.216,-44.0251"/>
<polygon fill="#2e3436" stroke="#2e3436" stroke-width="2" points="187.283,-36.5797 192.435,-42.9905 188.709,-40.0836 189.652,-43.7132 189.168,-43.8389 188.684,-43.9646 187.741,-40.335 185.901,-44.6874 187.283,-36.5797 187.283,-36.5797"/>
<text text-anchor="middle" x="221.5" y="-139.6" font-family="FreeSans" font-size="8.00" fill="#2e3436">to</text>
</g>
<!-- N10381&#45;&gt;N10380 -->
<g id="edge7" class="edge"><title>N10381&#45;&gt;N10380</title>
<path fill="none" stroke="#2e3436" stroke-width="2" d="M277.161,-246.141C281.819,-234.847 287.959,-219.962 293.085,-207.536"/>
<polygon fill="#2e3436" stroke="#2e3436" stroke-width="2" points="295.967,-200.55 296.227,-208.77 294.999,-204.207 293.569,-207.674 293.107,-207.483 292.645,-207.293 294.075,-203.826 289.987,-206.196 295.967,-200.55 295.967,-200.55"/>
<text text-anchor="middle" x="290.5" y="-221.6" font-family="FreeSans" font-size="8.00" fill="#2e3436">to</text>
</g>
<!-- N10382 -->
<g id="node7" class="node"><title>N10382</title>
<path fill="#ffffff" stroke="#2e3436" stroke-width="1.5" d="M171,-328.5C171,-328.5 247,-328.5 247,-328.5 253,-328.5 259,-334.5 259,-340.5 259,-340.5 259,-352.5 259,-352.5 259,-358.5 253,-364.5 247,-364.5 247,-364.5 171,-364.5 171,-364.5 165,-364.5 159,-358.5 159,-352.5 159,-352.5 159,-340.5 159,-340.5 159,-334.5 165,-328.5 171,-328.5"/>
<text text-anchor="start" x="167" y="-344.6" font-family="FreeSans" font-size="8.00" fill="#1c2021">Node[10382]name = &#39;a&#39;</text>
</g>
<!-- N10382&#45;&gt;N10378 -->
<g id="edge10" class="edge"><title>N10382&#45;&gt;N10378</title>
<path fill="none" stroke="#2e3436" stroke-width="2" d="M199.118,-328.469C182.307,-299.498 148.103,-240.55 128.893,-207.443"/>
<polygon fill="#2e3436" stroke="#2e3436" stroke-width="2" points="125.032,-200.79 131.716,-205.583 127.347,-203.783 129.229,-207.026 128.797,-207.277 128.364,-207.528 126.482,-204.285 125.877,-208.971 125.032,-200.79 125.032,-200.79"/>
<text text-anchor="middle" x="175.5" y="-262.6" font-family="FreeSans" font-size="8.00" fill="#2e3436">to</text>
</g>
<!-- N10382&#45;&gt;N10381 -->
<g id="edge9" class="edge"><title>N10382&#45;&gt;N10381</title>
<path fill="none" stroke="#2e3436" stroke-width="2" d="M222.236,-328.141C231.009,-316.636 242.623,-301.405 252.201,-288.842"/>
<polygon fill="#2e3436" stroke="#2e3436" stroke-width="2" points="256.999,-282.55 255.136,-290.561 255.123,-285.835 252.849,-288.817 252.452,-288.514 252.054,-288.211 254.328,-285.229 249.768,-286.468 256.999,-282.55 256.999,-282.55"/>
<text text-anchor="middle" x="244.5" y="-303.6" font-family="FreeSans" font-size="8.00" fill="#2e3436">to</text>
</g>
</g>
</svg>
