<?xml version="1.0" encoding="UTF-8" standalone="no"?>
<!DOCTYPE svg PUBLIC "-//W3C//DTD SVG 1.1//EN"
 "http://www.w3.org/Graphics/SVG/1.1/DTD/svg11.dtd">
<!-- Generated by graphviz version 2.38.0 (20140413.2041)
 -->
<!-- Title: g Pages: 1 -->
<svg width="400pt" height="45pt"
 viewBox="0.00 0.00 400.00 45.00" xmlns="http://www.w3.org/2000/svg" xmlns:xlink="http://www.w3.org/1999/xlink">
<g id="graph0" class="graph" transform="scale(1 1) rotate(0) translate(4 41)">
<title>g</title>
<polygon fill="white" stroke="none" points="-4,4 -4,-41 396,-41 396,4 -4,4"/>
<!-- N12 -->
<g id="node1" class="node"><title>N12</title>
<path fill="#ffffff" stroke="#2e3436" stroke-width="1.5" d="M12,-0.5C12,-0.5 98,-0.5 98,-0.5 104,-0.5 110,-6.5 110,-12.5 110,-12.5 110,-24.5 110,-24.5 110,-30.5 104,-36.5 98,-36.5 98,-36.5 12,-36.5 12,-36.5 6,-36.5 0,-30.5 0,-24.5 0,-24.5 0,-12.5 0,-12.5 0,-6.5 6,-0.5 12,-0.5"/>
<text text-anchor="middle" x="55" y="-25.6" font-family="FreeSans" font-size="8.00" fill="#1c2021">Node[12]: Director</text>
<polyline fill="none" stroke="#2e3436" stroke-width="1.5" points="0,-18.5 110,-18.5 "/>
<text text-anchor="start" x="8" y="-7.6" font-family="FreeSans" font-size="8.00" fill="#1c2021">name = &#39;Steven Spielberg&#39;</text>
</g>
<!-- N13 -->
<g id="node2" class="node"><title>N13</title>
<path fill="#ffffff" stroke="#2e3436" stroke-width="1.5" d="M151.5,-0.5C151.5,-0.5 234.5,-0.5 234.5,-0.5 240.5,-0.5 246.5,-6.5 246.5,-12.5 246.5,-12.5 246.5,-24.5 246.5,-24.5 246.5,-30.5 240.5,-36.5 234.5,-36.5 234.5,-36.5 151.5,-36.5 151.5,-36.5 145.5,-36.5 139.5,-30.5 139.5,-24.5 139.5,-24.5 139.5,-12.5 139.5,-12.5 139.5,-6.5 145.5,-0.5 151.5,-0.5"/>
<text text-anchor="middle" x="193" y="-25.6" font-family="FreeSans" font-size="8.00" fill="#1c2021">Node[13]: Actor, Director</text>
<polyline fill="none" stroke="#2e3436" stroke-width="1.5" points="139.5,-18.5 246.5,-18.5 "/>
<text text-anchor="start" x="147.5" y="-7.6" font-family="FreeSans" font-size="8.00" fill="#1c2021">name = &#39;Clint Eastwood&#39;</text>
</g>
<!-- N14 -->
<g id="node3" class="node"><title>N14</title>
<path fill="#ffffff" stroke="#2e3436" stroke-width="1.5" d="M288,-0.5C288,-0.5 380,-0.5 380,-0.5 386,-0.5 392,-6.5 392,-12.5 392,-12.5 392,-24.5 392,-24.5 392,-30.5 386,-36.5 380,-36.5 380,-36.5 288,-36.5 288,-36.5 282,-36.5 276,-30.5 276,-24.5 276,-24.5 276,-12.5 276,-12.5 276,-6.5 282,-0.5 288,-0.5"/>
<text text-anchor="middle" x="334" y="-25.6" font-family="FreeSans" font-size="8.00" fill="#1c2021">Node[14]: Actor</text>
<polyline fill="none" stroke="#2e3436" stroke-width="1.5" points="276,-18.5 392,-18.5 "/>
<text text-anchor="start" x="284" y="-7.6" font-family="FreeSans" font-size="8.00" fill="#1c2021">name = &#39;Donald Sutherland&#39;</text>
</g>
</g>
</svg>
