<?xml version="1.0" encoding="UTF-8" standalone="no"?>
<!DOCTYPE svg PUBLIC "-//W3C//DTD SVG 1.1//EN"
 "http://www.w3.org/Graphics/SVG/1.1/DTD/svg11.dtd">
<!-- Generated by graphviz version 2.38.0 (20140413.2041)
 -->
<!-- Title: g Pages: 1 -->
<svg width="117pt" height="136pt"
 viewBox="0.00 0.00 117.00 136.00" xmlns="http://www.w3.org/2000/svg" xmlns:xlink="http://www.w3.org/1999/xlink">
<g id="graph0" class="graph" transform="scale(1 1) rotate(0) translate(4 132)">
<title>g</title>
<polygon fill="white" stroke="none" points="-4,4 -4,-132 113,-132 113,4 -4,4"/>
<!-- N10413 -->
<g id="node1" class="node"><title>N10413</title>
<path fill="#ffffff" stroke="#2e3436" stroke-width="1.5" d="M12,-91.5C12,-91.5 97,-91.5 97,-91.5 103,-91.5 109,-97.5 109,-103.5 109,-103.5 109,-115.5 109,-115.5 109,-121.5 103,-127.5 97,-127.5 97,-127.5 12,-127.5 12,-127.5 6,-127.5 0,-121.5 0,-115.5 0,-115.5 0,-103.5 0,-103.5 0,-97.5 6,-91.5 12,-91.5"/>
<text text-anchor="start" x="8" y="-107.6" font-family="FreeSans" font-size="8.00" fill="#1c2021">Node[10413]name = &#39;bob&#39;</text>
</g>
<!-- N10414 -->
<g id="node2" class="node"><title>N10414</title>
<path fill="#ffffff" stroke="#2e3436" stroke-width="1.5" d="M19,-0.5C19,-0.5 90,-0.5 90,-0.5 96,-0.5 102,-6.5 102,-12.5 102,-12.5 102,-24.5 102,-24.5 102,-30.5 96,-36.5 90,-36.5 90,-36.5 19,-36.5 19,-36.5 13,-36.5 7,-30.5 7,-24.5 7,-24.5 7,-12.5 7,-12.5 7,-6.5 13,-0.5 19,-0.5"/>
<text text-anchor="start" x="15" y="-16.6" font-family="FreeSans" font-size="8.00" fill="#1c2021">Node[10414]age = 12</text>
</g>
<!-- N10413&#45;&gt;N10414 -->
<g id="edge1" class="edge"><title>N10413&#45;&gt;N10414</title>
<path fill="none" stroke="#2e3436" stroke-width="2" d="M54.5,-91.3399C54.5,-78.0425 54.5,-59.4274 54.5,-44.4783"/>
<polygon fill="#2e3436" stroke="#2e3436" stroke-width="2" points="54.5,-36.6074 57.8751,-44.1074 55,-40.3574 55.0001,-44.1074 54.5001,-44.1074 54.0001,-44.1074 54,-40.3574 51.1251,-44.1075 54.5,-36.6074 54.5,-36.6074"/>
<text text-anchor="middle" x="79" y="-66.6" font-family="FreeSans" font-size="8.00" fill="#2e3436">KNOWS</text>
<text text-anchor="start" x="54.5" y="-57.6" font-family="FreeSans" font-size="8.00" fill="#2e3436">since = &#39;2010&#39;</text>
</g>
</g>
</svg>
