<?xml version="1.0" encoding="UTF-8" standalone="no"?>
<!DOCTYPE svg PUBLIC "-//W3C//DTD SVG 1.1//EN"
 "http://www.w3.org/Graphics/SVG/1.1/DTD/svg11.dtd">
<!-- Generated by graphviz version 2.38.0 (20140413.2041)
 -->
<!-- Title: g Pages: 1 -->
<svg width="79pt" height="136pt"
 viewBox="0.00 0.00 79.00 136.00" xmlns="http://www.w3.org/2000/svg" xmlns:xlink="http://www.w3.org/1999/xlink">
<g id="graph0" class="graph" transform="scale(1 1) rotate(0) translate(4 132)">
<title>g</title>
<polygon fill="white" stroke="none" points="-4,4 -4,-132 75,-132 75,4 -4,4"/>
<!-- N8 -->
<g id="node1" class="node"><title>N8</title>
<path fill="#ffffff" stroke="#2e3436" stroke-width="1.5" d="M12,-91.5C12,-91.5 42,-91.5 42,-91.5 48,-91.5 54,-97.5 54,-103.5 54,-103.5 54,-115.5 54,-115.5 54,-121.5 48,-127.5 42,-127.5 42,-127.5 12,-127.5 12,-127.5 6,-127.5 0,-121.5 0,-115.5 0,-115.5 0,-103.5 0,-103.5 0,-97.5 6,-91.5 12,-91.5"/>
<text text-anchor="middle" x="27" y="-107.6" font-family="FreeSans" font-size="8.00" fill="#1c2021">Node[8]</text>
</g>
<!-- N9 -->
<g id="node2" class="node"><title>N9</title>
<path fill="#ffffff" stroke="#2e3436" stroke-width="1.5" d="M12,-0.5C12,-0.5 42,-0.5 42,-0.5 48,-0.5 54,-6.5 54,-12.5 54,-12.5 54,-24.5 54,-24.5 54,-30.5 48,-36.5 42,-36.5 42,-36.5 12,-36.5 12,-36.5 6,-36.5 0,-30.5 0,-24.5 0,-24.5 0,-12.5 0,-12.5 0,-6.5 6,-0.5 12,-0.5"/>
<text text-anchor="middle" x="27" y="-16.6" font-family="FreeSans" font-size="8.00" fill="#1c2021">Node[9]</text>
</g>
<!-- N8&#45;&gt;N9 -->
<g id="edge1" class="edge"><title>N8&#45;&gt;N9</title>
<path fill="none" stroke="#2e3436" stroke-width="2" d="M27,-91.3399C27,-78.0425 27,-59.4274 27,-44.4783"/>
<polygon fill="#2e3436" stroke="#2e3436" stroke-width="2" points="27,-36.6074 30.3751,-44.1074 27.5,-40.3574 27.5001,-44.1074 27.0001,-44.1074 26.5001,-44.1074 26.5,-40.3574 23.6251,-44.1075 27,-36.6074 27,-36.6074"/>
<text text-anchor="middle" x="49" y="-66.6" font-family="FreeSans" font-size="8.00" fill="#2e3436">KNOWS</text>
<text text-anchor="start" x="27" y="-57.6" font-family="FreeSans" font-size="8.00" fill="#2e3436">jim = &#39;tobias&#39;</text>
</g>
</g>
</svg>
