<?xml version="1.0" encoding="UTF-8" standalone="no"?>
<!DOCTYPE svg PUBLIC "-//W3C//DTD SVG 1.1//EN"
 "http://www.w3.org/Graphics/SVG/1.1/DTD/svg11.dtd">
<!-- Generated by graphviz version 2.38.0 (20140413.2041)
 -->
<!-- Title: g Pages: 1 -->
<svg width="281pt" height="337pt"
 viewBox="0.00 0.00 281.00 337.00" xmlns="http://www.w3.org/2000/svg" xmlns:xlink="http://www.w3.org/1999/xlink">
<g id="graph0" class="graph" transform="scale(1 1) rotate(0) translate(4 333)">
<title>g</title>
<polygon fill="white" stroke="none" points="-4,4 -4,-333 277,-333 277,4 -4,4"/>
<!-- N33 -->
<g id="node1" class="node"><title>N33</title>
<path fill="#ffffff" stroke="#2e3436" stroke-width="1.5" d="M12,-146.5C12,-146.5 72,-146.5 72,-146.5 78,-146.5 84,-152.5 84,-158.5 84,-158.5 84,-170.5 84,-170.5 84,-176.5 78,-182.5 72,-182.5 72,-182.5 12,-182.5 12,-182.5 6,-182.5 0,-176.5 0,-170.5 0,-170.5 0,-158.5 0,-158.5 0,-152.5 6,-146.5 12,-146.5"/>
<text text-anchor="start" x="8" y="-162.6" font-family="FreeSans" font-size="8.00" fill="#1c2021">Node[33]name = &#39;f&#39;</text>
</g>
<!-- N35 -->
<g id="node2" class="node"><title>N35</title>
<path fill="#ffffff" stroke="#2e3436" stroke-width="1.5" d="M98,-0.5C98,-0.5 160,-0.5 160,-0.5 166,-0.5 172,-6.5 172,-12.5 172,-12.5 172,-24.5 172,-24.5 172,-30.5 166,-36.5 160,-36.5 160,-36.5 98,-36.5 98,-36.5 92,-36.5 86,-30.5 86,-24.5 86,-24.5 86,-12.5 86,-12.5 86,-6.5 92,-0.5 98,-0.5"/>
<text text-anchor="start" x="94" y="-16.6" font-family="FreeSans" font-size="8.00" fill="#1c2021">Node[35]name = &#39;e&#39;</text>
</g>
<!-- N33&#45;&gt;N35 -->
<g id="edge1" class="edge"><title>N33&#45;&gt;N35</title>
<path fill="none" stroke="#2e3436" stroke-width="2" d="M52.3217,-146.416C67.8229,-120.759 97.1632,-72.1954 114.712,-43.1495"/>
<polygon fill="#2e3436" stroke="#2e3436" stroke-width="2" points="118.692,-36.5619 117.702,-44.7266 117.18,-40.0302 115.241,-43.2399 114.813,-42.9813 114.385,-42.7228 116.325,-39.5131 111.925,-41.236 118.692,-36.5619 118.692,-36.5619"/>
<text text-anchor="middle" x="100.5" y="-112.1" font-family="FreeSans" font-size="8.00" fill="#2e3436">to</text>
<text text-anchor="start" x="86" y="-103.1" font-family="FreeSans" font-size="8.00" fill="#2e3436">cost = 1</text>
</g>
<!-- N34 -->
<g id="node3" class="node"><title>N34</title>
<path fill="#ffffff" stroke="#2e3436" stroke-width="1.5" d="M199,-91.5C199,-91.5 261,-91.5 261,-91.5 267,-91.5 273,-97.5 273,-103.5 273,-103.5 273,-115.5 273,-115.5 273,-121.5 267,-127.5 261,-127.5 261,-127.5 199,-127.5 199,-127.5 193,-127.5 187,-121.5 187,-115.5 187,-115.5 187,-103.5 187,-103.5 187,-97.5 193,-91.5 199,-91.5"/>
<text text-anchor="start" x="195" y="-107.6" font-family="FreeSans" font-size="8.00" fill="#1c2021">Node[34]name = &#39;d&#39;</text>
</g>
<!-- N34&#45;&gt;N35 -->
<g id="edge2" class="edge"><title>N34&#45;&gt;N35</title>
<path fill="none" stroke="#2e3436" stroke-width="2" d="M210.526,-91.3399C194.458,-77.1806 171.547,-56.992 154.103,-41.6202"/>
<polygon fill="#2e3436" stroke="#2e3436" stroke-width="2" points="148.414,-36.6074 156.272,-39.0337 151.558,-38.7115 154.372,-41.1908 154.041,-41.5659 153.711,-41.9411 150.897,-39.4618 151.81,-44.0981 148.414,-36.6074 148.414,-36.6074"/>
<text text-anchor="middle" x="202.5" y="-66.6" font-family="FreeSans" font-size="8.00" fill="#2e3436">to</text>
<text text-anchor="start" x="188" y="-57.6" font-family="FreeSans" font-size="8.00" fill="#2e3436">cost = 1</text>
</g>
<!-- N36 -->
<g id="node4" class="node"><title>N36</title>
<path fill="#ffffff" stroke="#2e3436" stroke-width="1.5" d="M101,-146.5C101,-146.5 163,-146.5 163,-146.5 169,-146.5 175,-152.5 175,-158.5 175,-158.5 175,-170.5 175,-170.5 175,-176.5 169,-182.5 163,-182.5 163,-182.5 101,-182.5 101,-182.5 95,-182.5 89,-176.5 89,-170.5 89,-170.5 89,-158.5 89,-158.5 89,-152.5 95,-146.5 101,-146.5"/>
<text text-anchor="start" x="97" y="-162.6" font-family="FreeSans" font-size="8.00" fill="#1c2021">Node[36]name = &#39;b&#39;</text>
</g>
<!-- N36&#45;&gt;N35 -->
<g id="edge3" class="edge"><title>N36&#45;&gt;N35</title>
<path fill="none" stroke="#2e3436" stroke-width="2" d="M131.644,-146.416C131.116,-121.083 130.123,-73.4212 129.516,-44.2618"/>
<polygon fill="#2e3436" stroke="#2e3436" stroke-width="2" points="129.355,-36.5619 132.886,-43.99 129.934,-40.3007 130.012,-44.0499 129.512,-44.0603 129.012,-44.0707 128.934,-40.3215 126.138,-44.1306 129.355,-36.5619 129.355,-36.5619"/>
<text text-anchor="middle" x="145.5" y="-112.1" font-family="FreeSans" font-size="8.00" fill="#2e3436">to</text>
<text text-anchor="start" x="131" y="-103.1" font-family="FreeSans" font-size="8.00" fill="#2e3436">cost = 1</text>
</g>
<!-- N37 -->
<g id="node5" class="node"><title>N37</title>
<path fill="#ffffff" stroke="#2e3436" stroke-width="1.5" d="M191,-201.5C191,-201.5 253,-201.5 253,-201.5 259,-201.5 265,-207.5 265,-213.5 265,-213.5 265,-225.5 265,-225.5 265,-231.5 259,-237.5 253,-237.5 253,-237.5 191,-237.5 191,-237.5 185,-237.5 179,-231.5 179,-225.5 179,-225.5 179,-213.5 179,-213.5 179,-207.5 185,-201.5 191,-201.5"/>
<text text-anchor="start" x="187" y="-217.6" font-family="FreeSans" font-size="8.00" fill="#1c2021">Node[37]name = &#39;c&#39;</text>
</g>
<!-- N37&#45;&gt;N34 -->
<g id="edge4" class="edge"><title>N37&#45;&gt;N34</title>
<path fill="none" stroke="#2e3436" stroke-width="2" d="M223.285,-201.148C224.603,-183.356 226.666,-155.513 228.157,-135.378"/>
<polygon fill="#2e3436" stroke="#2e3436" stroke-width="2" points="228.718,-127.809 231.53,-135.538 228.939,-131.586 228.662,-135.325 228.164,-135.289 227.665,-135.252 227.942,-131.512 224.798,-135.039 228.718,-127.809 228.718,-127.809"/>
<text text-anchor="middle" x="241.5" y="-167.1" font-family="FreeSans" font-size="8.00" fill="#2e3436">to</text>
<text text-anchor="start" x="227" y="-158.1" font-family="FreeSans" font-size="8.00" fill="#2e3436">cost = 1</text>
</g>
<!-- N38 -->
<g id="node6" class="node"><title>N38</title>
<path fill="#ffffff" stroke="#2e3436" stroke-width="1.5" d="M101,-292.5C101,-292.5 163,-292.5 163,-292.5 169,-292.5 175,-298.5 175,-304.5 175,-304.5 175,-316.5 175,-316.5 175,-322.5 169,-328.5 163,-328.5 163,-328.5 101,-328.5 101,-328.5 95,-328.5 89,-322.5 89,-316.5 89,-316.5 89,-304.5 89,-304.5 89,-298.5 95,-292.5 101,-292.5"/>
<text text-anchor="start" x="97" y="-308.6" font-family="FreeSans" font-size="8.00" fill="#1c2021">Node[38]name = &#39;a&#39;</text>
</g>
<!-- N38&#45;&gt;N33 -->
<g id="edge7" class="edge"><title>N38&#45;&gt;N33</title>
<path fill="none" stroke="#2e3436" stroke-width="2" d="M112.067,-292.147C106.461,-286.684 100.636,-280.397 96,-274 76.6148,-247.25 60.6957,-212.5 51.283,-189.625"/>
<polygon fill="#2e3436" stroke="#2e3436" stroke-width="2" points="48.4594,-182.64 54.3994,-188.328 50.3284,-185.929 51.734,-189.406 51.2704,-189.593 50.8069,-189.781 49.4013,-186.304 48.1414,-190.858 48.4594,-182.64 48.4594,-182.64"/>
<text text-anchor="middle" x="110.5" y="-267.6" font-family="FreeSans" font-size="8.00" fill="#2e3436">to</text>
<text text-anchor="start" x="96" y="-258.6" font-family="FreeSans" font-size="8.00" fill="#2e3436">cost = 1</text>
</g>
<!-- N38&#45;&gt;N36 -->
<g id="edge6" class="edge"><title>N38&#45;&gt;N36</title>
<path fill="none" stroke="#2e3436" stroke-width="2" d="M132,-292.416C132,-267.083 132,-219.421 132,-190.262"/>
<polygon fill="#2e3436" stroke="#2e3436" stroke-width="2" points="132,-182.562 135.375,-190.062 132.5,-186.312 132.5,-190.062 132,-190.062 131.5,-190.062 131.5,-186.312 128.625,-190.062 132,-182.562 132,-182.562"/>
<text text-anchor="middle" x="146.5" y="-267.6" font-family="FreeSans" font-size="8.00" fill="#2e3436">to</text>
<text text-anchor="start" x="132" y="-258.6" font-family="FreeSans" font-size="8.00" fill="#2e3436">cost = 1</text>
</g>
<!-- N38&#45;&gt;N37 -->
<g id="edge5" class="edge"><title>N38&#45;&gt;N37</title>
<path fill="none" stroke="#2e3436" stroke-width="2" d="M149.586,-292.174C155.446,-286.397 162.007,-279.924 168,-274 178.2,-263.918 189.471,-252.755 199.065,-243.246"/>
<polygon fill="#2e3436" stroke="#2e3436" stroke-width="2" points="204.5,-237.858 201.55,-245.535 202.189,-240.853 199.526,-243.493 199.174,-243.138 198.822,-242.783 201.485,-240.143 196.798,-240.741 204.5,-237.858 204.5,-237.858"/>
<text text-anchor="middle" x="199.5" y="-267.6" font-family="FreeSans" font-size="8.00" fill="#2e3436">to</text>
<text text-anchor="start" x="185" y="-258.6" font-family="FreeSans" font-size="8.00" fill="#2e3436">cost = 1</text>
</g>
</g>
</svg>
