<?xml version="1.0" encoding="UTF-8" standalone="no"?>
<!DOCTYPE svg PUBLIC "-//W3C//DTD SVG 1.1//EN"
 "http://www.w3.org/Graphics/SVG/1.1/DTD/svg11.dtd">
<!-- Generated by graphviz version 2.38.0 (20140413.2041)
 -->
<!-- Title: g Pages: 1 -->
<svg width="316pt" height="337pt"
 viewBox="0.00 0.00 316.00 337.00" xmlns="http://www.w3.org/2000/svg" xmlns:xlink="http://www.w3.org/1999/xlink">
<g id="graph0" class="graph" transform="scale(1 1) rotate(0) translate(4 333)">
<title>g</title>
<polygon fill="white" stroke="none" points="-4,4 -4,-333 312,-333 312,4 -4,4"/>
<!-- N10390 -->
<g id="node1" class="node"><title>N10390</title>
<path fill="#ffffff" stroke="#2e3436" stroke-width="1.5" d="M12,-146.5C12,-146.5 86,-146.5 86,-146.5 92,-146.5 98,-152.5 98,-158.5 98,-158.5 98,-170.5 98,-170.5 98,-176.5 92,-182.5 86,-182.5 86,-182.5 12,-182.5 12,-182.5 6,-182.5 0,-176.5 0,-170.5 0,-170.5 0,-158.5 0,-158.5 0,-152.5 6,-146.5 12,-146.5"/>
<text text-anchor="start" x="8" y="-162.6" font-family="FreeSans" font-size="8.00" fill="#1c2021">Node[10390]name = &#39;f&#39;</text>
</g>
<!-- N10392 -->
<g id="node2" class="node"><title>N10392</title>
<path fill="#ffffff" stroke="#2e3436" stroke-width="1.5" d="M105,-0.5C105,-0.5 181,-0.5 181,-0.5 187,-0.5 193,-6.5 193,-12.5 193,-12.5 193,-24.5 193,-24.5 193,-30.5 187,-36.5 181,-36.5 181,-36.5 105,-36.5 105,-36.5 99,-36.5 93,-30.5 93,-24.5 93,-24.5 93,-12.5 93,-12.5 93,-6.5 99,-0.5 105,-0.5"/>
<text text-anchor="start" x="101" y="-16.6" font-family="FreeSans" font-size="8.00" fill="#1c2021">Node[10392]name = &#39;e&#39;</text>
</g>
<!-- N10390&#45;&gt;N10392 -->
<g id="edge1" class="edge"><title>N10390&#45;&gt;N10392</title>
<path fill="none" stroke="#2e3436" stroke-width="2" d="M60.1522,-146.416C76.9006,-120.759 108.602,-72.1954 127.562,-43.1495"/>
<polygon fill="#2e3436" stroke="#2e3436" stroke-width="2" points="131.862,-36.5619 130.589,-44.6872 130.231,-39.9754 128.181,-43.1156 127.763,-42.8423 127.344,-42.569 129.394,-39.4288 124.936,-40.9974 131.862,-36.5619 131.862,-36.5619"/>
<text text-anchor="middle" x="114" y="-112.1" font-family="FreeSans" font-size="8.00" fill="#2e3436">to</text>
<text text-anchor="start" x="96" y="-103.1" font-family="FreeSans" font-size="8.00" fill="#2e3436">cost = 1.2</text>
</g>
<!-- N10391 -->
<g id="node3" class="node"><title>N10391</title>
<path fill="#ffffff" stroke="#2e3436" stroke-width="1.5" d="M220,-91.5C220,-91.5 296,-91.5 296,-91.5 302,-91.5 308,-97.5 308,-103.5 308,-103.5 308,-115.5 308,-115.5 308,-121.5 302,-127.5 296,-127.5 296,-127.5 220,-127.5 220,-127.5 214,-127.5 208,-121.5 208,-115.5 208,-115.5 208,-103.5 208,-103.5 208,-97.5 214,-91.5 220,-91.5"/>
<text text-anchor="start" x="216" y="-107.6" font-family="FreeSans" font-size="8.00" fill="#1c2021">Node[10391]name = &#39;d&#39;</text>
</g>
<!-- N10391&#45;&gt;N10392 -->
<g id="edge2" class="edge"><title>N10391&#45;&gt;N10392</title>
<path fill="none" stroke="#2e3436" stroke-width="2" d="M235.827,-91.3399C217.372,-77.0575 190.991,-56.6405 171.066,-41.2203"/>
<polygon fill="#2e3436" stroke="#2e3436" stroke-width="2" points="165.105,-36.6074 173.102,-38.5286 168.377,-38.5071 171.342,-40.8023 171.036,-41.1977 170.73,-41.5931 167.765,-39.298 168.971,-43.8668 165.105,-36.6074 165.105,-36.6074"/>
<text text-anchor="middle" x="228" y="-66.6" font-family="FreeSans" font-size="8.00" fill="#2e3436">to</text>
<text text-anchor="start" x="210" y="-57.6" font-family="FreeSans" font-size="8.00" fill="#2e3436">cost = 0.5</text>
</g>
<!-- N10393 -->
<g id="node4" class="node"><title>N10393</title>
<path fill="#ffffff" stroke="#2e3436" stroke-width="1.5" d="M115,-146.5C115,-146.5 191,-146.5 191,-146.5 197,-146.5 203,-152.5 203,-158.5 203,-158.5 203,-170.5 203,-170.5 203,-176.5 197,-182.5 191,-182.5 191,-182.5 115,-182.5 115,-182.5 109,-182.5 103,-176.5 103,-170.5 103,-170.5 103,-158.5 103,-158.5 103,-152.5 109,-146.5 115,-146.5"/>
<text text-anchor="start" x="111" y="-162.6" font-family="FreeSans" font-size="8.00" fill="#1c2021">Node[10393]name = &#39;b&#39;</text>
</g>
<!-- N10393&#45;&gt;N10392 -->
<g id="edge3" class="edge"><title>N10393&#45;&gt;N10392</title>
<path fill="none" stroke="#2e3436" stroke-width="2" d="M151.814,-146.416C150.054,-121.083 146.745,-73.4212 144.72,-44.2618"/>
<polygon fill="#2e3436" stroke="#2e3436" stroke-width="2" points="144.185,-36.5619 148.071,-43.8101 144.943,-40.2683 145.203,-44.0093 144.705,-44.0439 144.206,-44.0786 143.946,-40.3376 141.338,-44.2778 144.185,-36.5619 144.185,-36.5619"/>
<text text-anchor="middle" x="168" y="-112.1" font-family="FreeSans" font-size="8.00" fill="#2e3436">to</text>
<text text-anchor="start" x="150" y="-103.1" font-family="FreeSans" font-size="8.00" fill="#2e3436">cost = 0.5</text>
</g>
<!-- N10394 -->
<g id="node5" class="node"><title>N10394</title>
<path fill="#ffffff" stroke="#2e3436" stroke-width="1.5" d="M212,-201.5C212,-201.5 288,-201.5 288,-201.5 294,-201.5 300,-207.5 300,-213.5 300,-213.5 300,-225.5 300,-225.5 300,-231.5 294,-237.5 288,-237.5 288,-237.5 212,-237.5 212,-237.5 206,-237.5 200,-231.5 200,-225.5 200,-225.5 200,-213.5 200,-213.5 200,-207.5 206,-201.5 212,-201.5"/>
<text text-anchor="start" x="208" y="-217.6" font-family="FreeSans" font-size="8.00" fill="#1c2021">Node[10394]name = &#39;c&#39;</text>
</g>
<!-- N10394&#45;&gt;N10391 -->
<g id="edge4" class="edge"><title>N10394&#45;&gt;N10391</title>
<path fill="none" stroke="#2e3436" stroke-width="2" d="M251.285,-201.148C252.603,-183.356 254.666,-155.513 256.157,-135.378"/>
<polygon fill="#2e3436" stroke="#2e3436" stroke-width="2" points="256.718,-127.809 259.53,-135.538 256.939,-131.586 256.662,-135.325 256.164,-135.289 255.665,-135.252 255.942,-131.512 252.798,-135.039 256.718,-127.809 256.718,-127.809"/>
<text text-anchor="middle" x="273" y="-167.1" font-family="FreeSans" font-size="8.00" fill="#2e3436">to</text>
<text text-anchor="start" x="255" y="-158.1" font-family="FreeSans" font-size="8.00" fill="#2e3436">cost = 0.5</text>
</g>
<!-- N10395 -->
<g id="node6" class="node"><title>N10395</title>
<path fill="#ffffff" stroke="#2e3436" stroke-width="1.5" d="M115,-292.5C115,-292.5 191,-292.5 191,-292.5 197,-292.5 203,-298.5 203,-304.5 203,-304.5 203,-316.5 203,-316.5 203,-322.5 197,-328.5 191,-328.5 191,-328.5 115,-328.5 115,-328.5 109,-328.5 103,-322.5 103,-316.5 103,-316.5 103,-304.5 103,-304.5 103,-298.5 109,-292.5 115,-292.5"/>
<text text-anchor="start" x="111" y="-308.6" font-family="FreeSans" font-size="8.00" fill="#1c2021">Node[10395]name = &#39;a&#39;</text>
</g>
<!-- N10395&#45;&gt;N10390 -->
<g id="edge6" class="edge"><title>N10395&#45;&gt;N10390</title>
<path fill="none" stroke="#2e3436" stroke-width="2" d="M128.81,-292.144C122.253,-286.772 115.465,-280.535 110,-274 88.2357,-247.971 70.2228,-213.058 59.5464,-189.948"/>
<polygon fill="#2e3436" stroke="#2e3436" stroke-width="2" points="56.3423,-182.886 62.5146,-188.322 58.347,-186.095 59.8964,-189.51 59.4411,-189.716 58.9858,-189.923 57.4364,-186.508 56.3676,-191.111 56.3423,-182.886 56.3423,-182.886"/>
<text text-anchor="middle" x="128" y="-267.6" font-family="FreeSans" font-size="8.00" fill="#2e3436">to</text>
<text text-anchor="start" x="110" y="-258.6" font-family="FreeSans" font-size="8.00" fill="#2e3436">cost = 0.5</text>
</g>
<!-- N10395&#45;&gt;N10393 -->
<g id="edge7" class="edge"><title>N10395&#45;&gt;N10393</title>
<path fill="none" stroke="#2e3436" stroke-width="2" d="M153,-292.416C153,-267.083 153,-219.421 153,-190.262"/>
<polygon fill="#2e3436" stroke="#2e3436" stroke-width="2" points="153,-182.562 156.375,-190.062 153.5,-186.312 153.5,-190.062 153,-190.062 152.5,-190.062 152.5,-186.312 149.625,-190.062 153,-182.562 153,-182.562"/>
<text text-anchor="middle" x="171" y="-267.6" font-family="FreeSans" font-size="8.00" fill="#2e3436">to</text>
<text text-anchor="start" x="153" y="-258.6" font-family="FreeSans" font-size="8.00" fill="#2e3436">cost = 1.5</text>
</g>
<!-- N10395&#45;&gt;N10394 -->
<g id="edge5" class="edge"><title>N10395&#45;&gt;N10394</title>
<path fill="none" stroke="#2e3436" stroke-width="2" d="M174.758,-292.179C181.662,-286.513 189.252,-280.105 196,-274 206.798,-264.23 218.32,-252.943 227.936,-243.261"/>
<polygon fill="#2e3436" stroke="#2e3436" stroke-width="2" points="233.357,-237.77 230.49,-245.479 231.078,-240.79 228.444,-243.459 228.088,-243.107 227.732,-242.756 230.367,-240.087 225.686,-240.736 233.357,-237.77 233.357,-237.77"/>
<text text-anchor="middle" x="232" y="-267.6" font-family="FreeSans" font-size="8.00" fill="#2e3436">to</text>
<text text-anchor="start" x="214" y="-258.6" font-family="FreeSans" font-size="8.00" fill="#2e3436">cost = 0.5</text>
</g>
</g>
</svg>
