<?xml version="1.0" encoding="UTF-8" standalone="no"?>
<!DOCTYPE svg PUBLIC "-//W3C//DTD SVG 1.1//EN"
 "http://www.w3.org/Graphics/SVG/1.1/DTD/svg11.dtd">
<!-- Generated by graphviz version 2.38.0 (20140413.2041)
 -->
<!-- Title: g Pages: 1 -->
<svg width="84pt" height="136pt"
 viewBox="0.00 0.00 83.50 136.00" xmlns="http://www.w3.org/2000/svg" xmlns:xlink="http://www.w3.org/1999/xlink">
<g id="graph0" class="graph" transform="scale(1 1) rotate(0) translate(4 132)">
<title>g</title>
<polygon fill="white" stroke="none" points="-4,4 -4,-132 79.5,-132 79.5,4 -4,4"/>
<!-- N10309 -->
<g id="node1" class="node"><title>N10309</title>
<path fill="#ffffff" stroke="#2e3436" stroke-width="1.5" d="M12,-91.5C12,-91.5 51,-91.5 51,-91.5 57,-91.5 63,-97.5 63,-103.5 63,-103.5 63,-115.5 63,-115.5 63,-121.5 57,-127.5 51,-127.5 51,-127.5 12,-127.5 12,-127.5 6,-127.5 0,-121.5 0,-115.5 0,-115.5 0,-103.5 0,-103.5 0,-97.5 6,-91.5 12,-91.5"/>
<text text-anchor="middle" x="31.5" y="-107.6" font-family="FreeSans" font-size="8.00" fill="#1c2021">Node[10309]</text>
</g>
<!-- N10310 -->
<g id="node2" class="node"><title>N10310</title>
<path fill="#ffffff" stroke="#2e3436" stroke-width="1.5" d="M12,-0.5C12,-0.5 51,-0.5 51,-0.5 57,-0.5 63,-6.5 63,-12.5 63,-12.5 63,-24.5 63,-24.5 63,-30.5 57,-36.5 51,-36.5 51,-36.5 12,-36.5 12,-36.5 6,-36.5 0,-30.5 0,-24.5 0,-24.5 0,-12.5 0,-12.5 0,-6.5 6,-0.5 12,-0.5"/>
<text text-anchor="middle" x="31.5" y="-16.6" font-family="FreeSans" font-size="8.00" fill="#1c2021">Node[10310]</text>
</g>
<!-- N10309&#45;&gt;N10310 -->
<g id="edge1" class="edge"><title>N10309&#45;&gt;N10310</title>
<path fill="none" stroke="#2e3436" stroke-width="2" d="M31.5,-91.3399C31.5,-78.0425 31.5,-59.4274 31.5,-44.4783"/>
<polygon fill="#2e3436" stroke="#2e3436" stroke-width="2" points="31.5,-36.6074 34.8751,-44.1074 32,-40.3574 32.0001,-44.1074 31.5001,-44.1074 31.0001,-44.1074 31,-40.3574 28.1251,-44.1075 31.5,-36.6074 31.5,-36.6074"/>
<text text-anchor="middle" x="53.5" y="-66.6" font-family="FreeSans" font-size="8.00" fill="#2e3436">KNOWS</text>
<text text-anchor="start" x="31.5" y="-57.6" font-family="FreeSans" font-size="8.00" fill="#2e3436">jim = &#39;tobias&#39;</text>
</g>
</g>
</svg>
