<?xml version="1.0" encoding="UTF-8" standalone="no"?>
<!DOCTYPE svg PUBLIC "-//W3C//DTD SVG 1.1//EN"
 "http://www.w3.org/Graphics/SVG/1.1/DTD/svg11.dtd">
<!-- Generated by graphviz version 2.38.0 (20140413.2041)
 -->
<!-- Title: g Pages: 1 -->
<svg width="116pt" height="136pt"
 viewBox="0.00 0.00 116.00 136.00" xmlns="http://www.w3.org/2000/svg" xmlns:xlink="http://www.w3.org/1999/xlink">
<g id="graph0" class="graph" transform="scale(1 1) rotate(0) translate(4 132)">
<title>g</title>
<polygon fill="white" stroke="none" points="-4,4 -4,-132 112,-132 112,4 -4,4"/>
<!-- N58 -->
<g id="node1" class="node"><title>N58</title>
<path fill="#ffffff" stroke="#2e3436" stroke-width="1.5" d="M15.5,-0.5C15.5,-0.5 92.5,-0.5 92.5,-0.5 98.5,-0.5 104.5,-6.5 104.5,-12.5 104.5,-12.5 104.5,-24.5 104.5,-24.5 104.5,-30.5 98.5,-36.5 92.5,-36.5 92.5,-36.5 15.5,-36.5 15.5,-36.5 9.5,-36.5 3.5,-30.5 3.5,-24.5 3.5,-24.5 3.5,-12.5 3.5,-12.5 3.5,-6.5 9.5,-0.5 15.5,-0.5"/>
<text text-anchor="start" x="11.5" y="-16.6" font-family="FreeSans" font-size="8.00" fill="#1c2021">Node[58]name = &#39;Juliet&#39;</text>
</g>
<!-- N59 -->
<g id="node2" class="node"><title>N59</title>
<path fill="#ffffff" stroke="#2e3436" stroke-width="1.5" d="M12,-91.5C12,-91.5 96,-91.5 96,-91.5 102,-91.5 108,-97.5 108,-103.5 108,-103.5 108,-115.5 108,-115.5 108,-121.5 102,-127.5 96,-127.5 96,-127.5 12,-127.5 12,-127.5 6,-127.5 0,-121.5 0,-115.5 0,-115.5 0,-103.5 0,-103.5 0,-97.5 6,-91.5 12,-91.5"/>
<text text-anchor="start" x="8" y="-107.6" font-family="FreeSans" font-size="8.00" fill="#1c2021">Node[59]name = &#39;Romeo&#39;</text>
</g>
<!-- N59&#45;&gt;N58 -->
<g id="edge1" class="edge"><title>N59&#45;&gt;N58</title>
<path fill="none" stroke="#2e3436" stroke-width="2" d="M54,-91.3399C54,-78.0425 54,-59.4274 54,-44.4783"/>
<polygon fill="#2e3436" stroke="#2e3436" stroke-width="2" points="54,-36.6074 57.3751,-44.1074 54.5,-40.3574 54.5001,-44.1074 54.0001,-44.1074 53.5001,-44.1074 53.5,-40.3574 50.6251,-44.1075 54,-36.6074 54,-36.6074"/>
<text text-anchor="middle" x="78" y="-66.6" font-family="FreeSans" font-size="8.00" fill="#2e3436">LOVES</text>
<text text-anchor="start" x="54" y="-57.6" font-family="FreeSans" font-size="8.00" fill="#2e3436">happy = false</text>
</g>
</g>
</svg>
