<?xml version="1.0" encoding="UTF-8" standalone="no"?>
<!DOCTYPE svg PUBLIC "-//W3C//DTD SVG 1.1//EN"
 "http://www.w3.org/Graphics/SVG/1.1/DTD/svg11.dtd">
<!-- Generated by graphviz version 2.38.0 (20140413.2041)
 -->
<!-- Title: g Pages: 1 -->
<svg width="227pt" height="127pt"
 viewBox="0.00 0.00 226.50 127.00" xmlns="http://www.w3.org/2000/svg" xmlns:xlink="http://www.w3.org/1999/xlink">
<g id="graph0" class="graph" transform="scale(1 1) rotate(0) translate(4 123)">
<title>g</title>
<polygon fill="white" stroke="none" points="-4,4 -4,-123 222.5,-123 222.5,4 -4,4"/>
<!-- N79 -->
<g id="node1" class="node"><title>N79</title>
<path fill="#ffffff" stroke="#2e3436" stroke-width="1.5" d="M12,-0.5C12,-0.5 82,-0.5 82,-0.5 88,-0.5 94,-6.5 94,-12.5 94,-12.5 94,-24.5 94,-24.5 94,-30.5 88,-36.5 82,-36.5 82,-36.5 12,-36.5 12,-36.5 6,-36.5 0,-30.5 0,-24.5 0,-24.5 0,-12.5 0,-12.5 0,-6.5 6,-0.5 12,-0.5"/>
<text text-anchor="start" x="8" y="-16.6" font-family="FreeSans" font-size="8.00" fill="#1c2021">Node[79]name = &#39;car&#39;</text>
</g>
<!-- N80 -->
<g id="node2" class="node"><title>N80</title>
<path fill="#ffffff" stroke="#2e3436" stroke-width="1.5" d="M135.5,-0.5C135.5,-0.5 206.5,-0.5 206.5,-0.5 212.5,-0.5 218.5,-6.5 218.5,-12.5 218.5,-12.5 218.5,-24.5 218.5,-24.5 218.5,-30.5 212.5,-36.5 206.5,-36.5 206.5,-36.5 135.5,-36.5 135.5,-36.5 129.5,-36.5 123.5,-30.5 123.5,-24.5 123.5,-24.5 123.5,-12.5 123.5,-12.5 123.5,-6.5 129.5,-0.5 135.5,-0.5"/>
<text text-anchor="start" x="131.5" y="-16.6" font-family="FreeSans" font-size="8.00" fill="#1c2021">Node[80]name = &#39;you&#39;</text>
</g>
<!-- N81 -->
<g id="node3" class="node"><title>N81</title>
<path fill="#ffffff" stroke="#2e3436" stroke-width="1.5" d="M79,-82.5C79,-82.5 139,-82.5 139,-82.5 145,-82.5 151,-88.5 151,-94.5 151,-94.5 151,-106.5 151,-106.5 151,-112.5 145,-118.5 139,-118.5 139,-118.5 79,-118.5 79,-118.5 73,-118.5 67,-112.5 67,-106.5 67,-106.5 67,-94.5 67,-94.5 67,-88.5 73,-82.5 79,-82.5"/>
<text text-anchor="start" x="75" y="-98.6" font-family="FreeSans" font-size="8.00" fill="#1c2021">Node[81]name = &#39;I&#39;</text>
</g>
<!-- N81&#45;&gt;N79 -->
<g id="edge2" class="edge"><title>N81&#45;&gt;N79</title>
<path fill="none" stroke="#4e9a06" stroke-width="2" d="M95.5469,-82.1412C86.5487,-70.5305 74.6094,-55.125 64.8229,-42.4972"/>
<polygon fill="#4e9a06" stroke="#4e9a06" stroke-width="2" points="60.2138,-36.5501 67.4758,-40.4108 62.9062,-39.2079 65.2034,-42.1719 64.8082,-42.4782 64.4129,-42.7845 62.1158,-39.8205 62.1405,-44.5457 60.2138,-36.5501 60.2138,-36.5501"/>
<text text-anchor="middle" x="88" y="-57.6" font-family="FreeSans" font-size="8.00" fill="#4e9a06">own</text>
</g>
<!-- N81&#45;&gt;N80 -->
<g id="edge1" class="edge"><title>N81&#45;&gt;N80</title>
<path fill="none" stroke="#2e3436" stroke-width="2" d="M122.453,-82.1412C131.451,-70.5305 143.391,-55.125 153.177,-42.4972"/>
<polygon fill="#2e3436" stroke="#2e3436" stroke-width="2" points="157.786,-36.5501 155.86,-44.5457 155.884,-39.8205 153.587,-42.7845 153.192,-42.4782 152.797,-42.1719 155.094,-39.2079 150.524,-40.4108 157.786,-36.5501 157.786,-36.5501"/>
<text text-anchor="middle" x="152" y="-57.6" font-family="FreeSans" font-size="8.00" fill="#2e3436">know</text>
</g>
</g>
</svg>
