<?xml version="1.0" encoding="UTF-8" standalone="no"?>
<!DOCTYPE svg PUBLIC "-//W3C//DTD SVG 1.1//EN"
 "http://www.w3.org/Graphics/SVG/1.1/DTD/svg11.dtd">
<!-- Generated by graphviz version 2.38.0 (20140413.2041)
 -->
<!-- Title: g Pages: 1 -->
<svg width="237pt" height="45pt"
 viewBox="0.00 0.00 237.00 45.00" xmlns="http://www.w3.org/2000/svg" xmlns:xlink="http://www.w3.org/1999/xlink">
<g id="graph0" class="graph" transform="scale(1 1) rotate(0) translate(4 41)">
<title>g</title>
<polygon fill="white" stroke="none" points="-4,4 -4,-41 233,-41 233,4 -4,4"/>
<!-- N4 -->
<g id="node1" class="node"><title>N4</title>
<path fill="#ffffff" stroke="#2e3436" stroke-width="1.5" d="M12,-0.5C12,-0.5 84,-0.5 84,-0.5 90,-0.5 96,-6.5 96,-12.5 96,-12.5 96,-24.5 96,-24.5 96,-30.5 90,-36.5 84,-36.5 84,-36.5 12,-36.5 12,-36.5 6,-36.5 0,-30.5 0,-24.5 0,-24.5 0,-12.5 0,-12.5 0,-6.5 6,-0.5 12,-0.5"/>
<text text-anchor="start" x="8" y="-16.6" font-family="FreeSans" font-size="8.00" fill="#1c2021">Node[4]name = &#39;Juliet&#39;</text>
</g>
<!-- N5 -->
<g id="node2" class="node"><title>N5</title>
<path fill="#ffffff" stroke="#2e3436" stroke-width="1.5" d="M137,-0.5C137,-0.5 217,-0.5 217,-0.5 223,-0.5 229,-6.5 229,-12.5 229,-12.5 229,-24.5 229,-24.5 229,-30.5 223,-36.5 217,-36.5 217,-36.5 137,-36.5 137,-36.5 131,-36.5 125,-30.5 125,-24.5 125,-24.5 125,-12.5 125,-12.5 125,-6.5 131,-0.5 137,-0.5"/>
<text text-anchor="start" x="133" y="-16.6" font-family="FreeSans" font-size="8.00" fill="#1c2021">Node[5]name = &#39;Romeo&#39;</text>
</g>
</g>
</svg>
