<?xml version="1.0" encoding="UTF-8" standalone="no"?>
<!DOCTYPE svg PUBLIC "-//W3C//DTD SVG 1.1//EN"
 "http://www.w3.org/Graphics/SVG/1.1/DTD/svg11.dtd">
<!-- Generated by graphviz version 2.38.0 (20140413.2041)
 -->
<!-- Title: g Pages: 1 -->
<svg width="286pt" height="337pt"
 viewBox="0.00 0.00 286.00 337.00" xmlns="http://www.w3.org/2000/svg" xmlns:xlink="http://www.w3.org/1999/xlink">
<g id="graph0" class="graph" transform="scale(1 1) rotate(0) translate(4 333)">
<title>g</title>
<polygon fill="white" stroke="none" points="-4,4 -4,-333 282,-333 282,4 -4,4"/>
<!-- N7 -->
<g id="node1" class="node"><title>N7</title>
<path fill="#ffffff" stroke="#2e3436" stroke-width="1.5" d="M12,-146.5C12,-146.5 68,-146.5 68,-146.5 74,-146.5 80,-152.5 80,-158.5 80,-158.5 80,-170.5 80,-170.5 80,-176.5 74,-182.5 68,-182.5 68,-182.5 12,-182.5 12,-182.5 6,-182.5 0,-176.5 0,-170.5 0,-170.5 0,-158.5 0,-158.5 0,-152.5 6,-146.5 12,-146.5"/>
<text text-anchor="start" x="8" y="-162.6" font-family="FreeSans" font-size="8.00" fill="#1c2021">Node[7]name = &#39;f&#39;</text>
</g>
<!-- N9 -->
<g id="node2" class="node"><title>N9</title>
<path fill="#ffffff" stroke="#2e3436" stroke-width="1.5" d="M102,-0.5C102,-0.5 160,-0.5 160,-0.5 166,-0.5 172,-6.5 172,-12.5 172,-12.5 172,-24.5 172,-24.5 172,-30.5 166,-36.5 160,-36.5 160,-36.5 102,-36.5 102,-36.5 96,-36.5 90,-30.5 90,-24.5 90,-24.5 90,-12.5 90,-12.5 90,-6.5 96,-0.5 102,-0.5"/>
<text text-anchor="start" x="98" y="-16.6" font-family="FreeSans" font-size="8.00" fill="#1c2021">Node[9]name = &#39;e&#39;</text>
</g>
<!-- N7&#45;&gt;N9 -->
<g id="edge1" class="edge"><title>N7&#45;&gt;N9</title>
<path fill="none" stroke="#2e3436" stroke-width="2" d="M50.7962,-146.416C67.0102,-120.759 97.6994,-72.1954 116.055,-43.1495"/>
<polygon fill="#2e3436" stroke="#2e3436" stroke-width="2" points="120.218,-36.5619 119.064,-44.7051 118.637,-39.9991 116.634,-43.1692 116.211,-42.9021 115.788,-42.635 117.792,-39.4649 113.358,-41.0991 120.218,-36.5619 120.218,-36.5619"/>
<text text-anchor="middle" x="104" y="-112.1" font-family="FreeSans" font-size="8.00" fill="#2e3436">to</text>
<text text-anchor="start" x="86" y="-103.1" font-family="FreeSans" font-size="8.00" fill="#2e3436">cost = 1.0</text>
</g>
<!-- N8 -->
<g id="node3" class="node"><title>N8</title>
<path fill="#ffffff" stroke="#2e3436" stroke-width="1.5" d="M208,-91.5C208,-91.5 266,-91.5 266,-91.5 272,-91.5 278,-97.5 278,-103.5 278,-103.5 278,-115.5 278,-115.5 278,-121.5 272,-127.5 266,-127.5 266,-127.5 208,-127.5 208,-127.5 202,-127.5 196,-121.5 196,-115.5 196,-115.5 196,-103.5 196,-103.5 196,-97.5 202,-91.5 208,-91.5"/>
<text text-anchor="start" x="204" y="-107.6" font-family="FreeSans" font-size="8.00" fill="#1c2021">Node[8]name = &#39;d&#39;</text>
</g>
<!-- N8&#45;&gt;N9 -->
<g id="edge2" class="edge"><title>N8&#45;&gt;N9</title>
<path fill="none" stroke="#2e3436" stroke-width="2" d="M216.562,-91.3399C199.698,-77.1806 175.653,-56.992 157.345,-41.6202"/>
<polygon fill="#2e3436" stroke="#2e3436" stroke-width="2" points="151.375,-36.6074 159.289,-38.8454 154.569,-38.6358 157.441,-41.0472 157.119,-41.4301 156.797,-41.813 153.926,-39.4017 154.949,-44.0149 151.375,-36.6074 151.375,-36.6074"/>
<text text-anchor="middle" x="211" y="-66.6" font-family="FreeSans" font-size="8.00" fill="#2e3436">to</text>
<text text-anchor="start" x="193" y="-57.6" font-family="FreeSans" font-size="8.00" fill="#2e3436">cost = 0.5</text>
</g>
<!-- N10 -->
<g id="node4" class="node"><title>N10</title>
<path fill="#ffffff" stroke="#2e3436" stroke-width="1.5" d="M100,-146.5C100,-146.5 162,-146.5 162,-146.5 168,-146.5 174,-152.5 174,-158.5 174,-158.5 174,-170.5 174,-170.5 174,-176.5 168,-182.5 162,-182.5 162,-182.5 100,-182.5 100,-182.5 94,-182.5 88,-176.5 88,-170.5 88,-170.5 88,-158.5 88,-158.5 88,-152.5 94,-146.5 100,-146.5"/>
<text text-anchor="start" x="96" y="-162.6" font-family="FreeSans" font-size="8.00" fill="#1c2021">Node[10]name = &#39;b&#39;</text>
</g>
<!-- N10&#45;&gt;N9 -->
<g id="edge3" class="edge"><title>N10&#45;&gt;N9</title>
<path fill="none" stroke="#2e3436" stroke-width="2" d="M131,-146.416C131,-121.083 131,-73.4212 131,-44.2618"/>
<polygon fill="#2e3436" stroke="#2e3436" stroke-width="2" points="131,-36.5619 134.375,-44.0619 131.5,-40.3119 131.5,-44.0619 131,-44.0619 130.5,-44.0619 130.5,-40.3119 127.625,-44.062 131,-36.5619 131,-36.5619"/>
<text text-anchor="middle" x="149" y="-112.1" font-family="FreeSans" font-size="8.00" fill="#2e3436">to</text>
<text text-anchor="start" x="131" y="-103.1" font-family="FreeSans" font-size="8.00" fill="#2e3436">cost = 0.5</text>
</g>
<!-- N11 -->
<g id="node5" class="node"><title>N11</title>
<path fill="#ffffff" stroke="#2e3436" stroke-width="1.5" d="M192,-201.5C192,-201.5 254,-201.5 254,-201.5 260,-201.5 266,-207.5 266,-213.5 266,-213.5 266,-225.5 266,-225.5 266,-231.5 260,-237.5 254,-237.5 254,-237.5 192,-237.5 192,-237.5 186,-237.5 180,-231.5 180,-225.5 180,-225.5 180,-213.5 180,-213.5 180,-207.5 186,-201.5 192,-201.5"/>
<text text-anchor="start" x="188" y="-217.6" font-family="FreeSans" font-size="8.00" fill="#1c2021">Node[11]name = &#39;c&#39;</text>
</g>
<!-- N11&#45;&gt;N8 -->
<g id="edge4" class="edge"><title>N11&#45;&gt;N8</title>
<path fill="none" stroke="#2e3436" stroke-width="2" d="M225.249,-201.148C227.556,-183.356 231.165,-155.513 233.775,-135.378"/>
<polygon fill="#2e3436" stroke="#2e3436" stroke-width="2" points="234.756,-127.809 237.139,-135.681 234.77,-131.592 234.288,-135.311 233.792,-135.247 233.296,-135.182 233.778,-131.464 230.445,-134.813 234.756,-127.809 234.756,-127.809"/>
<text text-anchor="middle" x="250" y="-167.1" font-family="FreeSans" font-size="8.00" fill="#2e3436">to</text>
<text text-anchor="start" x="232" y="-158.1" font-family="FreeSans" font-size="8.00" fill="#2e3436">cost = 0.5</text>
</g>
<!-- N12 -->
<g id="node6" class="node"><title>N12</title>
<path fill="#ffffff" stroke="#2e3436" stroke-width="1.5" d="M100,-292.5C100,-292.5 162,-292.5 162,-292.5 168,-292.5 174,-298.5 174,-304.5 174,-304.5 174,-316.5 174,-316.5 174,-322.5 168,-328.5 162,-328.5 162,-328.5 100,-328.5 100,-328.5 94,-328.5 88,-322.5 88,-316.5 88,-316.5 88,-304.5 88,-304.5 88,-298.5 94,-292.5 100,-292.5"/>
<text text-anchor="start" x="96" y="-308.6" font-family="FreeSans" font-size="8.00" fill="#1c2021">Node[12]name = &#39;a&#39;</text>
</g>
<!-- N12&#45;&gt;N7 -->
<g id="edge5" class="edge"><title>N12&#45;&gt;N7</title>
<path fill="none" stroke="#2e3436" stroke-width="2" d="M106.398,-292.472C99.8351,-287.106 93.146,-280.789 88,-274 68.4375,-248.191 54.7986,-213.158 47.1862,-189.966"/>
<polygon fill="#2e3436" stroke="#2e3436" stroke-width="2" points="44.8358,-182.585 50.3275,-188.707 46.4501,-186.007 47.5881,-189.58 47.1117,-189.732 46.6352,-189.883 45.4973,-186.31 43.8958,-190.756 44.8358,-182.585 44.8358,-182.585"/>
<text text-anchor="middle" x="106" y="-267.6" font-family="FreeSans" font-size="8.00" fill="#2e3436">to</text>
<text text-anchor="start" x="88" y="-258.6" font-family="FreeSans" font-size="8.00" fill="#2e3436">cost = 0.5</text>
</g>
<!-- N12&#45;&gt;N10 -->
<g id="edge7" class="edge"><title>N12&#45;&gt;N10</title>
<path fill="none" stroke="#2e3436" stroke-width="2" d="M131,-292.416C131,-267.083 131,-219.421 131,-190.262"/>
<polygon fill="#2e3436" stroke="#2e3436" stroke-width="2" points="131,-182.562 134.375,-190.062 131.5,-186.312 131.5,-190.062 131,-190.062 130.5,-190.062 130.5,-186.312 127.625,-190.062 131,-182.562 131,-182.562"/>
<text text-anchor="middle" x="149" y="-267.6" font-family="FreeSans" font-size="8.00" fill="#2e3436">to</text>
<text text-anchor="start" x="131" y="-258.6" font-family="FreeSans" font-size="8.00" fill="#2e3436">cost = 1.5</text>
</g>
<!-- N12&#45;&gt;N11 -->
<g id="edge6" class="edge"><title>N12&#45;&gt;N11</title>
<path fill="none" stroke="#2e3436" stroke-width="2" d="M152.939,-292.373C159.852,-286.718 167.402,-280.267 174,-274 183.982,-264.518 194.374,-253.379 203.005,-243.727"/>
<polygon fill="#2e3436" stroke="#2e3436" stroke-width="2" points="208.132,-237.937 205.687,-245.789 206.021,-241.076 203.534,-243.883 203.16,-243.552 202.786,-243.22 205.272,-240.413 200.633,-241.314 208.132,-237.937 208.132,-237.937"/>
<text text-anchor="middle" x="208" y="-267.6" font-family="FreeSans" font-size="8.00" fill="#2e3436">to</text>
<text text-anchor="start" x="190" y="-258.6" font-family="FreeSans" font-size="8.00" fill="#2e3436">cost = 0.5</text>
</g>
</g>
</svg>
