<?xml version="1.0" encoding="UTF-8" standalone="no"?>
<!DOCTYPE svg PUBLIC "-//W3C//DTD SVG 1.1//EN"
 "http://www.w3.org/Graphics/SVG/1.1/DTD/svg11.dtd">
<!-- Generated by graphviz version 2.38.0 (20140413.2041)
 -->
<!-- Title: g Pages: 1 -->
<svg width="120pt" height="45pt"
 viewBox="0.00 0.00 120.00 45.00" xmlns="http://www.w3.org/2000/svg" xmlns:xlink="http://www.w3.org/1999/xlink">
<g id="graph0" class="graph" transform="scale(1 1) rotate(0) translate(4 41)">
<title>g</title>
<polygon fill="white" stroke="none" points="-4,4 -4,-41 116,-41 116,4 -4,4"/>
<!-- N121 -->
<g id="node1" class="node"><title>N121</title>
<path fill="#ffffff" stroke="#2e3436" stroke-width="1.5" d="M12,-0.5C12,-0.5 100,-0.5 100,-0.5 106,-0.5 112,-6.5 112,-12.5 112,-12.5 112,-24.5 112,-24.5 112,-30.5 106,-36.5 100,-36.5 100,-36.5 12,-36.5 12,-36.5 6,-36.5 -7.10543e-15,-30.5 -7.10543e-15,-24.5 -7.10543e-15,-24.5 -7.10543e-15,-12.5 -7.10543e-15,-12.5 -7.10543e-15,-6.5 6,-0.5 12,-0.5"/>
<text text-anchor="middle" x="56" y="-25.6" font-family="FreeSans" font-size="8.00" fill="#1c2021">Node[121]: Actor, Director</text>
<polyline fill="none" stroke="#2e3436" stroke-width="1.5" points="-7.10543e-15,-18.5 112,-18.5 "/>
<text text-anchor="start" x="8" y="-7.6" font-family="FreeSans" font-size="8.00" fill="#1c2021">name = &#39;Clint Eastwood&#39;</text>
</g>
</g>
</svg>
