<?xml version="1.0" encoding="UTF-8" standalone="no"?>
<!DOCTYPE svg PUBLIC "-//W3C//DTD SVG 1.1//EN"
 "http://www.w3.org/Graphics/SVG/1.1/DTD/svg11.dtd">
<!-- Generated by graphviz version 2.38.0 (20140413.2041)
 -->
<!-- Title: g Pages: 1 -->
<svg width="116pt" height="127pt"
 viewBox="0.00 0.00 116.00 127.00" xmlns="http://www.w3.org/2000/svg" xmlns:xlink="http://www.w3.org/1999/xlink">
<g id="graph0" class="graph" transform="scale(1 1) rotate(0) translate(4 123)">
<title>g</title>
<polygon fill="white" stroke="none" points="-4,4 -4,-123 112,-123 112,4 -4,4"/>
<!-- N10357 -->
<g id="node1" class="node"><title>N10357</title>
<path fill="#ffffff" stroke="#2e3436" stroke-width="1.5" d="M12,-0.5C12,-0.5 96,-0.5 96,-0.5 102,-0.5 108,-6.5 108,-12.5 108,-12.5 108,-24.5 108,-24.5 108,-30.5 102,-36.5 96,-36.5 96,-36.5 12,-36.5 12,-36.5 6,-36.5 0,-30.5 0,-24.5 0,-24.5 0,-12.5 0,-12.5 0,-6.5 6,-0.5 12,-0.5"/>
<text text-anchor="start" x="8" y="-16.6" font-family="FreeSans" font-size="8.00" fill="#1c2021">Node[10357]name = &#39;you&#39;</text>
</g>
<!-- N10358 -->
<g id="node2" class="node"><title>N10358</title>
<path fill="#ffffff" stroke="#2e3436" stroke-width="1.5" d="M17,-82.5C17,-82.5 91,-82.5 91,-82.5 97,-82.5 103,-88.5 103,-94.5 103,-94.5 103,-106.5 103,-106.5 103,-112.5 97,-118.5 91,-118.5 91,-118.5 17,-118.5 17,-118.5 11,-118.5 5,-112.5 5,-106.5 5,-106.5 5,-94.5 5,-94.5 5,-88.5 11,-82.5 17,-82.5"/>
<text text-anchor="start" x="13" y="-98.6" font-family="FreeSans" font-size="8.00" fill="#1c2021">Node[10358]name = &#39;I&#39;</text>
</g>
<!-- N10358&#45;&gt;N10357 -->
<g id="edge1" class="edge"><title>N10358&#45;&gt;N10357</title>
<path fill="none" stroke="#2e3436" stroke-width="2" d="M54,-82.1412C54,-71.0583 54,-56.5177 54,-44.2358"/>
<polygon fill="#2e3436" stroke="#2e3436" stroke-width="2" points="54,-36.5501 57.3751,-44.0501 54.5,-40.3001 54.5001,-44.0501 54.0001,-44.0501 53.5001,-44.0501 53.5,-40.3001 50.6251,-44.0501 54,-36.5501 54,-36.5501"/>
<text text-anchor="middle" x="64" y="-57.6" font-family="FreeSans" font-size="8.00" fill="#2e3436">know</text>
</g>
</g>
</svg>
