<?xml version="1.0" encoding="UTF-8" standalone="no"?>
<!DOCTYPE svg PUBLIC "-//W3C//DTD SVG 1.1//EN"
 "http://www.w3.org/Graphics/SVG/1.1/DTD/svg11.dtd">
<!-- Generated by graphviz version 2.38.0 (20140413.2041)
 -->
<!-- Title: g Pages: 1 -->
<svg width="247pt" height="45pt"
 viewBox="0.00 0.00 246.50 45.00" xmlns="http://www.w3.org/2000/svg" xmlns:xlink="http://www.w3.org/1999/xlink">
<g id="graph0" class="graph" transform="scale(1 1) rotate(0) translate(4 41)">
<title>g</title>
<polygon fill="white" stroke="none" points="-4,4 -4,-41 242.5,-41 242.5,4 -4,4"/>
<!-- N42 -->
<g id="node1" class="node"><title>N42</title>
<path fill="#ffffff" stroke="#2e3436" stroke-width="1.5" d="M12,-0.5C12,-0.5 89,-0.5 89,-0.5 95,-0.5 101,-6.5 101,-12.5 101,-12.5 101,-24.5 101,-24.5 101,-30.5 95,-36.5 89,-36.5 89,-36.5 12,-36.5 12,-36.5 6,-36.5 0,-30.5 0,-24.5 0,-24.5 0,-12.5 0,-12.5 0,-6.5 6,-0.5 12,-0.5"/>
<text text-anchor="start" x="8" y="-16.6" font-family="FreeSans" font-size="8.00" fill="#1c2021">Node[42]name = &#39;Juliet&#39;</text>
</g>
<!-- N43 -->
<g id="node2" class="node"><title>N43</title>
<path fill="#ffffff" stroke="#2e3436" stroke-width="1.5" d="M142.5,-0.5C142.5,-0.5 226.5,-0.5 226.5,-0.5 232.5,-0.5 238.5,-6.5 238.5,-12.5 238.5,-12.5 238.5,-24.5 238.5,-24.5 238.5,-30.5 232.5,-36.5 226.5,-36.5 226.5,-36.5 142.5,-36.5 142.5,-36.5 136.5,-36.5 130.5,-30.5 130.5,-24.5 130.5,-24.5 130.5,-12.5 130.5,-12.5 130.5,-6.5 136.5,-0.5 142.5,-0.5"/>
<text text-anchor="start" x="138.5" y="-16.6" font-family="FreeSans" font-size="8.00" fill="#1c2021">Node[43]name = &#39;Romeo&#39;</text>
</g>
</g>
</svg>
