<?xml version="1.0" encoding="UTF-8" standalone="no"?>
<!DOCTYPE svg PUBLIC "-//W3C//DTD SVG 1.1//EN"
 "http://www.w3.org/Graphics/SVG/1.1/DTD/svg11.dtd">
<!-- Generated by graphviz version 2.38.0 (20140413.2041)
 -->
<!-- Title: g Pages: 1 -->
<svg width="221pt" height="127pt"
 viewBox="0.00 0.00 221.00 127.00" xmlns="http://www.w3.org/2000/svg" xmlns:xlink="http://www.w3.org/1999/xlink">
<g id="graph0" class="graph" transform="scale(1 1) rotate(0) translate(4 123)">
<title>g</title>
<polygon fill="white" stroke="none" points="-4,4 -4,-123 217,-123 217,4 -4,4"/>
<!-- N9 -->
<g id="node1" class="node"><title>N9</title>
<path fill="#ffffff" stroke="#2e3436" stroke-width="1.5" d="M12,-0.5C12,-0.5 77,-0.5 77,-0.5 83,-0.5 89,-6.5 89,-12.5 89,-12.5 89,-24.5 89,-24.5 89,-30.5 83,-36.5 77,-36.5 77,-36.5 12,-36.5 12,-36.5 6,-36.5 0,-30.5 0,-24.5 0,-24.5 0,-12.5 0,-12.5 0,-6.5 6,-0.5 12,-0.5"/>
<text text-anchor="start" x="8" y="-16.6" font-family="FreeSans" font-size="8.00" fill="#1c2021">Node[9]name = &#39;car&#39;</text>
</g>
<!-- N10 -->
<g id="node2" class="node"><title>N10</title>
<path fill="#ffffff" stroke="#2e3436" stroke-width="1.5" d="M130,-0.5C130,-0.5 201,-0.5 201,-0.5 207,-0.5 213,-6.5 213,-12.5 213,-12.5 213,-24.5 213,-24.5 213,-30.5 207,-36.5 201,-36.5 201,-36.5 130,-36.5 130,-36.5 124,-36.5 118,-30.5 118,-24.5 118,-24.5 118,-12.5 118,-12.5 118,-6.5 124,-0.5 130,-0.5"/>
<text text-anchor="start" x="126" y="-16.6" font-family="FreeSans" font-size="8.00" fill="#1c2021">Node[10]name = &#39;you&#39;</text>
</g>
<!-- N11 -->
<g id="node3" class="node"><title>N11</title>
<path fill="#ffffff" stroke="#2e3436" stroke-width="1.5" d="M74.5,-82.5C74.5,-82.5 134.5,-82.5 134.5,-82.5 140.5,-82.5 146.5,-88.5 146.5,-94.5 146.5,-94.5 146.5,-106.5 146.5,-106.5 146.5,-112.5 140.5,-118.5 134.5,-118.5 134.5,-118.5 74.5,-118.5 74.5,-118.5 68.5,-118.5 62.5,-112.5 62.5,-106.5 62.5,-106.5 62.5,-94.5 62.5,-94.5 62.5,-88.5 68.5,-82.5 74.5,-82.5"/>
<text text-anchor="start" x="70.5" y="-98.6" font-family="FreeSans" font-size="8.00" fill="#1c2021">Node[11]name = &#39;I&#39;</text>
</g>
<!-- N11&#45;&gt;N9 -->
<g id="edge2" class="edge"><title>N11&#45;&gt;N9</title>
<path fill="none" stroke="#4e9a06" stroke-width="2" d="M91.4809,-82.1412C82.8521,-70.6361 71.4286,-55.4048 62.0067,-42.8423"/>
<polygon fill="#4e9a06" stroke="#4e9a06" stroke-width="2" points="57.2876,-36.5501 64.4876,-40.5251 59.9376,-39.2501 62.1876,-42.2501 61.7876,-42.5501 61.3876,-42.8501 59.1376,-39.8501 59.0876,-44.5751 57.2876,-36.5501 57.2876,-36.5501"/>
<text text-anchor="middle" x="84.5" y="-57.6" font-family="FreeSans" font-size="8.00" fill="#4e9a06">own</text>
</g>
<!-- N11&#45;&gt;N10 -->
<g id="edge1" class="edge"><title>N11&#45;&gt;N10</title>
<path fill="none" stroke="#2e3436" stroke-width="2" d="M117.736,-82.1412C126.509,-70.6361 138.123,-55.4048 147.701,-42.8423"/>
<polygon fill="#2e3436" stroke="#2e3436" stroke-width="2" points="152.499,-36.5501 150.636,-44.5606 150.623,-39.8353 148.349,-42.8173 147.952,-42.5141 147.554,-42.211 149.828,-39.2289 145.268,-40.4677 152.499,-36.5501 152.499,-36.5501"/>
<text text-anchor="middle" x="146.5" y="-57.6" font-family="FreeSans" font-size="8.00" fill="#2e3436">know</text>
</g>
</g>
</svg>
