<?xml version="1.0" encoding="UTF-8" standalone="no"?>
<!DOCTYPE svg PUBLIC "-//W3C//DTD SVG 1.1//EN"
 "http://www.w3.org/Graphics/SVG/1.1/DTD/svg11.dtd">
<!-- Generated by graphviz version 2.38.0 (20140413.2041)
 -->
<!-- Title: g Pages: 1 -->
<svg width="247pt" height="293pt"
 viewBox="0.00 0.00 246.64 293.00" xmlns="http://www.w3.org/2000/svg" xmlns:xlink="http://www.w3.org/1999/xlink">
<g id="graph0" class="graph" transform="scale(1 1) rotate(0) translate(4 289)">
<title>g</title>
<polygon fill="white" stroke="none" points="-4,4 -4,-289 242.642,-289 242.642,4 -4,4"/>
<!-- Graph -->
<g id="node1" class="node"><title>Graph</title>
<path fill="#a8e270" stroke="#2e3436" stroke-width="1.5" d="M69.6425,-285C69.6425,-285 39.6425,-285 39.6425,-285 33.6425,-285 27.6425,-279 27.6425,-273 27.6425,-273 27.6425,-261 27.6425,-261 27.6425,-255 33.6425,-249 39.6425,-249 39.6425,-249 69.6425,-249 69.6425,-249 75.6425,-249 81.6425,-255 81.6425,-261 81.6425,-261 81.6425,-273 81.6425,-273 81.6425,-279 75.6425,-285 69.6425,-285"/>
<text text-anchor="middle" x="54.6425" y="-264.5" font-family="FreeSans" font-size="10.00" fill="#1c2021">Graph</text>
</g>
<!-- Nodes -->
<g id="node2" class="node"><title>Nodes</title>
<path fill="#fadcad" stroke="#2e3436" stroke-width="1.5" d="M111.642,-119C111.642,-119 81.6425,-119 81.6425,-119 75.6425,-119 69.6425,-113 69.6425,-107 69.6425,-107 69.6425,-95 69.6425,-95 69.6425,-89 75.6425,-83 81.6425,-83 81.6425,-83 111.642,-83 111.642,-83 117.642,-83 123.642,-89 123.642,-95 123.642,-95 123.642,-107 123.642,-107 123.642,-113 117.642,-119 111.642,-119"/>
<text text-anchor="middle" x="96.6425" y="-98.5" font-family="FreeSans" font-size="10.00" fill="#1c2021">Nodes</text>
</g>
<!-- Graph&#45;&gt;Nodes -->
<g id="edge1" class="edge"><title>Graph&#45;&gt;Nodes</title>
<path fill="none" stroke="#2e3436" stroke-width="2" d="M35.6264,-248.92C15.7933,-228.936 -10.4591,-194.902 4.64247,-166 16.7857,-142.76 41.6395,-126.252 62.4562,-115.829"/>
<polygon fill="#2e3436" stroke="#2e3436" stroke-width="2" points="69.3369,-112.527 64.0358,-118.815 66.1725,-114.6 62.7917,-116.223 62.5754,-115.772 62.359,-115.321 65.7398,-113.699 61.1149,-112.729 69.3369,-112.527 69.3369,-112.527"/>
<text text-anchor="middle" x="36.1425" y="-181.5" font-family="FreeSans" font-size="10.00" fill="#1c2021">records data in</text>
</g>
<!-- Relationships -->
<g id="node3" class="node"><title>Relationships</title>
<path fill="#fadcad" stroke="#2e3436" stroke-width="1.5" d="M226.642,-202C226.642,-202 176.642,-202 176.642,-202 170.642,-202 164.642,-196 164.642,-190 164.642,-190 164.642,-178 164.642,-178 164.642,-172 170.642,-166 176.642,-166 176.642,-166 226.642,-166 226.642,-166 232.642,-166 238.642,-172 238.642,-178 238.642,-178 238.642,-190 238.642,-190 238.642,-196 232.642,-202 226.642,-202"/>
<text text-anchor="middle" x="201.642" y="-181.5" font-family="FreeSans" font-size="10.00" fill="#1c2021">Relationships</text>
</g>
<!-- Graph&#45;&gt;Relationships -->
<g id="edge2" class="edge"><title>Graph&#45;&gt;Relationships</title>
<path fill="none" stroke="#2e3436" stroke-width="2" d="M81.9475,-250.954C105.042,-238.229 138.369,-219.865 163.995,-205.745"/>
<polygon fill="#2e3436" stroke="#2e3436" stroke-width="2" points="170.668,-202.068 165.728,-208.643 167.624,-204.316 164.34,-206.125 164.099,-205.687 163.857,-205.25 167.142,-203.44 162.47,-202.731 170.668,-202.068 170.668,-202.068"/>
<text text-anchor="middle" x="168.142" y="-223" font-family="FreeSans" font-size="10.00" fill="#1c2021">records data in</text>
</g>
<!-- Properties -->
<g id="node5" class="node"><title>Properties</title>
<path fill="#fadcad" stroke="#2e3436" stroke-width="1.5" d="M191.642,-36C191.642,-36 155.642,-36 155.642,-36 149.642,-36 143.642,-30 143.642,-24 143.642,-24 143.642,-12 143.642,-12 143.642,-6 149.642,-0 155.642,-0 155.642,-0 191.642,-0 191.642,-0 197.642,-0 203.642,-6 203.642,-12 203.642,-12 203.642,-24 203.642,-24 203.642,-30 197.642,-36 191.642,-36"/>
<text text-anchor="middle" x="173.642" y="-15.5" font-family="FreeSans" font-size="10.00" fill="#1c2021">Properties</text>
</g>
<!-- Nodes&#45;&gt;Properties -->
<g id="edge5" class="edge"><title>Nodes&#45;&gt;Properties</title>
<path fill="none" stroke="#2e3436" stroke-width="2" d="M112.972,-82.822C124.304,-70.9016 139.523,-54.8924 151.883,-41.8901"/>
<polygon fill="#2e3436" stroke="#2e3436" stroke-width="2" points="157.336,-36.1533 154.615,-43.9144 155.115,-39.2157 152.531,-41.9336 152.169,-41.5891 151.806,-41.2446 154.39,-38.5267 149.723,-39.2638 157.336,-36.1533 157.336,-36.1533"/>
<text text-anchor="middle" x="150.142" y="-57" font-family="FreeSans" font-size="10.00" fill="#1c2021">have</text>
</g>
<!-- Relationships&#45;&gt;Nodes -->
<g id="edge3" class="edge"><title>Relationships&#45;&gt;Nodes</title>
<path fill="none" stroke="#2e3436" stroke-width="2" d="M177.545,-165.782C169.848,-160.188 161.334,-153.902 153.642,-148 143.629,-140.316 132.812,-131.675 123.319,-123.975"/>
<polygon fill="#2e3436" stroke="#2e3436" stroke-width="2" points="117.294,-119.07 125.241,-121.188 120.518,-121.05 123.426,-123.417 123.11,-123.805 122.795,-124.193 119.887,-121.825 120.98,-126.423 117.294,-119.07 117.294,-119.07"/>
<text text-anchor="middle" x="172.142" y="-140" font-family="FreeSans" font-size="10.00" fill="#1c2021">organize</text>
</g>
<!-- Relationships&#45;&gt;Properties -->
<g id="edge6" class="edge"><title>Relationships&#45;&gt;Properties</title>
<path fill="none" stroke="#2e3436" stroke-width="2" d="M198.699,-165.759C193.707,-136.523 183.568,-77.1334 177.835,-43.5583"/>
<polygon fill="#2e3436" stroke="#2e3436" stroke-width="2" points="176.547,-36.0099 181.136,-42.8349 177.671,-39.6223 178.302,-43.3188 177.809,-43.4029 177.316,-43.4871 176.685,-39.7906 174.482,-43.971 176.547,-36.0099 176.547,-36.0099"/>
<text text-anchor="middle" x="200.142" y="-98.5" font-family="FreeSans" font-size="10.00" fill="#1c2021">have</text>
</g>
<!-- Labels -->
<g id="node4" class="node"><title>Labels</title>
<path fill="#fadcad" stroke="#2e3436" stroke-width="1.5" d="M123.642,-202C123.642,-202 93.6425,-202 93.6425,-202 87.6425,-202 81.6425,-196 81.6425,-190 81.6425,-190 81.6425,-178 81.6425,-178 81.6425,-172 87.6425,-166 93.6425,-166 93.6425,-166 123.642,-166 123.642,-166 129.642,-166 135.642,-172 135.642,-178 135.642,-178 135.642,-190 135.642,-190 135.642,-196 129.642,-202 123.642,-202"/>
<text text-anchor="middle" x="108.642" y="-181.5" font-family="FreeSans" font-size="10.00" fill="#1c2021">Labels</text>
</g>
<!-- Labels&#45;&gt;Nodes -->
<g id="edge4" class="edge"><title>Labels&#45;&gt;Nodes</title>
<path fill="none" stroke="#2e3436" stroke-width="2" d="M100.317,-165.948C98.0024,-160.364 95.8058,-154.041 94.6425,-148 93.3387,-141.23 93.1404,-133.8 93.4508,-126.924"/>
<polygon fill="#2e3436" stroke="#2e3436" stroke-width="2" points="94.013,-119.178 96.8361,-126.903 94.2401,-122.955 93.9686,-126.695 93.4699,-126.659 92.9712,-126.622 93.2428,-122.882 90.1038,-126.414 94.013,-119.178 94.013,-119.178"/>
<text text-anchor="middle" x="107.142" y="-140" font-family="FreeSans" font-size="10.00" fill="#1c2021">group</text>
</g>
</g>
</svg>
