<?xml version="1.0" encoding="UTF-8" standalone="no"?>
<!DOCTYPE svg PUBLIC "-//W3C//DTD SVG 1.1//EN"
 "http://www.w3.org/Graphics/SVG/1.1/DTD/svg11.dtd">
<!-- Generated by graphviz version 2.38.0 (20140413.2041)
 -->
<!-- Title: g Pages: 1 -->
<svg width="107pt" height="127pt"
 viewBox="0.00 0.00 107.00 127.00" xmlns="http://www.w3.org/2000/svg" xmlns:xlink="http://www.w3.org/1999/xlink">
<g id="graph0" class="graph" transform="scale(1 1) rotate(0) translate(4 123)">
<title>g</title>
<polygon fill="white" stroke="none" points="-4,4 -4,-123 103,-123 103,4 -4,4"/>
<!-- N10 -->
<g id="node1" class="node"><title>N10</title>
<path fill="#ffffff" stroke="#2e3436" stroke-width="1.5" d="M12,-0.5C12,-0.5 87,-0.5 87,-0.5 93,-0.5 99,-6.5 99,-12.5 99,-12.5 99,-24.5 99,-24.5 99,-30.5 93,-36.5 87,-36.5 87,-36.5 12,-36.5 12,-36.5 6,-36.5 0,-30.5 0,-24.5 0,-24.5 0,-12.5 0,-12.5 0,-6.5 6,-0.5 12,-0.5"/>
<text text-anchor="start" x="8" y="-16.6" font-family="FreeSans" font-size="8.00" fill="#1c2021">Node[10]name = &#39;Sara&#39;</text>
</g>
<!-- N11 -->
<g id="node2" class="node"><title>N11</title>
<path fill="#ffffff" stroke="#2e3436" stroke-width="1.5" d="M14,-82.5C14,-82.5 85,-82.5 85,-82.5 91,-82.5 97,-88.5 97,-94.5 97,-94.5 97,-106.5 97,-106.5 97,-112.5 91,-118.5 85,-118.5 85,-118.5 14,-118.5 14,-118.5 8,-118.5 2,-112.5 2,-106.5 2,-106.5 2,-94.5 2,-94.5 2,-88.5 8,-82.5 14,-82.5"/>
<text text-anchor="start" x="10" y="-98.6" font-family="FreeSans" font-size="8.00" fill="#1c2021">Node[11]name = &#39;Joe&#39;</text>
</g>
<!-- N11&#45;&gt;N10 -->
<g id="edge1" class="edge"><title>N11&#45;&gt;N10</title>
<path fill="none" stroke="#2e3436" stroke-width="2" d="M49.5,-82.1412C49.5,-71.0583 49.5,-56.5177 49.5,-44.2358"/>
<polygon fill="#2e3436" stroke="#2e3436" stroke-width="2" points="49.5,-36.5501 52.8751,-44.0501 50,-40.3001 50.0001,-44.0501 49.5001,-44.0501 49.0001,-44.0501 49,-40.3001 46.1251,-44.0501 49.5,-36.5501 49.5,-36.5501"/>
<text text-anchor="middle" x="61.5" y="-57.6" font-family="FreeSans" font-size="8.00" fill="#2e3436">knows</text>
</g>
</g>
</svg>
