<?xml version="1.0" encoding="UTF-8" standalone="no"?>
<!DOCTYPE svg PUBLIC "-//W3C//DTD SVG 1.1//EN"
 "http://www.w3.org/Graphics/SVG/1.1/DTD/svg11.dtd">
<!-- Generated by graphviz version 2.26.3 (20100126.1600)
 -->
<!-- Title: g Pages: 1 -->
<svg width="187pt" height="302pt"
 viewBox="0.00 0.00 187.00 302.00" xmlns="http://www.w3.org/2000/svg" xmlns:xlink="http://www.w3.org/1999/xlink">
<g id="graph1" class="graph" transform="scale(1 1) rotate(0) translate(4 298)">
<title>g</title>
<polygon fill="white" stroke="white" points="-4,5 -4,-298 184,-298 184,5 -4,5"/>
<!-- Graph -->
<g id="node1" class="node"><title>Graph</title>
<polygon fill="#a8e270" stroke="#a8e270" stroke-width="1.5" points="68,-294 38,-294 26,-282 26,-270 38,-258 68,-258 80,-270 80,-282 68,-294"/>
<path fill="#a8e270" stroke="#a8e270" stroke-width="1.5" d="M38,-294C32,-294 26,-288 26,-282"/>
<path fill="#a8e270" stroke="#a8e270" stroke-width="1.5" d="M26,-270C26,-264 32,-258 38,-258"/>
<path fill="#a8e270" stroke="#a8e270" stroke-width="1.5" d="M68,-258C74,-258 80,-264 80,-270"/>
<path fill="#a8e270" stroke="#a8e270" stroke-width="1.5" d="M80,-282C80,-288 74,-294 68,-294"/>
<polyline fill="none" stroke="#2e3436" stroke-width="1.5" points="68,-294 38,-294 "/>
<path fill="none" stroke="#2e3436" stroke-width="1.5" d="M38,-294C32,-294 26,-288 26,-282"/>
<polyline fill="none" stroke="#2e3436" stroke-width="1.5" points="26,-282 26,-270 "/>
<path fill="none" stroke="#2e3436" stroke-width="1.5" d="M26,-270C26,-264 32,-258 38,-258"/>
<polyline fill="none" stroke="#2e3436" stroke-width="1.5" points="38,-258 68,-258 "/>
<path fill="none" stroke="#2e3436" stroke-width="1.5" d="M68,-258C74,-258 80,-264 80,-270"/>
<polyline fill="none" stroke="#2e3436" stroke-width="1.5" points="80,-270 80,-282 "/>
<path fill="none" stroke="#2e3436" stroke-width="1.5" d="M80,-282C80,-288 74,-294 68,-294"/>
<text text-anchor="middle" x="53" y="-273.5" font-family="FreeSans" font-size="10.00" fill="#1c2021">Graph</text>
</g>
<!-- Nodes -->
<g id="node3" class="node"><title>Nodes</title>
<polygon fill="#fadcad" stroke="#fadcad" stroke-width="1.5" points="42,-122 12,-122 1.42109e-14,-110 7.10543e-15,-98 12,-86 42,-86 54,-98 54,-110 42,-122"/>
<path fill="#fadcad" stroke="#fadcad" stroke-width="1.5" d="M12,-122C6,-122 1.77636e-14,-116 1.42109e-14,-110"/>
<path fill="#fadcad" stroke="#fadcad" stroke-width="1.5" d="M7.10543e-15,-98C3.55271e-15,-92 6,-86 12,-86"/>
<path fill="#fadcad" stroke="#fadcad" stroke-width="1.5" d="M42,-86C48,-86 54,-92 54,-98"/>
<path fill="#fadcad" stroke="#fadcad" stroke-width="1.5" d="M54,-110C54,-116 48,-122 42,-122"/>
<polyline fill="none" stroke="#2e3436" stroke-width="1.5" points="42,-122 12,-122 "/>
<path fill="none" stroke="#2e3436" stroke-width="1.5" d="M12,-122C6,-122 1.77636e-14,-116 1.42109e-14,-110"/>
<polyline fill="none" stroke="#2e3436" stroke-width="1.5" points="1.42109e-14,-110 7.10543e-15,-98 "/>
<path fill="none" stroke="#2e3436" stroke-width="1.5" d="M7.10543e-15,-98C3.55271e-15,-92 6,-86 12,-86"/>
<polyline fill="none" stroke="#2e3436" stroke-width="1.5" points="12,-86 42,-86 "/>
<path fill="none" stroke="#2e3436" stroke-width="1.5" d="M42,-86C48,-86 54,-92 54,-98"/>
<polyline fill="none" stroke="#2e3436" stroke-width="1.5" points="54,-98 54,-110 "/>
<path fill="none" stroke="#2e3436" stroke-width="1.5" d="M54,-110C54,-116 48,-122 42,-122"/>
<text text-anchor="middle" x="27" y="-101.5" font-family="FreeSans" font-size="10.00" fill="#1c2021">Nodes</text>
</g>
<!-- Graph&#45;&gt;Nodes -->
<g id="edge2" class="edge"><title>Graph&#45;&gt;Nodes</title>
<path fill="none" stroke="#2e3436" stroke-width="2" d="M42.5491,-257.939C35.4722,-244.623 26.7526,-225.803 23,-208 17.4813,-181.819 19.6855,-151.128 22.5246,-129.905"/>
<polygon fill="#2e3436" stroke="#2e3436" points="23.6291,-122.264 25.8964,-130.169 23.5875,-126.047 23.051,-129.758 22.5561,-129.687 22.0613,-129.615 22.5977,-125.904 19.2158,-129.204 23.6291,-122.264 23.6291,-122.264"/>
<text text-anchor="middle" x="55" y="-187.5" font-family="FreeSans" font-size="10.00" fill="#1c2021">记录数据于</text>
</g>
<!-- Relationships -->
<g id="node5" class="node"><title>Relationships</title>
<polygon fill="#fadcad" stroke="#fadcad" stroke-width="1.5" points="167,-208 113,-208 101,-196 101,-184 113,-172 167,-172 179,-184 179,-196 167,-208"/>
<path fill="#fadcad" stroke="#fadcad" stroke-width="1.5" d="M113,-208C107,-208 101,-202 101,-196"/>
<path fill="#fadcad" stroke="#fadcad" stroke-width="1.5" d="M101,-184C101,-178 107,-172 113,-172"/>
<path fill="#fadcad" stroke="#fadcad" stroke-width="1.5" d="M167,-172C173,-172 179,-178 179,-184"/>
<path fill="#fadcad" stroke="#fadcad" stroke-width="1.5" d="M179,-196C179,-202 173,-208 167,-208"/>
<polyline fill="none" stroke="#2e3436" stroke-width="1.5" points="167,-208 113,-208 "/>
<path fill="none" stroke="#2e3436" stroke-width="1.5" d="M113,-208C107,-208 101,-202 101,-196"/>
<polyline fill="none" stroke="#2e3436" stroke-width="1.5" points="101,-196 101,-184 "/>
<path fill="none" stroke="#2e3436" stroke-width="1.5" d="M101,-184C101,-178 107,-172 113,-172"/>
<polyline fill="none" stroke="#2e3436" stroke-width="1.5" points="113,-172 167,-172 "/>
<path fill="none" stroke="#2e3436" stroke-width="1.5" d="M167,-172C173,-172 179,-178 179,-184"/>
<polyline fill="none" stroke="#2e3436" stroke-width="1.5" points="179,-184 179,-196 "/>
<path fill="none" stroke="#2e3436" stroke-width="1.5" d="M179,-196C179,-202 173,-208 167,-208"/>
<text text-anchor="middle" x="140" y="-187.5" font-family="FreeSans" font-size="10.00" fill="#1c2021">Relationships</text>
</g>
<!-- Graph&#45;&gt;Relationships -->
<g id="edge4" class="edge"><title>Graph&#45;&gt;Relationships</title>
<path fill="none" stroke="#2e3436" stroke-width="2" d="M71.4505,-257.762C84.4845,-244.877 102.07,-227.494 116.166,-213.56"/>
<polygon fill="#2e3436" stroke="#2e3436" points="121.576,-208.212 118.615,-215.885 119.261,-211.204 116.594,-213.84 116.242,-213.485 115.891,-213.129 118.558,-210.493 113.87,-211.084 121.576,-208.212 121.576,-208.212"/>
<text text-anchor="middle" x="133" y="-230.5" font-family="FreeSans" font-size="10.00" fill="#1c2021">记录数据于</text>
</g>
<!-- Properties -->
<g id="node8" class="node"><title>Properties</title>
<polygon fill="#fadcad" stroke="#fadcad" stroke-width="1.5" points="113,-36 73,-36 61,-24 61,-12 73,-1.5099e-14 113,-6.21725e-15 125,-12 125,-24 113,-36"/>
<path fill="#fadcad" stroke="#fadcad" stroke-width="1.5" d="M73,-36C67,-36 61,-30 61,-24"/>
<path fill="#fadcad" stroke="#fadcad" stroke-width="1.5" d="M61,-12C61,-6 67,-1.64313e-14 73,-1.5099e-14"/>
<path fill="#fadcad" stroke="#fadcad" stroke-width="1.5" d="M113,-6.21725e-15C119,-4.88498e-15 125,-6 125,-12"/>
<path fill="#fadcad" stroke="#fadcad" stroke-width="1.5" d="M125,-24C125,-30 119,-36 113,-36"/>
<polyline fill="none" stroke="#2e3436" stroke-width="1.5" points="113,-36 73,-36 "/>
<path fill="none" stroke="#2e3436" stroke-width="1.5" d="M73,-36C67,-36 61,-30 61,-24"/>
<polyline fill="none" stroke="#2e3436" stroke-width="1.5" points="61,-24 61,-12 "/>
<path fill="none" stroke="#2e3436" stroke-width="1.5" d="M61,-12C61,-6 67,-1.64313e-14 73,-1.5099e-14"/>
<polyline fill="none" stroke="#2e3436" stroke-width="1.5" points="73,-1.5099e-14 113,-6.21725e-15 "/>
<path fill="none" stroke="#2e3436" stroke-width="1.5" d="M113,-6.21725e-15C119,-4.88498e-15 125,-6 125,-12"/>
<polyline fill="none" stroke="#2e3436" stroke-width="1.5" points="125,-12 125,-24 "/>
<path fill="none" stroke="#2e3436" stroke-width="1.5" d="M125,-24C125,-30 119,-36 113,-36"/>
<text text-anchor="middle" x="93" y="-15.5" font-family="FreeSans" font-size="10.00" fill="#1c2021">Properties</text>
</g>
<!-- Nodes&#45;&gt;Properties -->
<g id="edge8" class="edge"><title>Nodes&#45;&gt;Properties</title>
<path fill="none" stroke="#2e3436" stroke-width="2" d="M40.9969,-85.7616C50.7098,-73.1055 63.7544,-56.1079 74.3488,-42.3031"/>
<polygon fill="#2e3436" stroke="#2e3436" points="79.0233,-36.2121 77.1345,-44.2167 77.1368,-39.4914 74.8538,-42.4664 74.4571,-42.1619 74.0604,-41.8575 76.3435,-38.8826 71.7797,-40.1072 79.0233,-36.2121 79.0233,-36.2121"/>
<text text-anchor="middle" x="76" y="-58.5" font-family="FreeSans" font-size="10.00" fill="#1c2021">拥有</text>
</g>
<!-- Relationships&#45;&gt;Nodes -->
<g id="edge6" class="edge"><title>Relationships&#45;&gt;Nodes</title>
<path fill="none" stroke="#2e3436" stroke-width="2" d="M108.603,-171.956C99.7783,-166.501 90.3236,-160.284 82,-154 71.2534,-145.887 60.1301,-136.081 50.7224,-127.31"/>
<polygon fill="#2e3436" stroke="#2e3436" points="45.1052,-122.007 52.8757,-124.701 48.1753,-124.218 50.9021,-126.792 50.5588,-127.156 50.2156,-127.519 47.4888,-124.945 48.2419,-129.61 45.1052,-122.007 45.1052,-122.007"/>
<text text-anchor="middle" x="95" y="-144.5" font-family="FreeSans" font-size="10.00" fill="#1c2021">组织</text>
</g>
<!-- Relationships&#45;&gt;Properties -->
<g id="edge10" class="edge"><title>Relationships&#45;&gt;Properties</title>
<path fill="none" stroke="#2e3436" stroke-width="2" d="M135.059,-171.918C126.667,-141.207 109.606,-78.7693 99.9918,-43.5871"/>
<polygon fill="#2e3436" stroke="#2e3436" points="97.9453,-36.0977 103.178,-42.4428 99.4161,-39.5833 100.405,-43.2007 99.9223,-43.3325 99.44,-43.4643 98.4515,-39.8469 96.6667,-44.2222 97.9453,-36.0977 97.9453,-36.0977"/>
<text text-anchor="middle" x="134" y="-101.5" font-family="FreeSans" font-size="10.00" fill="#1c2021">拥有</text>
</g>
</g>
</svg>
