<?xml version="1.0" encoding="UTF-8" standalone="no"?>
<!DOCTYPE svg PUBLIC "-//W3C//DTD SVG 1.1//EN"
 "http://www.w3.org/Graphics/SVG/1.1/DTD/svg11.dtd">
<!-- Generated by graphviz version 2.38.0 (20140413.2041)
 -->
<!-- Title: g Pages: 1 -->
<svg width="374pt" height="373pt"
 viewBox="0.00 0.00 374.00 373.00" xmlns="http://www.w3.org/2000/svg" xmlns:xlink="http://www.w3.org/1999/xlink">
<g id="graph0" class="graph" transform="scale(1 1) rotate(0) translate(4 369)">
<title>g</title>
<polygon fill="white" stroke="none" points="-4,4 -4,-369 370,-369 370,4 -4,4"/>
<!-- N0 -->
<g id="node1" class="node"><title>N0</title>
<path fill="#ffffff" stroke="#2e3436" stroke-width="1.5" d="M29,-246.5C29,-246.5 85,-246.5 85,-246.5 91,-246.5 97,-252.5 97,-258.5 97,-258.5 97,-270.5 97,-270.5 97,-276.5 91,-282.5 85,-282.5 85,-282.5 29,-282.5 29,-282.5 23,-282.5 17,-276.5 17,-270.5 17,-270.5 17,-258.5 17,-258.5 17,-252.5 23,-246.5 29,-246.5"/>
<text text-anchor="start" x="25" y="-262.6" font-family="FreeSans" font-size="8.00" fill="#1c2021">name = &#39;U1G2R1&#39;</text>
</g>
<!-- N3 -->
<g id="node2" class="node"><title>N3</title>
<path fill="#ffffff" stroke="#2e3436" stroke-width="1.5" d="M65,-164.5C65,-164.5 117,-164.5 117,-164.5 123,-164.5 129,-170.5 129,-176.5 129,-176.5 129,-188.5 129,-188.5 129,-194.5 123,-200.5 117,-200.5 117,-200.5 65,-200.5 65,-200.5 59,-200.5 53,-194.5 53,-188.5 53,-188.5 53,-176.5 53,-176.5 53,-170.5 59,-164.5 65,-164.5"/>
<text text-anchor="start" x="61" y="-180.6" font-family="FreeSans" font-size="8.00" fill="#1c2021">name = &#39;Group2&#39;</text>
</g>
<!-- N0&#45;&gt;N3 -->
<g id="edge1" class="edge"><title>N0&#45;&gt;N3</title>
<path fill="none" stroke="#2e3436" stroke-width="2" d="M64.3775,-246.141C69.1774,-234.847 75.5034,-219.962 80.7845,-207.536"/>
<polygon fill="#2e3436" stroke="#2e3436" stroke-width="2" points="83.7537,-200.55 83.9262,-208.773 82.7471,-204.197 81.2803,-207.648 80.8201,-207.453 80.3599,-207.257 81.8267,-203.806 77.714,-206.132 83.7537,-200.55 83.7537,-200.55"/>
<text text-anchor="middle" x="94" y="-221.6" font-family="FreeSans" font-size="8.00" fill="#2e3436">hasGroup</text>
</g>
<!-- N4 -->
<g id="node3" class="node"><title>N4</title>
<path fill="#ffffff" stroke="#2e3436" stroke-width="1.5" d="M12,-82.5C12,-82.5 58,-82.5 58,-82.5 64,-82.5 70,-88.5 70,-94.5 70,-94.5 70,-106.5 70,-106.5 70,-112.5 64,-118.5 58,-118.5 58,-118.5 12,-118.5 12,-118.5 6,-118.5 0,-112.5 0,-106.5 0,-106.5 0,-94.5 0,-94.5 0,-88.5 6,-82.5 12,-82.5"/>
<text text-anchor="start" x="8" y="-98.6" font-family="FreeSans" font-size="8.00" fill="#1c2021">name = &#39;Role1&#39;</text>
</g>
<!-- N0&#45;&gt;N4 -->
<g id="edge2" class="edge"><title>N0&#45;&gt;N4</title>
<path fill="none" stroke="#4e9a06" stroke-width="2" d="M38.3297,-246.345C27.1725,-234.77 14.0298,-218.464 8,-201 -1.31153,-174.031 2.7106,-163.611 13,-137 14.5362,-133.027 16.526,-129.008 18.6803,-125.173"/>
<polygon fill="#4e9a06" stroke="#4e9a06" stroke-width="2" points="22.6732,-118.519 21.708,-126.686 21.1724,-121.992 19.2428,-125.207 18.814,-124.95 18.3853,-124.693 20.3149,-121.477 15.9201,-123.213 22.6732,-118.519 22.6732,-118.519"/>
<text text-anchor="middle" x="23" y="-180.6" font-family="FreeSans" font-size="8.00" fill="#4e9a06">hasRole</text>
</g>
<!-- N3&#45;&gt;N4 -->
<g id="edge8" class="edge"><title>N3&#45;&gt;N4</title>
<path fill="none" stroke="#204a87" stroke-width="2" d="M52.8136,-170.667C40.8389,-165.274 28.9461,-157.385 22,-146 18.3059,-139.945 18.6956,-132.786 20.7953,-125.999"/>
<polygon fill="#204a87" stroke="#204a87" stroke-width="2" points="23.6324,-118.852 24.0021,-127.068 22.7135,-122.522 21.3299,-126.008 20.8652,-125.823 20.4005,-125.639 21.7841,-122.153 17.7283,-124.578 23.6324,-118.852 23.6324,-118.852"/>
<text text-anchor="middle" x="38.5" y="-139.6" font-family="FreeSans" font-size="8.00" fill="#204a87">canHave</text>
</g>
<!-- N1 -->
<g id="node4" class="node"><title>N1</title>
<path fill="#ffffff" stroke="#2e3436" stroke-width="1.5" d="M280,-82.5C280,-82.5 326,-82.5 326,-82.5 332,-82.5 338,-88.5 338,-94.5 338,-94.5 338,-106.5 338,-106.5 338,-112.5 332,-118.5 326,-118.5 326,-118.5 280,-118.5 280,-118.5 274,-118.5 268,-112.5 268,-106.5 268,-106.5 268,-94.5 268,-94.5 268,-88.5 274,-82.5 280,-82.5"/>
<text text-anchor="start" x="276" y="-98.6" font-family="FreeSans" font-size="8.00" fill="#1c2021">name = &#39;Role2&#39;</text>
</g>
<!-- N3&#45;&gt;N1 -->
<g id="edge9" class="edge"><title>N3&#45;&gt;N1</title>
<path fill="none" stroke="#204a87" stroke-width="2" d="M129.489,-164.53C149.484,-155.922 174.401,-145.515 197,-137 217.774,-129.173 241.146,-121.253 260.648,-114.886"/>
<polygon fill="#204a87" stroke="#204a87" stroke-width="2" points="267.919,-112.525 261.827,-118.051 264.506,-114.159 260.94,-115.317 260.785,-114.841 260.631,-114.366 264.197,-113.208 259.743,-111.631 267.919,-112.525 267.919,-112.525"/>
<text text-anchor="middle" x="213.5" y="-139.6" font-family="FreeSans" font-size="8.00" fill="#204a87">canHave</text>
</g>
<!-- N8 -->
<g id="node7" class="node"><title>N8</title>
<path fill="#ffffff" stroke="#2e3436" stroke-width="1.5" d="M156.5,-82.5C156.5,-82.5 203.5,-82.5 203.5,-82.5 209.5,-82.5 215.5,-88.5 215.5,-94.5 215.5,-94.5 215.5,-106.5 215.5,-106.5 215.5,-112.5 209.5,-118.5 203.5,-118.5 203.5,-118.5 156.5,-118.5 156.5,-118.5 150.5,-118.5 144.5,-112.5 144.5,-106.5 144.5,-106.5 144.5,-94.5 144.5,-94.5 144.5,-88.5 150.5,-82.5 156.5,-82.5"/>
<text text-anchor="start" x="152.5" y="-98.6" font-family="FreeSans" font-size="8.00" fill="#1c2021">name = &#39;Group&#39;</text>
</g>
<!-- N3&#45;&gt;N8 -->
<g id="edge7" class="edge"><title>N3&#45;&gt;N8</title>
<path fill="none" stroke="#a40000" stroke-width="2" d="M86.1051,-164.093C84.6743,-155.266 84.6958,-144.794 90,-137 100.584,-121.448 119.134,-112.709 136.653,-107.798"/>
<polygon fill="#a40000" stroke="#a40000" stroke-width="2" points="144.072,-105.919 137.63,-111.032 140.559,-107.325 136.924,-108.245 136.802,-107.761 136.679,-107.276 140.314,-106.355 135.973,-104.489 144.072,-105.919 144.072,-105.919"/>
<text text-anchor="middle" x="95.5" y="-139.6" font-family="FreeSans" font-size="8.00" fill="#a40000">isA</text>
</g>
<!-- N5 -->
<g id="node5" class="node"><title>N5</title>
<path fill="#ffffff" stroke="#2e3436" stroke-width="1.5" d="M175.5,-0.5C175.5,-0.5 216.5,-0.5 216.5,-0.5 222.5,-0.5 228.5,-6.5 228.5,-12.5 228.5,-12.5 228.5,-24.5 228.5,-24.5 228.5,-30.5 222.5,-36.5 216.5,-36.5 216.5,-36.5 175.5,-36.5 175.5,-36.5 169.5,-36.5 163.5,-30.5 163.5,-24.5 163.5,-24.5 163.5,-12.5 163.5,-12.5 163.5,-6.5 169.5,-0.5 175.5,-0.5"/>
<text text-anchor="start" x="171.5" y="-16.6" font-family="FreeSans" font-size="8.00" fill="#1c2021">name = &#39;Role&#39;</text>
</g>
<!-- N4&#45;&gt;N5 -->
<g id="edge10" class="edge"><title>N4&#45;&gt;N5</title>
<path fill="none" stroke="#a40000" stroke-width="2" d="M69.5385,-82.338C95.0685,-69.6523 129.874,-52.3578 156.508,-39.1235"/>
<polygon fill="#a40000" stroke="#a40000" stroke-width="2" points="163.44,-35.679 158.225,-42.0389 160.304,-37.7955 156.946,-39.4643 156.723,-39.0165 156.501,-38.5687 159.859,-36.9 155.221,-35.9941 163.44,-35.679 163.44,-35.679"/>
<text text-anchor="middle" x="126.5" y="-57.6" font-family="FreeSans" font-size="8.00" fill="#a40000">isA</text>
</g>
<!-- N1&#45;&gt;N5 -->
<g id="edge3" class="edge"><title>N1&#45;&gt;N5</title>
<path fill="none" stroke="#a40000" stroke-width="2" d="M280.046,-82.338C263.967,-70.3164 242.352,-54.1559 225.069,-41.2341"/>
<polygon fill="#a40000" stroke="#a40000" stroke-width="2" points="218.916,-36.6336 226.944,-38.4216 222.219,-38.4787 225.222,-40.7242 224.923,-41.1247 224.624,-41.5251 221.62,-39.2796 222.902,-43.8277 218.916,-36.6336 218.916,-36.6336"/>
<text text-anchor="middle" x="258.5" y="-57.6" font-family="FreeSans" font-size="8.00" fill="#a40000">isA</text>
</g>
<!-- N2 -->
<g id="node6" class="node"><title>N2</title>
<path fill="#ffffff" stroke="#2e3436" stroke-width="1.5" d="M244,-164.5C244,-164.5 296,-164.5 296,-164.5 302,-164.5 308,-170.5 308,-176.5 308,-176.5 308,-188.5 308,-188.5 308,-194.5 302,-200.5 296,-200.5 296,-200.5 244,-200.5 244,-200.5 238,-200.5 232,-194.5 232,-188.5 232,-188.5 232,-176.5 232,-176.5 232,-170.5 238,-164.5 244,-164.5"/>
<text text-anchor="start" x="240" y="-180.6" font-family="FreeSans" font-size="8.00" fill="#1c2021">name = &#39;Group1&#39;</text>
</g>
<!-- N2&#45;&gt;N4 -->
<g id="edge6" class="edge"><title>N2&#45;&gt;N4</title>
<path fill="none" stroke="#204a87" stroke-width="2" d="M231.992,-172.967C205.139,-166.549 168.473,-156.996 137,-146 117.034,-139.025 95.4923,-129.878 77.3735,-121.692"/>
<polygon fill="#204a87" stroke="#204a87" stroke-width="2" points="70.3507,-118.49 78.575,-118.531 73.9703,-119.591 77.3824,-121.147 77.175,-121.602 76.9676,-122.057 73.5554,-120.501 75.7749,-124.673 70.3507,-118.49 70.3507,-118.49"/>
<text text-anchor="middle" x="153.5" y="-139.6" font-family="FreeSans" font-size="8.00" fill="#204a87">canHave</text>
</g>
<!-- N2&#45;&gt;N1 -->
<g id="edge5" class="edge"><title>N2&#45;&gt;N1</title>
<path fill="none" stroke="#204a87" stroke-width="2" d="M277.161,-164.141C281.819,-152.847 287.959,-137.962 293.085,-125.536"/>
<polygon fill="#204a87" stroke="#204a87" stroke-width="2" points="295.967,-118.55 296.227,-126.77 294.999,-122.207 293.569,-125.674 293.107,-125.483 292.645,-125.293 294.075,-121.826 289.987,-124.196 295.967,-118.55 295.967,-118.55"/>
<text text-anchor="middle" x="303.5" y="-139.6" font-family="FreeSans" font-size="8.00" fill="#204a87">canHave</text>
</g>
<!-- N2&#45;&gt;N8 -->
<g id="edge4" class="edge"><title>N2&#45;&gt;N8</title>
<path fill="none" stroke="#a40000" stroke-width="2" d="M259.432,-164.225C253.526,-155.434 245.627,-144.954 237,-137 231.472,-131.903 225.111,-127.12 218.688,-122.818"/>
<polygon fill="#a40000" stroke="#a40000" stroke-width="2" points="212.273,-118.682 220.405,-119.909 215.695,-120.294 218.847,-122.326 218.576,-122.746 218.305,-123.166 215.153,-121.134 216.747,-125.582 212.273,-118.682 212.273,-118.682"/>
<text text-anchor="middle" x="251.5" y="-139.6" font-family="FreeSans" font-size="8.00" fill="#a40000">isA</text>
</g>
<!-- N6 -->
<g id="node8" class="node"><title>N6</title>
<path fill="#ffffff" stroke="#2e3436" stroke-width="1.5" d="M163.5,-328.5C163.5,-328.5 210.5,-328.5 210.5,-328.5 216.5,-328.5 222.5,-334.5 222.5,-340.5 222.5,-340.5 222.5,-352.5 222.5,-352.5 222.5,-358.5 216.5,-364.5 210.5,-364.5 210.5,-364.5 163.5,-364.5 163.5,-364.5 157.5,-364.5 151.5,-358.5 151.5,-352.5 151.5,-352.5 151.5,-340.5 151.5,-340.5 151.5,-334.5 157.5,-328.5 163.5,-328.5"/>
<text text-anchor="start" x="159.5" y="-344.6" font-family="FreeSans" font-size="8.00" fill="#1c2021">name = &#39;User1&#39;</text>
</g>
<!-- N6&#45;&gt;N0 -->
<g id="edge12" class="edge"><title>N6&#45;&gt;N0</title>
<path fill="none" stroke="#8f5902" stroke-width="2" d="M151.335,-342.393C126.793,-338.499 94.9633,-329.732 74,-310 68.4276,-304.755 64.6625,-297.488 62.1262,-290.346"/>
<polygon fill="#8f5902" stroke="#8f5902" stroke-width="2" points="59.829,-282.746 65.2298,-288.949 61.3927,-286.191 62.4778,-289.781 61.9992,-289.925 61.5206,-290.07 60.4355,-286.48 58.7686,-290.902 59.829,-282.746 59.829,-282.746"/>
<text text-anchor="middle" x="103.5" y="-303.6" font-family="FreeSans" font-size="8.00" fill="#8f5902">hasRoleInGroup</text>
</g>
<!-- N6&#45;&gt;N3 -->
<g id="edge13" class="edge"><title>N6&#45;&gt;N3</title>
<path fill="none" stroke="#5c3566" stroke-width="2" d="M178.889,-328.18C166.971,-303.297 143.479,-256.319 119,-219 116.344,-214.951 113.343,-210.792 110.316,-206.811"/>
<polygon fill="#5c3566" stroke="#5c3566" stroke-width="2" points="105.585,-200.744 112.858,-204.583 108.285,-203.394 110.591,-206.351 110.197,-206.659 109.802,-206.966 107.497,-204.009 107.535,-208.734 105.585,-200.744 105.585,-200.744"/>
<text text-anchor="middle" x="160.5" y="-262.6" font-family="FreeSans" font-size="8.00" fill="#5c3566">in</text>
</g>
<!-- N6&#45;&gt;N2 -->
<g id="edge14" class="edge"><title>N6&#45;&gt;N2</title>
<path fill="none" stroke="#5c3566" stroke-width="2" d="M194.569,-328.393C203.531,-308.403 219.124,-274.44 234,-246 240.841,-232.922 249.014,-218.637 255.842,-207.03"/>
<polygon fill="#5c3566" stroke="#5c3566" stroke-width="2" points="259.687,-200.534 258.771,-208.708 258.207,-204.016 256.297,-207.243 255.867,-206.988 255.436,-206.734 257.347,-203.507 252.962,-205.269 259.687,-200.534 259.687,-200.534"/>
<text text-anchor="middle" x="237.5" y="-262.6" font-family="FreeSans" font-size="8.00" fill="#5c3566">in</text>
</g>
<!-- N7 -->
<g id="node9" class="node"><title>N7</title>
<path fill="#ffffff" stroke="#2e3436" stroke-width="1.5" d="M268,-246.5C268,-246.5 324,-246.5 324,-246.5 330,-246.5 336,-252.5 336,-258.5 336,-258.5 336,-270.5 336,-270.5 336,-276.5 330,-282.5 324,-282.5 324,-282.5 268,-282.5 268,-282.5 262,-282.5 256,-276.5 256,-270.5 256,-270.5 256,-258.5 256,-258.5 256,-252.5 262,-246.5 268,-246.5"/>
<text text-anchor="start" x="264" y="-262.6" font-family="FreeSans" font-size="8.00" fill="#1c2021">name = &#39;U1G1R2&#39;</text>
</g>
<!-- N6&#45;&gt;N7 -->
<g id="edge11" class="edge"><title>N6&#45;&gt;N7</title>
<path fill="none" stroke="#8f5902" stroke-width="2" d="M214.838,-328.418C223.669,-322.765 233.375,-316.304 242,-310 251.562,-303.01 261.674,-294.89 270.529,-287.514"/>
<polygon fill="#8f5902" stroke="#8f5902" stroke-width="2" points="276.436,-282.55 272.866,-289.958 273.887,-285.345 271.016,-287.757 270.695,-287.375 270.373,-286.992 273.244,-284.579 268.523,-284.791 276.436,-282.55 276.436,-282.55"/>
<text text-anchor="middle" x="282.5" y="-303.6" font-family="FreeSans" font-size="8.00" fill="#8f5902">hasRoleInGroup</text>
</g>
<!-- N7&#45;&gt;N1 -->
<g id="edge16" class="edge"><title>N7&#45;&gt;N1</title>
<path fill="none" stroke="#4e9a06" stroke-width="2" d="M314.597,-246.297C319.199,-240.927 323.519,-234.653 326,-228 340.131,-190.102 338.846,-175.673 327,-137 325.774,-132.999 323.929,-129.042 321.794,-125.303"/>
<polygon fill="#4e9a06" stroke="#4e9a06" stroke-width="2" points="317.713,-118.847 324.573,-123.383 320.139,-121.749 322.143,-124.919 321.721,-125.186 321.298,-125.453 319.294,-122.284 318.868,-126.99 317.713,-118.847 317.713,-118.847"/>
<text text-anchor="middle" x="351" y="-180.6" font-family="FreeSans" font-size="8.00" fill="#4e9a06">hasRole</text>
</g>
<!-- N7&#45;&gt;N2 -->
<g id="edge15" class="edge"><title>N7&#45;&gt;N2</title>
<path fill="none" stroke="#2e3436" stroke-width="2" d="M290.358,-246.141C286.722,-234.953 281.941,-220.24 277.925,-207.886"/>
<polygon fill="#2e3436" stroke="#2e3436" stroke-width="2" points="275.541,-200.55 281.069,-206.64 277.176,-203.962 278.335,-207.528 277.859,-207.683 277.384,-207.837 276.225,-204.271 274.65,-208.726 275.541,-200.55 275.541,-200.55"/>
<text text-anchor="middle" x="301" y="-221.6" font-family="FreeSans" font-size="8.00" fill="#2e3436">hasGroup</text>
</g>
</g>
</svg>
