<?xml version="1.0" encoding="UTF-8" standalone="no"?>
<!DOCTYPE svg PUBLIC "-//W3C//DTD SVG 1.1//EN"
 "http://www.w3.org/Graphics/SVG/1.1/DTD/svg11.dtd">
<!-- Generated by graphviz version 2.38.0 (20140413.2041)
 -->
<!-- Title: g Pages: 1 -->
<svg width="504pt" height="153pt"
 viewBox="0.00 0.00 504.00 152.68" xmlns="http://www.w3.org/2000/svg" xmlns:xlink="http://www.w3.org/1999/xlink">
<g id="graph0" class="graph" transform="scale(0.706872 0.706872) rotate(0) translate(4 212)">
<title>g</title>
<polygon fill="white" stroke="none" points="-4,4 -4,-212 709,-212 709,4 -4,4"/>
<!-- N0 -->
<g id="node1" class="node"><title>N0</title>
<path fill="#ffffff" stroke="#2e3436" stroke-width="1.5" d="M17,-171.5C17,-171.5 83,-171.5 83,-171.5 89,-171.5 95,-177.5 95,-183.5 95,-183.5 95,-195.5 95,-195.5 95,-201.5 89,-207.5 83,-207.5 83,-207.5 17,-207.5 17,-207.5 11,-207.5 5,-201.5 5,-195.5 5,-195.5 5,-183.5 5,-183.5 5,-177.5 11,-171.5 17,-171.5"/>
<text text-anchor="start" x="13" y="-187.6" font-family="FreeSans" font-size="8.00" fill="#1c2021">name = &#39;Rob Reiner&#39;</text>
</g>
<!-- N1 -->
<g id="node2" class="node"><title>N1</title>
<path fill="#ffffff" stroke="#2e3436" stroke-width="1.5" d="M12,-89.5C12,-89.5 88,-89.5 88,-89.5 94,-89.5 100,-95.5 100,-101.5 100,-101.5 100,-113.5 100,-113.5 100,-119.5 94,-125.5 88,-125.5 88,-125.5 12,-125.5 12,-125.5 6,-125.5 0,-119.5 0,-113.5 0,-113.5 0,-101.5 0,-101.5 0,-95.5 6,-89.5 12,-89.5"/>
<text text-anchor="start" x="8" y="-105.6" font-family="FreeSans" font-size="8.00" fill="#1c2021">name = &#39;Charlie Sheen&#39;</text>
</g>
<!-- N0&#45;&gt;N1 -->
<g id="edge1" class="edge"><title>N0&#45;&gt;N1</title>
<path fill="none" stroke="#2e3436" stroke-width="2" d="M50,-171.141C50,-160.058 50,-145.518 50,-133.236"/>
<polygon fill="#2e3436" stroke="#2e3436" stroke-width="2" points="50,-125.55 53.3751,-133.05 50.5,-129.3 50.5001,-133.05 50.0001,-133.05 49.5001,-133.05 49.5,-129.3 46.6251,-133.05 50,-125.55 50,-125.55"/>
<text text-anchor="middle" x="107" y="-146.6" font-family="FreeSans" font-size="8.00" fill="#2e3436">TYPE THAT HAS SPACE IN IT</text>
</g>
<!-- N2 -->
<g id="node3" class="node"><title>N2</title>
<path fill="#ffffff" stroke="#2e3436" stroke-width="1.5" d="M141.5,-89.5C141.5,-89.5 210.5,-89.5 210.5,-89.5 216.5,-89.5 222.5,-95.5 222.5,-101.5 222.5,-101.5 222.5,-113.5 222.5,-113.5 222.5,-119.5 216.5,-125.5 210.5,-125.5 210.5,-125.5 141.5,-125.5 141.5,-125.5 135.5,-125.5 129.5,-119.5 129.5,-113.5 129.5,-113.5 129.5,-101.5 129.5,-101.5 129.5,-95.5 135.5,-89.5 141.5,-89.5"/>
<text text-anchor="middle" x="176" y="-114.6" font-family="FreeSans" font-size="8.00" fill="#1c2021">Person</text>
<polyline fill="none" stroke="#2e3436" stroke-width="1.5" points="129.5,-107.5 222.5,-107.5 "/>
<text text-anchor="start" x="137.5" y="-96.6" font-family="FreeSans" font-size="8.00" fill="#1c2021">name = &#39;Oliver Stone&#39;</text>
</g>
<!-- N6 -->
<g id="node4" class="node"><title>N6</title>
<path fill="#ffffff" stroke="#2e3436" stroke-width="1.5" d="M274,-0.5C274,-0.5 336,-0.5 336,-0.5 342,-0.5 348,-6.5 348,-12.5 348,-12.5 348,-31.5 348,-31.5 348,-37.5 342,-43.5 336,-43.5 336,-43.5 274,-43.5 274,-43.5 268,-43.5 262,-37.5 262,-31.5 262,-31.5 262,-12.5 262,-12.5 262,-6.5 268,-0.5 274,-0.5"/>
<text text-anchor="middle" x="305" y="-33.1" font-family="FreeSans" font-size="8.00" fill="#1c2021">Movie</text>
<polyline fill="none" stroke="#2e3436" stroke-width="1.5" points="262,-26.5 348,-26.5 "/>
<text text-anchor="start" x="270" y="-16.1" font-family="FreeSans" font-size="8.00" fill="#1c2021">name = &#39;WallStreet&#39;</text>
<text text-anchor="start" x="270" y="-7.1" font-family="FreeSans" font-size="8.00" fill="#1c2021">title = &#39;Wall Street&#39;</text>
</g>
<!-- N2&#45;&gt;N6 -->
<g id="edge2" class="edge"><title>N2&#45;&gt;N6</title>
<path fill="none" stroke="#4e9a06" stroke-width="2" d="M188.61,-89.2254C195.849,-80.2214 205.56,-69.5451 216,-62 227.652,-53.5792 241.409,-46.443 254.578,-40.6693"/>
<polygon fill="#4e9a06" stroke="#4e9a06" stroke-width="2" points="261.816,-37.6024 256.227,-43.6359 258.558,-39.5257 255.106,-40.9887 254.91,-40.5283 254.715,-40.068 258.168,-38.605 253.594,-37.4208 261.816,-37.6024 261.816,-37.6024"/>
<text text-anchor="middle" x="237.5" y="-64.6" font-family="FreeSans" font-size="8.00" fill="#4e9a06">DIRECTED</text>
</g>
<!-- N3 -->
<g id="node5" class="node"><title>N3</title>
<path fill="#ffffff" stroke="#2e3436" stroke-width="1.5" d="M319,-171.5C319,-171.5 395,-171.5 395,-171.5 401,-171.5 407,-177.5 407,-183.5 407,-183.5 407,-195.5 407,-195.5 407,-201.5 401,-207.5 395,-207.5 395,-207.5 319,-207.5 319,-207.5 313,-207.5 307,-201.5 307,-195.5 307,-195.5 307,-183.5 307,-183.5 307,-177.5 313,-171.5 319,-171.5"/>
<text text-anchor="middle" x="357" y="-196.6" font-family="FreeSans" font-size="8.00" fill="#1c2021">Person</text>
<polyline fill="none" stroke="#2e3436" stroke-width="1.5" points="307,-189.5 407,-189.5 "/>
<text text-anchor="start" x="315" y="-178.6" font-family="FreeSans" font-size="8.00" fill="#1c2021">name = &#39;Charlie Sheen&#39;</text>
</g>
<!-- N3&#45;&gt;N6 -->
<g id="edge4" class="edge"><title>N3&#45;&gt;N6</title>
<path fill="none" stroke="#204a87" stroke-width="2" d="M332.226,-171.334C318.437,-160.202 302.567,-144.372 295,-126 285.128,-102.032 289.56,-72.3631 295.309,-51.033"/>
<polygon fill="#204a87" stroke="#204a87" stroke-width="2" points="297.462,-43.5778 298.623,-51.7198 296.902,-47.3193 295.861,-50.922 295.381,-50.7833 294.9,-50.6445 295.941,-47.0418 292.138,-49.8467 297.462,-43.5778 297.462,-43.5778"/>
<text text-anchor="middle" x="315.5" y="-105.6" font-family="FreeSans" font-size="8.00" fill="#204a87">ACTED_IN</text>
</g>
<!-- N4 -->
<g id="node6" class="node"><title>N4</title>
<path fill="#ffffff" stroke="#2e3436" stroke-width="1.5" d="M500.5,-89.5C500.5,-89.5 573.5,-89.5 573.5,-89.5 579.5,-89.5 585.5,-95.5 585.5,-101.5 585.5,-101.5 585.5,-113.5 585.5,-113.5 585.5,-119.5 579.5,-125.5 573.5,-125.5 573.5,-125.5 500.5,-125.5 500.5,-125.5 494.5,-125.5 488.5,-119.5 488.5,-113.5 488.5,-113.5 488.5,-101.5 488.5,-101.5 488.5,-95.5 494.5,-89.5 500.5,-89.5"/>
<text text-anchor="middle" x="537" y="-114.6" font-family="FreeSans" font-size="8.00" fill="#1c2021">Person</text>
<polyline fill="none" stroke="#2e3436" stroke-width="1.5" points="488.5,-107.5 585.5,-107.5 "/>
<text text-anchor="start" x="496.5" y="-96.6" font-family="FreeSans" font-size="8.00" fill="#1c2021">name = &#39;Martin Sheen&#39;</text>
</g>
<!-- N3&#45;&gt;N4 -->
<g id="edge3" class="edge"><title>N3&#45;&gt;N4</title>
<path fill="none" stroke="#a40000" stroke-width="2" d="M395.615,-171.338C423.731,-158.842 461.909,-141.874 491.506,-128.719"/>
<polygon fill="#a40000" stroke="#a40000" stroke-width="2" points="498.449,-125.634 492.966,-131.764 495.226,-127.614 491.799,-129.137 491.596,-128.68 491.393,-128.223 494.819,-126.7 490.225,-125.596 498.449,-125.634 498.449,-125.634"/>
<text text-anchor="middle" x="469" y="-146.6" font-family="FreeSans" font-size="8.00" fill="#a40000">FATHER</text>
</g>
<!-- N4&#45;&gt;N6 -->
<g id="edge6" class="edge"><title>N4&#45;&gt;N6</title>
<path fill="none" stroke="#204a87" stroke-width="2" d="M506.004,-89.3387C488.948,-80.3679 467.201,-69.6871 447,-62 417.406,-50.7383 383.209,-41.2449 355.791,-34.4447"/>
<polygon fill="#204a87" stroke="#204a87" stroke-width="2" points="348.247,-32.5989 356.334,-31.1031 352.008,-33.0045 355.651,-33.8957 355.532,-34.3814 355.413,-34.867 351.77,-33.9758 354.73,-37.6597 348.247,-32.5989 348.247,-32.5989"/>
<text text-anchor="middle" x="487.5" y="-64.6" font-family="FreeSans" font-size="8.00" fill="#204a87">ACTED_IN</text>
</g>
<!-- N5 -->
<g id="node7" class="node"><title>N5</title>
<path fill="#ffffff" stroke="#2e3436" stroke-width="1.5" d="M501.5,-0.5C501.5,-0.5 608.5,-0.5 608.5,-0.5 614.5,-0.5 620.5,-6.5 620.5,-12.5 620.5,-12.5 620.5,-31.5 620.5,-31.5 620.5,-37.5 614.5,-43.5 608.5,-43.5 608.5,-43.5 501.5,-43.5 501.5,-43.5 495.5,-43.5 489.5,-37.5 489.5,-31.5 489.5,-31.5 489.5,-12.5 489.5,-12.5 489.5,-6.5 495.5,-0.5 501.5,-0.5"/>
<text text-anchor="middle" x="555" y="-33.1" font-family="FreeSans" font-size="8.00" fill="#1c2021">Movie</text>
<polyline fill="none" stroke="#2e3436" stroke-width="1.5" points="489.5,-26.5 620.5,-26.5 "/>
<text text-anchor="start" x="497.5" y="-16.1" font-family="FreeSans" font-size="8.00" fill="#1c2021">title = &#39;The American President&#39;</text>
<text text-anchor="start" x="497.5" y="-7.1" font-family="FreeSans" font-size="8.00" fill="#1c2021">name = &#39;TheAmericanPresident&#39;</text>
</g>
<!-- N4&#45;&gt;N5 -->
<g id="edge5" class="edge"><title>N4&#45;&gt;N5</title>
<path fill="none" stroke="#204a87" stroke-width="2" d="M540.73,-89.1987C543.1,-78.2015 546.224,-63.7098 548.945,-51.0896"/>
<polygon fill="#204a87" stroke="#204a87" stroke-width="2" points="550.576,-43.5216 552.295,-51.5645 550.275,-47.2928 549.484,-50.9586 548.996,-50.8532 548.507,-50.7479 549.297,-47.0821 545.696,-50.142 550.576,-43.5216 550.576,-43.5216"/>
<text text-anchor="middle" x="566.5" y="-64.6" font-family="FreeSans" font-size="8.00" fill="#204a87">ACTED_IN</text>
</g>
<!-- N7 -->
<g id="node8" class="node"><title>N7</title>
<path fill="#ffffff" stroke="#2e3436" stroke-width="1.5" d="M627,-89.5C627,-89.5 693,-89.5 693,-89.5 699,-89.5 705,-95.5 705,-101.5 705,-101.5 705,-113.5 705,-113.5 705,-119.5 699,-125.5 693,-125.5 693,-125.5 627,-125.5 627,-125.5 621,-125.5 615,-119.5 615,-113.5 615,-113.5 615,-101.5 615,-101.5 615,-95.5 621,-89.5 627,-89.5"/>
<text text-anchor="middle" x="660" y="-114.6" font-family="FreeSans" font-size="8.00" fill="#1c2021">Person</text>
<polyline fill="none" stroke="#2e3436" stroke-width="1.5" points="615,-107.5 705,-107.5 "/>
<text text-anchor="start" x="623" y="-96.6" font-family="FreeSans" font-size="8.00" fill="#1c2021">name = &#39;Rob Reiner&#39;</text>
</g>
<!-- N7&#45;&gt;N5 -->
<g id="edge7" class="edge"><title>N7&#45;&gt;N5</title>
<path fill="none" stroke="#4e9a06" stroke-width="2" d="M638.498,-89.401C623.643,-77.5876 603.629,-61.6717 586.92,-48.3837"/>
<polygon fill="#4e9a06" stroke="#4e9a06" stroke-width="2" points="580.929,-43.6195 588.9,-45.6461 584.175,-45.5623 587.11,-47.8964 586.799,-48.2877 586.488,-48.679 583.553,-46.345 584.698,-50.9293 580.929,-43.6195 580.929,-43.6195"/>
<text text-anchor="middle" x="634.5" y="-64.6" font-family="FreeSans" font-size="8.00" fill="#4e9a06">DIRECTED</text>
</g>
<!-- N8 -->
<g id="node9" class="node"><title>N8</title>
<path fill="#ffffff" stroke="#2e3436" stroke-width="1.5" d="M363,-89.5C363,-89.5 447,-89.5 447,-89.5 453,-89.5 459,-95.5 459,-101.5 459,-101.5 459,-113.5 459,-113.5 459,-119.5 453,-125.5 447,-125.5 447,-125.5 363,-125.5 363,-125.5 357,-125.5 351,-119.5 351,-113.5 351,-113.5 351,-101.5 351,-101.5 351,-95.5 357,-89.5 363,-89.5"/>
<text text-anchor="middle" x="405" y="-114.6" font-family="FreeSans" font-size="8.00" fill="#1c2021">Person</text>
<polyline fill="none" stroke="#2e3436" stroke-width="1.5" points="351,-107.5 459,-107.5 "/>
<text text-anchor="start" x="359" y="-96.6" font-family="FreeSans" font-size="8.00" fill="#1c2021">name = &#39;Michael Douglas&#39;</text>
</g>
<!-- N8&#45;&gt;N6 -->
<g id="edge9" class="edge"><title>N8&#45;&gt;N6</title>
<path fill="none" stroke="#204a87" stroke-width="2" d="M354.547,-89.3731C344.944,-84.501 335.55,-78.4386 328,-71 322.273,-65.3577 317.783,-58.0067 314.349,-50.76"/>
<polygon fill="#204a87" stroke="#204a87" stroke-width="2" points="311.262,-43.6153 317.335,-49.1611 313.208,-46.8593 314.696,-50.3016 314.237,-50.4999 313.778,-50.6983 312.29,-47.256 311.139,-51.8388 311.262,-43.6153 311.262,-43.6153"/>
<text text-anchor="middle" x="348.5" y="-64.6" font-family="FreeSans" font-size="8.00" fill="#204a87">ACTED_IN</text>
</g>
<!-- N8&#45;&gt;N5 -->
<g id="edge8" class="edge"><title>N8&#45;&gt;N5</title>
<path fill="none" stroke="#204a87" stroke-width="2" d="M399.265,-89.2506C397.407,-80.2541 397.122,-69.5767 403,-62 413.169,-48.8922 448.064,-39.4295 481.858,-33.1102"/>
<polygon fill="#204a87" stroke="#204a87" stroke-width="2" points="489.495,-31.7301 482.715,-36.3851 485.894,-32.889 482.203,-33.5559 482.115,-33.0638 482.026,-32.5718 485.716,-31.905 481.514,-29.7426 489.495,-31.7301 489.495,-31.7301"/>
<text text-anchor="middle" x="423.5" y="-64.6" font-family="FreeSans" font-size="8.00" fill="#204a87">ACTED_IN</text>
</g>
</g>
</svg>
