<?xml version="1.0" encoding="UTF-8" standalone="no"?>
<!DOCTYPE svg PUBLIC "-//W3C//DTD SVG 1.1//EN"
 "http://www.w3.org/Graphics/SVG/1.1/DTD/svg11.dtd">
<!-- Generated by graphviz version 2.38.0 (20140413.2041)
 -->
<!-- Title: g Pages: 1 -->
<svg width="504pt" height="70pt"
 viewBox="0.00 0.00 504.00 69.93" xmlns="http://www.w3.org/2000/svg" xmlns:xlink="http://www.w3.org/1999/xlink">
<g id="graph0" class="graph" transform="scale(0.439791 0.439791) rotate(0) translate(4 155)">
<title>g</title>
<polygon fill="white" stroke="none" points="-4,4 -4,-155 1142,-155 1142,4 -4,4"/>
<!-- N0 -->
<g id="node1" class="node"><title>N0</title>
<path fill="#ffffff" stroke="#2e3436" stroke-width="1.5" d="M120,-0.5C120,-0.5 176,-0.5 176,-0.5 182,-0.5 188,-6.5 188,-12.5 188,-12.5 188,-40.5 188,-40.5 188,-46.5 182,-52.5 176,-52.5 176,-52.5 120,-52.5 120,-52.5 114,-52.5 108,-46.5 108,-40.5 108,-40.5 108,-12.5 108,-12.5 108,-6.5 114,-0.5 120,-0.5"/>
<text text-anchor="middle" x="148" y="-42.1" font-family="FreeSans" font-size="8.00" fill="#1c2021">Movie</text>
<polyline fill="none" stroke="#2e3436" stroke-width="1.5" points="108,-35.5 188,-35.5 "/>
<text text-anchor="start" x="116" y="-25.1" font-family="FreeSans" font-size="8.00" fill="#1c2021">id = &#39;1&#39;</text>
<text text-anchor="start" x="116" y="-16.1" font-family="FreeSans" font-size="8.00" fill="#1c2021">title = &#39;Wall Street&#39;</text>
<text text-anchor="start" x="116" y="-7.1" font-family="FreeSans" font-size="8.00" fill="#1c2021">released = 1987</text>
</g>
<!-- N1 -->
<g id="node2" class="node"><title>N1</title>
<path fill="#ffffff" stroke="#2e3436" stroke-width="1.5" d="M337,-0.5C337,-0.5 441,-0.5 441,-0.5 447,-0.5 453,-6.5 453,-12.5 453,-12.5 453,-40.5 453,-40.5 453,-46.5 447,-52.5 441,-52.5 441,-52.5 337,-52.5 337,-52.5 331,-52.5 325,-46.5 325,-40.5 325,-40.5 325,-12.5 325,-12.5 325,-6.5 331,-0.5 337,-0.5"/>
<text text-anchor="middle" x="389" y="-42.1" font-family="FreeSans" font-size="8.00" fill="#1c2021">Movie</text>
<polyline fill="none" stroke="#2e3436" stroke-width="1.5" points="325,-35.5 453,-35.5 "/>
<text text-anchor="start" x="333" y="-25.1" font-family="FreeSans" font-size="8.00" fill="#1c2021">released = 1995</text>
<text text-anchor="start" x="333" y="-16.1" font-family="FreeSans" font-size="8.00" fill="#1c2021">id = &#39;2&#39;</text>
<text text-anchor="start" x="333" y="-7.1" font-family="FreeSans" font-size="8.00" fill="#1c2021">title = &#39;The American President&#39;</text>
</g>
<!-- N2 -->
<g id="node3" class="node"><title>N2</title>
<path fill="#ffffff" stroke="#2e3436" stroke-width="1.5" d="M606.5,-0.5C606.5,-0.5 727.5,-0.5 727.5,-0.5 733.5,-0.5 739.5,-6.5 739.5,-12.5 739.5,-12.5 739.5,-40.5 739.5,-40.5 739.5,-46.5 733.5,-52.5 727.5,-52.5 727.5,-52.5 606.5,-52.5 606.5,-52.5 600.5,-52.5 594.5,-46.5 594.5,-40.5 594.5,-40.5 594.5,-12.5 594.5,-12.5 594.5,-6.5 600.5,-0.5 606.5,-0.5"/>
<text text-anchor="middle" x="667" y="-42.1" font-family="FreeSans" font-size="8.00" fill="#1c2021">Movie</text>
<polyline fill="none" stroke="#2e3436" stroke-width="1.5" points="594.5,-35.5 739.5,-35.5 "/>
<text text-anchor="start" x="602.5" y="-25.1" font-family="FreeSans" font-size="8.00" fill="#1c2021">released = 1994</text>
<text text-anchor="start" x="602.5" y="-16.1" font-family="FreeSans" font-size="8.00" fill="#1c2021">id = &#39;3&#39;</text>
<text text-anchor="start" x="602.5" y="-7.1" font-family="FreeSans" font-size="8.00" fill="#1c2021">title = &#39;The Shawshank Redemption&#39;</text>
</g>
<!-- N3 -->
<g id="node4" class="node"><title>N3</title>
<path fill="#ffffff" stroke="#2e3436" stroke-width="1.5" d="M12,-107.5C12,-107.5 88,-107.5 88,-107.5 94,-107.5 100,-113.5 100,-119.5 100,-119.5 100,-138.5 100,-138.5 100,-144.5 94,-150.5 88,-150.5 88,-150.5 12,-150.5 12,-150.5 6,-150.5 0,-144.5 0,-138.5 0,-138.5 0,-119.5 0,-119.5 0,-113.5 6,-107.5 12,-107.5"/>
<text text-anchor="middle" x="50" y="-140.1" font-family="FreeSans" font-size="8.00" fill="#1c2021">Person</text>
<polyline fill="none" stroke="#2e3436" stroke-width="1.5" points="0,-133.5 100,-133.5 "/>
<text text-anchor="start" x="8" y="-123.1" font-family="FreeSans" font-size="8.00" fill="#1c2021">id = &#39;1&#39;</text>
<text text-anchor="start" x="8" y="-114.1" font-family="FreeSans" font-size="8.00" fill="#1c2021">name = &#39;Charlie Sheen&#39;</text>
</g>
<!-- N3&#45;&gt;N0 -->
<g id="edge1" class="edge"><title>N3&#45;&gt;N0</title>
<path fill="none" stroke="#2e3436" stroke-width="2" d="M53.4498,-107.475C56.2767,-95.742 61.2871,-81.3494 70,-71 78.431,-60.9855 89.785,-52.8451 101.217,-46.4319"/>
<polygon fill="#2e3436" stroke="#2e3436" stroke-width="2" points="107.935,-42.8544 102.902,-49.3585 104.86,-45.0583 101.55,-46.8209 101.315,-46.3795 101.08,-45.9382 104.39,-44.1757 99.729,-43.4006 107.935,-42.8544 107.935,-42.8544"/>
<text text-anchor="middle" x="102" y="-82.6" font-family="FreeSans" font-size="8.00" fill="#2e3436">ACTED_IN</text>
<text text-anchor="start" x="70" y="-73.6" font-family="FreeSans" font-size="8.00" fill="#2e3436">roles = [&#39;Bud Fox&#39;]</text>
</g>
<!-- N4 -->
<g id="node5" class="node"><title>N4</title>
<path fill="#ffffff" stroke="#2e3436" stroke-width="1.5" d="M764.5,-107.5C764.5,-107.5 833.5,-107.5 833.5,-107.5 839.5,-107.5 845.5,-113.5 845.5,-119.5 845.5,-119.5 845.5,-138.5 845.5,-138.5 845.5,-144.5 839.5,-150.5 833.5,-150.5 833.5,-150.5 764.5,-150.5 764.5,-150.5 758.5,-150.5 752.5,-144.5 752.5,-138.5 752.5,-138.5 752.5,-119.5 752.5,-119.5 752.5,-113.5 758.5,-107.5 764.5,-107.5"/>
<text text-anchor="middle" x="799" y="-140.1" font-family="FreeSans" font-size="8.00" fill="#1c2021">Person</text>
<polyline fill="none" stroke="#2e3436" stroke-width="1.5" points="752.5,-133.5 845.5,-133.5 "/>
<text text-anchor="start" x="760.5" y="-123.1" font-family="FreeSans" font-size="8.00" fill="#1c2021">id = &#39;2&#39;</text>
<text text-anchor="start" x="760.5" y="-114.1" font-family="FreeSans" font-size="8.00" fill="#1c2021">name = &#39;Oliver Stone&#39;</text>
</g>
<!-- N5 -->
<g id="node6" class="node"><title>N5</title>
<path fill="#ffffff" stroke="#2e3436" stroke-width="1.5" d="M394,-107.5C394,-107.5 478,-107.5 478,-107.5 484,-107.5 490,-113.5 490,-119.5 490,-119.5 490,-138.5 490,-138.5 490,-144.5 484,-150.5 478,-150.5 478,-150.5 394,-150.5 394,-150.5 388,-150.5 382,-144.5 382,-138.5 382,-138.5 382,-119.5 382,-119.5 382,-113.5 388,-107.5 394,-107.5"/>
<text text-anchor="middle" x="436" y="-140.1" font-family="FreeSans" font-size="8.00" fill="#1c2021">Person</text>
<polyline fill="none" stroke="#2e3436" stroke-width="1.5" points="382,-133.5 490,-133.5 "/>
<text text-anchor="start" x="390" y="-123.1" font-family="FreeSans" font-size="8.00" fill="#1c2021">id = &#39;3&#39;</text>
<text text-anchor="start" x="390" y="-114.1" font-family="FreeSans" font-size="8.00" fill="#1c2021">name = &#39;Michael Douglas&#39;</text>
</g>
<!-- N5&#45;&gt;N0 -->
<g id="edge3" class="edge"><title>N5&#45;&gt;N0</title>
<path fill="none" stroke="#2e3436" stroke-width="2" d="M399.597,-107.349C389.606,-101.535 378.822,-95.1246 369,-89 356.762,-81.3688 355.26,-76.6732 342,-71 294.547,-50.697 236.341,-39.2709 196.133,-33.2785"/>
<polygon fill="#2e3436" stroke="#2e3436" stroke-width="2" points="188.34,-32.1515 196.245,-29.8848 192.123,-32.1934 195.834,-32.7302 195.762,-33.2251 195.691,-33.7199 191.979,-33.1831 195.279,-36.5653 188.34,-32.1515 188.34,-32.1515"/>
<text text-anchor="middle" x="413" y="-82.6" font-family="FreeSans" font-size="8.00" fill="#2e3436">ACTED_IN</text>
<text text-anchor="start" x="369" y="-73.6" font-family="FreeSans" font-size="8.00" fill="#2e3436">roles = [&#39;Gordon Gekko&#39;]</text>
</g>
<!-- N5&#45;&gt;N1 -->
<g id="edge2" class="edge"><title>N5&#45;&gt;N1</title>
<path fill="none" stroke="#2e3436" stroke-width="2" d="M456.301,-107.346C464.57,-96.3685 470.769,-82.751 464,-71 461.159,-66.068 457.521,-61.644 453.384,-57.6854"/>
<polygon fill="#2e3436" stroke="#2e3436" stroke-width="2" points="447.46,-52.5719 455.342,-54.9178 450.625,-54.6438 453.464,-57.0942 453.137,-57.4727 452.81,-57.8512 449.972,-55.4008 450.932,-60.0275 447.46,-52.5719 447.46,-52.5719"/>
<text text-anchor="middle" x="535" y="-82.6" font-family="FreeSans" font-size="8.00" fill="#2e3436">ACTED_IN</text>
<text text-anchor="start" x="467" y="-73.6" font-family="FreeSans" font-size="8.00" fill="#2e3436">roles = [&#39;President Andrew Shepherd&#39;]</text>
</g>
<!-- N6 -->
<g id="node7" class="node"><title>N6</title>
<path fill="#ffffff" stroke="#2e3436" stroke-width="1.5" d="M173.5,-107.5C173.5,-107.5 246.5,-107.5 246.5,-107.5 252.5,-107.5 258.5,-113.5 258.5,-119.5 258.5,-119.5 258.5,-138.5 258.5,-138.5 258.5,-144.5 252.5,-150.5 246.5,-150.5 246.5,-150.5 173.5,-150.5 173.5,-150.5 167.5,-150.5 161.5,-144.5 161.5,-138.5 161.5,-138.5 161.5,-119.5 161.5,-119.5 161.5,-113.5 167.5,-107.5 173.5,-107.5"/>
<text text-anchor="middle" x="210" y="-140.1" font-family="FreeSans" font-size="8.00" fill="#1c2021">Person</text>
<polyline fill="none" stroke="#2e3436" stroke-width="1.5" points="161.5,-133.5 258.5,-133.5 "/>
<text text-anchor="start" x="169.5" y="-123.1" font-family="FreeSans" font-size="8.00" fill="#1c2021">id = &#39;4&#39;</text>
<text text-anchor="start" x="169.5" y="-114.1" font-family="FreeSans" font-size="8.00" fill="#1c2021">name = &#39;Martin Sheen&#39;</text>
</g>
<!-- N6&#45;&gt;N0 -->
<g id="edge5" class="edge"><title>N6&#45;&gt;N0</title>
<path fill="none" stroke="#2e3436" stroke-width="2" d="M162.882,-107.346C156.117,-102.328 150.078,-96.2605 146,-89 141.17,-80.4012 140.084,-70.0061 140.67,-60.2287"/>
<polygon fill="#2e3436" stroke="#2e3436" stroke-width="2" points="141.458,-52.5658 144.048,-60.3719 141.572,-56.3473 141.188,-60.0776 140.69,-60.0265 140.193,-59.9753 140.577,-56.245 137.333,-59.6811 141.458,-52.5658 141.458,-52.5658"/>
<text text-anchor="middle" x="178.5" y="-82.6" font-family="FreeSans" font-size="8.00" fill="#2e3436">ACTED_IN</text>
<text text-anchor="start" x="146" y="-73.6" font-family="FreeSans" font-size="8.00" fill="#2e3436">roles = [&#39;Carl Fox&#39;]</text>
</g>
<!-- N6&#45;&gt;N1 -->
<g id="edge4" class="edge"><title>N6&#45;&gt;N1</title>
<path fill="none" stroke="#2e3436" stroke-width="2" d="M218.135,-107.423C223.934,-95.2208 232.86,-80.3587 245,-71 265.896,-54.8914 292.725,-44.7223 317.551,-38.3135"/>
<polygon fill="#2e3436" stroke="#2e3436" stroke-width="2" points="324.837,-36.5235 318.359,-41.5906 321.315,-37.9038 317.673,-38.7986 317.554,-38.313 317.434,-37.8275 321.076,-36.9327 316.748,-35.0355 324.837,-36.5235 324.837,-36.5235"/>
<text text-anchor="middle" x="292" y="-82.6" font-family="FreeSans" font-size="8.00" fill="#2e3436">ACTED_IN</text>
<text text-anchor="start" x="245" y="-73.6" font-family="FreeSans" font-size="8.00" fill="#2e3436">roles = [&#39;A.J. MacInerney&#39;]</text>
</g>
<!-- N7 -->
<g id="node8" class="node"><title>N7</title>
<path fill="#ffffff" stroke="#2e3436" stroke-width="1.5" d="M623,-107.5C623,-107.5 711,-107.5 711,-107.5 717,-107.5 723,-113.5 723,-119.5 723,-119.5 723,-138.5 723,-138.5 723,-144.5 717,-150.5 711,-150.5 711,-150.5 623,-150.5 623,-150.5 617,-150.5 611,-144.5 611,-138.5 611,-138.5 611,-119.5 611,-119.5 611,-113.5 617,-107.5 623,-107.5"/>
<text text-anchor="middle" x="667" y="-140.1" font-family="FreeSans" font-size="8.00" fill="#1c2021">Person</text>
<polyline fill="none" stroke="#2e3436" stroke-width="1.5" points="611,-133.5 723,-133.5 "/>
<text text-anchor="start" x="619" y="-123.1" font-family="FreeSans" font-size="8.00" fill="#1c2021">id = &#39;5&#39;</text>
<text text-anchor="start" x="619" y="-114.1" font-family="FreeSans" font-size="8.00" fill="#1c2021">name = &#39;Morgan Freeman&#39;</text>
</g>
<!-- N7&#45;&gt;N2 -->
<g id="edge6" class="edge"><title>N7&#45;&gt;N2</title>
<path fill="none" stroke="#2e3436" stroke-width="2" d="M667,-107.176C667,-93.6634 667,-75.7669 667,-60.3589"/>
<polygon fill="#2e3436" stroke="#2e3436" stroke-width="2" points="667,-52.5648 670.375,-60.0647 667.5,-56.3147 667.5,-60.0647 667,-60.0648 666.5,-60.0648 666.5,-56.3148 663.625,-60.0648 667,-52.5648 667,-52.5648"/>
<text text-anchor="middle" x="732" y="-82.6" font-family="FreeSans" font-size="8.00" fill="#2e3436">ACTED_IN</text>
<text text-anchor="start" x="667" y="-73.6" font-family="FreeSans" font-size="8.00" fill="#2e3436">roles = [&#39;Ellis Boyd \\&#39;Red\\&#39; Redding&#39;]</text>
</g>
<!-- N8 -->
<g id="node9" class="node"><title>N8</title>
<path fill="#ffffff" stroke="#2e3436" stroke-width="1.5" d="M951,-5C951,-5 1035,-5 1035,-5 1041,-5 1047,-11 1047,-17 1047,-17 1047,-36 1047,-36 1047,-42 1041,-48 1035,-48 1035,-48 951,-48 951,-48 945,-48 939,-42 939,-36 939,-36 939,-17 939,-17 939,-11 945,-5 951,-5"/>
<text text-anchor="middle" x="993" y="-37.6" font-family="FreeSans" font-size="8.00" fill="#1c2021">Movie</text>
<polyline fill="none" stroke="#2e3436" stroke-width="1.5" points="939,-31 1047,-31 "/>
<text text-anchor="start" x="947" y="-20.6" font-family="FreeSans" font-size="8.00" fill="#1c2021">title = &#39;Back to the Future&#39;</text>
<text text-anchor="start" x="947" y="-11.6" font-family="FreeSans" font-size="8.00" fill="#1c2021">released = 1985</text>
</g>
<!-- N9 -->
<g id="node10" class="node"><title>N9</title>
<path fill="#ffffff" stroke="#2e3436" stroke-width="1.5" d="M886.5,-107.5C886.5,-107.5 963.5,-107.5 963.5,-107.5 969.5,-107.5 975.5,-113.5 975.5,-119.5 975.5,-119.5 975.5,-138.5 975.5,-138.5 975.5,-144.5 969.5,-150.5 963.5,-150.5 963.5,-150.5 886.5,-150.5 886.5,-150.5 880.5,-150.5 874.5,-144.5 874.5,-138.5 874.5,-138.5 874.5,-119.5 874.5,-119.5 874.5,-113.5 880.5,-107.5 886.5,-107.5"/>
<text text-anchor="middle" x="925" y="-140.1" font-family="FreeSans" font-size="8.00" fill="#1c2021">Person</text>
<polyline fill="none" stroke="#2e3436" stroke-width="1.5" points="874.5,-133.5 975.5,-133.5 "/>
<text text-anchor="start" x="882.5" y="-123.1" font-family="FreeSans" font-size="8.00" fill="#1c2021">name = &#39;Michael J. Fox&#39;</text>
<text text-anchor="start" x="882.5" y="-114.1" font-family="FreeSans" font-size="8.00" fill="#1c2021">born = 1961</text>
</g>
<!-- N9&#45;&gt;N8 -->
<g id="edge7" class="edge"><title>N9&#45;&gt;N8</title>
<path fill="none" stroke="#2e3436" stroke-width="2" d="M930.039,-107.383C933.421,-96.0334 938.623,-82.0525 946,-71 950.166,-64.7578 955.403,-58.7831 960.856,-53.3689"/>
<polygon fill="#2e3436" stroke="#2e3436" stroke-width="2" points="966.35,-48.1523 963.235,-55.7642 963.975,-51.0971 961.255,-53.6793 960.911,-53.3168 960.567,-52.9542 963.286,-50.372 958.587,-50.8693 966.35,-48.1523 966.35,-48.1523"/>
<text text-anchor="middle" x="985.5" y="-82.6" font-family="FreeSans" font-size="8.00" fill="#2e3436">ACTED_IN</text>
<text text-anchor="start" x="946" y="-73.6" font-family="FreeSans" font-size="8.00" fill="#2e3436">roles = [&#39;Marty McFly&#39;]</text>
</g>
<!-- N10 -->
<g id="node11" class="node"><title>N10</title>
<path fill="#ffffff" stroke="#2e3436" stroke-width="1.5" d="M1017,-107.5C1017,-107.5 1105,-107.5 1105,-107.5 1111,-107.5 1117,-113.5 1117,-119.5 1117,-119.5 1117,-138.5 1117,-138.5 1117,-144.5 1111,-150.5 1105,-150.5 1105,-150.5 1017,-150.5 1017,-150.5 1011,-150.5 1005,-144.5 1005,-138.5 1005,-138.5 1005,-119.5 1005,-119.5 1005,-113.5 1011,-107.5 1017,-107.5"/>
<text text-anchor="middle" x="1061" y="-140.1" font-family="FreeSans" font-size="8.00" fill="#1c2021">Person</text>
<polyline fill="none" stroke="#2e3436" stroke-width="1.5" points="1005,-133.5 1117,-133.5 "/>
<text text-anchor="start" x="1013" y="-123.1" font-family="FreeSans" font-size="8.00" fill="#1c2021">name = &#39;Christopher Lloyd&#39;</text>
<text text-anchor="start" x="1013" y="-114.1" font-family="FreeSans" font-size="8.00" fill="#1c2021">born = 1938</text>
</g>
<!-- N10&#45;&gt;N8 -->
<g id="edge8" class="edge"><title>N10&#45;&gt;N8</title>
<path fill="none" stroke="#2e3436" stroke-width="2" d="M1050.12,-107.491C1044.01,-96.4317 1036.02,-82.693 1028,-71 1024.22,-65.4844 1019.93,-59.7818 1015.69,-54.3939"/>
<polygon fill="#2e3436" stroke="#2e3436" stroke-width="2" points="1010.76,-48.2434 1018.08,-51.9852 1013.49,-50.857 1015.84,-53.7832 1015.45,-54.0959 1015.06,-54.4086 1012.71,-51.4823 1012.81,-56.2065 1010.76,-48.2434 1010.76,-48.2434"/>
<text text-anchor="middle" x="1088.5" y="-82.6" font-family="FreeSans" font-size="8.00" fill="#2e3436">ACTED_IN</text>
<text text-anchor="start" x="1039" y="-73.6" font-family="FreeSans" font-size="8.00" fill="#2e3436">roles = [&#39;Dr. Emmet Brown&#39;]</text>
</g>
</g>
</svg>
