<?xml version="1.0" encoding="UTF-8" standalone="no"?>
<!DOCTYPE svg PUBLIC "-//W3C//DTD SVG 1.1//EN"
 "http://www.w3.org/Graphics/SVG/1.1/DTD/svg11.dtd">
<!-- Generated by graphviz version 2.38.0 (20140413.2041)
 -->
<!-- Title: g Pages: 1 -->
<svg width="233pt" height="209pt"
 viewBox="0.00 0.00 233.00 209.00" xmlns="http://www.w3.org/2000/svg" xmlns:xlink="http://www.w3.org/1999/xlink">
<g id="graph0" class="graph" transform="scale(1 1) rotate(0) translate(4 205)">
<title>g</title>
<polygon fill="white" stroke="none" points="-4,4 -4,-205 229,-205 229,4 -4,4"/>
<!-- N0 -->
<g id="node1" class="node"><title>N0</title>
<path fill="#ffffff" stroke="#2e3436" stroke-width="1.5" d="M12,-164.5C12,-164.5 98,-164.5 98,-164.5 104,-164.5 110,-170.5 110,-176.5 110,-176.5 110,-188.5 110,-188.5 110,-194.5 104,-200.5 98,-200.5 98,-200.5 12,-200.5 12,-200.5 6,-200.5 0,-194.5 0,-188.5 0,-188.5 0,-176.5 0,-176.5 0,-170.5 6,-164.5 12,-164.5"/>
<text text-anchor="middle" x="55" y="-189.6" font-family="FreeSans" font-size="8.00" fill="#1c2021">Actor</text>
<polyline fill="none" stroke="#2e3436" stroke-width="1.5" points="0,-182.5 110,-182.5 "/>
<text text-anchor="start" x="8" y="-171.6" font-family="FreeSans" font-size="8.00" fill="#1c2021">name = &#39;Anthony Hopkins&#39;</text>
</g>
<!-- N3 -->
<g id="node2" class="node"><title>N3</title>
<path fill="#ffffff" stroke="#2e3436" stroke-width="1.5" d="M28.5,-0.5C28.5,-0.5 81.5,-0.5 81.5,-0.5 87.5,-0.5 93.5,-6.5 93.5,-12.5 93.5,-12.5 93.5,-24.5 93.5,-24.5 93.5,-30.5 87.5,-36.5 81.5,-36.5 81.5,-36.5 28.5,-36.5 28.5,-36.5 22.5,-36.5 16.5,-30.5 16.5,-24.5 16.5,-24.5 16.5,-12.5 16.5,-12.5 16.5,-6.5 22.5,-0.5 28.5,-0.5"/>
<text text-anchor="middle" x="55" y="-25.6" font-family="FreeSans" font-size="8.00" fill="#1c2021">Movie</text>
<polyline fill="none" stroke="#2e3436" stroke-width="1.5" points="16.5,-18.5 93.5,-18.5 "/>
<text text-anchor="start" x="24.5" y="-7.6" font-family="FreeSans" font-size="8.00" fill="#1c2021">title = &#39;Hitchcock&#39;</text>
</g>
<!-- N0&#45;&gt;N3 -->
<g id="edge1" class="edge"><title>N0&#45;&gt;N3</title>
<path fill="none" stroke="#2e3436" stroke-width="2" d="M46.0323,-164.264C40.1783,-152.006 33.0719,-134.951 30,-119 26.8902,-102.852 26.8902,-98.1477 30,-82 32.5199,-68.915 37.7547,-55.0872 42.786,-43.7741"/>
<polygon fill="#2e3436" stroke="#2e3436" stroke-width="2" points="46.0323,-36.736 45.9557,-44.9601 44.9157,-40.3507 43.345,-43.7559 42.891,-43.5465 42.4369,-43.3371 44.0076,-39.9318 39.8262,-42.1329 46.0323,-36.736 46.0323,-36.736"/>
<text text-anchor="middle" x="47.5" y="-98.6" font-family="FreeSans" font-size="8.00" fill="#2e3436">ACTS_IN</text>
</g>
<!-- N1 -->
<g id="node3" class="node"><title>N1</title>
<path fill="#ffffff" stroke="#2e3436" stroke-width="1.5" d="M91.5,-82.5C91.5,-82.5 162.5,-82.5 162.5,-82.5 168.5,-82.5 174.5,-88.5 174.5,-94.5 174.5,-94.5 174.5,-106.5 174.5,-106.5 174.5,-112.5 168.5,-118.5 162.5,-118.5 162.5,-118.5 91.5,-118.5 91.5,-118.5 85.5,-118.5 79.5,-112.5 79.5,-106.5 79.5,-106.5 79.5,-94.5 79.5,-94.5 79.5,-88.5 85.5,-82.5 91.5,-82.5"/>
<text text-anchor="middle" x="127" y="-107.6" font-family="FreeSans" font-size="8.00" fill="#1c2021">Actor</text>
<polyline fill="none" stroke="#2e3436" stroke-width="1.5" points="79.5,-100.5 174.5,-100.5 "/>
<text text-anchor="start" x="87.5" y="-89.6" font-family="FreeSans" font-size="8.00" fill="#1c2021">name = &#39;Helen Mirren&#39;</text>
</g>
<!-- N0&#45;&gt;N1 -->
<g id="edge2" class="edge"><title>N0&#45;&gt;N1</title>
<path fill="none" stroke="#4e9a06" stroke-width="2" d="M70.6229,-164.141C81.1675,-152.425 95.1899,-136.845 106.612,-124.154"/>
<polygon fill="#4e9a06" stroke="#4e9a06" stroke-width="2" points="111.655,-118.55 109.146,-126.383 109.518,-121.672 107.009,-124.459 106.638,-124.125 106.266,-123.79 108.775,-121.003 104.129,-121.867 111.655,-118.55 111.655,-118.55"/>
<text text-anchor="middle" x="109.5" y="-139.6" font-family="FreeSans" font-size="8.00" fill="#4e9a06">KNOWS</text>
</g>
<!-- N1&#45;&gt;N3 -->
<g id="edge3" class="edge"><title>N1&#45;&gt;N3</title>
<path fill="none" stroke="#2e3436" stroke-width="2" d="M111.377,-82.1412C100.832,-70.425 86.8101,-54.8446 75.3882,-42.1535"/>
<polygon fill="#2e3436" stroke="#2e3436" stroke-width="2" points="70.3451,-36.5501 77.871,-39.8671 73.2254,-39.003 75.734,-41.7903 75.3624,-42.1248 74.9907,-42.4593 72.4821,-39.6719 72.8537,-44.3826 70.3451,-36.5501 70.3451,-36.5501"/>
<text text-anchor="middle" x="111.5" y="-57.6" font-family="FreeSans" font-size="8.00" fill="#2e3436">ACTS_IN</text>
</g>
<!-- N2 -->
<g id="node4" class="node"><title>N2</title>
<path fill="#ffffff" stroke="#2e3436" stroke-width="1.5" d="M151,-164.5C151,-164.5 213,-164.5 213,-164.5 219,-164.5 225,-170.5 225,-176.5 225,-176.5 225,-188.5 225,-188.5 225,-194.5 219,-200.5 213,-200.5 213,-200.5 151,-200.5 151,-200.5 145,-200.5 139,-194.5 139,-188.5 139,-188.5 139,-176.5 139,-176.5 139,-170.5 145,-164.5 151,-164.5"/>
<text text-anchor="middle" x="182" y="-189.6" font-family="FreeSans" font-size="8.00" fill="#1c2021">Actor</text>
<polyline fill="none" stroke="#2e3436" stroke-width="1.5" points="139,-182.5 225,-182.5 "/>
<text text-anchor="start" x="147" y="-171.6" font-family="FreeSans" font-size="8.00" fill="#1c2021">name = &#39;Hitchcock&#39;</text>
</g>
</g>
</svg>
