<?xml version="1.0" encoding="UTF-8" standalone="no"?>
<!DOCTYPE svg PUBLIC "-//W3C//DTD SVG 1.1//EN"
 "http://www.w3.org/Graphics/SVG/1.1/DTD/svg11.dtd">
<!-- Generated by graphviz version 2.38.0 (20140413.2041)
 -->
<!-- Title: g Pages: 1 -->
<svg width="443pt" height="291pt"
 viewBox="0.00 0.00 442.50 291.00" xmlns="http://www.w3.org/2000/svg" xmlns:xlink="http://www.w3.org/1999/xlink">
<g id="graph0" class="graph" transform="scale(1 1) rotate(0) translate(4 287)">
<title>g</title>
<polygon fill="white" stroke="none" points="-4,4 -4,-287 438.5,-287 438.5,4 -4,4"/>
<!-- N0 -->
<g id="node1" class="node"><title>N0</title>
<path fill="#ffffff" stroke="#2e3436" stroke-width="1.5" d="M143,-246.5C143,-246.5 252,-246.5 252,-246.5 258,-246.5 264,-252.5 264,-258.5 264,-258.5 264,-270.5 264,-270.5 264,-276.5 258,-282.5 252,-282.5 252,-282.5 143,-282.5 143,-282.5 137,-282.5 131,-276.5 131,-270.5 131,-270.5 131,-258.5 131,-258.5 131,-252.5 137,-246.5 143,-246.5"/>
<text text-anchor="middle" x="197.5" y="-271.6" font-family="FreeSans" font-size="8.00" fill="#1c2021">TVShow</text>
<polyline fill="none" stroke="#2e3436" stroke-width="1.5" points="131,-264.5 264,-264.5 "/>
<text text-anchor="start" x="139" y="-253.6" font-family="FreeSans" font-size="8.00" fill="#1c2021">name = &#39;How I Met Your Mother&#39;</text>
</g>
<!-- N1 -->
<g id="node2" class="node"><title>N1</title>
<path fill="#ffffff" stroke="#2e3436" stroke-width="1.5" d="M153.5,-164.5C153.5,-164.5 241.5,-164.5 241.5,-164.5 247.5,-164.5 253.5,-170.5 253.5,-176.5 253.5,-176.5 253.5,-188.5 253.5,-188.5 253.5,-194.5 247.5,-200.5 241.5,-200.5 241.5,-200.5 153.5,-200.5 153.5,-200.5 147.5,-200.5 141.5,-194.5 141.5,-188.5 141.5,-188.5 141.5,-176.5 141.5,-176.5 141.5,-170.5 147.5,-164.5 153.5,-164.5"/>
<text text-anchor="middle" x="197.5" y="-189.6" font-family="FreeSans" font-size="8.00" fill="#1c2021">Season</text>
<polyline fill="none" stroke="#2e3436" stroke-width="1.5" points="141.5,-182.5 253.5,-182.5 "/>
<text text-anchor="start" x="149.5" y="-171.6" font-family="FreeSans" font-size="8.00" fill="#1c2021">name = &#39;HIMYM Season 1&#39;</text>
</g>
<!-- N0&#45;&gt;N1 -->
<g id="edge1" class="edge"><title>N0&#45;&gt;N1</title>
<path fill="none" stroke="#2e3436" stroke-width="2" d="M197.5,-246.141C197.5,-235.058 197.5,-220.518 197.5,-208.236"/>
<polygon fill="#2e3436" stroke="#2e3436" stroke-width="2" points="197.5,-200.55 200.875,-208.05 198,-204.3 198,-208.05 197.5,-208.05 197,-208.05 197,-204.3 194.125,-208.05 197.5,-200.55 197.5,-200.55"/>
<text text-anchor="middle" x="225" y="-221.6" font-family="FreeSans" font-size="8.00" fill="#2e3436">HAS_SEASON</text>
</g>
<!-- N2 -->
<g id="node3" class="node"><title>N2</title>
<path fill="#ffffff" stroke="#2e3436" stroke-width="1.5" d="M177.5,-82.5C177.5,-82.5 217.5,-82.5 217.5,-82.5 223.5,-82.5 229.5,-88.5 229.5,-94.5 229.5,-94.5 229.5,-106.5 229.5,-106.5 229.5,-112.5 223.5,-118.5 217.5,-118.5 217.5,-118.5 177.5,-118.5 177.5,-118.5 171.5,-118.5 165.5,-112.5 165.5,-106.5 165.5,-106.5 165.5,-94.5 165.5,-94.5 165.5,-88.5 171.5,-82.5 177.5,-82.5"/>
<text text-anchor="middle" x="197.5" y="-107.6" font-family="FreeSans" font-size="8.00" fill="#1c2021">Episode</text>
<polyline fill="none" stroke="#2e3436" stroke-width="1.5" points="165.5,-100.5 229.5,-100.5 "/>
<text text-anchor="start" x="173.5" y="-89.6" font-family="FreeSans" font-size="8.00" fill="#1c2021">name = &#39;Pilot&#39;</text>
</g>
<!-- N1&#45;&gt;N2 -->
<g id="edge2" class="edge"><title>N1&#45;&gt;N2</title>
<path fill="none" stroke="#4e9a06" stroke-width="2" d="M197.5,-164.141C197.5,-153.058 197.5,-138.518 197.5,-126.236"/>
<polygon fill="#4e9a06" stroke="#4e9a06" stroke-width="2" points="197.5,-118.55 200.875,-126.05 198,-122.3 198,-126.05 197.5,-126.05 197,-126.05 197,-122.3 194.125,-126.05 197.5,-118.55 197.5,-118.55"/>
<text text-anchor="middle" x="226.5" y="-139.6" font-family="FreeSans" font-size="8.00" fill="#4e9a06">HAS_EPISODE</text>
</g>
<!-- N5 -->
<g id="node4" class="node"><title>N5</title>
<path fill="#ffffff" stroke="#2e3436" stroke-width="1.5" d="M14.5,-0.5C14.5,-0.5 190.5,-0.5 190.5,-0.5 196.5,-0.5 202.5,-6.5 202.5,-12.5 202.5,-12.5 202.5,-24.5 202.5,-24.5 202.5,-30.5 196.5,-36.5 190.5,-36.5 190.5,-36.5 14.5,-36.5 14.5,-36.5 8.5,-36.5 2.5,-30.5 2.5,-24.5 2.5,-24.5 2.5,-12.5 2.5,-12.5 2.5,-6.5 8.5,-0.5 14.5,-0.5"/>
<text text-anchor="start" x="10.5" y="-21.1" font-family="FreeSans" font-size="8.00" fill="#1c2021">title = &#39;Meet Me At The Bar In 15 Minutes &amp; Suit Up&#39;</text>
<text text-anchor="start" x="10.5" y="-12.1" font-family="FreeSans" font-size="8.00" fill="#1c2021">content = &#39;It was awesome&#39;</text>
</g>
<!-- N2&#45;&gt;N5 -->
<g id="edge3" class="edge"><title>N2&#45;&gt;N5</title>
<path fill="none" stroke="#a40000" stroke-width="2" d="M176.886,-82.1412C162.723,-70.2139 143.803,-54.2819 128.59,-41.4704"/>
<polygon fill="#a40000" stroke="#a40000" stroke-width="2" points="122.747,-36.5501 130.658,-38.7996 125.937,-38.5832 128.806,-40.9987 128.484,-41.3812 128.162,-41.7636 125.293,-39.3481 126.31,-43.9627 122.747,-36.5501 122.747,-36.5501"/>
<text text-anchor="middle" x="180" y="-57.6" font-family="FreeSans" font-size="8.00" fill="#a40000">HAS_REVIEW</text>
</g>
<!-- N3 -->
<g id="node5" class="node"><title>N3</title>
<path fill="#ffffff" stroke="#2e3436" stroke-width="1.5" d="M251,-0.5C251,-0.5 316,-0.5 316,-0.5 322,-0.5 328,-6.5 328,-12.5 328,-12.5 328,-24.5 328,-24.5 328,-30.5 322,-36.5 316,-36.5 316,-36.5 251,-36.5 251,-36.5 245,-36.5 239,-30.5 239,-24.5 239,-24.5 239,-12.5 239,-12.5 239,-6.5 245,-0.5 251,-0.5"/>
<text text-anchor="middle" x="283.5" y="-25.6" font-family="FreeSans" font-size="8.00" fill="#1c2021">Character</text>
<polyline fill="none" stroke="#2e3436" stroke-width="1.5" points="239,-18.5 328,-18.5 "/>
<text text-anchor="start" x="247" y="-7.6" font-family="FreeSans" font-size="8.00" fill="#1c2021">name = &#39;Ted Mosby&#39;</text>
</g>
<!-- N2&#45;&gt;N3 -->
<g id="edge4" class="edge"><title>N2&#45;&gt;N3</title>
<path fill="none" stroke="#204a87" stroke-width="2" d="M210.277,-82.1406C217.015,-73.5292 225.695,-63.2366 234.5,-55 239.627,-50.2041 245.416,-45.493 251.172,-41.1491"/>
<polygon fill="#204a87" stroke="#204a87" stroke-width="2" points="257.373,-36.5931 253.328,-43.7538 254.647,-39.2165 251.625,-41.437 251.329,-41.034 251.033,-40.6311 254.055,-38.4107 249.331,-38.3142 257.373,-36.5931 257.373,-36.5931"/>
<text text-anchor="middle" x="284.5" y="-57.6" font-family="FreeSans" font-size="8.00" fill="#204a87">FEATURED_CHARACTER</text>
</g>
<!-- N4 -->
<g id="node6" class="node"><title>N4</title>
<path fill="#ffffff" stroke="#2e3436" stroke-width="1.5" d="M335,-82.5C335,-82.5 406,-82.5 406,-82.5 412,-82.5 418,-88.5 418,-94.5 418,-94.5 418,-106.5 418,-106.5 418,-112.5 412,-118.5 406,-118.5 406,-118.5 335,-118.5 335,-118.5 329,-118.5 323,-112.5 323,-106.5 323,-106.5 323,-94.5 323,-94.5 323,-88.5 329,-82.5 335,-82.5"/>
<text text-anchor="middle" x="370.5" y="-107.6" font-family="FreeSans" font-size="8.00" fill="#1c2021">Actor</text>
<polyline fill="none" stroke="#2e3436" stroke-width="1.5" points="323,-100.5 418,-100.5 "/>
<text text-anchor="start" x="331" y="-89.6" font-family="FreeSans" font-size="8.00" fill="#1c2021">name = &#39;Josh Radnor&#39;</text>
</g>
<!-- N4&#45;&gt;N3 -->
<g id="edge5" class="edge"><title>N4&#45;&gt;N3</title>
<path fill="none" stroke="#8f5902" stroke-width="2" d="M359.851,-82.3113C353.923,-73.5438 346.028,-63.0596 337.5,-55 332.23,-50.02 326.18,-45.292 320.079,-41.0062"/>
<polygon fill="#8f5902" stroke="#8f5902" stroke-width="2" points="313.473,-36.5381 321.576,-37.9446 316.859,-38.225 319.966,-40.326 319.686,-40.7402 319.405,-41.1543 316.299,-39.0533 317.795,-43.5357 313.473,-36.5381 313.473,-36.5381"/>
<text text-anchor="middle" x="390.5" y="-57.6" font-family="FreeSans" font-size="8.00" fill="#8f5902">PLAYED_CHARACTER</text>
</g>
<!-- N6 -->
<g id="node7" class="node"><title>N6</title>
<path fill="#ffffff" stroke="#2e3436" stroke-width="1.5" d="M12,-82.5C12,-82.5 85,-82.5 85,-82.5 91,-82.5 97,-88.5 97,-94.5 97,-94.5 97,-106.5 97,-106.5 97,-112.5 91,-118.5 85,-118.5 85,-118.5 12,-118.5 12,-118.5 6,-118.5 0,-112.5 0,-106.5 0,-106.5 0,-94.5 0,-94.5 0,-88.5 6,-82.5 12,-82.5"/>
<text text-anchor="middle" x="48.5" y="-107.6" font-family="FreeSans" font-size="8.00" fill="#1c2021">User</text>
<polyline fill="none" stroke="#2e3436" stroke-width="1.5" points="0,-100.5 97,-100.5 "/>
<text text-anchor="start" x="8" y="-89.6" font-family="FreeSans" font-size="8.00" fill="#1c2021">name = &#39;WakenPayne&#39;</text>
</g>
<!-- N6&#45;&gt;N5 -->
<g id="edge6" class="edge"><title>N6&#45;&gt;N5</title>
<path fill="none" stroke="#5c3566" stroke-width="2" d="M43.692,-82.4816C42.1938,-73.7607 41.9527,-63.2667 46.5,-55 49.3477,-49.8231 53.3047,-45.295 57.8117,-41.3637"/>
<polygon fill="#5c3566" stroke="#5c3566" stroke-width="2" points="63.7726,-36.6992 59.9458,-43.9792 61.1274,-39.404 58.1741,-41.715 57.866,-41.3212 57.5578,-40.9274 60.5111,-38.6165 55.7861,-38.6632 63.7726,-36.6992 63.7726,-36.6992"/>
<text text-anchor="middle" x="80" y="-57.6" font-family="FreeSans" font-size="8.00" fill="#5c3566">WROTE_REVIEW</text>
</g>
</g>
</svg>
