<?xml version="1.0" encoding="UTF-8" standalone="no"?>
<!DOCTYPE svg PUBLIC "-//W3C//DTD SVG 1.1//EN"
 "http://www.w3.org/Graphics/SVG/1.1/DTD/svg11.dtd">
<!-- Generated by graphviz version 2.38.0 (20140413.2041)
 -->
<!-- Title: g Pages: 1 -->
<svg width="348pt" height="537pt"
 viewBox="0.00 0.00 347.50 537.00" xmlns="http://www.w3.org/2000/svg" xmlns:xlink="http://www.w3.org/1999/xlink">
<g id="graph0" class="graph" transform="scale(1 1) rotate(0) translate(4 533)">
<title>g</title>
<polygon fill="white" stroke="none" points="-4,4 -4,-533 343.5,-533 343.5,4 -4,4"/>
<!-- N0 -->
<g id="node1" class="node"><title>N0</title>
<path fill="#ffffff" stroke="#2e3436" stroke-width="1.5" d="M219,-410.5C219,-410.5 254,-410.5 254,-410.5 260,-410.5 266,-416.5 266,-422.5 266,-422.5 266,-434.5 266,-434.5 266,-440.5 260,-446.5 254,-446.5 254,-446.5 219,-446.5 219,-446.5 213,-446.5 207,-440.5 207,-434.5 207,-434.5 207,-422.5 207,-422.5 207,-416.5 213,-410.5 219,-410.5"/>
<text text-anchor="start" x="215" y="-426.6" font-family="FreeSans" font-size="8.00" fill="#1c2021">name = &#39;Bill&#39;</text>
</g>
<!-- N11 -->
<g id="node2" class="node"><title>N11</title>
<path fill="#ffffff" stroke="#2e3436" stroke-width="1.5" d="M121.5,-328.5C121.5,-328.5 159.5,-328.5 159.5,-328.5 165.5,-328.5 171.5,-334.5 171.5,-340.5 171.5,-340.5 171.5,-352.5 171.5,-352.5 171.5,-358.5 165.5,-364.5 159.5,-364.5 159.5,-364.5 121.5,-364.5 121.5,-364.5 115.5,-364.5 109.5,-358.5 109.5,-352.5 109.5,-352.5 109.5,-340.5 109.5,-340.5 109.5,-334.5 115.5,-328.5 121.5,-328.5"/>
<text text-anchor="start" x="117.5" y="-344.6" font-family="FreeSans" font-size="8.00" fill="#1c2021">name = &#39;Joe&#39;</text>
</g>
<!-- N0&#45;&gt;N11 -->
<g id="edge1" class="edge"><title>N0&#45;&gt;N11</title>
<path fill="none" stroke="#2e3436" stroke-width="2" d="M210.182,-410.455C202.052,-404.856 193.213,-398.417 185.5,-392 177.423,-385.28 169.102,-377.372 161.845,-370.1"/>
<polygon fill="#2e3436" stroke="#2e3436" stroke-width="2" points="156.525,-364.693 164.191,-367.672 159.512,-367.016 162.142,-369.689 161.786,-370.039 161.429,-370.39 158.799,-367.717 159.38,-372.406 156.525,-364.693 156.525,-364.693"/>
<text text-anchor="middle" x="207.5" y="-385.6" font-family="FreeSans" font-size="8.00" fill="#2e3436">jane_knows</text>
</g>
<!-- N2 -->
<g id="node3" class="node"><title>N2</title>
<path fill="#ffffff" stroke="#2e3436" stroke-width="1.5" d="M213,-328.5C213,-328.5 260,-328.5 260,-328.5 266,-328.5 272,-334.5 272,-340.5 272,-340.5 272,-352.5 272,-352.5 272,-358.5 266,-364.5 260,-364.5 260,-364.5 213,-364.5 213,-364.5 207,-364.5 201,-358.5 201,-352.5 201,-352.5 201,-340.5 201,-340.5 201,-334.5 207,-328.5 213,-328.5"/>
<text text-anchor="start" x="209" y="-344.6" font-family="FreeSans" font-size="8.00" fill="#1c2021">name = &#39;Bill_s1&#39;</text>
</g>
<!-- N0&#45;&gt;N2 -->
<g id="edge2" class="edge"><title>N0&#45;&gt;N2</title>
<path fill="none" stroke="#4e9a06" stroke-width="2" d="M236.5,-410.141C236.5,-399.058 236.5,-384.518 236.5,-372.236"/>
<polygon fill="#4e9a06" stroke="#4e9a06" stroke-width="2" points="236.5,-364.55 239.875,-372.05 237,-368.3 237,-372.05 236.5,-372.05 236,-372.05 236,-368.3 233.125,-372.05 236.5,-364.55 236.5,-364.55"/>
<text text-anchor="middle" x="243" y="-385.6" font-family="FreeSans" font-size="8.00" fill="#4e9a06">has</text>
</g>
<!-- N6 -->
<g id="node8" class="node"><title>N6</title>
<path fill="#ffffff" stroke="#2e3436" stroke-width="1.5" d="M14,-246.5C14,-246.5 65,-246.5 65,-246.5 71,-246.5 77,-252.5 77,-258.5 77,-258.5 77,-270.5 77,-270.5 77,-276.5 71,-282.5 65,-282.5 65,-282.5 14,-282.5 14,-282.5 8,-282.5 2,-276.5 2,-270.5 2,-270.5 2,-258.5 2,-258.5 2,-252.5 8,-246.5 14,-246.5"/>
<text text-anchor="start" x="10" y="-262.6" font-family="FreeSans" font-size="8.00" fill="#1c2021">name = &#39;Joe_s1&#39;</text>
</g>
<!-- N11&#45;&gt;N6 -->
<g id="edge12" class="edge"><title>N11&#45;&gt;N6</title>
<path fill="none" stroke="#4e9a06" stroke-width="2" d="M118.585,-328.141C103.526,-316.214 83.4121,-300.282 67.2376,-287.47"/>
<polygon fill="#4e9a06" stroke="#4e9a06" stroke-width="2" points="61.0257,-282.55 69.0005,-284.561 64.2758,-284.487 67.2154,-286.815 66.9049,-287.207 66.5945,-287.599 63.6549,-285.27 64.8094,-289.853 61.0257,-282.55 61.0257,-282.55"/>
<text text-anchor="middle" x="100" y="-303.6" font-family="FreeSans" font-size="8.00" fill="#4e9a06">has</text>
</g>
<!-- N7 -->
<g id="node10" class="node"><title>N7</title>
<path fill="#ffffff" stroke="#2e3436" stroke-width="1.5" d="M121,-246.5C121,-246.5 160,-246.5 160,-246.5 166,-246.5 172,-252.5 172,-258.5 172,-258.5 172,-270.5 172,-270.5 172,-276.5 166,-282.5 160,-282.5 160,-282.5 121,-282.5 121,-282.5 115,-282.5 109,-276.5 109,-270.5 109,-270.5 109,-258.5 109,-258.5 109,-252.5 115,-246.5 121,-246.5"/>
<text text-anchor="start" x="117" y="-262.6" font-family="FreeSans" font-size="8.00" fill="#1c2021">name = &#39;Bob&#39;</text>
</g>
<!-- N11&#45;&gt;N7 -->
<g id="edge11" class="edge"><title>N11&#45;&gt;N7</title>
<path fill="none" stroke="#2e3436" stroke-width="2" d="M140.5,-328.141C140.5,-317.058 140.5,-302.518 140.5,-290.236"/>
<polygon fill="#2e3436" stroke="#2e3436" stroke-width="2" points="140.5,-282.55 143.875,-290.05 141,-286.3 141,-290.05 140.5,-290.05 140,-290.05 140,-286.3 137.125,-290.05 140.5,-282.55 140.5,-282.55"/>
<text text-anchor="middle" x="162.5" y="-303.6" font-family="FreeSans" font-size="8.00" fill="#2e3436">jane_knows</text>
</g>
<!-- N4 -->
<g id="node6" class="node"><title>N4</title>
<path fill="#ffffff" stroke="#2e3436" stroke-width="1.5" d="M213,-246.5C213,-246.5 260,-246.5 260,-246.5 266,-246.5 272,-252.5 272,-258.5 272,-258.5 272,-270.5 272,-270.5 272,-276.5 266,-282.5 260,-282.5 260,-282.5 213,-282.5 213,-282.5 207,-282.5 201,-276.5 201,-270.5 201,-270.5 201,-258.5 201,-258.5 201,-252.5 207,-246.5 213,-246.5"/>
<text text-anchor="start" x="209" y="-262.6" font-family="FreeSans" font-size="8.00" fill="#1c2021">name = &#39;Bill_s2&#39;</text>
</g>
<!-- N2&#45;&gt;N4 -->
<g id="edge4" class="edge"><title>N2&#45;&gt;N4</title>
<path fill="none" stroke="#a40000" stroke-width="2" d="M236.5,-328.141C236.5,-317.058 236.5,-302.518 236.5,-290.236"/>
<polygon fill="#a40000" stroke="#a40000" stroke-width="2" points="236.5,-282.55 239.875,-290.05 237,-286.3 237,-290.05 236.5,-290.05 236,-290.05 236,-286.3 233.125,-290.05 236.5,-282.55 236.5,-282.55"/>
<text text-anchor="middle" x="244.5" y="-303.6" font-family="FreeSans" font-size="8.00" fill="#a40000">next</text>
</g>
<!-- N1 -->
<g id="node4" class="node"><title>N1</title>
<path fill="#ffffff" stroke="#2e3436" stroke-width="1.5" d="M234.5,-82.5C234.5,-82.5 286.5,-82.5 286.5,-82.5 292.5,-82.5 298.5,-88.5 298.5,-94.5 298.5,-94.5 298.5,-106.5 298.5,-106.5 298.5,-112.5 292.5,-118.5 286.5,-118.5 286.5,-118.5 234.5,-118.5 234.5,-118.5 228.5,-118.5 222.5,-112.5 222.5,-106.5 222.5,-106.5 222.5,-94.5 222.5,-94.5 222.5,-88.5 228.5,-82.5 234.5,-82.5"/>
<text text-anchor="start" x="230.5" y="-98.6" font-family="FreeSans" font-size="8.00" fill="#1c2021">name = &#39;Ted_s1&#39;</text>
</g>
<!-- N3 -->
<g id="node5" class="node"><title>N3</title>
<path fill="#ffffff" stroke="#2e3436" stroke-width="1.5" d="M234.5,-0.5C234.5,-0.5 286.5,-0.5 286.5,-0.5 292.5,-0.5 298.5,-6.5 298.5,-12.5 298.5,-12.5 298.5,-24.5 298.5,-24.5 298.5,-30.5 292.5,-36.5 286.5,-36.5 286.5,-36.5 234.5,-36.5 234.5,-36.5 228.5,-36.5 222.5,-30.5 222.5,-24.5 222.5,-24.5 222.5,-12.5 222.5,-12.5 222.5,-6.5 228.5,-0.5 234.5,-0.5"/>
<text text-anchor="start" x="230.5" y="-16.6" font-family="FreeSans" font-size="8.00" fill="#1c2021">name = &#39;Ted_s2&#39;</text>
</g>
<!-- N1&#45;&gt;N3 -->
<g id="edge3" class="edge"><title>N1&#45;&gt;N3</title>
<path fill="none" stroke="#a40000" stroke-width="2" d="M260.5,-82.1412C260.5,-71.0583 260.5,-56.5177 260.5,-44.2358"/>
<polygon fill="#a40000" stroke="#a40000" stroke-width="2" points="260.5,-36.5501 263.875,-44.0501 261,-40.3001 261,-44.0501 260.5,-44.0501 260,-44.0501 260,-40.3001 257.125,-44.0501 260.5,-36.5501 260.5,-36.5501"/>
<text text-anchor="middle" x="268.5" y="-57.6" font-family="FreeSans" font-size="8.00" fill="#a40000">next</text>
</g>
<!-- N5 -->
<g id="node7" class="node"><title>N5</title>
<path fill="#ffffff" stroke="#2e3436" stroke-width="1.5" d="M215,-492.5C215,-492.5 258,-492.5 258,-492.5 264,-492.5 270,-498.5 270,-504.5 270,-504.5 270,-516.5 270,-516.5 270,-522.5 264,-528.5 258,-528.5 258,-528.5 215,-528.5 215,-528.5 209,-528.5 203,-522.5 203,-516.5 203,-516.5 203,-504.5 203,-504.5 203,-498.5 209,-492.5 215,-492.5"/>
<text text-anchor="start" x="211" y="-508.6" font-family="FreeSans" font-size="8.00" fill="#1c2021">name = &#39;Jane&#39;</text>
</g>
<!-- N5&#45;&gt;N0 -->
<g id="edge5" class="edge"><title>N5&#45;&gt;N0</title>
<path fill="none" stroke="#2e3436" stroke-width="2" d="M236.5,-492.141C236.5,-481.058 236.5,-466.518 236.5,-454.236"/>
<polygon fill="#2e3436" stroke="#2e3436" stroke-width="2" points="236.5,-446.55 239.875,-454.05 237,-450.3 237,-454.05 236.5,-454.05 236,-454.05 236,-450.3 233.125,-454.05 236.5,-446.55 236.5,-446.55"/>
<text text-anchor="middle" x="258.5" y="-467.6" font-family="FreeSans" font-size="8.00" fill="#2e3436">jane_knows</text>
</g>
<!-- N9 -->
<g id="node9" class="node"><title>N9</title>
<path fill="#ffffff" stroke="#2e3436" stroke-width="1.5" d="M12,-164.5C12,-164.5 63,-164.5 63,-164.5 69,-164.5 75,-170.5 75,-176.5 75,-176.5 75,-188.5 75,-188.5 75,-194.5 69,-200.5 63,-200.5 63,-200.5 12,-200.5 12,-200.5 6,-200.5 0,-194.5 0,-188.5 0,-188.5 0,-176.5 0,-176.5 0,-170.5 6,-164.5 12,-164.5"/>
<text text-anchor="start" x="8" y="-180.6" font-family="FreeSans" font-size="8.00" fill="#1c2021">name = &#39;Joe_s2&#39;</text>
</g>
<!-- N6&#45;&gt;N9 -->
<g id="edge6" class="edge"><title>N6&#45;&gt;N9</title>
<path fill="none" stroke="#a40000" stroke-width="2" d="M39.066,-246.141C38.789,-235.058 38.4254,-220.518 38.1184,-208.236"/>
<polygon fill="#a40000" stroke="#a40000" stroke-width="2" points="37.9263,-200.55 41.4877,-207.963 38.5199,-204.286 38.6136,-208.035 38.1138,-208.048 37.6139,-208.06 37.5202,-204.311 34.7398,-208.132 37.9263,-200.55 37.9263,-200.55"/>
<text text-anchor="middle" x="47.5" y="-221.6" font-family="FreeSans" font-size="8.00" fill="#a40000">next</text>
</g>
<!-- N10 -->
<g id="node11" class="node"><title>N10</title>
<path fill="#ffffff" stroke="#2e3436" stroke-width="1.5" d="M116.5,-164.5C116.5,-164.5 168.5,-164.5 168.5,-164.5 174.5,-164.5 180.5,-170.5 180.5,-176.5 180.5,-176.5 180.5,-188.5 180.5,-188.5 180.5,-194.5 174.5,-200.5 168.5,-200.5 168.5,-200.5 116.5,-200.5 116.5,-200.5 110.5,-200.5 104.5,-194.5 104.5,-188.5 104.5,-188.5 104.5,-176.5 104.5,-176.5 104.5,-170.5 110.5,-164.5 116.5,-164.5"/>
<text text-anchor="start" x="112.5" y="-180.6" font-family="FreeSans" font-size="8.00" fill="#1c2021">name = &#39;Bob_s1&#39;</text>
</g>
<!-- N7&#45;&gt;N10 -->
<g id="edge7" class="edge"><title>N7&#45;&gt;N10</title>
<path fill="none" stroke="#4e9a06" stroke-width="2" d="M140.934,-246.141C141.211,-235.058 141.575,-220.518 141.882,-208.236"/>
<polygon fill="#4e9a06" stroke="#4e9a06" stroke-width="2" points="142.074,-200.55 145.26,-208.132 142.48,-204.311 142.386,-208.06 141.886,-208.048 141.386,-208.035 141.48,-204.286 138.512,-207.963 142.074,-200.55 142.074,-200.55"/>
<text text-anchor="middle" x="149" y="-221.6" font-family="FreeSans" font-size="8.00" fill="#4e9a06">has</text>
</g>
<!-- N8 -->
<g id="node12" class="node"><title>N8</title>
<path fill="#ffffff" stroke="#2e3436" stroke-width="1.5" d="M241,-164.5C241,-164.5 280,-164.5 280,-164.5 286,-164.5 292,-170.5 292,-176.5 292,-176.5 292,-188.5 292,-188.5 292,-194.5 286,-200.5 280,-200.5 280,-200.5 241,-200.5 241,-200.5 235,-200.5 229,-194.5 229,-188.5 229,-188.5 229,-176.5 229,-176.5 229,-170.5 235,-164.5 241,-164.5"/>
<text text-anchor="start" x="237" y="-180.6" font-family="FreeSans" font-size="8.00" fill="#1c2021">name = &#39;Ted&#39;</text>
</g>
<!-- N7&#45;&gt;N8 -->
<g id="edge8" class="edge"><title>N7&#45;&gt;N8</title>
<path fill="none" stroke="#204a87" stroke-width="2" d="M166.243,-246.338C184.434,-234.211 208.942,-217.872 228.408,-204.895"/>
<polygon fill="#204a87" stroke="#204a87" stroke-width="2" points="234.8,-200.634 230.431,-207.602 231.957,-203.13 228.837,-205.21 228.559,-204.794 228.282,-204.378 231.402,-202.298 226.687,-201.986 234.8,-200.634 234.8,-200.634"/>
<text text-anchor="middle" x="225.5" y="-221.6" font-family="FreeSans" font-size="8.00" fill="#204a87">bob_knows</text>
</g>
<!-- N8&#45;&gt;N0 -->
<g id="edge9" class="edge"><title>N8&#45;&gt;N0</title>
<path fill="none" stroke="#204a87" stroke-width="2" d="M269.824,-200.693C275.911,-212.932 283.301,-229.981 286.5,-246 296.858,-297.865 304.007,-315.093 286.5,-365 281.251,-379.962 270.748,-394.004 260.716,-404.973"/>
<polygon fill="#204a87" stroke="#204a87" stroke-width="2" points="255.544,-410.417 258.263,-402.655 257.764,-407.354 260.347,-404.635 260.71,-404.98 261.072,-405.324 258.489,-408.043 263.157,-407.304 255.544,-410.417 255.544,-410.417"/>
<text text-anchor="middle" x="318.5" y="-303.6" font-family="FreeSans" font-size="8.00" fill="#204a87">bob_knows</text>
</g>
<!-- N8&#45;&gt;N1 -->
<g id="edge10" class="edge"><title>N8&#45;&gt;N1</title>
<path fill="none" stroke="#4e9a06" stroke-width="2" d="M260.5,-164.141C260.5,-153.058 260.5,-138.518 260.5,-126.236"/>
<polygon fill="#4e9a06" stroke="#4e9a06" stroke-width="2" points="260.5,-118.55 263.875,-126.05 261,-122.3 261,-126.05 260.5,-126.05 260,-126.05 260,-122.3 257.125,-126.05 260.5,-118.55 260.5,-118.55"/>
<text text-anchor="middle" x="267" y="-139.6" font-family="FreeSans" font-size="8.00" fill="#4e9a06">has</text>
</g>
</g>
</svg>
