<?xml version="1.0" encoding="UTF-8" standalone="no"?>
<!DOCTYPE svg PUBLIC "-//W3C//DTD SVG 1.1//EN"
 "http://www.w3.org/Graphics/SVG/1.1/DTD/svg11.dtd">
<!-- Generated by graphviz version 2.38.0 (20140413.2041)
 -->
<!-- Title: g Pages: 1 -->
<svg width="79pt" height="127pt"
 viewBox="0.00 0.00 79.22 127.00" xmlns="http://www.w3.org/2000/svg" xmlns:xlink="http://www.w3.org/1999/xlink">
<g id="graph0" class="graph" transform="scale(1 1) rotate(0) translate(4 123)">
<title>g</title>
<polygon fill="white" stroke="none" points="-4,4 -4,-123 75.2244,-123 75.2244,4 -4,4"/>
<!-- N0 -->
<g id="node1" class="node"><title>N0</title>
<path fill="#ffffff" stroke="#2e3436" stroke-width="1.5" d="M16.2244,-82.5C16.2244,-82.5 59.2244,-82.5 59.2244,-82.5 65.2244,-82.5 71.2244,-88.5 71.2244,-94.5 71.2244,-94.5 71.2244,-106.5 71.2244,-106.5 71.2244,-112.5 65.2244,-118.5 59.2244,-118.5 59.2244,-118.5 16.2244,-118.5 16.2244,-118.5 10.2244,-118.5 4.2244,-112.5 4.2244,-106.5 4.2244,-106.5 4.2244,-94.5 4.2244,-94.5 4.2244,-88.5 10.2244,-82.5 16.2244,-82.5"/>
<text text-anchor="start" x="12.2244" y="-107.6" font-family="FreeSans" font-size="8.00" fill="#1c2021">name = &#39;A&#39;</text>
<text text-anchor="start" x="12.2244" y="-98.6" font-family="FreeSans" font-size="8.00" fill="#1c2021">happy = &#39;Yes!&#39;</text>
<text text-anchor="start" x="12.2244" y="-89.6" font-family="FreeSans" font-size="8.00" fill="#1c2021">age = 55</text>
</g>
<!-- N1 -->
<g id="node2" class="node"><title>N1</title>
<path fill="#ffffff" stroke="#2e3436" stroke-width="1.5" d="M22.7244,-0.5C22.7244,-0.5 52.7244,-0.5 52.7244,-0.5 58.7244,-0.5 64.7244,-6.5 64.7244,-12.5 64.7244,-12.5 64.7244,-24.5 64.7244,-24.5 64.7244,-30.5 58.7244,-36.5 52.7244,-36.5 52.7244,-36.5 22.7244,-36.5 22.7244,-36.5 16.7244,-36.5 10.7244,-30.5 10.7244,-24.5 10.7244,-24.5 10.7244,-12.5 10.7244,-12.5 10.7244,-6.5 16.7244,-0.5 22.7244,-0.5"/>
<text text-anchor="start" x="18.7244" y="-16.6" font-family="FreeSans" font-size="8.00" fill="#1c2021">name = &#39;B&#39;</text>
</g>
<!-- N0&#45;&gt;N1 -->
<g id="edge1" class="edge"><title>N0&#45;&gt;N1</title>
<path fill="none" stroke="#2e3436" stroke-width="2" d="M14.6621,-82.1699C9.42391,-76.9624 4.56982,-70.8021 1.7244,-64 -1.5053,-56.2793 1.2862,-48.8223 6.48674,-42.2912"/>
<polygon fill="#2e3436" stroke="#2e3436" stroke-width="2" points="11.8364,-36.5726 9.17742,-44.3553 9.63969,-39.6527 7.07786,-42.3912 6.71272,-42.0497 6.34758,-41.7081 8.90941,-38.9695 4.24802,-39.744 11.8364,-36.5726 11.8364,-36.5726"/>
<text text-anchor="middle" x="18.7244" y="-57.6" font-family="FreeSans" font-size="8.00" fill="#2e3436">BLOCKS</text>
</g>
<!-- N0&#45;&gt;N1 -->
<g id="edge2" class="edge"><title>N0&#45;&gt;N1</title>
<path fill="none" stroke="#4e9a06" stroke-width="2" d="M38.3103,-82.1681C38.4796,-76.3902 38.6411,-69.9184 38.7244,-64 38.8131,-57.6978 38.7438,-50.8942 38.6082,-44.5486"/>
<polygon fill="#4e9a06" stroke="#4e9a06" stroke-width="2" points="38.4078,-36.8278 41.9763,-44.2377 39.0049,-40.5636 39.1023,-44.3123 38.6025,-44.3253 38.1026,-44.3383 38.0053,-40.5895 35.2286,-44.4129 38.4078,-36.8278 38.4078,-36.8278"/>
<text text-anchor="middle" x="54.2244" y="-57.6" font-family="FreeSans" font-size="8.00" fill="#4e9a06">KNOWS</text>
</g>
</g>
</svg>
