<?xml version="1.0" encoding="UTF-8" standalone="no"?>
<!DOCTYPE svg PUBLIC "-//W3C//DTD SVG 1.1//EN"
 "http://www.w3.org/Graphics/SVG/1.1/DTD/svg11.dtd">
<!-- Generated by graphviz version 2.38.0 (20140413.2041)
 -->
<!-- Title: g Pages: 1 -->
<svg width="358pt" height="209pt"
 viewBox="0.00 0.00 357.66 209.00" xmlns="http://www.w3.org/2000/svg" xmlns:xlink="http://www.w3.org/1999/xlink">
<g id="graph0" class="graph" transform="scale(1 1) rotate(0) translate(4 205)">
<title>g</title>
<polygon fill="white" stroke="none" points="-4,4 -4,-205 353.655,-205 353.655,4 -4,4"/>
<!-- N0 -->
<g id="node1" class="node"><title>N0</title>
<path fill="#ffffff" stroke="#2e3436" stroke-width="1.5" d="M197.155,-82.5C197.155,-82.5 232.155,-82.5 232.155,-82.5 238.155,-82.5 244.155,-88.5 244.155,-94.5 244.155,-94.5 244.155,-106.5 244.155,-106.5 244.155,-112.5 238.155,-118.5 232.155,-118.5 232.155,-118.5 197.155,-118.5 197.155,-118.5 191.155,-118.5 185.155,-112.5 185.155,-106.5 185.155,-106.5 185.155,-94.5 185.155,-94.5 185.155,-88.5 191.155,-82.5 197.155,-82.5"/>
<text text-anchor="middle" x="214.655" y="-107.6" font-family="FreeSans" font-size="8.00" fill="#1c2021">Node[0]</text>
<polyline fill="none" stroke="#2e3436" stroke-width="1.5" points="185.155,-100.5 244.155,-100.5 "/>
<text text-anchor="start" x="193.155" y="-89.6" font-family="FreeSans" font-size="8.00" fill="#1c2021">name = &#39;Bill&#39;</text>
</g>
<!-- N1 -->
<g id="node2" class="node"><title>N1</title>
<path fill="#ffffff" stroke="#2e3436" stroke-width="1.5" d="M138.655,-0.5C138.655,-0.5 190.655,-0.5 190.655,-0.5 196.655,-0.5 202.655,-6.5 202.655,-12.5 202.655,-12.5 202.655,-24.5 202.655,-24.5 202.655,-30.5 196.655,-36.5 190.655,-36.5 190.655,-36.5 138.655,-36.5 138.655,-36.5 132.655,-36.5 126.655,-30.5 126.655,-24.5 126.655,-24.5 126.655,-12.5 126.655,-12.5 126.655,-6.5 132.655,-0.5 138.655,-0.5"/>
<text text-anchor="middle" x="164.655" y="-25.6" font-family="FreeSans" font-size="8.00" fill="#1c2021">Node[1]</text>
<polyline fill="none" stroke="#2e3436" stroke-width="1.5" points="126.655,-18.5 202.655,-18.5 "/>
<text text-anchor="start" x="134.655" y="-7.6" font-family="FreeSans" font-size="8.00" fill="#1c2021">name = &#39;Group1&#39;</text>
</g>
<!-- N0&#45;&gt;N1 -->
<g id="edge1" class="edge"><title>N0&#45;&gt;N1</title>
<path fill="none" stroke="#2e3436" stroke-width="2" d="M203.806,-82.1412C196.681,-70.7416 187.27,-55.6839 179.461,-43.1887"/>
<polygon fill="#2e3436" stroke="#2e3436" stroke-width="2" points="175.311,-36.5501 182.148,-41.1213 177.723,-39.4651 179.71,-42.6451 179.286,-42.9101 178.862,-43.1751 176.875,-39.9951 176.424,-44.6989 175.311,-36.5501 175.311,-36.5501"/>
<text text-anchor="middle" x="225.155" y="-57.6" font-family="FreeSans" font-size="8.00" fill="#2e3436">member_of_group</text>
</g>
<!-- N2 -->
<g id="node3" class="node"><title>N2</title>
<path fill="#ffffff" stroke="#2e3436" stroke-width="1.5" d="M100.155,-82.5C100.155,-82.5 139.155,-82.5 139.155,-82.5 145.155,-82.5 151.155,-88.5 151.155,-94.5 151.155,-94.5 151.155,-106.5 151.155,-106.5 151.155,-112.5 145.155,-118.5 139.155,-118.5 139.155,-118.5 100.155,-118.5 100.155,-118.5 94.155,-118.5 88.155,-112.5 88.155,-106.5 88.155,-106.5 88.155,-94.5 88.155,-94.5 88.155,-88.5 94.155,-82.5 100.155,-82.5"/>
<text text-anchor="middle" x="119.655" y="-107.6" font-family="FreeSans" font-size="8.00" fill="#1c2021">Node[2]</text>
<polyline fill="none" stroke="#2e3436" stroke-width="1.5" points="88.155,-100.5 151.155,-100.5 "/>
<text text-anchor="start" x="96.155" y="-89.6" font-family="FreeSans" font-size="8.00" fill="#1c2021">name = &#39;Bob&#39;</text>
</g>
<!-- N2&#45;&gt;N1 -->
<g id="edge2" class="edge"><title>N2&#45;&gt;N1</title>
<path fill="none" stroke="#2e3436" stroke-width="2" d="M112.117,-82.1931C109.537,-73.5951 108.272,-63.2986 112.655,-55 115.322,-49.9496 119.067,-45.482 123.338,-41.5696"/>
<polygon fill="#2e3436" stroke="#2e3436" stroke-width="2" points="129.437,-36.5761 125.772,-43.9388 126.852,-39.3386 123.951,-41.7143 123.634,-41.3274 123.317,-40.9405 126.219,-38.5649 121.496,-38.716 129.437,-36.5761 129.437,-36.5761"/>
<text text-anchor="middle" x="146.155" y="-57.6" font-family="FreeSans" font-size="8.00" fill="#2e3436">member_of_group</text>
</g>
<!-- N3 -->
<g id="node4" class="node"><title>N3</title>
<path fill="#ffffff" stroke="#2e3436" stroke-width="1.5" d="M102.655,-164.5C102.655,-164.5 136.655,-164.5 136.655,-164.5 142.655,-164.5 148.655,-170.5 148.655,-176.5 148.655,-176.5 148.655,-188.5 148.655,-188.5 148.655,-194.5 142.655,-200.5 136.655,-200.5 136.655,-200.5 102.655,-200.5 102.655,-200.5 96.655,-200.5 90.655,-194.5 90.655,-188.5 90.655,-188.5 90.655,-176.5 90.655,-176.5 90.655,-170.5 96.655,-164.5 102.655,-164.5"/>
<text text-anchor="middle" x="119.655" y="-189.6" font-family="FreeSans" font-size="8.00" fill="#1c2021">Node[3]</text>
<polyline fill="none" stroke="#2e3436" stroke-width="1.5" points="90.655,-182.5 148.655,-182.5 "/>
<text text-anchor="start" x="98.655" y="-171.6" font-family="FreeSans" font-size="8.00" fill="#1c2021">name = &#39;Jill&#39;</text>
</g>
<!-- N3&#45;&gt;N0 -->
<g id="edge3" class="edge"><title>N3&#45;&gt;N0</title>
<path fill="none" stroke="#4e9a06" stroke-width="2" d="M140.269,-164.141C154.432,-152.214 173.352,-136.282 188.565,-123.47"/>
<polygon fill="#4e9a06" stroke="#4e9a06" stroke-width="2" points="194.408,-118.55 190.845,-125.963 191.862,-121.348 188.993,-123.764 188.671,-123.381 188.349,-122.999 191.218,-120.583 186.497,-120.8 194.408,-118.55 194.408,-118.55"/>
<text text-anchor="middle" x="182.655" y="-139.6" font-family="FreeSans" font-size="8.00" fill="#4e9a06">knows</text>
</g>
<!-- N3&#45;&gt;N1 -->
<g id="edge4" class="edge"><title>N3&#45;&gt;N1</title>
<path fill="none" stroke="#2e3436" stroke-width="2" d="M90.5646,-174.449C63.4742,-166.168 24.6471,-149.512 6.65504,-119 -1.69772,-104.835 -2.59022,-95.5994 6.65504,-82 31.583,-45.3319 81.7068,-30.1766 118.846,-23.9127"/>
<polygon fill="#2e3436" stroke="#2e3436" stroke-width="2" points="126.56,-22.7065 119.671,-27.1997 122.932,-23.7799 119.227,-24.3592 119.15,-23.8652 119.073,-23.3712 122.778,-22.7919 118.629,-20.5307 126.56,-22.7065 126.56,-22.7065"/>
<text text-anchor="middle" x="40.155" y="-98.6" font-family="FreeSans" font-size="8.00" fill="#2e3436">member_of_group</text>
</g>
<!-- N4 -->
<g id="node5" class="node"><title>N4</title>
<path fill="#ffffff" stroke="#2e3436" stroke-width="1.5" d="M250.655,-164.5C250.655,-164.5 288.655,-164.5 288.655,-164.5 294.655,-164.5 300.655,-170.5 300.655,-176.5 300.655,-176.5 300.655,-188.5 300.655,-188.5 300.655,-194.5 294.655,-200.5 288.655,-200.5 288.655,-200.5 250.655,-200.5 250.655,-200.5 244.655,-200.5 238.655,-194.5 238.655,-188.5 238.655,-188.5 238.655,-176.5 238.655,-176.5 238.655,-170.5 244.655,-164.5 250.655,-164.5"/>
<text text-anchor="middle" x="269.655" y="-189.6" font-family="FreeSans" font-size="8.00" fill="#1c2021">Node[4]</text>
<polyline fill="none" stroke="#2e3436" stroke-width="1.5" points="238.655,-182.5 300.655,-182.5 "/>
<text text-anchor="start" x="246.655" y="-171.6" font-family="FreeSans" font-size="8.00" fill="#1c2021">name = &#39;Joe&#39;</text>
</g>
<!-- N4&#45;&gt;N0 -->
<g id="edge5" class="edge"><title>N4&#45;&gt;N0</title>
<path fill="none" stroke="#4e9a06" stroke-width="2" d="M257.721,-164.141C249.811,-152.636 239.34,-137.405 230.703,-124.842"/>
<polygon fill="#4e9a06" stroke="#4e9a06" stroke-width="2" points="226.377,-118.55 233.407,-122.818 228.914,-121.357 231.038,-124.447 230.626,-124.73 230.214,-125.014 228.089,-121.924 227.845,-126.642 226.377,-118.55 226.377,-118.55"/>
<text text-anchor="middle" x="256.655" y="-139.6" font-family="FreeSans" font-size="8.00" fill="#4e9a06">knows</text>
</g>
<!-- N4&#45;&gt;N1 -->
<g id="edge6" class="edge"><title>N4&#45;&gt;N1</title>
<path fill="none" stroke="#2e3436" stroke-width="2" d="M275.01,-164.153C282.067,-137.515 290.847,-86.3402 265.655,-55 252.18,-38.2369 230.251,-29.3749 210.263,-24.6961"/>
<polygon fill="#2e3436" stroke="#2e3436" stroke-width="2" points="202.719,-23.1 210.756,-21.3507 206.492,-23.3871 210.16,-24.1634 210.057,-24.6526 209.953,-25.1417 206.285,-24.3654 209.358,-27.9545 202.719,-23.1 202.719,-23.1"/>
<text text-anchor="middle" x="316.155" y="-98.6" font-family="FreeSans" font-size="8.00" fill="#2e3436">member_of_group</text>
</g>
</g>
</svg>
