<?xml version="1.0" encoding="UTF-8" standalone="no"?>
<!DOCTYPE svg PUBLIC "-//W3C//DTD SVG 1.1//EN"
 "http://www.w3.org/Graphics/SVG/1.1/DTD/svg11.dtd">
<!-- Generated by graphviz version 2.38.0 (20140413.2041)
 -->
<!-- Title: g Pages: 1 -->
<svg width="402pt" height="127pt"
 viewBox="0.00 0.00 402.00 127.00" xmlns="http://www.w3.org/2000/svg" xmlns:xlink="http://www.w3.org/1999/xlink">
<g id="graph0" class="graph" transform="scale(1 1) rotate(0) translate(4 123)">
<title>g</title>
<polygon fill="white" stroke="none" points="-4,4 -4,-123 398,-123 398,4 -4,4"/>
<!-- N0 -->
<g id="node1" class="node"><title>N0</title>
<path fill="#ffffff" stroke="#2e3436" stroke-width="1.5" d="M29.5,-0.5C29.5,-0.5 70.5,-0.5 70.5,-0.5 76.5,-0.5 82.5,-6.5 82.5,-12.5 82.5,-12.5 82.5,-24.5 82.5,-24.5 82.5,-30.5 76.5,-36.5 70.5,-36.5 70.5,-36.5 29.5,-36.5 29.5,-36.5 23.5,-36.5 17.5,-30.5 17.5,-24.5 17.5,-24.5 17.5,-12.5 17.5,-12.5 17.5,-6.5 23.5,-0.5 29.5,-0.5"/>
<text text-anchor="middle" x="50" y="-25.6" font-family="FreeSans" font-size="8.00" fill="#1c2021">Node[0]</text>
<polyline fill="none" stroke="#2e3436" stroke-width="1.5" points="17.5,-18.5 82.5,-18.5 "/>
<text text-anchor="start" x="25.5" y="-7.6" font-family="FreeSans" font-size="8.00" fill="#1c2021">name = &#39;Pet1&#39;</text>
</g>
<!-- N1 -->
<g id="node2" class="node"><title>N1</title>
<path fill="#ffffff" stroke="#2e3436" stroke-width="1.5" d="M271.5,-0.5C271.5,-0.5 312.5,-0.5 312.5,-0.5 318.5,-0.5 324.5,-6.5 324.5,-12.5 324.5,-12.5 324.5,-24.5 324.5,-24.5 324.5,-30.5 318.5,-36.5 312.5,-36.5 312.5,-36.5 271.5,-36.5 271.5,-36.5 265.5,-36.5 259.5,-30.5 259.5,-24.5 259.5,-24.5 259.5,-12.5 259.5,-12.5 259.5,-6.5 265.5,-0.5 271.5,-0.5"/>
<text text-anchor="middle" x="292" y="-25.6" font-family="FreeSans" font-size="8.00" fill="#1c2021">Node[1]</text>
<polyline fill="none" stroke="#2e3436" stroke-width="1.5" points="259.5,-18.5 324.5,-18.5 "/>
<text text-anchor="start" x="267.5" y="-7.6" font-family="FreeSans" font-size="8.00" fill="#1c2021">name = &#39;Pet2&#39;</text>
</g>
<!-- N2 -->
<g id="node3" class="node"><title>N2</title>
<path fill="#ffffff" stroke="#2e3436" stroke-width="1.5" d="M177.5,-82.5C177.5,-82.5 218.5,-82.5 218.5,-82.5 224.5,-82.5 230.5,-88.5 230.5,-94.5 230.5,-94.5 230.5,-106.5 230.5,-106.5 230.5,-112.5 224.5,-118.5 218.5,-118.5 218.5,-118.5 177.5,-118.5 177.5,-118.5 171.5,-118.5 165.5,-112.5 165.5,-106.5 165.5,-106.5 165.5,-94.5 165.5,-94.5 165.5,-88.5 171.5,-82.5 177.5,-82.5"/>
<text text-anchor="middle" x="198" y="-107.6" font-family="FreeSans" font-size="8.00" fill="#1c2021">Node[2]</text>
<polyline fill="none" stroke="#2e3436" stroke-width="1.5" points="165.5,-100.5 230.5,-100.5 "/>
<text text-anchor="start" x="173.5" y="-89.6" font-family="FreeSans" font-size="8.00" fill="#1c2021">name = &#39;Pet0&#39;</text>
</g>
<!-- N2&#45;&gt;N0 -->
<g id="edge3" class="edge"><title>N2&#45;&gt;N0</title>
<path fill="none" stroke="#2e3436" stroke-width="2" d="M166.25,-82.338C143.425,-70 112.535,-53.3025 88.3335,-40.2208"/>
<polygon fill="#2e3436" stroke="#2e3436" stroke-width="2" points="81.6972,-36.6336 89.8999,-37.231 85.2339,-37.977 88.5328,-39.7602 88.295,-40.2001 88.0573,-40.6399 84.7583,-38.8567 86.6901,-43.1691 81.6972,-36.6336 81.6972,-36.6336"/>
<text text-anchor="middle" x="150.5" y="-57.6" font-family="FreeSans" font-size="8.00" fill="#2e3436">descendant</text>
</g>
<!-- N2&#45;&gt;N1 -->
<g id="edge2" class="edge"><title>N2&#45;&gt;N1</title>
<path fill="none" stroke="#2e3436" stroke-width="2" d="M218.529,-82.191C225.366,-76.4147 233.018,-69.938 240,-64 248.367,-56.8841 257.471,-49.1051 265.69,-42.0696"/>
<polygon fill="#2e3436" stroke="#2e3436" stroke-width="2" points="271.775,-36.8578 268.274,-44.2999 269.252,-39.677 266.404,-42.1164 266.079,-41.7366 265.753,-41.3569 268.601,-38.9175 263.883,-39.1733 271.775,-36.8578 271.775,-36.8578"/>
<text text-anchor="middle" x="270.5" y="-57.6" font-family="FreeSans" font-size="8.00" fill="#2e3436">descendant</text>
</g>
<!-- N3 -->
<g id="node4" class="node"><title>N3</title>
<path fill="#ffffff" stroke="#2e3436" stroke-width="1.5" d="M159.5,-0.5C159.5,-0.5 200.5,-0.5 200.5,-0.5 206.5,-0.5 212.5,-6.5 212.5,-12.5 212.5,-12.5 212.5,-24.5 212.5,-24.5 212.5,-30.5 206.5,-36.5 200.5,-36.5 200.5,-36.5 159.5,-36.5 159.5,-36.5 153.5,-36.5 147.5,-30.5 147.5,-24.5 147.5,-24.5 147.5,-12.5 147.5,-12.5 147.5,-6.5 153.5,-0.5 159.5,-0.5"/>
<text text-anchor="middle" x="180" y="-25.6" font-family="FreeSans" font-size="8.00" fill="#1c2021">Node[3]</text>
<polyline fill="none" stroke="#2e3436" stroke-width="1.5" points="147.5,-18.5 212.5,-18.5 "/>
<text text-anchor="start" x="155.5" y="-7.6" font-family="FreeSans" font-size="8.00" fill="#1c2021">name = &#39;Pet3&#39;</text>
</g>
<!-- N2&#45;&gt;N3 -->
<g id="edge1" class="edge"><title>N2&#45;&gt;N3</title>
<path fill="none" stroke="#2e3436" stroke-width="2" d="M194.094,-82.1412C191.577,-70.9527 188.267,-56.2404 185.487,-43.8855"/>
<polygon fill="#2e3436" stroke="#2e3436" stroke-width="2" points="183.836,-36.5501 188.775,-43.1263 185.147,-40.0989 185.97,-43.7574 185.483,-43.8672 184.995,-43.9769 184.172,-40.3184 182.19,-44.6081 183.836,-36.5501 183.836,-36.5501"/>
<text text-anchor="middle" x="211.5" y="-57.6" font-family="FreeSans" font-size="8.00" fill="#2e3436">descendant</text>
</g>
<!-- N4 -->
<g id="node5" class="node"><title>N4</title>
<path fill="#ffffff" stroke="#2e3436" stroke-width="1.5" d="M12,-82.5C12,-82.5 72,-82.5 72,-82.5 78,-82.5 84,-88.5 84,-94.5 84,-94.5 84,-106.5 84,-106.5 84,-112.5 78,-118.5 72,-118.5 72,-118.5 12,-118.5 12,-118.5 6,-118.5 0,-112.5 0,-106.5 0,-106.5 0,-94.5 0,-94.5 0,-88.5 6,-82.5 12,-82.5"/>
<text text-anchor="middle" x="42" y="-107.6" font-family="FreeSans" font-size="8.00" fill="#1c2021">Node[4]</text>
<polyline fill="none" stroke="#2e3436" stroke-width="1.5" points="0,-100.5 84,-100.5 "/>
<text text-anchor="start" x="8" y="-89.6" font-family="FreeSans" font-size="8.00" fill="#1c2021">name = &#39;Principal1&#39;</text>
</g>
<!-- N4&#45;&gt;N0 -->
<g id="edge5" class="edge"><title>N4&#45;&gt;N0</title>
<path fill="none" stroke="#4e9a06" stroke-width="2" d="M20.9503,-82.1178C13.9936,-74.2056 8.94916,-64.5004 13,-55 14.9247,-50.4859 17.7362,-46.2698 20.9632,-42.4327"/>
<polygon fill="#4e9a06" stroke="#4e9a06" stroke-width="2" points="26.3086,-36.7265 23.6442,-44.5074 24.1097,-39.8051 21.546,-42.5419 21.1811,-42.2001 20.8162,-41.8582 23.3799,-39.1215 18.718,-39.8927 26.3086,-36.7265 26.3086,-36.7265"/>
<text text-anchor="middle" x="22.5" y="-57.6" font-family="FreeSans" font-size="8.00" fill="#4e9a06">owns</text>
</g>
<!-- N4&#45;&gt;N3 -->
<g id="edge4" class="edge"><title>N4&#45;&gt;N3</title>
<path fill="none" stroke="#4e9a06" stroke-width="2" d="M47.6771,-82.1685C51.516,-72.9217 57.4633,-62.0318 66,-55 77.4929,-45.5331 111.988,-35.5117 140.049,-28.5395"/>
<polygon fill="#4e9a06" stroke="#4e9a06" stroke-width="2" points="147.397,-26.746 140.911,-31.8033 143.872,-28.121 140.229,-29.0103 140.11,-28.5245 139.992,-28.0388 143.635,-27.1495 139.31,-25.2458 147.397,-26.746 147.397,-26.746"/>
<text text-anchor="middle" x="75.5" y="-57.6" font-family="FreeSans" font-size="8.00" fill="#4e9a06">owns</text>
</g>
<!-- N5 -->
<g id="node6" class="node"><title>N5</title>
<path fill="#ffffff" stroke="#2e3436" stroke-width="1.5" d="M322,-82.5C322,-82.5 382,-82.5 382,-82.5 388,-82.5 394,-88.5 394,-94.5 394,-94.5 394,-106.5 394,-106.5 394,-112.5 388,-118.5 382,-118.5 382,-118.5 322,-118.5 322,-118.5 316,-118.5 310,-112.5 310,-106.5 310,-106.5 310,-94.5 310,-94.5 310,-88.5 316,-82.5 322,-82.5"/>
<text text-anchor="middle" x="352" y="-107.6" font-family="FreeSans" font-size="8.00" fill="#1c2021">Node[5]</text>
<polyline fill="none" stroke="#2e3436" stroke-width="1.5" points="310,-100.5 394,-100.5 "/>
<text text-anchor="start" x="318" y="-89.6" font-family="FreeSans" font-size="8.00" fill="#1c2021">name = &#39;Principal2&#39;</text>
</g>
<!-- N5&#45;&gt;N1 -->
<g id="edge6" class="edge"><title>N5&#45;&gt;N1</title>
<path fill="none" stroke="#4e9a06" stroke-width="2" d="M339.198,-82.1346C333.104,-73.8945 325.7,-63.9213 319,-55 316.071,-51.0993 312.948,-46.9686 309.904,-42.9572"/>
<polygon fill="#4e9a06" stroke="#4e9a06" stroke-width="2" points="305.226,-36.8021 312.451,-40.7308 307.893,-39.485 310.162,-42.4706 309.764,-42.7731 309.366,-43.0757 307.097,-40.0902 307.077,-44.8154 305.226,-36.8021 305.226,-36.8021"/>
<text text-anchor="middle" x="334.5" y="-57.6" font-family="FreeSans" font-size="8.00" fill="#4e9a06">owns</text>
</g>
</g>
</svg>
