<?xml version="1.0" encoding="UTF-8" standalone="no"?>
<!DOCTYPE svg PUBLIC "-//W3C//DTD SVG 1.1//EN"
 "http://www.w3.org/Graphics/SVG/1.1/DTD/svg11.dtd">
<!-- Generated by graphviz version 2.38.0 (20140413.2041)
 -->
<!-- Title: g Pages: 1 -->
<svg width="175pt" height="209pt"
 viewBox="0.00 0.00 175.00 209.00" xmlns="http://www.w3.org/2000/svg" xmlns:xlink="http://www.w3.org/1999/xlink">
<g id="graph0" class="graph" transform="scale(1 1) rotate(0) translate(4 205)">
<title>g</title>
<polygon fill="white" stroke="none" points="-4,4 -4,-205 171,-205 171,4 -4,4"/>
<!-- N0 -->
<g id="node1" class="node"><title>N0</title>
<path fill="#ffffff" stroke="#2e3436" stroke-width="1.5" d="M15.5,-82.5C15.5,-82.5 57.5,-82.5 57.5,-82.5 63.5,-82.5 69.5,-88.5 69.5,-94.5 69.5,-94.5 69.5,-106.5 69.5,-106.5 69.5,-112.5 63.5,-118.5 57.5,-118.5 57.5,-118.5 15.5,-118.5 15.5,-118.5 9.5,-118.5 3.5,-112.5 3.5,-106.5 3.5,-106.5 3.5,-94.5 3.5,-94.5 3.5,-88.5 9.5,-82.5 15.5,-82.5"/>
<text text-anchor="start" x="11.5" y="-98.6" font-family="FreeSans" font-size="8.00" fill="#1c2021">name = &#39;Sara&#39;</text>
</g>
<!-- N1 -->
<g id="node2" class="node"><title>N1</title>
<path fill="#ffffff" stroke="#2e3436" stroke-width="1.5" d="M12,-0.5C12,-0.5 57,-0.5 57,-0.5 63,-0.5 69,-6.5 69,-12.5 69,-12.5 69,-24.5 69,-24.5 69,-30.5 63,-36.5 57,-36.5 57,-36.5 12,-36.5 12,-36.5 6,-36.5 0,-30.5 0,-24.5 0,-24.5 0,-12.5 0,-12.5 0,-6.5 6,-0.5 12,-0.5"/>
<text text-anchor="start" x="8" y="-16.6" font-family="FreeSans" font-size="8.00" fill="#1c2021">name = &#39;Maria&#39;</text>
</g>
<!-- N0&#45;&gt;N1 -->
<g id="edge1" class="edge"><title>N0&#45;&gt;N1</title>
<path fill="none" stroke="#2e3436" stroke-width="2" d="M36.066,-82.1412C35.789,-71.0583 35.4254,-56.5177 35.1184,-44.2358"/>
<polygon fill="#2e3436" stroke="#2e3436" stroke-width="2" points="34.9263,-36.5501 38.4877,-43.9634 35.5199,-40.2864 35.6136,-44.0353 35.1138,-44.0478 34.6139,-44.0603 34.5202,-40.3114 31.7398,-44.1321 34.9263,-36.5501 34.9263,-36.5501"/>
<text text-anchor="middle" x="47" y="-57.6" font-family="FreeSans" font-size="8.00" fill="#2e3436">friend</text>
</g>
<!-- N2 -->
<g id="node3" class="node"><title>N2</title>
<path fill="#ffffff" stroke="#2e3436" stroke-width="1.5" d="M110,-0.5C110,-0.5 155,-0.5 155,-0.5 161,-0.5 167,-6.5 167,-12.5 167,-12.5 167,-24.5 167,-24.5 167,-30.5 161,-36.5 155,-36.5 155,-36.5 110,-36.5 110,-36.5 104,-36.5 98,-30.5 98,-24.5 98,-24.5 98,-12.5 98,-12.5 98,-6.5 104,-0.5 110,-0.5"/>
<text text-anchor="start" x="106" y="-16.6" font-family="FreeSans" font-size="8.00" fill="#1c2021">name = &#39;Steve&#39;</text>
</g>
<!-- N3 -->
<g id="node4" class="node"><title>N3</title>
<path fill="#ffffff" stroke="#2e3436" stroke-width="1.5" d="M67,-164.5C67,-164.5 110,-164.5 110,-164.5 116,-164.5 122,-170.5 122,-176.5 122,-176.5 122,-188.5 122,-188.5 122,-194.5 116,-200.5 110,-200.5 110,-200.5 67,-200.5 67,-200.5 61,-200.5 55,-194.5 55,-188.5 55,-188.5 55,-176.5 55,-176.5 55,-170.5 61,-164.5 67,-164.5"/>
<text text-anchor="start" x="63" y="-180.6" font-family="FreeSans" font-size="8.00" fill="#1c2021">name = &#39;John&#39;</text>
</g>
<!-- N3&#45;&gt;N0 -->
<g id="edge2" class="edge"><title>N3&#45;&gt;N0</title>
<path fill="none" stroke="#2e3436" stroke-width="2" d="M77.2168,-164.141C69.7385,-152.636 59.8381,-137.405 51.6725,-124.842"/>
<polygon fill="#2e3436" stroke="#2e3436" stroke-width="2" points="47.5826,-118.55 54.4998,-122.999 50.0455,-121.422 52.0892,-124.566 51.67,-124.838 51.2508,-125.111 49.2071,-121.967 48.8403,-126.678 47.5826,-118.55 47.5826,-118.55"/>
<text text-anchor="middle" x="75" y="-139.6" font-family="FreeSans" font-size="8.00" fill="#2e3436">friend</text>
</g>
<!-- N4 -->
<g id="node5" class="node"><title>N4</title>
<path fill="#ffffff" stroke="#2e3436" stroke-width="1.5" d="M112.5,-82.5C112.5,-82.5 150.5,-82.5 150.5,-82.5 156.5,-82.5 162.5,-88.5 162.5,-94.5 162.5,-94.5 162.5,-106.5 162.5,-106.5 162.5,-112.5 156.5,-118.5 150.5,-118.5 150.5,-118.5 112.5,-118.5 112.5,-118.5 106.5,-118.5 100.5,-112.5 100.5,-106.5 100.5,-106.5 100.5,-94.5 100.5,-94.5 100.5,-88.5 106.5,-82.5 112.5,-82.5"/>
<text text-anchor="start" x="108.5" y="-98.6" font-family="FreeSans" font-size="8.00" fill="#1c2021">name = &#39;Joe&#39;</text>
</g>
<!-- N3&#45;&gt;N4 -->
<g id="edge3" class="edge"><title>N3&#45;&gt;N4</title>
<path fill="none" stroke="#2e3436" stroke-width="2" d="M97.8304,-164.141C103.958,-152.742 112.051,-137.684 118.767,-125.189"/>
<polygon fill="#2e3436" stroke="#2e3436" stroke-width="2" points="122.336,-118.55 121.757,-126.754 121.001,-122.09 119.225,-125.393 118.785,-125.156 118.344,-124.92 120.12,-121.616 115.812,-123.558 122.336,-118.55 122.336,-118.55"/>
<text text-anchor="middle" x="121" y="-139.6" font-family="FreeSans" font-size="8.00" fill="#2e3436">friend</text>
</g>
<!-- N4&#45;&gt;N2 -->
<g id="edge4" class="edge"><title>N4&#45;&gt;N2</title>
<path fill="none" stroke="#2e3436" stroke-width="2" d="M131.717,-82.1412C131.856,-71.0583 132.037,-56.5177 132.191,-44.2358"/>
<polygon fill="#2e3436" stroke="#2e3436" stroke-width="2" points="132.287,-36.5501 135.568,-44.0917 132.74,-40.3061 132.693,-44.0558 132.193,-44.0495 131.693,-44.0433 131.74,-40.2935 128.818,-44.0073 132.287,-36.5501 132.287,-36.5501"/>
<text text-anchor="middle" x="142" y="-57.6" font-family="FreeSans" font-size="8.00" fill="#2e3436">friend</text>
</g>
</g>
</svg>
