<?xml version="1.0" encoding="UTF-8" standalone="no"?>
<!DOCTYPE svg PUBLIC "-//W3C//DTD SVG 1.1//EN"
 "http://www.w3.org/Graphics/SVG/1.1/DTD/svg11.dtd">
<!-- Generated by graphviz version 2.38.0 (20140413.2041)
 -->
<!-- Title: g Pages: 1 -->
<svg width="71pt" height="127pt"
 viewBox="0.00 0.00 71.00 127.00" xmlns="http://www.w3.org/2000/svg" xmlns:xlink="http://www.w3.org/1999/xlink">
<g id="graph0" class="graph" transform="scale(1 1) rotate(0) translate(4 123)">
<title>g</title>
<polygon fill="white" stroke="none" points="-4,4 -4,-123 67,-123 67,4 -4,4"/>
<!-- N10110 -->
<g id="node1" class="node"><title>N10110</title>
<path fill="#ffffff" stroke="#2e3436" stroke-width="1.5" d="M12,-0.5C12,-0.5 51,-0.5 51,-0.5 57,-0.5 63,-6.5 63,-12.5 63,-12.5 63,-24.5 63,-24.5 63,-30.5 57,-36.5 51,-36.5 51,-36.5 12,-36.5 12,-36.5 6,-36.5 0,-30.5 0,-24.5 0,-24.5 0,-12.5 0,-12.5 0,-6.5 6,-0.5 12,-0.5"/>
<text text-anchor="middle" x="31.5" y="-25.6" font-family="FreeSans" font-size="8.00" fill="#1c2021">Node[10110]</text>
<polyline fill="none" stroke="#2e3436" stroke-width="1.5" points="0,-18.5 63,-18.5 "/>
<text text-anchor="start" x="8" y="-7.6" font-family="FreeSans" font-size="8.00" fill="#1c2021">name = &#39;you&#39;</text>
</g>
<!-- N10111 -->
<g id="node2" class="node"><title>N10111</title>
<path fill="#ffffff" stroke="#2e3436" stroke-width="1.5" d="M12,-82.5C12,-82.5 51,-82.5 51,-82.5 57,-82.5 63,-88.5 63,-94.5 63,-94.5 63,-106.5 63,-106.5 63,-112.5 57,-118.5 51,-118.5 51,-118.5 12,-118.5 12,-118.5 6,-118.5 0,-112.5 0,-106.5 0,-106.5 0,-94.5 0,-94.5 0,-88.5 6,-82.5 12,-82.5"/>
<text text-anchor="middle" x="31.5" y="-107.6" font-family="FreeSans" font-size="8.00" fill="#1c2021">Node[10111]</text>
<polyline fill="none" stroke="#2e3436" stroke-width="1.5" points="0,-100.5 63,-100.5 "/>
<text text-anchor="start" x="8" y="-89.6" font-family="FreeSans" font-size="8.00" fill="#1c2021">name = &#39;I&#39;</text>
</g>
<!-- N10111&#45;&gt;N10110 -->
<g id="edge1" class="edge"><title>N10111&#45;&gt;N10110</title>
<path fill="none" stroke="#2e3436" stroke-width="2" d="M31.5,-82.1412C31.5,-71.0583 31.5,-56.5177 31.5,-44.2358"/>
<polygon fill="#2e3436" stroke="#2e3436" stroke-width="2" points="31.5,-36.5501 34.8751,-44.0501 32,-40.3001 32.0001,-44.0501 31.5001,-44.0501 31.0001,-44.0501 31,-40.3001 28.1251,-44.0501 31.5,-36.5501 31.5,-36.5501"/>
<text text-anchor="middle" x="41.5" y="-57.6" font-family="FreeSans" font-size="8.00" fill="#2e3436">know</text>
</g>
</g>
</svg>
