<?xml version="1.0" encoding="UTF-8" standalone="no"?>
<!DOCTYPE svg PUBLIC "-//W3C//DTD SVG 1.1//EN"
 "http://www.w3.org/Graphics/SVG/1.1/DTD/svg11.dtd">
<!-- Generated by graphviz version 2.38.0 (20140413.2041)
 -->
<!-- Title: g Pages: 1 -->
<svg width="504pt" height="36pt"
 viewBox="0.00 0.00 504.00 36.40" xmlns="http://www.w3.org/2000/svg" xmlns:xlink="http://www.w3.org/1999/xlink">
<g id="graph0" class="graph" transform="scale(0.808989 0.808989) rotate(0) translate(4 41)">
<title>g</title>
<polygon fill="white" stroke="none" points="-4,4 -4,-41 619,-41 619,4 -4,4"/>
<!-- N10073 -->
<g id="node1" class="node"><title>N10073</title>
<path fill="#ffffff" stroke="#2e3436" stroke-width="1.5" d="M12,-0.5C12,-0.5 51,-0.5 51,-0.5 57,-0.5 63,-6.5 63,-12.5 63,-12.5 63,-24.5 63,-24.5 63,-30.5 57,-36.5 51,-36.5 51,-36.5 12,-36.5 12,-36.5 6,-36.5 0,-30.5 0,-24.5 0,-24.5 0,-12.5 0,-12.5 0,-6.5 6,-0.5 12,-0.5"/>
<text text-anchor="middle" x="31.5" y="-25.6" font-family="FreeSans" font-size="8.00" fill="#1c2021">Node[10073]</text>
<polyline fill="none" stroke="#2e3436" stroke-width="1.5" points="0,-18.5 63,-18.5 "/>
<text text-anchor="middle" x="31.5" y="-7.6" font-family="FreeSans" font-size="8.00" fill="#1c2021"> </text>
</g>
<!-- N10074 -->
<g id="node2" class="node"><title>N10074</title>
<path fill="#ffffff" stroke="#2e3436" stroke-width="1.5" d="M104,-0.5C104,-0.5 143,-0.5 143,-0.5 149,-0.5 155,-6.5 155,-12.5 155,-12.5 155,-24.5 155,-24.5 155,-30.5 149,-36.5 143,-36.5 143,-36.5 104,-36.5 104,-36.5 98,-36.5 92,-30.5 92,-24.5 92,-24.5 92,-12.5 92,-12.5 92,-6.5 98,-0.5 104,-0.5"/>
<text text-anchor="middle" x="123.5" y="-25.6" font-family="FreeSans" font-size="8.00" fill="#1c2021">Node[10074]</text>
<polyline fill="none" stroke="#2e3436" stroke-width="1.5" points="92,-18.5 155,-18.5 "/>
<text text-anchor="middle" x="123.5" y="-7.6" font-family="FreeSans" font-size="8.00" fill="#1c2021"> </text>
</g>
<!-- N10075 -->
<g id="node3" class="node"><title>N10075</title>
<path fill="#ffffff" stroke="#2e3436" stroke-width="1.5" d="M196,-0.5C196,-0.5 235,-0.5 235,-0.5 241,-0.5 247,-6.5 247,-12.5 247,-12.5 247,-24.5 247,-24.5 247,-30.5 241,-36.5 235,-36.5 235,-36.5 196,-36.5 196,-36.5 190,-36.5 184,-30.5 184,-24.5 184,-24.5 184,-12.5 184,-12.5 184,-6.5 190,-0.5 196,-0.5"/>
<text text-anchor="middle" x="215.5" y="-25.6" font-family="FreeSans" font-size="8.00" fill="#1c2021">Node[10075]</text>
<polyline fill="none" stroke="#2e3436" stroke-width="1.5" points="184,-18.5 247,-18.5 "/>
<text text-anchor="middle" x="215.5" y="-7.6" font-family="FreeSans" font-size="8.00" fill="#1c2021"> </text>
</g>
<!-- N10076 -->
<g id="node4" class="node"><title>N10076</title>
<path fill="#ffffff" stroke="#2e3436" stroke-width="1.5" d="M288,-0.5C288,-0.5 327,-0.5 327,-0.5 333,-0.5 339,-6.5 339,-12.5 339,-12.5 339,-24.5 339,-24.5 339,-30.5 333,-36.5 327,-36.5 327,-36.5 288,-36.5 288,-36.5 282,-36.5 276,-30.5 276,-24.5 276,-24.5 276,-12.5 276,-12.5 276,-6.5 282,-0.5 288,-0.5"/>
<text text-anchor="middle" x="307.5" y="-25.6" font-family="FreeSans" font-size="8.00" fill="#1c2021">Node[10076]</text>
<polyline fill="none" stroke="#2e3436" stroke-width="1.5" points="276,-18.5 339,-18.5 "/>
<text text-anchor="middle" x="307.5" y="-7.6" font-family="FreeSans" font-size="8.00" fill="#1c2021"> </text>
</g>
<!-- N10077 -->
<g id="node5" class="node"><title>N10077</title>
<path fill="#ffffff" stroke="#2e3436" stroke-width="1.5" d="M380,-0.5C380,-0.5 419,-0.5 419,-0.5 425,-0.5 431,-6.5 431,-12.5 431,-12.5 431,-24.5 431,-24.5 431,-30.5 425,-36.5 419,-36.5 419,-36.5 380,-36.5 380,-36.5 374,-36.5 368,-30.5 368,-24.5 368,-24.5 368,-12.5 368,-12.5 368,-6.5 374,-0.5 380,-0.5"/>
<text text-anchor="middle" x="399.5" y="-25.6" font-family="FreeSans" font-size="8.00" fill="#1c2021">Node[10077]</text>
<polyline fill="none" stroke="#2e3436" stroke-width="1.5" points="368,-18.5 431,-18.5 "/>
<text text-anchor="middle" x="399.5" y="-7.6" font-family="FreeSans" font-size="8.00" fill="#1c2021"> </text>
</g>
<!-- N10078 -->
<g id="node6" class="node"><title>N10078</title>
<path fill="#ffffff" stroke="#2e3436" stroke-width="1.5" d="M472,-0.5C472,-0.5 511,-0.5 511,-0.5 517,-0.5 523,-6.5 523,-12.5 523,-12.5 523,-24.5 523,-24.5 523,-30.5 517,-36.5 511,-36.5 511,-36.5 472,-36.5 472,-36.5 466,-36.5 460,-30.5 460,-24.5 460,-24.5 460,-12.5 460,-12.5 460,-6.5 466,-0.5 472,-0.5"/>
<text text-anchor="middle" x="491.5" y="-25.6" font-family="FreeSans" font-size="8.00" fill="#1c2021">Node[10078]</text>
<polyline fill="none" stroke="#2e3436" stroke-width="1.5" points="460,-18.5 523,-18.5 "/>
<text text-anchor="middle" x="491.5" y="-7.6" font-family="FreeSans" font-size="8.00" fill="#1c2021"> </text>
</g>
<!-- N10079 -->
<g id="node7" class="node"><title>N10079</title>
<path fill="#ffffff" stroke="#2e3436" stroke-width="1.5" d="M564,-0.5C564,-0.5 603,-0.5 603,-0.5 609,-0.5 615,-6.5 615,-12.5 615,-12.5 615,-24.5 615,-24.5 615,-30.5 609,-36.5 603,-36.5 603,-36.5 564,-36.5 564,-36.5 558,-36.5 552,-30.5 552,-24.5 552,-24.5 552,-12.5 552,-12.5 552,-6.5 558,-0.5 564,-0.5"/>
<text text-anchor="middle" x="583.5" y="-25.6" font-family="FreeSans" font-size="8.00" fill="#1c2021">Node[10079]</text>
<polyline fill="none" stroke="#2e3436" stroke-width="1.5" points="552,-18.5 615,-18.5 "/>
<text text-anchor="middle" x="583.5" y="-7.6" font-family="FreeSans" font-size="8.00" fill="#1c2021"> </text>
</g>
</g>
</svg>
