<?xml version="1.0" encoding="UTF-8" standalone="no"?>
<!DOCTYPE svg PUBLIC "-//W3C//DTD SVG 1.1//EN"
 "http://www.w3.org/Graphics/SVG/1.1/DTD/svg11.dtd">
<!-- Generated by graphviz version 2.38.0 (20140413.2041)
 -->
<!-- Title: g Pages: 1 -->
<svg width="83pt" height="127pt"
 viewBox="0.00 0.00 83.00 127.00" xmlns="http://www.w3.org/2000/svg" xmlns:xlink="http://www.w3.org/1999/xlink">
<g id="graph0" class="graph" transform="scale(1 1) rotate(0) translate(4 123)">
<title>g</title>
<polygon fill="white" stroke="none" points="-4,4 -4,-123 79,-123 79,4 -4,4"/>
<!-- N19 -->
<g id="node1" class="node"><title>N19</title>
<path fill="#ffffff" stroke="#2e3436" stroke-width="1.5" d="M15.5,-0.5C15.5,-0.5 59.5,-0.5 59.5,-0.5 65.5,-0.5 71.5,-6.5 71.5,-12.5 71.5,-12.5 71.5,-24.5 71.5,-24.5 71.5,-30.5 65.5,-36.5 59.5,-36.5 59.5,-36.5 15.5,-36.5 15.5,-36.5 9.5,-36.5 3.5,-30.5 3.5,-24.5 3.5,-24.5 3.5,-12.5 3.5,-12.5 3.5,-6.5 9.5,-0.5 15.5,-0.5"/>
<text text-anchor="middle" x="37.5" y="-25.6" font-family="FreeSans" font-size="8.00" fill="#1c2021">Node[19]</text>
<polyline fill="none" stroke="#2e3436" stroke-width="1.5" points="3.5,-18.5 71.5,-18.5 "/>
<text text-anchor="start" x="11.5" y="-7.6" font-family="FreeSans" font-size="8.00" fill="#1c2021">name = &#39;Juliet&#39;</text>
</g>
<!-- N20 -->
<g id="node2" class="node"><title>N20</title>
<path fill="#ffffff" stroke="#2e3436" stroke-width="1.5" d="M12,-82.5C12,-82.5 63,-82.5 63,-82.5 69,-82.5 75,-88.5 75,-94.5 75,-94.5 75,-106.5 75,-106.5 75,-112.5 69,-118.5 63,-118.5 63,-118.5 12,-118.5 12,-118.5 6,-118.5 -7.10543e-15,-112.5 -7.10543e-15,-106.5 -7.10543e-15,-106.5 -7.10543e-15,-94.5 -7.10543e-15,-94.5 -7.10543e-15,-88.5 6,-82.5 12,-82.5"/>
<text text-anchor="middle" x="37.5" y="-107.6" font-family="FreeSans" font-size="8.00" fill="#1c2021">Node[20]</text>
<polyline fill="none" stroke="#2e3436" stroke-width="1.5" points="-7.10543e-15,-100.5 75,-100.5 "/>
<text text-anchor="start" x="8" y="-89.6" font-family="FreeSans" font-size="8.00" fill="#1c2021">name = &#39;Romeo&#39;</text>
</g>
<!-- N20&#45;&gt;N19 -->
<g id="edge1" class="edge"><title>N20&#45;&gt;N19</title>
<path fill="none" stroke="#2e3436" stroke-width="2" d="M37.5,-82.1412C37.5,-71.0583 37.5,-56.5177 37.5,-44.2358"/>
<polygon fill="#2e3436" stroke="#2e3436" stroke-width="2" points="37.5,-36.5501 40.8751,-44.0501 38,-40.3001 38.0001,-44.0501 37.5001,-44.0501 37.0001,-44.0501 37,-40.3001 34.1251,-44.0501 37.5,-36.5501 37.5,-36.5501"/>
<text text-anchor="middle" x="51.5" y="-57.6" font-family="FreeSans" font-size="8.00" fill="#2e3436">LOVES</text>
</g>
</g>
</svg>
