<?xml version="1.0" encoding="UTF-8" standalone="no"?>
<!DOCTYPE svg PUBLIC "-//W3C//DTD SVG 1.1//EN"
 "http://www.w3.org/Graphics/SVG/1.1/DTD/svg11.dtd">
<!-- Generated by graphviz version 2.38.0 (20140413.2041)
 -->
<!-- Title: g Pages: 1 -->
<svg width="76pt" height="127pt"
 viewBox="0.00 0.00 75.58 127.00" xmlns="http://www.w3.org/2000/svg" xmlns:xlink="http://www.w3.org/1999/xlink">
<g id="graph0" class="graph" transform="scale(1 1) rotate(0) translate(4 123)">
<title>g</title>
<polygon fill="white" stroke="none" points="-4,4 -4,-123 71.5826,-123 71.5826,4 -4,4"/>
<!-- N0 -->
<g id="node1" class="node"><title>N0</title>
<path fill="#ffffff" stroke="#2e3436" stroke-width="1.5" d="M13.5826,-0.5C13.5826,-0.5 55.5826,-0.5 55.5826,-0.5 61.5826,-0.5 67.5826,-6.5 67.5826,-12.5 67.5826,-12.5 67.5826,-24.5 67.5826,-24.5 67.5826,-30.5 61.5826,-36.5 55.5826,-36.5 55.5826,-36.5 13.5826,-36.5 13.5826,-36.5 7.58261,-36.5 1.58261,-30.5 1.58261,-24.5 1.58261,-24.5 1.58261,-12.5 1.58261,-12.5 1.58261,-6.5 7.58261,-0.5 13.5826,-0.5"/>
<text text-anchor="middle" x="34.5826" y="-25.6" font-family="FreeSans" font-size="8.00" fill="#1c2021">Node[0]</text>
<polyline fill="none" stroke="#2e3436" stroke-width="1.5" points="1.58261,-18.5 67.5826,-18.5 "/>
<text text-anchor="start" x="9.58261" y="-7.6" font-family="FreeSans" font-size="8.00" fill="#1c2021">name = &#39;Sara&#39;</text>
</g>
<!-- N1 -->
<g id="node2" class="node"><title>N1</title>
<path fill="#ffffff" stroke="#2e3436" stroke-width="1.5" d="M15.5826,-82.5C15.5826,-82.5 53.5826,-82.5 53.5826,-82.5 59.5826,-82.5 65.5826,-88.5 65.5826,-94.5 65.5826,-94.5 65.5826,-106.5 65.5826,-106.5 65.5826,-112.5 59.5826,-118.5 53.5826,-118.5 53.5826,-118.5 15.5826,-118.5 15.5826,-118.5 9.58261,-118.5 3.58261,-112.5 3.58261,-106.5 3.58261,-106.5 3.58261,-94.5 3.58261,-94.5 3.58261,-88.5 9.58261,-82.5 15.5826,-82.5"/>
<text text-anchor="middle" x="34.5826" y="-107.6" font-family="FreeSans" font-size="8.00" fill="#1c2021">Node[1]</text>
<polyline fill="none" stroke="#2e3436" stroke-width="1.5" points="3.58261,-100.5 65.5826,-100.5 "/>
<text text-anchor="start" x="11.5826" y="-89.6" font-family="FreeSans" font-size="8.00" fill="#1c2021">name = &#39;Joe&#39;</text>
</g>
<!-- N1&#45;&gt;N0 -->
<g id="edge1" class="edge"><title>N1&#45;&gt;N0</title>
<path fill="none" stroke="#2e3436" stroke-width="2" d="M13.7547,-82.2375C8.82229,-76.9516 4.22957,-70.7352 1.58261,-64 -1.38024,-56.461 1.17786,-49.0662 5.945,-42.5367"/>
<polygon fill="#2e3436" stroke="#2e3436" stroke-width="2" points="10.849,-36.8041 8.53817,-44.6973 8.79123,-39.9788 6.35349,-42.8283 5.97355,-42.5033 5.5936,-42.1783 8.03134,-39.3287 3.40893,-40.3093 10.849,-36.8041 10.849,-36.8041"/>
<text text-anchor="middle" x="15.5826" y="-57.6" font-family="FreeSans" font-size="8.00" fill="#2e3436">LOVES</text>
</g>
<!-- N1&#45;&gt;N0 -->
<g id="edge2" class="edge"><title>N1&#45;&gt;N0</title>
<path fill="none" stroke="#4e9a06" stroke-width="2" d="M34.5826,-82.1412C34.5826,-71.0583 34.5826,-56.5177 34.5826,-44.2358"/>
<polygon fill="#4e9a06" stroke="#4e9a06" stroke-width="2" points="34.5826,-36.5501 37.9577,-44.0501 35.0827,-40.3001 35.0827,-44.0501 34.5827,-44.0501 34.0827,-44.0501 34.0827,-40.3001 31.2077,-44.0501 34.5826,-36.5501 34.5826,-36.5501"/>
<text text-anchor="middle" x="46.5826" y="-57.6" font-family="FreeSans" font-size="8.00" fill="#4e9a06">knows</text>
</g>
</g>
</svg>
