<?xml version="1.0" encoding="UTF-8" standalone="no"?>
<!DOCTYPE svg PUBLIC "-//W3C//DTD SVG 1.1//EN"
 "http://www.w3.org/Graphics/SVG/1.1/DTD/svg11.dtd">
<!-- Generated by graphviz version 2.38.0 (20140413.2041)
 -->
<!-- Title: g Pages: 1 -->
<svg width="183pt" height="127pt"
 viewBox="0.00 0.00 182.50 127.00" xmlns="http://www.w3.org/2000/svg" xmlns:xlink="http://www.w3.org/1999/xlink">
<g id="graph0" class="graph" transform="scale(1 1) rotate(0) translate(4 123)">
<title>g</title>
<polygon fill="white" stroke="none" points="-4,4 -4,-123 178.5,-123 178.5,4 -4,4"/>
<!-- N45 -->
<g id="node1" class="node"><title>N45</title>
<path fill="#ffffff" stroke="#2e3436" stroke-width="1.5" d="M12,-0.5C12,-0.5 59,-0.5 59,-0.5 65,-0.5 71,-6.5 71,-12.5 71,-12.5 71,-24.5 71,-24.5 71,-30.5 65,-36.5 59,-36.5 59,-36.5 12,-36.5 12,-36.5 6,-36.5 0,-30.5 0,-24.5 0,-24.5 0,-12.5 0,-12.5 0,-6.5 6,-0.5 12,-0.5"/>
<text text-anchor="middle" x="35.5" y="-25.6" font-family="FreeSans" font-size="8.00" fill="#1c2021">Node[45]</text>
<polyline fill="none" stroke="#2e3436" stroke-width="1.5" points="0,-18.5 71,-18.5 "/>
<text text-anchor="start" x="8" y="-7.6" font-family="FreeSans" font-size="8.00" fill="#1c2021">name = &#39;Johan&#39;</text>
</g>
<!-- N46 -->
<g id="node2" class="node"><title>N46</title>
<path fill="#ffffff" stroke="#2e3436" stroke-width="1.5" d="M65.5,-82.5C65.5,-82.5 107.5,-82.5 107.5,-82.5 113.5,-82.5 119.5,-88.5 119.5,-94.5 119.5,-94.5 119.5,-106.5 119.5,-106.5 119.5,-112.5 113.5,-118.5 107.5,-118.5 107.5,-118.5 65.5,-118.5 65.5,-118.5 59.5,-118.5 53.5,-112.5 53.5,-106.5 53.5,-106.5 53.5,-94.5 53.5,-94.5 53.5,-88.5 59.5,-82.5 65.5,-82.5"/>
<text text-anchor="middle" x="86.5" y="-107.6" font-family="FreeSans" font-size="8.00" fill="#1c2021">Node[46]</text>
<polyline fill="none" stroke="#2e3436" stroke-width="1.5" points="53.5,-100.5 119.5,-100.5 "/>
<text text-anchor="start" x="61.5" y="-89.6" font-family="FreeSans" font-size="8.00" fill="#1c2021">name = &#39;Root&#39;</text>
</g>
<!-- N46&#45;&gt;N45 -->
<g id="edge1" class="edge"><title>N46&#45;&gt;N45</title>
<path fill="none" stroke="#2e3436" stroke-width="2" d="M75.4338,-82.1412C68.1665,-70.7416 58.5673,-55.6839 50.6016,-43.1887"/>
<polygon fill="#2e3436" stroke="#2e3436" stroke-width="2" points="46.3694,-36.5501 53.2471,-41.06 48.8069,-39.4434 50.8228,-42.6055 50.4012,-42.8743 49.9795,-43.1431 47.9637,-39.981 47.5553,-44.6886 46.3694,-36.5501 46.3694,-36.5501"/>
<text text-anchor="middle" x="75.5" y="-57.6" font-family="FreeSans" font-size="8.00" fill="#2e3436">knows</text>
</g>
<!-- N47 -->
<g id="node3" class="node"><title>N47</title>
<path fill="#ffffff" stroke="#2e3436" stroke-width="1.5" d="M112.5,-0.5C112.5,-0.5 162.5,-0.5 162.5,-0.5 168.5,-0.5 174.5,-6.5 174.5,-12.5 174.5,-12.5 174.5,-24.5 174.5,-24.5 174.5,-30.5 168.5,-36.5 162.5,-36.5 162.5,-36.5 112.5,-36.5 112.5,-36.5 106.5,-36.5 100.5,-30.5 100.5,-24.5 100.5,-24.5 100.5,-12.5 100.5,-12.5 100.5,-6.5 106.5,-0.5 112.5,-0.5"/>
<text text-anchor="middle" x="137.5" y="-25.6" font-family="FreeSans" font-size="8.00" fill="#1c2021">Node[47]</text>
<polyline fill="none" stroke="#2e3436" stroke-width="1.5" points="100.5,-18.5 174.5,-18.5 "/>
<text text-anchor="start" x="108.5" y="-7.6" font-family="FreeSans" font-size="8.00" fill="#1c2021">name = &#39;Mattias&#39;</text>
</g>
<!-- N46&#45;&gt;N47 -->
<g id="edge2" class="edge"><title>N46&#45;&gt;N47</title>
<path fill="none" stroke="#2e3436" stroke-width="2" d="M97.5662,-82.1412C104.833,-70.7416 114.433,-55.6839 122.398,-43.1887"/>
<polygon fill="#2e3436" stroke="#2e3436" stroke-width="2" points="126.631,-36.5501 125.445,-44.6886 125.036,-39.981 123.02,-43.1431 122.599,-42.8743 122.177,-42.6055 124.193,-39.4434 119.753,-41.06 126.631,-36.5501 126.631,-36.5501"/>
<text text-anchor="middle" x="126.5" y="-57.6" font-family="FreeSans" font-size="8.00" fill="#2e3436">knows</text>
</g>
</g>
</svg>
