<?xml version="1.0" encoding="UTF-8" standalone="no"?>
<!DOCTYPE svg PUBLIC "-//W3C//DTD SVG 1.1//EN"
 "http://www.w3.org/Graphics/SVG/1.1/DTD/svg11.dtd">
<!-- Generated by graphviz version 2.38.0 (20140413.2041)
 -->
<!-- Title: g Pages: 1 -->
<svg width="461pt" height="45pt"
 viewBox="0.00 0.00 461.00 45.00" xmlns="http://www.w3.org/2000/svg" xmlns:xlink="http://www.w3.org/1999/xlink">
<g id="graph0" class="graph" transform="scale(1 1) rotate(0) translate(4 41)">
<title>g</title>
<polygon fill="white" stroke="none" points="-4,4 -4,-41 457,-41 457,4 -4,4"/>
<!-- N10137 -->
<g id="node1" class="node"><title>N10137</title>
<path fill="#ffffff" stroke="#2e3436" stroke-width="1.5" d="M12,-0.5C12,-0.5 115,-0.5 115,-0.5 121,-0.5 127,-6.5 127,-12.5 127,-12.5 127,-24.5 127,-24.5 127,-30.5 121,-36.5 115,-36.5 115,-36.5 12,-36.5 12,-36.5 6,-36.5 0,-30.5 0,-24.5 0,-24.5 0,-12.5 0,-12.5 0,-6.5 6,-0.5 12,-0.5"/>
<text text-anchor="middle" x="63.5" y="-25.6" font-family="FreeSans" font-size="8.00" fill="#1c2021">Node[10137]: Person, Director</text>
<polyline fill="none" stroke="#2e3436" stroke-width="1.5" points="0,-18.5 127,-18.5 "/>
<text text-anchor="start" x="8" y="-7.6" font-family="FreeSans" font-size="8.00" fill="#1c2021">name = &#39;Steven Spielberg&#39;</text>
</g>
<!-- N10138 -->
<g id="node2" class="node"><title>N10138</title>
<path fill="#ffffff" stroke="#2e3436" stroke-width="1.5" d="M168,-0.5C168,-0.5 295,-0.5 295,-0.5 301,-0.5 307,-6.5 307,-12.5 307,-12.5 307,-24.5 307,-24.5 307,-30.5 301,-36.5 295,-36.5 295,-36.5 168,-36.5 168,-36.5 162,-36.5 156,-30.5 156,-24.5 156,-24.5 156,-12.5 156,-12.5 156,-6.5 162,-0.5 168,-0.5"/>
<text text-anchor="middle" x="231.5" y="-25.6" font-family="FreeSans" font-size="8.00" fill="#1c2021">Node[10138]: Person, Director, Actor</text>
<polyline fill="none" stroke="#2e3436" stroke-width="1.5" points="156,-18.5 307,-18.5 "/>
<text text-anchor="start" x="164" y="-7.6" font-family="FreeSans" font-size="8.00" fill="#1c2021">name = &#39;Clint Eastwood&#39;</text>
</g>
<!-- N10139 -->
<g id="node3" class="node"><title>N10139</title>
<path fill="#ffffff" stroke="#2e3436" stroke-width="1.5" d="M348,-0.5C348,-0.5 441,-0.5 441,-0.5 447,-0.5 453,-6.5 453,-12.5 453,-12.5 453,-24.5 453,-24.5 453,-30.5 447,-36.5 441,-36.5 441,-36.5 348,-36.5 348,-36.5 342,-36.5 336,-30.5 336,-24.5 336,-24.5 336,-12.5 336,-12.5 336,-6.5 342,-0.5 348,-0.5"/>
<text text-anchor="middle" x="394.5" y="-25.6" font-family="FreeSans" font-size="8.00" fill="#1c2021">Node[10139]: Person, Actor</text>
<polyline fill="none" stroke="#2e3436" stroke-width="1.5" points="336,-18.5 453,-18.5 "/>
<text text-anchor="start" x="344" y="-7.6" font-family="FreeSans" font-size="8.00" fill="#1c2021">name = &#39;Donald Sutherland&#39;</text>
</g>
</g>
</svg>
