<?xml version="1.0" encoding="UTF-8" standalone="no"?>
<!DOCTYPE svg PUBLIC "-//W3C//DTD SVG 1.1//EN"
 "http://www.w3.org/Graphics/SVG/1.1/DTD/svg11.dtd">
<!-- Generated by graphviz version 2.38.0 (20140413.2041)
 -->
<!-- Title: g Pages: 1 -->
<svg width="452pt" height="136pt"
 viewBox="0.00 0.00 451.50 136.00" xmlns="http://www.w3.org/2000/svg" xmlns:xlink="http://www.w3.org/1999/xlink">
<g id="graph0" class="graph" transform="scale(1 1) rotate(0) translate(4 132)">
<title>g</title>
<polygon fill="white" stroke="none" points="-4,4 -4,-132 447.5,-132 447.5,4 -4,4"/>
<!-- N10113 -->
<g id="node1" class="node"><title>N10113</title>
<path fill="#ffffff" stroke="#2e3436" stroke-width="1.5" d="M12,-91.5C12,-91.5 51,-91.5 51,-91.5 57,-91.5 63,-97.5 63,-103.5 63,-103.5 63,-115.5 63,-115.5 63,-121.5 57,-127.5 51,-127.5 51,-127.5 12,-127.5 12,-127.5 6,-127.5 0,-121.5 0,-115.5 0,-115.5 0,-103.5 0,-103.5 0,-97.5 6,-91.5 12,-91.5"/>
<text text-anchor="middle" x="31.5" y="-116.6" font-family="FreeSans" font-size="8.00" fill="#1c2021">Node[10113]</text>
<polyline fill="none" stroke="#2e3436" stroke-width="1.5" points="0,-109.5 63,-109.5 "/>
<text text-anchor="middle" x="31.5" y="-98.6" font-family="FreeSans" font-size="8.00" fill="#1c2021"> </text>
</g>
<!-- N10114 -->
<g id="node2" class="node"><title>N10114</title>
<path fill="#ffffff" stroke="#2e3436" stroke-width="1.5" d="M12,-0.5C12,-0.5 51,-0.5 51,-0.5 57,-0.5 63,-6.5 63,-12.5 63,-12.5 63,-24.5 63,-24.5 63,-30.5 57,-36.5 51,-36.5 51,-36.5 12,-36.5 12,-36.5 6,-36.5 0,-30.5 0,-24.5 0,-24.5 0,-12.5 0,-12.5 0,-6.5 6,-0.5 12,-0.5"/>
<text text-anchor="middle" x="31.5" y="-25.6" font-family="FreeSans" font-size="8.00" fill="#1c2021">Node[10114]</text>
<polyline fill="none" stroke="#2e3436" stroke-width="1.5" points="0,-18.5 63,-18.5 "/>
<text text-anchor="middle" x="31.5" y="-7.6" font-family="FreeSans" font-size="8.00" fill="#1c2021"> </text>
</g>
<!-- N10113&#45;&gt;N10114 -->
<g id="edge1" class="edge"><title>N10113&#45;&gt;N10114</title>
<path fill="none" stroke="#2e3436" stroke-width="2" d="M31.5,-91.3399C31.5,-78.0425 31.5,-59.4274 31.5,-44.4783"/>
<polygon fill="#2e3436" stroke="#2e3436" stroke-width="2" points="31.5,-36.6074 34.8751,-44.1074 32,-40.3574 32.0001,-44.1074 31.5001,-44.1074 31.0001,-44.1074 31,-40.3574 28.1251,-44.1075 31.5,-36.6074 31.5,-36.6074"/>
<text text-anchor="middle" x="47" y="-62.1" font-family="FreeSans" font-size="8.00" fill="#2e3436">KNOWS</text>
</g>
<!-- N10115 -->
<g id="node3" class="node"><title>N10115</title>
<path fill="#ffffff" stroke="#2e3436" stroke-width="1.5" d="M104,-91.5C104,-91.5 143,-91.5 143,-91.5 149,-91.5 155,-97.5 155,-103.5 155,-103.5 155,-115.5 155,-115.5 155,-121.5 149,-127.5 143,-127.5 143,-127.5 104,-127.5 104,-127.5 98,-127.5 92,-121.5 92,-115.5 92,-115.5 92,-103.5 92,-103.5 92,-97.5 98,-91.5 104,-91.5"/>
<text text-anchor="middle" x="123.5" y="-116.6" font-family="FreeSans" font-size="8.00" fill="#1c2021">Node[10115]</text>
<polyline fill="none" stroke="#2e3436" stroke-width="1.5" points="92,-109.5 155,-109.5 "/>
<text text-anchor="middle" x="123.5" y="-98.6" font-family="FreeSans" font-size="8.00" fill="#1c2021"> </text>
</g>
<!-- N10116 -->
<g id="node4" class="node"><title>N10116</title>
<path fill="#ffffff" stroke="#2e3436" stroke-width="1.5" d="M104,-0.5C104,-0.5 143,-0.5 143,-0.5 149,-0.5 155,-6.5 155,-12.5 155,-12.5 155,-24.5 155,-24.5 155,-30.5 149,-36.5 143,-36.5 143,-36.5 104,-36.5 104,-36.5 98,-36.5 92,-30.5 92,-24.5 92,-24.5 92,-12.5 92,-12.5 92,-6.5 98,-0.5 104,-0.5"/>
<text text-anchor="middle" x="123.5" y="-25.6" font-family="FreeSans" font-size="8.00" fill="#1c2021">Node[10116]</text>
<polyline fill="none" stroke="#2e3436" stroke-width="1.5" points="92,-18.5 155,-18.5 "/>
<text text-anchor="middle" x="123.5" y="-7.6" font-family="FreeSans" font-size="8.00" fill="#1c2021"> </text>
</g>
<!-- N10115&#45;&gt;N10116 -->
<g id="edge2" class="edge"><title>N10115&#45;&gt;N10116</title>
<path fill="none" stroke="#2e3436" stroke-width="2" d="M123.5,-91.3399C123.5,-78.0425 123.5,-59.4274 123.5,-44.4783"/>
<polygon fill="#2e3436" stroke="#2e3436" stroke-width="2" points="123.5,-36.6074 126.875,-44.1074 124,-40.3574 124,-44.1074 123.5,-44.1074 123,-44.1074 123,-40.3574 120.125,-44.1075 123.5,-36.6074 123.5,-36.6074"/>
<text text-anchor="middle" x="139" y="-62.1" font-family="FreeSans" font-size="8.00" fill="#2e3436">KNOWS</text>
</g>
<!-- N10117 -->
<g id="node5" class="node"><title>N10117</title>
<path fill="#ffffff" stroke="#2e3436" stroke-width="1.5" d="M196,-91.5C196,-91.5 235,-91.5 235,-91.5 241,-91.5 247,-97.5 247,-103.5 247,-103.5 247,-115.5 247,-115.5 247,-121.5 241,-127.5 235,-127.5 235,-127.5 196,-127.5 196,-127.5 190,-127.5 184,-121.5 184,-115.5 184,-115.5 184,-103.5 184,-103.5 184,-97.5 190,-91.5 196,-91.5"/>
<text text-anchor="middle" x="215.5" y="-116.6" font-family="FreeSans" font-size="8.00" fill="#1c2021">Node[10117]</text>
<polyline fill="none" stroke="#2e3436" stroke-width="1.5" points="184,-109.5 247,-109.5 "/>
<text text-anchor="middle" x="215.5" y="-98.6" font-family="FreeSans" font-size="8.00" fill="#1c2021"> </text>
</g>
<!-- N10118 -->
<g id="node6" class="node"><title>N10118</title>
<path fill="#ffffff" stroke="#2e3436" stroke-width="1.5" d="M196,-0.5C196,-0.5 235,-0.5 235,-0.5 241,-0.5 247,-6.5 247,-12.5 247,-12.5 247,-24.5 247,-24.5 247,-30.5 241,-36.5 235,-36.5 235,-36.5 196,-36.5 196,-36.5 190,-36.5 184,-30.5 184,-24.5 184,-24.5 184,-12.5 184,-12.5 184,-6.5 190,-0.5 196,-0.5"/>
<text text-anchor="middle" x="215.5" y="-25.6" font-family="FreeSans" font-size="8.00" fill="#1c2021">Node[10118]</text>
<polyline fill="none" stroke="#2e3436" stroke-width="1.5" points="184,-18.5 247,-18.5 "/>
<text text-anchor="middle" x="215.5" y="-7.6" font-family="FreeSans" font-size="8.00" fill="#1c2021"> </text>
</g>
<!-- N10117&#45;&gt;N10118 -->
<g id="edge3" class="edge"><title>N10117&#45;&gt;N10118</title>
<path fill="none" stroke="#2e3436" stroke-width="2" d="M215.5,-91.3399C215.5,-78.0425 215.5,-59.4274 215.5,-44.4783"/>
<polygon fill="#2e3436" stroke="#2e3436" stroke-width="2" points="215.5,-36.6074 218.875,-44.1074 216,-40.3574 216,-44.1074 215.5,-44.1074 215,-44.1074 215,-40.3574 212.125,-44.1075 215.5,-36.6074 215.5,-36.6074"/>
<text text-anchor="middle" x="231" y="-62.1" font-family="FreeSans" font-size="8.00" fill="#2e3436">KNOWS</text>
</g>
<!-- N10119 -->
<g id="node7" class="node"><title>N10119</title>
<path fill="#ffffff" stroke="#2e3436" stroke-width="1.5" d="M288,-91.5C288,-91.5 327,-91.5 327,-91.5 333,-91.5 339,-97.5 339,-103.5 339,-103.5 339,-115.5 339,-115.5 339,-121.5 333,-127.5 327,-127.5 327,-127.5 288,-127.5 288,-127.5 282,-127.5 276,-121.5 276,-115.5 276,-115.5 276,-103.5 276,-103.5 276,-97.5 282,-91.5 288,-91.5"/>
<text text-anchor="middle" x="307.5" y="-116.6" font-family="FreeSans" font-size="8.00" fill="#1c2021">Node[10119]</text>
<polyline fill="none" stroke="#2e3436" stroke-width="1.5" points="276,-109.5 339,-109.5 "/>
<text text-anchor="middle" x="307.5" y="-98.6" font-family="FreeSans" font-size="8.00" fill="#1c2021"> </text>
</g>
<!-- N10120 -->
<g id="node8" class="node"><title>N10120</title>
<path fill="#ffffff" stroke="#2e3436" stroke-width="1.5" d="M288,-0.5C288,-0.5 327,-0.5 327,-0.5 333,-0.5 339,-6.5 339,-12.5 339,-12.5 339,-24.5 339,-24.5 339,-30.5 333,-36.5 327,-36.5 327,-36.5 288,-36.5 288,-36.5 282,-36.5 276,-30.5 276,-24.5 276,-24.5 276,-12.5 276,-12.5 276,-6.5 282,-0.5 288,-0.5"/>
<text text-anchor="middle" x="307.5" y="-25.6" font-family="FreeSans" font-size="8.00" fill="#1c2021">Node[10120]</text>
<polyline fill="none" stroke="#2e3436" stroke-width="1.5" points="276,-18.5 339,-18.5 "/>
<text text-anchor="middle" x="307.5" y="-7.6" font-family="FreeSans" font-size="8.00" fill="#1c2021"> </text>
</g>
<!-- N10119&#45;&gt;N10120 -->
<g id="edge4" class="edge"><title>N10119&#45;&gt;N10120</title>
<path fill="none" stroke="#2e3436" stroke-width="2" d="M307.5,-91.3399C307.5,-78.0425 307.5,-59.4274 307.5,-44.4783"/>
<polygon fill="#2e3436" stroke="#2e3436" stroke-width="2" points="307.5,-36.6074 310.875,-44.1074 308,-40.3574 308,-44.1074 307.5,-44.1074 307,-44.1074 307,-40.3574 304.125,-44.1075 307.5,-36.6074 307.5,-36.6074"/>
<text text-anchor="middle" x="323" y="-62.1" font-family="FreeSans" font-size="8.00" fill="#2e3436">KNOWS</text>
</g>
<!-- N10121 -->
<g id="node9" class="node"><title>N10121</title>
<path fill="#ffffff" stroke="#2e3436" stroke-width="1.5" d="M380,-91.5C380,-91.5 419,-91.5 419,-91.5 425,-91.5 431,-97.5 431,-103.5 431,-103.5 431,-115.5 431,-115.5 431,-121.5 425,-127.5 419,-127.5 419,-127.5 380,-127.5 380,-127.5 374,-127.5 368,-121.5 368,-115.5 368,-115.5 368,-103.5 368,-103.5 368,-97.5 374,-91.5 380,-91.5"/>
<text text-anchor="middle" x="399.5" y="-116.6" font-family="FreeSans" font-size="8.00" fill="#1c2021">Node[10121]</text>
<polyline fill="none" stroke="#2e3436" stroke-width="1.5" points="368,-109.5 431,-109.5 "/>
<text text-anchor="middle" x="399.5" y="-98.6" font-family="FreeSans" font-size="8.00" fill="#1c2021"> </text>
</g>
<!-- N10122 -->
<g id="node10" class="node"><title>N10122</title>
<path fill="#ffffff" stroke="#2e3436" stroke-width="1.5" d="M380,-0.5C380,-0.5 419,-0.5 419,-0.5 425,-0.5 431,-6.5 431,-12.5 431,-12.5 431,-24.5 431,-24.5 431,-30.5 425,-36.5 419,-36.5 419,-36.5 380,-36.5 380,-36.5 374,-36.5 368,-30.5 368,-24.5 368,-24.5 368,-12.5 368,-12.5 368,-6.5 374,-0.5 380,-0.5"/>
<text text-anchor="middle" x="399.5" y="-25.6" font-family="FreeSans" font-size="8.00" fill="#1c2021">Node[10122]</text>
<polyline fill="none" stroke="#2e3436" stroke-width="1.5" points="368,-18.5 431,-18.5 "/>
<text text-anchor="middle" x="399.5" y="-7.6" font-family="FreeSans" font-size="8.00" fill="#1c2021"> </text>
</g>
<!-- N10121&#45;&gt;N10122 -->
<g id="edge5" class="edge"><title>N10121&#45;&gt;N10122</title>
<path fill="none" stroke="#2e3436" stroke-width="2" d="M399.5,-91.3399C399.5,-78.0425 399.5,-59.4274 399.5,-44.4783"/>
<polygon fill="#2e3436" stroke="#2e3436" stroke-width="2" points="399.5,-36.6074 402.875,-44.1074 400,-40.3574 400,-44.1074 399.5,-44.1074 399,-44.1074 399,-40.3574 396.125,-44.1075 399.5,-36.6074 399.5,-36.6074"/>
<text text-anchor="middle" x="421.5" y="-66.6" font-family="FreeSans" font-size="8.00" fill="#2e3436">KNOWS</text>
<text text-anchor="start" x="399.5" y="-57.6" font-family="FreeSans" font-size="8.00" fill="#2e3436">jim = &#39;tobias&#39;</text>
</g>
</g>
</svg>
