<?xml version="1.0" encoding="UTF-8" standalone="no"?>
<!DOCTYPE svg PUBLIC "-//W3C//DTD SVG 1.1//EN"
 "http://www.w3.org/Graphics/SVG/1.1/DTD/svg11.dtd">
<!-- Generated by graphviz version 2.38.0 (20140413.2041)
 -->
<!-- Title: g Pages: 1 -->
<svg width="163pt" height="134pt"
 viewBox="0.00 0.00 163.00 134.00" xmlns="http://www.w3.org/2000/svg" xmlns:xlink="http://www.w3.org/1999/xlink">
<g id="graph0" class="graph" transform="scale(1 1) rotate(0) translate(4 130)">
<title>g</title>
<polygon fill="white" stroke="none" points="-4,4 -4,-130 159,-130 159,4 -4,4"/>
<!-- N10104 -->
<g id="node1" class="node"><title>N10104</title>
<path fill="#ffffff" stroke="#2e3436" stroke-width="1.5" d="M12,-4C12,-4 51,-4 51,-4 57,-4 63,-10 63,-16 63,-16 63,-28 63,-28 63,-34 57,-40 51,-40 51,-40 12,-40 12,-40 6,-40 0,-34 0,-28 0,-28 0,-16 0,-16 0,-10 6,-4 12,-4"/>
<text text-anchor="middle" x="31.5" y="-29.1" font-family="FreeSans" font-size="8.00" fill="#1c2021">Node[10104]</text>
<polyline fill="none" stroke="#2e3436" stroke-width="1.5" points="0,-22 63,-22 "/>
<text text-anchor="start" x="8" y="-11.1" font-family="FreeSans" font-size="8.00" fill="#1c2021">name = &#39;you&#39;</text>
</g>
<!-- N10105 -->
<g id="node2" class="node"><title>N10105</title>
<path fill="#ffffff" stroke="#2e3436" stroke-width="1.5" d="M104,-0.5C104,-0.5 143,-0.5 143,-0.5 149,-0.5 155,-6.5 155,-12.5 155,-12.5 155,-31.5 155,-31.5 155,-37.5 149,-43.5 143,-43.5 143,-43.5 104,-43.5 104,-43.5 98,-43.5 92,-37.5 92,-31.5 92,-31.5 92,-12.5 92,-12.5 92,-6.5 98,-0.5 104,-0.5"/>
<text text-anchor="middle" x="123.5" y="-33.1" font-family="FreeSans" font-size="8.00" fill="#1c2021">Node[10105]</text>
<polyline fill="none" stroke="#2e3436" stroke-width="1.5" points="92,-26.5 155,-26.5 "/>
<text text-anchor="start" x="100" y="-16.1" font-family="FreeSans" font-size="8.00" fill="#1c2021">name = &#39;him&#39;</text>
<text text-anchor="start" x="100" y="-7.1" font-family="FreeSans" font-size="8.00" fill="#1c2021">age = 25</text>
</g>
<!-- N10106 -->
<g id="node3" class="node"><title>N10106</title>
<path fill="#ffffff" stroke="#2e3436" stroke-width="1.5" d="M58,-89.5C58,-89.5 97,-89.5 97,-89.5 103,-89.5 109,-95.5 109,-101.5 109,-101.5 109,-113.5 109,-113.5 109,-119.5 103,-125.5 97,-125.5 97,-125.5 58,-125.5 58,-125.5 52,-125.5 46,-119.5 46,-113.5 46,-113.5 46,-101.5 46,-101.5 46,-95.5 52,-89.5 58,-89.5"/>
<text text-anchor="middle" x="77.5" y="-114.6" font-family="FreeSans" font-size="8.00" fill="#1c2021">Node[10106]</text>
<polyline fill="none" stroke="#2e3436" stroke-width="1.5" points="46,-107.5 109,-107.5 "/>
<text text-anchor="start" x="54" y="-96.6" font-family="FreeSans" font-size="8.00" fill="#1c2021">name = &#39;I&#39;</text>
</g>
<!-- N10106&#45;&gt;N10104 -->
<g id="edge2" class="edge"><title>N10106&#45;&gt;N10104</title>
<path fill="none" stroke="#2e3436" stroke-width="2" d="M67.9688,-89.1987C61.2459,-76.9953 52.1526,-60.4889 44.7281,-47.0118"/>
<polygon fill="#2e3436" stroke="#2e3436" stroke-width="2" points="41.019,-40.2791 47.5941,-45.2197 43.2664,-43.3224 45.0759,-46.607 44.638,-46.8482 44.2,-47.0895 42.3906,-43.8049 41.6819,-48.4768 41.019,-40.2791 41.019,-40.2791"/>
<text text-anchor="middle" x="67.5" y="-64.6" font-family="FreeSans" font-size="8.00" fill="#2e3436">know</text>
</g>
<!-- N10106&#45;&gt;N10105 -->
<g id="edge1" class="edge"><title>N10106&#45;&gt;N10105</title>
<path fill="none" stroke="#2e3436" stroke-width="2" d="M87.0312,-89.1987C93.2039,-77.994 101.375,-63.1617 108.418,-50.3773"/>
<polygon fill="#2e3436" stroke="#2e3436" stroke-width="2" points="112.195,-43.5216 111.532,-51.7193 110.823,-47.0475 109.014,-50.332 108.576,-50.0908 108.138,-49.8495 109.947,-46.5649 105.62,-48.4622 112.195,-43.5216 112.195,-43.5216"/>
<text text-anchor="middle" x="111.5" y="-64.6" font-family="FreeSans" font-size="8.00" fill="#2e3436">know</text>
</g>
</g>
</svg>
