<?xml version="1.0" encoding="UTF-8" standalone="no"?>
<!DOCTYPE svg PUBLIC "-//W3C//DTD SVG 1.1//EN"
 "http://www.w3.org/Graphics/SVG/1.1/DTD/svg11.dtd">
<!-- Generated by graphviz version 2.38.0 (20140413.2041)
 -->
<!-- Title: g Pages: 1 -->
<svg width="504pt" height="87pt"
 viewBox="0.00 0.00 504.00 86.85" xmlns="http://www.w3.org/2000/svg" xmlns:xlink="http://www.w3.org/1999/xlink">
<g id="graph0" class="graph" transform="scale(0.683853 0.683853) rotate(0) translate(4 123)">
<title>g</title>
<polygon fill="white" stroke="none" points="-4,4 -4,-123 733,-123 733,4 -4,4"/>
<!-- N0 -->
<g id="node1" class="node"><title>N0</title>
<path fill="#ffffff" stroke="#2e3436" stroke-width="1.5" d="M12,-82.5C12,-82.5 52,-82.5 52,-82.5 58,-82.5 64,-88.5 64,-94.5 64,-94.5 64,-106.5 64,-106.5 64,-112.5 58,-118.5 52,-118.5 52,-118.5 12,-118.5 12,-118.5 6,-118.5 0,-112.5 0,-106.5 0,-106.5 0,-94.5 0,-94.5 0,-88.5 6,-82.5 12,-82.5"/>
<text text-anchor="middle" x="32" y="-107.6" font-family="FreeSans" font-size="8.00" fill="#1c2021">Node[0]</text>
<polyline fill="none" stroke="#2e3436" stroke-width="1.5" points="0,-100.5 64,-100.5 "/>
<text text-anchor="start" x="8" y="-89.6" font-family="FreeSans" font-size="8.00" fill="#1c2021">foo = [1, 2, 3]</text>
</g>
<!-- N2 -->
<g id="node2" class="node"><title>N2</title>
<path fill="#ffffff" stroke="#2e3436" stroke-width="1.5" d="M105,-82.5C105,-82.5 135,-82.5 135,-82.5 141,-82.5 147,-88.5 147,-94.5 147,-94.5 147,-106.5 147,-106.5 147,-112.5 141,-118.5 135,-118.5 135,-118.5 105,-118.5 105,-118.5 99,-118.5 93,-112.5 93,-106.5 93,-106.5 93,-94.5 93,-94.5 93,-88.5 99,-82.5 105,-82.5"/>
<text text-anchor="middle" x="120" y="-107.6" font-family="FreeSans" font-size="8.00" fill="#1c2021">Node[2]</text>
<polyline fill="none" stroke="#2e3436" stroke-width="1.5" points="93,-100.5 147,-100.5 "/>
<text text-anchor="middle" x="120" y="-89.6" font-family="FreeSans" font-size="8.00" fill="#1c2021"> </text>
</g>
<!-- N3 -->
<g id="node3" class="node"><title>N3</title>
<path fill="#ffffff" stroke="#2e3436" stroke-width="1.5" d="M188,-82.5C188,-82.5 218,-82.5 218,-82.5 224,-82.5 230,-88.5 230,-94.5 230,-94.5 230,-106.5 230,-106.5 230,-112.5 224,-118.5 218,-118.5 218,-118.5 188,-118.5 188,-118.5 182,-118.5 176,-112.5 176,-106.5 176,-106.5 176,-94.5 176,-94.5 176,-88.5 182,-82.5 188,-82.5"/>
<text text-anchor="middle" x="203" y="-107.6" font-family="FreeSans" font-size="8.00" fill="#1c2021">Node[3]</text>
<polyline fill="none" stroke="#2e3436" stroke-width="1.5" points="176,-100.5 230,-100.5 "/>
<text text-anchor="middle" x="203" y="-89.6" font-family="FreeSans" font-size="8.00" fill="#1c2021"> </text>
</g>
<!-- N4 -->
<g id="node4" class="node"><title>N4</title>
<path fill="#ffffff" stroke="#2e3436" stroke-width="1.5" d="M271,-82.5C271,-82.5 301,-82.5 301,-82.5 307,-82.5 313,-88.5 313,-94.5 313,-94.5 313,-106.5 313,-106.5 313,-112.5 307,-118.5 301,-118.5 301,-118.5 271,-118.5 271,-118.5 265,-118.5 259,-112.5 259,-106.5 259,-106.5 259,-94.5 259,-94.5 259,-88.5 265,-82.5 271,-82.5"/>
<text text-anchor="middle" x="286" y="-107.6" font-family="FreeSans" font-size="8.00" fill="#1c2021">Node[4]</text>
<polyline fill="none" stroke="#2e3436" stroke-width="1.5" points="259,-100.5 313,-100.5 "/>
<text text-anchor="start" x="267" y="-89.6" font-family="FreeSans" font-size="8.00" fill="#1c2021">foo = &#39;bar&#39;</text>
</g>
<!-- N7 -->
<g id="node5" class="node"><title>N7</title>
<path fill="#ffffff" stroke="#2e3436" stroke-width="1.5" d="M354,-82.5C354,-82.5 384,-82.5 384,-82.5 390,-82.5 396,-88.5 396,-94.5 396,-94.5 396,-106.5 396,-106.5 396,-112.5 390,-118.5 384,-118.5 384,-118.5 354,-118.5 354,-118.5 348,-118.5 342,-112.5 342,-106.5 342,-106.5 342,-94.5 342,-94.5 342,-88.5 348,-82.5 354,-82.5"/>
<text text-anchor="middle" x="369" y="-107.6" font-family="FreeSans" font-size="8.00" fill="#1c2021">Node[7]</text>
<polyline fill="none" stroke="#2e3436" stroke-width="1.5" points="342,-100.5 396,-100.5 "/>
<text text-anchor="middle" x="369" y="-89.6" font-family="FreeSans" font-size="8.00" fill="#1c2021"> </text>
</g>
<!-- N8 -->
<g id="node6" class="node"><title>N8</title>
<path fill="#ffffff" stroke="#2e3436" stroke-width="1.5" d="M437,-82.5C437,-82.5 467,-82.5 467,-82.5 473,-82.5 479,-88.5 479,-94.5 479,-94.5 479,-106.5 479,-106.5 479,-112.5 473,-118.5 467,-118.5 467,-118.5 437,-118.5 437,-118.5 431,-118.5 425,-112.5 425,-106.5 425,-106.5 425,-94.5 425,-94.5 425,-88.5 431,-82.5 437,-82.5"/>
<text text-anchor="middle" x="452" y="-107.6" font-family="FreeSans" font-size="8.00" fill="#1c2021">Node[8]</text>
<polyline fill="none" stroke="#2e3436" stroke-width="1.5" points="425,-100.5 479,-100.5 "/>
<text text-anchor="middle" x="452" y="-89.6" font-family="FreeSans" font-size="8.00" fill="#1c2021"> </text>
</g>
<!-- N10 -->
<g id="node7" class="node"><title>N10</title>
<path fill="#ffffff" stroke="#2e3436" stroke-width="1.5" d="M520,-82.5C520,-82.5 550,-82.5 550,-82.5 556,-82.5 562,-88.5 562,-94.5 562,-94.5 562,-106.5 562,-106.5 562,-112.5 556,-118.5 550,-118.5 550,-118.5 520,-118.5 520,-118.5 514,-118.5 508,-112.5 508,-106.5 508,-106.5 508,-94.5 508,-94.5 508,-88.5 514,-82.5 520,-82.5"/>
<text text-anchor="middle" x="535" y="-107.6" font-family="FreeSans" font-size="8.00" fill="#1c2021">Node[10]</text>
<polyline fill="none" stroke="#2e3436" stroke-width="1.5" points="508,-100.5 562,-100.5 "/>
<text text-anchor="middle" x="535" y="-89.6" font-family="FreeSans" font-size="8.00" fill="#1c2021"> </text>
</g>
<!-- N11 -->
<g id="node8" class="node"><title>N11</title>
<path fill="#ffffff" stroke="#2e3436" stroke-width="1.5" d="M603,-82.5C603,-82.5 633,-82.5 633,-82.5 639,-82.5 645,-88.5 645,-94.5 645,-94.5 645,-106.5 645,-106.5 645,-112.5 639,-118.5 633,-118.5 633,-118.5 603,-118.5 603,-118.5 597,-118.5 591,-112.5 591,-106.5 591,-106.5 591,-94.5 591,-94.5 591,-88.5 597,-82.5 603,-82.5"/>
<text text-anchor="middle" x="618" y="-107.6" font-family="FreeSans" font-size="8.00" fill="#1c2021">Node[11]</text>
<polyline fill="none" stroke="#2e3436" stroke-width="1.5" points="591,-100.5 645,-100.5 "/>
<text text-anchor="middle" x="618" y="-89.6" font-family="FreeSans" font-size="8.00" fill="#1c2021"> </text>
</g>
<!-- N12 -->
<g id="node9" class="node"><title>N12</title>
<path fill="#ffffff" stroke="#2e3436" stroke-width="1.5" d="M686,-82.5C686,-82.5 716,-82.5 716,-82.5 722,-82.5 728,-88.5 728,-94.5 728,-94.5 728,-106.5 728,-106.5 728,-112.5 722,-118.5 716,-118.5 716,-118.5 686,-118.5 686,-118.5 680,-118.5 674,-112.5 674,-106.5 674,-106.5 674,-94.5 674,-94.5 674,-88.5 680,-82.5 686,-82.5"/>
<text text-anchor="middle" x="701" y="-107.6" font-family="FreeSans" font-size="8.00" fill="#1c2021">Node[12]</text>
<polyline fill="none" stroke="#2e3436" stroke-width="1.5" points="674,-100.5 728,-100.5 "/>
<text text-anchor="middle" x="701" y="-89.6" font-family="FreeSans" font-size="8.00" fill="#1c2021"> </text>
</g>
<!-- N13 -->
<g id="node10" class="node"><title>N13</title>
<path fill="#ffffff" stroke="#2e3436" stroke-width="1.5" d="M686,-0.5C686,-0.5 716,-0.5 716,-0.5 722,-0.5 728,-6.5 728,-12.5 728,-12.5 728,-24.5 728,-24.5 728,-30.5 722,-36.5 716,-36.5 716,-36.5 686,-36.5 686,-36.5 680,-36.5 674,-30.5 674,-24.5 674,-24.5 674,-12.5 674,-12.5 674,-6.5 680,-0.5 686,-0.5"/>
<text text-anchor="middle" x="701" y="-25.6" font-family="FreeSans" font-size="8.00" fill="#1c2021">Node[13]</text>
<polyline fill="none" stroke="#2e3436" stroke-width="1.5" points="674,-18.5 728,-18.5 "/>
<text text-anchor="middle" x="701" y="-7.6" font-family="FreeSans" font-size="8.00" fill="#1c2021"> </text>
</g>
<!-- N12&#45;&gt;N13 -->
<g id="edge1" class="edge"><title>N12&#45;&gt;N13</title>
<path fill="none" stroke="#2e3436" stroke-width="2" d="M701,-82.1412C701,-71.0583 701,-56.5177 701,-44.2358"/>
<polygon fill="#2e3436" stroke="#2e3436" stroke-width="2" points="701,-36.5501 704.375,-44.0501 701.5,-40.3001 701.5,-44.0501 701,-44.0501 700.5,-44.0501 700.5,-40.3001 697.625,-44.0501 701,-36.5501 701,-36.5501"/>
<text text-anchor="middle" x="715" y="-57.6" font-family="FreeSans" font-size="8.00" fill="#2e3436">LOVES</text>
</g>
</g>
</svg>
