<?xml version="1.0" encoding="UTF-8" standalone="no"?>
<!DOCTYPE svg PUBLIC "-//W3C//DTD SVG 1.1//EN"
 "http://www.w3.org/Graphics/SVG/1.1/DTD/svg11.dtd">
<!-- Generated by graphviz version 2.38.0 (20140413.2041)
 -->
<!-- Title: g Pages: 1 -->
<svg width="504pt" height="42pt"
 viewBox="0.00 0.00 504.00 42.34" xmlns="http://www.w3.org/2000/svg" xmlns:xlink="http://www.w3.org/1999/xlink">
<g id="graph0" class="graph" transform="scale(0.202572 0.202572) rotate(0) translate(4 205)">
<title>g</title>
<polygon fill="white" stroke="none" points="-4,4 -4,-205 2484,-205 2484,4 -4,4"/>
<!-- N283 -->
<g id="node1" class="node"><title>N283</title>
<path fill="#ffffff" stroke="#2e3436" stroke-width="1.5" d="M54,-82.5C54,-82.5 84,-82.5 84,-82.5 90,-82.5 96,-88.5 96,-94.5 96,-94.5 96,-106.5 96,-106.5 96,-112.5 90,-118.5 84,-118.5 84,-118.5 54,-118.5 54,-118.5 48,-118.5 42,-112.5 42,-106.5 42,-106.5 42,-94.5 42,-94.5 42,-88.5 48,-82.5 54,-82.5"/>
<text text-anchor="middle" x="69" y="-107.6" font-family="FreeSans" font-size="8.00" fill="#1c2021">Node[283]</text>
<polyline fill="none" stroke="#2e3436" stroke-width="1.5" points="42,-100.5 96,-100.5 "/>
<text text-anchor="middle" x="69" y="-89.6" font-family="FreeSans" font-size="8.00" fill="#1c2021"> </text>
</g>
<!-- N286 -->
<g id="node2" class="node"><title>N286</title>
<path fill="#ffffff" stroke="#2e3436" stroke-width="1.5" d="M12,-0.5C12,-0.5 42,-0.5 42,-0.5 48,-0.5 54,-6.5 54,-12.5 54,-12.5 54,-24.5 54,-24.5 54,-30.5 48,-36.5 42,-36.5 42,-36.5 12,-36.5 12,-36.5 6,-36.5 0,-30.5 0,-24.5 0,-24.5 0,-12.5 0,-12.5 0,-6.5 6,-0.5 12,-0.5"/>
<text text-anchor="middle" x="27" y="-25.6" font-family="FreeSans" font-size="8.00" fill="#1c2021">Node[286]</text>
<polyline fill="none" stroke="#2e3436" stroke-width="1.5" points="0,-18.5 54,-18.5 "/>
<text text-anchor="middle" x="27" y="-7.6" font-family="FreeSans" font-size="8.00" fill="#1c2021"> </text>
</g>
<!-- N283&#45;&gt;N286 -->
<g id="edge1" class="edge"><title>N283&#45;&gt;N286</title>
<path fill="none" stroke="#2e3436" stroke-width="2" d="M59.8866,-82.1412C53.9573,-70.8472 46.1428,-55.9625 39.6192,-43.5365"/>
<polygon fill="#2e3436" stroke="#2e3436" stroke-width="2" points="35.9513,-36.5501 42.4258,-41.6218 38.1372,-39.6379 39.8803,-42.9582 39.4376,-43.1906 38.9949,-43.423 37.2518,-40.1028 36.4494,-44.7594 35.9513,-36.5501 35.9513,-36.5501"/>
<text text-anchor="middle" x="64" y="-57.6" font-family="FreeSans" font-size="8.00" fill="#2e3436">HATES</text>
</g>
<!-- N284 -->
<g id="node3" class="node"><title>N284</title>
<path fill="#ffffff" stroke="#2e3436" stroke-width="1.5" d="M95,-0.5C95,-0.5 125,-0.5 125,-0.5 131,-0.5 137,-6.5 137,-12.5 137,-12.5 137,-24.5 137,-24.5 137,-30.5 131,-36.5 125,-36.5 125,-36.5 95,-36.5 95,-36.5 89,-36.5 83,-30.5 83,-24.5 83,-24.5 83,-12.5 83,-12.5 83,-6.5 89,-0.5 95,-0.5"/>
<text text-anchor="middle" x="110" y="-25.6" font-family="FreeSans" font-size="8.00" fill="#1c2021">Node[284]</text>
<polyline fill="none" stroke="#2e3436" stroke-width="1.5" points="83,-18.5 137,-18.5 "/>
<text text-anchor="middle" x="110" y="-7.6" font-family="FreeSans" font-size="8.00" fill="#1c2021"> </text>
</g>
<!-- N283&#45;&gt;N284 -->
<g id="edge2" class="edge"><title>N283&#45;&gt;N284</title>
<path fill="none" stroke="#4e9a06" stroke-width="2" d="M77.8964,-82.1412C83.6846,-70.8472 91.313,-55.9625 97.6813,-43.5365"/>
<polygon fill="#4e9a06" stroke="#4e9a06" stroke-width="2" points="101.262,-36.5501 100.845,-44.7639 99.9964,-40.1154 98.2861,-43.4527 97.8411,-43.2246 97.3961,-42.9966 99.1065,-39.6593 94.8376,-41.6853 101.262,-36.5501 101.262,-36.5501"/>
<text text-anchor="middle" x="102.5" y="-57.6" font-family="FreeSans" font-size="8.00" fill="#4e9a06">LIKES</text>
</g>
<!-- N285 -->
<g id="node4" class="node"><title>N285</title>
<path fill="#ffffff" stroke="#2e3436" stroke-width="1.5" d="M54,-164.5C54,-164.5 84,-164.5 84,-164.5 90,-164.5 96,-170.5 96,-176.5 96,-176.5 96,-188.5 96,-188.5 96,-194.5 90,-200.5 84,-200.5 84,-200.5 54,-200.5 54,-200.5 48,-200.5 42,-194.5 42,-188.5 42,-188.5 42,-176.5 42,-176.5 42,-170.5 48,-164.5 54,-164.5"/>
<text text-anchor="middle" x="69" y="-189.6" font-family="FreeSans" font-size="8.00" fill="#1c2021">Node[285]</text>
<polyline fill="none" stroke="#2e3436" stroke-width="1.5" points="42,-182.5 96,-182.5 "/>
<text text-anchor="middle" x="69" y="-171.6" font-family="FreeSans" font-size="8.00" fill="#1c2021"> </text>
</g>
<!-- N285&#45;&gt;N283 -->
<g id="edge3" class="edge"><title>N285&#45;&gt;N283</title>
<path fill="none" stroke="#4e9a06" stroke-width="2" d="M69,-164.141C69,-153.058 69,-138.518 69,-126.236"/>
<polygon fill="#4e9a06" stroke="#4e9a06" stroke-width="2" points="69,-118.55 72.3751,-126.05 69.5,-122.3 69.5001,-126.05 69.0001,-126.05 68.5001,-126.05 68.5,-122.3 65.6251,-126.05 69,-118.55 69,-118.55"/>
<text text-anchor="middle" x="80.5" y="-139.6" font-family="FreeSans" font-size="8.00" fill="#4e9a06">LIKES</text>
</g>
<!-- N287 -->
<g id="node5" class="node"><title>N287</title>
<path fill="#ffffff" stroke="#2e3436" stroke-width="1.5" d="M158,-164.5C158,-164.5 188,-164.5 188,-164.5 194,-164.5 200,-170.5 200,-176.5 200,-176.5 200,-188.5 200,-188.5 200,-194.5 194,-200.5 188,-200.5 188,-200.5 158,-200.5 158,-200.5 152,-200.5 146,-194.5 146,-188.5 146,-188.5 146,-176.5 146,-176.5 146,-170.5 152,-164.5 158,-164.5"/>
<text text-anchor="middle" x="173" y="-189.6" font-family="FreeSans" font-size="8.00" fill="#1c2021">Node[287]</text>
<polyline fill="none" stroke="#2e3436" stroke-width="1.5" points="146,-182.5 200,-182.5 "/>
<text text-anchor="middle" x="173" y="-171.6" font-family="FreeSans" font-size="8.00" fill="#1c2021"> </text>
</g>
<!-- N288 -->
<g id="node6" class="node"><title>N288</title>
<path fill="#ffffff" stroke="#2e3436" stroke-width="1.5" d="M261,-82.5C261,-82.5 291,-82.5 291,-82.5 297,-82.5 303,-88.5 303,-94.5 303,-94.5 303,-106.5 303,-106.5 303,-112.5 297,-118.5 291,-118.5 291,-118.5 261,-118.5 261,-118.5 255,-118.5 249,-112.5 249,-106.5 249,-106.5 249,-94.5 249,-94.5 249,-88.5 255,-82.5 261,-82.5"/>
<text text-anchor="middle" x="276" y="-107.6" font-family="FreeSans" font-size="8.00" fill="#1c2021">Node[288]</text>
<polyline fill="none" stroke="#2e3436" stroke-width="1.5" points="249,-100.5 303,-100.5 "/>
<text text-anchor="middle" x="276" y="-89.6" font-family="FreeSans" font-size="8.00" fill="#1c2021"> </text>
</g>
<!-- N291 -->
<g id="node7" class="node"><title>N291</title>
<path fill="#ffffff" stroke="#2e3436" stroke-width="1.5" d="M178,-0.5C178,-0.5 208,-0.5 208,-0.5 214,-0.5 220,-6.5 220,-12.5 220,-12.5 220,-24.5 220,-24.5 220,-30.5 214,-36.5 208,-36.5 208,-36.5 178,-36.5 178,-36.5 172,-36.5 166,-30.5 166,-24.5 166,-24.5 166,-12.5 166,-12.5 166,-6.5 172,-0.5 178,-0.5"/>
<text text-anchor="middle" x="193" y="-25.6" font-family="FreeSans" font-size="8.00" fill="#1c2021">Node[291]</text>
<polyline fill="none" stroke="#2e3436" stroke-width="1.5" points="166,-18.5 220,-18.5 "/>
<text text-anchor="middle" x="193" y="-7.6" font-family="FreeSans" font-size="8.00" fill="#1c2021"> </text>
</g>
<!-- N288&#45;&gt;N291 -->
<g id="edge4" class="edge"><title>N288&#45;&gt;N291</title>
<path fill="none" stroke="#2e3436" stroke-width="2" d="M257.99,-82.1412C245.725,-70.3194 229.378,-54.5635 216.148,-41.8112"/>
<polygon fill="#2e3436" stroke="#2e3436" stroke-width="2" points="210.689,-36.5501 218.432,-39.3249 213.736,-38.7925 216.436,-41.3949 216.089,-41.7549 215.743,-42.1149 213.042,-39.5125 213.747,-44.185 210.689,-36.5501 210.689,-36.5501"/>
<text text-anchor="middle" x="251" y="-57.6" font-family="FreeSans" font-size="8.00" fill="#2e3436">HATES</text>
</g>
<!-- N289 -->
<g id="node8" class="node"><title>N289</title>
<path fill="#ffffff" stroke="#2e3436" stroke-width="1.5" d="M261,-0.5C261,-0.5 291,-0.5 291,-0.5 297,-0.5 303,-6.5 303,-12.5 303,-12.5 303,-24.5 303,-24.5 303,-30.5 297,-36.5 291,-36.5 291,-36.5 261,-36.5 261,-36.5 255,-36.5 249,-30.5 249,-24.5 249,-24.5 249,-12.5 249,-12.5 249,-6.5 255,-0.5 261,-0.5"/>
<text text-anchor="middle" x="276" y="-25.6" font-family="FreeSans" font-size="8.00" fill="#1c2021">Node[289]</text>
<polyline fill="none" stroke="#2e3436" stroke-width="1.5" points="249,-18.5 303,-18.5 "/>
<text text-anchor="middle" x="276" y="-7.6" font-family="FreeSans" font-size="8.00" fill="#1c2021"> </text>
</g>
<!-- N288&#45;&gt;N289 -->
<g id="edge5" class="edge"><title>N288&#45;&gt;N289</title>
<path fill="none" stroke="#4e9a06" stroke-width="2" d="M276,-82.1412C276,-71.0583 276,-56.5177 276,-44.2358"/>
<polygon fill="#4e9a06" stroke="#4e9a06" stroke-width="2" points="276,-36.5501 279.375,-44.0501 276.5,-40.3001 276.5,-44.0501 276,-44.0501 275.5,-44.0501 275.5,-40.3001 272.625,-44.0501 276,-36.5501 276,-36.5501"/>
<text text-anchor="middle" x="287.5" y="-57.6" font-family="FreeSans" font-size="8.00" fill="#4e9a06">LIKES</text>
</g>
<!-- N290 -->
<g id="node9" class="node"><title>N290</title>
<path fill="#ffffff" stroke="#2e3436" stroke-width="1.5" d="M261,-164.5C261,-164.5 291,-164.5 291,-164.5 297,-164.5 303,-170.5 303,-176.5 303,-176.5 303,-188.5 303,-188.5 303,-194.5 297,-200.5 291,-200.5 291,-200.5 261,-200.5 261,-200.5 255,-200.5 249,-194.5 249,-188.5 249,-188.5 249,-176.5 249,-176.5 249,-170.5 255,-164.5 261,-164.5"/>
<text text-anchor="middle" x="276" y="-189.6" font-family="FreeSans" font-size="8.00" fill="#1c2021">Node[290]</text>
<polyline fill="none" stroke="#2e3436" stroke-width="1.5" points="249,-182.5 303,-182.5 "/>
<text text-anchor="middle" x="276" y="-171.6" font-family="FreeSans" font-size="8.00" fill="#1c2021"> </text>
</g>
<!-- N290&#45;&gt;N288 -->
<g id="edge6" class="edge"><title>N290&#45;&gt;N288</title>
<path fill="none" stroke="#4e9a06" stroke-width="2" d="M276,-164.141C276,-153.058 276,-138.518 276,-126.236"/>
<polygon fill="#4e9a06" stroke="#4e9a06" stroke-width="2" points="276,-118.55 279.375,-126.05 276.5,-122.3 276.5,-126.05 276,-126.05 275.5,-126.05 275.5,-122.3 272.625,-126.05 276,-118.55 276,-118.55"/>
<text text-anchor="middle" x="287.5" y="-139.6" font-family="FreeSans" font-size="8.00" fill="#4e9a06">LIKES</text>
</g>
<!-- N292 -->
<g id="node10" class="node"><title>N292</title>
<path fill="#ffffff" stroke="#2e3436" stroke-width="1.5" d="M344,-164.5C344,-164.5 374,-164.5 374,-164.5 380,-164.5 386,-170.5 386,-176.5 386,-176.5 386,-188.5 386,-188.5 386,-194.5 380,-200.5 374,-200.5 374,-200.5 344,-200.5 344,-200.5 338,-200.5 332,-194.5 332,-188.5 332,-188.5 332,-176.5 332,-176.5 332,-170.5 338,-164.5 344,-164.5"/>
<text text-anchor="middle" x="359" y="-189.6" font-family="FreeSans" font-size="8.00" fill="#1c2021">Node[292]</text>
<polyline fill="none" stroke="#2e3436" stroke-width="1.5" points="332,-182.5 386,-182.5 "/>
<text text-anchor="middle" x="359" y="-171.6" font-family="FreeSans" font-size="8.00" fill="#1c2021"> </text>
</g>
<!-- N293 -->
<g id="node11" class="node"><title>N293</title>
<path fill="#ffffff" stroke="#2e3436" stroke-width="1.5" d="M427,-82.5C427,-82.5 457,-82.5 457,-82.5 463,-82.5 469,-88.5 469,-94.5 469,-94.5 469,-106.5 469,-106.5 469,-112.5 463,-118.5 457,-118.5 457,-118.5 427,-118.5 427,-118.5 421,-118.5 415,-112.5 415,-106.5 415,-106.5 415,-94.5 415,-94.5 415,-88.5 421,-82.5 427,-82.5"/>
<text text-anchor="middle" x="442" y="-107.6" font-family="FreeSans" font-size="8.00" fill="#1c2021">Node[293]</text>
<polyline fill="none" stroke="#2e3436" stroke-width="1.5" points="415,-100.5 469,-100.5 "/>
<text text-anchor="middle" x="442" y="-89.6" font-family="FreeSans" font-size="8.00" fill="#1c2021"> </text>
</g>
<!-- N296 -->
<g id="node12" class="node"><title>N296</title>
<path fill="#ffffff" stroke="#2e3436" stroke-width="1.5" d="M344,-0.5C344,-0.5 374,-0.5 374,-0.5 380,-0.5 386,-6.5 386,-12.5 386,-12.5 386,-24.5 386,-24.5 386,-30.5 380,-36.5 374,-36.5 374,-36.5 344,-36.5 344,-36.5 338,-36.5 332,-30.5 332,-24.5 332,-24.5 332,-12.5 332,-12.5 332,-6.5 338,-0.5 344,-0.5"/>
<text text-anchor="middle" x="359" y="-25.6" font-family="FreeSans" font-size="8.00" fill="#1c2021">Node[296]</text>
<polyline fill="none" stroke="#2e3436" stroke-width="1.5" points="332,-18.5 386,-18.5 "/>
<text text-anchor="middle" x="359" y="-7.6" font-family="FreeSans" font-size="8.00" fill="#1c2021"> </text>
</g>
<!-- N293&#45;&gt;N296 -->
<g id="edge7" class="edge"><title>N293&#45;&gt;N296</title>
<path fill="none" stroke="#2e3436" stroke-width="2" d="M423.99,-82.1412C411.725,-70.3194 395.378,-54.5635 382.148,-41.8112"/>
<polygon fill="#2e3436" stroke="#2e3436" stroke-width="2" points="376.689,-36.5501 384.432,-39.3249 379.736,-38.7925 382.436,-41.3949 382.089,-41.7549 381.743,-42.1149 379.042,-39.5125 379.747,-44.185 376.689,-36.5501 376.689,-36.5501"/>
<text text-anchor="middle" x="417" y="-57.6" font-family="FreeSans" font-size="8.00" fill="#2e3436">HATES</text>
</g>
<!-- N294 -->
<g id="node13" class="node"><title>N294</title>
<path fill="#ffffff" stroke="#2e3436" stroke-width="1.5" d="M427,-0.5C427,-0.5 457,-0.5 457,-0.5 463,-0.5 469,-6.5 469,-12.5 469,-12.5 469,-24.5 469,-24.5 469,-30.5 463,-36.5 457,-36.5 457,-36.5 427,-36.5 427,-36.5 421,-36.5 415,-30.5 415,-24.5 415,-24.5 415,-12.5 415,-12.5 415,-6.5 421,-0.5 427,-0.5"/>
<text text-anchor="middle" x="442" y="-25.6" font-family="FreeSans" font-size="8.00" fill="#1c2021">Node[294]</text>
<polyline fill="none" stroke="#2e3436" stroke-width="1.5" points="415,-18.5 469,-18.5 "/>
<text text-anchor="middle" x="442" y="-7.6" font-family="FreeSans" font-size="8.00" fill="#1c2021"> </text>
</g>
<!-- N293&#45;&gt;N294 -->
<g id="edge8" class="edge"><title>N293&#45;&gt;N294</title>
<path fill="none" stroke="#4e9a06" stroke-width="2" d="M442,-82.1412C442,-71.0583 442,-56.5177 442,-44.2358"/>
<polygon fill="#4e9a06" stroke="#4e9a06" stroke-width="2" points="442,-36.5501 445.375,-44.0501 442.5,-40.3001 442.5,-44.0501 442,-44.0501 441.5,-44.0501 441.5,-40.3001 438.625,-44.0501 442,-36.5501 442,-36.5501"/>
<text text-anchor="middle" x="453.5" y="-57.6" font-family="FreeSans" font-size="8.00" fill="#4e9a06">LIKES</text>
</g>
<!-- N295 -->
<g id="node14" class="node"><title>N295</title>
<path fill="#ffffff" stroke="#2e3436" stroke-width="1.5" d="M427,-164.5C427,-164.5 457,-164.5 457,-164.5 463,-164.5 469,-170.5 469,-176.5 469,-176.5 469,-188.5 469,-188.5 469,-194.5 463,-200.5 457,-200.5 457,-200.5 427,-200.5 427,-200.5 421,-200.5 415,-194.5 415,-188.5 415,-188.5 415,-176.5 415,-176.5 415,-170.5 421,-164.5 427,-164.5"/>
<text text-anchor="middle" x="442" y="-189.6" font-family="FreeSans" font-size="8.00" fill="#1c2021">Node[295]</text>
<polyline fill="none" stroke="#2e3436" stroke-width="1.5" points="415,-182.5 469,-182.5 "/>
<text text-anchor="middle" x="442" y="-171.6" font-family="FreeSans" font-size="8.00" fill="#1c2021"> </text>
</g>
<!-- N295&#45;&gt;N293 -->
<g id="edge9" class="edge"><title>N295&#45;&gt;N293</title>
<path fill="none" stroke="#4e9a06" stroke-width="2" d="M442,-164.141C442,-153.058 442,-138.518 442,-126.236"/>
<polygon fill="#4e9a06" stroke="#4e9a06" stroke-width="2" points="442,-118.55 445.375,-126.05 442.5,-122.3 442.5,-126.05 442,-126.05 441.5,-126.05 441.5,-122.3 438.625,-126.05 442,-118.55 442,-118.55"/>
<text text-anchor="middle" x="453.5" y="-139.6" font-family="FreeSans" font-size="8.00" fill="#4e9a06">LIKES</text>
</g>
<!-- N297 -->
<g id="node15" class="node"><title>N297</title>
<path fill="#ffffff" stroke="#2e3436" stroke-width="1.5" d="M510,-164.5C510,-164.5 540,-164.5 540,-164.5 546,-164.5 552,-170.5 552,-176.5 552,-176.5 552,-188.5 552,-188.5 552,-194.5 546,-200.5 540,-200.5 540,-200.5 510,-200.5 510,-200.5 504,-200.5 498,-194.5 498,-188.5 498,-188.5 498,-176.5 498,-176.5 498,-170.5 504,-164.5 510,-164.5"/>
<text text-anchor="middle" x="525" y="-189.6" font-family="FreeSans" font-size="8.00" fill="#1c2021">Node[297]</text>
<polyline fill="none" stroke="#2e3436" stroke-width="1.5" points="498,-182.5 552,-182.5 "/>
<text text-anchor="middle" x="525" y="-171.6" font-family="FreeSans" font-size="8.00" fill="#1c2021"> </text>
</g>
<!-- N298 -->
<g id="node16" class="node"><title>N298</title>
<path fill="#ffffff" stroke="#2e3436" stroke-width="1.5" d="M593,-82.5C593,-82.5 623,-82.5 623,-82.5 629,-82.5 635,-88.5 635,-94.5 635,-94.5 635,-106.5 635,-106.5 635,-112.5 629,-118.5 623,-118.5 623,-118.5 593,-118.5 593,-118.5 587,-118.5 581,-112.5 581,-106.5 581,-106.5 581,-94.5 581,-94.5 581,-88.5 587,-82.5 593,-82.5"/>
<text text-anchor="middle" x="608" y="-107.6" font-family="FreeSans" font-size="8.00" fill="#1c2021">Node[298]</text>
<polyline fill="none" stroke="#2e3436" stroke-width="1.5" points="581,-100.5 635,-100.5 "/>
<text text-anchor="middle" x="608" y="-89.6" font-family="FreeSans" font-size="8.00" fill="#1c2021"> </text>
</g>
<!-- N301 -->
<g id="node17" class="node"><title>N301</title>
<path fill="#ffffff" stroke="#2e3436" stroke-width="1.5" d="M510,-0.5C510,-0.5 540,-0.5 540,-0.5 546,-0.5 552,-6.5 552,-12.5 552,-12.5 552,-24.5 552,-24.5 552,-30.5 546,-36.5 540,-36.5 540,-36.5 510,-36.5 510,-36.5 504,-36.5 498,-30.5 498,-24.5 498,-24.5 498,-12.5 498,-12.5 498,-6.5 504,-0.5 510,-0.5"/>
<text text-anchor="middle" x="525" y="-25.6" font-family="FreeSans" font-size="8.00" fill="#1c2021">Node[301]</text>
<polyline fill="none" stroke="#2e3436" stroke-width="1.5" points="498,-18.5 552,-18.5 "/>
<text text-anchor="middle" x="525" y="-7.6" font-family="FreeSans" font-size="8.00" fill="#1c2021"> </text>
</g>
<!-- N298&#45;&gt;N301 -->
<g id="edge10" class="edge"><title>N298&#45;&gt;N301</title>
<path fill="none" stroke="#2e3436" stroke-width="2" d="M589.99,-82.1412C577.725,-70.3194 561.378,-54.5635 548.148,-41.8112"/>
<polygon fill="#2e3436" stroke="#2e3436" stroke-width="2" points="542.689,-36.5501 550.432,-39.3249 545.736,-38.7925 548.436,-41.3949 548.089,-41.7549 547.743,-42.1149 545.042,-39.5125 545.747,-44.185 542.689,-36.5501 542.689,-36.5501"/>
<text text-anchor="middle" x="583" y="-57.6" font-family="FreeSans" font-size="8.00" fill="#2e3436">HATES</text>
</g>
<!-- N299 -->
<g id="node18" class="node"><title>N299</title>
<path fill="#ffffff" stroke="#2e3436" stroke-width="1.5" d="M593,-0.5C593,-0.5 623,-0.5 623,-0.5 629,-0.5 635,-6.5 635,-12.5 635,-12.5 635,-24.5 635,-24.5 635,-30.5 629,-36.5 623,-36.5 623,-36.5 593,-36.5 593,-36.5 587,-36.5 581,-30.5 581,-24.5 581,-24.5 581,-12.5 581,-12.5 581,-6.5 587,-0.5 593,-0.5"/>
<text text-anchor="middle" x="608" y="-25.6" font-family="FreeSans" font-size="8.00" fill="#1c2021">Node[299]</text>
<polyline fill="none" stroke="#2e3436" stroke-width="1.5" points="581,-18.5 635,-18.5 "/>
<text text-anchor="middle" x="608" y="-7.6" font-family="FreeSans" font-size="8.00" fill="#1c2021"> </text>
</g>
<!-- N298&#45;&gt;N299 -->
<g id="edge11" class="edge"><title>N298&#45;&gt;N299</title>
<path fill="none" stroke="#4e9a06" stroke-width="2" d="M608,-82.1412C608,-71.0583 608,-56.5177 608,-44.2358"/>
<polygon fill="#4e9a06" stroke="#4e9a06" stroke-width="2" points="608,-36.5501 611.375,-44.0501 608.5,-40.3001 608.5,-44.0501 608,-44.0501 607.5,-44.0501 607.5,-40.3001 604.625,-44.0501 608,-36.5501 608,-36.5501"/>
<text text-anchor="middle" x="619.5" y="-57.6" font-family="FreeSans" font-size="8.00" fill="#4e9a06">LIKES</text>
</g>
<!-- N300 -->
<g id="node19" class="node"><title>N300</title>
<path fill="#ffffff" stroke="#2e3436" stroke-width="1.5" d="M593,-164.5C593,-164.5 623,-164.5 623,-164.5 629,-164.5 635,-170.5 635,-176.5 635,-176.5 635,-188.5 635,-188.5 635,-194.5 629,-200.5 623,-200.5 623,-200.5 593,-200.5 593,-200.5 587,-200.5 581,-194.5 581,-188.5 581,-188.5 581,-176.5 581,-176.5 581,-170.5 587,-164.5 593,-164.5"/>
<text text-anchor="middle" x="608" y="-189.6" font-family="FreeSans" font-size="8.00" fill="#1c2021">Node[300]</text>
<polyline fill="none" stroke="#2e3436" stroke-width="1.5" points="581,-182.5 635,-182.5 "/>
<text text-anchor="middle" x="608" y="-171.6" font-family="FreeSans" font-size="8.00" fill="#1c2021"> </text>
</g>
<!-- N300&#45;&gt;N298 -->
<g id="edge12" class="edge"><title>N300&#45;&gt;N298</title>
<path fill="none" stroke="#4e9a06" stroke-width="2" d="M608,-164.141C608,-153.058 608,-138.518 608,-126.236"/>
<polygon fill="#4e9a06" stroke="#4e9a06" stroke-width="2" points="608,-118.55 611.375,-126.05 608.5,-122.3 608.5,-126.05 608,-126.05 607.5,-126.05 607.5,-122.3 604.625,-126.05 608,-118.55 608,-118.55"/>
<text text-anchor="middle" x="619.5" y="-139.6" font-family="FreeSans" font-size="8.00" fill="#4e9a06">LIKES</text>
</g>
<!-- N302 -->
<g id="node20" class="node"><title>N302</title>
<path fill="#ffffff" stroke="#2e3436" stroke-width="1.5" d="M676,-164.5C676,-164.5 706,-164.5 706,-164.5 712,-164.5 718,-170.5 718,-176.5 718,-176.5 718,-188.5 718,-188.5 718,-194.5 712,-200.5 706,-200.5 706,-200.5 676,-200.5 676,-200.5 670,-200.5 664,-194.5 664,-188.5 664,-188.5 664,-176.5 664,-176.5 664,-170.5 670,-164.5 676,-164.5"/>
<text text-anchor="middle" x="691" y="-189.6" font-family="FreeSans" font-size="8.00" fill="#1c2021">Node[302]</text>
<polyline fill="none" stroke="#2e3436" stroke-width="1.5" points="664,-182.5 718,-182.5 "/>
<text text-anchor="middle" x="691" y="-171.6" font-family="FreeSans" font-size="8.00" fill="#1c2021"> </text>
</g>
<!-- N303 -->
<g id="node21" class="node"><title>N303</title>
<path fill="#ffffff" stroke="#2e3436" stroke-width="1.5" d="M759,-82.5C759,-82.5 789,-82.5 789,-82.5 795,-82.5 801,-88.5 801,-94.5 801,-94.5 801,-106.5 801,-106.5 801,-112.5 795,-118.5 789,-118.5 789,-118.5 759,-118.5 759,-118.5 753,-118.5 747,-112.5 747,-106.5 747,-106.5 747,-94.5 747,-94.5 747,-88.5 753,-82.5 759,-82.5"/>
<text text-anchor="middle" x="774" y="-107.6" font-family="FreeSans" font-size="8.00" fill="#1c2021">Node[303]</text>
<polyline fill="none" stroke="#2e3436" stroke-width="1.5" points="747,-100.5 801,-100.5 "/>
<text text-anchor="middle" x="774" y="-89.6" font-family="FreeSans" font-size="8.00" fill="#1c2021"> </text>
</g>
<!-- N306 -->
<g id="node22" class="node"><title>N306</title>
<path fill="#ffffff" stroke="#2e3436" stroke-width="1.5" d="M717,-0.5C717,-0.5 747,-0.5 747,-0.5 753,-0.5 759,-6.5 759,-12.5 759,-12.5 759,-24.5 759,-24.5 759,-30.5 753,-36.5 747,-36.5 747,-36.5 717,-36.5 717,-36.5 711,-36.5 705,-30.5 705,-24.5 705,-24.5 705,-12.5 705,-12.5 705,-6.5 711,-0.5 717,-0.5"/>
<text text-anchor="middle" x="732" y="-25.6" font-family="FreeSans" font-size="8.00" fill="#1c2021">Node[306]</text>
<polyline fill="none" stroke="#2e3436" stroke-width="1.5" points="705,-18.5 759,-18.5 "/>
<text text-anchor="middle" x="732" y="-7.6" font-family="FreeSans" font-size="8.00" fill="#1c2021"> </text>
</g>
<!-- N303&#45;&gt;N306 -->
<g id="edge13" class="edge"><title>N303&#45;&gt;N306</title>
<path fill="none" stroke="#2e3436" stroke-width="2" d="M764.887,-82.1412C758.957,-70.8472 751.143,-55.9625 744.619,-43.5365"/>
<polygon fill="#2e3436" stroke="#2e3436" stroke-width="2" points="740.951,-36.5501 747.426,-41.6218 743.137,-39.6379 744.88,-42.9582 744.438,-43.1906 743.995,-43.423 742.252,-40.1028 741.449,-44.7594 740.951,-36.5501 740.951,-36.5501"/>
<text text-anchor="middle" x="769" y="-57.6" font-family="FreeSans" font-size="8.00" fill="#2e3436">HATES</text>
</g>
<!-- N304 -->
<g id="node23" class="node"><title>N304</title>
<path fill="#ffffff" stroke="#2e3436" stroke-width="1.5" d="M800,-0.5C800,-0.5 830,-0.5 830,-0.5 836,-0.5 842,-6.5 842,-12.5 842,-12.5 842,-24.5 842,-24.5 842,-30.5 836,-36.5 830,-36.5 830,-36.5 800,-36.5 800,-36.5 794,-36.5 788,-30.5 788,-24.5 788,-24.5 788,-12.5 788,-12.5 788,-6.5 794,-0.5 800,-0.5"/>
<text text-anchor="middle" x="815" y="-25.6" font-family="FreeSans" font-size="8.00" fill="#1c2021">Node[304]</text>
<polyline fill="none" stroke="#2e3436" stroke-width="1.5" points="788,-18.5 842,-18.5 "/>
<text text-anchor="middle" x="815" y="-7.6" font-family="FreeSans" font-size="8.00" fill="#1c2021"> </text>
</g>
<!-- N303&#45;&gt;N304 -->
<g id="edge14" class="edge"><title>N303&#45;&gt;N304</title>
<path fill="none" stroke="#4e9a06" stroke-width="2" d="M782.896,-82.1412C788.685,-70.8472 796.313,-55.9625 802.681,-43.5365"/>
<polygon fill="#4e9a06" stroke="#4e9a06" stroke-width="2" points="806.262,-36.5501 805.845,-44.7639 804.996,-40.1154 803.286,-43.4527 802.841,-43.2246 802.396,-42.9966 804.106,-39.6593 799.838,-41.6853 806.262,-36.5501 806.262,-36.5501"/>
<text text-anchor="middle" x="807.5" y="-57.6" font-family="FreeSans" font-size="8.00" fill="#4e9a06">LIKES</text>
</g>
<!-- N305 -->
<g id="node24" class="node"><title>N305</title>
<path fill="#ffffff" stroke="#2e3436" stroke-width="1.5" d="M759,-164.5C759,-164.5 789,-164.5 789,-164.5 795,-164.5 801,-170.5 801,-176.5 801,-176.5 801,-188.5 801,-188.5 801,-194.5 795,-200.5 789,-200.5 789,-200.5 759,-200.5 759,-200.5 753,-200.5 747,-194.5 747,-188.5 747,-188.5 747,-176.5 747,-176.5 747,-170.5 753,-164.5 759,-164.5"/>
<text text-anchor="middle" x="774" y="-189.6" font-family="FreeSans" font-size="8.00" fill="#1c2021">Node[305]</text>
<polyline fill="none" stroke="#2e3436" stroke-width="1.5" points="747,-182.5 801,-182.5 "/>
<text text-anchor="middle" x="774" y="-171.6" font-family="FreeSans" font-size="8.00" fill="#1c2021"> </text>
</g>
<!-- N305&#45;&gt;N303 -->
<g id="edge15" class="edge"><title>N305&#45;&gt;N303</title>
<path fill="none" stroke="#4e9a06" stroke-width="2" d="M774,-164.141C774,-153.058 774,-138.518 774,-126.236"/>
<polygon fill="#4e9a06" stroke="#4e9a06" stroke-width="2" points="774,-118.55 777.375,-126.05 774.5,-122.3 774.5,-126.05 774,-126.05 773.5,-126.05 773.5,-122.3 770.625,-126.05 774,-118.55 774,-118.55"/>
<text text-anchor="middle" x="785.5" y="-139.6" font-family="FreeSans" font-size="8.00" fill="#4e9a06">LIKES</text>
</g>
<!-- N307 -->
<g id="node25" class="node"><title>N307</title>
<path fill="#ffffff" stroke="#2e3436" stroke-width="1.5" d="M853,-164.5C853,-164.5 883,-164.5 883,-164.5 889,-164.5 895,-170.5 895,-176.5 895,-176.5 895,-188.5 895,-188.5 895,-194.5 889,-200.5 883,-200.5 883,-200.5 853,-200.5 853,-200.5 847,-200.5 841,-194.5 841,-188.5 841,-188.5 841,-176.5 841,-176.5 841,-170.5 847,-164.5 853,-164.5"/>
<text text-anchor="middle" x="868" y="-189.6" font-family="FreeSans" font-size="8.00" fill="#1c2021">Node[307]</text>
<polyline fill="none" stroke="#2e3436" stroke-width="1.5" points="841,-182.5 895,-182.5 "/>
<text text-anchor="middle" x="868" y="-171.6" font-family="FreeSans" font-size="8.00" fill="#1c2021"> </text>
</g>
<!-- N308 -->
<g id="node26" class="node"><title>N308</title>
<path fill="#ffffff" stroke="#2e3436" stroke-width="1.5" d="M946,-82.5C946,-82.5 976,-82.5 976,-82.5 982,-82.5 988,-88.5 988,-94.5 988,-94.5 988,-106.5 988,-106.5 988,-112.5 982,-118.5 976,-118.5 976,-118.5 946,-118.5 946,-118.5 940,-118.5 934,-112.5 934,-106.5 934,-106.5 934,-94.5 934,-94.5 934,-88.5 940,-82.5 946,-82.5"/>
<text text-anchor="middle" x="961" y="-107.6" font-family="FreeSans" font-size="8.00" fill="#1c2021">Node[308]</text>
<polyline fill="none" stroke="#2e3436" stroke-width="1.5" points="934,-100.5 988,-100.5 "/>
<text text-anchor="middle" x="961" y="-89.6" font-family="FreeSans" font-size="8.00" fill="#1c2021"> </text>
</g>
<!-- N311 -->
<g id="node27" class="node"><title>N311</title>
<path fill="#ffffff" stroke="#2e3436" stroke-width="1.5" d="M883,-0.5C883,-0.5 913,-0.5 913,-0.5 919,-0.5 925,-6.5 925,-12.5 925,-12.5 925,-24.5 925,-24.5 925,-30.5 919,-36.5 913,-36.5 913,-36.5 883,-36.5 883,-36.5 877,-36.5 871,-30.5 871,-24.5 871,-24.5 871,-12.5 871,-12.5 871,-6.5 877,-0.5 883,-0.5"/>
<text text-anchor="middle" x="898" y="-25.6" font-family="FreeSans" font-size="8.00" fill="#1c2021">Node[311]</text>
<polyline fill="none" stroke="#2e3436" stroke-width="1.5" points="871,-18.5 925,-18.5 "/>
<text text-anchor="middle" x="898" y="-7.6" font-family="FreeSans" font-size="8.00" fill="#1c2021"> </text>
</g>
<!-- N308&#45;&gt;N311 -->
<g id="edge16" class="edge"><title>N308&#45;&gt;N311</title>
<path fill="none" stroke="#2e3436" stroke-width="2" d="M947.33,-82.1412C938.187,-70.5305 926.055,-55.125 916.11,-42.4972"/>
<polygon fill="#2e3436" stroke="#2e3436" stroke-width="2" points="911.427,-36.5501 918.719,-40.3543 914.14,-39.1869 916.46,-42.133 916.067,-42.4424 915.674,-42.7517 913.354,-39.8056 913.416,-44.5305 911.427,-36.5501 911.427,-36.5501"/>
<text text-anchor="middle" x="946" y="-57.6" font-family="FreeSans" font-size="8.00" fill="#2e3436">HATES</text>
</g>
<!-- N309 -->
<g id="node28" class="node"><title>N309</title>
<path fill="#ffffff" stroke="#2e3436" stroke-width="1.5" d="M966,-0.5C966,-0.5 996,-0.5 996,-0.5 1002,-0.5 1008,-6.5 1008,-12.5 1008,-12.5 1008,-24.5 1008,-24.5 1008,-30.5 1002,-36.5 996,-36.5 996,-36.5 966,-36.5 966,-36.5 960,-36.5 954,-30.5 954,-24.5 954,-24.5 954,-12.5 954,-12.5 954,-6.5 960,-0.5 966,-0.5"/>
<text text-anchor="middle" x="981" y="-25.6" font-family="FreeSans" font-size="8.00" fill="#1c2021">Node[309]</text>
<polyline fill="none" stroke="#2e3436" stroke-width="1.5" points="954,-18.5 1008,-18.5 "/>
<text text-anchor="middle" x="981" y="-7.6" font-family="FreeSans" font-size="8.00" fill="#1c2021"> </text>
</g>
<!-- N308&#45;&gt;N309 -->
<g id="edge17" class="edge"><title>N308&#45;&gt;N309</title>
<path fill="none" stroke="#4e9a06" stroke-width="2" d="M965.34,-82.1412C968.137,-70.9527 971.815,-56.2404 974.904,-43.8855"/>
<polygon fill="#4e9a06" stroke="#4e9a06" stroke-width="2" points="976.737,-36.5501 978.193,-44.6448 976.313,-40.3094 975.403,-43.9474 974.918,-43.8262 974.433,-43.7049 975.343,-40.0669 971.644,-43.0076 976.737,-36.5501 976.737,-36.5501"/>
<text text-anchor="middle" x="983.5" y="-57.6" font-family="FreeSans" font-size="8.00" fill="#4e9a06">LIKES</text>
</g>
<!-- N310 -->
<g id="node29" class="node"><title>N310</title>
<path fill="#ffffff" stroke="#2e3436" stroke-width="1.5" d="M946,-164.5C946,-164.5 976,-164.5 976,-164.5 982,-164.5 988,-170.5 988,-176.5 988,-176.5 988,-188.5 988,-188.5 988,-194.5 982,-200.5 976,-200.5 976,-200.5 946,-200.5 946,-200.5 940,-200.5 934,-194.5 934,-188.5 934,-188.5 934,-176.5 934,-176.5 934,-170.5 940,-164.5 946,-164.5"/>
<text text-anchor="middle" x="961" y="-189.6" font-family="FreeSans" font-size="8.00" fill="#1c2021">Node[310]</text>
<polyline fill="none" stroke="#2e3436" stroke-width="1.5" points="934,-182.5 988,-182.5 "/>
<text text-anchor="middle" x="961" y="-171.6" font-family="FreeSans" font-size="8.00" fill="#1c2021"> </text>
</g>
<!-- N310&#45;&gt;N308 -->
<g id="edge18" class="edge"><title>N310&#45;&gt;N308</title>
<path fill="none" stroke="#4e9a06" stroke-width="2" d="M961,-164.141C961,-153.058 961,-138.518 961,-126.236"/>
<polygon fill="#4e9a06" stroke="#4e9a06" stroke-width="2" points="961,-118.55 964.375,-126.05 961.5,-122.3 961.5,-126.05 961,-126.05 960.5,-126.05 960.5,-122.3 957.625,-126.05 961,-118.55 961,-118.55"/>
<text text-anchor="middle" x="972.5" y="-139.6" font-family="FreeSans" font-size="8.00" fill="#4e9a06">LIKES</text>
</g>
<!-- N312 -->
<g id="node30" class="node"><title>N312</title>
<path fill="#ffffff" stroke="#2e3436" stroke-width="1.5" d="M1039,-164.5C1039,-164.5 1069,-164.5 1069,-164.5 1075,-164.5 1081,-170.5 1081,-176.5 1081,-176.5 1081,-188.5 1081,-188.5 1081,-194.5 1075,-200.5 1069,-200.5 1069,-200.5 1039,-200.5 1039,-200.5 1033,-200.5 1027,-194.5 1027,-188.5 1027,-188.5 1027,-176.5 1027,-176.5 1027,-170.5 1033,-164.5 1039,-164.5"/>
<text text-anchor="middle" x="1054" y="-189.6" font-family="FreeSans" font-size="8.00" fill="#1c2021">Node[312]</text>
<polyline fill="none" stroke="#2e3436" stroke-width="1.5" points="1027,-182.5 1081,-182.5 "/>
<text text-anchor="middle" x="1054" y="-171.6" font-family="FreeSans" font-size="8.00" fill="#1c2021"> </text>
</g>
<!-- N313 -->
<g id="node31" class="node"><title>N313</title>
<path fill="#ffffff" stroke="#2e3436" stroke-width="1.5" d="M1122,-82.5C1122,-82.5 1152,-82.5 1152,-82.5 1158,-82.5 1164,-88.5 1164,-94.5 1164,-94.5 1164,-106.5 1164,-106.5 1164,-112.5 1158,-118.5 1152,-118.5 1152,-118.5 1122,-118.5 1122,-118.5 1116,-118.5 1110,-112.5 1110,-106.5 1110,-106.5 1110,-94.5 1110,-94.5 1110,-88.5 1116,-82.5 1122,-82.5"/>
<text text-anchor="middle" x="1137" y="-107.6" font-family="FreeSans" font-size="8.00" fill="#1c2021">Node[313]</text>
<polyline fill="none" stroke="#2e3436" stroke-width="1.5" points="1110,-100.5 1164,-100.5 "/>
<text text-anchor="middle" x="1137" y="-89.6" font-family="FreeSans" font-size="8.00" fill="#1c2021"> </text>
</g>
<!-- N316 -->
<g id="node32" class="node"><title>N316</title>
<path fill="#ffffff" stroke="#2e3436" stroke-width="1.5" d="M1049,-0.5C1049,-0.5 1079,-0.5 1079,-0.5 1085,-0.5 1091,-6.5 1091,-12.5 1091,-12.5 1091,-24.5 1091,-24.5 1091,-30.5 1085,-36.5 1079,-36.5 1079,-36.5 1049,-36.5 1049,-36.5 1043,-36.5 1037,-30.5 1037,-24.5 1037,-24.5 1037,-12.5 1037,-12.5 1037,-6.5 1043,-0.5 1049,-0.5"/>
<text text-anchor="middle" x="1064" y="-25.6" font-family="FreeSans" font-size="8.00" fill="#1c2021">Node[316]</text>
<polyline fill="none" stroke="#2e3436" stroke-width="1.5" points="1037,-18.5 1091,-18.5 "/>
<text text-anchor="middle" x="1064" y="-7.6" font-family="FreeSans" font-size="8.00" fill="#1c2021"> </text>
</g>
<!-- N313&#45;&gt;N316 -->
<g id="edge19" class="edge"><title>N313&#45;&gt;N316</title>
<path fill="none" stroke="#2e3436" stroke-width="2" d="M1121.16,-82.1412C1110.47,-70.425 1096.25,-54.8446 1084.67,-42.1535"/>
<polygon fill="#2e3436" stroke="#2e3436" stroke-width="2" points="1079.56,-36.5501 1087.11,-39.8153 1082.46,-38.9832 1084.98,-41.7532 1084.61,-42.0903 1084.24,-42.4273 1081.72,-39.6572 1082.12,-44.3652 1079.56,-36.5501 1079.56,-36.5501"/>
<text text-anchor="middle" x="1117" y="-57.6" font-family="FreeSans" font-size="8.00" fill="#2e3436">HATES</text>
</g>
<!-- N314 -->
<g id="node33" class="node"><title>N314</title>
<path fill="#ffffff" stroke="#2e3436" stroke-width="1.5" d="M1132,-0.5C1132,-0.5 1162,-0.5 1162,-0.5 1168,-0.5 1174,-6.5 1174,-12.5 1174,-12.5 1174,-24.5 1174,-24.5 1174,-30.5 1168,-36.5 1162,-36.5 1162,-36.5 1132,-36.5 1132,-36.5 1126,-36.5 1120,-30.5 1120,-24.5 1120,-24.5 1120,-12.5 1120,-12.5 1120,-6.5 1126,-0.5 1132,-0.5"/>
<text text-anchor="middle" x="1147" y="-25.6" font-family="FreeSans" font-size="8.00" fill="#1c2021">Node[314]</text>
<polyline fill="none" stroke="#2e3436" stroke-width="1.5" points="1120,-18.5 1174,-18.5 "/>
<text text-anchor="middle" x="1147" y="-7.6" font-family="FreeSans" font-size="8.00" fill="#1c2021"> </text>
</g>
<!-- N313&#45;&gt;N314 -->
<g id="edge20" class="edge"><title>N313&#45;&gt;N314</title>
<path fill="none" stroke="#4e9a06" stroke-width="2" d="M1139.17,-82.1412C1140.56,-71.0583 1142.37,-56.5177 1143.91,-44.2358"/>
<polygon fill="#4e9a06" stroke="#4e9a06" stroke-width="2" points="1144.87,-36.5501 1147.29,-44.4108 1144.9,-40.3332 1144.43,-44.0542 1143.94,-43.9922 1143.44,-43.9302 1143.91,-40.2091 1140.59,-43.5735 1144.87,-36.5501 1144.87,-36.5501"/>
<text text-anchor="middle" x="1154.5" y="-57.6" font-family="FreeSans" font-size="8.00" fill="#4e9a06">LIKES</text>
</g>
<!-- N315 -->
<g id="node34" class="node"><title>N315</title>
<path fill="#ffffff" stroke="#2e3436" stroke-width="1.5" d="M1122,-164.5C1122,-164.5 1152,-164.5 1152,-164.5 1158,-164.5 1164,-170.5 1164,-176.5 1164,-176.5 1164,-188.5 1164,-188.5 1164,-194.5 1158,-200.5 1152,-200.5 1152,-200.5 1122,-200.5 1122,-200.5 1116,-200.5 1110,-194.5 1110,-188.5 1110,-188.5 1110,-176.5 1110,-176.5 1110,-170.5 1116,-164.5 1122,-164.5"/>
<text text-anchor="middle" x="1137" y="-189.6" font-family="FreeSans" font-size="8.00" fill="#1c2021">Node[315]</text>
<polyline fill="none" stroke="#2e3436" stroke-width="1.5" points="1110,-182.5 1164,-182.5 "/>
<text text-anchor="middle" x="1137" y="-171.6" font-family="FreeSans" font-size="8.00" fill="#1c2021"> </text>
</g>
<!-- N315&#45;&gt;N313 -->
<g id="edge21" class="edge"><title>N315&#45;&gt;N313</title>
<path fill="none" stroke="#4e9a06" stroke-width="2" d="M1137,-164.141C1137,-153.058 1137,-138.518 1137,-126.236"/>
<polygon fill="#4e9a06" stroke="#4e9a06" stroke-width="2" points="1137,-118.55 1140.38,-126.05 1137.5,-122.3 1137.5,-126.05 1137,-126.05 1136.5,-126.05 1136.5,-122.3 1133.63,-126.05 1137,-118.55 1137,-118.55"/>
<text text-anchor="middle" x="1148.5" y="-139.6" font-family="FreeSans" font-size="8.00" fill="#4e9a06">LIKES</text>
</g>
<!-- N317 -->
<g id="node35" class="node"><title>N317</title>
<path fill="#ffffff" stroke="#2e3436" stroke-width="1.5" d="M1210,-164.5C1210,-164.5 1240,-164.5 1240,-164.5 1246,-164.5 1252,-170.5 1252,-176.5 1252,-176.5 1252,-188.5 1252,-188.5 1252,-194.5 1246,-200.5 1240,-200.5 1240,-200.5 1210,-200.5 1210,-200.5 1204,-200.5 1198,-194.5 1198,-188.5 1198,-188.5 1198,-176.5 1198,-176.5 1198,-170.5 1204,-164.5 1210,-164.5"/>
<text text-anchor="middle" x="1225" y="-189.6" font-family="FreeSans" font-size="8.00" fill="#1c2021">Node[317]</text>
<polyline fill="none" stroke="#2e3436" stroke-width="1.5" points="1198,-182.5 1252,-182.5 "/>
<text text-anchor="middle" x="1225" y="-171.6" font-family="FreeSans" font-size="8.00" fill="#1c2021"> </text>
</g>
<!-- N318 -->
<g id="node36" class="node"><title>N318</title>
<path fill="#ffffff" stroke="#2e3436" stroke-width="1.5" d="M1298,-82.5C1298,-82.5 1328,-82.5 1328,-82.5 1334,-82.5 1340,-88.5 1340,-94.5 1340,-94.5 1340,-106.5 1340,-106.5 1340,-112.5 1334,-118.5 1328,-118.5 1328,-118.5 1298,-118.5 1298,-118.5 1292,-118.5 1286,-112.5 1286,-106.5 1286,-106.5 1286,-94.5 1286,-94.5 1286,-88.5 1292,-82.5 1298,-82.5"/>
<text text-anchor="middle" x="1313" y="-107.6" font-family="FreeSans" font-size="8.00" fill="#1c2021">Node[318]</text>
<polyline fill="none" stroke="#2e3436" stroke-width="1.5" points="1286,-100.5 1340,-100.5 "/>
<text text-anchor="middle" x="1313" y="-89.6" font-family="FreeSans" font-size="8.00" fill="#1c2021"> </text>
</g>
<!-- N321 -->
<g id="node37" class="node"><title>N321</title>
<path fill="#ffffff" stroke="#2e3436" stroke-width="1.5" d="M1215,-0.5C1215,-0.5 1245,-0.5 1245,-0.5 1251,-0.5 1257,-6.5 1257,-12.5 1257,-12.5 1257,-24.5 1257,-24.5 1257,-30.5 1251,-36.5 1245,-36.5 1245,-36.5 1215,-36.5 1215,-36.5 1209,-36.5 1203,-30.5 1203,-24.5 1203,-24.5 1203,-12.5 1203,-12.5 1203,-6.5 1209,-0.5 1215,-0.5"/>
<text text-anchor="middle" x="1230" y="-25.6" font-family="FreeSans" font-size="8.00" fill="#1c2021">Node[321]</text>
<polyline fill="none" stroke="#2e3436" stroke-width="1.5" points="1203,-18.5 1257,-18.5 "/>
<text text-anchor="middle" x="1230" y="-7.6" font-family="FreeSans" font-size="8.00" fill="#1c2021"> </text>
</g>
<!-- N318&#45;&gt;N321 -->
<g id="edge22" class="edge"><title>N318&#45;&gt;N321</title>
<path fill="none" stroke="#2e3436" stroke-width="2" d="M1294.99,-82.1412C1282.73,-70.3194 1266.38,-54.5635 1253.15,-41.8112"/>
<polygon fill="#2e3436" stroke="#2e3436" stroke-width="2" points="1247.69,-36.5501 1255.43,-39.3249 1250.74,-38.7925 1253.44,-41.3949 1253.09,-41.7549 1252.74,-42.1149 1250.04,-39.5125 1250.75,-44.185 1247.69,-36.5501 1247.69,-36.5501"/>
<text text-anchor="middle" x="1288" y="-57.6" font-family="FreeSans" font-size="8.00" fill="#2e3436">HATES</text>
</g>
<!-- N319 -->
<g id="node38" class="node"><title>N319</title>
<path fill="#ffffff" stroke="#2e3436" stroke-width="1.5" d="M1298,-0.5C1298,-0.5 1328,-0.5 1328,-0.5 1334,-0.5 1340,-6.5 1340,-12.5 1340,-12.5 1340,-24.5 1340,-24.5 1340,-30.5 1334,-36.5 1328,-36.5 1328,-36.5 1298,-36.5 1298,-36.5 1292,-36.5 1286,-30.5 1286,-24.5 1286,-24.5 1286,-12.5 1286,-12.5 1286,-6.5 1292,-0.5 1298,-0.5"/>
<text text-anchor="middle" x="1313" y="-25.6" font-family="FreeSans" font-size="8.00" fill="#1c2021">Node[319]</text>
<polyline fill="none" stroke="#2e3436" stroke-width="1.5" points="1286,-18.5 1340,-18.5 "/>
<text text-anchor="middle" x="1313" y="-7.6" font-family="FreeSans" font-size="8.00" fill="#1c2021"> </text>
</g>
<!-- N318&#45;&gt;N319 -->
<g id="edge23" class="edge"><title>N318&#45;&gt;N319</title>
<path fill="none" stroke="#4e9a06" stroke-width="2" d="M1313,-82.1412C1313,-71.0583 1313,-56.5177 1313,-44.2358"/>
<polygon fill="#4e9a06" stroke="#4e9a06" stroke-width="2" points="1313,-36.5501 1316.38,-44.0501 1313.5,-40.3001 1313.5,-44.0501 1313,-44.0501 1312.5,-44.0501 1312.5,-40.3001 1309.63,-44.0501 1313,-36.5501 1313,-36.5501"/>
<text text-anchor="middle" x="1324.5" y="-57.6" font-family="FreeSans" font-size="8.00" fill="#4e9a06">LIKES</text>
</g>
<!-- N320 -->
<g id="node39" class="node"><title>N320</title>
<path fill="#ffffff" stroke="#2e3436" stroke-width="1.5" d="M1298,-164.5C1298,-164.5 1328,-164.5 1328,-164.5 1334,-164.5 1340,-170.5 1340,-176.5 1340,-176.5 1340,-188.5 1340,-188.5 1340,-194.5 1334,-200.5 1328,-200.5 1328,-200.5 1298,-200.5 1298,-200.5 1292,-200.5 1286,-194.5 1286,-188.5 1286,-188.5 1286,-176.5 1286,-176.5 1286,-170.5 1292,-164.5 1298,-164.5"/>
<text text-anchor="middle" x="1313" y="-189.6" font-family="FreeSans" font-size="8.00" fill="#1c2021">Node[320]</text>
<polyline fill="none" stroke="#2e3436" stroke-width="1.5" points="1286,-182.5 1340,-182.5 "/>
<text text-anchor="middle" x="1313" y="-171.6" font-family="FreeSans" font-size="8.00" fill="#1c2021"> </text>
</g>
<!-- N320&#45;&gt;N318 -->
<g id="edge24" class="edge"><title>N320&#45;&gt;N318</title>
<path fill="none" stroke="#4e9a06" stroke-width="2" d="M1313,-164.141C1313,-153.058 1313,-138.518 1313,-126.236"/>
<polygon fill="#4e9a06" stroke="#4e9a06" stroke-width="2" points="1313,-118.55 1316.38,-126.05 1313.5,-122.3 1313.5,-126.05 1313,-126.05 1312.5,-126.05 1312.5,-122.3 1309.63,-126.05 1313,-118.55 1313,-118.55"/>
<text text-anchor="middle" x="1324.5" y="-139.6" font-family="FreeSans" font-size="8.00" fill="#4e9a06">LIKES</text>
</g>
<!-- N322 -->
<g id="node40" class="node"><title>N322</title>
<path fill="#ffffff" stroke="#2e3436" stroke-width="1.5" d="M1381,-164.5C1381,-164.5 1411,-164.5 1411,-164.5 1417,-164.5 1423,-170.5 1423,-176.5 1423,-176.5 1423,-188.5 1423,-188.5 1423,-194.5 1417,-200.5 1411,-200.5 1411,-200.5 1381,-200.5 1381,-200.5 1375,-200.5 1369,-194.5 1369,-188.5 1369,-188.5 1369,-176.5 1369,-176.5 1369,-170.5 1375,-164.5 1381,-164.5"/>
<text text-anchor="middle" x="1396" y="-189.6" font-family="FreeSans" font-size="8.00" fill="#1c2021">Node[322]</text>
<polyline fill="none" stroke="#2e3436" stroke-width="1.5" points="1369,-182.5 1423,-182.5 "/>
<text text-anchor="middle" x="1396" y="-171.6" font-family="FreeSans" font-size="8.00" fill="#1c2021"> </text>
</g>
<!-- N323 -->
<g id="node41" class="node"><title>N323</title>
<path fill="#ffffff" stroke="#2e3436" stroke-width="1.5" d="M1464,-82.5C1464,-82.5 1494,-82.5 1494,-82.5 1500,-82.5 1506,-88.5 1506,-94.5 1506,-94.5 1506,-106.5 1506,-106.5 1506,-112.5 1500,-118.5 1494,-118.5 1494,-118.5 1464,-118.5 1464,-118.5 1458,-118.5 1452,-112.5 1452,-106.5 1452,-106.5 1452,-94.5 1452,-94.5 1452,-88.5 1458,-82.5 1464,-82.5"/>
<text text-anchor="middle" x="1479" y="-107.6" font-family="FreeSans" font-size="8.00" fill="#1c2021">Node[323]</text>
<polyline fill="none" stroke="#2e3436" stroke-width="1.5" points="1452,-100.5 1506,-100.5 "/>
<text text-anchor="middle" x="1479" y="-89.6" font-family="FreeSans" font-size="8.00" fill="#1c2021"> </text>
</g>
<!-- N326 -->
<g id="node42" class="node"><title>N326</title>
<path fill="#ffffff" stroke="#2e3436" stroke-width="1.5" d="M1454,-0.5C1454,-0.5 1484,-0.5 1484,-0.5 1490,-0.5 1496,-6.5 1496,-12.5 1496,-12.5 1496,-24.5 1496,-24.5 1496,-30.5 1490,-36.5 1484,-36.5 1484,-36.5 1454,-36.5 1454,-36.5 1448,-36.5 1442,-30.5 1442,-24.5 1442,-24.5 1442,-12.5 1442,-12.5 1442,-6.5 1448,-0.5 1454,-0.5"/>
<text text-anchor="middle" x="1469" y="-25.6" font-family="FreeSans" font-size="8.00" fill="#1c2021">Node[326]</text>
<polyline fill="none" stroke="#2e3436" stroke-width="1.5" points="1442,-18.5 1496,-18.5 "/>
<text text-anchor="middle" x="1469" y="-7.6" font-family="FreeSans" font-size="8.00" fill="#1c2021"> </text>
</g>
<!-- N323&#45;&gt;N326 -->
<g id="edge25" class="edge"><title>N323&#45;&gt;N326</title>
<path fill="none" stroke="#2e3436" stroke-width="2" d="M1476.83,-82.1412C1475.44,-71.0583 1473.63,-56.5177 1472.09,-44.2358"/>
<polygon fill="#2e3436" stroke="#2e3436" stroke-width="2" points="1471.13,-36.5501 1475.41,-43.5735 1472.09,-40.2091 1472.56,-43.9302 1472.06,-43.9922 1471.57,-44.0542 1471.1,-40.3332 1468.71,-44.4108 1471.13,-36.5501 1471.13,-36.5501"/>
<text text-anchor="middle" x="1489" y="-57.6" font-family="FreeSans" font-size="8.00" fill="#2e3436">HATES</text>
</g>
<!-- N324 -->
<g id="node43" class="node"><title>N324</title>
<path fill="#ffffff" stroke="#2e3436" stroke-width="1.5" d="M1537,-0.5C1537,-0.5 1567,-0.5 1567,-0.5 1573,-0.5 1579,-6.5 1579,-12.5 1579,-12.5 1579,-24.5 1579,-24.5 1579,-30.5 1573,-36.5 1567,-36.5 1567,-36.5 1537,-36.5 1537,-36.5 1531,-36.5 1525,-30.5 1525,-24.5 1525,-24.5 1525,-12.5 1525,-12.5 1525,-6.5 1531,-0.5 1537,-0.5"/>
<text text-anchor="middle" x="1552" y="-25.6" font-family="FreeSans" font-size="8.00" fill="#1c2021">Node[324]</text>
<polyline fill="none" stroke="#2e3436" stroke-width="1.5" points="1525,-18.5 1579,-18.5 "/>
<text text-anchor="middle" x="1552" y="-7.6" font-family="FreeSans" font-size="8.00" fill="#1c2021"> </text>
</g>
<!-- N323&#45;&gt;N324 -->
<g id="edge26" class="edge"><title>N323&#45;&gt;N324</title>
<path fill="none" stroke="#4e9a06" stroke-width="2" d="M1494.84,-82.1412C1505.53,-70.425 1519.75,-54.8446 1531.33,-42.1535"/>
<polygon fill="#4e9a06" stroke="#4e9a06" stroke-width="2" points="1536.44,-36.5501 1533.88,-44.3652 1534.28,-39.6572 1531.76,-42.4273 1531.39,-42.0903 1531.02,-41.7532 1533.54,-38.9832 1528.89,-39.8153 1536.44,-36.5501 1536.44,-36.5501"/>
<text text-anchor="middle" x="1529.5" y="-57.6" font-family="FreeSans" font-size="8.00" fill="#4e9a06">LIKES</text>
</g>
<!-- N325 -->
<g id="node44" class="node"><title>N325</title>
<path fill="#ffffff" stroke="#2e3436" stroke-width="1.5" d="M1464,-164.5C1464,-164.5 1494,-164.5 1494,-164.5 1500,-164.5 1506,-170.5 1506,-176.5 1506,-176.5 1506,-188.5 1506,-188.5 1506,-194.5 1500,-200.5 1494,-200.5 1494,-200.5 1464,-200.5 1464,-200.5 1458,-200.5 1452,-194.5 1452,-188.5 1452,-188.5 1452,-176.5 1452,-176.5 1452,-170.5 1458,-164.5 1464,-164.5"/>
<text text-anchor="middle" x="1479" y="-189.6" font-family="FreeSans" font-size="8.00" fill="#1c2021">Node[325]</text>
<polyline fill="none" stroke="#2e3436" stroke-width="1.5" points="1452,-182.5 1506,-182.5 "/>
<text text-anchor="middle" x="1479" y="-171.6" font-family="FreeSans" font-size="8.00" fill="#1c2021"> </text>
</g>
<!-- N325&#45;&gt;N323 -->
<g id="edge27" class="edge"><title>N325&#45;&gt;N323</title>
<path fill="none" stroke="#4e9a06" stroke-width="2" d="M1479,-164.141C1479,-153.058 1479,-138.518 1479,-126.236"/>
<polygon fill="#4e9a06" stroke="#4e9a06" stroke-width="2" points="1479,-118.55 1482.38,-126.05 1479.5,-122.3 1479.5,-126.05 1479,-126.05 1478.5,-126.05 1478.5,-122.3 1475.63,-126.05 1479,-118.55 1479,-118.55"/>
<text text-anchor="middle" x="1490.5" y="-139.6" font-family="FreeSans" font-size="8.00" fill="#4e9a06">LIKES</text>
</g>
<!-- N327 -->
<g id="node45" class="node"><title>N327</title>
<path fill="#ffffff" stroke="#2e3436" stroke-width="1.5" d="M1552,-164.5C1552,-164.5 1582,-164.5 1582,-164.5 1588,-164.5 1594,-170.5 1594,-176.5 1594,-176.5 1594,-188.5 1594,-188.5 1594,-194.5 1588,-200.5 1582,-200.5 1582,-200.5 1552,-200.5 1552,-200.5 1546,-200.5 1540,-194.5 1540,-188.5 1540,-188.5 1540,-176.5 1540,-176.5 1540,-170.5 1546,-164.5 1552,-164.5"/>
<text text-anchor="middle" x="1567" y="-189.6" font-family="FreeSans" font-size="8.00" fill="#1c2021">Node[327]</text>
<polyline fill="none" stroke="#2e3436" stroke-width="1.5" points="1540,-182.5 1594,-182.5 "/>
<text text-anchor="middle" x="1567" y="-171.6" font-family="FreeSans" font-size="8.00" fill="#1c2021"> </text>
</g>
<!-- N328 -->
<g id="node46" class="node"><title>N328</title>
<path fill="#ffffff" stroke="#2e3436" stroke-width="1.5" d="M1640,-82.5C1640,-82.5 1670,-82.5 1670,-82.5 1676,-82.5 1682,-88.5 1682,-94.5 1682,-94.5 1682,-106.5 1682,-106.5 1682,-112.5 1676,-118.5 1670,-118.5 1670,-118.5 1640,-118.5 1640,-118.5 1634,-118.5 1628,-112.5 1628,-106.5 1628,-106.5 1628,-94.5 1628,-94.5 1628,-88.5 1634,-82.5 1640,-82.5"/>
<text text-anchor="middle" x="1655" y="-107.6" font-family="FreeSans" font-size="8.00" fill="#1c2021">Node[328]</text>
<polyline fill="none" stroke="#2e3436" stroke-width="1.5" points="1628,-100.5 1682,-100.5 "/>
<text text-anchor="middle" x="1655" y="-89.6" font-family="FreeSans" font-size="8.00" fill="#1c2021"> </text>
</g>
<!-- N331 -->
<g id="node47" class="node"><title>N331</title>
<path fill="#ffffff" stroke="#2e3436" stroke-width="1.5" d="M1620,-0.5C1620,-0.5 1650,-0.5 1650,-0.5 1656,-0.5 1662,-6.5 1662,-12.5 1662,-12.5 1662,-24.5 1662,-24.5 1662,-30.5 1656,-36.5 1650,-36.5 1650,-36.5 1620,-36.5 1620,-36.5 1614,-36.5 1608,-30.5 1608,-24.5 1608,-24.5 1608,-12.5 1608,-12.5 1608,-6.5 1614,-0.5 1620,-0.5"/>
<text text-anchor="middle" x="1635" y="-25.6" font-family="FreeSans" font-size="8.00" fill="#1c2021">Node[331]</text>
<polyline fill="none" stroke="#2e3436" stroke-width="1.5" points="1608,-18.5 1662,-18.5 "/>
<text text-anchor="middle" x="1635" y="-7.6" font-family="FreeSans" font-size="8.00" fill="#1c2021"> </text>
</g>
<!-- N328&#45;&gt;N331 -->
<g id="edge28" class="edge"><title>N328&#45;&gt;N331</title>
<path fill="none" stroke="#2e3436" stroke-width="2" d="M1650.66,-82.1412C1647.86,-70.9527 1644.19,-56.2404 1641.1,-43.8855"/>
<polygon fill="#2e3436" stroke="#2e3436" stroke-width="2" points="1639.26,-36.5501 1644.36,-43.0076 1640.66,-40.0669 1641.57,-43.7049 1641.08,-43.8262 1640.6,-43.9474 1639.69,-40.3094 1637.81,-44.6448 1639.26,-36.5501 1639.26,-36.5501"/>
<text text-anchor="middle" x="1659" y="-57.6" font-family="FreeSans" font-size="8.00" fill="#2e3436">HATES</text>
</g>
<!-- N329 -->
<g id="node48" class="node"><title>N329</title>
<path fill="#ffffff" stroke="#2e3436" stroke-width="1.5" d="M1703,-0.5C1703,-0.5 1733,-0.5 1733,-0.5 1739,-0.5 1745,-6.5 1745,-12.5 1745,-12.5 1745,-24.5 1745,-24.5 1745,-30.5 1739,-36.5 1733,-36.5 1733,-36.5 1703,-36.5 1703,-36.5 1697,-36.5 1691,-30.5 1691,-24.5 1691,-24.5 1691,-12.5 1691,-12.5 1691,-6.5 1697,-0.5 1703,-0.5"/>
<text text-anchor="middle" x="1718" y="-25.6" font-family="FreeSans" font-size="8.00" fill="#1c2021">Node[329]</text>
<polyline fill="none" stroke="#2e3436" stroke-width="1.5" points="1691,-18.5 1745,-18.5 "/>
<text text-anchor="middle" x="1718" y="-7.6" font-family="FreeSans" font-size="8.00" fill="#1c2021"> </text>
</g>
<!-- N328&#45;&gt;N329 -->
<g id="edge29" class="edge"><title>N328&#45;&gt;N329</title>
<path fill="none" stroke="#4e9a06" stroke-width="2" d="M1668.67,-82.1412C1677.81,-70.5305 1689.95,-55.125 1699.89,-42.4972"/>
<polygon fill="#4e9a06" stroke="#4e9a06" stroke-width="2" points="1704.57,-36.5501 1702.58,-44.5305 1702.65,-39.8056 1700.33,-42.7517 1699.93,-42.4424 1699.54,-42.133 1701.86,-39.1869 1697.28,-40.3543 1704.57,-36.5501 1704.57,-36.5501"/>
<text text-anchor="middle" x="1699.5" y="-57.6" font-family="FreeSans" font-size="8.00" fill="#4e9a06">LIKES</text>
</g>
<!-- N330 -->
<g id="node49" class="node"><title>N330</title>
<path fill="#ffffff" stroke="#2e3436" stroke-width="1.5" d="M1640,-164.5C1640,-164.5 1670,-164.5 1670,-164.5 1676,-164.5 1682,-170.5 1682,-176.5 1682,-176.5 1682,-188.5 1682,-188.5 1682,-194.5 1676,-200.5 1670,-200.5 1670,-200.5 1640,-200.5 1640,-200.5 1634,-200.5 1628,-194.5 1628,-188.5 1628,-188.5 1628,-176.5 1628,-176.5 1628,-170.5 1634,-164.5 1640,-164.5"/>
<text text-anchor="middle" x="1655" y="-189.6" font-family="FreeSans" font-size="8.00" fill="#1c2021">Node[330]</text>
<polyline fill="none" stroke="#2e3436" stroke-width="1.5" points="1628,-182.5 1682,-182.5 "/>
<text text-anchor="middle" x="1655" y="-171.6" font-family="FreeSans" font-size="8.00" fill="#1c2021"> </text>
</g>
<!-- N330&#45;&gt;N328 -->
<g id="edge30" class="edge"><title>N330&#45;&gt;N328</title>
<path fill="none" stroke="#4e9a06" stroke-width="2" d="M1655,-164.141C1655,-153.058 1655,-138.518 1655,-126.236"/>
<polygon fill="#4e9a06" stroke="#4e9a06" stroke-width="2" points="1655,-118.55 1658.38,-126.05 1655.5,-122.3 1655.5,-126.05 1655,-126.05 1654.5,-126.05 1654.5,-122.3 1651.63,-126.05 1655,-118.55 1655,-118.55"/>
<text text-anchor="middle" x="1666.5" y="-139.6" font-family="FreeSans" font-size="8.00" fill="#4e9a06">LIKES</text>
</g>
<!-- N332 -->
<g id="node50" class="node"><title>N332</title>
<path fill="#ffffff" stroke="#2e3436" stroke-width="1.5" d="M1734,-164.5C1734,-164.5 1764,-164.5 1764,-164.5 1770,-164.5 1776,-170.5 1776,-176.5 1776,-176.5 1776,-188.5 1776,-188.5 1776,-194.5 1770,-200.5 1764,-200.5 1764,-200.5 1734,-200.5 1734,-200.5 1728,-200.5 1722,-194.5 1722,-188.5 1722,-188.5 1722,-176.5 1722,-176.5 1722,-170.5 1728,-164.5 1734,-164.5"/>
<text text-anchor="middle" x="1749" y="-189.6" font-family="FreeSans" font-size="8.00" fill="#1c2021">Node[332]</text>
<polyline fill="none" stroke="#2e3436" stroke-width="1.5" points="1722,-182.5 1776,-182.5 "/>
<text text-anchor="middle" x="1749" y="-171.6" font-family="FreeSans" font-size="8.00" fill="#1c2021"> </text>
</g>
<!-- N333 -->
<g id="node51" class="node"><title>N333</title>
<path fill="#ffffff" stroke="#2e3436" stroke-width="1.5" d="M1827,-82.5C1827,-82.5 1857,-82.5 1857,-82.5 1863,-82.5 1869,-88.5 1869,-94.5 1869,-94.5 1869,-106.5 1869,-106.5 1869,-112.5 1863,-118.5 1857,-118.5 1857,-118.5 1827,-118.5 1827,-118.5 1821,-118.5 1815,-112.5 1815,-106.5 1815,-106.5 1815,-94.5 1815,-94.5 1815,-88.5 1821,-82.5 1827,-82.5"/>
<text text-anchor="middle" x="1842" y="-107.6" font-family="FreeSans" font-size="8.00" fill="#1c2021">Node[333]</text>
<polyline fill="none" stroke="#2e3436" stroke-width="1.5" points="1815,-100.5 1869,-100.5 "/>
<text text-anchor="middle" x="1842" y="-89.6" font-family="FreeSans" font-size="8.00" fill="#1c2021"> </text>
</g>
<!-- N336 -->
<g id="node52" class="node"><title>N336</title>
<path fill="#ffffff" stroke="#2e3436" stroke-width="1.5" d="M1786,-0.5C1786,-0.5 1816,-0.5 1816,-0.5 1822,-0.5 1828,-6.5 1828,-12.5 1828,-12.5 1828,-24.5 1828,-24.5 1828,-30.5 1822,-36.5 1816,-36.5 1816,-36.5 1786,-36.5 1786,-36.5 1780,-36.5 1774,-30.5 1774,-24.5 1774,-24.5 1774,-12.5 1774,-12.5 1774,-6.5 1780,-0.5 1786,-0.5"/>
<text text-anchor="middle" x="1801" y="-25.6" font-family="FreeSans" font-size="8.00" fill="#1c2021">Node[336]</text>
<polyline fill="none" stroke="#2e3436" stroke-width="1.5" points="1774,-18.5 1828,-18.5 "/>
<text text-anchor="middle" x="1801" y="-7.6" font-family="FreeSans" font-size="8.00" fill="#1c2021"> </text>
</g>
<!-- N333&#45;&gt;N336 -->
<g id="edge31" class="edge"><title>N333&#45;&gt;N336</title>
<path fill="none" stroke="#2e3436" stroke-width="2" d="M1830.72,-82.4709C1827.11,-76.7132 1823.21,-70.1768 1820,-64 1816.64,-57.5403 1813.38,-50.3549 1810.54,-43.6753"/>
<polygon fill="#2e3436" stroke="#2e3436" stroke-width="2" points="1807.63,-36.6839 1813.62,-42.3112 1809.53,-39.9539 1810.97,-43.416 1810.51,-43.6081 1810.05,-43.8002 1808.61,-40.3382 1807.39,-44.905 1807.63,-36.6839 1807.63,-36.6839"/>
<text text-anchor="middle" x="1834" y="-57.6" font-family="FreeSans" font-size="8.00" fill="#2e3436">HATES</text>
</g>
<!-- N334 -->
<g id="node53" class="node"><title>N334</title>
<path fill="#ffffff" stroke="#2e3436" stroke-width="1.5" d="M1869,-0.5C1869,-0.5 1899,-0.5 1899,-0.5 1905,-0.5 1911,-6.5 1911,-12.5 1911,-12.5 1911,-24.5 1911,-24.5 1911,-30.5 1905,-36.5 1899,-36.5 1899,-36.5 1869,-36.5 1869,-36.5 1863,-36.5 1857,-30.5 1857,-24.5 1857,-24.5 1857,-12.5 1857,-12.5 1857,-6.5 1863,-0.5 1869,-0.5"/>
<text text-anchor="middle" x="1884" y="-25.6" font-family="FreeSans" font-size="8.00" fill="#1c2021">Node[334]</text>
<polyline fill="none" stroke="#2e3436" stroke-width="1.5" points="1857,-18.5 1911,-18.5 "/>
<text text-anchor="middle" x="1884" y="-7.6" font-family="FreeSans" font-size="8.00" fill="#1c2021"> </text>
</g>
<!-- N333&#45;&gt;N334 -->
<g id="edge32" class="edge"><title>N333&#45;&gt;N334</title>
<path fill="none" stroke="#4e9a06" stroke-width="2" d="M1851.11,-82.1412C1857.04,-70.8472 1864.86,-55.9625 1871.38,-43.5365"/>
<polygon fill="#4e9a06" stroke="#4e9a06" stroke-width="2" points="1875.05,-36.5501 1874.55,-44.7594 1873.75,-40.1028 1872.01,-43.423 1871.56,-43.1906 1871.12,-42.9582 1872.86,-39.6379 1868.57,-41.6218 1875.05,-36.5501 1875.05,-36.5501"/>
<text text-anchor="middle" x="1875.5" y="-57.6" font-family="FreeSans" font-size="8.00" fill="#4e9a06">LIKES</text>
</g>
<!-- N335 -->
<g id="node54" class="node"><title>N335</title>
<path fill="#ffffff" stroke="#2e3436" stroke-width="1.5" d="M1827,-164.5C1827,-164.5 1857,-164.5 1857,-164.5 1863,-164.5 1869,-170.5 1869,-176.5 1869,-176.5 1869,-188.5 1869,-188.5 1869,-194.5 1863,-200.5 1857,-200.5 1857,-200.5 1827,-200.5 1827,-200.5 1821,-200.5 1815,-194.5 1815,-188.5 1815,-188.5 1815,-176.5 1815,-176.5 1815,-170.5 1821,-164.5 1827,-164.5"/>
<text text-anchor="middle" x="1842" y="-189.6" font-family="FreeSans" font-size="8.00" fill="#1c2021">Node[335]</text>
<polyline fill="none" stroke="#2e3436" stroke-width="1.5" points="1815,-182.5 1869,-182.5 "/>
<text text-anchor="middle" x="1842" y="-171.6" font-family="FreeSans" font-size="8.00" fill="#1c2021"> </text>
</g>
<!-- N335&#45;&gt;N333 -->
<g id="edge33" class="edge"><title>N335&#45;&gt;N333</title>
<path fill="none" stroke="#4e9a06" stroke-width="2" d="M1842,-164.141C1842,-153.058 1842,-138.518 1842,-126.236"/>
<polygon fill="#4e9a06" stroke="#4e9a06" stroke-width="2" points="1842,-118.55 1845.38,-126.05 1842.5,-122.3 1842.5,-126.05 1842,-126.05 1841.5,-126.05 1841.5,-122.3 1838.63,-126.05 1842,-118.55 1842,-118.55"/>
<text text-anchor="middle" x="1853.5" y="-139.6" font-family="FreeSans" font-size="8.00" fill="#4e9a06">LIKES</text>
</g>
<!-- N337 -->
<g id="node55" class="node"><title>N337</title>
<path fill="#ffffff" stroke="#2e3436" stroke-width="1.5" d="M1910,-164.5C1910,-164.5 1940,-164.5 1940,-164.5 1946,-164.5 1952,-170.5 1952,-176.5 1952,-176.5 1952,-188.5 1952,-188.5 1952,-194.5 1946,-200.5 1940,-200.5 1940,-200.5 1910,-200.5 1910,-200.5 1904,-200.5 1898,-194.5 1898,-188.5 1898,-188.5 1898,-176.5 1898,-176.5 1898,-170.5 1904,-164.5 1910,-164.5"/>
<text text-anchor="middle" x="1925" y="-189.6" font-family="FreeSans" font-size="8.00" fill="#1c2021">Node[337]</text>
<polyline fill="none" stroke="#2e3436" stroke-width="1.5" points="1898,-182.5 1952,-182.5 "/>
<text text-anchor="middle" x="1925" y="-171.6" font-family="FreeSans" font-size="8.00" fill="#1c2021"> </text>
</g>
<!-- N338 -->
<g id="node56" class="node"><title>N338</title>
<path fill="#ffffff" stroke="#2e3436" stroke-width="1.5" d="M1993,-164.5C1993,-164.5 2023,-164.5 2023,-164.5 2029,-164.5 2035,-170.5 2035,-176.5 2035,-176.5 2035,-188.5 2035,-188.5 2035,-194.5 2029,-200.5 2023,-200.5 2023,-200.5 1993,-200.5 1993,-200.5 1987,-200.5 1981,-194.5 1981,-188.5 1981,-188.5 1981,-176.5 1981,-176.5 1981,-170.5 1987,-164.5 1993,-164.5"/>
<text text-anchor="middle" x="2008" y="-189.6" font-family="FreeSans" font-size="8.00" fill="#1c2021">Node[338]</text>
<polyline fill="none" stroke="#2e3436" stroke-width="1.5" points="1981,-182.5 2035,-182.5 "/>
<text text-anchor="middle" x="2008" y="-171.6" font-family="FreeSans" font-size="8.00" fill="#1c2021"> </text>
</g>
<!-- N339 -->
<g id="node57" class="node"><title>N339</title>
<path fill="#ffffff" stroke="#2e3436" stroke-width="1.5" d="M1993,-82.5C1993,-82.5 2023,-82.5 2023,-82.5 2029,-82.5 2035,-88.5 2035,-94.5 2035,-94.5 2035,-106.5 2035,-106.5 2035,-112.5 2029,-118.5 2023,-118.5 2023,-118.5 1993,-118.5 1993,-118.5 1987,-118.5 1981,-112.5 1981,-106.5 1981,-106.5 1981,-94.5 1981,-94.5 1981,-88.5 1987,-82.5 1993,-82.5"/>
<text text-anchor="middle" x="2008" y="-107.6" font-family="FreeSans" font-size="8.00" fill="#1c2021">Node[339]</text>
<polyline fill="none" stroke="#2e3436" stroke-width="1.5" points="1981,-100.5 2035,-100.5 "/>
<text text-anchor="middle" x="2008" y="-89.6" font-family="FreeSans" font-size="8.00" fill="#1c2021"> </text>
</g>
<!-- N338&#45;&gt;N339 -->
<g id="edge34" class="edge"><title>N338&#45;&gt;N339</title>
<path fill="none" stroke="#4e9a06" stroke-width="2" d="M2008,-164.141C2008,-153.058 2008,-138.518 2008,-126.236"/>
<polygon fill="#4e9a06" stroke="#4e9a06" stroke-width="2" points="2008,-118.55 2011.38,-126.05 2008.5,-122.3 2008.5,-126.05 2008,-126.05 2007.5,-126.05 2007.5,-122.3 2004.63,-126.05 2008,-118.55 2008,-118.55"/>
<text text-anchor="middle" x="2019.5" y="-139.6" font-family="FreeSans" font-size="8.00" fill="#4e9a06">LIKES</text>
</g>
<!-- N340 -->
<g id="node58" class="node"><title>N340</title>
<path fill="#ffffff" stroke="#2e3436" stroke-width="1.5" d="M2076,-82.5C2076,-82.5 2106,-82.5 2106,-82.5 2112,-82.5 2118,-88.5 2118,-94.5 2118,-94.5 2118,-106.5 2118,-106.5 2118,-112.5 2112,-118.5 2106,-118.5 2106,-118.5 2076,-118.5 2076,-118.5 2070,-118.5 2064,-112.5 2064,-106.5 2064,-106.5 2064,-94.5 2064,-94.5 2064,-88.5 2070,-82.5 2076,-82.5"/>
<text text-anchor="middle" x="2091" y="-107.6" font-family="FreeSans" font-size="8.00" fill="#1c2021">Node[340]</text>
<polyline fill="none" stroke="#2e3436" stroke-width="1.5" points="2064,-100.5 2118,-100.5 "/>
<text text-anchor="middle" x="2091" y="-89.6" font-family="FreeSans" font-size="8.00" fill="#1c2021"> </text>
</g>
<!-- N343 -->
<g id="node59" class="node"><title>N343</title>
<path fill="#ffffff" stroke="#2e3436" stroke-width="1.5" d="M2065,-0.5C2065,-0.5 2095,-0.5 2095,-0.5 2101,-0.5 2107,-6.5 2107,-12.5 2107,-12.5 2107,-24.5 2107,-24.5 2107,-30.5 2101,-36.5 2095,-36.5 2095,-36.5 2065,-36.5 2065,-36.5 2059,-36.5 2053,-30.5 2053,-24.5 2053,-24.5 2053,-12.5 2053,-12.5 2053,-6.5 2059,-0.5 2065,-0.5"/>
<text text-anchor="middle" x="2080" y="-25.6" font-family="FreeSans" font-size="8.00" fill="#1c2021">Node[343]</text>
<polyline fill="none" stroke="#2e3436" stroke-width="1.5" points="2053,-18.5 2107,-18.5 "/>
<text text-anchor="middle" x="2080" y="-7.6" font-family="FreeSans" font-size="8.00" fill="#1c2021"> </text>
</g>
<!-- N340&#45;&gt;N343 -->
<g id="edge35" class="edge"><title>N340&#45;&gt;N343</title>
<path fill="none" stroke="#2e3436" stroke-width="2" d="M2088.61,-82.1412C2087.09,-71.0583 2085.09,-56.5177 2083.4,-44.2358"/>
<polygon fill="#2e3436" stroke="#2e3436" stroke-width="2" points="2082.34,-36.5501 2086.71,-43.5204 2083.35,-40.197 2083.86,-43.9121 2083.37,-43.9802 2082.87,-44.0483 2082.36,-40.3333 2080.02,-44.44 2082.34,-36.5501 2082.34,-36.5501"/>
<text text-anchor="middle" x="2099" y="-57.6" font-family="FreeSans" font-size="8.00" fill="#2e3436">HATES</text>
</g>
<!-- N341 -->
<g id="node60" class="node"><title>N341</title>
<path fill="#ffffff" stroke="#2e3436" stroke-width="1.5" d="M2148,-0.5C2148,-0.5 2178,-0.5 2178,-0.5 2184,-0.5 2190,-6.5 2190,-12.5 2190,-12.5 2190,-24.5 2190,-24.5 2190,-30.5 2184,-36.5 2178,-36.5 2178,-36.5 2148,-36.5 2148,-36.5 2142,-36.5 2136,-30.5 2136,-24.5 2136,-24.5 2136,-12.5 2136,-12.5 2136,-6.5 2142,-0.5 2148,-0.5"/>
<text text-anchor="middle" x="2163" y="-25.6" font-family="FreeSans" font-size="8.00" fill="#1c2021">Node[341]</text>
<polyline fill="none" stroke="#2e3436" stroke-width="1.5" points="2136,-18.5 2190,-18.5 "/>
<text text-anchor="middle" x="2163" y="-7.6" font-family="FreeSans" font-size="8.00" fill="#1c2021"> </text>
</g>
<!-- N340&#45;&gt;N341 -->
<g id="edge36" class="edge"><title>N340&#45;&gt;N341</title>
<path fill="none" stroke="#4e9a06" stroke-width="2" d="M2106.62,-82.1412C2117.17,-70.425 2131.19,-54.8446 2142.61,-42.1535"/>
<polygon fill="#4e9a06" stroke="#4e9a06" stroke-width="2" points="2147.65,-36.5501 2145.15,-44.3826 2145.52,-39.6719 2143.01,-42.4593 2142.64,-42.1248 2142.27,-41.7903 2144.77,-39.003 2140.13,-39.8671 2147.65,-36.5501 2147.65,-36.5501"/>
<text text-anchor="middle" x="2140.5" y="-57.6" font-family="FreeSans" font-size="8.00" fill="#4e9a06">LIKES</text>
</g>
<!-- N342 -->
<g id="node61" class="node"><title>N342</title>
<path fill="#ffffff" stroke="#2e3436" stroke-width="1.5" d="M2076,-164.5C2076,-164.5 2106,-164.5 2106,-164.5 2112,-164.5 2118,-170.5 2118,-176.5 2118,-176.5 2118,-188.5 2118,-188.5 2118,-194.5 2112,-200.5 2106,-200.5 2106,-200.5 2076,-200.5 2076,-200.5 2070,-200.5 2064,-194.5 2064,-188.5 2064,-188.5 2064,-176.5 2064,-176.5 2064,-170.5 2070,-164.5 2076,-164.5"/>
<text text-anchor="middle" x="2091" y="-189.6" font-family="FreeSans" font-size="8.00" fill="#1c2021">Node[342]</text>
<polyline fill="none" stroke="#2e3436" stroke-width="1.5" points="2064,-182.5 2118,-182.5 "/>
<text text-anchor="middle" x="2091" y="-171.6" font-family="FreeSans" font-size="8.00" fill="#1c2021"> </text>
</g>
<!-- N342&#45;&gt;N340 -->
<g id="edge37" class="edge"><title>N342&#45;&gt;N340</title>
<path fill="none" stroke="#4e9a06" stroke-width="2" d="M2091,-164.141C2091,-153.058 2091,-138.518 2091,-126.236"/>
<polygon fill="#4e9a06" stroke="#4e9a06" stroke-width="2" points="2091,-118.55 2094.38,-126.05 2091.5,-122.3 2091.5,-126.05 2091,-126.05 2090.5,-126.05 2090.5,-122.3 2087.63,-126.05 2091,-118.55 2091,-118.55"/>
<text text-anchor="middle" x="2102.5" y="-139.6" font-family="FreeSans" font-size="8.00" fill="#4e9a06">LIKES</text>
</g>
<!-- N344 -->
<g id="node62" class="node"><title>N344</title>
<path fill="#ffffff" stroke="#2e3436" stroke-width="1.5" d="M2179,-164.5C2179,-164.5 2209,-164.5 2209,-164.5 2215,-164.5 2221,-170.5 2221,-176.5 2221,-176.5 2221,-188.5 2221,-188.5 2221,-194.5 2215,-200.5 2209,-200.5 2209,-200.5 2179,-200.5 2179,-200.5 2173,-200.5 2167,-194.5 2167,-188.5 2167,-188.5 2167,-176.5 2167,-176.5 2167,-170.5 2173,-164.5 2179,-164.5"/>
<text text-anchor="middle" x="2194" y="-189.6" font-family="FreeSans" font-size="8.00" fill="#1c2021">Node[344]</text>
<polyline fill="none" stroke="#2e3436" stroke-width="1.5" points="2167,-182.5 2221,-182.5 "/>
<text text-anchor="middle" x="2194" y="-171.6" font-family="FreeSans" font-size="8.00" fill="#1c2021"> </text>
</g>
<!-- N345 -->
<g id="node63" class="node"><title>N345</title>
<path fill="#ffffff" stroke="#2e3436" stroke-width="1.5" d="M2272,-164.5C2272,-164.5 2302,-164.5 2302,-164.5 2308,-164.5 2314,-170.5 2314,-176.5 2314,-176.5 2314,-188.5 2314,-188.5 2314,-194.5 2308,-200.5 2302,-200.5 2302,-200.5 2272,-200.5 2272,-200.5 2266,-200.5 2260,-194.5 2260,-188.5 2260,-188.5 2260,-176.5 2260,-176.5 2260,-170.5 2266,-164.5 2272,-164.5"/>
<text text-anchor="middle" x="2287" y="-189.6" font-family="FreeSans" font-size="8.00" fill="#1c2021">Node[345]</text>
<polyline fill="none" stroke="#2e3436" stroke-width="1.5" points="2260,-182.5 2314,-182.5 "/>
<text text-anchor="middle" x="2287" y="-171.6" font-family="FreeSans" font-size="8.00" fill="#1c2021"> </text>
</g>
<!-- N346 -->
<g id="node64" class="node"><title>N346</title>
<path fill="#ffffff" stroke="#2e3436" stroke-width="1.5" d="M2272,-82.5C2272,-82.5 2302,-82.5 2302,-82.5 2308,-82.5 2314,-88.5 2314,-94.5 2314,-94.5 2314,-106.5 2314,-106.5 2314,-112.5 2308,-118.5 2302,-118.5 2302,-118.5 2272,-118.5 2272,-118.5 2266,-118.5 2260,-112.5 2260,-106.5 2260,-106.5 2260,-94.5 2260,-94.5 2260,-88.5 2266,-82.5 2272,-82.5"/>
<text text-anchor="middle" x="2287" y="-107.6" font-family="FreeSans" font-size="8.00" fill="#1c2021">Node[346]</text>
<polyline fill="none" stroke="#2e3436" stroke-width="1.5" points="2260,-100.5 2314,-100.5 "/>
<text text-anchor="middle" x="2287" y="-89.6" font-family="FreeSans" font-size="8.00" fill="#1c2021"> </text>
</g>
<!-- N345&#45;&gt;N346 -->
<g id="edge38" class="edge"><title>N345&#45;&gt;N346</title>
<path fill="none" stroke="#4e9a06" stroke-width="2" d="M2287,-164.141C2287,-153.058 2287,-138.518 2287,-126.236"/>
<polygon fill="#4e9a06" stroke="#4e9a06" stroke-width="2" points="2287,-118.55 2290.38,-126.05 2287.5,-122.3 2287.5,-126.05 2287,-126.05 2286.5,-126.05 2286.5,-122.3 2283.63,-126.05 2287,-118.55 2287,-118.55"/>
<text text-anchor="middle" x="2298.5" y="-139.6" font-family="FreeSans" font-size="8.00" fill="#4e9a06">LIKES</text>
</g>
<!-- N347 -->
<g id="node65" class="node"><title>N347</title>
<path fill="#ffffff" stroke="#2e3436" stroke-width="1.5" d="M2355,-82.5C2355,-82.5 2385,-82.5 2385,-82.5 2391,-82.5 2397,-88.5 2397,-94.5 2397,-94.5 2397,-106.5 2397,-106.5 2397,-112.5 2391,-118.5 2385,-118.5 2385,-118.5 2355,-118.5 2355,-118.5 2349,-118.5 2343,-112.5 2343,-106.5 2343,-106.5 2343,-94.5 2343,-94.5 2343,-88.5 2349,-82.5 2355,-82.5"/>
<text text-anchor="middle" x="2370" y="-107.6" font-family="FreeSans" font-size="8.00" fill="#1c2021">Node[347]</text>
<polyline fill="none" stroke="#2e3436" stroke-width="1.5" points="2343,-100.5 2397,-100.5 "/>
<text text-anchor="middle" x="2370" y="-89.6" font-family="FreeSans" font-size="8.00" fill="#1c2021"> </text>
</g>
<!-- N350 -->
<g id="node66" class="node"><title>N350</title>
<path fill="#ffffff" stroke="#2e3436" stroke-width="1.5" d="M2272,-0.5C2272,-0.5 2302,-0.5 2302,-0.5 2308,-0.5 2314,-6.5 2314,-12.5 2314,-12.5 2314,-24.5 2314,-24.5 2314,-30.5 2308,-36.5 2302,-36.5 2302,-36.5 2272,-36.5 2272,-36.5 2266,-36.5 2260,-30.5 2260,-24.5 2260,-24.5 2260,-12.5 2260,-12.5 2260,-6.5 2266,-0.5 2272,-0.5"/>
<text text-anchor="middle" x="2287" y="-25.6" font-family="FreeSans" font-size="8.00" fill="#1c2021">Node[350]</text>
<polyline fill="none" stroke="#2e3436" stroke-width="1.5" points="2260,-18.5 2314,-18.5 "/>
<text text-anchor="middle" x="2287" y="-7.6" font-family="FreeSans" font-size="8.00" fill="#1c2021"> </text>
</g>
<!-- N347&#45;&gt;N350 -->
<g id="edge39" class="edge"><title>N347&#45;&gt;N350</title>
<path fill="none" stroke="#2e3436" stroke-width="2" d="M2351.99,-82.1412C2339.73,-70.3194 2323.38,-54.5635 2310.15,-41.8112"/>
<polygon fill="#2e3436" stroke="#2e3436" stroke-width="2" points="2304.69,-36.5501 2312.43,-39.3249 2307.74,-38.7925 2310.44,-41.3949 2310.09,-41.7549 2309.74,-42.1149 2307.04,-39.5125 2307.75,-44.185 2304.69,-36.5501 2304.69,-36.5501"/>
<text text-anchor="middle" x="2344" y="-57.6" font-family="FreeSans" font-size="8.00" fill="#2e3436">HATES</text>
</g>
<!-- N348 -->
<g id="node67" class="node"><title>N348</title>
<path fill="#ffffff" stroke="#2e3436" stroke-width="1.5" d="M2355,-0.5C2355,-0.5 2385,-0.5 2385,-0.5 2391,-0.5 2397,-6.5 2397,-12.5 2397,-12.5 2397,-24.5 2397,-24.5 2397,-30.5 2391,-36.5 2385,-36.5 2385,-36.5 2355,-36.5 2355,-36.5 2349,-36.5 2343,-30.5 2343,-24.5 2343,-24.5 2343,-12.5 2343,-12.5 2343,-6.5 2349,-0.5 2355,-0.5"/>
<text text-anchor="middle" x="2370" y="-25.6" font-family="FreeSans" font-size="8.00" fill="#1c2021">Node[348]</text>
<polyline fill="none" stroke="#2e3436" stroke-width="1.5" points="2343,-18.5 2397,-18.5 "/>
<text text-anchor="middle" x="2370" y="-7.6" font-family="FreeSans" font-size="8.00" fill="#1c2021"> </text>
</g>
<!-- N347&#45;&gt;N348 -->
<g id="edge40" class="edge"><title>N347&#45;&gt;N348</title>
<path fill="none" stroke="#4e9a06" stroke-width="2" d="M2370,-82.1412C2370,-71.0583 2370,-56.5177 2370,-44.2358"/>
<polygon fill="#4e9a06" stroke="#4e9a06" stroke-width="2" points="2370,-36.5501 2373.38,-44.0501 2370.5,-40.3001 2370.5,-44.0501 2370,-44.0501 2369.5,-44.0501 2369.5,-40.3001 2366.63,-44.0501 2370,-36.5501 2370,-36.5501"/>
<text text-anchor="middle" x="2381.5" y="-57.6" font-family="FreeSans" font-size="8.00" fill="#4e9a06">LIKES</text>
</g>
<!-- N349 -->
<g id="node68" class="node"><title>N349</title>
<path fill="#ffffff" stroke="#2e3436" stroke-width="1.5" d="M2355,-164.5C2355,-164.5 2385,-164.5 2385,-164.5 2391,-164.5 2397,-170.5 2397,-176.5 2397,-176.5 2397,-188.5 2397,-188.5 2397,-194.5 2391,-200.5 2385,-200.5 2385,-200.5 2355,-200.5 2355,-200.5 2349,-200.5 2343,-194.5 2343,-188.5 2343,-188.5 2343,-176.5 2343,-176.5 2343,-170.5 2349,-164.5 2355,-164.5"/>
<text text-anchor="middle" x="2370" y="-189.6" font-family="FreeSans" font-size="8.00" fill="#1c2021">Node[349]</text>
<polyline fill="none" stroke="#2e3436" stroke-width="1.5" points="2343,-182.5 2397,-182.5 "/>
<text text-anchor="middle" x="2370" y="-171.6" font-family="FreeSans" font-size="8.00" fill="#1c2021"> </text>
</g>
<!-- N349&#45;&gt;N347 -->
<g id="edge41" class="edge"><title>N349&#45;&gt;N347</title>
<path fill="none" stroke="#4e9a06" stroke-width="2" d="M2370,-164.141C2370,-153.058 2370,-138.518 2370,-126.236"/>
<polygon fill="#4e9a06" stroke="#4e9a06" stroke-width="2" points="2370,-118.55 2373.38,-126.05 2370.5,-122.3 2370.5,-126.05 2370,-126.05 2369.5,-126.05 2369.5,-122.3 2366.63,-126.05 2370,-118.55 2370,-118.55"/>
<text text-anchor="middle" x="2381.5" y="-139.6" font-family="FreeSans" font-size="8.00" fill="#4e9a06">LIKES</text>
</g>
<!-- N351 -->
<g id="node69" class="node"><title>N351</title>
<path fill="#ffffff" stroke="#2e3436" stroke-width="1.5" d="M2438,-164.5C2438,-164.5 2468,-164.5 2468,-164.5 2474,-164.5 2480,-170.5 2480,-176.5 2480,-176.5 2480,-188.5 2480,-188.5 2480,-194.5 2474,-200.5 2468,-200.5 2468,-200.5 2438,-200.5 2438,-200.5 2432,-200.5 2426,-194.5 2426,-188.5 2426,-188.5 2426,-176.5 2426,-176.5 2426,-170.5 2432,-164.5 2438,-164.5"/>
<text text-anchor="middle" x="2453" y="-189.6" font-family="FreeSans" font-size="8.00" fill="#1c2021">Node[351]</text>
<polyline fill="none" stroke="#2e3436" stroke-width="1.5" points="2426,-182.5 2480,-182.5 "/>
<text text-anchor="middle" x="2453" y="-171.6" font-family="FreeSans" font-size="8.00" fill="#1c2021"> </text>
</g>
</g>
</svg>
