<?xml version="1.0" encoding="UTF-8" standalone="no"?>
<!DOCTYPE svg PUBLIC "-//W3C//DTD SVG 1.1//EN"
 "http://www.w3.org/Graphics/SVG/1.1/DTD/svg11.dtd">
<!-- Generated by graphviz version 2.38.0 (20140413.2041)
 -->
<!-- Title: g Pages: 1 -->
<svg width="504pt" height="110pt"
 viewBox="0.00 0.00 504.00 110.18" xmlns="http://www.w3.org/2000/svg" xmlns:xlink="http://www.w3.org/1999/xlink">
<g id="graph0" class="graph" transform="scale(0.527197 0.527197) rotate(0) translate(4 205)">
<title>g</title>
<polygon fill="white" stroke="none" points="-4,4 -4,-205 952,-205 952,4 -4,4"/>
<!-- N283 -->
<g id="node1" class="node"><title>N283</title>
<path fill="#ffffff" stroke="#2e3436" stroke-width="1.5" d="M15,-82.5C15,-82.5 45,-82.5 45,-82.5 51,-82.5 57,-88.5 57,-94.5 57,-94.5 57,-106.5 57,-106.5 57,-112.5 51,-118.5 45,-118.5 45,-118.5 15,-118.5 15,-118.5 9,-118.5 3,-112.5 3,-106.5 3,-106.5 3,-94.5 3,-94.5 3,-88.5 9,-82.5 15,-82.5"/>
<text text-anchor="middle" x="30" y="-107.6" font-family="FreeSans" font-size="8.00" fill="#1c2021">Node[283]</text>
<polyline fill="none" stroke="#2e3436" stroke-width="1.5" points="3,-100.5 57,-100.5 "/>
<text text-anchor="middle" x="30" y="-89.6" font-family="FreeSans" font-size="8.00" fill="#1c2021"> </text>
</g>
<!-- N286 -->
<g id="node2" class="node"><title>N286</title>
<path fill="#ffffff" stroke="#2e3436" stroke-width="1.5" d="M12,-0.5C12,-0.5 42,-0.5 42,-0.5 48,-0.5 54,-6.5 54,-12.5 54,-12.5 54,-24.5 54,-24.5 54,-30.5 48,-36.5 42,-36.5 42,-36.5 12,-36.5 12,-36.5 6,-36.5 0,-30.5 0,-24.5 0,-24.5 0,-12.5 0,-12.5 0,-6.5 6,-0.5 12,-0.5"/>
<text text-anchor="middle" x="27" y="-25.6" font-family="FreeSans" font-size="8.00" fill="#1c2021">Node[286]</text>
<polyline fill="none" stroke="#2e3436" stroke-width="1.5" points="0,-18.5 54,-18.5 "/>
<text text-anchor="middle" x="27" y="-7.6" font-family="FreeSans" font-size="8.00" fill="#1c2021"> </text>
</g>
<!-- N283&#45;&gt;N286 -->
<g id="edge1" class="edge"><title>N283&#45;&gt;N286</title>
<path fill="none" stroke="#2e3436" stroke-width="2" d="M29.349,-82.1412C28.9334,-71.0583 28.3882,-56.5177 27.9276,-44.2358"/>
<polygon fill="#2e3436" stroke="#2e3436" stroke-width="2" points="27.6394,-36.5501 31.2932,-43.9183 28.2796,-40.2787 28.4202,-44.0261 27.9205,-44.0448 27.4209,-44.0636 27.2803,-40.3162 24.5479,-44.1713 27.6394,-36.5501 27.6394,-36.5501"/>
<text text-anchor="middle" x="43" y="-57.6" font-family="FreeSans" font-size="8.00" fill="#2e3436">HATES</text>
</g>
<!-- N284 -->
<g id="node3" class="node"><title>N284</title>
<path fill="#ffffff" stroke="#2e3436" stroke-width="1.5" d="M95,-0.5C95,-0.5 125,-0.5 125,-0.5 131,-0.5 137,-6.5 137,-12.5 137,-12.5 137,-24.5 137,-24.5 137,-30.5 131,-36.5 125,-36.5 125,-36.5 95,-36.5 95,-36.5 89,-36.5 83,-30.5 83,-24.5 83,-24.5 83,-12.5 83,-12.5 83,-6.5 89,-0.5 95,-0.5"/>
<text text-anchor="middle" x="110" y="-25.6" font-family="FreeSans" font-size="8.00" fill="#1c2021">Node[284]</text>
<polyline fill="none" stroke="#2e3436" stroke-width="1.5" points="83,-18.5 137,-18.5 "/>
<text text-anchor="middle" x="110" y="-7.6" font-family="FreeSans" font-size="8.00" fill="#1c2021"> </text>
</g>
<!-- N283&#45;&gt;N284 -->
<g id="edge2" class="edge"><title>N283&#45;&gt;N284</title>
<path fill="none" stroke="#4e9a06" stroke-width="2" d="M47.3588,-82.1412C59.075,-70.425 74.6554,-54.8446 87.3465,-42.1535"/>
<polygon fill="#4e9a06" stroke="#4e9a06" stroke-width="2" points="92.9499,-36.5501 90.0331,-44.2399 90.6518,-39.5553 88.0001,-42.207 87.6466,-41.8534 87.293,-41.4999 89.9447,-38.8482 85.2601,-39.4669 92.9499,-36.5501 92.9499,-36.5501"/>
<text text-anchor="middle" x="84.5" y="-57.6" font-family="FreeSans" font-size="8.00" fill="#4e9a06">LIKES</text>
</g>
<!-- N285 -->
<g id="node4" class="node"><title>N285</title>
<path fill="#ffffff" stroke="#2e3436" stroke-width="1.5" d="M15,-164.5C15,-164.5 45,-164.5 45,-164.5 51,-164.5 57,-170.5 57,-176.5 57,-176.5 57,-188.5 57,-188.5 57,-194.5 51,-200.5 45,-200.5 45,-200.5 15,-200.5 15,-200.5 9,-200.5 3,-194.5 3,-188.5 3,-188.5 3,-176.5 3,-176.5 3,-170.5 9,-164.5 15,-164.5"/>
<text text-anchor="middle" x="30" y="-189.6" font-family="FreeSans" font-size="8.00" fill="#1c2021">Node[285]</text>
<polyline fill="none" stroke="#2e3436" stroke-width="1.5" points="3,-182.5 57,-182.5 "/>
<text text-anchor="middle" x="30" y="-171.6" font-family="FreeSans" font-size="8.00" fill="#1c2021"> </text>
</g>
<!-- N285&#45;&gt;N283 -->
<g id="edge3" class="edge"><title>N285&#45;&gt;N283</title>
<path fill="none" stroke="#4e9a06" stroke-width="2" d="M30,-164.141C30,-153.058 30,-138.518 30,-126.236"/>
<polygon fill="#4e9a06" stroke="#4e9a06" stroke-width="2" points="30,-118.55 33.3751,-126.05 30.5,-122.3 30.5001,-126.05 30.0001,-126.05 29.5001,-126.05 29.5,-122.3 26.6251,-126.05 30,-118.55 30,-118.55"/>
<text text-anchor="middle" x="41.5" y="-139.6" font-family="FreeSans" font-size="8.00" fill="#4e9a06">LIKES</text>
</g>
<!-- N287 -->
<g id="node5" class="node"><title>N287</title>
<path fill="#ffffff" stroke="#2e3436" stroke-width="1.5" d="M139,-164.5C139,-164.5 169,-164.5 169,-164.5 175,-164.5 181,-170.5 181,-176.5 181,-176.5 181,-188.5 181,-188.5 181,-194.5 175,-200.5 169,-200.5 169,-200.5 139,-200.5 139,-200.5 133,-200.5 127,-194.5 127,-188.5 127,-188.5 127,-176.5 127,-176.5 127,-170.5 133,-164.5 139,-164.5"/>
<text text-anchor="middle" x="154" y="-189.6" font-family="FreeSans" font-size="8.00" fill="#1c2021">Node[287]</text>
<polyline fill="none" stroke="#2e3436" stroke-width="1.5" points="127,-182.5 181,-182.5 "/>
<text text-anchor="middle" x="154" y="-171.6" font-family="FreeSans" font-size="8.00" fill="#1c2021"> </text>
</g>
<!-- N288 -->
<g id="node6" class="node"><title>N288</title>
<path fill="#ffffff" stroke="#2e3436" stroke-width="1.5" d="M255,-82.5C255,-82.5 285,-82.5 285,-82.5 291,-82.5 297,-88.5 297,-94.5 297,-94.5 297,-106.5 297,-106.5 297,-112.5 291,-118.5 285,-118.5 285,-118.5 255,-118.5 255,-118.5 249,-118.5 243,-112.5 243,-106.5 243,-106.5 243,-94.5 243,-94.5 243,-88.5 249,-82.5 255,-82.5"/>
<text text-anchor="middle" x="270" y="-107.6" font-family="FreeSans" font-size="8.00" fill="#1c2021">Node[288]</text>
<polyline fill="none" stroke="#2e3436" stroke-width="1.5" points="243,-100.5 297,-100.5 "/>
<text text-anchor="middle" x="270" y="-89.6" font-family="FreeSans" font-size="8.00" fill="#1c2021"> </text>
</g>
<!-- N291 -->
<g id="node7" class="node"><title>N291</title>
<path fill="#ffffff" stroke="#2e3436" stroke-width="1.5" d="M209,-0.5C209,-0.5 239,-0.5 239,-0.5 245,-0.5 251,-6.5 251,-12.5 251,-12.5 251,-24.5 251,-24.5 251,-30.5 245,-36.5 239,-36.5 239,-36.5 209,-36.5 209,-36.5 203,-36.5 197,-30.5 197,-24.5 197,-24.5 197,-12.5 197,-12.5 197,-6.5 203,-0.5 209,-0.5"/>
<text text-anchor="middle" x="224" y="-25.6" font-family="FreeSans" font-size="8.00" fill="#1c2021">Node[291]</text>
<polyline fill="none" stroke="#2e3436" stroke-width="1.5" points="197,-18.5 251,-18.5 "/>
<text text-anchor="middle" x="224" y="-7.6" font-family="FreeSans" font-size="8.00" fill="#1c2021"> </text>
</g>
<!-- N288&#45;&gt;N291 -->
<g id="edge4" class="edge"><title>N288&#45;&gt;N291</title>
<path fill="none" stroke="#2e3436" stroke-width="2" d="M260.019,-82.1412C253.464,-70.7416 244.806,-55.6839 237.621,-43.1887"/>
<polygon fill="#2e3436" stroke="#2e3436" stroke-width="2" points="233.804,-36.5501 240.468,-41.3695 236.107,-39.5518 237.976,-42.8027 237.542,-43.0519 237.109,-43.3011 235.24,-40.0502 234.617,-44.7343 233.804,-36.5501 233.804,-36.5501"/>
<text text-anchor="middle" x="263" y="-57.6" font-family="FreeSans" font-size="8.00" fill="#2e3436">HATES</text>
</g>
<!-- N289 -->
<g id="node8" class="node"><title>N289</title>
<path fill="#ffffff" stroke="#2e3436" stroke-width="1.5" d="M292,-0.5C292,-0.5 322,-0.5 322,-0.5 328,-0.5 334,-6.5 334,-12.5 334,-12.5 334,-24.5 334,-24.5 334,-30.5 328,-36.5 322,-36.5 322,-36.5 292,-36.5 292,-36.5 286,-36.5 280,-30.5 280,-24.5 280,-24.5 280,-12.5 280,-12.5 280,-6.5 286,-0.5 292,-0.5"/>
<text text-anchor="middle" x="307" y="-25.6" font-family="FreeSans" font-size="8.00" fill="#1c2021">Node[289]</text>
<polyline fill="none" stroke="#2e3436" stroke-width="1.5" points="280,-18.5 334,-18.5 "/>
<text text-anchor="middle" x="307" y="-7.6" font-family="FreeSans" font-size="8.00" fill="#1c2021"> </text>
</g>
<!-- N288&#45;&gt;N289 -->
<g id="edge5" class="edge"><title>N288&#45;&gt;N289</title>
<path fill="none" stroke="#4e9a06" stroke-width="2" d="M278.028,-82.1412C283.252,-70.8472 290.136,-55.9625 295.883,-43.5365"/>
<polygon fill="#4e9a06" stroke="#4e9a06" stroke-width="2" points="299.114,-36.5501 299.029,-44.7741 297.994,-40.1636 296.42,-43.5672 295.966,-43.3573 295.512,-43.1474 297.086,-39.7438 292.903,-41.9405 299.114,-36.5501 299.114,-36.5501"/>
<text text-anchor="middle" x="301.5" y="-57.6" font-family="FreeSans" font-size="8.00" fill="#4e9a06">LIKES</text>
</g>
<!-- N290 -->
<g id="node9" class="node"><title>N290</title>
<path fill="#ffffff" stroke="#2e3436" stroke-width="1.5" d="M255,-164.5C255,-164.5 285,-164.5 285,-164.5 291,-164.5 297,-170.5 297,-176.5 297,-176.5 297,-188.5 297,-188.5 297,-194.5 291,-200.5 285,-200.5 285,-200.5 255,-200.5 255,-200.5 249,-200.5 243,-194.5 243,-188.5 243,-188.5 243,-176.5 243,-176.5 243,-170.5 249,-164.5 255,-164.5"/>
<text text-anchor="middle" x="270" y="-189.6" font-family="FreeSans" font-size="8.00" fill="#1c2021">Node[290]</text>
<polyline fill="none" stroke="#2e3436" stroke-width="1.5" points="243,-182.5 297,-182.5 "/>
<text text-anchor="middle" x="270" y="-171.6" font-family="FreeSans" font-size="8.00" fill="#1c2021"> </text>
</g>
<!-- N290&#45;&gt;N288 -->
<g id="edge6" class="edge"><title>N290&#45;&gt;N288</title>
<path fill="none" stroke="#4e9a06" stroke-width="2" d="M270,-164.141C270,-153.058 270,-138.518 270,-126.236"/>
<polygon fill="#4e9a06" stroke="#4e9a06" stroke-width="2" points="270,-118.55 273.375,-126.05 270.5,-122.3 270.5,-126.05 270,-126.05 269.5,-126.05 269.5,-122.3 266.625,-126.05 270,-118.55 270,-118.55"/>
<text text-anchor="middle" x="281.5" y="-139.6" font-family="FreeSans" font-size="8.00" fill="#4e9a06">LIKES</text>
</g>
<!-- N292 -->
<g id="node10" class="node"><title>N292</title>
<path fill="#ffffff" stroke="#2e3436" stroke-width="1.5" d="M355,-164.5C355,-164.5 385,-164.5 385,-164.5 391,-164.5 397,-170.5 397,-176.5 397,-176.5 397,-188.5 397,-188.5 397,-194.5 391,-200.5 385,-200.5 385,-200.5 355,-200.5 355,-200.5 349,-200.5 343,-194.5 343,-188.5 343,-188.5 343,-176.5 343,-176.5 343,-170.5 349,-164.5 355,-164.5"/>
<text text-anchor="middle" x="370" y="-189.6" font-family="FreeSans" font-size="8.00" fill="#1c2021">Node[292]</text>
<polyline fill="none" stroke="#2e3436" stroke-width="1.5" points="343,-182.5 397,-182.5 "/>
<text text-anchor="middle" x="370" y="-171.6" font-family="FreeSans" font-size="8.00" fill="#1c2021"> </text>
</g>
<!-- N293 -->
<g id="node11" class="node"><title>N293</title>
<path fill="#ffffff" stroke="#2e3436" stroke-width="1.5" d="M446,-82.5C446,-82.5 476,-82.5 476,-82.5 482,-82.5 488,-88.5 488,-94.5 488,-94.5 488,-106.5 488,-106.5 488,-112.5 482,-118.5 476,-118.5 476,-118.5 446,-118.5 446,-118.5 440,-118.5 434,-112.5 434,-106.5 434,-106.5 434,-94.5 434,-94.5 434,-88.5 440,-82.5 446,-82.5"/>
<text text-anchor="middle" x="461" y="-107.6" font-family="FreeSans" font-size="8.00" fill="#1c2021">Node[293]</text>
<polyline fill="none" stroke="#2e3436" stroke-width="1.5" points="434,-100.5 488,-100.5 "/>
<text text-anchor="middle" x="461" y="-89.6" font-family="FreeSans" font-size="8.00" fill="#1c2021"> </text>
</g>
<!-- N296 -->
<g id="node12" class="node"><title>N296</title>
<path fill="#ffffff" stroke="#2e3436" stroke-width="1.5" d="M385,-0.5C385,-0.5 415,-0.5 415,-0.5 421,-0.5 427,-6.5 427,-12.5 427,-12.5 427,-24.5 427,-24.5 427,-30.5 421,-36.5 415,-36.5 415,-36.5 385,-36.5 385,-36.5 379,-36.5 373,-30.5 373,-24.5 373,-24.5 373,-12.5 373,-12.5 373,-6.5 379,-0.5 385,-0.5"/>
<text text-anchor="middle" x="400" y="-25.6" font-family="FreeSans" font-size="8.00" fill="#1c2021">Node[296]</text>
<polyline fill="none" stroke="#2e3436" stroke-width="1.5" points="373,-18.5 427,-18.5 "/>
<text text-anchor="middle" x="400" y="-7.6" font-family="FreeSans" font-size="8.00" fill="#1c2021"> </text>
</g>
<!-- N293&#45;&gt;N296 -->
<g id="edge7" class="edge"><title>N293&#45;&gt;N296</title>
<path fill="none" stroke="#2e3436" stroke-width="2" d="M447.764,-82.1412C438.991,-70.6361 427.377,-55.4048 417.799,-42.8423"/>
<polygon fill="#2e3436" stroke="#2e3436" stroke-width="2" points="413.001,-36.5501 420.232,-40.4677 415.672,-39.2289 417.946,-42.211 417.548,-42.5141 417.151,-42.8173 414.877,-39.8353 414.864,-44.5606 413.001,-36.5501 413.001,-36.5501"/>
<text text-anchor="middle" x="447" y="-57.6" font-family="FreeSans" font-size="8.00" fill="#2e3436">HATES</text>
</g>
<!-- N294 -->
<g id="node13" class="node"><title>N294</title>
<path fill="#ffffff" stroke="#2e3436" stroke-width="1.5" d="M468,-0.5C468,-0.5 498,-0.5 498,-0.5 504,-0.5 510,-6.5 510,-12.5 510,-12.5 510,-24.5 510,-24.5 510,-30.5 504,-36.5 498,-36.5 498,-36.5 468,-36.5 468,-36.5 462,-36.5 456,-30.5 456,-24.5 456,-24.5 456,-12.5 456,-12.5 456,-6.5 462,-0.5 468,-0.5"/>
<text text-anchor="middle" x="483" y="-25.6" font-family="FreeSans" font-size="8.00" fill="#1c2021">Node[294]</text>
<polyline fill="none" stroke="#2e3436" stroke-width="1.5" points="456,-18.5 510,-18.5 "/>
<text text-anchor="middle" x="483" y="-7.6" font-family="FreeSans" font-size="8.00" fill="#1c2021"> </text>
</g>
<!-- N293&#45;&gt;N294 -->
<g id="edge8" class="edge"><title>N293&#45;&gt;N294</title>
<path fill="none" stroke="#4e9a06" stroke-width="2" d="M465.774,-82.1412C468.85,-70.9527 472.896,-56.2404 476.294,-43.8855"/>
<polygon fill="#4e9a06" stroke="#4e9a06" stroke-width="2" points="478.311,-36.5501 479.577,-44.6766 477.799,-40.2985 476.805,-43.9142 476.322,-43.7816 475.84,-43.6491 476.835,-40.0333 473.068,-42.8867 478.311,-36.5501 478.311,-36.5501"/>
<text text-anchor="middle" x="484.5" y="-57.6" font-family="FreeSans" font-size="8.00" fill="#4e9a06">LIKES</text>
</g>
<!-- N295 -->
<g id="node14" class="node"><title>N295</title>
<path fill="#ffffff" stroke="#2e3436" stroke-width="1.5" d="M446,-164.5C446,-164.5 476,-164.5 476,-164.5 482,-164.5 488,-170.5 488,-176.5 488,-176.5 488,-188.5 488,-188.5 488,-194.5 482,-200.5 476,-200.5 476,-200.5 446,-200.5 446,-200.5 440,-200.5 434,-194.5 434,-188.5 434,-188.5 434,-176.5 434,-176.5 434,-170.5 440,-164.5 446,-164.5"/>
<text text-anchor="middle" x="461" y="-189.6" font-family="FreeSans" font-size="8.00" fill="#1c2021">Node[295]</text>
<polyline fill="none" stroke="#2e3436" stroke-width="1.5" points="434,-182.5 488,-182.5 "/>
<text text-anchor="middle" x="461" y="-171.6" font-family="FreeSans" font-size="8.00" fill="#1c2021"> </text>
</g>
<!-- N295&#45;&gt;N293 -->
<g id="edge9" class="edge"><title>N295&#45;&gt;N293</title>
<path fill="none" stroke="#4e9a06" stroke-width="2" d="M461,-164.141C461,-153.058 461,-138.518 461,-126.236"/>
<polygon fill="#4e9a06" stroke="#4e9a06" stroke-width="2" points="461,-118.55 464.375,-126.05 461.5,-122.3 461.5,-126.05 461,-126.05 460.5,-126.05 460.5,-122.3 457.625,-126.05 461,-118.55 461,-118.55"/>
<text text-anchor="middle" x="472.5" y="-139.6" font-family="FreeSans" font-size="8.00" fill="#4e9a06">LIKES</text>
</g>
<!-- N297 -->
<g id="node15" class="node"><title>N297</title>
<path fill="#ffffff" stroke="#2e3436" stroke-width="1.5" d="M533,-164.5C533,-164.5 563,-164.5 563,-164.5 569,-164.5 575,-170.5 575,-176.5 575,-176.5 575,-188.5 575,-188.5 575,-194.5 569,-200.5 563,-200.5 563,-200.5 533,-200.5 533,-200.5 527,-200.5 521,-194.5 521,-188.5 521,-188.5 521,-176.5 521,-176.5 521,-170.5 527,-164.5 533,-164.5"/>
<text text-anchor="middle" x="548" y="-189.6" font-family="FreeSans" font-size="8.00" fill="#1c2021">Node[297]</text>
<polyline fill="none" stroke="#2e3436" stroke-width="1.5" points="521,-182.5 575,-182.5 "/>
<text text-anchor="middle" x="548" y="-171.6" font-family="FreeSans" font-size="8.00" fill="#1c2021"> </text>
</g>
<!-- N298 -->
<g id="node16" class="node"><title>N298</title>
<path fill="#ffffff" stroke="#2e3436" stroke-width="1.5" d="M618,-82.5C618,-82.5 648,-82.5 648,-82.5 654,-82.5 660,-88.5 660,-94.5 660,-94.5 660,-106.5 660,-106.5 660,-112.5 654,-118.5 648,-118.5 648,-118.5 618,-118.5 618,-118.5 612,-118.5 606,-112.5 606,-106.5 606,-106.5 606,-94.5 606,-94.5 606,-88.5 612,-82.5 618,-82.5"/>
<text text-anchor="middle" x="633" y="-107.6" font-family="FreeSans" font-size="8.00" fill="#1c2021">Node[298]</text>
<polyline fill="none" stroke="#2e3436" stroke-width="1.5" points="606,-100.5 660,-100.5 "/>
<text text-anchor="middle" x="633" y="-89.6" font-family="FreeSans" font-size="8.00" fill="#1c2021"> </text>
</g>
<!-- N301 -->
<g id="node17" class="node"><title>N301</title>
<path fill="#ffffff" stroke="#2e3436" stroke-width="1.5" d="M556,-0.5C556,-0.5 586,-0.5 586,-0.5 592,-0.5 598,-6.5 598,-12.5 598,-12.5 598,-24.5 598,-24.5 598,-30.5 592,-36.5 586,-36.5 586,-36.5 556,-36.5 556,-36.5 550,-36.5 544,-30.5 544,-24.5 544,-24.5 544,-12.5 544,-12.5 544,-6.5 550,-0.5 556,-0.5"/>
<text text-anchor="middle" x="571" y="-25.6" font-family="FreeSans" font-size="8.00" fill="#1c2021">Node[301]</text>
<polyline fill="none" stroke="#2e3436" stroke-width="1.5" points="544,-18.5 598,-18.5 "/>
<text text-anchor="middle" x="571" y="-7.6" font-family="FreeSans" font-size="8.00" fill="#1c2021"> </text>
</g>
<!-- N298&#45;&gt;N301 -->
<g id="edge10" class="edge"><title>N298&#45;&gt;N301</title>
<path fill="none" stroke="#2e3436" stroke-width="2" d="M619.547,-82.1412C610.549,-70.5305 598.609,-55.125 588.823,-42.4972"/>
<polygon fill="#2e3436" stroke="#2e3436" stroke-width="2" points="584.214,-36.5501 591.476,-40.4108 586.906,-39.2079 589.203,-42.1719 588.808,-42.4782 588.413,-42.7845 586.116,-39.8205 586.14,-44.5457 584.214,-36.5501 584.214,-36.5501"/>
<text text-anchor="middle" x="618" y="-57.6" font-family="FreeSans" font-size="8.00" fill="#2e3436">HATES</text>
</g>
<!-- N299 -->
<g id="node18" class="node"><title>N299</title>
<path fill="#ffffff" stroke="#2e3436" stroke-width="1.5" d="M639,-0.5C639,-0.5 669,-0.5 669,-0.5 675,-0.5 681,-6.5 681,-12.5 681,-12.5 681,-24.5 681,-24.5 681,-30.5 675,-36.5 669,-36.5 669,-36.5 639,-36.5 639,-36.5 633,-36.5 627,-30.5 627,-24.5 627,-24.5 627,-12.5 627,-12.5 627,-6.5 633,-0.5 639,-0.5"/>
<text text-anchor="middle" x="654" y="-25.6" font-family="FreeSans" font-size="8.00" fill="#1c2021">Node[299]</text>
<polyline fill="none" stroke="#2e3436" stroke-width="1.5" points="627,-18.5 681,-18.5 "/>
<text text-anchor="middle" x="654" y="-7.6" font-family="FreeSans" font-size="8.00" fill="#1c2021"> </text>
</g>
<!-- N298&#45;&gt;N299 -->
<g id="edge11" class="edge"><title>N298&#45;&gt;N299</title>
<path fill="none" stroke="#4e9a06" stroke-width="2" d="M637.557,-82.1412C640.494,-70.9527 644.356,-56.2404 647.599,-43.8855"/>
<polygon fill="#4e9a06" stroke="#4e9a06" stroke-width="2" points="649.524,-36.5501 650.884,-44.6613 649.056,-40.3042 648.104,-43.9313 647.62,-43.8043 647.136,-43.6774 648.089,-40.0503 644.356,-42.9474 649.524,-36.5501 649.524,-36.5501"/>
<text text-anchor="middle" x="655.5" y="-57.6" font-family="FreeSans" font-size="8.00" fill="#4e9a06">LIKES</text>
</g>
<!-- N300 -->
<g id="node19" class="node"><title>N300</title>
<path fill="#ffffff" stroke="#2e3436" stroke-width="1.5" d="M618,-164.5C618,-164.5 648,-164.5 648,-164.5 654,-164.5 660,-170.5 660,-176.5 660,-176.5 660,-188.5 660,-188.5 660,-194.5 654,-200.5 648,-200.5 648,-200.5 618,-200.5 618,-200.5 612,-200.5 606,-194.5 606,-188.5 606,-188.5 606,-176.5 606,-176.5 606,-170.5 612,-164.5 618,-164.5"/>
<text text-anchor="middle" x="633" y="-189.6" font-family="FreeSans" font-size="8.00" fill="#1c2021">Node[300]</text>
<polyline fill="none" stroke="#2e3436" stroke-width="1.5" points="606,-182.5 660,-182.5 "/>
<text text-anchor="middle" x="633" y="-171.6" font-family="FreeSans" font-size="8.00" fill="#1c2021"> </text>
</g>
<!-- N300&#45;&gt;N298 -->
<g id="edge12" class="edge"><title>N300&#45;&gt;N298</title>
<path fill="none" stroke="#4e9a06" stroke-width="2" d="M633,-164.141C633,-153.058 633,-138.518 633,-126.236"/>
<polygon fill="#4e9a06" stroke="#4e9a06" stroke-width="2" points="633,-118.55 636.375,-126.05 633.5,-122.3 633.5,-126.05 633,-126.05 632.5,-126.05 632.5,-122.3 629.625,-126.05 633,-118.55 633,-118.55"/>
<text text-anchor="middle" x="644.5" y="-139.6" font-family="FreeSans" font-size="8.00" fill="#4e9a06">LIKES</text>
</g>
<!-- N302 -->
<g id="node20" class="node"><title>N302</title>
<path fill="#ffffff" stroke="#2e3436" stroke-width="1.5" d="M727,-164.5C727,-164.5 757,-164.5 757,-164.5 763,-164.5 769,-170.5 769,-176.5 769,-176.5 769,-188.5 769,-188.5 769,-194.5 763,-200.5 757,-200.5 757,-200.5 727,-200.5 727,-200.5 721,-200.5 715,-194.5 715,-188.5 715,-188.5 715,-176.5 715,-176.5 715,-170.5 721,-164.5 727,-164.5"/>
<text text-anchor="middle" x="742" y="-189.6" font-family="FreeSans" font-size="8.00" fill="#1c2021">Node[302]</text>
<polyline fill="none" stroke="#2e3436" stroke-width="1.5" points="715,-182.5 769,-182.5 "/>
<text text-anchor="middle" x="742" y="-171.6" font-family="FreeSans" font-size="8.00" fill="#1c2021"> </text>
</g>
<!-- N303 -->
<g id="node21" class="node"><title>N303</title>
<path fill="#ffffff" stroke="#2e3436" stroke-width="1.5" d="M823,-82.5C823,-82.5 853,-82.5 853,-82.5 859,-82.5 865,-88.5 865,-94.5 865,-94.5 865,-106.5 865,-106.5 865,-112.5 859,-118.5 853,-118.5 853,-118.5 823,-118.5 823,-118.5 817,-118.5 811,-112.5 811,-106.5 811,-106.5 811,-94.5 811,-94.5 811,-88.5 817,-82.5 823,-82.5"/>
<text text-anchor="middle" x="838" y="-107.6" font-family="FreeSans" font-size="8.00" fill="#1c2021">Node[303]</text>
<polyline fill="none" stroke="#2e3436" stroke-width="1.5" points="811,-100.5 865,-100.5 "/>
<text text-anchor="middle" x="838" y="-89.6" font-family="FreeSans" font-size="8.00" fill="#1c2021"> </text>
</g>
<!-- N306 -->
<g id="node22" class="node"><title>N306</title>
<path fill="#ffffff" stroke="#2e3436" stroke-width="1.5" d="M753,-0.5C753,-0.5 783,-0.5 783,-0.5 789,-0.5 795,-6.5 795,-12.5 795,-12.5 795,-24.5 795,-24.5 795,-30.5 789,-36.5 783,-36.5 783,-36.5 753,-36.5 753,-36.5 747,-36.5 741,-30.5 741,-24.5 741,-24.5 741,-12.5 741,-12.5 741,-6.5 747,-0.5 753,-0.5"/>
<text text-anchor="middle" x="768" y="-25.6" font-family="FreeSans" font-size="8.00" fill="#1c2021">Node[306]</text>
<polyline fill="none" stroke="#2e3436" stroke-width="1.5" points="741,-18.5 795,-18.5 "/>
<text text-anchor="middle" x="768" y="-7.6" font-family="FreeSans" font-size="8.00" fill="#1c2021"> </text>
</g>
<!-- N303&#45;&gt;N306 -->
<g id="edge13" class="edge"><title>N303&#45;&gt;N306</title>
<path fill="none" stroke="#2e3436" stroke-width="2" d="M822.811,-82.1412C812.652,-70.5305 799.172,-55.125 788.123,-42.4972"/>
<polygon fill="#2e3436" stroke="#2e3436" stroke-width="2" points="782.919,-36.5501 790.398,-39.972 785.765,-39.043 788.234,-41.8652 787.858,-42.1944 787.481,-42.5237 785.012,-39.7015 785.318,-44.4169 782.919,-36.5501 782.919,-36.5501"/>
<text text-anchor="middle" x="819" y="-57.6" font-family="FreeSans" font-size="8.00" fill="#2e3436">HATES</text>
</g>
<!-- N304 -->
<g id="node23" class="node"><title>N304</title>
<path fill="#ffffff" stroke="#2e3436" stroke-width="1.5" d="M836,-0.5C836,-0.5 866,-0.5 866,-0.5 872,-0.5 878,-6.5 878,-12.5 878,-12.5 878,-24.5 878,-24.5 878,-30.5 872,-36.5 866,-36.5 866,-36.5 836,-36.5 836,-36.5 830,-36.5 824,-30.5 824,-24.5 824,-24.5 824,-12.5 824,-12.5 824,-6.5 830,-0.5 836,-0.5"/>
<text text-anchor="middle" x="851" y="-25.6" font-family="FreeSans" font-size="8.00" fill="#1c2021">Node[304]</text>
<polyline fill="none" stroke="#2e3436" stroke-width="1.5" points="824,-18.5 878,-18.5 "/>
<text text-anchor="middle" x="851" y="-7.6" font-family="FreeSans" font-size="8.00" fill="#1c2021"> </text>
</g>
<!-- N303&#45;&gt;N304 -->
<g id="edge14" class="edge"><title>N303&#45;&gt;N304</title>
<path fill="none" stroke="#4e9a06" stroke-width="2" d="M840.821,-82.1412C842.622,-71.0583 844.985,-56.5177 846.98,-44.2358"/>
<polygon fill="#4e9a06" stroke="#4e9a06" stroke-width="2" points="848.229,-36.5501 850.358,-44.4944 848.121,-40.3318 847.52,-44.0332 847.026,-43.953 846.533,-43.8728 847.134,-40.1713 843.695,-43.4116 848.229,-36.5501 848.229,-36.5501"/>
<text text-anchor="middle" x="855.5" y="-57.6" font-family="FreeSans" font-size="8.00" fill="#4e9a06">LIKES</text>
</g>
<!-- N305 -->
<g id="node24" class="node"><title>N305</title>
<path fill="#ffffff" stroke="#2e3436" stroke-width="1.5" d="M823,-164.5C823,-164.5 853,-164.5 853,-164.5 859,-164.5 865,-170.5 865,-176.5 865,-176.5 865,-188.5 865,-188.5 865,-194.5 859,-200.5 853,-200.5 853,-200.5 823,-200.5 823,-200.5 817,-200.5 811,-194.5 811,-188.5 811,-188.5 811,-176.5 811,-176.5 811,-170.5 817,-164.5 823,-164.5"/>
<text text-anchor="middle" x="838" y="-189.6" font-family="FreeSans" font-size="8.00" fill="#1c2021">Node[305]</text>
<polyline fill="none" stroke="#2e3436" stroke-width="1.5" points="811,-182.5 865,-182.5 "/>
<text text-anchor="middle" x="838" y="-171.6" font-family="FreeSans" font-size="8.00" fill="#1c2021"> </text>
</g>
<!-- N305&#45;&gt;N303 -->
<g id="edge15" class="edge"><title>N305&#45;&gt;N303</title>
<path fill="none" stroke="#4e9a06" stroke-width="2" d="M838,-164.141C838,-153.058 838,-138.518 838,-126.236"/>
<polygon fill="#4e9a06" stroke="#4e9a06" stroke-width="2" points="838,-118.55 841.375,-126.05 838.5,-122.3 838.5,-126.05 838,-126.05 837.5,-126.05 837.5,-122.3 834.625,-126.05 838,-118.55 838,-118.55"/>
<text text-anchor="middle" x="849.5" y="-139.6" font-family="FreeSans" font-size="8.00" fill="#4e9a06">LIKES</text>
</g>
<!-- N307 -->
<g id="node25" class="node"><title>N307</title>
<path fill="#ffffff" stroke="#2e3436" stroke-width="1.5" d="M906,-164.5C906,-164.5 936,-164.5 936,-164.5 942,-164.5 948,-170.5 948,-176.5 948,-176.5 948,-188.5 948,-188.5 948,-194.5 942,-200.5 936,-200.5 936,-200.5 906,-200.5 906,-200.5 900,-200.5 894,-194.5 894,-188.5 894,-188.5 894,-176.5 894,-176.5 894,-170.5 900,-164.5 906,-164.5"/>
<text text-anchor="middle" x="921" y="-189.6" font-family="FreeSans" font-size="8.00" fill="#1c2021">Node[307]</text>
<polyline fill="none" stroke="#2e3436" stroke-width="1.5" points="894,-182.5 948,-182.5 "/>
<text text-anchor="middle" x="921" y="-171.6" font-family="FreeSans" font-size="8.00" fill="#1c2021"> </text>
</g>
</g>
</svg>
