<?xml version="1.0" encoding="UTF-8" standalone="no"?>
<!DOCTYPE svg PUBLIC "-//W3C//DTD SVG 1.1//EN"
 "http://www.w3.org/Graphics/SVG/1.1/DTD/svg11.dtd">
<!-- Generated by graphviz version 2.38.0 (20140413.2041)
 -->
<!-- Title: g Pages: 1 -->
<svg width="504pt" height="36pt"
 viewBox="0.00 0.00 504.00 35.67" xmlns="http://www.w3.org/2000/svg" xmlns:xlink="http://www.w3.org/1999/xlink">
<g id="graph0" class="graph" transform="scale(0.170674 0.170674) rotate(0) translate(4 205)">
<title>g</title>
<polygon fill="white" stroke="none" points="-4,4 -4,-205 2949,-205 2949,4 -4,4"/>
<!-- N283 -->
<g id="node1" class="node"><title>N283</title>
<path fill="#ffffff" stroke="#2e3436" stroke-width="1.5" d="M12,-82.5C12,-82.5 42,-82.5 42,-82.5 48,-82.5 54,-88.5 54,-94.5 54,-94.5 54,-106.5 54,-106.5 54,-112.5 48,-118.5 42,-118.5 42,-118.5 12,-118.5 12,-118.5 6,-118.5 0,-112.5 0,-106.5 0,-106.5 0,-94.5 0,-94.5 0,-88.5 6,-82.5 12,-82.5"/>
<text text-anchor="middle" x="27" y="-107.6" font-family="FreeSans" font-size="8.00" fill="#1c2021">Node[283]</text>
<polyline fill="none" stroke="#2e3436" stroke-width="1.5" points="0,-100.5 54,-100.5 "/>
<text text-anchor="middle" x="27" y="-89.6" font-family="FreeSans" font-size="8.00" fill="#1c2021"> </text>
</g>
<!-- N286 -->
<g id="node2" class="node"><title>N286</title>
<path fill="#ffffff" stroke="#2e3436" stroke-width="1.5" d="M12,-0.5C12,-0.5 42,-0.5 42,-0.5 48,-0.5 54,-6.5 54,-12.5 54,-12.5 54,-24.5 54,-24.5 54,-30.5 48,-36.5 42,-36.5 42,-36.5 12,-36.5 12,-36.5 6,-36.5 0,-30.5 0,-24.5 0,-24.5 0,-12.5 0,-12.5 0,-6.5 6,-0.5 12,-0.5"/>
<text text-anchor="middle" x="27" y="-25.6" font-family="FreeSans" font-size="8.00" fill="#1c2021">Node[286]</text>
<polyline fill="none" stroke="#2e3436" stroke-width="1.5" points="0,-18.5 54,-18.5 "/>
<text text-anchor="middle" x="27" y="-7.6" font-family="FreeSans" font-size="8.00" fill="#1c2021"> </text>
</g>
<!-- N283&#45;&gt;N286 -->
<g id="edge1" class="edge"><title>N283&#45;&gt;N286</title>
<path fill="none" stroke="#2e3436" stroke-width="2" d="M27,-82.1412C27,-71.0583 27,-56.5177 27,-44.2358"/>
<polygon fill="#2e3436" stroke="#2e3436" stroke-width="2" points="27,-36.5501 30.3751,-44.0501 27.5,-40.3001 27.5001,-44.0501 27.0001,-44.0501 26.5001,-44.0501 26.5,-40.3001 23.6251,-44.0501 27,-36.5501 27,-36.5501"/>
<text text-anchor="middle" x="41" y="-57.6" font-family="FreeSans" font-size="8.00" fill="#2e3436">HATES</text>
</g>
<!-- N284 -->
<g id="node3" class="node"><title>N284</title>
<path fill="#ffffff" stroke="#2e3436" stroke-width="1.5" d="M95,-0.5C95,-0.5 125,-0.5 125,-0.5 131,-0.5 137,-6.5 137,-12.5 137,-12.5 137,-24.5 137,-24.5 137,-30.5 131,-36.5 125,-36.5 125,-36.5 95,-36.5 95,-36.5 89,-36.5 83,-30.5 83,-24.5 83,-24.5 83,-12.5 83,-12.5 83,-6.5 89,-0.5 95,-0.5"/>
<text text-anchor="middle" x="110" y="-25.6" font-family="FreeSans" font-size="8.00" fill="#1c2021">Node[284]</text>
<polyline fill="none" stroke="#2e3436" stroke-width="1.5" points="83,-18.5 137,-18.5 "/>
<text text-anchor="middle" x="110" y="-7.6" font-family="FreeSans" font-size="8.00" fill="#1c2021"> </text>
</g>
<!-- N283&#45;&gt;N284 -->
<g id="edge2" class="edge"><title>N283&#45;&gt;N284</title>
<path fill="none" stroke="#4e9a06" stroke-width="2" d="M45.0098,-82.1412C57.2748,-70.3194 73.6216,-54.5635 86.8521,-41.8112"/>
<polygon fill="#4e9a06" stroke="#4e9a06" stroke-width="2" points="92.3105,-36.5501 89.2527,-44.185 89.9575,-39.5125 87.2575,-42.1149 86.9105,-41.7549 86.5635,-41.3949 89.2635,-38.7925 84.5683,-39.3249 92.3105,-36.5501 92.3105,-36.5501"/>
<text text-anchor="middle" x="82.5" y="-57.6" font-family="FreeSans" font-size="8.00" fill="#4e9a06">LIKES</text>
</g>
<!-- N285 -->
<g id="node4" class="node"><title>N285</title>
<path fill="#ffffff" stroke="#2e3436" stroke-width="1.5" d="M12,-164.5C12,-164.5 42,-164.5 42,-164.5 48,-164.5 54,-170.5 54,-176.5 54,-176.5 54,-188.5 54,-188.5 54,-194.5 48,-200.5 42,-200.5 42,-200.5 12,-200.5 12,-200.5 6,-200.5 0,-194.5 0,-188.5 0,-188.5 0,-176.5 0,-176.5 0,-170.5 6,-164.5 12,-164.5"/>
<text text-anchor="middle" x="27" y="-189.6" font-family="FreeSans" font-size="8.00" fill="#1c2021">Node[285]</text>
<polyline fill="none" stroke="#2e3436" stroke-width="1.5" points="0,-182.5 54,-182.5 "/>
<text text-anchor="middle" x="27" y="-171.6" font-family="FreeSans" font-size="8.00" fill="#1c2021"> </text>
</g>
<!-- N285&#45;&gt;N283 -->
<g id="edge3" class="edge"><title>N285&#45;&gt;N283</title>
<path fill="none" stroke="#4e9a06" stroke-width="2" d="M27,-164.141C27,-153.058 27,-138.518 27,-126.236"/>
<polygon fill="#4e9a06" stroke="#4e9a06" stroke-width="2" points="27,-118.55 30.3751,-126.05 27.5,-122.3 27.5001,-126.05 27.0001,-126.05 26.5001,-126.05 26.5,-122.3 23.6251,-126.05 27,-118.55 27,-118.55"/>
<text text-anchor="middle" x="38.5" y="-139.6" font-family="FreeSans" font-size="8.00" fill="#4e9a06">LIKES</text>
</g>
<!-- N287 -->
<g id="node5" class="node"><title>N287</title>
<path fill="#ffffff" stroke="#2e3436" stroke-width="1.5" d="M95,-164.5C95,-164.5 125,-164.5 125,-164.5 131,-164.5 137,-170.5 137,-176.5 137,-176.5 137,-188.5 137,-188.5 137,-194.5 131,-200.5 125,-200.5 125,-200.5 95,-200.5 95,-200.5 89,-200.5 83,-194.5 83,-188.5 83,-188.5 83,-176.5 83,-176.5 83,-170.5 89,-164.5 95,-164.5"/>
<text text-anchor="middle" x="110" y="-189.6" font-family="FreeSans" font-size="8.00" fill="#1c2021">Node[287]</text>
<polyline fill="none" stroke="#2e3436" stroke-width="1.5" points="83,-182.5 137,-182.5 "/>
<text text-anchor="middle" x="110" y="-171.6" font-family="FreeSans" font-size="8.00" fill="#1c2021"> </text>
</g>
<!-- N288 -->
<g id="node6" class="node"><title>N288</title>
<path fill="#ffffff" stroke="#2e3436" stroke-width="1.5" d="M219,-82.5C219,-82.5 249,-82.5 249,-82.5 255,-82.5 261,-88.5 261,-94.5 261,-94.5 261,-106.5 261,-106.5 261,-112.5 255,-118.5 249,-118.5 249,-118.5 219,-118.5 219,-118.5 213,-118.5 207,-112.5 207,-106.5 207,-106.5 207,-94.5 207,-94.5 207,-88.5 213,-82.5 219,-82.5"/>
<text text-anchor="middle" x="234" y="-107.6" font-family="FreeSans" font-size="8.00" fill="#1c2021">Node[288]</text>
<polyline fill="none" stroke="#2e3436" stroke-width="1.5" points="207,-100.5 261,-100.5 "/>
<text text-anchor="middle" x="234" y="-89.6" font-family="FreeSans" font-size="8.00" fill="#1c2021"> </text>
</g>
<!-- N291 -->
<g id="node7" class="node"><title>N291</title>
<path fill="#ffffff" stroke="#2e3436" stroke-width="1.5" d="M178,-0.5C178,-0.5 208,-0.5 208,-0.5 214,-0.5 220,-6.5 220,-12.5 220,-12.5 220,-24.5 220,-24.5 220,-30.5 214,-36.5 208,-36.5 208,-36.5 178,-36.5 178,-36.5 172,-36.5 166,-30.5 166,-24.5 166,-24.5 166,-12.5 166,-12.5 166,-6.5 172,-0.5 178,-0.5"/>
<text text-anchor="middle" x="193" y="-25.6" font-family="FreeSans" font-size="8.00" fill="#1c2021">Node[291]</text>
<polyline fill="none" stroke="#2e3436" stroke-width="1.5" points="166,-18.5 220,-18.5 "/>
<text text-anchor="middle" x="193" y="-7.6" font-family="FreeSans" font-size="8.00" fill="#1c2021"> </text>
</g>
<!-- N288&#45;&gt;N291 -->
<g id="edge4" class="edge"><title>N288&#45;&gt;N291</title>
<path fill="none" stroke="#2e3436" stroke-width="2" d="M222.722,-82.4709C219.105,-76.7132 215.209,-70.1768 212,-64 208.644,-57.5403 205.383,-50.3549 202.537,-43.6753"/>
<polygon fill="#2e3436" stroke="#2e3436" stroke-width="2" points="199.627,-36.6839 205.625,-42.3112 201.53,-39.9539 202.971,-43.416 202.509,-43.6081 202.047,-43.8002 200.606,-40.3382 199.393,-44.905 199.627,-36.6839 199.627,-36.6839"/>
<text text-anchor="middle" x="226" y="-57.6" font-family="FreeSans" font-size="8.00" fill="#2e3436">HATES</text>
</g>
<!-- N289 -->
<g id="node8" class="node"><title>N289</title>
<path fill="#ffffff" stroke="#2e3436" stroke-width="1.5" d="M261,-0.5C261,-0.5 291,-0.5 291,-0.5 297,-0.5 303,-6.5 303,-12.5 303,-12.5 303,-24.5 303,-24.5 303,-30.5 297,-36.5 291,-36.5 291,-36.5 261,-36.5 261,-36.5 255,-36.5 249,-30.5 249,-24.5 249,-24.5 249,-12.5 249,-12.5 249,-6.5 255,-0.5 261,-0.5"/>
<text text-anchor="middle" x="276" y="-25.6" font-family="FreeSans" font-size="8.00" fill="#1c2021">Node[289]</text>
<polyline fill="none" stroke="#2e3436" stroke-width="1.5" points="249,-18.5 303,-18.5 "/>
<text text-anchor="middle" x="276" y="-7.6" font-family="FreeSans" font-size="8.00" fill="#1c2021"> </text>
</g>
<!-- N288&#45;&gt;N289 -->
<g id="edge5" class="edge"><title>N288&#45;&gt;N289</title>
<path fill="none" stroke="#4e9a06" stroke-width="2" d="M243.113,-82.1412C249.043,-70.8472 256.857,-55.9625 263.381,-43.5365"/>
<polygon fill="#4e9a06" stroke="#4e9a06" stroke-width="2" points="267.049,-36.5501 266.551,-44.7594 265.748,-40.1028 264.005,-43.423 263.562,-43.1906 263.12,-42.9582 264.863,-39.6379 260.574,-41.6218 267.049,-36.5501 267.049,-36.5501"/>
<text text-anchor="middle" x="268.5" y="-57.6" font-family="FreeSans" font-size="8.00" fill="#4e9a06">LIKES</text>
</g>
<!-- N290 -->
<g id="node9" class="node"><title>N290</title>
<path fill="#ffffff" stroke="#2e3436" stroke-width="1.5" d="M219,-164.5C219,-164.5 249,-164.5 249,-164.5 255,-164.5 261,-170.5 261,-176.5 261,-176.5 261,-188.5 261,-188.5 261,-194.5 255,-200.5 249,-200.5 249,-200.5 219,-200.5 219,-200.5 213,-200.5 207,-194.5 207,-188.5 207,-188.5 207,-176.5 207,-176.5 207,-170.5 213,-164.5 219,-164.5"/>
<text text-anchor="middle" x="234" y="-189.6" font-family="FreeSans" font-size="8.00" fill="#1c2021">Node[290]</text>
<polyline fill="none" stroke="#2e3436" stroke-width="1.5" points="207,-182.5 261,-182.5 "/>
<text text-anchor="middle" x="234" y="-171.6" font-family="FreeSans" font-size="8.00" fill="#1c2021"> </text>
</g>
<!-- N290&#45;&gt;N288 -->
<g id="edge6" class="edge"><title>N290&#45;&gt;N288</title>
<path fill="none" stroke="#4e9a06" stroke-width="2" d="M234,-164.141C234,-153.058 234,-138.518 234,-126.236"/>
<polygon fill="#4e9a06" stroke="#4e9a06" stroke-width="2" points="234,-118.55 237.375,-126.05 234.5,-122.3 234.5,-126.05 234,-126.05 233.5,-126.05 233.5,-122.3 230.625,-126.05 234,-118.55 234,-118.55"/>
<text text-anchor="middle" x="245.5" y="-139.6" font-family="FreeSans" font-size="8.00" fill="#4e9a06">LIKES</text>
</g>
<!-- N292 -->
<g id="node10" class="node"><title>N292</title>
<path fill="#ffffff" stroke="#2e3436" stroke-width="1.5" d="M315,-164.5C315,-164.5 345,-164.5 345,-164.5 351,-164.5 357,-170.5 357,-176.5 357,-176.5 357,-188.5 357,-188.5 357,-194.5 351,-200.5 345,-200.5 345,-200.5 315,-200.5 315,-200.5 309,-200.5 303,-194.5 303,-188.5 303,-188.5 303,-176.5 303,-176.5 303,-170.5 309,-164.5 315,-164.5"/>
<text text-anchor="middle" x="330" y="-189.6" font-family="FreeSans" font-size="8.00" fill="#1c2021">Node[292]</text>
<polyline fill="none" stroke="#2e3436" stroke-width="1.5" points="303,-182.5 357,-182.5 "/>
<text text-anchor="middle" x="330" y="-171.6" font-family="FreeSans" font-size="8.00" fill="#1c2021"> </text>
</g>
<!-- N293 -->
<g id="node11" class="node"><title>N293</title>
<path fill="#ffffff" stroke="#2e3436" stroke-width="1.5" d="M404,-82.5C404,-82.5 434,-82.5 434,-82.5 440,-82.5 446,-88.5 446,-94.5 446,-94.5 446,-106.5 446,-106.5 446,-112.5 440,-118.5 434,-118.5 434,-118.5 404,-118.5 404,-118.5 398,-118.5 392,-112.5 392,-106.5 392,-106.5 392,-94.5 392,-94.5 392,-88.5 398,-82.5 404,-82.5"/>
<text text-anchor="middle" x="419" y="-107.6" font-family="FreeSans" font-size="8.00" fill="#1c2021">Node[293]</text>
<polyline fill="none" stroke="#2e3436" stroke-width="1.5" points="392,-100.5 446,-100.5 "/>
<text text-anchor="middle" x="419" y="-89.6" font-family="FreeSans" font-size="8.00" fill="#1c2021"> </text>
</g>
<!-- N296 -->
<g id="node12" class="node"><title>N296</title>
<path fill="#ffffff" stroke="#2e3436" stroke-width="1.5" d="M364,-0.5C364,-0.5 394,-0.5 394,-0.5 400,-0.5 406,-6.5 406,-12.5 406,-12.5 406,-24.5 406,-24.5 406,-30.5 400,-36.5 394,-36.5 394,-36.5 364,-36.5 364,-36.5 358,-36.5 352,-30.5 352,-24.5 352,-24.5 352,-12.5 352,-12.5 352,-6.5 358,-0.5 364,-0.5"/>
<text text-anchor="middle" x="379" y="-25.6" font-family="FreeSans" font-size="8.00" fill="#1c2021">Node[296]</text>
<polyline fill="none" stroke="#2e3436" stroke-width="1.5" points="352,-18.5 406,-18.5 "/>
<text text-anchor="middle" x="379" y="-7.6" font-family="FreeSans" font-size="8.00" fill="#1c2021"> </text>
</g>
<!-- N293&#45;&gt;N296 -->
<g id="edge7" class="edge"><title>N293&#45;&gt;N296</title>
<path fill="none" stroke="#2e3436" stroke-width="2" d="M408.285,-82.419C404.836,-76.6578 401.106,-70.1325 398,-64 394.711,-57.5061 391.471,-50.3096 388.625,-43.6303"/>
<polygon fill="#2e3436" stroke="#2e3436" stroke-width="2" points="385.706,-36.6433 391.711,-42.2631 387.613,-39.9109 389.058,-43.3712 388.597,-43.5639 388.135,-43.7566 386.69,-40.2963 385.483,-44.8647 385.706,-36.6433 385.706,-36.6433"/>
<text text-anchor="middle" x="412" y="-57.6" font-family="FreeSans" font-size="8.00" fill="#2e3436">HATES</text>
</g>
<!-- N294 -->
<g id="node13" class="node"><title>N294</title>
<path fill="#ffffff" stroke="#2e3436" stroke-width="1.5" d="M447,-0.5C447,-0.5 477,-0.5 477,-0.5 483,-0.5 489,-6.5 489,-12.5 489,-12.5 489,-24.5 489,-24.5 489,-30.5 483,-36.5 477,-36.5 477,-36.5 447,-36.5 447,-36.5 441,-36.5 435,-30.5 435,-24.5 435,-24.5 435,-12.5 435,-12.5 435,-6.5 441,-0.5 447,-0.5"/>
<text text-anchor="middle" x="462" y="-25.6" font-family="FreeSans" font-size="8.00" fill="#1c2021">Node[294]</text>
<polyline fill="none" stroke="#2e3436" stroke-width="1.5" points="435,-18.5 489,-18.5 "/>
<text text-anchor="middle" x="462" y="-7.6" font-family="FreeSans" font-size="8.00" fill="#1c2021"> </text>
</g>
<!-- N293&#45;&gt;N294 -->
<g id="edge8" class="edge"><title>N293&#45;&gt;N294</title>
<path fill="none" stroke="#4e9a06" stroke-width="2" d="M428.33,-82.1412C434.458,-70.7416 442.551,-55.6839 449.267,-43.1887"/>
<polygon fill="#4e9a06" stroke="#4e9a06" stroke-width="2" points="452.836,-36.5501 452.257,-44.7542 451.501,-40.0899 449.725,-43.393 449.285,-43.1563 448.844,-42.9196 450.62,-39.6165 446.312,-41.5584 452.836,-36.5501 452.836,-36.5501"/>
<text text-anchor="middle" x="453.5" y="-57.6" font-family="FreeSans" font-size="8.00" fill="#4e9a06">LIKES</text>
</g>
<!-- N295 -->
<g id="node14" class="node"><title>N295</title>
<path fill="#ffffff" stroke="#2e3436" stroke-width="1.5" d="M404,-164.5C404,-164.5 434,-164.5 434,-164.5 440,-164.5 446,-170.5 446,-176.5 446,-176.5 446,-188.5 446,-188.5 446,-194.5 440,-200.5 434,-200.5 434,-200.5 404,-200.5 404,-200.5 398,-200.5 392,-194.5 392,-188.5 392,-188.5 392,-176.5 392,-176.5 392,-170.5 398,-164.5 404,-164.5"/>
<text text-anchor="middle" x="419" y="-189.6" font-family="FreeSans" font-size="8.00" fill="#1c2021">Node[295]</text>
<polyline fill="none" stroke="#2e3436" stroke-width="1.5" points="392,-182.5 446,-182.5 "/>
<text text-anchor="middle" x="419" y="-171.6" font-family="FreeSans" font-size="8.00" fill="#1c2021"> </text>
</g>
<!-- N295&#45;&gt;N293 -->
<g id="edge9" class="edge"><title>N295&#45;&gt;N293</title>
<path fill="none" stroke="#4e9a06" stroke-width="2" d="M419,-164.141C419,-153.058 419,-138.518 419,-126.236"/>
<polygon fill="#4e9a06" stroke="#4e9a06" stroke-width="2" points="419,-118.55 422.375,-126.05 419.5,-122.3 419.5,-126.05 419,-126.05 418.5,-126.05 418.5,-122.3 415.625,-126.05 419,-118.55 419,-118.55"/>
<text text-anchor="middle" x="430.5" y="-139.6" font-family="FreeSans" font-size="8.00" fill="#4e9a06">LIKES</text>
</g>
<!-- N297 -->
<g id="node15" class="node"><title>N297</title>
<path fill="#ffffff" stroke="#2e3436" stroke-width="1.5" d="M512,-164.5C512,-164.5 542,-164.5 542,-164.5 548,-164.5 554,-170.5 554,-176.5 554,-176.5 554,-188.5 554,-188.5 554,-194.5 548,-200.5 542,-200.5 542,-200.5 512,-200.5 512,-200.5 506,-200.5 500,-194.5 500,-188.5 500,-188.5 500,-176.5 500,-176.5 500,-170.5 506,-164.5 512,-164.5"/>
<text text-anchor="middle" x="527" y="-189.6" font-family="FreeSans" font-size="8.00" fill="#1c2021">Node[297]</text>
<polyline fill="none" stroke="#2e3436" stroke-width="1.5" points="500,-182.5 554,-182.5 "/>
<text text-anchor="middle" x="527" y="-171.6" font-family="FreeSans" font-size="8.00" fill="#1c2021"> </text>
</g>
<!-- N298 -->
<g id="node16" class="node"><title>N298</title>
<path fill="#ffffff" stroke="#2e3436" stroke-width="1.5" d="M598,-82.5C598,-82.5 628,-82.5 628,-82.5 634,-82.5 640,-88.5 640,-94.5 640,-94.5 640,-106.5 640,-106.5 640,-112.5 634,-118.5 628,-118.5 628,-118.5 598,-118.5 598,-118.5 592,-118.5 586,-112.5 586,-106.5 586,-106.5 586,-94.5 586,-94.5 586,-88.5 592,-82.5 598,-82.5"/>
<text text-anchor="middle" x="613" y="-107.6" font-family="FreeSans" font-size="8.00" fill="#1c2021">Node[298]</text>
<polyline fill="none" stroke="#2e3436" stroke-width="1.5" points="586,-100.5 640,-100.5 "/>
<text text-anchor="middle" x="613" y="-89.6" font-family="FreeSans" font-size="8.00" fill="#1c2021"> </text>
</g>
<!-- N301 -->
<g id="node17" class="node"><title>N301</title>
<path fill="#ffffff" stroke="#2e3436" stroke-width="1.5" d="M540,-0.5C540,-0.5 570,-0.5 570,-0.5 576,-0.5 582,-6.5 582,-12.5 582,-12.5 582,-24.5 582,-24.5 582,-30.5 576,-36.5 570,-36.5 570,-36.5 540,-36.5 540,-36.5 534,-36.5 528,-30.5 528,-24.5 528,-24.5 528,-12.5 528,-12.5 528,-6.5 534,-0.5 540,-0.5"/>
<text text-anchor="middle" x="555" y="-25.6" font-family="FreeSans" font-size="8.00" fill="#1c2021">Node[301]</text>
<polyline fill="none" stroke="#2e3436" stroke-width="1.5" points="528,-18.5 582,-18.5 "/>
<text text-anchor="middle" x="555" y="-7.6" font-family="FreeSans" font-size="8.00" fill="#1c2021"> </text>
</g>
<!-- N298&#45;&gt;N301 -->
<g id="edge10" class="edge"><title>N298&#45;&gt;N301</title>
<path fill="none" stroke="#2e3436" stroke-width="2" d="M600.415,-82.1412C592.074,-70.6361 581.031,-55.4048 571.923,-42.8423"/>
<polygon fill="#2e3436" stroke="#2e3436" stroke-width="2" points="567.361,-36.5501 574.496,-40.6412 569.967,-39.2927 572.168,-42.3287 571.764,-42.6222 571.359,-42.9157 569.158,-39.8796 569.031,-44.6032 567.361,-36.5501 567.361,-36.5501"/>
<text text-anchor="middle" x="600" y="-57.6" font-family="FreeSans" font-size="8.00" fill="#2e3436">HATES</text>
</g>
<!-- N299 -->
<g id="node18" class="node"><title>N299</title>
<path fill="#ffffff" stroke="#2e3436" stroke-width="1.5" d="M623,-0.5C623,-0.5 653,-0.5 653,-0.5 659,-0.5 665,-6.5 665,-12.5 665,-12.5 665,-24.5 665,-24.5 665,-30.5 659,-36.5 653,-36.5 653,-36.5 623,-36.5 623,-36.5 617,-36.5 611,-30.5 611,-24.5 611,-24.5 611,-12.5 611,-12.5 611,-6.5 617,-0.5 623,-0.5"/>
<text text-anchor="middle" x="638" y="-25.6" font-family="FreeSans" font-size="8.00" fill="#1c2021">Node[299]</text>
<polyline fill="none" stroke="#2e3436" stroke-width="1.5" points="611,-18.5 665,-18.5 "/>
<text text-anchor="middle" x="638" y="-7.6" font-family="FreeSans" font-size="8.00" fill="#1c2021"> </text>
</g>
<!-- N298&#45;&gt;N299 -->
<g id="edge11" class="edge"><title>N298&#45;&gt;N299</title>
<path fill="none" stroke="#4e9a06" stroke-width="2" d="M618.425,-82.1412C621.921,-70.9527 626.519,-56.2404 630.38,-43.8855"/>
<polygon fill="#4e9a06" stroke="#4e9a06" stroke-width="2" points="632.672,-36.5501 633.656,-44.7154 632.031,-40.2785 630.912,-43.8578 630.435,-43.7087 629.957,-43.5596 631.076,-39.9803 627.213,-42.702 632.672,-36.5501 632.672,-36.5501"/>
<text text-anchor="middle" x="638.5" y="-57.6" font-family="FreeSans" font-size="8.00" fill="#4e9a06">LIKES</text>
</g>
<!-- N300 -->
<g id="node19" class="node"><title>N300</title>
<path fill="#ffffff" stroke="#2e3436" stroke-width="1.5" d="M598,-164.5C598,-164.5 628,-164.5 628,-164.5 634,-164.5 640,-170.5 640,-176.5 640,-176.5 640,-188.5 640,-188.5 640,-194.5 634,-200.5 628,-200.5 628,-200.5 598,-200.5 598,-200.5 592,-200.5 586,-194.5 586,-188.5 586,-188.5 586,-176.5 586,-176.5 586,-170.5 592,-164.5 598,-164.5"/>
<text text-anchor="middle" x="613" y="-189.6" font-family="FreeSans" font-size="8.00" fill="#1c2021">Node[300]</text>
<polyline fill="none" stroke="#2e3436" stroke-width="1.5" points="586,-182.5 640,-182.5 "/>
<text text-anchor="middle" x="613" y="-171.6" font-family="FreeSans" font-size="8.00" fill="#1c2021"> </text>
</g>
<!-- N300&#45;&gt;N298 -->
<g id="edge12" class="edge"><title>N300&#45;&gt;N298</title>
<path fill="none" stroke="#4e9a06" stroke-width="2" d="M613,-164.141C613,-153.058 613,-138.518 613,-126.236"/>
<polygon fill="#4e9a06" stroke="#4e9a06" stroke-width="2" points="613,-118.55 616.375,-126.05 613.5,-122.3 613.5,-126.05 613,-126.05 612.5,-126.05 612.5,-122.3 609.625,-126.05 613,-118.55 613,-118.55"/>
<text text-anchor="middle" x="624.5" y="-139.6" font-family="FreeSans" font-size="8.00" fill="#4e9a06">LIKES</text>
</g>
<!-- N302 -->
<g id="node20" class="node"><title>N302</title>
<path fill="#ffffff" stroke="#2e3436" stroke-width="1.5" d="M683,-164.5C683,-164.5 713,-164.5 713,-164.5 719,-164.5 725,-170.5 725,-176.5 725,-176.5 725,-188.5 725,-188.5 725,-194.5 719,-200.5 713,-200.5 713,-200.5 683,-200.5 683,-200.5 677,-200.5 671,-194.5 671,-188.5 671,-188.5 671,-176.5 671,-176.5 671,-170.5 677,-164.5 683,-164.5"/>
<text text-anchor="middle" x="698" y="-189.6" font-family="FreeSans" font-size="8.00" fill="#1c2021">Node[302]</text>
<polyline fill="none" stroke="#2e3436" stroke-width="1.5" points="671,-182.5 725,-182.5 "/>
<text text-anchor="middle" x="698" y="-171.6" font-family="FreeSans" font-size="8.00" fill="#1c2021"> </text>
</g>
<!-- N303 -->
<g id="node21" class="node"><title>N303</title>
<path fill="#ffffff" stroke="#2e3436" stroke-width="1.5" d="M768,-82.5C768,-82.5 798,-82.5 798,-82.5 804,-82.5 810,-88.5 810,-94.5 810,-94.5 810,-106.5 810,-106.5 810,-112.5 804,-118.5 798,-118.5 798,-118.5 768,-118.5 768,-118.5 762,-118.5 756,-112.5 756,-106.5 756,-106.5 756,-94.5 756,-94.5 756,-88.5 762,-82.5 768,-82.5"/>
<text text-anchor="middle" x="783" y="-107.6" font-family="FreeSans" font-size="8.00" fill="#1c2021">Node[303]</text>
<polyline fill="none" stroke="#2e3436" stroke-width="1.5" points="756,-100.5 810,-100.5 "/>
<text text-anchor="middle" x="783" y="-89.6" font-family="FreeSans" font-size="8.00" fill="#1c2021"> </text>
</g>
<!-- N306 -->
<g id="node22" class="node"><title>N306</title>
<path fill="#ffffff" stroke="#2e3436" stroke-width="1.5" d="M706,-0.5C706,-0.5 736,-0.5 736,-0.5 742,-0.5 748,-6.5 748,-12.5 748,-12.5 748,-24.5 748,-24.5 748,-30.5 742,-36.5 736,-36.5 736,-36.5 706,-36.5 706,-36.5 700,-36.5 694,-30.5 694,-24.5 694,-24.5 694,-12.5 694,-12.5 694,-6.5 700,-0.5 706,-0.5"/>
<text text-anchor="middle" x="721" y="-25.6" font-family="FreeSans" font-size="8.00" fill="#1c2021">Node[306]</text>
<polyline fill="none" stroke="#2e3436" stroke-width="1.5" points="694,-18.5 748,-18.5 "/>
<text text-anchor="middle" x="721" y="-7.6" font-family="FreeSans" font-size="8.00" fill="#1c2021"> </text>
</g>
<!-- N303&#45;&gt;N306 -->
<g id="edge13" class="edge"><title>N303&#45;&gt;N306</title>
<path fill="none" stroke="#2e3436" stroke-width="2" d="M769.547,-82.1412C760.549,-70.5305 748.609,-55.125 738.823,-42.4972"/>
<polygon fill="#2e3436" stroke="#2e3436" stroke-width="2" points="734.214,-36.5501 741.476,-40.4108 736.906,-39.2079 739.203,-42.1719 738.808,-42.4782 738.413,-42.7845 736.116,-39.8205 736.14,-44.5457 734.214,-36.5501 734.214,-36.5501"/>
<text text-anchor="middle" x="768" y="-57.6" font-family="FreeSans" font-size="8.00" fill="#2e3436">HATES</text>
</g>
<!-- N304 -->
<g id="node23" class="node"><title>N304</title>
<path fill="#ffffff" stroke="#2e3436" stroke-width="1.5" d="M789,-0.5C789,-0.5 819,-0.5 819,-0.5 825,-0.5 831,-6.5 831,-12.5 831,-12.5 831,-24.5 831,-24.5 831,-30.5 825,-36.5 819,-36.5 819,-36.5 789,-36.5 789,-36.5 783,-36.5 777,-30.5 777,-24.5 777,-24.5 777,-12.5 777,-12.5 777,-6.5 783,-0.5 789,-0.5"/>
<text text-anchor="middle" x="804" y="-25.6" font-family="FreeSans" font-size="8.00" fill="#1c2021">Node[304]</text>
<polyline fill="none" stroke="#2e3436" stroke-width="1.5" points="777,-18.5 831,-18.5 "/>
<text text-anchor="middle" x="804" y="-7.6" font-family="FreeSans" font-size="8.00" fill="#1c2021"> </text>
</g>
<!-- N303&#45;&gt;N304 -->
<g id="edge14" class="edge"><title>N303&#45;&gt;N304</title>
<path fill="none" stroke="#4e9a06" stroke-width="2" d="M787.557,-82.1412C790.494,-70.9527 794.356,-56.2404 797.599,-43.8855"/>
<polygon fill="#4e9a06" stroke="#4e9a06" stroke-width="2" points="799.524,-36.5501 800.884,-44.6613 799.056,-40.3042 798.104,-43.9313 797.62,-43.8043 797.136,-43.6774 798.089,-40.0503 794.356,-42.9474 799.524,-36.5501 799.524,-36.5501"/>
<text text-anchor="middle" x="806.5" y="-57.6" font-family="FreeSans" font-size="8.00" fill="#4e9a06">LIKES</text>
</g>
<!-- N305 -->
<g id="node24" class="node"><title>N305</title>
<path fill="#ffffff" stroke="#2e3436" stroke-width="1.5" d="M768,-164.5C768,-164.5 798,-164.5 798,-164.5 804,-164.5 810,-170.5 810,-176.5 810,-176.5 810,-188.5 810,-188.5 810,-194.5 804,-200.5 798,-200.5 798,-200.5 768,-200.5 768,-200.5 762,-200.5 756,-194.5 756,-188.5 756,-188.5 756,-176.5 756,-176.5 756,-170.5 762,-164.5 768,-164.5"/>
<text text-anchor="middle" x="783" y="-189.6" font-family="FreeSans" font-size="8.00" fill="#1c2021">Node[305]</text>
<polyline fill="none" stroke="#2e3436" stroke-width="1.5" points="756,-182.5 810,-182.5 "/>
<text text-anchor="middle" x="783" y="-171.6" font-family="FreeSans" font-size="8.00" fill="#1c2021"> </text>
</g>
<!-- N305&#45;&gt;N303 -->
<g id="edge15" class="edge"><title>N305&#45;&gt;N303</title>
<path fill="none" stroke="#4e9a06" stroke-width="2" d="M783,-164.141C783,-153.058 783,-138.518 783,-126.236"/>
<polygon fill="#4e9a06" stroke="#4e9a06" stroke-width="2" points="783,-118.55 786.375,-126.05 783.5,-122.3 783.5,-126.05 783,-126.05 782.5,-126.05 782.5,-122.3 779.625,-126.05 783,-118.55 783,-118.55"/>
<text text-anchor="middle" x="794.5" y="-139.6" font-family="FreeSans" font-size="8.00" fill="#4e9a06">LIKES</text>
</g>
<!-- N307 -->
<g id="node25" class="node"><title>N307</title>
<path fill="#ffffff" stroke="#2e3436" stroke-width="1.5" d="M864,-164.5C864,-164.5 894,-164.5 894,-164.5 900,-164.5 906,-170.5 906,-176.5 906,-176.5 906,-188.5 906,-188.5 906,-194.5 900,-200.5 894,-200.5 894,-200.5 864,-200.5 864,-200.5 858,-200.5 852,-194.5 852,-188.5 852,-188.5 852,-176.5 852,-176.5 852,-170.5 858,-164.5 864,-164.5"/>
<text text-anchor="middle" x="879" y="-189.6" font-family="FreeSans" font-size="8.00" fill="#1c2021">Node[307]</text>
<polyline fill="none" stroke="#2e3436" stroke-width="1.5" points="852,-182.5 906,-182.5 "/>
<text text-anchor="middle" x="879" y="-171.6" font-family="FreeSans" font-size="8.00" fill="#1c2021"> </text>
</g>
<!-- N308 -->
<g id="node26" class="node"><title>N308</title>
<path fill="#ffffff" stroke="#2e3436" stroke-width="1.5" d="M953,-82.5C953,-82.5 983,-82.5 983,-82.5 989,-82.5 995,-88.5 995,-94.5 995,-94.5 995,-106.5 995,-106.5 995,-112.5 989,-118.5 983,-118.5 983,-118.5 953,-118.5 953,-118.5 947,-118.5 941,-112.5 941,-106.5 941,-106.5 941,-94.5 941,-94.5 941,-88.5 947,-82.5 953,-82.5"/>
<text text-anchor="middle" x="968" y="-107.6" font-family="FreeSans" font-size="8.00" fill="#1c2021">Node[308]</text>
<polyline fill="none" stroke="#2e3436" stroke-width="1.5" points="941,-100.5 995,-100.5 "/>
<text text-anchor="middle" x="968" y="-89.6" font-family="FreeSans" font-size="8.00" fill="#1c2021"> </text>
</g>
<!-- N311 -->
<g id="node27" class="node"><title>N311</title>
<path fill="#ffffff" stroke="#2e3436" stroke-width="1.5" d="M877,-0.5C877,-0.5 907,-0.5 907,-0.5 913,-0.5 919,-6.5 919,-12.5 919,-12.5 919,-24.5 919,-24.5 919,-30.5 913,-36.5 907,-36.5 907,-36.5 877,-36.5 877,-36.5 871,-36.5 865,-30.5 865,-24.5 865,-24.5 865,-12.5 865,-12.5 865,-6.5 871,-0.5 877,-0.5"/>
<text text-anchor="middle" x="892" y="-25.6" font-family="FreeSans" font-size="8.00" fill="#1c2021">Node[311]</text>
<polyline fill="none" stroke="#2e3436" stroke-width="1.5" points="865,-18.5 919,-18.5 "/>
<text text-anchor="middle" x="892" y="-7.6" font-family="FreeSans" font-size="8.00" fill="#1c2021"> </text>
</g>
<!-- N308&#45;&gt;N311 -->
<g id="edge16" class="edge"><title>N308&#45;&gt;N311</title>
<path fill="none" stroke="#2e3436" stroke-width="2" d="M951.509,-82.1412C940.379,-70.425 925.577,-54.8446 913.521,-42.1535"/>
<polygon fill="#2e3436" stroke="#2e3436" stroke-width="2" points="908.198,-36.5501 915.81,-39.6631 911.143,-38.9245 913.726,-41.6432 913.363,-41.9876 913.001,-42.332 910.418,-39.6132 910.916,-44.3122 908.198,-36.5501 908.198,-36.5501"/>
<text text-anchor="middle" x="947" y="-57.6" font-family="FreeSans" font-size="8.00" fill="#2e3436">HATES</text>
</g>
<!-- N309 -->
<g id="node28" class="node"><title>N309</title>
<path fill="#ffffff" stroke="#2e3436" stroke-width="1.5" d="M960,-0.5C960,-0.5 990,-0.5 990,-0.5 996,-0.5 1002,-6.5 1002,-12.5 1002,-12.5 1002,-24.5 1002,-24.5 1002,-30.5 996,-36.5 990,-36.5 990,-36.5 960,-36.5 960,-36.5 954,-36.5 948,-30.5 948,-24.5 948,-24.5 948,-12.5 948,-12.5 948,-6.5 954,-0.5 960,-0.5"/>
<text text-anchor="middle" x="975" y="-25.6" font-family="FreeSans" font-size="8.00" fill="#1c2021">Node[309]</text>
<polyline fill="none" stroke="#2e3436" stroke-width="1.5" points="948,-18.5 1002,-18.5 "/>
<text text-anchor="middle" x="975" y="-7.6" font-family="FreeSans" font-size="8.00" fill="#1c2021"> </text>
</g>
<!-- N308&#45;&gt;N309 -->
<g id="edge17" class="edge"><title>N308&#45;&gt;N309</title>
<path fill="none" stroke="#4e9a06" stroke-width="2" d="M969.519,-82.1412C970.489,-71.0583 971.761,-56.5177 972.836,-44.2358"/>
<polygon fill="#4e9a06" stroke="#4e9a06" stroke-width="2" points="973.508,-36.5501 976.216,-44.3158 973.679,-40.3294 973.352,-44.0651 972.854,-44.0216 972.356,-43.978 972.683,-40.2422 969.492,-43.7273 973.508,-36.5501 973.508,-36.5501"/>
<text text-anchor="middle" x="983.5" y="-57.6" font-family="FreeSans" font-size="8.00" fill="#4e9a06">LIKES</text>
</g>
<!-- N310 -->
<g id="node29" class="node"><title>N310</title>
<path fill="#ffffff" stroke="#2e3436" stroke-width="1.5" d="M953,-164.5C953,-164.5 983,-164.5 983,-164.5 989,-164.5 995,-170.5 995,-176.5 995,-176.5 995,-188.5 995,-188.5 995,-194.5 989,-200.5 983,-200.5 983,-200.5 953,-200.5 953,-200.5 947,-200.5 941,-194.5 941,-188.5 941,-188.5 941,-176.5 941,-176.5 941,-170.5 947,-164.5 953,-164.5"/>
<text text-anchor="middle" x="968" y="-189.6" font-family="FreeSans" font-size="8.00" fill="#1c2021">Node[310]</text>
<polyline fill="none" stroke="#2e3436" stroke-width="1.5" points="941,-182.5 995,-182.5 "/>
<text text-anchor="middle" x="968" y="-171.6" font-family="FreeSans" font-size="8.00" fill="#1c2021"> </text>
</g>
<!-- N310&#45;&gt;N308 -->
<g id="edge18" class="edge"><title>N310&#45;&gt;N308</title>
<path fill="none" stroke="#4e9a06" stroke-width="2" d="M968,-164.141C968,-153.058 968,-138.518 968,-126.236"/>
<polygon fill="#4e9a06" stroke="#4e9a06" stroke-width="2" points="968,-118.55 971.375,-126.05 968.5,-122.3 968.5,-126.05 968,-126.05 967.5,-126.05 967.5,-122.3 964.625,-126.05 968,-118.55 968,-118.55"/>
<text text-anchor="middle" x="979.5" y="-139.6" font-family="FreeSans" font-size="8.00" fill="#4e9a06">LIKES</text>
</g>
<!-- N312 -->
<g id="node30" class="node"><title>N312</title>
<path fill="#ffffff" stroke="#2e3436" stroke-width="1.5" d="M1044,-164.5C1044,-164.5 1074,-164.5 1074,-164.5 1080,-164.5 1086,-170.5 1086,-176.5 1086,-176.5 1086,-188.5 1086,-188.5 1086,-194.5 1080,-200.5 1074,-200.5 1074,-200.5 1044,-200.5 1044,-200.5 1038,-200.5 1032,-194.5 1032,-188.5 1032,-188.5 1032,-176.5 1032,-176.5 1032,-170.5 1038,-164.5 1044,-164.5"/>
<text text-anchor="middle" x="1059" y="-189.6" font-family="FreeSans" font-size="8.00" fill="#1c2021">Node[312]</text>
<polyline fill="none" stroke="#2e3436" stroke-width="1.5" points="1032,-182.5 1086,-182.5 "/>
<text text-anchor="middle" x="1059" y="-171.6" font-family="FreeSans" font-size="8.00" fill="#1c2021"> </text>
</g>
<!-- N313 -->
<g id="node31" class="node"><title>N313</title>
<path fill="#ffffff" stroke="#2e3436" stroke-width="1.5" d="M1131,-82.5C1131,-82.5 1161,-82.5 1161,-82.5 1167,-82.5 1173,-88.5 1173,-94.5 1173,-94.5 1173,-106.5 1173,-106.5 1173,-112.5 1167,-118.5 1161,-118.5 1161,-118.5 1131,-118.5 1131,-118.5 1125,-118.5 1119,-112.5 1119,-106.5 1119,-106.5 1119,-94.5 1119,-94.5 1119,-88.5 1125,-82.5 1131,-82.5"/>
<text text-anchor="middle" x="1146" y="-107.6" font-family="FreeSans" font-size="8.00" fill="#1c2021">Node[313]</text>
<polyline fill="none" stroke="#2e3436" stroke-width="1.5" points="1119,-100.5 1173,-100.5 "/>
<text text-anchor="middle" x="1146" y="-89.6" font-family="FreeSans" font-size="8.00" fill="#1c2021"> </text>
</g>
<!-- N316 -->
<g id="node32" class="node"><title>N316</title>
<path fill="#ffffff" stroke="#2e3436" stroke-width="1.5" d="M1053,-0.5C1053,-0.5 1083,-0.5 1083,-0.5 1089,-0.5 1095,-6.5 1095,-12.5 1095,-12.5 1095,-24.5 1095,-24.5 1095,-30.5 1089,-36.5 1083,-36.5 1083,-36.5 1053,-36.5 1053,-36.5 1047,-36.5 1041,-30.5 1041,-24.5 1041,-24.5 1041,-12.5 1041,-12.5 1041,-6.5 1047,-0.5 1053,-0.5"/>
<text text-anchor="middle" x="1068" y="-25.6" font-family="FreeSans" font-size="8.00" fill="#1c2021">Node[316]</text>
<polyline fill="none" stroke="#2e3436" stroke-width="1.5" points="1041,-18.5 1095,-18.5 "/>
<text text-anchor="middle" x="1068" y="-7.6" font-family="FreeSans" font-size="8.00" fill="#1c2021"> </text>
</g>
<!-- N313&#45;&gt;N316 -->
<g id="edge19" class="edge"><title>N313&#45;&gt;N316</title>
<path fill="none" stroke="#2e3436" stroke-width="2" d="M1129.08,-82.1412C1117.65,-70.425 1102.46,-54.8446 1090.09,-42.1535"/>
<polygon fill="#2e3436" stroke="#2e3436" stroke-width="2" points="1084.62,-36.5501 1092.28,-39.564 1087.6,-38.8861 1090.22,-41.5711 1089.86,-41.9201 1089.5,-42.2692 1086.88,-39.5842 1087.44,-44.2762 1084.62,-36.5501 1084.62,-36.5501"/>
<text text-anchor="middle" x="1124" y="-57.6" font-family="FreeSans" font-size="8.00" fill="#2e3436">HATES</text>
</g>
<!-- N314 -->
<g id="node33" class="node"><title>N314</title>
<path fill="#ffffff" stroke="#2e3436" stroke-width="1.5" d="M1136,-0.5C1136,-0.5 1166,-0.5 1166,-0.5 1172,-0.5 1178,-6.5 1178,-12.5 1178,-12.5 1178,-24.5 1178,-24.5 1178,-30.5 1172,-36.5 1166,-36.5 1166,-36.5 1136,-36.5 1136,-36.5 1130,-36.5 1124,-30.5 1124,-24.5 1124,-24.5 1124,-12.5 1124,-12.5 1124,-6.5 1130,-0.5 1136,-0.5"/>
<text text-anchor="middle" x="1151" y="-25.6" font-family="FreeSans" font-size="8.00" fill="#1c2021">Node[314]</text>
<polyline fill="none" stroke="#2e3436" stroke-width="1.5" points="1124,-18.5 1178,-18.5 "/>
<text text-anchor="middle" x="1151" y="-7.6" font-family="FreeSans" font-size="8.00" fill="#1c2021"> </text>
</g>
<!-- N313&#45;&gt;N314 -->
<g id="edge20" class="edge"><title>N313&#45;&gt;N314</title>
<path fill="none" stroke="#4e9a06" stroke-width="2" d="M1147.08,-82.1412C1147.78,-71.0583 1148.69,-56.5177 1149.45,-44.2358"/>
<polygon fill="#4e9a06" stroke="#4e9a06" stroke-width="2" points="1149.93,-36.5501 1152.83,-44.2461 1150.2,-40.324 1149.97,-44.0667 1149.47,-44.0355 1148.97,-44.0043 1149.2,-40.2616 1146.1,-43.8249 1149.93,-36.5501 1149.93,-36.5501"/>
<text text-anchor="middle" x="1160.5" y="-57.6" font-family="FreeSans" font-size="8.00" fill="#4e9a06">LIKES</text>
</g>
<!-- N315 -->
<g id="node34" class="node"><title>N315</title>
<path fill="#ffffff" stroke="#2e3436" stroke-width="1.5" d="M1131,-164.5C1131,-164.5 1161,-164.5 1161,-164.5 1167,-164.5 1173,-170.5 1173,-176.5 1173,-176.5 1173,-188.5 1173,-188.5 1173,-194.5 1167,-200.5 1161,-200.5 1161,-200.5 1131,-200.5 1131,-200.5 1125,-200.5 1119,-194.5 1119,-188.5 1119,-188.5 1119,-176.5 1119,-176.5 1119,-170.5 1125,-164.5 1131,-164.5"/>
<text text-anchor="middle" x="1146" y="-189.6" font-family="FreeSans" font-size="8.00" fill="#1c2021">Node[315]</text>
<polyline fill="none" stroke="#2e3436" stroke-width="1.5" points="1119,-182.5 1173,-182.5 "/>
<text text-anchor="middle" x="1146" y="-171.6" font-family="FreeSans" font-size="8.00" fill="#1c2021"> </text>
</g>
<!-- N315&#45;&gt;N313 -->
<g id="edge21" class="edge"><title>N315&#45;&gt;N313</title>
<path fill="none" stroke="#4e9a06" stroke-width="2" d="M1146,-164.141C1146,-153.058 1146,-138.518 1146,-126.236"/>
<polygon fill="#4e9a06" stroke="#4e9a06" stroke-width="2" points="1146,-118.55 1149.38,-126.05 1146.5,-122.3 1146.5,-126.05 1146,-126.05 1145.5,-126.05 1145.5,-122.3 1142.63,-126.05 1146,-118.55 1146,-118.55"/>
<text text-anchor="middle" x="1157.5" y="-139.6" font-family="FreeSans" font-size="8.00" fill="#4e9a06">LIKES</text>
</g>
<!-- N317 -->
<g id="node35" class="node"><title>N317</title>
<path fill="#ffffff" stroke="#2e3436" stroke-width="1.5" d="M1214,-164.5C1214,-164.5 1244,-164.5 1244,-164.5 1250,-164.5 1256,-170.5 1256,-176.5 1256,-176.5 1256,-188.5 1256,-188.5 1256,-194.5 1250,-200.5 1244,-200.5 1244,-200.5 1214,-200.5 1214,-200.5 1208,-200.5 1202,-194.5 1202,-188.5 1202,-188.5 1202,-176.5 1202,-176.5 1202,-170.5 1208,-164.5 1214,-164.5"/>
<text text-anchor="middle" x="1229" y="-189.6" font-family="FreeSans" font-size="8.00" fill="#1c2021">Node[317]</text>
<polyline fill="none" stroke="#2e3436" stroke-width="1.5" points="1202,-182.5 1256,-182.5 "/>
<text text-anchor="middle" x="1229" y="-171.6" font-family="FreeSans" font-size="8.00" fill="#1c2021"> </text>
</g>
<!-- N318 -->
<g id="node36" class="node"><title>N318</title>
<path fill="#ffffff" stroke="#2e3436" stroke-width="1.5" d="M1297,-82.5C1297,-82.5 1327,-82.5 1327,-82.5 1333,-82.5 1339,-88.5 1339,-94.5 1339,-94.5 1339,-106.5 1339,-106.5 1339,-112.5 1333,-118.5 1327,-118.5 1327,-118.5 1297,-118.5 1297,-118.5 1291,-118.5 1285,-112.5 1285,-106.5 1285,-106.5 1285,-94.5 1285,-94.5 1285,-88.5 1291,-82.5 1297,-82.5"/>
<text text-anchor="middle" x="1312" y="-107.6" font-family="FreeSans" font-size="8.00" fill="#1c2021">Node[318]</text>
<polyline fill="none" stroke="#2e3436" stroke-width="1.5" points="1285,-100.5 1339,-100.5 "/>
<text text-anchor="middle" x="1312" y="-89.6" font-family="FreeSans" font-size="8.00" fill="#1c2021"> </text>
</g>
<!-- N321 -->
<g id="node37" class="node"><title>N321</title>
<path fill="#ffffff" stroke="#2e3436" stroke-width="1.5" d="M1256,-0.5C1256,-0.5 1286,-0.5 1286,-0.5 1292,-0.5 1298,-6.5 1298,-12.5 1298,-12.5 1298,-24.5 1298,-24.5 1298,-30.5 1292,-36.5 1286,-36.5 1286,-36.5 1256,-36.5 1256,-36.5 1250,-36.5 1244,-30.5 1244,-24.5 1244,-24.5 1244,-12.5 1244,-12.5 1244,-6.5 1250,-0.5 1256,-0.5"/>
<text text-anchor="middle" x="1271" y="-25.6" font-family="FreeSans" font-size="8.00" fill="#1c2021">Node[321]</text>
<polyline fill="none" stroke="#2e3436" stroke-width="1.5" points="1244,-18.5 1298,-18.5 "/>
<text text-anchor="middle" x="1271" y="-7.6" font-family="FreeSans" font-size="8.00" fill="#1c2021"> </text>
</g>
<!-- N318&#45;&gt;N321 -->
<g id="edge22" class="edge"><title>N318&#45;&gt;N321</title>
<path fill="none" stroke="#2e3436" stroke-width="2" d="M1300.72,-82.4709C1297.11,-76.7132 1293.21,-70.1768 1290,-64 1286.64,-57.5403 1283.38,-50.3549 1280.54,-43.6753"/>
<polygon fill="#2e3436" stroke="#2e3436" stroke-width="2" points="1277.63,-36.6839 1283.62,-42.3112 1279.53,-39.9539 1280.97,-43.416 1280.51,-43.6081 1280.05,-43.8002 1278.61,-40.3382 1277.39,-44.905 1277.63,-36.6839 1277.63,-36.6839"/>
<text text-anchor="middle" x="1304" y="-57.6" font-family="FreeSans" font-size="8.00" fill="#2e3436">HATES</text>
</g>
<!-- N319 -->
<g id="node38" class="node"><title>N319</title>
<path fill="#ffffff" stroke="#2e3436" stroke-width="1.5" d="M1339,-0.5C1339,-0.5 1369,-0.5 1369,-0.5 1375,-0.5 1381,-6.5 1381,-12.5 1381,-12.5 1381,-24.5 1381,-24.5 1381,-30.5 1375,-36.5 1369,-36.5 1369,-36.5 1339,-36.5 1339,-36.5 1333,-36.5 1327,-30.5 1327,-24.5 1327,-24.5 1327,-12.5 1327,-12.5 1327,-6.5 1333,-0.5 1339,-0.5"/>
<text text-anchor="middle" x="1354" y="-25.6" font-family="FreeSans" font-size="8.00" fill="#1c2021">Node[319]</text>
<polyline fill="none" stroke="#2e3436" stroke-width="1.5" points="1327,-18.5 1381,-18.5 "/>
<text text-anchor="middle" x="1354" y="-7.6" font-family="FreeSans" font-size="8.00" fill="#1c2021"> </text>
</g>
<!-- N318&#45;&gt;N319 -->
<g id="edge23" class="edge"><title>N318&#45;&gt;N319</title>
<path fill="none" stroke="#4e9a06" stroke-width="2" d="M1321.11,-82.1412C1327.04,-70.8472 1334.86,-55.9625 1341.38,-43.5365"/>
<polygon fill="#4e9a06" stroke="#4e9a06" stroke-width="2" points="1345.05,-36.5501 1344.55,-44.7594 1343.75,-40.1028 1342.01,-43.423 1341.56,-43.1906 1341.12,-42.9582 1342.86,-39.6379 1338.57,-41.6218 1345.05,-36.5501 1345.05,-36.5501"/>
<text text-anchor="middle" x="1346.5" y="-57.6" font-family="FreeSans" font-size="8.00" fill="#4e9a06">LIKES</text>
</g>
<!-- N320 -->
<g id="node39" class="node"><title>N320</title>
<path fill="#ffffff" stroke="#2e3436" stroke-width="1.5" d="M1297,-164.5C1297,-164.5 1327,-164.5 1327,-164.5 1333,-164.5 1339,-170.5 1339,-176.5 1339,-176.5 1339,-188.5 1339,-188.5 1339,-194.5 1333,-200.5 1327,-200.5 1327,-200.5 1297,-200.5 1297,-200.5 1291,-200.5 1285,-194.5 1285,-188.5 1285,-188.5 1285,-176.5 1285,-176.5 1285,-170.5 1291,-164.5 1297,-164.5"/>
<text text-anchor="middle" x="1312" y="-189.6" font-family="FreeSans" font-size="8.00" fill="#1c2021">Node[320]</text>
<polyline fill="none" stroke="#2e3436" stroke-width="1.5" points="1285,-182.5 1339,-182.5 "/>
<text text-anchor="middle" x="1312" y="-171.6" font-family="FreeSans" font-size="8.00" fill="#1c2021"> </text>
</g>
<!-- N320&#45;&gt;N318 -->
<g id="edge24" class="edge"><title>N320&#45;&gt;N318</title>
<path fill="none" stroke="#4e9a06" stroke-width="2" d="M1312,-164.141C1312,-153.058 1312,-138.518 1312,-126.236"/>
<polygon fill="#4e9a06" stroke="#4e9a06" stroke-width="2" points="1312,-118.55 1315.38,-126.05 1312.5,-122.3 1312.5,-126.05 1312,-126.05 1311.5,-126.05 1311.5,-122.3 1308.63,-126.05 1312,-118.55 1312,-118.55"/>
<text text-anchor="middle" x="1323.5" y="-139.6" font-family="FreeSans" font-size="8.00" fill="#4e9a06">LIKES</text>
</g>
<!-- N322 -->
<g id="node40" class="node"><title>N322</title>
<path fill="#ffffff" stroke="#2e3436" stroke-width="1.5" d="M1411,-164.5C1411,-164.5 1441,-164.5 1441,-164.5 1447,-164.5 1453,-170.5 1453,-176.5 1453,-176.5 1453,-188.5 1453,-188.5 1453,-194.5 1447,-200.5 1441,-200.5 1441,-200.5 1411,-200.5 1411,-200.5 1405,-200.5 1399,-194.5 1399,-188.5 1399,-188.5 1399,-176.5 1399,-176.5 1399,-170.5 1405,-164.5 1411,-164.5"/>
<text text-anchor="middle" x="1426" y="-189.6" font-family="FreeSans" font-size="8.00" fill="#1c2021">Node[322]</text>
<polyline fill="none" stroke="#2e3436" stroke-width="1.5" points="1399,-182.5 1453,-182.5 "/>
<text text-anchor="middle" x="1426" y="-171.6" font-family="FreeSans" font-size="8.00" fill="#1c2021"> </text>
</g>
<!-- N323 -->
<g id="node41" class="node"><title>N323</title>
<path fill="#ffffff" stroke="#2e3436" stroke-width="1.5" d="M1509,-82.5C1509,-82.5 1539,-82.5 1539,-82.5 1545,-82.5 1551,-88.5 1551,-94.5 1551,-94.5 1551,-106.5 1551,-106.5 1551,-112.5 1545,-118.5 1539,-118.5 1539,-118.5 1509,-118.5 1509,-118.5 1503,-118.5 1497,-112.5 1497,-106.5 1497,-106.5 1497,-94.5 1497,-94.5 1497,-88.5 1503,-82.5 1509,-82.5"/>
<text text-anchor="middle" x="1524" y="-107.6" font-family="FreeSans" font-size="8.00" fill="#1c2021">Node[323]</text>
<polyline fill="none" stroke="#2e3436" stroke-width="1.5" points="1497,-100.5 1551,-100.5 "/>
<text text-anchor="middle" x="1524" y="-89.6" font-family="FreeSans" font-size="8.00" fill="#1c2021"> </text>
</g>
<!-- N326 -->
<g id="node42" class="node"><title>N326</title>
<path fill="#ffffff" stroke="#2e3436" stroke-width="1.5" d="M1442,-0.5C1442,-0.5 1472,-0.5 1472,-0.5 1478,-0.5 1484,-6.5 1484,-12.5 1484,-12.5 1484,-24.5 1484,-24.5 1484,-30.5 1478,-36.5 1472,-36.5 1472,-36.5 1442,-36.5 1442,-36.5 1436,-36.5 1430,-30.5 1430,-24.5 1430,-24.5 1430,-12.5 1430,-12.5 1430,-6.5 1436,-0.5 1442,-0.5"/>
<text text-anchor="middle" x="1457" y="-25.6" font-family="FreeSans" font-size="8.00" fill="#1c2021">Node[326]</text>
<polyline fill="none" stroke="#2e3436" stroke-width="1.5" points="1430,-18.5 1484,-18.5 "/>
<text text-anchor="middle" x="1457" y="-7.6" font-family="FreeSans" font-size="8.00" fill="#1c2021"> </text>
</g>
<!-- N323&#45;&gt;N326 -->
<g id="edge25" class="edge"><title>N323&#45;&gt;N326</title>
<path fill="none" stroke="#2e3436" stroke-width="2" d="M1509.46,-82.1412C1499.74,-70.5305 1486.84,-55.125 1476.26,-42.4972"/>
<polygon fill="#2e3436" stroke="#2e3436" stroke-width="2" points="1471.28,-36.5501 1478.68,-40.133 1474.07,-39.104 1476.48,-41.9789 1476.09,-42.3 1475.71,-42.621 1473.3,-39.7461 1473.51,-44.467 1471.28,-36.5501 1471.28,-36.5501"/>
<text text-anchor="middle" x="1507" y="-57.6" font-family="FreeSans" font-size="8.00" fill="#2e3436">HATES</text>
</g>
<!-- N324 -->
<g id="node43" class="node"><title>N324</title>
<path fill="#ffffff" stroke="#2e3436" stroke-width="1.5" d="M1525,-0.5C1525,-0.5 1555,-0.5 1555,-0.5 1561,-0.5 1567,-6.5 1567,-12.5 1567,-12.5 1567,-24.5 1567,-24.5 1567,-30.5 1561,-36.5 1555,-36.5 1555,-36.5 1525,-36.5 1525,-36.5 1519,-36.5 1513,-30.5 1513,-24.5 1513,-24.5 1513,-12.5 1513,-12.5 1513,-6.5 1519,-0.5 1525,-0.5"/>
<text text-anchor="middle" x="1540" y="-25.6" font-family="FreeSans" font-size="8.00" fill="#1c2021">Node[324]</text>
<polyline fill="none" stroke="#2e3436" stroke-width="1.5" points="1513,-18.5 1567,-18.5 "/>
<text text-anchor="middle" x="1540" y="-7.6" font-family="FreeSans" font-size="8.00" fill="#1c2021"> </text>
</g>
<!-- N323&#45;&gt;N324 -->
<g id="edge26" class="edge"><title>N323&#45;&gt;N324</title>
<path fill="none" stroke="#4e9a06" stroke-width="2" d="M1527.47,-82.1412C1529.69,-71.0583 1532.6,-56.5177 1535.05,-44.2358"/>
<polygon fill="#4e9a06" stroke="#4e9a06" stroke-width="2" points="1536.59,-36.5501 1538.43,-44.5664 1536.34,-40.3253 1535.61,-44.0025 1535.12,-43.9045 1534.63,-43.8064 1535.36,-40.1292 1531.81,-43.2425 1536.59,-36.5501 1536.59,-36.5501"/>
<text text-anchor="middle" x="1544.5" y="-57.6" font-family="FreeSans" font-size="8.00" fill="#4e9a06">LIKES</text>
</g>
<!-- N325 -->
<g id="node44" class="node"><title>N325</title>
<path fill="#ffffff" stroke="#2e3436" stroke-width="1.5" d="M1509,-164.5C1509,-164.5 1539,-164.5 1539,-164.5 1545,-164.5 1551,-170.5 1551,-176.5 1551,-176.5 1551,-188.5 1551,-188.5 1551,-194.5 1545,-200.5 1539,-200.5 1539,-200.5 1509,-200.5 1509,-200.5 1503,-200.5 1497,-194.5 1497,-188.5 1497,-188.5 1497,-176.5 1497,-176.5 1497,-170.5 1503,-164.5 1509,-164.5"/>
<text text-anchor="middle" x="1524" y="-189.6" font-family="FreeSans" font-size="8.00" fill="#1c2021">Node[325]</text>
<polyline fill="none" stroke="#2e3436" stroke-width="1.5" points="1497,-182.5 1551,-182.5 "/>
<text text-anchor="middle" x="1524" y="-171.6" font-family="FreeSans" font-size="8.00" fill="#1c2021"> </text>
</g>
<!-- N325&#45;&gt;N323 -->
<g id="edge27" class="edge"><title>N325&#45;&gt;N323</title>
<path fill="none" stroke="#4e9a06" stroke-width="2" d="M1524,-164.141C1524,-153.058 1524,-138.518 1524,-126.236"/>
<polygon fill="#4e9a06" stroke="#4e9a06" stroke-width="2" points="1524,-118.55 1527.38,-126.05 1524.5,-122.3 1524.5,-126.05 1524,-126.05 1523.5,-126.05 1523.5,-122.3 1520.63,-126.05 1524,-118.55 1524,-118.55"/>
<text text-anchor="middle" x="1535.5" y="-139.6" font-family="FreeSans" font-size="8.00" fill="#4e9a06">LIKES</text>
</g>
<!-- N327 -->
<g id="node45" class="node"><title>N327</title>
<path fill="#ffffff" stroke="#2e3436" stroke-width="1.5" d="M1592,-164.5C1592,-164.5 1622,-164.5 1622,-164.5 1628,-164.5 1634,-170.5 1634,-176.5 1634,-176.5 1634,-188.5 1634,-188.5 1634,-194.5 1628,-200.5 1622,-200.5 1622,-200.5 1592,-200.5 1592,-200.5 1586,-200.5 1580,-194.5 1580,-188.5 1580,-188.5 1580,-176.5 1580,-176.5 1580,-170.5 1586,-164.5 1592,-164.5"/>
<text text-anchor="middle" x="1607" y="-189.6" font-family="FreeSans" font-size="8.00" fill="#1c2021">Node[327]</text>
<polyline fill="none" stroke="#2e3436" stroke-width="1.5" points="1580,-182.5 1634,-182.5 "/>
<text text-anchor="middle" x="1607" y="-171.6" font-family="FreeSans" font-size="8.00" fill="#1c2021"> </text>
</g>
<!-- N328 -->
<g id="node46" class="node"><title>N328</title>
<path fill="#ffffff" stroke="#2e3436" stroke-width="1.5" d="M1675,-82.5C1675,-82.5 1705,-82.5 1705,-82.5 1711,-82.5 1717,-88.5 1717,-94.5 1717,-94.5 1717,-106.5 1717,-106.5 1717,-112.5 1711,-118.5 1705,-118.5 1705,-118.5 1675,-118.5 1675,-118.5 1669,-118.5 1663,-112.5 1663,-106.5 1663,-106.5 1663,-94.5 1663,-94.5 1663,-88.5 1669,-82.5 1675,-82.5"/>
<text text-anchor="middle" x="1690" y="-107.6" font-family="FreeSans" font-size="8.00" fill="#1c2021">Node[328]</text>
<polyline fill="none" stroke="#2e3436" stroke-width="1.5" points="1663,-100.5 1717,-100.5 "/>
<text text-anchor="middle" x="1690" y="-89.6" font-family="FreeSans" font-size="8.00" fill="#1c2021"> </text>
</g>
<!-- N331 -->
<g id="node47" class="node"><title>N331</title>
<path fill="#ffffff" stroke="#2e3436" stroke-width="1.5" d="M1675,-0.5C1675,-0.5 1705,-0.5 1705,-0.5 1711,-0.5 1717,-6.5 1717,-12.5 1717,-12.5 1717,-24.5 1717,-24.5 1717,-30.5 1711,-36.5 1705,-36.5 1705,-36.5 1675,-36.5 1675,-36.5 1669,-36.5 1663,-30.5 1663,-24.5 1663,-24.5 1663,-12.5 1663,-12.5 1663,-6.5 1669,-0.5 1675,-0.5"/>
<text text-anchor="middle" x="1690" y="-25.6" font-family="FreeSans" font-size="8.00" fill="#1c2021">Node[331]</text>
<polyline fill="none" stroke="#2e3436" stroke-width="1.5" points="1663,-18.5 1717,-18.5 "/>
<text text-anchor="middle" x="1690" y="-7.6" font-family="FreeSans" font-size="8.00" fill="#1c2021"> </text>
</g>
<!-- N328&#45;&gt;N331 -->
<g id="edge28" class="edge"><title>N328&#45;&gt;N331</title>
<path fill="none" stroke="#2e3436" stroke-width="2" d="M1690,-82.1412C1690,-71.0583 1690,-56.5177 1690,-44.2358"/>
<polygon fill="#2e3436" stroke="#2e3436" stroke-width="2" points="1690,-36.5501 1693.38,-44.0501 1690.5,-40.3001 1690.5,-44.0501 1690,-44.0501 1689.5,-44.0501 1689.5,-40.3001 1686.63,-44.0501 1690,-36.5501 1690,-36.5501"/>
<text text-anchor="middle" x="1704" y="-57.6" font-family="FreeSans" font-size="8.00" fill="#2e3436">HATES</text>
</g>
<!-- N329 -->
<g id="node48" class="node"><title>N329</title>
<path fill="#ffffff" stroke="#2e3436" stroke-width="1.5" d="M1758,-0.5C1758,-0.5 1788,-0.5 1788,-0.5 1794,-0.5 1800,-6.5 1800,-12.5 1800,-12.5 1800,-24.5 1800,-24.5 1800,-30.5 1794,-36.5 1788,-36.5 1788,-36.5 1758,-36.5 1758,-36.5 1752,-36.5 1746,-30.5 1746,-24.5 1746,-24.5 1746,-12.5 1746,-12.5 1746,-6.5 1752,-0.5 1758,-0.5"/>
<text text-anchor="middle" x="1773" y="-25.6" font-family="FreeSans" font-size="8.00" fill="#1c2021">Node[329]</text>
<polyline fill="none" stroke="#2e3436" stroke-width="1.5" points="1746,-18.5 1800,-18.5 "/>
<text text-anchor="middle" x="1773" y="-7.6" font-family="FreeSans" font-size="8.00" fill="#1c2021"> </text>
</g>
<!-- N328&#45;&gt;N329 -->
<g id="edge29" class="edge"><title>N328&#45;&gt;N329</title>
<path fill="none" stroke="#4e9a06" stroke-width="2" d="M1708.01,-82.1412C1720.27,-70.3194 1736.62,-54.5635 1749.85,-41.8112"/>
<polygon fill="#4e9a06" stroke="#4e9a06" stroke-width="2" points="1755.31,-36.5501 1752.25,-44.185 1752.96,-39.5125 1750.26,-42.1149 1749.91,-41.7549 1749.56,-41.3949 1752.26,-38.7925 1747.57,-39.3249 1755.31,-36.5501 1755.31,-36.5501"/>
<text text-anchor="middle" x="1745.5" y="-57.6" font-family="FreeSans" font-size="8.00" fill="#4e9a06">LIKES</text>
</g>
<!-- N330 -->
<g id="node49" class="node"><title>N330</title>
<path fill="#ffffff" stroke="#2e3436" stroke-width="1.5" d="M1675,-164.5C1675,-164.5 1705,-164.5 1705,-164.5 1711,-164.5 1717,-170.5 1717,-176.5 1717,-176.5 1717,-188.5 1717,-188.5 1717,-194.5 1711,-200.5 1705,-200.5 1705,-200.5 1675,-200.5 1675,-200.5 1669,-200.5 1663,-194.5 1663,-188.5 1663,-188.5 1663,-176.5 1663,-176.5 1663,-170.5 1669,-164.5 1675,-164.5"/>
<text text-anchor="middle" x="1690" y="-189.6" font-family="FreeSans" font-size="8.00" fill="#1c2021">Node[330]</text>
<polyline fill="none" stroke="#2e3436" stroke-width="1.5" points="1663,-182.5 1717,-182.5 "/>
<text text-anchor="middle" x="1690" y="-171.6" font-family="FreeSans" font-size="8.00" fill="#1c2021"> </text>
</g>
<!-- N330&#45;&gt;N328 -->
<g id="edge30" class="edge"><title>N330&#45;&gt;N328</title>
<path fill="none" stroke="#4e9a06" stroke-width="2" d="M1690,-164.141C1690,-153.058 1690,-138.518 1690,-126.236"/>
<polygon fill="#4e9a06" stroke="#4e9a06" stroke-width="2" points="1690,-118.55 1693.38,-126.05 1690.5,-122.3 1690.5,-126.05 1690,-126.05 1689.5,-126.05 1689.5,-122.3 1686.63,-126.05 1690,-118.55 1690,-118.55"/>
<text text-anchor="middle" x="1701.5" y="-139.6" font-family="FreeSans" font-size="8.00" fill="#4e9a06">LIKES</text>
</g>
<!-- N332 -->
<g id="node50" class="node"><title>N332</title>
<path fill="#ffffff" stroke="#2e3436" stroke-width="1.5" d="M1799,-164.5C1799,-164.5 1829,-164.5 1829,-164.5 1835,-164.5 1841,-170.5 1841,-176.5 1841,-176.5 1841,-188.5 1841,-188.5 1841,-194.5 1835,-200.5 1829,-200.5 1829,-200.5 1799,-200.5 1799,-200.5 1793,-200.5 1787,-194.5 1787,-188.5 1787,-188.5 1787,-176.5 1787,-176.5 1787,-170.5 1793,-164.5 1799,-164.5"/>
<text text-anchor="middle" x="1814" y="-189.6" font-family="FreeSans" font-size="8.00" fill="#1c2021">Node[332]</text>
<polyline fill="none" stroke="#2e3436" stroke-width="1.5" points="1787,-182.5 1841,-182.5 "/>
<text text-anchor="middle" x="1814" y="-171.6" font-family="FreeSans" font-size="8.00" fill="#1c2021"> </text>
</g>
<!-- N333 -->
<g id="node51" class="node"><title>N333</title>
<path fill="#ffffff" stroke="#2e3436" stroke-width="1.5" d="M1903,-82.5C1903,-82.5 1933,-82.5 1933,-82.5 1939,-82.5 1945,-88.5 1945,-94.5 1945,-94.5 1945,-106.5 1945,-106.5 1945,-112.5 1939,-118.5 1933,-118.5 1933,-118.5 1903,-118.5 1903,-118.5 1897,-118.5 1891,-112.5 1891,-106.5 1891,-106.5 1891,-94.5 1891,-94.5 1891,-88.5 1897,-82.5 1903,-82.5"/>
<text text-anchor="middle" x="1918" y="-107.6" font-family="FreeSans" font-size="8.00" fill="#1c2021">Node[333]</text>
<polyline fill="none" stroke="#2e3436" stroke-width="1.5" points="1891,-100.5 1945,-100.5 "/>
<text text-anchor="middle" x="1918" y="-89.6" font-family="FreeSans" font-size="8.00" fill="#1c2021"> </text>
</g>
<!-- N336 -->
<g id="node52" class="node"><title>N336</title>
<path fill="#ffffff" stroke="#2e3436" stroke-width="1.5" d="M1841,-0.5C1841,-0.5 1871,-0.5 1871,-0.5 1877,-0.5 1883,-6.5 1883,-12.5 1883,-12.5 1883,-24.5 1883,-24.5 1883,-30.5 1877,-36.5 1871,-36.5 1871,-36.5 1841,-36.5 1841,-36.5 1835,-36.5 1829,-30.5 1829,-24.5 1829,-24.5 1829,-12.5 1829,-12.5 1829,-6.5 1835,-0.5 1841,-0.5"/>
<text text-anchor="middle" x="1856" y="-25.6" font-family="FreeSans" font-size="8.00" fill="#1c2021">Node[336]</text>
<polyline fill="none" stroke="#2e3436" stroke-width="1.5" points="1829,-18.5 1883,-18.5 "/>
<text text-anchor="middle" x="1856" y="-7.6" font-family="FreeSans" font-size="8.00" fill="#1c2021"> </text>
</g>
<!-- N333&#45;&gt;N336 -->
<g id="edge31" class="edge"><title>N333&#45;&gt;N336</title>
<path fill="none" stroke="#2e3436" stroke-width="2" d="M1904.55,-82.1412C1895.55,-70.5305 1883.61,-55.125 1873.82,-42.4972"/>
<polygon fill="#2e3436" stroke="#2e3436" stroke-width="2" points="1869.21,-36.5501 1876.48,-40.4108 1871.91,-39.2079 1874.2,-42.1719 1873.81,-42.4782 1873.41,-42.7845 1871.12,-39.8205 1871.14,-44.5457 1869.21,-36.5501 1869.21,-36.5501"/>
<text text-anchor="middle" x="1903" y="-57.6" font-family="FreeSans" font-size="8.00" fill="#2e3436">HATES</text>
</g>
<!-- N334 -->
<g id="node53" class="node"><title>N334</title>
<path fill="#ffffff" stroke="#2e3436" stroke-width="1.5" d="M1924,-0.5C1924,-0.5 1954,-0.5 1954,-0.5 1960,-0.5 1966,-6.5 1966,-12.5 1966,-12.5 1966,-24.5 1966,-24.5 1966,-30.5 1960,-36.5 1954,-36.5 1954,-36.5 1924,-36.5 1924,-36.5 1918,-36.5 1912,-30.5 1912,-24.5 1912,-24.5 1912,-12.5 1912,-12.5 1912,-6.5 1918,-0.5 1924,-0.5"/>
<text text-anchor="middle" x="1939" y="-25.6" font-family="FreeSans" font-size="8.00" fill="#1c2021">Node[334]</text>
<polyline fill="none" stroke="#2e3436" stroke-width="1.5" points="1912,-18.5 1966,-18.5 "/>
<text text-anchor="middle" x="1939" y="-7.6" font-family="FreeSans" font-size="8.00" fill="#1c2021"> </text>
</g>
<!-- N333&#45;&gt;N334 -->
<g id="edge32" class="edge"><title>N333&#45;&gt;N334</title>
<path fill="none" stroke="#4e9a06" stroke-width="2" d="M1922.56,-82.1412C1925.49,-70.9527 1929.36,-56.2404 1932.6,-43.8855"/>
<polygon fill="#4e9a06" stroke="#4e9a06" stroke-width="2" points="1934.52,-36.5501 1935.88,-44.6613 1934.06,-40.3042 1933.1,-43.9313 1932.62,-43.8043 1932.14,-43.6774 1933.09,-40.0503 1929.36,-42.9474 1934.52,-36.5501 1934.52,-36.5501"/>
<text text-anchor="middle" x="1940.5" y="-57.6" font-family="FreeSans" font-size="8.00" fill="#4e9a06">LIKES</text>
</g>
<!-- N335 -->
<g id="node54" class="node"><title>N335</title>
<path fill="#ffffff" stroke="#2e3436" stroke-width="1.5" d="M1903,-164.5C1903,-164.5 1933,-164.5 1933,-164.5 1939,-164.5 1945,-170.5 1945,-176.5 1945,-176.5 1945,-188.5 1945,-188.5 1945,-194.5 1939,-200.5 1933,-200.5 1933,-200.5 1903,-200.5 1903,-200.5 1897,-200.5 1891,-194.5 1891,-188.5 1891,-188.5 1891,-176.5 1891,-176.5 1891,-170.5 1897,-164.5 1903,-164.5"/>
<text text-anchor="middle" x="1918" y="-189.6" font-family="FreeSans" font-size="8.00" fill="#1c2021">Node[335]</text>
<polyline fill="none" stroke="#2e3436" stroke-width="1.5" points="1891,-182.5 1945,-182.5 "/>
<text text-anchor="middle" x="1918" y="-171.6" font-family="FreeSans" font-size="8.00" fill="#1c2021"> </text>
</g>
<!-- N335&#45;&gt;N333 -->
<g id="edge33" class="edge"><title>N335&#45;&gt;N333</title>
<path fill="none" stroke="#4e9a06" stroke-width="2" d="M1918,-164.141C1918,-153.058 1918,-138.518 1918,-126.236"/>
<polygon fill="#4e9a06" stroke="#4e9a06" stroke-width="2" points="1918,-118.55 1921.38,-126.05 1918.5,-122.3 1918.5,-126.05 1918,-126.05 1917.5,-126.05 1917.5,-122.3 1914.63,-126.05 1918,-118.55 1918,-118.55"/>
<text text-anchor="middle" x="1929.5" y="-139.6" font-family="FreeSans" font-size="8.00" fill="#4e9a06">LIKES</text>
</g>
<!-- N337 -->
<g id="node55" class="node"><title>N337</title>
<path fill="#ffffff" stroke="#2e3436" stroke-width="1.5" d="M1986,-164.5C1986,-164.5 2016,-164.5 2016,-164.5 2022,-164.5 2028,-170.5 2028,-176.5 2028,-176.5 2028,-188.5 2028,-188.5 2028,-194.5 2022,-200.5 2016,-200.5 2016,-200.5 1986,-200.5 1986,-200.5 1980,-200.5 1974,-194.5 1974,-188.5 1974,-188.5 1974,-176.5 1974,-176.5 1974,-170.5 1980,-164.5 1986,-164.5"/>
<text text-anchor="middle" x="2001" y="-189.6" font-family="FreeSans" font-size="8.00" fill="#1c2021">Node[337]</text>
<polyline fill="none" stroke="#2e3436" stroke-width="1.5" points="1974,-182.5 2028,-182.5 "/>
<text text-anchor="middle" x="2001" y="-171.6" font-family="FreeSans" font-size="8.00" fill="#1c2021"> </text>
</g>
<!-- N338 -->
<g id="node56" class="node"><title>N338</title>
<path fill="#ffffff" stroke="#2e3436" stroke-width="1.5" d="M2069,-164.5C2069,-164.5 2099,-164.5 2099,-164.5 2105,-164.5 2111,-170.5 2111,-176.5 2111,-176.5 2111,-188.5 2111,-188.5 2111,-194.5 2105,-200.5 2099,-200.5 2099,-200.5 2069,-200.5 2069,-200.5 2063,-200.5 2057,-194.5 2057,-188.5 2057,-188.5 2057,-176.5 2057,-176.5 2057,-170.5 2063,-164.5 2069,-164.5"/>
<text text-anchor="middle" x="2084" y="-189.6" font-family="FreeSans" font-size="8.00" fill="#1c2021">Node[338]</text>
<polyline fill="none" stroke="#2e3436" stroke-width="1.5" points="2057,-182.5 2111,-182.5 "/>
<text text-anchor="middle" x="2084" y="-171.6" font-family="FreeSans" font-size="8.00" fill="#1c2021"> </text>
</g>
<!-- N339 -->
<g id="node57" class="node"><title>N339</title>
<path fill="#ffffff" stroke="#2e3436" stroke-width="1.5" d="M2069,-82.5C2069,-82.5 2099,-82.5 2099,-82.5 2105,-82.5 2111,-88.5 2111,-94.5 2111,-94.5 2111,-106.5 2111,-106.5 2111,-112.5 2105,-118.5 2099,-118.5 2099,-118.5 2069,-118.5 2069,-118.5 2063,-118.5 2057,-112.5 2057,-106.5 2057,-106.5 2057,-94.5 2057,-94.5 2057,-88.5 2063,-82.5 2069,-82.5"/>
<text text-anchor="middle" x="2084" y="-107.6" font-family="FreeSans" font-size="8.00" fill="#1c2021">Node[339]</text>
<polyline fill="none" stroke="#2e3436" stroke-width="1.5" points="2057,-100.5 2111,-100.5 "/>
<text text-anchor="middle" x="2084" y="-89.6" font-family="FreeSans" font-size="8.00" fill="#1c2021"> </text>
</g>
<!-- N338&#45;&gt;N339 -->
<g id="edge34" class="edge"><title>N338&#45;&gt;N339</title>
<path fill="none" stroke="#4e9a06" stroke-width="2" d="M2084,-164.141C2084,-153.058 2084,-138.518 2084,-126.236"/>
<polygon fill="#4e9a06" stroke="#4e9a06" stroke-width="2" points="2084,-118.55 2087.38,-126.05 2084.5,-122.3 2084.5,-126.05 2084,-126.05 2083.5,-126.05 2083.5,-122.3 2080.63,-126.05 2084,-118.55 2084,-118.55"/>
<text text-anchor="middle" x="2095.5" y="-139.6" font-family="FreeSans" font-size="8.00" fill="#4e9a06">LIKES</text>
</g>
<!-- N340 -->
<g id="node58" class="node"><title>N340</title>
<path fill="#ffffff" stroke="#2e3436" stroke-width="1.5" d="M2152,-82.5C2152,-82.5 2182,-82.5 2182,-82.5 2188,-82.5 2194,-88.5 2194,-94.5 2194,-94.5 2194,-106.5 2194,-106.5 2194,-112.5 2188,-118.5 2182,-118.5 2182,-118.5 2152,-118.5 2152,-118.5 2146,-118.5 2140,-112.5 2140,-106.5 2140,-106.5 2140,-94.5 2140,-94.5 2140,-88.5 2146,-82.5 2152,-82.5"/>
<text text-anchor="middle" x="2167" y="-107.6" font-family="FreeSans" font-size="8.00" fill="#1c2021">Node[340]</text>
<polyline fill="none" stroke="#2e3436" stroke-width="1.5" points="2140,-100.5 2194,-100.5 "/>
<text text-anchor="middle" x="2167" y="-89.6" font-family="FreeSans" font-size="8.00" fill="#1c2021"> </text>
</g>
<!-- N343 -->
<g id="node59" class="node"><title>N343</title>
<path fill="#ffffff" stroke="#2e3436" stroke-width="1.5" d="M2110,-0.5C2110,-0.5 2140,-0.5 2140,-0.5 2146,-0.5 2152,-6.5 2152,-12.5 2152,-12.5 2152,-24.5 2152,-24.5 2152,-30.5 2146,-36.5 2140,-36.5 2140,-36.5 2110,-36.5 2110,-36.5 2104,-36.5 2098,-30.5 2098,-24.5 2098,-24.5 2098,-12.5 2098,-12.5 2098,-6.5 2104,-0.5 2110,-0.5"/>
<text text-anchor="middle" x="2125" y="-25.6" font-family="FreeSans" font-size="8.00" fill="#1c2021">Node[343]</text>
<polyline fill="none" stroke="#2e3436" stroke-width="1.5" points="2098,-18.5 2152,-18.5 "/>
<text text-anchor="middle" x="2125" y="-7.6" font-family="FreeSans" font-size="8.00" fill="#1c2021"> </text>
</g>
<!-- N340&#45;&gt;N343 -->
<g id="edge35" class="edge"><title>N340&#45;&gt;N343</title>
<path fill="none" stroke="#2e3436" stroke-width="2" d="M2157.89,-82.1412C2151.96,-70.8472 2144.14,-55.9625 2137.62,-43.5365"/>
<polygon fill="#2e3436" stroke="#2e3436" stroke-width="2" points="2133.95,-36.5501 2140.43,-41.6218 2136.14,-39.6379 2137.88,-42.9582 2137.44,-43.1906 2136.99,-43.423 2135.25,-40.1028 2134.45,-44.7594 2133.95,-36.5501 2133.95,-36.5501"/>
<text text-anchor="middle" x="2161" y="-57.6" font-family="FreeSans" font-size="8.00" fill="#2e3436">HATES</text>
</g>
<!-- N341 -->
<g id="node60" class="node"><title>N341</title>
<path fill="#ffffff" stroke="#2e3436" stroke-width="1.5" d="M2193,-0.5C2193,-0.5 2223,-0.5 2223,-0.5 2229,-0.5 2235,-6.5 2235,-12.5 2235,-12.5 2235,-24.5 2235,-24.5 2235,-30.5 2229,-36.5 2223,-36.5 2223,-36.5 2193,-36.5 2193,-36.5 2187,-36.5 2181,-30.5 2181,-24.5 2181,-24.5 2181,-12.5 2181,-12.5 2181,-6.5 2187,-0.5 2193,-0.5"/>
<text text-anchor="middle" x="2208" y="-25.6" font-family="FreeSans" font-size="8.00" fill="#1c2021">Node[341]</text>
<polyline fill="none" stroke="#2e3436" stroke-width="1.5" points="2181,-18.5 2235,-18.5 "/>
<text text-anchor="middle" x="2208" y="-7.6" font-family="FreeSans" font-size="8.00" fill="#1c2021"> </text>
</g>
<!-- N340&#45;&gt;N341 -->
<g id="edge36" class="edge"><title>N340&#45;&gt;N341</title>
<path fill="none" stroke="#4e9a06" stroke-width="2" d="M2175.9,-82.1412C2181.68,-70.8472 2189.31,-55.9625 2195.68,-43.5365"/>
<polygon fill="#4e9a06" stroke="#4e9a06" stroke-width="2" points="2199.26,-36.5501 2198.84,-44.7639 2198,-40.1154 2196.29,-43.4527 2195.84,-43.2246 2195.4,-42.9966 2197.11,-39.6593 2192.84,-41.6853 2199.26,-36.5501 2199.26,-36.5501"/>
<text text-anchor="middle" x="2199.5" y="-57.6" font-family="FreeSans" font-size="8.00" fill="#4e9a06">LIKES</text>
</g>
<!-- N342 -->
<g id="node61" class="node"><title>N342</title>
<path fill="#ffffff" stroke="#2e3436" stroke-width="1.5" d="M2152,-164.5C2152,-164.5 2182,-164.5 2182,-164.5 2188,-164.5 2194,-170.5 2194,-176.5 2194,-176.5 2194,-188.5 2194,-188.5 2194,-194.5 2188,-200.5 2182,-200.5 2182,-200.5 2152,-200.5 2152,-200.5 2146,-200.5 2140,-194.5 2140,-188.5 2140,-188.5 2140,-176.5 2140,-176.5 2140,-170.5 2146,-164.5 2152,-164.5"/>
<text text-anchor="middle" x="2167" y="-189.6" font-family="FreeSans" font-size="8.00" fill="#1c2021">Node[342]</text>
<polyline fill="none" stroke="#2e3436" stroke-width="1.5" points="2140,-182.5 2194,-182.5 "/>
<text text-anchor="middle" x="2167" y="-171.6" font-family="FreeSans" font-size="8.00" fill="#1c2021"> </text>
</g>
<!-- N342&#45;&gt;N340 -->
<g id="edge37" class="edge"><title>N342&#45;&gt;N340</title>
<path fill="none" stroke="#4e9a06" stroke-width="2" d="M2167,-164.141C2167,-153.058 2167,-138.518 2167,-126.236"/>
<polygon fill="#4e9a06" stroke="#4e9a06" stroke-width="2" points="2167,-118.55 2170.38,-126.05 2167.5,-122.3 2167.5,-126.05 2167,-126.05 2166.5,-126.05 2166.5,-122.3 2163.63,-126.05 2167,-118.55 2167,-118.55"/>
<text text-anchor="middle" x="2178.5" y="-139.6" font-family="FreeSans" font-size="8.00" fill="#4e9a06">LIKES</text>
</g>
<!-- N344 -->
<g id="node62" class="node"><title>N344</title>
<path fill="#ffffff" stroke="#2e3436" stroke-width="1.5" d="M2235,-164.5C2235,-164.5 2265,-164.5 2265,-164.5 2271,-164.5 2277,-170.5 2277,-176.5 2277,-176.5 2277,-188.5 2277,-188.5 2277,-194.5 2271,-200.5 2265,-200.5 2265,-200.5 2235,-200.5 2235,-200.5 2229,-200.5 2223,-194.5 2223,-188.5 2223,-188.5 2223,-176.5 2223,-176.5 2223,-170.5 2229,-164.5 2235,-164.5"/>
<text text-anchor="middle" x="2250" y="-189.6" font-family="FreeSans" font-size="8.00" fill="#1c2021">Node[344]</text>
<polyline fill="none" stroke="#2e3436" stroke-width="1.5" points="2223,-182.5 2277,-182.5 "/>
<text text-anchor="middle" x="2250" y="-171.6" font-family="FreeSans" font-size="8.00" fill="#1c2021"> </text>
</g>
<!-- N345 -->
<g id="node63" class="node"><title>N345</title>
<path fill="#ffffff" stroke="#2e3436" stroke-width="1.5" d="M2318,-164.5C2318,-164.5 2348,-164.5 2348,-164.5 2354,-164.5 2360,-170.5 2360,-176.5 2360,-176.5 2360,-188.5 2360,-188.5 2360,-194.5 2354,-200.5 2348,-200.5 2348,-200.5 2318,-200.5 2318,-200.5 2312,-200.5 2306,-194.5 2306,-188.5 2306,-188.5 2306,-176.5 2306,-176.5 2306,-170.5 2312,-164.5 2318,-164.5"/>
<text text-anchor="middle" x="2333" y="-189.6" font-family="FreeSans" font-size="8.00" fill="#1c2021">Node[345]</text>
<polyline fill="none" stroke="#2e3436" stroke-width="1.5" points="2306,-182.5 2360,-182.5 "/>
<text text-anchor="middle" x="2333" y="-171.6" font-family="FreeSans" font-size="8.00" fill="#1c2021"> </text>
</g>
<!-- N346 -->
<g id="node64" class="node"><title>N346</title>
<path fill="#ffffff" stroke="#2e3436" stroke-width="1.5" d="M2318,-82.5C2318,-82.5 2348,-82.5 2348,-82.5 2354,-82.5 2360,-88.5 2360,-94.5 2360,-94.5 2360,-106.5 2360,-106.5 2360,-112.5 2354,-118.5 2348,-118.5 2348,-118.5 2318,-118.5 2318,-118.5 2312,-118.5 2306,-112.5 2306,-106.5 2306,-106.5 2306,-94.5 2306,-94.5 2306,-88.5 2312,-82.5 2318,-82.5"/>
<text text-anchor="middle" x="2333" y="-107.6" font-family="FreeSans" font-size="8.00" fill="#1c2021">Node[346]</text>
<polyline fill="none" stroke="#2e3436" stroke-width="1.5" points="2306,-100.5 2360,-100.5 "/>
<text text-anchor="middle" x="2333" y="-89.6" font-family="FreeSans" font-size="8.00" fill="#1c2021"> </text>
</g>
<!-- N345&#45;&gt;N346 -->
<g id="edge38" class="edge"><title>N345&#45;&gt;N346</title>
<path fill="none" stroke="#4e9a06" stroke-width="2" d="M2333,-164.141C2333,-153.058 2333,-138.518 2333,-126.236"/>
<polygon fill="#4e9a06" stroke="#4e9a06" stroke-width="2" points="2333,-118.55 2336.38,-126.05 2333.5,-122.3 2333.5,-126.05 2333,-126.05 2332.5,-126.05 2332.5,-122.3 2329.63,-126.05 2333,-118.55 2333,-118.55"/>
<text text-anchor="middle" x="2344.5" y="-139.6" font-family="FreeSans" font-size="8.00" fill="#4e9a06">LIKES</text>
</g>
<!-- N347 -->
<g id="node65" class="node"><title>N347</title>
<path fill="#ffffff" stroke="#2e3436" stroke-width="1.5" d="M2401,-82.5C2401,-82.5 2431,-82.5 2431,-82.5 2437,-82.5 2443,-88.5 2443,-94.5 2443,-94.5 2443,-106.5 2443,-106.5 2443,-112.5 2437,-118.5 2431,-118.5 2431,-118.5 2401,-118.5 2401,-118.5 2395,-118.5 2389,-112.5 2389,-106.5 2389,-106.5 2389,-94.5 2389,-94.5 2389,-88.5 2395,-82.5 2401,-82.5"/>
<text text-anchor="middle" x="2416" y="-107.6" font-family="FreeSans" font-size="8.00" fill="#1c2021">Node[347]</text>
<polyline fill="none" stroke="#2e3436" stroke-width="1.5" points="2389,-100.5 2443,-100.5 "/>
<text text-anchor="middle" x="2416" y="-89.6" font-family="FreeSans" font-size="8.00" fill="#1c2021"> </text>
</g>
<!-- N350 -->
<g id="node66" class="node"><title>N350</title>
<path fill="#ffffff" stroke="#2e3436" stroke-width="1.5" d="M2385,-0.5C2385,-0.5 2415,-0.5 2415,-0.5 2421,-0.5 2427,-6.5 2427,-12.5 2427,-12.5 2427,-24.5 2427,-24.5 2427,-30.5 2421,-36.5 2415,-36.5 2415,-36.5 2385,-36.5 2385,-36.5 2379,-36.5 2373,-30.5 2373,-24.5 2373,-24.5 2373,-12.5 2373,-12.5 2373,-6.5 2379,-0.5 2385,-0.5"/>
<text text-anchor="middle" x="2400" y="-25.6" font-family="FreeSans" font-size="8.00" fill="#1c2021">Node[350]</text>
<polyline fill="none" stroke="#2e3436" stroke-width="1.5" points="2373,-18.5 2427,-18.5 "/>
<text text-anchor="middle" x="2400" y="-7.6" font-family="FreeSans" font-size="8.00" fill="#1c2021"> </text>
</g>
<!-- N347&#45;&gt;N350 -->
<g id="edge39" class="edge"><title>N347&#45;&gt;N350</title>
<path fill="none" stroke="#2e3436" stroke-width="2" d="M2412.53,-82.1412C2410.31,-71.0583 2407.4,-56.5177 2404.95,-44.2358"/>
<polygon fill="#2e3436" stroke="#2e3436" stroke-width="2" points="2403.41,-36.5501 2408.19,-43.2425 2404.64,-40.1292 2405.37,-43.8064 2404.88,-43.9045 2404.39,-44.0025 2403.66,-40.3253 2401.57,-44.5664 2403.41,-36.5501 2403.41,-36.5501"/>
<text text-anchor="middle" x="2422" y="-57.6" font-family="FreeSans" font-size="8.00" fill="#2e3436">HATES</text>
</g>
<!-- N348 -->
<g id="node67" class="node"><title>N348</title>
<path fill="#ffffff" stroke="#2e3436" stroke-width="1.5" d="M2468,-0.5C2468,-0.5 2498,-0.5 2498,-0.5 2504,-0.5 2510,-6.5 2510,-12.5 2510,-12.5 2510,-24.5 2510,-24.5 2510,-30.5 2504,-36.5 2498,-36.5 2498,-36.5 2468,-36.5 2468,-36.5 2462,-36.5 2456,-30.5 2456,-24.5 2456,-24.5 2456,-12.5 2456,-12.5 2456,-6.5 2462,-0.5 2468,-0.5"/>
<text text-anchor="middle" x="2483" y="-25.6" font-family="FreeSans" font-size="8.00" fill="#1c2021">Node[348]</text>
<polyline fill="none" stroke="#2e3436" stroke-width="1.5" points="2456,-18.5 2510,-18.5 "/>
<text text-anchor="middle" x="2483" y="-7.6" font-family="FreeSans" font-size="8.00" fill="#1c2021"> </text>
</g>
<!-- N347&#45;&gt;N348 -->
<g id="edge40" class="edge"><title>N347&#45;&gt;N348</title>
<path fill="none" stroke="#4e9a06" stroke-width="2" d="M2430.54,-82.1412C2440.26,-70.5305 2453.16,-55.125 2463.74,-42.4972"/>
<polygon fill="#4e9a06" stroke="#4e9a06" stroke-width="2" points="2468.72,-36.5501 2466.49,-44.467 2466.7,-39.7461 2464.29,-42.621 2463.91,-42.3 2463.52,-41.9789 2465.93,-39.104 2461.32,-40.133 2468.72,-36.5501 2468.72,-36.5501"/>
<text text-anchor="middle" x="2462.5" y="-57.6" font-family="FreeSans" font-size="8.00" fill="#4e9a06">LIKES</text>
</g>
<!-- N349 -->
<g id="node68" class="node"><title>N349</title>
<path fill="#ffffff" stroke="#2e3436" stroke-width="1.5" d="M2401,-164.5C2401,-164.5 2431,-164.5 2431,-164.5 2437,-164.5 2443,-170.5 2443,-176.5 2443,-176.5 2443,-188.5 2443,-188.5 2443,-194.5 2437,-200.5 2431,-200.5 2431,-200.5 2401,-200.5 2401,-200.5 2395,-200.5 2389,-194.5 2389,-188.5 2389,-188.5 2389,-176.5 2389,-176.5 2389,-170.5 2395,-164.5 2401,-164.5"/>
<text text-anchor="middle" x="2416" y="-189.6" font-family="FreeSans" font-size="8.00" fill="#1c2021">Node[349]</text>
<polyline fill="none" stroke="#2e3436" stroke-width="1.5" points="2389,-182.5 2443,-182.5 "/>
<text text-anchor="middle" x="2416" y="-171.6" font-family="FreeSans" font-size="8.00" fill="#1c2021"> </text>
</g>
<!-- N349&#45;&gt;N347 -->
<g id="edge41" class="edge"><title>N349&#45;&gt;N347</title>
<path fill="none" stroke="#4e9a06" stroke-width="2" d="M2416,-164.141C2416,-153.058 2416,-138.518 2416,-126.236"/>
<polygon fill="#4e9a06" stroke="#4e9a06" stroke-width="2" points="2416,-118.55 2419.38,-126.05 2416.5,-122.3 2416.5,-126.05 2416,-126.05 2415.5,-126.05 2415.5,-122.3 2412.63,-126.05 2416,-118.55 2416,-118.55"/>
<text text-anchor="middle" x="2427.5" y="-139.6" font-family="FreeSans" font-size="8.00" fill="#4e9a06">LIKES</text>
</g>
<!-- N351 -->
<g id="node69" class="node"><title>N351</title>
<path fill="#ffffff" stroke="#2e3436" stroke-width="1.5" d="M2515,-164.5C2515,-164.5 2545,-164.5 2545,-164.5 2551,-164.5 2557,-170.5 2557,-176.5 2557,-176.5 2557,-188.5 2557,-188.5 2557,-194.5 2551,-200.5 2545,-200.5 2545,-200.5 2515,-200.5 2515,-200.5 2509,-200.5 2503,-194.5 2503,-188.5 2503,-188.5 2503,-176.5 2503,-176.5 2503,-170.5 2509,-164.5 2515,-164.5"/>
<text text-anchor="middle" x="2530" y="-189.6" font-family="FreeSans" font-size="8.00" fill="#1c2021">Node[351]</text>
<polyline fill="none" stroke="#2e3436" stroke-width="1.5" points="2503,-182.5 2557,-182.5 "/>
<text text-anchor="middle" x="2530" y="-171.6" font-family="FreeSans" font-size="8.00" fill="#1c2021"> </text>
</g>
<!-- N352 -->
<g id="node70" class="node"><title>N352</title>
<path fill="#ffffff" stroke="#2e3436" stroke-width="1.5" d="M2613,-82.5C2613,-82.5 2643,-82.5 2643,-82.5 2649,-82.5 2655,-88.5 2655,-94.5 2655,-94.5 2655,-106.5 2655,-106.5 2655,-112.5 2649,-118.5 2643,-118.5 2643,-118.5 2613,-118.5 2613,-118.5 2607,-118.5 2601,-112.5 2601,-106.5 2601,-106.5 2601,-94.5 2601,-94.5 2601,-88.5 2607,-82.5 2613,-82.5"/>
<text text-anchor="middle" x="2628" y="-107.6" font-family="FreeSans" font-size="8.00" fill="#1c2021">Node[352]</text>
<polyline fill="none" stroke="#2e3436" stroke-width="1.5" points="2601,-100.5 2655,-100.5 "/>
<text text-anchor="middle" x="2628" y="-89.6" font-family="FreeSans" font-size="8.00" fill="#1c2021"> </text>
</g>
<!-- N355 -->
<g id="node71" class="node"><title>N355</title>
<path fill="#ffffff" stroke="#2e3436" stroke-width="1.5" d="M2571,-0.5C2571,-0.5 2601,-0.5 2601,-0.5 2607,-0.5 2613,-6.5 2613,-12.5 2613,-12.5 2613,-24.5 2613,-24.5 2613,-30.5 2607,-36.5 2601,-36.5 2601,-36.5 2571,-36.5 2571,-36.5 2565,-36.5 2559,-30.5 2559,-24.5 2559,-24.5 2559,-12.5 2559,-12.5 2559,-6.5 2565,-0.5 2571,-0.5"/>
<text text-anchor="middle" x="2586" y="-25.6" font-family="FreeSans" font-size="8.00" fill="#1c2021">Node[355]</text>
<polyline fill="none" stroke="#2e3436" stroke-width="1.5" points="2559,-18.5 2613,-18.5 "/>
<text text-anchor="middle" x="2586" y="-7.6" font-family="FreeSans" font-size="8.00" fill="#1c2021"> </text>
</g>
<!-- N352&#45;&gt;N355 -->
<g id="edge42" class="edge"><title>N352&#45;&gt;N355</title>
<path fill="none" stroke="#2e3436" stroke-width="2" d="M2618.89,-82.1412C2612.96,-70.8472 2605.14,-55.9625 2598.62,-43.5365"/>
<polygon fill="#2e3436" stroke="#2e3436" stroke-width="2" points="2594.95,-36.5501 2601.43,-41.6218 2597.14,-39.6379 2598.88,-42.9582 2598.44,-43.1906 2597.99,-43.423 2596.25,-40.1028 2595.45,-44.7594 2594.95,-36.5501 2594.95,-36.5501"/>
<text text-anchor="middle" x="2622" y="-57.6" font-family="FreeSans" font-size="8.00" fill="#2e3436">HATES</text>
</g>
<!-- N353 -->
<g id="node72" class="node"><title>N353</title>
<path fill="#ffffff" stroke="#2e3436" stroke-width="1.5" d="M2654,-0.5C2654,-0.5 2684,-0.5 2684,-0.5 2690,-0.5 2696,-6.5 2696,-12.5 2696,-12.5 2696,-24.5 2696,-24.5 2696,-30.5 2690,-36.5 2684,-36.5 2684,-36.5 2654,-36.5 2654,-36.5 2648,-36.5 2642,-30.5 2642,-24.5 2642,-24.5 2642,-12.5 2642,-12.5 2642,-6.5 2648,-0.5 2654,-0.5"/>
<text text-anchor="middle" x="2669" y="-25.6" font-family="FreeSans" font-size="8.00" fill="#1c2021">Node[353]</text>
<polyline fill="none" stroke="#2e3436" stroke-width="1.5" points="2642,-18.5 2696,-18.5 "/>
<text text-anchor="middle" x="2669" y="-7.6" font-family="FreeSans" font-size="8.00" fill="#1c2021"> </text>
</g>
<!-- N352&#45;&gt;N353 -->
<g id="edge43" class="edge"><title>N352&#45;&gt;N353</title>
<path fill="none" stroke="#4e9a06" stroke-width="2" d="M2636.9,-82.1412C2642.68,-70.8472 2650.31,-55.9625 2656.68,-43.5365"/>
<polygon fill="#4e9a06" stroke="#4e9a06" stroke-width="2" points="2660.26,-36.5501 2659.84,-44.7639 2659,-40.1154 2657.29,-43.4527 2656.84,-43.2246 2656.4,-42.9966 2658.11,-39.6593 2653.84,-41.6853 2660.26,-36.5501 2660.26,-36.5501"/>
<text text-anchor="middle" x="2660.5" y="-57.6" font-family="FreeSans" font-size="8.00" fill="#4e9a06">LIKES</text>
</g>
<!-- N354 -->
<g id="node73" class="node"><title>N354</title>
<path fill="#ffffff" stroke="#2e3436" stroke-width="1.5" d="M2613,-164.5C2613,-164.5 2643,-164.5 2643,-164.5 2649,-164.5 2655,-170.5 2655,-176.5 2655,-176.5 2655,-188.5 2655,-188.5 2655,-194.5 2649,-200.5 2643,-200.5 2643,-200.5 2613,-200.5 2613,-200.5 2607,-200.5 2601,-194.5 2601,-188.5 2601,-188.5 2601,-176.5 2601,-176.5 2601,-170.5 2607,-164.5 2613,-164.5"/>
<text text-anchor="middle" x="2628" y="-189.6" font-family="FreeSans" font-size="8.00" fill="#1c2021">Node[354]</text>
<polyline fill="none" stroke="#2e3436" stroke-width="1.5" points="2601,-182.5 2655,-182.5 "/>
<text text-anchor="middle" x="2628" y="-171.6" font-family="FreeSans" font-size="8.00" fill="#1c2021"> </text>
</g>
<!-- N354&#45;&gt;N352 -->
<g id="edge44" class="edge"><title>N354&#45;&gt;N352</title>
<path fill="none" stroke="#4e9a06" stroke-width="2" d="M2628,-164.141C2628,-153.058 2628,-138.518 2628,-126.236"/>
<polygon fill="#4e9a06" stroke="#4e9a06" stroke-width="2" points="2628,-118.55 2631.38,-126.05 2628.5,-122.3 2628.5,-126.05 2628,-126.05 2627.5,-126.05 2627.5,-122.3 2624.63,-126.05 2628,-118.55 2628,-118.55"/>
<text text-anchor="middle" x="2639.5" y="-139.6" font-family="FreeSans" font-size="8.00" fill="#4e9a06">LIKES</text>
</g>
<!-- N356 -->
<g id="node74" class="node"><title>N356</title>
<path fill="#ffffff" stroke="#2e3436" stroke-width="1.5" d="M2717,-164.5C2717,-164.5 2747,-164.5 2747,-164.5 2753,-164.5 2759,-170.5 2759,-176.5 2759,-176.5 2759,-188.5 2759,-188.5 2759,-194.5 2753,-200.5 2747,-200.5 2747,-200.5 2717,-200.5 2717,-200.5 2711,-200.5 2705,-194.5 2705,-188.5 2705,-188.5 2705,-176.5 2705,-176.5 2705,-170.5 2711,-164.5 2717,-164.5"/>
<text text-anchor="middle" x="2732" y="-189.6" font-family="FreeSans" font-size="8.00" fill="#1c2021">Node[356]</text>
<polyline fill="none" stroke="#2e3436" stroke-width="1.5" points="2705,-182.5 2759,-182.5 "/>
<text text-anchor="middle" x="2732" y="-171.6" font-family="FreeSans" font-size="8.00" fill="#1c2021"> </text>
</g>
<!-- N357 -->
<g id="node75" class="node"><title>N357</title>
<path fill="#ffffff" stroke="#2e3436" stroke-width="1.5" d="M2820,-82.5C2820,-82.5 2850,-82.5 2850,-82.5 2856,-82.5 2862,-88.5 2862,-94.5 2862,-94.5 2862,-106.5 2862,-106.5 2862,-112.5 2856,-118.5 2850,-118.5 2850,-118.5 2820,-118.5 2820,-118.5 2814,-118.5 2808,-112.5 2808,-106.5 2808,-106.5 2808,-94.5 2808,-94.5 2808,-88.5 2814,-82.5 2820,-82.5"/>
<text text-anchor="middle" x="2835" y="-107.6" font-family="FreeSans" font-size="8.00" fill="#1c2021">Node[357]</text>
<polyline fill="none" stroke="#2e3436" stroke-width="1.5" points="2808,-100.5 2862,-100.5 "/>
<text text-anchor="middle" x="2835" y="-89.6" font-family="FreeSans" font-size="8.00" fill="#1c2021"> </text>
</g>
<!-- N360 -->
<g id="node76" class="node"><title>N360</title>
<path fill="#ffffff" stroke="#2e3436" stroke-width="1.5" d="M2737,-0.5C2737,-0.5 2767,-0.5 2767,-0.5 2773,-0.5 2779,-6.5 2779,-12.5 2779,-12.5 2779,-24.5 2779,-24.5 2779,-30.5 2773,-36.5 2767,-36.5 2767,-36.5 2737,-36.5 2737,-36.5 2731,-36.5 2725,-30.5 2725,-24.5 2725,-24.5 2725,-12.5 2725,-12.5 2725,-6.5 2731,-0.5 2737,-0.5"/>
<text text-anchor="middle" x="2752" y="-25.6" font-family="FreeSans" font-size="8.00" fill="#1c2021">Node[360]</text>
<polyline fill="none" stroke="#2e3436" stroke-width="1.5" points="2725,-18.5 2779,-18.5 "/>
<text text-anchor="middle" x="2752" y="-7.6" font-family="FreeSans" font-size="8.00" fill="#1c2021"> </text>
</g>
<!-- N357&#45;&gt;N360 -->
<g id="edge45" class="edge"><title>N357&#45;&gt;N360</title>
<path fill="none" stroke="#2e3436" stroke-width="2" d="M2816.99,-82.1412C2804.73,-70.3194 2788.38,-54.5635 2775.15,-41.8112"/>
<polygon fill="#2e3436" stroke="#2e3436" stroke-width="2" points="2769.69,-36.5501 2777.43,-39.3249 2772.74,-38.7925 2775.44,-41.3949 2775.09,-41.7549 2774.74,-42.1149 2772.04,-39.5125 2772.75,-44.185 2769.69,-36.5501 2769.69,-36.5501"/>
<text text-anchor="middle" x="2809" y="-57.6" font-family="FreeSans" font-size="8.00" fill="#2e3436">HATES</text>
</g>
<!-- N358 -->
<g id="node77" class="node"><title>N358</title>
<path fill="#ffffff" stroke="#2e3436" stroke-width="1.5" d="M2820,-0.5C2820,-0.5 2850,-0.5 2850,-0.5 2856,-0.5 2862,-6.5 2862,-12.5 2862,-12.5 2862,-24.5 2862,-24.5 2862,-30.5 2856,-36.5 2850,-36.5 2850,-36.5 2820,-36.5 2820,-36.5 2814,-36.5 2808,-30.5 2808,-24.5 2808,-24.5 2808,-12.5 2808,-12.5 2808,-6.5 2814,-0.5 2820,-0.5"/>
<text text-anchor="middle" x="2835" y="-25.6" font-family="FreeSans" font-size="8.00" fill="#1c2021">Node[358]</text>
<polyline fill="none" stroke="#2e3436" stroke-width="1.5" points="2808,-18.5 2862,-18.5 "/>
<text text-anchor="middle" x="2835" y="-7.6" font-family="FreeSans" font-size="8.00" fill="#1c2021"> </text>
</g>
<!-- N357&#45;&gt;N358 -->
<g id="edge46" class="edge"><title>N357&#45;&gt;N358</title>
<path fill="none" stroke="#4e9a06" stroke-width="2" d="M2835,-82.1412C2835,-71.0583 2835,-56.5177 2835,-44.2358"/>
<polygon fill="#4e9a06" stroke="#4e9a06" stroke-width="2" points="2835,-36.5501 2838.38,-44.0501 2835.5,-40.3001 2835.5,-44.0501 2835,-44.0501 2834.5,-44.0501 2834.5,-40.3001 2831.63,-44.0501 2835,-36.5501 2835,-36.5501"/>
<text text-anchor="middle" x="2846.5" y="-57.6" font-family="FreeSans" font-size="8.00" fill="#4e9a06">LIKES</text>
</g>
<!-- N359 -->
<g id="node78" class="node"><title>N359</title>
<path fill="#ffffff" stroke="#2e3436" stroke-width="1.5" d="M2820,-164.5C2820,-164.5 2850,-164.5 2850,-164.5 2856,-164.5 2862,-170.5 2862,-176.5 2862,-176.5 2862,-188.5 2862,-188.5 2862,-194.5 2856,-200.5 2850,-200.5 2850,-200.5 2820,-200.5 2820,-200.5 2814,-200.5 2808,-194.5 2808,-188.5 2808,-188.5 2808,-176.5 2808,-176.5 2808,-170.5 2814,-164.5 2820,-164.5"/>
<text text-anchor="middle" x="2835" y="-189.6" font-family="FreeSans" font-size="8.00" fill="#1c2021">Node[359]</text>
<polyline fill="none" stroke="#2e3436" stroke-width="1.5" points="2808,-182.5 2862,-182.5 "/>
<text text-anchor="middle" x="2835" y="-171.6" font-family="FreeSans" font-size="8.00" fill="#1c2021"> </text>
</g>
<!-- N359&#45;&gt;N357 -->
<g id="edge47" class="edge"><title>N359&#45;&gt;N357</title>
<path fill="none" stroke="#4e9a06" stroke-width="2" d="M2835,-164.141C2835,-153.058 2835,-138.518 2835,-126.236"/>
<polygon fill="#4e9a06" stroke="#4e9a06" stroke-width="2" points="2835,-118.55 2838.38,-126.05 2835.5,-122.3 2835.5,-126.05 2835,-126.05 2834.5,-126.05 2834.5,-122.3 2831.63,-126.05 2835,-118.55 2835,-118.55"/>
<text text-anchor="middle" x="2846.5" y="-139.6" font-family="FreeSans" font-size="8.00" fill="#4e9a06">LIKES</text>
</g>
<!-- N361 -->
<g id="node79" class="node"><title>N361</title>
<path fill="#ffffff" stroke="#2e3436" stroke-width="1.5" d="M2903,-164.5C2903,-164.5 2933,-164.5 2933,-164.5 2939,-164.5 2945,-170.5 2945,-176.5 2945,-176.5 2945,-188.5 2945,-188.5 2945,-194.5 2939,-200.5 2933,-200.5 2933,-200.5 2903,-200.5 2903,-200.5 2897,-200.5 2891,-194.5 2891,-188.5 2891,-188.5 2891,-176.5 2891,-176.5 2891,-170.5 2897,-164.5 2903,-164.5"/>
<text text-anchor="middle" x="2918" y="-189.6" font-family="FreeSans" font-size="8.00" fill="#1c2021">Node[361]</text>
<polyline fill="none" stroke="#2e3436" stroke-width="1.5" points="2891,-182.5 2945,-182.5 "/>
<text text-anchor="middle" x="2918" y="-171.6" font-family="FreeSans" font-size="8.00" fill="#1c2021"> </text>
</g>
</g>
</svg>
