<?xml version="1.0" encoding="UTF-8" standalone="no"?>
<!DOCTYPE svg PUBLIC "-//W3C//DTD SVG 1.1//EN"
 "http://www.w3.org/Graphics/SVG/1.1/DTD/svg11.dtd">
<!-- Generated by graphviz version 2.38.0 (20140413.2041)
 -->
<!-- Title: g Pages: 1 -->
<svg width="345pt" height="52pt"
 viewBox="0.00 0.00 345.00 52.00" xmlns="http://www.w3.org/2000/svg" xmlns:xlink="http://www.w3.org/1999/xlink">
<g id="graph0" class="graph" transform="scale(1 1) rotate(0) translate(4 48)">
<title>g</title>
<polygon fill="white" stroke="none" points="-4,4 -4,-48 341,-48 341,4 -4,4"/>
<!-- N10084 -->
<g id="node1" class="node"><title>N10084</title>
<path fill="#ffffff" stroke="#2e3436" stroke-width="1.5" d="M12,-4C12,-4 81,-4 81,-4 87,-4 93,-10 93,-16 93,-16 93,-28 93,-28 93,-34 87,-40 81,-40 81,-40 12,-40 12,-40 6,-40 -7.10543e-15,-34 -7.10543e-15,-28 -7.10543e-15,-28 -7.10543e-15,-16 -7.10543e-15,-16 -7.10543e-15,-10 6,-4 12,-4"/>
<text text-anchor="middle" x="46.5" y="-29.1" font-family="FreeSans" font-size="8.00" fill="#1c2021">Node[10084]: Person</text>
<polyline fill="none" stroke="#2e3436" stroke-width="1.5" points="-7.10543e-15,-22 93,-22 "/>
<text text-anchor="start" x="8" y="-11.1" font-family="FreeSans" font-size="8.00" fill="#1c2021">name = &#39;Andres&#39;</text>
</g>
<!-- N10085 -->
<g id="node2" class="node"><title>N10085</title>
<path fill="#ffffff" stroke="#2e3436" stroke-width="1.5" d="M134,-0.5C134,-0.5 203,-0.5 203,-0.5 209,-0.5 215,-6.5 215,-12.5 215,-12.5 215,-31.5 215,-31.5 215,-37.5 209,-43.5 203,-43.5 203,-43.5 134,-43.5 134,-43.5 128,-43.5 122,-37.5 122,-31.5 122,-31.5 122,-12.5 122,-12.5 122,-6.5 128,-0.5 134,-0.5"/>
<text text-anchor="middle" x="168.5" y="-33.1" font-family="FreeSans" font-size="8.00" fill="#1c2021">Node[10085]: Person</text>
<polyline fill="none" stroke="#2e3436" stroke-width="1.5" points="122,-26.5 215,-26.5 "/>
<text text-anchor="start" x="130" y="-16.1" font-family="FreeSans" font-size="8.00" fill="#1c2021">name = &#39;Andres&#39;</text>
<text text-anchor="start" x="130" y="-7.1" font-family="FreeSans" font-size="8.00" fill="#1c2021">position = &#39;Developer&#39;</text>
</g>
<!-- N10086 -->
<g id="node3" class="node"><title>N10086</title>
<path fill="#ffffff" stroke="#2e3436" stroke-width="1.5" d="M256,-0.5C256,-0.5 325,-0.5 325,-0.5 331,-0.5 337,-6.5 337,-12.5 337,-12.5 337,-31.5 337,-31.5 337,-37.5 331,-43.5 325,-43.5 325,-43.5 256,-43.5 256,-43.5 250,-43.5 244,-37.5 244,-31.5 244,-31.5 244,-12.5 244,-12.5 244,-6.5 250,-0.5 256,-0.5"/>
<text text-anchor="middle" x="290.5" y="-33.1" font-family="FreeSans" font-size="8.00" fill="#1c2021">Node[10086]: Person</text>
<polyline fill="none" stroke="#2e3436" stroke-width="1.5" points="244,-26.5 337,-26.5 "/>
<text text-anchor="start" x="252" y="-16.1" font-family="FreeSans" font-size="8.00" fill="#1c2021">name = &#39;Michael&#39;</text>
<text text-anchor="start" x="252" y="-7.1" font-family="FreeSans" font-size="8.00" fill="#1c2021">position = &#39;Developer&#39;</text>
</g>
</g>
</svg>
