<?xml version="1.0" encoding="UTF-8" standalone="no"?>
<!DOCTYPE svg PUBLIC "-//W3C//DTD SVG 1.1//EN"
 "http://www.w3.org/Graphics/SVG/1.1/DTD/svg11.dtd">
<!-- Generated by graphviz version 2.38.0 (20140413.2041)
 -->
<!-- Title: g Pages: 1 -->
<svg width="356pt" height="136pt"
 viewBox="0.00 0.00 356.00 136.00" xmlns="http://www.w3.org/2000/svg" xmlns:xlink="http://www.w3.org/1999/xlink">
<g id="graph0" class="graph" transform="scale(1 1) rotate(0) translate(4 132)">
<title>g</title>
<polygon fill="white" stroke="none" points="-4,4 -4,-132 352,-132 352,4 -4,4"/>
<!-- N394 -->
<g id="node1" class="node"><title>N394</title>
<path fill="#ffffff" stroke="#2e3436" stroke-width="1.5" d="M12,-91.5C12,-91.5 86,-91.5 86,-91.5 92,-91.5 98,-97.5 98,-103.5 98,-103.5 98,-115.5 98,-115.5 98,-121.5 92,-127.5 86,-127.5 86,-127.5 12,-127.5 12,-127.5 6,-127.5 0,-121.5 0,-115.5 0,-115.5 0,-103.5 0,-103.5 0,-97.5 6,-91.5 12,-91.5"/>
<text text-anchor="middle" x="49" y="-116.6" font-family="FreeSans" font-size="8.00" fill="#1c2021">Node[394]</text>
<polyline fill="none" stroke="#2e3436" stroke-width="1.5" points="0,-109.5 98,-109.5 "/>
<text text-anchor="start" x="8" y="-98.6" font-family="FreeSans" font-size="8.00" fill="#1c2021">name = &#39;Tobias Tester&#39;</text>
</g>
<!-- N395 -->
<g id="node2" class="node"><title>N395</title>
<path fill="#ffffff" stroke="#2e3436" stroke-width="1.5" d="M49,-0.5C49,-0.5 125,-0.5 125,-0.5 131,-0.5 137,-6.5 137,-12.5 137,-12.5 137,-24.5 137,-24.5 137,-30.5 131,-36.5 125,-36.5 125,-36.5 49,-36.5 49,-36.5 43,-36.5 37,-30.5 37,-24.5 37,-24.5 37,-12.5 37,-12.5 37,-6.5 43,-0.5 49,-0.5"/>
<text text-anchor="middle" x="87" y="-25.6" font-family="FreeSans" font-size="8.00" fill="#1c2021">Node[395]</text>
<polyline fill="none" stroke="#2e3436" stroke-width="1.5" points="37,-18.5 137,-18.5 "/>
<text text-anchor="start" x="45" y="-7.6" font-family="FreeSans" font-size="8.00" fill="#1c2021">name = &#39;Andres Tester&#39;</text>
</g>
<!-- N394&#45;&gt;N395 -->
<g id="edge1" class="edge"><title>N394&#45;&gt;N395</title>
<path fill="none" stroke="#2e3436" stroke-width="2" d="M33.8933,-91.1089C26.4874,-80.3798 20.4331,-66.5157 27,-55 29.9932,-49.7512 34.1006,-45.1996 38.7739,-41.2727"/>
<polygon fill="#2e3436" stroke="#2e3436" stroke-width="2" points="44.9549,-36.6275 40.987,-43.8314 42.2575,-39.2801 39.2597,-41.5331 38.9593,-41.1334 38.6589,-40.7337 41.6567,-38.4807 36.9316,-38.4354 44.9549,-36.6275 44.9549,-36.6275"/>
<text text-anchor="middle" x="68" y="-66.6" font-family="FreeSans" font-size="8.00" fill="#2e3436">FRIENDS</text>
<text text-anchor="start" x="27" y="-57.6" font-family="FreeSans" font-size="8.00" fill="#2e3436">name = &#39;tobias&#45;andres&#39;</text>
</g>
<!-- N395&#45;&gt;N394 -->
<g id="edge2" class="edge"><title>N395&#45;&gt;N394</title>
<path fill="none" stroke="#2e3436" stroke-width="2" d="M103.72,-36.7724C111.968,-47.4568 118.828,-61.3156 112,-73 108.927,-78.2588 104.756,-82.7994 100.014,-86.7052"/>
<polygon fill="#2e3436" stroke="#2e3436" stroke-width="2" points="93.7409,-91.3191 97.7828,-84.1564 96.4655,-88.6944 99.4863,-86.4724 99.7826,-86.8752 100.079,-87.278 97.058,-89.5 101.782,-89.594 93.7409,-91.3191 93.7409,-91.3191"/>
<text text-anchor="middle" x="156" y="-66.6" font-family="FreeSans" font-size="8.00" fill="#2e3436">FRIENDS</text>
<text text-anchor="start" x="115" y="-57.6" font-family="FreeSans" font-size="8.00" fill="#2e3436">name = &#39;andres&#45;tobias&#39;</text>
</g>
<!-- N397 -->
<g id="node3" class="node"><title>N397</title>
<path fill="#ffffff" stroke="#2e3436" stroke-width="1.5" d="M178,-91.5C178,-91.5 208,-91.5 208,-91.5 214,-91.5 220,-97.5 220,-103.5 220,-103.5 220,-115.5 220,-115.5 220,-121.5 214,-127.5 208,-127.5 208,-127.5 178,-127.5 178,-127.5 172,-127.5 166,-121.5 166,-115.5 166,-115.5 166,-103.5 166,-103.5 166,-97.5 172,-91.5 178,-91.5"/>
<text text-anchor="middle" x="193" y="-116.6" font-family="FreeSans" font-size="8.00" fill="#1c2021">Node[397]</text>
<polyline fill="none" stroke="#2e3436" stroke-width="1.5" points="166,-109.5 220,-109.5 "/>
<text text-anchor="start" x="174" y="-98.6" font-family="FreeSans" font-size="8.00" fill="#1c2021">age = 1</text>
</g>
<!-- N401 -->
<g id="node4" class="node"><title>N401</title>
<path fill="#ffffff" stroke="#2e3436" stroke-width="1.5" d="M280,-91.5C280,-91.5 318,-91.5 318,-91.5 324,-91.5 330,-97.5 330,-103.5 330,-103.5 330,-115.5 330,-115.5 330,-121.5 324,-127.5 318,-127.5 318,-127.5 280,-127.5 280,-127.5 274,-127.5 268,-121.5 268,-115.5 268,-115.5 268,-103.5 268,-103.5 268,-97.5 274,-91.5 280,-91.5"/>
<text text-anchor="middle" x="299" y="-116.6" font-family="FreeSans" font-size="8.00" fill="#1c2021">Node[401]</text>
<polyline fill="none" stroke="#2e3436" stroke-width="1.5" points="268,-109.5 330,-109.5 "/>
<text text-anchor="start" x="276" y="-98.6" font-family="FreeSans" font-size="8.00" fill="#1c2021">name = &#39;bob&#39;</text>
</g>
<!-- N402 -->
<g id="node5" class="node"><title>N402</title>
<path fill="#ffffff" stroke="#2e3436" stroke-width="1.5" d="M284,-0.5C284,-0.5 314,-0.5 314,-0.5 320,-0.5 326,-6.5 326,-12.5 326,-12.5 326,-24.5 326,-24.5 326,-30.5 320,-36.5 314,-36.5 314,-36.5 284,-36.5 284,-36.5 278,-36.5 272,-30.5 272,-24.5 272,-24.5 272,-12.5 272,-12.5 272,-6.5 278,-0.5 284,-0.5"/>
<text text-anchor="middle" x="299" y="-25.6" font-family="FreeSans" font-size="8.00" fill="#1c2021">Node[402]</text>
<polyline fill="none" stroke="#2e3436" stroke-width="1.5" points="272,-18.5 326,-18.5 "/>
<text text-anchor="start" x="280" y="-7.6" font-family="FreeSans" font-size="8.00" fill="#1c2021">age = 12</text>
</g>
<!-- N401&#45;&gt;N402 -->
<g id="edge3" class="edge"><title>N401&#45;&gt;N402</title>
<path fill="none" stroke="#4e9a06" stroke-width="2" d="M299,-91.3399C299,-78.0425 299,-59.4274 299,-44.4783"/>
<polygon fill="#4e9a06" stroke="#4e9a06" stroke-width="2" points="299,-36.6074 302.375,-44.1074 299.5,-40.3574 299.5,-44.1074 299,-44.1074 298.5,-44.1074 298.5,-40.3574 295.625,-44.1075 299,-36.6074 299,-36.6074"/>
<text text-anchor="middle" x="323.5" y="-66.6" font-family="FreeSans" font-size="8.00" fill="#4e9a06">KNOWS</text>
<text text-anchor="start" x="299" y="-57.6" font-family="FreeSans" font-size="8.00" fill="#4e9a06">since = &#39;2010&#39;</text>
</g>
</g>
</svg>
