<?xml version="1.0" encoding="UTF-8" standalone="no"?>
<!DOCTYPE svg PUBLIC "-//W3C//DTD SVG 1.1//EN"
 "http://www.w3.org/Graphics/SVG/1.1/DTD/svg11.dtd">
<!-- Generated by graphviz version 2.38.0 (20140413.2041)
 -->
<!-- Title: g Pages: 1 -->
<svg width="80pt" height="136pt"
 viewBox="0.00 0.00 80.35 136.00" xmlns="http://www.w3.org/2000/svg" xmlns:xlink="http://www.w3.org/1999/xlink">
<g id="graph0" class="graph" transform="scale(1 1) rotate(0) translate(4 132)">
<title>g</title>
<polygon fill="white" stroke="none" points="-4,4 -4,-132 76.3533,-132 76.3533,4 -4,4"/>
<!-- N10 -->
<g id="node1" class="node"><title>N10</title>
<path fill="#ffffff" stroke="#2e3436" stroke-width="1.5" d="M18.3533,-0.5C18.3533,-0.5 60.3533,-0.5 60.3533,-0.5 66.3533,-0.5 72.3533,-6.5 72.3533,-12.5 72.3533,-12.5 72.3533,-24.5 72.3533,-24.5 72.3533,-30.5 66.3533,-36.5 60.3533,-36.5 60.3533,-36.5 18.3533,-36.5 18.3533,-36.5 12.3533,-36.5 6.35331,-30.5 6.35331,-24.5 6.35331,-24.5 6.35331,-12.5 6.35331,-12.5 6.35331,-6.5 12.3533,-0.5 18.3533,-0.5"/>
<text text-anchor="middle" x="39.3533" y="-25.6" font-family="FreeSans" font-size="8.00" fill="#1c2021">Node[10]</text>
<polyline fill="none" stroke="#2e3436" stroke-width="1.5" points="6.35331,-18.5 72.3533,-18.5 "/>
<text text-anchor="start" x="14.3533" y="-7.6" font-family="FreeSans" font-size="8.00" fill="#1c2021">name = &#39;Sara&#39;</text>
</g>
<!-- N11 -->
<g id="node2" class="node"><title>N11</title>
<path fill="#ffffff" stroke="#2e3436" stroke-width="1.5" d="M20.3533,-91.5C20.3533,-91.5 58.3533,-91.5 58.3533,-91.5 64.3533,-91.5 70.3533,-97.5 70.3533,-103.5 70.3533,-103.5 70.3533,-115.5 70.3533,-115.5 70.3533,-121.5 64.3533,-127.5 58.3533,-127.5 58.3533,-127.5 20.3533,-127.5 20.3533,-127.5 14.3533,-127.5 8.35331,-121.5 8.35331,-115.5 8.35331,-115.5 8.35331,-103.5 8.35331,-103.5 8.35331,-97.5 14.3533,-91.5 20.3533,-91.5"/>
<text text-anchor="middle" x="39.3533" y="-116.6" font-family="FreeSans" font-size="8.00" fill="#1c2021">Node[11]</text>
<polyline fill="none" stroke="#2e3436" stroke-width="1.5" points="8.35331,-109.5 70.3533,-109.5 "/>
<text text-anchor="start" x="16.3533" y="-98.6" font-family="FreeSans" font-size="8.00" fill="#1c2021">name = &#39;Joe&#39;</text>
</g>
<!-- N11&#45;&gt;N10 -->
<g id="edge1" class="edge"><title>N11&#45;&gt;N10</title>
<path fill="none" stroke="#2e3436" stroke-width="2" d="M15.6619,-91.2735C10.2781,-86.0653 5.28624,-79.8786 2.35331,-73 -0.784438,-65.641 -0.784438,-62.359 2.35331,-55 4.27805,-50.4859 7.08948,-46.2698 10.3165,-42.4327"/>
<polygon fill="#2e3436" stroke="#2e3436" stroke-width="2" points="15.6619,-36.7265 12.9975,-44.5074 13.4631,-39.8051 10.8993,-42.5419 10.5344,-42.2001 10.1695,-41.8582 12.7332,-39.1215 8.07132,-39.8927 15.6619,-36.7265 15.6619,-36.7265"/>
<text text-anchor="middle" x="20.3533" y="-66.6" font-family="FreeSans" font-size="8.00" fill="#2e3436">LOVES</text>
<text text-anchor="start" x="2.35331" y="-57.6" font-family="FreeSans" font-size="8.00" fill="#2e3436">foo = &#39;bar&#39;</text>
</g>
<!-- N11&#45;&gt;N10 -->
<g id="edge2" class="edge"><title>N11&#45;&gt;N10</title>
<path fill="none" stroke="#4e9a06" stroke-width="2" d="M40.5251,-91.1743C40.8636,-85.3968 41.1866,-78.9237 41.3533,-73 41.5784,-65.0032 41.5784,-62.9968 41.3533,-55 41.2569,-51.5754 41.1083,-47.9671 40.9347,-44.4158"/>
<polygon fill="#4e9a06" stroke="#4e9a06" stroke-width="2" points="40.5251,-36.8257 44.2994,-44.1329 41.2265,-40.5433 41.4286,-44.2879 40.9293,-44.3148 40.4301,-44.3418 40.2279,-40.5972 37.5592,-44.4967 40.5251,-36.8257 40.5251,-36.8257"/>
<text text-anchor="middle" x="53.3533" y="-62.1" font-family="FreeSans" font-size="8.00" fill="#4e9a06">knows</text>
</g>
</g>
</svg>
