<?xml version="1.0" encoding="UTF-8" standalone="no"?>
<!DOCTYPE svg PUBLIC "-//W3C//DTD SVG 1.1//EN"
 "http://www.w3.org/Graphics/SVG/1.1/DTD/svg11.dtd">
<!-- Generated by graphviz version 2.38.0 (20140413.2041)
 -->
<!-- Title: g Pages: 1 -->
<svg width="181pt" height="45pt"
 viewBox="0.00 0.00 180.50 45.00" xmlns="http://www.w3.org/2000/svg" xmlns:xlink="http://www.w3.org/1999/xlink">
<g id="graph0" class="graph" transform="scale(1 1) rotate(0) translate(4 41)">
<title>g</title>
<polygon fill="white" stroke="none" points="-4,4 -4,-41 176.5,-41 176.5,4 -4,4"/>
<!-- N17 -->
<g id="node1" class="node"><title>N17</title>
<path fill="#ffffff" stroke="#2e3436" stroke-width="1.5" d="M12,-0.5C12,-0.5 56,-0.5 56,-0.5 62,-0.5 68,-6.5 68,-12.5 68,-12.5 68,-24.5 68,-24.5 68,-30.5 62,-36.5 56,-36.5 56,-36.5 12,-36.5 12,-36.5 6,-36.5 0,-30.5 0,-24.5 0,-24.5 0,-12.5 0,-12.5 0,-6.5 6,-0.5 12,-0.5"/>
<text text-anchor="middle" x="34" y="-25.6" font-family="FreeSans" font-size="8.00" fill="#1c2021">Node[17]</text>
<polyline fill="none" stroke="#2e3436" stroke-width="1.5" points="0,-18.5 68,-18.5 "/>
<text text-anchor="start" x="8" y="-7.6" font-family="FreeSans" font-size="8.00" fill="#1c2021">name = &#39;Juliet&#39;</text>
</g>
<!-- N18 -->
<g id="node2" class="node"><title>N18</title>
<path fill="#ffffff" stroke="#2e3436" stroke-width="1.5" d="M109.5,-0.5C109.5,-0.5 160.5,-0.5 160.5,-0.5 166.5,-0.5 172.5,-6.5 172.5,-12.5 172.5,-12.5 172.5,-24.5 172.5,-24.5 172.5,-30.5 166.5,-36.5 160.5,-36.5 160.5,-36.5 109.5,-36.5 109.5,-36.5 103.5,-36.5 97.5,-30.5 97.5,-24.5 97.5,-24.5 97.5,-12.5 97.5,-12.5 97.5,-6.5 103.5,-0.5 109.5,-0.5"/>
<text text-anchor="middle" x="135" y="-25.6" font-family="FreeSans" font-size="8.00" fill="#1c2021">Node[18]</text>
<polyline fill="none" stroke="#2e3436" stroke-width="1.5" points="97.5,-18.5 172.5,-18.5 "/>
<text text-anchor="start" x="105.5" y="-7.6" font-family="FreeSans" font-size="8.00" fill="#1c2021">name = &#39;Romeo&#39;</text>
</g>
</g>
</svg>
