<?xml version="1.0" encoding="UTF-8" standalone="no"?>
<!DOCTYPE svg PUBLIC "-//W3C//DTD SVG 1.1//EN"
 "http://www.w3.org/Graphics/SVG/1.1/DTD/svg11.dtd">
<!-- Generated by graphviz version 2.38.0 (20140413.2041)
 -->
<!-- Title: g Pages: 1 -->
<svg width="371pt" height="45pt"
 viewBox="0.00 0.00 370.50 45.00" xmlns="http://www.w3.org/2000/svg" xmlns:xlink="http://www.w3.org/1999/xlink">
<g id="graph0" class="graph" transform="scale(1 1) rotate(0) translate(4 41)">
<title>g</title>
<polygon fill="white" stroke="none" points="-4,4 -4,-41 366.5,-41 366.5,4 -4,4"/>
<!-- N10144 -->
<g id="node1" class="node"><title>N10144</title>
<path fill="#ffffff" stroke="#2e3436" stroke-width="1.5" d="M12,-0.5C12,-0.5 98,-0.5 98,-0.5 104,-0.5 110,-6.5 110,-12.5 110,-12.5 110,-24.5 110,-24.5 110,-30.5 104,-36.5 98,-36.5 98,-36.5 12,-36.5 12,-36.5 6,-36.5 0,-30.5 0,-24.5 0,-24.5 0,-12.5 0,-12.5 0,-6.5 6,-0.5 12,-0.5"/>
<text text-anchor="middle" x="55" y="-25.6" font-family="FreeSans" font-size="8.00" fill="#1c2021">Node[10144]: Person</text>
<polyline fill="none" stroke="#2e3436" stroke-width="1.5" points="0,-18.5 110,-18.5 "/>
<text text-anchor="start" x="8" y="-7.6" font-family="FreeSans" font-size="8.00" fill="#1c2021">name = &#39;Steven Spielberg&#39;</text>
</g>
<!-- N10145 -->
<g id="node2" class="node"><title>N10145</title>
<path fill="#ffffff" stroke="#2e3436" stroke-width="1.5" d="M151,-0.5C151,-0.5 229,-0.5 229,-0.5 235,-0.5 241,-6.5 241,-12.5 241,-12.5 241,-24.5 241,-24.5 241,-30.5 235,-36.5 229,-36.5 229,-36.5 151,-36.5 151,-36.5 145,-36.5 139,-30.5 139,-24.5 139,-24.5 139,-12.5 139,-12.5 139,-6.5 145,-0.5 151,-0.5"/>
<text text-anchor="middle" x="190" y="-25.6" font-family="FreeSans" font-size="8.00" fill="#1c2021">Node[10145]: Person</text>
<polyline fill="none" stroke="#2e3436" stroke-width="1.5" points="139,-18.5 241,-18.5 "/>
<text text-anchor="start" x="147" y="-7.6" font-family="FreeSans" font-size="8.00" fill="#1c2021">name = &#39;Clint Eastwood&#39;</text>
</g>
<!-- N10146 -->
<g id="node3" class="node"><title>N10146</title>
<path fill="#ffffff" stroke="#2e3436" stroke-width="1.5" d="M281.5,-0.5C281.5,-0.5 350.5,-0.5 350.5,-0.5 356.5,-0.5 362.5,-6.5 362.5,-12.5 362.5,-12.5 362.5,-24.5 362.5,-24.5 362.5,-30.5 356.5,-36.5 350.5,-36.5 350.5,-36.5 281.5,-36.5 281.5,-36.5 275.5,-36.5 269.5,-30.5 269.5,-24.5 269.5,-24.5 269.5,-12.5 269.5,-12.5 269.5,-6.5 275.5,-0.5 281.5,-0.5"/>
<text text-anchor="middle" x="316" y="-25.6" font-family="FreeSans" font-size="8.00" fill="#1c2021">Node[10146]: Person</text>
<polyline fill="none" stroke="#2e3436" stroke-width="1.5" points="269.5,-18.5 362.5,-18.5 "/>
<text text-anchor="middle" x="316" y="-7.6" font-family="FreeSans" font-size="8.00" fill="#1c2021"> </text>
</g>
</g>
</svg>
