<?xml version="1.0" encoding="UTF-8" standalone="no"?>
<!DOCTYPE svg PUBLIC "-//W3C//DTD SVG 1.1//EN"
 "http://www.w3.org/Graphics/SVG/1.1/DTD/svg11.dtd">
<!-- Generated by graphviz version 2.38.0 (20140413.2041)
 -->
<!-- Title: g Pages: 1 -->
<svg width="414pt" height="45pt"
 viewBox="0.00 0.00 414.00 45.00" xmlns="http://www.w3.org/2000/svg" xmlns:xlink="http://www.w3.org/1999/xlink">
<g id="graph0" class="graph" transform="scale(1 1) rotate(0) translate(4 41)">
<title>g</title>
<polygon fill="white" stroke="none" points="-4,4 -4,-41 410,-41 410,4 -4,4"/>
<!-- N10141 -->
<g id="node1" class="node"><title>N10141</title>
<path fill="#ffffff" stroke="#2e3436" stroke-width="1.5" d="M12,-0.5C12,-0.5 98,-0.5 98,-0.5 104,-0.5 110,-6.5 110,-12.5 110,-12.5 110,-24.5 110,-24.5 110,-30.5 104,-36.5 98,-36.5 98,-36.5 12,-36.5 12,-36.5 6,-36.5 0,-30.5 0,-24.5 0,-24.5 0,-12.5 0,-12.5 0,-6.5 6,-0.5 12,-0.5"/>
<text text-anchor="middle" x="55" y="-25.6" font-family="FreeSans" font-size="8.00" fill="#1c2021">Node[10141]: Director</text>
<polyline fill="none" stroke="#2e3436" stroke-width="1.5" points="0,-18.5 110,-18.5 "/>
<text text-anchor="start" x="8" y="-7.6" font-family="FreeSans" font-size="8.00" fill="#1c2021">name = &#39;Steven Spielberg&#39;</text>
</g>
<!-- N10142 -->
<g id="node2" class="node"><title>N10142</title>
<path fill="#ffffff" stroke="#2e3436" stroke-width="1.5" d="M151.5,-0.5C151.5,-0.5 248.5,-0.5 248.5,-0.5 254.5,-0.5 260.5,-6.5 260.5,-12.5 260.5,-12.5 260.5,-24.5 260.5,-24.5 260.5,-30.5 254.5,-36.5 248.5,-36.5 248.5,-36.5 151.5,-36.5 151.5,-36.5 145.5,-36.5 139.5,-30.5 139.5,-24.5 139.5,-24.5 139.5,-12.5 139.5,-12.5 139.5,-6.5 145.5,-0.5 151.5,-0.5"/>
<text text-anchor="middle" x="200" y="-25.6" font-family="FreeSans" font-size="8.00" fill="#1c2021">Node[10142]: Director, Actor</text>
<polyline fill="none" stroke="#2e3436" stroke-width="1.5" points="139.5,-18.5 260.5,-18.5 "/>
<text text-anchor="start" x="147.5" y="-7.6" font-family="FreeSans" font-size="8.00" fill="#1c2021">name = &#39;Clint Eastwood&#39;</text>
</g>
<!-- N10143 -->
<g id="node3" class="node"><title>N10143</title>
<path fill="#ffffff" stroke="#2e3436" stroke-width="1.5" d="M302,-0.5C302,-0.5 394,-0.5 394,-0.5 400,-0.5 406,-6.5 406,-12.5 406,-12.5 406,-24.5 406,-24.5 406,-30.5 400,-36.5 394,-36.5 394,-36.5 302,-36.5 302,-36.5 296,-36.5 290,-30.5 290,-24.5 290,-24.5 290,-12.5 290,-12.5 290,-6.5 296,-0.5 302,-0.5"/>
<text text-anchor="middle" x="348" y="-25.6" font-family="FreeSans" font-size="8.00" fill="#1c2021">Node[10143]: Actor</text>
<polyline fill="none" stroke="#2e3436" stroke-width="1.5" points="290,-18.5 406,-18.5 "/>
<text text-anchor="start" x="298" y="-7.6" font-family="FreeSans" font-size="8.00" fill="#1c2021">name = &#39;Donald Sutherland&#39;</text>
</g>
</g>
</svg>
