<?xml version="1.0" encoding="UTF-8" standalone="no"?>
<!DOCTYPE svg PUBLIC "-//W3C//DTD SVG 1.1//EN"
 "http://www.w3.org/Graphics/SVG/1.1/DTD/svg11.dtd">
<!-- Generated by graphviz version 2.38.0 (20140413.2041)
 -->
<!-- Title: g Pages: 1 -->
<svg width="255pt" height="373pt"
 viewBox="0.00 0.00 254.50 373.00" xmlns="http://www.w3.org/2000/svg" xmlns:xlink="http://www.w3.org/1999/xlink">
<g id="graph0" class="graph" transform="scale(1 1) rotate(0) translate(4 369)">
<title>g</title>
<polygon fill="white" stroke="none" points="-4,4 -4,-369 250.5,-369 250.5,4 -4,4"/>
<!-- N425 -->
<g id="node1" class="node"><title>N425</title>
<path fill="#ffffff" stroke="#2e3436" stroke-width="1.5" d="M15.5,-0.5C15.5,-0.5 57.5,-0.5 57.5,-0.5 63.5,-0.5 69.5,-6.5 69.5,-12.5 69.5,-12.5 69.5,-24.5 69.5,-24.5 69.5,-30.5 63.5,-36.5 57.5,-36.5 57.5,-36.5 15.5,-36.5 15.5,-36.5 9.5,-36.5 3.5,-30.5 3.5,-24.5 3.5,-24.5 3.5,-12.5 3.5,-12.5 3.5,-6.5 9.5,-0.5 15.5,-0.5"/>
<text text-anchor="middle" x="36.5" y="-25.6" font-family="FreeSans" font-size="8.00" fill="#1c2021">Node[425]</text>
<polyline fill="none" stroke="#2e3436" stroke-width="1.5" points="3.5,-18.5 69.5,-18.5 "/>
<text text-anchor="start" x="11.5" y="-7.6" font-family="FreeSans" font-size="8.00" fill="#1c2021">name = &#39;Sara&#39;</text>
</g>
<!-- N426 -->
<g id="node2" class="node"><title>N426</title>
<path fill="#ffffff" stroke="#2e3436" stroke-width="1.5" d="M84,-246.5C84,-246.5 131,-246.5 131,-246.5 137,-246.5 143,-252.5 143,-258.5 143,-258.5 143,-270.5 143,-270.5 143,-276.5 137,-282.5 131,-282.5 131,-282.5 84,-282.5 84,-282.5 78,-282.5 72,-276.5 72,-270.5 72,-270.5 72,-258.5 72,-258.5 72,-252.5 78,-246.5 84,-246.5"/>
<text text-anchor="middle" x="107.5" y="-271.6" font-family="FreeSans" font-size="8.00" fill="#1c2021">Node[426]</text>
<polyline fill="none" stroke="#2e3436" stroke-width="1.5" points="72,-264.5 143,-264.5 "/>
<text text-anchor="start" x="80" y="-253.6" font-family="FreeSans" font-size="8.00" fill="#1c2021">name = &#39;Johan&#39;</text>
</g>
<!-- N427 -->
<g id="node3" class="node"><title>N427</title>
<path fill="#ffffff" stroke="#2e3436" stroke-width="1.5" d="M87.5,-164.5C87.5,-164.5 127.5,-164.5 127.5,-164.5 133.5,-164.5 139.5,-170.5 139.5,-176.5 139.5,-176.5 139.5,-188.5 139.5,-188.5 139.5,-194.5 133.5,-200.5 127.5,-200.5 127.5,-200.5 87.5,-200.5 87.5,-200.5 81.5,-200.5 75.5,-194.5 75.5,-188.5 75.5,-188.5 75.5,-176.5 75.5,-176.5 75.5,-170.5 81.5,-164.5 87.5,-164.5"/>
<text text-anchor="middle" x="107.5" y="-189.6" font-family="FreeSans" font-size="8.00" fill="#1c2021">Node[427]</text>
<polyline fill="none" stroke="#2e3436" stroke-width="1.5" points="75.5,-182.5 139.5,-182.5 "/>
<text text-anchor="start" x="83.5" y="-171.6" font-family="FreeSans" font-size="8.00" fill="#1c2021">name = &#39;Emil&#39;</text>
</g>
<!-- N426&#45;&gt;N427 -->
<g id="edge1" class="edge"><title>N426&#45;&gt;N427</title>
<path fill="none" stroke="#2e3436" stroke-width="2" d="M107.5,-246.141C107.5,-235.058 107.5,-220.518 107.5,-208.236"/>
<polygon fill="#2e3436" stroke="#2e3436" stroke-width="2" points="107.5,-200.55 110.875,-208.05 108,-204.3 108,-208.05 107.5,-208.05 107,-208.05 107,-204.3 104.125,-208.05 107.5,-200.55 107.5,-200.55"/>
<text text-anchor="middle" x="119.5" y="-221.6" font-family="FreeSans" font-size="8.00" fill="#2e3436">knows</text>
</g>
<!-- N429 -->
<g id="node4" class="node"><title>N429</title>
<path fill="#ffffff" stroke="#2e3436" stroke-width="1.5" d="M12,-82.5C12,-82.5 61,-82.5 61,-82.5 67,-82.5 73,-88.5 73,-94.5 73,-94.5 73,-106.5 73,-106.5 73,-112.5 67,-118.5 61,-118.5 61,-118.5 12,-118.5 12,-118.5 6,-118.5 0,-112.5 0,-106.5 0,-106.5 0,-94.5 0,-94.5 0,-88.5 6,-82.5 12,-82.5"/>
<text text-anchor="middle" x="36.5" y="-107.6" font-family="FreeSans" font-size="8.00" fill="#1c2021">Node[429]</text>
<polyline fill="none" stroke="#2e3436" stroke-width="1.5" points="0,-100.5 73,-100.5 "/>
<text text-anchor="start" x="8" y="-89.6" font-family="FreeSans" font-size="8.00" fill="#1c2021">name = &#39;Tobias&#39;</text>
</g>
<!-- N427&#45;&gt;N429 -->
<g id="edge2" class="edge"><title>N427&#45;&gt;N429</title>
<path fill="none" stroke="#2e3436" stroke-width="2" d="M92.0941,-164.141C81.7896,-152.531 68.1172,-137.125 56.9101,-124.497"/>
<polygon fill="#2e3436" stroke="#2e3436" stroke-width="2" points="51.632,-118.55 59.1346,-121.919 54.4951,-121.023 56.9843,-123.828 56.6104,-124.16 56.2364,-124.491 53.7472,-121.687 54.0861,-126.4 51.632,-118.55 51.632,-118.55"/>
<text text-anchor="middle" x="86.5" y="-139.6" font-family="FreeSans" font-size="8.00" fill="#2e3436">knows</text>
</g>
<!-- N430 -->
<g id="node5" class="node"><title>N430</title>
<path fill="#ffffff" stroke="#2e3436" stroke-width="1.5" d="M114.5,-82.5C114.5,-82.5 158.5,-82.5 158.5,-82.5 164.5,-82.5 170.5,-88.5 170.5,-94.5 170.5,-94.5 170.5,-106.5 170.5,-106.5 170.5,-112.5 164.5,-118.5 158.5,-118.5 158.5,-118.5 114.5,-118.5 114.5,-118.5 108.5,-118.5 102.5,-112.5 102.5,-106.5 102.5,-106.5 102.5,-94.5 102.5,-94.5 102.5,-88.5 108.5,-82.5 114.5,-82.5"/>
<text text-anchor="middle" x="136.5" y="-107.6" font-family="FreeSans" font-size="8.00" fill="#1c2021">Node[430]</text>
<polyline fill="none" stroke="#2e3436" stroke-width="1.5" points="102.5,-100.5 170.5,-100.5 "/>
<text text-anchor="start" x="110.5" y="-89.6" font-family="FreeSans" font-size="8.00" fill="#1c2021">name = &#39;Peter&#39;</text>
</g>
<!-- N427&#45;&gt;N430 -->
<g id="edge3" class="edge"><title>N427&#45;&gt;N430</title>
<path fill="none" stroke="#2e3436" stroke-width="2" d="M113.793,-164.141C117.848,-152.953 123.182,-138.24 127.66,-125.886"/>
<polygon fill="#2e3436" stroke="#2e3436" stroke-width="2" points="130.319,-118.55 130.936,-126.751 129.511,-122.246 128.233,-125.772 127.763,-125.601 127.293,-125.431 128.571,-121.905 124.59,-124.451 130.319,-118.55 130.319,-118.55"/>
<text text-anchor="middle" x="135.5" y="-139.6" font-family="FreeSans" font-size="8.00" fill="#2e3436">knows</text>
</g>
<!-- N429&#45;&gt;N425 -->
<g id="edge6" class="edge"><title>N429&#45;&gt;N425</title>
<path fill="none" stroke="#4e9a06" stroke-width="2" d="M36.5,-82.1412C36.5,-71.0583 36.5,-56.5177 36.5,-44.2358"/>
<polygon fill="#4e9a06" stroke="#4e9a06" stroke-width="2" points="36.5,-36.5501 39.8751,-44.0501 37,-40.3001 37.0001,-44.0501 36.5001,-44.0501 36.0001,-44.0501 36,-40.3001 33.1251,-44.0501 36.5,-36.5501 36.5,-36.5501"/>
<text text-anchor="middle" x="46" y="-57.6" font-family="FreeSans" font-size="8.00" fill="#4e9a06">loves</text>
</g>
<!-- N428 -->
<g id="node6" class="node"><title>N428</title>
<path fill="#ffffff" stroke="#2e3436" stroke-width="1.5" d="M148.5,-328.5C148.5,-328.5 190.5,-328.5 190.5,-328.5 196.5,-328.5 202.5,-334.5 202.5,-340.5 202.5,-340.5 202.5,-352.5 202.5,-352.5 202.5,-358.5 196.5,-364.5 190.5,-364.5 190.5,-364.5 148.5,-364.5 148.5,-364.5 142.5,-364.5 136.5,-358.5 136.5,-352.5 136.5,-352.5 136.5,-340.5 136.5,-340.5 136.5,-334.5 142.5,-328.5 148.5,-328.5"/>
<text text-anchor="middle" x="169.5" y="-353.6" font-family="FreeSans" font-size="8.00" fill="#1c2021">Node[428]</text>
<polyline fill="none" stroke="#2e3436" stroke-width="1.5" points="136.5,-346.5 202.5,-346.5 "/>
<text text-anchor="start" x="144.5" y="-335.6" font-family="FreeSans" font-size="8.00" fill="#1c2021">name = &#39;Root&#39;</text>
</g>
<!-- N428&#45;&gt;N426 -->
<g id="edge5" class="edge"><title>N428&#45;&gt;N426</title>
<path fill="none" stroke="#2e3436" stroke-width="2" d="M156.047,-328.141C147.049,-316.531 135.109,-301.125 125.323,-288.497"/>
<polygon fill="#2e3436" stroke="#2e3436" stroke-width="2" points="120.714,-282.55 127.976,-286.411 123.406,-285.208 125.703,-288.172 125.308,-288.478 124.913,-288.785 122.616,-285.82 122.64,-290.546 120.714,-282.55 120.714,-282.55"/>
<text text-anchor="middle" x="152.5" y="-303.6" font-family="FreeSans" font-size="8.00" fill="#2e3436">knows</text>
</g>
<!-- N431 -->
<g id="node7" class="node"><title>N431</title>
<path fill="#ffffff" stroke="#2e3436" stroke-width="1.5" d="M184.5,-246.5C184.5,-246.5 234.5,-246.5 234.5,-246.5 240.5,-246.5 246.5,-252.5 246.5,-258.5 246.5,-258.5 246.5,-270.5 246.5,-270.5 246.5,-276.5 240.5,-282.5 234.5,-282.5 234.5,-282.5 184.5,-282.5 184.5,-282.5 178.5,-282.5 172.5,-276.5 172.5,-270.5 172.5,-270.5 172.5,-258.5 172.5,-258.5 172.5,-252.5 178.5,-246.5 184.5,-246.5"/>
<text text-anchor="middle" x="209.5" y="-271.6" font-family="FreeSans" font-size="8.00" fill="#1c2021">Node[431]</text>
<polyline fill="none" stroke="#2e3436" stroke-width="1.5" points="172.5,-264.5 246.5,-264.5 "/>
<text text-anchor="start" x="180.5" y="-253.6" font-family="FreeSans" font-size="8.00" fill="#1c2021">name = &#39;Mattias&#39;</text>
</g>
<!-- N428&#45;&gt;N431 -->
<g id="edge4" class="edge"><title>N428&#45;&gt;N431</title>
<path fill="none" stroke="#2e3436" stroke-width="2" d="M178.179,-328.141C183.826,-316.847 191.269,-301.962 197.482,-289.536"/>
<polygon fill="#2e3436" stroke="#2e3436" stroke-width="2" points="200.975,-282.55 200.639,-290.768 199.745,-286.128 198.068,-289.482 197.621,-289.258 197.174,-289.035 198.851,-285.681 194.602,-287.749 200.975,-282.55 200.975,-282.55"/>
<text text-anchor="middle" x="203.5" y="-303.6" font-family="FreeSans" font-size="8.00" fill="#2e3436">knows</text>
</g>
</g>
</svg>
