<?xml version="1.0" encoding="UTF-8" standalone="no"?>
<!DOCTYPE svg PUBLIC "-//W3C//DTD SVG 1.1//EN"
 "http://www.w3.org/Graphics/SVG/1.1/DTD/svg11.dtd">
<!-- Generated by graphviz version 2.38.0 (20140413.2041)
 -->
<!-- Title: g Pages: 1 -->
<svg width="359pt" height="45pt"
 viewBox="0.00 0.00 359.00 45.00" xmlns="http://www.w3.org/2000/svg" xmlns:xlink="http://www.w3.org/1999/xlink">
<g id="graph0" class="graph" transform="scale(1 1) rotate(0) translate(4 41)">
<title>g</title>
<polygon fill="white" stroke="none" points="-4,4 -4,-41 355,-41 355,4 -4,4"/>
<!-- N2 -->
<g id="node1" class="node"><title>N2</title>
<path fill="#ffffff" stroke="#2e3436" stroke-width="1.5" d="M12,-0.5C12,-0.5 79,-0.5 79,-0.5 85,-0.5 91,-6.5 91,-12.5 91,-12.5 91,-24.5 91,-24.5 91,-30.5 85,-36.5 79,-36.5 79,-36.5 12,-36.5 12,-36.5 6,-36.5 0,-30.5 0,-24.5 0,-24.5 0,-12.5 0,-12.5 0,-6.5 6,-0.5 12,-0.5"/>
<text text-anchor="start" x="8" y="-21.1" font-family="FreeSans" font-size="8.00" fill="#1c2021">name = &#39;Tom Hanks&#39;</text>
<text text-anchor="start" x="8" y="-12.1" font-family="FreeSans" font-size="8.00" fill="#1c2021">born = 1956</text>
</g>
<!-- N3 -->
<g id="node2" class="node"><title>N3</title>
<path fill="#ffffff" stroke="#2e3436" stroke-width="1.5" d="M132,-0.5C132,-0.5 199,-0.5 199,-0.5 205,-0.5 211,-6.5 211,-12.5 211,-12.5 211,-24.5 211,-24.5 211,-30.5 205,-36.5 199,-36.5 199,-36.5 132,-36.5 132,-36.5 126,-36.5 120,-30.5 120,-24.5 120,-24.5 120,-12.5 120,-12.5 120,-6.5 126,-0.5 132,-0.5"/>
<text text-anchor="start" x="128" y="-21.1" font-family="FreeSans" font-size="8.00" fill="#1c2021">title = &#39;Forrest Gump&#39;</text>
<text text-anchor="start" x="128" y="-12.1" font-family="FreeSans" font-size="8.00" fill="#1c2021">released = 1994</text>
</g>
<!-- N4 -->
<g id="node3" class="node"><title>N4</title>
<path fill="#ffffff" stroke="#2e3436" stroke-width="1.5" d="M252,-0.5C252,-0.5 339,-0.5 339,-0.5 345,-0.5 351,-6.5 351,-12.5 351,-12.5 351,-24.5 351,-24.5 351,-30.5 345,-36.5 339,-36.5 339,-36.5 252,-36.5 252,-36.5 246,-36.5 240,-30.5 240,-24.5 240,-24.5 240,-12.5 240,-12.5 240,-6.5 246,-0.5 252,-0.5"/>
<text text-anchor="start" x="248" y="-21.1" font-family="FreeSans" font-size="8.00" fill="#1c2021">name = &#39;Robert Zemeckis&#39;</text>
<text text-anchor="start" x="248" y="-12.1" font-family="FreeSans" font-size="8.00" fill="#1c2021">born = 1951</text>
</g>
</g>
</svg>
