<?xml version="1.0" encoding="UTF-8" standalone="no"?>
<!DOCTYPE svg PUBLIC "-//W3C//DTD SVG 1.1//EN"
 "http://www.w3.org/Graphics/SVG/1.1/DTD/svg11.dtd">
<!-- Generated by graphviz version 2.38.0 (20140413.2041)
 -->
<!-- Title: g Pages: 1 -->
<svg width="287pt" height="45pt"
 viewBox="0.00 0.00 287.00 45.00" xmlns="http://www.w3.org/2000/svg" xmlns:xlink="http://www.w3.org/1999/xlink">
<g id="graph0" class="graph" transform="scale(1 1) rotate(0) translate(4 41)">
<title>g</title>
<polygon fill="white" stroke="none" points="-4,4 -4,-41 283,-41 283,4 -4,4"/>
<!-- N2 -->
<g id="node1" class="node"><title>N2</title>
<path fill="#ffffff" stroke="#2e3436" stroke-width="1.5" d="M12,-0.5C12,-0.5 79,-0.5 79,-0.5 85,-0.5 91,-6.5 91,-12.5 91,-12.5 91,-24.5 91,-24.5 91,-30.5 85,-36.5 79,-36.5 79,-36.5 12,-36.5 12,-36.5 6,-36.5 0,-30.5 0,-24.5 0,-24.5 0,-12.5 0,-12.5 0,-6.5 6,-0.5 12,-0.5"/>
<text text-anchor="start" x="8" y="-21.1" font-family="FreeSans" font-size="8.00" fill="#1c2021">name = &#39;Tom Hanks&#39;</text>
<text text-anchor="start" x="8" y="-12.1" font-family="FreeSans" font-size="8.00" fill="#1c2021">born = 1956</text>
</g>
<!-- N3 -->
<g id="node2" class="node"><title>N3</title>
<path fill="#ffffff" stroke="#2e3436" stroke-width="1.5" d="M200,-0.5C200,-0.5 267,-0.5 267,-0.5 273,-0.5 279,-6.5 279,-12.5 279,-12.5 279,-24.5 279,-24.5 279,-30.5 273,-36.5 267,-36.5 267,-36.5 200,-36.5 200,-36.5 194,-36.5 188,-30.5 188,-24.5 188,-24.5 188,-12.5 188,-12.5 188,-6.5 194,-0.5 200,-0.5"/>
<text text-anchor="start" x="196" y="-21.1" font-family="FreeSans" font-size="8.00" fill="#1c2021">title = &#39;Forrest Gump&#39;</text>
<text text-anchor="start" x="196" y="-12.1" font-family="FreeSans" font-size="8.00" fill="#1c2021">released = 1994</text>
</g>
<!-- N2&#45;&gt;N3 -->
<g id="edge1" class="edge"><title>N2&#45;&gt;N3</title>
<path fill="none" stroke="#2e3436" stroke-width="2" d="M91.0516,-18.5C117.87,-18.5 152.147,-18.5 180.241,-18.5"/>
<polygon fill="#2e3436" stroke="#2e3436" stroke-width="2" points="187.99,-18.5 180.49,-21.8751 184.24,-19 180.49,-19.0001 180.49,-18.5001 180.49,-18.0001 184.24,-18 180.49,-15.1251 187.99,-18.5 187.99,-18.5"/>
<text text-anchor="middle" x="139.5" y="-30.1" font-family="FreeSans" font-size="8.00" fill="#1c2021">ACTED_IN</text>
<text text-anchor="start" x="109" y="-21.1" font-family="FreeSans" font-size="8.00" fill="#1c2021">roles = [&#39;Forrest&#39;]</text>
</g>
</g>
</svg>
