<?xml version="1.0" encoding="UTF-8" standalone="no"?>
<!DOCTYPE svg PUBLIC "-//W3C//DTD SVG 1.1//EN"
 "http://www.w3.org/Graphics/SVG/1.1/DTD/svg11.dtd">
<!-- Generated by graphviz version 2.38.0 (20140413.2041)
 -->
<!-- Title: g Pages: 1 -->
<svg width="504pt" height="81pt"
 viewBox="0.00 0.00 504.00 81.06" xmlns="http://www.w3.org/2000/svg" xmlns:xlink="http://www.w3.org/1999/xlink">
<g id="graph0" class="graph" transform="scale(0.360257 0.360257) rotate(0) translate(4 221)">
<title>g</title>
<polygon fill="white" stroke="none" points="-4,4 -4,-221 1395,-221 1395,4 -4,4"/>
<!-- N0 -->
<g id="node1" class="node"><title>N0</title>
<path fill="#ffffff" stroke="#2e3436" stroke-width="1.5" d="M17,-180.5C17,-180.5 83,-180.5 83,-180.5 89,-180.5 95,-186.5 95,-192.5 95,-192.5 95,-204.5 95,-204.5 95,-210.5 89,-216.5 83,-216.5 83,-216.5 17,-216.5 17,-216.5 11,-216.5 5,-210.5 5,-204.5 5,-204.5 5,-192.5 5,-192.5 5,-186.5 11,-180.5 17,-180.5"/>
<text text-anchor="start" x="13" y="-196.6" font-family="FreeSans" font-size="8.00" fill="#1c2021">name = &#39;Rob Reiner&#39;</text>
</g>
<!-- N1 -->
<g id="node2" class="node"><title>N1</title>
<path fill="#ffffff" stroke="#2e3436" stroke-width="1.5" d="M12,-98.5C12,-98.5 88,-98.5 88,-98.5 94,-98.5 100,-104.5 100,-110.5 100,-110.5 100,-122.5 100,-122.5 100,-128.5 94,-134.5 88,-134.5 88,-134.5 12,-134.5 12,-134.5 6,-134.5 0,-128.5 0,-122.5 0,-122.5 0,-110.5 0,-110.5 0,-104.5 6,-98.5 12,-98.5"/>
<text text-anchor="start" x="8" y="-114.6" font-family="FreeSans" font-size="8.00" fill="#1c2021">name = &#39;Charlie Sheen&#39;</text>
</g>
<!-- N0&#45;&gt;N1 -->
<g id="edge1" class="edge"><title>N0&#45;&gt;N1</title>
<path fill="none" stroke="#2e3436" stroke-width="2" d="M50,-180.141C50,-169.058 50,-154.518 50,-142.236"/>
<polygon fill="#2e3436" stroke="#2e3436" stroke-width="2" points="50,-134.55 53.3751,-142.05 50.5,-138.3 50.5001,-142.05 50.0001,-142.05 49.5001,-142.05 49.5,-138.3 46.6251,-142.05 50,-134.55 50,-134.55"/>
<text text-anchor="middle" x="107" y="-155.6" font-family="FreeSans" font-size="8.00" fill="#2e3436">TYPE THAT HAS SPACE IN IT</text>
</g>
<!-- N2 -->
<g id="node3" class="node"><title>N2</title>
<path fill="#ffffff" stroke="#2e3436" stroke-width="1.5" d="M141.5,-98.5C141.5,-98.5 210.5,-98.5 210.5,-98.5 216.5,-98.5 222.5,-104.5 222.5,-110.5 222.5,-110.5 222.5,-122.5 222.5,-122.5 222.5,-128.5 216.5,-134.5 210.5,-134.5 210.5,-134.5 141.5,-134.5 141.5,-134.5 135.5,-134.5 129.5,-128.5 129.5,-122.5 129.5,-122.5 129.5,-110.5 129.5,-110.5 129.5,-104.5 135.5,-98.5 141.5,-98.5"/>
<text text-anchor="middle" x="176" y="-123.6" font-family="FreeSans" font-size="8.00" fill="#1c2021">Person</text>
<polyline fill="none" stroke="#2e3436" stroke-width="1.5" points="129.5,-116.5 222.5,-116.5 "/>
<text text-anchor="start" x="137.5" y="-105.6" font-family="FreeSans" font-size="8.00" fill="#1c2021">name = &#39;Oliver Stone&#39;</text>
</g>
<!-- N6 -->
<g id="node4" class="node"><title>N6</title>
<path fill="#ffffff" stroke="#2e3436" stroke-width="1.5" d="M274,-0.5C274,-0.5 336,-0.5 336,-0.5 342,-0.5 348,-6.5 348,-12.5 348,-12.5 348,-31.5 348,-31.5 348,-37.5 342,-43.5 336,-43.5 336,-43.5 274,-43.5 274,-43.5 268,-43.5 262,-37.5 262,-31.5 262,-31.5 262,-12.5 262,-12.5 262,-6.5 268,-0.5 274,-0.5"/>
<text text-anchor="middle" x="305" y="-33.1" font-family="FreeSans" font-size="8.00" fill="#1c2021">Movie</text>
<polyline fill="none" stroke="#2e3436" stroke-width="1.5" points="262,-26.5 348,-26.5 "/>
<text text-anchor="start" x="270" y="-16.1" font-family="FreeSans" font-size="8.00" fill="#1c2021">name = &#39;WallStreet&#39;</text>
<text text-anchor="start" x="270" y="-7.1" font-family="FreeSans" font-size="8.00" fill="#1c2021">title = &#39;Wall Street&#39;</text>
</g>
<!-- N2&#45;&gt;N6 -->
<g id="edge2" class="edge"><title>N2&#45;&gt;N6</title>
<path fill="none" stroke="#4e9a06" stroke-width="2" d="M185.671,-98.2202C192.82,-86.7188 203.464,-71.9496 216,-62 227.477,-52.8904 241.412,-45.4728 254.815,-39.6477"/>
<polygon fill="#4e9a06" stroke="#4e9a06" stroke-width="2" points="261.76,-36.7461 256.141,-42.7516 258.492,-38.6532 255.032,-40.0989 254.839,-39.6375 254.647,-39.1762 258.107,-37.7305 253.538,-36.5234 261.76,-36.7461 261.76,-36.7461"/>
<text text-anchor="middle" x="237.5" y="-69.1" font-family="FreeSans" font-size="8.00" fill="#4e9a06">DIRECTED</text>
</g>
<!-- N3 -->
<g id="node5" class="node"><title>N3</title>
<path fill="#ffffff" stroke="#2e3436" stroke-width="1.5" d="M962,-180.5C962,-180.5 1038,-180.5 1038,-180.5 1044,-180.5 1050,-186.5 1050,-192.5 1050,-192.5 1050,-204.5 1050,-204.5 1050,-210.5 1044,-216.5 1038,-216.5 1038,-216.5 962,-216.5 962,-216.5 956,-216.5 950,-210.5 950,-204.5 950,-204.5 950,-192.5 950,-192.5 950,-186.5 956,-180.5 962,-180.5"/>
<text text-anchor="middle" x="1000" y="-205.6" font-family="FreeSans" font-size="8.00" fill="#1c2021">Person</text>
<polyline fill="none" stroke="#2e3436" stroke-width="1.5" points="950,-198.5 1050,-198.5 "/>
<text text-anchor="start" x="958" y="-187.6" font-family="FreeSans" font-size="8.00" fill="#1c2021">name = &#39;Charlie Sheen&#39;</text>
</g>
<!-- N3&#45;&gt;N6 -->
<g id="edge10" class="edge"><title>N3&#45;&gt;N6</title>
<path fill="none" stroke="#8f5902" stroke-width="2" d="M949.933,-196.782C797.936,-194.092 349.518,-182.189 306,-135 285.571,-112.848 289.509,-76.4734 295.799,-51.213"/>
<polygon fill="#8f5902" stroke="#8f5902" stroke-width="2" points="297.802,-43.7584 299.115,-51.8774 297.312,-47.5097 296.338,-51.1312 295.856,-51.0015 295.373,-50.8717 296.346,-47.2502 292.596,-50.1256 297.802,-43.7584 297.802,-43.7584"/>
<text text-anchor="middle" x="326.5" y="-114.6" font-family="FreeSans" font-size="8.00" fill="#8f5902">ACTED_IN</text>
</g>
<!-- N14 -->
<g id="node6" class="node"><title>N14</title>
<path fill="#ffffff" stroke="#2e3436" stroke-width="1.5" d="M826,-4C826,-4 856,-4 856,-4 862,-4 868,-10 868,-16 868,-16 868,-28 868,-28 868,-34 862,-40 856,-40 856,-40 826,-40 826,-40 820,-40 814,-34 814,-28 814,-28 814,-16 814,-16 814,-10 820,-4 826,-4"/>
<text text-anchor="middle" x="841" y="-29.1" font-family="FreeSans" font-size="8.00" fill="#1c2021">Blocked</text>
<polyline fill="none" stroke="#2e3436" stroke-width="1.5" points="814,-22 868,-22 "/>
<text text-anchor="middle" x="841" y="-11.1" font-family="FreeSans" font-size="8.00" fill="#1c2021"> </text>
</g>
<!-- N3&#45;&gt;N14 -->
<g id="edge3" class="edge"><title>N3&#45;&gt;N14</title>
<path fill="none" stroke="#a40000" stroke-width="2" d="M949.594,-195.358C907.021,-190.563 848.422,-176.286 819,-135 800.473,-109.003 813.976,-71.3727 826.533,-47.0455"/>
<polygon fill="#a40000" stroke="#a40000" stroke-width="2" points="830.193,-40.2542 829.606,-48.4577 828.854,-43.7927 827.075,-47.094 826.635,-46.8568 826.195,-46.6196 827.974,-43.3183 823.664,-45.2558 830.193,-40.2542 830.193,-40.2542"/>
<text text-anchor="middle" x="845" y="-119.1" font-family="FreeSans" font-size="8.00" fill="#a40000">X</text>
<text text-anchor="start" x="819" y="-110.1" font-family="FreeSans" font-size="8.00" fill="#a40000">blocked = true</text>
</g>
<!-- N13 -->
<g id="node7" class="node"><title>N13</title>
<path fill="#ffffff" stroke="#2e3436" stroke-width="1.5" d="M1100,-4C1100,-4 1132,-4 1132,-4 1138,-4 1144,-10 1144,-16 1144,-16 1144,-28 1144,-28 1144,-34 1138,-40 1132,-40 1132,-40 1100,-40 1100,-40 1094,-40 1088,-34 1088,-28 1088,-28 1088,-16 1088,-16 1088,-10 1094,-4 1100,-4"/>
<text text-anchor="middle" x="1116" y="-29.1" font-family="FreeSans" font-size="8.00" fill="#1c2021">Unblocked</text>
<polyline fill="none" stroke="#2e3436" stroke-width="1.5" points="1088,-22 1144,-22 "/>
<text text-anchor="middle" x="1116" y="-11.1" font-family="FreeSans" font-size="8.00" fill="#1c2021"> </text>
</g>
<!-- N3&#45;&gt;N13 -->
<g id="edge4" class="edge"><title>N3&#45;&gt;N13</title>
<path fill="none" stroke="#a40000" stroke-width="2" d="M1026.64,-180.252C1043.04,-168.758 1063.76,-152.575 1079,-135 1097.52,-113.631 1102.45,-106.957 1111,-80 1114.22,-69.8389 1115.62,-58.1806 1116.16,-48.0659"/>
<polygon fill="#a40000" stroke="#a40000" stroke-width="2" points="1116.43,-40.3431 1119.54,-47.9546 1116.8,-44.108 1116.67,-47.8558 1116.17,-47.8386 1115.67,-47.8214 1115.8,-44.0737 1112.8,-47.7226 1116.43,-40.3431 1116.43,-40.3431"/>
<text text-anchor="middle" x="1131.5" y="-119.1" font-family="FreeSans" font-size="8.00" fill="#a40000">X</text>
<text text-anchor="start" x="1104" y="-110.1" font-family="FreeSans" font-size="8.00" fill="#a40000">blocked = false</text>
</g>
<!-- N12 -->
<g id="node8" class="node"><title>N12</title>
<path fill="#ffffff" stroke="#2e3436" stroke-width="1.5" d="M702,-4C702,-4 732,-4 732,-4 738,-4 744,-10 744,-16 744,-16 744,-28 744,-28 744,-34 738,-40 732,-40 732,-40 702,-40 702,-40 696,-40 690,-34 690,-28 690,-28 690,-16 690,-16 690,-10 696,-4 702,-4"/>
<text text-anchor="middle" x="717" y="-29.1" font-family="FreeSans" font-size="8.00" fill="#1c2021">Blocked</text>
<polyline fill="none" stroke="#2e3436" stroke-width="1.5" points="690,-22 744,-22 "/>
<text text-anchor="middle" x="717" y="-11.1" font-family="FreeSans" font-size="8.00" fill="#1c2021"> </text>
</g>
<!-- N3&#45;&gt;N12 -->
<g id="edge5" class="edge"><title>N3&#45;&gt;N12</title>
<path fill="none" stroke="#a40000" stroke-width="2" d="M949.957,-191.23C885.418,-182.118 778.211,-163.169 751,-135 728.196,-111.393 720.633,-72.9904 718.157,-47.8594"/>
<polygon fill="#a40000" stroke="#a40000" stroke-width="2" points="717.519,-40.2019 721.505,-47.3957 718.328,-43.8974 718.64,-47.6345 718.142,-47.676 717.643,-47.7176 717.332,-43.9805 714.778,-47.9564 717.519,-40.2019 717.519,-40.2019"/>
<text text-anchor="middle" x="777" y="-119.1" font-family="FreeSans" font-size="8.00" fill="#a40000">X</text>
<text text-anchor="start" x="751" y="-110.1" font-family="FreeSans" font-size="8.00" fill="#a40000">blocked = true</text>
</g>
<!-- N11 -->
<g id="node9" class="node"><title>N11</title>
<path fill="#ffffff" stroke="#2e3436" stroke-width="1.5" d="M1224,-4C1224,-4 1256,-4 1256,-4 1262,-4 1268,-10 1268,-16 1268,-16 1268,-28 1268,-28 1268,-34 1262,-40 1256,-40 1256,-40 1224,-40 1224,-40 1218,-40 1212,-34 1212,-28 1212,-28 1212,-16 1212,-16 1212,-10 1218,-4 1224,-4"/>
<text text-anchor="middle" x="1240" y="-29.1" font-family="FreeSans" font-size="8.00" fill="#1c2021">Unblocked</text>
<polyline fill="none" stroke="#2e3436" stroke-width="1.5" points="1212,-22 1268,-22 "/>
<text text-anchor="middle" x="1240" y="-11.1" font-family="FreeSans" font-size="8.00" fill="#1c2021"> </text>
</g>
<!-- N3&#45;&gt;N11 -->
<g id="edge6" class="edge"><title>N3&#45;&gt;N11</title>
<path fill="none" stroke="#a40000" stroke-width="2" d="M1050.22,-184.798C1084.61,-174.662 1130.26,-158.278 1166,-135 1194.7,-116.303 1201.9,-109.082 1220,-80 1226.2,-70.0419 1230.8,-57.9043 1234.01,-47.3928"/>
<polygon fill="#a40000" stroke="#a40000" stroke-width="2" points="1236.11,-40.0805 1237.29,-48.2207 1235.56,-43.8229 1234.52,-47.4273 1234.04,-47.2894 1233.56,-47.1514 1234.6,-43.547 1230.8,-46.3581 1236.11,-40.0805 1236.11,-40.0805"/>
<text text-anchor="middle" x="1234.5" y="-119.1" font-family="FreeSans" font-size="8.00" fill="#a40000">X</text>
<text text-anchor="start" x="1207" y="-110.1" font-family="FreeSans" font-size="8.00" fill="#a40000">blocked = false</text>
</g>
<!-- N10 -->
<g id="node10" class="node"><title>N10</title>
<path fill="#ffffff" stroke="#2e3436" stroke-width="1.5" d="M1349,-4C1349,-4 1379,-4 1379,-4 1385,-4 1391,-10 1391,-16 1391,-16 1391,-28 1391,-28 1391,-34 1385,-40 1379,-40 1379,-40 1349,-40 1349,-40 1343,-40 1337,-34 1337,-28 1337,-28 1337,-16 1337,-16 1337,-10 1343,-4 1349,-4"/>
<text text-anchor="middle" x="1364" y="-29.1" font-family="FreeSans" font-size="8.00" fill="#1c2021">Blocked</text>
<polyline fill="none" stroke="#2e3436" stroke-width="1.5" points="1337,-22 1391,-22 "/>
<text text-anchor="middle" x="1364" y="-11.1" font-family="FreeSans" font-size="8.00" fill="#1c2021"> </text>
</g>
<!-- N3&#45;&gt;N10 -->
<g id="edge7" class="edge"><title>N3&#45;&gt;N10</title>
<path fill="none" stroke="#a40000" stroke-width="2" d="M1050.05,-192.579C1105.8,-185.604 1197.46,-169.612 1269,-135 1304.3,-117.92 1313.87,-110.912 1338,-80 1345.61,-70.248 1351.59,-57.9085 1355.89,-47.2064"/>
<polygon fill="#a40000" stroke="#a40000" stroke-width="2" points="1358.59,-40.1108 1359.08,-48.321 1357.73,-43.793 1356.39,-47.2971 1355.92,-47.1191 1355.46,-46.941 1356.79,-43.4369 1352.77,-45.9171 1358.59,-40.1108 1358.59,-40.1108"/>
<text text-anchor="middle" x="1348" y="-119.1" font-family="FreeSans" font-size="8.00" fill="#a40000">X</text>
<text text-anchor="start" x="1322" y="-110.1" font-family="FreeSans" font-size="8.00" fill="#a40000">blocked = true</text>
</g>
<!-- N9 -->
<g id="node11" class="node"><title>N9</title>
<path fill="#ffffff" stroke="#2e3436" stroke-width="1.5" d="M976,-4C976,-4 1008,-4 1008,-4 1014,-4 1020,-10 1020,-16 1020,-16 1020,-28 1020,-28 1020,-34 1014,-40 1008,-40 1008,-40 976,-40 976,-40 970,-40 964,-34 964,-28 964,-28 964,-16 964,-16 964,-10 970,-4 976,-4"/>
<text text-anchor="middle" x="992" y="-29.1" font-family="FreeSans" font-size="8.00" fill="#1c2021">Unblocked</text>
<polyline fill="none" stroke="#2e3436" stroke-width="1.5" points="964,-22 1020,-22 "/>
<text text-anchor="middle" x="992" y="-11.1" font-family="FreeSans" font-size="8.00" fill="#1c2021"> </text>
</g>
<!-- N3&#45;&gt;N9 -->
<g id="edge8" class="edge"><title>N3&#45;&gt;N9</title>
<path fill="none" stroke="#a40000" stroke-width="2" d="M1005.81,-180.362C1007.5,-174.597 1009.12,-168.084 1010,-162 1016.35,-118.009 1020.99,-105.31 1011,-62 1009.84,-56.9705 1007.94,-51.839 1005.78,-47.0204"/>
<polygon fill="#a40000" stroke="#a40000" stroke-width="2" points="1002.48,-40.2329 1008.79,-45.504 1004.57,-43.3874 1006.21,-46.7604 1005.76,-46.9789 1005.31,-47.1974 1003.67,-43.8244 1002.72,-48.4538 1002.48,-40.2329 1002.48,-40.2329"/>
<text text-anchor="middle" x="1044.5" y="-119.1" font-family="FreeSans" font-size="8.00" fill="#a40000">X</text>
<text text-anchor="start" x="1017" y="-110.1" font-family="FreeSans" font-size="8.00" fill="#a40000">blocked = false</text>
</g>
<!-- N4 -->
<g id="node12" class="node"><title>N4</title>
<path fill="#ffffff" stroke="#2e3436" stroke-width="1.5" d="M897.5,-98.5C897.5,-98.5 970.5,-98.5 970.5,-98.5 976.5,-98.5 982.5,-104.5 982.5,-110.5 982.5,-110.5 982.5,-122.5 982.5,-122.5 982.5,-128.5 976.5,-134.5 970.5,-134.5 970.5,-134.5 897.5,-134.5 897.5,-134.5 891.5,-134.5 885.5,-128.5 885.5,-122.5 885.5,-122.5 885.5,-110.5 885.5,-110.5 885.5,-104.5 891.5,-98.5 897.5,-98.5"/>
<text text-anchor="middle" x="934" y="-123.6" font-family="FreeSans" font-size="8.00" fill="#1c2021">Person</text>
<polyline fill="none" stroke="#2e3436" stroke-width="1.5" points="885.5,-116.5 982.5,-116.5 "/>
<text text-anchor="start" x="893.5" y="-105.6" font-family="FreeSans" font-size="8.00" fill="#1c2021">name = &#39;Martin Sheen&#39;</text>
</g>
<!-- N3&#45;&gt;N4 -->
<g id="edge9" class="edge"><title>N3&#45;&gt;N4</title>
<path fill="none" stroke="#204a87" stroke-width="2" d="M985.679,-180.141C976.1,-168.531 963.391,-153.125 952.973,-140.497"/>
<polygon fill="#204a87" stroke="#204a87" stroke-width="2" points="948.066,-134.55 955.443,-138.188 950.838,-137.125 953.225,-140.017 952.839,-140.335 952.454,-140.654 950.067,-137.761 950.236,-142.483 948.066,-134.55 948.066,-134.55"/>
<text text-anchor="middle" x="986" y="-155.6" font-family="FreeSans" font-size="8.00" fill="#204a87">FATHER</text>
</g>
<!-- N4&#45;&gt;N6 -->
<g id="edge18" class="edge"><title>N4&#45;&gt;N6</title>
<path fill="none" stroke="#8f5902" stroke-width="2" d="M885.364,-102.15C877.921,-100.504 870.29,-99.0378 863,-98 766.777,-84.3012 520.391,-103.17 426,-80 398.001,-73.1272 368.699,-59.5138 345.945,-47.3146"/>
<polygon fill="#8f5902" stroke="#8f5902" stroke-width="2" points="339.102,-43.583 347.302,-44.2107 342.634,-44.9394 345.926,-46.7348 345.686,-47.1737 345.447,-47.6127 342.155,-45.8174 344.071,-50.1368 339.102,-43.583 339.102,-43.583"/>
<text text-anchor="middle" x="446.5" y="-69.1" font-family="FreeSans" font-size="8.00" fill="#8f5902">ACTED_IN</text>
</g>
<!-- N4&#45;&gt;N14 -->
<g id="edge11" class="edge"><title>N4&#45;&gt;N14</title>
<path fill="none" stroke="#a40000" stroke-width="2" d="M905.99,-98.4386C898.14,-93.0283 889.88,-86.6971 883,-80 872.788,-70.0595 863.212,-57.432 855.789,-46.59"/>
<polygon fill="#a40000" stroke="#a40000" stroke-width="2" points="851.46,-40.1101 858.433,-44.4713 853.959,-42.9504 856.042,-46.0685 855.626,-46.3463 855.211,-46.6241 853.127,-43.506 852.82,-48.2213 851.46,-40.1101 851.46,-40.1101"/>
<text text-anchor="middle" x="910.5" y="-73.6" font-family="FreeSans" font-size="8.00" fill="#a40000">X</text>
<text text-anchor="start" x="883" y="-64.6" font-family="FreeSans" font-size="8.00" fill="#a40000">blocked = false</text>
</g>
<!-- N4&#45;&gt;N13 -->
<g id="edge12" class="edge"><title>N4&#45;&gt;N13</title>
<path fill="none" stroke="#a40000" stroke-width="2" d="M975.162,-98.4143C988.045,-92.8134 1002.23,-86.383 1015,-80 1037.39,-68.8089 1061.86,-55.0422 1081.1,-43.8419"/>
<polygon fill="#a40000" stroke="#a40000" stroke-width="2" points="1087.68,-39.9957 1082.91,-46.6953 1084.7,-42.3204 1081.46,-44.2135 1081.21,-43.7819 1080.95,-43.3503 1084.19,-41.4572 1079.5,-40.8686 1087.68,-39.9957 1087.68,-39.9957"/>
<text text-anchor="middle" x="1076.5" y="-73.6" font-family="FreeSans" font-size="8.00" fill="#a40000">X</text>
<text text-anchor="start" x="1049" y="-64.6" font-family="FreeSans" font-size="8.00" fill="#a40000">blocked = false</text>
</g>
<!-- N4&#45;&gt;N12 -->
<g id="edge14" class="edge"><title>N4&#45;&gt;N12</title>
<path fill="none" stroke="#a40000" stroke-width="2" d="M885.43,-103.628C855.548,-96.0149 820.318,-86.3956 806,-80 784.85,-70.5529 762.917,-56.5618 746.116,-44.8058"/>
<polygon fill="#a40000" stroke="#a40000" stroke-width="2" points="739.71,-40.2581 747.779,-41.8479 743.057,-42.0213 746.115,-44.1922 745.826,-44.5999 745.536,-45.0076 742.478,-42.8367 743.872,-47.3519 739.71,-40.2581 739.71,-40.2581"/>
<text text-anchor="middle" x="833.5" y="-73.6" font-family="FreeSans" font-size="8.00" fill="#a40000">X</text>
<text text-anchor="start" x="806" y="-64.6" font-family="FreeSans" font-size="8.00" fill="#a40000">blocked = false</text>
</g>
<!-- N4&#45;&gt;N11 -->
<g id="edge13" class="edge"><title>N4&#45;&gt;N11</title>
<path fill="none" stroke="#a40000" stroke-width="2" d="M982.78,-102.977C990.204,-101.216 997.791,-99.4984 1005,-98 1051.79,-88.2755 1065.24,-93.7621 1111,-80 1143.9,-70.1061 1179.49,-53.9351 1204.93,-41.3398"/>
<polygon fill="#a40000" stroke="#a40000" stroke-width="2" points="1211.83,-37.8903 1206.63,-44.2636 1208.7,-40.0149 1205.34,-41.6923 1205.12,-41.2451 1204.9,-40.7979 1208.25,-39.1205 1203.61,-38.2265 1211.83,-37.8903 1211.83,-37.8903"/>
<text text-anchor="middle" x="1185.5" y="-73.6" font-family="FreeSans" font-size="8.00" fill="#a40000">X</text>
<text text-anchor="start" x="1158" y="-64.6" font-family="FreeSans" font-size="8.00" fill="#a40000">blocked = false</text>
</g>
<!-- N4&#45;&gt;N10 -->
<g id="edge15" class="edge"><title>N4&#45;&gt;N10</title>
<path fill="none" stroke="#a40000" stroke-width="2" d="M982.678,-102.427C990.116,-100.742 997.734,-99.192 1005,-98 1099.63,-82.4775 1126.64,-101.881 1220,-80 1258.97,-70.8654 1301.32,-53.0767 1329.93,-39.7895"/>
<polygon fill="#a40000" stroke="#a40000" stroke-width="2" points="1336.9,-36.5164 1331.55,-42.7598 1333.72,-38.5633 1330.33,-40.1576 1330.11,-39.705 1329.9,-39.2524 1333.3,-37.6581 1328.68,-36.6502 1336.9,-36.5164 1336.9,-36.5164"/>
<text text-anchor="middle" x="1303.5" y="-73.6" font-family="FreeSans" font-size="8.00" fill="#a40000">X</text>
<text text-anchor="start" x="1276" y="-64.6" font-family="FreeSans" font-size="8.00" fill="#a40000">blocked = false</text>
</g>
<!-- N4&#45;&gt;N9 -->
<g id="edge16" class="edge"><title>N4&#45;&gt;N9</title>
<path fill="none" stroke="#a40000" stroke-width="2" d="M938.027,-98.2379C941.072,-87.3018 945.947,-73.167 953,-62 956.602,-56.2975 961.174,-50.7805 965.91,-45.7787"/>
<polygon fill="#a40000" stroke="#a40000" stroke-width="2" points="971.496,-40.1633 968.599,-47.8606 969.206,-43.1744 966.561,-45.8329 966.207,-45.4803 965.852,-45.1276 968.497,-42.4691 963.814,-43.0999 971.496,-40.1633 971.496,-40.1633"/>
<text text-anchor="middle" x="980.5" y="-73.6" font-family="FreeSans" font-size="8.00" fill="#a40000">X</text>
<text text-anchor="start" x="953" y="-64.6" font-family="FreeSans" font-size="8.00" fill="#a40000">blocked = false</text>
</g>
<!-- N5 -->
<g id="node13" class="node"><title>N5</title>
<path fill="#ffffff" stroke="#2e3436" stroke-width="1.5" d="M501.5,-0.5C501.5,-0.5 608.5,-0.5 608.5,-0.5 614.5,-0.5 620.5,-6.5 620.5,-12.5 620.5,-12.5 620.5,-31.5 620.5,-31.5 620.5,-37.5 614.5,-43.5 608.5,-43.5 608.5,-43.5 501.5,-43.5 501.5,-43.5 495.5,-43.5 489.5,-37.5 489.5,-31.5 489.5,-31.5 489.5,-12.5 489.5,-12.5 489.5,-6.5 495.5,-0.5 501.5,-0.5"/>
<text text-anchor="middle" x="555" y="-33.1" font-family="FreeSans" font-size="8.00" fill="#1c2021">Movie</text>
<polyline fill="none" stroke="#2e3436" stroke-width="1.5" points="489.5,-26.5 620.5,-26.5 "/>
<text text-anchor="start" x="497.5" y="-16.1" font-family="FreeSans" font-size="8.00" fill="#1c2021">title = &#39;The American President&#39;</text>
<text text-anchor="start" x="497.5" y="-7.1" font-family="FreeSans" font-size="8.00" fill="#1c2021">name = &#39;TheAmericanPresident&#39;</text>
</g>
<!-- N4&#45;&gt;N5 -->
<g id="edge17" class="edge"><title>N4&#45;&gt;N5</title>
<path fill="none" stroke="#8f5902" stroke-width="2" d="M885.269,-102.727C877.839,-101.001 870.237,-99.3594 863,-98 802.21,-86.5809 785.272,-93.8967 725,-80 687.635,-71.3848 646.867,-57.8628 614.623,-46.151"/>
<polygon fill="#8f5902" stroke="#8f5902" stroke-width="2" points="607.458,-43.5277 615.662,-42.9373 611.152,-44.3476 614.673,-45.637 614.501,-46.1065 614.329,-46.576 610.808,-45.2866 613.341,-49.2757 607.458,-43.5277 607.458,-43.5277"/>
<text text-anchor="middle" x="745.5" y="-69.1" font-family="FreeSans" font-size="8.00" fill="#8f5902">ACTED_IN</text>
</g>
<!-- N7 -->
<g id="node14" class="node"><title>N7</title>
<path fill="#ffffff" stroke="#2e3436" stroke-width="1.5" d="M522,-98.5C522,-98.5 588,-98.5 588,-98.5 594,-98.5 600,-104.5 600,-110.5 600,-110.5 600,-122.5 600,-122.5 600,-128.5 594,-134.5 588,-134.5 588,-134.5 522,-134.5 522,-134.5 516,-134.5 510,-128.5 510,-122.5 510,-122.5 510,-110.5 510,-110.5 510,-104.5 516,-98.5 522,-98.5"/>
<text text-anchor="middle" x="555" y="-123.6" font-family="FreeSans" font-size="8.00" fill="#1c2021">Person</text>
<polyline fill="none" stroke="#2e3436" stroke-width="1.5" points="510,-116.5 600,-116.5 "/>
<text text-anchor="start" x="518" y="-105.6" font-family="FreeSans" font-size="8.00" fill="#1c2021">name = &#39;Rob Reiner&#39;</text>
</g>
<!-- N7&#45;&gt;N5 -->
<g id="edge19" class="edge"><title>N7&#45;&gt;N5</title>
<path fill="none" stroke="#4e9a06" stroke-width="2" d="M553.828,-98.1743C553.49,-92.3968 553.167,-85.9237 553,-80 552.737,-70.6603 552.94,-60.4617 553.3,-51.3062"/>
<polygon fill="#4e9a06" stroke="#4e9a06" stroke-width="2" points="553.65,-43.5768 556.683,-51.2218 553.98,-47.3456 553.811,-51.0917 553.311,-51.0691 552.812,-51.0465 552.981,-47.3003 549.94,-50.9164 553.65,-43.5768 553.65,-43.5768"/>
<text text-anchor="middle" x="574.5" y="-69.1" font-family="FreeSans" font-size="8.00" fill="#4e9a06">DIRECTED</text>
</g>
<!-- N8 -->
<g id="node15" class="node"><title>N8</title>
<path fill="#ffffff" stroke="#2e3436" stroke-width="1.5" d="M374,-98.5C374,-98.5 458,-98.5 458,-98.5 464,-98.5 470,-104.5 470,-110.5 470,-110.5 470,-122.5 470,-122.5 470,-128.5 464,-134.5 458,-134.5 458,-134.5 374,-134.5 374,-134.5 368,-134.5 362,-128.5 362,-122.5 362,-122.5 362,-110.5 362,-110.5 362,-104.5 368,-98.5 374,-98.5"/>
<text text-anchor="middle" x="416" y="-123.6" font-family="FreeSans" font-size="8.00" fill="#1c2021">Person</text>
<polyline fill="none" stroke="#2e3436" stroke-width="1.5" points="362,-116.5 470,-116.5 "/>
<text text-anchor="start" x="370" y="-105.6" font-family="FreeSans" font-size="8.00" fill="#1c2021">name = &#39;Michael Douglas&#39;</text>
</g>
<!-- N8&#45;&gt;N6 -->
<g id="edge21" class="edge"><title>N8&#45;&gt;N6</title>
<path fill="none" stroke="#8f5902" stroke-width="2" d="M361.625,-101.447C349.408,-96.2801 337.32,-89.3188 328,-80 320.106,-72.1069 314.823,-61.1468 311.335,-50.9441"/>
<polygon fill="#8f5902" stroke="#8f5902" stroke-width="2" points="309.101,-43.7035 314.538,-49.8751 310.685,-47.1394 311.79,-50.7227 311.313,-50.8702 310.835,-51.0176 309.729,-47.4343 308.088,-51.8653 309.101,-43.7035 309.101,-43.7035"/>
<text text-anchor="middle" x="348.5" y="-69.1" font-family="FreeSans" font-size="8.00" fill="#8f5902">ACTED_IN</text>
</g>
<!-- N8&#45;&gt;N5 -->
<g id="edge20" class="edge"><title>N8&#45;&gt;N5</title>
<path fill="none" stroke="#8f5902" stroke-width="2" d="M441.819,-98.3182C463.152,-84.1218 493.719,-63.7806 517.71,-47.8151"/>
<polygon fill="#8f5902" stroke="#8f5902" stroke-width="2" points="523.973,-43.6473 519.599,-50.6121 521.128,-46.1411 518.006,-48.2186 517.729,-47.8024 517.452,-47.3861 520.574,-45.3086 515.86,-44.9926 523.973,-43.6473 523.973,-43.6473"/>
<text text-anchor="middle" x="514.5" y="-69.1" font-family="FreeSans" font-size="8.00" fill="#8f5902">ACTED_IN</text>
</g>
</g>
</svg>
