<?xml version="1.0" encoding="UTF-8" standalone="no"?>
<!DOCTYPE svg PUBLIC "-//W3C//DTD SVG 1.1//EN"
 "http://www.w3.org/Graphics/SVG/1.1/DTD/svg11.dtd">
<!-- Generated by graphviz version 2.38.0 (20140413.2041)
 -->
<!-- Title: g Pages: 1 -->
<svg width="74pt" height="127pt"
 viewBox="0.00 0.00 74.00 127.00" xmlns="http://www.w3.org/2000/svg" xmlns:xlink="http://www.w3.org/1999/xlink">
<g id="graph0" class="graph" transform="scale(1 1) rotate(0) translate(4 123)">
<title>g</title>
<polygon fill="white" stroke="none" points="-4,4 -4,-123 70,-123 70,4 -4,4"/>
<!-- N10 -->
<g id="node1" class="node"><title>N10</title>
<path fill="#ffffff" stroke="#2e3436" stroke-width="1.5" d="M12,-0.5C12,-0.5 54,-0.5 54,-0.5 60,-0.5 66,-6.5 66,-12.5 66,-12.5 66,-24.5 66,-24.5 66,-30.5 60,-36.5 54,-36.5 54,-36.5 12,-36.5 12,-36.5 6,-36.5 0,-30.5 0,-24.5 0,-24.5 0,-12.5 0,-12.5 0,-6.5 6,-0.5 12,-0.5"/>
<text text-anchor="middle" x="33" y="-25.6" font-family="FreeSans" font-size="8.00" fill="#1c2021">Node[10]</text>
<polyline fill="none" stroke="#2e3436" stroke-width="1.5" points="0,-18.5 66,-18.5 "/>
<text text-anchor="start" x="8" y="-7.6" font-family="FreeSans" font-size="8.00" fill="#1c2021">name = &#39;Sara&#39;</text>
</g>
<!-- N11 -->
<g id="node2" class="node"><title>N11</title>
<path fill="#ffffff" stroke="#2e3436" stroke-width="1.5" d="M14,-82.5C14,-82.5 52,-82.5 52,-82.5 58,-82.5 64,-88.5 64,-94.5 64,-94.5 64,-106.5 64,-106.5 64,-112.5 58,-118.5 52,-118.5 52,-118.5 14,-118.5 14,-118.5 8,-118.5 2,-112.5 2,-106.5 2,-106.5 2,-94.5 2,-94.5 2,-88.5 8,-82.5 14,-82.5"/>
<text text-anchor="middle" x="33" y="-107.6" font-family="FreeSans" font-size="8.00" fill="#1c2021">Node[11]</text>
<polyline fill="none" stroke="#2e3436" stroke-width="1.5" points="2,-100.5 64,-100.5 "/>
<text text-anchor="start" x="10" y="-89.6" font-family="FreeSans" font-size="8.00" fill="#1c2021">name = &#39;Joe&#39;</text>
</g>
<!-- N11&#45;&gt;N10 -->
<g id="edge1" class="edge"><title>N11&#45;&gt;N10</title>
<path fill="none" stroke="#2e3436" stroke-width="2" d="M33,-82.1412C33,-71.0583 33,-56.5177 33,-44.2358"/>
<polygon fill="#2e3436" stroke="#2e3436" stroke-width="2" points="33,-36.5501 36.3751,-44.0501 33.5,-40.3001 33.5001,-44.0501 33.0001,-44.0501 32.5001,-44.0501 32.5,-40.3001 29.6251,-44.0501 33,-36.5501 33,-36.5501"/>
<text text-anchor="middle" x="45" y="-57.6" font-family="FreeSans" font-size="8.00" fill="#2e3436">knows</text>
</g>
</g>
</svg>
