<?xml version="1.0" encoding="UTF-8" standalone="no"?>
<!DOCTYPE svg PUBLIC "-//W3C//DTD SVG 1.1//EN"
 "http://www.w3.org/Graphics/SVG/1.1/DTD/svg11.dtd">
<!-- Generated by graphviz version 2.38.0 (20140413.2041)
 -->
<!-- Title: g Pages: 1 -->
<svg width="167pt" height="45pt"
 viewBox="0.00 0.00 167.00 45.00" xmlns="http://www.w3.org/2000/svg" xmlns:xlink="http://www.w3.org/1999/xlink">
<g id="graph0" class="graph" transform="scale(1 1) rotate(0) translate(4 41)">
<title>g</title>
<polygon fill="white" stroke="none" points="-4,4 -4,-41 163,-41 163,4 -4,4"/>
<!-- N377 -->
<g id="node1" class="node"><title>N377</title>
<path fill="#ffffff" stroke="#2e3436" stroke-width="1.5" d="M12,-0.5C12,-0.5 48,-0.5 48,-0.5 54,-0.5 60,-6.5 60,-12.5 60,-12.5 60,-24.5 60,-24.5 60,-30.5 54,-36.5 48,-36.5 48,-36.5 12,-36.5 12,-36.5 6,-36.5 -3.55271e-15,-30.5 -3.55271e-15,-24.5 -3.55271e-15,-24.5 -3.55271e-15,-12.5 -3.55271e-15,-12.5 -3.55271e-15,-6.5 6,-0.5 12,-0.5"/>
<text text-anchor="middle" x="30" y="-25.6" font-family="FreeSans" font-size="8.00" fill="#1c2021">Node[377]</text>
<polyline fill="none" stroke="#2e3436" stroke-width="1.5" points="-3.55271e-15,-18.5 60,-18.5 "/>
<text text-anchor="start" x="8" y="-7.6" font-family="FreeSans" font-size="8.00" fill="#1c2021">jim = &#39;tobias&#39;</text>
</g>
<!-- N378 -->
<g id="node2" class="node"><title>N378</title>
<path fill="#ffffff" stroke="#2e3436" stroke-width="1.5" d="M101,-0.5C101,-0.5 147,-0.5 147,-0.5 153,-0.5 159,-6.5 159,-12.5 159,-12.5 159,-24.5 159,-24.5 159,-30.5 153,-36.5 147,-36.5 147,-36.5 101,-36.5 101,-36.5 95,-36.5 89,-30.5 89,-24.5 89,-24.5 89,-12.5 89,-12.5 89,-6.5 95,-0.5 101,-0.5"/>
<text text-anchor="middle" x="124" y="-25.6" font-family="FreeSans" font-size="8.00" fill="#1c2021">Node[378]</text>
<polyline fill="none" stroke="#2e3436" stroke-width="1.5" points="89,-18.5 159,-18.5 "/>
<text text-anchor="start" x="97" y="-7.6" font-family="FreeSans" font-size="8.00" fill="#1c2021">name = &#39;tobias&#39;</text>
</g>
</g>
</svg>
