<?xml version="1.0" encoding="UTF-8" standalone="no"?>
<!DOCTYPE svg PUBLIC "-//W3C//DTD SVG 1.1//EN"
 "http://www.w3.org/Graphics/SVG/1.1/DTD/svg11.dtd">
<!-- Generated by graphviz version 2.38.0 (20140413.2041)
 -->
<!-- Title: g Pages: 1 -->
<svg width="191pt" height="401pt"
 viewBox="0.00 0.00 190.50 401.00" xmlns="http://www.w3.org/2000/svg" xmlns:xlink="http://www.w3.org/1999/xlink">
<g id="graph0" class="graph" transform="scale(1 1) rotate(0) translate(4 397)">
<title>g</title>
<polygon fill="white" stroke="none" points="-4,4 -4,-397 186.5,-397 186.5,4 -4,4"/>
<!-- N0 -->
<g id="node1" class="node"><title>N0</title>
<path fill="#ffffff" stroke="#2e3436" stroke-width="1.5" d="M88.5,-274.5C88.5,-274.5 129.5,-274.5 129.5,-274.5 135.5,-274.5 141.5,-280.5 141.5,-286.5 141.5,-286.5 141.5,-298.5 141.5,-298.5 141.5,-304.5 135.5,-310.5 129.5,-310.5 129.5,-310.5 88.5,-310.5 88.5,-310.5 82.5,-310.5 76.5,-304.5 76.5,-298.5 76.5,-298.5 76.5,-286.5 76.5,-286.5 76.5,-280.5 82.5,-274.5 88.5,-274.5"/>
<text text-anchor="middle" x="109" y="-299.6" font-family="FreeSans" font-size="8.00" fill="#1c2021">Node[0]</text>
<polyline fill="none" stroke="#2e3436" stroke-width="1.5" points="76.5,-292.5 141.5,-292.5 "/>
<text text-anchor="start" x="84.5" y="-281.6" font-family="FreeSans" font-size="8.00" fill="#1c2021">name = &#39;Lars&#39;</text>
</g>
<!-- N5 -->
<g id="node2" class="node"><title>N5</title>
<path fill="#ffffff" stroke="#2e3436" stroke-width="1.5" d="M89,-164.5C89,-164.5 129,-164.5 129,-164.5 135,-164.5 141,-170.5 141,-176.5 141,-176.5 141,-188.5 141,-188.5 141,-194.5 135,-200.5 129,-200.5 129,-200.5 89,-200.5 89,-200.5 83,-200.5 77,-194.5 77,-188.5 77,-188.5 77,-176.5 77,-176.5 77,-170.5 83,-164.5 89,-164.5"/>
<text text-anchor="middle" x="109" y="-189.6" font-family="FreeSans" font-size="8.00" fill="#1c2021">Node[5]</text>
<polyline fill="none" stroke="#2e3436" stroke-width="1.5" points="77,-182.5 141,-182.5 "/>
<text text-anchor="start" x="85" y="-171.6" font-family="FreeSans" font-size="8.00" fill="#1c2021">name = &#39;Dirk&#39;</text>
</g>
<!-- N0&#45;&gt;N5 -->
<g id="edge1" class="edge"><title>N0&#45;&gt;N5</title>
<path fill="none" stroke="#2e3436" stroke-width="2" d="M109,-274.148C109,-256.356 109,-228.513 109,-208.378"/>
<polygon fill="#2e3436" stroke="#2e3436" stroke-width="2" points="109,-200.809 112.375,-208.309 109.5,-204.559 109.5,-208.309 109,-208.309 108.5,-208.309 108.5,-204.559 105.625,-208.309 109,-200.809 109,-200.809"/>
<text text-anchor="middle" x="124.5" y="-235.6" font-family="FreeSans" font-size="8.00" fill="#2e3436">KNOWS</text>
</g>
<!-- N4 -->
<g id="node7" class="node"><title>N4</title>
<path fill="#ffffff" stroke="#2e3436" stroke-width="1.5" d="M87,-82.5C87,-82.5 131,-82.5 131,-82.5 137,-82.5 143,-88.5 143,-94.5 143,-94.5 143,-106.5 143,-106.5 143,-112.5 137,-118.5 131,-118.5 131,-118.5 87,-118.5 87,-118.5 81,-118.5 75,-112.5 75,-106.5 75,-106.5 75,-94.5 75,-94.5 75,-88.5 81,-82.5 87,-82.5"/>
<text text-anchor="middle" x="109" y="-107.6" font-family="FreeSans" font-size="8.00" fill="#1c2021">Node[4]</text>
<polyline fill="none" stroke="#2e3436" stroke-width="1.5" points="75,-100.5 143,-100.5 "/>
<text text-anchor="start" x="83" y="-89.6" font-family="FreeSans" font-size="8.00" fill="#1c2021">name = &#39;Peter&#39;</text>
</g>
<!-- N5&#45;&gt;N4 -->
<g id="edge6" class="edge"><title>N5&#45;&gt;N4</title>
<path fill="none" stroke="#2e3436" stroke-width="2" d="M109,-164.141C109,-153.058 109,-138.518 109,-126.236"/>
<polygon fill="#2e3436" stroke="#2e3436" stroke-width="2" points="109,-118.55 112.375,-126.05 109.5,-122.3 109.5,-126.05 109,-126.05 108.5,-126.05 108.5,-122.3 105.625,-126.05 109,-118.55 109,-118.55"/>
<text text-anchor="middle" x="124.5" y="-139.6" font-family="FreeSans" font-size="8.00" fill="#2e3436">KNOWS</text>
</g>
<!-- N1 -->
<g id="node3" class="node"><title>N1</title>
<path fill="#ffffff" stroke="#2e3436" stroke-width="1.5" d="M41,-0.5C41,-0.5 83,-0.5 83,-0.5 89,-0.5 95,-6.5 95,-12.5 95,-12.5 95,-24.5 95,-24.5 95,-30.5 89,-36.5 83,-36.5 83,-36.5 41,-36.5 41,-36.5 35,-36.5 29,-30.5 29,-24.5 29,-24.5 29,-12.5 29,-12.5 29,-6.5 35,-0.5 41,-0.5"/>
<text text-anchor="middle" x="62" y="-25.6" font-family="FreeSans" font-size="8.00" fill="#1c2021">Node[1]</text>
<polyline fill="none" stroke="#2e3436" stroke-width="1.5" points="29,-18.5 95,-18.5 "/>
<text text-anchor="start" x="37" y="-7.6" font-family="FreeSans" font-size="8.00" fill="#1c2021">name = &#39;Sara&#39;</text>
</g>
<!-- N2 -->
<g id="node4" class="node"><title>N2</title>
<path fill="#ffffff" stroke="#2e3436" stroke-width="1.5" d="M135.5,-356.5C135.5,-356.5 170.5,-356.5 170.5,-356.5 176.5,-356.5 182.5,-362.5 182.5,-368.5 182.5,-368.5 182.5,-380.5 182.5,-380.5 182.5,-386.5 176.5,-392.5 170.5,-392.5 170.5,-392.5 135.5,-392.5 135.5,-392.5 129.5,-392.5 123.5,-386.5 123.5,-380.5 123.5,-380.5 123.5,-368.5 123.5,-368.5 123.5,-362.5 129.5,-356.5 135.5,-356.5"/>
<text text-anchor="middle" x="153" y="-381.6" font-family="FreeSans" font-size="8.00" fill="#1c2021">Node[2]</text>
<polyline fill="none" stroke="#2e3436" stroke-width="1.5" points="123.5,-374.5 182.5,-374.5 "/>
<text text-anchor="start" x="131.5" y="-363.6" font-family="FreeSans" font-size="8.00" fill="#1c2021">name = &#39;Ed&#39;</text>
</g>
<!-- N2&#45;&gt;N0 -->
<g id="edge2" class="edge"><title>N2&#45;&gt;N0</title>
<path fill="none" stroke="#2e3436" stroke-width="2" d="M143.453,-356.141C137.183,-344.742 128.901,-329.684 122.029,-317.189"/>
<polygon fill="#2e3436" stroke="#2e3436" stroke-width="2" points="118.378,-310.55 124.949,-315.495 120.623,-313.595 122.43,-316.881 121.992,-317.122 121.554,-317.363 119.747,-314.077 119.035,-318.748 118.378,-310.55 118.378,-310.55"/>
<text text-anchor="middle" x="148.5" y="-331.6" font-family="FreeSans" font-size="8.00" fill="#2e3436">KNOWS</text>
</g>
<!-- N3 -->
<g id="node5" class="node"><title>N3</title>
<path fill="#ffffff" stroke="#2e3436" stroke-width="1.5" d="M27.5,-356.5C27.5,-356.5 66.5,-356.5 66.5,-356.5 72.5,-356.5 78.5,-362.5 78.5,-368.5 78.5,-368.5 78.5,-380.5 78.5,-380.5 78.5,-386.5 72.5,-392.5 66.5,-392.5 66.5,-392.5 27.5,-392.5 27.5,-392.5 21.5,-392.5 15.5,-386.5 15.5,-380.5 15.5,-380.5 15.5,-368.5 15.5,-368.5 15.5,-362.5 21.5,-356.5 27.5,-356.5"/>
<text text-anchor="middle" x="47" y="-381.6" font-family="FreeSans" font-size="8.00" fill="#1c2021">Node[3]</text>
<polyline fill="none" stroke="#2e3436" stroke-width="1.5" points="15.5,-374.5 78.5,-374.5 "/>
<text text-anchor="start" x="23.5" y="-363.6" font-family="FreeSans" font-size="8.00" fill="#1c2021">name = &#39;Lisa&#39;</text>
</g>
<!-- N3&#45;&gt;N0 -->
<g id="edge3" class="edge"><title>N3&#45;&gt;N0</title>
<path fill="none" stroke="#2e3436" stroke-width="2" d="M60.4531,-356.141C69.4513,-344.531 81.3906,-329.125 91.1771,-316.497"/>
<polygon fill="#2e3436" stroke="#2e3436" stroke-width="2" points="95.7862,-310.55 93.8595,-318.546 93.8842,-313.82 91.5871,-316.785 91.1918,-316.478 90.7966,-316.172 93.0938,-313.208 88.5242,-314.411 95.7862,-310.55 95.7862,-310.55"/>
<text text-anchor="middle" x="95.5" y="-331.6" font-family="FreeSans" font-size="8.00" fill="#2e3436">KNOWS</text>
</g>
<!-- N6 -->
<g id="node6" class="node"><title>N6</title>
<path fill="#ffffff" stroke="#2e3436" stroke-width="1.5" d="M12,-219.5C12,-219.5 50,-219.5 50,-219.5 56,-219.5 62,-225.5 62,-231.5 62,-231.5 62,-243.5 62,-243.5 62,-249.5 56,-255.5 50,-255.5 50,-255.5 12,-255.5 12,-255.5 6,-255.5 0,-249.5 0,-243.5 0,-243.5 0,-231.5 0,-231.5 0,-225.5 6,-219.5 12,-219.5"/>
<text text-anchor="middle" x="31" y="-244.6" font-family="FreeSans" font-size="8.00" fill="#1c2021">Node[6]</text>
<polyline fill="none" stroke="#2e3436" stroke-width="1.5" points="0,-237.5 62,-237.5 "/>
<text text-anchor="start" x="8" y="-226.6" font-family="FreeSans" font-size="8.00" fill="#1c2021">name = &#39;Joe&#39;</text>
</g>
<!-- N3&#45;&gt;N6 -->
<g id="edge4" class="edge"><title>N3&#45;&gt;N6</title>
<path fill="none" stroke="#4e9a06" stroke-width="2" d="M44.9736,-356.402C42.1877,-332.897 37.1565,-290.445 33.9521,-263.408"/>
<polygon fill="#4e9a06" stroke="#4e9a06" stroke-width="2" points="33.0605,-255.885 37.2948,-262.936 33.9984,-259.551 34.4398,-263.274 33.9433,-263.333 33.4468,-263.392 33.0054,-259.668 30.5918,-263.731 33.0605,-255.885 33.0605,-255.885"/>
<text text-anchor="middle" x="54.5" y="-331.6" font-family="FreeSans" font-size="8.00" fill="#4e9a06">LIKES</text>
</g>
<!-- N6&#45;&gt;N1 -->
<g id="edge7" class="edge"><title>N6&#45;&gt;N1</title>
<path fill="none" stroke="#2e3436" stroke-width="2" d="M33.4325,-219.472C38.8858,-181.299 52.1078,-88.7456 58.4677,-44.2262"/>
<polygon fill="#2e3436" stroke="#2e3436" stroke-width="2" points="59.5359,-36.7488 61.8162,-44.6508 59.5005,-40.5318 58.9701,-44.2441 58.4751,-44.1734 57.9802,-44.1027 58.5105,-40.3904 55.1341,-43.6961 59.5359,-36.7488 59.5359,-36.7488"/>
<text text-anchor="middle" x="60.5" y="-139.6" font-family="FreeSans" font-size="8.00" fill="#2e3436">KNOWS</text>
</g>
<!-- N4&#45;&gt;N1 -->
<g id="edge5" class="edge"><title>N4&#45;&gt;N1</title>
<path fill="none" stroke="#2e3436" stroke-width="2" d="M98.8017,-82.1412C92.1045,-70.7416 83.2581,-55.6839 75.9171,-43.1887"/>
<polygon fill="#2e3436" stroke="#2e3436" stroke-width="2" points="72.0169,-36.5501 78.7261,-41.3071 74.3476,-39.5301 76.2472,-42.7634 75.8161,-43.0167 75.385,-43.27 73.4854,-40.0367 72.9061,-44.7263 72.0169,-36.5501 72.0169,-36.5501"/>
<text text-anchor="middle" x="102.5" y="-57.6" font-family="FreeSans" font-size="8.00" fill="#2e3436">KNOWS</text>
</g>
</g>
</svg>
