<?xml version="1.0" encoding="UTF-8" standalone="no"?>
<!DOCTYPE svg PUBLIC "-//W3C//DTD SVG 1.1//EN"
 "http://www.w3.org/Graphics/SVG/1.1/DTD/svg11.dtd">
<!-- Generated by graphviz version 2.38.0 (20140413.2041)
 -->
<!-- Title: g Pages: 1 -->
<svg width="315pt" height="127pt"
 viewBox="0.00 0.00 314.50 127.00" xmlns="http://www.w3.org/2000/svg" xmlns:xlink="http://www.w3.org/1999/xlink">
<g id="graph0" class="graph" transform="scale(1 1) rotate(0) translate(4 123)">
<title>g</title>
<polygon fill="white" stroke="none" points="-4,4 -4,-123 310.5,-123 310.5,4 -4,4"/>
<!-- N0 -->
<g id="node1" class="node"><title>N0</title>
<path fill="#ffffff" stroke="#2e3436" stroke-width="1.5" d="M12,-0.5C12,-0.5 43,-0.5 43,-0.5 49,-0.5 55,-6.5 55,-12.5 55,-12.5 55,-24.5 55,-24.5 55,-30.5 49,-36.5 43,-36.5 43,-36.5 12,-36.5 12,-36.5 6,-36.5 0,-30.5 0,-24.5 0,-24.5 0,-12.5 0,-12.5 0,-6.5 6,-0.5 12,-0.5"/>
<text text-anchor="start" x="8" y="-16.6" font-family="FreeSans" font-size="8.00" fill="#1c2021">name = &#39;D&#39;</text>
</g>
<!-- N1 -->
<g id="node2" class="node"><title>N1</title>
<path fill="#ffffff" stroke="#2e3436" stroke-width="1.5" d="M96.5,-0.5C96.5,-0.5 126.5,-0.5 126.5,-0.5 132.5,-0.5 138.5,-6.5 138.5,-12.5 138.5,-12.5 138.5,-24.5 138.5,-24.5 138.5,-30.5 132.5,-36.5 126.5,-36.5 126.5,-36.5 96.5,-36.5 96.5,-36.5 90.5,-36.5 84.5,-30.5 84.5,-24.5 84.5,-24.5 84.5,-12.5 84.5,-12.5 84.5,-6.5 90.5,-0.5 96.5,-0.5"/>
<text text-anchor="start" x="92.5" y="-16.6" font-family="FreeSans" font-size="8.00" fill="#1c2021">name = &#39;E&#39;</text>
</g>
<!-- N2 -->
<g id="node3" class="node"><title>N2</title>
<path fill="#ffffff" stroke="#2e3436" stroke-width="1.5" d="M138.5,-82.5C138.5,-82.5 168.5,-82.5 168.5,-82.5 174.5,-82.5 180.5,-88.5 180.5,-94.5 180.5,-94.5 180.5,-106.5 180.5,-106.5 180.5,-112.5 174.5,-118.5 168.5,-118.5 168.5,-118.5 138.5,-118.5 138.5,-118.5 132.5,-118.5 126.5,-112.5 126.5,-106.5 126.5,-106.5 126.5,-94.5 126.5,-94.5 126.5,-88.5 132.5,-82.5 138.5,-82.5"/>
<text text-anchor="start" x="134.5" y="-98.6" font-family="FreeSans" font-size="8.00" fill="#1c2021">name = &#39;A&#39;</text>
</g>
<!-- N2&#45;&gt;N0 -->
<g id="edge2" class="edge"><title>N2&#45;&gt;N0</title>
<path fill="none" stroke="#2e3436" stroke-width="2" d="M126.343,-86.0223C114.225,-79.7223 99.9108,-71.8819 87.5,-64 76.53,-57.0331 64.9553,-48.7024 54.9298,-41.1429"/>
<polygon fill="#2e3436" stroke="#2e3436" stroke-width="2" points="48.9071,-36.5548 56.9184,-38.415 52.1931,-38.4295 55.1761,-40.702 54.8731,-41.0997 54.5701,-41.4975 51.5871,-39.225 52.8279,-43.7845 48.9071,-36.5548 48.9071,-36.5548"/>
<text text-anchor="middle" x="103" y="-57.6" font-family="FreeSans" font-size="8.00" fill="#2e3436">KNOWS</text>
</g>
<!-- N2&#45;&gt;N1 -->
<g id="edge1" class="edge"><title>N2&#45;&gt;N1</title>
<path fill="none" stroke="#2e3436" stroke-width="2" d="M140.137,-82.3581C136.085,-76.7023 131.83,-70.2546 128.5,-64 125.204,-57.8086 122.226,-50.8353 119.717,-44.2778"/>
<polygon fill="#2e3436" stroke="#2e3436" stroke-width="2" points="116.996,-36.8426 122.743,-42.7261 118.754,-40.1925 120.043,-43.7141 119.573,-43.8859 119.104,-44.0577 117.815,-40.5361 116.404,-45.0457 116.996,-36.8426 116.996,-36.8426"/>
<text text-anchor="middle" x="144" y="-57.6" font-family="FreeSans" font-size="8.00" fill="#2e3436">KNOWS</text>
</g>
<!-- N4 -->
<g id="node4" class="node"><title>N4</title>
<path fill="#ffffff" stroke="#2e3436" stroke-width="1.5" d="M180,-0.5C180,-0.5 211,-0.5 211,-0.5 217,-0.5 223,-6.5 223,-12.5 223,-12.5 223,-24.5 223,-24.5 223,-30.5 217,-36.5 211,-36.5 211,-36.5 180,-36.5 180,-36.5 174,-36.5 168,-30.5 168,-24.5 168,-24.5 168,-12.5 168,-12.5 168,-6.5 174,-0.5 180,-0.5"/>
<text text-anchor="start" x="176" y="-16.6" font-family="FreeSans" font-size="8.00" fill="#1c2021">name = &#39;C&#39;</text>
</g>
<!-- N2&#45;&gt;N4 -->
<g id="edge3" class="edge"><title>N2&#45;&gt;N4</title>
<path fill="none" stroke="#2e3436" stroke-width="2" d="M162.613,-82.1412C168.543,-70.8472 176.357,-55.9625 182.881,-43.5365"/>
<polygon fill="#2e3436" stroke="#2e3436" stroke-width="2" points="186.549,-36.5501 186.051,-44.7594 185.248,-40.1028 183.505,-43.423 183.062,-43.1906 182.62,-42.9582 184.363,-39.6379 180.074,-41.6218 186.549,-36.5501 186.549,-36.5501"/>
<text text-anchor="middle" x="192" y="-57.6" font-family="FreeSans" font-size="8.00" fill="#2e3436">KNOWS</text>
</g>
<!-- N3 -->
<g id="node5" class="node"><title>N3</title>
<path fill="#ffffff" stroke="#2e3436" stroke-width="1.5" d="M264.5,-0.5C264.5,-0.5 294.5,-0.5 294.5,-0.5 300.5,-0.5 306.5,-6.5 306.5,-12.5 306.5,-12.5 306.5,-24.5 306.5,-24.5 306.5,-30.5 300.5,-36.5 294.5,-36.5 294.5,-36.5 264.5,-36.5 264.5,-36.5 258.5,-36.5 252.5,-30.5 252.5,-24.5 252.5,-24.5 252.5,-12.5 252.5,-12.5 252.5,-6.5 258.5,-0.5 264.5,-0.5"/>
<text text-anchor="start" x="260.5" y="-16.6" font-family="FreeSans" font-size="8.00" fill="#1c2021">name = &#39;B&#39;</text>
</g>
<!-- N2&#45;&gt;N3 -->
<g id="edge4" class="edge"><title>N2&#45;&gt;N3</title>
<path fill="none" stroke="#2e3436" stroke-width="2" d="M180.781,-84.1923C191.409,-78.0816 203.625,-70.8743 214.5,-64 226,-56.7311 238.377,-48.392 249.213,-40.912"/>
<polygon fill="#2e3436" stroke="#2e3436" stroke-width="2" points="255.397,-36.6218 251.159,-43.67 252.601,-39.1702 249.52,-41.3078 249.235,-40.897 248.95,-40.4862 252.031,-38.3486 247.311,-38.124 255.397,-36.6218 255.397,-36.6218"/>
<text text-anchor="middle" x="243" y="-57.6" font-family="FreeSans" font-size="8.00" fill="#2e3436">KNOWS</text>
</g>
</g>
</svg>
