<?xml version="1.0" encoding="UTF-8" standalone="no"?>
<!DOCTYPE svg PUBLIC "-//W3C//DTD SVG 1.1//EN"
 "http://www.w3.org/Graphics/SVG/1.1/DTD/svg11.dtd">
<!-- Generated by graphviz version 2.38.0 (20140413.2041)
 -->
<!-- Title: g Pages: 1 -->
<svg width="130pt" height="45pt"
 viewBox="0.00 0.00 130.00 45.00" xmlns="http://www.w3.org/2000/svg" xmlns:xlink="http://www.w3.org/1999/xlink">
<g id="graph0" class="graph" transform="scale(1 1) rotate(0) translate(4 41)">
<title>g</title>
<polygon fill="white" stroke="none" points="-4,4 -4,-41 126,-41 126,4 -4,4"/>
<!-- N0 -->
<g id="node1" class="node"><title>N0</title>
<path fill="#ffffff" stroke="#2e3436" stroke-width="1.5" d="M12,-0.5C12,-0.5 62,-0.5 62,-0.5 68,-0.5 74,-6.5 74,-12.5 74,-12.5 74,-24.5 74,-24.5 74,-30.5 68,-36.5 62,-36.5 62,-36.5 12,-36.5 12,-36.5 6,-36.5 0,-30.5 0,-24.5 0,-24.5 0,-12.5 0,-12.5 0,-6.5 6,-0.5 12,-0.5"/>
<text text-anchor="start" x="8" y="-16.6" font-family="FreeSans" font-size="8.00" fill="#1c2021">name = &#39;ROOT&#39;</text>
</g>
<!-- N0&#45;&gt;N0 -->
<g id="edge1" class="edge"><title>N0&#45;&gt;N0</title>
<path fill="none" stroke="#2e3436" stroke-width="2" d="M74.3171,-25.1907C89.8408,-25.6521 103,-23.4219 103,-18.5 103,-14.4241 93.9756,-12.1941 82.0572,-11.8099"/>
<polygon fill="#2e3436" stroke="#2e3436" stroke-width="2" points="74.3171,-11.8093 81.8174,-8.43502 78.0671,-11.3097 81.8171,-11.31 81.8171,-11.81 81.8171,-12.31 78.0671,-12.3097 81.8168,-15.185 74.3171,-11.8093 74.3171,-11.8093"/>
<text text-anchor="middle" x="112.5" y="-16.6" font-family="FreeSans" font-size="8.00" fill="#2e3436">LINK</text>
</g>
</g>
</svg>
