<?xml version="1.0" encoding="UTF-8" standalone="no"?>
<!DOCTYPE svg PUBLIC "-//W3C//DTD SVG 1.1//EN"
 "http://www.w3.org/Graphics/SVG/1.1/DTD/svg11.dtd">
<!-- Generated by graphviz version 2.38.0 (20140413.2041)
 -->
<!-- Title: g Pages: 1 -->
<svg width="118pt" height="127pt"
 viewBox="0.00 0.00 118.00 127.00" xmlns="http://www.w3.org/2000/svg" xmlns:xlink="http://www.w3.org/1999/xlink">
<g id="graph0" class="graph" transform="scale(1 1) rotate(0) translate(4 123)">
<title>g</title>
<polygon fill="white" stroke="none" points="-4,4 -4,-123 114,-123 114,4 -4,4"/>
<!-- N0 -->
<g id="node1" class="node"><title>N0</title>
<path fill="#ffffff" stroke="#2e3436" stroke-width="1.5" d="M21.5,-82.5C21.5,-82.5 88.5,-82.5 88.5,-82.5 94.5,-82.5 100.5,-88.5 100.5,-94.5 100.5,-94.5 100.5,-106.5 100.5,-106.5 100.5,-112.5 94.5,-118.5 88.5,-118.5 88.5,-118.5 21.5,-118.5 21.5,-118.5 15.5,-118.5 9.5,-112.5 9.5,-106.5 9.5,-106.5 9.5,-94.5 9.5,-94.5 9.5,-88.5 15.5,-82.5 21.5,-82.5"/>
<text text-anchor="middle" x="55" y="-107.6" font-family="FreeSans" font-size="8.00" fill="#1c2021">Actor</text>
<polyline fill="none" stroke="#2e3436" stroke-width="1.5" points="9.5,-100.5 100.5,-100.5 "/>
<text text-anchor="start" x="17.5" y="-89.6" font-family="FreeSans" font-size="8.00" fill="#1c2021">name = &#39;Tom Hanks&#39;</text>
</g>
<!-- N1 -->
<g id="node2" class="node"><title>N1</title>
<path fill="#ffffff" stroke="#2e3436" stroke-width="1.5" d="M12,-0.5C12,-0.5 98,-0.5 98,-0.5 104,-0.5 110,-6.5 110,-12.5 110,-12.5 110,-24.5 110,-24.5 110,-30.5 104,-36.5 98,-36.5 98,-36.5 12,-36.5 12,-36.5 6,-36.5 0,-30.5 0,-24.5 0,-24.5 0,-12.5 0,-12.5 0,-6.5 6,-0.5 12,-0.5"/>
<text text-anchor="middle" x="55" y="-25.6" font-family="FreeSans" font-size="8.00" fill="#1c2021">Movie</text>
<polyline fill="none" stroke="#2e3436" stroke-width="1.5" points="0,-18.5 110,-18.5 "/>
<text text-anchor="start" x="8" y="-7.6" font-family="FreeSans" font-size="8.00" fill="#1c2021">title = &#39;Sleepless in Seattle&#39;</text>
</g>
<!-- N0&#45;&gt;N1 -->
<g id="edge1" class="edge"><title>N0&#45;&gt;N1</title>
<path fill="none" stroke="#2e3436" stroke-width="2" d="M55,-82.1412C55,-71.0583 55,-56.5177 55,-44.2358"/>
<polygon fill="#2e3436" stroke="#2e3436" stroke-width="2" points="55,-36.5501 58.3751,-44.0501 55.5,-40.3001 55.5001,-44.0501 55.0001,-44.0501 54.5001,-44.0501 54.5,-40.3001 51.6251,-44.0501 55,-36.5501 55,-36.5501"/>
<text text-anchor="middle" x="75.5" y="-57.6" font-family="FreeSans" font-size="8.00" fill="#2e3436">ACTED_IN</text>
</g>
</g>
</svg>
