<?xml version="1.0" encoding="UTF-8" standalone="no"?>
<!DOCTYPE svg PUBLIC "-//W3C//DTD SVG 1.1//EN"
 "http://www.w3.org/Graphics/SVG/1.1/DTD/svg11.dtd">
<!-- Generated by graphviz version 2.38.0 (20140413.2041)
 -->
<!-- Title: g Pages: 1 -->
<svg width="442pt" height="45pt"
 viewBox="0.00 0.00 442.00 45.00" xmlns="http://www.w3.org/2000/svg" xmlns:xlink="http://www.w3.org/1999/xlink">
<g id="graph0" class="graph" transform="scale(1 1) rotate(0) translate(4 41)">
<title>g</title>
<polygon fill="white" stroke="none" points="-4,4 -4,-41 438,-41 438,4 -4,4"/>
<!-- N122 -->
<g id="node1" class="node"><title>N122</title>
<path fill="#ffffff" stroke="#2e3436" stroke-width="1.5" d="M12,-0.5C12,-0.5 106,-0.5 106,-0.5 112,-0.5 118,-6.5 118,-12.5 118,-12.5 118,-24.5 118,-24.5 118,-30.5 112,-36.5 106,-36.5 106,-36.5 12,-36.5 12,-36.5 6,-36.5 0,-30.5 0,-24.5 0,-24.5 0,-12.5 0,-12.5 0,-6.5 6,-0.5 12,-0.5"/>
<text text-anchor="middle" x="59" y="-25.6" font-family="FreeSans" font-size="8.00" fill="#1c2021">Node[122]: Person, Director</text>
<polyline fill="none" stroke="#2e3436" stroke-width="1.5" points="0,-18.5 118,-18.5 "/>
<text text-anchor="start" x="8" y="-7.6" font-family="FreeSans" font-size="8.00" fill="#1c2021">name = &#39;Steven Spielberg&#39;</text>
</g>
<!-- N123 -->
<g id="node2" class="node"><title>N123</title>
<path fill="#ffffff" stroke="#2e3436" stroke-width="1.5" d="M159,-0.5C159,-0.5 277,-0.5 277,-0.5 283,-0.5 289,-6.5 289,-12.5 289,-12.5 289,-24.5 289,-24.5 289,-30.5 283,-36.5 277,-36.5 277,-36.5 159,-36.5 159,-36.5 153,-36.5 147,-30.5 147,-24.5 147,-24.5 147,-12.5 147,-12.5 147,-6.5 153,-0.5 159,-0.5"/>
<text text-anchor="middle" x="218" y="-25.6" font-family="FreeSans" font-size="8.00" fill="#1c2021">Node[123]: Person, Actor, Director</text>
<polyline fill="none" stroke="#2e3436" stroke-width="1.5" points="147,-18.5 289,-18.5 "/>
<text text-anchor="start" x="155" y="-7.6" font-family="FreeSans" font-size="8.00" fill="#1c2021">name = &#39;Clint Eastwood&#39;</text>
</g>
<!-- N124 -->
<g id="node3" class="node"><title>N124</title>
<path fill="#ffffff" stroke="#2e3436" stroke-width="1.5" d="M330,-0.5C330,-0.5 422,-0.5 422,-0.5 428,-0.5 434,-6.5 434,-12.5 434,-12.5 434,-24.5 434,-24.5 434,-30.5 428,-36.5 422,-36.5 422,-36.5 330,-36.5 330,-36.5 324,-36.5 318,-30.5 318,-24.5 318,-24.5 318,-12.5 318,-12.5 318,-6.5 324,-0.5 330,-0.5"/>
<text text-anchor="middle" x="376" y="-25.6" font-family="FreeSans" font-size="8.00" fill="#1c2021">Node[124]: Person, Actor</text>
<polyline fill="none" stroke="#2e3436" stroke-width="1.5" points="318,-18.5 434,-18.5 "/>
<text text-anchor="start" x="326" y="-7.6" font-family="FreeSans" font-size="8.00" fill="#1c2021">name = &#39;Donald Sutherland&#39;</text>
</g>
</g>
</svg>
