<?xml version="1.0" encoding="UTF-8" standalone="no"?>
<!DOCTYPE svg PUBLIC "-//W3C//DTD SVG 1.1//EN"
 "http://www.w3.org/Graphics/SVG/1.1/DTD/svg11.dtd">
<!-- Generated by graphviz version 2.38.0 (20140413.2041)
 -->
<!-- Title: g Pages: 1 -->
<svg width="400pt" height="127pt"
 viewBox="0.00 0.00 400.00 127.00" xmlns="http://www.w3.org/2000/svg" xmlns:xlink="http://www.w3.org/1999/xlink">
<g id="graph0" class="graph" transform="scale(1 1) rotate(0) translate(4 123)">
<title>g</title>
<polygon fill="white" stroke="none" points="-4,4 -4,-123 396,-123 396,4 -4,4"/>
<!-- N174 -->
<g id="node1" class="node"><title>N174</title>
<path fill="#ffffff" stroke="#2e3436" stroke-width="1.5" d="M12,-0.5C12,-0.5 100,-0.5 100,-0.5 106,-0.5 112,-6.5 112,-12.5 112,-12.5 112,-24.5 112,-24.5 112,-30.5 106,-36.5 100,-36.5 100,-36.5 12,-36.5 12,-36.5 6,-36.5 0,-30.5 0,-24.5 0,-24.5 0,-12.5 0,-12.5 0,-6.5 6,-0.5 12,-0.5"/>
<text text-anchor="start" x="8" y="-16.6" font-family="FreeSans" font-size="8.00" fill="#1c2021">Node[174]name = &#39;Cookie&#39;</text>
</g>
<!-- N175 -->
<g id="node2" class="node"><title>N175</title>
<path fill="#ffffff" stroke="#2e3436" stroke-width="1.5" d="M153.5,-0.5C153.5,-0.5 238.5,-0.5 238.5,-0.5 244.5,-0.5 250.5,-6.5 250.5,-12.5 250.5,-12.5 250.5,-24.5 250.5,-24.5 250.5,-30.5 244.5,-36.5 238.5,-36.5 238.5,-36.5 153.5,-36.5 153.5,-36.5 147.5,-36.5 141.5,-30.5 141.5,-24.5 141.5,-24.5 141.5,-12.5 141.5,-12.5 141.5,-6.5 147.5,-0.5 153.5,-0.5"/>
<text text-anchor="start" x="149.5" y="-16.6" font-family="FreeSans" font-size="8.00" fill="#1c2021">Node[175]name = &#39;Johan&#39;</text>
</g>
<!-- N176 -->
<g id="node3" class="node"><title>N176</title>
<path fill="#ffffff" stroke="#2e3436" stroke-width="1.5" d="M156,-82.5C156,-82.5 236,-82.5 236,-82.5 242,-82.5 248,-88.5 248,-94.5 248,-94.5 248,-106.5 248,-106.5 248,-112.5 242,-118.5 236,-118.5 236,-118.5 156,-118.5 156,-118.5 150,-118.5 144,-112.5 144,-106.5 144,-106.5 144,-94.5 144,-94.5 144,-88.5 150,-82.5 156,-82.5"/>
<text text-anchor="start" x="152" y="-98.6" font-family="FreeSans" font-size="8.00" fill="#1c2021">Node[176]name = &#39;Root&#39;</text>
</g>
<!-- N176&#45;&gt;N174 -->
<g id="edge3" class="edge"><title>N176&#45;&gt;N174</title>
<path fill="none" stroke="#4e9a06" stroke-width="2" d="M165.966,-82.338C144.467,-70.0527 115.404,-53.4451 92.5553,-40.3887"/>
<polygon fill="#4e9a06" stroke="#4e9a06" stroke-width="2" points="85.9838,-36.6336 94.1702,-37.4244 89.4878,-38.06 92.7438,-39.9206 92.4957,-40.3547 92.2476,-40.7888 88.9917,-38.9283 90.8212,-43.285 85.9838,-36.6336 85.9838,-36.6336"/>
<text text-anchor="middle" x="142.5" y="-57.6" font-family="FreeSans" font-size="8.00" fill="#4e9a06">LIKES</text>
</g>
<!-- N176&#45;&gt;N175 -->
<g id="edge1" class="edge"><title>N176&#45;&gt;N175</title>
<path fill="none" stroke="#2e3436" stroke-width="2" d="M196,-82.1412C196,-71.0583 196,-56.5177 196,-44.2358"/>
<polygon fill="#2e3436" stroke="#2e3436" stroke-width="2" points="196,-36.5501 199.375,-44.0501 196.5,-40.3001 196.5,-44.0501 196,-44.0501 195.5,-44.0501 195.5,-40.3001 192.625,-44.0501 196,-36.5501 196,-36.5501"/>
<text text-anchor="middle" x="211.5" y="-57.6" font-family="FreeSans" font-size="8.00" fill="#2e3436">KNOWS</text>
</g>
<!-- N177 -->
<g id="node4" class="node"><title>N177</title>
<path fill="#ffffff" stroke="#2e3436" stroke-width="1.5" d="M292,-0.5C292,-0.5 380,-0.5 380,-0.5 386,-0.5 392,-6.5 392,-12.5 392,-12.5 392,-24.5 392,-24.5 392,-30.5 386,-36.5 380,-36.5 380,-36.5 292,-36.5 292,-36.5 286,-36.5 280,-30.5 280,-24.5 280,-24.5 280,-12.5 280,-12.5 280,-6.5 286,-0.5 292,-0.5"/>
<text text-anchor="start" x="288" y="-16.6" font-family="FreeSans" font-size="8.00" fill="#1c2021">Node[177]name = &#39;Mattias&#39;</text>
</g>
<!-- N176&#45;&gt;N177 -->
<g id="edge2" class="edge"><title>N176&#45;&gt;N177</title>
<path fill="none" stroke="#2e3436" stroke-width="2" d="M226.034,-82.338C247.533,-70.0527 276.596,-53.4451 299.445,-40.3887"/>
<polygon fill="#2e3436" stroke="#2e3436" stroke-width="2" points="306.016,-36.6336 301.179,-43.285 303.008,-38.9283 299.752,-40.7888 299.504,-40.3547 299.256,-39.9206 302.512,-38.06 297.83,-37.4244 306.016,-36.6336 306.016,-36.6336"/>
<text text-anchor="middle" x="286.5" y="-57.6" font-family="FreeSans" font-size="8.00" fill="#2e3436">KNOWS</text>
</g>
</g>
</svg>
