<?xml version="1.0" encoding="UTF-8" standalone="no"?>
<!DOCTYPE svg PUBLIC "-//W3C//DTD SVG 1.1//EN"
 "http://www.w3.org/Graphics/SVG/1.1/DTD/svg11.dtd">
<!-- Generated by graphviz version 2.38.0 (20140413.2041)
 -->
<!-- Title: g Pages: 1 -->
<svg width="259pt" height="127pt"
 viewBox="0.00 0.00 258.50 127.00" xmlns="http://www.w3.org/2000/svg" xmlns:xlink="http://www.w3.org/1999/xlink">
<g id="graph0" class="graph" transform="scale(1 1) rotate(0) translate(4 123)">
<title>g</title>
<polygon fill="white" stroke="none" points="-4,4 -4,-123 254.5,-123 254.5,4 -4,4"/>
<!-- N181 -->
<g id="node1" class="node"><title>N181</title>
<path fill="#ffffff" stroke="#2e3436" stroke-width="1.5" d="M12,-0.5C12,-0.5 97,-0.5 97,-0.5 103,-0.5 109,-6.5 109,-12.5 109,-12.5 109,-24.5 109,-24.5 109,-30.5 103,-36.5 97,-36.5 97,-36.5 12,-36.5 12,-36.5 6,-36.5 0,-30.5 0,-24.5 0,-24.5 0,-12.5 0,-12.5 0,-6.5 6,-0.5 12,-0.5"/>
<text text-anchor="start" x="8" y="-16.6" font-family="FreeSans" font-size="8.00" fill="#1c2021">Node[181]name = &#39;Johan&#39;</text>
</g>
<!-- N182 -->
<g id="node2" class="node"><title>N182</title>
<path fill="#ffffff" stroke="#2e3436" stroke-width="1.5" d="M84.5,-82.5C84.5,-82.5 164.5,-82.5 164.5,-82.5 170.5,-82.5 176.5,-88.5 176.5,-94.5 176.5,-94.5 176.5,-106.5 176.5,-106.5 176.5,-112.5 170.5,-118.5 164.5,-118.5 164.5,-118.5 84.5,-118.5 84.5,-118.5 78.5,-118.5 72.5,-112.5 72.5,-106.5 72.5,-106.5 72.5,-94.5 72.5,-94.5 72.5,-88.5 78.5,-82.5 84.5,-82.5"/>
<text text-anchor="start" x="80.5" y="-98.6" font-family="FreeSans" font-size="8.00" fill="#1c2021">Node[182]name = &#39;Root&#39;</text>
</g>
<!-- N182&#45;&gt;N181 -->
<g id="edge1" class="edge"><title>N182&#45;&gt;N181</title>
<path fill="none" stroke="#2e3436" stroke-width="2" d="M109.311,-82.1412C99.1517,-70.5305 85.6719,-55.125 74.6226,-42.4972"/>
<polygon fill="#2e3436" stroke="#2e3436" stroke-width="2" points="69.4188,-36.5501 76.8976,-39.972 72.2645,-39.043 74.7339,-41.8652 74.3577,-42.1944 73.9814,-42.5237 71.512,-39.7015 71.8177,-44.4169 69.4188,-36.5501 69.4188,-36.5501"/>
<text text-anchor="middle" x="104.5" y="-57.6" font-family="FreeSans" font-size="8.00" fill="#2e3436">knows</text>
</g>
<!-- N183 -->
<g id="node3" class="node"><title>N183</title>
<path fill="#ffffff" stroke="#2e3436" stroke-width="1.5" d="M150.5,-0.5C150.5,-0.5 238.5,-0.5 238.5,-0.5 244.5,-0.5 250.5,-6.5 250.5,-12.5 250.5,-12.5 250.5,-24.5 250.5,-24.5 250.5,-30.5 244.5,-36.5 238.5,-36.5 238.5,-36.5 150.5,-36.5 150.5,-36.5 144.5,-36.5 138.5,-30.5 138.5,-24.5 138.5,-24.5 138.5,-12.5 138.5,-12.5 138.5,-6.5 144.5,-0.5 150.5,-0.5"/>
<text text-anchor="start" x="146.5" y="-16.6" font-family="FreeSans" font-size="8.00" fill="#1c2021">Node[183]name = &#39;Mattias&#39;</text>
</g>
<!-- N182&#45;&gt;N183 -->
<g id="edge2" class="edge"><title>N182&#45;&gt;N183</title>
<path fill="none" stroke="#2e3436" stroke-width="2" d="M139.689,-82.1412C149.848,-70.5305 163.328,-55.125 174.377,-42.4972"/>
<polygon fill="#2e3436" stroke="#2e3436" stroke-width="2" points="179.581,-36.5501 177.182,-44.4169 177.488,-39.7015 175.019,-42.5237 174.642,-42.1944 174.266,-41.8652 176.735,-39.043 172.102,-39.972 179.581,-36.5501 179.581,-36.5501"/>
<text text-anchor="middle" x="174.5" y="-57.6" font-family="FreeSans" font-size="8.00" fill="#2e3436">knows</text>
</g>
</g>
</svg>
