<?xml version="1.0" encoding="UTF-8" standalone="no"?>
<!DOCTYPE svg PUBLIC "-//W3C//DTD SVG 1.1//EN"
 "http://www.w3.org/Graphics/SVG/1.1/DTD/svg11.dtd">
<!-- Generated by graphviz version 2.38.0 (20140413.2041)
 -->
<!-- Title: g Pages: 1 -->
<svg width="309pt" height="127pt"
 viewBox="0.00 0.00 308.50 127.00" xmlns="http://www.w3.org/2000/svg" xmlns:xlink="http://www.w3.org/1999/xlink">
<g id="graph0" class="graph" transform="scale(1 1) rotate(0) translate(4 123)">
<title>g</title>
<polygon fill="white" stroke="none" points="-4,4 -4,-123 304.5,-123 304.5,4 -4,4"/>
<!-- N90 -->
<g id="node1" class="node"><title>N90</title>
<path fill="#ffffff" stroke="#2e3436" stroke-width="1.5" d="M12,-0.5C12,-0.5 88,-0.5 88,-0.5 94,-0.5 100,-6.5 100,-12.5 100,-12.5 100,-24.5 100,-24.5 100,-30.5 94,-36.5 88,-36.5 88,-36.5 12,-36.5 12,-36.5 6,-36.5 0,-30.5 0,-24.5 0,-24.5 0,-12.5 0,-12.5 0,-6.5 6,-0.5 12,-0.5"/>
<text text-anchor="start" x="8" y="-16.6" font-family="FreeSans" font-size="8.00" fill="#1c2021">Node[90]name = &#39;John&#39;</text>
</g>
<!-- N91 -->
<g id="node2" class="node"><title>N91</title>
<path fill="#ffffff" stroke="#2e3436" stroke-width="1.5" d="M23.5,-82.5C23.5,-82.5 76.5,-82.5 76.5,-82.5 82.5,-82.5 88.5,-88.5 88.5,-94.5 88.5,-94.5 88.5,-106.5 88.5,-106.5 88.5,-112.5 82.5,-118.5 76.5,-118.5 76.5,-118.5 23.5,-118.5 23.5,-118.5 17.5,-118.5 11.5,-112.5 11.5,-106.5 11.5,-106.5 11.5,-94.5 11.5,-94.5 11.5,-88.5 17.5,-82.5 23.5,-82.5"/>
<text text-anchor="start" x="19.5" y="-98.6" font-family="FreeSans" font-size="8.00" fill="#1c2021">Node[91]age = 1</text>
</g>
<!-- N91&#45;&gt;N90 -->
<g id="edge1" class="edge"><title>N91&#45;&gt;N90</title>
<path fill="none" stroke="#2e3436" stroke-width="2" d="M50,-82.1412C50,-71.0583 50,-56.5177 50,-44.2358"/>
<polygon fill="#2e3436" stroke="#2e3436" stroke-width="2" points="50,-36.5501 53.3751,-44.0501 50.5,-40.3001 50.5001,-44.0501 50.0001,-44.0501 49.5001,-44.0501 49.5,-40.3001 46.6251,-44.0501 50,-36.5501 50,-36.5501"/>
<text text-anchor="middle" x="62" y="-57.6" font-family="FreeSans" font-size="8.00" fill="#2e3436">knows</text>
</g>
<!-- N92 -->
<g id="node3" class="node"><title>N92</title>
<path fill="#ffffff" stroke="#2e3436" stroke-width="1.5" d="M129.5,-82.5C129.5,-82.5 182.5,-82.5 182.5,-82.5 188.5,-82.5 194.5,-88.5 194.5,-94.5 194.5,-94.5 194.5,-106.5 194.5,-106.5 194.5,-112.5 188.5,-118.5 182.5,-118.5 182.5,-118.5 129.5,-118.5 129.5,-118.5 123.5,-118.5 117.5,-112.5 117.5,-106.5 117.5,-106.5 117.5,-94.5 117.5,-94.5 117.5,-88.5 123.5,-82.5 129.5,-82.5"/>
<text text-anchor="start" x="125.5" y="-98.6" font-family="FreeSans" font-size="8.00" fill="#1c2021">Node[92]age = 1</text>
</g>
<!-- N93 -->
<g id="node4" class="node"><title>N93</title>
<path fill="#ffffff" stroke="#2e3436" stroke-width="1.5" d="M235.5,-82.5C235.5,-82.5 288.5,-82.5 288.5,-82.5 294.5,-82.5 300.5,-88.5 300.5,-94.5 300.5,-94.5 300.5,-106.5 300.5,-106.5 300.5,-112.5 294.5,-118.5 288.5,-118.5 288.5,-118.5 235.5,-118.5 235.5,-118.5 229.5,-118.5 223.5,-112.5 223.5,-106.5 223.5,-106.5 223.5,-94.5 223.5,-94.5 223.5,-88.5 229.5,-82.5 235.5,-82.5"/>
<text text-anchor="start" x="231.5" y="-98.6" font-family="FreeSans" font-size="8.00" fill="#1c2021">Node[93]age = 1</text>
</g>
</g>
</svg>
