<?xml version="1.0" encoding="UTF-8" standalone="no"?>
<!DOCTYPE svg PUBLIC "-//W3C//DTD SVG 1.1//EN"
 "http://www.w3.org/Graphics/SVG/1.1/DTD/svg11.dtd">
<!-- Generated by graphviz version 2.38.0 (20140413.2041)
 -->
<!-- Title: g Pages: 1 -->
<svg width="116pt" height="145pt"
 viewBox="0.00 0.00 116.00 145.00" xmlns="http://www.w3.org/2000/svg" xmlns:xlink="http://www.w3.org/1999/xlink">
<g id="graph0" class="graph" transform="scale(1 1) rotate(0) translate(4 141)">
<title>g</title>
<polygon fill="white" stroke="none" points="-4,4 -4,-141 112,-141 112,4 -4,4"/>
<!-- N10 -->
<g id="node1" class="node"><title>N10</title>
<path fill="#ffffff" stroke="#2e3436" stroke-width="1.5" d="M15.5,-0.5C15.5,-0.5 92.5,-0.5 92.5,-0.5 98.5,-0.5 104.5,-6.5 104.5,-12.5 104.5,-12.5 104.5,-24.5 104.5,-24.5 104.5,-30.5 98.5,-36.5 92.5,-36.5 92.5,-36.5 15.5,-36.5 15.5,-36.5 9.5,-36.5 3.5,-30.5 3.5,-24.5 3.5,-24.5 3.5,-12.5 3.5,-12.5 3.5,-6.5 9.5,-0.5 15.5,-0.5"/>
<text text-anchor="start" x="11.5" y="-16.6" font-family="FreeSans" font-size="8.00" fill="#1c2021">Node[10]name = &#39;Juliet&#39;</text>
</g>
<!-- N11 -->
<g id="node2" class="node"><title>N11</title>
<path fill="#ffffff" stroke="#2e3436" stroke-width="1.5" d="M12,-100.5C12,-100.5 96,-100.5 96,-100.5 102,-100.5 108,-106.5 108,-112.5 108,-112.5 108,-124.5 108,-124.5 108,-130.5 102,-136.5 96,-136.5 96,-136.5 12,-136.5 12,-136.5 6,-136.5 0,-130.5 0,-124.5 0,-124.5 0,-112.5 0,-112.5 0,-106.5 6,-100.5 12,-100.5"/>
<text text-anchor="start" x="8" y="-116.6" font-family="FreeSans" font-size="8.00" fill="#1c2021">Node[11]name = &#39;Romeo&#39;</text>
</g>
<!-- N11&#45;&gt;N10 -->
<g id="edge1" class="edge"><title>N11&#45;&gt;N10</title>
<path fill="none" stroke="#2e3436" stroke-width="2" d="M54,-100.43C54,-84.9265 54,-61.8702 54,-44.3283"/>
<polygon fill="#2e3436" stroke="#2e3436" stroke-width="2" points="54,-36.7035 57.3751,-44.2035 54.5,-40.4535 54.5001,-44.2035 54.0001,-44.2035 53.5001,-44.2035 53.5,-40.4535 50.6251,-44.2035 54,-36.7035 54,-36.7035"/>
<text text-anchor="middle" x="78.5" y="-75.6" font-family="FreeSans" font-size="8.00" fill="#2e3436">LOVES</text>
<text text-anchor="start" x="54" y="-66.6" font-family="FreeSans" font-size="8.00" fill="#2e3436">cost = &#39;high&#39;</text>
<text text-anchor="start" x="54" y="-57.6" font-family="FreeSans" font-size="8.00" fill="#2e3436">since = &#39;1day&#39;</text>
</g>
</g>
</svg>
