<?xml version="1.0" encoding="UTF-8" standalone="no"?>
<!DOCTYPE svg PUBLIC "-//W3C//DTD SVG 1.1//EN"
 "http://www.w3.org/Graphics/SVG/1.1/DTD/svg11.dtd">
<!-- Generated by graphviz version 2.38.0 (20140413.2041)
 -->
<!-- Title: g Pages: 1 -->
<svg width="321pt" height="127pt"
 viewBox="0.00 0.00 320.50 127.00" xmlns="http://www.w3.org/2000/svg" xmlns:xlink="http://www.w3.org/1999/xlink">
<g id="graph0" class="graph" transform="scale(1 1) rotate(0) translate(4 123)">
<title>g</title>
<polygon fill="white" stroke="none" points="-4,4 -4,-123 316.5,-123 316.5,4 -4,4"/>
<!-- N206 -->
<g id="node1" class="node"><title>N206</title>
<path fill="#ffffff" stroke="#2e3436" stroke-width="1.5" d="M12,-0.5C12,-0.5 92,-0.5 92,-0.5 98,-0.5 104,-6.5 104,-12.5 104,-12.5 104,-24.5 104,-24.5 104,-30.5 98,-36.5 92,-36.5 92,-36.5 12,-36.5 12,-36.5 6,-36.5 0,-30.5 0,-24.5 0,-24.5 0,-12.5 0,-12.5 0,-6.5 6,-0.5 12,-0.5"/>
<text text-anchor="start" x="8" y="-16.6" font-family="FreeSans" font-size="8.00" fill="#1c2021">Node[206]name = &#39;John&#39;</text>
</g>
<!-- N207 -->
<g id="node2" class="node"><title>N207</title>
<path fill="#ffffff" stroke="#2e3436" stroke-width="1.5" d="M23.5,-82.5C23.5,-82.5 80.5,-82.5 80.5,-82.5 86.5,-82.5 92.5,-88.5 92.5,-94.5 92.5,-94.5 92.5,-106.5 92.5,-106.5 92.5,-112.5 86.5,-118.5 80.5,-118.5 80.5,-118.5 23.5,-118.5 23.5,-118.5 17.5,-118.5 11.5,-112.5 11.5,-106.5 11.5,-106.5 11.5,-94.5 11.5,-94.5 11.5,-88.5 17.5,-82.5 23.5,-82.5"/>
<text text-anchor="start" x="19.5" y="-98.6" font-family="FreeSans" font-size="8.00" fill="#1c2021">Node[207]age = 1</text>
</g>
<!-- N207&#45;&gt;N206 -->
<g id="edge1" class="edge"><title>N207&#45;&gt;N206</title>
<path fill="none" stroke="#2e3436" stroke-width="2" d="M52,-82.1412C52,-71.0583 52,-56.5177 52,-44.2358"/>
<polygon fill="#2e3436" stroke="#2e3436" stroke-width="2" points="52,-36.5501 55.3751,-44.0501 52.5,-40.3001 52.5001,-44.0501 52.0001,-44.0501 51.5001,-44.0501 51.5,-40.3001 48.6251,-44.0501 52,-36.5501 52,-36.5501"/>
<text text-anchor="middle" x="64" y="-57.6" font-family="FreeSans" font-size="8.00" fill="#2e3436">knows</text>
</g>
<!-- N208 -->
<g id="node3" class="node"><title>N208</title>
<path fill="#ffffff" stroke="#2e3436" stroke-width="1.5" d="M133.5,-82.5C133.5,-82.5 190.5,-82.5 190.5,-82.5 196.5,-82.5 202.5,-88.5 202.5,-94.5 202.5,-94.5 202.5,-106.5 202.5,-106.5 202.5,-112.5 196.5,-118.5 190.5,-118.5 190.5,-118.5 133.5,-118.5 133.5,-118.5 127.5,-118.5 121.5,-112.5 121.5,-106.5 121.5,-106.5 121.5,-94.5 121.5,-94.5 121.5,-88.5 127.5,-82.5 133.5,-82.5"/>
<text text-anchor="start" x="129.5" y="-98.6" font-family="FreeSans" font-size="8.00" fill="#1c2021">Node[208]age = 1</text>
</g>
<!-- N209 -->
<g id="node4" class="node"><title>N209</title>
<path fill="#ffffff" stroke="#2e3436" stroke-width="1.5" d="M243.5,-82.5C243.5,-82.5 300.5,-82.5 300.5,-82.5 306.5,-82.5 312.5,-88.5 312.5,-94.5 312.5,-94.5 312.5,-106.5 312.5,-106.5 312.5,-112.5 306.5,-118.5 300.5,-118.5 300.5,-118.5 243.5,-118.5 243.5,-118.5 237.5,-118.5 231.5,-112.5 231.5,-106.5 231.5,-106.5 231.5,-94.5 231.5,-94.5 231.5,-88.5 237.5,-82.5 243.5,-82.5"/>
<text text-anchor="start" x="239.5" y="-98.6" font-family="FreeSans" font-size="8.00" fill="#1c2021">Node[209]age = 1</text>
</g>
</g>
</svg>
