<?xml version="1.0" encoding="UTF-8" standalone="no"?>
<!DOCTYPE svg PUBLIC "-//W3C//DTD SVG 1.1//EN"
 "http://www.w3.org/Graphics/SVG/1.1/DTD/svg11.dtd">
<!-- Generated by graphviz version 2.38.0 (20140413.2041)
 -->
<!-- Title: g Pages: 1 -->
<svg width="112pt" height="127pt"
 viewBox="0.00 0.00 112.00 127.00" xmlns="http://www.w3.org/2000/svg" xmlns:xlink="http://www.w3.org/1999/xlink">
<g id="graph0" class="graph" transform="scale(1 1) rotate(0) translate(4 123)">
<title>g</title>
<polygon fill="white" stroke="none" points="-4,4 -4,-123 108,-123 108,4 -4,4"/>
<!-- N0 -->
<g id="node1" class="node"><title>N0</title>
<path fill="#ffffff" stroke="#2e3436" stroke-width="1.5" d="M16,-0.5C16,-0.5 88,-0.5 88,-0.5 94,-0.5 100,-6.5 100,-12.5 100,-12.5 100,-24.5 100,-24.5 100,-30.5 94,-36.5 88,-36.5 88,-36.5 16,-36.5 16,-36.5 10,-36.5 4,-30.5 4,-24.5 4,-24.5 4,-12.5 4,-12.5 4,-6.5 10,-0.5 16,-0.5"/>
<text text-anchor="start" x="12" y="-16.6" font-family="FreeSans" font-size="8.00" fill="#1c2021">Node[0]name = &#39;Juliet&#39;</text>
</g>
<!-- N1 -->
<g id="node2" class="node"><title>N1</title>
<path fill="#ffffff" stroke="#2e3436" stroke-width="1.5" d="M12,-82.5C12,-82.5 92,-82.5 92,-82.5 98,-82.5 104,-88.5 104,-94.5 104,-94.5 104,-106.5 104,-106.5 104,-112.5 98,-118.5 92,-118.5 92,-118.5 12,-118.5 12,-118.5 6,-118.5 0,-112.5 0,-106.5 0,-106.5 0,-94.5 0,-94.5 0,-88.5 6,-82.5 12,-82.5"/>
<text text-anchor="start" x="8" y="-98.6" font-family="FreeSans" font-size="8.00" fill="#1c2021">Node[1]name = &#39;Romeo&#39;</text>
</g>
<!-- N1&#45;&gt;N0 -->
<g id="edge1" class="edge"><title>N1&#45;&gt;N0</title>
<path fill="none" stroke="#2e3436" stroke-width="2" d="M52,-82.1412C52,-71.0583 52,-56.5177 52,-44.2358"/>
<polygon fill="#2e3436" stroke="#2e3436" stroke-width="2" points="52,-36.5501 55.3751,-44.0501 52.5,-40.3001 52.5001,-44.0501 52.0001,-44.0501 51.5001,-44.0501 51.5,-40.3001 48.6251,-44.0501 52,-36.5501 52,-36.5501"/>
<text text-anchor="middle" x="66" y="-57.6" font-family="FreeSans" font-size="8.00" fill="#2e3436">LOVES</text>
</g>
</g>
</svg>
