<?xml version="1.0" encoding="UTF-8" standalone="no"?>
<!DOCTYPE svg PUBLIC "-//W3C//DTD SVG 1.1//EN"
 "http://www.w3.org/Graphics/SVG/1.1/DTD/svg11.dtd">
<!-- Generated by graphviz version 2.38.0 (20140413.2041)
 -->
<!-- Title: g Pages: 1 -->
<svg width="76pt" height="44pt"
 viewBox="0.00 0.00 76.00 44.00" xmlns="http://www.w3.org/2000/svg" xmlns:xlink="http://www.w3.org/1999/xlink">
<g id="graph0" class="graph" transform="scale(1 1) rotate(0) translate(4 40)">
<title>g</title>
<polygon fill="white" stroke="none" points="-4,4 -4,-40 72,-40 72,4 -4,4"/>
<!-- name: Peter -->
<g id="node1" class="node"><title>name: Peter</title>
<path fill="#ffffff" stroke="#2e3436" stroke-width="1.5" d="M56,-36C56,-36 12,-36 12,-36 6,-36 0,-30 0,-24 0,-24 0,-12 0,-12 0,-6 6,-0 12,-0 12,-0 56,-0 56,-0 62,-0 68,-6 68,-12 68,-12 68,-24 68,-24 68,-30 62,-36 56,-36"/>
<text text-anchor="middle" x="34" y="-15.5" font-family="FreeSans" font-size="10.00" fill="#1c2021">name: Peter</text>
</g>
</g>
</svg>
