<?xml version="1.0" encoding="UTF-8" standalone="no"?>
<!DOCTYPE svg PUBLIC "-//W3C//DTD SVG 1.1//EN"
 "http://www.w3.org/Graphics/SVG/1.1/DTD/svg11.dtd">
<!-- Generated by graphviz version 2.38.0 (20140413.2041)
 -->
<!-- Title: g Pages: 1 -->
<svg width="184pt" height="293pt"
 viewBox="0.00 0.00 184.00 293.00" xmlns="http://www.w3.org/2000/svg" xmlns:xlink="http://www.w3.org/1999/xlink">
<g id="graph0" class="graph" transform="scale(1 1) rotate(0) translate(4 289)">
<title>g</title>
<polygon fill="white" stroke="none" points="-4,4 -4,-289 180,-289 180,4 -4,4"/>
<!-- andreas -->
<g id="node1" class="node"><title>andreas</title>
<path fill="#fcee7d" stroke="#2e3436" stroke-width="1.5" d="M123.5,-285C123.5,-285 52.5,-285 52.5,-285 46.5,-285 40.5,-279 40.5,-273 40.5,-273 40.5,-261 40.5,-261 40.5,-255 46.5,-249 52.5,-249 52.5,-249 123.5,-249 123.5,-249 129.5,-249 135.5,-255 135.5,-261 135.5,-261 135.5,-273 135.5,-273 135.5,-279 129.5,-285 123.5,-285"/>
<text text-anchor="middle" x="88" y="-264.5" font-family="FreeSans" font-size="10.00" fill="#1c2021">Andreas Kollegger</text>
</g>
<!-- status1 -->
<g id="node2" class="node"><title>status1</title>
<path fill="#ffffff" stroke="#2e3436" stroke-width="1.5" d="M156.5,-202C156.5,-202 19.5,-202 19.5,-202 13.5,-202 7.5,-196 7.5,-190 7.5,-190 7.5,-178 7.5,-178 7.5,-172 13.5,-166 19.5,-166 19.5,-166 156.5,-166 156.5,-166 162.5,-166 168.5,-172 168.5,-178 168.5,-178 168.5,-190 168.5,-190 168.5,-196 162.5,-202 156.5,-202"/>
<text text-anchor="middle" x="88" y="-187" font-family="FreeSans" font-size="10.00" fill="#1c2021">started designing this graph model</text>
<text text-anchor="middle" x="88" y="-176" font-family="FreeSans" font-size="10.00" fill="#1c2021">9:30 am</text>
</g>
<!-- andreas&#45;&gt;status1 -->
<g id="edge1" class="edge"><title>andreas&#45;&gt;status1</title>
<path fill="none" stroke="#2e3436" stroke-width="2" d="M88,-248.822C88,-237.439 88,-222.326 88,-209.665"/>
<polygon fill="#2e3436" stroke="#2e3436" stroke-width="2" points="88,-202.153 91.3751,-209.653 88.5,-205.903 88.5001,-209.653 88.0001,-209.653 87.5001,-209.653 87.5,-205.903 84.6251,-209.653 88,-202.153 88,-202.153"/>
<text text-anchor="middle" x="101" y="-223" font-family="FreeSans" font-size="10.00" fill="#1c2021">status</text>
</g>
<!-- status2 -->
<g id="node3" class="node"><title>status2</title>
<path fill="#ffffff" stroke="#2e3436" stroke-width="1.5" d="M164,-119C164,-119 12,-119 12,-119 6,-119 0,-113 0,-107 0,-107 0,-95 0,-95 0,-89 6,-83 12,-83 12,-83 164,-83 164,-83 170,-83 176,-89 176,-95 176,-95 176,-107 176,-107 176,-113 170,-119 164,-119"/>
<text text-anchor="middle" x="88" y="-104" font-family="FreeSans" font-size="10.00" fill="#1c2021">rode my awesome Skeppshult to work</text>
<text text-anchor="middle" x="88" y="-93" font-family="FreeSans" font-size="10.00" fill="#1c2021">8:45 am</text>
</g>
<!-- status1&#45;&gt;status2 -->
<g id="edge2" class="edge"><title>status1&#45;&gt;status2</title>
<path fill="none" stroke="#2e3436" stroke-width="2" d="M88,-165.822C88,-154.439 88,-139.326 88,-126.665"/>
<polygon fill="#2e3436" stroke="#2e3436" stroke-width="2" points="88,-119.153 91.3751,-126.653 88.5,-122.903 88.5001,-126.653 88.0001,-126.653 87.5001,-126.653 87.5,-122.903 84.6251,-126.653 88,-119.153 88,-119.153"/>
<text text-anchor="middle" x="97.5" y="-140" font-family="FreeSans" font-size="10.00" fill="#1c2021">next</text>
</g>
<!-- status3 -->
<g id="node4" class="node"><title>status3</title>
<path fill="#ffffff" stroke="#2e3436" stroke-width="1.5" d="M162.5,-36C162.5,-36 13.5,-36 13.5,-36 7.5,-36 1.5,-30 1.5,-24 1.5,-24 1.5,-12 1.5,-12 1.5,-6 7.5,-0 13.5,-0 13.5,-0 162.5,-0 162.5,-0 168.5,-0 174.5,-6 174.5,-12 174.5,-12 174.5,-24 174.5,-24 174.5,-30 168.5,-36 162.5,-36"/>
<text text-anchor="middle" x="88" y="-21" font-family="FreeSans" font-size="10.00" fill="#1c2021">is getting used to muesli for breakfast</text>
<text text-anchor="middle" x="88" y="-10" font-family="FreeSans" font-size="10.00" fill="#1c2021">8:00 am</text>
</g>
<!-- status2&#45;&gt;status3 -->
<g id="edge3" class="edge"><title>status2&#45;&gt;status3</title>
<path fill="none" stroke="#2e3436" stroke-width="2" d="M88,-82.822C88,-71.4386 88,-56.3263 88,-43.6649"/>
<polygon fill="#2e3436" stroke="#2e3436" stroke-width="2" points="88,-36.1533 91.3751,-43.6532 88.5,-39.9032 88.5001,-43.6532 88.0001,-43.6533 87.5001,-43.6533 87.5,-39.9033 84.6251,-43.6533 88,-36.1533 88,-36.1533"/>
<text text-anchor="middle" x="97.5" y="-57" font-family="FreeSans" font-size="10.00" fill="#1c2021">next</text>
</g>
</g>
</svg>
