<?xml version="1.0" encoding="UTF-8" standalone="no"?>
<!DOCTYPE svg PUBLIC "-//W3C//DTD SVG 1.1//EN"
 "http://www.w3.org/Graphics/SVG/1.1/DTD/svg11.dtd">
<!-- Generated by graphviz version 2.36.0 (20140111.2315)
 -->
<!-- Title: g Pages: 1 -->
<svg width="182pt" height="296pt"
 viewBox="0.00 0.00 182.00 296.00" xmlns="http://www.w3.org/2000/svg" xmlns:xlink="http://www.w3.org/1999/xlink">
<g id="graph0" class="graph" transform="scale(1 1) rotate(0) translate(4 292)">
<title>g</title>
<polygon fill="white" stroke="none" points="-4,4 -4,-292 178,-292 178,4 -4,4"/>
<!-- andreas -->
<g id="node1" class="node"><title>andreas</title>
<path fill="#fcee7d" stroke="#2e3436" stroke-width="1.5" d="M122.25,-288C122.25,-288 51.75,-288 51.75,-288 45.75,-288 39.75,-282 39.75,-276 39.75,-276 39.75,-264 39.75,-264 39.75,-258 45.75,-252 51.75,-252 51.75,-252 122.25,-252 122.25,-252 128.25,-252 134.25,-258 134.25,-264 134.25,-264 134.25,-276 134.25,-276 134.25,-282 128.25,-288 122.25,-288"/>
<text text-anchor="middle" x="87" y="-267.5" font-family="FreeSans" font-size="10.00" fill="#1c2021">Andreas Kollegger</text>
</g>
<!-- status1 -->
<g id="node2" class="node"><title>status1</title>
<path fill="#ffffff" stroke="#2e3436" stroke-width="1.5" d="M155.25,-204C155.25,-204 18.75,-204 18.75,-204 12.75,-204 6.75,-198 6.75,-192 6.75,-192 6.75,-180 6.75,-180 6.75,-174 12.75,-168 18.75,-168 18.75,-168 155.25,-168 155.25,-168 161.25,-168 167.25,-174 167.25,-180 167.25,-180 167.25,-192 167.25,-192 167.25,-198 161.25,-204 155.25,-204"/>
<text text-anchor="middle" x="87" y="-189" font-family="FreeSans" font-size="10.00" fill="#1c2021">started designing this graph model</text>
<text text-anchor="middle" x="87" y="-178" font-family="FreeSans" font-size="10.00" fill="#1c2021">9:30 am</text>
</g>
<!-- andreas&#45;&gt;status1 -->
<g id="edge1" class="edge"><title>andreas&#45;&gt;status1</title>
<path fill="none" stroke="#2e3436" stroke-width="2" d="M87,-251.61C87,-240.008 87,-224.58 87,-211.71"/>
<polygon fill="#2e3436" stroke="#2e3436" stroke-width="2" points="87,-204.084 90.3751,-211.584 87.5,-207.834 87.5001,-211.584 87.0001,-211.584 86.5001,-211.584 86.5,-207.834 83.6251,-211.584 87,-204.084 87,-204.084"/>
<text text-anchor="middle" x="100" y="-225.5" font-family="FreeSans" font-size="10.00" fill="#1c2021">status</text>
</g>
<!-- status2 -->
<g id="node3" class="node"><title>status2</title>
<path fill="#ffffff" stroke="#2e3436" stroke-width="1.5" d="M162.5,-120C162.5,-120 11.5,-120 11.5,-120 5.5,-120 -0.5,-114 -0.5,-108 -0.5,-108 -0.5,-96 -0.5,-96 -0.5,-90 5.5,-84 11.5,-84 11.5,-84 162.5,-84 162.5,-84 168.5,-84 174.5,-90 174.5,-96 174.5,-96 174.5,-108 174.5,-108 174.5,-114 168.5,-120 162.5,-120"/>
<text text-anchor="middle" x="87" y="-105" font-family="FreeSans" font-size="10.00" fill="#1c2021">rode my awesome Skeppshult to work</text>
<text text-anchor="middle" x="87" y="-94" font-family="FreeSans" font-size="10.00" fill="#1c2021">8:45 am</text>
</g>
<!-- status1&#45;&gt;status2 -->
<g id="edge2" class="edge"><title>status1&#45;&gt;status2</title>
<path fill="none" stroke="#2e3436" stroke-width="2" d="M87,-167.61C87,-156.008 87,-140.58 87,-127.71"/>
<polygon fill="#2e3436" stroke="#2e3436" stroke-width="2" points="87,-120.084 90.3751,-127.584 87.5,-123.834 87.5001,-127.584 87.0001,-127.584 86.5001,-127.584 86.5,-123.834 83.6251,-127.584 87,-120.084 87,-120.084"/>
<text text-anchor="middle" x="96.5" y="-141.5" font-family="FreeSans" font-size="10.00" fill="#1c2021">next</text>
</g>
<!-- status3 -->
<g id="node4" class="node"><title>status3</title>
<path fill="#ffffff" stroke="#2e3436" stroke-width="1.5" d="M161.25,-36C161.25,-36 12.75,-36 12.75,-36 6.75,-36 0.75,-30 0.75,-24 0.75,-24 0.75,-12 0.75,-12 0.75,-6 6.75,-0 12.75,-0 12.75,-0 161.25,-0 161.25,-0 167.25,-0 173.25,-6 173.25,-12 173.25,-12 173.25,-24 173.25,-24 173.25,-30 167.25,-36 161.25,-36"/>
<text text-anchor="middle" x="87" y="-21" font-family="FreeSans" font-size="10.00" fill="#1c2021">is getting used to muesli for breakfast</text>
<text text-anchor="middle" x="87" y="-10" font-family="FreeSans" font-size="10.00" fill="#1c2021">8:00 am</text>
</g>
<!-- status2&#45;&gt;status3 -->
<g id="edge3" class="edge"><title>status2&#45;&gt;status3</title>
<path fill="none" stroke="#2e3436" stroke-width="2" d="M87,-83.6099C87,-72.0081 87,-56.5802 87,-43.7099"/>
<polygon fill="#2e3436" stroke="#2e3436" stroke-width="2" points="87,-36.0838 90.3751,-43.5838 87.5,-39.8338 87.5001,-43.5838 87.0001,-43.5838 86.5001,-43.5838 86.5,-39.8338 83.6251,-43.5839 87,-36.0838 87,-36.0838"/>
<text text-anchor="middle" x="96.5" y="-57.5" font-family="FreeSans" font-size="10.00" fill="#1c2021">next</text>
</g>
</g>
</svg>
