<?xml version="1.0" encoding="UTF-8" standalone="no"?>
<!DOCTYPE svg PUBLIC "-//W3C//DTD SVG 1.1//EN"
 "http://www.w3.org/Graphics/SVG/1.1/DTD/svg11.dtd">
<!-- Generated by graphviz version 2.38.0 (20140413.2041)
 -->
<!-- Title: g Pages: 1 -->
<svg width="88pt" height="127pt"
 viewBox="0.00 0.00 87.50 127.00" xmlns="http://www.w3.org/2000/svg" xmlns:xlink="http://www.w3.org/1999/xlink">
<g id="graph0" class="graph" transform="scale(1 1) rotate(0) translate(4 123)">
<title>g</title>
<polygon fill="white" stroke="none" points="-4,4 -4,-123 83.5,-123 83.5,4 -4,4"/>
<!-- Start node -->
<g id="node1" class="node"><title>Start node</title>
<path fill="#ffffff" stroke="#2e3436" stroke-width="1.5" d="M49,-119C49,-119 12,-119 12,-119 6,-119 -3.55271e-15,-113 -3.55271e-15,-107 -3.55271e-15,-107 -3.55271e-15,-95 -3.55271e-15,-95 -3.55271e-15,-89 6,-83 12,-83 12,-83 49,-83 49,-83 55,-83 61,-89 61,-95 61,-95 61,-107 61,-107 61,-113 55,-119 49,-119"/>
<text text-anchor="middle" x="30.5" y="-98.5" font-family="FreeSans" font-size="10.00" fill="#1c2021">Start node</text>
</g>
<!-- End node -->
<g id="node2" class="node"><title>End node</title>
<path fill="#ffffff" stroke="#2e3436" stroke-width="1.5" d="M46.5,-36C46.5,-36 14.5,-36 14.5,-36 8.5,-36 2.5,-30 2.5,-24 2.5,-24 2.5,-12 2.5,-12 2.5,-6 8.5,-0 14.5,-0 14.5,-0 46.5,-0 46.5,-0 52.5,-0 58.5,-6 58.5,-12 58.5,-12 58.5,-24 58.5,-24 58.5,-30 52.5,-36 46.5,-36"/>
<text text-anchor="middle" x="30.5" y="-15.5" font-family="FreeSans" font-size="10.00" fill="#1c2021">End node</text>
</g>
<!-- Start node&#45;&gt;End node -->
<g id="edge1" class="edge"><title>Start node&#45;&gt;End node</title>
<path fill="none" stroke="#2e3436" stroke-width="2" d="M30.5,-82.822C30.5,-71.4386 30.5,-56.3263 30.5,-43.6649"/>
<polygon fill="#2e3436" stroke="#2e3436" stroke-width="2" points="30.5,-36.1533 33.8751,-43.6532 31,-39.9032 31.0001,-43.6532 30.5001,-43.6533 30.0001,-43.6533 30,-39.9033 27.1251,-43.6533 30.5,-36.1533 30.5,-36.1533"/>
<text text-anchor="middle" x="55" y="-57" font-family="FreeSans" font-size="10.00" fill="#1c2021">relationship</text>
</g>
</g>
</svg>
