<?xml version="1.0" encoding="UTF-8" standalone="no"?>
<!DOCTYPE svg PUBLIC "-//W3C//DTD SVG 1.1//EN"
 "http://www.w3.org/Graphics/SVG/1.1/DTD/svg11.dtd">
<!-- Generated by graphviz version 2.36.0 (20140111.2315)
 -->
<!-- Title: g Pages: 1 -->
<svg width="315pt" height="190pt"
 viewBox="0.00 0.00 315.00 190.00" xmlns="http://www.w3.org/2000/svg" xmlns:xlink="http://www.w3.org/1999/xlink">
<g id="graph0" class="graph" transform="scale(1 1) rotate(0) translate(4 186)">
<title>g</title>
<polygon fill="white" stroke="none" points="-4,4 -4,-186 311,-186 311,4 -4,4"/>
<!-- A Relationship -->
<g id="node1" class="node"><title>A Relationship</title>
<path fill="#a8e270" stroke="#2e3436" stroke-width="1.5" d="M145,-182C145,-182 91,-182 91,-182 85,-182 79,-176 79,-170 79,-170 79,-158 79,-158 79,-152 85,-146 91,-146 91,-146 145,-146 145,-146 151,-146 157,-152 157,-158 157,-158 157,-170 157,-170 157,-176 151,-182 145,-182"/>
<text text-anchor="middle" x="118" y="-161.5" font-family="FreeSans" font-size="10.00" fill="#1c2021">A Relationship</text>
</g>
<!-- Start node -->
<g id="node2" class="node"><title>Start node</title>
<path fill="#95bbe3" stroke="#2e3436" stroke-width="1.5" d="M48.25,-98C48.25,-98 11.75,-98 11.75,-98 5.75,-98 -0.25,-92 -0.25,-86 -0.25,-86 -0.25,-74 -0.25,-74 -0.25,-68 5.75,-62 11.75,-62 11.75,-62 48.25,-62 48.25,-62 54.25,-62 60.25,-68 60.25,-74 60.25,-74 60.25,-86 60.25,-86 60.25,-92 54.25,-98 48.25,-98"/>
<text text-anchor="middle" x="30" y="-77.5" font-family="FreeSans" font-size="10.00" fill="#1c2021">Start node</text>
</g>
<!-- A Relationship&#45;&gt;Start node -->
<g id="edge1" class="edge"><title>A Relationship&#45;&gt;Start node</title>
<path fill="none" stroke="#2e3436" stroke-width="2" d="M99.3375,-145.61C86.182,-133.351 68.4425,-116.821 54.2001,-103.55"/>
<polygon fill="#2e3436" stroke="#2e3436" stroke-width="2" points="48.3339,-98.0838 56.1218,-100.728 51.4183,-100.275 54.1618,-102.831 53.821,-103.197 53.4801,-103.563 50.7366,-101.006 51.5201,-105.666 48.3339,-98.0838 48.3339,-98.0838"/>
<text text-anchor="middle" x="91.5" y="-119.5" font-family="FreeSans" font-size="10.00" fill="#1c2021">has a</text>
</g>
<!-- End node -->
<g id="node3" class="node"><title>End node</title>
<path fill="#fadcad" stroke="#2e3436" stroke-width="1.5" d="M133.5,-98C133.5,-98 102.5,-98 102.5,-98 96.5,-98 90.5,-92 90.5,-86 90.5,-86 90.5,-74 90.5,-74 90.5,-68 96.5,-62 102.5,-62 102.5,-62 133.5,-62 133.5,-62 139.5,-62 145.5,-68 145.5,-74 145.5,-74 145.5,-86 145.5,-86 145.5,-92 139.5,-98 133.5,-98"/>
<text text-anchor="middle" x="118" y="-77.5" font-family="FreeSans" font-size="10.00" fill="#1c2021">End node</text>
</g>
<!-- A Relationship&#45;&gt;End node -->
<g id="edge2" class="edge"><title>A Relationship&#45;&gt;End node</title>
<path fill="none" stroke="#2e3436" stroke-width="2" d="M118,-145.61C118,-134.008 118,-118.58 118,-105.71"/>
<polygon fill="#2e3436" stroke="#2e3436" stroke-width="2" points="118,-98.0838 121.375,-105.584 118.5,-101.834 118.5,-105.584 118,-105.584 117.5,-105.584 117.5,-101.834 114.625,-105.584 118,-98.0838 118,-98.0838"/>
<text text-anchor="middle" x="129.5" y="-119.5" font-family="FreeSans" font-size="10.00" fill="#1c2021">has a</text>
</g>
<!-- Relationship type -->
<g id="node4" class="node"><title>Relationship type</title>
<path fill="#fadcad" stroke="#2e3436" stroke-width="1.5" d="M251.25,-98C251.25,-98 186.75,-98 186.75,-98 180.75,-98 174.75,-92 174.75,-86 174.75,-86 174.75,-74 174.75,-74 174.75,-68 180.75,-62 186.75,-62 186.75,-62 251.25,-62 251.25,-62 257.25,-62 263.25,-68 263.25,-74 263.25,-74 263.25,-86 263.25,-86 263.25,-92 257.25,-98 251.25,-98"/>
<text text-anchor="middle" x="219" y="-77.5" font-family="FreeSans" font-size="10.00" fill="#1c2021">Relationship type</text>
</g>
<!-- A Relationship&#45;&gt;Relationship type -->
<g id="edge3" class="edge"><title>A Relationship&#45;&gt;Relationship type</title>
<path fill="none" stroke="#2e3436" stroke-width="2" d="M139.42,-145.61C154.788,-133.133 175.607,-116.23 192.097,-102.842"/>
<polygon fill="#2e3436" stroke="#2e3436" stroke-width="2" points="197.958,-98.0838 194.262,-105.431 195.362,-100.836 192.45,-103.199 192.135,-102.811 191.82,-102.423 194.731,-100.059 190.008,-100.191 197.958,-98.0838 197.958,-98.0838"/>
<text text-anchor="middle" x="185.5" y="-119.5" font-family="FreeSans" font-size="10.00" fill="#1c2021">has a</text>
</g>
<!-- Name -->
<g id="node5" class="node"><title>Name</title>
<text text-anchor="middle" x="219" y="-4.5" font-family="FreeSans" font-size="10.00" fill="#1c2021">Name</text>
</g>
<!-- Relationship type&#45;&gt;Name -->
<g id="edge4" class="edge"><title>Relationship type&#45;&gt;Name</title>
<path fill="none" stroke="#a40000" stroke-width="2" d="M219,-61.8129C219,-49.5162 219,-33.1826 219,-21.7482"/>
<polygon fill="#a40000" stroke="#a40000" stroke-width="2" points="219,-14.1072 222.375,-21.6071 219.5,-17.8572 219.5,-21.6072 219,-21.6072 218.5,-21.6072 218.5,-17.8572 215.625,-21.6072 219,-14.1072 219,-14.1072"/>
<text text-anchor="middle" x="263" y="-35.5" font-family="FreeSans" font-size="10.00" fill="#a40000">uniquely identified by</text>
</g>
</g>
</svg>
