<?xml version="1.0" encoding="UTF-8" standalone="no"?>
<!DOCTYPE svg PUBLIC "-//W3C//DTD SVG 1.1//EN"
 "http://www.w3.org/Graphics/SVG/1.1/DTD/svg11.dtd">
<!-- Generated by graphviz version 2.36.0 (20140111.2315)
 -->
<!-- Title: g Pages: 1 -->
<svg width="112pt" height="214pt"
 viewBox="0.00 0.00 112.00 214.00" xmlns="http://www.w3.org/2000/svg" xmlns:xlink="http://www.w3.org/1999/xlink">
<g id="graph0" class="graph" transform="scale(1 1) rotate(0) translate(4 210)">
<title>g</title>
<polygon fill="white" stroke="none" points="-4,4 -4,-210 108,-210 108,4 -4,4"/>
<!-- N0 -->
<g id="node1" class="node"><title>N0</title>
<path fill="#ffffff" stroke="#2e3436" stroke-width="1.5" d="M18,-169C18,-169 86,-169 86,-169 92,-169 98,-175 98,-181 98,-181 98,-193 98,-193 98,-199 92,-205 86,-205 86,-205 18,-205 18,-205 12,-205 6,-199 6,-193 6,-193 6,-181 6,-181 6,-175 12,-169 18,-169"/>
<text text-anchor="start" x="14" y="-185.1" font-family="FreeSans" font-size="8.00" fill="#1c2021">Node[0]name = &#39;Bob&#39;</text>
</g>
<!-- N1 -->
<g id="node2" class="node"><title>N1</title>
<path fill="#ffffff" stroke="#2e3436" stroke-width="1.5" d="M12,-85C12,-85 92,-85 92,-85 98,-85 104,-91 104,-97 104,-97 104,-109 104,-109 104,-115 98,-121 92,-121 92,-121 12,-121 12,-121 6,-121 0,-115 0,-109 0,-109 0,-97 0,-97 0,-91 6,-85 12,-85"/>
<text text-anchor="start" x="8" y="-110.1" font-family="FreeSans" font-size="8.00" fill="#1c2021">Node[1]name = &#39;bob_s1&#39;</text>
<text text-anchor="start" x="8" y="-101.1" font-family="FreeSans" font-size="8.00" fill="#1c2021">text = &#39;bobs status1&#39;</text>
<text text-anchor="start" x="8" y="-92.1" font-family="FreeSans" font-size="8.00" fill="#1c2021">date = 1</text>
</g>
<!-- N0&#45;&gt;N1 -->
<g id="edge1" class="edge"><title>N0&#45;&gt;N1</title>
<path fill="none" stroke="#2e3436" stroke-width="2" d="M52,-168.61C52,-157.008 52,-141.58 52,-128.71"/>
<polygon fill="#2e3436" stroke="#2e3436" stroke-width="2" points="52,-121.084 55.3751,-128.584 52.5,-124.834 52.5001,-128.584 52.0001,-128.584 51.5001,-128.584 51.5,-124.834 48.6251,-128.584 52,-121.084 52,-121.084"/>
<text text-anchor="middle" x="68.5" y="-143.1" font-family="FreeSans" font-size="8.00" fill="#2e3436">STATUS</text>
</g>
<!-- N2 -->
<g id="node3" class="node"><title>N2</title>
<path fill="#ffffff" stroke="#2e3436" stroke-width="1.5" d="M12,-1C12,-1 92,-1 92,-1 98,-1 104,-7 104,-13 104,-13 104,-25 104,-25 104,-31 98,-37 92,-37 92,-37 12,-37 12,-37 6,-37 0,-31 0,-25 0,-25 0,-13 0,-13 0,-7 6,-1 12,-1"/>
<text text-anchor="start" x="8" y="-26.1" font-family="FreeSans" font-size="8.00" fill="#1c2021">Node[2]name = &#39;bob_s2&#39;</text>
<text text-anchor="start" x="8" y="-17.1" font-family="FreeSans" font-size="8.00" fill="#1c2021">text = &#39;bobs status2&#39;</text>
<text text-anchor="start" x="8" y="-8.1" font-family="FreeSans" font-size="8.00" fill="#1c2021">date = 4</text>
</g>
<!-- N1&#45;&gt;N2 -->
<g id="edge2" class="edge"><title>N1&#45;&gt;N2</title>
<path fill="none" stroke="#4e9a06" stroke-width="2" d="M52,-84.6099C52,-73.0081 52,-57.5802 52,-44.7099"/>
<polygon fill="#4e9a06" stroke="#4e9a06" stroke-width="2" points="52,-37.0838 55.3751,-44.5838 52.5,-40.8338 52.5001,-44.5838 52.0001,-44.5838 51.5001,-44.5838 51.5,-40.8338 48.6251,-44.5839 52,-37.0838 52,-37.0838"/>
<text text-anchor="middle" x="63" y="-59.1" font-family="FreeSans" font-size="8.00" fill="#4e9a06">NEXT</text>
</g>
</g>
</svg>
