<?xml version="1.0" encoding="UTF-8" standalone="no"?>
<!DOCTYPE svg PUBLIC "-//W3C//DTD SVG 1.1//EN"
 "http://www.w3.org/Graphics/SVG/1.1/DTD/svg11.dtd">
<!-- Generated by graphviz version 2.36.0 (20140111.2315)
 -->
<!-- Title: g Pages: 1 -->
<svg width="238pt" height="150pt"
 viewBox="0.00 0.00 238.00 150.00" xmlns="http://www.w3.org/2000/svg" xmlns:xlink="http://www.w3.org/1999/xlink">
<g id="graph0" class="graph" transform="scale(1 1) rotate(0) translate(4 146)">
<title>g</title>
<polygon fill="white" stroke="none" points="-4,4 -4,-146 234,-146 234,4 -4,4"/>
<!-- N2 -->
<g id="node1" class="node"><title>N2</title>
<path fill="#ffffff" stroke="#2e3436" stroke-width="1.5" d="M11.5,-98.5C11.5,-98.5 78.5,-98.5 78.5,-98.5 84.5,-98.5 90.5,-104.5 90.5,-110.5 90.5,-110.5 90.5,-129.5 90.5,-129.5 90.5,-135.5 84.5,-141.5 78.5,-141.5 78.5,-141.5 11.5,-141.5 11.5,-141.5 5.5,-141.5 -0.5,-135.5 -0.5,-129.5 -0.5,-129.5 -0.5,-110.5 -0.5,-110.5 -0.5,-104.5 5.5,-98.5 11.5,-98.5"/>
<text text-anchor="middle" x="45" y="-131.1" font-family="FreeSans" font-size="8.00" fill="#1c2021">Person</text>
<polyline fill="none" stroke="#2e3436" stroke-width="1.5" points="-0.5,-124.5 90.5,-124.5 "/>
<text text-anchor="start" x="7.5" y="-114.1" font-family="FreeSans" font-size="8.00" fill="#1c2021">name = &#39;Tom Hanks&#39;</text>
<text text-anchor="start" x="7.5" y="-105.1" font-family="FreeSans" font-size="8.00" fill="#1c2021">born = 1956</text>
</g>
<!-- N3 -->
<g id="node2" class="node"><title>N3</title>
<path fill="#ffffff" stroke="#2e3436" stroke-width="1.5" d="M76.5,-0.5C76.5,-0.5 143.5,-0.5 143.5,-0.5 149.5,-0.5 155.5,-6.5 155.5,-12.5 155.5,-12.5 155.5,-31.5 155.5,-31.5 155.5,-37.5 149.5,-43.5 143.5,-43.5 143.5,-43.5 76.5,-43.5 76.5,-43.5 70.5,-43.5 64.5,-37.5 64.5,-31.5 64.5,-31.5 64.5,-12.5 64.5,-12.5 64.5,-6.5 70.5,-0.5 76.5,-0.5"/>
<text text-anchor="middle" x="110" y="-33.1" font-family="FreeSans" font-size="8.00" fill="#1c2021">Movie</text>
<polyline fill="none" stroke="#2e3436" stroke-width="1.5" points="64.5,-26.5 155.5,-26.5 "/>
<text text-anchor="start" x="72.5" y="-16.1" font-family="FreeSans" font-size="8.00" fill="#1c2021">title = &#39;Forrest Gump&#39;</text>
<text text-anchor="start" x="72.5" y="-7.1" font-family="FreeSans" font-size="8.00" fill="#1c2021">released = 1994</text>
</g>
<!-- N2&#45;&gt;N3 -->
<g id="edge1" class="edge"><title>N2&#45;&gt;N3</title>
<path fill="none" stroke="#2e3436" stroke-width="2" d="M55.832,-98.4602C61.9296,-87.392 69.9244,-73.6545 78,-62 80.8823,-57.8404 84.0937,-53.5716 87.3388,-49.4549"/>
<polygon fill="#2e3436" stroke="#2e3436" stroke-width="2" points="92.083,-43.5628 90.0082,-51.5212 90.1206,-46.7972 87.7688,-49.7181 87.3794,-49.4046 86.9899,-49.091 89.3417,-46.1701 84.7505,-47.2879 92.083,-43.5628 92.083,-43.5628"/>
<text text-anchor="middle" x="108.5" y="-73.6" font-family="FreeSans" font-size="8.00" fill="#2e3436">ACTED_IN</text>
<text text-anchor="start" x="78" y="-64.6" font-family="FreeSans" font-size="8.00" fill="#2e3436">roles = [&#39;Forrest&#39;]</text>
</g>
<!-- N4 -->
<g id="node3" class="node"><title>N4</title>
<path fill="#ffffff" stroke="#2e3436" stroke-width="1.5" d="M131.5,-98.5C131.5,-98.5 218.5,-98.5 218.5,-98.5 224.5,-98.5 230.5,-104.5 230.5,-110.5 230.5,-110.5 230.5,-129.5 230.5,-129.5 230.5,-135.5 224.5,-141.5 218.5,-141.5 218.5,-141.5 131.5,-141.5 131.5,-141.5 125.5,-141.5 119.5,-135.5 119.5,-129.5 119.5,-129.5 119.5,-110.5 119.5,-110.5 119.5,-104.5 125.5,-98.5 131.5,-98.5"/>
<text text-anchor="middle" x="175" y="-131.1" font-family="FreeSans" font-size="8.00" fill="#1c2021">Person</text>
<polyline fill="none" stroke="#2e3436" stroke-width="1.5" points="119.5,-124.5 230.5,-124.5 "/>
<text text-anchor="start" x="127.5" y="-114.1" font-family="FreeSans" font-size="8.00" fill="#1c2021">name = &#39;Robert Zemeckis&#39;</text>
<text text-anchor="start" x="127.5" y="-105.1" font-family="FreeSans" font-size="8.00" fill="#1c2021">born = 1951</text>
</g>
<!-- N4&#45;&gt;N3 -->
<g id="edge2" class="edge"><title>N4&#45;&gt;N3</title>
<path fill="none" stroke="#4e9a06" stroke-width="2" d="M164.168,-98.4602C158.07,-87.392 150.076,-73.6545 142,-62 139.118,-57.8404 135.906,-53.5716 132.661,-49.4549"/>
<polygon fill="#4e9a06" stroke="#4e9a06" stroke-width="2" points="127.917,-43.5628 135.249,-47.2879 130.658,-46.1701 133.01,-49.091 132.621,-49.4046 132.231,-49.7181 129.879,-46.7972 129.992,-51.5212 127.917,-43.5628 127.917,-43.5628"/>
<text text-anchor="middle" x="173.5" y="-69.1" font-family="FreeSans" font-size="8.00" fill="#4e9a06">DIRECTED</text>
</g>
</g>
</svg>
