<?xml version="1.0" encoding="UTF-8" standalone="no"?>
<!DOCTYPE svg PUBLIC "-//W3C//DTD SVG 1.1//EN"
 "http://www.w3.org/Graphics/SVG/1.1/DTD/svg11.dtd">
<!-- Generated by graphviz version 2.38.0 (20140413.2041)
 -->
<!-- Title: g Pages: 1 -->
<svg width="203pt" height="127pt"
 viewBox="0.00 0.00 203.00 127.00" xmlns="http://www.w3.org/2000/svg" xmlns:xlink="http://www.w3.org/1999/xlink">
<g id="graph0" class="graph" transform="scale(1 1) rotate(0) translate(4 123)">
<title>g</title>
<polygon fill="white" stroke="none" points="-4,4 -4,-123 199,-123 199,4 -4,4"/>
<!-- N0 -->
<g id="node1" class="node"><title>N0</title>
<path fill="#ffffff" stroke="#2e3436" stroke-width="1.5" d="M68,-82.5C68,-82.5 127,-82.5 127,-82.5 133,-82.5 139,-88.5 139,-94.5 139,-94.5 139,-106.5 139,-106.5 139,-112.5 133,-118.5 127,-118.5 127,-118.5 68,-118.5 68,-118.5 62,-118.5 56,-112.5 56,-106.5 56,-106.5 56,-94.5 56,-94.5 56,-88.5 62,-82.5 68,-82.5"/>
<text text-anchor="start" x="64" y="-98.6" font-family="FreeSans" font-size="8.00" fill="#1c2021">Node[0]name = &#39;A&#39;</text>
</g>
<!-- N2 -->
<g id="node2" class="node"><title>N2</title>
<path fill="#ffffff" stroke="#2e3436" stroke-width="1.5" d="M12,-0.5C12,-0.5 71,-0.5 71,-0.5 77,-0.5 83,-6.5 83,-12.5 83,-12.5 83,-24.5 83,-24.5 83,-30.5 77,-36.5 71,-36.5 71,-36.5 12,-36.5 12,-36.5 6,-36.5 0,-30.5 0,-24.5 0,-24.5 0,-12.5 0,-12.5 0,-6.5 6,-0.5 12,-0.5"/>
<text text-anchor="start" x="8" y="-16.6" font-family="FreeSans" font-size="8.00" fill="#1c2021">Node[2]name = &#39;C&#39;</text>
</g>
<!-- N0&#45;&gt;N2 -->
<g id="edge1" class="edge"><title>N0&#45;&gt;N2</title>
<path fill="none" stroke="#2e3436" stroke-width="2" d="M85.3488,-82.1412C77.2953,-70.6361 66.6334,-55.4048 57.8396,-42.8423"/>
<polygon fill="#2e3436" stroke="#2e3436" stroke-width="2" points="53.4351,-36.5501 60.501,-40.7589 55.9952,-39.3355 58.1457,-42.4076 57.7361,-42.6944 57.3265,-42.9811 55.176,-39.909 54.9712,-44.6298 53.4351,-36.5501 53.4351,-36.5501"/>
<text text-anchor="middle" x="87" y="-57.6" font-family="FreeSans" font-size="8.00" fill="#2e3436">KNOWS</text>
</g>
<!-- N1 -->
<g id="node3" class="node"><title>N1</title>
<path fill="#ffffff" stroke="#2e3436" stroke-width="1.5" d="M124,-0.5C124,-0.5 183,-0.5 183,-0.5 189,-0.5 195,-6.5 195,-12.5 195,-12.5 195,-24.5 195,-24.5 195,-30.5 189,-36.5 183,-36.5 183,-36.5 124,-36.5 124,-36.5 118,-36.5 112,-30.5 112,-24.5 112,-24.5 112,-12.5 112,-12.5 112,-6.5 118,-0.5 124,-0.5"/>
<text text-anchor="start" x="120" y="-16.6" font-family="FreeSans" font-size="8.00" fill="#1c2021">Node[1]name = &#39;B&#39;</text>
</g>
<!-- N0&#45;&gt;N1 -->
<g id="edge2" class="edge"><title>N0&#45;&gt;N1</title>
<path fill="none" stroke="#2e3436" stroke-width="2" d="M109.651,-82.1412C117.705,-70.6361 128.367,-55.4048 137.16,-42.8423"/>
<polygon fill="#2e3436" stroke="#2e3436" stroke-width="2" points="141.565,-36.5501 140.029,-44.6298 139.824,-39.909 137.674,-42.9811 137.264,-42.6944 136.854,-42.4076 139.005,-39.3355 134.499,-40.7589 141.565,-36.5501 141.565,-36.5501"/>
<text text-anchor="middle" x="142" y="-57.6" font-family="FreeSans" font-size="8.00" fill="#2e3436">KNOWS</text>
</g>
</g>
</svg>
