<?xml version="1.0" encoding="UTF-8" standalone="no"?>
<!DOCTYPE svg PUBLIC "-//W3C//DTD SVG 1.1//EN"
 "http://www.w3.org/Graphics/SVG/1.1/DTD/svg11.dtd">
<!-- Generated by graphviz version 2.36.0 (20140111.2315)
 -->
<!-- Title: g Pages: 1 -->
<svg width="150pt" height="130pt"
 viewBox="0.00 0.00 150.00 130.00" xmlns="http://www.w3.org/2000/svg" xmlns:xlink="http://www.w3.org/1999/xlink">
<g id="graph0" class="graph" transform="scale(1 1) rotate(0) translate(4 126)">
<title>g</title>
<polygon fill="white" stroke="none" points="-4,4 -4,-126 146,-126 146,4 -4,4"/>
<!-- N6 -->
<g id="node1" class="node"><title>N6</title>
<path fill="#ffffff" stroke="#2e3436" stroke-width="1.5" d="M53.5,-1C53.5,-1 88.5,-1 88.5,-1 94.5,-1 100.5,-7 100.5,-13 100.5,-13 100.5,-25 100.5,-25 100.5,-31 94.5,-37 88.5,-37 88.5,-37 53.5,-37 53.5,-37 47.5,-37 41.5,-31 41.5,-25 41.5,-25 41.5,-13 41.5,-13 41.5,-7 47.5,-1 53.5,-1"/>
<text text-anchor="middle" x="71" y="-26.1" font-family="FreeSans" font-size="8.00" fill="#1c2021">Year</text>
<polyline fill="none" stroke="#2e3436" stroke-width="1.5" points="41.5,-19 100.5,-19 "/>
<text text-anchor="start" x="49.5" y="-8.1" font-family="FreeSans" font-size="8.00" fill="#1c2021">year = 2014</text>
</g>
<!-- N8 -->
<g id="node2" class="node"><title>N8</title>
<path fill="#ffffff" stroke="#2e3436" stroke-width="1.5" d="M11.5,-85C11.5,-85 44.5,-85 44.5,-85 50.5,-85 56.5,-91 56.5,-97 56.5,-97 56.5,-109 56.5,-109 56.5,-115 50.5,-121 44.5,-121 44.5,-121 11.5,-121 11.5,-121 5.5,-121 -0.5,-115 -0.5,-109 -0.5,-109 -0.5,-97 -0.5,-97 -0.5,-91 5.5,-85 11.5,-85"/>
<text text-anchor="middle" x="28" y="-110.1" font-family="FreeSans" font-size="8.00" fill="#1c2021">Month</text>
<polyline fill="none" stroke="#2e3436" stroke-width="1.5" points="-0.5,-103 56.5,-103 "/>
<text text-anchor="start" x="7.5" y="-92.1" font-family="FreeSans" font-size="8.00" fill="#1c2021">month = 11</text>
</g>
<!-- N8&#45;&gt;N6 -->
<g id="edge1" class="edge"><title>N8&#45;&gt;N6</title>
<path fill="none" stroke="#2e3436" stroke-width="2" d="M32.0766,-84.8237C34.562,-75.9225 38.194,-65.0511 43,-56 45.2906,-51.6861 48.1032,-47.3609 51.053,-43.2802"/>
<polygon fill="#2e3436" stroke="#2e3436" stroke-width="2" points="55.7464,-37.106 53.8945,-45.1192 53.8751,-40.394 51.6057,-43.3794 51.2077,-43.0768 50.8096,-42.7742 53.079,-39.7888 48.5208,-41.0344 55.7464,-37.106 55.7464,-37.106"/>
<text text-anchor="middle" x="60.5" y="-59.1" font-family="FreeSans" font-size="8.00" fill="#2e3436">IN_YEAR</text>
</g>
<!-- N7 -->
<g id="node3" class="node"><title>N7</title>
<path fill="#ffffff" stroke="#2e3436" stroke-width="1.5" d="M97.5,-85C97.5,-85 130.5,-85 130.5,-85 136.5,-85 142.5,-91 142.5,-97 142.5,-97 142.5,-109 142.5,-109 142.5,-115 136.5,-121 130.5,-121 130.5,-121 97.5,-121 97.5,-121 91.5,-121 85.5,-115 85.5,-109 85.5,-109 85.5,-97 85.5,-97 85.5,-91 91.5,-85 97.5,-85"/>
<text text-anchor="middle" x="114" y="-110.1" font-family="FreeSans" font-size="8.00" fill="#1c2021">Month</text>
<polyline fill="none" stroke="#2e3436" stroke-width="1.5" points="85.5,-103 142.5,-103 "/>
<text text-anchor="start" x="93.5" y="-92.1" font-family="FreeSans" font-size="8.00" fill="#1c2021">month = 10</text>
</g>
<!-- N7&#45;&gt;N6 -->
<g id="edge2" class="edge"><title>N7&#45;&gt;N6</title>
<path fill="none" stroke="#2e3436" stroke-width="2" d="M104.881,-84.6099C98.6822,-72.7892 90.4007,-56.9967 83.5771,-43.9841"/>
<polygon fill="#2e3436" stroke="#2e3436" stroke-width="2" points="79.9586,-37.0838 86.4307,-42.1586 82.143,-40.1727 83.8845,-43.4938 83.4417,-43.726 82.9989,-43.9582 81.2574,-40.6371 80.4528,-45.2934 79.9586,-37.0838 79.9586,-37.0838"/>
<text text-anchor="middle" x="112.5" y="-59.1" font-family="FreeSans" font-size="8.00" fill="#2e3436">IN_YEAR</text>
</g>
</g>
</svg>
