<?xml version="1.0" encoding="UTF-8" standalone="no"?>
<!DOCTYPE svg PUBLIC "-//W3C//DTD SVG 1.1//EN"
 "http://www.w3.org/Graphics/SVG/1.1/DTD/svg11.dtd">
<!-- Generated by graphviz version 2.38.0 (20140413.2041)
 -->
<!-- Title: g Pages: 1 -->
<svg width="112pt" height="209pt"
 viewBox="0.00 0.00 112.00 209.00" xmlns="http://www.w3.org/2000/svg" xmlns:xlink="http://www.w3.org/1999/xlink">
<g id="graph0" class="graph" transform="scale(1 1) rotate(0) translate(4 205)">
<title>g</title>
<polygon fill="white" stroke="none" points="-4,4 -4,-205 108,-205 108,4 -4,4"/>
<!-- N0 -->
<g id="node1" class="node"><title>N0</title>
<path fill="#ffffff" stroke="#2e3436" stroke-width="1.5" d="M18,-164.5C18,-164.5 86,-164.5 86,-164.5 92,-164.5 98,-170.5 98,-176.5 98,-176.5 98,-188.5 98,-188.5 98,-194.5 92,-200.5 86,-200.5 86,-200.5 18,-200.5 18,-200.5 12,-200.5 6,-194.5 6,-188.5 6,-188.5 6,-176.5 6,-176.5 6,-170.5 12,-164.5 18,-164.5"/>
<text text-anchor="start" x="14" y="-180.6" font-family="FreeSans" font-size="8.00" fill="#1c2021">Node[0]name = &#39;Bob&#39;</text>
</g>
<!-- N1 -->
<g id="node2" class="node"><title>N1</title>
<path fill="#ffffff" stroke="#2e3436" stroke-width="1.5" d="M12,-82.5C12,-82.5 92,-82.5 92,-82.5 98,-82.5 104,-88.5 104,-94.5 104,-94.5 104,-106.5 104,-106.5 104,-112.5 98,-118.5 92,-118.5 92,-118.5 12,-118.5 12,-118.5 6,-118.5 0,-112.5 0,-106.5 0,-106.5 0,-94.5 0,-94.5 0,-88.5 6,-82.5 12,-82.5"/>
<text text-anchor="start" x="8" y="-107.6" font-family="FreeSans" font-size="8.00" fill="#1c2021">Node[1]name = &#39;bob_s1&#39;</text>
<text text-anchor="start" x="8" y="-98.6" font-family="FreeSans" font-size="8.00" fill="#1c2021">text = &#39;bobs status1&#39;</text>
<text text-anchor="start" x="8" y="-89.6" font-family="FreeSans" font-size="8.00" fill="#1c2021">date = 1</text>
</g>
<!-- N0&#45;&gt;N1 -->
<g id="edge1" class="edge"><title>N0&#45;&gt;N1</title>
<path fill="none" stroke="#2e3436" stroke-width="2" d="M52,-164.141C52,-153.058 52,-138.518 52,-126.236"/>
<polygon fill="#2e3436" stroke="#2e3436" stroke-width="2" points="52,-118.55 55.3751,-126.05 52.5,-122.3 52.5001,-126.05 52.0001,-126.05 51.5001,-126.05 51.5,-122.3 48.6251,-126.05 52,-118.55 52,-118.55"/>
<text text-anchor="middle" x="68.5" y="-139.6" font-family="FreeSans" font-size="8.00" fill="#2e3436">STATUS</text>
</g>
<!-- N2 -->
<g id="node3" class="node"><title>N2</title>
<path fill="#ffffff" stroke="#2e3436" stroke-width="1.5" d="M12,-0.5C12,-0.5 92,-0.5 92,-0.5 98,-0.5 104,-6.5 104,-12.5 104,-12.5 104,-24.5 104,-24.5 104,-30.5 98,-36.5 92,-36.5 92,-36.5 12,-36.5 12,-36.5 6,-36.5 0,-30.5 0,-24.5 0,-24.5 0,-12.5 0,-12.5 0,-6.5 6,-0.5 12,-0.5"/>
<text text-anchor="start" x="8" y="-25.6" font-family="FreeSans" font-size="8.00" fill="#1c2021">Node[2]name = &#39;bob_s2&#39;</text>
<text text-anchor="start" x="8" y="-16.6" font-family="FreeSans" font-size="8.00" fill="#1c2021">text = &#39;bobs status2&#39;</text>
<text text-anchor="start" x="8" y="-7.6" font-family="FreeSans" font-size="8.00" fill="#1c2021">date = 4</text>
</g>
<!-- N1&#45;&gt;N2 -->
<g id="edge2" class="edge"><title>N1&#45;&gt;N2</title>
<path fill="none" stroke="#4e9a06" stroke-width="2" d="M52,-82.1412C52,-71.0583 52,-56.5177 52,-44.2358"/>
<polygon fill="#4e9a06" stroke="#4e9a06" stroke-width="2" points="52,-36.5501 55.3751,-44.0501 52.5,-40.3001 52.5001,-44.0501 52.0001,-44.0501 51.5001,-44.0501 51.5,-40.3001 48.6251,-44.0501 52,-36.5501 52,-36.5501"/>
<text text-anchor="middle" x="63" y="-57.6" font-family="FreeSans" font-size="8.00" fill="#4e9a06">NEXT</text>
</g>
</g>
</svg>
