<?xml version="1.0" encoding="UTF-8" standalone="no"?>
<!DOCTYPE svg PUBLIC "-//W3C//DTD SVG 1.1//EN"
 "http://www.w3.org/Graphics/SVG/1.1/DTD/svg11.dtd">
<!-- Generated by graphviz version 2.36.0 (20140111.2315)
 -->
<!-- Title: g Pages: 1 -->
<svg width="379pt" height="398pt"
 viewBox="0.00 0.00 379.00 398.00" xmlns="http://www.w3.org/2000/svg" xmlns:xlink="http://www.w3.org/1999/xlink">
<g id="graph0" class="graph" transform="scale(1 1) rotate(0) translate(4 394)">
<title>g</title>
<polygon fill="white" stroke="none" points="-4,4 -4,-394 375,-394 375,4 -4,4"/>
<!-- N0 -->
<g id="node1" class="node"><title>N0</title>
<path fill="#ffffff" stroke="#2e3436" stroke-width="1.5" d="M146.5,-353C146.5,-353 185.5,-353 185.5,-353 191.5,-353 197.5,-359 197.5,-365 197.5,-365 197.5,-377 197.5,-377 197.5,-383 191.5,-389 185.5,-389 185.5,-389 146.5,-389 146.5,-389 140.5,-389 134.5,-383 134.5,-377 134.5,-377 134.5,-365 134.5,-365 134.5,-359 140.5,-353 146.5,-353"/>
<text text-anchor="start" x="142.5" y="-369.1" font-family="FreeSans" font-size="8.00" fill="#1c2021">name = &#39;Bob&#39;</text>
</g>
<!-- N1 -->
<g id="node2" class="node"><title>N1</title>
<path fill="#ffffff" stroke="#2e3436" stroke-width="1.5" d="M18,-261C18,-261 80,-261 80,-261 86,-261 92,-267 92,-273 92,-273 92,-285 92,-285 92,-291 86,-297 80,-297 80,-297 18,-297 18,-297 12,-297 6,-291 6,-285 6,-285 6,-273 6,-273 6,-267 12,-261 18,-261"/>
<text text-anchor="start" x="14" y="-286.1" font-family="FreeSans" font-size="8.00" fill="#1c2021">name = &#39;bob_s1&#39;</text>
<text text-anchor="start" x="14" y="-277.1" font-family="FreeSans" font-size="8.00" fill="#1c2021">text = &#39;bobs status1&#39;</text>
<text text-anchor="start" x="14" y="-268.1" font-family="FreeSans" font-size="8.00" fill="#1c2021">date = 1</text>
</g>
<!-- N0&#45;&gt;N1 -->
<g id="edge1" class="edge"><title>N0&#45;&gt;N1</title>
<path fill="none" stroke="#2e3436" stroke-width="2" d="M143.718,-352.86C124.851,-338.347 97.6977,-317.46 77.297,-301.767"/>
<polygon fill="#2e3436" stroke="#2e3436" stroke-width="2" points="71.1992,-297.076 79.2017,-298.974 74.4764,-298.966 77.4488,-301.253 77.1439,-301.649 76.8391,-302.046 73.8667,-299.759 75.0862,-304.324 71.1992,-297.076 71.1992,-297.076"/>
<text text-anchor="middle" x="134.5" y="-323.1" font-family="FreeSans" font-size="8.00" fill="#2e3436">STATUS</text>
</g>
<!-- N3 -->
<g id="node3" class="node"><title>N3</title>
<path fill="#ffffff" stroke="#2e3436" stroke-width="1.5" d="M145,-261C145,-261 187,-261 187,-261 193,-261 199,-267 199,-273 199,-273 199,-285 199,-285 199,-291 193,-297 187,-297 187,-297 145,-297 145,-297 139,-297 133,-291 133,-285 133,-285 133,-273 133,-273 133,-267 139,-261 145,-261"/>
<text text-anchor="start" x="141" y="-277.1" font-family="FreeSans" font-size="8.00" fill="#1c2021">name = &#39;Alice&#39;</text>
</g>
<!-- N0&#45;&gt;N3 -->
<g id="edge2" class="edge"><title>N0&#45;&gt;N3</title>
<path fill="none" stroke="#4e9a06" stroke-width="2" d="M166,-352.647C166,-339.076 166,-320.027 166,-304.84"/>
<polygon fill="#4e9a06" stroke="#4e9a06" stroke-width="2" points="166,-297.3 169.375,-304.8 166.5,-301.05 166.5,-304.8 166,-304.8 165.5,-304.8 165.5,-301.05 162.625,-304.8 166,-297.3 166,-297.3"/>
<text text-anchor="middle" x="208" y="-327.6" font-family="FreeSans" font-size="8.00" fill="#4e9a06">FRIEND</text>
<text text-anchor="start" x="166" y="-318.6" font-family="FreeSans" font-size="8.00" fill="#4e9a06">status = &#39;CONFIRMED&#39;</text>
</g>
<!-- N2 -->
<g id="node4" class="node"><title>N2</title>
<path fill="#ffffff" stroke="#2e3436" stroke-width="1.5" d="M12,-169C12,-169 74,-169 74,-169 80,-169 86,-175 86,-181 86,-181 86,-193 86,-193 86,-199 80,-205 74,-205 74,-205 12,-205 12,-205 6,-205 0,-199 0,-193 0,-193 0,-181 0,-181 0,-175 6,-169 12,-169"/>
<text text-anchor="start" x="8" y="-194.1" font-family="FreeSans" font-size="8.00" fill="#1c2021">name = &#39;bob_s2&#39;</text>
<text text-anchor="start" x="8" y="-185.1" font-family="FreeSans" font-size="8.00" fill="#1c2021">text = &#39;bobs status2&#39;</text>
<text text-anchor="start" x="8" y="-176.1" font-family="FreeSans" font-size="8.00" fill="#1c2021">date = 4</text>
</g>
<!-- N1&#45;&gt;N2 -->
<g id="edge3" class="edge"><title>N1&#45;&gt;N2</title>
<path fill="none" stroke="#a40000" stroke-width="2" d="M47.8431,-260.647C46.9384,-247.076 45.6685,-228.027 44.656,-212.84"/>
<polygon fill="#a40000" stroke="#a40000" stroke-width="2" points="44.1533,-205.3 48.0198,-212.558 44.9017,-209.008 45.1512,-212.75 44.6523,-212.783 44.1534,-212.816 43.9039,-209.075 41.2848,-213.008 44.1533,-205.3 44.1533,-205.3"/>
<text text-anchor="middle" x="58" y="-231.1" font-family="FreeSans" font-size="8.00" fill="#a40000">NEXT</text>
</g>
<!-- N4 -->
<g id="node5" class="node"><title>N4</title>
<path fill="#ffffff" stroke="#2e3436" stroke-width="1.5" d="M127,-169C127,-169 193,-169 193,-169 199,-169 205,-175 205,-181 205,-181 205,-193 205,-193 205,-199 199,-205 193,-205 193,-205 127,-205 127,-205 121,-205 115,-199 115,-193 115,-193 115,-181 115,-181 115,-175 121,-169 127,-169"/>
<text text-anchor="start" x="123" y="-194.1" font-family="FreeSans" font-size="8.00" fill="#1c2021">name = &#39;alice_s1&#39;</text>
<text text-anchor="start" x="123" y="-185.1" font-family="FreeSans" font-size="8.00" fill="#1c2021">text = &#39;Alices status1&#39;</text>
<text text-anchor="start" x="123" y="-176.1" font-family="FreeSans" font-size="8.00" fill="#1c2021">date = 2</text>
</g>
<!-- N3&#45;&gt;N4 -->
<g id="edge4" class="edge"><title>N3&#45;&gt;N4</title>
<path fill="none" stroke="#2e3436" stroke-width="2" d="M154.723,-260.743C151.583,-255.015 148.597,-248.448 147,-242 144.585,-232.251 146.287,-221.496 149.156,-212.168"/>
<polygon fill="#2e3436" stroke="#2e3436" stroke-width="2" points="151.651,-205.039 152.359,-213.232 150.884,-208.743 149.645,-212.283 149.173,-212.118 148.702,-211.953 149.94,-208.413 145.988,-211.003 151.651,-205.039 151.651,-205.039"/>
<text text-anchor="middle" x="163.5" y="-231.1" font-family="FreeSans" font-size="8.00" fill="#2e3436">STATUS</text>
</g>
<!-- N6 -->
<g id="node6" class="node"><title>N6</title>
<path fill="#ffffff" stroke="#2e3436" stroke-width="1.5" d="M267,-169C267,-169 305,-169 305,-169 311,-169 317,-175 317,-181 317,-181 317,-193 317,-193 317,-199 311,-205 305,-205 305,-205 267,-205 267,-205 261,-205 255,-199 255,-193 255,-193 255,-181 255,-181 255,-175 261,-169 267,-169"/>
<text text-anchor="start" x="263" y="-185.1" font-family="FreeSans" font-size="8.00" fill="#1c2021">name = &#39;Joe&#39;</text>
</g>
<!-- N3&#45;&gt;N6 -->
<g id="edge5" class="edge"><title>N3&#45;&gt;N6</title>
<path fill="none" stroke="#4e9a06" stroke-width="2" d="M178.436,-260.869C187.386,-249.398 200.261,-234.529 214,-224 224.196,-216.186 236.353,-209.342 247.748,-203.778"/>
<polygon fill="#4e9a06" stroke="#4e9a06" stroke-width="2" points="254.721,-200.483 249.382,-206.739 251.544,-202.538 248.154,-204.14 247.94,-203.688 247.726,-203.236 251.117,-201.633 246.498,-200.637 254.721,-200.483 254.721,-200.483"/>
<text text-anchor="middle" x="249" y="-235.6" font-family="FreeSans" font-size="8.00" fill="#4e9a06">FRIEND</text>
<text text-anchor="start" x="214" y="-226.6" font-family="FreeSans" font-size="8.00" fill="#4e9a06">status = &#39;PENDING&#39;</text>
</g>
<!-- N5 -->
<g id="node7" class="node"><title>N5</title>
<path fill="#ffffff" stroke="#2e3436" stroke-width="1.5" d="M127,-85C127,-85 193,-85 193,-85 199,-85 205,-91 205,-97 205,-97 205,-109 205,-109 205,-115 199,-121 193,-121 193,-121 127,-121 127,-121 121,-121 115,-115 115,-109 115,-109 115,-97 115,-97 115,-91 121,-85 127,-85"/>
<text text-anchor="start" x="123" y="-110.1" font-family="FreeSans" font-size="8.00" fill="#1c2021">name = &#39;alice_s2&#39;</text>
<text text-anchor="start" x="123" y="-101.1" font-family="FreeSans" font-size="8.00" fill="#1c2021">text = &#39;Alices status2&#39;</text>
<text text-anchor="start" x="123" y="-92.1" font-family="FreeSans" font-size="8.00" fill="#1c2021">date = 5</text>
</g>
<!-- N4&#45;&gt;N5 -->
<g id="edge6" class="edge"><title>N4&#45;&gt;N5</title>
<path fill="none" stroke="#a40000" stroke-width="2" d="M160,-168.61C160,-157.008 160,-141.58 160,-128.71"/>
<polygon fill="#a40000" stroke="#a40000" stroke-width="2" points="160,-121.084 163.375,-128.584 160.5,-124.834 160.5,-128.584 160,-128.584 159.5,-128.584 159.5,-124.834 156.625,-128.584 160,-121.084 160,-121.084"/>
<text text-anchor="middle" x="171" y="-143.1" font-family="FreeSans" font-size="8.00" fill="#a40000">NEXT</text>
</g>
<!-- N6&#45;&gt;N0 -->
<g id="edge8" class="edge"><title>N6&#45;&gt;N0</title>
<path fill="none" stroke="#4e9a06" stroke-width="2" d="M287.956,-205.455C290.32,-235.796 290.459,-298.418 257,-334 243.354,-348.512 223.118,-357.283 205.192,-362.527"/>
<polygon fill="#4e9a06" stroke="#4e9a06" stroke-width="2" points="197.677,-364.565 204.032,-359.345 201.166,-363.101 204.785,-362.12 204.916,-362.602 205.047,-363.085 201.427,-364.066 205.799,-365.859 197.677,-364.565 197.677,-364.565"/>
<text text-anchor="middle" x="329" y="-281.6" font-family="FreeSans" font-size="8.00" fill="#4e9a06">FRIEND</text>
<text text-anchor="start" x="287" y="-272.6" font-family="FreeSans" font-size="8.00" fill="#4e9a06">status = &#39;CONFIRMED&#39;</text>
</g>
<!-- N7 -->
<g id="node8" class="node"><title>N7</title>
<path fill="#ffffff" stroke="#2e3436" stroke-width="1.5" d="M256.5,-85C256.5,-85 315.5,-85 315.5,-85 321.5,-85 327.5,-91 327.5,-97 327.5,-97 327.5,-109 327.5,-109 327.5,-115 321.5,-121 315.5,-121 315.5,-121 256.5,-121 256.5,-121 250.5,-121 244.5,-115 244.5,-109 244.5,-109 244.5,-97 244.5,-97 244.5,-91 250.5,-85 256.5,-85"/>
<text text-anchor="start" x="252.5" y="-110.1" font-family="FreeSans" font-size="8.00" fill="#1c2021">name = &#39;joe_s1&#39;</text>
<text text-anchor="start" x="252.5" y="-101.1" font-family="FreeSans" font-size="8.00" fill="#1c2021">text = &#39;Joe status1&#39;</text>
<text text-anchor="start" x="252.5" y="-92.1" font-family="FreeSans" font-size="8.00" fill="#1c2021">date = 3</text>
</g>
<!-- N6&#45;&gt;N7 -->
<g id="edge7" class="edge"><title>N6&#45;&gt;N7</title>
<path fill="none" stroke="#2e3436" stroke-width="2" d="M286,-168.61C286,-157.008 286,-141.58 286,-128.71"/>
<polygon fill="#2e3436" stroke="#2e3436" stroke-width="2" points="286,-121.084 289.375,-128.584 286.5,-124.834 286.5,-128.584 286,-128.584 285.5,-128.584 285.5,-124.834 282.625,-128.584 286,-121.084 286,-121.084"/>
<text text-anchor="middle" x="302.5" y="-143.1" font-family="FreeSans" font-size="8.00" fill="#2e3436">STATUS</text>
</g>
<!-- N8 -->
<g id="node9" class="node"><title>N8</title>
<path fill="#ffffff" stroke="#2e3436" stroke-width="1.5" d="M256.5,-1C256.5,-1 315.5,-1 315.5,-1 321.5,-1 327.5,-7 327.5,-13 327.5,-13 327.5,-25 327.5,-25 327.5,-31 321.5,-37 315.5,-37 315.5,-37 256.5,-37 256.5,-37 250.5,-37 244.5,-31 244.5,-25 244.5,-25 244.5,-13 244.5,-13 244.5,-7 250.5,-1 256.5,-1"/>
<text text-anchor="start" x="252.5" y="-26.1" font-family="FreeSans" font-size="8.00" fill="#1c2021">name = &#39;joe_s2&#39;</text>
<text text-anchor="start" x="252.5" y="-17.1" font-family="FreeSans" font-size="8.00" fill="#1c2021">text = &#39;Joe status2&#39;</text>
<text text-anchor="start" x="252.5" y="-8.1" font-family="FreeSans" font-size="8.00" fill="#1c2021">date = 6</text>
</g>
<!-- N7&#45;&gt;N8 -->
<g id="edge9" class="edge"><title>N7&#45;&gt;N8</title>
<path fill="none" stroke="#a40000" stroke-width="2" d="M286,-84.6099C286,-73.0081 286,-57.5802 286,-44.7099"/>
<polygon fill="#a40000" stroke="#a40000" stroke-width="2" points="286,-37.0838 289.375,-44.5838 286.5,-40.8338 286.5,-44.5838 286,-44.5838 285.5,-44.5838 285.5,-40.8338 282.625,-44.5839 286,-37.0838 286,-37.0838"/>
<text text-anchor="middle" x="297" y="-59.1" font-family="FreeSans" font-size="8.00" fill="#a40000">NEXT</text>
</g>
</g>
</svg>
