<?xml version="1.0" encoding="UTF-8" standalone="no"?>
<!DOCTYPE svg PUBLIC "-//W3C//DTD SVG 1.1//EN"
 "http://www.w3.org/Graphics/SVG/1.1/DTD/svg11.dtd">
<!-- Generated by graphviz version 2.38.0 (20140413.2041)
 -->
<!-- Title: g Pages: 1 -->
<svg width="370pt" height="537pt"
 viewBox="0.00 0.00 369.50 537.00" xmlns="http://www.w3.org/2000/svg" xmlns:xlink="http://www.w3.org/1999/xlink">
<g id="graph0" class="graph" transform="scale(1 1) rotate(0) translate(4 533)">
<title>g</title>
<polygon fill="white" stroke="none" points="-4,4 -4,-533 365.5,-533 365.5,4 -4,4"/>
<!-- N0 -->
<g id="node1" class="node"><title>N0</title>
<path fill="#ffffff" stroke="#2e3436" stroke-width="1.5" d="M170,-410.5C170,-410.5 205,-410.5 205,-410.5 211,-410.5 217,-416.5 217,-422.5 217,-422.5 217,-434.5 217,-434.5 217,-440.5 211,-446.5 205,-446.5 205,-446.5 170,-446.5 170,-446.5 164,-446.5 158,-440.5 158,-434.5 158,-434.5 158,-422.5 158,-422.5 158,-416.5 164,-410.5 170,-410.5"/>
<text text-anchor="start" x="166" y="-426.6" font-family="FreeSans" font-size="8.00" fill="#1c2021">name = &#39;Bill&#39;</text>
</g>
<!-- N2 -->
<g id="node2" class="node"><title>N2</title>
<path fill="#ffffff" stroke="#2e3436" stroke-width="1.5" d="M31,-328.5C31,-328.5 78,-328.5 78,-328.5 84,-328.5 90,-334.5 90,-340.5 90,-340.5 90,-352.5 90,-352.5 90,-358.5 84,-364.5 78,-364.5 78,-364.5 31,-364.5 31,-364.5 25,-364.5 19,-358.5 19,-352.5 19,-352.5 19,-340.5 19,-340.5 19,-334.5 25,-328.5 31,-328.5"/>
<text text-anchor="start" x="27" y="-344.6" font-family="FreeSans" font-size="8.00" fill="#1c2021">name = &#39;Bill_s1&#39;</text>
</g>
<!-- N0&#45;&gt;N2 -->
<g id="edge1" class="edge"><title>N0&#45;&gt;N2</title>
<path fill="none" stroke="#2e3436" stroke-width="2" d="M158.968,-410.338C138.632,-398.105 111.171,-381.588 89.5073,-368.557"/>
<polygon fill="#2e3436" stroke="#2e3436" stroke-width="2" points="82.9846,-364.634 91.1512,-365.607 86.4558,-366.138 89.6693,-368.071 89.4116,-368.499 89.1539,-368.928 85.9404,-366.995 87.672,-371.392 82.9846,-364.634 82.9846,-364.634"/>
<text text-anchor="middle" x="132" y="-385.6" font-family="FreeSans" font-size="8.00" fill="#2e3436">has</text>
</g>
<!-- N11 -->
<g id="node3" class="node"><title>N11</title>
<path fill="#ffffff" stroke="#2e3436" stroke-width="1.5" d="M168.5,-328.5C168.5,-328.5 206.5,-328.5 206.5,-328.5 212.5,-328.5 218.5,-334.5 218.5,-340.5 218.5,-340.5 218.5,-352.5 218.5,-352.5 218.5,-358.5 212.5,-364.5 206.5,-364.5 206.5,-364.5 168.5,-364.5 168.5,-364.5 162.5,-364.5 156.5,-358.5 156.5,-352.5 156.5,-352.5 156.5,-340.5 156.5,-340.5 156.5,-334.5 162.5,-328.5 168.5,-328.5"/>
<text text-anchor="start" x="164.5" y="-344.6" font-family="FreeSans" font-size="8.00" fill="#1c2021">name = &#39;Joe&#39;</text>
</g>
<!-- N0&#45;&gt;N11 -->
<g id="edge2" class="edge"><title>N0&#45;&gt;N11</title>
<path fill="none" stroke="#4e9a06" stroke-width="2" d="M187.5,-410.141C187.5,-399.058 187.5,-384.518 187.5,-372.236"/>
<polygon fill="#4e9a06" stroke="#4e9a06" stroke-width="2" points="187.5,-364.55 190.875,-372.05 188,-368.3 188,-372.05 187.5,-372.05 187,-372.05 187,-368.3 184.125,-372.05 187.5,-364.55 187.5,-364.55"/>
<text text-anchor="middle" x="209.5" y="-385.6" font-family="FreeSans" font-size="8.00" fill="#4e9a06">jane_knows</text>
</g>
<!-- N4 -->
<g id="node6" class="node"><title>N4</title>
<path fill="#ffffff" stroke="#2e3436" stroke-width="1.5" d="M12,-246.5C12,-246.5 59,-246.5 59,-246.5 65,-246.5 71,-252.5 71,-258.5 71,-258.5 71,-270.5 71,-270.5 71,-276.5 65,-282.5 59,-282.5 59,-282.5 12,-282.5 12,-282.5 6,-282.5 0,-276.5 0,-270.5 0,-270.5 0,-258.5 0,-258.5 0,-252.5 6,-246.5 12,-246.5"/>
<text text-anchor="start" x="8" y="-262.6" font-family="FreeSans" font-size="8.00" fill="#1c2021">name = &#39;Bill_s2&#39;</text>
</g>
<!-- N2&#45;&gt;N4 -->
<g id="edge4" class="edge"><title>N2&#45;&gt;N4</title>
<path fill="none" stroke="#a40000" stroke-width="2" d="M50.3773,-328.141C47.72,-316.953 44.2258,-302.24 41.2916,-289.886"/>
<polygon fill="#a40000" stroke="#a40000" stroke-width="2" points="39.5494,-282.55 44.5662,-289.067 40.9024,-286.083 41.769,-289.732 41.2825,-289.847 40.796,-289.963 39.9295,-286.314 37.9989,-290.627 39.5494,-282.55 39.5494,-282.55"/>
<text text-anchor="middle" x="54.5" y="-303.6" font-family="FreeSans" font-size="8.00" fill="#a40000">next</text>
</g>
<!-- N6 -->
<g id="node8" class="node"><title>N6</title>
<path fill="#ffffff" stroke="#2e3436" stroke-width="1.5" d="M112,-246.5C112,-246.5 163,-246.5 163,-246.5 169,-246.5 175,-252.5 175,-258.5 175,-258.5 175,-270.5 175,-270.5 175,-276.5 169,-282.5 163,-282.5 163,-282.5 112,-282.5 112,-282.5 106,-282.5 100,-276.5 100,-270.5 100,-270.5 100,-258.5 100,-258.5 100,-252.5 106,-246.5 112,-246.5"/>
<text text-anchor="start" x="108" y="-262.6" font-family="FreeSans" font-size="8.00" fill="#1c2021">name = &#39;Joe_s1&#39;</text>
</g>
<!-- N11&#45;&gt;N6 -->
<g id="edge11" class="edge"><title>N11&#45;&gt;N6</title>
<path fill="none" stroke="#2e3436" stroke-width="2" d="M176.651,-328.141C169.526,-316.742 160.115,-301.684 152.305,-289.189"/>
<polygon fill="#2e3436" stroke="#2e3436" stroke-width="2" points="148.156,-282.55 154.993,-287.121 150.568,-285.465 152.555,-288.645 152.131,-288.91 151.707,-289.175 149.72,-285.995 149.269,-290.699 148.156,-282.55 148.156,-282.55"/>
<text text-anchor="middle" x="171" y="-303.6" font-family="FreeSans" font-size="8.00" fill="#2e3436">has</text>
</g>
<!-- N7 -->
<g id="node10" class="node"><title>N7</title>
<path fill="#ffffff" stroke="#2e3436" stroke-width="1.5" d="M216,-246.5C216,-246.5 255,-246.5 255,-246.5 261,-246.5 267,-252.5 267,-258.5 267,-258.5 267,-270.5 267,-270.5 267,-276.5 261,-282.5 255,-282.5 255,-282.5 216,-282.5 216,-282.5 210,-282.5 204,-276.5 204,-270.5 204,-270.5 204,-258.5 204,-258.5 204,-252.5 210,-246.5 216,-246.5"/>
<text text-anchor="start" x="212" y="-262.6" font-family="FreeSans" font-size="8.00" fill="#1c2021">name = &#39;Bob&#39;</text>
</g>
<!-- N11&#45;&gt;N7 -->
<g id="edge12" class="edge"><title>N11&#45;&gt;N7</title>
<path fill="none" stroke="#4e9a06" stroke-width="2" d="M197.915,-328.141C204.755,-316.742 213.79,-301.684 221.287,-289.189"/>
<polygon fill="#4e9a06" stroke="#4e9a06" stroke-width="2" points="225.27,-282.55 224.305,-290.718 223.769,-286.023 221.84,-289.239 221.411,-288.981 220.982,-288.724 222.912,-285.508 218.517,-287.245 225.27,-282.55 225.27,-282.55"/>
<text text-anchor="middle" x="235.5" y="-303.6" font-family="FreeSans" font-size="8.00" fill="#4e9a06">jane_knows</text>
</g>
<!-- N1 -->
<g id="node4" class="node"><title>N1</title>
<path fill="#ffffff" stroke="#2e3436" stroke-width="1.5" d="M297.5,-82.5C297.5,-82.5 349.5,-82.5 349.5,-82.5 355.5,-82.5 361.5,-88.5 361.5,-94.5 361.5,-94.5 361.5,-106.5 361.5,-106.5 361.5,-112.5 355.5,-118.5 349.5,-118.5 349.5,-118.5 297.5,-118.5 297.5,-118.5 291.5,-118.5 285.5,-112.5 285.5,-106.5 285.5,-106.5 285.5,-94.5 285.5,-94.5 285.5,-88.5 291.5,-82.5 297.5,-82.5"/>
<text text-anchor="start" x="293.5" y="-98.6" font-family="FreeSans" font-size="8.00" fill="#1c2021">name = &#39;Ted_s1&#39;</text>
</g>
<!-- N3 -->
<g id="node5" class="node"><title>N3</title>
<path fill="#ffffff" stroke="#2e3436" stroke-width="1.5" d="M297.5,-0.5C297.5,-0.5 349.5,-0.5 349.5,-0.5 355.5,-0.5 361.5,-6.5 361.5,-12.5 361.5,-12.5 361.5,-24.5 361.5,-24.5 361.5,-30.5 355.5,-36.5 349.5,-36.5 349.5,-36.5 297.5,-36.5 297.5,-36.5 291.5,-36.5 285.5,-30.5 285.5,-24.5 285.5,-24.5 285.5,-12.5 285.5,-12.5 285.5,-6.5 291.5,-0.5 297.5,-0.5"/>
<text text-anchor="start" x="293.5" y="-16.6" font-family="FreeSans" font-size="8.00" fill="#1c2021">name = &#39;Ted_s2&#39;</text>
</g>
<!-- N1&#45;&gt;N3 -->
<g id="edge3" class="edge"><title>N1&#45;&gt;N3</title>
<path fill="none" stroke="#a40000" stroke-width="2" d="M323.5,-82.1412C323.5,-71.0583 323.5,-56.5177 323.5,-44.2358"/>
<polygon fill="#a40000" stroke="#a40000" stroke-width="2" points="323.5,-36.5501 326.875,-44.0501 324,-40.3001 324,-44.0501 323.5,-44.0501 323,-44.0501 323,-40.3001 320.125,-44.0501 323.5,-36.5501 323.5,-36.5501"/>
<text text-anchor="middle" x="331.5" y="-57.6" font-family="FreeSans" font-size="8.00" fill="#a40000">next</text>
</g>
<!-- N5 -->
<g id="node7" class="node"><title>N5</title>
<path fill="#ffffff" stroke="#2e3436" stroke-width="1.5" d="M166,-492.5C166,-492.5 209,-492.5 209,-492.5 215,-492.5 221,-498.5 221,-504.5 221,-504.5 221,-516.5 221,-516.5 221,-522.5 215,-528.5 209,-528.5 209,-528.5 166,-528.5 166,-528.5 160,-528.5 154,-522.5 154,-516.5 154,-516.5 154,-504.5 154,-504.5 154,-498.5 160,-492.5 166,-492.5"/>
<text text-anchor="start" x="162" y="-508.6" font-family="FreeSans" font-size="8.00" fill="#1c2021">name = &#39;Jane&#39;</text>
</g>
<!-- N5&#45;&gt;N0 -->
<g id="edge5" class="edge"><title>N5&#45;&gt;N0</title>
<path fill="none" stroke="#4e9a06" stroke-width="2" d="M187.5,-492.141C187.5,-481.058 187.5,-466.518 187.5,-454.236"/>
<polygon fill="#4e9a06" stroke="#4e9a06" stroke-width="2" points="187.5,-446.55 190.875,-454.05 188,-450.3 188,-454.05 187.5,-454.05 187,-454.05 187,-450.3 184.125,-454.05 187.5,-446.55 187.5,-446.55"/>
<text text-anchor="middle" x="209.5" y="-467.6" font-family="FreeSans" font-size="8.00" fill="#4e9a06">jane_knows</text>
</g>
<!-- N9 -->
<g id="node9" class="node"><title>N9</title>
<path fill="#ffffff" stroke="#2e3436" stroke-width="1.5" d="M89,-164.5C89,-164.5 140,-164.5 140,-164.5 146,-164.5 152,-170.5 152,-176.5 152,-176.5 152,-188.5 152,-188.5 152,-194.5 146,-200.5 140,-200.5 140,-200.5 89,-200.5 89,-200.5 83,-200.5 77,-194.5 77,-188.5 77,-188.5 77,-176.5 77,-176.5 77,-170.5 83,-164.5 89,-164.5"/>
<text text-anchor="start" x="85" y="-180.6" font-family="FreeSans" font-size="8.00" fill="#1c2021">name = &#39;Joe_s2&#39;</text>
</g>
<!-- N6&#45;&gt;N9 -->
<g id="edge6" class="edge"><title>N6&#45;&gt;N9</title>
<path fill="none" stroke="#a40000" stroke-width="2" d="M132.509,-246.141C129.293,-234.953 125.063,-220.24 121.511,-207.886"/>
<polygon fill="#a40000" stroke="#a40000" stroke-width="2" points="119.402,-200.55 124.718,-206.826 120.919,-204.016 121.955,-207.62 121.474,-207.758 120.994,-207.896 119.958,-204.292 118.231,-208.691 119.402,-200.55 119.402,-200.55"/>
<text text-anchor="middle" x="135.5" y="-221.6" font-family="FreeSans" font-size="8.00" fill="#a40000">next</text>
</g>
<!-- N10 -->
<g id="node11" class="node"><title>N10</title>
<path fill="#ffffff" stroke="#2e3436" stroke-width="1.5" d="M193.5,-164.5C193.5,-164.5 245.5,-164.5 245.5,-164.5 251.5,-164.5 257.5,-170.5 257.5,-176.5 257.5,-176.5 257.5,-188.5 257.5,-188.5 257.5,-194.5 251.5,-200.5 245.5,-200.5 245.5,-200.5 193.5,-200.5 193.5,-200.5 187.5,-200.5 181.5,-194.5 181.5,-188.5 181.5,-188.5 181.5,-176.5 181.5,-176.5 181.5,-170.5 187.5,-164.5 193.5,-164.5"/>
<text text-anchor="start" x="189.5" y="-180.6" font-family="FreeSans" font-size="8.00" fill="#1c2021">name = &#39;Bob_s1&#39;</text>
</g>
<!-- N7&#45;&gt;N10 -->
<g id="edge7" class="edge"><title>N7&#45;&gt;N10</title>
<path fill="none" stroke="#2e3436" stroke-width="2" d="M224.813,-246.434C221.838,-240.782 219.01,-234.318 217.5,-228 216.008,-221.759 215.694,-214.89 215.95,-208.454"/>
<polygon fill="#2e3436" stroke="#2e3436" stroke-width="2" points="216.534,-200.615 219.342,-208.345 216.754,-204.392 216.475,-208.131 215.976,-208.094 215.478,-208.057 215.756,-204.317 212.611,-207.843 216.534,-200.615 216.534,-200.615"/>
<text text-anchor="middle" x="224" y="-221.6" font-family="FreeSans" font-size="8.00" fill="#2e3436">has</text>
</g>
<!-- N8 -->
<g id="node12" class="node"><title>N8</title>
<path fill="#ffffff" stroke="#2e3436" stroke-width="1.5" d="M304,-164.5C304,-164.5 343,-164.5 343,-164.5 349,-164.5 355,-170.5 355,-176.5 355,-176.5 355,-188.5 355,-188.5 355,-194.5 349,-200.5 343,-200.5 343,-200.5 304,-200.5 304,-200.5 298,-200.5 292,-194.5 292,-188.5 292,-188.5 292,-176.5 292,-176.5 292,-170.5 298,-164.5 304,-164.5"/>
<text text-anchor="start" x="300" y="-180.6" font-family="FreeSans" font-size="8.00" fill="#1c2021">name = &#39;Ted&#39;</text>
</g>
<!-- N7&#45;&gt;N8 -->
<g id="edge8" class="edge"><title>N7&#45;&gt;N8</title>
<path fill="none" stroke="#204a87" stroke-width="2" d="M244.364,-246.107C249.438,-237.284 256.403,-226.811 264.5,-219 270.626,-213.09 277.908,-207.722 285.23,-203.05"/>
<polygon fill="#204a87" stroke="#204a87" stroke-width="2" points="291.933,-198.961 287.288,-205.748 288.992,-201.341 285.791,-203.294 285.531,-202.867 285.27,-202.44 288.471,-200.487 283.773,-199.986 291.933,-198.961 291.933,-198.961"/>
<text text-anchor="middle" x="285.5" y="-221.6" font-family="FreeSans" font-size="8.00" fill="#204a87">bob_knows</text>
</g>
<!-- N8&#45;&gt;N0 -->
<g id="edge10" class="edge"><title>N8&#45;&gt;N0</title>
<path fill="none" stroke="#204a87" stroke-width="2" d="M320.122,-200.664C311.916,-238.733 287.878,-331.638 238.5,-392 234.136,-397.335 228.773,-402.218 223.183,-406.543"/>
<polygon fill="#204a87" stroke="#204a87" stroke-width="2" points="217.063,-411.011 221.13,-403.863 219.797,-408.396 222.826,-406.184 223.121,-406.588 223.415,-406.992 220.387,-409.204 225.111,-409.314 217.063,-411.011 217.063,-411.011"/>
<text text-anchor="middle" x="310.5" y="-303.6" font-family="FreeSans" font-size="8.00" fill="#204a87">bob_knows</text>
</g>
<!-- N8&#45;&gt;N1 -->
<g id="edge9" class="edge"><title>N8&#45;&gt;N1</title>
<path fill="none" stroke="#2e3436" stroke-width="2" d="M323.5,-164.141C323.5,-153.058 323.5,-138.518 323.5,-126.236"/>
<polygon fill="#2e3436" stroke="#2e3436" stroke-width="2" points="323.5,-118.55 326.875,-126.05 324,-122.3 324,-126.05 323.5,-126.05 323,-126.05 323,-122.3 320.125,-126.05 323.5,-118.55 323.5,-118.55"/>
<text text-anchor="middle" x="330" y="-139.6" font-family="FreeSans" font-size="8.00" fill="#2e3436">has</text>
</g>
</g>
</svg>
