<?xml version="1.0" encoding="UTF-8" standalone="no"?>
<!DOCTYPE svg PUBLIC "-//W3C//DTD SVG 1.1//EN"
 "http://www.w3.org/Graphics/SVG/1.1/DTD/svg11.dtd">
<!-- Generated by graphviz version 2.36.0 (20140111.2315)
 -->
<!-- Title: g Pages: 1 -->
<svg width="408pt" height="382pt"
 viewBox="0.00 0.00 408.00 382.00" xmlns="http://www.w3.org/2000/svg" xmlns:xlink="http://www.w3.org/1999/xlink">
<g id="graph0" class="graph" transform="scale(1 1) rotate(0) translate(4 378)">
<title>g</title>
<polygon fill="white" stroke="none" points="-4,4 -4,-378 404,-378 404,4 -4,4"/>
<!-- root -->
<g id="node1" class="node"><title>root</title>
<path fill="#ffffff" stroke="#2e3436" stroke-width="1.5" d="M106,-337C106,-337 136,-337 136,-337 142,-337 148,-343 148,-349 148,-349 148,-361 148,-361 148,-367 142,-373 136,-373 136,-373 106,-373 106,-373 100,-373 94,-367 94,-361 94,-361 94,-349 94,-349 94,-343 100,-337 106,-337"/>
<text text-anchor="middle" x="121" y="-353.1" font-family="FreeSans" font-size="8.00" fill="#1c2021">Root</text>
</g>
<!-- Y10 -->
<g id="node2" class="node"><title>Y10</title>
<path fill="#ffffff" stroke="#2e3436" stroke-width="1.5" d="M50,-253C50,-253 80,-253 80,-253 86,-253 92,-259 92,-265 92,-265 92,-277 92,-277 92,-283 86,-289 80,-289 80,-289 50,-289 50,-289 44,-289 38,-283 38,-277 38,-277 38,-265 38,-265 38,-259 44,-253 50,-253"/>
<text text-anchor="middle" x="65" y="-269.1" font-family="FreeSans" font-size="8.00" fill="#1c2021">Year 2010</text>
</g>
<!-- root&#45;&gt;Y10 -->
<g id="edge1" class="edge"><title>root&#45;&gt;Y10</title>
<path fill="none" stroke="greenyellow" stroke-width="3" d="M109.124,-336.61C100.976,-324.68 90.0661,-308.704 81.1331,-295.623"/>
<polygon fill="greenyellow" stroke="greenyellow" stroke-width="3" points="76.667,-289.084 83.6839,-293.374 79.6077,-291.617 81.7226,-294.713 80.8968,-295.277 80.071,-295.841 77.9561,-292.745 78.1097,-297.181 76.667,-289.084 76.667,-289.084"/>
<text text-anchor="middle" x="106.5" y="-311.1" font-family="FreeSans" font-size="8.00" fill="#1c2021">2010</text>
</g>
<!-- Y11 -->
<g id="node3" class="node"><title>Y11</title>
<path fill="#ffffff" stroke="#2e3436" stroke-width="1.5" d="M167,-253C167,-253 197,-253 197,-253 203,-253 209,-259 209,-265 209,-265 209,-277 209,-277 209,-283 203,-289 197,-289 197,-289 167,-289 167,-289 161,-289 155,-283 155,-277 155,-277 155,-265 155,-265 155,-259 161,-253 167,-253"/>
<text text-anchor="middle" x="182" y="-269.1" font-family="FreeSans" font-size="8.00" fill="#1c2021">Year 2011</text>
</g>
<!-- root&#45;&gt;Y11 -->
<g id="edge2" class="edge"><title>root&#45;&gt;Y11</title>
<path fill="none" stroke="darkgreen" stroke-width="3" d="M133.937,-336.61C142.893,-324.57 154.914,-308.41 164.694,-295.264"/>
<polygon fill="darkgreen" stroke="darkgreen" stroke-width="3" points="169.291,-289.084 167.523,-297.116 167.855,-292.69 165.617,-295.698 164.815,-295.101 164.012,-294.505 166.251,-291.496 162.107,-293.087 169.291,-289.084 169.291,-289.084"/>
<text text-anchor="middle" x="165.5" y="-311.1" font-family="FreeSans" font-size="8.00" fill="#1c2021">2011</text>
</g>
<!-- Y10M12 -->
<g id="node4" class="node"><title>Y10M12</title>
<path fill="#ffffff" stroke="#2e3436" stroke-width="1.5" d="M42,-169C42,-169 72,-169 72,-169 78,-169 84,-175 84,-181 84,-181 84,-193 84,-193 84,-199 78,-205 72,-205 72,-205 42,-205 42,-205 36,-205 30,-199 30,-193 30,-193 30,-181 30,-181 30,-175 36,-169 42,-169"/>
<text text-anchor="middle" x="57" y="-185.1" font-family="FreeSans" font-size="8.00" fill="#1c2021">Month 12</text>
</g>
<!-- Y10&#45;&gt;Y10M12 -->
<g id="edge3" class="edge"><title>Y10&#45;&gt;Y10M12</title>
<path fill="none" stroke="greenyellow" stroke-width="3" d="M63.3034,-252.61C62.1715,-241.008 60.6664,-225.58 59.4107,-212.71"/>
<polygon fill="greenyellow" stroke="greenyellow" stroke-width="3" points="58.6667,-205.084 62.7541,-212.221 60.0262,-208.719 60.3903,-212.451 59.3951,-212.548 58.3998,-212.646 58.0356,-208.913 56.036,-212.876 58.6667,-205.084 58.6667,-205.084"/>
<text text-anchor="middle" x="67" y="-227.1" font-family="FreeSans" font-size="8.00" fill="#1c2021">12</text>
</g>
<!-- Y11M01 -->
<g id="node5" class="node"><title>Y11M01</title>
<path fill="#ffffff" stroke="#2e3436" stroke-width="1.5" d="M173,-169C173,-169 203,-169 203,-169 209,-169 215,-175 215,-181 215,-181 215,-193 215,-193 215,-199 209,-205 203,-205 203,-205 173,-205 173,-205 167,-205 161,-199 161,-193 161,-193 161,-181 161,-181 161,-175 167,-169 173,-169"/>
<text text-anchor="middle" x="188" y="-185.1" font-family="FreeSans" font-size="8.00" fill="#1c2021">Month 01</text>
</g>
<!-- Y11&#45;&gt;Y11M01 -->
<g id="edge4" class="edge"><title>Y11&#45;&gt;Y11M01</title>
<path fill="none" stroke="darkgreen" stroke-width="3" d="M183.272,-252.61C184.121,-241.008 185.25,-225.58 186.192,-212.71"/>
<polygon fill="darkgreen" stroke="darkgreen" stroke-width="3" points="186.75,-205.084 189.569,-212.81 187.474,-208.897 187.2,-212.637 186.203,-212.564 185.205,-212.491 185.479,-208.751 182.837,-212.318 186.75,-205.084 186.75,-205.084"/>
<text text-anchor="middle" x="191" y="-227.1" font-family="FreeSans" font-size="8.00" fill="#1c2021">01</text>
</g>
<!-- Y10M12D31 -->
<g id="node6" class="node"><title>Y10M12D31</title>
<path fill="#ffffff" stroke="#2e3436" stroke-width="1.5" d="M22,-85C22,-85 52,-85 52,-85 58,-85 64,-91 64,-97 64,-97 64,-109 64,-109 64,-115 58,-121 52,-121 52,-121 22,-121 22,-121 16,-121 10,-115 10,-109 10,-109 10,-97 10,-97 10,-91 16,-85 22,-85"/>
<text text-anchor="middle" x="37" y="-101.1" font-family="FreeSans" font-size="8.00" fill="#1c2021">Day 31</text>
</g>
<!-- Y10M12&#45;&gt;Y10M12D31 -->
<g id="edge5" class="edge"><title>Y10M12&#45;&gt;Y10M12D31</title>
<path fill="none" stroke="greenyellow" stroke-width="3" d="M52.7585,-168.61C49.9288,-157.008 46.1659,-141.58 43.0268,-128.71"/>
<polygon fill="greenyellow" stroke="greenyellow" stroke-width="3" points="41.1668,-121.084 46.2229,-127.57 43.0269,-124.49 43.9156,-128.133 42.944,-128.37 41.9725,-128.607 41.0839,-124.964 39.6652,-129.17 41.1668,-121.084 41.1668,-121.084"/>
<text text-anchor="middle" x="54" y="-143.1" font-family="FreeSans" font-size="8.00" fill="#1c2021">31</text>
</g>
<!-- Y11M01D01 -->
<g id="node7" class="node"><title>Y11M01D01</title>
<path fill="#ffffff" stroke="#2e3436" stroke-width="1.5" d="M134,-85C134,-85 164,-85 164,-85 170,-85 176,-91 176,-97 176,-97 176,-109 176,-109 176,-115 170,-121 164,-121 164,-121 134,-121 134,-121 128,-121 122,-115 122,-109 122,-109 122,-97 122,-97 122,-91 128,-85 134,-85"/>
<text text-anchor="middle" x="149" y="-101.1" font-family="FreeSans" font-size="8.00" fill="#1c2021">Day 01</text>
</g>
<!-- Y11M01&#45;&gt;Y11M01D01 -->
<g id="edge6" class="edge"><title>Y11M01&#45;&gt;Y11M01D01</title>
<path fill="none" stroke="#2e3436" stroke-width="2" d="M179.729,-168.61C174.107,-156.789 166.596,-140.997 160.407,-127.984"/>
<polygon fill="#2e3436" stroke="#2e3436" stroke-width="2" points="157.125,-121.084 163.394,-126.407 159.187,-124.256 160.798,-127.642 160.347,-127.857 159.895,-128.072 158.284,-124.685 157.299,-129.306 157.125,-121.084 157.125,-121.084"/>
<text text-anchor="middle" x="176" y="-143.1" font-family="FreeSans" font-size="8.00" fill="#1c2021">01</text>
</g>
<!-- Y11M01D02 -->
<g id="node8" class="node"><title>Y11M01D02</title>
<path fill="#ffffff" stroke="#2e3436" stroke-width="1.5" d="M246,-85C246,-85 276,-85 276,-85 282,-85 288,-91 288,-97 288,-97 288,-109 288,-109 288,-115 282,-121 276,-121 276,-121 246,-121 246,-121 240,-121 234,-115 234,-109 234,-109 234,-97 234,-97 234,-91 240,-85 246,-85"/>
<text text-anchor="middle" x="261" y="-101.1" font-family="FreeSans" font-size="8.00" fill="#1c2021">Day 02</text>
</g>
<!-- Y11M01&#45;&gt;Y11M01D02 -->
<g id="edge7" class="edge"><title>Y11M01&#45;&gt;Y11M01D02</title>
<path fill="none" stroke="#2e3436" stroke-width="2" d="M203.481,-168.61C214.297,-156.461 228.848,-140.116 240.608,-126.906"/>
<polygon fill="#2e3436" stroke="#2e3436" stroke-width="2" points="245.791,-121.084 243.325,-128.93 243.671,-124.217 241.178,-127.018 240.804,-126.686 240.431,-126.353 242.924,-123.552 238.283,-124.442 245.791,-121.084 245.791,-121.084"/>
<text text-anchor="middle" x="234" y="-143.1" font-family="FreeSans" font-size="8.00" fill="#1c2021">02</text>
</g>
<!-- Y11M01D03 -->
<g id="node9" class="node"><title>Y11M01D03</title>
<path fill="#ffffff" stroke="#2e3436" stroke-width="1.5" d="M358,-85C358,-85 388,-85 388,-85 394,-85 400,-91 400,-97 400,-97 400,-109 400,-109 400,-115 394,-121 388,-121 388,-121 358,-121 358,-121 352,-121 346,-115 346,-109 346,-109 346,-97 346,-97 346,-91 352,-85 358,-85"/>
<text text-anchor="middle" x="373" y="-101.1" font-family="FreeSans" font-size="8.00" fill="#1c2021">Day 03</text>
</g>
<!-- Y11M01&#45;&gt;Y11M01D03 -->
<g id="edge8" class="edge"><title>Y11M01&#45;&gt;Y11M01D03</title>
<path fill="none" stroke="darkgreen" stroke-width="3" d="M215.297,-173.901C248.046,-159.385 302.979,-135.036 338.599,-119.248"/>
<polygon fill="darkgreen" stroke="darkgreen" stroke-width="3" points="345.892,-116.015 340.403,-122.14 342.869,-118.449 339.441,-119.969 339.035,-119.055 338.63,-118.14 342.058,-116.621 337.668,-115.969 345.892,-116.015 345.892,-116.015"/>
<text text-anchor="middle" x="296" y="-143.1" font-family="FreeSans" font-size="8.00" fill="#1c2021">03</text>
</g>
<!-- Y10M12D31&#45;&gt;Y11M01D01 -->
<g id="edge9" class="edge"><title>Y10M12D31&#45;&gt;Y11M01D01</title>
<path fill="none" stroke="blue" stroke-width="3" d="M64.1121,-103C79.1337,-103 97.9742,-103 114.087,-103"/>
<polygon fill="blue" stroke="blue" stroke-width="3" points="121.749,-103 114.249,-106.375 117.999,-104 114.249,-104 114.249,-103 114.249,-102 117.999,-102 114.249,-99.6251 121.749,-103 121.749,-103"/>
<text text-anchor="middle" x="93" y="-108.6" font-family="FreeSans" font-size="8.00" fill="#1c2021">NEXT</text>
</g>
<!-- E1 -->
<g id="node10" class="node"><title>E1</title>
<path fill="#ffffff" stroke="#2e3436" stroke-width="2" d="M12,-1C12,-1 42,-1 42,-1 48,-1 54,-7 54,-13 54,-13 54,-25 54,-25 54,-31 48,-37 42,-37 42,-37 12,-37 12,-37 6,-37 0,-31 0,-25 0,-25 0,-13 0,-13 0,-7 6,-1 12,-1"/>
<text text-anchor="middle" x="27" y="-17.1" font-family="FreeSans" font-size="8.00" fill="#1c2021">Event1</text>
</g>
<!-- Y10M12D31&#45;&gt;E1 -->
<g id="edge12" class="edge"><title>Y10M12D31&#45;&gt;E1</title>
<path fill="none" stroke="red" stroke-width="3" d="M29.9841,-84.7065C27.9539,-78.8661 26.0131,-72.2429 25,-66 23.8956,-59.1945 23.7624,-51.7532 24.0714,-44.8771"/>
<polygon fill="red" stroke="red" stroke-width="3" points="24.6054,-37.1366 27.4561,-44.8512 25.3449,-40.9466 25.0867,-44.6877 24.0891,-44.6188 23.0915,-44.55 23.3496,-40.8089 20.7221,-44.3865 24.6054,-37.1366 24.6054,-37.1366"/>
<text text-anchor="middle" x="38.5" y="-59.1" font-family="FreeSans" font-size="8.00" fill="#1c2021">VALUE</text>
</g>
<!-- E2 -->
<g id="node11" class="node"><title>E2</title>
<path fill="#ffffff" stroke="#2e3436" stroke-width="2" d="M115,-1C115,-1 145,-1 145,-1 151,-1 157,-7 157,-13 157,-13 157,-25 157,-25 157,-31 151,-37 145,-37 145,-37 115,-37 115,-37 109,-37 103,-31 103,-25 103,-25 103,-13 103,-13 103,-7 109,-1 115,-1"/>
<text text-anchor="middle" x="130" y="-17.1" font-family="FreeSans" font-size="8.00" fill="#1c2021">Event2</text>
</g>
<!-- Y10M12D31&#45;&gt;E2 -->
<g id="edge13" class="edge"><title>Y10M12D31&#45;&gt;E2</title>
<path fill="none" stroke="red" stroke-width="3" d="M56.7229,-84.6099C70.75,-72.242 89.7084,-55.5259 104.827,-42.1954"/>
<polygon fill="red" stroke="red" stroke-width="3" points="110.624,-37.0838 107.231,-44.5755 108.473,-40.314 105.66,-42.7941 104.999,-42.044 104.337,-41.294 107.15,-38.8139 102.767,-39.5125 110.624,-37.0838 110.624,-37.0838"/>
<text text-anchor="middle" x="103.5" y="-59.1" font-family="FreeSans" font-size="8.00" fill="#1c2021">VALUE</text>
</g>
<!-- Y11M01D01&#45;&gt;Y11M01D02 -->
<g id="edge10" class="edge"><title>Y11M01D01&#45;&gt;Y11M01D02</title>
<path fill="none" stroke="blue" stroke-width="3" d="M176.112,-103C191.134,-103 209.974,-103 226.087,-103"/>
<polygon fill="blue" stroke="blue" stroke-width="3" points="233.749,-103 226.249,-106.375 229.999,-104 226.249,-104 226.249,-103 226.249,-102 229.999,-102 226.249,-99.6251 233.749,-103 233.749,-103"/>
<text text-anchor="middle" x="205" y="-108.6" font-family="FreeSans" font-size="8.00" fill="#1c2021">NEXT</text>
</g>
<!-- Y11M01D01&#45;&gt;E2 -->
<g id="edge14" class="edge"><title>Y11M01D01&#45;&gt;E2</title>
<path fill="none" stroke="red" stroke-width="3" d="M144.971,-84.6099C142.282,-73.0081 138.708,-57.5802 135.725,-44.7099"/>
<polygon fill="red" stroke="red" stroke-width="3" points="133.958,-37.0838 138.939,-43.6284 135.779,-40.5113 136.626,-44.1645 135.651,-44.3903 134.677,-44.616 133.831,-40.9628 132.364,-45.1521 133.958,-37.0838 133.958,-37.0838"/>
<text text-anchor="middle" x="154.5" y="-59.1" font-family="FreeSans" font-size="8.00" fill="#1c2021">VALUE</text>
</g>
<!-- Y11M01D02&#45;&gt;Y11M01D03 -->
<g id="edge11" class="edge"><title>Y11M01D02&#45;&gt;Y11M01D03</title>
<path fill="none" stroke="blue" stroke-width="3" d="M288.112,-103C303.134,-103 321.974,-103 338.087,-103"/>
<polygon fill="blue" stroke="blue" stroke-width="3" points="345.749,-103 338.249,-106.375 341.999,-104 338.249,-104 338.249,-103 338.249,-102 341.999,-102 338.249,-99.6251 345.749,-103 345.749,-103"/>
<text text-anchor="middle" x="317" y="-108.6" font-family="FreeSans" font-size="8.00" fill="#1c2021">NEXT</text>
</g>
<!-- E3 -->
<g id="node12" class="node"><title>E3</title>
<path fill="#ffffff" stroke="#2e3436" stroke-width="2" d="M358,-1C358,-1 388,-1 388,-1 394,-1 400,-7 400,-13 400,-13 400,-25 400,-25 400,-31 394,-37 388,-37 388,-37 358,-37 358,-37 352,-37 346,-31 346,-25 346,-25 346,-13 346,-13 346,-7 352,-1 358,-1"/>
<text text-anchor="middle" x="373" y="-17.1" font-family="FreeSans" font-size="8.00" fill="#1c2021">Event3</text>
</g>
<!-- Y11M01D03&#45;&gt;E3 -->
<g id="edge15" class="edge"><title>Y11M01D03&#45;&gt;E3</title>
<path fill="none" stroke="red" stroke-width="3" d="M373,-84.6099C373,-73.0081 373,-57.5802 373,-44.7099"/>
<polygon fill="red" stroke="red" stroke-width="3" points="373,-37.0838 376.375,-44.5838 374,-40.8338 374,-44.5838 373,-44.5838 372,-44.5839 372,-40.8339 369.625,-44.5839 373,-37.0838 373,-37.0838"/>
<text text-anchor="middle" x="386.5" y="-59.1" font-family="FreeSans" font-size="8.00" fill="#1c2021">VALUE</text>
</g>
</g>
</svg>
