<?xml version="1.0" encoding="UTF-8" standalone="no"?>
<!DOCTYPE svg PUBLIC "-//W3C//DTD SVG 1.1//EN"
 "http://www.w3.org/Graphics/SVG/1.1/DTD/svg11.dtd">
<!-- Generated by graphviz version 2.36.0 (20140111.2315)
 -->
<!-- Title: g Pages: 1 -->
<svg width="175pt" height="230pt"
 viewBox="0.00 0.00 175.00 230.00" xmlns="http://www.w3.org/2000/svg" xmlns:xlink="http://www.w3.org/1999/xlink">
<g id="graph0" class="graph" transform="scale(1 1) rotate(0) translate(4 226)">
<title>g</title>
<polygon fill="white" stroke="none" points="-4,4 -4,-226 171,-226 171,4 -4,4"/>
<!-- N0 -->
<g id="node1" class="node"><title>N0</title>
<path fill="#ffffff" stroke="#2e3436" stroke-width="1.5" d="M12,-93C12,-93 52,-93 52,-93 58,-93 64,-99 64,-105 64,-105 64,-117 64,-117 64,-123 58,-129 52,-129 52,-129 12,-129 12,-129 6,-129 0,-123 0,-117 0,-117 0,-105 0,-105 0,-99 6,-93 12,-93"/>
<text text-anchor="start" x="8" y="-109.1" font-family="FreeSans" font-size="8.00" fill="#1c2021">name = &#39;Emil&#39;</text>
</g>
<!-- N2 -->
<g id="node2" class="node"><title>N2</title>
<path fill="#ffffff" stroke="#2e3436" stroke-width="1.5" d="M50,-1C50,-1 94,-1 94,-1 100,-1 106,-7 106,-13 106,-13 106,-25 106,-25 106,-31 100,-37 94,-37 94,-37 50,-37 50,-37 44,-37 38,-31 38,-25 38,-25 38,-13 38,-13 38,-7 44,-1 50,-1"/>
<text text-anchor="start" x="46" y="-21.6" font-family="FreeSans" font-size="8.00" fill="#1c2021">name = &#39;Peter&#39;</text>
<text text-anchor="start" x="46" y="-12.6" font-family="FreeSans" font-size="8.00" fill="#1c2021">age = 34</text>
</g>
<!-- N0&#45;&gt;N2 -->
<g id="edge1" class="edge"><title>N0&#45;&gt;N2</title>
<path fill="none" stroke="#2e3436" stroke-width="2" d="M34.7453,-92.8987C36.9002,-81.9888 40.4772,-67.744 46,-56 48.0239,-51.6963 50.5821,-47.3763 53.2996,-43.2979"/>
<polygon fill="#2e3436" stroke="#2e3436" stroke-width="2" points="57.6471,-37.1247 56.088,-45.2 55.8967,-40.4785 53.7374,-43.5445 53.3286,-43.2566 52.9198,-42.9687 55.0791,-39.9027 50.5692,-41.3133 57.6471,-37.1247 57.6471,-37.1247"/>
<text text-anchor="middle" x="61.5" y="-59.1" font-family="FreeSans" font-size="8.00" fill="#2e3436">KNOWS</text>
</g>
<!-- N1 -->
<g id="node3" class="node"><title>N1</title>
<path fill="#ffffff" stroke="#2e3436" stroke-width="1.5" d="M106,-185C106,-185 154,-185 154,-185 160,-185 166,-191 166,-197 166,-197 166,-209 166,-209 166,-215 160,-221 154,-221 154,-221 106,-221 106,-221 100,-221 94,-215 94,-209 94,-209 94,-197 94,-197 94,-191 100,-185 106,-185"/>
<text text-anchor="start" x="102" y="-201.1" font-family="FreeSans" font-size="8.00" fill="#1c2021">name = &#39;Stefan&#39;</text>
</g>
<!-- N3 -->
<g id="node4" class="node"><title>N3</title>
<path fill="#ffffff" stroke="#2e3436" stroke-width="1.5" d="M105,-85C105,-85 155,-85 155,-85 161,-85 167,-91 167,-97 167,-97 167,-125 167,-125 167,-131 161,-137 155,-137 155,-137 105,-137 105,-137 99,-137 93,-131 93,-125 93,-125 93,-97 93,-97 93,-91 99,-85 105,-85"/>
<text text-anchor="middle" x="130" y="-126.6" font-family="FreeSans" font-size="8.00" fill="#1c2021">Swedish</text>
<polyline fill="none" stroke="#2e3436" stroke-width="1.5" points="93,-120 167,-120 "/>
<text text-anchor="start" x="101" y="-109.6" font-family="FreeSans" font-size="8.00" fill="#1c2021">name = &#39;Andres&#39;</text>
<text text-anchor="start" x="101" y="-100.6" font-family="FreeSans" font-size="8.00" fill="#1c2021">age = 36</text>
<text text-anchor="start" x="101" y="-91.6" font-family="FreeSans" font-size="8.00" fill="#1c2021">hungry = true</text>
</g>
<!-- N1&#45;&gt;N3 -->
<g id="edge2" class="edge"><title>N1&#45;&gt;N3</title>
<path fill="none" stroke="#2e3436" stroke-width="2" d="M130,-184.647C130,-173.374 130,-158.323 130,-144.844"/>
<polygon fill="#2e3436" stroke="#2e3436" stroke-width="2" points="130,-137.13 133.375,-144.63 130.5,-140.88 130.5,-144.63 130,-144.63 129.5,-144.63 129.5,-140.88 126.625,-144.63 130,-137.13 130,-137.13"/>
<text text-anchor="middle" x="145.5" y="-159.1" font-family="FreeSans" font-size="8.00" fill="#2e3436">KNOWS</text>
</g>
<!-- N3&#45;&gt;N2 -->
<g id="edge3" class="edge"><title>N3&#45;&gt;N2</title>
<path fill="none" stroke="#2e3436" stroke-width="2" d="M113.844,-84.93C105.509,-71.9968 95.4006,-56.3113 87.2071,-43.5972"/>
<polygon fill="#2e3436" stroke="#2e3436" stroke-width="2" points="83.1165,-37.2497 90.0162,-41.7258 85.5682,-40.131 87.5996,-43.2832 87.1793,-43.554 86.759,-43.8249 84.7276,-40.6727 84.3424,-45.3823 83.1165,-37.2497 83.1165,-37.2497"/>
<text text-anchor="middle" x="116.5" y="-59.1" font-family="FreeSans" font-size="8.00" fill="#2e3436">KNOWS</text>
</g>
</g>
</svg>
