<?xml version="1.0" encoding="UTF-8" standalone="no"?>
<!DOCTYPE svg PUBLIC "-//W3C//DTD SVG 1.1//EN"
 "http://www.w3.org/Graphics/SVG/1.1/DTD/svg11.dtd">
<!-- Generated by graphviz version 2.38.0 (20140413.2041)
 -->
<!-- Title: g Pages: 1 -->
<svg width="379pt" height="391pt"
 viewBox="0.00 0.00 379.00 391.00" xmlns="http://www.w3.org/2000/svg" xmlns:xlink="http://www.w3.org/1999/xlink">
<g id="graph0" class="graph" transform="scale(1 1) rotate(0) translate(4 387)">
<title>g</title>
<polygon fill="white" stroke="none" points="-4,4 -4,-387 375,-387 375,4 -4,4"/>
<!-- N0 -->
<g id="node1" class="node"><title>N0</title>
<path fill="#ffffff" stroke="#2e3436" stroke-width="1.5" d="M146.5,-346.5C146.5,-346.5 185.5,-346.5 185.5,-346.5 191.5,-346.5 197.5,-352.5 197.5,-358.5 197.5,-358.5 197.5,-370.5 197.5,-370.5 197.5,-376.5 191.5,-382.5 185.5,-382.5 185.5,-382.5 146.5,-382.5 146.5,-382.5 140.5,-382.5 134.5,-376.5 134.5,-370.5 134.5,-370.5 134.5,-358.5 134.5,-358.5 134.5,-352.5 140.5,-346.5 146.5,-346.5"/>
<text text-anchor="start" x="142.5" y="-362.6" font-family="FreeSans" font-size="8.00" fill="#1c2021">name = &#39;Bob&#39;</text>
</g>
<!-- N1 -->
<g id="node2" class="node"><title>N1</title>
<path fill="#ffffff" stroke="#2e3436" stroke-width="1.5" d="M18,-255.5C18,-255.5 80,-255.5 80,-255.5 86,-255.5 92,-261.5 92,-267.5 92,-267.5 92,-279.5 92,-279.5 92,-285.5 86,-291.5 80,-291.5 80,-291.5 18,-291.5 18,-291.5 12,-291.5 6,-285.5 6,-279.5 6,-279.5 6,-267.5 6,-267.5 6,-261.5 12,-255.5 18,-255.5"/>
<text text-anchor="start" x="14" y="-280.6" font-family="FreeSans" font-size="8.00" fill="#1c2021">name = &#39;bob_s1&#39;</text>
<text text-anchor="start" x="14" y="-271.6" font-family="FreeSans" font-size="8.00" fill="#1c2021">text = &#39;bobs status1&#39;</text>
<text text-anchor="start" x="14" y="-262.6" font-family="FreeSans" font-size="8.00" fill="#1c2021">date = 1</text>
</g>
<!-- N0&#45;&gt;N1 -->
<g id="edge1" class="edge"><title>N0&#45;&gt;N1</title>
<path fill="none" stroke="#2e3436" stroke-width="2" d="M143.441,-346.34C124.665,-332.058 97.8251,-311.64 77.5536,-296.22"/>
<polygon fill="#2e3436" stroke="#2e3436" stroke-width="2" points="71.4895,-291.607 79.5021,-293.462 74.7769,-293.48 77.7615,-295.75 77.4588,-296.148 77.1561,-296.546 74.1714,-294.276 75.4155,-298.834 71.4895,-291.607 71.4895,-291.607"/>
<text text-anchor="middle" x="134.5" y="-317.1" font-family="FreeSans" font-size="8.00" fill="#2e3436">STATUS</text>
</g>
<!-- N3 -->
<g id="node3" class="node"><title>N3</title>
<path fill="#ffffff" stroke="#2e3436" stroke-width="1.5" d="M145,-255.5C145,-255.5 187,-255.5 187,-255.5 193,-255.5 199,-261.5 199,-267.5 199,-267.5 199,-279.5 199,-279.5 199,-285.5 193,-291.5 187,-291.5 187,-291.5 145,-291.5 145,-291.5 139,-291.5 133,-285.5 133,-279.5 133,-279.5 133,-267.5 133,-267.5 133,-261.5 139,-255.5 145,-255.5"/>
<text text-anchor="start" x="141" y="-271.6" font-family="FreeSans" font-size="8.00" fill="#1c2021">name = &#39;Alice&#39;</text>
</g>
<!-- N0&#45;&gt;N3 -->
<g id="edge2" class="edge"><title>N0&#45;&gt;N3</title>
<path fill="none" stroke="#4e9a06" stroke-width="2" d="M166,-346.34C166,-333.043 166,-314.427 166,-299.478"/>
<polygon fill="#4e9a06" stroke="#4e9a06" stroke-width="2" points="166,-291.607 169.375,-299.107 166.5,-295.357 166.5,-299.107 166,-299.107 165.5,-299.107 165.5,-295.357 162.625,-299.107 166,-291.607 166,-291.607"/>
<text text-anchor="middle" x="208" y="-321.6" font-family="FreeSans" font-size="8.00" fill="#4e9a06">FRIEND</text>
<text text-anchor="start" x="166" y="-312.6" font-family="FreeSans" font-size="8.00" fill="#4e9a06">status = &#39;CONFIRMED&#39;</text>
</g>
<!-- N2 -->
<g id="node4" class="node"><title>N2</title>
<path fill="#ffffff" stroke="#2e3436" stroke-width="1.5" d="M12,-164.5C12,-164.5 74,-164.5 74,-164.5 80,-164.5 86,-170.5 86,-176.5 86,-176.5 86,-188.5 86,-188.5 86,-194.5 80,-200.5 74,-200.5 74,-200.5 12,-200.5 12,-200.5 6,-200.5 0,-194.5 0,-188.5 0,-188.5 0,-176.5 0,-176.5 0,-170.5 6,-164.5 12,-164.5"/>
<text text-anchor="start" x="8" y="-189.6" font-family="FreeSans" font-size="8.00" fill="#1c2021">name = &#39;bob_s2&#39;</text>
<text text-anchor="start" x="8" y="-180.6" font-family="FreeSans" font-size="8.00" fill="#1c2021">text = &#39;bobs status2&#39;</text>
<text text-anchor="start" x="8" y="-171.6" font-family="FreeSans" font-size="8.00" fill="#1c2021">date = 4</text>
</g>
<!-- N1&#45;&gt;N2 -->
<g id="edge3" class="edge"><title>N1&#45;&gt;N2</title>
<path fill="none" stroke="#a40000" stroke-width="2" d="M47.8431,-255.34C46.9467,-242.043 45.6917,-223.427 44.6839,-208.478"/>
<polygon fill="#a40000" stroke="#a40000" stroke-width="2" points="44.1533,-200.607 48.0252,-207.863 44.9045,-204.315 45.1567,-208.057 44.6579,-208.09 44.159,-208.124 43.9067,-204.383 41.2905,-208.317 44.1533,-200.607 44.1533,-200.607"/>
<text text-anchor="middle" x="58" y="-226.1" font-family="FreeSans" font-size="8.00" fill="#a40000">NEXT</text>
</g>
<!-- N4 -->
<g id="node5" class="node"><title>N4</title>
<path fill="#ffffff" stroke="#2e3436" stroke-width="1.5" d="M127,-164.5C127,-164.5 193,-164.5 193,-164.5 199,-164.5 205,-170.5 205,-176.5 205,-176.5 205,-188.5 205,-188.5 205,-194.5 199,-200.5 193,-200.5 193,-200.5 127,-200.5 127,-200.5 121,-200.5 115,-194.5 115,-188.5 115,-188.5 115,-176.5 115,-176.5 115,-170.5 121,-164.5 127,-164.5"/>
<text text-anchor="start" x="123" y="-189.6" font-family="FreeSans" font-size="8.00" fill="#1c2021">name = &#39;alice_s1&#39;</text>
<text text-anchor="start" x="123" y="-180.6" font-family="FreeSans" font-size="8.00" fill="#1c2021">text = &#39;Alices status1&#39;</text>
<text text-anchor="start" x="123" y="-171.6" font-family="FreeSans" font-size="8.00" fill="#1c2021">date = 2</text>
</g>
<!-- N3&#45;&gt;N4 -->
<g id="edge4" class="edge"><title>N3&#45;&gt;N4</title>
<path fill="none" stroke="#2e3436" stroke-width="2" d="M154.524,-255.139C151.458,-249.577 148.564,-243.238 147,-237 144.639,-227.584 146.197,-217.218 148.937,-208.139"/>
<polygon fill="#2e3436" stroke="#2e3436" stroke-width="2" points="151.456,-200.864 152.191,-209.055 150.701,-204.571 149.474,-208.115 149.002,-207.951 148.529,-207.787 149.756,-204.244 145.812,-206.847 151.456,-200.864 151.456,-200.864"/>
<text text-anchor="middle" x="163.5" y="-226.1" font-family="FreeSans" font-size="8.00" fill="#2e3436">STATUS</text>
</g>
<!-- N6 -->
<g id="node6" class="node"><title>N6</title>
<path fill="#ffffff" stroke="#2e3436" stroke-width="1.5" d="M267,-164.5C267,-164.5 305,-164.5 305,-164.5 311,-164.5 317,-170.5 317,-176.5 317,-176.5 317,-188.5 317,-188.5 317,-194.5 311,-200.5 305,-200.5 305,-200.5 267,-200.5 267,-200.5 261,-200.5 255,-194.5 255,-188.5 255,-188.5 255,-176.5 255,-176.5 255,-170.5 261,-164.5 267,-164.5"/>
<text text-anchor="start" x="263" y="-180.6" font-family="FreeSans" font-size="8.00" fill="#1c2021">name = &#39;Joe&#39;</text>
</g>
<!-- N3&#45;&gt;N6 -->
<g id="edge5" class="edge"><title>N3&#45;&gt;N6</title>
<path fill="none" stroke="#4e9a06" stroke-width="2" d="M178.839,-255.014C187.776,-243.713 200.477,-229.254 214,-219 224.208,-211.259 236.368,-204.5 247.763,-199.016"/>
<polygon fill="#4e9a06" stroke="#4e9a06" stroke-width="2" points="254.734,-195.769 249.36,-201.995 251.546,-197.806 248.146,-199.389 247.935,-198.936 247.724,-198.483 251.123,-196.899 246.51,-195.876 254.734,-195.769 254.734,-195.769"/>
<text text-anchor="middle" x="249" y="-230.6" font-family="FreeSans" font-size="8.00" fill="#4e9a06">FRIEND</text>
<text text-anchor="start" x="214" y="-221.6" font-family="FreeSans" font-size="8.00" fill="#4e9a06">status = &#39;PENDING&#39;</text>
</g>
<!-- N5 -->
<g id="node7" class="node"><title>N5</title>
<path fill="#ffffff" stroke="#2e3436" stroke-width="1.5" d="M127,-82.5C127,-82.5 193,-82.5 193,-82.5 199,-82.5 205,-88.5 205,-94.5 205,-94.5 205,-106.5 205,-106.5 205,-112.5 199,-118.5 193,-118.5 193,-118.5 127,-118.5 127,-118.5 121,-118.5 115,-112.5 115,-106.5 115,-106.5 115,-94.5 115,-94.5 115,-88.5 121,-82.5 127,-82.5"/>
<text text-anchor="start" x="123" y="-107.6" font-family="FreeSans" font-size="8.00" fill="#1c2021">name = &#39;alice_s2&#39;</text>
<text text-anchor="start" x="123" y="-98.6" font-family="FreeSans" font-size="8.00" fill="#1c2021">text = &#39;Alices status2&#39;</text>
<text text-anchor="start" x="123" y="-89.6" font-family="FreeSans" font-size="8.00" fill="#1c2021">date = 5</text>
</g>
<!-- N4&#45;&gt;N5 -->
<g id="edge6" class="edge"><title>N4&#45;&gt;N5</title>
<path fill="none" stroke="#a40000" stroke-width="2" d="M160,-164.141C160,-153.058 160,-138.518 160,-126.236"/>
<polygon fill="#a40000" stroke="#a40000" stroke-width="2" points="160,-118.55 163.375,-126.05 160.5,-122.3 160.5,-126.05 160,-126.05 159.5,-126.05 159.5,-122.3 156.625,-126.05 160,-118.55 160,-118.55"/>
<text text-anchor="middle" x="171" y="-139.6" font-family="FreeSans" font-size="8.00" fill="#a40000">NEXT</text>
</g>
<!-- N6&#45;&gt;N0 -->
<g id="edge8" class="edge"><title>N6&#45;&gt;N0</title>
<path fill="none" stroke="#4e9a06" stroke-width="2" d="M287.917,-200.8C290.221,-230.867 290.268,-292.902 257,-328 243.321,-342.431 223.083,-351.09 205.164,-356.237"/>
<polygon fill="#4e9a06" stroke="#4e9a06" stroke-width="2" points="197.652,-358.234 204.033,-353.045 201.148,-356.787 204.772,-355.823 204.9,-356.307 205.029,-356.79 201.405,-357.753 205.767,-359.568 197.652,-358.234 197.652,-358.234"/>
<text text-anchor="middle" x="329" y="-276.1" font-family="FreeSans" font-size="8.00" fill="#4e9a06">FRIEND</text>
<text text-anchor="start" x="287" y="-267.1" font-family="FreeSans" font-size="8.00" fill="#4e9a06">status = &#39;CONFIRMED&#39;</text>
</g>
<!-- N7 -->
<g id="node8" class="node"><title>N7</title>
<path fill="#ffffff" stroke="#2e3436" stroke-width="1.5" d="M256.5,-82.5C256.5,-82.5 315.5,-82.5 315.5,-82.5 321.5,-82.5 327.5,-88.5 327.5,-94.5 327.5,-94.5 327.5,-106.5 327.5,-106.5 327.5,-112.5 321.5,-118.5 315.5,-118.5 315.5,-118.5 256.5,-118.5 256.5,-118.5 250.5,-118.5 244.5,-112.5 244.5,-106.5 244.5,-106.5 244.5,-94.5 244.5,-94.5 244.5,-88.5 250.5,-82.5 256.5,-82.5"/>
<text text-anchor="start" x="252.5" y="-107.6" font-family="FreeSans" font-size="8.00" fill="#1c2021">name = &#39;joe_s1&#39;</text>
<text text-anchor="start" x="252.5" y="-98.6" font-family="FreeSans" font-size="8.00" fill="#1c2021">text = &#39;Joe status1&#39;</text>
<text text-anchor="start" x="252.5" y="-89.6" font-family="FreeSans" font-size="8.00" fill="#1c2021">date = 3</text>
</g>
<!-- N6&#45;&gt;N7 -->
<g id="edge7" class="edge"><title>N6&#45;&gt;N7</title>
<path fill="none" stroke="#2e3436" stroke-width="2" d="M286,-164.141C286,-153.058 286,-138.518 286,-126.236"/>
<polygon fill="#2e3436" stroke="#2e3436" stroke-width="2" points="286,-118.55 289.375,-126.05 286.5,-122.3 286.5,-126.05 286,-126.05 285.5,-126.05 285.5,-122.3 282.625,-126.05 286,-118.55 286,-118.55"/>
<text text-anchor="middle" x="302.5" y="-139.6" font-family="FreeSans" font-size="8.00" fill="#2e3436">STATUS</text>
</g>
<!-- N8 -->
<g id="node9" class="node"><title>N8</title>
<path fill="#ffffff" stroke="#2e3436" stroke-width="1.5" d="M256.5,-0.5C256.5,-0.5 315.5,-0.5 315.5,-0.5 321.5,-0.5 327.5,-6.5 327.5,-12.5 327.5,-12.5 327.5,-24.5 327.5,-24.5 327.5,-30.5 321.5,-36.5 315.5,-36.5 315.5,-36.5 256.5,-36.5 256.5,-36.5 250.5,-36.5 244.5,-30.5 244.5,-24.5 244.5,-24.5 244.5,-12.5 244.5,-12.5 244.5,-6.5 250.5,-0.5 256.5,-0.5"/>
<text text-anchor="start" x="252.5" y="-25.6" font-family="FreeSans" font-size="8.00" fill="#1c2021">name = &#39;joe_s2&#39;</text>
<text text-anchor="start" x="252.5" y="-16.6" font-family="FreeSans" font-size="8.00" fill="#1c2021">text = &#39;Joe status2&#39;</text>
<text text-anchor="start" x="252.5" y="-7.6" font-family="FreeSans" font-size="8.00" fill="#1c2021">date = 6</text>
</g>
<!-- N7&#45;&gt;N8 -->
<g id="edge9" class="edge"><title>N7&#45;&gt;N8</title>
<path fill="none" stroke="#a40000" stroke-width="2" d="M286,-82.1412C286,-71.0583 286,-56.5177 286,-44.2358"/>
<polygon fill="#a40000" stroke="#a40000" stroke-width="2" points="286,-36.5501 289.375,-44.0501 286.5,-40.3001 286.5,-44.0501 286,-44.0501 285.5,-44.0501 285.5,-40.3001 282.625,-44.0501 286,-36.5501 286,-36.5501"/>
<text text-anchor="middle" x="297" y="-57.6" font-family="FreeSans" font-size="8.00" fill="#a40000">NEXT</text>
</g>
</g>
</svg>
