<?xml version="1.0" encoding="UTF-8" standalone="no"?>
<!DOCTYPE svg PUBLIC "-//W3C//DTD SVG 1.1//EN"
 "http://www.w3.org/Graphics/SVG/1.1/DTD/svg11.dtd">
<!-- Generated by graphviz version 2.36.0 (20140111.2315)
 -->
<!-- Title: g Pages: 1 -->
<svg width="178pt" height="146pt"
 viewBox="0.00 0.00 178.00 146.00" xmlns="http://www.w3.org/2000/svg" xmlns:xlink="http://www.w3.org/1999/xlink">
<g id="graph0" class="graph" transform="scale(1 1) rotate(0) translate(4 142)">
<title>g</title>
<polygon fill="white" stroke="none" points="-4,4 -4,-142 174,-142 174,4 -4,4"/>
<!-- N0 -->
<g id="node1" class="node"><title>N0</title>
<path fill="#ffffff" stroke="#2e3436" stroke-width="1.5" d="M11.5,-1C11.5,-1 60.5,-1 60.5,-1 66.5,-1 72.5,-7 72.5,-13 72.5,-13 72.5,-25 72.5,-25 72.5,-31 66.5,-37 60.5,-37 60.5,-37 11.5,-37 11.5,-37 5.5,-37 -0.5,-31 -0.5,-25 -0.5,-25 -0.5,-13 -0.5,-13 -0.5,-7 5.5,-1 11.5,-1"/>
<text text-anchor="start" x="7.5" y="-21.6" font-family="FreeSans" font-size="8.00" fill="#1c2021">name = &#39;Tobias&#39;</text>
<text text-anchor="start" x="7.5" y="-12.6" font-family="FreeSans" font-size="8.00" fill="#1c2021">age = 25</text>
</g>
<!-- N1 -->
<g id="node2" class="node"><title>N1</title>
<path fill="#ffffff" stroke="#2e3436" stroke-width="1.5" d="M114,-1C114,-1 158,-1 158,-1 164,-1 170,-7 170,-13 170,-13 170,-25 170,-25 170,-31 164,-37 158,-37 158,-37 114,-37 114,-37 108,-37 102,-31 102,-25 102,-25 102,-13 102,-13 102,-7 108,-1 114,-1"/>
<text text-anchor="start" x="110" y="-21.6" font-family="FreeSans" font-size="8.00" fill="#1c2021">name = &#39;Peter&#39;</text>
<text text-anchor="start" x="110" y="-12.6" font-family="FreeSans" font-size="8.00" fill="#1c2021">age = 34</text>
</g>
<!-- N2 -->
<g id="node3" class="node"><title>N2</title>
<path fill="#ffffff" stroke="#2e3436" stroke-width="1.5" d="M61,-85C61,-85 111,-85 111,-85 117,-85 123,-91 123,-97 123,-97 123,-125 123,-125 123,-131 117,-137 111,-137 111,-137 61,-137 61,-137 55,-137 49,-131 49,-125 49,-125 49,-97 49,-97 49,-91 55,-85 61,-85"/>
<text text-anchor="middle" x="86" y="-126.6" font-family="FreeSans" font-size="8.00" fill="#1c2021">Swedish</text>
<polyline fill="none" stroke="#2e3436" stroke-width="1.5" points="49,-120 123,-120 "/>
<text text-anchor="start" x="57" y="-109.6" font-family="FreeSans" font-size="8.00" fill="#1c2021">name = &#39;Andres&#39;</text>
<text text-anchor="start" x="57" y="-100.6" font-family="FreeSans" font-size="8.00" fill="#1c2021">age = 36</text>
<text text-anchor="start" x="57" y="-91.6" font-family="FreeSans" font-size="8.00" fill="#1c2021">belt = &#39;white&#39;</text>
</g>
<!-- N2&#45;&gt;N0 -->
<g id="edge2" class="edge"><title>N2&#45;&gt;N0</title>
<path fill="none" stroke="#2e3436" stroke-width="2" d="M72.0722,-84.93C64.953,-72.1155 56.3327,-56.5988 49.3044,-43.9479"/>
<polygon fill="#2e3436" stroke="#2e3436" stroke-width="2" points="45.5832,-37.2497 52.1758,-42.1669 47.8415,-40.285 49.6626,-43.5631 49.2256,-43.8059 48.7885,-44.0488 46.9673,-40.7707 46.2753,-45.445 45.5832,-37.2497 45.5832,-37.2497"/>
<text text-anchor="middle" x="76.5" y="-59.1" font-family="FreeSans" font-size="8.00" fill="#2e3436">KNOWS</text>
</g>
<!-- N2&#45;&gt;N1 -->
<g id="edge1" class="edge"><title>N2&#45;&gt;N1</title>
<path fill="none" stroke="#2e3436" stroke-width="2" d="M99.9278,-84.93C107.047,-72.1155 115.667,-56.5988 122.696,-43.9479"/>
<polygon fill="#2e3436" stroke="#2e3436" stroke-width="2" points="126.417,-37.2497 125.725,-45.445 125.033,-40.7707 123.212,-44.0488 122.774,-43.8059 122.337,-43.5631 124.159,-40.285 119.824,-42.1669 126.417,-37.2497 126.417,-37.2497"/>
<text text-anchor="middle" x="131.5" y="-59.1" font-family="FreeSans" font-size="8.00" fill="#2e3436">KNOWS</text>
</g>
</g>
</svg>
