<?xml version="1.0" encoding="UTF-8" standalone="no"?>
<!DOCTYPE svg PUBLIC "-//W3C//DTD SVG 1.1//EN"
 "http://www.w3.org/Graphics/SVG/1.1/DTD/svg11.dtd">
<!-- Generated by graphviz version 2.38.0 (20140413.2041)
 -->
<!-- Title: g Pages: 1 -->
<svg width="493pt" height="336pt"
 viewBox="0.00 0.00 492.50 336.00" xmlns="http://www.w3.org/2000/svg" xmlns:xlink="http://www.w3.org/1999/xlink">
<g id="graph0" class="graph" transform="scale(1 1) rotate(0) translate(4 332)">
<title>g</title>
<polygon fill="white" stroke="none" points="-4,4 -4,-332 488.5,-332 488.5,4 -4,4"/>
<!-- N0 -->
<g id="node1" class="node"><title>N0</title>
<path fill="#ffffff" stroke="#2e3436" stroke-width="1.5" d="M322,-291.5C322,-291.5 385,-291.5 385,-291.5 391,-291.5 397,-297.5 397,-303.5 397,-303.5 397,-315.5 397,-315.5 397,-321.5 391,-327.5 385,-327.5 385,-327.5 322,-327.5 322,-327.5 316,-327.5 310,-321.5 310,-315.5 310,-315.5 310,-303.5 310,-303.5 310,-297.5 316,-291.5 322,-291.5"/>
<text text-anchor="start" x="318" y="-307.6" font-family="FreeSans" font-size="8.00" fill="#1c2021">name = &#39;Clark Kent&#39;</text>
</g>
<!-- N2 -->
<g id="node2" class="node"><title>N2</title>
<path fill="#ffffff" stroke="#2e3436" stroke-width="1.5" d="M318,-200.5C318,-200.5 389,-200.5 389,-200.5 395,-200.5 401,-206.5 401,-212.5 401,-212.5 401,-224.5 401,-224.5 401,-230.5 395,-236.5 389,-236.5 389,-236.5 318,-236.5 318,-236.5 312,-236.5 306,-230.5 306,-224.5 306,-224.5 306,-212.5 306,-212.5 306,-206.5 312,-200.5 318,-200.5"/>
<text text-anchor="start" x="314" y="-216.6" font-family="FreeSans" font-size="8.00" fill="#1c2021">name = &#39;Jimmy Olsen&#39;</text>
</g>
<!-- N0&#45;&gt;N2 -->
<g id="edge1" class="edge"><title>N0&#45;&gt;N2</title>
<path fill="none" stroke="#2e3436" stroke-width="2" d="M353.5,-291.34C353.5,-278.043 353.5,-259.427 353.5,-244.478"/>
<polygon fill="#2e3436" stroke="#2e3436" stroke-width="2" points="353.5,-236.607 356.875,-244.107 354,-240.357 354,-244.107 353.5,-244.107 353,-244.107 353,-240.357 350.125,-244.107 353.5,-236.607 353.5,-236.607"/>
<text text-anchor="middle" x="372" y="-266.6" font-family="FreeSans" font-size="8.00" fill="#2e3436">KNOWS</text>
<text text-anchor="start" x="353.5" y="-257.6" font-family="FreeSans" font-size="8.00" fill="#2e3436">weight = 4</text>
</g>
<!-- N1 -->
<g id="node3" class="node"><title>N1</title>
<path fill="#ffffff" stroke="#2e3436" stroke-width="1.5" d="M181,-200.5C181,-200.5 240,-200.5 240,-200.5 246,-200.5 252,-206.5 252,-212.5 252,-212.5 252,-224.5 252,-224.5 252,-230.5 246,-236.5 240,-236.5 240,-236.5 181,-236.5 181,-236.5 175,-236.5 169,-230.5 169,-224.5 169,-224.5 169,-212.5 169,-212.5 169,-206.5 175,-200.5 181,-200.5"/>
<text text-anchor="start" x="177" y="-216.6" font-family="FreeSans" font-size="8.00" fill="#1c2021">name = &#39;Lois Lane&#39;</text>
</g>
<!-- N0&#45;&gt;N1 -->
<g id="edge2" class="edge"><title>N0&#45;&gt;N1</title>
<path fill="none" stroke="#2e3436" stroke-width="2" d="M325.928,-291.34C302.683,-276.873 269.325,-256.111 244.442,-240.625"/>
<polygon fill="#2e3436" stroke="#2e3436" stroke-width="2" points="237.987,-236.607 246.138,-237.705 241.435,-238.164 244.619,-240.146 244.355,-240.57 244.09,-240.995 240.907,-239.013 242.571,-243.436 237.987,-236.607 237.987,-236.607"/>
<text text-anchor="middle" x="314" y="-266.6" font-family="FreeSans" font-size="8.00" fill="#2e3436">KNOWS</text>
<text text-anchor="start" x="295.5" y="-257.6" font-family="FreeSans" font-size="8.00" fill="#2e3436">weight = 4</text>
</g>
<!-- N5 -->
<g id="node4" class="node"><title>N5</title>
<path fill="#ffffff" stroke="#2e3436" stroke-width="1.5" d="M326,-0.5C326,-0.5 393,-0.5 393,-0.5 399,-0.5 405,-6.5 405,-12.5 405,-12.5 405,-24.5 405,-24.5 405,-30.5 399,-36.5 393,-36.5 393,-36.5 326,-36.5 326,-36.5 320,-36.5 314,-30.5 314,-24.5 314,-24.5 314,-12.5 314,-12.5 314,-6.5 320,-0.5 326,-0.5"/>
<text text-anchor="start" x="322" y="-16.6" font-family="FreeSans" font-size="8.00" fill="#1c2021">name = &#39;Daily Planet&#39;</text>
</g>
<!-- N0&#45;&gt;N5 -->
<g id="edge3" class="edge"><title>N0&#45;&gt;N5</title>
<path fill="none" stroke="#4e9a06" stroke-width="2" d="M378.479,-291.393C385.192,-286.026 392.084,-279.728 397.5,-273 437.252,-223.618 432.754,-199.919 440.5,-137 442.509,-120.679 446.148,-115.444 440.5,-100 431.508,-75.4157 421.112,-73.4068 402.5,-55 397.948,-50.4988 392.879,-45.9544 387.864,-41.6894"/>
<polygon fill="#4e9a06" stroke="#4e9a06" stroke-width="2" points="382.035,-36.8304 389.957,-39.0401 385.235,-38.8474 388.116,-41.2485 387.796,-41.6326 387.475,-42.0167 384.595,-39.6156 385.635,-44.2251 382.035,-36.8304 382.035,-36.8304"/>
<text text-anchor="middle" x="461.5" y="-175.6" font-family="FreeSans" font-size="8.00" fill="#4e9a06">WORKS_AT</text>
<text text-anchor="start" x="438.5" y="-166.6" font-family="FreeSans" font-size="8.00" fill="#4e9a06">weight = 2</text>
<text text-anchor="start" x="438.5" y="-157.6" font-family="FreeSans" font-size="8.00" fill="#4e9a06">activity = 45</text>
</g>
<!-- N2&#45;&gt;N5 -->
<g id="edge8" class="edge"><title>N2&#45;&gt;N5</title>
<path fill="none" stroke="#4e9a06" stroke-width="2" d="M366.055,-200.25C369.438,-194.692 372.666,-188.328 374.5,-182 390.216,-127.771 390.626,-109.913 377.5,-55 376.58,-51.1502 375.17,-47.2459 373.536,-43.5042"/>
<polygon fill="#4e9a06" stroke="#4e9a06" stroke-width="2" points="370.187,-36.5663 376.487,-41.8535 372.268,-39.7261 373.898,-43.1033 373.448,-43.3206 372.997,-43.538 371.367,-40.1608 370.408,-44.7877 370.187,-36.5663 370.187,-36.5663"/>
<text text-anchor="middle" x="410.5" y="-125.6" font-family="FreeSans" font-size="8.00" fill="#4e9a06">WORKS_AT</text>
<text text-anchor="start" x="387.5" y="-116.6" font-family="FreeSans" font-size="8.00" fill="#4e9a06">weight = 2</text>
<text text-anchor="start" x="387.5" y="-107.6" font-family="FreeSans" font-size="8.00" fill="#4e9a06">activity = 10</text>
</g>
<!-- N3 -->
<g id="node6" class="node"><title>N3</title>
<path fill="#ffffff" stroke="#2e3436" stroke-width="1.5" d="M259,-100.5C259,-100.5 326,-100.5 326,-100.5 332,-100.5 338,-106.5 338,-112.5 338,-112.5 338,-124.5 338,-124.5 338,-130.5 332,-136.5 326,-136.5 326,-136.5 259,-136.5 259,-136.5 253,-136.5 247,-130.5 247,-124.5 247,-124.5 247,-112.5 247,-112.5 247,-106.5 253,-100.5 259,-100.5"/>
<text text-anchor="start" x="255" y="-116.6" font-family="FreeSans" font-size="8.00" fill="#1c2021">name = &#39;Perry White&#39;</text>
</g>
<!-- N2&#45;&gt;N3 -->
<g id="edge7" class="edge"><title>N2&#45;&gt;N3</title>
<path fill="none" stroke="#2e3436" stroke-width="2" d="M342.875,-200.43C333.051,-184.647 318.355,-161.037 307.368,-143.386"/>
<polygon fill="#2e3436" stroke="#2e3436" stroke-width="2" points="303.208,-136.703 310.037,-141.287 305.614,-139.623 307.596,-142.807 307.172,-143.071 306.747,-143.335 304.765,-140.151 304.306,-144.854 303.208,-136.703 303.208,-136.703"/>
<text text-anchor="middle" x="349" y="-171.1" font-family="FreeSans" font-size="8.00" fill="#2e3436">KNOWS</text>
<text text-anchor="start" x="330.5" y="-162.1" font-family="FreeSans" font-size="8.00" fill="#2e3436">weight = 4</text>
</g>
<!-- N1&#45;&gt;N5 -->
<g id="edge6" class="edge"><title>N1&#45;&gt;N5</title>
<path fill="none" stroke="#4e9a06" stroke-width="2" d="M203.764,-200.241C197.873,-184.16 189.763,-159.368 186.5,-137 180.829,-98.1266 186.926,-76.9607 219.5,-55 245.061,-37.7672 278.359,-28.8988 306.068,-24.3353"/>
<polygon fill="#4e9a06" stroke="#4e9a06" stroke-width="2" points="313.724,-23.159 306.824,-27.6339 310.094,-24.2227 306.387,-24.7923 306.311,-24.2981 306.235,-23.8039 309.942,-23.2343 305.799,-20.9622 313.724,-23.159 313.724,-23.159"/>
<text text-anchor="middle" x="209.5" y="-125.6" font-family="FreeSans" font-size="8.00" fill="#4e9a06">WORKS_AT</text>
<text text-anchor="start" x="186.5" y="-116.6" font-family="FreeSans" font-size="8.00" fill="#4e9a06">weight = 2</text>
<text text-anchor="start" x="186.5" y="-107.6" font-family="FreeSans" font-size="8.00" fill="#4e9a06">activity = 56</text>
</g>
<!-- N4 -->
<g id="node5" class="node"><title>N4</title>
<path fill="#ffffff" stroke="#2e3436" stroke-width="1.5" d="M12,-100.5C12,-100.5 101,-100.5 101,-100.5 107,-100.5 113,-106.5 113,-112.5 113,-112.5 113,-124.5 113,-124.5 113,-130.5 107,-136.5 101,-136.5 101,-136.5 12,-136.5 12,-136.5 6,-136.5 0,-130.5 0,-124.5 0,-124.5 0,-112.5 0,-112.5 0,-106.5 6,-100.5 12,-100.5"/>
<text text-anchor="start" x="8" y="-116.6" font-family="FreeSans" font-size="8.00" fill="#1c2021">name = &#39;Anderson Cooper&#39;</text>
</g>
<!-- N1&#45;&gt;N4 -->
<g id="edge4" class="edge"><title>N1&#45;&gt;N4</title>
<path fill="none" stroke="#2e3436" stroke-width="2" d="M168.79,-207.355C150.527,-201.7 129.447,-193.442 112.5,-182 97.0388,-171.561 83.0342,-155.928 72.8972,-142.909"/>
<polygon fill="#2e3436" stroke="#2e3436" stroke-width="2" points="68.2421,-136.762 75.4606,-140.704 70.9047,-139.45 73.1686,-142.439 72.77,-142.741 72.3714,-143.043 70.1075,-140.054 70.0795,-144.779 68.2421,-136.762 68.2421,-136.762"/>
<text text-anchor="middle" x="131" y="-171.1" font-family="FreeSans" font-size="8.00" fill="#2e3436">KNOWS</text>
<text text-anchor="start" x="112.5" y="-162.1" font-family="FreeSans" font-size="8.00" fill="#2e3436">weight = 4</text>
</g>
<!-- N1&#45;&gt;N3 -->
<g id="edge5" class="edge"><title>N1&#45;&gt;N3</title>
<path fill="none" stroke="#2e3436" stroke-width="2" d="M224.783,-200.43C238.106,-184.507 258.095,-160.618 272.905,-142.918"/>
<polygon fill="#2e3436" stroke="#2e3436" stroke-width="2" points="278.105,-136.703 275.881,-144.621 276.082,-139.9 273.676,-142.776 273.292,-142.456 272.909,-142.135 275.315,-139.259 270.704,-140.29 278.105,-136.703 278.105,-136.703"/>
<text text-anchor="middle" x="280" y="-171.1" font-family="FreeSans" font-size="8.00" fill="#2e3436">KNOWS</text>
<text text-anchor="start" x="261.5" y="-162.1" font-family="FreeSans" font-size="8.00" fill="#2e3436">weight = 4</text>
</g>
<!-- N6 -->
<g id="node7" class="node"><title>N6</title>
<path fill="#ffffff" stroke="#2e3436" stroke-width="1.5" d="M164,-0.5C164,-0.5 207,-0.5 207,-0.5 213,-0.5 219,-6.5 219,-12.5 219,-12.5 219,-24.5 219,-24.5 219,-30.5 213,-36.5 207,-36.5 207,-36.5 164,-36.5 164,-36.5 158,-36.5 152,-30.5 152,-24.5 152,-24.5 152,-12.5 152,-12.5 152,-6.5 158,-0.5 164,-0.5"/>
<text text-anchor="start" x="160" y="-16.6" font-family="FreeSans" font-size="8.00" fill="#1c2021">name = &#39;CNN&#39;</text>
</g>
<!-- N4&#45;&gt;N6 -->
<g id="edge11" class="edge"><title>N4&#45;&gt;N6</title>
<path fill="none" stroke="#4e9a06" stroke-width="2" d="M65.941,-100.432C74.2954,-86.6375 87.6102,-67.5188 103.5,-55 115.641,-45.4349 130.752,-37.9379 144.682,-32.3481"/>
<polygon fill="#4e9a06" stroke="#4e9a06" stroke-width="2" points="151.837,-29.598 146.048,-35.4391 148.516,-31.4101 145.016,-32.7555 144.837,-32.2888 144.657,-31.8221 148.158,-30.4767 143.626,-29.1385 151.837,-29.598 151.837,-29.598"/>
<text text-anchor="middle" x="126.5" y="-75.6" font-family="FreeSans" font-size="8.00" fill="#4e9a06">WORKS_AT</text>
<text text-anchor="start" x="103.5" y="-66.6" font-family="FreeSans" font-size="8.00" fill="#4e9a06">weight = 2</text>
<text text-anchor="start" x="103.5" y="-57.6" font-family="FreeSans" font-size="8.00" fill="#4e9a06">activity = 2</text>
</g>
<!-- N3&#45;&gt;N5 -->
<g id="edge10" class="edge"><title>N3&#45;&gt;N5</title>
<path fill="none" stroke="#4e9a06" stroke-width="2" d="M301.267,-100.235C308.079,-87.3656 318.093,-69.5715 328.5,-55 331.503,-50.7948 334.912,-46.5038 338.342,-42.4254"/>
<polygon fill="#4e9a06" stroke="#4e9a06" stroke-width="2" points="343.34,-36.6368 340.993,-44.5193 341.268,-39.802 338.817,-42.6405 338.439,-42.3138 338.06,-41.987 340.511,-39.1485 335.884,-40.1082 343.34,-36.6368 343.34,-36.6368"/>
<text text-anchor="middle" x="351.5" y="-75.6" font-family="FreeSans" font-size="8.00" fill="#4e9a06">WORKS_AT</text>
<text text-anchor="start" x="328.5" y="-66.6" font-family="FreeSans" font-size="8.00" fill="#4e9a06">weight = 2</text>
<text text-anchor="start" x="328.5" y="-57.6" font-family="FreeSans" font-size="8.00" fill="#4e9a06">activity = 6</text>
</g>
<!-- N3&#45;&gt;N6 -->
<g id="edge9" class="edge"><title>N3&#45;&gt;N6</title>
<path fill="none" stroke="#4e9a06" stroke-width="2" d="M273.862,-100.43C256.173,-84.2282 229.477,-59.7777 210.058,-41.9925"/>
<polygon fill="#4e9a06" stroke="#4e9a06" stroke-width="2" points="204.283,-36.7035 212.094,-39.2802 207.387,-38.8676 210.152,-41.4004 209.814,-41.7691 209.477,-42.1378 206.711,-39.605 207.535,-44.258 204.283,-36.7035 204.283,-36.7035"/>
<text text-anchor="middle" x="275.5" y="-75.6" font-family="FreeSans" font-size="8.00" fill="#4e9a06">WORKS_AT</text>
<text text-anchor="start" x="252.5" y="-66.6" font-family="FreeSans" font-size="8.00" fill="#4e9a06">weight = 2</text>
<text text-anchor="start" x="252.5" y="-57.6" font-family="FreeSans" font-size="8.00" fill="#4e9a06">activity = 3</text>
</g>
</g>
</svg>
