<?xml version="1.0" encoding="UTF-8" standalone="no"?>
<!DOCTYPE svg PUBLIC "-//W3C//DTD SVG 1.1//EN"
 "http://www.w3.org/Graphics/SVG/1.1/DTD/svg11.dtd">
<!-- Generated by graphviz version 2.36.0 (20140111.2315)
 -->
<!-- Title: g Pages: 1 -->
<svg width="399pt" height="214pt"
 viewBox="0.00 0.00 399.03 214.00" xmlns="http://www.w3.org/2000/svg" xmlns:xlink="http://www.w3.org/1999/xlink">
<g id="graph0" class="graph" transform="scale(1 1) rotate(0) translate(4 210)">
<title>g</title>
<polygon fill="white" stroke="none" points="-4,4 -4,-210 395.034,-210 395.034,4 -4,4"/>
<!-- N0 -->
<g id="node1" class="node"><title>N0</title>
<path fill="#ffffff" stroke="#2e3436" stroke-width="1.5" d="M166.034,-85C166.034,-85 208.034,-85 208.034,-85 214.034,-85 220.034,-91 220.034,-97 220.034,-97 220.034,-109 220.034,-109 220.034,-115 214.034,-121 208.034,-121 208.034,-121 166.034,-121 166.034,-121 160.034,-121 154.034,-115 154.034,-109 154.034,-109 154.034,-97 154.034,-97 154.034,-91 160.034,-85 166.034,-85"/>
<text text-anchor="start" x="162.034" y="-101.1" font-family="FreeSans" font-size="8.00" fill="#1c2021">name = &#39;Sara&#39;</text>
</g>
<!-- N3 -->
<g id="node2" class="node"><title>N3</title>
<path fill="#ffffff" stroke="#2e3436" stroke-width="1.5" d="M232.034,-1C232.034,-1 276.034,-1 276.034,-1 282.034,-1 288.034,-7 288.034,-13 288.034,-13 288.034,-25 288.034,-25 288.034,-31 282.034,-37 276.034,-37 276.034,-37 232.034,-37 232.034,-37 226.034,-37 220.034,-31 220.034,-25 220.034,-25 220.034,-13 220.034,-13 220.034,-7 226.034,-1 232.034,-1"/>
<text text-anchor="start" x="228.034" y="-17.1" font-family="FreeSans" font-size="8.00" fill="#1c2021">name = &#39;Bikes&#39;</text>
</g>
<!-- N0&#45;&gt;N3 -->
<g id="edge1" class="edge"><title>N0&#45;&gt;N3</title>
<path fill="none" stroke="#2e3436" stroke-width="2" d="M201.243,-84.6099C211.169,-72.4609 224.524,-56.1163 235.318,-42.9063"/>
<polygon fill="#2e3436" stroke="#2e3436" stroke-width="2" points="240.075,-37.0838 237.943,-45.0272 238.09,-40.3041 235.717,-43.2081 235.33,-42.8917 234.942,-42.5753 237.315,-39.6714 232.716,-40.7562 240.075,-37.0838 240.075,-37.0838"/>
<text text-anchor="middle" x="238.534" y="-59.1" font-family="FreeSans" font-size="8.00" fill="#2e3436">favorite</text>
</g>
<!-- N1 -->
<g id="node3" class="node"><title>N1</title>
<path fill="#ffffff" stroke="#2e3436" stroke-width="1.5" d="M27.5339,-1C27.5339,-1 68.5339,-1 68.5339,-1 74.5339,-1 80.5339,-7 80.5339,-13 80.5339,-13 80.5339,-25 80.5339,-25 80.5339,-31 74.5339,-37 68.5339,-37 68.5339,-37 27.5339,-37 27.5339,-37 21.5339,-37 15.5339,-31 15.5339,-25 15.5339,-25 15.5339,-13 15.5339,-13 15.5339,-7 21.5339,-1 27.5339,-1"/>
<text text-anchor="start" x="23.5339" y="-17.1" font-family="FreeSans" font-size="8.00" fill="#1c2021">name = &#39;Cats&#39;</text>
</g>
<!-- N0&#45;&gt;N1 -->
<g id="edge2" class="edge"><title>N0&#45;&gt;N1</title>
<path fill="none" stroke="#2e3436" stroke-width="2" d="M171.165,-84.6079C161.902,-75.2133 149.594,-63.9457 137.034,-56 121.887,-46.418 103.762,-38.534 87.8336,-32.6121"/>
<polygon fill="#2e3436" stroke="#2e3436" stroke-width="2" points="80.688,-30.0303 88.8886,-29.4048 84.3848,-30.8344 87.9116,-32.1087 87.7417,-32.579 87.5718,-33.0492 84.045,-31.7749 86.5948,-35.7531 80.688,-30.0303 80.688,-30.0303"/>
<text text-anchor="middle" x="164.534" y="-59.1" font-family="FreeSans" font-size="8.00" fill="#2e3436">favorite</text>
</g>
<!-- N2 -->
<g id="node4" class="node"><title>N2</title>
<path fill="#ffffff" stroke="#2e3436" stroke-width="1.5" d="M61.0339,-85C61.0339,-85 113.034,-85 113.034,-85 119.034,-85 125.034,-91 125.034,-97 125.034,-97 125.034,-109 125.034,-109 125.034,-115 119.034,-121 113.034,-121 113.034,-121 61.0339,-121 61.0339,-121 55.0339,-121 49.0339,-115 49.0339,-109 49.0339,-109 49.0339,-97 49.0339,-97 49.0339,-91 55.0339,-85 61.0339,-85"/>
<text text-anchor="start" x="57.0339" y="-101.1" font-family="FreeSans" font-size="8.00" fill="#1c2021">name = &#39;Derrick&#39;</text>
</g>
<!-- N2&#45;&gt;N3 -->
<g id="edge3" class="edge"><title>N2&#45;&gt;N3</title>
<path fill="none" stroke="#2e3436" stroke-width="2" d="M88.9206,-84.8962C90.8814,-75.1185 94.88,-63.3715 103.034,-56 132.646,-29.2289 178.544,-21.3854 211.968,-19.5289"/>
<polygon fill="#2e3436" stroke="#2e3436" stroke-width="2" points="219.751,-19.1911 212.404,-22.8882 216.026,-19.8533 212.279,-20.0159 212.258,-19.5164 212.236,-19.0168 215.983,-18.8542 212.111,-16.1445 219.751,-19.1911 219.751,-19.1911"/>
<text text-anchor="middle" x="116.534" y="-59.1" font-family="FreeSans" font-size="8.00" fill="#2e3436">favorite</text>
</g>
<!-- N2&#45;&gt;N1 -->
<g id="edge4" class="edge"><title>N2&#45;&gt;N1</title>
<path fill="none" stroke="#2e3436" stroke-width="2" d="M60.8241,-84.9008C54.8579,-79.6164 49.3156,-73.2487 46.0339,-66 43.0801,-59.4757 42.4388,-51.8838 42.8531,-44.7708"/>
<polygon fill="#2e3436" stroke="#2e3436" stroke-width="2" points="43.6576,-37.3135 46.2086,-45.1323 43.7524,-41.0955 43.3502,-44.8239 42.8531,-44.7703 42.356,-44.7167 42.7582,-40.9883 39.4976,-44.4083 43.6576,-37.3135 43.6576,-37.3135"/>
<text text-anchor="middle" x="59.5339" y="-59.1" font-family="FreeSans" font-size="8.00" fill="#2e3436">favorite</text>
</g>
<!-- N4 -->
<g id="node5" class="node"><title>N4</title>
<path fill="#ffffff" stroke="#2e3436" stroke-width="1.5" d="M346.034,-85C346.034,-85 380.034,-85 380.034,-85 386.034,-85 392.034,-91 392.034,-97 392.034,-97 392.034,-109 392.034,-109 392.034,-115 386.034,-121 380.034,-121 380.034,-121 346.034,-121 346.034,-121 340.034,-121 334.034,-115 334.034,-109 334.034,-109 334.034,-97 334.034,-97 334.034,-91 340.034,-85 346.034,-85"/>
<text text-anchor="start" x="342.034" y="-101.1" font-family="FreeSans" font-size="8.00" fill="#1c2021">name = &#39;Jill&#39;</text>
</g>
<!-- N4&#45;&gt;N3 -->
<g id="edge5" class="edge"><title>N4&#45;&gt;N3</title>
<path fill="none" stroke="#2e3436" stroke-width="2" d="M340.184,-84.8101C323.616,-72.3459 301.075,-55.3888 283.206,-41.946"/>
<polygon fill="#2e3436" stroke="#2e3436" stroke-width="2" points="276.854,-37.1673 284.876,-38.9791 280.151,-39.0221 283.148,-41.2765 282.847,-41.6761 282.547,-42.0756 279.55,-39.8212 280.818,-44.3731 276.854,-37.1673 276.854,-37.1673"/>
<text text-anchor="middle" x="329.534" y="-59.1" font-family="FreeSans" font-size="8.00" fill="#2e3436">favorite</text>
</g>
<!-- N5 -->
<g id="node6" class="node"><title>N5</title>
<path fill="#ffffff" stroke="#2e3436" stroke-width="1.5" d="M168.034,-169C168.034,-169 206.034,-169 206.034,-169 212.034,-169 218.034,-175 218.034,-181 218.034,-181 218.034,-193 218.034,-193 218.034,-199 212.034,-205 206.034,-205 206.034,-205 168.034,-205 168.034,-205 162.034,-205 156.034,-199 156.034,-193 156.034,-193 156.034,-181 156.034,-181 156.034,-175 162.034,-169 168.034,-169"/>
<text text-anchor="start" x="164.034" y="-185.1" font-family="FreeSans" font-size="8.00" fill="#1c2021">name = &#39;Joe&#39;</text>
</g>
<!-- N5&#45;&gt;N0 -->
<g id="edge8" class="edge"><title>N5&#45;&gt;N0</title>
<path fill="none" stroke="#4e9a06" stroke-width="2" d="M187.034,-168.61C187.034,-157.008 187.034,-141.58 187.034,-128.71"/>
<polygon fill="#4e9a06" stroke="#4e9a06" stroke-width="2" points="187.034,-121.084 190.409,-128.584 187.534,-124.834 187.534,-128.584 187.034,-128.584 186.534,-128.584 186.534,-124.834 183.659,-128.584 187.034,-121.084 187.034,-121.084"/>
<text text-anchor="middle" x="197.534" y="-143.1" font-family="FreeSans" font-size="8.00" fill="#4e9a06">friend</text>
</g>
<!-- N5&#45;&gt;N3 -->
<g id="edge6" class="edge"><title>N5&#45;&gt;N3</title>
<path fill="none" stroke="#2e3436" stroke-width="2" d="M202.39,-168.92C220.817,-146.991 250.325,-106.871 259.034,-66 260.478,-59.2235 260.381,-51.7917 259.618,-44.9154"/>
<polygon fill="#2e3436" stroke="#2e3436" stroke-width="2" points="258.469,-37.1708 262.908,-44.0941 259.514,-40.8068 260.065,-44.5162 259.57,-44.5896 259.075,-44.663 258.525,-40.9536 256.232,-45.0851 258.469,-37.1708 258.469,-37.1708"/>
<text text-anchor="middle" x="267.534" y="-101.1" font-family="FreeSans" font-size="8.00" fill="#2e3436">favorite</text>
</g>
<!-- N5&#45;&gt;N1 -->
<g id="edge7" class="edge"><title>N5&#45;&gt;N1</title>
<path fill="none" stroke="#2e3436" stroke-width="2" d="M155.86,-185.18C113.974,-182.197 40.8844,-169.962 7.03386,-122 -10.2682,-97.485 9.14504,-64.6105 26.7029,-42.8903"/>
<polygon fill="#2e3436" stroke="#2e3436" stroke-width="2" points="31.5739,-37.0761 29.3445,-44.9927 29.5489,-40.2718 27.1407,-43.1464 26.7574,-42.8253 26.3741,-42.5042 28.7824,-39.6296 24.1703,-40.6578 31.5739,-37.0761 31.5739,-37.0761"/>
<text text-anchor="middle" x="20.5339" y="-101.1" font-family="FreeSans" font-size="8.00" fill="#2e3436">favorite</text>
</g>
</g>
</svg>
