<?xml version="1.0" encoding="UTF-8" standalone="no"?>
<!DOCTYPE svg PUBLIC "-//W3C//DTD SVG 1.1//EN"
 "http://www.w3.org/Graphics/SVG/1.1/DTD/svg11.dtd">
<!-- Generated by graphviz version 2.38.0 (20140413.2041)
 -->
<!-- Title: g Pages: 1 -->
<svg width="445pt" height="209pt"
 viewBox="0.00 0.00 444.50 209.00" xmlns="http://www.w3.org/2000/svg" xmlns:xlink="http://www.w3.org/1999/xlink">
<g id="graph0" class="graph" transform="scale(1 1) rotate(0) translate(4 205)">
<title>g</title>
<polygon fill="white" stroke="none" points="-4,4 -4,-205 440.5,-205 440.5,4 -4,4"/>
<!-- N0 -->
<g id="node1" class="node"><title>N0</title>
<path fill="#ffffff" stroke="#2e3436" stroke-width="1.5" d="M85,-0.5C85,-0.5 138,-0.5 138,-0.5 144,-0.5 150,-6.5 150,-12.5 150,-12.5 150,-24.5 150,-24.5 150,-30.5 144,-36.5 138,-36.5 138,-36.5 85,-36.5 85,-36.5 79,-36.5 73,-30.5 73,-24.5 73,-24.5 73,-12.5 73,-12.5 73,-6.5 79,-0.5 85,-0.5"/>
<text text-anchor="start" x="81" y="-16.6" font-family="FreeSans" font-size="8.00" fill="#1c2021">name = &#39;Animals&#39;</text>
</g>
<!-- N1 -->
<g id="node2" class="node"><title>N1</title>
<path fill="#ffffff" stroke="#2e3436" stroke-width="1.5" d="M230.5,-0.5C230.5,-0.5 278.5,-0.5 278.5,-0.5 284.5,-0.5 290.5,-6.5 290.5,-12.5 290.5,-12.5 290.5,-24.5 290.5,-24.5 290.5,-30.5 284.5,-36.5 278.5,-36.5 278.5,-36.5 230.5,-36.5 230.5,-36.5 224.5,-36.5 218.5,-30.5 218.5,-24.5 218.5,-24.5 218.5,-12.5 218.5,-12.5 218.5,-6.5 224.5,-0.5 230.5,-0.5"/>
<text text-anchor="start" x="226.5" y="-16.6" font-family="FreeSans" font-size="8.00" fill="#1c2021">name = &#39;Hobby&#39;</text>
</g>
<!-- N2 -->
<g id="node3" class="node"><title>N2</title>
<path fill="#ffffff" stroke="#2e3436" stroke-width="1.5" d="M209.5,-82.5C209.5,-82.5 259.5,-82.5 259.5,-82.5 265.5,-82.5 271.5,-88.5 271.5,-94.5 271.5,-94.5 271.5,-106.5 271.5,-106.5 271.5,-112.5 265.5,-118.5 259.5,-118.5 259.5,-118.5 209.5,-118.5 209.5,-118.5 203.5,-118.5 197.5,-112.5 197.5,-106.5 197.5,-106.5 197.5,-94.5 197.5,-94.5 197.5,-88.5 203.5,-82.5 209.5,-82.5"/>
<text text-anchor="start" x="205.5" y="-98.6" font-family="FreeSans" font-size="8.00" fill="#1c2021">name = &#39;Surfing&#39;</text>
</g>
<!-- N2&#45;&gt;N1 -->
<g id="edge1" class="edge"><title>N2&#45;&gt;N1</title>
<path fill="none" stroke="#2e3436" stroke-width="2" d="M238.84,-82.1412C241.637,-70.9527 245.315,-56.2404 248.404,-43.8855"/>
<polygon fill="#2e3436" stroke="#2e3436" stroke-width="2" points="250.237,-36.5501 251.693,-44.6448 249.813,-40.3094 248.903,-43.9474 248.418,-43.8262 247.933,-43.7049 248.843,-40.0669 245.144,-43.0076 250.237,-36.5501 250.237,-36.5501"/>
<text text-anchor="middle" x="258" y="-57.6" font-family="FreeSans" font-size="8.00" fill="#2e3436">tagged</text>
</g>
<!-- N3 -->
<g id="node4" class="node"><title>N3</title>
<path fill="#ffffff" stroke="#2e3436" stroke-width="1.5" d="M266.5,-164.5C266.5,-164.5 308.5,-164.5 308.5,-164.5 314.5,-164.5 320.5,-170.5 320.5,-176.5 320.5,-176.5 320.5,-188.5 320.5,-188.5 320.5,-194.5 314.5,-200.5 308.5,-200.5 308.5,-200.5 266.5,-200.5 266.5,-200.5 260.5,-200.5 254.5,-194.5 254.5,-188.5 254.5,-188.5 254.5,-176.5 254.5,-176.5 254.5,-170.5 260.5,-164.5 266.5,-164.5"/>
<text text-anchor="start" x="262.5" y="-180.6" font-family="FreeSans" font-size="8.00" fill="#1c2021">name = &#39;Sara&#39;</text>
</g>
<!-- N6 -->
<g id="node5" class="node"><title>N6</title>
<path fill="#ffffff" stroke="#2e3436" stroke-width="1.5" d="M106.5,-82.5C106.5,-82.5 156.5,-82.5 156.5,-82.5 162.5,-82.5 168.5,-88.5 168.5,-94.5 168.5,-94.5 168.5,-106.5 168.5,-106.5 168.5,-112.5 162.5,-118.5 156.5,-118.5 156.5,-118.5 106.5,-118.5 106.5,-118.5 100.5,-118.5 94.5,-112.5 94.5,-106.5 94.5,-106.5 94.5,-94.5 94.5,-94.5 94.5,-88.5 100.5,-82.5 106.5,-82.5"/>
<text text-anchor="start" x="102.5" y="-98.6" font-family="FreeSans" font-size="8.00" fill="#1c2021">name = &#39;Horses&#39;</text>
</g>
<!-- N3&#45;&gt;N6 -->
<g id="edge2" class="edge"><title>N3&#45;&gt;N6</title>
<path fill="none" stroke="#4e9a06" stroke-width="2" d="M274.073,-164.164C266.091,-154.916 255.249,-144.026 243.5,-137 219.241,-122.491 209.43,-127.589 182.5,-119 180.41,-118.333 178.275,-117.642 176.121,-116.936"/>
<polygon fill="#4e9a06" stroke="#4e9a06" stroke-width="2" points="168.761,-114.495 176.942,-113.653 172.478,-115.201 176.037,-116.382 175.88,-116.856 175.723,-117.331 172.163,-116.15 174.817,-120.06 168.761,-114.495 168.761,-114.495"/>
<text text-anchor="middle" x="270" y="-139.6" font-family="FreeSans" font-size="8.00" fill="#4e9a06">favorite</text>
</g>
<!-- N7 -->
<g id="node6" class="node"><title>N7</title>
<path fill="#ffffff" stroke="#2e3436" stroke-width="1.5" d="M313.5,-82.5C313.5,-82.5 357.5,-82.5 357.5,-82.5 363.5,-82.5 369.5,-88.5 369.5,-94.5 369.5,-94.5 369.5,-106.5 369.5,-106.5 369.5,-112.5 363.5,-118.5 357.5,-118.5 357.5,-118.5 313.5,-118.5 313.5,-118.5 307.5,-118.5 301.5,-112.5 301.5,-106.5 301.5,-106.5 301.5,-94.5 301.5,-94.5 301.5,-88.5 307.5,-82.5 313.5,-82.5"/>
<text text-anchor="start" x="309.5" y="-98.6" font-family="FreeSans" font-size="8.00" fill="#1c2021">name = &#39;Bikes&#39;</text>
</g>
<!-- N3&#45;&gt;N7 -->
<g id="edge3" class="edge"><title>N3&#45;&gt;N7</title>
<path fill="none" stroke="#4e9a06" stroke-width="2" d="M297.915,-164.141C304.755,-152.742 313.79,-137.684 321.287,-125.189"/>
<polygon fill="#4e9a06" stroke="#4e9a06" stroke-width="2" points="325.27,-118.55 324.305,-126.718 323.769,-122.023 321.84,-125.239 321.411,-124.981 320.982,-124.724 322.912,-121.508 318.517,-123.245 325.27,-118.55 325.27,-118.55"/>
<text text-anchor="middle" x="327" y="-139.6" font-family="FreeSans" font-size="8.00" fill="#4e9a06">favorite</text>
</g>
<!-- N6&#45;&gt;N0 -->
<g id="edge6" class="edge"><title>N6&#45;&gt;N0</title>
<path fill="none" stroke="#2e3436" stroke-width="2" d="M127.16,-82.1412C124.363,-70.9527 120.685,-56.2404 117.596,-43.8855"/>
<polygon fill="#2e3436" stroke="#2e3436" stroke-width="2" points="115.763,-36.5501 120.856,-43.0076 117.157,-40.0669 118.067,-43.7049 117.582,-43.8262 117.097,-43.9474 116.187,-40.3094 114.307,-44.6448 115.763,-36.5501 115.763,-36.5501"/>
<text text-anchor="middle" x="135" y="-57.6" font-family="FreeSans" font-size="8.00" fill="#2e3436">tagged</text>
</g>
<!-- N7&#45;&gt;N1 -->
<g id="edge7" class="edge"><title>N7&#45;&gt;N1</title>
<path fill="none" stroke="#2e3436" stroke-width="2" d="M317.924,-82.1412C306.062,-70.425 290.286,-54.8446 277.437,-42.1535"/>
<polygon fill="#2e3436" stroke="#2e3436" stroke-width="2" points="271.763,-36.5501 279.471,-39.4191 274.783,-38.8295 277.451,-41.4646 277.099,-41.8204 276.748,-42.1761 274.08,-39.541 274.728,-44.2217 271.763,-36.5501 271.763,-36.5501"/>
<text text-anchor="middle" x="310" y="-57.6" font-family="FreeSans" font-size="8.00" fill="#2e3436">tagged</text>
</g>
<!-- N4 -->
<g id="node7" class="node"><title>N4</title>
<path fill="#ffffff" stroke="#2e3436" stroke-width="1.5" d="M12,-82.5C12,-82.5 53,-82.5 53,-82.5 59,-82.5 65,-88.5 65,-94.5 65,-94.5 65,-106.5 65,-106.5 65,-112.5 59,-118.5 53,-118.5 53,-118.5 12,-118.5 12,-118.5 6,-118.5 0,-112.5 0,-106.5 0,-106.5 0,-94.5 0,-94.5 0,-88.5 6,-82.5 12,-82.5"/>
<text text-anchor="start" x="8" y="-98.6" font-family="FreeSans" font-size="8.00" fill="#1c2021">name = &#39;Cats&#39;</text>
</g>
<!-- N4&#45;&gt;N0 -->
<g id="edge4" class="edge"><title>N4&#45;&gt;N0</title>
<path fill="none" stroke="#2e3436" stroke-width="2" d="M49.6418,-82.1412C61.2116,-70.425 76.5972,-54.8446 89.1296,-42.1535"/>
<polygon fill="#2e3436" stroke="#2e3436" stroke-width="2" points="94.663,-36.5501 91.7946,-44.2581 92.3839,-39.5697 89.7489,-42.238 89.3932,-41.8867 89.0374,-41.5354 91.6723,-38.8671 86.9917,-39.5152 94.663,-36.5501 94.663,-36.5501"/>
<text text-anchor="middle" x="87" y="-57.6" font-family="FreeSans" font-size="8.00" fill="#2e3436">tagged</text>
</g>
<!-- N5 -->
<g id="node8" class="node"><title>N5</title>
<path fill="#ffffff" stroke="#2e3436" stroke-width="1.5" d="M372.5,-164.5C372.5,-164.5 424.5,-164.5 424.5,-164.5 430.5,-164.5 436.5,-170.5 436.5,-176.5 436.5,-176.5 436.5,-188.5 436.5,-188.5 436.5,-194.5 430.5,-200.5 424.5,-200.5 424.5,-200.5 372.5,-200.5 372.5,-200.5 366.5,-200.5 360.5,-194.5 360.5,-188.5 360.5,-188.5 360.5,-176.5 360.5,-176.5 360.5,-170.5 366.5,-164.5 372.5,-164.5"/>
<text text-anchor="start" x="368.5" y="-180.6" font-family="FreeSans" font-size="8.00" fill="#1c2021">name = &#39;Derrick&#39;</text>
</g>
<!-- N5&#45;&gt;N7 -->
<g id="edge5" class="edge"><title>N5&#45;&gt;N7</title>
<path fill="none" stroke="#4e9a06" stroke-width="2" d="M384.83,-164.141C375.687,-152.531 363.555,-137.125 353.61,-124.497"/>
<polygon fill="#4e9a06" stroke="#4e9a06" stroke-width="2" points="348.927,-118.55 356.219,-122.354 351.64,-121.187 353.96,-124.133 353.567,-124.442 353.174,-124.752 350.854,-121.806 350.916,-126.53 348.927,-118.55 348.927,-118.55"/>
<text text-anchor="middle" x="383" y="-139.6" font-family="FreeSans" font-size="8.00" fill="#4e9a06">favorite</text>
</g>
<!-- N8 -->
<g id="node9" class="node"><title>N8</title>
<path fill="#ffffff" stroke="#2e3436" stroke-width="1.5" d="M104.5,-164.5C104.5,-164.5 142.5,-164.5 142.5,-164.5 148.5,-164.5 154.5,-170.5 154.5,-176.5 154.5,-176.5 154.5,-188.5 154.5,-188.5 154.5,-194.5 148.5,-200.5 142.5,-200.5 142.5,-200.5 104.5,-200.5 104.5,-200.5 98.5,-200.5 92.5,-194.5 92.5,-188.5 92.5,-188.5 92.5,-176.5 92.5,-176.5 92.5,-170.5 98.5,-164.5 104.5,-164.5"/>
<text text-anchor="start" x="100.5" y="-180.6" font-family="FreeSans" font-size="8.00" fill="#1c2021">name = &#39;Joe&#39;</text>
</g>
<!-- N8&#45;&gt;N2 -->
<g id="edge8" class="edge"><title>N8&#45;&gt;N2</title>
<path fill="none" stroke="#4e9a06" stroke-width="2" d="M131.709,-164.089C136.684,-155.045 143.761,-144.374 152.5,-137 158.874,-131.621 174.362,-124.497 190.181,-118.044"/>
<polygon fill="#4e9a06" stroke="#4e9a06" stroke-width="2" points="197.442,-115.134 191.735,-121.057 194.147,-116.993 190.666,-118.388 190.48,-117.924 190.294,-117.46 193.775,-116.065 189.224,-114.791 197.442,-115.134 197.442,-115.134"/>
<text text-anchor="middle" x="166" y="-139.6" font-family="FreeSans" font-size="8.00" fill="#4e9a06">favorite</text>
</g>
<!-- N8&#45;&gt;N6 -->
<g id="edge10" class="edge"><title>N8&#45;&gt;N6</title>
<path fill="none" stroke="#4e9a06" stroke-width="2" d="M100.368,-164.327C92.709,-156.453 87.1302,-146.721 91.5,-137 93.5974,-132.334 96.6446,-128.033 100.136,-124.154"/>
<polygon fill="#4e9a06" stroke="#4e9a06" stroke-width="2" points="105.509,-118.782 102.591,-126.472 103.211,-121.787 100.559,-124.438 100.205,-124.085 99.8518,-123.731 102.504,-121.08 97.8191,-121.698 105.509,-118.782 105.509,-118.782"/>
<text text-anchor="middle" x="105" y="-139.6" font-family="FreeSans" font-size="8.00" fill="#4e9a06">favorite</text>
</g>
<!-- N8&#45;&gt;N7 -->
<g id="edge9" class="edge"><title>N8&#45;&gt;N7</title>
<path fill="none" stroke="#4e9a06" stroke-width="2" d="M152.143,-164.425C168.495,-155.258 189.639,-144.363 209.5,-137 242.047,-124.933 252.184,-128.747 285.5,-119 288.348,-118.167 291.272,-117.266 294.209,-116.327"/>
<polygon fill="#4e9a06" stroke="#4e9a06" stroke-width="2" points="301.495,-113.933 295.423,-119.48 298.089,-115.579 294.526,-116.749 294.37,-116.274 294.214,-115.799 297.776,-114.629 293.316,-113.068 301.495,-113.933 301.495,-113.933"/>
<text text-anchor="middle" x="223" y="-139.6" font-family="FreeSans" font-size="8.00" fill="#4e9a06">favorite</text>
</g>
<!-- N8&#45;&gt;N4 -->
<g id="edge11" class="edge"><title>N8&#45;&gt;N4</title>
<path fill="none" stroke="#4e9a06" stroke-width="2" d="M92.3293,-169.666C80.091,-163.899 66.5899,-156.016 56.5,-146 50.7065,-140.249 45.955,-132.804 42.253,-125.654"/>
<polygon fill="#4e9a06" stroke="#4e9a06" stroke-width="2" points="38.9011,-118.677 45.1909,-123.976 40.9756,-121.84 42.5995,-125.22 42.1488,-125.437 41.6981,-125.654 40.0742,-122.273 39.1066,-126.898 38.9011,-118.677 38.9011,-118.677"/>
<text text-anchor="middle" x="70" y="-139.6" font-family="FreeSans" font-size="8.00" fill="#4e9a06">favorite</text>
</g>
</g>
</svg>
