<?xml version="1.0" encoding="UTF-8" standalone="no"?>
<!DOCTYPE svg PUBLIC "-//W3C//DTD SVG 1.1//EN"
 "http://www.w3.org/Graphics/SVG/1.1/DTD/svg11.dtd">
<!-- Generated by graphviz version 2.38.0 (20140413.2041)
 -->
<!-- Title: g Pages: 1 -->
<svg width="231pt" height="250pt"
 viewBox="0.00 0.00 231.00 250.00" xmlns="http://www.w3.org/2000/svg" xmlns:xlink="http://www.w3.org/1999/xlink">
<g id="graph0" class="graph" transform="scale(1 1) rotate(0) translate(4 246)">
<title>g</title>
<polygon fill="white" stroke="none" points="-4,4 -4,-246 227,-246 227,4 -4,4"/>
<!-- N0 -->
<g id="node1" class="node"><title>N0</title>
<path fill="#ffffff" stroke="#2e3436" stroke-width="1.5" d="M17.5,-13C17.5,-13 64.5,-13 64.5,-13 70.5,-13 76.5,-19 76.5,-25 76.5,-25 76.5,-37 76.5,-37 76.5,-43 70.5,-49 64.5,-49 64.5,-49 17.5,-49 17.5,-49 11.5,-49 5.5,-43 5.5,-37 5.5,-37 5.5,-25 5.5,-25 5.5,-19 11.5,-13 17.5,-13"/>
<text text-anchor="start" x="13.5" y="-38.1" font-family="FreeSans" font-size="8.00" fill="#1c2021">name = &#39;Daniel&#39;</text>
<text text-anchor="start" x="13.5" y="-29.1" font-family="FreeSans" font-size="8.00" fill="#1c2021">age = 54</text>
<text text-anchor="start" x="13.5" y="-20.1" font-family="FreeSans" font-size="8.00" fill="#1c2021">eyes = &#39;brown&#39;</text>
</g>
<!-- N1 -->
<g id="node2" class="node"><title>N1</title>
<path fill="#ffffff" stroke="#2e3436" stroke-width="1.5" d="M123,-0.5C123,-0.5 211,-0.5 211,-0.5 217,-0.5 223,-6.5 223,-12.5 223,-12.5 223,-49.5 223,-49.5 223,-55.5 217,-61.5 211,-61.5 211,-61.5 123,-61.5 123,-61.5 117,-61.5 111,-55.5 111,-49.5 111,-49.5 111,-12.5 111,-12.5 111,-6.5 117,-0.5 123,-0.5"/>
<text text-anchor="middle" x="167" y="-51.1" font-family="FreeSans" font-size="8.00" fill="#1c2021">Spouse</text>
<polyline fill="none" stroke="#2e3436" stroke-width="1.5" points="111,-44.5 223,-44.5 "/>
<text text-anchor="start" x="119" y="-34.1" font-family="FreeSans" font-size="8.00" fill="#1c2021">name = &#39;Eskil&#39;</text>
<text text-anchor="start" x="119" y="-25.1" font-family="FreeSans" font-size="8.00" fill="#1c2021">age = 41</text>
<text text-anchor="start" x="119" y="-16.1" font-family="FreeSans" font-size="8.00" fill="#1c2021">eyes = &#39;blue&#39;</text>
<text text-anchor="start" x="119" y="-7.1" font-family="FreeSans" font-size="8.00" fill="#1c2021">array = [&#39;one&#39;, &#39;two&#39;, &#39;three&#39;]</text>
</g>
<!-- N2 -->
<g id="node3" class="node"><title>N2</title>
<path fill="#ffffff" stroke="#2e3436" stroke-width="1.5" d="M67,-189.5C67,-189.5 111,-189.5 111,-189.5 117,-189.5 123,-195.5 123,-201.5 123,-201.5 123,-229.5 123,-229.5 123,-235.5 117,-241.5 111,-241.5 111,-241.5 67,-241.5 67,-241.5 61,-241.5 55,-235.5 55,-229.5 55,-229.5 55,-201.5 55,-201.5 55,-195.5 61,-189.5 67,-189.5"/>
<text text-anchor="middle" x="89" y="-231.1" font-family="FreeSans" font-size="8.00" fill="#1c2021">foo, bar</text>
<polyline fill="none" stroke="#2e3436" stroke-width="1.5" points="55,-224.5 123,-224.5 "/>
<text text-anchor="start" x="63" y="-214.1" font-family="FreeSans" font-size="8.00" fill="#1c2021">name = &#39;Alice&#39;</text>
<text text-anchor="start" x="63" y="-205.1" font-family="FreeSans" font-size="8.00" fill="#1c2021">age = 38</text>
<text text-anchor="start" x="63" y="-196.1" font-family="FreeSans" font-size="8.00" fill="#1c2021">eyes = &#39;brown&#39;</text>
</g>
<!-- N4 -->
<g id="node4" class="node"><title>N4</title>
<path fill="#ffffff" stroke="#2e3436" stroke-width="1.5" d="M12,-107.5C12,-107.5 62,-107.5 62,-107.5 68,-107.5 74,-113.5 74,-119.5 74,-119.5 74,-131.5 74,-131.5 74,-137.5 68,-143.5 62,-143.5 62,-143.5 12,-143.5 12,-143.5 6,-143.5 0,-137.5 0,-131.5 0,-131.5 0,-119.5 0,-119.5 0,-113.5 6,-107.5 12,-107.5"/>
<text text-anchor="start" x="8" y="-132.6" font-family="FreeSans" font-size="8.00" fill="#1c2021">name = &#39;Charlie&#39;</text>
<text text-anchor="start" x="8" y="-123.6" font-family="FreeSans" font-size="8.00" fill="#1c2021">age = 53</text>
<text text-anchor="start" x="8" y="-114.6" font-family="FreeSans" font-size="8.00" fill="#1c2021">eyes = &#39;green&#39;</text>
</g>
<!-- N2&#45;&gt;N4 -->
<g id="edge1" class="edge"><title>N2&#45;&gt;N4</title>
<path fill="none" stroke="#2e3436" stroke-width="2" d="M73.9594,-189.047C66.7381,-176.826 58.1361,-162.269 51.0485,-150.274"/>
<polygon fill="#2e3436" stroke="#2e3436" stroke-width="2" points="47.0724,-143.546 53.7935,-148.286 49.4106,-146.52 51.3183,-149.748 50.8879,-150.002 50.4574,-150.257 48.5496,-147.028 47.9822,-151.719 47.0724,-143.546 47.0724,-143.546"/>
<text text-anchor="middle" x="78.5" y="-164.6" font-family="FreeSans" font-size="8.00" fill="#2e3436">KNOWS</text>
</g>
<!-- N3 -->
<g id="node5" class="node"><title>N3</title>
<path fill="#ffffff" stroke="#2e3436" stroke-width="1.5" d="M115.5,-107.5C115.5,-107.5 154.5,-107.5 154.5,-107.5 160.5,-107.5 166.5,-113.5 166.5,-119.5 166.5,-119.5 166.5,-131.5 166.5,-131.5 166.5,-137.5 160.5,-143.5 154.5,-143.5 154.5,-143.5 115.5,-143.5 115.5,-143.5 109.5,-143.5 103.5,-137.5 103.5,-131.5 103.5,-131.5 103.5,-119.5 103.5,-119.5 103.5,-113.5 109.5,-107.5 115.5,-107.5"/>
<text text-anchor="start" x="111.5" y="-132.6" font-family="FreeSans" font-size="8.00" fill="#1c2021">name = &#39;Bob&#39;</text>
<text text-anchor="start" x="111.5" y="-123.6" font-family="FreeSans" font-size="8.00" fill="#1c2021">age = 25</text>
<text text-anchor="start" x="111.5" y="-114.6" font-family="FreeSans" font-size="8.00" fill="#1c2021">eyes = &#39;blue&#39;</text>
</g>
<!-- N2&#45;&gt;N3 -->
<g id="edge2" class="edge"><title>N2&#45;&gt;N3</title>
<path fill="none" stroke="#2e3436" stroke-width="2" d="M102.305,-189.047C108.693,-176.826 116.303,-162.269 122.572,-150.274"/>
<polygon fill="#2e3436" stroke="#2e3436" stroke-width="2" points="126.09,-143.546 125.606,-151.756 124.796,-147.101 123.058,-150.424 122.615,-150.192 122.172,-149.961 123.909,-146.637 119.624,-148.629 126.09,-143.546 126.09,-143.546"/>
<text text-anchor="middle" x="132.5" y="-164.6" font-family="FreeSans" font-size="8.00" fill="#2e3436">KNOWS</text>
</g>
<!-- N4&#45;&gt;N0 -->
<g id="edge5" class="edge"><title>N4&#45;&gt;N0</title>
<path fill="none" stroke="#2e3436" stroke-width="2" d="M35.8282,-107.174C35.4897,-101.397 35.1667,-94.9237 35,-89 34.8875,-85.0016 34.7515,-83.9923 35,-80 35.4675,-72.4903 36.3427,-64.3578 37.2829,-56.9583"/>
<polygon fill="#2e3436" stroke="#2e3436" stroke-width="2" points="38.3125,-49.2809 40.6606,-57.163 38.3096,-53.0641 37.8111,-56.7808 37.3156,-56.7144 36.82,-56.6479 37.3185,-52.9312 33.9705,-56.2657 38.3125,-49.2809 38.3125,-49.2809"/>
<text text-anchor="middle" x="50.5" y="-82.6" font-family="FreeSans" font-size="8.00" fill="#2e3436">KNOWS</text>
</g>
<!-- N3&#45;&gt;N0 -->
<g id="edge3" class="edge"><title>N3&#45;&gt;N0</title>
<path fill="none" stroke="#2e3436" stroke-width="2" d="M117.319,-107.101C102.125,-92.1495 80.1236,-70.4993 63.6433,-54.282"/>
<polygon fill="#2e3436" stroke="#2e3436" stroke-width="2" points="58.2838,-49.008 65.9968,-51.8629 61.3074,-51.2819 63.9803,-53.9121 63.6296,-54.2685 63.2789,-54.6249 60.606,-51.9946 61.2624,-56.6741 58.2838,-49.008 58.2838,-49.008"/>
<text text-anchor="middle" x="112.5" y="-82.6" font-family="FreeSans" font-size="8.00" fill="#2e3436">KNOWS</text>
</g>
<!-- N3&#45;&gt;N1 -->
<g id="edge4" class="edge"><title>N3&#45;&gt;N1</title>
<path fill="none" stroke="#4e9a06" stroke-width="2" d="M141.019,-107.101C144.746,-96.3272 149.677,-82.0749 154.24,-68.8836"/>
<polygon fill="#4e9a06" stroke="#4e9a06" stroke-width="2" points="156.728,-61.6931 157.465,-69.8844 155.974,-65.4005 154.748,-68.9444 154.276,-68.7809 153.803,-68.6175 155.029,-65.0735 151.086,-67.6775 156.728,-61.6931 156.728,-61.6931"/>
<text text-anchor="middle" x="170" y="-82.6" font-family="FreeSans" font-size="8.00" fill="#4e9a06">MARRIED</text>
</g>
</g>
</svg>
