<?xml version="1.0" encoding="UTF-8" standalone="no"?>
<!DOCTYPE svg PUBLIC "-//W3C//DTD SVG 1.1//EN"
 "http://www.w3.org/Graphics/SVG/1.1/DTD/svg11.dtd">
<!-- Generated by graphviz version 2.36.0 (20140111.2315)
 -->
<!-- Title: g Pages: 1 -->
<svg width="82pt" height="214pt"
 viewBox="0.00 0.00 82.00 214.00" xmlns="http://www.w3.org/2000/svg" xmlns:xlink="http://www.w3.org/1999/xlink">
<g id="graph0" class="graph" transform="scale(1 1) rotate(0) translate(4 210)">
<title>g</title>
<polygon fill="white" stroke="none" points="-4,4 -4,-210 78,-210 78,4 -4,4"/>
<!-- N0 -->
<g id="node1" class="node"><title>N0</title>
<path fill="#ffffff" stroke="#2e3436" stroke-width="1.5" d="M14,-169C14,-169 60,-169 60,-169 66,-169 72,-175 72,-181 72,-181 72,-193 72,-193 72,-199 66,-205 60,-205 60,-205 14,-205 14,-205 8,-205 2,-199 2,-193 2,-193 2,-181 2,-181 2,-175 8,-169 14,-169"/>
<text text-anchor="middle" x="37" y="-194.1" font-family="FreeSans" font-size="8.00" fill="#1c2021">User</text>
<polyline fill="none" stroke="#2e3436" stroke-width="1.5" points="2,-187 72,-187 "/>
<text text-anchor="start" x="10" y="-176.1" font-family="FreeSans" font-size="8.00" fill="#1c2021">name = &#39;Adam&#39;</text>
</g>
<!-- N1 -->
<g id="node2" class="node"><title>N1</title>
<path fill="#ffffff" stroke="#2e3436" stroke-width="1.5" d="M11.5,-85C11.5,-85 62.5,-85 62.5,-85 68.5,-85 74.5,-91 74.5,-97 74.5,-97 74.5,-109 74.5,-109 74.5,-115 68.5,-121 62.5,-121 62.5,-121 11.5,-121 11.5,-121 5.5,-121 -0.5,-115 -0.5,-109 -0.5,-109 -0.5,-97 -0.5,-97 -0.5,-91 5.5,-85 11.5,-85"/>
<text text-anchor="middle" x="37" y="-110.1" font-family="FreeSans" font-size="8.00" fill="#1c2021">User</text>
<polyline fill="none" stroke="#2e3436" stroke-width="1.5" points="-0.5,-103 74.5,-103 "/>
<text text-anchor="start" x="7.5" y="-92.1" font-family="FreeSans" font-size="8.00" fill="#1c2021">name = &#39;Pernilla&#39;</text>
</g>
<!-- N0&#45;&gt;N1 -->
<g id="edge1" class="edge"><title>N0&#45;&gt;N1</title>
<path fill="none" stroke="#2e3436" stroke-width="2" d="M37,-168.61C37,-157.008 37,-141.58 37,-128.71"/>
<polygon fill="#2e3436" stroke="#2e3436" stroke-width="2" points="37,-121.084 40.3751,-128.584 37.5,-124.834 37.5001,-128.584 37.0001,-128.584 36.5001,-128.584 36.5,-124.834 33.6251,-128.584 37,-121.084 37,-121.084"/>
<text text-anchor="middle" x="52.5" y="-143.1" font-family="FreeSans" font-size="8.00" fill="#2e3436">FRIEND</text>
</g>
<!-- N2 -->
<g id="node3" class="node"><title>N2</title>
<path fill="#ffffff" stroke="#2e3436" stroke-width="1.5" d="M14.5,-1C14.5,-1 59.5,-1 59.5,-1 65.5,-1 71.5,-7 71.5,-13 71.5,-13 71.5,-25 71.5,-25 71.5,-31 65.5,-37 59.5,-37 59.5,-37 14.5,-37 14.5,-37 8.5,-37 2.5,-31 2.5,-25 2.5,-25 2.5,-13 2.5,-13 2.5,-7 8.5,-1 14.5,-1"/>
<text text-anchor="middle" x="37" y="-26.1" font-family="FreeSans" font-size="8.00" fill="#1c2021">User</text>
<polyline fill="none" stroke="#2e3436" stroke-width="1.5" points="2.5,-19 71.5,-19 "/>
<text text-anchor="start" x="10.5" y="-8.1" font-family="FreeSans" font-size="8.00" fill="#1c2021">name = &#39;David&#39;</text>
</g>
<!-- N1&#45;&gt;N2 -->
<g id="edge2" class="edge"><title>N1&#45;&gt;N2</title>
<path fill="none" stroke="#2e3436" stroke-width="2" d="M37,-84.6099C37,-73.0081 37,-57.5802 37,-44.7099"/>
<polygon fill="#2e3436" stroke="#2e3436" stroke-width="2" points="37,-37.0838 40.3751,-44.5838 37.5,-40.8338 37.5001,-44.5838 37.0001,-44.5838 36.5001,-44.5838 36.5,-40.8338 33.6251,-44.5839 37,-37.0838 37,-37.0838"/>
<text text-anchor="middle" x="52.5" y="-59.1" font-family="FreeSans" font-size="8.00" fill="#2e3436">FRIEND</text>
</g>
</g>
</svg>
