<?xml version="1.0" encoding="UTF-8" standalone="no"?>
<!DOCTYPE svg PUBLIC "-//W3C//DTD SVG 1.1//EN"
 "http://www.w3.org/Graphics/SVG/1.1/DTD/svg11.dtd">
<!-- Generated by graphviz version 2.36.0 (20140111.2315)
 -->
<!-- Title: g Pages: 1 -->
<svg width="108pt" height="52pt"
 viewBox="0.00 0.00 108.00 52.00" xmlns="http://www.w3.org/2000/svg" xmlns:xlink="http://www.w3.org/1999/xlink">
<g id="graph0" class="graph" transform="scale(1 1) rotate(0) translate(4 48)">
<title>g</title>
<polygon fill="white" stroke="none" points="-4,4 -4,-48 104,-48 104,4 -4,4"/>
<!-- N1 -->
<g id="node1" class="node"><title>N1</title>
<path fill="#ffffff" stroke="#2e3436" stroke-width="1.5" d="M11.5,-0.5C11.5,-0.5 88.5,-0.5 88.5,-0.5 94.5,-0.5 100.5,-6.5 100.5,-12.5 100.5,-12.5 100.5,-31.5 100.5,-31.5 100.5,-37.5 94.5,-43.5 88.5,-43.5 88.5,-43.5 11.5,-43.5 11.5,-43.5 5.5,-43.5 -0.5,-37.5 -0.5,-31.5 -0.5,-31.5 -0.5,-12.5 -0.5,-12.5 -0.5,-6.5 5.5,-0.5 11.5,-0.5"/>
<text text-anchor="middle" x="50" y="-33.1" font-family="FreeSans" font-size="8.00" fill="#1c2021">Person</text>
<polyline fill="none" stroke="#2e3436" stroke-width="1.5" points="-0.5,-26.5 100.5,-26.5 "/>
<text text-anchor="start" x="7.5" y="-16.1" font-family="FreeSans" font-size="8.00" fill="#1c2021">name = &#39;Keanu Reeves&#39;</text>
<text text-anchor="start" x="7.5" y="-7.1" font-family="FreeSans" font-size="8.00" fill="#1c2021">born = 1964</text>
</g>
</g>
</svg>
