<?xml version="1.0" encoding="UTF-8" standalone="no"?>
<!DOCTYPE svg PUBLIC "-//W3C//DTD SVG 1.1//EN"
 "http://www.w3.org/Graphics/SVG/1.1/DTD/svg11.dtd">
<!-- Generated by graphviz version 2.36.0 (20140111.2315)
 -->
<!-- Title: g Pages: 1 -->
<svg width="398pt" height="214pt"
 viewBox="0.00 0.00 397.85 214.00" xmlns="http://www.w3.org/2000/svg" xmlns:xlink="http://www.w3.org/1999/xlink">
<g id="graph0" class="graph" transform="scale(1 1) rotate(0) translate(4 210)">
<title>g</title>
<polygon fill="white" stroke="none" points="-4,4 -4,-210 393.851,-210 393.851,4 -4,4"/>
<!-- N0 -->
<g id="node1" class="node"><title>N0</title>
<path fill="#ffffff" stroke="#2e3436" stroke-width="1.5" d="M222.351,-85C222.351,-85 285.351,-85 285.351,-85 291.351,-85 297.351,-91 297.351,-97 297.351,-97 297.351,-109 297.351,-109 297.351,-115 291.351,-121 285.351,-121 285.351,-121 222.351,-121 222.351,-121 216.351,-121 210.351,-115 210.351,-109 210.351,-109 210.351,-97 210.351,-97 210.351,-91 216.351,-85 222.351,-85"/>
<text text-anchor="start" x="218.351" y="-101.1" font-family="FreeSans" font-size="8.00" fill="#1c2021">Node[0]name = &#39;Bill&#39;</text>
</g>
<!-- N1 -->
<g id="node2" class="node"><title>N1</title>
<path fill="#ffffff" stroke="#2e3436" stroke-width="1.5" d="M149.851,-1C149.851,-1 229.851,-1 229.851,-1 235.851,-1 241.851,-7 241.851,-13 241.851,-13 241.851,-25 241.851,-25 241.851,-31 235.851,-37 229.851,-37 229.851,-37 149.851,-37 149.851,-37 143.851,-37 137.851,-31 137.851,-25 137.851,-25 137.851,-13 137.851,-13 137.851,-7 143.851,-1 149.851,-1"/>
<text text-anchor="start" x="145.851" y="-17.1" font-family="FreeSans" font-size="8.00" fill="#1c2021">Node[1]name = &#39;Group1&#39;</text>
</g>
<!-- N0&#45;&gt;N1 -->
<g id="edge1" class="edge"><title>N0&#45;&gt;N1</title>
<path fill="none" stroke="#2e3436" stroke-width="2" d="M240.278,-84.6099C230.881,-72.5703 218.269,-56.4104 208.008,-43.2641"/>
<polygon fill="#2e3436" stroke="#2e3436" stroke-width="2" points="203.184,-37.0838 210.46,-40.9197 205.886,-39.7324 208.193,-42.6886 207.799,-42.9962 207.405,-43.3039 205.098,-40.3477 205.138,-45.0728 203.184,-37.0838 203.184,-37.0838"/>
<text text-anchor="middle" x="259.351" y="-59.1" font-family="FreeSans" font-size="8.00" fill="#2e3436">member_of_group</text>
</g>
<!-- N2 -->
<g id="node3" class="node"><title>N2</title>
<path fill="#ffffff" stroke="#2e3436" stroke-width="1.5" d="M100.851,-85C100.851,-85 168.851,-85 168.851,-85 174.851,-85 180.851,-91 180.851,-97 180.851,-97 180.851,-109 180.851,-109 180.851,-115 174.851,-121 168.851,-121 168.851,-121 100.851,-121 100.851,-121 94.8508,-121 88.8508,-115 88.8508,-109 88.8508,-109 88.8508,-97 88.8508,-97 88.8508,-91 94.8508,-85 100.851,-85"/>
<text text-anchor="start" x="96.8508" y="-101.1" font-family="FreeSans" font-size="8.00" fill="#1c2021">Node[2]name = &#39;Bob&#39;</text>
</g>
<!-- N2&#45;&gt;N1 -->
<g id="edge2" class="edge"><title>N2&#45;&gt;N1</title>
<path fill="none" stroke="#2e3436" stroke-width="2" d="M134.413,-84.7783C134.905,-75.6569 136.708,-64.5958 141.851,-56 144.934,-50.8461 149.064,-46.1877 153.611,-42.063"/>
<polygon fill="#2e3436" stroke="#2e3436" stroke-width="2" points="159.548,-37.1266 155.939,-44.5168 156.984,-39.9086 154.101,-42.3062 153.781,-41.9217 153.461,-41.5372 156.345,-39.1397 151.623,-39.3266 159.548,-37.1266 159.548,-37.1266"/>
<text text-anchor="middle" x="175.351" y="-59.1" font-family="FreeSans" font-size="8.00" fill="#2e3436">member_of_group</text>
</g>
<!-- N3 -->
<g id="node4" class="node"><title>N3</title>
<path fill="#ffffff" stroke="#2e3436" stroke-width="1.5" d="M79.8508,-169C79.8508,-169 141.851,-169 141.851,-169 147.851,-169 153.851,-175 153.851,-181 153.851,-181 153.851,-193 153.851,-193 153.851,-199 147.851,-205 141.851,-205 141.851,-205 79.8508,-205 79.8508,-205 73.8508,-205 67.8508,-199 67.8508,-193 67.8508,-193 67.8508,-181 67.8508,-181 67.8508,-175 73.8508,-169 79.8508,-169"/>
<text text-anchor="start" x="75.8508" y="-185.1" font-family="FreeSans" font-size="8.00" fill="#1c2021">Node[3]name = &#39;Jill&#39;</text>
</g>
<!-- N3&#45;&gt;N0 -->
<g id="edge4" class="edge"><title>N3&#45;&gt;N0</title>
<path fill="none" stroke="#4e9a06" stroke-width="2" d="M140.828,-168.81C163.041,-156.073 193.437,-138.643 217.112,-125.067"/>
<polygon fill="#4e9a06" stroke="#4e9a06" stroke-width="2" points="223.913,-121.167 219.085,-127.826 220.908,-123.466 217.655,-125.332 217.407,-124.898 217.158,-124.464 220.411,-122.599 215.728,-121.97 223.913,-121.167 223.913,-121.167"/>
<text text-anchor="middle" x="203.851" y="-143.1" font-family="FreeSans" font-size="8.00" fill="#4e9a06">knows</text>
</g>
<!-- N3&#45;&gt;N1 -->
<g id="edge3" class="edge"><title>N3&#45;&gt;N1</title>
<path fill="none" stroke="#2e3436" stroke-width="2" d="M67.7127,-171.29C45.2787,-161.187 19.8812,-145.319 6.85076,-122 -1.38769,-107.257 -2.92351,-97.7731 6.85076,-84 34.5982,-44.9007 88.1267,-29.4981 130.154,-23.5269"/>
<polygon fill="#2e3436" stroke="#2e3436" stroke-width="2" points="137.592,-22.5502 130.595,-26.873 133.939,-23.5342 130.221,-24.0225 130.156,-23.5268 130.091,-23.031 133.809,-22.5427 129.716,-20.1805 137.592,-22.5502 137.592,-22.5502"/>
<text text-anchor="middle" x="40.3508" y="-101.1" font-family="FreeSans" font-size="8.00" fill="#2e3436">member_of_group</text>
</g>
<!-- N4 -->
<g id="node5" class="node"><title>N4</title>
<path fill="#ffffff" stroke="#2e3436" stroke-width="1.5" d="M279.351,-169C279.351,-169 346.351,-169 346.351,-169 352.351,-169 358.351,-175 358.351,-181 358.351,-181 358.351,-193 358.351,-193 358.351,-199 352.351,-205 346.351,-205 346.351,-205 279.351,-205 279.351,-205 273.351,-205 267.351,-199 267.351,-193 267.351,-193 267.351,-181 267.351,-181 267.351,-175 273.351,-169 279.351,-169"/>
<text text-anchor="start" x="275.351" y="-185.1" font-family="FreeSans" font-size="8.00" fill="#1c2021">Node[4]name = &#39;Joe&#39;</text>
</g>
<!-- N4&#45;&gt;N0 -->
<g id="edge6" class="edge"><title>N4&#45;&gt;N0</title>
<path fill="none" stroke="#4e9a06" stroke-width="2" d="M300.338,-168.61C291.676,-156.57 280.048,-140.41 270.59,-127.264"/>
<polygon fill="#4e9a06" stroke="#4e9a06" stroke-width="2" points="266.143,-121.084 273.263,-125.201 268.739,-123.836 270.929,-126.88 270.523,-127.172 270.117,-127.464 267.927,-124.42 267.784,-129.143 266.143,-121.084 266.143,-121.084"/>
<text text-anchor="middle" x="299.851" y="-143.1" font-family="FreeSans" font-size="8.00" fill="#4e9a06">knows</text>
</g>
<!-- N4&#45;&gt;N1 -->
<g id="edge5" class="edge"><title>N4&#45;&gt;N1</title>
<path fill="none" stroke="#2e3436" stroke-width="2" d="M317.349,-168.65C323.494,-140.46 330.536,-84.9535 299.851,-56 286.104,-43.0285 267.608,-34.7291 249.71,-29.4196"/>
<polygon fill="#2e3436" stroke="#2e3436" stroke-width="2" points="242.091,-27.3223 250.218,-26.059 245.839,-27.8356 249.455,-28.8309 249.322,-29.313 249.189,-29.7951 245.574,-28.7997 248.426,-32.567 242.091,-27.3223 242.091,-27.3223"/>
<text text-anchor="middle" x="356.351" y="-101.1" font-family="FreeSans" font-size="8.00" fill="#2e3436">member_of_group</text>
</g>
</g>
</svg>
