<?xml version="1.0" encoding="UTF-8" standalone="no"?>
<!DOCTYPE svg PUBLIC "-//W3C//DTD SVG 1.1//EN"
 "http://www.w3.org/Graphics/SVG/1.1/DTD/svg11.dtd">
<!-- Generated by graphviz version 2.36.0 (20140111.2315)
 -->
<!-- Title: g Pages: 1 -->
<svg width="190pt" height="142pt"
 viewBox="0.00 0.00 190.00 142.00" xmlns="http://www.w3.org/2000/svg" xmlns:xlink="http://www.w3.org/1999/xlink">
<g id="graph0" class="graph" transform="scale(1 1) rotate(0) translate(4 138)">
<title>g</title>
<polygon fill="white" stroke="none" points="-4,4 -4,-138 186,-138 186,4 -4,4"/>
<!-- N0 -->
<g id="node1" class="node"><title>N0</title>
<path fill="#ffffff" stroke="#2e3436" stroke-width="1.5" d="M11.5,-0.5C11.5,-0.5 60.5,-0.5 60.5,-0.5 66.5,-0.5 72.5,-6.5 72.5,-12.5 72.5,-12.5 72.5,-31.5 72.5,-31.5 72.5,-37.5 66.5,-43.5 60.5,-43.5 60.5,-43.5 11.5,-43.5 11.5,-43.5 5.5,-43.5 -0.5,-37.5 -0.5,-31.5 -0.5,-31.5 -0.5,-12.5 -0.5,-12.5 -0.5,-6.5 5.5,-0.5 11.5,-0.5"/>
<text text-anchor="middle" x="36" y="-33.1" font-family="FreeSans" font-size="8.00" fill="#1c2021">Swedish</text>
<polyline fill="none" stroke="#2e3436" stroke-width="1.5" points="-0.5,-26.5 72.5,-26.5 "/>
<text text-anchor="start" x="7.5" y="-16.1" font-family="FreeSans" font-size="8.00" fill="#1c2021">name = &#39;Tobias&#39;</text>
<text text-anchor="start" x="7.5" y="-7.1" font-family="FreeSans" font-size="8.00" fill="#1c2021">age = 25</text>
</g>
<!-- N1 -->
<g id="node2" class="node"><title>N1</title>
<path fill="#ffffff" stroke="#2e3436" stroke-width="1.5" d="M114,-0.5C114,-0.5 170,-0.5 170,-0.5 176,-0.5 182,-6.5 182,-12.5 182,-12.5 182,-31.5 182,-31.5 182,-37.5 176,-43.5 170,-43.5 170,-43.5 114,-43.5 114,-43.5 108,-43.5 102,-37.5 102,-31.5 102,-31.5 102,-12.5 102,-12.5 102,-6.5 108,-0.5 114,-0.5"/>
<text text-anchor="middle" x="142" y="-33.1" font-family="FreeSans" font-size="8.00" fill="#1c2021">Swedish, German</text>
<polyline fill="none" stroke="#2e3436" stroke-width="1.5" points="102,-26.5 182,-26.5 "/>
<text text-anchor="start" x="110" y="-16.1" font-family="FreeSans" font-size="8.00" fill="#1c2021">name = &#39;Peter&#39;</text>
<text text-anchor="start" x="110" y="-7.1" font-family="FreeSans" font-size="8.00" fill="#1c2021">age = 34</text>
</g>
<!-- N2 -->
<g id="node3" class="node"><title>N2</title>
<path fill="#ffffff" stroke="#2e3436" stroke-width="1.5" d="M64,-90.5C64,-90.5 114,-90.5 114,-90.5 120,-90.5 126,-96.5 126,-102.5 126,-102.5 126,-121.5 126,-121.5 126,-127.5 120,-133.5 114,-133.5 114,-133.5 64,-133.5 64,-133.5 58,-133.5 52,-127.5 52,-121.5 52,-121.5 52,-102.5 52,-102.5 52,-96.5 58,-90.5 64,-90.5"/>
<text text-anchor="middle" x="89" y="-123.1" font-family="FreeSans" font-size="8.00" fill="#1c2021">Swedish</text>
<polyline fill="none" stroke="#2e3436" stroke-width="1.5" points="52,-116.5 126,-116.5 "/>
<text text-anchor="start" x="60" y="-106.1" font-family="FreeSans" font-size="8.00" fill="#1c2021">name = &#39;Andres&#39;</text>
<text text-anchor="start" x="60" y="-97.1" font-family="FreeSans" font-size="8.00" fill="#1c2021">age = 36</text>
</g>
<!-- N2&#45;&gt;N0 -->
<g id="edge2" class="edge"><title>N2&#45;&gt;N0</title>
<path fill="none" stroke="#2e3436" stroke-width="2" d="M76.4397,-90.1452C69.2452,-78.1996 60.1343,-63.0721 52.3826,-50.2012"/>
<polygon fill="#2e3436" stroke="#2e3436" stroke-width="2" points="48.4701,-43.7051 55.2307,-48.3886 50.8332,-46.6595 52.7679,-49.8719 52.3396,-50.1298 51.9113,-50.3878 49.9765,-47.1754 49.4485,-51.8711 48.4701,-43.7051 48.4701,-43.7051"/>
<text text-anchor="middle" x="80.5" y="-65.1" font-family="FreeSans" font-size="8.00" fill="#2e3436">KNOWS</text>
</g>
<!-- N2&#45;&gt;N1 -->
<g id="edge1" class="edge"><title>N2&#45;&gt;N1</title>
<path fill="none" stroke="#2e3436" stroke-width="2" d="M101.56,-90.1452C108.755,-78.1996 117.866,-63.0721 125.617,-50.2012"/>
<polygon fill="#2e3436" stroke="#2e3436" stroke-width="2" points="129.53,-43.7051 128.552,-51.8711 128.023,-47.1754 126.089,-50.3878 125.66,-50.1298 125.232,-49.8719 127.167,-46.6595 122.769,-48.3886 129.53,-43.7051 129.53,-43.7051"/>
<text text-anchor="middle" x="133.5" y="-65.1" font-family="FreeSans" font-size="8.00" fill="#2e3436">KNOWS</text>
</g>
</g>
</svg>
