<?xml version="1.0" encoding="UTF-8" standalone="no"?>
<!DOCTYPE svg PUBLIC "-//W3C//DTD SVG 1.1//EN"
 "http://www.w3.org/Graphics/SVG/1.1/DTD/svg11.dtd">
<!-- Generated by graphviz version 2.38.0 (20140413.2041)
 -->
<!-- Title: g Pages: 1 -->
<svg width="82pt" height="127pt"
 viewBox="0.00 0.00 82.00 127.00" xmlns="http://www.w3.org/2000/svg" xmlns:xlink="http://www.w3.org/1999/xlink">
<g id="graph0" class="graph" transform="scale(1 1) rotate(0) translate(4 123)">
<title>g</title>
<polygon fill="white" stroke="none" points="-4,4 -4,-123 78,-123 78,4 -4,4"/>
<!-- N0 -->
<g id="node1" class="node"><title>N0</title>
<path fill="#ffffff" stroke="#2e3436" stroke-width="1.5" d="M12,-82.5C12,-82.5 62,-82.5 62,-82.5 68,-82.5 74,-88.5 74,-94.5 74,-94.5 74,-106.5 74,-106.5 74,-112.5 68,-118.5 62,-118.5 62,-118.5 12,-118.5 12,-118.5 6,-118.5 0,-112.5 0,-106.5 0,-106.5 0,-94.5 0,-94.5 0,-88.5 6,-82.5 12,-82.5"/>
<text text-anchor="start" x="8" y="-98.6" font-family="FreeSans" font-size="8.00" fill="#1c2021">name = &#39;ROOT&#39;</text>
</g>
<!-- N1 -->
<g id="node2" class="node"><title>N1</title>
<path fill="#ffffff" stroke="#2e3436" stroke-width="1.5" d="M22,-0.5C22,-0.5 52,-0.5 52,-0.5 58,-0.5 64,-6.5 64,-12.5 64,-12.5 64,-24.5 64,-24.5 64,-30.5 58,-36.5 52,-36.5 52,-36.5 22,-36.5 22,-36.5 16,-36.5 10,-30.5 10,-24.5 10,-24.5 10,-12.5 10,-12.5 10,-6.5 16,-0.5 22,-0.5"/>
<text text-anchor="start" x="18" y="-16.6" font-family="FreeSans" font-size="8.00" fill="#1c2021">value = 25</text>
</g>
<!-- N0&#45;&gt;N1 -->
<g id="edge1" class="edge"><title>N0&#45;&gt;N1</title>
<path fill="none" stroke="#2e3436" stroke-width="2" d="M17.2082,-82.2679C10.59,-74.3834 5.64941,-64.6585 9,-55 10.4833,-50.7242 12.7187,-46.5737 15.2923,-42.709"/>
<polygon fill="#2e3436" stroke="#2e3436" stroke-width="2" points="19.8694,-36.5029 18.1339,-44.5421 18.046,-39.8177 15.8201,-42.8356 15.4177,-42.5389 15.0153,-42.2421 17.2412,-39.2241 12.7015,-40.5356 19.8694,-36.5029 19.8694,-36.5029"/>
<text text-anchor="middle" x="18.5" y="-57.6" font-family="FreeSans" font-size="8.00" fill="#2e3436">LINK</text>
</g>
<!-- N1&#45;&gt;N0 -->
<g id="edge2" class="edge"><title>N1&#45;&gt;N0</title>
<path fill="none" stroke="#2e3436" stroke-width="2" d="M37,-36.5501C37,-47.5681 37,-62.0971 37,-74.4205"/>
<polygon fill="#2e3436" stroke="#2e3436" stroke-width="2" points="37,-82.1412 33.6251,-74.6411 36.5,-78.3912 36.5001,-74.6412 37.0001,-74.6412 37.5001,-74.6412 37.5,-78.3912 40.3751,-74.6412 37,-82.1412 37,-82.1412"/>
<text text-anchor="middle" x="46.5" y="-57.6" font-family="FreeSans" font-size="8.00" fill="#2e3436">LINK</text>
</g>
</g>
</svg>
