<?xml version="1.0" encoding="UTF-8" standalone="no"?>
<!DOCTYPE svg PUBLIC "-//W3C//DTD SVG 1.1//EN"
 "http://www.w3.org/Graphics/SVG/1.1/DTD/svg11.dtd">
<!-- Generated by graphviz version 2.38.0 (20140413.2041)
 -->
<!-- Title: g Pages: 1 -->
<svg width="265pt" height="150pt"
 viewBox="0.00 0.00 264.50 150.00" xmlns="http://www.w3.org/2000/svg" xmlns:xlink="http://www.w3.org/1999/xlink">
<g id="graph0" class="graph" transform="scale(1 1) rotate(0) translate(4 146)">
<title>g</title>
<polygon fill="white" stroke="none" points="-4,4 -4,-146 260.5,-146 260.5,4 -4,4"/>
<!-- N0 -->
<g id="node1" class="node"><title>N0</title>
<path fill="#ffffff" stroke="#2e3436" stroke-width="1.5" d="M12,-5C12,-5 56,-5 56,-5 62,-5 68,-11 68,-17 68,-17 68,-36 68,-36 68,-42 62,-48 56,-48 56,-48 12,-48 12,-48 6,-48 0,-42 0,-36 0,-36 0,-17 0,-17 0,-11 6,-5 12,-5"/>
<text text-anchor="middle" x="34" y="-37.6" font-family="FreeSans" font-size="8.00" fill="#1c2021">Person</text>
<polyline fill="none" stroke="#2e3436" stroke-width="1.5" points="0,-31 68,-31 "/>
<text text-anchor="start" x="8" y="-20.6" font-family="FreeSans" font-size="8.00" fill="#1c2021">name = &#39;D&#39;</text>
<text text-anchor="start" x="8" y="-11.6" font-family="FreeSans" font-size="8.00" fill="#1c2021">eyes = &#39;brown&#39;</text>
</g>
<!-- N1 -->
<g id="node2" class="node"><title>N1</title>
<path fill="#ffffff" stroke="#2e3436" stroke-width="1.5" d="M109.5,-98.5C109.5,-98.5 150.5,-98.5 150.5,-98.5 156.5,-98.5 162.5,-104.5 162.5,-110.5 162.5,-110.5 162.5,-129.5 162.5,-129.5 162.5,-135.5 156.5,-141.5 150.5,-141.5 150.5,-141.5 109.5,-141.5 109.5,-141.5 103.5,-141.5 97.5,-135.5 97.5,-129.5 97.5,-129.5 97.5,-110.5 97.5,-110.5 97.5,-104.5 103.5,-98.5 109.5,-98.5"/>
<text text-anchor="middle" x="130" y="-131.1" font-family="FreeSans" font-size="8.00" fill="#1c2021">Person</text>
<polyline fill="none" stroke="#2e3436" stroke-width="1.5" points="97.5,-124.5 162.5,-124.5 "/>
<text text-anchor="start" x="105.5" y="-114.1" font-family="FreeSans" font-size="8.00" fill="#1c2021">name = &#39;A&#39;</text>
<text text-anchor="start" x="105.5" y="-105.1" font-family="FreeSans" font-size="8.00" fill="#1c2021">property = 13</text>
</g>
<!-- N1&#45;&gt;N0 -->
<g id="edge1" class="edge"><title>N1&#45;&gt;N0</title>
<path fill="none" stroke="#2e3436" stroke-width="2" d="M108.216,-98.2372C94.3463,-85.0175 76.2637,-67.7826 61.4202,-53.6349"/>
<polygon fill="#2e3436" stroke="#2e3436" stroke-width="2" points="55.6977,-48.1806 63.4553,-50.9121 58.7572,-50.4059 61.4717,-52.9932 61.1267,-53.3552 60.7818,-53.7171 58.0672,-51.1298 58.7982,-55.7982 55.6977,-48.1806 55.6977,-48.1806"/>
<text text-anchor="middle" x="103.5" y="-73.6" font-family="FreeSans" font-size="8.00" fill="#2e3436">KNOWS</text>
</g>
<!-- N3 -->
<g id="node3" class="node"><title>N3</title>
<path fill="#ffffff" stroke="#2e3436" stroke-width="1.5" d="M109.5,-0.5C109.5,-0.5 150.5,-0.5 150.5,-0.5 156.5,-0.5 162.5,-6.5 162.5,-12.5 162.5,-12.5 162.5,-40.5 162.5,-40.5 162.5,-46.5 156.5,-52.5 150.5,-52.5 150.5,-52.5 109.5,-52.5 109.5,-52.5 103.5,-52.5 97.5,-46.5 97.5,-40.5 97.5,-40.5 97.5,-12.5 97.5,-12.5 97.5,-6.5 103.5,-0.5 109.5,-0.5"/>
<text text-anchor="middle" x="130" y="-42.1" font-family="FreeSans" font-size="8.00" fill="#1c2021">Person</text>
<polyline fill="none" stroke="#2e3436" stroke-width="1.5" points="97.5,-35.5 162.5,-35.5 "/>
<text text-anchor="start" x="105.5" y="-25.1" font-family="FreeSans" font-size="8.00" fill="#1c2021">name = &#39;C&#39;</text>
<text text-anchor="start" x="105.5" y="-16.1" font-family="FreeSans" font-size="8.00" fill="#1c2021">property = 44</text>
<text text-anchor="start" x="105.5" y="-7.1" font-family="FreeSans" font-size="8.00" fill="#1c2021">eyes = &#39;blue&#39;</text>
</g>
<!-- N1&#45;&gt;N3 -->
<g id="edge2" class="edge"><title>N1&#45;&gt;N3</title>
<path fill="none" stroke="#2e3436" stroke-width="2" d="M130,-98.2372C130,-87.0591 130,-73.0101 130,-60.3841"/>
<polygon fill="#2e3436" stroke="#2e3436" stroke-width="2" points="130,-52.745 133.375,-60.2449 130.5,-56.495 130.5,-60.245 130,-60.245 129.5,-60.245 129.5,-56.495 126.625,-60.245 130,-52.745 130,-52.745"/>
<text text-anchor="middle" x="145.5" y="-73.6" font-family="FreeSans" font-size="8.00" fill="#2e3436">KNOWS</text>
</g>
<!-- N2 -->
<g id="node4" class="node"><title>N2</title>
<path fill="#ffffff" stroke="#2e3436" stroke-width="1.5" d="M203.5,-0.5C203.5,-0.5 244.5,-0.5 244.5,-0.5 250.5,-0.5 256.5,-6.5 256.5,-12.5 256.5,-12.5 256.5,-40.5 256.5,-40.5 256.5,-46.5 250.5,-52.5 244.5,-52.5 244.5,-52.5 203.5,-52.5 203.5,-52.5 197.5,-52.5 191.5,-46.5 191.5,-40.5 191.5,-40.5 191.5,-12.5 191.5,-12.5 191.5,-6.5 197.5,-0.5 203.5,-0.5"/>
<text text-anchor="middle" x="224" y="-42.1" font-family="FreeSans" font-size="8.00" fill="#1c2021">Person</text>
<polyline fill="none" stroke="#2e3436" stroke-width="1.5" points="191.5,-35.5 256.5,-35.5 "/>
<text text-anchor="start" x="199.5" y="-25.1" font-family="FreeSans" font-size="8.00" fill="#1c2021">name = &#39;B&#39;</text>
<text text-anchor="start" x="199.5" y="-16.1" font-family="FreeSans" font-size="8.00" fill="#1c2021">property = 33</text>
<text text-anchor="start" x="199.5" y="-7.1" font-family="FreeSans" font-size="8.00" fill="#1c2021">eyes = &#39;blue&#39;</text>
</g>
<!-- N1&#45;&gt;N2 -->
<g id="edge3" class="edge"><title>N1&#45;&gt;N2</title>
<path fill="none" stroke="#2e3436" stroke-width="2" d="M151.33,-98.2372C163.464,-86.4263 178.89,-71.4104 192.405,-58.2546"/>
<polygon fill="#2e3436" stroke="#2e3436" stroke-width="2" points="198.065,-52.745 195.045,-60.3948 195.727,-55.719 193.04,-58.3347 192.691,-57.9764 192.342,-57.6181 195.029,-55.0024 190.337,-55.5579 198.065,-52.745 198.065,-52.745"/>
<text text-anchor="middle" x="192.5" y="-73.6" font-family="FreeSans" font-size="8.00" fill="#2e3436">KNOWS</text>
</g>
</g>
</svg>
