<?xml version="1.0" encoding="UTF-8" standalone="no"?>
<!DOCTYPE svg PUBLIC "-//W3C//DTD SVG 1.1//EN"
 "http://www.w3.org/Graphics/SVG/1.1/DTD/svg11.dtd">
<!-- Generated by graphviz version 2.36.0 (20140111.2315)
 -->
<!-- Title: g Pages: 1 -->
<svg width="130pt" height="46pt"
 viewBox="0.00 0.00 130.00 46.00" xmlns="http://www.w3.org/2000/svg" xmlns:xlink="http://www.w3.org/1999/xlink">
<g id="graph0" class="graph" transform="scale(1 1) rotate(0) translate(4 42)">
<title>g</title>
<polygon fill="white" stroke="none" points="-4,4 -4,-42 126,-42 126,4 -4,4"/>
<!-- N0 -->
<g id="node1" class="node"><title>N0</title>
<path fill="#ffffff" stroke="#2e3436" stroke-width="1.5" d="M12,-1C12,-1 62,-1 62,-1 68,-1 74,-7 74,-13 74,-13 74,-25 74,-25 74,-31 68,-37 62,-37 62,-37 12,-37 12,-37 6,-37 0,-31 0,-25 0,-25 0,-13 0,-13 0,-7 6,-1 12,-1"/>
<text text-anchor="start" x="8" y="-17.1" font-family="FreeSans" font-size="8.00" fill="#1c2021">name = &#39;ROOT&#39;</text>
</g>
<!-- N0&#45;&gt;N0 -->
<g id="edge1" class="edge"><title>N0&#45;&gt;N0</title>
<path fill="none" stroke="#2e3436" stroke-width="2" d="M74.3171,-25.6907C89.8408,-26.1521 103,-23.9219 103,-19 103,-14.9241 93.9756,-12.6941 82.0572,-12.3099"/>
<polygon fill="#2e3436" stroke="#2e3436" stroke-width="2" points="74.3171,-12.3093 81.8174,-8.93502 78.0671,-11.8097 81.8171,-11.81 81.8171,-12.31 81.8171,-12.81 78.0671,-12.8097 81.8168,-15.685 74.3171,-12.3093 74.3171,-12.3093"/>
<text text-anchor="middle" x="112.5" y="-17.1" font-family="FreeSans" font-size="8.00" fill="#2e3436">LINK</text>
</g>
</g>
</svg>
