<?xml version="1.0" encoding="UTF-8" standalone="no"?>
<!DOCTYPE svg PUBLIC "-//W3C//DTD SVG 1.1//EN"
 "http://www.w3.org/Graphics/SVG/1.1/DTD/svg11.dtd">
<!-- Generated by graphviz version 2.36.0 (20140111.2315)
 -->
<!-- Title: g Pages: 1 -->
<svg width="504pt" height="112pt"
 viewBox="0.00 0.00 504.00 111.67" xmlns="http://www.w3.org/2000/svg" xmlns:xlink="http://www.w3.org/1999/xlink">
<g id="graph0" class="graph" transform="scale(0.744461 0.744461) rotate(0) translate(4 146)">
<title>g</title>
<polygon fill="white" stroke="none" points="-4,4 -4,-146 673,-146 673,4 -4,4"/>
<!-- N0 -->
<g id="node1" class="node"><title>N0</title>
<path fill="#ffffff" stroke="#2e3436" stroke-width="1.5" d="M11.5,-98.5C11.5,-98.5 66.5,-98.5 66.5,-98.5 72.5,-98.5 78.5,-104.5 78.5,-110.5 78.5,-110.5 78.5,-129.5 78.5,-129.5 78.5,-135.5 72.5,-141.5 66.5,-141.5 66.5,-141.5 11.5,-141.5 11.5,-141.5 5.5,-141.5 -0.5,-135.5 -0.5,-129.5 -0.5,-129.5 -0.5,-110.5 -0.5,-110.5 -0.5,-104.5 5.5,-98.5 11.5,-98.5"/>
<text text-anchor="middle" x="39" y="-131.1" font-family="FreeSans" font-size="8.00" fill="#1c2021">Movie</text>
<polyline fill="none" stroke="#2e3436" stroke-width="1.5" points="-0.5,-124.5 78.5,-124.5 "/>
<text text-anchor="start" x="7.5" y="-114.1" font-family="FreeSans" font-size="8.00" fill="#1c2021">title = &#39;The Matrix&#39;</text>
<text text-anchor="start" x="7.5" y="-105.1" font-family="FreeSans" font-size="8.00" fill="#1c2021">released = 1997</text>
</g>
<!-- N1 -->
<g id="node2" class="node"><title>N1</title>
<path fill="#ffffff" stroke="#2e3436" stroke-width="1.5" d="M119.5,-98.5C119.5,-98.5 196.5,-98.5 196.5,-98.5 202.5,-98.5 208.5,-104.5 208.5,-110.5 208.5,-110.5 208.5,-129.5 208.5,-129.5 208.5,-135.5 202.5,-141.5 196.5,-141.5 196.5,-141.5 119.5,-141.5 119.5,-141.5 113.5,-141.5 107.5,-135.5 107.5,-129.5 107.5,-129.5 107.5,-110.5 107.5,-110.5 107.5,-104.5 113.5,-98.5 119.5,-98.5"/>
<text text-anchor="middle" x="158" y="-131.1" font-family="FreeSans" font-size="8.00" fill="#1c2021">Person</text>
<polyline fill="none" stroke="#2e3436" stroke-width="1.5" points="107.5,-124.5 208.5,-124.5 "/>
<text text-anchor="start" x="115.5" y="-114.1" font-family="FreeSans" font-size="8.00" fill="#1c2021">name = &#39;Keanu Reeves&#39;</text>
<text text-anchor="start" x="115.5" y="-105.1" font-family="FreeSans" font-size="8.00" fill="#1c2021">born = 1964</text>
</g>
<!-- N2 -->
<g id="node3" class="node"><title>N2</title>
<path fill="#ffffff" stroke="#2e3436" stroke-width="1.5" d="M249.5,-98.5C249.5,-98.5 316.5,-98.5 316.5,-98.5 322.5,-98.5 328.5,-104.5 328.5,-110.5 328.5,-110.5 328.5,-129.5 328.5,-129.5 328.5,-135.5 322.5,-141.5 316.5,-141.5 316.5,-141.5 249.5,-141.5 249.5,-141.5 243.5,-141.5 237.5,-135.5 237.5,-129.5 237.5,-129.5 237.5,-110.5 237.5,-110.5 237.5,-104.5 243.5,-98.5 249.5,-98.5"/>
<text text-anchor="middle" x="283" y="-131.1" font-family="FreeSans" font-size="8.00" fill="#1c2021">Person</text>
<polyline fill="none" stroke="#2e3436" stroke-width="1.5" points="237.5,-124.5 328.5,-124.5 "/>
<text text-anchor="start" x="245.5" y="-114.1" font-family="FreeSans" font-size="8.00" fill="#1c2021">name = &#39;Tom Hanks&#39;</text>
<text text-anchor="start" x="245.5" y="-105.1" font-family="FreeSans" font-size="8.00" fill="#1c2021">born = 1956</text>
</g>
<!-- N3 -->
<g id="node4" class="node"><title>N3</title>
<path fill="#ffffff" stroke="#2e3436" stroke-width="1.5" d="M371.5,-0.5C371.5,-0.5 438.5,-0.5 438.5,-0.5 444.5,-0.5 450.5,-6.5 450.5,-12.5 450.5,-12.5 450.5,-31.5 450.5,-31.5 450.5,-37.5 444.5,-43.5 438.5,-43.5 438.5,-43.5 371.5,-43.5 371.5,-43.5 365.5,-43.5 359.5,-37.5 359.5,-31.5 359.5,-31.5 359.5,-12.5 359.5,-12.5 359.5,-6.5 365.5,-0.5 371.5,-0.5"/>
<text text-anchor="middle" x="405" y="-33.1" font-family="FreeSans" font-size="8.00" fill="#1c2021">Movie</text>
<polyline fill="none" stroke="#2e3436" stroke-width="1.5" points="359.5,-26.5 450.5,-26.5 "/>
<text text-anchor="start" x="367.5" y="-16.1" font-family="FreeSans" font-size="8.00" fill="#1c2021">title = &#39;Forrest Gump&#39;</text>
<text text-anchor="start" x="367.5" y="-7.1" font-family="FreeSans" font-size="8.00" fill="#1c2021">released = 1994</text>
</g>
<!-- N2&#45;&gt;N3 -->
<g id="edge1" class="edge"><title>N2&#45;&gt;N3</title>
<path fill="none" stroke="#2e3436" stroke-width="2" d="M307.318,-98.3487C320.413,-87.3717 336.93,-73.7541 352,-62 357.878,-57.4155 364.202,-52.6344 370.364,-48.0547"/>
<polygon fill="#2e3436" stroke="#2e3436" stroke-width="2" points="376.449,-43.5569 372.424,-50.729 373.731,-46.188 370.715,-48.417 370.418,-48.015 370.121,-47.6129 373.136,-45.3838 368.412,-45.3009 376.449,-43.5569 376.449,-43.5569"/>
<text text-anchor="middle" x="382.5" y="-73.6" font-family="FreeSans" font-size="8.00" fill="#2e3436">ACTED_IN</text>
<text text-anchor="start" x="352" y="-64.6" font-family="FreeSans" font-size="8.00" fill="#2e3436">roles = [&#39;Forrest&#39;]</text>
</g>
<!-- N5 -->
<g id="node5" class="node"><title>N5</title>
<path fill="#ffffff" stroke="#2e3436" stroke-width="1.5" d="M224.5,-0.5C224.5,-0.5 281.5,-0.5 281.5,-0.5 287.5,-0.5 293.5,-6.5 293.5,-12.5 293.5,-12.5 293.5,-31.5 293.5,-31.5 293.5,-37.5 287.5,-43.5 281.5,-43.5 281.5,-43.5 224.5,-43.5 224.5,-43.5 218.5,-43.5 212.5,-37.5 212.5,-31.5 212.5,-31.5 212.5,-12.5 212.5,-12.5 212.5,-6.5 218.5,-0.5 224.5,-0.5"/>
<text text-anchor="middle" x="253" y="-33.1" font-family="FreeSans" font-size="8.00" fill="#1c2021">Movie</text>
<polyline fill="none" stroke="#2e3436" stroke-width="1.5" points="212.5,-26.5 293.5,-26.5 "/>
<text text-anchor="start" x="220.5" y="-16.1" font-family="FreeSans" font-size="8.00" fill="#1c2021">title = &#39;Cloud Atlas&#39;</text>
<text text-anchor="start" x="220.5" y="-7.1" font-family="FreeSans" font-size="8.00" fill="#1c2021">released = 2012</text>
</g>
<!-- N2&#45;&gt;N5 -->
<g id="edge2" class="edge"><title>N2&#45;&gt;N5</title>
<path fill="none" stroke="#2e3436" stroke-width="2" d="M261.768,-98.4C257.37,-92.8797 253.36,-86.5972 251,-80 247.769,-70.9681 247.27,-60.6094 247.897,-51.2216"/>
<polygon fill="#2e3436" stroke="#2e3436" stroke-width="2" points="248.654,-43.6145 251.27,-51.4119 248.78,-47.3956 248.409,-51.1271 247.911,-51.0776 247.414,-51.0281 247.785,-47.2965 244.553,-50.7433 248.654,-43.6145 248.654,-43.6145"/>
<text text-anchor="middle" x="281" y="-73.6" font-family="FreeSans" font-size="8.00" fill="#2e3436">ACTED_IN</text>
<text text-anchor="start" x="251" y="-64.6" font-family="FreeSans" font-size="8.00" fill="#2e3436">roles = [&#39;Zachry&#39;]</text>
</g>
<!-- N4 -->
<g id="node6" class="node"><title>N4</title>
<path fill="#ffffff" stroke="#2e3436" stroke-width="1.5" d="M398.5,-98.5C398.5,-98.5 485.5,-98.5 485.5,-98.5 491.5,-98.5 497.5,-104.5 497.5,-110.5 497.5,-110.5 497.5,-129.5 497.5,-129.5 497.5,-135.5 491.5,-141.5 485.5,-141.5 485.5,-141.5 398.5,-141.5 398.5,-141.5 392.5,-141.5 386.5,-135.5 386.5,-129.5 386.5,-129.5 386.5,-110.5 386.5,-110.5 386.5,-104.5 392.5,-98.5 398.5,-98.5"/>
<text text-anchor="middle" x="442" y="-131.1" font-family="FreeSans" font-size="8.00" fill="#1c2021">Person</text>
<polyline fill="none" stroke="#2e3436" stroke-width="1.5" points="386.5,-124.5 497.5,-124.5 "/>
<text text-anchor="start" x="394.5" y="-114.1" font-family="FreeSans" font-size="8.00" fill="#1c2021">name = &#39;Robert Zemeckis&#39;</text>
<text text-anchor="start" x="394.5" y="-105.1" font-family="FreeSans" font-size="8.00" fill="#1c2021">born = 1951</text>
</g>
<!-- N4&#45;&gt;N3 -->
<g id="edge3" class="edge"><title>N4&#45;&gt;N3</title>
<path fill="none" stroke="#4e9a06" stroke-width="2" d="M433.972,-98.1694C428.638,-84.3314 421.573,-66.0013 415.756,-50.9064"/>
<polygon fill="#4e9a06" stroke="#4e9a06" stroke-width="2" points="413.013,-43.7899 418.859,-49.5744 414.828,-47.1092 416.177,-50.6083 415.71,-50.7881 415.244,-50.968 413.895,-47.4688 412.561,-52.0019 413.013,-43.7899 413.013,-43.7899"/>
<text text-anchor="middle" x="447.5" y="-69.1" font-family="FreeSans" font-size="8.00" fill="#4e9a06">DIRECTED</text>
</g>
<!-- N6 -->
<g id="node7" class="node"><title>N6</title>
<path fill="#ffffff" stroke="#2e3436" stroke-width="1.5" d="M580.5,-4C580.5,-4 615.5,-4 615.5,-4 621.5,-4 627.5,-10 627.5,-16 627.5,-16 627.5,-28 627.5,-28 627.5,-34 621.5,-40 615.5,-40 615.5,-40 580.5,-40 580.5,-40 574.5,-40 568.5,-34 568.5,-28 568.5,-28 568.5,-16 568.5,-16 568.5,-10 574.5,-4 580.5,-4"/>
<text text-anchor="middle" x="598" y="-29.1" font-family="FreeSans" font-size="8.00" fill="#1c2021">Year</text>
<polyline fill="none" stroke="#2e3436" stroke-width="1.5" points="568.5,-22 627.5,-22 "/>
<text text-anchor="start" x="576.5" y="-11.1" font-family="FreeSans" font-size="8.00" fill="#1c2021">year = 2014</text>
</g>
<!-- N7 -->
<g id="node8" class="node"><title>N7</title>
<path fill="#ffffff" stroke="#2e3436" stroke-width="1.5" d="M538.5,-102C538.5,-102 571.5,-102 571.5,-102 577.5,-102 583.5,-108 583.5,-114 583.5,-114 583.5,-126 583.5,-126 583.5,-132 577.5,-138 571.5,-138 571.5,-138 538.5,-138 538.5,-138 532.5,-138 526.5,-132 526.5,-126 526.5,-126 526.5,-114 526.5,-114 526.5,-108 532.5,-102 538.5,-102"/>
<text text-anchor="middle" x="555" y="-127.1" font-family="FreeSans" font-size="8.00" fill="#1c2021">Month</text>
<polyline fill="none" stroke="#2e3436" stroke-width="1.5" points="526.5,-120 583.5,-120 "/>
<text text-anchor="start" x="534.5" y="-109.1" font-family="FreeSans" font-size="8.00" fill="#1c2021">month = 10</text>
</g>
<!-- N7&#45;&gt;N6 -->
<g id="edge4" class="edge"><title>N7&#45;&gt;N6</title>
<path fill="none" stroke="#a40000" stroke-width="2" d="M557.789,-101.976C560.096,-90.3416 563.985,-74.7762 570,-62 572.546,-56.5915 575.863,-51.1525 579.32,-46.1246"/>
<polygon fill="#a40000" stroke="#a40000" stroke-width="2" points="583.724,-40.0089 582.08,-48.0672 581.938,-43.3441 579.747,-46.387 579.341,-46.0947 578.935,-45.8025 581.127,-42.7596 576.602,-44.1222 583.724,-40.0089 583.724,-40.0089"/>
<text text-anchor="middle" x="587.5" y="-69.1" font-family="FreeSans" font-size="8.00" fill="#a40000">IN_YEAR</text>
</g>
<!-- N8 -->
<g id="node9" class="node"><title>N8</title>
<path fill="#ffffff" stroke="#2e3436" stroke-width="1.5" d="M624.5,-102C624.5,-102 657.5,-102 657.5,-102 663.5,-102 669.5,-108 669.5,-114 669.5,-114 669.5,-126 669.5,-126 669.5,-132 663.5,-138 657.5,-138 657.5,-138 624.5,-138 624.5,-138 618.5,-138 612.5,-132 612.5,-126 612.5,-126 612.5,-114 612.5,-114 612.5,-108 618.5,-102 624.5,-102"/>
<text text-anchor="middle" x="641" y="-127.1" font-family="FreeSans" font-size="8.00" fill="#1c2021">Month</text>
<polyline fill="none" stroke="#2e3436" stroke-width="1.5" points="612.5,-120 669.5,-120 "/>
<text text-anchor="start" x="620.5" y="-109.1" font-family="FreeSans" font-size="8.00" fill="#1c2021">month = 11</text>
</g>
<!-- N8&#45;&gt;N6 -->
<g id="edge5" class="edge"><title>N8&#45;&gt;N6</title>
<path fill="none" stroke="#a40000" stroke-width="2" d="M633.312,-101.837C626.464,-86.5475 616.373,-64.0188 608.73,-46.9555"/>
<polygon fill="#a40000" stroke="#a40000" stroke-width="2" points="605.621,-40.0143 611.767,-45.4794 607.61,-43.2323 609.143,-46.6546 608.687,-46.859 608.231,-47.0634 606.698,-43.6411 605.607,-48.2387 605.621,-40.0143 605.621,-40.0143"/>
<text text-anchor="middle" x="640.5" y="-69.1" font-family="FreeSans" font-size="8.00" fill="#a40000">IN_YEAR</text>
</g>
</g>
</svg>
