<?xml version="1.0" encoding="UTF-8" standalone="no"?>
<!DOCTYPE svg PUBLIC "-//W3C//DTD SVG 1.1//EN"
 "http://www.w3.org/Graphics/SVG/1.1/DTD/svg11.dtd">
<!-- Generated by graphviz version 2.38.0 (20140413.2041)
 -->
<!-- Title: g Pages: 1 -->
<svg width="151pt" height="127pt"
 viewBox="0.00 0.00 151.00 127.00" xmlns="http://www.w3.org/2000/svg" xmlns:xlink="http://www.w3.org/1999/xlink">
<g id="graph0" class="graph" transform="scale(1 1) rotate(0) translate(4 123)">
<title>g</title>
<polygon fill="white" stroke="none" points="-4,4 -4,-123 147,-123 147,4 -4,4"/>
<!-- N6 -->
<g id="node1" class="node"><title>N6</title>
<path fill="#ffffff" stroke="#2e3436" stroke-width="1.5" d="M54,-0.5C54,-0.5 89,-0.5 89,-0.5 95,-0.5 101,-6.5 101,-12.5 101,-12.5 101,-24.5 101,-24.5 101,-30.5 95,-36.5 89,-36.5 89,-36.5 54,-36.5 54,-36.5 48,-36.5 42,-30.5 42,-24.5 42,-24.5 42,-12.5 42,-12.5 42,-6.5 48,-0.5 54,-0.5"/>
<text text-anchor="middle" x="71.5" y="-25.6" font-family="FreeSans" font-size="8.00" fill="#1c2021">Year</text>
<polyline fill="none" stroke="#2e3436" stroke-width="1.5" points="42,-18.5 101,-18.5 "/>
<text text-anchor="start" x="50" y="-7.6" font-family="FreeSans" font-size="8.00" fill="#1c2021">year = 2014</text>
</g>
<!-- N8 -->
<g id="node2" class="node"><title>N8</title>
<path fill="#ffffff" stroke="#2e3436" stroke-width="1.5" d="M12,-82.5C12,-82.5 45,-82.5 45,-82.5 51,-82.5 57,-88.5 57,-94.5 57,-94.5 57,-106.5 57,-106.5 57,-112.5 51,-118.5 45,-118.5 45,-118.5 12,-118.5 12,-118.5 6,-118.5 0,-112.5 0,-106.5 0,-106.5 0,-94.5 0,-94.5 0,-88.5 6,-82.5 12,-82.5"/>
<text text-anchor="middle" x="28.5" y="-107.6" font-family="FreeSans" font-size="8.00" fill="#1c2021">Month</text>
<polyline fill="none" stroke="#2e3436" stroke-width="1.5" points="0,-100.5 57,-100.5 "/>
<text text-anchor="start" x="8" y="-89.6" font-family="FreeSans" font-size="8.00" fill="#1c2021">month = 11</text>
</g>
<!-- N8&#45;&gt;N6 -->
<g id="edge1" class="edge"><title>N8&#45;&gt;N6</title>
<path fill="none" stroke="#2e3436" stroke-width="2" d="M32.7566,-82.4501C35.2527,-73.9176 38.8399,-63.6022 43.5,-55 45.7574,-50.833 48.5074,-46.657 51.3921,-42.7079"/>
<polygon fill="#2e3436" stroke="#2e3436" stroke-width="2" points="55.9846,-36.7231 54.0963,-44.7278 54.0984,-40.0025 51.8154,-42.9776 51.4188,-42.6732 51.0221,-42.3688 53.305,-39.3937 48.7412,-40.6185 55.9846,-36.7231 55.9846,-36.7231"/>
<text text-anchor="middle" x="61" y="-57.6" font-family="FreeSans" font-size="8.00" fill="#2e3436">IN_YEAR</text>
</g>
<!-- N7 -->
<g id="node3" class="node"><title>N7</title>
<path fill="#ffffff" stroke="#2e3436" stroke-width="1.5" d="M98,-82.5C98,-82.5 131,-82.5 131,-82.5 137,-82.5 143,-88.5 143,-94.5 143,-94.5 143,-106.5 143,-106.5 143,-112.5 137,-118.5 131,-118.5 131,-118.5 98,-118.5 98,-118.5 92,-118.5 86,-112.5 86,-106.5 86,-106.5 86,-94.5 86,-94.5 86,-88.5 92,-82.5 98,-82.5"/>
<text text-anchor="middle" x="114.5" y="-107.6" font-family="FreeSans" font-size="8.00" fill="#1c2021">Month</text>
<polyline fill="none" stroke="#2e3436" stroke-width="1.5" points="86,-100.5 143,-100.5 "/>
<text text-anchor="start" x="94" y="-89.6" font-family="FreeSans" font-size="8.00" fill="#1c2021">month = 10</text>
</g>
<!-- N7&#45;&gt;N6 -->
<g id="edge2" class="edge"><title>N7&#45;&gt;N6</title>
<path fill="none" stroke="#2e3436" stroke-width="2" d="M105.17,-82.1412C99.0424,-70.7416 90.9489,-55.6839 84.2327,-43.1887"/>
<polygon fill="#2e3436" stroke="#2e3436" stroke-width="2" points="80.6644,-36.5501 87.1881,-41.5584 82.8803,-39.6165 84.6557,-42.9196 84.2153,-43.1563 83.7749,-43.393 81.9995,-40.0899 81.2425,-44.7542 80.6644,-36.5501 80.6644,-36.5501"/>
<text text-anchor="middle" x="111" y="-57.6" font-family="FreeSans" font-size="8.00" fill="#2e3436">IN_YEAR</text>
</g>
</g>
</svg>
