<?xml version="1.0" encoding="UTF-8" standalone="no"?>
<!DOCTYPE svg PUBLIC "-//W3C//DTD SVG 1.1//EN"
 "http://www.w3.org/Graphics/SVG/1.1/DTD/svg11.dtd">
<!-- Generated by graphviz version 2.36.0 (20140111.2315)
 -->
<!-- Title: g Pages: 1 -->
<svg width="66pt" height="298pt"
 viewBox="0.00 0.00 66.00 298.00" xmlns="http://www.w3.org/2000/svg" xmlns:xlink="http://www.w3.org/1999/xlink">
<g id="graph0" class="graph" transform="scale(1 1) rotate(0) translate(4 294)">
<title>g</title>
<polygon fill="white" stroke="none" points="-4,4 -4,-294 62,-294 62,4 -4,4"/>
<!-- N0 -->
<g id="node1" class="node"><title>N0</title>
<path fill="#ffffff" stroke="#2e3436" stroke-width="1.5" d="M11.5,-1C11.5,-1 42.5,-1 42.5,-1 48.5,-1 54.5,-7 54.5,-13 54.5,-13 54.5,-25 54.5,-25 54.5,-31 48.5,-37 42.5,-37 42.5,-37 11.5,-37 11.5,-37 5.5,-37 -0.5,-31 -0.5,-25 -0.5,-25 -0.5,-13 -0.5,-13 -0.5,-7 5.5,-1 11.5,-1"/>
<text text-anchor="start" x="7.5" y="-17.1" font-family="FreeSans" font-size="8.00" fill="#1c2021">name = &#39;D&#39;</text>
</g>
<!-- N1 -->
<g id="node2" class="node"><title>N1</title>
<path fill="#ffffff" stroke="#2e3436" stroke-width="1.5" d="M12,-253C12,-253 42,-253 42,-253 48,-253 54,-259 54,-265 54,-265 54,-277 54,-277 54,-283 48,-289 42,-289 42,-289 12,-289 12,-289 6,-289 0,-283 0,-277 0,-277 0,-265 0,-265 0,-259 6,-253 12,-253"/>
<text text-anchor="start" x="8" y="-269.1" font-family="FreeSans" font-size="8.00" fill="#1c2021">name = &#39;A&#39;</text>
</g>
<!-- N2 -->
<g id="node3" class="node"><title>N2</title>
<path fill="#ffffff" stroke="#2e3436" stroke-width="1.5" d="M12,-169C12,-169 42,-169 42,-169 48,-169 54,-175 54,-181 54,-181 54,-193 54,-193 54,-199 48,-205 42,-205 42,-205 12,-205 12,-205 6,-205 0,-199 0,-193 0,-193 0,-181 0,-181 0,-175 6,-169 12,-169"/>
<text text-anchor="start" x="8" y="-185.1" font-family="FreeSans" font-size="8.00" fill="#1c2021">name = &#39;B&#39;</text>
</g>
<!-- N1&#45;&gt;N2 -->
<g id="edge1" class="edge"><title>N1&#45;&gt;N2</title>
<path fill="none" stroke="#2e3436" stroke-width="2" d="M27,-252.61C27,-241.008 27,-225.58 27,-212.71"/>
<polygon fill="#2e3436" stroke="#2e3436" stroke-width="2" points="27,-205.084 30.3751,-212.584 27.5,-208.834 27.5001,-212.584 27.0001,-212.584 26.5001,-212.584 26.5,-208.834 23.6251,-212.584 27,-205.084 27,-205.084"/>
<text text-anchor="middle" x="42.5" y="-227.1" font-family="FreeSans" font-size="8.00" fill="#2e3436">KNOWS</text>
</g>
<!-- N3 -->
<g id="node4" class="node"><title>N3</title>
<path fill="#ffffff" stroke="#2e3436" stroke-width="1.5" d="M11.5,-85C11.5,-85 42.5,-85 42.5,-85 48.5,-85 54.5,-91 54.5,-97 54.5,-97 54.5,-109 54.5,-109 54.5,-115 48.5,-121 42.5,-121 42.5,-121 11.5,-121 11.5,-121 5.5,-121 -0.5,-115 -0.5,-109 -0.5,-109 -0.5,-97 -0.5,-97 -0.5,-91 5.5,-85 11.5,-85"/>
<text text-anchor="start" x="7.5" y="-101.1" font-family="FreeSans" font-size="8.00" fill="#1c2021">name = &#39;C&#39;</text>
</g>
<!-- N2&#45;&gt;N3 -->
<g id="edge2" class="edge"><title>N2&#45;&gt;N3</title>
<path fill="none" stroke="#2e3436" stroke-width="2" d="M27,-168.61C27,-157.008 27,-141.58 27,-128.71"/>
<polygon fill="#2e3436" stroke="#2e3436" stroke-width="2" points="27,-121.084 30.3751,-128.584 27.5,-124.834 27.5001,-128.584 27.0001,-128.584 26.5001,-128.584 26.5,-124.834 23.6251,-128.584 27,-121.084 27,-121.084"/>
<text text-anchor="middle" x="42.5" y="-143.1" font-family="FreeSans" font-size="8.00" fill="#2e3436">KNOWS</text>
</g>
<!-- N3&#45;&gt;N0 -->
<g id="edge3" class="edge"><title>N3&#45;&gt;N0</title>
<path fill="none" stroke="#2e3436" stroke-width="2" d="M27,-84.6099C27,-73.0081 27,-57.5802 27,-44.7099"/>
<polygon fill="#2e3436" stroke="#2e3436" stroke-width="2" points="27,-37.0838 30.3751,-44.5838 27.5,-40.8338 27.5001,-44.5838 27.0001,-44.5838 26.5001,-44.5838 26.5,-40.8338 23.6251,-44.5839 27,-37.0838 27,-37.0838"/>
<text text-anchor="middle" x="42.5" y="-59.1" font-family="FreeSans" font-size="8.00" fill="#2e3436">KNOWS</text>
</g>
</g>
</svg>
