<?xml version="1.0" encoding="UTF-8" standalone="no"?>
<!DOCTYPE svg PUBLIC "-//W3C//DTD SVG 1.1//EN"
 "http://www.w3.org/Graphics/SVG/1.1/DTD/svg11.dtd">
<!-- Generated by graphviz version 2.36.0 (20140111.2315)
 -->
<!-- Title: g Pages: 1 -->
<svg width="216pt" height="52pt"
 viewBox="0.00 0.00 216.00 52.00" xmlns="http://www.w3.org/2000/svg" xmlns:xlink="http://www.w3.org/1999/xlink">
<g id="graph0" class="graph" transform="scale(1 1) rotate(0) translate(4 48)">
<title>g</title>
<polygon fill="white" stroke="none" points="-4,4 -4,-48 212,-48 212,4 -4,4"/>
<!-- N0 -->
<g id="node1" class="node"><title>N0</title>
<path fill="#ffffff" stroke="#2e3436" stroke-width="1.5" d="M11.5,-0.5C11.5,-0.5 66.5,-0.5 66.5,-0.5 72.5,-0.5 78.5,-6.5 78.5,-12.5 78.5,-12.5 78.5,-31.5 78.5,-31.5 78.5,-37.5 72.5,-43.5 66.5,-43.5 66.5,-43.5 11.5,-43.5 11.5,-43.5 5.5,-43.5 -0.5,-37.5 -0.5,-31.5 -0.5,-31.5 -0.5,-12.5 -0.5,-12.5 -0.5,-6.5 5.5,-0.5 11.5,-0.5"/>
<text text-anchor="middle" x="39" y="-33.1" font-family="FreeSans" font-size="8.00" fill="#1c2021">Movie</text>
<polyline fill="none" stroke="#2e3436" stroke-width="1.5" points="-0.5,-26.5 78.5,-26.5 "/>
<text text-anchor="start" x="7.5" y="-16.1" font-family="FreeSans" font-size="8.00" fill="#1c2021">title = &#39;The Matrix&#39;</text>
<text text-anchor="start" x="7.5" y="-7.1" font-family="FreeSans" font-size="8.00" fill="#1c2021">released = 1997</text>
</g>
<!-- N1 -->
<g id="node2" class="node"><title>N1</title>
<path fill="#ffffff" stroke="#2e3436" stroke-width="1.5" d="M119.5,-0.5C119.5,-0.5 196.5,-0.5 196.5,-0.5 202.5,-0.5 208.5,-6.5 208.5,-12.5 208.5,-12.5 208.5,-31.5 208.5,-31.5 208.5,-37.5 202.5,-43.5 196.5,-43.5 196.5,-43.5 119.5,-43.5 119.5,-43.5 113.5,-43.5 107.5,-37.5 107.5,-31.5 107.5,-31.5 107.5,-12.5 107.5,-12.5 107.5,-6.5 113.5,-0.5 119.5,-0.5"/>
<text text-anchor="middle" x="158" y="-33.1" font-family="FreeSans" font-size="8.00" fill="#1c2021">Person</text>
<polyline fill="none" stroke="#2e3436" stroke-width="1.5" points="107.5,-26.5 208.5,-26.5 "/>
<text text-anchor="start" x="115.5" y="-16.1" font-family="FreeSans" font-size="8.00" fill="#1c2021">name = &#39;Keanu Reeves&#39;</text>
<text text-anchor="start" x="115.5" y="-7.1" font-family="FreeSans" font-size="8.00" fill="#1c2021">born = 1964</text>
</g>
</g>
</svg>
