<?xml version="1.0" encoding="UTF-8" standalone="no"?>
<!DOCTYPE svg PUBLIC "-//W3C//DTD SVG 1.1//EN"
 "http://www.w3.org/Graphics/SVG/1.1/DTD/svg11.dtd">
<!-- Generated by graphviz version 2.38.0 (20140413.2041)
 -->
<!-- Title: g Pages: 1 -->
<svg width="259pt" height="291pt"
 viewBox="0.00 0.00 259.00 291.00" xmlns="http://www.w3.org/2000/svg" xmlns:xlink="http://www.w3.org/1999/xlink">
<g id="graph0" class="graph" transform="scale(1 1) rotate(0) translate(4 287)">
<title>g</title>
<polygon fill="white" stroke="none" points="-4,4 -4,-287 255,-287 255,4 -4,4"/>
<!-- N0 -->
<g id="node1" class="node"><title>N0</title>
<path fill="#ffffff" stroke="#2e3436" stroke-width="1.5" d="M31.5,-82.5C31.5,-82.5 66.5,-82.5 66.5,-82.5 72.5,-82.5 78.5,-88.5 78.5,-94.5 78.5,-94.5 78.5,-106.5 78.5,-106.5 78.5,-112.5 72.5,-118.5 66.5,-118.5 66.5,-118.5 31.5,-118.5 31.5,-118.5 25.5,-118.5 19.5,-112.5 19.5,-106.5 19.5,-106.5 19.5,-94.5 19.5,-94.5 19.5,-88.5 25.5,-82.5 31.5,-82.5"/>
<text text-anchor="start" x="27.5" y="-98.6" font-family="FreeSans" font-size="8.00" fill="#1c2021">name = &#39;Bill&#39;</text>
</g>
<!-- N3 -->
<g id="node2" class="node"><title>N3</title>
<path fill="#ffffff" stroke="#2e3436" stroke-width="1.5" d="M119,-0.5C119,-0.5 155,-0.5 155,-0.5 161,-0.5 167,-6.5 167,-12.5 167,-12.5 167,-24.5 167,-24.5 167,-30.5 161,-36.5 155,-36.5 155,-36.5 119,-36.5 119,-36.5 113,-36.5 107,-30.5 107,-24.5 107,-24.5 107,-12.5 107,-12.5 107,-6.5 113,-0.5 119,-0.5"/>
<text text-anchor="start" x="115" y="-16.6" font-family="FreeSans" font-size="8.00" fill="#1c2021">name = &#39;Ian&#39;</text>
</g>
<!-- N0&#45;&gt;N3 -->
<g id="edge1" class="edge"><title>N0&#45;&gt;N3</title>
<path fill="none" stroke="#2e3436" stroke-width="2" d="M65.7467,-82.227C74.0697,-73.8278 84.3819,-63.694 94,-55 98.852,-50.6141 104.138,-46.0706 109.291,-41.7582"/>
<polygon fill="#2e3436" stroke="#2e3436" stroke-width="2" points="115.245,-36.8252 111.623,-44.2091 112.676,-39.6027 109.789,-41.9952 109.47,-41.6101 109.151,-41.2251 112.038,-38.8326 107.316,-39.0112 115.245,-36.8252 115.245,-36.8252"/>
<text text-anchor="middle" x="106" y="-57.6" font-family="FreeSans" font-size="8.00" fill="#2e3436">knows</text>
</g>
<!-- N2 -->
<g id="node3" class="node"><title>N2</title>
<path fill="#ffffff" stroke="#2e3436" stroke-width="1.5" d="M12,-0.5C12,-0.5 64,-0.5 64,-0.5 70,-0.5 76,-6.5 76,-12.5 76,-12.5 76,-24.5 76,-24.5 76,-30.5 70,-36.5 64,-36.5 64,-36.5 12,-36.5 12,-36.5 6,-36.5 0,-30.5 0,-24.5 0,-24.5 0,-12.5 0,-12.5 0,-6.5 6,-0.5 12,-0.5"/>
<text text-anchor="start" x="8" y="-16.6" font-family="FreeSans" font-size="8.00" fill="#1c2021">name = &#39;Derrick&#39;</text>
</g>
<!-- N0&#45;&gt;N2 -->
<g id="edge2" class="edge"><title>N0&#45;&gt;N2</title>
<path fill="none" stroke="#2e3436" stroke-width="2" d="M41.2653,-82.1421C39.1162,-76.4748 37.0773,-70.0748 36,-64 34.8796,-57.6822 34.6955,-50.7853 34.9585,-44.3484"/>
<polygon fill="#2e3436" stroke="#2e3436" stroke-width="2" points="35.4939,-36.519 38.3493,-44.2319 35.7369,-40.2944 35.481,-44.0357 34.9821,-44.0015 34.4833,-43.9674 34.7392,-40.2262 31.615,-43.7712 35.4939,-36.519 35.4939,-36.519"/>
<text text-anchor="middle" x="48" y="-57.6" font-family="FreeSans" font-size="8.00" fill="#2e3436">knows</text>
</g>
<!-- N1 -->
<g id="node4" class="node"><title>N1</title>
<path fill="#ffffff" stroke="#2e3436" stroke-width="1.5" d="M115,-164.5C115,-164.5 157,-164.5 157,-164.5 163,-164.5 169,-170.5 169,-176.5 169,-176.5 169,-188.5 169,-188.5 169,-194.5 163,-200.5 157,-200.5 157,-200.5 115,-200.5 115,-200.5 109,-200.5 103,-194.5 103,-188.5 103,-188.5 103,-176.5 103,-176.5 103,-170.5 109,-164.5 115,-164.5"/>
<text text-anchor="start" x="111" y="-180.6" font-family="FreeSans" font-size="8.00" fill="#1c2021">name = &#39;Sara&#39;</text>
</g>
<!-- N1&#45;&gt;N0 -->
<g id="edge5" class="edge"><title>N1&#45;&gt;N0</title>
<path fill="none" stroke="#2e3436" stroke-width="2" d="M115.215,-164.481C108.361,-158.724 100.764,-152.185 94,-146 86.5253,-139.164 78.5986,-131.481 71.5146,-124.447"/>
<polygon fill="#2e3436" stroke="#2e3436" stroke-width="2" points="65.7907,-118.725 73.4808,-121.641 68.7961,-121.022 71.448,-123.674 71.0945,-124.027 70.741,-124.381 68.0891,-121.73 68.7082,-126.414 65.7907,-118.725 65.7907,-118.725"/>
<text text-anchor="middle" x="106" y="-139.6" font-family="FreeSans" font-size="8.00" fill="#2e3436">knows</text>
</g>
<!-- N1&#45;&gt;N3 -->
<g id="edge4" class="edge"><title>N1&#45;&gt;N3</title>
<path fill="none" stroke="#2e3436" stroke-width="2" d="M136.105,-164.469C136.282,-135.862 136.639,-78.0254 136.844,-44.7014"/>
<polygon fill="#2e3436" stroke="#2e3436" stroke-width="2" points="136.893,-36.79 140.222,-44.3108 137.37,-40.5431 137.347,-44.293 136.847,-44.2899 136.347,-44.2868 136.37,-40.5369 133.472,-44.269 136.893,-36.79 136.893,-36.79"/>
<text text-anchor="middle" x="149" y="-98.6" font-family="FreeSans" font-size="8.00" fill="#2e3436">knows</text>
</g>
<!-- N4 -->
<g id="node5" class="node"><title>N4</title>
<path fill="#ffffff" stroke="#2e3436" stroke-width="1.5" d="M205,-82.5C205,-82.5 239,-82.5 239,-82.5 245,-82.5 251,-88.5 251,-94.5 251,-94.5 251,-106.5 251,-106.5 251,-112.5 245,-118.5 239,-118.5 239,-118.5 205,-118.5 205,-118.5 199,-118.5 193,-112.5 193,-106.5 193,-106.5 193,-94.5 193,-94.5 193,-88.5 199,-82.5 205,-82.5"/>
<text text-anchor="start" x="201" y="-98.6" font-family="FreeSans" font-size="8.00" fill="#1c2021">name = &#39;Jill&#39;</text>
</g>
<!-- N1&#45;&gt;N4 -->
<g id="edge3" class="edge"><title>N1&#45;&gt;N4</title>
<path fill="none" stroke="#2e3436" stroke-width="2" d="M154.661,-164.141C167.369,-152.319 184.307,-136.564 198.015,-123.811"/>
<polygon fill="#2e3436" stroke="#2e3436" stroke-width="2" points="203.671,-118.55 200.478,-126.13 201.266,-121.47 198.52,-124.025 198.18,-123.658 197.839,-123.292 200.585,-120.738 195.881,-121.187 203.671,-118.55 203.671,-118.55"/>
<text text-anchor="middle" x="193" y="-139.6" font-family="FreeSans" font-size="8.00" fill="#2e3436">knows</text>
</g>
<!-- N5 -->
<g id="node6" class="node"><title>N5</title>
<path fill="#ffffff" stroke="#2e3436" stroke-width="1.5" d="M62,-246.5C62,-246.5 100,-246.5 100,-246.5 106,-246.5 112,-252.5 112,-258.5 112,-258.5 112,-270.5 112,-270.5 112,-276.5 106,-282.5 100,-282.5 100,-282.5 62,-282.5 62,-282.5 56,-282.5 50,-276.5 50,-270.5 50,-270.5 50,-258.5 50,-258.5 50,-252.5 56,-246.5 62,-246.5"/>
<text text-anchor="start" x="58" y="-262.6" font-family="FreeSans" font-size="8.00" fill="#1c2021">name = &#39;Joe&#39;</text>
</g>
<!-- N5&#45;&gt;N0 -->
<g id="edge7" class="edge"><title>N5&#45;&gt;N0</title>
<path fill="none" stroke="#2e3436" stroke-width="2" d="M75.7689,-246.387C72.0932,-233.899 67.268,-216.515 64,-201 58.6597,-175.647 54.4726,-146.274 51.8948,-126.048"/>
<polygon fill="#2e3436" stroke="#2e3436" stroke-width="2" points="50.9544,-118.508 55.2318,-125.533 51.9147,-122.168 52.3789,-125.889 51.8827,-125.951 51.3866,-126.013 50.9224,-122.291 48.5337,-126.368 50.9544,-118.508 50.9544,-118.508"/>
<text text-anchor="middle" x="76" y="-180.6" font-family="FreeSans" font-size="8.00" fill="#2e3436">knows</text>
</g>
<!-- N5&#45;&gt;N1 -->
<g id="edge6" class="edge"><title>N5&#45;&gt;N1</title>
<path fill="none" stroke="#2e3436" stroke-width="2" d="M92.9342,-246.141C100.844,-234.636 111.315,-219.405 119.952,-206.842"/>
<polygon fill="#2e3436" stroke="#2e3436" stroke-width="2" points="124.278,-200.55 122.81,-208.642 122.566,-203.924 120.441,-207.014 120.029,-206.73 119.617,-206.447 121.742,-203.357 117.248,-204.818 124.278,-200.55 124.278,-200.55"/>
<text text-anchor="middle" x="123" y="-221.6" font-family="FreeSans" font-size="8.00" fill="#2e3436">knows</text>
</g>
</g>
</svg>
