<?xml version="1.0" encoding="UTF-8" standalone="no"?>
<!DOCTYPE svg PUBLIC "-//W3C//DTD SVG 1.1//EN"
 "http://www.w3.org/Graphics/SVG/1.1/DTD/svg11.dtd">
<!-- Generated by graphviz version 2.38.0 (20140413.2041)
 -->
<!-- Title: g Pages: 1 -->
<svg width="504pt" height="149pt"
 viewBox="0.00 0.00 504.00 149.41" xmlns="http://www.w3.org/2000/svg" xmlns:xlink="http://www.w3.org/1999/xlink">
<g id="graph0" class="graph" transform="scale(0.996047 0.996047) rotate(0) translate(4 146)">
<title>g</title>
<polygon fill="white" stroke="none" points="-4,4 -4,-146 502,-146 502,4 -4,4"/>
<!-- N0 -->
<g id="node1" class="node"><title>N0</title>
<path fill="#ffffff" stroke="#2e3436" stroke-width="1.5" d="M12,-98.5C12,-98.5 67,-98.5 67,-98.5 73,-98.5 79,-104.5 79,-110.5 79,-110.5 79,-129.5 79,-129.5 79,-135.5 73,-141.5 67,-141.5 67,-141.5 12,-141.5 12,-141.5 6,-141.5 0,-135.5 0,-129.5 0,-129.5 0,-110.5 0,-110.5 0,-104.5 6,-98.5 12,-98.5"/>
<text text-anchor="middle" x="39.5" y="-131.1" font-family="FreeSans" font-size="8.00" fill="#1c2021">Movie</text>
<polyline fill="none" stroke="#2e3436" stroke-width="1.5" points="0,-124.5 79,-124.5 "/>
<text text-anchor="start" x="8" y="-114.1" font-family="FreeSans" font-size="8.00" fill="#1c2021">title = &#39;The Matrix&#39;</text>
<text text-anchor="start" x="8" y="-105.1" font-family="FreeSans" font-size="8.00" fill="#1c2021">released = 1997</text>
</g>
<!-- N1 -->
<g id="node2" class="node"><title>N1</title>
<path fill="#ffffff" stroke="#2e3436" stroke-width="1.5" d="M95,-0.5C95,-0.5 152,-0.5 152,-0.5 158,-0.5 164,-6.5 164,-12.5 164,-12.5 164,-31.5 164,-31.5 164,-37.5 158,-43.5 152,-43.5 152,-43.5 95,-43.5 95,-43.5 89,-43.5 83,-37.5 83,-31.5 83,-31.5 83,-12.5 83,-12.5 83,-6.5 89,-0.5 95,-0.5"/>
<text text-anchor="middle" x="123.5" y="-33.1" font-family="FreeSans" font-size="8.00" fill="#1c2021">Movie</text>
<polyline fill="none" stroke="#2e3436" stroke-width="1.5" points="83,-26.5 164,-26.5 "/>
<text text-anchor="start" x="91" y="-16.1" font-family="FreeSans" font-size="8.00" fill="#1c2021">title = &#39;Cloud Atlas&#39;</text>
<text text-anchor="start" x="91" y="-7.1" font-family="FreeSans" font-size="8.00" fill="#1c2021">released = 2012</text>
</g>
<!-- N2 -->
<g id="node3" class="node"><title>N2</title>
<path fill="#ffffff" stroke="#2e3436" stroke-width="1.5" d="M242,-0.5C242,-0.5 309,-0.5 309,-0.5 315,-0.5 321,-6.5 321,-12.5 321,-12.5 321,-31.5 321,-31.5 321,-37.5 315,-43.5 309,-43.5 309,-43.5 242,-43.5 242,-43.5 236,-43.5 230,-37.5 230,-31.5 230,-31.5 230,-12.5 230,-12.5 230,-6.5 236,-0.5 242,-0.5"/>
<text text-anchor="middle" x="275.5" y="-33.1" font-family="FreeSans" font-size="8.00" fill="#1c2021">Movie</text>
<polyline fill="none" stroke="#2e3436" stroke-width="1.5" points="230,-26.5 321,-26.5 "/>
<text text-anchor="start" x="238" y="-16.1" font-family="FreeSans" font-size="8.00" fill="#1c2021">title = &#39;Forrest Gump&#39;</text>
<text text-anchor="start" x="238" y="-7.1" font-family="FreeSans" font-size="8.00" fill="#1c2021">released = 1994</text>
</g>
<!-- N3 -->
<g id="node4" class="node"><title>N3</title>
<path fill="#ffffff" stroke="#2e3436" stroke-width="1.5" d="M409,-98.5C409,-98.5 486,-98.5 486,-98.5 492,-98.5 498,-104.5 498,-110.5 498,-110.5 498,-129.5 498,-129.5 498,-135.5 492,-141.5 486,-141.5 486,-141.5 409,-141.5 409,-141.5 403,-141.5 397,-135.5 397,-129.5 397,-129.5 397,-110.5 397,-110.5 397,-104.5 403,-98.5 409,-98.5"/>
<text text-anchor="middle" x="447.5" y="-131.1" font-family="FreeSans" font-size="8.00" fill="#1c2021">Person</text>
<polyline fill="none" stroke="#2e3436" stroke-width="1.5" points="397,-124.5 498,-124.5 "/>
<text text-anchor="start" x="405" y="-114.1" font-family="FreeSans" font-size="8.00" fill="#1c2021">name = &#39;Keanu Reeves&#39;</text>
<text text-anchor="start" x="405" y="-105.1" font-family="FreeSans" font-size="8.00" fill="#1c2021">born = 1964</text>
</g>
<!-- N4 -->
<g id="node5" class="node"><title>N4</title>
<path fill="#ffffff" stroke="#2e3436" stroke-width="1.5" d="M269,-98.5C269,-98.5 356,-98.5 356,-98.5 362,-98.5 368,-104.5 368,-110.5 368,-110.5 368,-129.5 368,-129.5 368,-135.5 362,-141.5 356,-141.5 356,-141.5 269,-141.5 269,-141.5 263,-141.5 257,-135.5 257,-129.5 257,-129.5 257,-110.5 257,-110.5 257,-104.5 263,-98.5 269,-98.5"/>
<text text-anchor="middle" x="312.5" y="-131.1" font-family="FreeSans" font-size="8.00" fill="#1c2021">Person</text>
<polyline fill="none" stroke="#2e3436" stroke-width="1.5" points="257,-124.5 368,-124.5 "/>
<text text-anchor="start" x="265" y="-114.1" font-family="FreeSans" font-size="8.00" fill="#1c2021">name = &#39;Robert Zemeckis&#39;</text>
<text text-anchor="start" x="265" y="-105.1" font-family="FreeSans" font-size="8.00" fill="#1c2021">born = 1951</text>
</g>
<!-- N4&#45;&gt;N2 -->
<g id="edge1" class="edge"><title>N4&#45;&gt;N2</title>
<path fill="none" stroke="#2e3436" stroke-width="2" d="M304.472,-98.1694C299.138,-84.3314 292.073,-66.0013 286.256,-50.9064"/>
<polygon fill="#2e3436" stroke="#2e3436" stroke-width="2" points="283.513,-43.7899 289.359,-49.5744 285.328,-47.1092 286.677,-50.6083 286.21,-50.7881 285.744,-50.968 284.395,-47.4688 283.061,-52.0019 283.513,-43.7899 283.513,-43.7899"/>
<text text-anchor="middle" x="318" y="-69.1" font-family="FreeSans" font-size="8.00" fill="#2e3436">DIRECTED</text>
</g>
<!-- N5 -->
<g id="node6" class="node"><title>N5</title>
<path fill="#ffffff" stroke="#2e3436" stroke-width="1.5" d="M120,-98.5C120,-98.5 187,-98.5 187,-98.5 193,-98.5 199,-104.5 199,-110.5 199,-110.5 199,-129.5 199,-129.5 199,-135.5 193,-141.5 187,-141.5 187,-141.5 120,-141.5 120,-141.5 114,-141.5 108,-135.5 108,-129.5 108,-129.5 108,-110.5 108,-110.5 108,-104.5 114,-98.5 120,-98.5"/>
<text text-anchor="middle" x="153.5" y="-131.1" font-family="FreeSans" font-size="8.00" fill="#1c2021">Person</text>
<polyline fill="none" stroke="#2e3436" stroke-width="1.5" points="108,-124.5 199,-124.5 "/>
<text text-anchor="start" x="116" y="-114.1" font-family="FreeSans" font-size="8.00" fill="#1c2021">name = &#39;Tom Hanks&#39;</text>
<text text-anchor="start" x="116" y="-105.1" font-family="FreeSans" font-size="8.00" fill="#1c2021">born = 1956</text>
</g>
<!-- N5&#45;&gt;N1 -->
<g id="edge2" class="edge"><title>N5&#45;&gt;N1</title>
<path fill="none" stroke="#4e9a06" stroke-width="2" d="M132.268,-98.4C127.87,-92.8797 123.86,-86.5972 121.5,-80 118.269,-70.9681 117.77,-60.6094 118.397,-51.2216"/>
<polygon fill="#4e9a06" stroke="#4e9a06" stroke-width="2" points="119.154,-43.6145 121.77,-51.4119 119.28,-47.3956 118.909,-51.1271 118.411,-51.0776 117.914,-51.0281 118.285,-47.2965 115.053,-50.7433 119.154,-43.6145 119.154,-43.6145"/>
<text text-anchor="middle" x="151.5" y="-73.6" font-family="FreeSans" font-size="8.00" fill="#4e9a06">ACTED_IN</text>
<text text-anchor="start" x="121.5" y="-64.6" font-family="FreeSans" font-size="8.00" fill="#4e9a06">roles = [&#39;Zachry&#39;]</text>
</g>
<!-- N5&#45;&gt;N2 -->
<g id="edge3" class="edge"><title>N5&#45;&gt;N2</title>
<path fill="none" stroke="#4e9a06" stroke-width="2" d="M177.818,-98.3487C190.913,-87.3717 207.43,-73.7541 222.5,-62 228.378,-57.4155 234.702,-52.6344 240.864,-48.0547"/>
<polygon fill="#4e9a06" stroke="#4e9a06" stroke-width="2" points="246.949,-43.5569 242.924,-50.729 244.231,-46.188 241.215,-48.417 240.918,-48.015 240.621,-47.6129 243.636,-45.3838 238.912,-45.3009 246.949,-43.5569 246.949,-43.5569"/>
<text text-anchor="middle" x="253" y="-73.6" font-family="FreeSans" font-size="8.00" fill="#4e9a06">ACTED_IN</text>
<text text-anchor="start" x="222.5" y="-64.6" font-family="FreeSans" font-size="8.00" fill="#4e9a06">roles = [&#39;Forrest&#39;]</text>
</g>
</g>
</svg>
