<?xml version="1.0" encoding="UTF-8" standalone="no"?>
<!DOCTYPE svg PUBLIC "-//W3C//DTD SVG 1.1//EN"
 "http://www.w3.org/Graphics/SVG/1.1/DTD/svg11.dtd">
<!-- Generated by graphviz version 2.36.0 (20140111.2315)
 -->
<!-- Title: g Pages: 1 -->
<svg width="476pt" height="150pt"
 viewBox="0.00 0.00 476.00 150.00" xmlns="http://www.w3.org/2000/svg" xmlns:xlink="http://www.w3.org/1999/xlink">
<g id="graph0" class="graph" transform="scale(1 1) rotate(0) translate(4 146)">
<title>g</title>
<polygon fill="white" stroke="none" points="-4,4 -4,-146 472,-146 472,4 -4,4"/>
<!-- N0 -->
<g id="node1" class="node"><title>N0</title>
<path fill="#ffffff" stroke="#2e3436" stroke-width="1.5" d="M11.5,-98.5C11.5,-98.5 66.5,-98.5 66.5,-98.5 72.5,-98.5 78.5,-104.5 78.5,-110.5 78.5,-110.5 78.5,-129.5 78.5,-129.5 78.5,-135.5 72.5,-141.5 66.5,-141.5 66.5,-141.5 11.5,-141.5 11.5,-141.5 5.5,-141.5 -0.5,-135.5 -0.5,-129.5 -0.5,-129.5 -0.5,-110.5 -0.5,-110.5 -0.5,-104.5 5.5,-98.5 11.5,-98.5"/>
<text text-anchor="middle" x="39" y="-131.1" font-family="FreeSans" font-size="8.00" fill="#1c2021">Movie</text>
<polyline fill="none" stroke="#2e3436" stroke-width="1.5" points="-0.5,-124.5 78.5,-124.5 "/>
<text text-anchor="start" x="7.5" y="-114.1" font-family="FreeSans" font-size="8.00" fill="#1c2021">title = &#39;The Matrix&#39;</text>
<text text-anchor="start" x="7.5" y="-105.1" font-family="FreeSans" font-size="8.00" fill="#1c2021">released = 1997</text>
</g>
<!-- N1 -->
<g id="node2" class="node"><title>N1</title>
<path fill="#ffffff" stroke="#2e3436" stroke-width="1.5" d="M119.5,-98.5C119.5,-98.5 196.5,-98.5 196.5,-98.5 202.5,-98.5 208.5,-104.5 208.5,-110.5 208.5,-110.5 208.5,-129.5 208.5,-129.5 208.5,-135.5 202.5,-141.5 196.5,-141.5 196.5,-141.5 119.5,-141.5 119.5,-141.5 113.5,-141.5 107.5,-135.5 107.5,-129.5 107.5,-129.5 107.5,-110.5 107.5,-110.5 107.5,-104.5 113.5,-98.5 119.5,-98.5"/>
<text text-anchor="middle" x="158" y="-131.1" font-family="FreeSans" font-size="8.00" fill="#1c2021">Person</text>
<polyline fill="none" stroke="#2e3436" stroke-width="1.5" points="107.5,-124.5 208.5,-124.5 "/>
<text text-anchor="start" x="115.5" y="-114.1" font-family="FreeSans" font-size="8.00" fill="#1c2021">name = &#39;Keanu Reeves&#39;</text>
<text text-anchor="start" x="115.5" y="-105.1" font-family="FreeSans" font-size="8.00" fill="#1c2021">born = 1964</text>
</g>
<!-- N2 -->
<g id="node3" class="node"><title>N2</title>
<path fill="#ffffff" stroke="#2e3436" stroke-width="1.5" d="M249.5,-98.5C249.5,-98.5 316.5,-98.5 316.5,-98.5 322.5,-98.5 328.5,-104.5 328.5,-110.5 328.5,-110.5 328.5,-129.5 328.5,-129.5 328.5,-135.5 322.5,-141.5 316.5,-141.5 316.5,-141.5 249.5,-141.5 249.5,-141.5 243.5,-141.5 237.5,-135.5 237.5,-129.5 237.5,-129.5 237.5,-110.5 237.5,-110.5 237.5,-104.5 243.5,-98.5 249.5,-98.5"/>
<text text-anchor="middle" x="283" y="-131.1" font-family="FreeSans" font-size="8.00" fill="#1c2021">Person</text>
<polyline fill="none" stroke="#2e3436" stroke-width="1.5" points="237.5,-124.5 328.5,-124.5 "/>
<text text-anchor="start" x="245.5" y="-114.1" font-family="FreeSans" font-size="8.00" fill="#1c2021">name = &#39;Tom Hanks&#39;</text>
<text text-anchor="start" x="245.5" y="-105.1" font-family="FreeSans" font-size="8.00" fill="#1c2021">born = 1956</text>
</g>
<!-- N3 -->
<g id="node4" class="node"><title>N3</title>
<path fill="#ffffff" stroke="#2e3436" stroke-width="1.5" d="M314.5,-0.5C314.5,-0.5 381.5,-0.5 381.5,-0.5 387.5,-0.5 393.5,-6.5 393.5,-12.5 393.5,-12.5 393.5,-31.5 393.5,-31.5 393.5,-37.5 387.5,-43.5 381.5,-43.5 381.5,-43.5 314.5,-43.5 314.5,-43.5 308.5,-43.5 302.5,-37.5 302.5,-31.5 302.5,-31.5 302.5,-12.5 302.5,-12.5 302.5,-6.5 308.5,-0.5 314.5,-0.5"/>
<text text-anchor="middle" x="348" y="-33.1" font-family="FreeSans" font-size="8.00" fill="#1c2021">Movie</text>
<polyline fill="none" stroke="#2e3436" stroke-width="1.5" points="302.5,-26.5 393.5,-26.5 "/>
<text text-anchor="start" x="310.5" y="-16.1" font-family="FreeSans" font-size="8.00" fill="#1c2021">title = &#39;Forrest Gump&#39;</text>
<text text-anchor="start" x="310.5" y="-7.1" font-family="FreeSans" font-size="8.00" fill="#1c2021">released = 1994</text>
</g>
<!-- N2&#45;&gt;N3 -->
<g id="edge1" class="edge"><title>N2&#45;&gt;N3</title>
<path fill="none" stroke="#2e3436" stroke-width="2" d="M293.832,-98.4602C299.93,-87.392 307.924,-73.6545 316,-62 318.882,-57.8404 322.094,-53.5716 325.339,-49.4549"/>
<polygon fill="#2e3436" stroke="#2e3436" stroke-width="2" points="330.083,-43.5628 328.008,-51.5212 328.121,-46.7972 325.769,-49.7181 325.379,-49.4046 324.99,-49.091 327.342,-46.1701 322.751,-47.2879 330.083,-43.5628 330.083,-43.5628"/>
<text text-anchor="middle" x="346.5" y="-73.6" font-family="FreeSans" font-size="8.00" fill="#2e3436">ACTED_IN</text>
<text text-anchor="start" x="316" y="-64.6" font-family="FreeSans" font-size="8.00" fill="#2e3436">roles = [&#39;Forrest&#39;]</text>
</g>
<!-- N4 -->
<g id="node5" class="node"><title>N4</title>
<path fill="#ffffff" stroke="#2e3436" stroke-width="1.5" d="M369.5,-98.5C369.5,-98.5 456.5,-98.5 456.5,-98.5 462.5,-98.5 468.5,-104.5 468.5,-110.5 468.5,-110.5 468.5,-129.5 468.5,-129.5 468.5,-135.5 462.5,-141.5 456.5,-141.5 456.5,-141.5 369.5,-141.5 369.5,-141.5 363.5,-141.5 357.5,-135.5 357.5,-129.5 357.5,-129.5 357.5,-110.5 357.5,-110.5 357.5,-104.5 363.5,-98.5 369.5,-98.5"/>
<text text-anchor="middle" x="413" y="-131.1" font-family="FreeSans" font-size="8.00" fill="#1c2021">Person</text>
<polyline fill="none" stroke="#2e3436" stroke-width="1.5" points="357.5,-124.5 468.5,-124.5 "/>
<text text-anchor="start" x="365.5" y="-114.1" font-family="FreeSans" font-size="8.00" fill="#1c2021">name = &#39;Robert Zemeckis&#39;</text>
<text text-anchor="start" x="365.5" y="-105.1" font-family="FreeSans" font-size="8.00" fill="#1c2021">born = 1951</text>
</g>
<!-- N4&#45;&gt;N3 -->
<g id="edge2" class="edge"><title>N4&#45;&gt;N3</title>
<path fill="none" stroke="#4e9a06" stroke-width="2" d="M402.168,-98.4602C396.07,-87.392 388.076,-73.6545 380,-62 377.118,-57.8404 373.906,-53.5716 370.661,-49.4549"/>
<polygon fill="#4e9a06" stroke="#4e9a06" stroke-width="2" points="365.917,-43.5628 373.249,-47.2879 368.658,-46.1701 371.01,-49.091 370.621,-49.4046 370.231,-49.7181 367.879,-46.7972 367.992,-51.5212 365.917,-43.5628 365.917,-43.5628"/>
<text text-anchor="middle" x="411.5" y="-69.1" font-family="FreeSans" font-size="8.00" fill="#4e9a06">DIRECTED</text>
</g>
</g>
</svg>
