<?xml version="1.0" encoding="UTF-8" standalone="no"?>
<!DOCTYPE svg PUBLIC "-//W3C//DTD SVG 1.1//EN"
 "http://www.w3.org/Graphics/SVG/1.1/DTD/svg11.dtd">
<!-- Generated by graphviz version 2.36.0 (20140111.2315)
 -->
<!-- Title: g Pages: 1 -->
<svg width="504pt" height="156pt"
 viewBox="0.00 0.00 504.00 155.86" xmlns="http://www.w3.org/2000/svg" xmlns:xlink="http://www.w3.org/1999/xlink">
<g id="graph0" class="graph" transform="scale(0.728324 0.728324) rotate(0) translate(4 210)">
<title>g</title>
<polygon fill="white" stroke="none" points="-4,4 -4,-210 688,-210 688,4 -4,4"/>
<!-- N0 -->
<g id="node1" class="node"><title>N0</title>
<path fill="#ffffff" stroke="#2e3436" stroke-width="1.5" d="M11.5,-85C11.5,-85 64.5,-85 64.5,-85 70.5,-85 76.5,-91 76.5,-97 76.5,-97 76.5,-109 76.5,-109 76.5,-115 70.5,-121 64.5,-121 64.5,-121 11.5,-121 11.5,-121 5.5,-121 -0.5,-115 -0.5,-109 -0.5,-109 -0.5,-97 -0.5,-97 -0.5,-91 5.5,-85 11.5,-85"/>
<text text-anchor="start" x="7.5" y="-101.1" font-family="FreeSans" font-size="8.00" fill="#1c2021">name = &#39;SaunaX&#39;</text>
</g>
<!-- N1 -->
<g id="node2" class="node"><title>N1</title>
<path fill="#ffffff" stroke="#2e3436" stroke-width="1.5" d="M117.5,-85C117.5,-85 188.5,-85 188.5,-85 194.5,-85 200.5,-91 200.5,-97 200.5,-97 200.5,-109 200.5,-109 200.5,-115 194.5,-121 188.5,-121 188.5,-121 117.5,-121 117.5,-121 111.5,-121 105.5,-115 105.5,-109 105.5,-109 105.5,-97 105.5,-97 105.5,-91 111.5,-85 117.5,-85"/>
<text text-anchor="start" x="113.5" y="-101.1" font-family="FreeSans" font-size="8.00" fill="#1c2021">name = &#39;CoffeeShop1&#39;</text>
</g>
<!-- N7 -->
<g id="node3" class="node"><title>N7</title>
<path fill="#ffffff" stroke="#2e3436" stroke-width="1.5" d="M432.5,-1C432.5,-1 475.5,-1 475.5,-1 481.5,-1 487.5,-7 487.5,-13 487.5,-13 487.5,-25 487.5,-25 487.5,-31 481.5,-37 475.5,-37 475.5,-37 432.5,-37 432.5,-37 426.5,-37 420.5,-31 420.5,-25 420.5,-25 420.5,-13 420.5,-13 420.5,-7 426.5,-1 432.5,-1"/>
<text text-anchor="start" x="428.5" y="-17.1" font-family="FreeSans" font-size="8.00" fill="#1c2021">name = &#39;Cosy&#39;</text>
</g>
<!-- N1&#45;&gt;N7 -->
<g id="edge1" class="edge"><title>N1&#45;&gt;N7</title>
<path fill="none" stroke="#2e3436" stroke-width="2" d="M200.623,-87.7532C205.465,-86.4311 210.321,-85.1557 215,-84 253.756,-74.427 264.614,-76.9646 303,-66 315.304,-62.4853 317.848,-60.0087 330,-56 357.492,-46.9312 388.802,-37.8509 413.082,-31.0785"/>
<polygon fill="#2e3436" stroke="#2e3436" stroke-width="2" points="420.379,-29.0534 414.055,-34.3111 416.9,-30.538 413.286,-31.5408 413.152,-31.059 413.019,-30.5772 416.632,-29.5744 412.25,-27.8069 420.379,-29.0534 420.379,-29.0534"/>
<text text-anchor="middle" x="342.5" y="-59.1" font-family="FreeSans" font-size="8.00" fill="#2e3436">tagged</text>
</g>
<!-- N4 -->
<g id="node4" class="node"><title>N4</title>
<path fill="#ffffff" stroke="#2e3436" stroke-width="1.5" d="M256.5,-1C256.5,-1 297.5,-1 297.5,-1 303.5,-1 309.5,-7 309.5,-13 309.5,-13 309.5,-25 309.5,-25 309.5,-31 303.5,-37 297.5,-37 297.5,-37 256.5,-37 256.5,-37 250.5,-37 244.5,-31 244.5,-25 244.5,-25 244.5,-13 244.5,-13 244.5,-7 250.5,-1 256.5,-1"/>
<text text-anchor="start" x="252.5" y="-17.1" font-family="FreeSans" font-size="8.00" fill="#1c2021">name = &#39;Cool&#39;</text>
</g>
<!-- N1&#45;&gt;N4 -->
<g id="edge2" class="edge"><title>N1&#45;&gt;N4</title>
<path fill="none" stroke="#2e3436" stroke-width="2" d="M178.994,-84.8101C198.091,-72.1818 224.161,-54.9417 244.613,-41.4172"/>
<polygon fill="#2e3436" stroke="#2e3436" stroke-width="2" points="251.04,-37.1673 246.646,-44.1194 248.188,-39.6528 245.06,-41.7213 244.784,-41.3042 244.508,-40.8872 247.636,-38.8187 242.922,-38.4891 251.04,-37.1673 251.04,-37.1673"/>
<text text-anchor="middle" x="235.5" y="-59.1" font-family="FreeSans" font-size="8.00" fill="#2e3436">tagged</text>
</g>
<!-- N2 -->
<g id="node5" class="node"><title>N2</title>
<path fill="#ffffff" stroke="#2e3436" stroke-width="1.5" d="M366,-85C366,-85 428,-85 428,-85 434,-85 440,-91 440,-97 440,-97 440,-109 440,-109 440,-115 434,-121 428,-121 428,-121 366,-121 366,-121 360,-121 354,-115 354,-109 354,-109 354,-97 354,-97 354,-91 360,-85 366,-85"/>
<text text-anchor="start" x="362" y="-101.1" font-family="FreeSans" font-size="8.00" fill="#1c2021">name = &#39;MelsPlace&#39;</text>
</g>
<!-- N2&#45;&gt;N7 -->
<g id="edge4" class="edge"><title>N2&#45;&gt;N7</title>
<path fill="none" stroke="#2e3436" stroke-width="2" d="M409.088,-84.6099C417.457,-72.5703 428.69,-56.4104 437.829,-43.2641"/>
<polygon fill="#2e3436" stroke="#2e3436" stroke-width="2" points="442.125,-37.0838 440.615,-45.1686 440.395,-40.4484 438.254,-43.5276 437.844,-43.2422 437.433,-42.9568 439.574,-39.8776 435.073,-41.3158 442.125,-37.0838 442.125,-37.0838"/>
<text text-anchor="middle" x="441.5" y="-59.1" font-family="FreeSans" font-size="8.00" fill="#2e3436">tagged</text>
</g>
<!-- N2&#45;&gt;N4 -->
<g id="edge3" class="edge"><title>N2&#45;&gt;N4</title>
<path fill="none" stroke="#2e3436" stroke-width="2" d="M387.107,-84.9103C380.893,-75.3804 372.143,-63.8804 362,-56 348.732,-45.6917 332.074,-37.7886 317.03,-32.0497"/>
<polygon fill="#2e3436" stroke="#2e3436" stroke-width="2" points="309.795,-29.4052 317.998,-28.8104 313.489,-30.2231 317.011,-31.5106 316.839,-31.9802 316.668,-32.4499 313.146,-31.1623 315.681,-35.1501 309.795,-29.4052 309.795,-29.4052"/>
<text text-anchor="middle" x="385.5" y="-59.1" font-family="FreeSans" font-size="8.00" fill="#2e3436">tagged</text>
</g>
<!-- N3 -->
<g id="node6" class="node"><title>N3</title>
<path fill="#ffffff" stroke="#2e3436" stroke-width="1.5" d="M481.5,-85C481.5,-85 552.5,-85 552.5,-85 558.5,-85 564.5,-91 564.5,-97 564.5,-97 564.5,-109 564.5,-109 564.5,-115 558.5,-121 552.5,-121 552.5,-121 481.5,-121 481.5,-121 475.5,-121 469.5,-115 469.5,-109 469.5,-109 469.5,-97 469.5,-97 469.5,-91 475.5,-85 481.5,-85"/>
<text text-anchor="start" x="477.5" y="-101.1" font-family="FreeSans" font-size="8.00" fill="#1c2021">name = &#39;CoffeeShop3&#39;</text>
</g>
<!-- N3&#45;&gt;N7 -->
<g id="edge5" class="edge"><title>N3&#45;&gt;N7</title>
<path fill="none" stroke="#2e3436" stroke-width="2" d="M503.639,-84.6099C494.389,-72.5703 481.974,-56.4104 471.874,-43.2641"/>
<polygon fill="#2e3436" stroke="#2e3436" stroke-width="2" points="467.125,-37.0838 474.371,-40.975 469.807,-39.7529 472.091,-42.7266 471.695,-43.0312 471.298,-43.3359 469.014,-40.3622 469.018,-45.0874 467.125,-37.0838 467.125,-37.0838"/>
<text text-anchor="middle" x="502.5" y="-59.1" font-family="FreeSans" font-size="8.00" fill="#2e3436">tagged</text>
</g>
<!-- N5 -->
<g id="node7" class="node"><title>N5</title>
<path fill="#ffffff" stroke="#2e3436" stroke-width="1.5" d="M241.5,-85C241.5,-85 312.5,-85 312.5,-85 318.5,-85 324.5,-91 324.5,-97 324.5,-97 324.5,-109 324.5,-109 324.5,-115 318.5,-121 312.5,-121 312.5,-121 241.5,-121 241.5,-121 235.5,-121 229.5,-115 229.5,-109 229.5,-109 229.5,-97 229.5,-97 229.5,-91 235.5,-85 241.5,-85"/>
<text text-anchor="start" x="237.5" y="-101.1" font-family="FreeSans" font-size="8.00" fill="#1c2021">name = &#39;CoffeeShop2&#39;</text>
</g>
<!-- N5&#45;&gt;N4 -->
<g id="edge6" class="edge"><title>N5&#45;&gt;N4</title>
<path fill="none" stroke="#2e3436" stroke-width="2" d="M275.849,-84.7953C275.503,-78.8449 275.17,-72.1321 275,-66 274.809,-59.1081 274.973,-51.6387 275.276,-44.7632"/>
<polygon fill="#2e3436" stroke="#2e3436" stroke-width="2" points="275.681,-37.0349 278.659,-44.7014 275.984,-40.8059 275.787,-44.5508 275.288,-44.5246 274.789,-44.4984 274.985,-40.7536 271.918,-44.3478 275.681,-37.0349 275.681,-37.0349"/>
<text text-anchor="middle" x="287.5" y="-59.1" font-family="FreeSans" font-size="8.00" fill="#2e3436">tagged</text>
</g>
<!-- N6 -->
<g id="node8" class="node"><title>N6</title>
<path fill="#ffffff" stroke="#2e3436" stroke-width="1.5" d="M605.5,-85C605.5,-85 672.5,-85 672.5,-85 678.5,-85 684.5,-91 684.5,-97 684.5,-97 684.5,-109 684.5,-109 684.5,-115 678.5,-121 672.5,-121 672.5,-121 605.5,-121 605.5,-121 599.5,-121 593.5,-115 593.5,-109 593.5,-109 593.5,-97 593.5,-97 593.5,-91 599.5,-85 605.5,-85"/>
<text text-anchor="start" x="601.5" y="-101.1" font-family="FreeSans" font-size="8.00" fill="#1c2021">name = &#39;CoffeShop2&#39;</text>
</g>
<!-- N8 -->
<g id="node9" class="node"><title>N8</title>
<path fill="#ffffff" stroke="#2e3436" stroke-width="1.5" d="M380,-169C380,-169 414,-169 414,-169 420,-169 426,-175 426,-181 426,-181 426,-193 426,-193 426,-199 420,-205 414,-205 414,-205 380,-205 380,-205 374,-205 368,-199 368,-193 368,-193 368,-181 368,-181 368,-175 374,-169 380,-169"/>
<text text-anchor="start" x="376" y="-185.1" font-family="FreeSans" font-size="8.00" fill="#1c2021">name = &#39;Jill&#39;</text>
</g>
<!-- N8&#45;&gt;N1 -->
<g id="edge9" class="edge"><title>N8&#45;&gt;N1</title>
<path fill="none" stroke="#4e9a06" stroke-width="2" d="M367.997,-175.788C341.091,-166.357 299.908,-152.031 264,-140 245.847,-133.918 225.971,-127.42 208.117,-121.643"/>
<polygon fill="#4e9a06" stroke="#4e9a06" stroke-width="2" points="200.6,-119.215 208.774,-118.309 204.322,-119.892 207.891,-121.045 207.737,-121.52 207.583,-121.996 204.015,-120.843 206.699,-124.732 200.6,-119.215 200.6,-119.215"/>
<text text-anchor="middle" x="307.5" y="-143.1" font-family="FreeSans" font-size="8.00" fill="#4e9a06">favorite</text>
</g>
<!-- N8&#45;&gt;N2 -->
<g id="edge8" class="edge"><title>N8&#45;&gt;N2</title>
<path fill="none" stroke="#4e9a06" stroke-width="2" d="M397,-168.61C397,-157.008 397,-141.58 397,-128.71"/>
<polygon fill="#4e9a06" stroke="#4e9a06" stroke-width="2" points="397,-121.084 400.375,-128.584 397.5,-124.834 397.5,-128.584 397,-128.584 396.5,-128.584 396.5,-124.834 393.625,-128.584 397,-121.084 397,-121.084"/>
<text text-anchor="middle" x="410.5" y="-143.1" font-family="FreeSans" font-size="8.00" fill="#4e9a06">favorite</text>
</g>
<!-- N8&#45;&gt;N6 -->
<g id="edge7" class="edge"><title>N8&#45;&gt;N6</title>
<path fill="none" stroke="#4e9a06" stroke-width="2" d="M426.191,-176.109C465.65,-162.738 536.71,-138.66 585.795,-122.028"/>
<polygon fill="#4e9a06" stroke="#4e9a06" stroke-width="2" points="593.173,-119.528 587.153,-125.132 589.781,-121.205 586.23,-122.409 586.069,-121.935 585.909,-121.462 589.461,-120.258 584.986,-118.739 593.173,-119.528 593.173,-119.528"/>
<text text-anchor="middle" x="545.5" y="-143.1" font-family="FreeSans" font-size="8.00" fill="#4e9a06">favorite</text>
</g>
<!-- N9 -->
<g id="node10" class="node"><title>N9</title>
<path fill="#ffffff" stroke="#2e3436" stroke-width="1.5" d="M134,-169C134,-169 172,-169 172,-169 178,-169 184,-175 184,-181 184,-181 184,-193 184,-193 184,-199 178,-205 172,-205 172,-205 134,-205 134,-205 128,-205 122,-199 122,-193 122,-193 122,-181 122,-181 122,-175 128,-169 134,-169"/>
<text text-anchor="start" x="130" y="-185.1" font-family="FreeSans" font-size="8.00" fill="#1c2021">name = &#39;Joe&#39;</text>
</g>
<!-- N9&#45;&gt;N0 -->
<g id="edge11" class="edge"><title>N9&#45;&gt;N0</title>
<path fill="none" stroke="#4e9a06" stroke-width="2" d="M128.892,-168.81C111.259,-156.237 87.2129,-139.091 68.283,-125.593"/>
<polygon fill="#4e9a06" stroke="#4e9a06" stroke-width="2" points="62.076,-121.167 70.1421,-122.774 65.4196,-122.937 68.4729,-125.114 68.1826,-125.522 67.8923,-125.929 64.839,-123.752 66.2232,-128.27 62.076,-121.167 62.076,-121.167"/>
<text text-anchor="middle" x="116.5" y="-143.1" font-family="FreeSans" font-size="8.00" fill="#4e9a06">favorite</text>
</g>
<!-- N9&#45;&gt;N1 -->
<g id="edge12" class="edge"><title>N9&#45;&gt;N1</title>
<path fill="none" stroke="#4e9a06" stroke-width="2" d="M153,-168.61C153,-157.008 153,-141.58 153,-128.71"/>
<polygon fill="#4e9a06" stroke="#4e9a06" stroke-width="2" points="153,-121.084 156.375,-128.584 153.5,-124.834 153.5,-128.584 153,-128.584 152.5,-128.584 152.5,-124.834 149.625,-128.584 153,-121.084 153,-121.084"/>
<text text-anchor="middle" x="166.5" y="-143.1" font-family="FreeSans" font-size="8.00" fill="#4e9a06">favorite</text>
</g>
<!-- N9&#45;&gt;N2 -->
<g id="edge10" class="edge"><title>N9&#45;&gt;N2</title>
<path fill="none" stroke="#4e9a06" stroke-width="2" d="M176.45,-168.837C191.136,-158.91 210.85,-147.03 230,-140 275.681,-123.23 290.626,-133.124 338,-122 340.851,-121.331 343.766,-120.599 346.698,-119.826"/>
<polygon fill="#4e9a06" stroke="#4e9a06" stroke-width="2" points="353.999,-117.831 347.654,-123.063 350.514,-119.301 346.896,-120.29 346.764,-119.808 346.633,-119.325 350.25,-118.337 345.875,-116.552 353.999,-117.831 353.999,-117.831"/>
<text text-anchor="middle" x="243.5" y="-143.1" font-family="FreeSans" font-size="8.00" fill="#4e9a06">favorite</text>
</g>
</g>
</svg>
