<?xml version="1.0" encoding="UTF-8" standalone="no"?>
<!DOCTYPE svg PUBLIC "-//W3C//DTD SVG 1.1//EN"
 "http://www.w3.org/Graphics/SVG/1.1/DTD/svg11.dtd">
<!-- Generated by graphviz version 2.38.0 (20140413.2041)
 -->
<!-- Title: g Pages: 1 -->
<svg width="504pt" height="314pt"
 viewBox="0.00 0.00 504.00 313.51" xmlns="http://www.w3.org/2000/svg" xmlns:xlink="http://www.w3.org/1999/xlink">
<g id="graph0" class="graph" transform="scale(0.934416 0.934416) rotate(0) translate(4 331.512)">
<title>g</title>
<polygon fill="white" stroke="none" points="-4,4 -4,-331.512 535.374,-331.512 535.374,4 -4,4"/>
<!-- N0 -->
<g id="node1" class="node"><title>N0</title>
<path fill="#ffffff" stroke="#2e3436" stroke-width="1.5" d="M12,-178.808C12,-178.808 52,-178.808 52,-178.808 58,-178.808 64,-184.808 64,-190.808 64,-190.808 64,-202.808 64,-202.808 64,-208.808 58,-214.808 52,-214.808 52,-214.808 12,-214.808 12,-214.808 6,-214.808 1.42109e-14,-208.808 1.42109e-14,-202.808 1.42109e-14,-202.808 1.42109e-14,-190.808 1.42109e-14,-190.808 1.42109e-14,-184.808 6,-178.808 12,-178.808"/>
<text text-anchor="start" x="8" y="-194.908" font-family="FreeSans" font-size="8.00" fill="#1c2021">name = &#39;cats&#39;</text>
</g>
<!-- N1 -->
<g id="node2" class="node"><title>N1</title>
<path fill="#ffffff" stroke="#2e3436" stroke-width="1.5" d="M238.991,-0.5C238.991,-0.5 286.991,-0.5 286.991,-0.5 292.991,-0.5 298.991,-6.5 298.991,-12.5 298.991,-12.5 298.991,-24.5 298.991,-24.5 298.991,-30.5 292.991,-36.5 286.991,-36.5 286.991,-36.5 238.991,-36.5 238.991,-36.5 232.991,-36.5 226.991,-30.5 226.991,-24.5 226.991,-24.5 226.991,-12.5 226.991,-12.5 226.991,-6.5 232.991,-0.5 238.991,-0.5"/>
<text text-anchor="start" x="234.991" y="-16.6" font-family="FreeSans" font-size="8.00" fill="#1c2021">name = &#39;nature&#39;</text>
</g>
<!-- N2 -->
<g id="node3" class="node"><title>N2</title>
<path fill="#ffffff" stroke="#2e3436" stroke-width="1.5" d="M167.475,-245.212C167.475,-245.212 206.475,-245.212 206.475,-245.212 212.475,-245.212 218.475,-251.212 218.475,-257.212 218.475,-257.212 218.475,-269.212 218.475,-269.212 218.475,-275.212 212.475,-281.212 206.475,-281.212 206.475,-281.212 167.475,-281.212 167.475,-281.212 161.475,-281.212 155.475,-275.212 155.475,-269.212 155.475,-269.212 155.475,-257.212 155.475,-257.212 155.475,-251.212 161.475,-245.212 167.475,-245.212"/>
<text text-anchor="start" x="163.475" y="-261.312" font-family="FreeSans" font-size="8.00" fill="#1c2021">name = &#39;Ben&#39;</text>
</g>
<!-- N3 -->
<g id="node4" class="node"><title>N3</title>
<path fill="#ffffff" stroke="#2e3436" stroke-width="1.5" d="M264.449,-213.35C264.449,-213.35 306.449,-213.35 306.449,-213.35 312.449,-213.35 318.449,-219.35 318.449,-225.35 318.449,-225.35 318.449,-237.35 318.449,-237.35 318.449,-243.35 312.449,-249.35 306.449,-249.35 306.449,-249.35 264.449,-249.35 264.449,-249.35 258.449,-249.35 252.449,-243.35 252.449,-237.35 252.449,-237.35 252.449,-225.35 252.449,-225.35 252.449,-219.35 258.449,-213.35 264.449,-213.35"/>
<text text-anchor="start" x="260.449" y="-229.45" font-family="FreeSans" font-size="8.00" fill="#1c2021">name = &#39;Sara&#39;</text>
</g>
<!-- N3&#45;&gt;N0 -->
<g id="edge3" class="edge"><title>N3&#45;&gt;N0</title>
<path fill="none" stroke="#4e9a06" stroke-width="2" d="M252.315,-226.834C205.954,-220.516 121.833,-209.051 72.0284,-202.263"/>
<polygon fill="#4e9a06" stroke="#4e9a06" stroke-width="2" points="64.3408,-201.216 72.2279,-198.885 68.124,-201.227 71.8397,-201.733 71.7721,-202.229 71.7046,-202.724 67.9889,-202.218 71.3163,-205.573 64.3408,-201.216 64.3408,-201.216"/>
<text text-anchor="middle" x="150.672" y="-217.149" font-family="FreeSans" font-size="8.00" fill="#4e9a06">LIKES</text>
</g>
<!-- N3&#45;&gt;N2 -->
<g id="edge1" class="edge"><title>N3&#45;&gt;N2</title>
<path fill="none" stroke="#2e3436" stroke-width="2" d="M252.385,-242.048C243.916,-244.788 234.73,-247.76 225.993,-250.588"/>
<polygon fill="#2e3436" stroke="#2e3436" stroke-width="2" points="218.784,-252.92 224.881,-247.4 222.198,-251.29 225.766,-250.135 225.92,-250.611 226.074,-251.087 222.506,-252.241 226.959,-253.822 218.784,-252.92 218.784,-252.92"/>
<text text-anchor="middle" x="228.939" y="-239.918" font-family="FreeSans" font-size="8.00" fill="#2e3436">FOLLOWS</text>
</g>
<!-- N7 -->
<g id="node5" class="node"><title>N7</title>
<path fill="#ffffff" stroke="#2e3436" stroke-width="1.5" d="M307.364,-87.9519C307.364,-87.9519 345.364,-87.9519 345.364,-87.9519 351.364,-87.9519 357.364,-93.9519 357.364,-99.9519 357.364,-99.9519 357.364,-111.952 357.364,-111.952 357.364,-117.952 351.364,-123.952 345.364,-123.952 345.364,-123.952 307.364,-123.952 307.364,-123.952 301.364,-123.952 295.364,-117.952 295.364,-111.952 295.364,-111.952 295.364,-99.9519 295.364,-99.9519 295.364,-93.9519 301.364,-87.9519 307.364,-87.9519"/>
<text text-anchor="start" x="303.364" y="-104.052" font-family="FreeSans" font-size="8.00" fill="#1c2021">name = &#39;Joe&#39;</text>
</g>
<!-- N3&#45;&gt;N7 -->
<g id="edge2" class="edge"><title>N3&#45;&gt;N7</title>
<path fill="none" stroke="#2e3436" stroke-width="2" d="M299.845,-213.136C310.196,-191.649 321.975,-155.891 326.777,-131.614"/>
<polygon fill="#2e3436" stroke="#2e3436" stroke-width="2" points="328.081,-124.168 330.112,-132.138 327.927,-127.948 327.28,-131.642 326.788,-131.556 326.295,-131.47 326.942,-127.776 323.463,-130.974 328.081,-124.168 328.081,-124.168"/>
<text text-anchor="middle" x="292.811" y="-174.975" font-family="FreeSans" font-size="8.00" fill="#2e3436">FOLLOWS</text>
</g>
<!-- N6 -->
<g id="node6" class="node"><title>N6</title>
<path fill="#ffffff" stroke="#2e3436" stroke-width="1.5" d="M478.374,-213.612C478.374,-213.612 519.374,-213.612 519.374,-213.612 525.374,-213.612 531.374,-219.612 531.374,-225.612 531.374,-225.612 531.374,-237.612 531.374,-237.612 531.374,-243.612 525.374,-249.612 519.374,-249.612 519.374,-249.612 478.374,-249.612 478.374,-249.612 472.374,-249.612 466.374,-243.612 466.374,-237.612 466.374,-237.612 466.374,-225.612 466.374,-225.612 466.374,-219.612 472.374,-213.612 478.374,-213.612"/>
<text text-anchor="start" x="474.374" y="-229.712" font-family="FreeSans" font-size="8.00" fill="#1c2021">name = &#39;cars&#39;</text>
</g>
<!-- N3&#45;&gt;N6 -->
<g id="edge4" class="edge"><title>N3&#45;&gt;N6</title>
<path fill="none" stroke="#4e9a06" stroke-width="2" d="M318.797,-231.391C356.575,-231.437 418.128,-231.513 458.567,-231.563"/>
<polygon fill="#4e9a06" stroke="#4e9a06" stroke-width="2" points="466.111,-231.572 458.606,-234.938 462.36,-232.067 458.61,-232.063 458.611,-231.563 458.611,-231.063 462.361,-231.067 458.615,-228.188 466.111,-231.572 466.111,-231.572"/>
<text text-anchor="middle" x="377.182" y="-234.077" font-family="FreeSans" font-size="8.00" fill="#4e9a06">LIKES</text>
</g>
<!-- N4 -->
<g id="node7" class="node"><title>N4</title>
<path fill="#ffffff" stroke="#2e3436" stroke-width="1.5" d="M370.066,-291.012C370.066,-291.012 414.066,-291.012 414.066,-291.012 420.066,-291.012 426.066,-297.012 426.066,-303.012 426.066,-303.012 426.066,-315.012 426.066,-315.012 426.066,-321.012 420.066,-327.012 414.066,-327.012 414.066,-327.012 370.066,-327.012 370.066,-327.012 364.066,-327.012 358.066,-321.012 358.066,-315.012 358.066,-315.012 358.066,-303.012 358.066,-303.012 358.066,-297.012 364.066,-291.012 370.066,-291.012"/>
<text text-anchor="start" x="366.066" y="-307.112" font-family="FreeSans" font-size="8.00" fill="#1c2021">name = &#39;bikes&#39;</text>
</g>
<!-- N3&#45;&gt;N4 -->
<g id="edge5" class="edge"><title>N3&#45;&gt;N4</title>
<path fill="none" stroke="#4e9a06" stroke-width="2" d="M310.177,-249.362C325.274,-260.359 344.713,-274.519 360.863,-286.283"/>
<polygon fill="#4e9a06" stroke="#4e9a06" stroke-width="2" points="367.103,-290.828 359.053,-289.141 363.777,-289.025 360.746,-286.817 361.041,-286.413 361.335,-286.008 364.366,-288.216 363.028,-283.685 367.103,-290.828 367.103,-290.828"/>
<text text-anchor="middle" x="324.02" y="-270.423" font-family="FreeSans" font-size="8.00" fill="#4e9a06">LIKES</text>
</g>
<!-- N7&#45;&gt;N1 -->
<g id="edge12" class="edge"><title>N7&#45;&gt;N1</title>
<path fill="none" stroke="#4e9a06" stroke-width="2" d="M313.233,-87.8318C303.801,-74.8163 290.983,-57.1273 280.654,-42.8745"/>
<polygon fill="#4e9a06" stroke="#4e9a06" stroke-width="2" points="276.105,-36.5969 283.239,-40.6895 278.71,-39.34 280.911,-42.3765 280.506,-42.6699 280.101,-42.9633 277.901,-39.9268 277.773,-44.6504 276.105,-36.5969 276.105,-36.5969"/>
<text text-anchor="middle" x="285.444" y="-67.9532" font-family="FreeSans" font-size="8.00" fill="#4e9a06">LIKES</text>
</g>
<!-- N7&#45;&gt;N3 -->
<g id="edge10" class="edge"><title>N7&#45;&gt;N3</title>
<path fill="none" stroke="#2e3436" stroke-width="2" d="M311.422,-123.988C300.855,-145.404 289.07,-181.16 284.468,-205.502"/>
<polygon fill="#2e3436" stroke="#2e3436" stroke-width="2" points="283.237,-212.972 281.127,-205.023 283.354,-209.191 283.964,-205.491 284.457,-205.572 284.95,-205.653 284.341,-209.353 287.787,-206.121 283.237,-212.972 283.237,-212.972"/>
<text text-anchor="middle" x="277.445" y="-158.345" font-family="FreeSans" font-size="8.00" fill="#2e3436">FOLLOWS</text>
</g>
<!-- N7&#45;&gt;N4 -->
<g id="edge13" class="edge"><title>N7&#45;&gt;N4</title>
<path fill="none" stroke="#4e9a06" stroke-width="2" d="M332.195,-123.972C343.903,-160.157 370.302,-241.749 383.792,-283.44"/>
<polygon fill="#4e9a06" stroke="#4e9a06" stroke-width="2" points="386.154,-290.741 380.634,-284.644 384.524,-287.327 383.369,-283.759 383.845,-283.605 384.321,-283.451 385.475,-287.019 387.056,-282.566 386.154,-290.741 386.154,-290.741"/>
<text text-anchor="middle" x="346.493" y="-206.306" font-family="FreeSans" font-size="8.00" fill="#4e9a06">LIKES</text>
</g>
<!-- N5 -->
<g id="node8" class="node"><title>N5</title>
<path fill="#ffffff" stroke="#2e3436" stroke-width="1.5" d="M435.768,-88.1142C435.768,-88.1142 480.768,-88.1142 480.768,-88.1142 486.768,-88.1142 492.768,-94.1142 492.768,-100.114 492.768,-100.114 492.768,-112.114 492.768,-112.114 492.768,-118.114 486.768,-124.114 480.768,-124.114 480.768,-124.114 435.768,-124.114 435.768,-124.114 429.768,-124.114 423.768,-118.114 423.768,-112.114 423.768,-112.114 423.768,-100.114 423.768,-100.114 423.768,-94.1142 429.768,-88.1142 435.768,-88.1142"/>
<text text-anchor="start" x="431.768" y="-104.214" font-family="FreeSans" font-size="8.00" fill="#1c2021">name = &#39;Maria&#39;</text>
</g>
<!-- N7&#45;&gt;N5 -->
<g id="edge9" class="edge"><title>N7&#45;&gt;N5</title>
<path fill="none" stroke="#2e3436" stroke-width="2" d="M336.256,-123.993C358.77,-141.474 414.027,-142.93 441.788,-128.288"/>
<polygon fill="#2e3436" stroke="#2e3436" stroke-width="2" points="448.216,-124.219 443.684,-131.082 445.315,-126.647 442.147,-128.653 441.879,-128.231 441.612,-127.808 444.78,-125.802 440.074,-125.379 448.216,-124.219 448.216,-124.219"/>
<text text-anchor="middle" x="368.522" y="-128.74" font-family="FreeSans" font-size="8.00" fill="#2e3436">FOLLOWS</text>
</g>
<!-- N7&#45;&gt;N5 -->
<g id="edge11" class="edge"><title>N7&#45;&gt;N5</title>
<path fill="none" stroke="#a40000" stroke-width="2" d="M335.872,-87.8603C358.331,-69.5558 414.848,-68.2131 442.516,-83.7548"/>
<polygon fill="#a40000" stroke="#a40000" stroke-width="2" points="448.89,-88.0699 440.787,-86.6603 445.504,-86.3817 442.399,-84.2795 442.679,-83.8655 442.959,-83.4514 446.065,-85.5536 444.571,-81.0706 448.89,-88.0699 448.89,-88.0699"/>
<text text-anchor="middle" x="375.194" y="-88.4076" font-family="FreeSans" font-size="8.00" fill="#a40000">LOVES</text>
</g>
<!-- N5&#45;&gt;N7 -->
<g id="edge6" class="edge"><title>N5&#45;&gt;N7</title>
<path fill="none" stroke="#2e3436" stroke-width="2" d="M423.624,-96.0328C405.727,-94.5138 383.824,-94.3775 365.338,-95.6329"/>
<polygon fill="#2e3436" stroke="#2e3436" stroke-width="2" points="357.646,-96.2562 364.849,-92.2864 361.343,-95.4549 365.081,-95.152 365.121,-95.6503 365.162,-96.1487 361.424,-96.4516 365.394,-99.0143 357.646,-96.2562 357.646,-96.2562"/>
<text text-anchor="middle" x="373.981" y="-98.4329" font-family="FreeSans" font-size="8.00" fill="#2e3436">FOLLOWS</text>
</g>
<!-- N5&#45;&gt;N7 -->
<g id="edge7" class="edge"><title>N5&#45;&gt;N7</title>
<path fill="none" stroke="#a40000" stroke-width="2" d="M423.6,-115.441C405.699,-116.816 383.796,-116.891 365.313,-115.676"/>
<polygon fill="#a40000" stroke="#a40000" stroke-width="2" points="357.623,-115.076 365.363,-112.294 361.4,-114.869 365.139,-115.161 365.1,-115.659 365.061,-116.158 361.322,-115.866 364.837,-119.024 357.623,-115.076 357.623,-115.076"/>
<text text-anchor="middle" x="380.457" y="-118.158" font-family="FreeSans" font-size="8.00" fill="#a40000">LOVES</text>
</g>
<!-- N5&#45;&gt;N6 -->
<g id="edge8" class="edge"><title>N5&#45;&gt;N6</title>
<path fill="none" stroke="#4e9a06" stroke-width="2" d="M464.172,-124.363C471.119,-145.833 482.699,-181.623 490.554,-205.898"/>
<polygon fill="#4e9a06" stroke="#4e9a06" stroke-width="2" points="492.962,-213.342 487.442,-207.245 491.332,-209.928 490.178,-206.36 490.654,-206.206 491.129,-206.052 492.284,-209.62 493.865,-205.167 492.962,-213.342 492.962,-213.342"/>
<text text-anchor="middle" x="465.863" y="-167.73" font-family="FreeSans" font-size="8.00" fill="#4e9a06">LIKES</text>
</g>
</g>
</svg>
