<?xml version="1.0" encoding="UTF-8" standalone="no"?>
<!DOCTYPE svg PUBLIC "-//W3C//DTD SVG 1.1//EN"
 "http://www.w3.org/Graphics/SVG/1.1/DTD/svg11.dtd">
<!-- Generated by graphviz version 2.36.0 (20140111.2315)
 -->
<!-- Title: g Pages: 1 -->
<svg width="381pt" height="214pt"
 viewBox="0.00 0.00 381.00 214.00" xmlns="http://www.w3.org/2000/svg" xmlns:xlink="http://www.w3.org/1999/xlink">
<g id="graph0" class="graph" transform="scale(1 1) rotate(0) translate(4 210)">
<title>g</title>
<polygon fill="white" stroke="none" points="-4,4 -4,-210 377,-210 377,4 -4,4"/>
<!-- N0 -->
<g id="node1" class="node"><title>N0</title>
<path fill="#ffffff" stroke="#2e3436" stroke-width="1.5" d="M116.5,-169C116.5,-169 175.5,-169 175.5,-169 181.5,-169 187.5,-175 187.5,-181 187.5,-181 187.5,-193 187.5,-193 187.5,-199 181.5,-205 175.5,-205 175.5,-205 116.5,-205 116.5,-205 110.5,-205 104.5,-199 104.5,-193 104.5,-193 104.5,-181 104.5,-181 104.5,-175 110.5,-169 116.5,-169"/>
<text text-anchor="start" x="112.5" y="-185.1" font-family="FreeSans" font-size="8.00" fill="#1c2021">name = &#39;startnode&#39;</text>
</g>
<!-- N4 -->
<g id="node2" class="node"><title>N4</title>
<path fill="#ffffff" stroke="#2e3436" stroke-width="1.5" d="M12,-85C12,-85 42,-85 42,-85 48,-85 54,-91 54,-97 54,-97 54,-109 54,-109 54,-115 48,-121 42,-121 42,-121 12,-121 12,-121 6,-121 0,-115 0,-109 0,-109 0,-97 0,-97 0,-91 6,-85 12,-85"/>
<text text-anchor="middle" x="27" y="-101.1" font-family="FreeSans" font-size="8.00" fill="#1c2021"> </text>
</g>
<!-- N0&#45;&gt;N4 -->
<g id="edge1" class="edge"><title>N0&#45;&gt;N4</title>
<path fill="none" stroke="#2e3436" stroke-width="2" d="M104.416,-174.27C89.0853,-168.599 72.2437,-160.659 59,-150 51.4212,-143.9 44.8805,-135.547 39.7234,-127.632"/>
<polygon fill="#2e3436" stroke="#2e3436" stroke-width="2" points="35.7243,-121.144 42.5331,-125.758 38.1178,-124.074 40.0857,-127.266 39.6601,-127.529 39.2345,-127.791 37.2666,-124.599 36.7871,-129.3 35.7243,-121.144 35.7243,-121.144"/>
<text text-anchor="middle" x="74.5" y="-143.1" font-family="FreeSans" font-size="8.00" fill="#2e3436">KNOWS</text>
</g>
<!-- N3 -->
<g id="node3" class="node"><title>N3</title>
<path fill="#ffffff" stroke="#2e3436" stroke-width="1.5" d="M112,-1C112,-1 142,-1 142,-1 148,-1 154,-7 154,-13 154,-13 154,-25 154,-25 154,-31 148,-37 142,-37 142,-37 112,-37 112,-37 106,-37 100,-31 100,-25 100,-25 100,-13 100,-13 100,-7 106,-1 112,-1"/>
<text text-anchor="middle" x="127" y="-17.1" font-family="FreeSans" font-size="8.00" fill="#1c2021"> </text>
</g>
<!-- N0&#45;&gt;N3 -->
<g id="edge2" class="edge"><title>N0&#45;&gt;N3</title>
<path fill="none" stroke="#2e3436" stroke-width="2" d="M139.46,-168.919C134.954,-156.197 129.367,-138.287 127,-122 123.201,-95.8546 123.83,-65.5397 125.016,-44.7956"/>
<polygon fill="#2e3436" stroke="#2e3436" stroke-width="2" points="125.509,-37.0727 128.399,-44.7724 125.769,-40.8469 125.53,-44.5893 125.031,-44.5575 124.532,-44.5256 124.771,-40.7833 121.663,-44.3425 125.509,-37.0727 125.509,-37.0727"/>
<text text-anchor="middle" x="142.5" y="-101.1" font-family="FreeSans" font-size="8.00" fill="#2e3436">KNOWS</text>
</g>
<!-- N2 -->
<g id="node4" class="node"><title>N2</title>
<path fill="#ffffff" stroke="#2e3436" stroke-width="1.5" d="M184,-85C184,-85 214,-85 214,-85 220,-85 226,-91 226,-97 226,-97 226,-109 226,-109 226,-115 220,-121 214,-121 214,-121 184,-121 184,-121 178,-121 172,-115 172,-109 172,-109 172,-97 172,-97 172,-91 178,-85 184,-85"/>
<text text-anchor="middle" x="199" y="-101.1" font-family="FreeSans" font-size="8.00" fill="#1c2021"> </text>
</g>
<!-- N0&#45;&gt;N2 -->
<g id="edge3" class="edge"><title>N0&#45;&gt;N2</title>
<path fill="none" stroke="#2e3436" stroke-width="2" d="M157.24,-168.61C164.951,-156.68 175.277,-140.704 183.731,-127.623"/>
<polygon fill="#2e3436" stroke="#2e3436" stroke-width="2" points="187.958,-121.084 186.721,-129.215 186.342,-124.505 184.307,-127.654 183.887,-127.383 183.467,-127.111 185.502,-123.962 181.052,-125.551 187.958,-121.084 187.958,-121.084"/>
<text text-anchor="middle" x="190.5" y="-143.1" font-family="FreeSans" font-size="8.00" fill="#2e3436">KNOWS</text>
</g>
<!-- N1 -->
<g id="node5" class="node"><title>N1</title>
<path fill="#ffffff" stroke="#2e3436" stroke-width="1.5" d="M267,-85C267,-85 297,-85 297,-85 303,-85 309,-91 309,-97 309,-97 309,-109 309,-109 309,-115 303,-121 297,-121 297,-121 267,-121 267,-121 261,-121 255,-115 255,-109 255,-109 255,-97 255,-97 255,-91 261,-85 267,-85"/>
<text text-anchor="middle" x="282" y="-101.1" font-family="FreeSans" font-size="8.00" fill="#1c2021"> </text>
</g>
<!-- N0&#45;&gt;N1 -->
<g id="edge4" class="edge"><title>N0&#45;&gt;N1</title>
<path fill="none" stroke="#2e3436" stroke-width="2" d="M179.405,-168.853C190.244,-163.077 202.244,-156.455 213,-150 225.707,-142.374 239.352,-133.443 251.125,-125.49"/>
<polygon fill="#2e3436" stroke="#2e3436" stroke-width="2" points="257.455,-121.187 253.15,-128.194 254.635,-123.708 251.534,-125.817 251.253,-125.403 250.971,-124.99 254.073,-122.881 249.355,-122.612 257.455,-121.187 257.455,-121.187"/>
<text text-anchor="middle" x="243.5" y="-143.1" font-family="FreeSans" font-size="8.00" fill="#2e3436">KNOWS</text>
</g>
<!-- N2&#45;&gt;N3 -->
<g id="edge7" class="edge"><title>N2&#45;&gt;N3</title>
<path fill="none" stroke="#2e3436" stroke-width="2" d="M183.731,-84.6099C173.063,-72.4609 158.712,-56.1163 147.113,-42.9063"/>
<polygon fill="#2e3436" stroke="#2e3436" stroke-width="2" points="142,-37.0838 149.485,-40.4928 144.85,-39.5719 147.325,-42.3898 146.949,-42.7197 146.573,-43.0496 144.099,-40.2317 144.413,-44.9465 142,-37.0838 142,-37.0838"/>
<text text-anchor="middle" x="182.5" y="-59.1" font-family="FreeSans" font-size="8.00" fill="#2e3436">KNOWS</text>
</g>
<!-- N6 -->
<g id="node6" class="node"><title>N6</title>
<path fill="#ffffff" stroke="#2e3436" stroke-width="1.5" d="M248,-1C248,-1 278,-1 278,-1 284,-1 290,-7 290,-13 290,-13 290,-25 290,-25 290,-31 284,-37 278,-37 278,-37 248,-37 248,-37 242,-37 236,-31 236,-25 236,-25 236,-13 236,-13 236,-7 242,-1 248,-1"/>
<text text-anchor="middle" x="263" y="-17.1" font-family="FreeSans" font-size="8.00" fill="#1c2021"> </text>
</g>
<!-- N1&#45;&gt;N6 -->
<g id="edge5" class="edge"><title>N1&#45;&gt;N6</title>
<path fill="none" stroke="#2e3436" stroke-width="2" d="M277.971,-84.6099C275.282,-73.0081 271.708,-57.5802 268.725,-44.7099"/>
<polygon fill="#2e3436" stroke="#2e3436" stroke-width="2" points="266.958,-37.0838 271.939,-43.6284 268.292,-40.6242 269.139,-44.2774 268.651,-44.3903 268.164,-44.5031 267.318,-40.8499 265.364,-45.1521 266.958,-37.0838 266.958,-37.0838"/>
<text text-anchor="middle" x="288.5" y="-59.1" font-family="FreeSans" font-size="8.00" fill="#2e3436">KNOWS</text>
</g>
<!-- N5 -->
<g id="node7" class="node"><title>N5</title>
<path fill="#ffffff" stroke="#2e3436" stroke-width="1.5" d="M331,-1C331,-1 361,-1 361,-1 367,-1 373,-7 373,-13 373,-13 373,-25 373,-25 373,-31 367,-37 361,-37 361,-37 331,-37 331,-37 325,-37 319,-31 319,-25 319,-25 319,-13 319,-13 319,-7 325,-1 331,-1"/>
<text text-anchor="middle" x="346" y="-17.1" font-family="FreeSans" font-size="8.00" fill="#1c2021"> </text>
</g>
<!-- N1&#45;&gt;N5 -->
<g id="edge6" class="edge"><title>N1&#45;&gt;N5</title>
<path fill="none" stroke="#2e3436" stroke-width="2" d="M295.963,-84.8646C300.765,-78.9198 306.151,-72.1927 311,-66 316.684,-58.7408 322.796,-50.7672 328.297,-43.5271"/>
<polygon fill="#2e3436" stroke="#2e3436" stroke-width="2" points="333.147,-37.1257 331.308,-45.1418 331.281,-40.4166 329.016,-43.4056 328.618,-43.1036 328.219,-42.8017 330.484,-39.8127 325.928,-41.0654 333.147,-37.1257 333.147,-37.1257"/>
<text text-anchor="middle" x="332.5" y="-59.1" font-family="FreeSans" font-size="8.00" fill="#2e3436">KNOWS</text>
</g>
</g>
</svg>
