<?xml version="1.0" encoding="UTF-8" standalone="no"?>
<!DOCTYPE svg PUBLIC "-//W3C//DTD SVG 1.1//EN"
 "http://www.w3.org/Graphics/SVG/1.1/DTD/svg11.dtd">
<!-- Generated by graphviz version 2.36.0 (20140111.2315)
 -->
<!-- Title: g Pages: 1 -->
<svg width="504pt" height="92pt"
 viewBox="0.00 0.00 504.00 92.00" xmlns="http://www.w3.org/2000/svg" xmlns:xlink="http://www.w3.org/1999/xlink">
<g id="graph0" class="graph" transform="scale(0.42991 0.42991) rotate(0) translate(4 210)">
<title>g</title>
<polygon fill="white" stroke="none" points="-4,4 -4,-210 1168.34,-210 1168.34,4 -4,4"/>
<!-- N0 -->
<g id="node1" class="node"><title>N0</title>
<path fill="#ffffff" stroke="#2e3436" stroke-width="1.5" d="M148.838,-85C148.838,-85 209.838,-85 209.838,-85 215.838,-85 221.838,-91 221.838,-97 221.838,-97 221.838,-109 221.838,-109 221.838,-115 215.838,-121 209.838,-121 209.838,-121 148.838,-121 148.838,-121 142.838,-121 136.838,-115 136.838,-109 136.838,-109 136.838,-97 136.838,-97 136.838,-91 142.838,-85 148.838,-85"/>
<text text-anchor="start" x="144.838" y="-101.1" font-family="FreeSans" font-size="8.00" fill="#1c2021">name = &#39;U2G2R34&#39;</text>
</g>
<!-- N11 -->
<g id="node2" class="node"><title>N11</title>
<path fill="#ffffff" stroke="#2e3436" stroke-width="1.5" d="M14.3384,-1C14.3384,-1 66.3384,-1 66.3384,-1 72.3384,-1 78.3384,-7 78.3384,-13 78.3384,-13 78.3384,-25 78.3384,-25 78.3384,-31 72.3384,-37 66.3384,-37 66.3384,-37 14.3384,-37 14.3384,-37 8.33844,-37 2.33844,-31 2.33844,-25 2.33844,-25 2.33844,-13 2.33844,-13 2.33844,-7 8.33844,-1 14.3384,-1"/>
<text text-anchor="start" x="10.3384" y="-17.1" font-family="FreeSans" font-size="8.00" fill="#1c2021">name = &#39;Group2&#39;</text>
</g>
<!-- N0&#45;&gt;N11 -->
<g id="edge1" class="edge"><title>N0&#45;&gt;N11</title>
<path fill="none" stroke="#2e3436" stroke-width="2" d="M136.701,-99.3228C90.1039,-95.403 19.8542,-86.2359 3.33844,-66 -2.85843,-58.4073 0.736748,-50.0685 7.67327,-42.6005"/>
<polygon fill="#2e3436" stroke="#2e3436" stroke-width="2" points="13.5221,-37.0862 10.3803,-44.6868 11.1366,-40.0225 8.40805,-42.595 8.06506,-42.2311 7.72206,-41.8673 10.4506,-39.2949 5.74982,-39.7755 13.5221,-37.0862 13.5221,-37.0862"/>
<text text-anchor="middle" x="21.3384" y="-59.1" font-family="FreeSans" font-size="8.00" fill="#2e3436">hasGroup</text>
</g>
<!-- N12 -->
<g id="node3" class="node"><title>N12</title>
<path fill="#ffffff" stroke="#2e3436" stroke-width="1.5" d="M186.338,-1C186.338,-1 232.338,-1 232.338,-1 238.338,-1 244.338,-7 244.338,-13 244.338,-13 244.338,-25 244.338,-25 244.338,-31 238.338,-37 232.338,-37 232.338,-37 186.338,-37 186.338,-37 180.338,-37 174.338,-31 174.338,-25 174.338,-25 174.338,-13 174.338,-13 174.338,-7 180.338,-1 186.338,-1"/>
<text text-anchor="start" x="182.338" y="-17.1" font-family="FreeSans" font-size="8.00" fill="#1c2021">name = &#39;Role3&#39;</text>
</g>
<!-- N0&#45;&gt;N12 -->
<g id="edge2" class="edge"><title>N0&#45;&gt;N12</title>
<path fill="none" stroke="#4e9a06" stroke-width="2" d="M153.427,-84.8509C144.162,-76.5087 137.334,-66.1155 143.338,-56 148.861,-46.6977 157.725,-39.6453 167.189,-34.361"/>
<polygon fill="#4e9a06" stroke="#4e9a06" stroke-width="2" points="174.147,-30.8188 168.995,-37.2291 171.032,-32.9657 167.69,-34.667 167.463,-34.2214 167.237,-33.7759 170.578,-32.0745 165.932,-31.2138 174.147,-30.8188 174.147,-30.8188"/>
<text text-anchor="middle" x="158.338" y="-59.1" font-family="FreeSans" font-size="8.00" fill="#4e9a06">hasRole</text>
</g>
<!-- N6 -->
<g id="node4" class="node"><title>N6</title>
<path fill="#ffffff" stroke="#2e3436" stroke-width="1.5" d="M336.338,-1C336.338,-1 382.338,-1 382.338,-1 388.338,-1 394.338,-7 394.338,-13 394.338,-13 394.338,-25 394.338,-25 394.338,-31 388.338,-37 382.338,-37 382.338,-37 336.338,-37 336.338,-37 330.338,-37 324.338,-31 324.338,-25 324.338,-25 324.338,-13 324.338,-13 324.338,-7 330.338,-1 336.338,-1"/>
<text text-anchor="start" x="332.338" y="-17.1" font-family="FreeSans" font-size="8.00" fill="#1c2021">name = &#39;Role4&#39;</text>
</g>
<!-- N0&#45;&gt;N6 -->
<g id="edge3" class="edge"><title>N0&#45;&gt;N6</title>
<path fill="none" stroke="#4e9a06" stroke-width="2" d="M222.037,-90.639C255.23,-81.6507 296.86,-69.9742 304.338,-66 315.99,-59.808 327.423,-50.8571 336.819,-42.4937"/>
<polygon fill="#4e9a06" stroke="#4e9a06" stroke-width="2" points="342.391,-37.3921 339.139,-44.9462 339.963,-40.2933 337.197,-42.8258 336.86,-42.457 336.522,-42.0882 339.288,-39.5558 334.58,-39.9678 342.391,-37.3921 342.391,-37.3921"/>
<text text-anchor="middle" x="333.338" y="-59.1" font-family="FreeSans" font-size="8.00" fill="#4e9a06">hasRole</text>
</g>
<!-- N1 -->
<g id="node5" class="node"><title>N1</title>
<path fill="#ffffff" stroke="#2e3436" stroke-width="1.5" d="M397.838,-85C397.838,-85 458.838,-85 458.838,-85 464.838,-85 470.838,-91 470.838,-97 470.838,-97 470.838,-109 470.838,-109 470.838,-115 464.838,-121 458.838,-121 458.838,-121 397.838,-121 397.838,-121 391.838,-121 385.838,-115 385.838,-109 385.838,-109 385.838,-97 385.838,-97 385.838,-91 391.838,-85 397.838,-85"/>
<text text-anchor="start" x="393.838" y="-101.1" font-family="FreeSans" font-size="8.00" fill="#1c2021">name = &#39;U1G3R34&#39;</text>
</g>
<!-- N1&#45;&gt;N12 -->
<g id="edge6" class="edge"><title>N1&#45;&gt;N12</title>
<path fill="none" stroke="#4e9a06" stroke-width="2" d="M385.789,-89.4526C378.656,-87.516 371.308,-85.6232 364.338,-84 321.634,-74.0541 307.249,-84.159 267.338,-66 254.626,-60.2159 242.255,-51.0533 232.226,-42.4229"/>
<polygon fill="#4e9a06" stroke="#4e9a06" stroke-width="2" points="226.607,-37.4324 234.456,-39.8893 229.743,-39.5488 232.547,-42.0389 232.215,-42.4128 231.883,-42.7866 229.079,-40.2965 229.973,-44.9363 226.607,-37.4324 226.607,-37.4324"/>
<text text-anchor="middle" x="282.338" y="-59.1" font-family="FreeSans" font-size="8.00" fill="#4e9a06">hasRole</text>
</g>
<!-- N1&#45;&gt;N6 -->
<g id="edge5" class="edge"><title>N1&#45;&gt;N6</title>
<path fill="none" stroke="#4e9a06" stroke-width="2" d="M413.705,-84.6099C403.482,-72.4609 389.729,-56.1163 378.613,-42.9063"/>
<polygon fill="#4e9a06" stroke="#4e9a06" stroke-width="2" points="373.714,-37.0838 381.125,-40.6495 376.511,-39.6313 378.925,-42.5006 378.543,-42.8225 378.16,-43.1444 375.746,-40.2751 375.96,-44.9955 373.714,-37.0838 373.714,-37.0838"/>
<text text-anchor="middle" x="412.338" y="-59.1" font-family="FreeSans" font-size="8.00" fill="#4e9a06">hasRole</text>
</g>
<!-- N13 -->
<g id="node6" class="node"><title>N13</title>
<path fill="#ffffff" stroke="#2e3436" stroke-width="1.5" d="M458.338,-1C458.338,-1 510.338,-1 510.338,-1 516.338,-1 522.338,-7 522.338,-13 522.338,-13 522.338,-25 522.338,-25 522.338,-31 516.338,-37 510.338,-37 510.338,-37 458.338,-37 458.338,-37 452.338,-37 446.338,-31 446.338,-25 446.338,-25 446.338,-13 446.338,-13 446.338,-7 452.338,-1 458.338,-1"/>
<text text-anchor="start" x="454.338" y="-17.1" font-family="FreeSans" font-size="8.00" fill="#1c2021">name = &#39;Group3&#39;</text>
</g>
<!-- N1&#45;&gt;N13 -->
<g id="edge4" class="edge"><title>N1&#45;&gt;N13</title>
<path fill="none" stroke="#2e3436" stroke-width="2" d="M440.215,-84.6099C448.362,-72.6798 459.272,-56.7039 468.205,-43.6234"/>
<polygon fill="#2e3436" stroke="#2e3436" stroke-width="2" points="472.671,-37.0838 471.229,-45.1808 470.969,-40.4626 468.855,-43.5593 468.442,-43.2774 468.029,-42.9954 470.144,-39.8986 465.655,-41.374 472.671,-37.0838 472.671,-37.0838"/>
<text text-anchor="middle" x="477.338" y="-59.1" font-family="FreeSans" font-size="8.00" fill="#2e3436">hasGroup</text>
</g>
<!-- N2 -->
<g id="node7" class="node"><title>N2</title>
<path fill="#ffffff" stroke="#2e3436" stroke-width="1.5" d="M424.838,-169C424.838,-169 471.838,-169 471.838,-169 477.838,-169 483.838,-175 483.838,-181 483.838,-181 483.838,-193 483.838,-193 483.838,-199 477.838,-205 471.838,-205 471.838,-205 424.838,-205 424.838,-205 418.838,-205 412.838,-199 412.838,-193 412.838,-193 412.838,-181 412.838,-181 412.838,-175 418.838,-169 424.838,-169"/>
<text text-anchor="start" x="420.838" y="-185.1" font-family="FreeSans" font-size="8.00" fill="#1c2021">name = &#39;User2&#39;</text>
</g>
<!-- N2&#45;&gt;N0 -->
<g id="edge8" class="edge"><title>N2&#45;&gt;N0</title>
<path fill="none" stroke="#a40000" stroke-width="2" d="M412.695,-179.157C381.429,-172.789 334.91,-162.428 295.338,-150 271.847,-142.622 246.351,-132.729 225.26,-124.008"/>
<polygon fill="#a40000" stroke="#a40000" stroke-width="2" points="218.286,-121.1 226.507,-120.871 221.939,-122.082 225.401,-123.525 225.208,-123.986 225.016,-124.448 221.555,-123.005 223.91,-127.101 218.286,-121.1 218.286,-121.1"/>
<text text-anchor="middle" x="324.838" y="-143.1" font-family="FreeSans" font-size="8.00" fill="#a40000">hasRoleInGroup</text>
</g>
<!-- N16 -->
<g id="node8" class="node"><title>N16</title>
<path fill="#ffffff" stroke="#2e3436" stroke-width="1.5" d="M539.838,-85C539.838,-85 600.838,-85 600.838,-85 606.838,-85 612.838,-91 612.838,-97 612.838,-97 612.838,-109 612.838,-109 612.838,-115 606.838,-121 600.838,-121 600.838,-121 539.838,-121 539.838,-121 533.838,-121 527.838,-115 527.838,-109 527.838,-109 527.838,-97 527.838,-97 527.838,-91 533.838,-85 539.838,-85"/>
<text text-anchor="start" x="535.838" y="-101.1" font-family="FreeSans" font-size="8.00" fill="#1c2021">name = &#39;U2G3R56&#39;</text>
</g>
<!-- N2&#45;&gt;N16 -->
<g id="edge7" class="edge"><title>N2&#45;&gt;N16</title>
<path fill="none" stroke="#a40000" stroke-width="2" d="M483.85,-171.46C496.482,-165.591 510.498,-158.248 522.338,-150 532.034,-143.246 541.651,-134.537 549.702,-126.518"/>
<polygon fill="#a40000" stroke="#a40000" stroke-width="2" points="555.008,-121.108 552.166,-128.826 552.739,-124.135 550.113,-126.813 549.756,-126.463 549.399,-126.113 552.025,-123.435 547.347,-124.1 555.008,-121.108 555.008,-121.108"/>
<text text-anchor="middle" x="562.838" y="-143.1" font-family="FreeSans" font-size="8.00" fill="#a40000">hasRoleInGroup</text>
</g>
<!-- N8 -->
<g id="node9" class="node"><title>N8</title>
<path fill="#ffffff" stroke="#2e3436" stroke-width="1.5" d="M766.838,-85C766.838,-85 827.838,-85 827.838,-85 833.838,-85 839.838,-91 839.838,-97 839.838,-97 839.838,-109 839.838,-109 839.838,-115 833.838,-121 827.838,-121 827.838,-121 766.838,-121 766.838,-121 760.838,-121 754.838,-115 754.838,-109 754.838,-109 754.838,-97 754.838,-97 754.838,-91 760.838,-85 766.838,-85"/>
<text text-anchor="start" x="762.838" y="-101.1" font-family="FreeSans" font-size="8.00" fill="#1c2021">name = &#39;U2G1R25&#39;</text>
</g>
<!-- N2&#45;&gt;N8 -->
<g id="edge9" class="edge"><title>N2&#45;&gt;N8</title>
<path fill="none" stroke="#a40000" stroke-width="2" d="M483.885,-172.375C488.703,-170.772 493.614,-169.262 498.338,-168 542.391,-156.236 554.672,-159.162 599.338,-150 649.736,-139.662 706.943,-126.181 746.861,-116.489"/>
<polygon fill="#a40000" stroke="#a40000" stroke-width="2" points="754.607,-114.604 748.118,-119.657 751.081,-115.976 747.438,-116.864 747.32,-116.378 747.201,-115.892 750.845,-115.005 746.521,-113.099 754.607,-114.604 754.607,-114.604"/>
<text text-anchor="middle" x="671.838" y="-143.1" font-family="FreeSans" font-size="8.00" fill="#a40000">hasRoleInGroup</text>
</g>
<!-- N16&#45;&gt;N13 -->
<g id="edge22" class="edge"><title>N16&#45;&gt;N13</title>
<path fill="none" stroke="#2e3436" stroke-width="2" d="M552.1,-84.6099C539.244,-72.3514 521.907,-55.8214 507.989,-42.5501"/>
<polygon fill="#2e3436" stroke="#2e3436" stroke-width="2" points="502.256,-37.0838 510.013,-39.8168 505.315,-39.3098 508.029,-41.8976 507.684,-42.2594 507.339,-42.6213 504.625,-40.0335 505.355,-44.7021 502.256,-37.0838 502.256,-37.0838"/>
<text text-anchor="middle" x="550.338" y="-59.1" font-family="FreeSans" font-size="8.00" fill="#2e3436">hasGroup</text>
</g>
<!-- N4 -->
<g id="node13" class="node"><title>N4</title>
<path fill="#ffffff" stroke="#2e3436" stroke-width="1.5" d="M582.338,-1C582.338,-1 628.338,-1 628.338,-1 634.338,-1 640.338,-7 640.338,-13 640.338,-13 640.338,-25 640.338,-25 640.338,-31 634.338,-37 628.338,-37 628.338,-37 582.338,-37 582.338,-37 576.338,-37 570.338,-31 570.338,-25 570.338,-25 570.338,-13 570.338,-13 570.338,-7 576.338,-1 582.338,-1"/>
<text text-anchor="start" x="578.338" y="-17.1" font-family="FreeSans" font-size="8.00" fill="#1c2021">name = &#39;Role6&#39;</text>
</g>
<!-- N16&#45;&gt;N4 -->
<g id="edge24" class="edge"><title>N16&#45;&gt;N4</title>
<path fill="none" stroke="#4e9a06" stroke-width="2" d="M577.761,-84.6099C582.806,-72.7892 589.547,-56.9967 595.101,-43.9841"/>
<polygon fill="#4e9a06" stroke="#4e9a06" stroke-width="2" points="598.047,-37.0838 598.206,-45.3067 597.034,-40.7291 595.562,-44.1781 595.102,-43.9818 594.642,-43.7855 596.115,-40.3365 591.998,-42.6568 598.047,-37.0838 598.047,-37.0838"/>
<text text-anchor="middle" x="604.338" y="-59.1" font-family="FreeSans" font-size="8.00" fill="#4e9a06">hasRole</text>
</g>
<!-- N7 -->
<g id="node15" class="node"><title>N7</title>
<path fill="#ffffff" stroke="#2e3436" stroke-width="1.5" d="M696.338,-1C696.338,-1 742.338,-1 742.338,-1 748.338,-1 754.338,-7 754.338,-13 754.338,-13 754.338,-25 754.338,-25 754.338,-31 748.338,-37 742.338,-37 742.338,-37 696.338,-37 696.338,-37 690.338,-37 684.338,-31 684.338,-25 684.338,-25 684.338,-13 684.338,-13 684.338,-7 690.338,-1 696.338,-1"/>
<text text-anchor="start" x="692.338" y="-17.1" font-family="FreeSans" font-size="8.00" fill="#1c2021">name = &#39;Role5&#39;</text>
</g>
<!-- N16&#45;&gt;N7 -->
<g id="edge23" class="edge"><title>N16&#45;&gt;N7</title>
<path fill="none" stroke="#4e9a06" stroke-width="2" d="M601.574,-84.8101C624.896,-71.9749 656.876,-54.3755 681.624,-40.7554"/>
<polygon fill="#4e9a06" stroke="#4e9a06" stroke-width="2" points="688.4,-37.0266 683.456,-43.5996 685.356,-39.2727 682.07,-41.0808 681.829,-40.6428 681.588,-40.2047 684.873,-38.3966 680.202,-37.6859 688.4,-37.0266 688.4,-37.0266"/>
<text text-anchor="middle" x="668.338" y="-59.1" font-family="FreeSans" font-size="8.00" fill="#4e9a06">hasRole</text>
</g>
<!-- N10 -->
<g id="node14" class="node"><title>N10</title>
<path fill="#ffffff" stroke="#2e3436" stroke-width="1.5" d="M838.338,-1C838.338,-1 884.338,-1 884.338,-1 890.338,-1 896.338,-7 896.338,-13 896.338,-13 896.338,-25 896.338,-25 896.338,-31 890.338,-37 884.338,-37 884.338,-37 838.338,-37 838.338,-37 832.338,-37 826.338,-31 826.338,-25 826.338,-25 826.338,-13 826.338,-13 826.338,-7 832.338,-1 838.338,-1"/>
<text text-anchor="start" x="834.338" y="-17.1" font-family="FreeSans" font-size="8.00" fill="#1c2021">name = &#39;Role2&#39;</text>
</g>
<!-- N8&#45;&gt;N10 -->
<g id="edge18" class="edge"><title>N8&#45;&gt;N10</title>
<path fill="none" stroke="#4e9a06" stroke-width="2" d="M812.793,-84.6831C817.859,-78.8412 823.443,-72.2229 828.338,-66 833.922,-58.9031 839.748,-50.9754 844.924,-43.7272"/>
<polygon fill="#4e9a06" stroke="#4e9a06" stroke-width="2" points="849.468,-37.3052 847.891,-45.3769 847.71,-40.6551 845.544,-43.7162 845.136,-43.4274 844.728,-43.1386 846.894,-40.0775 842.381,-41.4778 849.468,-37.3052 849.468,-37.3052"/>
<text text-anchor="middle" x="850.338" y="-59.1" font-family="FreeSans" font-size="8.00" fill="#4e9a06">hasRole</text>
</g>
<!-- N8&#45;&gt;N7 -->
<g id="edge17" class="edge"><title>N8&#45;&gt;N7</title>
<path fill="none" stroke="#4e9a06" stroke-width="2" d="M754.736,-85.4264C745.963,-80.3311 737.527,-73.919 731.338,-66 726.636,-59.9824 723.765,-52.3052 722.016,-44.9543"/>
<polygon fill="#4e9a06" stroke="#4e9a06" stroke-width="2" points="720.525,-37.1999 725.256,-43.9277 721.725,-40.788 722.433,-44.4705 721.942,-44.565 721.451,-44.6594 720.743,-40.9768 718.627,-45.2023 720.525,-37.1999 720.525,-37.1999"/>
<text text-anchor="middle" x="746.338" y="-59.1" font-family="FreeSans" font-size="8.00" fill="#4e9a06">hasRole</text>
</g>
<!-- N9 -->
<g id="node16" class="node"><title>N9</title>
<path fill="#ffffff" stroke="#2e3436" stroke-width="1.5" d="M982.338,-1C982.338,-1 1034.34,-1 1034.34,-1 1040.34,-1 1046.34,-7 1046.34,-13 1046.34,-13 1046.34,-25 1046.34,-25 1046.34,-31 1040.34,-37 1034.34,-37 1034.34,-37 982.338,-37 982.338,-37 976.338,-37 970.338,-31 970.338,-25 970.338,-25 970.338,-13 970.338,-13 970.338,-7 976.338,-1 982.338,-1"/>
<text text-anchor="start" x="978.338" y="-17.1" font-family="FreeSans" font-size="8.00" fill="#1c2021">name = &#39;Group1&#39;</text>
</g>
<!-- N8&#45;&gt;N9 -->
<g id="edge16" class="edge"><title>N8&#45;&gt;N9</title>
<path fill="none" stroke="#2e3436" stroke-width="2" d="M840.151,-98.1636C873.336,-93.8389 919.688,-84.7769 956.338,-66 967.778,-60.1392 978.71,-51.179 987.573,-42.7186"/>
<polygon fill="#2e3436" stroke="#2e3436" stroke-width="2" points="993.083,-37.2687 990.124,-44.9425 990.768,-40.2614 988.102,-42.8985 987.75,-42.5431 987.399,-42.1876 990.065,-39.5504 985.377,-40.1436 993.083,-37.2687 993.083,-37.2687"/>
<text text-anchor="middle" x="988.338" y="-59.1" font-family="FreeSans" font-size="8.00" fill="#2e3436">hasGroup</text>
</g>
<!-- N3 -->
<g id="node10" class="node"><title>N3</title>
<path fill="#ffffff" stroke="#2e3436" stroke-width="1.5" d="M524.838,-169C524.838,-169 571.838,-169 571.838,-169 577.838,-169 583.838,-175 583.838,-181 583.838,-181 583.838,-193 583.838,-193 583.838,-199 577.838,-205 571.838,-205 571.838,-205 524.838,-205 524.838,-205 518.838,-205 512.838,-199 512.838,-193 512.838,-193 512.838,-181 512.838,-181 512.838,-175 518.838,-169 524.838,-169"/>
<text text-anchor="start" x="520.838" y="-185.1" font-family="FreeSans" font-size="8.00" fill="#1c2021">name = &#39;User1&#39;</text>
</g>
<!-- N3&#45;&gt;N1 -->
<g id="edge10" class="edge"><title>N3&#45;&gt;N1</title>
<path fill="none" stroke="#a40000" stroke-width="2" d="M512.801,-172.563C490.373,-163.892 464.814,-153.587 460.338,-150 452.747,-143.916 446.204,-135.566 441.048,-127.649"/>
<polygon fill="#a40000" stroke="#a40000" stroke-width="2" points="437.051,-121.159 443.858,-125.775 439.443,-124.09 441.41,-127.283 440.984,-127.545 440.559,-127.807 438.592,-124.614 438.111,-129.315 437.051,-121.159 437.051,-121.159"/>
<text text-anchor="middle" x="489.838" y="-143.1" font-family="FreeSans" font-size="8.00" fill="#a40000">hasRoleInGroup</text>
</g>
<!-- N5 -->
<g id="node11" class="node"><title>N5</title>
<path fill="#ffffff" stroke="#2e3436" stroke-width="1.5" d="M276.838,-85C276.838,-85 337.838,-85 337.838,-85 343.838,-85 349.838,-91 349.838,-97 349.838,-97 349.838,-109 349.838,-109 349.838,-115 343.838,-121 337.838,-121 337.838,-121 276.838,-121 276.838,-121 270.838,-121 264.838,-115 264.838,-109 264.838,-109 264.838,-97 264.838,-97 264.838,-91 270.838,-85 276.838,-85"/>
<text text-anchor="start" x="272.838" y="-101.1" font-family="FreeSans" font-size="8.00" fill="#1c2021">name = &#39;U1G2R23&#39;</text>
</g>
<!-- N3&#45;&gt;N5 -->
<g id="edge11" class="edge"><title>N3&#45;&gt;N5</title>
<path fill="none" stroke="#a40000" stroke-width="2" d="M512.815,-172.287C507.993,-170.698 503.075,-169.215 498.338,-168 448.652,-155.256 432.566,-167.471 384.338,-150 367.856,-144.029 350.979,-134.414 337.243,-125.514"/>
<polygon fill="#a40000" stroke="#a40000" stroke-width="2" points="330.767,-121.222 338.883,-122.553 334.169,-122.877 337.295,-124.949 337.018,-125.366 336.742,-125.782 333.616,-123.711 335.154,-128.179 330.767,-121.222 330.767,-121.222"/>
<text text-anchor="middle" x="413.838" y="-143.1" font-family="FreeSans" font-size="8.00" fill="#a40000">hasRoleInGroup</text>
</g>
<!-- N14 -->
<g id="node12" class="node"><title>N14</title>
<path fill="#ffffff" stroke="#2e3436" stroke-width="1.5" d="M961.838,-85C961.838,-85 1022.84,-85 1022.84,-85 1028.84,-85 1034.84,-91 1034.84,-97 1034.84,-97 1034.84,-109 1034.84,-109 1034.84,-115 1028.84,-121 1022.84,-121 1022.84,-121 961.838,-121 961.838,-121 955.838,-121 949.838,-115 949.838,-109 949.838,-109 949.838,-97 949.838,-97 949.838,-91 955.838,-85 961.838,-85"/>
<text text-anchor="start" x="957.838" y="-101.1" font-family="FreeSans" font-size="8.00" fill="#1c2021">name = &#39;U1G1R12&#39;</text>
</g>
<!-- N3&#45;&gt;N14 -->
<g id="edge12" class="edge"><title>N3&#45;&gt;N14</title>
<path fill="none" stroke="#a40000" stroke-width="2" d="M583.922,-179.428C662.583,-164.901 851.439,-130.022 942.103,-113.278"/>
<polygon fill="#a40000" stroke="#a40000" stroke-width="2" points="949.512,-111.909 942.75,-116.59 945.915,-113.082 942.228,-113.763 942.137,-113.272 942.046,-112.78 945.734,-112.099 941.524,-109.953 949.512,-111.909 949.512,-111.909"/>
<text text-anchor="middle" x="825.838" y="-143.1" font-family="FreeSans" font-size="8.00" fill="#a40000">hasRoleInGroup</text>
</g>
<!-- N5&#45;&gt;N11 -->
<g id="edge13" class="edge"><title>N5&#45;&gt;N11</title>
<path fill="none" stroke="#2e3436" stroke-width="2" d="M264.494,-90.4354C254.943,-88.0963 244.832,-85.8042 235.338,-84 175.006,-72.5339 154.889,-89.9478 98.3384,-66 85.2798,-60.47 72.7029,-51.161 62.6185,-42.3581"/>
<polygon fill="#2e3436" stroke="#2e3436" stroke-width="2" points="56.9842,-37.266 64.8114,-39.7909 60.1016,-39.4094 62.8837,-41.9239 62.5485,-42.2948 62.2132,-42.6658 59.4311,-40.1513 60.2855,-44.7987 56.9842,-37.266 56.9842,-37.266"/>
<text text-anchor="middle" x="116.338" y="-59.1" font-family="FreeSans" font-size="8.00" fill="#2e3436">hasGroup</text>
</g>
<!-- N5&#45;&gt;N12 -->
<g id="edge14" class="edge"><title>N5&#45;&gt;N12</title>
<path fill="none" stroke="#4e9a06" stroke-width="2" d="M264.61,-91.8564C240.709,-85.2235 214.341,-75.9635 207.338,-66 203.085,-59.9485 202.168,-52.2619 202.731,-44.9128"/>
<polygon fill="#4e9a06" stroke="#4e9a06" stroke-width="2" points="203.835,-37.1641 206.118,-45.0651 203.801,-40.9472 203.272,-44.6597 202.777,-44.5892 202.282,-44.5186 202.811,-40.8061 199.436,-44.1132 203.835,-37.1641 203.835,-37.1641"/>
<text text-anchor="middle" x="222.338" y="-59.1" font-family="FreeSans" font-size="8.00" fill="#4e9a06">hasRole</text>
</g>
<!-- N5&#45;&gt;N10 -->
<g id="edge15" class="edge"><title>N5&#45;&gt;N10</title>
<path fill="none" stroke="#4e9a06" stroke-width="2" d="M350.07,-88.5311C357.115,-86.7305 364.388,-85.1215 371.338,-84 543.956,-56.1487 594.68,-108.291 764.338,-66 776.006,-63.0916 800.556,-51.4283 822.037,-40.5748"/>
<polygon fill="#4e9a06" stroke="#4e9a06" stroke-width="2" points="828.883,-37.0915 823.729,-43.5006 825.767,-39.2377 822.425,-40.9382 822.198,-40.4926 821.972,-40.0469 825.314,-38.3464 820.668,-37.4845 828.883,-37.0915 828.883,-37.0915"/>
<text text-anchor="middle" x="802.338" y="-59.1" font-family="FreeSans" font-size="8.00" fill="#4e9a06">hasRole</text>
</g>
<!-- N14&#45;&gt;N10 -->
<g id="edge20" class="edge"><title>N14&#45;&gt;N10</title>
<path fill="none" stroke="#4e9a06" stroke-width="2" d="M956.992,-84.9141C946.006,-79.2456 933.988,-72.6705 923.338,-66 911.565,-58.6249 899.16,-49.6806 888.567,-41.6469"/>
<polygon fill="#4e9a06" stroke="#4e9a06" stroke-width="2" points="882.557,-37.0408 890.563,-38.9245 885.838,-38.9252 888.814,-41.2064 888.51,-41.6033 888.206,-42.0001 885.229,-39.7189 886.457,-44.282 882.557,-37.0408 882.557,-37.0408"/>
<text text-anchor="middle" x="938.338" y="-59.1" font-family="FreeSans" font-size="8.00" fill="#4e9a06">hasRole</text>
</g>
<!-- N14&#45;&gt;N9 -->
<g id="edge19" class="edge"><title>N14&#45;&gt;N9</title>
<path fill="none" stroke="#2e3436" stroke-width="2" d="M1013.44,-84.9198C1018.65,-79.4807 1023.54,-73.03 1026.34,-66 1029.19,-58.8279 1027.81,-51.0132 1024.83,-43.8943"/>
<polygon fill="#2e3436" stroke="#2e3436" stroke-width="2" points="1021.4,-37.0568 1027.78,-42.2508 1023.53,-40.1857 1025.21,-43.5385 1024.76,-43.7624 1024.31,-43.9864 1022.63,-40.6336 1021.74,-45.2741 1021.4,-37.0568 1021.4,-37.0568"/>
<text text-anchor="middle" x="1045.34" y="-59.1" font-family="FreeSans" font-size="8.00" fill="#2e3436">hasGroup</text>
</g>
<!-- N15 -->
<g id="node17" class="node"><title>N15</title>
<path fill="#ffffff" stroke="#2e3436" stroke-width="1.5" d="M1106.34,-1C1106.34,-1 1152.34,-1 1152.34,-1 1158.34,-1 1164.34,-7 1164.34,-13 1164.34,-13 1164.34,-25 1164.34,-25 1164.34,-31 1158.34,-37 1152.34,-37 1152.34,-37 1106.34,-37 1106.34,-37 1100.34,-37 1094.34,-31 1094.34,-25 1094.34,-25 1094.34,-13 1094.34,-13 1094.34,-7 1100.34,-1 1106.34,-1"/>
<text text-anchor="start" x="1102.34" y="-17.1" font-family="FreeSans" font-size="8.00" fill="#1c2021">name = &#39;Role1&#39;</text>
</g>
<!-- N14&#45;&gt;N15 -->
<g id="edge21" class="edge"><title>N14&#45;&gt;N15</title>
<path fill="none" stroke="#4e9a06" stroke-width="2" d="M1034.14,-84.8467C1046.12,-79.3634 1059,-72.9076 1070.34,-66 1081.82,-59.0033 1093.66,-50.1437 1103.7,-42.0718"/>
<polygon fill="#4e9a06" stroke="#4e9a06" stroke-width="2" points="1109.69,-37.1713 1106.02,-44.531 1107.11,-39.9317 1104.2,-42.305 1103.89,-41.9179 1103.57,-41.5308 1106.47,-39.1575 1101.75,-39.3048 1109.69,-37.1713 1109.69,-37.1713"/>
<text text-anchor="middle" x="1098.34" y="-59.1" font-family="FreeSans" font-size="8.00" fill="#4e9a06">hasRole</text>
</g>
</g>
</svg>
