<?xml version="1.0" encoding="UTF-8" standalone="no"?>
<!DOCTYPE svg PUBLIC "-//W3C//DTD SVG 1.1//EN"
 "http://www.w3.org/Graphics/SVG/1.1/DTD/svg11.dtd">
<!-- Generated by graphviz version 2.36.0 (20140111.2315)
 -->
<!-- Title: g Pages: 1 -->
<svg width="113pt" height="150pt"
 viewBox="0.00 0.00 113.00 150.00" xmlns="http://www.w3.org/2000/svg" xmlns:xlink="http://www.w3.org/1999/xlink">
<g id="graph0" class="graph" transform="scale(1 1) rotate(0) translate(4 146)">
<title>g</title>
<polygon fill="white" stroke="none" points="-4,4 -4,-146 109,-146 109,4 -4,4"/>
<!-- N2 -->
<g id="node1" class="node"><title>N2</title>
<path fill="#ffffff" stroke="#2e3436" stroke-width="1.5" d="M11.5,-98.5C11.5,-98.5 78.5,-98.5 78.5,-98.5 84.5,-98.5 90.5,-104.5 90.5,-110.5 90.5,-110.5 90.5,-129.5 90.5,-129.5 90.5,-135.5 84.5,-141.5 78.5,-141.5 78.5,-141.5 11.5,-141.5 11.5,-141.5 5.5,-141.5 -0.5,-135.5 -0.5,-129.5 -0.5,-129.5 -0.5,-110.5 -0.5,-110.5 -0.5,-104.5 5.5,-98.5 11.5,-98.5"/>
<text text-anchor="middle" x="45" y="-131.1" font-family="FreeSans" font-size="8.00" fill="#1c2021">Person</text>
<polyline fill="none" stroke="#2e3436" stroke-width="1.5" points="-0.5,-124.5 90.5,-124.5 "/>
<text text-anchor="start" x="7.5" y="-114.1" font-family="FreeSans" font-size="8.00" fill="#1c2021">name = &#39;Tom Hanks&#39;</text>
<text text-anchor="start" x="7.5" y="-105.1" font-family="FreeSans" font-size="8.00" fill="#1c2021">born = 1956</text>
</g>
<!-- N5 -->
<g id="node2" class="node"><title>N5</title>
<path fill="#ffffff" stroke="#2e3436" stroke-width="1.5" d="M16.5,-0.5C16.5,-0.5 73.5,-0.5 73.5,-0.5 79.5,-0.5 85.5,-6.5 85.5,-12.5 85.5,-12.5 85.5,-31.5 85.5,-31.5 85.5,-37.5 79.5,-43.5 73.5,-43.5 73.5,-43.5 16.5,-43.5 16.5,-43.5 10.5,-43.5 4.5,-37.5 4.5,-31.5 4.5,-31.5 4.5,-12.5 4.5,-12.5 4.5,-6.5 10.5,-0.5 16.5,-0.5"/>
<text text-anchor="middle" x="45" y="-33.1" font-family="FreeSans" font-size="8.00" fill="#1c2021">Movie</text>
<polyline fill="none" stroke="#2e3436" stroke-width="1.5" points="4.5,-26.5 85.5,-26.5 "/>
<text text-anchor="start" x="12.5" y="-16.1" font-family="FreeSans" font-size="8.00" fill="#1c2021">title = &#39;Cloud Atlas&#39;</text>
<text text-anchor="start" x="12.5" y="-7.1" font-family="FreeSans" font-size="8.00" fill="#1c2021">released = 2012</text>
</g>
<!-- N2&#45;&gt;N5 -->
<g id="edge1" class="edge"><title>N2&#45;&gt;N5</title>
<path fill="none" stroke="#2e3436" stroke-width="2" d="M45,-98.1694C45,-84.4572 45,-66.3342 45,-51.3189"/>
<polygon fill="#2e3436" stroke="#2e3436" stroke-width="2" points="45,-43.7899 48.3751,-51.2899 45.5,-47.5399 45.5001,-51.2899 45.0001,-51.2899 44.5001,-51.2899 44.5,-47.5399 41.6251,-51.29 45,-43.7899 45,-43.7899"/>
<text text-anchor="middle" x="75" y="-73.6" font-family="FreeSans" font-size="8.00" fill="#2e3436">ACTED_IN</text>
<text text-anchor="start" x="45" y="-64.6" font-family="FreeSans" font-size="8.00" fill="#2e3436">roles = [&#39;Zachry&#39;]</text>
</g>
</g>
</svg>
