<?xml version="1.0" encoding="UTF-8" standalone="no"?>
<!DOCTYPE svg PUBLIC "-//W3C//DTD SVG 1.1//EN"
 "http://www.w3.org/Graphics/SVG/1.1/DTD/svg11.dtd">
<!-- Generated by graphviz version 2.38.0 (20140413.2041)
 -->
<!-- Title: g Pages: 1 -->
<svg width="397pt" height="209pt"
 viewBox="0.00 0.00 396.72 209.00" xmlns="http://www.w3.org/2000/svg" xmlns:xlink="http://www.w3.org/1999/xlink">
<g id="graph0" class="graph" transform="scale(1 1) rotate(0) translate(4 205)">
<title>g</title>
<polygon fill="white" stroke="none" points="-4,4 -4,-205 392.716,-205 392.716,4 -4,4"/>
<!-- N0 -->
<g id="node1" class="node"><title>N0</title>
<path fill="#ffffff" stroke="#2e3436" stroke-width="1.5" d="M222.216,-82.5C222.216,-82.5 285.216,-82.5 285.216,-82.5 291.216,-82.5 297.216,-88.5 297.216,-94.5 297.216,-94.5 297.216,-106.5 297.216,-106.5 297.216,-112.5 291.216,-118.5 285.216,-118.5 285.216,-118.5 222.216,-118.5 222.216,-118.5 216.216,-118.5 210.216,-112.5 210.216,-106.5 210.216,-106.5 210.216,-94.5 210.216,-94.5 210.216,-88.5 216.216,-82.5 222.216,-82.5"/>
<text text-anchor="start" x="218.216" y="-98.6" font-family="FreeSans" font-size="8.00" fill="#1c2021">Node[0]name = &#39;Bill&#39;</text>
</g>
<!-- N1 -->
<g id="node2" class="node"><title>N1</title>
<path fill="#ffffff" stroke="#2e3436" stroke-width="1.5" d="M149.716,-0.5C149.716,-0.5 229.716,-0.5 229.716,-0.5 235.716,-0.5 241.716,-6.5 241.716,-12.5 241.716,-12.5 241.716,-24.5 241.716,-24.5 241.716,-30.5 235.716,-36.5 229.716,-36.5 229.716,-36.5 149.716,-36.5 149.716,-36.5 143.716,-36.5 137.716,-30.5 137.716,-24.5 137.716,-24.5 137.716,-12.5 137.716,-12.5 137.716,-6.5 143.716,-0.5 149.716,-0.5"/>
<text text-anchor="start" x="145.716" y="-16.6" font-family="FreeSans" font-size="8.00" fill="#1c2021">Node[1]name = &#39;Group1&#39;</text>
</g>
<!-- N0&#45;&gt;N1 -->
<g id="edge1" class="edge"><title>N0&#45;&gt;N1</title>
<path fill="none" stroke="#2e3436" stroke-width="2" d="M239.828,-82.1412C230.54,-70.5305 218.216,-55.125 208.113,-42.4972"/>
<polygon fill="#2e3436" stroke="#2e3436" stroke-width="2" points="203.356,-36.5501 210.676,-40.2983 206.089,-39.166 208.431,-42.0943 208.041,-42.4066 207.65,-42.719 205.308,-39.7907 205.405,-44.515 203.356,-36.5501 203.356,-36.5501"/>
<text text-anchor="middle" x="257.216" y="-57.6" font-family="FreeSans" font-size="8.00" fill="#2e3436">member_of_group</text>
</g>
<!-- N2 -->
<g id="node3" class="node"><title>N2</title>
<path fill="#ffffff" stroke="#2e3436" stroke-width="1.5" d="M100.716,-82.5C100.716,-82.5 168.716,-82.5 168.716,-82.5 174.716,-82.5 180.716,-88.5 180.716,-94.5 180.716,-94.5 180.716,-106.5 180.716,-106.5 180.716,-112.5 174.716,-118.5 168.716,-118.5 168.716,-118.5 100.716,-118.5 100.716,-118.5 94.7155,-118.5 88.7155,-112.5 88.7155,-106.5 88.7155,-106.5 88.7155,-94.5 88.7155,-94.5 88.7155,-88.5 94.7155,-82.5 100.716,-82.5"/>
<text text-anchor="start" x="96.7155" y="-98.6" font-family="FreeSans" font-size="8.00" fill="#1c2021">Node[2]name = &#39;Bob&#39;</text>
</g>
<!-- N2&#45;&gt;N1 -->
<g id="edge2" class="edge"><title>N2&#45;&gt;N1</title>
<path fill="none" stroke="#2e3436" stroke-width="2" d="M134.396,-82.393C134.947,-73.6479 136.769,-63.1589 141.716,-55 144.738,-50.0145 148.75,-45.5059 153.17,-41.5054"/>
<polygon fill="#2e3436" stroke="#2e3436" stroke-width="2" points="158.944,-36.7122 155.329,-44.0996 156.378,-39.4922 153.492,-41.8875 153.173,-41.5028 152.854,-41.1181 155.739,-38.7228 151.017,-38.906 158.944,-36.7122 158.944,-36.7122"/>
<text text-anchor="middle" x="175.216" y="-57.6" font-family="FreeSans" font-size="8.00" fill="#2e3436">member_of_group</text>
</g>
<!-- N3 -->
<g id="node4" class="node"><title>N3</title>
<path fill="#ffffff" stroke="#2e3436" stroke-width="1.5" d="M79.7155,-164.5C79.7155,-164.5 141.716,-164.5 141.716,-164.5 147.716,-164.5 153.716,-170.5 153.716,-176.5 153.716,-176.5 153.716,-188.5 153.716,-188.5 153.716,-194.5 147.716,-200.5 141.716,-200.5 141.716,-200.5 79.7155,-200.5 79.7155,-200.5 73.7155,-200.5 67.7155,-194.5 67.7155,-188.5 67.7155,-188.5 67.7155,-176.5 67.7155,-176.5 67.7155,-170.5 73.7155,-164.5 79.7155,-164.5"/>
<text text-anchor="start" x="75.7155" y="-180.6" font-family="FreeSans" font-size="8.00" fill="#1c2021">Node[3]name = &#39;Jill&#39;</text>
</g>
<!-- N3&#45;&gt;N0 -->
<g id="edge4" class="edge"><title>N3&#45;&gt;N0</title>
<path fill="none" stroke="#4e9a06" stroke-width="2" d="M141.393,-164.338C163.352,-152.053 193.039,-135.445 216.377,-122.389"/>
<polygon fill="#4e9a06" stroke="#4e9a06" stroke-width="2" points="223.089,-118.634 218.192,-125.241 220.061,-120.901 216.788,-122.732 216.544,-122.295 216.3,-121.859 219.572,-120.028 214.896,-119.35 223.089,-118.634 223.089,-118.634"/>
<text text-anchor="middle" x="198.716" y="-139.6" font-family="FreeSans" font-size="8.00" fill="#4e9a06">knows</text>
</g>
<!-- N3&#45;&gt;N1 -->
<g id="edge3" class="edge"><title>N3&#45;&gt;N1</title>
<path fill="none" stroke="#2e3436" stroke-width="2" d="M67.6074,-167.389C45.1827,-157.603 19.7846,-142.102 6.71551,-119 -1.38159,-104.687 -2.85058,-95.3757 6.71551,-82 34.4778,-43.1816 87.8342,-28.2024 129.801,-22.5566"/>
<polygon fill="#2e3436" stroke="#2e3436" stroke-width="2" points="137.495,-21.6074 130.465,-25.8753 133.835,-22.5628 130.113,-23.022 130.052,-22.5257 129.991,-22.0295 133.712,-21.5703 129.639,-19.1761 137.495,-21.6074 137.495,-21.6074"/>
<text text-anchor="middle" x="40.2155" y="-98.6" font-family="FreeSans" font-size="8.00" fill="#2e3436">member_of_group</text>
</g>
<!-- N4 -->
<g id="node5" class="node"><title>N4</title>
<path fill="#ffffff" stroke="#2e3436" stroke-width="1.5" d="M279.216,-164.5C279.216,-164.5 346.216,-164.5 346.216,-164.5 352.216,-164.5 358.216,-170.5 358.216,-176.5 358.216,-176.5 358.216,-188.5 358.216,-188.5 358.216,-194.5 352.216,-200.5 346.216,-200.5 346.216,-200.5 279.216,-200.5 279.216,-200.5 273.216,-200.5 267.216,-194.5 267.216,-188.5 267.216,-188.5 267.216,-176.5 267.216,-176.5 267.216,-170.5 273.216,-164.5 279.216,-164.5"/>
<text text-anchor="start" x="275.216" y="-180.6" font-family="FreeSans" font-size="8.00" fill="#1c2021">Node[4]name = &#39;Joe&#39;</text>
</g>
<!-- N4&#45;&gt;N0 -->
<g id="edge6" class="edge"><title>N4&#45;&gt;N0</title>
<path fill="none" stroke="#4e9a06" stroke-width="2" d="M299.913,-164.141C291.428,-152.636 280.195,-137.405 270.93,-124.842"/>
<polygon fill="#4e9a06" stroke="#4e9a06" stroke-width="2" points="266.29,-118.55 273.458,-122.583 268.918,-121.271 271.144,-124.289 270.742,-124.586 270.339,-124.883 268.113,-121.865 268.025,-126.589 266.29,-118.55 266.29,-118.55"/>
<text text-anchor="middle" x="297.716" y="-139.6" font-family="FreeSans" font-size="8.00" fill="#4e9a06">knows</text>
</g>
<!-- N4&#45;&gt;N1 -->
<g id="edge5" class="edge"><title>N4&#45;&gt;N1</title>
<path fill="none" stroke="#2e3436" stroke-width="2" d="M316.991,-164.277C322.767,-136.357 329.044,-81.6573 297.716,-55 283.971,-43.3048 266.267,-35.4352 249.185,-30.1503"/>
<polygon fill="#2e3436" stroke="#2e3436" stroke-width="2" points="241.915,-28.0401 250.059,-26.8899 245.656,-28.6054 249.257,-29.6509 249.118,-30.1311 248.979,-30.6112 245.377,-29.5657 248.177,-33.3722 241.915,-28.0401 241.915,-28.0401"/>
<text text-anchor="middle" x="355.216" y="-98.6" font-family="FreeSans" font-size="8.00" fill="#2e3436">member_of_group</text>
</g>
</g>
</svg>
