<?xml version="1.0" encoding="UTF-8" standalone="no"?>
<!DOCTYPE svg PUBLIC "-//W3C//DTD SVG 1.1//EN"
 "http://www.w3.org/Graphics/SVG/1.1/DTD/svg11.dtd">
<!-- Generated by graphviz version 2.36.0 (20140111.2315)
 -->
<!-- Title: g Pages: 1 -->
<svg width="504pt" height="190pt"
 viewBox="0.00 0.00 504.00 190.19" xmlns="http://www.w3.org/2000/svg" xmlns:xlink="http://www.w3.org/1999/xlink">
<g id="graph0" class="graph" transform="scale(0.864494 0.864494) rotate(0) translate(4 216)">
<title>g</title>
<polygon fill="white" stroke="none" points="-4,4 -4,-216 579,-216 579,4 -4,4"/>
<!-- N0 -->
<g id="node1" class="node"><title>N0</title>
<path fill="#ffffff" stroke="#2e3436" stroke-width="1.5" d="M11.5,-91C11.5,-91 80.5,-91 80.5,-91 86.5,-91 92.5,-97 92.5,-103 92.5,-103 92.5,-115 92.5,-115 92.5,-121 86.5,-127 80.5,-127 80.5,-127 11.5,-127 11.5,-127 5.5,-127 -0.5,-121 -0.5,-115 -0.5,-115 -0.5,-103 -0.5,-103 -0.5,-97 5.5,-91 11.5,-91"/>
<text text-anchor="middle" x="46" y="-116.1" font-family="FreeSans" font-size="8.00" fill="#1c2021">Person</text>
<polyline fill="none" stroke="#2e3436" stroke-width="1.5" points="-0.5,-109 92.5,-109 "/>
<text text-anchor="start" x="7.5" y="-98.1" font-family="FreeSans" font-size="8.00" fill="#1c2021">name = &#39;Oliver Stone&#39;</text>
</g>
<!-- N4 -->
<g id="node2" class="node"><title>N4</title>
<path fill="#ffffff" stroke="#2e3436" stroke-width="1.5" d="M144,-0.5C144,-0.5 206,-0.5 206,-0.5 212,-0.5 218,-6.5 218,-12.5 218,-12.5 218,-31.5 218,-31.5 218,-37.5 212,-43.5 206,-43.5 206,-43.5 144,-43.5 144,-43.5 138,-43.5 132,-37.5 132,-31.5 132,-31.5 132,-12.5 132,-12.5 132,-6.5 138,-0.5 144,-0.5"/>
<text text-anchor="middle" x="175" y="-33.1" font-family="FreeSans" font-size="8.00" fill="#1c2021">Movie</text>
<polyline fill="none" stroke="#2e3436" stroke-width="1.5" points="132,-26.5 218,-26.5 "/>
<text text-anchor="start" x="140" y="-16.1" font-family="FreeSans" font-size="8.00" fill="#1c2021">name = &#39;WallStreet&#39;</text>
<text text-anchor="start" x="140" y="-7.1" font-family="FreeSans" font-size="8.00" fill="#1c2021">title = &#39;Wall Street&#39;</text>
</g>
<!-- N0&#45;&gt;N4 -->
<g id="edge1" class="edge"><title>N0&#45;&gt;N4</title>
<path fill="none" stroke="#2e3436" stroke-width="2" d="M58.1576,-90.5721C65.399,-81.1663 75.2568,-69.8994 86,-62 97.5822,-53.4836 111.316,-46.3155 124.485,-40.5417"/>
<polygon fill="#2e3436" stroke="#2e3436" stroke-width="2" points="131.725,-37.4778 126.134,-43.5088 128.467,-39.3997 125.013,-40.8611 124.818,-40.4006 124.623,-39.9401 128.077,-38.4787 123.503,-37.2924 131.725,-37.4778 131.725,-37.4778"/>
<text text-anchor="middle" x="107.5" y="-65.1" font-family="FreeSans" font-size="8.00" fill="#2e3436">DIRECTED</text>
</g>
<!-- N1 -->
<g id="node3" class="node"><title>N1</title>
<path fill="#ffffff" stroke="#2e3436" stroke-width="1.5" d="M189,-175C189,-175 265,-175 265,-175 271,-175 277,-181 277,-187 277,-187 277,-199 277,-199 277,-205 271,-211 265,-211 265,-211 189,-211 189,-211 183,-211 177,-205 177,-199 177,-199 177,-187 177,-187 177,-181 183,-175 189,-175"/>
<text text-anchor="middle" x="227" y="-200.1" font-family="FreeSans" font-size="8.00" fill="#1c2021">Person</text>
<polyline fill="none" stroke="#2e3436" stroke-width="1.5" points="177,-193 277,-193 "/>
<text text-anchor="start" x="185" y="-182.1" font-family="FreeSans" font-size="8.00" fill="#1c2021">name = &#39;Charlie Sheen&#39;</text>
</g>
<!-- N1&#45;&gt;N4 -->
<g id="edge2" class="edge"><title>N1&#45;&gt;N4</title>
<path fill="none" stroke="#4e9a06" stroke-width="2" d="M202.847,-174.822C188.909,-163.351 172.665,-146.927 165,-128 154.978,-103.252 159.617,-72.6329 165.467,-50.8588"/>
<polygon fill="#4e9a06" stroke="#4e9a06" stroke-width="2" points="167.564,-43.5501 168.739,-51.6901 167.01,-47.2925 165.976,-50.897 165.495,-50.759 165.014,-50.6211 166.049,-47.0166 162.251,-49.828 167.564,-43.5501 167.564,-43.5501"/>
<text text-anchor="middle" x="185.5" y="-107.1" font-family="FreeSans" font-size="8.00" fill="#4e9a06">ACTED_IN</text>
</g>
<!-- N2 -->
<g id="node4" class="node"><title>N2</title>
<path fill="#ffffff" stroke="#2e3436" stroke-width="1.5" d="M370.5,-91C370.5,-91 443.5,-91 443.5,-91 449.5,-91 455.5,-97 455.5,-103 455.5,-103 455.5,-115 455.5,-115 455.5,-121 449.5,-127 443.5,-127 443.5,-127 370.5,-127 370.5,-127 364.5,-127 358.5,-121 358.5,-115 358.5,-115 358.5,-103 358.5,-103 358.5,-97 364.5,-91 370.5,-91"/>
<text text-anchor="middle" x="407" y="-116.1" font-family="FreeSans" font-size="8.00" fill="#1c2021">Person</text>
<polyline fill="none" stroke="#2e3436" stroke-width="1.5" points="358.5,-109 455.5,-109 "/>
<text text-anchor="start" x="366.5" y="-98.1" font-family="FreeSans" font-size="8.00" fill="#1c2021">name = &#39;Martin Sheen&#39;</text>
</g>
<!-- N1&#45;&gt;N2 -->
<g id="edge3" class="edge"><title>N1&#45;&gt;N2</title>
<path fill="none" stroke="#a40000" stroke-width="2" d="M264.734,-174.81C293.27,-161.81 332.534,-143.923 362.585,-130.234"/>
<polygon fill="#a40000" stroke="#a40000" stroke-width="2" points="369.624,-127.027 364.199,-133.207 366.419,-129.036 363.007,-130.591 362.799,-130.136 362.592,-129.681 366.005,-128.126 361.4,-127.065 369.624,-127.027 369.624,-127.027"/>
<text text-anchor="middle" x="345" y="-149.1" font-family="FreeSans" font-size="8.00" fill="#a40000">FATHER</text>
</g>
<!-- N2&#45;&gt;N4 -->
<g id="edge5" class="edge"><title>N2&#45;&gt;N4</title>
<path fill="none" stroke="#4e9a06" stroke-width="2" d="M377.298,-90.8736C360.087,-81.4484 337.775,-70.0643 317,-62 287.481,-50.5417 253.287,-41.0419 225.851,-34.2875"/>
<polygon fill="#4e9a06" stroke="#4e9a06" stroke-width="2" points="218.302,-32.4559 226.386,-30.9444 222.064,-32.8542 225.708,-33.7384 225.59,-34.2243 225.472,-34.7102 221.828,-33.826 224.795,-37.5041 218.302,-32.4559 218.302,-32.4559"/>
<text text-anchor="middle" x="360.5" y="-65.1" font-family="FreeSans" font-size="8.00" fill="#4e9a06">ACTED_IN</text>
</g>
<!-- N3 -->
<g id="node5" class="node"><title>N3</title>
<path fill="#ffffff" stroke="#2e3436" stroke-width="1.5" d="M371.5,-0.5C371.5,-0.5 478.5,-0.5 478.5,-0.5 484.5,-0.5 490.5,-6.5 490.5,-12.5 490.5,-12.5 490.5,-31.5 490.5,-31.5 490.5,-37.5 484.5,-43.5 478.5,-43.5 478.5,-43.5 371.5,-43.5 371.5,-43.5 365.5,-43.5 359.5,-37.5 359.5,-31.5 359.5,-31.5 359.5,-12.5 359.5,-12.5 359.5,-6.5 365.5,-0.5 371.5,-0.5"/>
<text text-anchor="middle" x="425" y="-33.1" font-family="FreeSans" font-size="8.00" fill="#1c2021">Movie</text>
<polyline fill="none" stroke="#2e3436" stroke-width="1.5" points="359.5,-26.5 490.5,-26.5 "/>
<text text-anchor="start" x="367.5" y="-16.1" font-family="FreeSans" font-size="8.00" fill="#1c2021">name = &#39;TheAmericanPresident&#39;</text>
<text text-anchor="start" x="367.5" y="-7.1" font-family="FreeSans" font-size="8.00" fill="#1c2021">title = &#39;The American President&#39;</text>
</g>
<!-- N2&#45;&gt;N3 -->
<g id="edge4" class="edge"><title>N2&#45;&gt;N3</title>
<path fill="none" stroke="#4e9a06" stroke-width="2" d="M410.643,-90.799C413.047,-79.4446 416.254,-64.3023 419.026,-51.2084"/>
<polygon fill="#4e9a06" stroke="#4e9a06" stroke-width="2" points="420.6,-43.7797 422.348,-51.8163 420.312,-47.552 419.535,-51.2206 419.046,-51.117 418.557,-51.0134 419.334,-47.3448 415.744,-50.4178 420.6,-43.7797 420.6,-43.7797"/>
<text text-anchor="middle" x="437.5" y="-65.1" font-family="FreeSans" font-size="8.00" fill="#4e9a06">ACTED_IN</text>
</g>
<!-- N5 -->
<g id="node6" class="node"><title>N5</title>
<path fill="#ffffff" stroke="#2e3436" stroke-width="1.5" d="M497,-91C497,-91 563,-91 563,-91 569,-91 575,-97 575,-103 575,-103 575,-115 575,-115 575,-121 569,-127 563,-127 563,-127 497,-127 497,-127 491,-127 485,-121 485,-115 485,-115 485,-103 485,-103 485,-97 491,-91 497,-91"/>
<text text-anchor="middle" x="530" y="-116.1" font-family="FreeSans" font-size="8.00" fill="#1c2021">Person</text>
<polyline fill="none" stroke="#2e3436" stroke-width="1.5" points="485,-109 575,-109 "/>
<text text-anchor="start" x="493" y="-98.1" font-family="FreeSans" font-size="8.00" fill="#1c2021">name = &#39;Rob Reiner&#39;</text>
</g>
<!-- N5&#45;&gt;N3 -->
<g id="edge6" class="edge"><title>N5&#45;&gt;N3</title>
<path fill="none" stroke="#2e3436" stroke-width="2" d="M508.752,-90.799C493.808,-78.7017 473.553,-62.3049 456.706,-48.6665"/>
<polygon fill="#2e3436" stroke="#2e3436" stroke-width="2" points="450.669,-43.7797 458.622,-45.8756 453.898,-45.7506 456.813,-48.1101 456.498,-48.4988 456.184,-48.8874 453.269,-46.5279 454.375,-51.122 450.669,-43.7797 450.669,-43.7797"/>
<text text-anchor="middle" x="505.5" y="-65.1" font-family="FreeSans" font-size="8.00" fill="#2e3436">DIRECTED</text>
</g>
<!-- N6 -->
<g id="node7" class="node"><title>N6</title>
<path fill="#ffffff" stroke="#2e3436" stroke-width="1.5" d="M233,-91C233,-91 317,-91 317,-91 323,-91 329,-97 329,-103 329,-103 329,-115 329,-115 329,-121 323,-127 317,-127 317,-127 233,-127 233,-127 227,-127 221,-121 221,-115 221,-115 221,-103 221,-103 221,-97 227,-91 233,-91"/>
<text text-anchor="middle" x="275" y="-116.1" font-family="FreeSans" font-size="8.00" fill="#1c2021">Person</text>
<polyline fill="none" stroke="#2e3436" stroke-width="1.5" points="221,-109 329,-109 "/>
<text text-anchor="start" x="229" y="-98.1" font-family="FreeSans" font-size="8.00" fill="#1c2021">name = &#39;Michael Douglas&#39;</text>
</g>
<!-- N6&#45;&gt;N4 -->
<g id="edge8" class="edge"><title>N6&#45;&gt;N4</title>
<path fill="none" stroke="#4e9a06" stroke-width="2" d="M225.299,-90.9846C215.422,-85.979 205.728,-79.7158 198,-72 191.992,-66.0012 187.36,-58.1339 183.881,-50.4639"/>
<polygon fill="#4e9a06" stroke="#4e9a06" stroke-width="2" points="181.004,-43.5348 186.997,-49.1672 182.904,-46.8064 184.342,-50.2697 183.88,-50.4615 183.419,-50.6532 181.98,-47.1899 180.763,-51.7557 181.004,-43.5348 181.004,-43.5348"/>
<text text-anchor="middle" x="218.5" y="-65.1" font-family="FreeSans" font-size="8.00" fill="#4e9a06">ACTED_IN</text>
</g>
<!-- N6&#45;&gt;N3 -->
<g id="edge7" class="edge"><title>N6&#45;&gt;N3</title>
<path fill="none" stroke="#4e9a06" stroke-width="2" d="M269.2,-90.6174C267.214,-81.2257 266.826,-69.9579 273,-62 283.169,-48.8922 318.064,-39.4295 351.858,-33.1102"/>
<polygon fill="#4e9a06" stroke="#4e9a06" stroke-width="2" points="359.495,-31.7301 352.715,-36.3851 355.894,-32.889 352.203,-33.5559 352.115,-33.0638 352.026,-32.5718 355.716,-31.905 351.514,-29.7426 359.495,-31.7301 359.495,-31.7301"/>
<text text-anchor="middle" x="293.5" y="-65.1" font-family="FreeSans" font-size="8.00" fill="#4e9a06">ACTED_IN</text>
</g>
</g>
</svg>
