<?xml version="1.0" encoding="UTF-8" standalone="no"?>
<!DOCTYPE svg PUBLIC "-//W3C//DTD SVG 1.1//EN"
 "http://www.w3.org/Graphics/SVG/1.1/DTD/svg11.dtd">
<!-- Generated by graphviz version 2.36.0 (20140111.2315)
 -->
<!-- Title: g Pages: 1 -->
<svg width="118pt" height="130pt"
 viewBox="0.00 0.00 118.00 130.00" xmlns="http://www.w3.org/2000/svg" xmlns:xlink="http://www.w3.org/1999/xlink">
<g id="graph0" class="graph" transform="scale(1 1) rotate(0) translate(4 126)">
<title>g</title>
<polygon fill="white" stroke="none" points="-4,4 -4,-126 114,-126 114,4 -4,4"/>
<!-- N0 -->
<g id="node1" class="node"><title>N0</title>
<path fill="#ffffff" stroke="#2e3436" stroke-width="1.5" d="M21.5,-85C21.5,-85 88.5,-85 88.5,-85 94.5,-85 100.5,-91 100.5,-97 100.5,-97 100.5,-109 100.5,-109 100.5,-115 94.5,-121 88.5,-121 88.5,-121 21.5,-121 21.5,-121 15.5,-121 9.5,-115 9.5,-109 9.5,-109 9.5,-97 9.5,-97 9.5,-91 15.5,-85 21.5,-85"/>
<text text-anchor="middle" x="55" y="-110.1" font-family="FreeSans" font-size="8.00" fill="#1c2021">Actor</text>
<polyline fill="none" stroke="#2e3436" stroke-width="1.5" points="9.5,-103 100.5,-103 "/>
<text text-anchor="start" x="17.5" y="-92.1" font-family="FreeSans" font-size="8.00" fill="#1c2021">name = &#39;Tom Hanks&#39;</text>
</g>
<!-- N1 -->
<g id="node2" class="node"><title>N1</title>
<path fill="#ffffff" stroke="#2e3436" stroke-width="1.5" d="M12,-1C12,-1 98,-1 98,-1 104,-1 110,-7 110,-13 110,-13 110,-25 110,-25 110,-31 104,-37 98,-37 98,-37 12,-37 12,-37 6,-37 0,-31 0,-25 0,-25 0,-13 0,-13 0,-7 6,-1 12,-1"/>
<text text-anchor="middle" x="55" y="-26.1" font-family="FreeSans" font-size="8.00" fill="#1c2021">Movie</text>
<polyline fill="none" stroke="#2e3436" stroke-width="1.5" points="0,-19 110,-19 "/>
<text text-anchor="start" x="8" y="-8.1" font-family="FreeSans" font-size="8.00" fill="#1c2021">title = &#39;Sleepless in Seattle&#39;</text>
</g>
<!-- N0&#45;&gt;N1 -->
<g id="edge1" class="edge"><title>N0&#45;&gt;N1</title>
<path fill="none" stroke="#2e3436" stroke-width="2" d="M55,-84.6099C55,-73.0081 55,-57.5802 55,-44.7099"/>
<polygon fill="#2e3436" stroke="#2e3436" stroke-width="2" points="55,-37.0838 58.3751,-44.5838 55.5,-40.8338 55.5001,-44.5838 55.0001,-44.5838 54.5001,-44.5838 54.5,-40.8338 51.6251,-44.5839 55,-37.0838 55,-37.0838"/>
<text text-anchor="middle" x="75.5" y="-59.1" font-family="FreeSans" font-size="8.00" fill="#2e3436">ACTED_IN</text>
</g>
</g>
</svg>
