<?xml version="1.0" encoding="UTF-8" standalone="no"?>
<!DOCTYPE svg PUBLIC "-//W3C//DTD SVG 1.1//EN"
 "http://www.w3.org/Graphics/SVG/1.1/DTD/svg11.dtd">
<!-- Generated by graphviz version 2.38.0 (20140413.2041)
 -->
<!-- Title: g Pages: 1 -->
<svg width="78pt" height="127pt"
 viewBox="0.00 0.00 77.63 127.00" xmlns="http://www.w3.org/2000/svg" xmlns:xlink="http://www.w3.org/1999/xlink">
<g id="graph0" class="graph" transform="scale(1 1) rotate(0) translate(4 123)">
<title>g</title>
<polygon fill="white" stroke="none" points="-4,4 -4,-123 73.6298,-123 73.6298,4 -4,4"/>
<!-- N0 -->
<g id="node1" class="node"><title>N0</title>
<path fill="#ffffff" stroke="#2e3436" stroke-width="1.5" d="M14.1298,-82.5C14.1298,-82.5 57.1298,-82.5 57.1298,-82.5 63.1298,-82.5 69.1298,-88.5 69.1298,-94.5 69.1298,-94.5 69.1298,-106.5 69.1298,-106.5 69.1298,-112.5 63.1298,-118.5 57.1298,-118.5 57.1298,-118.5 14.1298,-118.5 14.1298,-118.5 8.1298,-118.5 2.1298,-112.5 2.1298,-106.5 2.1298,-106.5 2.1298,-94.5 2.1298,-94.5 2.1298,-88.5 8.1298,-82.5 14.1298,-82.5"/>
<text text-anchor="start" x="10.1298" y="-107.6" font-family="FreeSans" font-size="8.00" fill="#1c2021">name = &#39;A&#39;</text>
<text text-anchor="start" x="10.1298" y="-98.6" font-family="FreeSans" font-size="8.00" fill="#1c2021">happy = &#39;Yes!&#39;</text>
<text text-anchor="start" x="10.1298" y="-89.6" font-family="FreeSans" font-size="8.00" fill="#1c2021">age = 55</text>
</g>
<!-- N1 -->
<g id="node2" class="node"><title>N1</title>
<path fill="#ffffff" stroke="#2e3436" stroke-width="1.5" d="M20.6298,-0.5C20.6298,-0.5 50.6298,-0.5 50.6298,-0.5 56.6298,-0.5 62.6298,-6.5 62.6298,-12.5 62.6298,-12.5 62.6298,-24.5 62.6298,-24.5 62.6298,-30.5 56.6298,-36.5 50.6298,-36.5 50.6298,-36.5 20.6298,-36.5 20.6298,-36.5 14.6298,-36.5 8.6298,-30.5 8.6298,-24.5 8.6298,-24.5 8.6298,-12.5 8.6298,-12.5 8.6298,-6.5 14.6298,-0.5 20.6298,-0.5"/>
<text text-anchor="start" x="16.6298" y="-16.6" font-family="FreeSans" font-size="8.00" fill="#1c2021">name = &#39;B&#39;</text>
</g>
<!-- N0&#45;&gt;N1 -->
<g id="edge1" class="edge"><title>N0&#45;&gt;N1</title>
<path fill="none" stroke="#2e3436" stroke-width="2" d="M14.1815,-82.337C9.0996,-77.0514 4.36506,-70.8104 1.6298,-64 -1.42191,-56.4017 1.21402,-48.9866 6.12563,-42.4566"/>
<polygon fill="#2e3436" stroke="#2e3436" stroke-width="2" points="11.1782,-36.7285 8.74792,-44.5857 9.07249,-39.8716 6.59183,-42.6839 6.21686,-42.3531 5.84189,-42.0224 8.32255,-39.2101 3.6858,-40.1205 11.1782,-36.7285 11.1782,-36.7285"/>
<text text-anchor="middle" x="17.1298" y="-57.6" font-family="FreeSans" font-size="8.00" fill="#2e3436">KNOWS</text>
</g>
<!-- N0&#45;&gt;N1 -->
<g id="edge2" class="edge"><title>N0&#45;&gt;N1</title>
<path fill="none" stroke="#4e9a06" stroke-width="2" d="M35.6298,-82.1412C35.6298,-71.0583 35.6298,-56.5177 35.6298,-44.2358"/>
<polygon fill="#4e9a06" stroke="#4e9a06" stroke-width="2" points="35.6298,-36.5501 39.0049,-44.0501 36.1298,-40.3001 36.1299,-44.0501 35.6299,-44.0501 35.1299,-44.0501 35.1298,-40.3001 32.2549,-44.0501 35.6298,-36.5501 35.6298,-36.5501"/>
<text text-anchor="middle" x="52.6298" y="-57.6" font-family="FreeSans" font-size="8.00" fill="#4e9a06">BLOCKS</text>
</g>
</g>
</svg>
