<?xml version="1.0" encoding="UTF-8" standalone="no"?>
<!DOCTYPE svg PUBLIC "-//W3C//DTD SVG 1.1//EN"
 "http://www.w3.org/Graphics/SVG/1.1/DTD/svg11.dtd">
<!-- Generated by graphviz version 2.36.0 (20140111.2315)
 -->
<!-- Title: g Pages: 1 -->
<svg width="230pt" height="254pt"
 viewBox="0.00 0.00 230.00 254.00" xmlns="http://www.w3.org/2000/svg" xmlns:xlink="http://www.w3.org/1999/xlink">
<g id="graph0" class="graph" transform="scale(1 1) rotate(0) translate(4 250)">
<title>g</title>
<polygon fill="white" stroke="none" points="-4,4 -4,-250 226,-250 226,4 -4,4"/>
<!-- N0 -->
<g id="node1" class="node"><title>N0</title>
<path fill="#ffffff" stroke="#2e3436" stroke-width="1.5" d="M17.5,-13C17.5,-13 64.5,-13 64.5,-13 70.5,-13 76.5,-19 76.5,-25 76.5,-25 76.5,-37 76.5,-37 76.5,-43 70.5,-49 64.5,-49 64.5,-49 17.5,-49 17.5,-49 11.5,-49 5.5,-43 5.5,-37 5.5,-37 5.5,-25 5.5,-25 5.5,-19 11.5,-13 17.5,-13"/>
<text text-anchor="start" x="13.5" y="-38.1" font-family="FreeSans" font-size="8.00" fill="#1c2021">name = &#39;Daniel&#39;</text>
<text text-anchor="start" x="13.5" y="-29.1" font-family="FreeSans" font-size="8.00" fill="#1c2021">age = 54</text>
<text text-anchor="start" x="13.5" y="-20.1" font-family="FreeSans" font-size="8.00" fill="#1c2021">eyes = &#39;brown&#39;</text>
</g>
<!-- N1 -->
<g id="node2" class="node"><title>N1</title>
<path fill="#ffffff" stroke="#2e3436" stroke-width="1.5" d="M123,-0.5C123,-0.5 211,-0.5 211,-0.5 217,-0.5 223,-6.5 223,-12.5 223,-12.5 223,-49.5 223,-49.5 223,-55.5 217,-61.5 211,-61.5 211,-61.5 123,-61.5 123,-61.5 117,-61.5 111,-55.5 111,-49.5 111,-49.5 111,-12.5 111,-12.5 111,-6.5 117,-0.5 123,-0.5"/>
<text text-anchor="middle" x="167" y="-51.1" font-family="FreeSans" font-size="8.00" fill="#1c2021">Spouse</text>
<polyline fill="none" stroke="#2e3436" stroke-width="1.5" points="111,-44.5 223,-44.5 "/>
<text text-anchor="start" x="119" y="-34.1" font-family="FreeSans" font-size="8.00" fill="#1c2021">name = &#39;Eskil&#39;</text>
<text text-anchor="start" x="119" y="-25.1" font-family="FreeSans" font-size="8.00" fill="#1c2021">age = 41</text>
<text text-anchor="start" x="119" y="-16.1" font-family="FreeSans" font-size="8.00" fill="#1c2021">eyes = &#39;blue&#39;</text>
<text text-anchor="start" x="119" y="-7.1" font-family="FreeSans" font-size="8.00" fill="#1c2021">array = [&#39;one&#39;, &#39;two&#39;, &#39;three&#39;]</text>
</g>
<!-- N2 -->
<g id="node3" class="node"><title>N2</title>
<path fill="#ffffff" stroke="#2e3436" stroke-width="1.5" d="M67,-193C67,-193 111,-193 111,-193 117,-193 123,-199 123,-205 123,-205 123,-233 123,-233 123,-239 117,-245 111,-245 111,-245 67,-245 67,-245 61,-245 55,-239 55,-233 55,-233 55,-205 55,-205 55,-199 61,-193 67,-193"/>
<text text-anchor="middle" x="89" y="-234.6" font-family="FreeSans" font-size="8.00" fill="#1c2021">foo, bar</text>
<polyline fill="none" stroke="#2e3436" stroke-width="1.5" points="55,-228 123,-228 "/>
<text text-anchor="start" x="63" y="-217.6" font-family="FreeSans" font-size="8.00" fill="#1c2021">name = &#39;Alice&#39;</text>
<text text-anchor="start" x="63" y="-208.6" font-family="FreeSans" font-size="8.00" fill="#1c2021">age = 38</text>
<text text-anchor="start" x="63" y="-199.6" font-family="FreeSans" font-size="8.00" fill="#1c2021">eyes = &#39;brown&#39;</text>
</g>
<!-- N4 -->
<g id="node4" class="node"><title>N4</title>
<path fill="#ffffff" stroke="#2e3436" stroke-width="1.5" d="M12,-109C12,-109 62,-109 62,-109 68,-109 74,-115 74,-121 74,-121 74,-133 74,-133 74,-139 68,-145 62,-145 62,-145 12,-145 12,-145 6,-145 0,-139 0,-133 0,-133 0,-121 0,-121 0,-115 6,-109 12,-109"/>
<text text-anchor="start" x="8" y="-134.1" font-family="FreeSans" font-size="8.00" fill="#1c2021">name = &#39;Charlie&#39;</text>
<text text-anchor="start" x="8" y="-125.1" font-family="FreeSans" font-size="8.00" fill="#1c2021">age = 53</text>
<text text-anchor="start" x="8" y="-116.1" font-family="FreeSans" font-size="8.00" fill="#1c2021">eyes = &#39;green&#39;</text>
</g>
<!-- N2&#45;&gt;N4 -->
<g id="edge1" class="edge"><title>N2&#45;&gt;N4</title>
<path fill="none" stroke="#2e3436" stroke-width="2" d="M74.5151,-192.93C67.1112,-180.115 58.146,-164.599 50.8365,-151.948"/>
<polygon fill="#2e3436" stroke="#2e3436" stroke-width="2" points="46.9665,-145.25 53.6409,-150.055 49.2755,-148.247 51.1516,-151.494 50.7186,-151.744 50.2857,-151.994 48.4096,-148.747 47.7963,-153.432 46.9665,-145.25 46.9665,-145.25"/>
<text text-anchor="middle" x="78.5" y="-167.1" font-family="FreeSans" font-size="8.00" fill="#2e3436">KNOWS</text>
</g>
<!-- N3 -->
<g id="node5" class="node"><title>N3</title>
<path fill="#ffffff" stroke="#2e3436" stroke-width="1.5" d="M115.5,-109C115.5,-109 154.5,-109 154.5,-109 160.5,-109 166.5,-115 166.5,-121 166.5,-121 166.5,-133 166.5,-133 166.5,-139 160.5,-145 154.5,-145 154.5,-145 115.5,-145 115.5,-145 109.5,-145 103.5,-139 103.5,-133 103.5,-133 103.5,-121 103.5,-121 103.5,-115 109.5,-109 115.5,-109"/>
<text text-anchor="start" x="111.5" y="-134.1" font-family="FreeSans" font-size="8.00" fill="#1c2021">name = &#39;Bob&#39;</text>
<text text-anchor="start" x="111.5" y="-125.1" font-family="FreeSans" font-size="8.00" fill="#1c2021">age = 25</text>
<text text-anchor="start" x="111.5" y="-116.1" font-family="FreeSans" font-size="8.00" fill="#1c2021">eyes = &#39;blue&#39;</text>
</g>
<!-- N2&#45;&gt;N3 -->
<g id="edge2" class="edge"><title>N2&#45;&gt;N3</title>
<path fill="none" stroke="#2e3436" stroke-width="2" d="M101.814,-192.93C108.363,-180.115 116.294,-164.599 122.76,-151.948"/>
<polygon fill="#2e3436" stroke="#2e3436" stroke-width="2" points="126.183,-145.25 125.775,-153.464 124.922,-148.816 123.215,-152.156 122.77,-151.928 122.325,-151.7 124.032,-148.361 119.765,-150.392 126.183,-145.25 126.183,-145.25"/>
<text text-anchor="middle" x="132.5" y="-167.1" font-family="FreeSans" font-size="8.00" fill="#2e3436">KNOWS</text>
</g>
<!-- N4&#45;&gt;N0 -->
<g id="edge5" class="edge"><title>N4&#45;&gt;N0</title>
<path fill="none" stroke="#2e3436" stroke-width="2" d="M35.8494,-108.795C35.5032,-102.845 35.1702,-96.1321 35,-90 34.8767,-85.5573 34.7238,-84.4359 35,-80 35.4675,-72.4903 36.3427,-64.3578 37.2829,-56.9583"/>
<polygon fill="#2e3436" stroke="#2e3436" stroke-width="2" points="38.3125,-49.2809 40.6606,-57.163 38.3096,-53.0641 37.8111,-56.7808 37.3156,-56.7144 36.82,-56.6479 37.3185,-52.9312 33.9705,-56.2657 38.3125,-49.2809 38.3125,-49.2809"/>
<text text-anchor="middle" x="50.5" y="-83.1" font-family="FreeSans" font-size="8.00" fill="#2e3436">KNOWS</text>
</g>
<!-- N3&#45;&gt;N0 -->
<g id="edge3" class="edge"><title>N3&#45;&gt;N0</title>
<path fill="none" stroke="#2e3436" stroke-width="2" d="M117.759,-108.759C102.521,-93.5209 80.1931,-71.1931 63.5424,-54.5424"/>
<polygon fill="#2e3436" stroke="#2e3436" stroke-width="2" points="58.1317,-49.1317 65.8216,-52.0486 61.137,-51.4299 63.7886,-54.0815 63.4351,-54.4351 63.0815,-54.7886 60.4299,-52.137 61.0486,-56.8216 58.1317,-49.1317 58.1317,-49.1317"/>
<text text-anchor="middle" x="112.5" y="-83.1" font-family="FreeSans" font-size="8.00" fill="#2e3436">KNOWS</text>
</g>
<!-- N3&#45;&gt;N1 -->
<g id="edge4" class="edge"><title>N3&#45;&gt;N1</title>
<path fill="none" stroke="#4e9a06" stroke-width="2" d="M140.869,-108.759C144.645,-97.6683 149.699,-82.822 154.356,-69.1423"/>
<polygon fill="#4e9a06" stroke="#4e9a06" stroke-width="2" points="156.891,-61.6938 157.669,-69.8813 156.156,-65.4049 154.948,-68.9548 154.474,-68.7937 154.001,-68.6325 155.21,-65.0826 151.279,-67.706 156.891,-61.6938 156.891,-61.6938"/>
<text text-anchor="middle" x="170" y="-83.1" font-family="FreeSans" font-size="8.00" fill="#4e9a06">MARRIED</text>
</g>
</g>
</svg>
