<?xml version="1.0" encoding="UTF-8" standalone="no"?>
<!DOCTYPE svg PUBLIC "-//W3C//DTD SVG 1.1//EN"
 "http://www.w3.org/Graphics/SVG/1.1/DTD/svg11.dtd">
<!-- Generated by graphviz version 2.38.0 (20140413.2041)
 -->
<!-- Title: g Pages: 1 -->
<svg width="83pt" height="209pt"
 viewBox="0.00 0.00 83.00 209.00" xmlns="http://www.w3.org/2000/svg" xmlns:xlink="http://www.w3.org/1999/xlink">
<g id="graph0" class="graph" transform="scale(1 1) rotate(0) translate(4 205)">
<title>g</title>
<polygon fill="white" stroke="none" points="-4,4 -4,-205 79,-205 79,4 -4,4"/>
<!-- N0 -->
<g id="node1" class="node"><title>N0</title>
<path fill="#ffffff" stroke="#2e3436" stroke-width="1.5" d="M14.5,-164.5C14.5,-164.5 60.5,-164.5 60.5,-164.5 66.5,-164.5 72.5,-170.5 72.5,-176.5 72.5,-176.5 72.5,-188.5 72.5,-188.5 72.5,-194.5 66.5,-200.5 60.5,-200.5 60.5,-200.5 14.5,-200.5 14.5,-200.5 8.5,-200.5 2.5,-194.5 2.5,-188.5 2.5,-188.5 2.5,-176.5 2.5,-176.5 2.5,-170.5 8.5,-164.5 14.5,-164.5"/>
<text text-anchor="middle" x="37.5" y="-189.6" font-family="FreeSans" font-size="8.00" fill="#1c2021">User</text>
<polyline fill="none" stroke="#2e3436" stroke-width="1.5" points="2.5,-182.5 72.5,-182.5 "/>
<text text-anchor="start" x="10.5" y="-171.6" font-family="FreeSans" font-size="8.00" fill="#1c2021">name = &#39;Adam&#39;</text>
</g>
<!-- N1 -->
<g id="node2" class="node"><title>N1</title>
<path fill="#ffffff" stroke="#2e3436" stroke-width="1.5" d="M12,-82.5C12,-82.5 63,-82.5 63,-82.5 69,-82.5 75,-88.5 75,-94.5 75,-94.5 75,-106.5 75,-106.5 75,-112.5 69,-118.5 63,-118.5 63,-118.5 12,-118.5 12,-118.5 6,-118.5 -7.10543e-15,-112.5 -7.10543e-15,-106.5 -7.10543e-15,-106.5 -7.10543e-15,-94.5 -7.10543e-15,-94.5 -7.10543e-15,-88.5 6,-82.5 12,-82.5"/>
<text text-anchor="middle" x="37.5" y="-107.6" font-family="FreeSans" font-size="8.00" fill="#1c2021">User</text>
<polyline fill="none" stroke="#2e3436" stroke-width="1.5" points="-7.10543e-15,-100.5 75,-100.5 "/>
<text text-anchor="start" x="8" y="-89.6" font-family="FreeSans" font-size="8.00" fill="#1c2021">name = &#39;Pernilla&#39;</text>
</g>
<!-- N0&#45;&gt;N1 -->
<g id="edge1" class="edge"><title>N0&#45;&gt;N1</title>
<path fill="none" stroke="#2e3436" stroke-width="2" d="M37.5,-164.141C37.5,-153.058 37.5,-138.518 37.5,-126.236"/>
<polygon fill="#2e3436" stroke="#2e3436" stroke-width="2" points="37.5,-118.55 40.8751,-126.05 38,-122.3 38.0001,-126.05 37.5001,-126.05 37.0001,-126.05 37,-122.3 34.1251,-126.05 37.5,-118.55 37.5,-118.55"/>
<text text-anchor="middle" x="53" y="-139.6" font-family="FreeSans" font-size="8.00" fill="#2e3436">FRIEND</text>
</g>
<!-- N2 -->
<g id="node3" class="node"><title>N2</title>
<path fill="#ffffff" stroke="#2e3436" stroke-width="1.5" d="M15,-0.5C15,-0.5 60,-0.5 60,-0.5 66,-0.5 72,-6.5 72,-12.5 72,-12.5 72,-24.5 72,-24.5 72,-30.5 66,-36.5 60,-36.5 60,-36.5 15,-36.5 15,-36.5 9,-36.5 3,-30.5 3,-24.5 3,-24.5 3,-12.5 3,-12.5 3,-6.5 9,-0.5 15,-0.5"/>
<text text-anchor="middle" x="37.5" y="-25.6" font-family="FreeSans" font-size="8.00" fill="#1c2021">User</text>
<polyline fill="none" stroke="#2e3436" stroke-width="1.5" points="3,-18.5 72,-18.5 "/>
<text text-anchor="start" x="11" y="-7.6" font-family="FreeSans" font-size="8.00" fill="#1c2021">name = &#39;David&#39;</text>
</g>
<!-- N1&#45;&gt;N2 -->
<g id="edge2" class="edge"><title>N1&#45;&gt;N2</title>
<path fill="none" stroke="#2e3436" stroke-width="2" d="M37.5,-82.1412C37.5,-71.0583 37.5,-56.5177 37.5,-44.2358"/>
<polygon fill="#2e3436" stroke="#2e3436" stroke-width="2" points="37.5,-36.5501 40.8751,-44.0501 38,-40.3001 38.0001,-44.0501 37.5001,-44.0501 37.0001,-44.0501 37,-40.3001 34.1251,-44.0501 37.5,-36.5501 37.5,-36.5501"/>
<text text-anchor="middle" x="53" y="-57.6" font-family="FreeSans" font-size="8.00" fill="#2e3436">FRIEND</text>
</g>
</g>
</svg>
