<?xml version="1.0" encoding="UTF-8" standalone="no"?>
<!DOCTYPE svg PUBLIC "-//W3C//DTD SVG 1.1//EN"
 "http://www.w3.org/Graphics/SVG/1.1/DTD/svg11.dtd">
<!-- Generated by graphviz version 2.36.0 (20140111.2315)
 -->
<!-- Title: g Pages: 1 -->
<svg width="504pt" height="150pt"
 viewBox="0.00 0.00 504.00 149.70" xmlns="http://www.w3.org/2000/svg" xmlns:xlink="http://www.w3.org/1999/xlink">
<g id="graph0" class="graph" transform="scale(0.99802 0.99802) rotate(0) translate(4 146)">
<title>g</title>
<polygon fill="white" stroke="none" points="-4,4 -4,-146 501,-146 501,4 -4,4"/>
<!-- N0 -->
<g id="node1" class="node"><title>N0</title>
<path fill="#ffffff" stroke="#2e3436" stroke-width="1.5" d="M11.5,-98.5C11.5,-98.5 66.5,-98.5 66.5,-98.5 72.5,-98.5 78.5,-104.5 78.5,-110.5 78.5,-110.5 78.5,-129.5 78.5,-129.5 78.5,-135.5 72.5,-141.5 66.5,-141.5 66.5,-141.5 11.5,-141.5 11.5,-141.5 5.5,-141.5 -0.5,-135.5 -0.5,-129.5 -0.5,-129.5 -0.5,-110.5 -0.5,-110.5 -0.5,-104.5 5.5,-98.5 11.5,-98.5"/>
<text text-anchor="middle" x="39" y="-131.1" font-family="FreeSans" font-size="8.00" fill="#1c2021">Movie</text>
<polyline fill="none" stroke="#2e3436" stroke-width="1.5" points="-0.5,-124.5 78.5,-124.5 "/>
<text text-anchor="start" x="7.5" y="-114.1" font-family="FreeSans" font-size="8.00" fill="#1c2021">title = &#39;The Matrix&#39;</text>
<text text-anchor="start" x="7.5" y="-105.1" font-family="FreeSans" font-size="8.00" fill="#1c2021">released = 1997</text>
</g>
<!-- N1 -->
<g id="node2" class="node"><title>N1</title>
<path fill="#ffffff" stroke="#2e3436" stroke-width="1.5" d="M94.5,-0.5C94.5,-0.5 151.5,-0.5 151.5,-0.5 157.5,-0.5 163.5,-6.5 163.5,-12.5 163.5,-12.5 163.5,-31.5 163.5,-31.5 163.5,-37.5 157.5,-43.5 151.5,-43.5 151.5,-43.5 94.5,-43.5 94.5,-43.5 88.5,-43.5 82.5,-37.5 82.5,-31.5 82.5,-31.5 82.5,-12.5 82.5,-12.5 82.5,-6.5 88.5,-0.5 94.5,-0.5"/>
<text text-anchor="middle" x="123" y="-33.1" font-family="FreeSans" font-size="8.00" fill="#1c2021">Movie</text>
<polyline fill="none" stroke="#2e3436" stroke-width="1.5" points="82.5,-26.5 163.5,-26.5 "/>
<text text-anchor="start" x="90.5" y="-16.1" font-family="FreeSans" font-size="8.00" fill="#1c2021">title = &#39;Cloud Atlas&#39;</text>
<text text-anchor="start" x="90.5" y="-7.1" font-family="FreeSans" font-size="8.00" fill="#1c2021">released = 2012</text>
</g>
<!-- N2 -->
<g id="node3" class="node"><title>N2</title>
<path fill="#ffffff" stroke="#2e3436" stroke-width="1.5" d="M241.5,-0.5C241.5,-0.5 308.5,-0.5 308.5,-0.5 314.5,-0.5 320.5,-6.5 320.5,-12.5 320.5,-12.5 320.5,-31.5 320.5,-31.5 320.5,-37.5 314.5,-43.5 308.5,-43.5 308.5,-43.5 241.5,-43.5 241.5,-43.5 235.5,-43.5 229.5,-37.5 229.5,-31.5 229.5,-31.5 229.5,-12.5 229.5,-12.5 229.5,-6.5 235.5,-0.5 241.5,-0.5"/>
<text text-anchor="middle" x="275" y="-33.1" font-family="FreeSans" font-size="8.00" fill="#1c2021">Movie</text>
<polyline fill="none" stroke="#2e3436" stroke-width="1.5" points="229.5,-26.5 320.5,-26.5 "/>
<text text-anchor="start" x="237.5" y="-16.1" font-family="FreeSans" font-size="8.00" fill="#1c2021">title = &#39;Forrest Gump&#39;</text>
<text text-anchor="start" x="237.5" y="-7.1" font-family="FreeSans" font-size="8.00" fill="#1c2021">released = 1994</text>
</g>
<!-- N3 -->
<g id="node4" class="node"><title>N3</title>
<path fill="#ffffff" stroke="#2e3436" stroke-width="1.5" d="M408.5,-98.5C408.5,-98.5 485.5,-98.5 485.5,-98.5 491.5,-98.5 497.5,-104.5 497.5,-110.5 497.5,-110.5 497.5,-129.5 497.5,-129.5 497.5,-135.5 491.5,-141.5 485.5,-141.5 485.5,-141.5 408.5,-141.5 408.5,-141.5 402.5,-141.5 396.5,-135.5 396.5,-129.5 396.5,-129.5 396.5,-110.5 396.5,-110.5 396.5,-104.5 402.5,-98.5 408.5,-98.5"/>
<text text-anchor="middle" x="447" y="-131.1" font-family="FreeSans" font-size="8.00" fill="#1c2021">Person</text>
<polyline fill="none" stroke="#2e3436" stroke-width="1.5" points="396.5,-124.5 497.5,-124.5 "/>
<text text-anchor="start" x="404.5" y="-114.1" font-family="FreeSans" font-size="8.00" fill="#1c2021">name = &#39;Keanu Reeves&#39;</text>
<text text-anchor="start" x="404.5" y="-105.1" font-family="FreeSans" font-size="8.00" fill="#1c2021">born = 1964</text>
</g>
<!-- N4 -->
<g id="node5" class="node"><title>N4</title>
<path fill="#ffffff" stroke="#2e3436" stroke-width="1.5" d="M268.5,-98.5C268.5,-98.5 355.5,-98.5 355.5,-98.5 361.5,-98.5 367.5,-104.5 367.5,-110.5 367.5,-110.5 367.5,-129.5 367.5,-129.5 367.5,-135.5 361.5,-141.5 355.5,-141.5 355.5,-141.5 268.5,-141.5 268.5,-141.5 262.5,-141.5 256.5,-135.5 256.5,-129.5 256.5,-129.5 256.5,-110.5 256.5,-110.5 256.5,-104.5 262.5,-98.5 268.5,-98.5"/>
<text text-anchor="middle" x="312" y="-131.1" font-family="FreeSans" font-size="8.00" fill="#1c2021">Person</text>
<polyline fill="none" stroke="#2e3436" stroke-width="1.5" points="256.5,-124.5 367.5,-124.5 "/>
<text text-anchor="start" x="264.5" y="-114.1" font-family="FreeSans" font-size="8.00" fill="#1c2021">name = &#39;Robert Zemeckis&#39;</text>
<text text-anchor="start" x="264.5" y="-105.1" font-family="FreeSans" font-size="8.00" fill="#1c2021">born = 1951</text>
</g>
<!-- N4&#45;&gt;N2 -->
<g id="edge1" class="edge"><title>N4&#45;&gt;N2</title>
<path fill="none" stroke="#2e3436" stroke-width="2" d="M303.972,-98.1694C298.638,-84.3314 291.573,-66.0013 285.756,-50.9064"/>
<polygon fill="#2e3436" stroke="#2e3436" stroke-width="2" points="283.013,-43.7899 288.859,-49.5744 284.828,-47.1092 286.177,-50.6083 285.71,-50.7881 285.244,-50.968 283.895,-47.4688 282.561,-52.0019 283.013,-43.7899 283.013,-43.7899"/>
<text text-anchor="middle" x="317.5" y="-69.1" font-family="FreeSans" font-size="8.00" fill="#2e3436">DIRECTED</text>
</g>
<!-- N5 -->
<g id="node6" class="node"><title>N5</title>
<path fill="#ffffff" stroke="#2e3436" stroke-width="1.5" d="M119.5,-98.5C119.5,-98.5 186.5,-98.5 186.5,-98.5 192.5,-98.5 198.5,-104.5 198.5,-110.5 198.5,-110.5 198.5,-129.5 198.5,-129.5 198.5,-135.5 192.5,-141.5 186.5,-141.5 186.5,-141.5 119.5,-141.5 119.5,-141.5 113.5,-141.5 107.5,-135.5 107.5,-129.5 107.5,-129.5 107.5,-110.5 107.5,-110.5 107.5,-104.5 113.5,-98.5 119.5,-98.5"/>
<text text-anchor="middle" x="153" y="-131.1" font-family="FreeSans" font-size="8.00" fill="#1c2021">Person</text>
<polyline fill="none" stroke="#2e3436" stroke-width="1.5" points="107.5,-124.5 198.5,-124.5 "/>
<text text-anchor="start" x="115.5" y="-114.1" font-family="FreeSans" font-size="8.00" fill="#1c2021">name = &#39;Tom Hanks&#39;</text>
<text text-anchor="start" x="115.5" y="-105.1" font-family="FreeSans" font-size="8.00" fill="#1c2021">born = 1956</text>
</g>
<!-- N5&#45;&gt;N1 -->
<g id="edge2" class="edge"><title>N5&#45;&gt;N1</title>
<path fill="none" stroke="#4e9a06" stroke-width="2" d="M131.768,-98.4C127.37,-92.8797 123.36,-86.5972 121,-80 117.769,-70.9681 117.27,-60.6094 117.897,-51.2216"/>
<polygon fill="#4e9a06" stroke="#4e9a06" stroke-width="2" points="118.654,-43.6145 121.27,-51.4119 118.78,-47.3956 118.409,-51.1271 117.911,-51.0776 117.414,-51.0281 117.785,-47.2965 114.553,-50.7433 118.654,-43.6145 118.654,-43.6145"/>
<text text-anchor="middle" x="151" y="-73.6" font-family="FreeSans" font-size="8.00" fill="#4e9a06">ACTED_IN</text>
<text text-anchor="start" x="121" y="-64.6" font-family="FreeSans" font-size="8.00" fill="#4e9a06">roles = [&#39;Zachry&#39;]</text>
</g>
<!-- N5&#45;&gt;N2 -->
<g id="edge3" class="edge"><title>N5&#45;&gt;N2</title>
<path fill="none" stroke="#4e9a06" stroke-width="2" d="M177.318,-98.3487C190.413,-87.3717 206.93,-73.7541 222,-62 227.878,-57.4155 234.202,-52.6344 240.364,-48.0547"/>
<polygon fill="#4e9a06" stroke="#4e9a06" stroke-width="2" points="246.449,-43.5569 242.424,-50.729 243.731,-46.188 240.715,-48.417 240.418,-48.015 240.121,-47.6129 243.136,-45.3838 238.412,-45.3009 246.449,-43.5569 246.449,-43.5569"/>
<text text-anchor="middle" x="252.5" y="-73.6" font-family="FreeSans" font-size="8.00" fill="#4e9a06">ACTED_IN</text>
<text text-anchor="start" x="222" y="-64.6" font-family="FreeSans" font-size="8.00" fill="#4e9a06">roles = [&#39;Forrest&#39;]</text>
</g>
</g>
</svg>
