<?xml version="1.0" encoding="UTF-8" standalone="no"?>
<!DOCTYPE svg PUBLIC "-//W3C//DTD SVG 1.1//EN"
 "http://www.w3.org/Graphics/SVG/1.1/DTD/svg11.dtd">
<!-- Generated by graphviz version 2.36.0 (20140111.2315)
 -->
<!-- Title: g Pages: 1 -->
<svg width="504pt" height="95pt"
 viewBox="0.00 0.00 504.00 94.54" xmlns="http://www.w3.org/2000/svg" xmlns:xlink="http://www.w3.org/1999/xlink">
<g id="graph0" class="graph" transform="scale(0.590856 0.590856) rotate(0) translate(4 156)">
<title>g</title>
<polygon fill="white" stroke="none" points="-4,4 -4,-156 849,-156 849,4 -4,4"/>
<!-- N0 -->
<g id="node1" class="node"><title>N0</title>
<path fill="#ffffff" stroke="#2e3436" stroke-width="1.5" d="M120,-1C120,-1 176,-1 176,-1 182,-1 188,-7 188,-13 188,-13 188,-41 188,-41 188,-47 182,-53 176,-53 176,-53 120,-53 120,-53 114,-53 108,-47 108,-41 108,-41 108,-13 108,-13 108,-7 114,-1 120,-1"/>
<text text-anchor="middle" x="148" y="-42.6" font-family="FreeSans" font-size="8.00" fill="#1c2021">Movie</text>
<polyline fill="none" stroke="#2e3436" stroke-width="1.5" points="108,-36 188,-36 "/>
<text text-anchor="start" x="116" y="-25.6" font-family="FreeSans" font-size="8.00" fill="#1c2021">id = &#39;1&#39;</text>
<text text-anchor="start" x="116" y="-16.6" font-family="FreeSans" font-size="8.00" fill="#1c2021">title = &#39;Wall Street&#39;</text>
<text text-anchor="start" x="116" y="-7.6" font-family="FreeSans" font-size="8.00" fill="#1c2021">released = 1987</text>
</g>
<!-- N1 -->
<g id="node2" class="node"><title>N1</title>
<path fill="#ffffff" stroke="#2e3436" stroke-width="1.5" d="M337,-1C337,-1 441,-1 441,-1 447,-1 453,-7 453,-13 453,-13 453,-41 453,-41 453,-47 447,-53 441,-53 441,-53 337,-53 337,-53 331,-53 325,-47 325,-41 325,-41 325,-13 325,-13 325,-7 331,-1 337,-1"/>
<text text-anchor="middle" x="389" y="-42.6" font-family="FreeSans" font-size="8.00" fill="#1c2021">Movie</text>
<polyline fill="none" stroke="#2e3436" stroke-width="1.5" points="325,-36 453,-36 "/>
<text text-anchor="start" x="333" y="-25.6" font-family="FreeSans" font-size="8.00" fill="#1c2021">id = &#39;2&#39;</text>
<text text-anchor="start" x="333" y="-16.6" font-family="FreeSans" font-size="8.00" fill="#1c2021">title = &#39;The American President&#39;</text>
<text text-anchor="start" x="333" y="-7.6" font-family="FreeSans" font-size="8.00" fill="#1c2021">released = 1995</text>
</g>
<!-- N2 -->
<g id="node3" class="node"><title>N2</title>
<path fill="#ffffff" stroke="#2e3436" stroke-width="1.5" d="M606.5,-1C606.5,-1 727.5,-1 727.5,-1 733.5,-1 739.5,-7 739.5,-13 739.5,-13 739.5,-41 739.5,-41 739.5,-47 733.5,-53 727.5,-53 727.5,-53 606.5,-53 606.5,-53 600.5,-53 594.5,-47 594.5,-41 594.5,-41 594.5,-13 594.5,-13 594.5,-7 600.5,-1 606.5,-1"/>
<text text-anchor="middle" x="667" y="-42.6" font-family="FreeSans" font-size="8.00" fill="#1c2021">Movie</text>
<polyline fill="none" stroke="#2e3436" stroke-width="1.5" points="594.5,-36 739.5,-36 "/>
<text text-anchor="start" x="602.5" y="-25.6" font-family="FreeSans" font-size="8.00" fill="#1c2021">id = &#39;3&#39;</text>
<text text-anchor="start" x="602.5" y="-16.6" font-family="FreeSans" font-size="8.00" fill="#1c2021">title = &#39;The Shawshank Redemption&#39;</text>
<text text-anchor="start" x="602.5" y="-7.6" font-family="FreeSans" font-size="8.00" fill="#1c2021">released = 1994</text>
</g>
<!-- N3 -->
<g id="node4" class="node"><title>N3</title>
<path fill="#ffffff" stroke="#2e3436" stroke-width="1.5" d="M12,-108.5C12,-108.5 88,-108.5 88,-108.5 94,-108.5 100,-114.5 100,-120.5 100,-120.5 100,-139.5 100,-139.5 100,-145.5 94,-151.5 88,-151.5 88,-151.5 12,-151.5 12,-151.5 6,-151.5 0,-145.5 0,-139.5 0,-139.5 0,-120.5 0,-120.5 0,-114.5 6,-108.5 12,-108.5"/>
<text text-anchor="middle" x="50" y="-141.1" font-family="FreeSans" font-size="8.00" fill="#1c2021">Person</text>
<polyline fill="none" stroke="#2e3436" stroke-width="1.5" points="0,-134.5 100,-134.5 "/>
<text text-anchor="start" x="8" y="-124.1" font-family="FreeSans" font-size="8.00" fill="#1c2021">id = &#39;1&#39;</text>
<text text-anchor="start" x="8" y="-115.1" font-family="FreeSans" font-size="8.00" fill="#1c2021">name = &#39;Charlie Sheen&#39;</text>
</g>
<!-- N3&#45;&gt;N0 -->
<g id="edge1" class="edge"><title>N3&#45;&gt;N0</title>
<path fill="none" stroke="#2e3436" stroke-width="2" d="M53.4685,-108.491C56.3018,-96.7631 61.3123,-82.3706 70,-72 78.4296,-61.9374 89.7831,-53.7263 101.215,-47.2399"/>
<polygon fill="#2e3436" stroke="#2e3436" stroke-width="2" points="107.933,-43.6192 102.932,-50.1484 104.869,-45.8384 101.568,-47.6175 101.331,-47.1774 101.094,-46.7372 104.395,-44.9581 99.7299,-44.2063 107.933,-43.6192 107.933,-43.6192"/>
<text text-anchor="middle" x="102" y="-83.6" font-family="FreeSans" font-size="8.00" fill="#2e3436">ACTED_IN</text>
<text text-anchor="start" x="70" y="-74.6" font-family="FreeSans" font-size="8.00" fill="#2e3436">roles = [&#39;Bud Fox&#39;]</text>
</g>
<!-- N4 -->
<g id="node5" class="node"><title>N4</title>
<path fill="#ffffff" stroke="#2e3436" stroke-width="1.5" d="M764.5,-108.5C764.5,-108.5 833.5,-108.5 833.5,-108.5 839.5,-108.5 845.5,-114.5 845.5,-120.5 845.5,-120.5 845.5,-139.5 845.5,-139.5 845.5,-145.5 839.5,-151.5 833.5,-151.5 833.5,-151.5 764.5,-151.5 764.5,-151.5 758.5,-151.5 752.5,-145.5 752.5,-139.5 752.5,-139.5 752.5,-120.5 752.5,-120.5 752.5,-114.5 758.5,-108.5 764.5,-108.5"/>
<text text-anchor="middle" x="799" y="-141.1" font-family="FreeSans" font-size="8.00" fill="#1c2021">Person</text>
<polyline fill="none" stroke="#2e3436" stroke-width="1.5" points="752.5,-134.5 845.5,-134.5 "/>
<text text-anchor="start" x="760.5" y="-124.1" font-family="FreeSans" font-size="8.00" fill="#1c2021">id = &#39;2&#39;</text>
<text text-anchor="start" x="760.5" y="-115.1" font-family="FreeSans" font-size="8.00" fill="#1c2021">name = &#39;Oliver Stone&#39;</text>
</g>
<!-- N5 -->
<g id="node6" class="node"><title>N5</title>
<path fill="#ffffff" stroke="#2e3436" stroke-width="1.5" d="M394,-108.5C394,-108.5 478,-108.5 478,-108.5 484,-108.5 490,-114.5 490,-120.5 490,-120.5 490,-139.5 490,-139.5 490,-145.5 484,-151.5 478,-151.5 478,-151.5 394,-151.5 394,-151.5 388,-151.5 382,-145.5 382,-139.5 382,-139.5 382,-120.5 382,-120.5 382,-114.5 388,-108.5 394,-108.5"/>
<text text-anchor="middle" x="436" y="-141.1" font-family="FreeSans" font-size="8.00" fill="#1c2021">Person</text>
<polyline fill="none" stroke="#2e3436" stroke-width="1.5" points="382,-134.5 490,-134.5 "/>
<text text-anchor="start" x="390" y="-124.1" font-family="FreeSans" font-size="8.00" fill="#1c2021">id = &#39;3&#39;</text>
<text text-anchor="start" x="390" y="-115.1" font-family="FreeSans" font-size="8.00" fill="#1c2021">name = &#39;Michael Douglas&#39;</text>
</g>
<!-- N5&#45;&gt;N0 -->
<g id="edge3" class="edge"><title>N5&#45;&gt;N0</title>
<path fill="none" stroke="#2e3436" stroke-width="2" d="M399.597,-108.349C389.606,-102.535 378.822,-96.1246 369,-90 356.762,-82.3688 355.253,-77.6895 342,-72 294.546,-51.6275 236.34,-40.0425 196.132,-33.93"/>
<polygon fill="#2e3436" stroke="#2e3436" stroke-width="2" points="188.339,-32.7795 196.252,-30.5362 192.122,-32.8326 195.832,-33.3803 195.759,-33.875 195.686,-34.3696 191.976,-33.8219 195.266,-37.2138 188.339,-32.7795 188.339,-32.7795"/>
<text text-anchor="middle" x="413" y="-83.6" font-family="FreeSans" font-size="8.00" fill="#2e3436">ACTED_IN</text>
<text text-anchor="start" x="369" y="-74.6" font-family="FreeSans" font-size="8.00" fill="#2e3436">roles = [&#39;Gordon Gekko&#39;]</text>
</g>
<!-- N5&#45;&gt;N1 -->
<g id="edge2" class="edge"><title>N5&#45;&gt;N1</title>
<path fill="none" stroke="#2e3436" stroke-width="2" d="M456.277,-108.36C464.539,-97.386 470.74,-83.7678 464,-72 461.046,-66.8419 457.226,-62.2297 452.877,-58.1173"/>
<polygon fill="#2e3436" stroke="#2e3436" stroke-width="2" points="447.11,-53.1723 455.001,-55.4925 450.283,-55.2338 453.129,-57.6749 452.804,-58.0545 452.478,-58.434 449.632,-55.9929 450.607,-60.6165 447.11,-53.1723 447.11,-53.1723"/>
<text text-anchor="middle" x="535" y="-83.6" font-family="FreeSans" font-size="8.00" fill="#2e3436">ACTED_IN</text>
<text text-anchor="start" x="467" y="-74.6" font-family="FreeSans" font-size="8.00" fill="#2e3436">roles = [&#39;President Andrew Shepherd&#39;]</text>
</g>
<!-- N6 -->
<g id="node7" class="node"><title>N6</title>
<path fill="#ffffff" stroke="#2e3436" stroke-width="1.5" d="M173.5,-108.5C173.5,-108.5 246.5,-108.5 246.5,-108.5 252.5,-108.5 258.5,-114.5 258.5,-120.5 258.5,-120.5 258.5,-139.5 258.5,-139.5 258.5,-145.5 252.5,-151.5 246.5,-151.5 246.5,-151.5 173.5,-151.5 173.5,-151.5 167.5,-151.5 161.5,-145.5 161.5,-139.5 161.5,-139.5 161.5,-120.5 161.5,-120.5 161.5,-114.5 167.5,-108.5 173.5,-108.5"/>
<text text-anchor="middle" x="210" y="-141.1" font-family="FreeSans" font-size="8.00" fill="#1c2021">Person</text>
<polyline fill="none" stroke="#2e3436" stroke-width="1.5" points="161.5,-134.5 258.5,-134.5 "/>
<text text-anchor="start" x="169.5" y="-124.1" font-family="FreeSans" font-size="8.00" fill="#1c2021">id = &#39;4&#39;</text>
<text text-anchor="start" x="169.5" y="-115.1" font-family="FreeSans" font-size="8.00" fill="#1c2021">name = &#39;Martin Sheen&#39;</text>
</g>
<!-- N6&#45;&gt;N0 -->
<g id="edge5" class="edge"><title>N6&#45;&gt;N0</title>
<path fill="none" stroke="#2e3436" stroke-width="2" d="M162.882,-108.346C156.117,-103.328 150.078,-97.2605 146,-90 141.131,-81.3313 140.034,-70.8518 140.622,-60.9948"/>
<polygon fill="#2e3436" stroke="#2e3436" stroke-width="2" points="141.414,-53.2697 144.006,-61.075 141.529,-57.0512 141.146,-60.7816 140.649,-60.7306 140.151,-60.6795 140.534,-56.9491 137.291,-60.3861 141.414,-53.2697 141.414,-53.2697"/>
<text text-anchor="middle" x="178.5" y="-83.6" font-family="FreeSans" font-size="8.00" fill="#2e3436">ACTED_IN</text>
<text text-anchor="start" x="146" y="-74.6" font-family="FreeSans" font-size="8.00" fill="#2e3436">roles = [&#39;Carl Fox&#39;]</text>
</g>
<!-- N6&#45;&gt;N1 -->
<g id="edge4" class="edge"><title>N6&#45;&gt;N1</title>
<path fill="none" stroke="#2e3436" stroke-width="2" d="M218.146,-108.436C223.948,-96.2394 232.875,-81.378 245,-72 265.89,-55.8426 292.719,-45.5854 317.545,-39.0877"/>
<polygon fill="#2e3436" stroke="#2e3436" stroke-width="2" points="324.831,-37.2714 318.37,-42.3604 321.313,-38.6637 317.675,-39.5708 317.554,-39.0857 317.433,-38.6005 321.072,-37.6934 316.737,-35.8109 324.831,-37.2714 324.831,-37.2714"/>
<text text-anchor="middle" x="292" y="-83.6" font-family="FreeSans" font-size="8.00" fill="#2e3436">ACTED_IN</text>
<text text-anchor="start" x="245" y="-74.6" font-family="FreeSans" font-size="8.00" fill="#2e3436">roles = [&#39;A.J. MacInerney&#39;]</text>
</g>
<!-- N7 -->
<g id="node8" class="node"><title>N7</title>
<path fill="#ffffff" stroke="#2e3436" stroke-width="1.5" d="M623,-108.5C623,-108.5 711,-108.5 711,-108.5 717,-108.5 723,-114.5 723,-120.5 723,-120.5 723,-139.5 723,-139.5 723,-145.5 717,-151.5 711,-151.5 711,-151.5 623,-151.5 623,-151.5 617,-151.5 611,-145.5 611,-139.5 611,-139.5 611,-120.5 611,-120.5 611,-114.5 617,-108.5 623,-108.5"/>
<text text-anchor="middle" x="667" y="-141.1" font-family="FreeSans" font-size="8.00" fill="#1c2021">Person</text>
<polyline fill="none" stroke="#2e3436" stroke-width="1.5" points="611,-134.5 723,-134.5 "/>
<text text-anchor="start" x="619" y="-124.1" font-family="FreeSans" font-size="8.00" fill="#1c2021">id = &#39;5&#39;</text>
<text text-anchor="start" x="619" y="-115.1" font-family="FreeSans" font-size="8.00" fill="#1c2021">name = &#39;Morgan Freeman&#39;</text>
</g>
<!-- N7&#45;&gt;N2 -->
<g id="edge6" class="edge"><title>N7&#45;&gt;N2</title>
<path fill="none" stroke="#2e3436" stroke-width="2" d="M667,-108.073C667,-94.4926 667,-76.5071 667,-61.0224"/>
<polygon fill="#2e3436" stroke="#2e3436" stroke-width="2" points="667,-53.1895 670.375,-60.6894 667.5,-56.9394 667.5,-60.6894 667,-60.6895 666.5,-60.6895 666.5,-56.9395 663.625,-60.6895 667,-53.1895 667,-53.1895"/>
<text text-anchor="middle" x="732" y="-83.6" font-family="FreeSans" font-size="8.00" fill="#2e3436">ACTED_IN</text>
<text text-anchor="start" x="667" y="-74.6" font-family="FreeSans" font-size="8.00" fill="#2e3436">roles = [&#39;Ellis Boyd \\&#39;Red\\&#39; Redding&#39;]</text>
</g>
</g>
</svg>
