<?xml version="1.0" encoding="UTF-8" standalone="no"?>
<!DOCTYPE svg PUBLIC "-//W3C//DTD SVG 1.1//EN"
 "http://www.w3.org/Graphics/SVG/1.1/DTD/svg11.dtd">
<!-- Generated by graphviz version 2.36.0 (20140111.2315)
 -->
<!-- Title: g Pages: 1 -->
<svg width="210pt" height="203pt"
 viewBox="0.00 0.00 210.31 203.49" xmlns="http://www.w3.org/2000/svg" xmlns:xlink="http://www.w3.org/1999/xlink">
<g id="graph0" class="graph" transform="scale(1 1) rotate(0) translate(4 199.49)">
<title>g</title>
<polygon fill="white" stroke="none" points="-4,4 -4,-199.49 206.309,-199.49 206.309,4 -4,4"/>
<!-- N0 -->
<g id="node1" class="node"><title>N0</title>
<path fill="#ffffff" stroke="#2e3436" stroke-width="1.5" d="M89.989,-78.2245C89.989,-78.2245 119.989,-78.2245 119.989,-78.2245 125.989,-78.2245 131.989,-84.2245 131.989,-90.2245 131.989,-90.2245 131.989,-102.224 131.989,-102.224 131.989,-108.224 125.989,-114.224 119.989,-114.224 119.989,-114.224 89.989,-114.224 89.989,-114.224 83.989,-114.224 77.989,-108.224 77.989,-102.224 77.989,-102.224 77.989,-90.2245 77.989,-90.2245 77.989,-84.2245 83.989,-78.2245 89.989,-78.2245"/>
<text text-anchor="middle" x="104.989" y="-94.3245" font-family="FreeSans" font-size="8.00" fill="#1c2021"> </text>
</g>
<!-- N6 -->
<g id="node2" class="node"><title>N6</title>
<path fill="#ffffff" stroke="#2e3436" stroke-width="1.5" d="M160.309,-38.7009C160.309,-38.7009 190.309,-38.7009 190.309,-38.7009 196.309,-38.7009 202.309,-44.7009 202.309,-50.7009 202.309,-50.7009 202.309,-62.7009 202.309,-62.7009 202.309,-68.7009 196.309,-74.7009 190.309,-74.7009 190.309,-74.7009 160.309,-74.7009 160.309,-74.7009 154.309,-74.7009 148.309,-68.7009 148.309,-62.7009 148.309,-62.7009 148.309,-50.7009 148.309,-50.7009 148.309,-44.7009 154.309,-38.7009 160.309,-38.7009"/>
<text text-anchor="middle" x="175.309" y="-54.8009" font-family="FreeSans" font-size="8.00" fill="#1c2021"> </text>
</g>
<!-- N0&#45;&gt;N6 -->
<g id="edge1" class="edge"><title>N0&#45;&gt;N6</title>
<path fill="none" stroke="#2e3436" stroke-width="2" d="M132.378,-80.8305C135.241,-79.2211 138.177,-77.5711 141.104,-75.926"/>
<polygon fill="#2e3436" stroke="#2e3436" stroke-width="2" points="147.879,-72.1179 142.995,-78.7349 144.855,-74.3912 141.586,-76.2286 141.341,-75.7927 141.096,-75.3569 144.365,-73.5195 139.688,-72.8506 147.879,-72.1179 147.879,-72.1179"/>
<text text-anchor="middle" x="139.741" y="-80.9782" font-family="FreeSans" font-size="8.00" fill="#2e3436">X</text>
</g>
<!-- N5 -->
<g id="node3" class="node"><title>N5</title>
<path fill="#ffffff" stroke="#2e3436" stroke-width="1.5" d="M111.869,-0.5C111.869,-0.5 141.869,-0.5 141.869,-0.5 147.869,-0.5 153.869,-6.5 153.869,-12.5 153.869,-12.5 153.869,-24.5 153.869,-24.5 153.869,-30.5 147.869,-36.5 141.869,-36.5 141.869,-36.5 111.869,-36.5 111.869,-36.5 105.869,-36.5 99.8688,-30.5 99.8688,-24.5 99.8688,-24.5 99.8688,-12.5 99.8688,-12.5 99.8688,-6.5 105.869,-0.5 111.869,-0.5"/>
<text text-anchor="middle" x="126.869" y="-16.6" font-family="FreeSans" font-size="8.00" fill="#1c2021"> </text>
</g>
<!-- N0&#45;&gt;N5 -->
<g id="edge2" class="edge"><title>N0&#45;&gt;N5</title>
<path fill="none" stroke="#2e3436" stroke-width="2" d="M110.064,-78.1975C112.915,-68.0682 116.521,-55.2576 119.661,-44.103"/>
<polygon fill="#2e3436" stroke="#2e3436" stroke-width="2" points="121.746,-36.6984 122.962,-44.8324 121.211,-40.4436 120.195,-44.0533 119.714,-43.9178 119.232,-43.7823 120.248,-40.1726 116.465,-43.0032 121.746,-36.6984 121.746,-36.6984"/>
<text text-anchor="middle" x="111.863" y="-63.7503" font-family="FreeSans" font-size="8.00" fill="#2e3436">X</text>
</g>
<!-- N4 -->
<g id="node4" class="node"><title>N4</title>
<path fill="#ffffff" stroke="#2e3436" stroke-width="1.5" d="M89.4845,-158.99C89.4845,-158.99 119.484,-158.99 119.484,-158.99 125.484,-158.99 131.484,-164.99 131.484,-170.99 131.484,-170.99 131.484,-182.99 131.484,-182.99 131.484,-188.99 125.484,-194.99 119.484,-194.99 119.484,-194.99 89.4845,-194.99 89.4845,-194.99 83.4845,-194.99 77.4845,-188.99 77.4845,-182.99 77.4845,-182.99 77.4845,-170.99 77.4845,-170.99 77.4845,-164.99 83.4845,-158.99 89.4845,-158.99"/>
<text text-anchor="middle" x="104.484" y="-175.09" font-family="FreeSans" font-size="8.00" fill="#1c2021"> </text>
</g>
<!-- N0&#45;&gt;N4 -->
<g id="edge3" class="edge"><title>N0&#45;&gt;N4</title>
<path fill="none" stroke="#2e3436" stroke-width="2" d="M104.875,-114.551C104.807,-125.394 104.72,-139.297 104.645,-151.23"/>
<polygon fill="#2e3436" stroke="#2e3436" stroke-width="2" points="104.598,-158.735 101.271,-151.214 104.122,-154.982 104.145,-151.232 104.645,-151.236 105.145,-151.239 105.122,-154.989 108.02,-151.257 104.598,-158.735 104.598,-158.735"/>
<text text-anchor="middle" x="101.76" y="-135.491" font-family="FreeSans" font-size="8.00" fill="#2e3436">X</text>
</g>
<!-- N3 -->
<g id="node5" class="node"><title>N3</title>
<path fill="#ffffff" stroke="#2e3436" stroke-width="1.5" d="M146.575,-135.869C146.575,-135.869 176.575,-135.869 176.575,-135.869 182.575,-135.869 188.575,-141.869 188.575,-147.869 188.575,-147.869 188.575,-159.869 188.575,-159.869 188.575,-165.869 182.575,-171.869 176.575,-171.869 176.575,-171.869 146.575,-171.869 146.575,-171.869 140.575,-171.869 134.575,-165.869 134.575,-159.869 134.575,-159.869 134.575,-147.869 134.575,-147.869 134.575,-141.869 140.575,-135.869 146.575,-135.869"/>
<text text-anchor="middle" x="161.575" y="-151.969" font-family="FreeSans" font-size="8.00" fill="#1c2021"> </text>
</g>
<!-- N0&#45;&gt;N3 -->
<g id="edge4" class="edge"><title>N0&#45;&gt;N3</title>
<path fill="none" stroke="#2e3436" stroke-width="2" d="M122.893,-114.464C127.744,-119.405 133.068,-124.828 138.173,-130.029"/>
<polygon fill="#2e3436" stroke="#2e3436" stroke-width="2" points="143.593,-135.551 135.931,-132.563 140.609,-133.225 137.982,-130.549 138.339,-130.198 138.696,-129.848 141.323,-132.524 140.748,-127.834 143.593,-135.551 143.593,-135.551"/>
<text text-anchor="middle" x="127.533" y="-124.846" font-family="FreeSans" font-size="8.00" fill="#2e3436">X</text>
</g>
<!-- N2 -->
<g id="node6" class="node"><title>N2</title>
<path fill="#ffffff" stroke="#2e3436" stroke-width="1.5" d="M12,-98.7992C12,-98.7992 42,-98.7992 42,-98.7992 48,-98.7992 54,-104.799 54,-110.799 54,-110.799 54,-122.799 54,-122.799 54,-128.799 48,-134.799 42,-134.799 42,-134.799 12,-134.799 12,-134.799 6,-134.799 0,-128.799 0,-122.799 0,-122.799 0,-110.799 0,-110.799 0,-104.799 6,-98.7992 12,-98.7992"/>
<text text-anchor="middle" x="27" y="-114.899" font-family="FreeSans" font-size="8.00" fill="#1c2021"> </text>
</g>
<!-- N0&#45;&gt;N2 -->
<g id="edge5" class="edge"><title>N0&#45;&gt;N2</title>
<path fill="none" stroke="#2e3436" stroke-width="2" d="M77.7122,-103.42C72.4577,-104.807 66.8902,-106.276 61.4428,-107.713"/>
<polygon fill="#2e3436" stroke="#2e3436" stroke-width="2" points="54.1297,-109.642 60.5206,-104.465 57.6281,-108.202 61.254,-107.245 61.3816,-107.729 61.5091,-108.212 57.8832,-109.169 62.2425,-110.992 54.1297,-109.642 54.1297,-109.642"/>
<text text-anchor="middle" x="66.5775" y="-108.167" font-family="FreeSans" font-size="8.00" fill="#2e3436">X</text>
</g>
<!-- N1 -->
<g id="node7" class="node"><title>N1</title>
<path fill="#ffffff" stroke="#2e3436" stroke-width="1.5" d="M20.185,-37.6619C20.185,-37.6619 50.185,-37.6619 50.185,-37.6619 56.185,-37.6619 62.185,-43.6619 62.185,-49.6619 62.185,-49.6619 62.185,-61.6619 62.185,-61.6619 62.185,-67.6619 56.185,-73.6619 50.185,-73.6619 50.185,-73.6619 20.185,-73.6619 20.185,-73.6619 14.185,-73.6619 8.18502,-67.6619 8.18502,-61.6619 8.18502,-61.6619 8.18502,-49.6619 8.18502,-49.6619 8.18502,-43.6619 14.185,-37.6619 20.185,-37.6619"/>
<text text-anchor="middle" x="35.185" y="-53.7619" font-family="FreeSans" font-size="8.00" fill="#1c2021"> </text>
</g>
<!-- N0&#45;&gt;N1 -->
<g id="edge6" class="edge"><title>N0&#45;&gt;N1</title>
<path fill="none" stroke="#2e3436" stroke-width="2" d="M77.8011,-80.4257C74.9587,-78.7741 72.0445,-77.0807 69.1391,-75.3923"/>
<polygon fill="#2e3436" stroke="#2e3436" stroke-width="2" points="62.4136,-71.4842 70.5939,-72.3343 65.9071,-72.936 69.1494,-74.8201 68.8982,-75.2524 68.647,-75.6847 65.4047,-73.8006 67.2025,-78.1705 62.4136,-71.4842 62.4136,-71.4842"/>
<text text-anchor="middle" x="70.4701" y="-80.509" font-family="FreeSans" font-size="8.00" fill="#2e3436">X</text>
</g>
<!-- N5&#45;&gt;N6 -->
<g id="edge9" class="edge"><title>N5&#45;&gt;N6</title>
<path fill="none" stroke="#2e3436" stroke-width="2" d="M149.954,-36.7054C150.052,-36.7823 150.149,-36.8592 150.247,-36.9361"/>
<polygon fill="#2e3436" stroke="#2e3436" stroke-width="2" points="152.295,-38.5514 144.316,-36.5572 149.041,-36.6219 146.096,-34.2997 146.406,-33.9071 146.715,-33.5145 149.66,-35.8366 148.496,-31.257 152.295,-38.5514 152.295,-38.5514"/>
<text text-anchor="middle" x="153.1" y="-30.4208" font-family="FreeSans" font-size="8.00" fill="#2e3436">X</text>
</g>
<!-- N3&#45;&gt;N4 -->
<g id="edge8" class="edge"><title>N3&#45;&gt;N4</title>
<path fill="none" stroke="#2e3436" stroke-width="2" d="M134.367,-164.888C134.252,-164.934 134.138,-164.981 134.023,-165.027"/>
<polygon fill="#2e3436" stroke="#2e3436" stroke-width="2" points="131.609,-166.005 137.293,-160.061 134.897,-164.134 138.372,-162.726 138.56,-163.189 138.748,-163.653 135.272,-165.061 139.827,-166.318 131.609,-166.005 131.609,-166.005"/>
<text text-anchor="middle" x="131.195" y="-158.557" font-family="FreeSans" font-size="8.00" fill="#2e3436">X</text>
</g>
<!-- N1&#45;&gt;N2 -->
<g id="edge7" class="edge"><title>N1&#45;&gt;N2</title>
<path fill="none" stroke="#2e3436" stroke-width="2" d="M32.7735,-73.6744C32.0473,-79.0987 31.2356,-85.1614 30.4556,-90.9878"/>
<polygon fill="#2e3436" stroke="#2e3436" stroke-width="2" points="29.4226,-98.7041 27.0727,-90.8226 29.4246,-94.9209 29.9223,-91.2041 30.4179,-91.2704 30.9134,-91.3368 30.4158,-95.0536 33.763,-91.7183 29.4226,-98.7041 29.4226,-98.7041"/>
<text text-anchor="middle" x="28.6146" y="-84.9311" font-family="FreeSans" font-size="8.00" fill="#2e3436">X</text>
</g>
</g>
</svg>
