<?xml version="1.0" encoding="UTF-8" standalone="no"?>
<!DOCTYPE svg PUBLIC "-//W3C//DTD SVG 1.1//EN"
 "http://www.w3.org/Graphics/SVG/1.1/DTD/svg11.dtd">
<!-- Generated by graphviz version 2.38.0 (20140413.2041)
 -->
<!-- Title: g Pages: 1 -->
<svg width="87pt" height="52pt"
 viewBox="0.00 0.00 87.00 52.00" xmlns="http://www.w3.org/2000/svg" xmlns:xlink="http://www.w3.org/1999/xlink">
<g id="graph0" class="graph" transform="scale(1 1) rotate(0) translate(4 48)">
<title>g</title>
<polygon fill="white" stroke="none" points="-4,4 -4,-48 83,-48 83,4 -4,4"/>
<!-- N0 -->
<g id="node1" class="node"><title>N0</title>
<path fill="#ffffff" stroke="#2e3436" stroke-width="1.5" d="M12,-0.5C12,-0.5 67,-0.5 67,-0.5 73,-0.5 79,-6.5 79,-12.5 79,-12.5 79,-31.5 79,-31.5 79,-37.5 73,-43.5 67,-43.5 67,-43.5 12,-43.5 12,-43.5 6,-43.5 -7.10543e-15,-37.5 -7.10543e-15,-31.5 -7.10543e-15,-31.5 -7.10543e-15,-12.5 -7.10543e-15,-12.5 -7.10543e-15,-6.5 6,-0.5 12,-0.5"/>
<text text-anchor="middle" x="39.5" y="-33.1" font-family="FreeSans" font-size="8.00" fill="#1c2021">Movie</text>
<polyline fill="none" stroke="#2e3436" stroke-width="1.5" points="-7.10543e-15,-26.5 79,-26.5 "/>
<text text-anchor="start" x="8" y="-16.1" font-family="FreeSans" font-size="8.00" fill="#1c2021">title = &#39;The Matrix&#39;</text>
<text text-anchor="start" x="8" y="-7.1" font-family="FreeSans" font-size="8.00" fill="#1c2021">released = 1997</text>
</g>
</g>
</svg>
