<?xml version="1.0" encoding="UTF-8" standalone="no"?>
<!DOCTYPE svg PUBLIC "-//W3C//DTD SVG 1.1//EN"
 "http://www.w3.org/Graphics/SVG/1.1/DTD/svg11.dtd">
<!-- Generated by graphviz version 2.36.0 (20140111.2315)
 -->
<!-- Title: g Pages: 1 -->
<svg width="210pt" height="183pt"
 viewBox="0.00 0.00 209.68 183.30" xmlns="http://www.w3.org/2000/svg" xmlns:xlink="http://www.w3.org/1999/xlink">
<g id="graph0" class="graph" transform="scale(1 1) rotate(0) translate(4 179.303)">
<title>g</title>
<polygon fill="white" stroke="none" points="-4,4 -4,-179.303 205.682,-179.303 205.682,4 -4,4"/>
<!-- N0 -->
<g id="node1" class="node"><title>N0</title>
<path fill="#ffffff" stroke="#2e3436" stroke-width="1.5" d="M85.8421,-69.6316C85.8421,-69.6316 115.842,-69.6316 115.842,-69.6316 121.842,-69.6316 127.842,-75.6316 127.842,-81.6316 127.842,-81.6316 127.842,-93.6316 127.842,-93.6316 127.842,-99.6316 121.842,-105.632 115.842,-105.632 115.842,-105.632 85.8421,-105.632 85.8421,-105.632 79.8421,-105.632 73.8421,-99.6316 73.8421,-93.6316 73.8421,-93.6316 73.8421,-81.6316 73.8421,-81.6316 73.8421,-75.6316 79.8421,-69.6316 85.8421,-69.6316"/>
<text text-anchor="middle" x="100.842" y="-85.7316" font-family="FreeSans" font-size="8.00" fill="#1c2021"> </text>
</g>
<!-- N6 -->
<g id="node2" class="node"><title>N6</title>
<path fill="#ffffff" stroke="#2e3436" stroke-width="1.5" d="M113.745,-0.5C113.745,-0.5 143.745,-0.5 143.745,-0.5 149.745,-0.5 155.745,-6.5 155.745,-12.5 155.745,-12.5 155.745,-24.5 155.745,-24.5 155.745,-30.5 149.745,-36.5 143.745,-36.5 143.745,-36.5 113.745,-36.5 113.745,-36.5 107.745,-36.5 101.745,-30.5 101.745,-24.5 101.745,-24.5 101.745,-12.5 101.745,-12.5 101.745,-6.5 107.745,-0.5 113.745,-0.5"/>
<text text-anchor="start" x="109.745" y="-16.6" font-family="FreeSans" font-size="8.00" fill="#1c2021">count = 6</text>
</g>
<!-- N0&#45;&gt;N6 -->
<g id="edge1" class="edge"><title>N0&#45;&gt;N6</title>
<path fill="none" stroke="#2e3436" stroke-width="2" d="M108.173,-69.4681C111.32,-61.6709 115.053,-52.4241 118.469,-43.9613"/>
<polygon fill="#2e3436" stroke="#2e3436" stroke-width="2" points="121.366,-36.7822 121.689,-45.0003 120.426,-40.4468 119.023,-43.9242 118.559,-43.7371 118.095,-43.5499 119.499,-40.0725 115.429,-42.4738 121.366,-36.7822 121.366,-36.7822"/>
<text text-anchor="middle" x="110.321" y="-59.3147" font-family="FreeSans" font-size="8.00" fill="#2e3436">X</text>
</g>
<!-- N5 -->
<g id="node3" class="node"><title>N5</title>
<path fill="#ffffff" stroke="#2e3436" stroke-width="1.5" d="M159.682,-59.2966C159.682,-59.2966 189.682,-59.2966 189.682,-59.2966 195.682,-59.2966 201.682,-65.2966 201.682,-71.2966 201.682,-71.2966 201.682,-83.2966 201.682,-83.2966 201.682,-89.2966 195.682,-95.2966 189.682,-95.2966 189.682,-95.2966 159.682,-95.2966 159.682,-95.2966 153.682,-95.2966 147.682,-89.2966 147.682,-83.2966 147.682,-83.2966 147.682,-71.2966 147.682,-71.2966 147.682,-65.2966 153.682,-59.2966 159.682,-59.2966"/>
<text text-anchor="start" x="155.682" y="-75.3966" font-family="FreeSans" font-size="8.00" fill="#1c2021">count = 5</text>
</g>
<!-- N0&#45;&gt;N5 -->
<g id="edge2" class="edge"><title>N0&#45;&gt;N5</title>
<path fill="none" stroke="#2e3436" stroke-width="2" d="M127.918,-83.8419C131.831,-83.2943 135.903,-82.7244 139.94,-82.1593"/>
<polygon fill="#2e3436" stroke="#2e3436" stroke-width="2" points="147.609,-81.0858 140.65,-85.468 143.965,-82.1009 140.251,-82.6207 140.182,-82.1255 140.112,-81.6304 143.826,-81.1105 139.714,-78.7831 147.609,-81.0858 147.609,-81.0858"/>
<text text-anchor="middle" x="130.929" y="-85.6006" font-family="FreeSans" font-size="8.00" fill="#2e3436">X</text>
</g>
<!-- N4 -->
<g id="node4" class="node"><title>N4</title>
<path fill="#ffffff" stroke="#2e3436" stroke-width="1.5" d="M131.743,-128.424C131.743,-128.424 161.743,-128.424 161.743,-128.424 167.743,-128.424 173.743,-134.424 173.743,-140.424 173.743,-140.424 173.743,-152.424 173.743,-152.424 173.743,-158.424 167.743,-164.424 161.743,-164.424 161.743,-164.424 131.743,-164.424 131.743,-164.424 125.743,-164.424 119.743,-158.424 119.743,-152.424 119.743,-152.424 119.743,-140.424 119.743,-140.424 119.743,-134.424 125.743,-128.424 131.743,-128.424"/>
<text text-anchor="start" x="127.743" y="-144.524" font-family="FreeSans" font-size="8.00" fill="#1c2021">count = 4</text>
</g>
<!-- N0&#45;&gt;N4 -->
<g id="edge3" class="edge"><title>N0&#45;&gt;N4</title>
<path fill="none" stroke="#2e3436" stroke-width="2" d="M115.114,-105.911C119.124,-111.048 123.549,-116.715 127.786,-122.142"/>
<polygon fill="#2e3436" stroke="#2e3436" stroke-width="2" points="132.638,-128.357 125.362,-124.522 129.936,-125.709 127.628,-122.753 128.022,-122.445 128.416,-122.138 130.724,-125.093 130.683,-120.368 132.638,-128.357 132.638,-128.357"/>
<text text-anchor="middle" x="118.45" y="-116.627" font-family="FreeSans" font-size="8.00" fill="#2e3436">X</text>
</g>
<!-- N3 -->
<g id="node5" class="node"><title>N3</title>
<path fill="#ffffff" stroke="#2e3436" stroke-width="1.5" d="M57.9626,-138.803C57.9626,-138.803 87.9626,-138.803 87.9626,-138.803 93.9626,-138.803 99.9626,-144.803 99.9626,-150.803 99.9626,-150.803 99.9626,-162.803 99.9626,-162.803 99.9626,-168.803 93.9626,-174.803 87.9626,-174.803 87.9626,-174.803 57.9626,-174.803 57.9626,-174.803 51.9626,-174.803 45.9626,-168.803 45.9626,-162.803 45.9626,-162.803 45.9626,-150.803 45.9626,-150.803 45.9626,-144.803 51.9626,-138.803 57.9626,-138.803"/>
<text text-anchor="start" x="53.9626" y="-154.903" font-family="FreeSans" font-size="8.00" fill="#1c2021">count = 3</text>
</g>
<!-- N0&#45;&gt;N3 -->
<g id="edge4" class="edge"><title>N0&#45;&gt;N3</title>
<path fill="none" stroke="#2e3436" stroke-width="2" d="M93.5171,-105.806C90.3727,-113.607 86.6436,-122.86 83.2307,-131.327"/>
<polygon fill="#2e3436" stroke="#2e3436" stroke-width="2" points="80.3355,-138.511 80.009,-130.293 81.2736,-134.845 82.6755,-131.367 83.1393,-131.554 83.603,-131.741 82.2011,-135.219 86.2696,-132.816 80.3355,-138.511 80.3355,-138.511"/>
<text text-anchor="middle" x="85.3739" y="-121.166" font-family="FreeSans" font-size="8.00" fill="#2e3436">X</text>
</g>
<!-- N2 -->
<g id="node6" class="node"><title>N2</title>
<path fill="#ffffff" stroke="#2e3436" stroke-width="1.5" d="M12,-80.1311C12,-80.1311 42,-80.1311 42,-80.1311 48,-80.1311 54,-86.1311 54,-92.1311 54,-92.1311 54,-104.131 54,-104.131 54,-110.131 48,-116.131 42,-116.131 42,-116.131 12,-116.131 12,-116.131 6,-116.131 0,-110.131 0,-104.131 0,-104.131 0,-92.1311 0,-92.1311 0,-86.1311 6,-80.1311 12,-80.1311"/>
<text text-anchor="start" x="8" y="-96.2311" font-family="FreeSans" font-size="8.00" fill="#1c2021">count = 2</text>
</g>
<!-- N0&#45;&gt;N2 -->
<g id="edge5" class="edge"><title>N0&#45;&gt;N2</title>
<path fill="none" stroke="#2e3436" stroke-width="2" d="M73.7654,-91.4816C69.8525,-92.038 65.7804,-92.617 61.7433,-93.191"/>
<polygon fill="#2e3436" stroke="#2e3436" stroke-width="2" points="54.0735,-94.2815 61.0237,-89.8843 57.7158,-93.2586 61.4284,-92.7306 61.4988,-93.2257 61.5692,-93.7207 57.8566,-94.2486 61.974,-96.5671 54.0735,-94.2815 54.0735,-94.2815"/>
<text text-anchor="middle" x="64.7543" y="-94.9363" font-family="FreeSans" font-size="8.00" fill="#2e3436">X</text>
</g>
<!-- N1 -->
<g id="node7" class="node"><title>N1</title>
<path fill="#ffffff" stroke="#2e3436" stroke-width="1.5" d="M39.8445,-10.9482C39.8445,-10.9482 69.8445,-10.9482 69.8445,-10.9482 75.8445,-10.9482 81.8445,-16.9482 81.8445,-22.9482 81.8445,-22.9482 81.8445,-34.9482 81.8445,-34.9482 81.8445,-40.9482 75.8445,-46.9482 69.8445,-46.9482 69.8445,-46.9482 39.8445,-46.9482 39.8445,-46.9482 33.8445,-46.9482 27.8445,-40.9482 27.8445,-34.9482 27.8445,-34.9482 27.8445,-22.9482 27.8445,-22.9482 27.8445,-16.9482 33.8445,-10.9482 39.8445,-10.9482"/>
<text text-anchor="start" x="35.8445" y="-27.0482" font-family="FreeSans" font-size="8.00" fill="#1c2021">count = 1</text>
</g>
<!-- N0&#45;&gt;N1 -->
<g id="edge6" class="edge"><title>N0&#45;&gt;N1</title>
<path fill="none" stroke="#2e3436" stroke-width="2" d="M86.5404,-69.3855C82.5218,-64.2587 78.0879,-58.6019 73.8417,-53.1847"/>
<polygon fill="#2e3436" stroke="#2e3436" stroke-width="2" points="68.9795,-46.9815 76.2626,-50.8022 71.6864,-49.6244 73.9998,-52.5759 73.6063,-52.8843 73.2128,-53.1928 70.8994,-50.2414 70.95,-54.9664 68.9795,-46.9815 68.9795,-46.9815"/>
<text text-anchor="middle" x="77.191" y="-54.8851" font-family="FreeSans" font-size="8.00" fill="#2e3436">X</text>
</g>
<!-- N6&#45;&gt;N1 -->
<g id="edge12" class="edge"><title>N6&#45;&gt;N1</title>
<path fill="none" stroke="#2e3436" stroke-width="2" d="M101.647,-22.3312C97.731,-22.8849 93.6558,-23.461 89.6154,-24.0323"/>
<polygon fill="#2e3436" stroke="#2e3436" stroke-width="2" points="81.9395,-25.1175 88.8932,-20.7257 85.5826,-24.0974 89.2957,-23.5724 89.3657,-24.0675 89.4357,-24.5626 85.7226,-25.0876 89.8382,-27.4093 81.9395,-25.1175 81.9395,-25.1175"/>
<text text-anchor="middle" x="92.6312" y="-25.7817" font-family="FreeSans" font-size="8.00" fill="#2e3436">X</text>
</g>
<!-- N5&#45;&gt;N6 -->
<g id="edge11" class="edge"><title>N5&#45;&gt;N6</title>
<path fill="none" stroke="#2e3436" stroke-width="2" d="M160.399,-59.0153C156.386,-53.8786 151.958,-48.2109 147.717,-42.7833"/>
<polygon fill="#2e3436" stroke="#2e3436" stroke-width="2" points="142.861,-36.5681 150.139,-40.4003 145.564,-39.2153 147.873,-42.1703 147.479,-42.4782 147.085,-42.786 144.776,-39.8309 144.819,-44.556 142.861,-36.5681 142.861,-36.5681"/>
<text text-anchor="middle" x="151.058" y="-44.4993" font-family="FreeSans" font-size="8.00" fill="#2e3436">X</text>
</g>
<!-- N4&#45;&gt;N5 -->
<g id="edge10" class="edge"><title>N4&#45;&gt;N5</title>
<path fill="none" stroke="#2e3436" stroke-width="2" d="M154.084,-128.261C157.235,-120.465 160.972,-111.218 164.392,-102.756"/>
<polygon fill="#2e3436" stroke="#2e3436" stroke-width="2" points="167.293,-95.5776 167.612,-103.796 166.352,-99.2418 164.946,-102.719 164.483,-102.531 164.019,-102.344 165.425,-98.867 161.354,-101.266 167.293,-95.5776 167.293,-95.5776"/>
<text text-anchor="middle" x="156.238" y="-118.109" font-family="FreeSans" font-size="8.00" fill="#2e3436">X</text>
</g>
<!-- N3&#45;&gt;N4 -->
<g id="edge9" class="edge"><title>N3&#45;&gt;N4</title>
<path fill="none" stroke="#2e3436" stroke-width="2" d="M100.017,-152.997C103.926,-152.447 107.995,-151.875 112.029,-151.307"/>
<polygon fill="#2e3436" stroke="#2e3436" stroke-width="2" points="119.692,-150.229 112.736,-154.616 116.048,-151.247 112.335,-151.769 112.265,-151.274 112.196,-150.779 115.909,-150.257 111.795,-147.932 119.692,-150.229 119.692,-150.229"/>
<text text-anchor="middle" x="103.023" y="-154.752" font-family="FreeSans" font-size="8.00" fill="#2e3436">X</text>
</g>
<!-- N2&#45;&gt;N3 -->
<g id="edge8" class="edge"><title>N2&#45;&gt;N3</title>
<path fill="none" stroke="#2e3436" stroke-width="2" d="M41.2909,-116.374C45.3064,-121.5 49.7369,-127.155 53.9799,-132.571"/>
<polygon fill="#2e3436" stroke="#2e3436" stroke-width="2" points="58.8384,-138.774 51.5564,-134.951 56.1322,-136.13 53.8196,-133.178 54.2132,-132.869 54.6069,-132.561 56.9194,-135.513 56.8701,-130.788 58.8384,-138.774 58.8384,-138.774"/>
<text text-anchor="middle" x="44.6354" y="-127.073" font-family="FreeSans" font-size="8.00" fill="#2e3436">X</text>
</g>
<!-- N1&#45;&gt;N2 -->
<g id="edge7" class="edge"><title>N1&#45;&gt;N2</title>
<path fill="none" stroke="#2e3436" stroke-width="2" d="M47.5287,-47.1252C44.3882,-54.9282 40.6638,-64.1818 37.2552,-72.6509"/>
<polygon fill="#2e3436" stroke="#2e3436" stroke-width="2" points="34.3636,-79.8353 34.0331,-71.6175 35.3,-76.1698 36.7001,-72.691 37.164,-72.8777 37.6278,-73.0644 36.2277,-76.5432 40.2949,-74.1378 34.3636,-79.8353 34.3636,-79.8353"/>
<text text-anchor="middle" x="39.392" y="-62.4881" font-family="FreeSans" font-size="8.00" fill="#2e3436">X</text>
</g>
</g>
</svg>
