<?xml version="1.0" encoding="UTF-8" standalone="no"?>
<!DOCTYPE svg PUBLIC "-//W3C//DTD SVG 1.1//EN"
 "http://www.w3.org/Graphics/SVG/1.1/DTD/svg11.dtd">
<!-- Generated by graphviz version 2.38.0 (20140413.2041)
 -->
<!-- Title: g Pages: 1 -->
<svg width="504pt" height="152pt"
 viewBox="0.00 0.00 504.00 152.00" xmlns="http://www.w3.org/2000/svg" xmlns:xlink="http://www.w3.org/1999/xlink">
<g id="graph0" class="graph" transform="scale(0.727273 0.727273) rotate(0) translate(4 205)">
<title>g</title>
<polygon fill="white" stroke="none" points="-4,4 -4,-205 689,-205 689,4 -4,4"/>
<!-- N0 -->
<g id="node1" class="node"><title>N0</title>
<path fill="#ffffff" stroke="#2e3436" stroke-width="1.5" d="M12,-82.5C12,-82.5 65,-82.5 65,-82.5 71,-82.5 77,-88.5 77,-94.5 77,-94.5 77,-106.5 77,-106.5 77,-112.5 71,-118.5 65,-118.5 65,-118.5 12,-118.5 12,-118.5 6,-118.5 0,-112.5 0,-106.5 0,-106.5 0,-94.5 0,-94.5 0,-88.5 6,-82.5 12,-82.5"/>
<text text-anchor="start" x="8" y="-98.6" font-family="FreeSans" font-size="8.00" fill="#1c2021">name = &#39;SaunaX&#39;</text>
</g>
<!-- N1 -->
<g id="node2" class="node"><title>N1</title>
<path fill="#ffffff" stroke="#2e3436" stroke-width="1.5" d="M118,-82.5C118,-82.5 189,-82.5 189,-82.5 195,-82.5 201,-88.5 201,-94.5 201,-94.5 201,-106.5 201,-106.5 201,-112.5 195,-118.5 189,-118.5 189,-118.5 118,-118.5 118,-118.5 112,-118.5 106,-112.5 106,-106.5 106,-106.5 106,-94.5 106,-94.5 106,-88.5 112,-82.5 118,-82.5"/>
<text text-anchor="start" x="114" y="-98.6" font-family="FreeSans" font-size="8.00" fill="#1c2021">name = &#39;CoffeeShop1&#39;</text>
</g>
<!-- N7 -->
<g id="node3" class="node"><title>N7</title>
<path fill="#ffffff" stroke="#2e3436" stroke-width="1.5" d="M433,-0.5C433,-0.5 476,-0.5 476,-0.5 482,-0.5 488,-6.5 488,-12.5 488,-12.5 488,-24.5 488,-24.5 488,-30.5 482,-36.5 476,-36.5 476,-36.5 433,-36.5 433,-36.5 427,-36.5 421,-30.5 421,-24.5 421,-24.5 421,-12.5 421,-12.5 421,-6.5 427,-0.5 433,-0.5"/>
<text text-anchor="start" x="429" y="-16.6" font-family="FreeSans" font-size="8.00" fill="#1c2021">name = &#39;Cosy&#39;</text>
</g>
<!-- N1&#45;&gt;N7 -->
<g id="edge1" class="edge"><title>N1&#45;&gt;N7</title>
<path fill="none" stroke="#2e3436" stroke-width="2" d="M201.134,-85.6743C205.974,-84.3839 210.827,-83.1359 215.5,-82 254.292,-72.5715 264.939,-74.3306 303.5,-64 315.718,-60.7267 318.417,-58.7416 330.5,-55 358.124,-46.4461 389.433,-37.4884 413.679,-30.7112"/>
<polygon fill="#2e3436" stroke="#2e3436" stroke-width="2" points="420.965,-28.6807 414.646,-33.9452 417.487,-30.1691 413.875,-31.1758 413.74,-30.6941 413.606,-30.2125 417.219,-29.2058 412.834,-27.443 420.965,-28.6807 420.965,-28.6807"/>
<text text-anchor="middle" x="343" y="-57.6" font-family="FreeSans" font-size="8.00" fill="#2e3436">tagged</text>
</g>
<!-- N4 -->
<g id="node4" class="node"><title>N4</title>
<path fill="#ffffff" stroke="#2e3436" stroke-width="1.5" d="M257,-0.5C257,-0.5 298,-0.5 298,-0.5 304,-0.5 310,-6.5 310,-12.5 310,-12.5 310,-24.5 310,-24.5 310,-30.5 304,-36.5 298,-36.5 298,-36.5 257,-36.5 257,-36.5 251,-36.5 245,-30.5 245,-24.5 245,-24.5 245,-12.5 245,-12.5 245,-6.5 251,-0.5 257,-0.5"/>
<text text-anchor="start" x="253" y="-16.6" font-family="FreeSans" font-size="8.00" fill="#1c2021">name = &#39;Cool&#39;</text>
</g>
<!-- N1&#45;&gt;N4 -->
<g id="edge2" class="edge"><title>N1&#45;&gt;N4</title>
<path fill="none" stroke="#2e3436" stroke-width="2" d="M180.101,-82.338C198.98,-70.1582 224.444,-53.7299 244.6,-40.7257"/>
<polygon fill="#2e3436" stroke="#2e3436" stroke-width="2" points="250.943,-36.6336 246.47,-43.5356 248.063,-39.0868 244.912,-41.1198 244.641,-40.6996 244.37,-40.2795 247.521,-38.2465 242.811,-37.8636 250.943,-36.6336 250.943,-36.6336"/>
<text text-anchor="middle" x="232" y="-57.6" font-family="FreeSans" font-size="8.00" fill="#2e3436">tagged</text>
</g>
<!-- N2 -->
<g id="node5" class="node"><title>N2</title>
<path fill="#ffffff" stroke="#2e3436" stroke-width="1.5" d="M366.5,-82.5C366.5,-82.5 428.5,-82.5 428.5,-82.5 434.5,-82.5 440.5,-88.5 440.5,-94.5 440.5,-94.5 440.5,-106.5 440.5,-106.5 440.5,-112.5 434.5,-118.5 428.5,-118.5 428.5,-118.5 366.5,-118.5 366.5,-118.5 360.5,-118.5 354.5,-112.5 354.5,-106.5 354.5,-106.5 354.5,-94.5 354.5,-94.5 354.5,-88.5 360.5,-82.5 366.5,-82.5"/>
<text text-anchor="start" x="362.5" y="-98.6" font-family="FreeSans" font-size="8.00" fill="#1c2021">name = &#39;MelsPlace&#39;</text>
</g>
<!-- N2&#45;&gt;N7 -->
<g id="edge4" class="edge"><title>N2&#45;&gt;N7</title>
<path fill="none" stroke="#2e3436" stroke-width="2" d="M409.868,-82.1412C418.066,-70.6361 428.918,-55.4048 437.869,-42.8423"/>
<polygon fill="#2e3436" stroke="#2e3436" stroke-width="2" points="442.352,-36.5501 440.748,-44.6167 440.583,-39.8943 438.407,-42.9484 438,-42.6583 437.592,-42.3681 439.769,-39.314 435.251,-40.6998 442.352,-36.5501 442.352,-36.5501"/>
<text text-anchor="middle" x="441" y="-57.6" font-family="FreeSans" font-size="8.00" fill="#2e3436">tagged</text>
</g>
<!-- N2&#45;&gt;N4 -->
<g id="edge3" class="edge"><title>N2&#45;&gt;N4</title>
<path fill="none" stroke="#2e3436" stroke-width="2" d="M386.919,-82.0903C380.718,-73.0468 372.203,-62.3758 362.5,-55 349.152,-44.8532 332.48,-37.0632 317.446,-31.4015"/>
<polygon fill="#2e3436" stroke="#2e3436" stroke-width="2" points="310.219,-28.7921 318.42,-28.1648 313.916,-29.5953 317.443,-30.8689 317.273,-31.3392 317.104,-31.8095 313.576,-30.5359 316.127,-34.5136 310.219,-28.7921 310.219,-28.7921"/>
<text text-anchor="middle" x="385" y="-57.6" font-family="FreeSans" font-size="8.00" fill="#2e3436">tagged</text>
</g>
<!-- N3 -->
<g id="node6" class="node"><title>N3</title>
<path fill="#ffffff" stroke="#2e3436" stroke-width="1.5" d="M482,-82.5C482,-82.5 553,-82.5 553,-82.5 559,-82.5 565,-88.5 565,-94.5 565,-94.5 565,-106.5 565,-106.5 565,-112.5 559,-118.5 553,-118.5 553,-118.5 482,-118.5 482,-118.5 476,-118.5 470,-112.5 470,-106.5 470,-106.5 470,-94.5 470,-94.5 470,-88.5 476,-82.5 482,-82.5"/>
<text text-anchor="start" x="478" y="-98.6" font-family="FreeSans" font-size="8.00" fill="#1c2021">name = &#39;CoffeeShop3&#39;</text>
</g>
<!-- N3&#45;&gt;N7 -->
<g id="edge5" class="edge"><title>N3&#45;&gt;N7</title>
<path fill="none" stroke="#2e3436" stroke-width="2" d="M503.83,-82.1412C494.687,-70.5305 482.555,-55.125 472.61,-42.4972"/>
<polygon fill="#2e3436" stroke="#2e3436" stroke-width="2" points="467.927,-36.5501 475.219,-40.3543 470.64,-39.1869 472.96,-42.133 472.567,-42.4424 472.174,-42.7517 469.854,-39.8056 469.916,-44.5305 467.927,-36.5501 467.927,-36.5501"/>
<text text-anchor="middle" x="501" y="-57.6" font-family="FreeSans" font-size="8.00" fill="#2e3436">tagged</text>
</g>
<!-- N5 -->
<g id="node7" class="node"><title>N5</title>
<path fill="#ffffff" stroke="#2e3436" stroke-width="1.5" d="M242,-82.5C242,-82.5 313,-82.5 313,-82.5 319,-82.5 325,-88.5 325,-94.5 325,-94.5 325,-106.5 325,-106.5 325,-112.5 319,-118.5 313,-118.5 313,-118.5 242,-118.5 242,-118.5 236,-118.5 230,-112.5 230,-106.5 230,-106.5 230,-94.5 230,-94.5 230,-88.5 236,-82.5 242,-82.5"/>
<text text-anchor="start" x="238" y="-98.6" font-family="FreeSans" font-size="8.00" fill="#1c2021">name = &#39;CoffeeShop2&#39;</text>
</g>
<!-- N5&#45;&gt;N4 -->
<g id="edge6" class="edge"><title>N5&#45;&gt;N4</title>
<path fill="none" stroke="#2e3436" stroke-width="2" d="M276.328,-82.1743C275.99,-76.3968 275.667,-69.9237 275.5,-64 275.323,-57.6949 275.461,-50.8903 275.732,-44.5446"/>
<polygon fill="#2e3436" stroke="#2e3436" stroke-width="2" points="276.133,-36.8241 279.115,-44.4891 276.438,-40.595 276.244,-44.34 275.744,-44.314 275.245,-44.2881 275.44,-40.5432 272.374,-44.139 276.133,-36.8241 276.133,-36.8241"/>
<text text-anchor="middle" x="288" y="-57.6" font-family="FreeSans" font-size="8.00" fill="#2e3436">tagged</text>
</g>
<!-- N6 -->
<g id="node8" class="node"><title>N6</title>
<path fill="#ffffff" stroke="#2e3436" stroke-width="1.5" d="M606,-82.5C606,-82.5 673,-82.5 673,-82.5 679,-82.5 685,-88.5 685,-94.5 685,-94.5 685,-106.5 685,-106.5 685,-112.5 679,-118.5 673,-118.5 673,-118.5 606,-118.5 606,-118.5 600,-118.5 594,-112.5 594,-106.5 594,-106.5 594,-94.5 594,-94.5 594,-88.5 600,-82.5 606,-82.5"/>
<text text-anchor="start" x="602" y="-98.6" font-family="FreeSans" font-size="8.00" fill="#1c2021">name = &#39;CoffeShop2&#39;</text>
</g>
<!-- N8 -->
<g id="node9" class="node"><title>N8</title>
<path fill="#ffffff" stroke="#2e3436" stroke-width="1.5" d="M380.5,-164.5C380.5,-164.5 414.5,-164.5 414.5,-164.5 420.5,-164.5 426.5,-170.5 426.5,-176.5 426.5,-176.5 426.5,-188.5 426.5,-188.5 426.5,-194.5 420.5,-200.5 414.5,-200.5 414.5,-200.5 380.5,-200.5 380.5,-200.5 374.5,-200.5 368.5,-194.5 368.5,-188.5 368.5,-188.5 368.5,-176.5 368.5,-176.5 368.5,-170.5 374.5,-164.5 380.5,-164.5"/>
<text text-anchor="start" x="376.5" y="-180.6" font-family="FreeSans" font-size="8.00" fill="#1c2021">name = &#39;Jill&#39;</text>
</g>
<!-- N8&#45;&gt;N1 -->
<g id="edge9" class="edge"><title>N8&#45;&gt;N1</title>
<path fill="none" stroke="#4e9a06" stroke-width="2" d="M368.479,-171.666C341.56,-162.574 300.369,-148.736 264.5,-137 246.328,-131.054 226.447,-124.661 208.595,-118.96"/>
<polygon fill="#4e9a06" stroke="#4e9a06" stroke-width="2" points="201.079,-116.563 209.249,-115.627 204.803,-117.226 208.376,-118.366 208.224,-118.842 208.072,-119.319 204.499,-118.179 207.198,-122.058 201.079,-116.563 201.079,-116.563"/>
<text text-anchor="middle" x="304" y="-139.6" font-family="FreeSans" font-size="8.00" fill="#4e9a06">favorite</text>
</g>
<!-- N8&#45;&gt;N2 -->
<g id="edge8" class="edge"><title>N8&#45;&gt;N2</title>
<path fill="none" stroke="#4e9a06" stroke-width="2" d="M397.5,-164.141C397.5,-153.058 397.5,-138.518 397.5,-126.236"/>
<polygon fill="#4e9a06" stroke="#4e9a06" stroke-width="2" points="397.5,-118.55 400.875,-126.05 398,-122.3 398,-126.05 397.5,-126.05 397,-126.05 397,-122.3 394.125,-126.05 397.5,-118.55 397.5,-118.55"/>
<text text-anchor="middle" x="411" y="-139.6" font-family="FreeSans" font-size="8.00" fill="#4e9a06">favorite</text>
</g>
<!-- N8&#45;&gt;N6 -->
<g id="edge7" class="edge"><title>N8&#45;&gt;N6</title>
<path fill="none" stroke="#4e9a06" stroke-width="2" d="M426.691,-171.85C466.15,-158.806 537.21,-135.315 586.295,-119.089"/>
<polygon fill="#4e9a06" stroke="#4e9a06" stroke-width="2" points="593.673,-116.65 587.611,-122.208 590.269,-118.301 586.709,-119.478 586.552,-119.004 586.395,-118.529 589.955,-117.352 585.492,-115.799 593.673,-116.65 593.673,-116.65"/>
<text text-anchor="middle" x="540" y="-139.6" font-family="FreeSans" font-size="8.00" fill="#4e9a06">favorite</text>
</g>
<!-- N9 -->
<g id="node10" class="node"><title>N9</title>
<path fill="#ffffff" stroke="#2e3436" stroke-width="1.5" d="M134.5,-164.5C134.5,-164.5 172.5,-164.5 172.5,-164.5 178.5,-164.5 184.5,-170.5 184.5,-176.5 184.5,-176.5 184.5,-188.5 184.5,-188.5 184.5,-194.5 178.5,-200.5 172.5,-200.5 172.5,-200.5 134.5,-200.5 134.5,-200.5 128.5,-200.5 122.5,-194.5 122.5,-188.5 122.5,-188.5 122.5,-176.5 122.5,-176.5 122.5,-170.5 128.5,-164.5 134.5,-164.5"/>
<text text-anchor="start" x="130.5" y="-180.6" font-family="FreeSans" font-size="8.00" fill="#1c2021">name = &#39;Joe&#39;</text>
</g>
<!-- N9&#45;&gt;N0 -->
<g id="edge11" class="edge"><title>N9&#45;&gt;N0</title>
<path fill="none" stroke="#4e9a06" stroke-width="2" d="M128.83,-164.338C111.549,-152.316 88.3179,-136.156 69.7428,-123.234"/>
<polygon fill="#4e9a06" stroke="#4e9a06" stroke-width="2" points="63.1296,-118.634 71.2138,-120.146 66.4935,-120.365 69.5719,-122.506 69.2864,-122.917 69.0009,-123.327 65.9225,-121.186 67.359,-125.687 63.1296,-118.634 63.1296,-118.634"/>
<text text-anchor="middle" x="113" y="-139.6" font-family="FreeSans" font-size="8.00" fill="#4e9a06">favorite</text>
</g>
<!-- N9&#45;&gt;N1 -->
<g id="edge12" class="edge"><title>N9&#45;&gt;N1</title>
<path fill="none" stroke="#4e9a06" stroke-width="2" d="M153.5,-164.141C153.5,-153.058 153.5,-138.518 153.5,-126.236"/>
<polygon fill="#4e9a06" stroke="#4e9a06" stroke-width="2" points="153.5,-118.55 156.875,-126.05 154,-122.3 154,-126.05 153.5,-126.05 153,-126.05 153,-122.3 150.125,-126.05 153.5,-118.55 153.5,-118.55"/>
<text text-anchor="middle" x="167" y="-139.6" font-family="FreeSans" font-size="8.00" fill="#4e9a06">favorite</text>
</g>
<!-- N9&#45;&gt;N2 -->
<g id="edge10" class="edge"><title>N9&#45;&gt;N2</title>
<path fill="none" stroke="#4e9a06" stroke-width="2" d="M177.704,-164.468C192.343,-154.961 211.748,-143.714 230.5,-137 276.726,-120.448 291.674,-130.115 339.5,-119 341.908,-118.44 344.362,-117.836 346.834,-117.2"/>
<polygon fill="#4e9a06" stroke="#4e9a06" stroke-width="2" points="354.275,-115.209 347.902,-120.408 350.782,-116.662 347.159,-117.631 347.03,-117.148 346.901,-116.665 350.523,-115.696 346.158,-113.887 354.275,-115.209 354.275,-115.209"/>
<text text-anchor="middle" x="244" y="-139.6" font-family="FreeSans" font-size="8.00" fill="#4e9a06">favorite</text>
</g>
</g>
</svg>
