<?xml version="1.0" encoding="UTF-8" standalone="no"?>
<!DOCTYPE svg PUBLIC "-//W3C//DTD SVG 1.1//EN"
 "http://www.w3.org/Graphics/SVG/1.1/DTD/svg11.dtd">
<!-- Generated by graphviz version 2.36.0 (20140111.2315)
 -->
<!-- Title: g Pages: 1 -->
<svg width="387pt" height="382pt"
 viewBox="0.00 0.00 387.00 382.00" xmlns="http://www.w3.org/2000/svg" xmlns:xlink="http://www.w3.org/1999/xlink">
<g id="graph0" class="graph" transform="scale(1 1) rotate(0) translate(4 378)">
<title>g</title>
<polygon fill="white" stroke="none" points="-4,4 -4,-378 383,-378 383,4 -4,4"/>
<!-- N0 -->
<g id="node1" class="node"><title>N0</title>
<path fill="#ffffff" stroke="#2e3436" stroke-width="1.5" d="M37,-253C37,-253 93,-253 93,-253 99,-253 105,-259 105,-265 105,-265 105,-277 105,-277 105,-283 99,-289 93,-289 93,-289 37,-289 37,-289 31,-289 25,-283 25,-277 25,-277 25,-265 25,-265 25,-259 31,-253 37,-253"/>
<text text-anchor="start" x="33" y="-269.1" font-family="FreeSans" font-size="8.00" fill="#1c2021">name = &#39;U1G2R1&#39;</text>
</g>
<!-- N4 -->
<g id="node2" class="node"><title>N4</title>
<path fill="#ffffff" stroke="#2e3436" stroke-width="1.5" d="M12,-85C12,-85 58,-85 58,-85 64,-85 70,-91 70,-97 70,-97 70,-109 70,-109 70,-115 64,-121 58,-121 58,-121 12,-121 12,-121 6,-121 0,-115 0,-109 0,-109 0,-97 0,-97 0,-91 6,-85 12,-85"/>
<text text-anchor="start" x="8" y="-101.1" font-family="FreeSans" font-size="8.00" fill="#1c2021">name = &#39;Role1&#39;</text>
</g>
<!-- N0&#45;&gt;N4 -->
<g id="edge1" class="edge"><title>N0&#45;&gt;N4</title>
<path fill="none" stroke="#2e3436" stroke-width="2" d="M43.3362,-252.944C30.3792,-241.295 15.0946,-224.633 8,-206 -2.46769,-178.508 2.56466,-167.504 13,-140 14.5647,-135.876 16.6105,-131.7 18.8247,-127.725"/>
<polygon fill="#2e3436" stroke="#2e3436" stroke-width="2" points="22.6545,-121.27 21.7304,-129.442 21.1711,-124.75 19.2578,-127.975 18.8278,-127.72 18.3977,-127.465 20.3111,-124.24 15.9251,-125.998 22.6545,-121.27 22.6545,-121.27"/>
<text text-anchor="middle" x="23" y="-185.1" font-family="FreeSans" font-size="8.00" fill="#2e3436">hasRole</text>
</g>
<!-- N3 -->
<g id="node3" class="node"><title>N3</title>
<path fill="#ffffff" stroke="#2e3436" stroke-width="1.5" d="M65,-169C65,-169 117,-169 117,-169 123,-169 129,-175 129,-181 129,-181 129,-193 129,-193 129,-199 123,-205 117,-205 117,-205 65,-205 65,-205 59,-205 53,-199 53,-193 53,-193 53,-181 53,-181 53,-175 59,-169 65,-169"/>
<text text-anchor="start" x="61" y="-185.1" font-family="FreeSans" font-size="8.00" fill="#1c2021">name = &#39;Group2&#39;</text>
</g>
<!-- N0&#45;&gt;N3 -->
<g id="edge2" class="edge"><title>N0&#45;&gt;N3</title>
<path fill="none" stroke="#4e9a06" stroke-width="2" d="M70.5139,-252.61C74.2272,-240.899 79.1767,-225.289 83.2804,-212.346"/>
<polygon fill="#4e9a06" stroke="#4e9a06" stroke-width="2" points="85.5832,-205.084 86.5334,-213.253 84.9263,-208.81 83.7929,-212.384 83.3163,-212.233 82.8397,-212.082 83.9731,-208.507 80.0991,-211.213 85.5832,-205.084 85.5832,-205.084"/>
<text text-anchor="middle" x="98" y="-227.1" font-family="FreeSans" font-size="8.00" fill="#4e9a06">hasGroup</text>
</g>
<!-- N5 -->
<g id="node5" class="node"><title>N5</title>
<path fill="#ffffff" stroke="#2e3436" stroke-width="1.5" d="M175.5,-1C175.5,-1 216.5,-1 216.5,-1 222.5,-1 228.5,-7 228.5,-13 228.5,-13 228.5,-25 228.5,-25 228.5,-31 222.5,-37 216.5,-37 216.5,-37 175.5,-37 175.5,-37 169.5,-37 163.5,-31 163.5,-25 163.5,-25 163.5,-13 163.5,-13 163.5,-7 169.5,-1 175.5,-1"/>
<text text-anchor="start" x="171.5" y="-17.1" font-family="FreeSans" font-size="8.00" fill="#1c2021">name = &#39;Role&#39;</text>
</g>
<!-- N4&#45;&gt;N5 -->
<g id="edge10" class="edge"><title>N4&#45;&gt;N5</title>
<path fill="none" stroke="#a40000" stroke-width="2" d="M68.7509,-84.8101C94.3133,-71.7907 129.5,-53.8694 156.395,-40.1715"/>
<polygon fill="#a40000" stroke="#a40000" stroke-width="2" points="163.393,-36.607 158.242,-43.0183 160.279,-38.7545 156.937,-40.4565 156.71,-40.0109 156.483,-39.5654 159.825,-37.8634 155.179,-37.0035 163.393,-36.607 163.393,-36.607"/>
<text text-anchor="middle" x="131.5" y="-59.1" font-family="FreeSans" font-size="8.00" fill="#a40000">isA</text>
</g>
<!-- N3&#45;&gt;N4 -->
<g id="edge7" class="edge"><title>N3&#45;&gt;N4</title>
<path fill="none" stroke="#204a87" stroke-width="2" d="M52.8,-174.894C40.8241,-169.414 28.9341,-161.439 22,-150 17.9992,-143.4 18.6208,-135.524 21.0345,-128.171"/>
<polygon fill="#204a87" stroke="#204a87" stroke-width="2" points="23.9406,-121.059 24.228,-129.278 22.985,-124.719 21.5666,-128.191 21.1038,-128.002 20.6409,-127.812 22.0593,-124.341 17.9795,-126.725 23.9406,-121.059 23.9406,-121.059"/>
<text text-anchor="middle" x="38.5" y="-143.1" font-family="FreeSans" font-size="8.00" fill="#204a87">canHave</text>
</g>
<!-- N1 -->
<g id="node4" class="node"><title>N1</title>
<path fill="#ffffff" stroke="#2e3436" stroke-width="1.5" d="M280,-85C280,-85 326,-85 326,-85 332,-85 338,-91 338,-97 338,-97 338,-109 338,-109 338,-115 332,-121 326,-121 326,-121 280,-121 280,-121 274,-121 268,-115 268,-109 268,-109 268,-97 268,-97 268,-91 274,-85 280,-85"/>
<text text-anchor="start" x="276" y="-101.1" font-family="FreeSans" font-size="8.00" fill="#1c2021">name = &#39;Role2&#39;</text>
</g>
<!-- N3&#45;&gt;N1 -->
<g id="edge8" class="edge"><title>N3&#45;&gt;N1</title>
<path fill="none" stroke="#204a87" stroke-width="2" d="M128.464,-168.849C148.612,-159.853 173.981,-148.886 197,-140 217.739,-131.994 241.108,-123.955 260.616,-117.511"/>
<polygon fill="#204a87" stroke="#204a87" stroke-width="2" points="267.89,-115.123 261.817,-120.669 264.483,-116.767 260.92,-117.937 260.764,-117.462 260.608,-116.987 264.171,-115.817 259.711,-114.256 267.89,-115.123 267.89,-115.123"/>
<text text-anchor="middle" x="213.5" y="-143.1" font-family="FreeSans" font-size="8.00" fill="#204a87">canHave</text>
</g>
<!-- N8 -->
<g id="node7" class="node"><title>N8</title>
<path fill="#ffffff" stroke="#2e3436" stroke-width="1.5" d="M156.5,-85C156.5,-85 203.5,-85 203.5,-85 209.5,-85 215.5,-91 215.5,-97 215.5,-97 215.5,-109 215.5,-109 215.5,-115 209.5,-121 203.5,-121 203.5,-121 156.5,-121 156.5,-121 150.5,-121 144.5,-115 144.5,-109 144.5,-109 144.5,-97 144.5,-97 144.5,-91 150.5,-85 156.5,-85"/>
<text text-anchor="start" x="152.5" y="-101.1" font-family="FreeSans" font-size="8.00" fill="#1c2021">name = &#39;Group&#39;</text>
</g>
<!-- N3&#45;&gt;N8 -->
<g id="edge9" class="edge"><title>N3&#45;&gt;N8</title>
<path fill="none" stroke="#a40000" stroke-width="2" d="M86.123,-168.909C84.5114,-159.608 84.3573,-148.334 90,-140 100.567,-124.393 119.114,-115.551 136.637,-110.543"/>
<polygon fill="#a40000" stroke="#a40000" stroke-width="2" points="144.057,-108.622 137.642,-113.769 140.552,-110.046 136.922,-110.985 136.796,-110.501 136.671,-110.017 140.302,-109.078 135.951,-107.234 144.057,-108.622 144.057,-108.622"/>
<text text-anchor="middle" x="95.5" y="-143.1" font-family="FreeSans" font-size="8.00" fill="#a40000">isA</text>
</g>
<!-- N1&#45;&gt;N5 -->
<g id="edge3" class="edge"><title>N1&#45;&gt;N5</title>
<path fill="none" stroke="#a40000" stroke-width="2" d="M280.569,-84.8101C264.305,-72.3459 242.178,-55.3888 224.637,-41.946"/>
<polygon fill="#a40000" stroke="#a40000" stroke-width="2" points="218.401,-37.1673 226.407,-39.0505 221.682,-39.0514 224.658,-41.3325 224.354,-41.7294 224.05,-42.1262 221.074,-39.8452 222.301,-44.4082 218.401,-37.1673 218.401,-37.1673"/>
<text text-anchor="middle" x="261.5" y="-59.1" font-family="FreeSans" font-size="8.00" fill="#a40000">isA</text>
</g>
<!-- N2 -->
<g id="node6" class="node"><title>N2</title>
<path fill="#ffffff" stroke="#2e3436" stroke-width="1.5" d="M244,-169C244,-169 296,-169 296,-169 302,-169 308,-175 308,-181 308,-181 308,-193 308,-193 308,-199 302,-205 296,-205 296,-205 244,-205 244,-205 238,-205 232,-199 232,-193 232,-193 232,-181 232,-181 232,-175 238,-169 244,-169"/>
<text text-anchor="start" x="240" y="-185.1" font-family="FreeSans" font-size="8.00" fill="#1c2021">name = &#39;Group1&#39;</text>
</g>
<!-- N2&#45;&gt;N4 -->
<g id="edge5" class="edge"><title>N2&#45;&gt;N4</title>
<path fill="none" stroke="#204a87" stroke-width="2" d="M231.931,-177.82C204.355,-171.439 166.387,-161.707 134,-150 114.017,-142.776 92.5483,-133.057 74.7284,-124.413"/>
<polygon fill="#204a87" stroke="#204a87" stroke-width="2" points="67.8369,-121.036 76.0569,-121.306 71.4244,-122.238 74.7918,-123.888 74.5718,-124.337 74.3518,-124.786 70.9843,-123.135 73.0867,-127.367 67.8369,-121.036 67.8369,-121.036"/>
<text text-anchor="middle" x="150.5" y="-143.1" font-family="FreeSans" font-size="8.00" fill="#204a87">canHave</text>
</g>
<!-- N2&#45;&gt;N1 -->
<g id="edge4" class="edge"><title>N2&#45;&gt;N1</title>
<path fill="none" stroke="#204a87" stroke-width="2" d="M276.998,-168.61C281.712,-156.899 287.994,-141.289 293.202,-128.346"/>
<polygon fill="#204a87" stroke="#204a87" stroke-width="2" points="296.125,-121.084 296.456,-129.302 295.189,-124.749 293.789,-128.228 293.325,-128.042 292.861,-127.855 294.261,-124.376 290.194,-126.782 296.125,-121.084 296.125,-121.084"/>
<text text-anchor="middle" x="305.5" y="-143.1" font-family="FreeSans" font-size="8.00" fill="#204a87">canHave</text>
</g>
<!-- N2&#45;&gt;N8 -->
<g id="edge6" class="edge"><title>N2&#45;&gt;N8</title>
<path fill="none" stroke="#a40000" stroke-width="2" d="M259.8,-168.59C253.888,-159.414 245.868,-148.36 237,-140 231.379,-134.701 224.868,-129.742 218.299,-125.299"/>
<polygon fill="#a40000" stroke="#a40000" stroke-width="2" points="211.741,-121.035 219.869,-122.294 215.158,-122.66 218.302,-124.704 218.029,-125.123 217.756,-125.543 214.613,-123.498 216.189,-127.953 211.741,-121.035 211.741,-121.035"/>
<text text-anchor="middle" x="251.5" y="-143.1" font-family="FreeSans" font-size="8.00" fill="#a40000">isA</text>
</g>
<!-- N6 -->
<g id="node8" class="node"><title>N6</title>
<path fill="#ffffff" stroke="#2e3436" stroke-width="1.5" d="M171.5,-337C171.5,-337 218.5,-337 218.5,-337 224.5,-337 230.5,-343 230.5,-349 230.5,-349 230.5,-361 230.5,-361 230.5,-367 224.5,-373 218.5,-373 218.5,-373 171.5,-373 171.5,-373 165.5,-373 159.5,-367 159.5,-361 159.5,-361 159.5,-349 159.5,-349 159.5,-343 165.5,-337 171.5,-337"/>
<text text-anchor="start" x="167.5" y="-353.1" font-family="FreeSans" font-size="8.00" fill="#1c2021">name = &#39;User1&#39;</text>
</g>
<!-- N6&#45;&gt;N0 -->
<g id="edge14" class="edge"><title>N6&#45;&gt;N0</title>
<path fill="none" stroke="#5c3566" stroke-width="2" d="M159.26,-350.79C134.683,-346.813 102.842,-337.913 82,-318 76.0903,-312.354 72.2222,-304.473 69.6956,-296.829"/>
<polygon fill="#5c3566" stroke="#5c3566" stroke-width="2" points="67.5903,-289.354 72.8723,-295.658 69.0883,-292.828 70.105,-296.437 69.6237,-296.573 69.1424,-296.708 68.1257,-293.099 66.3751,-297.488 67.5903,-289.354 67.5903,-289.354"/>
<text text-anchor="middle" x="111.5" y="-311.1" font-family="FreeSans" font-size="8.00" fill="#5c3566">hasRoleInGroup</text>
</g>
<!-- N6&#45;&gt;N3 -->
<g id="edge11" class="edge"><title>N6&#45;&gt;N3</title>
<path fill="none" stroke="#8f5902" stroke-width="2" d="M187.031,-336.877C174.806,-311.315 149.989,-262.109 123,-224 119.948,-219.69 116.454,-215.316 112.922,-211.171"/>
<polygon fill="#8f5902" stroke="#8f5902" stroke-width="2" points="107.767,-205.297 115.251,-208.708 110.617,-207.786 113.09,-210.604 112.714,-210.934 112.338,-211.264 109.865,-208.445 110.177,-213.16 107.767,-205.297 107.767,-205.297"/>
<text text-anchor="middle" x="166.5" y="-269.1" font-family="FreeSans" font-size="8.00" fill="#8f5902">in</text>
</g>
<!-- N6&#45;&gt;N2 -->
<g id="edge12" class="edge"><title>N6&#45;&gt;N2</title>
<path fill="none" stroke="#8f5902" stroke-width="2" d="M202.744,-336.86C216.105,-307.287 243.532,-246.582 258.914,-212.537"/>
<polygon fill="#8f5902" stroke="#8f5902" stroke-width="2" points="262.186,-205.295 262.174,-213.52 261.098,-208.918 259.554,-212.336 259.098,-212.13 258.642,-211.924 260.186,-208.507 256.022,-210.74 262.186,-205.295 262.186,-205.295"/>
<text text-anchor="middle" x="243.5" y="-269.1" font-family="FreeSans" font-size="8.00" fill="#8f5902">in</text>
</g>
<!-- N7 -->
<g id="node9" class="node"><title>N7</title>
<path fill="#ffffff" stroke="#2e3436" stroke-width="1.5" d="M276,-253C276,-253 332,-253 332,-253 338,-253 344,-259 344,-265 344,-265 344,-277 344,-277 344,-283 338,-289 332,-289 332,-289 276,-289 276,-289 270,-289 264,-283 264,-277 264,-277 264,-265 264,-265 264,-259 270,-253 276,-253"/>
<text text-anchor="start" x="272" y="-269.1" font-family="FreeSans" font-size="8.00" fill="#1c2021">name = &#39;U1G1R2&#39;</text>
</g>
<!-- N6&#45;&gt;N7 -->
<g id="edge13" class="edge"><title>N6&#45;&gt;N7</title>
<path fill="none" stroke="#5c3566" stroke-width="2" d="M222.6,-336.902C231.509,-331.129 241.321,-324.497 250,-318 259.867,-310.614 270.272,-301.973 279.286,-294.187"/>
<polygon fill="#5c3566" stroke="#5c3566" stroke-width="2" points="284.99,-289.215 281.554,-296.688 282.491,-292.056 279.665,-294.52 279.336,-294.144 279.007,-293.767 281.834,-291.303 277.118,-291.599 284.99,-289.215 284.99,-289.215"/>
<text text-anchor="middle" x="292.5" y="-311.1" font-family="FreeSans" font-size="8.00" fill="#5c3566">hasRoleInGroup</text>
</g>
<!-- N7&#45;&gt;N1 -->
<g id="edge15" class="edge"><title>N7&#45;&gt;N1</title>
<path fill="none" stroke="#2e3436" stroke-width="2" d="M321.737,-252.812C326.3,-247.284 330.598,-240.812 333,-234 339.805,-214.704 380.683,-287.733 329,-140 327.5,-135.711 325.312,-131.489 322.833,-127.53"/>
<polygon fill="#2e3436" stroke="#2e3436" stroke-width="2" points="318.456,-121.151 325.482,-125.426 320.99,-123.96 323.112,-127.052 322.699,-127.335 322.287,-127.618 320.165,-124.526 319.916,-129.244 318.456,-121.151 318.456,-121.151"/>
<text text-anchor="middle" x="364" y="-185.1" font-family="FreeSans" font-size="8.00" fill="#2e3436">hasRole</text>
</g>
<!-- N7&#45;&gt;N2 -->
<g id="edge16" class="edge"><title>N7&#45;&gt;N2</title>
<path fill="none" stroke="#4e9a06" stroke-width="2" d="M296.789,-252.61C291.934,-240.899 285.461,-225.289 280.095,-212.346"/>
<polygon fill="#4e9a06" stroke="#4e9a06" stroke-width="2" points="277.084,-205.084 283.074,-210.719 278.982,-208.356 280.418,-211.82 279.956,-212.012 279.494,-212.203 278.058,-208.739 276.839,-213.305 277.084,-205.084 277.084,-205.084"/>
<text text-anchor="middle" x="308" y="-227.1" font-family="FreeSans" font-size="8.00" fill="#4e9a06">hasGroup</text>
</g>
</g>
</svg>
