<?xml version="1.0" encoding="UTF-8" standalone="no"?>
<!DOCTYPE svg PUBLIC "-//W3C//DTD SVG 1.1//EN"
 "http://www.w3.org/Graphics/SVG/1.1/DTD/svg11.dtd">
<!-- Generated by graphviz version 2.36.0 (20140111.2315)
 -->
<!-- Title: g Pages: 1 -->
<svg width="125pt" height="296pt"
 viewBox="0.00 0.00 125.00 296.00" xmlns="http://www.w3.org/2000/svg" xmlns:xlink="http://www.w3.org/1999/xlink">
<g id="graph0" class="graph" transform="scale(1 1) rotate(0) translate(4 292)">
<title>g</title>
<polygon fill="white" stroke="none" points="-4,4 -4,-292 121,-292 121,4 -4,4"/>
<!-- A -->
<g id="node1" class="node"><title>A</title>
<path fill="#ffffff" stroke="#2e3436" stroke-width="1.5" d="M104,-288C104,-288 74,-288 74,-288 68,-288 62,-282 62,-276 62,-276 62,-264 62,-264 62,-258 68,-252 74,-252 74,-252 104,-252 104,-252 110,-252 116,-258 116,-264 116,-264 116,-276 116,-276 116,-282 110,-288 104,-288"/>
<text text-anchor="middle" x="89" y="-267.5" font-family="FreeSans" font-size="10.00" fill="#1c2021">A</text>
</g>
<!-- B -->
<g id="node2" class="node"><title>B</title>
<path fill="#ffffff" stroke="#2e3436" stroke-width="1.5" d="M42,-204C42,-204 12,-204 12,-204 6,-204 0,-198 0,-192 0,-192 0,-180 0,-180 0,-174 6,-168 12,-168 12,-168 42,-168 42,-168 48,-168 54,-174 54,-180 54,-180 54,-192 54,-192 54,-198 48,-204 42,-204"/>
<text text-anchor="middle" x="27" y="-183.5" font-family="FreeSans" font-size="10.00" fill="#1c2021">B</text>
</g>
<!-- A&#45;&gt;B -->
<g id="edge1" class="edge"><title>A&#45;&gt;B</title>
<path fill="none" stroke="#a40000" stroke-width="2" d="M75.8514,-251.61C66.7483,-239.57 54.5298,-223.41 44.59,-210.264"/>
<polygon fill="#a40000" stroke="#a40000" stroke-width="2" points="39.9171,-204.084 47.1325,-208.031 42.5776,-206.774 44.8392,-209.765 44.4404,-210.066 44.0416,-210.368 41.7799,-207.377 41.7483,-212.102 39.9171,-204.084 39.9171,-204.084"/>
<text text-anchor="middle" x="74" y="-225.5" font-family="FreeSans" font-size="10.00" fill="#a40000">REL1</text>
</g>
<!-- C -->
<g id="node3" class="node"><title>C</title>
<path fill="#ffffff" stroke="#2e3436" stroke-width="1.5" d="M95,-120C95,-120 65,-120 65,-120 59,-120 53,-114 53,-108 53,-108 53,-96 53,-96 53,-90 59,-84 65,-84 65,-84 95,-84 95,-84 101,-84 107,-90 107,-96 107,-96 107,-108 107,-108 107,-114 101,-120 95,-120"/>
<text text-anchor="middle" x="80" y="-99.5" font-family="FreeSans" font-size="10.00" fill="#1c2021">C</text>
</g>
<!-- A&#45;&gt;C -->
<g id="edge2" class="edge"><title>A&#45;&gt;C</title>
<path fill="none" stroke="#2e3436" stroke-width="2" d="M91.3431,-251.944C92.0202,-246.249 92.6661,-239.862 93,-234 94.7774,-202.795 93.4801,-176.31 88,-138 87.5203,-134.647 86.8838,-131.14 86.1787,-127.696"/>
<polygon fill="#2e3436" stroke="#2e3436" stroke-width="2" points="84.5595,-120.341 89.4681,-126.94 85.8541,-123.896 86.6603,-127.558 86.172,-127.665 85.6837,-127.773 84.8774,-124.111 82.8759,-128.391 84.5595,-120.341 84.5595,-120.341"/>
<text text-anchor="middle" x="105" y="-183.5" font-family="FreeSans" font-size="10.00" fill="#1c2021">REL2</text>
</g>
<!-- B&#45;&gt;C -->
<g id="edge3" class="edge"><title>B&#45;&gt;C</title>
<path fill="none" stroke="#a40000" stroke-width="2" d="M38.2399,-167.61C45.9509,-155.68 56.2767,-139.704 64.7312,-126.623"/>
<polygon fill="#a40000" stroke="#a40000" stroke-width="2" points="68.958,-120.084 67.7212,-128.215 67.3423,-123.505 65.3067,-126.654 64.8868,-126.383 64.4668,-126.111 66.5025,-122.962 62.0523,-124.551 68.958,-120.084 68.958,-120.084"/>
<text text-anchor="middle" x="69" y="-141.5" font-family="FreeSans" font-size="10.00" fill="#a40000">REL2</text>
</g>
<!-- D -->
<g id="node4" class="node"><title>D</title>
<path fill="#ffffff" stroke="#2e3436" stroke-width="1.5" d="M95,-36C95,-36 65,-36 65,-36 59,-36 53,-30 53,-24 53,-24 53,-12 53,-12 53,-6 59,-0 65,-0 65,-0 95,-0 95,-0 101,-0 107,-6 107,-12 107,-12 107,-24 107,-24 107,-30 101,-36 95,-36"/>
<text text-anchor="middle" x="80" y="-15.5" font-family="FreeSans" font-size="10.00" fill="#1c2021">D</text>
</g>
<!-- C&#45;&gt;D -->
<g id="edge4" class="edge"><title>C&#45;&gt;D</title>
<path fill="none" stroke="#a40000" stroke-width="2" d="M80,-83.6099C80,-72.0081 80,-56.5802 80,-43.7099"/>
<polygon fill="#a40000" stroke="#a40000" stroke-width="2" points="80,-36.0838 83.3751,-43.5838 80.5,-39.8338 80.5001,-43.5838 80.0001,-43.5838 79.5001,-43.5838 79.5,-39.8338 76.6251,-43.5839 80,-36.0838 80,-36.0838"/>
<text text-anchor="middle" x="92" y="-57.5" font-family="FreeSans" font-size="10.00" fill="#a40000">REL3</text>
</g>
</g>
</svg>
