<?xml version="1.0" encoding="UTF-8" standalone="no"?>
<!DOCTYPE svg PUBLIC "-//W3C//DTD SVG 1.1//EN"
 "http://www.w3.org/Graphics/SVG/1.1/DTD/svg11.dtd">
<!-- Generated by graphviz version 2.36.0 (20140111.2315)
 -->
<!-- Title: g Pages: 1 -->
<svg width="232pt" height="214pt"
 viewBox="0.00 0.00 232.00 214.00" xmlns="http://www.w3.org/2000/svg" xmlns:xlink="http://www.w3.org/1999/xlink">
<g id="graph0" class="graph" transform="scale(1 1) rotate(0) translate(4 210)">
<title>g</title>
<polygon fill="white" stroke="none" points="-4,4 -4,-210 228,-210 228,4 -4,4"/>
<!-- N0 -->
<g id="node1" class="node"><title>N0</title>
<path fill="#ffffff" stroke="#2e3436" stroke-width="1.5" d="M15.5,-85C15.5,-85 86.5,-85 86.5,-85 92.5,-85 98.5,-91 98.5,-97 98.5,-97 98.5,-109 98.5,-109 98.5,-115 92.5,-121 86.5,-121 86.5,-121 15.5,-121 15.5,-121 9.5,-121 3.5,-115 3.5,-109 3.5,-109 3.5,-97 3.5,-97 3.5,-91 9.5,-85 15.5,-85"/>
<text text-anchor="start" x="11.5" y="-101.1" font-family="FreeSans" font-size="8.00" fill="#1c2021">Node[0]name = &#39;Sara&#39;</text>
</g>
<!-- N1 -->
<g id="node2" class="node"><title>N1</title>
<path fill="#ffffff" stroke="#2e3436" stroke-width="1.5" d="M12,-1C12,-1 86,-1 86,-1 92,-1 98,-7 98,-13 98,-13 98,-25 98,-25 98,-31 92,-37 86,-37 86,-37 12,-37 12,-37 6,-37 0,-31 0,-25 0,-25 0,-13 0,-13 0,-7 6,-1 12,-1"/>
<text text-anchor="start" x="8" y="-17.1" font-family="FreeSans" font-size="8.00" fill="#1c2021">Node[1]name = &#39;Maria&#39;</text>
</g>
<!-- N0&#45;&gt;N1 -->
<g id="edge1" class="edge"><title>N0&#45;&gt;N1</title>
<path fill="none" stroke="#2e3436" stroke-width="2" d="M50.5759,-84.6099C50.2929,-73.0081 49.9166,-57.5802 49.6027,-44.7099"/>
<polygon fill="#2e3436" stroke="#2e3436" stroke-width="2" points="49.4167,-37.0838 52.9736,-44.4993 50.008,-40.8205 50.0995,-44.5694 49.5996,-44.5816 49.0998,-44.5938 49.0083,-40.8449 46.2257,-44.6639 49.4167,-37.0838 49.4167,-37.0838"/>
<text text-anchor="middle" x="61.5" y="-59.1" font-family="FreeSans" font-size="8.00" fill="#2e3436">friend</text>
</g>
<!-- N2 -->
<g id="node3" class="node"><title>N2</title>
<path fill="#ffffff" stroke="#2e3436" stroke-width="1.5" d="M139,-1C139,-1 213,-1 213,-1 219,-1 225,-7 225,-13 225,-13 225,-25 225,-25 225,-31 219,-37 213,-37 213,-37 139,-37 139,-37 133,-37 127,-31 127,-25 127,-25 127,-13 127,-13 127,-7 133,-1 139,-1"/>
<text text-anchor="start" x="135" y="-17.1" font-family="FreeSans" font-size="8.00" fill="#1c2021">Node[2]name = &#39;Steve&#39;</text>
</g>
<!-- N3 -->
<g id="node4" class="node"><title>N3</title>
<path fill="#ffffff" stroke="#2e3436" stroke-width="1.5" d="M85.5,-169C85.5,-169 156.5,-169 156.5,-169 162.5,-169 168.5,-175 168.5,-181 168.5,-181 168.5,-193 168.5,-193 168.5,-199 162.5,-205 156.5,-205 156.5,-205 85.5,-205 85.5,-205 79.5,-205 73.5,-199 73.5,-193 73.5,-193 73.5,-181 73.5,-181 73.5,-175 79.5,-169 85.5,-169"/>
<text text-anchor="start" x="81.5" y="-185.1" font-family="FreeSans" font-size="8.00" fill="#1c2021">Node[3]name = &#39;John&#39;</text>
</g>
<!-- N3&#45;&gt;N0 -->
<g id="edge2" class="edge"><title>N3&#45;&gt;N0</title>
<path fill="none" stroke="#2e3436" stroke-width="2" d="M106.155,-168.61C95.7837,-156.461 81.831,-140.116 70.5542,-126.906"/>
<polygon fill="#2e3436" stroke="#2e3436" stroke-width="2" points="65.5838,-121.084 73.0202,-124.597 68.3988,-123.611 70.8336,-126.463 70.4533,-126.788 70.073,-127.113 67.6382,-124.261 67.8864,-128.979 65.5838,-121.084 65.5838,-121.084"/>
<text text-anchor="middle" x="101.5" y="-143.1" font-family="FreeSans" font-size="8.00" fill="#2e3436">friend</text>
</g>
<!-- N4 -->
<g id="node5" class="node"><title>N4</title>
<path fill="#ffffff" stroke="#2e3436" stroke-width="1.5" d="M141.5,-85C141.5,-85 208.5,-85 208.5,-85 214.5,-85 220.5,-91 220.5,-97 220.5,-97 220.5,-109 220.5,-109 220.5,-115 214.5,-121 208.5,-121 208.5,-121 141.5,-121 141.5,-121 135.5,-121 129.5,-115 129.5,-109 129.5,-109 129.5,-97 129.5,-97 129.5,-91 135.5,-85 141.5,-85"/>
<text text-anchor="start" x="137.5" y="-101.1" font-family="FreeSans" font-size="8.00" fill="#1c2021">Node[4]name = &#39;Joe&#39;</text>
</g>
<!-- N3&#45;&gt;N4 -->
<g id="edge3" class="edge"><title>N3&#45;&gt;N4</title>
<path fill="none" stroke="#2e3436" stroke-width="2" d="M132.452,-168.61C140.308,-156.68 150.829,-140.704 159.443,-127.623"/>
<polygon fill="#2e3436" stroke="#2e3436" stroke-width="2" points="163.75,-121.084 162.443,-129.204 162.105,-124.491 160.042,-127.623 159.625,-127.348 159.207,-127.073 161.27,-123.941 156.806,-125.491 163.75,-121.084 163.75,-121.084"/>
<text text-anchor="middle" x="162.5" y="-143.1" font-family="FreeSans" font-size="8.00" fill="#2e3436">friend</text>
</g>
<!-- N4&#45;&gt;N2 -->
<g id="edge4" class="edge"><title>N4&#45;&gt;N2</title>
<path fill="none" stroke="#2e3436" stroke-width="2" d="M175.212,-84.6099C175.354,-73.0081 175.542,-57.5802 175.699,-44.7099"/>
<polygon fill="#2e3436" stroke="#2e3436" stroke-width="2" points="175.792,-37.0838 179.075,-44.6245 176.246,-40.8397 176.2,-44.5894 175.7,-44.5833 175.2,-44.5772 175.246,-40.8275 172.325,-44.5421 175.792,-37.0838 175.792,-37.0838"/>
<text text-anchor="middle" x="185.5" y="-59.1" font-family="FreeSans" font-size="8.00" fill="#2e3436">friend</text>
</g>
</g>
</svg>
