<?xml version="1.0" encoding="UTF-8" standalone="no"?>
<!DOCTYPE svg PUBLIC "-//W3C//DTD SVG 1.1//EN"
 "http://www.w3.org/Graphics/SVG/1.1/DTD/svg11.dtd">
<!-- Generated by graphviz version 2.38.0 (20140413.2041)
 -->
<!-- Title: g Pages: 1 -->
<svg width="103pt" height="127pt"
 viewBox="0.00 0.00 103.00 127.00" xmlns="http://www.w3.org/2000/svg" xmlns:xlink="http://www.w3.org/1999/xlink">
<g id="graph0" class="graph" transform="scale(1 1) rotate(0) translate(4 123)">
<title>g</title>
<polygon fill="white" stroke="none" points="-4,4 -4,-123 99,-123 99,4 -4,4"/>
<!-- N9 -->
<g id="node1" class="node"><title>N9</title>
<path fill="#ffffff" stroke="#2e3436" stroke-width="1.5" d="M12,-0.5C12,-0.5 83,-0.5 83,-0.5 89,-0.5 95,-6.5 95,-12.5 95,-12.5 95,-24.5 95,-24.5 95,-30.5 89,-36.5 83,-36.5 83,-36.5 12,-36.5 12,-36.5 6,-36.5 0,-30.5 0,-24.5 0,-24.5 0,-12.5 0,-12.5 0,-6.5 6,-0.5 12,-0.5"/>
<text text-anchor="start" x="8" y="-16.6" font-family="FreeSans" font-size="8.00" fill="#1c2021">Node[9]name = &#39;Sara&#39;</text>
</g>
<!-- N10 -->
<g id="node2" class="node"><title>N10</title>
<path fill="#ffffff" stroke="#2e3436" stroke-width="1.5" d="M12,-82.5C12,-82.5 83,-82.5 83,-82.5 89,-82.5 95,-88.5 95,-94.5 95,-94.5 95,-106.5 95,-106.5 95,-112.5 89,-118.5 83,-118.5 83,-118.5 12,-118.5 12,-118.5 6,-118.5 0,-112.5 0,-106.5 0,-106.5 0,-94.5 0,-94.5 0,-88.5 6,-82.5 12,-82.5"/>
<text text-anchor="start" x="8" y="-98.6" font-family="FreeSans" font-size="8.00" fill="#1c2021">Node[10]name = &#39;Joe&#39;</text>
</g>
<!-- N10&#45;&gt;N9 -->
<g id="edge1" class="edge"><title>N10&#45;&gt;N9</title>
<path fill="none" stroke="#2e3436" stroke-width="2" d="M28.2386,-82.4106C23.4827,-77.0432 19.0292,-70.7416 16.5,-64 13.664,-56.4407 16.2061,-48.9527 20.8415,-42.3363"/>
<polygon fill="#2e3436" stroke="#2e3436" stroke-width="2" points="25.5928,-36.5281 23.4563,-44.4702 23.6054,-39.7473 21.231,-42.6498 20.844,-42.3333 20.457,-42.0167 22.8314,-39.1141 18.2317,-40.1963 25.5928,-36.5281 25.5928,-36.5281"/>
<text text-anchor="middle" x="28.5" y="-57.6" font-family="FreeSans" font-size="8.00" fill="#2e3436">knows</text>
</g>
<!-- N10&#45;&gt;N9 -->
<g id="edge2" class="edge"><title>N10&#45;&gt;N9</title>
<path fill="none" stroke="#4e9a06" stroke-width="2" d="M47.5,-82.1412C47.5,-71.0583 47.5,-56.5177 47.5,-44.2358"/>
<polygon fill="#4e9a06" stroke="#4e9a06" stroke-width="2" points="47.5,-36.5501 50.8751,-44.0501 48,-40.3001 48.0001,-44.0501 47.5001,-44.0501 47.0001,-44.0501 47,-40.3001 44.1251,-44.0501 47.5,-36.5501 47.5,-36.5501"/>
<text text-anchor="middle" x="61.5" y="-57.6" font-family="FreeSans" font-size="8.00" fill="#4e9a06">LOVES</text>
</g>
</g>
</svg>
