<?xml version="1.0" encoding="UTF-8" standalone="no"?>
<!DOCTYPE svg PUBLIC "-//W3C//DTD SVG 1.1//EN"
 "http://www.w3.org/Graphics/SVG/1.1/DTD/svg11.dtd">
<!-- Generated by graphviz version 2.36.0 (20140111.2315)
 -->
<!-- Title: g Pages: 1 -->
<svg width="234pt" height="130pt"
 viewBox="0.00 0.00 234.00 130.00" xmlns="http://www.w3.org/2000/svg" xmlns:xlink="http://www.w3.org/1999/xlink">
<g id="graph0" class="graph" transform="scale(1 1) rotate(0) translate(4 126)">
<title>g</title>
<polygon fill="white" stroke="none" points="-4,4 -4,-126 230,-126 230,4 -4,4"/>
<!-- N203 -->
<g id="node1" class="node"><title>N203</title>
<path fill="#ffffff" stroke="#2e3436" stroke-width="1.5" d="M11.5,-1C11.5,-1 86.5,-1 86.5,-1 92.5,-1 98.5,-7 98.5,-13 98.5,-13 98.5,-25 98.5,-25 98.5,-31 92.5,-37 86.5,-37 86.5,-37 11.5,-37 11.5,-37 5.5,-37 -0.5,-31 -0.5,-25 -0.5,-25 -0.5,-13 -0.5,-13 -0.5,-7 5.5,-1 11.5,-1"/>
<text text-anchor="start" x="7.5" y="-17.1" font-family="FreeSans" font-size="8.00" fill="#1c2021">Node[203]name = &#39;you&#39;</text>
</g>
<!-- N204 -->
<g id="node2" class="node"><title>N204</title>
<path fill="#ffffff" stroke="#2e3436" stroke-width="1.5" d="M139.5,-1C139.5,-1 214.5,-1 214.5,-1 220.5,-1 226.5,-7 226.5,-13 226.5,-13 226.5,-25 226.5,-25 226.5,-31 220.5,-37 214.5,-37 214.5,-37 139.5,-37 139.5,-37 133.5,-37 127.5,-31 127.5,-25 127.5,-25 127.5,-13 127.5,-13 127.5,-7 133.5,-1 139.5,-1"/>
<text text-anchor="start" x="135.5" y="-21.6" font-family="FreeSans" font-size="8.00" fill="#1c2021">Node[204]name = &#39;him&#39;</text>
<text text-anchor="start" x="135.5" y="-12.6" font-family="FreeSans" font-size="8.00" fill="#1c2021">age = 25</text>
</g>
<!-- N205 -->
<g id="node3" class="node"><title>N205</title>
<path fill="#ffffff" stroke="#2e3436" stroke-width="1.5" d="M80.5,-85C80.5,-85 145.5,-85 145.5,-85 151.5,-85 157.5,-91 157.5,-97 157.5,-97 157.5,-109 157.5,-109 157.5,-115 151.5,-121 145.5,-121 145.5,-121 80.5,-121 80.5,-121 74.5,-121 68.5,-115 68.5,-109 68.5,-109 68.5,-97 68.5,-97 68.5,-91 74.5,-85 80.5,-85"/>
<text text-anchor="start" x="76.5" y="-101.1" font-family="FreeSans" font-size="8.00" fill="#1c2021">Node[205]name = &#39;I&#39;</text>
</g>
<!-- N205&#45;&gt;N203 -->
<g id="edge1" class="edge"><title>N205&#45;&gt;N203</title>
<path fill="none" stroke="#2e3436" stroke-width="2" d="M99.4272,-84.6099C90.0305,-72.5703 77.4179,-56.4104 67.1574,-43.2641"/>
<polygon fill="#2e3436" stroke="#2e3436" stroke-width="2" points="62.3337,-37.0838 69.6089,-40.9197 65.0352,-39.7324 67.3425,-42.6886 66.9483,-42.9962 66.5541,-43.3039 64.2469,-40.3477 64.2877,-45.0728 62.3337,-37.0838 62.3337,-37.0838"/>
<text text-anchor="middle" x="95" y="-59.1" font-family="FreeSans" font-size="8.00" fill="#2e3436">know</text>
</g>
<!-- N205&#45;&gt;N204 -->
<g id="edge2" class="edge"><title>N205&#45;&gt;N204</title>
<path fill="none" stroke="#2e3436" stroke-width="2" d="M126.573,-84.6099C135.97,-72.5703 148.582,-56.4104 158.843,-43.2641"/>
<polygon fill="#2e3436" stroke="#2e3436" stroke-width="2" points="163.666,-37.0838 161.712,-45.0728 161.753,-40.3477 159.446,-43.3039 159.052,-42.9962 158.658,-42.6886 160.965,-39.7324 156.391,-40.9197 163.666,-37.0838 163.666,-37.0838"/>
<text text-anchor="middle" x="158" y="-59.1" font-family="FreeSans" font-size="8.00" fill="#2e3436">know</text>
</g>
</g>
</svg>
