<?xml version="1.0" encoding="UTF-8" standalone="no"?>
<!DOCTYPE svg PUBLIC "-//W3C//DTD SVG 1.1//EN"
 "http://www.w3.org/Graphics/SVG/1.1/DTD/svg11.dtd">
<!-- Generated by graphviz version 2.36.0 (20140111.2315)
 -->
<!-- Title: g Pages: 1 -->
<svg width="96pt" height="46pt"
 viewBox="0.00 0.00 96.00 46.00" xmlns="http://www.w3.org/2000/svg" xmlns:xlink="http://www.w3.org/1999/xlink">
<g id="graph0" class="graph" transform="scale(1 1) rotate(0) translate(4 42)">
<title>g</title>
<polygon fill="white" stroke="none" points="-4,4 -4,-42 92,-42 92,4 -4,4"/>
<!-- N256 -->
<g id="node1" class="node"><title>N256</title>
<path fill="#ffffff" stroke="#2e3436" stroke-width="1.5" d="M11.5,-1C11.5,-1 76.5,-1 76.5,-1 82.5,-1 88.5,-7 88.5,-13 88.5,-13 88.5,-25 88.5,-25 88.5,-31 82.5,-37 76.5,-37 76.5,-37 11.5,-37 11.5,-37 5.5,-37 -0.5,-31 -0.5,-25 -0.5,-25 -0.5,-13 -0.5,-13 -0.5,-7 5.5,-1 11.5,-1"/>
<text text-anchor="start" x="7.5" y="-21.6" font-family="FreeSans" font-size="8.00" fill="#1c2021">Node[256]foo = &#39;bar&#39;</text>
<text text-anchor="start" x="7.5" y="-12.6" font-family="FreeSans" font-size="8.00" fill="#1c2021">foo2 = &#39;bar2&#39;</text>
</g>
</g>
</svg>
