<?xml version="1.0" encoding="UTF-8" standalone="no"?>
<!DOCTYPE svg PUBLIC "-//W3C//DTD SVG 1.1//EN"
 "http://www.w3.org/Graphics/SVG/1.1/DTD/svg11.dtd">
<!-- Generated by graphviz version 2.36.0 (20140111.2315)
 -->
<!-- Title: g Pages: 1 -->
<svg width="400pt" height="46pt"
 viewBox="0.00 0.00 400.00 46.00" xmlns="http://www.w3.org/2000/svg" xmlns:xlink="http://www.w3.org/1999/xlink">
<g id="graph0" class="graph" transform="scale(1 1) rotate(0) translate(4 42)">
<title>g</title>
<polygon fill="white" stroke="none" points="-4,4 -4,-42 396,-42 396,4 -4,4"/>
<!-- N49 -->
<g id="node1" class="node"><title>N49</title>
<path fill="#ffffff" stroke="#2e3436" stroke-width="1.5" d="M12,-1C12,-1 98,-1 98,-1 104,-1 110,-7 110,-13 110,-13 110,-25 110,-25 110,-31 104,-37 98,-37 98,-37 12,-37 12,-37 6,-37 0,-31 0,-25 0,-25 0,-13 0,-13 0,-7 6,-1 12,-1"/>
<text text-anchor="middle" x="55" y="-26.1" font-family="FreeSans" font-size="8.00" fill="#1c2021">Node[49]: Director</text>
<polyline fill="none" stroke="#2e3436" stroke-width="1.5" points="0,-19 110,-19 "/>
<text text-anchor="start" x="8" y="-8.1" font-family="FreeSans" font-size="8.00" fill="#1c2021">name = &#39;Steven Spielberg&#39;</text>
</g>
<!-- N50 -->
<g id="node2" class="node"><title>N50</title>
<path fill="#ffffff" stroke="#2e3436" stroke-width="1.5" d="M151.5,-1C151.5,-1 234.5,-1 234.5,-1 240.5,-1 246.5,-7 246.5,-13 246.5,-13 246.5,-25 246.5,-25 246.5,-31 240.5,-37 234.5,-37 234.5,-37 151.5,-37 151.5,-37 145.5,-37 139.5,-31 139.5,-25 139.5,-25 139.5,-13 139.5,-13 139.5,-7 145.5,-1 151.5,-1"/>
<text text-anchor="middle" x="193" y="-26.1" font-family="FreeSans" font-size="8.00" fill="#1c2021">Node[50]: Actor, Director</text>
<polyline fill="none" stroke="#2e3436" stroke-width="1.5" points="139.5,-19 246.5,-19 "/>
<text text-anchor="start" x="147.5" y="-8.1" font-family="FreeSans" font-size="8.00" fill="#1c2021">name = &#39;Clint Eastwood&#39;</text>
</g>
<!-- N51 -->
<g id="node3" class="node"><title>N51</title>
<path fill="#ffffff" stroke="#2e3436" stroke-width="1.5" d="M288,-1C288,-1 380,-1 380,-1 386,-1 392,-7 392,-13 392,-13 392,-25 392,-25 392,-31 386,-37 380,-37 380,-37 288,-37 288,-37 282,-37 276,-31 276,-25 276,-25 276,-13 276,-13 276,-7 282,-1 288,-1"/>
<text text-anchor="middle" x="334" y="-26.1" font-family="FreeSans" font-size="8.00" fill="#1c2021">Node[51]: Actor</text>
<polyline fill="none" stroke="#2e3436" stroke-width="1.5" points="276,-19 392,-19 "/>
<text text-anchor="start" x="284" y="-8.1" font-family="FreeSans" font-size="8.00" fill="#1c2021">name = &#39;Donald Sutherland&#39;</text>
</g>
</g>
</svg>
