<?xml version="1.0" encoding="UTF-8" standalone="no"?>
<!DOCTYPE svg PUBLIC "-//W3C//DTD SVG 1.1//EN"
 "http://www.w3.org/Graphics/SVG/1.1/DTD/svg11.dtd">
<!-- Generated by graphviz version 2.38.0 (20140413.2041)
 -->
<!-- Title: g Pages: 1 -->
<svg width="186pt" height="209pt"
 viewBox="0.00 0.00 186.00 209.00" xmlns="http://www.w3.org/2000/svg" xmlns:xlink="http://www.w3.org/1999/xlink">
<g id="graph0" class="graph" transform="scale(1 1) rotate(0) translate(4 205)">
<title>g</title>
<polygon fill="white" stroke="none" points="-4,4 -4,-205 182,-205 182,4 -4,4"/>
<!-- N110 -->
<g id="node1" class="node"><title>N110</title>
<path fill="#ffffff" stroke="#2e3436" stroke-width="1.5" d="M53,-82.5C53,-82.5 83,-82.5 83,-82.5 89,-82.5 95,-88.5 95,-94.5 95,-94.5 95,-106.5 95,-106.5 95,-112.5 89,-118.5 83,-118.5 83,-118.5 53,-118.5 53,-118.5 47,-118.5 41,-112.5 41,-106.5 41,-106.5 41,-94.5 41,-94.5 41,-88.5 47,-82.5 53,-82.5"/>
<text text-anchor="middle" x="68" y="-98.6" font-family="FreeSans" font-size="8.00" fill="#1c2021">Node[110]</text>
</g>
<!-- N111 -->
<g id="node2" class="node"><title>N111</title>
<path fill="#ffffff" stroke="#2e3436" stroke-width="1.5" d="M12,-0.5C12,-0.5 42,-0.5 42,-0.5 48,-0.5 54,-6.5 54,-12.5 54,-12.5 54,-24.5 54,-24.5 54,-30.5 48,-36.5 42,-36.5 42,-36.5 12,-36.5 12,-36.5 6,-36.5 0,-30.5 0,-24.5 0,-24.5 0,-12.5 0,-12.5 0,-6.5 6,-0.5 12,-0.5"/>
<text text-anchor="middle" x="27" y="-16.6" font-family="FreeSans" font-size="8.00" fill="#1c2021">Node[111]</text>
</g>
<!-- N110&#45;&gt;N111 -->
<g id="edge1" class="edge"><title>N110&#45;&gt;N111</title>
<path fill="none" stroke="#2e3436" stroke-width="2" d="M59.1036,-82.1412C53.3154,-70.8472 45.687,-55.9625 39.3187,-43.5365"/>
<polygon fill="#2e3436" stroke="#2e3436" stroke-width="2" points="35.7382,-36.5501 42.1624,-41.6853 37.8935,-39.6593 39.6039,-42.9966 39.1589,-43.2246 38.7139,-43.4527 37.0036,-40.1154 36.1554,-44.7639 35.7382,-36.5501 35.7382,-36.5501"/>
<text text-anchor="middle" x="60.5" y="-57.6" font-family="FreeSans" font-size="8.00" fill="#2e3436">LIKES</text>
</g>
<!-- N113 -->
<g id="node3" class="node"><title>N113</title>
<path fill="#ffffff" stroke="#2e3436" stroke-width="1.5" d="M95,-0.5C95,-0.5 125,-0.5 125,-0.5 131,-0.5 137,-6.5 137,-12.5 137,-12.5 137,-24.5 137,-24.5 137,-30.5 131,-36.5 125,-36.5 125,-36.5 95,-36.5 95,-36.5 89,-36.5 83,-30.5 83,-24.5 83,-24.5 83,-12.5 83,-12.5 83,-6.5 89,-0.5 95,-0.5"/>
<text text-anchor="middle" x="110" y="-16.6" font-family="FreeSans" font-size="8.00" fill="#1c2021">Node[113]</text>
</g>
<!-- N110&#45;&gt;N113 -->
<g id="edge2" class="edge"><title>N110&#45;&gt;N113</title>
<path fill="none" stroke="#4e9a06" stroke-width="2" d="M77.1134,-82.1412C83.0427,-70.8472 90.8572,-55.9625 97.3808,-43.5365"/>
<polygon fill="#4e9a06" stroke="#4e9a06" stroke-width="2" points="101.049,-36.5501 100.551,-44.7594 99.7482,-40.1028 98.0051,-43.423 97.5624,-43.1906 97.1197,-42.9582 98.8628,-39.6379 94.5742,-41.6218 101.049,-36.5501 101.049,-36.5501"/>
<text text-anchor="middle" x="104" y="-57.6" font-family="FreeSans" font-size="8.00" fill="#4e9a06">HATES</text>
</g>
<!-- N112 -->
<g id="node4" class="node"><title>N112</title>
<path fill="#ffffff" stroke="#2e3436" stroke-width="1.5" d="M53,-164.5C53,-164.5 83,-164.5 83,-164.5 89,-164.5 95,-170.5 95,-176.5 95,-176.5 95,-188.5 95,-188.5 95,-194.5 89,-200.5 83,-200.5 83,-200.5 53,-200.5 53,-200.5 47,-200.5 41,-194.5 41,-188.5 41,-188.5 41,-176.5 41,-176.5 41,-170.5 47,-164.5 53,-164.5"/>
<text text-anchor="middle" x="68" y="-180.6" font-family="FreeSans" font-size="8.00" fill="#1c2021">Node[112]</text>
</g>
<!-- N112&#45;&gt;N110 -->
<g id="edge3" class="edge"><title>N112&#45;&gt;N110</title>
<path fill="none" stroke="#2e3436" stroke-width="2" d="M68,-164.141C68,-153.058 68,-138.518 68,-126.236"/>
<polygon fill="#2e3436" stroke="#2e3436" stroke-width="2" points="68,-118.55 71.3751,-126.05 68.5,-122.3 68.5001,-126.05 68.0001,-126.05 67.5001,-126.05 67.5,-122.3 64.6251,-126.05 68,-118.55 68,-118.55"/>
<text text-anchor="middle" x="79.5" y="-139.6" font-family="FreeSans" font-size="8.00" fill="#2e3436">LIKES</text>
</g>
<!-- N114 -->
<g id="node5" class="node"><title>N114</title>
<path fill="#ffffff" stroke="#2e3436" stroke-width="1.5" d="M136,-164.5C136,-164.5 166,-164.5 166,-164.5 172,-164.5 178,-170.5 178,-176.5 178,-176.5 178,-188.5 178,-188.5 178,-194.5 172,-200.5 166,-200.5 166,-200.5 136,-200.5 136,-200.5 130,-200.5 124,-194.5 124,-188.5 124,-188.5 124,-176.5 124,-176.5 124,-170.5 130,-164.5 136,-164.5"/>
<text text-anchor="middle" x="151" y="-180.6" font-family="FreeSans" font-size="8.00" fill="#1c2021">Node[114]</text>
</g>
</g>
</svg>
