<?xml version="1.0" encoding="UTF-8" standalone="no"?>
<!DOCTYPE svg PUBLIC "-//W3C//DTD SVG 1.1//EN"
 "http://www.w3.org/Graphics/SVG/1.1/DTD/svg11.dtd">
<!-- Generated by graphviz version 2.36.0 (20140111.2315)
 -->
<!-- Title: g Pages: 1 -->
<svg width="120pt" height="130pt"
 viewBox="0.00 0.00 120.00 130.00" xmlns="http://www.w3.org/2000/svg" xmlns:xlink="http://www.w3.org/1999/xlink">
<g id="graph0" class="graph" transform="scale(1 1) rotate(0) translate(4 126)">
<title>g</title>
<polygon fill="white" stroke="none" points="-4,4 -4,-126 116,-126 116,4 -4,4"/>
<!-- N182 -->
<g id="node1" class="node"><title>N182</title>
<path fill="#ffffff" stroke="#2e3436" stroke-width="1.5" d="M15.5,-1C15.5,-1 96.5,-1 96.5,-1 102.5,-1 108.5,-7 108.5,-13 108.5,-13 108.5,-25 108.5,-25 108.5,-31 102.5,-37 96.5,-37 96.5,-37 15.5,-37 15.5,-37 9.5,-37 3.5,-31 3.5,-25 3.5,-25 3.5,-13 3.5,-13 3.5,-7 9.5,-1 15.5,-1"/>
<text text-anchor="start" x="11.5" y="-17.1" font-family="FreeSans" font-size="8.00" fill="#1c2021">Node[182]name = &#39;Juliet&#39;</text>
</g>
<!-- N183 -->
<g id="node2" class="node"><title>N183</title>
<path fill="#ffffff" stroke="#2e3436" stroke-width="1.5" d="M11.5,-85C11.5,-85 100.5,-85 100.5,-85 106.5,-85 112.5,-91 112.5,-97 112.5,-97 112.5,-109 112.5,-109 112.5,-115 106.5,-121 100.5,-121 100.5,-121 11.5,-121 11.5,-121 5.5,-121 -0.5,-115 -0.5,-109 -0.5,-109 -0.5,-97 -0.5,-97 -0.5,-91 5.5,-85 11.5,-85"/>
<text text-anchor="start" x="7.5" y="-101.1" font-family="FreeSans" font-size="8.00" fill="#1c2021">Node[183]name = &#39;Romeo&#39;</text>
</g>
<!-- N183&#45;&gt;N182 -->
<g id="edge1" class="edge"><title>N183&#45;&gt;N182</title>
<path fill="none" stroke="#2e3436" stroke-width="2" d="M56,-84.6099C56,-73.0081 56,-57.5802 56,-44.7099"/>
<polygon fill="#2e3436" stroke="#2e3436" stroke-width="2" points="56,-37.0838 59.3751,-44.5838 56.5,-40.8338 56.5001,-44.5838 56.0001,-44.5838 55.5001,-44.5838 55.5,-40.8338 52.6251,-44.5839 56,-37.0838 56,-37.0838"/>
<text text-anchor="middle" x="70" y="-59.1" font-family="FreeSans" font-size="8.00" fill="#2e3436">LOVES</text>
</g>
</g>
</svg>
