<?xml version="1.0" encoding="UTF-8" standalone="no"?>
<!DOCTYPE svg PUBLIC "-//W3C//DTD SVG 1.1//EN"
 "http://www.w3.org/Graphics/SVG/1.1/DTD/svg11.dtd">
<!-- Generated by graphviz version 2.36.0 (20140111.2315)
 -->
<!-- Title: g Pages: 1 -->
<svg width="320pt" height="130pt"
 viewBox="0.00 0.00 320.00 130.00" xmlns="http://www.w3.org/2000/svg" xmlns:xlink="http://www.w3.org/1999/xlink">
<g id="graph0" class="graph" transform="scale(1 1) rotate(0) translate(4 126)">
<title>g</title>
<polygon fill="white" stroke="none" points="-4,4 -4,-126 316,-126 316,4 -4,4"/>
<!-- N227 -->
<g id="node1" class="node"><title>N227</title>
<path fill="#ffffff" stroke="#2e3436" stroke-width="1.5" d="M12,-1C12,-1 92,-1 92,-1 98,-1 104,-7 104,-13 104,-13 104,-25 104,-25 104,-31 98,-37 92,-37 92,-37 12,-37 12,-37 6,-37 0,-31 0,-25 0,-25 0,-13 0,-13 0,-7 6,-1 12,-1"/>
<text text-anchor="start" x="8" y="-17.1" font-family="FreeSans" font-size="8.00" fill="#1c2021">Node[227]name = &#39;John&#39;</text>
</g>
<!-- N228 -->
<g id="node2" class="node"><title>N228</title>
<path fill="#ffffff" stroke="#2e3436" stroke-width="1.5" d="M23.5,-85C23.5,-85 80.5,-85 80.5,-85 86.5,-85 92.5,-91 92.5,-97 92.5,-97 92.5,-109 92.5,-109 92.5,-115 86.5,-121 80.5,-121 80.5,-121 23.5,-121 23.5,-121 17.5,-121 11.5,-115 11.5,-109 11.5,-109 11.5,-97 11.5,-97 11.5,-91 17.5,-85 23.5,-85"/>
<text text-anchor="start" x="19.5" y="-101.1" font-family="FreeSans" font-size="8.00" fill="#1c2021">Node[228]age = 1</text>
</g>
<!-- N228&#45;&gt;N227 -->
<g id="edge1" class="edge"><title>N228&#45;&gt;N227</title>
<path fill="none" stroke="#2e3436" stroke-width="2" d="M52,-84.6099C52,-73.0081 52,-57.5802 52,-44.7099"/>
<polygon fill="#2e3436" stroke="#2e3436" stroke-width="2" points="52,-37.0838 55.3751,-44.5838 52.5,-40.8338 52.5001,-44.5838 52.0001,-44.5838 51.5001,-44.5838 51.5,-40.8338 48.6251,-44.5839 52,-37.0838 52,-37.0838"/>
<text text-anchor="middle" x="64" y="-59.1" font-family="FreeSans" font-size="8.00" fill="#2e3436">knows</text>
</g>
<!-- N229 -->
<g id="node3" class="node"><title>N229</title>
<path fill="#ffffff" stroke="#2e3436" stroke-width="1.5" d="M133.5,-85C133.5,-85 190.5,-85 190.5,-85 196.5,-85 202.5,-91 202.5,-97 202.5,-97 202.5,-109 202.5,-109 202.5,-115 196.5,-121 190.5,-121 190.5,-121 133.5,-121 133.5,-121 127.5,-121 121.5,-115 121.5,-109 121.5,-109 121.5,-97 121.5,-97 121.5,-91 127.5,-85 133.5,-85"/>
<text text-anchor="start" x="129.5" y="-101.1" font-family="FreeSans" font-size="8.00" fill="#1c2021">Node[229]age = 1</text>
</g>
<!-- N230 -->
<g id="node4" class="node"><title>N230</title>
<path fill="#ffffff" stroke="#2e3436" stroke-width="1.5" d="M243.5,-85C243.5,-85 300.5,-85 300.5,-85 306.5,-85 312.5,-91 312.5,-97 312.5,-97 312.5,-109 312.5,-109 312.5,-115 306.5,-121 300.5,-121 300.5,-121 243.5,-121 243.5,-121 237.5,-121 231.5,-115 231.5,-109 231.5,-109 231.5,-97 231.5,-97 231.5,-91 237.5,-85 243.5,-85"/>
<text text-anchor="start" x="239.5" y="-101.1" font-family="FreeSans" font-size="8.00" fill="#1c2021">Node[230]age = 1</text>
</g>
</g>
</svg>
