<?xml version="1.0" encoding="UTF-8" standalone="no"?>
<!DOCTYPE svg PUBLIC "-//W3C//DTD SVG 1.1//EN"
 "http://www.w3.org/Graphics/SVG/1.1/DTD/svg11.dtd">
<!-- Generated by graphviz version 2.36.0 (20140111.2315)
 -->
<!-- Title: g Pages: 1 -->
<svg width="254pt" height="46pt"
 viewBox="0.00 0.00 254.00 46.00" xmlns="http://www.w3.org/2000/svg" xmlns:xlink="http://www.w3.org/1999/xlink">
<g id="graph0" class="graph" transform="scale(1 1) rotate(0) translate(4 42)">
<title>g</title>
<polygon fill="white" stroke="none" points="-4,4 -4,-42 250,-42 250,4 -4,4"/>
<!-- N180 -->
<g id="node1" class="node"><title>N180</title>
<path fill="#ffffff" stroke="#2e3436" stroke-width="1.5" d="M11.5,-1C11.5,-1 92.5,-1 92.5,-1 98.5,-1 104.5,-7 104.5,-13 104.5,-13 104.5,-25 104.5,-25 104.5,-31 98.5,-37 92.5,-37 92.5,-37 11.5,-37 11.5,-37 5.5,-37 -0.5,-31 -0.5,-25 -0.5,-25 -0.5,-13 -0.5,-13 -0.5,-7 5.5,-1 11.5,-1"/>
<text text-anchor="start" x="7.5" y="-17.1" font-family="FreeSans" font-size="8.00" fill="#1c2021">Node[180]name = &#39;Juliet&#39;</text>
</g>
<!-- N181 -->
<g id="node2" class="node"><title>N181</title>
<path fill="#ffffff" stroke="#2e3436" stroke-width="1.5" d="M145.5,-1C145.5,-1 234.5,-1 234.5,-1 240.5,-1 246.5,-7 246.5,-13 246.5,-13 246.5,-25 246.5,-25 246.5,-31 240.5,-37 234.5,-37 234.5,-37 145.5,-37 145.5,-37 139.5,-37 133.5,-31 133.5,-25 133.5,-25 133.5,-13 133.5,-13 133.5,-7 139.5,-1 145.5,-1"/>
<text text-anchor="start" x="141.5" y="-17.1" font-family="FreeSans" font-size="8.00" fill="#1c2021">Node[181]name = &#39;Romeo&#39;</text>
</g>
</g>
</svg>
