<?xml version="1.0" encoding="UTF-8" standalone="no"?>
<!DOCTYPE svg PUBLIC "-//W3C//DTD SVG 1.1//EN"
 "http://www.w3.org/Graphics/SVG/1.1/DTD/svg11.dtd">
<!-- Generated by graphviz version 2.36.0 (20140111.2315)
 -->
<!-- Title: g Pages: 1 -->
<svg width="63pt" height="130pt"
 viewBox="0.00 0.00 63.00 130.00" xmlns="http://www.w3.org/2000/svg" xmlns:xlink="http://www.w3.org/1999/xlink">
<g id="graph0" class="graph" transform="scale(1 1) rotate(0) translate(4 126)">
<title>g</title>
<polygon fill="white" stroke="none" points="-4,4 -4,-126 59,-126 59,4 -4,4"/>
<!-- N33 -->
<g id="node1" class="node"><title>N33</title>
<path fill="#ffffff" stroke="#2e3436" stroke-width="1.5" d="M12,-85C12,-85 42,-85 42,-85 48,-85 54,-91 54,-97 54,-97 54,-109 54,-109 54,-115 48,-121 42,-121 42,-121 12,-121 12,-121 6,-121 0,-115 0,-109 0,-109 0,-97 0,-97 0,-91 6,-85 12,-85"/>
<text text-anchor="middle" x="27" y="-101.1" font-family="FreeSans" font-size="8.00" fill="#1c2021">Node[33]</text>
</g>
<!-- N34 -->
<g id="node2" class="node"><title>N34</title>
<path fill="#ffffff" stroke="#2e3436" stroke-width="1.5" d="M12,-1C12,-1 42,-1 42,-1 48,-1 54,-7 54,-13 54,-13 54,-25 54,-25 54,-31 48,-37 42,-37 42,-37 12,-37 12,-37 6,-37 0,-31 0,-25 0,-25 0,-13 0,-13 0,-7 6,-1 12,-1"/>
<text text-anchor="middle" x="27" y="-17.1" font-family="FreeSans" font-size="8.00" fill="#1c2021">Node[34]</text>
</g>
<!-- N33&#45;&gt;N34 -->
<g id="edge1" class="edge"><title>N33&#45;&gt;N34</title>
<path fill="none" stroke="#2e3436" stroke-width="2" d="M27,-84.6099C27,-73.0081 27,-57.5802 27,-44.7099"/>
<polygon fill="#2e3436" stroke="#2e3436" stroke-width="2" points="27,-37.0838 30.3751,-44.5838 27.5,-40.8338 27.5001,-44.5838 27.0001,-44.5838 26.5001,-44.5838 26.5,-40.8338 23.6251,-44.5839 27,-37.0838 27,-37.0838"/>
<text text-anchor="middle" x="41" y="-59.1" font-family="FreeSans" font-size="8.00" fill="#2e3436">LOVES</text>
</g>
</g>
</svg>
