<?xml version="1.0" encoding="UTF-8" standalone="no"?>
<!DOCTYPE svg PUBLIC "-//W3C//DTD SVG 1.1//EN"
 "http://www.w3.org/Graphics/SVG/1.1/DTD/svg11.dtd">
<!-- Generated by graphviz version 2.36.0 (20140111.2315)
 -->
<!-- Title: g Pages: 1 -->
<svg width="96pt" height="128pt"
 viewBox="0.00 0.00 96.00 128.00" xmlns="http://www.w3.org/2000/svg" xmlns:xlink="http://www.w3.org/1999/xlink">
<g id="graph0" class="graph" transform="scale(1 1) rotate(0) translate(4 124)">
<title>g</title>
<polygon fill="white" stroke="none" points="-4,4 -4,-124 92,-124 92,4 -4,4"/>
<!-- Node 1 -->
<g id="node1" class="node"><title>Node 1</title>
<path fill="#ffffff" stroke="#2e3436" stroke-width="1.5" d="M42,-120C42,-120 12,-120 12,-120 6,-120 0,-114 0,-108 0,-108 0,-96 0,-96 0,-90 6,-84 12,-84 12,-84 42,-84 42,-84 48,-84 54,-90 54,-96 54,-96 54,-108 54,-108 54,-114 48,-120 42,-120"/>
<text text-anchor="middle" x="27" y="-99.5" font-family="FreeSans" font-size="10.00" fill="#1c2021">Node 1</text>
</g>
<!-- Node 2 -->
<g id="node2" class="node"><title>Node 2</title>
<path fill="#ffffff" stroke="#2e3436" stroke-width="1.5" d="M42,-36C42,-36 12,-36 12,-36 6,-36 0,-30 0,-24 0,-24 0,-12 0,-12 0,-6 6,-0 12,-0 12,-0 42,-0 42,-0 48,-0 54,-6 54,-12 54,-12 54,-24 54,-24 54,-30 48,-36 42,-36"/>
<text text-anchor="middle" x="27" y="-15.5" font-family="FreeSans" font-size="10.00" fill="#1c2021">Node 2</text>
</g>
<!-- Node 1&#45;&gt;Node 2 -->
<g id="edge1" class="edge"><title>Node 1&#45;&gt;Node 2</title>
<path fill="none" stroke="#2e3436" stroke-width="2" d="M27,-83.6099C27,-72.0081 27,-56.5802 27,-43.7099"/>
<polygon fill="#2e3436" stroke="#2e3436" stroke-width="2" points="27,-36.0838 30.3751,-43.5838 27.5,-39.8338 27.5001,-43.5838 27.0001,-43.5838 26.5001,-43.5838 26.5,-39.8338 23.6251,-43.5839 27,-36.0838 27,-36.0838"/>
<text text-anchor="middle" x="57.5" y="-57.5" font-family="FreeSans" font-size="10.00" fill="#1c2021">Relationship 1</text>
</g>
</g>
</svg>
