<?xml version="1.0" encoding="UTF-8" standalone="no"?>
<!DOCTYPE svg PUBLIC "-//W3C//DTD SVG 1.1//EN"
 "http://www.w3.org/Graphics/SVG/1.1/DTD/svg11.dtd">
<!-- Generated by graphviz version 2.36.0 (20140111.2315)
 -->
<!-- Title: g Pages: 1 -->
<svg width="168pt" height="212pt"
 viewBox="0.00 0.00 168.00 212.00" xmlns="http://www.w3.org/2000/svg" xmlns:xlink="http://www.w3.org/1999/xlink">
<g id="graph0" class="graph" transform="scale(1 1) rotate(0) translate(4 208)">
<title>g</title>
<polygon fill="white" stroke="none" points="-4,4 -4,-208 164,-208 164,4 -4,4"/>
<!-- Maja -->
<g id="node1" class="node"><title>Maja</title>
<path fill="#ffffff" stroke="#2e3436" stroke-width="1.5" d="M42,-204C42,-204 12,-204 12,-204 6,-204 0,-198 0,-192 0,-192 0,-180 0,-180 0,-174 6,-168 12,-168 12,-168 42,-168 42,-168 48,-168 54,-174 54,-180 54,-180 54,-192 54,-192 54,-198 48,-204 42,-204"/>
<text text-anchor="middle" x="27" y="-183.5" font-family="FreeSans" font-size="10.00" fill="#1c2021">Maja</text>
</g>
<!-- Oscar -->
<g id="node2" class="node"><title>Oscar</title>
<path fill="#ffffff" stroke="#2e3436" stroke-width="1.5" d="M84,-120C84,-120 54,-120 54,-120 48,-120 42,-114 42,-108 42,-108 42,-96 42,-96 42,-90 48,-84 54,-84 54,-84 84,-84 84,-84 90,-84 96,-90 96,-96 96,-96 96,-108 96,-108 96,-114 90,-120 84,-120"/>
<text text-anchor="middle" x="69" y="-99.5" font-family="FreeSans" font-size="10.00" fill="#1c2021">Oscar</text>
</g>
<!-- Maja&#45;&gt;Oscar -->
<g id="edge1" class="edge"><title>Maja&#45;&gt;Oscar</title>
<path fill="none" stroke="#2e3436" stroke-width="2" d="M9.4206,-167.722C2.41842,-158.701 -2.76216,-147.578 3,-138 10.0423,-126.294 22.4622,-118.296 34.6425,-112.936"/>
<polygon fill="#2e3436" stroke="#2e3436" stroke-width="2" points="41.7439,-110.077 36.0471,-116.009 38.452,-111.941 34.9734,-113.342 34.7866,-112.878 34.5999,-112.414 38.0785,-111.014 33.5261,-109.747 41.7439,-110.077 41.7439,-110.077"/>
<text text-anchor="middle" x="18" y="-141.5" font-family="FreeSans" font-size="10.00" fill="#1c2021">follows</text>
</g>
<!-- Oscar&#45;&gt;Maja -->
<g id="edge2" class="edge"><title>Oscar&#45;&gt;Maja</title>
<path fill="none" stroke="#2e3436" stroke-width="2" d="M60.2497,-120.084C54.2307,-131.835 46.1474,-147.617 39.4581,-160.677"/>
<polygon fill="#2e3436" stroke="#2e3436" stroke-width="2" points="35.9071,-167.61 36.3223,-159.396 37.1717,-164.044 38.8812,-160.707 39.3262,-160.935 39.7713,-161.163 38.0617,-164.5 42.3301,-162.473 35.9071,-167.61 35.9071,-167.61"/>
<text text-anchor="middle" x="65" y="-141.5" font-family="FreeSans" font-size="10.00" fill="#1c2021">follows</text>
</g>
<!-- William -->
<g id="node4" class="node"><title>William</title>
<path fill="#ffffff" stroke="#2e3436" stroke-width="1.5" d="M84,-36C84,-36 54,-36 54,-36 48,-36 42,-30 42,-24 42,-24 42,-12 42,-12 42,-6 48,-0 54,-0 54,-0 84,-0 84,-0 90,-0 96,-6 96,-12 96,-12 96,-24 96,-24 96,-30 90,-36 84,-36"/>
<text text-anchor="middle" x="69" y="-15.5" font-family="FreeSans" font-size="10.00" fill="#1c2021">William</text>
</g>
<!-- Oscar&#45;&gt;William -->
<g id="edge4" class="edge"><title>Oscar&#45;&gt;William</title>
<path fill="none" stroke="#a40000" stroke-width="2" d="M69,-83.6099C69,-72.0081 69,-56.5802 69,-43.7099"/>
<polygon fill="#a40000" stroke="#a40000" stroke-width="2" points="69,-36.0838 72.3751,-43.5838 69.5,-39.8338 69.5001,-43.5838 69.0001,-43.5838 68.5001,-43.5838 68.5,-39.8338 65.6251,-43.5839 69,-36.0838 69,-36.0838"/>
<text text-anchor="middle" x="83" y="-57.5" font-family="FreeSans" font-size="10.00" fill="#a40000">blocks</text>
</g>
<!-- Alice -->
<g id="node3" class="node"><title>Alice</title>
<path fill="#ffffff" stroke="#2e3436" stroke-width="1.5" d="M148,-204C148,-204 118,-204 118,-204 112,-204 106,-198 106,-192 106,-192 106,-180 106,-180 106,-174 112,-168 118,-168 118,-168 148,-168 148,-168 154,-168 160,-174 160,-180 160,-180 160,-192 160,-192 160,-198 154,-204 148,-204"/>
<text text-anchor="middle" x="133" y="-183.5" font-family="FreeSans" font-size="10.00" fill="#1c2021">Alice</text>
</g>
<!-- Alice&#45;&gt;Oscar -->
<g id="edge3" class="edge"><title>Alice&#45;&gt;Oscar</title>
<path fill="none" stroke="#2e3436" stroke-width="2" d="M119.427,-167.61C110.03,-155.57 97.4179,-139.41 87.1574,-126.264"/>
<polygon fill="#2e3436" stroke="#2e3436" stroke-width="2" points="82.3337,-120.084 89.6089,-123.92 85.0352,-122.732 87.3425,-125.689 86.9483,-125.996 86.5541,-126.304 84.2469,-123.348 84.2877,-128.073 82.3337,-120.084 82.3337,-120.084"/>
<text text-anchor="middle" x="119" y="-141.5" font-family="FreeSans" font-size="10.00" fill="#1c2021">follows</text>
</g>
</g>
</svg>
