<?xml version="1.0" encoding="UTF-8" standalone="no"?>
<!DOCTYPE svg PUBLIC "-//W3C//DTD SVG 1.1//EN"
 "http://www.w3.org/Graphics/SVG/1.1/DTD/svg11.dtd">
<!-- Generated by graphviz version 2.36.0 (20140111.2315)
 -->
<!-- Title: g Pages: 1 -->
<svg width="354pt" height="320pt"
 viewBox="0.00 0.00 354.00 320.00" xmlns="http://www.w3.org/2000/svg" xmlns:xlink="http://www.w3.org/1999/xlink">
<g id="graph0" class="graph" transform="scale(1 1) rotate(0) translate(4 316)">
<title>g</title>
<polygon fill="white" stroke="none" points="-4,4 -4,-316 350,-316 350,4 -4,4"/>
<!-- Traversal -->
<g id="node1" class="node"><title>Traversal</title>
<path fill="#a8e270" stroke="#2e3436" stroke-width="1.5" d="M259.5,-312C259.5,-312 228.5,-312 228.5,-312 222.5,-312 216.5,-306 216.5,-300 216.5,-300 216.5,-288 216.5,-288 216.5,-282 222.5,-276 228.5,-276 228.5,-276 259.5,-276 259.5,-276 265.5,-276 271.5,-282 271.5,-288 271.5,-288 271.5,-300 271.5,-300 271.5,-306 265.5,-312 259.5,-312"/>
<text text-anchor="middle" x="244" y="-291.5" font-family="FreeSans" font-size="10.00" fill="#1c2021">Traversal</text>
</g>
<!-- Graph -->
<g id="node2" class="node"><title>Graph</title>
<path fill="#95bbe3" stroke="#2e3436" stroke-width="1.5" d="M150,-228C150,-228 120,-228 120,-228 114,-228 108,-222 108,-216 108,-216 108,-204 108,-204 108,-198 114,-192 120,-192 120,-192 150,-192 150,-192 156,-192 162,-198 162,-204 162,-204 162,-216 162,-216 162,-222 156,-228 150,-228"/>
<text text-anchor="middle" x="135" y="-207.5" font-family="FreeSans" font-size="10.00" fill="#1c2021">Graph</text>
</g>
<!-- Traversal&#45;&gt;Graph -->
<g id="edge4" class="edge"><title>Traversal&#45;&gt;Graph</title>
<path fill="none" stroke="#a40000" stroke-width="2" d="M216.283,-284.58C200.628,-278.856 181.378,-270.106 167,-258 159.449,-251.642 152.914,-243.079 147.754,-235.005"/>
<polygon fill="#a40000" stroke="#a40000" stroke-width="2" points="143.751,-228.396 150.523,-233.062 146.121,-231.345 148.064,-234.552 147.637,-234.811 147.209,-235.07 145.266,-231.863 144.75,-236.56 143.751,-228.396 143.751,-228.396"/>
<text text-anchor="middle" x="187.5" y="-249.5" font-family="FreeSans" font-size="10.00" fill="#a40000">navigates</text>
</g>
<!-- Paths -->
<g id="node3" class="node"><title>Paths</title>
<path fill="#95bbe3" stroke="#2e3436" stroke-width="1.5" d="M265,-174C265,-174 235,-174 235,-174 229,-174 223,-168 223,-162 223,-162 223,-150 223,-150 223,-144 229,-138 235,-138 235,-138 265,-138 265,-138 271,-138 277,-144 277,-150 277,-150 277,-162 277,-162 277,-168 271,-174 265,-174"/>
<text text-anchor="middle" x="250" y="-153.5" font-family="FreeSans" font-size="10.00" fill="#1c2021">Paths</text>
</g>
<!-- Traversal&#45;&gt;Paths -->
<g id="edge5" class="edge"><title>Traversal&#45;&gt;Paths</title>
<path fill="none" stroke="#a40000" stroke-width="2" d="M241.072,-275.962C240.225,-270.269 239.418,-263.878 239,-258 237.146,-231.906 241.132,-202.147 244.814,-181.728"/>
<polygon fill="#a40000" stroke="#a40000" stroke-width="2" points="246.25,-174.121 248.175,-182.116 246.045,-177.898 245.35,-181.583 244.859,-181.491 244.367,-181.398 245.063,-177.713 241.542,-180.865 246.25,-174.121 246.25,-174.121"/>
<text text-anchor="middle" x="258" y="-249.5" font-family="FreeSans" font-size="10.00" fill="#a40000">identifies</text>
</g>
<!-- Algorithm -->
<g id="node4" class="node"><title>Algorithm</title>
<path fill="#95bbe3" stroke="#2e3436" stroke-width="1.5" d="M333.5,-228C333.5,-228 300.5,-228 300.5,-228 294.5,-228 288.5,-222 288.5,-216 288.5,-216 288.5,-204 288.5,-204 288.5,-198 294.5,-192 300.5,-192 300.5,-192 333.5,-192 333.5,-192 339.5,-192 345.5,-198 345.5,-204 345.5,-204 345.5,-216 345.5,-216 345.5,-222 339.5,-228 333.5,-228"/>
<text text-anchor="middle" x="317" y="-207.5" font-family="FreeSans" font-size="10.00" fill="#1c2021">Algorithm</text>
</g>
<!-- Traversal&#45;&gt;Algorithm -->
<g id="edge6" class="edge"><title>Traversal&#45;&gt;Algorithm</title>
<path fill="none" stroke="#a40000" stroke-width="2" d="M265.643,-275.728C271.857,-270.337 278.449,-264.177 284,-258 290.456,-250.816 296.751,-242.339 302.083,-234.576"/>
<polygon fill="#a40000" stroke="#a40000" stroke-width="2" points="306.318,-228.267 304.94,-236.375 304.643,-231.659 302.553,-234.773 302.138,-234.494 301.723,-234.215 303.813,-231.102 299.336,-232.613 306.318,-228.267 306.318,-228.267"/>
<text text-anchor="middle" x="314.5" y="-249.5" font-family="FreeSans" font-size="10.00" fill="#a40000">expresses</text>
</g>
<!-- Relationships -->
<g id="node5" class="node"><title>Relationships</title>
<path fill="#fadcad" stroke="#2e3436" stroke-width="1.5" d="M62,-120C62,-120 12,-120 12,-120 6,-120 0,-114 0,-108 0,-108 0,-96 0,-96 0,-90 6,-84 12,-84 12,-84 62,-84 62,-84 68,-84 74,-90 74,-96 74,-96 74,-108 74,-108 74,-114 68,-120 62,-120"/>
<text text-anchor="middle" x="37" y="-99.5" font-family="FreeSans" font-size="10.00" fill="#1c2021">Relationships</text>
</g>
<!-- Graph&#45;&gt;Relationships -->
<g id="edge3" class="edge"><title>Graph&#45;&gt;Relationships</title>
<path fill="none" stroke="#2e3436" stroke-width="2" d="M107.608,-205.453C87.6449,-201.363 61.6299,-192.615 47,-174 36.8756,-161.118 34.5187,-142.713 34.6184,-127.87"/>
<polygon fill="#2e3436" stroke="#2e3436" stroke-width="2" points="34.8927,-120.048 38.0027,-127.662 35.2609,-123.813 35.1294,-127.561 34.6297,-127.544 34.13,-127.526 34.2615,-123.778 31.2568,-127.425 34.8927,-120.048 34.8927,-120.048"/>
<text text-anchor="middle" x="78.5" y="-153.5" font-family="FreeSans" font-size="10.00" fill="#1c2021">records data in</text>
</g>
<!-- Nodes -->
<g id="node6" class="node"><title>Nodes</title>
<path fill="#fadcad" stroke="#2e3436" stroke-width="1.5" d="M207,-36C207,-36 177,-36 177,-36 171,-36 165,-30 165,-24 165,-24 165,-12 165,-12 165,-6 171,-0 177,-0 177,-0 207,-0 207,-0 213,-0 219,-6 219,-12 219,-12 219,-24 219,-24 219,-30 213,-36 207,-36"/>
<text text-anchor="middle" x="192" y="-15.5" font-family="FreeSans" font-size="10.00" fill="#1c2021">Nodes</text>
</g>
<!-- Graph&#45;&gt;Nodes -->
<g id="edge2" class="edge"><title>Graph&#45;&gt;Nodes</title>
<path fill="none" stroke="#2e3436" stroke-width="2" d="M134.42,-191.85C134.137,-167.218 135.671,-120.745 149,-84 154.411,-69.0824 163.89,-54.1908 172.572,-42.4323"/>
<polygon fill="#2e3436" stroke="#2e3436" stroke-width="2" points="177.284,-36.2419 175.427,-44.2541 175.41,-39.5288 173.139,-42.513 172.741,-42.2102 172.344,-41.9074 174.615,-38.9232 170.056,-40.1662 177.284,-36.2419 177.284,-36.2419"/>
<text text-anchor="middle" x="180.5" y="-99.5" font-family="FreeSans" font-size="10.00" fill="#1c2021">records data in</text>
</g>
<!-- Paths&#45;&gt;Nodes -->
<g id="edge7" class="edge"><title>Paths&#45;&gt;Nodes</title>
<path fill="none" stroke="#2e3436" stroke-width="2" d="M242.654,-137.776C232.456,-113.863 213.959,-70.4894 202.361,-43.2959"/>
<polygon fill="#2e3436" stroke="#2e3436" stroke-width="2" points="199.286,-36.0846 205.333,-41.6595 201.217,-39.3379 202.688,-42.7873 202.228,-42.9835 201.768,-43.1796 200.297,-39.7302 199.124,-44.3075 199.286,-36.0846 199.286,-36.0846"/>
<text text-anchor="middle" x="245" y="-99.5" font-family="FreeSans" font-size="10.00" fill="#1c2021">order</text>
</g>
<!-- Relationships&#45;&gt;Nodes -->
<g id="edge1" class="edge"><title>Relationships&#45;&gt;Nodes</title>
<path fill="none" stroke="#2e3436" stroke-width="2" d="M46.5724,-83.5466C52.8728,-73.5642 61.9842,-61.5623 73,-54 98.2604,-36.6588 132.201,-27.7822 157.37,-23.3178"/>
<polygon fill="#2e3436" stroke="#2e3436" stroke-width="2" points="164.88,-22.0694 158.035,-26.6286 161.263,-23.1776 157.564,-23.7925 157.482,-23.2993 157.4,-22.8061 161.099,-22.1911 156.928,-19.97 164.88,-22.0694 164.88,-22.0694"/>
<text text-anchor="middle" x="91.5" y="-57.5" font-family="FreeSans" font-size="10.00" fill="#1c2021">organize</text>
</g>
</g>
</svg>
