<?xml version="1.0" encoding="UTF-8" standalone="no"?>
<!DOCTYPE svg PUBLIC "-//W3C//DTD SVG 1.1//EN"
 "http://www.w3.org/Graphics/SVG/1.1/DTD/svg11.dtd">
<!-- Generated by graphviz version 2.38.0 (20140413.2041)
 -->
<!-- Title: g Pages: 1 -->
<svg width="504pt" height="246pt"
 viewBox="0.00 0.00 504.00 245.58" xmlns="http://www.w3.org/2000/svg" xmlns:xlink="http://www.w3.org/1999/xlink">
<g id="graph0" class="graph" transform="scale(0.713881 0.713881) rotate(0) translate(4 340)">
<title>g</title>
<polygon fill="white" stroke="none" points="-4,4 -4,-340 702,-340 702,4 -4,4"/>
<!-- Traversal Description -->
<g id="node1" class="node"><title>Traversal Description</title>
<path fill="#a8e270" stroke="#2e3436" stroke-width="1.5" d="M404,-202C404,-202 322,-202 322,-202 316,-202 310,-196 310,-190 310,-190 310,-178 310,-178 310,-172 316,-166 322,-166 322,-166 404,-166 404,-166 410,-166 416,-172 416,-178 416,-178 416,-190 416,-190 416,-196 410,-202 404,-202"/>
<text text-anchor="middle" x="363" y="-181.5" font-family="FreeSans" font-size="10.00" fill="#1c2021">Traversal Description</text>
</g>
<!-- Traverser -->
<g id="node16" class="node"><title>Traverser</title>
<path fill="#95bbe3" stroke="#2e3436" stroke-width="1.5" d="M379,-119C379,-119 347,-119 347,-119 341,-119 335,-113 335,-107 335,-107 335,-95 335,-95 335,-89 341,-83 347,-83 347,-83 379,-83 379,-83 385,-83 391,-89 391,-95 391,-95 391,-107 391,-107 391,-113 385,-119 379,-119"/>
<text text-anchor="middle" x="363" y="-98.5" font-family="FreeSans" font-size="10.00" fill="#1c2021">Traverser</text>
</g>
<!-- Traversal Description&#45;&gt;Traverser -->
<g id="edge15" class="edge"><title>Traversal Description&#45;&gt;Traverser</title>
<path fill="none" stroke="#2e3436" stroke-width="2" d="M363,-158.308C363,-145.643 363,-130.531 363,-119.153"/>
<polygon fill="#2e3436" stroke="#2e3436" stroke-width="2" points="363,-165.822 359.625,-158.322 362.5,-162.072 362.5,-158.322 363,-158.322 363.5,-158.322 363.5,-162.072 366.375,-158.322 363,-165.822 363,-165.822"/>
<text text-anchor="middle" x="378.5" y="-140" font-family="FreeSans" font-size="10.00" fill="#1c2021">applies</text>
</g>
<!-- Uniqueness -->
<g id="node2" class="node"><title>Uniqueness</title>
<path fill="#fadcad" stroke="#2e3436" stroke-width="1.5" d="M435,-285C435,-285 393,-285 393,-285 387,-285 381,-279 381,-273 381,-273 381,-261 381,-261 381,-255 387,-249 393,-249 393,-249 435,-249 435,-249 441,-249 447,-255 447,-261 447,-261 447,-273 447,-273 447,-279 441,-285 435,-285"/>
<text text-anchor="middle" x="414" y="-264.5" font-family="FreeSans" font-size="10.00" fill="#1c2021">Uniqueness</text>
</g>
<!-- Uniqueness&#45;&gt;Traversal Description -->
<g id="edge1" class="edge"><title>Uniqueness&#45;&gt;Traversal Description</title>
<path fill="none" stroke="#2e3436" stroke-width="2" d="M403.184,-248.822C395.814,-237.116 385.961,-221.468 377.857,-208.596"/>
<polygon fill="#2e3436" stroke="#2e3436" stroke-width="2" points="373.8,-202.153 380.652,-206.702 376.221,-205.06 378.219,-208.234 377.796,-208.5 377.373,-208.766 375.375,-205.593 374.94,-210.298 373.8,-202.153 373.8,-202.153"/>
<text text-anchor="middle" x="426.5" y="-223" font-family="FreeSans" font-size="10.00" fill="#1c2021">avoid duplicates</text>
</g>
<!-- Evaluator -->
<g id="node3" class="node"><title>Evaluator</title>
<path fill="#fadcad" stroke="#2e3436" stroke-width="1.5" d="M228,-285C228,-285 196,-285 196,-285 190,-285 184,-279 184,-273 184,-273 184,-261 184,-261 184,-255 190,-249 196,-249 196,-249 228,-249 228,-249 234,-249 240,-255 240,-261 240,-261 240,-273 240,-273 240,-279 234,-285 228,-285"/>
<text text-anchor="middle" x="212" y="-264.5" font-family="FreeSans" font-size="10.00" fill="#1c2021">Evaluator</text>
</g>
<!-- Evaluator&#45;&gt;Traversal Description -->
<g id="edge2" class="edge"><title>Evaluator&#45;&gt;Traversal Description</title>
<path fill="none" stroke="#2e3436" stroke-width="2" d="M235.662,-248.97C248.937,-239.798 266.001,-228.629 282,-220 291.64,-214.801 302.214,-209.775 312.448,-205.232"/>
<polygon fill="#2e3436" stroke="#2e3436" stroke-width="2" points="319.463,-202.168 313.941,-208.263 316.227,-204.127 312.79,-205.629 312.59,-205.17 312.39,-204.712 315.827,-203.211 311.239,-202.077 319.463,-202.168 319.463,-202.168"/>
<text text-anchor="middle" x="330.5" y="-223" font-family="FreeSans" font-size="10.00" fill="#1c2021">return and prune policy</text>
</g>
<!-- Prune/Continue -->
<g id="node15" class="node"><title>Prune/Continue</title>
<text text-anchor="middle" x="212" y="-181.5" font-family="FreeSans" font-size="10.00" fill="#1c2021">Prune/Continue</text>
</g>
<!-- Evaluator&#45;&gt;Prune/Continue -->
<g id="edge14" class="edge"><title>Evaluator&#45;&gt;Prune/Continue</title>
<path fill="none" stroke="#2e3436" stroke-width="2" d="M212,-248.822C212,-233.901 212,-212.572 212,-198.755"/>
<polygon fill="#2e3436" stroke="#2e3436" stroke-width="2" points="212,-191.247 215.375,-198.747 212.5,-194.997 212.5,-198.747 212,-198.747 211.5,-198.747 211.5,-194.997 208.625,-198.747 212,-191.247 212,-191.247"/>
</g>
<!-- Order -->
<g id="node4" class="node"><title>Order</title>
<path fill="#fadcad" stroke="#2e3436" stroke-width="1.5" d="M126,-285C126,-285 96,-285 96,-285 90,-285 84,-279 84,-273 84,-273 84,-261 84,-261 84,-255 90,-249 96,-249 96,-249 126,-249 126,-249 132,-249 138,-255 138,-261 138,-261 138,-273 138,-273 138,-279 132,-285 126,-285"/>
<text text-anchor="middle" x="111" y="-264.5" font-family="FreeSans" font-size="10.00" fill="#1c2021">Order</text>
</g>
<!-- Order&#45;&gt;Traversal Description -->
<g id="edge3" class="edge"><title>Order&#45;&gt;Traversal Description</title>
<path fill="none" stroke="#2e3436" stroke-width="2" d="M134.871,-248.831C149.55,-239.03 169.112,-227.282 188,-220 208.591,-212.062 260.45,-202.121 302.405,-194.864"/>
<polygon fill="#2e3436" stroke="#2e3436" stroke-width="2" points="309.846,-193.587 303.025,-198.182 306.234,-194.715 302.539,-195.349 302.454,-194.856 302.369,-194.363 306.065,-193.729 301.883,-191.53 309.846,-193.587 309.846,-193.587"/>
<text text-anchor="middle" x="223" y="-223" font-family="FreeSans" font-size="10.00" fill="#1c2021">where to go next</text>
</g>
<!-- PathExpander -->
<g id="node5" class="node"><title>PathExpander</title>
<path fill="#fadcad" stroke="#2e3436" stroke-width="1.5" d="M676.5,-285C676.5,-285 623.5,-285 623.5,-285 617.5,-285 611.5,-279 611.5,-273 611.5,-273 611.5,-261 611.5,-261 611.5,-255 617.5,-249 623.5,-249 623.5,-249 676.5,-249 676.5,-249 682.5,-249 688.5,-255 688.5,-261 688.5,-261 688.5,-273 688.5,-273 688.5,-279 682.5,-285 676.5,-285"/>
<text text-anchor="middle" x="650" y="-264.5" font-family="FreeSans" font-size="10.00" fill="#1c2021">PathExpander</text>
</g>
<!-- PathExpander&#45;&gt;Traversal Description -->
<g id="edge4" class="edge"><title>PathExpander&#45;&gt;Traversal Description</title>
<path fill="none" stroke="#2e3436" stroke-width="2" d="M611.294,-255.076C563.118,-241.479 480.294,-218.104 423.657,-202.119"/>
<polygon fill="#2e3436" stroke="#2e3436" stroke-width="2" points="416.192,-200.012 424.327,-198.801 419.937,-200.55 423.546,-201.568 423.41,-202.05 423.274,-202.531 419.665,-201.512 422.493,-205.298 416.192,-200.012 416.192,-200.012"/>
<text text-anchor="middle" x="557.5" y="-223" font-family="FreeSans" font-size="10.00" fill="#1c2021">what to traverse</text>
</g>
<!-- Relationship Type -->
<g id="node8" class="node"><title>Relationship Type</title>
<text text-anchor="middle" x="650" y="-181.5" font-family="FreeSans" font-size="10.00" fill="#1c2021">Relationship Type</text>
</g>
<!-- PathExpander&#45;&gt;Relationship Type -->
<g id="edge7" class="edge"><title>PathExpander&#45;&gt;Relationship Type</title>
<path fill="none" stroke="#2e3436" stroke-width="2" d="M650,-248.822C650,-233.901 650,-212.572 650,-198.755"/>
<polygon fill="#2e3436" stroke="#2e3436" stroke-width="2" points="650,-191.247 653.375,-198.747 650.5,-194.997 650.5,-198.747 650,-198.747 649.5,-198.747 649.5,-194.997 646.625,-198.747 650,-191.247 650,-191.247"/>
</g>
<!-- Depth First -->
<g id="node6" class="node"><title>Depth First</title>
<text text-anchor="middle" x="27" y="-326.5" font-family="FreeSans" font-size="10.00" fill="#1c2021">Depth First</text>
</g>
<!-- Depth First&#45;&gt;Order -->
<g id="edge5" class="edge"><title>Depth First&#45;&gt;Order</title>
<path fill="none" stroke="#2e3436" stroke-width="2" d="M41.9759,-317.303C54.4473,-308.395 72.4441,-295.54 86.9342,-285.19"/>
<polygon fill="#2e3436" stroke="#2e3436" stroke-width="2" points="35.6731,-321.805 39.8144,-314.699 38.434,-319.218 41.4855,-317.039 41.7761,-317.446 42.0667,-317.852 39.0152,-320.032 43.7378,-320.192 35.6731,-321.805 35.6731,-321.805"/>
</g>
<!-- Breadth First -->
<g id="node7" class="node"><title>Breadth First</title>
<text text-anchor="middle" x="111" y="-326.5" font-family="FreeSans" font-size="10.00" fill="#1c2021">Breadth First</text>
</g>
<!-- Breadth First&#45;&gt;Order -->
<g id="edge6" class="edge"><title>Breadth First&#45;&gt;Order</title>
<path fill="none" stroke="#2e3436" stroke-width="2" d="M111,-313.936C111,-305.301 111,-294.183 111,-285.048"/>
<polygon fill="#2e3436" stroke="#2e3436" stroke-width="2" points="111,-321.579 107.625,-314.079 110.5,-317.829 110.5,-314.079 111,-314.079 111.5,-314.079 111.5,-317.829 114.375,-314.079 111,-321.579 111,-321.579"/>
</g>
<!-- Direction -->
<g id="node9" class="node"><title>Direction</title>
<text text-anchor="middle" x="671" y="-326.5" font-family="FreeSans" font-size="10.00" fill="#1c2021">Direction</text>
</g>
<!-- Direction&#45;&gt;PathExpander -->
<g id="edge8" class="edge"><title>Direction&#45;&gt;PathExpander</title>
<path fill="none" stroke="#2e3436" stroke-width="2" d="M666.265,-314.473C663.218,-305.765 659.231,-294.373 655.967,-285.048"/>
<polygon fill="#2e3436" stroke="#2e3436" stroke-width="2" points="668.753,-321.579 663.089,-315.615 667.042,-318.205 665.803,-314.665 666.275,-314.5 666.747,-314.335 667.986,-317.874 669.46,-313.385 668.753,-321.579 668.753,-321.579"/>
</g>
<!-- Unique Nodes -->
<g id="node10" class="node"><title>Unique Nodes</title>
<text text-anchor="middle" x="585" y="-326.5" font-family="FreeSans" font-size="10.00" fill="#1c2021">Unique Nodes</text>
</g>
<!-- Unique Nodes&#45;&gt;Uniqueness -->
<g id="edge9" class="edge"><title>Unique Nodes&#45;&gt;Uniqueness</title>
<path fill="none" stroke="#2e3436" stroke-width="2" d="M560.565,-319.426C530.808,-308.985 480.414,-291.303 447.17,-279.639"/>
<polygon fill="#2e3436" stroke="#2e3436" stroke-width="2" points="567.663,-321.917 559.468,-322.618 563.959,-321.147 560.42,-319.905 560.586,-319.433 560.751,-318.962 564.29,-320.203 561.703,-316.249 567.663,-321.917 567.663,-321.917"/>
</g>
<!-- Unique Relationships -->
<g id="node11" class="node"><title>Unique Relationships</title>
<text text-anchor="middle" x="311" y="-326.5" font-family="FreeSans" font-size="10.00" fill="#1c2021">Unique Relationships</text>
</g>
<!-- Unique Relationships&#45;&gt;Uniqueness -->
<g id="edge10" class="edge"><title>Unique Relationships&#45;&gt;Uniqueness</title>
<path fill="none" stroke="#2e3436" stroke-width="2" d="M328.521,-317.794C343.837,-308.872 366.394,-295.732 384.491,-285.19"/>
<polygon fill="#2e3436" stroke="#2e3436" stroke-width="2" points="321.635,-321.805 326.417,-315.113 324.624,-319.485 327.864,-317.598 328.115,-318.03 328.367,-318.462 325.127,-320.349 329.814,-320.946 321.635,-321.805 321.635,-321.805"/>
</g>
<!-- Unique Paths -->
<g id="node12" class="node"><title>Unique Paths</title>
<text text-anchor="middle" x="414" y="-326.5" font-family="FreeSans" font-size="10.00" fill="#1c2021">Unique Paths</text>
</g>
<!-- Unique Paths&#45;&gt;Uniqueness -->
<g id="edge11" class="edge"><title>Unique Paths&#45;&gt;Uniqueness</title>
<path fill="none" stroke="#2e3436" stroke-width="2" d="M414,-313.936C414,-305.301 414,-294.183 414,-285.048"/>
<polygon fill="#2e3436" stroke="#2e3436" stroke-width="2" points="414,-321.579 410.625,-314.079 413.5,-317.829 413.5,-314.079 414,-314.079 414.5,-314.079 414.5,-317.829 417.375,-314.079 414,-321.579 414,-321.579"/>
</g>
<!-- None -->
<g id="node13" class="node"><title>None</title>
<text text-anchor="middle" x="499" y="-326.5" font-family="FreeSans" font-size="10.00" fill="#1c2021">None</text>
</g>
<!-- None&#45;&gt;Uniqueness -->
<g id="edge12" class="edge"><title>None&#45;&gt;Uniqueness</title>
<path fill="none" stroke="#2e3436" stroke-width="2" d="M483.846,-317.303C471.226,-308.395 453.015,-295.54 438.352,-285.19"/>
<polygon fill="#2e3436" stroke="#2e3436" stroke-width="2" points="490.224,-321.805 482.15,-320.237 486.872,-320.051 483.808,-317.888 484.096,-317.48 484.385,-317.071 487.448,-319.234 486.043,-314.722 490.224,-321.805 490.224,-321.805"/>
</g>
<!-- Include/Exclude -->
<g id="node14" class="node"><title>Include/Exclude</title>
<text text-anchor="middle" x="202" y="-326.5" font-family="FreeSans" font-size="10.00" fill="#1c2021">Include/Exclude</text>
</g>
<!-- Include/Exclude&#45;&gt;Evaluator -->
<g id="edge13" class="edge"><title>Include/Exclude&#45;&gt;Evaluator</title>
<path fill="none" stroke="#2e3436" stroke-width="2" d="M204.344,-313.936C205.783,-305.301 207.636,-294.183 209.159,-285.048"/>
<polygon fill="#2e3436" stroke="#2e3436" stroke-width="2" points="203.07,-321.579 200.974,-313.626 203.194,-317.798 203.81,-314.099 204.303,-314.181 204.796,-314.263 204.18,-317.962 207.632,-314.736 203.07,-321.579 203.07,-321.579"/>
</g>
<!-- Paths -->
<g id="node18" class="node"><title>Paths</title>
<path fill="#fadcad" stroke="#2e3436" stroke-width="1.5" d="M295,-36C295,-36 265,-36 265,-36 259,-36 253,-30 253,-24 253,-24 253,-12 253,-12 253,-6 259,-0 265,-0 265,-0 295,-0 295,-0 301,-0 307,-6 307,-12 307,-12 307,-24 307,-24 307,-30 301,-36 295,-36"/>
<text text-anchor="middle" x="280" y="-15.5" font-family="FreeSans" font-size="10.00" fill="#1c2021">Paths</text>
</g>
<!-- Traverser&#45;&gt;Paths -->
<g id="edge17" class="edge"><title>Traverser&#45;&gt;Paths</title>
<path fill="none" stroke="#2e3436" stroke-width="2" d="M340.503,-82.8949C333.706,-77.4116 326.363,-71.1591 320,-65 312.752,-57.9844 305.357,-49.8164 298.928,-42.3266"/>
<polygon fill="#2e3436" stroke="#2e3436" stroke-width="2" points="293.78,-36.2348 301.199,-39.7847 296.582,-38.7763 299.003,-41.6404 298.621,-41.9632 298.239,-42.2859 295.818,-39.4217 296.043,-44.1417 293.78,-36.2348 293.78,-36.2348"/>
<text text-anchor="middle" x="338" y="-57" font-family="FreeSans" font-size="10.00" fill="#1c2021">result as</text>
</g>
<!-- Nodes -->
<g id="node19" class="node"><title>Nodes</title>
<path fill="#fadcad" stroke="#2e3436" stroke-width="1.5" d="M378,-36C378,-36 348,-36 348,-36 342,-36 336,-30 336,-24 336,-24 336,-12 336,-12 336,-6 342,-0 348,-0 348,-0 378,-0 378,-0 384,-0 390,-6 390,-12 390,-12 390,-24 390,-24 390,-30 384,-36 378,-36"/>
<text text-anchor="middle" x="363" y="-15.5" font-family="FreeSans" font-size="10.00" fill="#1c2021">Nodes</text>
</g>
<!-- Traverser&#45;&gt;Nodes -->
<g id="edge18" class="edge"><title>Traverser&#45;&gt;Nodes</title>
<path fill="none" stroke="#2e3436" stroke-width="2" d="M363,-82.822C363,-71.4386 363,-56.3263 363,-43.6649"/>
<polygon fill="#2e3436" stroke="#2e3436" stroke-width="2" points="363,-36.1533 366.375,-43.6532 363.5,-39.9032 363.5,-43.6532 363,-43.6533 362.5,-43.6533 362.5,-39.9033 359.625,-43.6533 363,-36.1533 363,-36.1533"/>
<text text-anchor="middle" x="381" y="-57" font-family="FreeSans" font-size="10.00" fill="#1c2021">result as</text>
</g>
<!-- Relationships -->
<g id="node20" class="node"><title>Relationships</title>
<path fill="#fadcad" stroke="#2e3436" stroke-width="1.5" d="M481,-36C481,-36 431,-36 431,-36 425,-36 419,-30 419,-24 419,-24 419,-12 419,-12 419,-6 425,-0 431,-0 431,-0 481,-0 481,-0 487,-0 493,-6 493,-12 493,-12 493,-24 493,-24 493,-30 487,-36 481,-36"/>
<text text-anchor="middle" x="456" y="-15.5" font-family="FreeSans" font-size="10.00" fill="#1c2021">Relationships</text>
</g>
<!-- Traverser&#45;&gt;Relationships -->
<g id="edge19" class="edge"><title>Traverser&#45;&gt;Relationships</title>
<path fill="none" stroke="#2e3436" stroke-width="2" d="M384.646,-82.8053C391.544,-77.2135 399.159,-70.9217 406,-65 414.528,-57.6181 423.662,-49.3327 431.758,-41.8487"/>
<polygon fill="#2e3436" stroke="#2e3436" stroke-width="2" points="437.721,-36.3102 434.523,-43.8874 435.313,-39.2288 432.566,-41.781 432.226,-41.4147 431.885,-41.0484 434.633,-38.4961 429.929,-38.942 437.721,-36.3102 437.721,-36.3102"/>
<text text-anchor="middle" x="436" y="-57" font-family="FreeSans" font-size="10.00" fill="#1c2021">result as</text>
</g>
<!-- A Node -->
<g id="node17" class="node"><title>A Node</title>
<path fill="#a8e270" stroke="#2e3436" stroke-width="1.5" d="M228,-119C228,-119 198,-119 198,-119 192,-119 186,-113 186,-107 186,-107 186,-95 186,-95 186,-89 192,-83 198,-83 198,-83 228,-83 228,-83 234,-83 240,-89 240,-95 240,-95 240,-107 240,-107 240,-113 234,-119 228,-119"/>
<text text-anchor="middle" x="213" y="-98.5" font-family="FreeSans" font-size="10.00" fill="#1c2021">A Node</text>
</g>
<!-- A Node&#45;&gt;Traverser -->
<g id="edge16" class="edge"><title>A Node&#45;&gt;Traverser</title>
<path fill="none" stroke="#2e3436" stroke-width="2" d="M240.164,-101C264.522,-101 300.435,-101 327.144,-101"/>
<polygon fill="#2e3436" stroke="#2e3436" stroke-width="2" points="334.765,-101 327.265,-104.375 331.015,-101.5 327.265,-101.5 327.265,-101 327.265,-100.5 331.015,-100.5 327.265,-97.6251 334.765,-101 334.765,-101"/>
<text text-anchor="middle" x="287.5" y="-107" font-family="FreeSans" font-size="10.00" fill="#1c2021">starting point of</text>
</g>
</g>
</svg>
