<?xml version="1.0" encoding="UTF-8" standalone="no"?>
<!DOCTYPE svg PUBLIC "-//W3C//DTD SVG 1.1//EN"
 "http://www.w3.org/Graphics/SVG/1.1/DTD/svg11.dtd">
<!-- Generated by graphviz version 2.36.0 (20140111.2315)
 -->
<!-- Title: g Pages: 1 -->
<svg width="247pt" height="296pt"
 viewBox="0.00 0.00 246.65 296.00" xmlns="http://www.w3.org/2000/svg" xmlns:xlink="http://www.w3.org/1999/xlink">
<g id="graph0" class="graph" transform="scale(1 1) rotate(0) translate(4 292)">
<title>g</title>
<polygon fill="white" stroke="none" points="-4,4 -4,-292 242.649,-292 242.649,4 -4,4"/>
<!-- Graph -->
<g id="node1" class="node"><title>Graph</title>
<path fill="#a8e270" stroke="#2e3436" stroke-width="1.5" d="M69.6494,-288C69.6494,-288 39.6494,-288 39.6494,-288 33.6494,-288 27.6494,-282 27.6494,-276 27.6494,-276 27.6494,-264 27.6494,-264 27.6494,-258 33.6494,-252 39.6494,-252 39.6494,-252 69.6494,-252 69.6494,-252 75.6494,-252 81.6494,-258 81.6494,-264 81.6494,-264 81.6494,-276 81.6494,-276 81.6494,-282 75.6494,-288 69.6494,-288"/>
<text text-anchor="middle" x="54.6494" y="-267.5" font-family="FreeSans" font-size="10.00" fill="#1c2021">Graph</text>
</g>
<!-- Nodes -->
<g id="node2" class="node"><title>Nodes</title>
<path fill="#fadcad" stroke="#2e3436" stroke-width="1.5" d="M111.649,-120C111.649,-120 81.6494,-120 81.6494,-120 75.6494,-120 69.6494,-114 69.6494,-108 69.6494,-108 69.6494,-96 69.6494,-96 69.6494,-90 75.6494,-84 81.6494,-84 81.6494,-84 111.649,-84 111.649,-84 117.649,-84 123.649,-90 123.649,-96 123.649,-96 123.649,-108 123.649,-108 123.649,-114 117.649,-120 111.649,-120"/>
<text text-anchor="middle" x="96.6494" y="-99.5" font-family="FreeSans" font-size="10.00" fill="#1c2021">Nodes</text>
</g>
<!-- Graph&#45;&gt;Nodes -->
<g id="edge1" class="edge"><title>Graph&#45;&gt;Nodes</title>
<path fill="none" stroke="#2e3436" stroke-width="2" d="M35.6281,-251.748C15.7902,-231.564 -10.4669,-197.188 4.64938,-168 16.7696,-144.597 41.6246,-127.821 62.4477,-117.18"/>
<polygon fill="#2e3436" stroke="#2e3436" stroke-width="2" points="69.3306,-113.806 64.0819,-120.137 66.1835,-115.905 62.8164,-117.556 62.5963,-117.107 62.3762,-116.658 65.7434,-115.007 61.1107,-114.076 69.3306,-113.806 69.3306,-113.806"/>
<text text-anchor="middle" x="36.1494" y="-183.5" font-family="FreeSans" font-size="10.00" fill="#1c2021">records data in</text>
</g>
<!-- Relationships -->
<g id="node3" class="node"><title>Relationships</title>
<path fill="#fadcad" stroke="#2e3436" stroke-width="1.5" d="M226.649,-204C226.649,-204 176.649,-204 176.649,-204 170.649,-204 164.649,-198 164.649,-192 164.649,-192 164.649,-180 164.649,-180 164.649,-174 170.649,-168 176.649,-168 176.649,-168 226.649,-168 226.649,-168 232.649,-168 238.649,-174 238.649,-180 238.649,-180 238.649,-192 238.649,-192 238.649,-198 232.649,-204 226.649,-204"/>
<text text-anchor="middle" x="201.649" y="-183.5" font-family="FreeSans" font-size="10.00" fill="#1c2021">Relationships</text>
</g>
<!-- Graph&#45;&gt;Relationships -->
<g id="edge2" class="edge"><title>Graph&#45;&gt;Relationships</title>
<path fill="none" stroke="#2e3436" stroke-width="2" d="M81.9544,-253.769C105.125,-240.844 138.596,-222.173 164.255,-207.859"/>
<polygon fill="#2e3436" stroke="#2e3436" stroke-width="2" points="170.934,-204.134 166.028,-210.735 167.903,-206.397 164.628,-208.224 164.384,-207.787 164.141,-207.351 167.416,-205.524 162.74,-204.84 170.934,-204.134 170.934,-204.134"/>
<text text-anchor="middle" x="168.149" y="-225.5" font-family="FreeSans" font-size="10.00" fill="#1c2021">records data in</text>
</g>
<!-- Properties -->
<g id="node5" class="node"><title>Properties</title>
<path fill="#fadcad" stroke="#2e3436" stroke-width="1.5" d="M191.149,-36C191.149,-36 156.149,-36 156.149,-36 150.149,-36 144.149,-30 144.149,-24 144.149,-24 144.149,-12 144.149,-12 144.149,-6 150.149,-0 156.149,-0 156.149,-0 191.149,-0 191.149,-0 197.149,-0 203.149,-6 203.149,-12 203.149,-12 203.149,-24 203.149,-24 203.149,-30 197.149,-36 191.149,-36"/>
<text text-anchor="middle" x="173.649" y="-15.5" font-family="FreeSans" font-size="10.00" fill="#1c2021">Properties</text>
</g>
<!-- Nodes&#45;&gt;Properties -->
<g id="edge5" class="edge"><title>Nodes&#45;&gt;Properties</title>
<path fill="none" stroke="#2e3436" stroke-width="2" d="M112.979,-83.6099C124.387,-71.4609 139.735,-55.1163 152.14,-41.9063"/>
<polygon fill="#2e3436" stroke="#2e3436" stroke-width="2" points="157.607,-36.0838 154.934,-43.8615 155.405,-39.1598 152.838,-41.8935 152.473,-41.5512 152.109,-41.209 154.676,-38.4753 150.013,-39.2409 157.607,-36.0838 157.607,-36.0838"/>
<text text-anchor="middle" x="150.149" y="-57.5" font-family="FreeSans" font-size="10.00" fill="#1c2021">have</text>
</g>
<!-- Relationships&#45;&gt;Nodes -->
<g id="edge3" class="edge"><title>Relationships&#45;&gt;Nodes</title>
<path fill="none" stroke="#2e3436" stroke-width="2" d="M177.514,-167.83C169.816,-162.24 161.309,-155.942 153.649,-150 143.327,-141.992 132.195,-132.916 122.532,-124.889"/>
<polygon fill="#2e3436" stroke="#2e3436" stroke-width="2" points="116.725,-120.046 124.646,-122.258 119.925,-122.064 122.805,-124.466 122.485,-124.85 122.164,-125.234 119.285,-122.832 120.323,-127.442 116.725,-120.046 116.725,-120.046"/>
<text text-anchor="middle" x="172.149" y="-141.5" font-family="FreeSans" font-size="10.00" fill="#1c2021">organize</text>
</g>
<!-- Relationships&#45;&gt;Properties -->
<g id="edge6" class="edge"><title>Relationships&#45;&gt;Properties</title>
<path fill="none" stroke="#2e3436" stroke-width="2" d="M198.758,-167.86C193.791,-138.412 183.617,-78.0916 177.861,-43.9677"/>
<polygon fill="#2e3436" stroke="#2e3436" stroke-width="2" points="176.567,-36.2951 181.142,-43.1293 177.683,-39.9097 178.307,-43.6075 177.814,-43.6907 177.321,-43.7738 176.697,-40.0761 174.486,-44.2521 176.567,-36.2951 176.567,-36.2951"/>
<text text-anchor="middle" x="200.149" y="-99.5" font-family="FreeSans" font-size="10.00" fill="#1c2021">have</text>
</g>
<!-- Labels -->
<g id="node4" class="node"><title>Labels</title>
<path fill="#fadcad" stroke="#2e3436" stroke-width="1.5" d="M123.649,-204C123.649,-204 93.6494,-204 93.6494,-204 87.6494,-204 81.6494,-198 81.6494,-192 81.6494,-192 81.6494,-180 81.6494,-180 81.6494,-174 87.6494,-168 93.6494,-168 93.6494,-168 123.649,-168 123.649,-168 129.649,-168 135.649,-174 135.649,-180 135.649,-180 135.649,-192 135.649,-192 135.649,-198 129.649,-204 123.649,-204"/>
<text text-anchor="middle" x="108.649" y="-183.5" font-family="FreeSans" font-size="10.00" fill="#1c2021">Labels</text>
</g>
<!-- Labels&#45;&gt;Nodes -->
<g id="edge4" class="edge"><title>Labels&#45;&gt;Nodes</title>
<path fill="none" stroke="#2e3436" stroke-width="2" d="M100.324,-167.948C98.0093,-162.364 95.8127,-156.041 94.6494,-150 93.2656,-142.815 93.0954,-134.902 93.4588,-127.651"/>
<polygon fill="#2e3436" stroke="#2e3436" stroke-width="2" points="94.0304,-120.109 96.8289,-127.843 94.2455,-123.886 93.9621,-127.625 93.4635,-127.588 92.965,-127.55 93.2484,-123.81 90.0982,-127.332 94.0304,-120.109 94.0304,-120.109"/>
<text text-anchor="middle" x="107.149" y="-141.5" font-family="FreeSans" font-size="10.00" fill="#1c2021">group</text>
</g>
</g>
</svg>
