<?xml version="1.0" encoding="UTF-8" standalone="no"?>
<!DOCTYPE svg PUBLIC "-//W3C//DTD SVG 1.1//EN"
 "http://www.w3.org/Graphics/SVG/1.1/DTD/svg11.dtd">
<!-- Generated by graphviz version 2.36.0 (20140111.2315)
 -->
<!-- Title: g Pages: 1 -->
<svg width="504pt" height="248pt"
 viewBox="0.00 0.00 504.00 248.43" xmlns="http://www.w3.org/2000/svg" xmlns:xlink="http://www.w3.org/1999/xlink">
<g id="graph0" class="graph" transform="scale(0.713881 0.713881) rotate(0) translate(4 344)">
<title>g</title>
<polygon fill="white" stroke="none" points="-4,4 -4,-344 702,-344 702,4 -4,4"/>
<!-- Traversal Description -->
<g id="node1" class="node"><title>Traversal Description</title>
<path fill="#a8e270" stroke="#2e3436" stroke-width="1.5" d="M403.5,-204C403.5,-204 322.5,-204 322.5,-204 316.5,-204 310.5,-198 310.5,-192 310.5,-192 310.5,-180 310.5,-180 310.5,-174 316.5,-168 322.5,-168 322.5,-168 403.5,-168 403.5,-168 409.5,-168 415.5,-174 415.5,-180 415.5,-180 415.5,-192 415.5,-192 415.5,-198 409.5,-204 403.5,-204"/>
<text text-anchor="middle" x="363" y="-183.5" font-family="FreeSans" font-size="10.00" fill="#1c2021">Traversal Description</text>
</g>
<!-- Traverser -->
<g id="node16" class="node"><title>Traverser</title>
<path fill="#95bbe3" stroke="#2e3436" stroke-width="1.5" d="M378.5,-120C378.5,-120 347.5,-120 347.5,-120 341.5,-120 335.5,-114 335.5,-108 335.5,-108 335.5,-96 335.5,-96 335.5,-90 341.5,-84 347.5,-84 347.5,-84 378.5,-84 378.5,-84 384.5,-84 390.5,-90 390.5,-96 390.5,-96 390.5,-108 390.5,-108 390.5,-114 384.5,-120 378.5,-120"/>
<text text-anchor="middle" x="363" y="-99.5" font-family="FreeSans" font-size="10.00" fill="#1c2021">Traverser</text>
</g>
<!-- Traversal Description&#45;&gt;Traverser -->
<g id="edge15" class="edge"><title>Traversal Description&#45;&gt;Traverser</title>
<path fill="none" stroke="#2e3436" stroke-width="2" d="M363,-159.949C363,-147.034 363,-131.618 363,-120.084"/>
<polygon fill="#2e3436" stroke="#2e3436" stroke-width="2" points="363,-167.61 359.625,-160.11 362.5,-163.86 362.5,-160.11 363,-160.11 363.5,-160.11 363.5,-163.86 366.375,-160.11 363,-167.61 363,-167.61"/>
<text text-anchor="middle" x="378.5" y="-141.5" font-family="FreeSans" font-size="10.00" fill="#1c2021">applies</text>
</g>
<!-- Uniqueness -->
<g id="node2" class="node"><title>Uniqueness</title>
<path fill="#fadcad" stroke="#2e3436" stroke-width="1.5" d="M435,-288C435,-288 393,-288 393,-288 387,-288 381,-282 381,-276 381,-276 381,-264 381,-264 381,-258 387,-252 393,-252 393,-252 435,-252 435,-252 441,-252 447,-258 447,-264 447,-264 447,-276 447,-276 447,-282 441,-288 435,-288"/>
<text text-anchor="middle" x="414" y="-267.5" font-family="FreeSans" font-size="10.00" fill="#1c2021">Uniqueness</text>
</g>
<!-- Uniqueness&#45;&gt;Traversal Description -->
<g id="edge1" class="edge"><title>Uniqueness&#45;&gt;Traversal Description</title>
<path fill="none" stroke="#2e3436" stroke-width="2" d="M403.184,-251.61C395.764,-239.68 385.828,-223.704 377.693,-210.623"/>
<polygon fill="#2e3436" stroke="#2e3436" stroke-width="2" points="373.625,-204.084 380.452,-208.67 376.03,-207.004 378.011,-210.188 377.586,-210.453 377.162,-210.717 375.181,-207.532 374.72,-212.235 373.625,-204.084 373.625,-204.084"/>
<text text-anchor="middle" x="426.5" y="-225.5" font-family="FreeSans" font-size="10.00" fill="#1c2021">avoid duplicates</text>
</g>
<!-- Evaluator -->
<g id="node3" class="node"><title>Evaluator</title>
<path fill="#fadcad" stroke="#2e3436" stroke-width="1.5" d="M227.5,-288C227.5,-288 196.5,-288 196.5,-288 190.5,-288 184.5,-282 184.5,-276 184.5,-276 184.5,-264 184.5,-264 184.5,-258 190.5,-252 196.5,-252 196.5,-252 227.5,-252 227.5,-252 233.5,-252 239.5,-258 239.5,-264 239.5,-264 239.5,-276 239.5,-276 239.5,-282 233.5,-288 227.5,-288"/>
<text text-anchor="middle" x="212" y="-267.5" font-family="FreeSans" font-size="10.00" fill="#1c2021">Evaluator</text>
</g>
<!-- Evaluator&#45;&gt;Traversal Description -->
<g id="edge2" class="edge"><title>Evaluator&#45;&gt;Traversal Description</title>
<path fill="none" stroke="#2e3436" stroke-width="2" d="M235.296,-251.785C248.6,-242.359 265.81,-230.836 282,-222 291.615,-216.753 302.177,-211.706 312.408,-207.158"/>
<polygon fill="#2e3436" stroke="#2e3436" stroke-width="2" points="319.422,-204.092 313.902,-210.189 316.186,-206.052 312.75,-207.554 312.55,-207.096 312.35,-206.638 315.786,-205.136 311.198,-204.003 319.422,-204.092 319.422,-204.092"/>
<text text-anchor="middle" x="330.5" y="-225.5" font-family="FreeSans" font-size="10.00" fill="#1c2021">return and prune policy</text>
</g>
<!-- Prune/Continue -->
<g id="node15" class="node"><title>Prune/Continue</title>
<text text-anchor="middle" x="212" y="-183.5" font-family="FreeSans" font-size="10.00" fill="#1c2021">Prune/Continue</text>
</g>
<!-- Evaluator&#45;&gt;Prune/Continue -->
<g id="edge14" class="edge"><title>Evaluator&#45;&gt;Prune/Continue</title>
<path fill="none" stroke="#2e3436" stroke-width="2" d="M212,-251.61C212,-236.504 212,-214.912 212,-200.925"/>
<polygon fill="#2e3436" stroke="#2e3436" stroke-width="2" points="212,-193.324 215.375,-200.824 212.5,-197.074 212.5,-200.824 212,-200.824 211.5,-200.824 211.5,-197.074 208.625,-200.824 212,-193.324 212,-193.324"/>
</g>
<!-- Order -->
<g id="node4" class="node"><title>Order</title>
<path fill="#fadcad" stroke="#2e3436" stroke-width="1.5" d="M126,-288C126,-288 96,-288 96,-288 90,-288 84,-282 84,-276 84,-276 84,-264 84,-264 84,-258 90,-252 96,-252 96,-252 126,-252 126,-252 132,-252 138,-258 138,-264 138,-264 138,-276 138,-276 138,-282 132,-288 126,-288"/>
<text text-anchor="middle" x="111" y="-267.5" font-family="FreeSans" font-size="10.00" fill="#1c2021">Order</text>
</g>
<!-- Order&#45;&gt;Traversal Description -->
<g id="edge3" class="edge"><title>Order&#45;&gt;Traversal Description</title>
<path fill="none" stroke="#2e3436" stroke-width="2" d="M133.471,-251.864C147.794,-241.739 167.145,-229.477 186,-222 206.945,-213.695 260.247,-203.671 302.923,-196.483"/>
<polygon fill="#2e3436" stroke="#2e3436" stroke-width="2" points="310.486,-195.22 303.645,-199.784 306.87,-196.331 303.171,-196.948 303.089,-196.455 303.007,-195.962 306.705,-195.344 302.533,-193.126 310.486,-195.22 310.486,-195.22"/>
<text text-anchor="middle" x="221" y="-225.5" font-family="FreeSans" font-size="10.00" fill="#1c2021">where to go next</text>
</g>
<!-- PathExpander -->
<g id="node5" class="node"><title>PathExpander</title>
<path fill="#fadcad" stroke="#2e3436" stroke-width="1.5" d="M676.25,-288C676.25,-288 623.75,-288 623.75,-288 617.75,-288 611.75,-282 611.75,-276 611.75,-276 611.75,-264 611.75,-264 611.75,-258 617.75,-252 623.75,-252 623.75,-252 676.25,-252 676.25,-252 682.25,-252 688.25,-258 688.25,-264 688.25,-264 688.25,-276 688.25,-276 688.25,-282 682.25,-288 676.25,-288"/>
<text text-anchor="middle" x="650" y="-267.5" font-family="FreeSans" font-size="10.00" fill="#1c2021">PathExpander</text>
</g>
<!-- PathExpander&#45;&gt;Traversal Description -->
<g id="edge4" class="edge"><title>PathExpander&#45;&gt;Traversal Description</title>
<path fill="none" stroke="#2e3436" stroke-width="2" d="M611.592,-258.026C563.279,-244.223 479.786,-220.367 423.017,-204.148"/>
<polygon fill="#2e3436" stroke="#2e3436" stroke-width="2" points="415.538,-202.011 423.677,-200.826 419.281,-202.56 422.887,-203.591 422.75,-204.071 422.612,-204.552 419.006,-203.522 421.822,-207.317 415.538,-202.011 415.538,-202.011"/>
<text text-anchor="middle" x="557.5" y="-225.5" font-family="FreeSans" font-size="10.00" fill="#1c2021">what to traverse</text>
</g>
<!-- Relationship Type -->
<g id="node8" class="node"><title>Relationship Type</title>
<text text-anchor="middle" x="650" y="-183.5" font-family="FreeSans" font-size="10.00" fill="#1c2021">Relationship Type</text>
</g>
<!-- PathExpander&#45;&gt;Relationship Type -->
<g id="edge7" class="edge"><title>PathExpander&#45;&gt;Relationship Type</title>
<path fill="none" stroke="#2e3436" stroke-width="2" d="M650,-251.61C650,-236.504 650,-214.912 650,-200.925"/>
<polygon fill="#2e3436" stroke="#2e3436" stroke-width="2" points="650,-193.324 653.375,-200.824 650.5,-197.074 650.5,-200.824 650,-200.824 649.5,-200.824 649.5,-197.074 646.625,-200.824 650,-193.324 650,-193.324"/>
</g>
<!-- Depth First -->
<g id="node6" class="node"><title>Depth First</title>
<text text-anchor="middle" x="27" y="-330.5" font-family="FreeSans" font-size="10.00" fill="#1c2021">Depth First</text>
</g>
<!-- Depth First&#45;&gt;Order -->
<g id="edge5" class="edge"><title>Depth First&#45;&gt;Order</title>
<path fill="none" stroke="#2e3436" stroke-width="2" d="M41.7206,-321.31C54.3506,-312.138 72.7814,-298.754 87.4582,-288.096"/>
<polygon fill="#2e3436" stroke="#2e3436" stroke-width="2" points="35.3613,-325.928 39.4468,-318.79 38.1019,-323.32 41.1362,-321.116 41.43,-321.521 41.7238,-321.926 38.6895,-324.129 43.4132,-324.252 35.3613,-325.928 35.3613,-325.928"/>
</g>
<!-- Breadth First -->
<g id="node7" class="node"><title>Breadth First</title>
<text text-anchor="middle" x="111" y="-330.5" font-family="FreeSans" font-size="10.00" fill="#1c2021">Breadth First</text>
</g>
<!-- Breadth First&#45;&gt;Order -->
<g id="edge6" class="edge"><title>Breadth First&#45;&gt;Order</title>
<path fill="none" stroke="#2e3436" stroke-width="2" d="M111,-318.384C111,-309.44 111,-297.668 111,-288.096"/>
<polygon fill="#2e3436" stroke="#2e3436" stroke-width="2" points="111,-325.928 107.625,-318.428 110.5,-322.178 110.5,-318.428 111,-318.428 111.5,-318.428 111.5,-322.178 114.375,-318.428 111,-325.928 111,-325.928"/>
</g>
<!-- Direction -->
<g id="node9" class="node"><title>Direction</title>
<text text-anchor="middle" x="671" y="-330.5" font-family="FreeSans" font-size="10.00" fill="#1c2021">Direction</text>
</g>
<!-- Direction&#45;&gt;PathExpander -->
<g id="edge8" class="edge"><title>Direction&#45;&gt;PathExpander</title>
<path fill="none" stroke="#2e3436" stroke-width="2" d="M666.407,-318.659C663.317,-309.683 659.215,-297.767 655.885,-288.096"/>
<polygon fill="#2e3436" stroke="#2e3436" stroke-width="2" points="668.91,-325.928 663.277,-319.935 667.216,-322.545 665.995,-318.999 666.468,-318.837 666.941,-318.674 668.162,-322.22 669.659,-317.738 668.91,-325.928 668.91,-325.928"/>
</g>
<!-- Unique Nodes -->
<g id="node10" class="node"><title>Unique Nodes</title>
<text text-anchor="middle" x="585" y="-330.5" font-family="FreeSans" font-size="10.00" fill="#1c2021">Unique Nodes</text>
</g>
<!-- Unique Nodes&#45;&gt;Uniqueness -->
<g id="edge9" class="edge"><title>Unique Nodes&#45;&gt;Uniqueness</title>
<path fill="none" stroke="#2e3436" stroke-width="2" d="M560.909,-323.406C531.24,-312.823 480.687,-294.789 447.313,-282.884"/>
<polygon fill="#2e3436" stroke="#2e3436" stroke-width="2" points="567.979,-325.928 559.781,-326.587 564.279,-325.139 560.747,-323.879 560.915,-323.408 561.083,-322.937 564.615,-324.197 562.049,-320.229 567.979,-325.928 567.979,-325.928"/>
</g>
<!-- Unique Relationships -->
<g id="node11" class="node"><title>Unique Relationships</title>
<text text-anchor="middle" x="311" y="-330.5" font-family="FreeSans" font-size="10.00" fill="#1c2021">Unique Relationships</text>
</g>
<!-- Unique Relationships&#45;&gt;Uniqueness -->
<g id="edge10" class="edge"><title>Unique Relationships&#45;&gt;Uniqueness</title>
<path fill="none" stroke="#2e3436" stroke-width="2" d="M327.776,-322.064C343.278,-312.884 366.637,-299.05 385.133,-288.096"/>
<polygon fill="#2e3436" stroke="#2e3436" stroke-width="2" points="321.253,-325.928 325.986,-319.202 324.224,-323.587 327.451,-321.676 327.706,-322.106 327.961,-322.536 324.734,-324.447 329.426,-325.01 321.253,-325.928 321.253,-325.928"/>
</g>
<!-- Unique Paths -->
<g id="node12" class="node"><title>Unique Paths</title>
<text text-anchor="middle" x="414" y="-330.5" font-family="FreeSans" font-size="10.00" fill="#1c2021">Unique Paths</text>
</g>
<!-- Unique Paths&#45;&gt;Uniqueness -->
<g id="edge11" class="edge"><title>Unique Paths&#45;&gt;Uniqueness</title>
<path fill="none" stroke="#2e3436" stroke-width="2" d="M414,-318.384C414,-309.44 414,-297.668 414,-288.096"/>
<polygon fill="#2e3436" stroke="#2e3436" stroke-width="2" points="414,-325.928 410.625,-318.428 413.5,-322.178 413.5,-318.428 414,-318.428 414.5,-318.428 414.5,-322.178 417.375,-318.428 414,-325.928 414,-325.928"/>
</g>
<!-- None -->
<g id="node13" class="node"><title>None</title>
<text text-anchor="middle" x="499" y="-330.5" font-family="FreeSans" font-size="10.00" fill="#1c2021">None</text>
</g>
<!-- None&#45;&gt;Uniqueness -->
<g id="edge12" class="edge"><title>None&#45;&gt;Uniqueness</title>
<path fill="none" stroke="#2e3436" stroke-width="2" d="M484.104,-321.31C471.324,-312.138 452.674,-298.754 437.822,-288.096"/>
<polygon fill="#2e3436" stroke="#2e3436" stroke-width="2" points="490.539,-325.928 482.478,-324.297 487.201,-324.148 484.154,-321.961 484.446,-321.555 484.737,-321.149 487.784,-323.335 486.414,-318.813 490.539,-325.928 490.539,-325.928"/>
</g>
<!-- Include/Exclude -->
<g id="node14" class="node"><title>Include/Exclude</title>
<text text-anchor="middle" x="202" y="-330.5" font-family="FreeSans" font-size="10.00" fill="#1c2021">Include/Exclude</text>
</g>
<!-- Include/Exclude&#45;&gt;Evaluator -->
<g id="edge13" class="edge"><title>Include/Exclude&#45;&gt;Evaluator</title>
<path fill="none" stroke="#2e3436" stroke-width="2" d="M204.232,-318.384C205.698,-309.44 207.628,-297.668 209.197,-288.096"/>
<polygon fill="#2e3436" stroke="#2e3436" stroke-width="2" points="202.995,-325.928 200.878,-317.981 203.109,-322.147 203.715,-318.446 204.209,-318.527 204.702,-318.608 204.096,-322.308 207.539,-319.073 202.995,-325.928 202.995,-325.928"/>
</g>
<!-- Paths -->
<g id="node18" class="node"><title>Paths</title>
<path fill="#fadcad" stroke="#2e3436" stroke-width="1.5" d="M295,-36C295,-36 265,-36 265,-36 259,-36 253,-30 253,-24 253,-24 253,-12 253,-12 253,-6 259,-0 265,-0 265,-0 295,-0 295,-0 301,-0 307,-6 307,-12 307,-12 307,-24 307,-24 307,-30 301,-36 295,-36"/>
<text text-anchor="middle" x="280" y="-15.5" font-family="FreeSans" font-size="10.00" fill="#1c2021">Paths</text>
</g>
<!-- Traverser&#45;&gt;Paths -->
<g id="edge17" class="edge"><title>Traverser&#45;&gt;Paths</title>
<path fill="none" stroke="#2e3436" stroke-width="2" d="M340.462,-83.9365C333.664,-78.4548 326.33,-72.1928 320,-66 312.432,-58.596 304.747,-49.9053 298.162,-42.0244"/>
<polygon fill="#2e3436" stroke="#2e3436" stroke-width="2" points="293.362,-36.1904 300.734,-39.8375 296.131,-38.7685 298.514,-41.6642 298.127,-41.9819 297.741,-42.2996 295.359,-39.4038 295.521,-44.1263 293.362,-36.1904 293.362,-36.1904"/>
<text text-anchor="middle" x="338" y="-57.5" font-family="FreeSans" font-size="10.00" fill="#1c2021">result as</text>
</g>
<!-- Nodes -->
<g id="node19" class="node"><title>Nodes</title>
<path fill="#fadcad" stroke="#2e3436" stroke-width="1.5" d="M378,-36C378,-36 348,-36 348,-36 342,-36 336,-30 336,-24 336,-24 336,-12 336,-12 336,-6 342,-0 348,-0 348,-0 378,-0 378,-0 384,-0 390,-6 390,-12 390,-12 390,-24 390,-24 390,-30 384,-36 378,-36"/>
<text text-anchor="middle" x="363" y="-15.5" font-family="FreeSans" font-size="10.00" fill="#1c2021">Nodes</text>
</g>
<!-- Traverser&#45;&gt;Nodes -->
<g id="edge18" class="edge"><title>Traverser&#45;&gt;Nodes</title>
<path fill="none" stroke="#2e3436" stroke-width="2" d="M363,-83.6099C363,-72.0081 363,-56.5802 363,-43.7099"/>
<polygon fill="#2e3436" stroke="#2e3436" stroke-width="2" points="363,-36.0838 366.375,-43.5838 363.5,-39.8338 363.5,-43.5838 363,-43.5838 362.5,-43.5838 362.5,-39.8338 359.625,-43.5839 363,-36.0838 363,-36.0838"/>
<text text-anchor="middle" x="381" y="-57.5" font-family="FreeSans" font-size="10.00" fill="#1c2021">result as</text>
</g>
<!-- Relationships -->
<g id="node20" class="node"><title>Relationships</title>
<path fill="#fadcad" stroke="#2e3436" stroke-width="1.5" d="M481,-36C481,-36 431,-36 431,-36 425,-36 419,-30 419,-24 419,-24 419,-12 419,-12 419,-6 425,-0 431,-0 431,-0 481,-0 481,-0 487,-0 493,-6 493,-12 493,-12 493,-24 493,-24 493,-30 487,-36 481,-36"/>
<text text-anchor="middle" x="456" y="-15.5" font-family="FreeSans" font-size="10.00" fill="#1c2021">Relationships</text>
</g>
<!-- Traverser&#45;&gt;Relationships -->
<g id="edge19" class="edge"><title>Traverser&#45;&gt;Relationships</title>
<path fill="none" stroke="#2e3436" stroke-width="2" d="M384.684,-83.8493C391.584,-78.2598 399.191,-71.9583 406,-66 414.887,-58.2235 424.389,-49.4225 432.696,-41.5564"/>
<polygon fill="#2e3436" stroke="#2e3436" stroke-width="2" points="438.234,-36.284 435.129,-43.8998 435.863,-39.2318 433.147,-41.8175 432.802,-41.4554 432.457,-41.0932 435.174,-38.5076 430.475,-39.0109 438.234,-36.284 438.234,-36.284"/>
<text text-anchor="middle" x="437" y="-57.5" font-family="FreeSans" font-size="10.00" fill="#1c2021">result as</text>
</g>
<!-- A Node -->
<g id="node17" class="node"><title>A Node</title>
<path fill="#a8e270" stroke="#2e3436" stroke-width="1.5" d="M228,-120C228,-120 198,-120 198,-120 192,-120 186,-114 186,-108 186,-108 186,-96 186,-96 186,-90 192,-84 198,-84 198,-84 228,-84 228,-84 234,-84 240,-90 240,-96 240,-96 240,-108 240,-108 240,-114 234,-120 228,-120"/>
<text text-anchor="middle" x="213" y="-99.5" font-family="FreeSans" font-size="10.00" fill="#1c2021">A Node</text>
</g>
<!-- A Node&#45;&gt;Traverser -->
<g id="edge16" class="edge"><title>A Node&#45;&gt;Traverser</title>
<path fill="none" stroke="#2e3436" stroke-width="2" d="M240.164,-102C264.676,-102 300.888,-102 327.649,-102"/>
<polygon fill="#2e3436" stroke="#2e3436" stroke-width="2" points="335.277,-102 327.777,-105.375 331.527,-102.5 327.777,-102.5 327.777,-102 327.777,-101.5 331.527,-101.5 327.777,-98.6251 335.277,-102 335.277,-102"/>
<text text-anchor="middle" x="287.5" y="-108" font-family="FreeSans" font-size="10.00" fill="#1c2021">starting point of</text>
</g>
</g>
</svg>
