<?xml version="1.0" encoding="UTF-8" standalone="no"?>
<!DOCTYPE svg PUBLIC "-//W3C//DTD SVG 1.1//EN"
 "http://www.w3.org/Graphics/SVG/1.1/DTD/svg11.dtd">
<!-- Generated by graphviz version 2.38.0 (20140413.2041)
 -->
<!-- Title: g Pages: 1 -->
<svg width="281pt" height="210pt"
 viewBox="0.00 0.00 281.00 210.00" xmlns="http://www.w3.org/2000/svg" xmlns:xlink="http://www.w3.org/1999/xlink">
<g id="graph0" class="graph" transform="scale(1 1) rotate(0) translate(4 206)">
<title>g</title>
<polygon fill="white" stroke="none" points="-4,4 -4,-206 277,-206 277,4 -4,4"/>
<!-- A Path -->
<g id="node1" class="node"><title>A Path</title>
<path fill="#a8e270" stroke="#2e3436" stroke-width="1.5" d="M122,-202C122,-202 92,-202 92,-202 86,-202 80,-196 80,-190 80,-190 80,-178 80,-178 80,-172 86,-166 92,-166 92,-166 122,-166 122,-166 128,-166 134,-172 134,-178 134,-178 134,-190 134,-190 134,-196 128,-202 122,-202"/>
<text text-anchor="middle" x="107" y="-181.5" font-family="FreeSans" font-size="10.00" fill="#1c2021">A Path</text>
</g>
<!-- Start Node -->
<g id="node2" class="node"><title>Start Node</title>
<path fill="#fadcad" stroke="#2e3436" stroke-width="1.5" d="M50,-119C50,-119 12,-119 12,-119 6,-119 3.55271e-15,-113 3.55271e-15,-107 3.55271e-15,-107 3.55271e-15,-95 3.55271e-15,-95 3.55271e-15,-89 6,-83 12,-83 12,-83 50,-83 50,-83 56,-83 62,-89 62,-95 62,-95 62,-107 62,-107 62,-113 56,-119 50,-119"/>
<text text-anchor="middle" x="31" y="-98.5" font-family="FreeSans" font-size="10.00" fill="#1c2021">Start Node</text>
</g>
<!-- A Path&#45;&gt;Start Node -->
<g id="edge1" class="edge"><title>A Path&#45;&gt;Start Node</title>
<path fill="none" stroke="#2e3436" stroke-width="2" d="M90.872,-165.924C85.5,-160.228 79.4875,-153.845 74,-148 66.845,-140.379 59.0355,-132.033 52.0589,-124.567"/>
<polygon fill="#2e3436" stroke="#2e3436" stroke-width="2" points="46.9108,-119.056 54.4969,-122.233 49.836,-121.455 52.3959,-124.195 52.0306,-124.536 51.6652,-124.878 49.1053,-122.137 49.5642,-126.84 46.9108,-119.056 46.9108,-119.056"/>
<text text-anchor="middle" x="85.5" y="-140" font-family="FreeSans" font-size="10.00" fill="#1c2021">has a</text>
</g>
<!-- Relationship -->
<g id="node3" class="node"><title>Relationship</title>
<path fill="#fadcad" stroke="#2e3436" stroke-width="1.5" d="M148.5,-119C148.5,-119 103.5,-119 103.5,-119 97.5,-119 91.5,-113 91.5,-107 91.5,-107 91.5,-95 91.5,-95 91.5,-89 97.5,-83 103.5,-83 103.5,-83 148.5,-83 148.5,-83 154.5,-83 160.5,-89 160.5,-95 160.5,-95 160.5,-107 160.5,-107 160.5,-113 154.5,-119 148.5,-119"/>
<text text-anchor="middle" x="126" y="-98.5" font-family="FreeSans" font-size="10.00" fill="#1c2021">Relationship</text>
</g>
<!-- A Path&#45;&gt;Relationship -->
<g id="edge2" class="edge"><title>A Path&#45;&gt;Relationship</title>
<path fill="none" stroke="#2e3436" stroke-width="2" d="M103.738,-165.674C102.719,-156.93 102.439,-146.244 105,-137 106.037,-133.255 107.594,-129.508 109.4,-125.932"/>
<polygon fill="#2e3436" stroke="#2e3436" stroke-width="2" points="113.109,-119.311 112.388,-127.504 111.712,-122.827 109.88,-126.099 109.443,-125.854 109.007,-125.61 110.84,-122.338 106.499,-124.205 113.109,-119.311 113.109,-119.311"/>
<text text-anchor="middle" x="156.5" y="-140" font-family="FreeSans" font-size="10.00" fill="#1c2021">can contain one or more</text>
</g>
<!-- End Node -->
<g id="node5" class="node"><title>End Node</title>
<path fill="#fadcad" stroke="#2e3436" stroke-width="1.5" d="M261,-119C261,-119 227,-119 227,-119 221,-119 215,-113 215,-107 215,-107 215,-95 215,-95 215,-89 221,-83 227,-83 227,-83 261,-83 261,-83 267,-83 273,-89 273,-95 273,-95 273,-107 273,-107 273,-113 267,-119 261,-119"/>
<text text-anchor="middle" x="244" y="-98.5" font-family="FreeSans" font-size="10.00" fill="#1c2021">End Node</text>
</g>
<!-- A Path&#45;&gt;End Node -->
<g id="edge4" class="edge"><title>A Path&#45;&gt;End Node</title>
<path fill="none" stroke="#2e3436" stroke-width="2" d="M134.355,-178.611C156.688,-173.962 188.174,-164.873 211,-148 218.904,-142.158 225.668,-133.86 230.977,-125.918"/>
<polygon fill="#2e3436" stroke="#2e3436" stroke-width="2" points="235.087,-119.391 233.946,-127.536 233.512,-122.831 231.514,-126.004 231.091,-125.738 230.667,-125.471 232.666,-122.298 228.235,-123.939 235.087,-119.391 235.087,-119.391"/>
<text text-anchor="middle" x="237" y="-140" font-family="FreeSans" font-size="10.00" fill="#1c2021">has an</text>
</g>
<!-- Node -->
<g id="node4" class="node"><title>Node</title>
<path fill="#fadcad" stroke="#2e3436" stroke-width="1.5" d="M141,-36C141,-36 111,-36 111,-36 105,-36 99,-30 99,-24 99,-24 99,-12 99,-12 99,-6 105,-0 111,-0 111,-0 141,-0 141,-0 147,-0 153,-6 153,-12 153,-12 153,-24 153,-24 153,-30 147,-36 141,-36"/>
<text text-anchor="middle" x="126" y="-15.5" font-family="FreeSans" font-size="10.00" fill="#1c2021">Node</text>
</g>
<!-- Relationship&#45;&gt;Node -->
<g id="edge3" class="edge"><title>Relationship&#45;&gt;Node</title>
<path fill="none" stroke="#2e3436" stroke-width="2" d="M126,-82.822C126,-71.4386 126,-56.3263 126,-43.6649"/>
<polygon fill="#2e3436" stroke="#2e3436" stroke-width="2" points="126,-36.1533 129.375,-43.6532 126.5,-39.9032 126.5,-43.6532 126,-43.6533 125.5,-43.6533 125.5,-39.9033 122.625,-43.6533 126,-36.1533 126,-36.1533"/>
<text text-anchor="middle" x="165" y="-57" font-family="FreeSans" font-size="10.00" fill="#1c2021">accompanied by a</text>
</g>
</g>
</svg>
