<?xml version="1.0" encoding="UTF-8" standalone="no"?>
<!DOCTYPE svg PUBLIC "-//W3C//DTD SVG 1.1//EN"
 "http://www.w3.org/Graphics/SVG/1.1/DTD/svg11.dtd">
<!-- Generated by graphviz version 2.36.0 (20140111.2315)
 -->
<!-- Title: g Pages: 1 -->
<svg width="422pt" height="44pt"
 viewBox="0.00 0.00 422.00 44.00" xmlns="http://www.w3.org/2000/svg" xmlns:xlink="http://www.w3.org/1999/xlink">
<g id="graph0" class="graph" transform="scale(1 1) rotate(0) translate(4 40)">
<title>g</title>
<polygon fill="white" stroke="none" points="-4,4 -4,-40 418,-40 418,4 -4,4"/>
<!-- START -->
<g id="node1" class="node"><title>START</title>
<path fill="#ffffff" stroke="#2e3436" stroke-width="1.5" d="M42,-36C42,-36 12,-36 12,-36 6,-36 0,-30 0,-24 0,-24 0,-12 0,-12 0,-6 6,-0 12,-0 12,-0 42,-0 42,-0 48,-0 54,-6 54,-12 54,-12 54,-24 54,-24 54,-30 48,-36 42,-36"/>
</g>
<!-- MIDDLE -->
<g id="node2" class="node"><title>MIDDLE</title>
<path fill="#fcee7d" stroke="#2e3436" stroke-width="1.5" d="M224,-36C224,-36 194,-36 194,-36 188,-36 182,-30 182,-24 182,-24 182,-12 182,-12 182,-6 188,-0 194,-0 194,-0 224,-0 224,-0 230,-0 236,-6 236,-12 236,-12 236,-24 236,-24 236,-30 230,-36 224,-36"/>
<text text-anchor="middle" x="209" y="-15.5" font-family="FreeSans" font-size="10.00" fill="#1c2021">Node</text>
</g>
<!-- START&#45;&gt;MIDDLE -->
<g id="edge2" class="edge"><title>START&#45;&gt;MIDDLE</title>
<path fill="none" stroke="#2e3436" stroke-width="2" d="M54.1735,-18C85.9008,-18 139.431,-18 174.237,-18"/>
<polygon fill="#2e3436" stroke="#2e3436" stroke-width="2" points="181.795,-18 174.295,-21.3751 178.045,-18.5 174.295,-18.5001 174.295,-18.0001 174.295,-17.5001 178.045,-17.5 174.295,-14.6251 181.795,-18 181.795,-18"/>
<text text-anchor="middle" x="118" y="-21" font-family="FreeSans" font-size="10.00" fill="#1c2021">incoming relationship</text>
</g>
<!-- END -->
<g id="node3" class="node"><title>END</title>
<path fill="#ffffff" stroke="#2e3436" stroke-width="1.5" d="M402,-36C402,-36 372,-36 372,-36 366,-36 360,-30 360,-24 360,-24 360,-12 360,-12 360,-6 366,-0 372,-0 372,-0 402,-0 402,-0 408,-0 414,-6 414,-12 414,-12 414,-24 414,-24 414,-30 408,-36 402,-36"/>
</g>
<!-- MIDDLE&#45;&gt;END -->
<g id="edge1" class="edge"><title>MIDDLE&#45;&gt;END</title>
<path fill="none" stroke="#2e3436" stroke-width="2" d="M236.349,-18C267.155,-18 318.217,-18 351.989,-18"/>
<polygon fill="#2e3436" stroke="#2e3436" stroke-width="2" points="359.759,-18 352.259,-21.3751 356.009,-18.5 352.259,-18.5001 352.259,-18.0001 352.259,-17.5001 356.009,-17.5 352.259,-14.6251 359.759,-18 359.759,-18"/>
<text text-anchor="middle" x="298" y="-21" font-family="FreeSans" font-size="10.00" fill="#1c2021">outgoing relationship</text>
</g>
</g>
</svg>
