<?xml version="1.0" encoding="UTF-8" standalone="no"?>
<!DOCTYPE svg PUBLIC "-//W3C//DTD SVG 1.1//EN"
 "http://www.w3.org/Graphics/SVG/1.1/DTD/svg11.dtd">
<!-- Generated by graphviz version 2.38.0 (20140413.2041)
 -->
<!-- Title: g Pages: 1 -->
<svg width="231pt" height="293pt"
 viewBox="0.00 0.00 231.00 293.00" xmlns="http://www.w3.org/2000/svg" xmlns:xlink="http://www.w3.org/1999/xlink">
<g id="graph0" class="graph" transform="scale(1 1) rotate(0) translate(4 289)">
<title>g</title>
<polygon fill="white" stroke="none" points="-4,4 -4,-289 227,-289 227,4 -4,4"/>
<!-- Indexes -->
<g id="node1" class="node"><title>Indexes</title>
<path fill="#a8e270" stroke="#2e3436" stroke-width="1.5" d="M147,-285C147,-285 117,-285 117,-285 111,-285 105,-279 105,-273 105,-273 105,-261 105,-261 105,-255 111,-249 117,-249 117,-249 147,-249 147,-249 153,-249 159,-255 159,-261 159,-261 159,-273 159,-273 159,-279 153,-285 147,-285"/>
<text text-anchor="middle" x="132" y="-264.5" font-family="FreeSans" font-size="10.00" fill="#1c2021">Indexes</text>
</g>
<!-- Relationships -->
<g id="node2" class="node"><title>Relationships</title>
<path fill="#fadcad" stroke="#2e3436" stroke-width="1.5" d="M62,-202C62,-202 12,-202 12,-202 6,-202 0,-196 0,-190 0,-190 0,-178 0,-178 0,-172 6,-166 12,-166 12,-166 62,-166 62,-166 68,-166 74,-172 74,-178 74,-178 74,-190 74,-190 74,-196 68,-202 62,-202"/>
<text text-anchor="middle" x="37" y="-181.5" font-family="FreeSans" font-size="10.00" fill="#1c2021">Relationships</text>
</g>
<!-- Indexes&#45;&gt;Relationships -->
<g id="edge5" class="edge"><title>Indexes&#45;&gt;Relationships</title>
<path fill="none" stroke="#2e3436" stroke-width="2" d="M104.97,-249.485C96.6718,-243.978 87.7029,-237.564 80,-231 71.7783,-223.994 63.4971,-215.543 56.4273,-207.806"/>
<polygon fill="#2e3436" stroke="#2e3436" stroke-width="2" points="51.2782,-202.065 58.7984,-205.395 54.1542,-204.523 56.6581,-207.314 56.2858,-207.648 55.9136,-207.982 53.4098,-205.19 53.7733,-209.902 51.2782,-202.065 51.2782,-202.065"/>
<text text-anchor="middle" x="95" y="-223" font-family="FreeSans" font-size="10.00" fill="#1c2021">map to</text>
</g>
<!-- Nodes -->
<g id="node3" class="node"><title>Nodes</title>
<path fill="#fadcad" stroke="#2e3436" stroke-width="1.5" d="M147,-119C147,-119 117,-119 117,-119 111,-119 105,-113 105,-107 105,-107 105,-95 105,-95 105,-89 111,-83 117,-83 117,-83 147,-83 147,-83 153,-83 159,-89 159,-95 159,-95 159,-107 159,-107 159,-113 153,-119 147,-119"/>
<text text-anchor="middle" x="132" y="-98.5" font-family="FreeSans" font-size="10.00" fill="#1c2021">Nodes</text>
</g>
<!-- Indexes&#45;&gt;Nodes -->
<g id="edge4" class="edge"><title>Indexes&#45;&gt;Nodes</title>
<path fill="none" stroke="#2e3436" stroke-width="2" d="M132,-248.759C132,-219.523 132,-160.133 132,-126.558"/>
<polygon fill="#2e3436" stroke="#2e3436" stroke-width="2" points="132,-119.01 135.375,-126.51 132.5,-122.76 132.5,-126.51 132,-126.51 131.5,-126.51 131.5,-122.76 128.625,-126.51 132,-119.01 132,-119.01"/>
<text text-anchor="middle" x="147" y="-181.5" font-family="FreeSans" font-size="10.00" fill="#1c2021">map to</text>
</g>
<!-- Properties -->
<g id="node4" class="node"><title>Properties</title>
<path fill="#fadcad" stroke="#2e3436" stroke-width="1.5" d="M195,-36C195,-36 159,-36 159,-36 153,-36 147,-30 147,-24 147,-24 147,-12 147,-12 147,-6 153,-0 159,-0 159,-0 195,-0 195,-0 201,-0 207,-6 207,-12 207,-12 207,-24 207,-24 207,-30 201,-36 195,-36"/>
<text text-anchor="middle" x="177" y="-15.5" font-family="FreeSans" font-size="10.00" fill="#1c2021">Properties</text>
</g>
<!-- Indexes&#45;&gt;Properties -->
<g id="edge6" class="edge"><title>Indexes&#45;&gt;Properties</title>
<path fill="none" stroke="#2e3436" stroke-width="2" d="M144.852,-248.805C153.323,-236.462 163.783,-219.06 169,-202 186.929,-143.378 181.438,-126.199 185,-65 185.284,-60.1194 185.548,-58.8581 185,-54 184.62,-50.6341 184.041,-47.12 183.365,-43.6723"/>
<polygon fill="#2e3436" stroke="#2e3436" stroke-width="2" points="181.767,-36.3142 186.657,-42.9273 183.051,-39.8727 183.847,-43.5373 183.358,-43.6434 182.87,-43.7495 182.074,-40.0849 180.06,-44.3595 181.767,-36.3142 181.767,-36.3142"/>
<text text-anchor="middle" x="202.5" y="-140" font-family="FreeSans" font-size="10.00" fill="#1c2021">map from</text>
</g>
<!-- Relationships&#45;&gt;Nodes -->
<g id="edge1" class="edge"><title>Relationships&#45;&gt;Nodes</title>
<path fill="none" stroke="#2e3436" stroke-width="2" d="M47.9972,-165.987C54.5319,-156.711 63.4028,-145.436 73,-137 80.556,-130.358 89.5491,-124.289 98.2083,-119.138"/>
<polygon fill="#2e3436" stroke="#2e3436" stroke-width="2" points="104.736,-115.383 99.9173,-122.048 101.734,-117.686 98.4838,-119.556 98.2345,-119.123 97.9851,-118.689 101.236,-116.819 96.5516,-116.197 104.736,-115.383 104.736,-115.383"/>
<text text-anchor="middle" x="91.5" y="-140" font-family="FreeSans" font-size="10.00" fill="#1c2021">organize</text>
</g>
<!-- Relationships&#45;&gt;Properties -->
<g id="edge3" class="edge"><title>Relationships&#45;&gt;Properties</title>
<path fill="none" stroke="#2e3436" stroke-width="2" d="M38.9784,-165.694C42.204,-144.249 50.3439,-107.544 70,-83 88.1479,-60.3388 116.651,-43.8552 139.677,-33.2966"/>
<polygon fill="#2e3436" stroke="#2e3436" stroke-width="2" points="146.629,-30.2097 141.144,-36.3378 143.405,-32.1884 139.977,-33.7102 139.774,-33.2532 139.572,-32.7962 142.999,-31.2745 138.405,-30.1686 146.629,-30.2097 146.629,-30.2097"/>
<text text-anchor="middle" x="80.5" y="-98.5" font-family="FreeSans" font-size="10.00" fill="#1c2021">have</text>
</g>
<!-- Nodes&#45;&gt;Properties -->
<g id="edge2" class="edge"><title>Nodes&#45;&gt;Properties</title>
<path fill="none" stroke="#2e3436" stroke-width="2" d="M141.543,-82.822C147.987,-71.2238 156.581,-55.7547 163.694,-42.9508"/>
<polygon fill="#2e3436" stroke="#2e3436" stroke-width="2" points="167.47,-36.1533 166.778,-44.3485 166.086,-39.6742 164.265,-42.9523 163.828,-42.7094 163.391,-42.4666 165.212,-39.1885 160.878,-41.0704 167.47,-36.1533 167.47,-36.1533"/>
<text text-anchor="middle" x="167.5" y="-57" font-family="FreeSans" font-size="10.00" fill="#1c2021">have</text>
</g>
</g>
</svg>
