<?xml version="1.0" encoding="UTF-8" standalone="no"?>
<!DOCTYPE svg PUBLIC "-//W3C//DTD SVG 1.1//EN"
 "http://www.w3.org/Graphics/SVG/1.1/DTD/svg11.dtd">
<!-- Generated by graphviz version 2.38.0 (20140413.2041)
 -->
<!-- Title: g Pages: 1 -->
<svg width="206pt" height="346pt"
 viewBox="0.00 0.00 205.90 346.00" xmlns="http://www.w3.org/2000/svg" xmlns:xlink="http://www.w3.org/1999/xlink">
<g id="graph0" class="graph" transform="scale(1 1) rotate(0) translate(4 342)">
<title>g</title>
<polygon fill="white" stroke="none" points="-4,4 -4,-342 201.899,-342 201.899,4 -4,4"/>
<!-- A Property -->
<g id="node1" class="node"><title>A Property</title>
<path fill="#a8e270" stroke="#2e3436" stroke-width="1.5" d="M145.676,-338C145.676,-338 107.676,-338 107.676,-338 101.676,-338 95.6762,-332 95.6762,-326 95.6762,-326 95.6762,-314 95.6762,-314 95.6762,-308 101.676,-302 107.676,-302 107.676,-302 145.676,-302 145.676,-302 151.676,-302 157.676,-308 157.676,-314 157.676,-314 157.676,-326 157.676,-326 157.676,-332 151.676,-338 145.676,-338"/>
<text text-anchor="middle" x="126.676" y="-317.5" font-family="FreeSans" font-size="10.00" fill="#1c2021">A Property</text>
</g>
<!-- Key -->
<g id="node2" class="node"><title>Key</title>
<path fill="#fadcad" stroke="#2e3436" stroke-width="1.5" d="M180.676,-255C180.676,-255 150.676,-255 150.676,-255 144.676,-255 138.676,-249 138.676,-243 138.676,-243 138.676,-231 138.676,-231 138.676,-225 144.676,-219 150.676,-219 150.676,-219 180.676,-219 180.676,-219 186.676,-219 192.676,-225 192.676,-231 192.676,-231 192.676,-243 192.676,-243 192.676,-249 186.676,-255 180.676,-255"/>
<text text-anchor="middle" x="165.676" y="-234.5" font-family="FreeSans" font-size="10.00" fill="#1c2021">Key</text>
</g>
<!-- A Property&#45;&gt;Key -->
<g id="edge1" class="edge"><title>A Property&#45;&gt;Key</title>
<path fill="none" stroke="#2e3436" stroke-width="2" d="M134.947,-301.822C140.531,-290.224 147.98,-274.755 154.144,-261.951"/>
<polygon fill="#2e3436" stroke="#2e3436" stroke-width="2" points="157.417,-255.153 157.204,-263.375 156.241,-258.749 154.614,-262.128 154.164,-261.911 153.713,-261.694 155.34,-258.315 151.123,-260.447 157.417,-255.153 157.417,-255.153"/>
<text text-anchor="middle" x="159.176" y="-276" font-family="FreeSans" font-size="10.00" fill="#1c2021">has a</text>
</g>
<!-- Value -->
<g id="node4" class="node"><title>Value</title>
<path fill="#fadcad" stroke="#2e3436" stroke-width="1.5" d="M97.6762,-255C97.6762,-255 67.6762,-255 67.6762,-255 61.6762,-255 55.6762,-249 55.6762,-243 55.6762,-243 55.6762,-231 55.6762,-231 55.6762,-225 61.6762,-219 67.6762,-219 67.6762,-219 97.6762,-219 97.6762,-219 103.676,-219 109.676,-225 109.676,-231 109.676,-231 109.676,-243 109.676,-243 109.676,-249 103.676,-255 97.6762,-255"/>
<text text-anchor="middle" x="82.6762" y="-234.5" font-family="FreeSans" font-size="10.00" fill="#1c2021">Value</text>
</g>
<!-- A Property&#45;&gt;Value -->
<g id="edge3" class="edge"><title>A Property&#45;&gt;Value</title>
<path fill="none" stroke="#2e3436" stroke-width="2" d="M117.345,-301.822C111.045,-290.224 102.642,-274.755 95.6866,-261.951"/>
<polygon fill="#2e3436" stroke="#2e3436" stroke-width="2" points="91.9941,-255.153 98.5398,-260.133 94.2234,-258.21 96.0135,-261.505 95.5741,-261.744 95.1347,-261.982 93.3447,-258.687 92.6084,-263.355 91.9941,-255.153 91.9941,-255.153"/>
<text text-anchor="middle" x="118.176" y="-276" font-family="FreeSans" font-size="10.00" fill="#1c2021">has a</text>
</g>
<!-- Primitive -->
<g id="node3" class="node"><title>Primitive</title>
<path fill="#fadcad" stroke="#2e3436" stroke-width="1.5" d="M54.6762,-0.5C54.6762,-0.5 134.676,-0.5 134.676,-0.5 140.676,-0.5 146.676,-6.5 146.676,-12.5 146.676,-12.5 146.676,-159.5 146.676,-159.5 146.676,-165.5 140.676,-171.5 134.676,-171.5 134.676,-171.5 54.6762,-171.5 54.6762,-171.5 48.6762,-171.5 42.6762,-165.5 42.6762,-159.5 42.6762,-159.5 42.6762,-12.5 42.6762,-12.5 42.6762,-6.5 48.6762,-0.5 54.6762,-0.5"/>
<text text-anchor="middle" x="69.6762" y="-83.5" font-family="FreeSans" font-size="10.00" fill="#1c2021">Primitive</text>
<polyline fill="none" stroke="#2e3436" stroke-width="1.5" points="96.6762,-0.5 96.6762,-171.5 "/>
<text text-anchor="middle" x="121.676" y="-159.5" font-family="FreeSans" font-size="10.00" fill="#1c2021">boolean</text>
<polyline fill="none" stroke="#2e3436" stroke-width="1.5" points="96.6762,-152.5 146.676,-152.5 "/>
<text text-anchor="middle" x="121.676" y="-140.5" font-family="FreeSans" font-size="10.00" fill="#1c2021">byte</text>
<polyline fill="none" stroke="#2e3436" stroke-width="1.5" points="96.6762,-133.5 146.676,-133.5 "/>
<text text-anchor="middle" x="121.676" y="-121.5" font-family="FreeSans" font-size="10.00" fill="#1c2021">short</text>
<polyline fill="none" stroke="#2e3436" stroke-width="1.5" points="96.6762,-114.5 146.676,-114.5 "/>
<text text-anchor="middle" x="121.676" y="-102.5" font-family="FreeSans" font-size="10.00" fill="#1c2021">int</text>
<polyline fill="none" stroke="#2e3436" stroke-width="1.5" points="96.6762,-95.5 146.676,-95.5 "/>
<text text-anchor="middle" x="121.676" y="-83.5" font-family="FreeSans" font-size="10.00" fill="#1c2021">long</text>
<polyline fill="none" stroke="#2e3436" stroke-width="1.5" points="96.6762,-76.5 146.676,-76.5 "/>
<text text-anchor="middle" x="121.676" y="-64.5" font-family="FreeSans" font-size="10.00" fill="#1c2021">float</text>
<polyline fill="none" stroke="#2e3436" stroke-width="1.5" points="96.6762,-57.5 146.676,-57.5 "/>
<text text-anchor="middle" x="121.676" y="-45.5" font-family="FreeSans" font-size="10.00" fill="#1c2021">double</text>
<polyline fill="none" stroke="#2e3436" stroke-width="1.5" points="96.6762,-38.5 146.676,-38.5 "/>
<text text-anchor="middle" x="121.676" y="-26.5" font-family="FreeSans" font-size="10.00" fill="#1c2021">char</text>
<polyline fill="none" stroke="#2e3436" stroke-width="1.5" points="96.6762,-19.5 146.676,-19.5 "/>
<text text-anchor="middle" x="121.676" y="-7.5" font-family="FreeSans" font-size="10.00" fill="#1c2021">String</text>
</g>
<!-- Key&#45;&gt;Primitive -->
<g id="edge2" class="edge"><title>Key&#45;&gt;Primitive:String</title>
<path fill="none" stroke="#2e3436" stroke-width="2" d="M171.539,-218.641C187.94,-167.478 228.502,-20.2275 155.595,-10.5056"/>
<polygon fill="#2e3436" stroke="#2e3436" stroke-width="2" points="147.676,-10 155.376,-7.1098 151.45,-9.73999 155.193,-9.97896 155.161,-10.4779 155.129,-10.9769 151.387,-10.738 154.946,-13.8461 147.676,-10 147.676,-10"/>
<text text-anchor="middle" x="186.176" y="-193" font-family="FreeSans" font-size="10.00" fill="#1c2021">is a</text>
</g>
<!-- Value&#45;&gt;Primitive -->
<g id="edge4" class="edge"><title>Value&#45;&gt;Primitive</title>
<path fill="none" stroke="#2e3436" stroke-width="2" d="M84.0528,-218.908C84.8887,-208.529 86.0284,-194.377 87.2519,-179.185"/>
<polygon fill="#2e3436" stroke="#2e3436" stroke-width="2" points="87.8584,-171.655 90.6203,-179.402 88.0557,-175.433 87.7546,-179.171 87.2562,-179.131 86.7578,-179.091 87.0589,-175.353 83.8921,-178.86 87.8584,-171.655 87.8584,-171.655"/>
<text text-anchor="middle" x="104.176" y="-193" font-family="FreeSans" font-size="10.00" fill="#1c2021">can be a</text>
</g>
<!-- Value&#45;&gt;Primitive -->
<g id="edge5" class="edge"><title>Value&#45;&gt;Primitive</title>
<path fill="none" stroke="#2e3436" stroke-width="2" d="M55.6162,-232.136C28.5146,-226.815 -7.90358,-214.905 1.67624,-190 9.34124,-170.073 22.8435,-151.6 37.2234,-135.962"/>
<polygon fill="#2e3436" stroke="#2e3436" stroke-width="2" points="42.5517,-130.331 39.848,-138.098 40.3373,-133.398 37.7598,-136.122 37.3966,-135.779 37.0335,-135.435 39.611,-132.711 34.9452,-133.459 42.5517,-130.331 42.5517,-130.331"/>
<text text-anchor="middle" x="39.6762" y="-193" font-family="FreeSans" font-size="10.00" fill="#1c2021">can be an array of</text>
</g>
</g>
</svg>
