<?xml version="1.0" encoding="UTF-8" standalone="no"?>
<!DOCTYPE svg PUBLIC "-//W3C//DTD SVG 1.1//EN"
 "http://www.w3.org/Graphics/SVG/1.1/DTD/svg11.dtd">
<!-- Generated by graphviz version 2.36.0 (20140111.2315)
 -->
<!-- Title: g Pages: 1 -->
<svg width="438pt" height="212pt"
 viewBox="0.00 0.00 438.00 212.43" xmlns="http://www.w3.org/2000/svg" xmlns:xlink="http://www.w3.org/1999/xlink">
<g id="graph0" class="graph" transform="scale(1 1) rotate(0) translate(4 208.429)">
<title>g</title>
<polygon fill="white" stroke="none" points="-4,4 -4,-208.429 434,-208.429 434,4 -4,4"/>
<g id="clust1" class="cluster"><title>cluster_0</title>
<polygon fill="none" stroke="none" points="8,-79.429 8,-196.429 78,-196.429 78,-79.429 8,-79.429"/>
</g>
<g id="clust2" class="cluster"><title>cluster_1</title>
<polygon fill="none" stroke="none" points="98,-82.429 98,-134.429 348,-134.429 348,-82.429 98,-82.429"/>
</g>
<!-- D1 -->
<g id="node1" class="node"><title>D1</title>
<path fill="#a8e270" stroke="#2e3436" stroke-width="1.5" d="M58,-188.429C58,-188.429 28,-188.429 28,-188.429 22,-188.429 16,-182.429 16,-176.429 16,-176.429 16,-164.429 16,-164.429 16,-158.429 22,-152.429 28,-152.429 28,-152.429 58,-152.429 58,-152.429 64,-152.429 70,-158.429 70,-164.429 70,-164.429 70,-176.429 70,-176.429 70,-182.429 64,-188.429 58,-188.429"/>
<text text-anchor="middle" x="43" y="-167.929" font-family="FreeSans" font-size="10.00" fill="#1c2021">D1</text>
</g>
<!-- S1 -->
<g id="node3" class="node"><title>S1</title>
<path fill="#95bbe3" stroke="#2e3436" stroke-width="1.5" d="M238,-126.429C238,-126.429 208,-126.429 208,-126.429 202,-126.429 196,-120.429 196,-114.429 196,-114.429 196,-102.429 196,-102.429 196,-96.429 202,-90.429 208,-90.429 208,-90.429 238,-90.429 238,-90.429 244,-90.429 250,-96.429 250,-102.429 250,-102.429 250,-114.429 250,-114.429 250,-120.429 244,-126.429 238,-126.429"/>
<text text-anchor="middle" x="223" y="-105.929" font-family="FreeSans" font-size="10.00" fill="#1c2021">S1</text>
</g>
<!-- D1&#45;&gt;S1 -->
<g id="edge1" class="edge"><title>D1&#45;&gt;S1</title>
<path fill="none" stroke="#2e3436" stroke-width="2" d="M70.3184,-165.379C94.1745,-160.392 130.073,-151.857 160,-140.429 169.649,-136.745 179.748,-131.965 188.927,-127.227"/>
<polygon fill="#2e3436" stroke="#2e3436" stroke-width="2" points="195.745,-123.632 190.685,-130.116 192.661,-125.824 189.344,-127.573 189.111,-127.131 188.878,-126.689 192.195,-124.939 187.536,-124.145 195.745,-123.632 195.745,-123.632"/>
</g>
<!-- D2 -->
<g id="node2" class="node"><title>D2</title>
<path fill="#a8e270" stroke="#2e3436" stroke-width="1.5" d="M58,-123.429C58,-123.429 28,-123.429 28,-123.429 22,-123.429 16,-117.429 16,-111.429 16,-111.429 16,-99.429 16,-99.429 16,-93.429 22,-87.429 28,-87.429 28,-87.429 58,-87.429 58,-87.429 64,-87.429 70,-93.429 70,-99.429 70,-99.429 70,-111.429 70,-111.429 70,-117.429 64,-123.429 58,-123.429"/>
<text text-anchor="middle" x="43" y="-102.929" font-family="FreeSans" font-size="10.00" fill="#1c2021">D2</text>
</g>
<!-- S2 -->
<g id="node4" class="node"><title>S2</title>
<path fill="#95bbe3" stroke="#2e3436" stroke-width="1.5" d="M328,-126.429C328,-126.429 298,-126.429 298,-126.429 292,-126.429 286,-120.429 286,-114.429 286,-114.429 286,-102.429 286,-102.429 286,-96.429 292,-90.429 298,-90.429 298,-90.429 328,-90.429 328,-90.429 334,-90.429 340,-96.429 340,-102.429 340,-102.429 340,-114.429 340,-114.429 340,-120.429 334,-126.429 328,-126.429"/>
<text text-anchor="middle" x="313" y="-105.929" font-family="FreeSans" font-size="10.00" fill="#1c2021">S2</text>
</g>
<!-- D2&#45;&gt;S2 -->
<g id="edge3" class="edge"><title>D2&#45;&gt;S2</title>
<path fill="none" stroke="#2e3436" stroke-width="2" d="M60.4121,-87.217C95.8177,-50.2143 181.692,27.186 250,-10.429 277.849,-25.7644 294.931,-59.4687 303.934,-83.0457"/>
<polygon fill="#2e3436" stroke="#2e3436" stroke-width="2" points="306.576,-90.3086 300.84,-84.4145 304.824,-86.9556 303.542,-83.4315 304.012,-83.2606 304.482,-83.0896 305.764,-86.6137 307.184,-82.1067 306.576,-90.3086 306.576,-90.3086"/>
</g>
<!-- S3 -->
<g id="node5" class="node"><title>S3</title>
<path fill="#95bbe3" stroke="#2e3436" stroke-width="1.5" d="M148,-126.429C148,-126.429 118,-126.429 118,-126.429 112,-126.429 106,-120.429 106,-114.429 106,-114.429 106,-102.429 106,-102.429 106,-96.429 112,-90.429 118,-90.429 118,-90.429 148,-90.429 148,-90.429 154,-90.429 160,-96.429 160,-102.429 160,-102.429 160,-114.429 160,-114.429 160,-120.429 154,-126.429 148,-126.429"/>
<text text-anchor="middle" x="133" y="-105.929" font-family="FreeSans" font-size="10.00" fill="#1c2021">S3</text>
</g>
<!-- D2&#45;&gt;S3 -->
<g id="edge5" class="edge"><title>D2&#45;&gt;S3</title>
<path fill="none" stroke="#2e3436" stroke-width="2" d="M70.4029,-106.329C79.1835,-106.628 89.0835,-106.966 98.3369,-107.281"/>
<polygon fill="#2e3436" stroke="#2e3436" stroke-width="2" points="105.919,-107.54 98.3083,-110.657 102.154,-107.912 98.4063,-107.784 98.4233,-107.284 98.4404,-106.785 102.188,-106.912 98.5384,-103.911 105.919,-107.54 105.919,-107.54"/>
</g>
<!-- S1&#45;&gt;S2 -->
<g id="edge7" class="edge"><title>S1&#45;&gt;S2</title>
<path fill="none" stroke="#2e3436" stroke-width="2" d="M250.403,-108.429C259.183,-108.429 269.083,-108.429 278.337,-108.429"/>
<polygon fill="#2e3436" stroke="#2e3436" stroke-width="2" points="285.919,-108.429 278.419,-111.804 282.169,-108.929 278.419,-108.929 278.419,-108.429 278.419,-107.929 282.169,-107.929 278.419,-105.054 285.919,-108.429 285.919,-108.429"/>
</g>
<!-- V1 -->
<g id="node6" class="node"><title>V1</title>
<path fill="#fadcad" stroke="#2e3436" stroke-width="1.5" d="M328,-191.429C328,-191.429 298,-191.429 298,-191.429 292,-191.429 286,-185.429 286,-179.429 286,-179.429 286,-167.429 286,-167.429 286,-161.429 292,-155.429 298,-155.429 298,-155.429 328,-155.429 328,-155.429 334,-155.429 340,-161.429 340,-167.429 340,-167.429 340,-179.429 340,-179.429 340,-185.429 334,-191.429 328,-191.429"/>
<text text-anchor="middle" x="313" y="-170.929" font-family="FreeSans" font-size="10.00" fill="#1c2021">V1</text>
</g>
<!-- S1&#45;&gt;V1 -->
<g id="edge2" class="edge"><title>S1&#45;&gt;V1</title>
<path fill="none" stroke="#2e3436" stroke-width="2" d="M248.513,-126.535C258.716,-134.071 270.671,-142.902 281.438,-150.855"/>
<polygon fill="#2e3436" stroke="#2e3436" stroke-width="2" points="287.619,-155.42 279.581,-153.679 284.305,-153.594 281.289,-151.366 281.586,-150.964 281.883,-150.562 284.899,-152.79 283.591,-148.249 287.619,-155.42 287.619,-155.42"/>
</g>
<!-- V2 -->
<g id="node7" class="node"><title>V2</title>
<path fill="#fadcad" stroke="#2e3436" stroke-width="1.5" d="M418,-159.429C418,-159.429 388,-159.429 388,-159.429 382,-159.429 376,-153.429 376,-147.429 376,-147.429 376,-135.429 376,-135.429 376,-129.429 382,-123.429 388,-123.429 388,-123.429 418,-123.429 418,-123.429 424,-123.429 430,-129.429 430,-135.429 430,-135.429 430,-147.429 430,-147.429 430,-153.429 424,-159.429 418,-159.429"/>
<text text-anchor="middle" x="403" y="-138.929" font-family="FreeSans" font-size="10.00" fill="#1c2021">V2</text>
</g>
<!-- S2&#45;&gt;V2 -->
<g id="edge4" class="edge"><title>S2&#45;&gt;V2</title>
<path fill="none" stroke="#2e3436" stroke-width="2" d="M340.403,-118.33C349.359,-121.689 359.48,-125.484 368.891,-129.013"/>
<polygon fill="#2e3436" stroke="#2e3436" stroke-width="2" points="375.919,-131.649 367.711,-132.175 372.232,-130.8 368.721,-129.483 368.897,-129.015 369.072,-128.547 372.583,-129.864 370.082,-125.855 375.919,-131.649 375.919,-131.649"/>
</g>
<!-- V3 -->
<g id="node9" class="node"><title>V3</title>
<path fill="#fadcad" stroke="#2e3436" stroke-width="1.5" d="M418,-94.429C418,-94.429 388,-94.429 388,-94.429 382,-94.429 376,-88.429 376,-82.429 376,-82.429 376,-70.429 376,-70.429 376,-64.429 382,-58.429 388,-58.429 388,-58.429 418,-58.429 418,-58.429 424,-58.429 430,-64.429 430,-70.429 430,-70.429 430,-82.429 430,-82.429 430,-88.429 424,-94.429 418,-94.429"/>
<text text-anchor="middle" x="403" y="-73.929" font-family="FreeSans" font-size="10.00" fill="#1c2021">V3</text>
</g>
<!-- S2&#45;&gt;V3 -->
<g id="edge8" class="edge"><title>S2&#45;&gt;V3</title>
<path fill="none" stroke="#2e3436" stroke-width="2" d="M340.403,-98.8279C349.271,-95.6031 359.282,-91.963 368.614,-88.5692"/>
<polygon fill="#2e3436" stroke="#2e3436" stroke-width="2" points="375.919,-85.913 370.024,-91.6479 372.566,-87.6645 369.041,-88.946 368.871,-88.4761 368.7,-88.0062 372.224,-86.7247 367.717,-85.3043 375.919,-85.913 375.919,-85.913"/>
</g>
<!-- S3&#45;&gt;S1 -->
<g id="edge9" class="edge"><title>S3&#45;&gt;S1</title>
<path fill="none" stroke="#2e3436" stroke-width="2" d="M160.403,-108.429C169.183,-108.429 179.083,-108.429 188.337,-108.429"/>
<polygon fill="#2e3436" stroke="#2e3436" stroke-width="2" points="195.919,-108.429 188.419,-111.804 192.169,-108.929 188.419,-108.929 188.419,-108.429 188.419,-107.929 192.169,-107.929 188.419,-105.054 195.919,-108.429 195.919,-108.429"/>
</g>
<!-- V4 -->
<g id="node8" class="node"><title>V4</title>
<path fill="#fadcad" stroke="#2e3436" stroke-width="1.5" d="M238,-61.429C238,-61.429 208,-61.429 208,-61.429 202,-61.429 196,-55.429 196,-49.429 196,-49.429 196,-37.429 196,-37.429 196,-31.429 202,-25.429 208,-25.429 208,-25.429 238,-25.429 238,-25.429 244,-25.429 250,-31.429 250,-37.429 250,-37.429 250,-49.429 250,-49.429 250,-55.429 244,-61.429 238,-61.429"/>
<text text-anchor="middle" x="223" y="-40.929" font-family="FreeSans" font-size="10.00" fill="#1c2021">V4</text>
</g>
<!-- S3&#45;&gt;V4 -->
<g id="edge6" class="edge"><title>S3&#45;&gt;V4</title>
<path fill="none" stroke="#2e3436" stroke-width="2" d="M158.513,-90.3229C168.716,-82.7865 180.671,-73.9561 191.438,-66.0029"/>
<polygon fill="#2e3436" stroke="#2e3436" stroke-width="2" points="197.619,-61.438 193.591,-68.6088 194.899,-64.0682 191.883,-66.2963 191.586,-65.8941 191.289,-65.4919 194.305,-63.2639 189.581,-63.1793 197.619,-61.438 197.619,-61.438"/>
</g>
</g>
</svg>
