<?xml version="1.0" encoding="UTF-8" standalone="no"?>
<!DOCTYPE svg PUBLIC "-//W3C//DTD SVG 1.1//EN"
 "http://www.w3.org/Graphics/SVG/1.1/DTD/svg11.dtd">
<!-- Generated by graphviz version 2.36.0 (20140111.2315)
 -->
<!-- Title: g Pages: 1 -->
<svg width="280pt" height="212pt"
 viewBox="0.00 0.00 280.00 212.00" xmlns="http://www.w3.org/2000/svg" xmlns:xlink="http://www.w3.org/1999/xlink">
<g id="graph0" class="graph" transform="scale(1 1) rotate(0) translate(4 208)">
<title>g</title>
<polygon fill="white" stroke="none" points="-4,4 -4,-208 276,-208 276,4 -4,4"/>
<!-- A Path -->
<g id="node1" class="node"><title>A Path</title>
<path fill="#a8e270" stroke="#2e3436" stroke-width="1.5" d="M122,-204C122,-204 92,-204 92,-204 86,-204 80,-198 80,-192 80,-192 80,-180 80,-180 80,-174 86,-168 92,-168 92,-168 122,-168 122,-168 128,-168 134,-174 134,-180 134,-180 134,-192 134,-192 134,-198 128,-204 122,-204"/>
<text text-anchor="middle" x="107" y="-183.5" font-family="FreeSans" font-size="10.00" fill="#1c2021">A Path</text>
</g>
<!-- Start Node -->
<g id="node2" class="node"><title>Start Node</title>
<path fill="#fadcad" stroke="#2e3436" stroke-width="1.5" d="M49.5,-120C49.5,-120 12.5,-120 12.5,-120 6.5,-120 0.5,-114 0.5,-108 0.5,-108 0.5,-96 0.5,-96 0.5,-90 6.5,-84 12.5,-84 12.5,-84 49.5,-84 49.5,-84 55.5,-84 61.5,-90 61.5,-96 61.5,-96 61.5,-108 61.5,-108 61.5,-114 55.5,-120 49.5,-120"/>
<text text-anchor="middle" x="31" y="-99.5" font-family="FreeSans" font-size="10.00" fill="#1c2021">Start Node</text>
</g>
<!-- A Path&#45;&gt;Start Node -->
<g id="edge1" class="edge"><title>A Path&#45;&gt;Start Node</title>
<path fill="none" stroke="#2e3436" stroke-width="2" d="M90.8352,-167.958C85.4607,-162.265 79.4561,-155.874 74,-150 66.683,-142.122 58.7221,-133.449 51.6615,-125.721"/>
<polygon fill="#2e3436" stroke="#2e3436" stroke-width="2" points="46.4633,-120.025 54.0118,-123.29 49.3604,-122.458 51.8882,-125.228 51.5188,-125.565 51.1495,-125.902 48.6217,-123.132 49.0258,-127.84 46.4633,-120.025 46.4633,-120.025"/>
<text text-anchor="middle" x="85.5" y="-141.5" font-family="FreeSans" font-size="10.00" fill="#1c2021">has a</text>
</g>
<!-- Relationship -->
<g id="node3" class="node"><title>Relationship</title>
<path fill="#fadcad" stroke="#2e3436" stroke-width="1.5" d="M148.25,-120C148.25,-120 103.75,-120 103.75,-120 97.75,-120 91.75,-114 91.75,-108 91.75,-108 91.75,-96 91.75,-96 91.75,-90 97.75,-84 103.75,-84 103.75,-84 148.25,-84 148.25,-84 154.25,-84 160.25,-90 160.25,-96 160.25,-96 160.25,-108 160.25,-108 160.25,-114 154.25,-120 148.25,-120"/>
<text text-anchor="middle" x="126" y="-99.5" font-family="FreeSans" font-size="10.00" fill="#1c2021">Relationship</text>
</g>
<!-- A Path&#45;&gt;Relationship -->
<g id="edge2" class="edge"><title>A Path&#45;&gt;Relationship</title>
<path fill="none" stroke="#2e3436" stroke-width="2" d="M103.744,-167.742C102.67,-158.727 102.34,-147.602 105,-138 106.037,-134.255 107.594,-130.508 109.4,-126.932"/>
<polygon fill="#2e3436" stroke="#2e3436" stroke-width="2" points="113.109,-120.311 112.388,-128.504 111.712,-123.827 109.88,-127.099 109.443,-126.854 109.007,-126.61 110.84,-123.338 106.499,-125.205 113.109,-120.311 113.109,-120.311"/>
<text text-anchor="middle" x="156.5" y="-141.5" font-family="FreeSans" font-size="10.00" fill="#1c2021">can contain one or more</text>
</g>
<!-- End Node -->
<g id="node5" class="node"><title>End Node</title>
<path fill="#fadcad" stroke="#2e3436" stroke-width="1.5" d="M260.5,-120C260.5,-120 227.5,-120 227.5,-120 221.5,-120 215.5,-114 215.5,-108 215.5,-108 215.5,-96 215.5,-96 215.5,-90 221.5,-84 227.5,-84 227.5,-84 260.5,-84 260.5,-84 266.5,-84 272.5,-90 272.5,-96 272.5,-96 272.5,-108 272.5,-108 272.5,-114 266.5,-120 260.5,-120"/>
<text text-anchor="middle" x="244" y="-99.5" font-family="FreeSans" font-size="10.00" fill="#1c2021">End Node</text>
</g>
<!-- A Path&#45;&gt;End Node -->
<g id="edge4" class="edge"><title>A Path&#45;&gt;End Node</title>
<path fill="none" stroke="#2e3436" stroke-width="2" d="M134.4,-180.672C156.76,-176.058 188.26,-166.989 211,-150 219.112,-143.94 225.982,-135.29 231.318,-127.06"/>
<polygon fill="#2e3436" stroke="#2e3436" stroke-width="2" points="235.433,-120.312 234.41,-128.472 233.907,-123.774 231.955,-126.975 231.528,-126.715 231.101,-126.455 233.054,-123.253 228.647,-124.958 235.433,-120.312 235.433,-120.312"/>
<text text-anchor="middle" x="238" y="-141.5" font-family="FreeSans" font-size="10.00" fill="#1c2021">has an</text>
</g>
<!-- Node -->
<g id="node4" class="node"><title>Node</title>
<path fill="#fadcad" stroke="#2e3436" stroke-width="1.5" d="M141,-36C141,-36 111,-36 111,-36 105,-36 99,-30 99,-24 99,-24 99,-12 99,-12 99,-6 105,-0 111,-0 111,-0 141,-0 141,-0 147,-0 153,-6 153,-12 153,-12 153,-24 153,-24 153,-30 147,-36 141,-36"/>
<text text-anchor="middle" x="126" y="-15.5" font-family="FreeSans" font-size="10.00" fill="#1c2021">Node</text>
</g>
<!-- Relationship&#45;&gt;Node -->
<g id="edge3" class="edge"><title>Relationship&#45;&gt;Node</title>
<path fill="none" stroke="#2e3436" stroke-width="2" d="M126,-83.6099C126,-72.0081 126,-56.5802 126,-43.7099"/>
<polygon fill="#2e3436" stroke="#2e3436" stroke-width="2" points="126,-36.0838 129.375,-43.5838 126.5,-39.8338 126.5,-43.5838 126,-43.5838 125.5,-43.5838 125.5,-39.8338 122.625,-43.5839 126,-36.0838 126,-36.0838"/>
<text text-anchor="middle" x="165" y="-57.5" font-family="FreeSans" font-size="10.00" fill="#1c2021">accompanied by a</text>
</g>
</g>
</svg>
