<?xml version="1.0" encoding="UTF-8" standalone="no"?>
<!DOCTYPE svg PUBLIC "-//W3C//DTD SVG 1.1//EN"
 "http://www.w3.org/Graphics/SVG/1.1/DTD/svg11.dtd">
<!-- Generated by graphviz version 2.38.0 (20140413.2041)
 -->
<!-- Title: g Pages: 1 -->
<svg width="168pt" height="210pt"
 viewBox="0.00 0.00 168.00 210.00" xmlns="http://www.w3.org/2000/svg" xmlns:xlink="http://www.w3.org/1999/xlink">
<g id="graph0" class="graph" transform="scale(1 1) rotate(0) translate(4 206)">
<title>g</title>
<polygon fill="white" stroke="none" points="-4,4 -4,-206 164,-206 164,4 -4,4"/>
<!-- Maja -->
<g id="node1" class="node"><title>Maja</title>
<path fill="#ffffff" stroke="#2e3436" stroke-width="1.5" d="M42,-202C42,-202 12,-202 12,-202 6,-202 0,-196 0,-190 0,-190 0,-178 0,-178 0,-172 6,-166 12,-166 12,-166 42,-166 42,-166 48,-166 54,-172 54,-178 54,-178 54,-190 54,-190 54,-196 48,-202 42,-202"/>
<text text-anchor="middle" x="27" y="-181.5" font-family="FreeSans" font-size="10.00" fill="#1c2021">Maja</text>
</g>
<!-- Oscar -->
<g id="node2" class="node"><title>Oscar</title>
<path fill="#ffffff" stroke="#2e3436" stroke-width="1.5" d="M84,-119C84,-119 54,-119 54,-119 48,-119 42,-113 42,-107 42,-107 42,-95 42,-95 42,-89 48,-83 54,-83 54,-83 84,-83 84,-83 90,-83 96,-89 96,-95 96,-95 96,-107 96,-107 96,-113 90,-119 84,-119"/>
<text text-anchor="middle" x="69" y="-98.5" font-family="FreeSans" font-size="10.00" fill="#1c2021">Oscar</text>
</g>
<!-- Maja&#45;&gt;Oscar -->
<g id="edge1" class="edge"><title>Maja&#45;&gt;Oscar</title>
<path fill="none" stroke="#2e3436" stroke-width="2" d="M9.15854,-165.689C2.3529,-156.949 -2.57227,-146.262 3,-137 10.0423,-125.294 22.4622,-117.296 34.6425,-111.936"/>
<polygon fill="#2e3436" stroke="#2e3436" stroke-width="2" points="41.7439,-109.077 36.0471,-115.009 38.452,-110.941 34.9734,-112.342 34.7866,-111.878 34.5999,-111.414 38.0785,-110.014 33.5261,-108.747 41.7439,-109.077 41.7439,-109.077"/>
<text text-anchor="middle" x="18" y="-140" font-family="FreeSans" font-size="10.00" fill="#1c2021">follows</text>
</g>
<!-- Oscar&#45;&gt;Maja -->
<g id="edge2" class="edge"><title>Oscar&#45;&gt;Maja</title>
<path fill="none" stroke="#2e3436" stroke-width="2" d="M60.1057,-119.153C54.0947,-130.746 46.0742,-146.214 39.4331,-159.022"/>
<polygon fill="#2e3436" stroke="#2e3436" stroke-width="2" points="35.9071,-165.822 36.3634,-157.61 37.1895,-162.263 38.9157,-158.934 39.3596,-159.164 39.8034,-159.394 38.0772,-162.723 42.3557,-160.717 35.9071,-165.822 35.9071,-165.822"/>
<text text-anchor="middle" x="65" y="-140" font-family="FreeSans" font-size="10.00" fill="#1c2021">follows</text>
</g>
<!-- William -->
<g id="node4" class="node"><title>William</title>
<path fill="#ffffff" stroke="#2e3436" stroke-width="1.5" d="M84,-36C84,-36 54,-36 54,-36 48,-36 42,-30 42,-24 42,-24 42,-12 42,-12 42,-6 48,-0 54,-0 54,-0 84,-0 84,-0 90,-0 96,-6 96,-12 96,-12 96,-24 96,-24 96,-30 90,-36 84,-36"/>
<text text-anchor="middle" x="69" y="-15.5" font-family="FreeSans" font-size="10.00" fill="#1c2021">William</text>
</g>
<!-- Oscar&#45;&gt;William -->
<g id="edge4" class="edge"><title>Oscar&#45;&gt;William</title>
<path fill="none" stroke="#a40000" stroke-width="2" d="M69,-82.822C69,-71.4386 69,-56.3263 69,-43.6649"/>
<polygon fill="#a40000" stroke="#a40000" stroke-width="2" points="69,-36.1533 72.3751,-43.6532 69.5,-39.9032 69.5001,-43.6532 69.0001,-43.6533 68.5001,-43.6533 68.5,-39.9033 65.6251,-43.6533 69,-36.1533 69,-36.1533"/>
<text text-anchor="middle" x="83" y="-57" font-family="FreeSans" font-size="10.00" fill="#a40000">blocks</text>
</g>
<!-- Alice -->
<g id="node3" class="node"><title>Alice</title>
<path fill="#ffffff" stroke="#2e3436" stroke-width="1.5" d="M148,-202C148,-202 118,-202 118,-202 112,-202 106,-196 106,-190 106,-190 106,-178 106,-178 106,-172 112,-166 118,-166 118,-166 148,-166 148,-166 154,-166 160,-172 160,-178 160,-178 160,-190 160,-190 160,-196 154,-202 148,-202"/>
<text text-anchor="middle" x="133" y="-181.5" font-family="FreeSans" font-size="10.00" fill="#1c2021">Alice</text>
</g>
<!-- Alice&#45;&gt;Oscar -->
<g id="edge3" class="edge"><title>Alice&#45;&gt;Oscar</title>
<path fill="none" stroke="#2e3436" stroke-width="2" d="M119.427,-165.822C110.094,-154.009 97.587,-138.18 87.3643,-125.242"/>
<polygon fill="#2e3436" stroke="#2e3436" stroke-width="2" points="82.5532,-119.153 89.8511,-122.946 85.2704,-121.786 87.5952,-124.728 87.2029,-125.038 86.8106,-125.348 84.4857,-122.406 84.5548,-127.13 82.5532,-119.153 82.5532,-119.153"/>
<text text-anchor="middle" x="119" y="-140" font-family="FreeSans" font-size="10.00" fill="#1c2021">follows</text>
</g>
</g>
</svg>
