<?xml version="1.0" encoding="UTF-8" standalone="no"?>
<!DOCTYPE svg PUBLIC "-//W3C//DTD SVG 1.1//EN"
 "http://www.w3.org/Graphics/SVG/1.1/DTD/svg11.dtd">
<!-- Generated by graphviz version 2.38.0 (20140413.2041)
 -->
<!-- Title: g Pages: 1 -->
<svg width="210pt" height="44pt"
 viewBox="0.00 0.00 210.00 44.00" xmlns="http://www.w3.org/2000/svg" xmlns:xlink="http://www.w3.org/1999/xlink">
<g id="graph0" class="graph" transform="scale(1 1) rotate(0) translate(4 40)">
<title>g</title>
<polygon fill="white" stroke="none" points="-4,4 -4,-40 206,-40 206,4 -4,4"/>
<!-- Start node -->
<g id="node1" class="node"><title>Start node</title>
<path fill="#ffffff" stroke="#2e3436" stroke-width="1.5" d="M49,-36C49,-36 12,-36 12,-36 6,-36 -3.55271e-15,-30 -3.55271e-15,-24 -3.55271e-15,-24 -3.55271e-15,-12 -3.55271e-15,-12 -3.55271e-15,-6 6,-0 12,-0 12,-0 49,-0 49,-0 55,-0 61,-6 61,-12 61,-12 61,-24 61,-24 61,-30 55,-36 49,-36"/>
<text text-anchor="middle" x="30.5" y="-15.5" font-family="FreeSans" font-size="10.00" fill="#1c2021">Start node</text>
</g>
<!-- End node -->
<g id="node2" class="node"><title>End node</title>
<path fill="#ffffff" stroke="#2e3436" stroke-width="1.5" d="M190,-36C190,-36 158,-36 158,-36 152,-36 146,-30 146,-24 146,-24 146,-12 146,-12 146,-6 152,-0 158,-0 158,-0 190,-0 190,-0 196,-0 202,-6 202,-12 202,-12 202,-24 202,-24 202,-30 196,-36 190,-36"/>
<text text-anchor="middle" x="174" y="-15.5" font-family="FreeSans" font-size="10.00" fill="#1c2021">End node</text>
</g>
<!-- Start node&#45;&gt;End node -->
<g id="edge1" class="edge"><title>Start node&#45;&gt;End node</title>
<path fill="none" stroke="#2e3436" stroke-width="2" d="M61.163,-18C83.5882,-18 114.441,-18 138.062,-18"/>
<polygon fill="#2e3436" stroke="#2e3436" stroke-width="2" points="145.772,-18 138.272,-21.3751 142.022,-18.5 138.272,-18.5001 138.272,-18.0001 138.272,-17.5001 142.022,-17.5 138.272,-14.6251 145.772,-18 145.772,-18"/>
<text text-anchor="middle" x="103.5" y="-21" font-family="FreeSans" font-size="10.00" fill="#1c2021">relationship</text>
</g>
</g>
</svg>
