<?xml version="1.0" encoding="UTF-8" standalone="no"?>
<!DOCTYPE svg PUBLIC "-//W3C//DTD SVG 1.1//EN"
 "http://www.w3.org/Graphics/SVG/1.1/DTD/svg11.dtd">
<!-- Generated by graphviz version 2.36.0 (20140111.2315)
 -->
<!-- Title: g Pages: 1 -->
<svg width="400pt" height="404pt"
 viewBox="0.00 0.00 400.04 404.00" xmlns="http://www.w3.org/2000/svg" xmlns:xlink="http://www.w3.org/1999/xlink">
<g id="graph0" class="graph" transform="scale(1 1) rotate(0) translate(4 400)">
<title>g</title>
<polygon fill="white" stroke="none" points="-4,4 -4,-400 396.038,-400 396.038,4 -4,4"/>
<!-- Graph Database -->
<g id="node1" class="node"><title>Graph Database</title>
<path fill="#a8e270" stroke="#2e3436" stroke-width="1.5" d="M113.038,-396C113.038,-396 51.0383,-396 51.0383,-396 45.0383,-396 39.0383,-390 39.0383,-384 39.0383,-384 39.0383,-372 39.0383,-372 39.0383,-366 45.0383,-360 51.0383,-360 51.0383,-360 113.038,-360 113.038,-360 119.038,-360 125.038,-366 125.038,-372 125.038,-372 125.038,-384 125.038,-384 125.038,-390 119.038,-396 113.038,-396"/>
<text text-anchor="middle" x="82.0383" y="-375.5" font-family="FreeSans" font-size="10.00" fill="#1c2021">Graph Database</text>
</g>
<!-- Graph -->
<g id="node2" class="node"><title>Graph</title>
<path fill="#95bbe3" stroke="#2e3436" stroke-width="1.5" d="M184.038,-312C184.038,-312 154.038,-312 154.038,-312 148.038,-312 142.038,-306 142.038,-300 142.038,-300 142.038,-288 142.038,-288 142.038,-282 148.038,-276 154.038,-276 154.038,-276 184.038,-276 184.038,-276 190.038,-276 196.038,-282 196.038,-288 196.038,-288 196.038,-300 196.038,-300 196.038,-306 190.038,-312 184.038,-312"/>
<text text-anchor="middle" x="169.038" y="-291.5" font-family="FreeSans" font-size="10.00" fill="#1c2021">Graph</text>
</g>
<!-- Graph Database&#45;&gt;Graph -->
<g id="edge4" class="edge"><title>Graph Database&#45;&gt;Graph</title>
<path fill="none" stroke="#a40000" stroke-width="2" d="M100.489,-359.61C113.495,-347.351 131.033,-330.821 145.113,-317.55"/>
<polygon fill="#a40000" stroke="#a40000" stroke-width="2" points="150.913,-312.084 147.77,-319.684 148.527,-315.02 145.798,-317.592 145.455,-317.228 145.112,-316.864 147.841,-314.292 143.14,-314.772 150.913,-312.084 150.913,-312.084"/>
<text text-anchor="middle" x="151.038" y="-333.5" font-family="FreeSans" font-size="10.00" fill="#a40000">manages</text>
</g>
<!-- Indexes -->
<g id="node3" class="node"><title>Indexes</title>
<path fill="#95bbe3" stroke="#2e3436" stroke-width="1.5" d="M42.0383,-312C42.0383,-312 12.0383,-312 12.0383,-312 6.03831,-312 0.0383149,-306 0.0383149,-300 0.0383149,-300 0.0383149,-288 0.0383149,-288 0.0383149,-282 6.03831,-276 12.0383,-276 12.0383,-276 42.0383,-276 42.0383,-276 48.0383,-276 54.0383,-282 54.0383,-288 54.0383,-288 54.0383,-300 54.0383,-300 54.0383,-306 48.0383,-312 42.0383,-312"/>
<text text-anchor="middle" x="27.0383" y="-291.5" font-family="FreeSans" font-size="10.00" fill="#1c2021">Indexes</text>
</g>
<!-- Graph Database&#45;&gt;Indexes -->
<g id="edge7" class="edge"><title>Graph Database&#45;&gt;Indexes</title>
<path fill="none" stroke="#a40000" stroke-width="2" d="M61.4045,-359.789C55.909,-354.491 50.3177,-348.366 46.0383,-342 41.472,-335.207 37.7159,-327.147 34.784,-319.637"/>
<polygon fill="#a40000" stroke="#a40000" stroke-width="2" points="32.1273,-312.377 37.8743,-318.26 33.8856,-315.727 35.1744,-319.248 34.7049,-319.42 34.2353,-319.592 32.9465,-316.07 31.5354,-320.58 32.1273,-312.377 32.1273,-312.377"/>
<text text-anchor="middle" x="66.0383" y="-333.5" font-family="FreeSans" font-size="10.00" fill="#a40000">manages</text>
</g>
<!-- Relationships -->
<g id="node4" class="node"><title>Relationships</title>
<path fill="#fadcad" stroke="#2e3436" stroke-width="1.5" d="M141.038,-204C141.038,-204 91.0383,-204 91.0383,-204 85.0383,-204 79.0383,-198 79.0383,-192 79.0383,-192 79.0383,-180 79.0383,-180 79.0383,-174 85.0383,-168 91.0383,-168 91.0383,-168 141.038,-168 141.038,-168 147.038,-168 153.038,-174 153.038,-180 153.038,-180 153.038,-192 153.038,-192 153.038,-198 147.038,-204 141.038,-204"/>
<text text-anchor="middle" x="116.038" y="-183.5" font-family="FreeSans" font-size="10.00" fill="#1c2021">Relationships</text>
</g>
<!-- Graph&#45;&gt;Relationships -->
<g id="edge6" class="edge"><title>Graph&#45;&gt;Relationships</title>
<path fill="none" stroke="#2e3436" stroke-width="2" d="M143.209,-275.725C137.39,-270.666 131.824,-264.676 128.038,-258 120.078,-243.961 117.095,-226.027 116.093,-211.695"/>
<polygon fill="#2e3436" stroke="#2e3436" stroke-width="2" points="115.721,-204.152 119.461,-211.476 116.405,-207.872 116.59,-211.618 116.091,-211.642 115.591,-211.667 115.406,-207.922 112.72,-211.809 115.721,-204.152 115.721,-204.152"/>
<text text-anchor="middle" x="159.538" y="-237.5" font-family="FreeSans" font-size="10.00" fill="#1c2021">records data in</text>
</g>
<!-- Nodes -->
<g id="node5" class="node"><title>Nodes</title>
<path fill="#fadcad" stroke="#2e3436" stroke-width="1.5" d="M151.038,-120C151.038,-120 121.038,-120 121.038,-120 115.038,-120 109.038,-114 109.038,-108 109.038,-108 109.038,-96 109.038,-96 109.038,-90 115.038,-84 121.038,-84 121.038,-84 151.038,-84 151.038,-84 157.038,-84 163.038,-90 163.038,-96 163.038,-96 163.038,-108 163.038,-108 163.038,-114 157.038,-120 151.038,-120"/>
<text text-anchor="middle" x="136.038" y="-99.5" font-family="FreeSans" font-size="10.00" fill="#1c2021">Nodes</text>
</g>
<!-- Graph&#45;&gt;Nodes -->
<g id="edge5" class="edge"><title>Graph&#45;&gt;Nodes</title>
<path fill="none" stroke="#2e3436" stroke-width="2" d="M184.616,-275.649C188.452,-270.349 192.033,-264.258 194.038,-258 198.921,-242.763 196.082,-237.869 194.038,-222 189.109,-183.724 191.475,-171.34 172.038,-138 169.502,-133.649 166.276,-129.479 162.802,-125.63"/>
<polygon fill="#2e3436" stroke="#2e3436" stroke-width="2" points="157.585,-120.236 165.225,-123.281 160.551,-122.584 163.159,-125.279 162.799,-125.627 162.44,-125.975 159.833,-123.279 160.373,-127.974 157.585,-120.236 157.585,-120.236"/>
<text text-anchor="middle" x="222.538" y="-183.5" font-family="FreeSans" font-size="10.00" fill="#1c2021">records data in</text>
</g>
<!-- Indexes&#45;&gt;Relationships -->
<g id="edge9" class="edge"><title>Indexes&#45;&gt;Relationships</title>
<path fill="none" stroke="#2e3436" stroke-width="2" d="M39.0768,-275.855C49.6337,-261.151 65.6574,-239.614 81.0383,-222 84.6133,-217.906 88.5583,-213.698 92.4722,-209.683"/>
<polygon fill="#2e3436" stroke="#2e3436" stroke-width="2" points="97.7524,-204.356 94.8695,-212.059 95.4676,-207.372 92.8276,-210.035 92.4725,-209.683 92.1174,-209.331 94.7573,-206.668 90.0755,-207.307 97.7524,-204.356 97.7524,-204.356"/>
<text text-anchor="middle" x="96.0383" y="-237.5" font-family="FreeSans" font-size="10.00" fill="#1c2021">map to</text>
</g>
<!-- Indexes&#45;&gt;Nodes -->
<g id="edge8" class="edge"><title>Indexes&#45;&gt;Nodes</title>
<path fill="none" stroke="#2e3436" stroke-width="2" d="M23.3704,-275.842C18.892,-250.379 14.1607,-201.95 34.0383,-168 41.9759,-154.443 75.4805,-134.528 101.953,-120.319"/>
<polygon fill="#2e3436" stroke="#2e3436" stroke-width="2" points="108.858,-116.655 103.815,-123.152 105.78,-118.854 102.468,-120.612 102.233,-120.17 101.999,-119.729 105.311,-117.971 100.651,-117.189 108.858,-116.655 108.858,-116.655"/>
<text text-anchor="middle" x="49.0383" y="-183.5" font-family="FreeSans" font-size="10.00" fill="#1c2021">map to</text>
</g>
<!-- Properties -->
<g id="node6" class="node"><title>Properties</title>
<path fill="#fadcad" stroke="#2e3436" stroke-width="1.5" d="M76.5383,-36C76.5383,-36 41.5383,-36 41.5383,-36 35.5383,-36 29.5383,-30 29.5383,-24 29.5383,-24 29.5383,-12 29.5383,-12 29.5383,-6 35.5383,-0 41.5383,-0 41.5383,-0 76.5383,-0 76.5383,-0 82.5383,-0 88.5383,-6 88.5383,-12 88.5383,-12 88.5383,-24 88.5383,-24 88.5383,-30 82.5383,-36 76.5383,-36"/>
<text text-anchor="middle" x="59.0383" y="-15.5" font-family="FreeSans" font-size="10.00" fill="#1c2021">Properties</text>
</g>
<!-- Indexes&#45;&gt;Properties -->
<g id="edge10" class="edge"><title>Indexes&#45;&gt;Properties</title>
<path fill="none" stroke="#2e3436" stroke-width="2" d="M18.9465,-275.899C16.6449,-270.313 14.3965,-264 13.0383,-258 1.2433,-205.894 -5.07242,-190.256 6.03831,-138 13.4126,-103.317 31.633,-66.483 44.6487,-43.1407"/>
<polygon fill="#2e3436" stroke="#2e3436" stroke-width="2" points="48.5033,-36.347 47.7376,-44.5357 47.0876,-39.8554 45.237,-43.117 44.8022,-42.8702 44.3673,-42.6235 46.2178,-39.3619 41.8667,-41.2048 48.5033,-36.347 48.5033,-36.347"/>
<text text-anchor="middle" x="26.5383" y="-141.5" font-family="FreeSans" font-size="10.00" fill="#1c2021">map from</text>
</g>
<!-- Relationships&#45;&gt;Nodes -->
<g id="edge1" class="edge"><title>Relationships&#45;&gt;Nodes</title>
<path fill="none" stroke="#2e3436" stroke-width="2" d="M120.28,-167.61C123.11,-156.008 126.872,-140.58 130.012,-127.71"/>
<polygon fill="#2e3436" stroke="#2e3436" stroke-width="2" points="131.872,-120.084 133.373,-128.17 131.469,-123.846 130.58,-127.489 130.094,-127.37 129.609,-127.252 130.497,-123.609 126.815,-126.57 131.872,-120.084 131.872,-120.084"/>
<text text-anchor="middle" x="146.538" y="-141.5" font-family="FreeSans" font-size="10.00" fill="#1c2021">organize</text>
</g>
<!-- Relationships&#45;&gt;Properties -->
<g id="edge3" class="edge"><title>Relationships&#45;&gt;Properties</title>
<path fill="none" stroke="#2e3436" stroke-width="2" d="M101.675,-167.973C91.9634,-155.5 79.7307,-137.721 73.0383,-120 63.6107,-95.0359 60.4315,-64.4518 59.411,-43.5219"/>
<polygon fill="#2e3436" stroke="#2e3436" stroke-width="2" points="59.117,-36.0049 62.7826,-43.3673 59.7632,-39.7325 59.9098,-43.4796 59.4102,-43.4992 58.9106,-43.5187 58.764,-39.7716 56.0378,-43.6311 59.117,-36.0049 59.117,-36.0049"/>
<text text-anchor="middle" x="83.5383" y="-99.5" font-family="FreeSans" font-size="10.00" fill="#1c2021">have</text>
</g>
<!-- Nodes&#45;&gt;Properties -->
<g id="edge2" class="edge"><title>Nodes&#45;&gt;Properties</title>
<path fill="none" stroke="#2e3436" stroke-width="2" d="M119.709,-83.6099C108.3,-71.4609 92.9524,-55.1163 80.5479,-41.9063"/>
<polygon fill="#2e3436" stroke="#2e3436" stroke-width="2" points="75.0805,-36.0838 82.6748,-39.2409 78.012,-38.4753 80.579,-41.209 80.2145,-41.5512 79.85,-41.8935 77.283,-39.1598 77.7542,-43.8615 75.0805,-36.0838 75.0805,-36.0838"/>
<text text-anchor="middle" x="113.538" y="-57.5" font-family="FreeSans" font-size="10.00" fill="#1c2021">have</text>
</g>
<!-- Traversal -->
<g id="node7" class="node"><title>Traversal</title>
<path fill="#fadcad" stroke="#2e3436" stroke-width="1.5" d="M305.538,-396C305.538,-396 274.538,-396 274.538,-396 268.538,-396 262.538,-390 262.538,-384 262.538,-384 262.538,-372 262.538,-372 262.538,-366 268.538,-360 274.538,-360 274.538,-360 305.538,-360 305.538,-360 311.538,-360 317.538,-366 317.538,-372 317.538,-372 317.538,-384 317.538,-384 317.538,-390 311.538,-396 305.538,-396"/>
<text text-anchor="middle" x="290.038" y="-375.5" font-family="FreeSans" font-size="10.00" fill="#1c2021">Traversal</text>
</g>
<!-- Traversal&#45;&gt;Graph -->
<g id="edge11" class="edge"><title>Traversal&#45;&gt;Graph</title>
<path fill="none" stroke="#2e3436" stroke-width="2" d="M262.265,-367.436C246.958,-361.435 228.07,-352.788 213.038,-342 203.776,-335.353 194.909,-326.541 187.594,-318.345"/>
<polygon fill="#2e3436" stroke="#2e3436" stroke-width="2" points="182.321,-312.244 189.778,-315.711 185.151,-314.754 187.603,-317.591 187.225,-317.918 186.846,-318.245 184.394,-315.408 184.671,-320.125 182.321,-312.244 182.321,-312.244"/>
<text text-anchor="middle" x="233.538" y="-333.5" font-family="FreeSans" font-size="10.00" fill="#1c2021">navigates</text>
</g>
<!-- Paths -->
<g id="node8" class="node"><title>Paths</title>
<path fill="#fadcad" stroke="#2e3436" stroke-width="1.5" d="M312.038,-258C312.038,-258 282.038,-258 282.038,-258 276.038,-258 270.038,-252 270.038,-246 270.038,-246 270.038,-234 270.038,-234 270.038,-228 276.038,-222 282.038,-222 282.038,-222 312.038,-222 312.038,-222 318.038,-222 324.038,-228 324.038,-234 324.038,-234 324.038,-246 324.038,-246 324.038,-252 318.038,-258 312.038,-258"/>
<text text-anchor="middle" x="297.038" y="-237.5" font-family="FreeSans" font-size="10.00" fill="#1c2021">Paths</text>
</g>
<!-- Traversal&#45;&gt;Paths -->
<g id="edge12" class="edge"><title>Traversal&#45;&gt;Paths</title>
<path fill="none" stroke="#2e3436" stroke-width="2" d="M287.11,-359.962C286.264,-354.269 285.456,-347.878 285.038,-342 283.182,-315.877 287.504,-286.123 291.469,-265.713"/>
<polygon fill="#2e3436" stroke="#2e3436" stroke-width="2" points="293.014,-258.109 294.828,-266.131 292.757,-261.883 292.01,-265.558 291.52,-265.459 291.03,-265.359 291.777,-261.684 288.213,-264.787 293.014,-258.109 293.014,-258.109"/>
<text text-anchor="middle" x="304.038" y="-333.5" font-family="FreeSans" font-size="10.00" fill="#1c2021">identifies</text>
</g>
<!-- Algorithm -->
<g id="node9" class="node"><title>Algorithm</title>
<path fill="#fadcad" stroke="#2e3436" stroke-width="1.5" d="M379.538,-312C379.538,-312 346.538,-312 346.538,-312 340.538,-312 334.538,-306 334.538,-300 334.538,-300 334.538,-288 334.538,-288 334.538,-282 340.538,-276 346.538,-276 346.538,-276 379.538,-276 379.538,-276 385.538,-276 391.538,-282 391.538,-288 391.538,-288 391.538,-300 391.538,-300 391.538,-306 385.538,-312 379.538,-312"/>
<text text-anchor="middle" x="363.038" y="-291.5" font-family="FreeSans" font-size="10.00" fill="#1c2021">Algorithm</text>
</g>
<!-- Traversal&#45;&gt;Algorithm -->
<g id="edge13" class="edge"><title>Traversal&#45;&gt;Algorithm</title>
<path fill="none" stroke="#2e3436" stroke-width="2" d="M311.681,-359.728C317.896,-354.337 324.487,-348.177 330.038,-342 336.494,-334.816 342.79,-326.339 348.122,-318.576"/>
<polygon fill="#2e3436" stroke="#2e3436" stroke-width="2" points="352.356,-312.267 350.979,-320.375 350.681,-315.659 348.591,-318.773 348.176,-318.494 347.761,-318.215 349.851,-315.102 345.374,-316.613 352.356,-312.267 352.356,-312.267"/>
<text text-anchor="middle" x="360.538" y="-333.5" font-family="FreeSans" font-size="10.00" fill="#1c2021">expresses</text>
</g>
<!-- Paths&#45;&gt;Nodes -->
<g id="edge14" class="edge"><title>Paths&#45;&gt;Nodes</title>
<path fill="none" stroke="#2e3436" stroke-width="2" d="M297.371,-221.755C296.854,-206.388 294.018,-183.931 283.038,-168 257.422,-130.832 205.484,-114.683 170.717,-107.83"/>
<polygon fill="#2e3436" stroke="#2e3436" stroke-width="2" points="163.142,-106.429 171.131,-104.474 166.92,-106.619 170.608,-107.301 170.517,-107.793 170.426,-108.285 166.739,-107.603 169.903,-111.112 163.142,-106.429 163.142,-106.429"/>
<text text-anchor="middle" x="306.038" y="-183.5" font-family="FreeSans" font-size="10.00" fill="#1c2021">order</text>
</g>
</g>
</svg>
