<?xml version="1.0" encoding="UTF-8" standalone="no"?>
<!DOCTYPE svg PUBLIC "-//W3C//DTD SVG 1.1//EN"
 "http://www.w3.org/Graphics/SVG/1.1/DTD/svg11.dtd">
<!-- Generated by graphviz version 2.38.0 (20140413.2041)
 -->
<!-- Title: g Pages: 1 -->
<svg width="96pt" height="127pt"
 viewBox="0.00 0.00 96.00 127.00" xmlns="http://www.w3.org/2000/svg" xmlns:xlink="http://www.w3.org/1999/xlink">
<g id="graph0" class="graph" transform="scale(1 1) rotate(0) translate(4 123)">
<title>g</title>
<polygon fill="white" stroke="none" points="-4,4 -4,-123 92,-123 92,4 -4,4"/>
<!-- Node 1 -->
<g id="node1" class="node"><title>Node 1</title>
<path fill="#ffffff" stroke="#2e3436" stroke-width="1.5" d="M42,-119C42,-119 12,-119 12,-119 6,-119 0,-113 0,-107 0,-107 0,-95 0,-95 0,-89 6,-83 12,-83 12,-83 42,-83 42,-83 48,-83 54,-89 54,-95 54,-95 54,-107 54,-107 54,-113 48,-119 42,-119"/>
<text text-anchor="middle" x="27" y="-98.5" font-family="FreeSans" font-size="10.00" fill="#1c2021">Node 1</text>
</g>
<!-- Node 2 -->
<g id="node2" class="node"><title>Node 2</title>
<path fill="#ffffff" stroke="#2e3436" stroke-width="1.5" d="M42,-36C42,-36 12,-36 12,-36 6,-36 0,-30 0,-24 0,-24 0,-12 0,-12 0,-6 6,-0 12,-0 12,-0 42,-0 42,-0 48,-0 54,-6 54,-12 54,-12 54,-24 54,-24 54,-30 48,-36 42,-36"/>
<text text-anchor="middle" x="27" y="-15.5" font-family="FreeSans" font-size="10.00" fill="#1c2021">Node 2</text>
</g>
<!-- Node 1&#45;&gt;Node 2 -->
<g id="edge1" class="edge"><title>Node 1&#45;&gt;Node 2</title>
<path fill="none" stroke="#2e3436" stroke-width="2" d="M27,-82.822C27,-71.4386 27,-56.3263 27,-43.6649"/>
<polygon fill="#2e3436" stroke="#2e3436" stroke-width="2" points="27,-36.1533 30.3751,-43.6532 27.5,-39.9032 27.5001,-43.6532 27.0001,-43.6533 26.5001,-43.6533 26.5,-39.9033 23.6251,-43.6533 27,-36.1533 27,-36.1533"/>
<text text-anchor="middle" x="57.5" y="-57" font-family="FreeSans" font-size="10.00" fill="#1c2021">Relationship 1</text>
</g>
</g>
</svg>
