<?xml version="1.0" encoding="UTF-8" standalone="no"?>
<!DOCTYPE svg PUBLIC "-//W3C//DTD SVG 1.1//EN"
 "http://www.w3.org/Graphics/SVG/1.1/DTD/svg11.dtd">
<!-- Generated by graphviz version 2.38.0 (20140413.2041)
 -->
<!-- Title: g Pages: 1 -->
<svg width="354pt" height="318pt"
 viewBox="0.00 0.00 354.00 318.00" xmlns="http://www.w3.org/2000/svg" xmlns:xlink="http://www.w3.org/1999/xlink">
<g id="graph0" class="graph" transform="scale(1 1) rotate(0) translate(4 314)">
<title>g</title>
<polygon fill="white" stroke="none" points="-4,4 -4,-314 350,-314 350,4 -4,4"/>
<!-- Traversal -->
<g id="node1" class="node"><title>Traversal</title>
<path fill="#a8e270" stroke="#2e3436" stroke-width="1.5" d="M260,-310C260,-310 228,-310 228,-310 222,-310 216,-304 216,-298 216,-298 216,-286 216,-286 216,-280 222,-274 228,-274 228,-274 260,-274 260,-274 266,-274 272,-280 272,-286 272,-286 272,-298 272,-298 272,-304 266,-310 260,-310"/>
<text text-anchor="middle" x="244" y="-289.5" font-family="FreeSans" font-size="10.00" fill="#1c2021">Traversal</text>
</g>
<!-- Graph -->
<g id="node2" class="node"><title>Graph</title>
<path fill="#95bbe3" stroke="#2e3436" stroke-width="1.5" d="M150,-227C150,-227 120,-227 120,-227 114,-227 108,-221 108,-215 108,-215 108,-203 108,-203 108,-197 114,-191 120,-191 120,-191 150,-191 150,-191 156,-191 162,-197 162,-203 162,-203 162,-215 162,-215 162,-221 156,-227 150,-227"/>
<text text-anchor="middle" x="135" y="-206.5" font-family="FreeSans" font-size="10.00" fill="#1c2021">Graph</text>
</g>
<!-- Traversal&#45;&gt;Graph -->
<g id="edge4" class="edge"><title>Traversal&#45;&gt;Graph</title>
<path fill="none" stroke="#a40000" stroke-width="2" d="M215.962,-282.39C200.388,-276.647 181.326,-267.94 167,-256 159.527,-249.771 153.009,-241.39 147.841,-233.488"/>
<polygon fill="#a40000" stroke="#a40000" stroke-width="2" points="143.826,-227.021 150.649,-231.612 146.229,-229.943 148.207,-233.129 147.782,-233.392 147.357,-233.656 145.379,-230.47 144.915,-235.173 143.826,-227.021 143.826,-227.021"/>
<text text-anchor="middle" x="187.5" y="-248" font-family="FreeSans" font-size="10.00" fill="#a40000">navigates</text>
</g>
<!-- Paths -->
<g id="node3" class="node"><title>Paths</title>
<path fill="#95bbe3" stroke="#2e3436" stroke-width="1.5" d="M265,-173C265,-173 235,-173 235,-173 229,-173 223,-167 223,-161 223,-161 223,-149 223,-149 223,-143 229,-137 235,-137 235,-137 265,-137 265,-137 271,-137 277,-143 277,-149 277,-149 277,-161 277,-161 277,-167 271,-173 265,-173"/>
<text text-anchor="middle" x="250" y="-152.5" font-family="FreeSans" font-size="10.00" fill="#1c2021">Paths</text>
</g>
<!-- Traversal&#45;&gt;Paths -->
<g id="edge5" class="edge"><title>Traversal&#45;&gt;Paths</title>
<path fill="none" stroke="#a40000" stroke-width="2" d="M241.072,-273.962C240.225,-268.269 239.418,-261.878 239,-256 237.175,-230.315 241.1,-201.048 244.758,-180.843"/>
<polygon fill="#a40000" stroke="#a40000" stroke-width="2" points="246.186,-173.306 248.106,-181.303 245.979,-177.084 245.281,-180.768 244.79,-180.675 244.298,-180.582 244.997,-176.897 241.474,-180.046 246.186,-173.306 246.186,-173.306"/>
<text text-anchor="middle" x="258" y="-248" font-family="FreeSans" font-size="10.00" fill="#a40000">identifies</text>
</g>
<!-- Algorithm -->
<g id="node4" class="node"><title>Algorithm</title>
<path fill="#95bbe3" stroke="#2e3436" stroke-width="1.5" d="M334,-227C334,-227 300,-227 300,-227 294,-227 288,-221 288,-215 288,-215 288,-203 288,-203 288,-197 294,-191 300,-191 300,-191 334,-191 334,-191 340,-191 346,-197 346,-203 346,-203 346,-215 346,-215 346,-221 340,-227 334,-227"/>
<text text-anchor="middle" x="317" y="-206.5" font-family="FreeSans" font-size="10.00" fill="#1c2021">Algorithm</text>
</g>
<!-- Traversal&#45;&gt;Algorithm -->
<g id="edge6" class="edge"><title>Traversal&#45;&gt;Algorithm</title>
<path fill="none" stroke="#a40000" stroke-width="2" d="M265.603,-273.692C271.817,-268.3 278.418,-262.149 284,-256 290.171,-249.203 296.232,-241.242 301.442,-233.871"/>
<polygon fill="#a40000" stroke="#a40000" stroke-width="2" points="305.966,-227.319 304.482,-235.408 304.246,-230.689 302.116,-233.775 301.704,-233.491 301.293,-233.206 303.424,-230.121 298.927,-231.573 305.966,-227.319 305.966,-227.319"/>
<text text-anchor="middle" x="313.5" y="-248" font-family="FreeSans" font-size="10.00" fill="#a40000">expresses</text>
</g>
<!-- Relationships -->
<g id="node5" class="node"><title>Relationships</title>
<path fill="#fadcad" stroke="#2e3436" stroke-width="1.5" d="M62,-119C62,-119 12,-119 12,-119 6,-119 0,-113 0,-107 0,-107 0,-95 0,-95 0,-89 6,-83 12,-83 12,-83 62,-83 62,-83 68,-83 74,-89 74,-95 74,-95 74,-107 74,-107 74,-113 68,-119 62,-119"/>
<text text-anchor="middle" x="37" y="-98.5" font-family="FreeSans" font-size="10.00" fill="#1c2021">Relationships</text>
</g>
<!-- Graph&#45;&gt;Relationships -->
<g id="edge3" class="edge"><title>Graph&#45;&gt;Relationships</title>
<path fill="none" stroke="#2e3436" stroke-width="2" d="M107.608,-204.453C87.6449,-200.363 61.6299,-191.615 47,-173 36.8756,-160.118 34.5187,-141.713 34.6184,-126.87"/>
<polygon fill="#2e3436" stroke="#2e3436" stroke-width="2" points="34.8927,-119.048 38.0027,-126.662 35.2609,-122.813 35.1294,-126.561 34.6297,-126.544 34.13,-126.526 34.2615,-122.778 31.2568,-126.425 34.8927,-119.048 34.8927,-119.048"/>
<text text-anchor="middle" x="78.5" y="-152.5" font-family="FreeSans" font-size="10.00" fill="#1c2021">records data in</text>
</g>
<!-- Nodes -->
<g id="node6" class="node"><title>Nodes</title>
<path fill="#fadcad" stroke="#2e3436" stroke-width="1.5" d="M207,-36C207,-36 177,-36 177,-36 171,-36 165,-30 165,-24 165,-24 165,-12 165,-12 165,-6 171,-0 177,-0 177,-0 207,-0 207,-0 213,-0 219,-6 219,-12 219,-12 219,-24 219,-24 219,-30 213,-36 207,-36"/>
<text text-anchor="middle" x="192" y="-15.5" font-family="FreeSans" font-size="10.00" fill="#1c2021">Nodes</text>
</g>
<!-- Graph&#45;&gt;Nodes -->
<g id="edge2" class="edge"><title>Graph&#45;&gt;Nodes</title>
<path fill="none" stroke="#2e3436" stroke-width="2" d="M134.384,-190.837C134.058,-166.189 135.539,-119.697 149,-83 154.367,-68.3669 163.748,-53.8052 172.38,-42.277"/>
<polygon fill="#2e3436" stroke="#2e3436" stroke-width="2" points="177.069,-36.2034 175.158,-44.2027 175.173,-39.4774 172.882,-42.4458 172.486,-42.1403 172.09,-41.8347 174.382,-38.8663 169.814,-40.0779 177.069,-36.2034 177.069,-36.2034"/>
<text text-anchor="middle" x="180.5" y="-98.5" font-family="FreeSans" font-size="10.00" fill="#1c2021">records data in</text>
</g>
<!-- Paths&#45;&gt;Nodes -->
<g id="edge7" class="edge"><title>Paths&#45;&gt;Nodes</title>
<path fill="none" stroke="#2e3436" stroke-width="2" d="M242.654,-136.902C232.512,-113.296 214.161,-70.5808 202.552,-43.5612"/>
<polygon fill="#2e3436" stroke="#2e3436" stroke-width="2" points="199.469,-36.3854 205.531,-41.9441 201.409,-39.6335 202.889,-43.079 202.43,-43.2764 201.971,-43.4738 200.49,-40.0283 199.329,-44.6087 199.469,-36.3854 199.469,-36.3854"/>
<text text-anchor="middle" x="245" y="-98.5" font-family="FreeSans" font-size="10.00" fill="#1c2021">order</text>
</g>
<!-- Relationships&#45;&gt;Nodes -->
<g id="edge1" class="edge"><title>Relationships&#45;&gt;Nodes</title>
<path fill="none" stroke="#2e3436" stroke-width="2" d="M46.6513,-82.9203C52.9796,-73.1511 62.0926,-61.4047 73,-54 98.3503,-36.7905 132.281,-27.8992 157.423,-23.3957"/>
<polygon fill="#2e3436" stroke="#2e3436" stroke-width="2" points="164.925,-22.1346 158.088,-26.7064 161.31,-23.2495 157.612,-23.8712 157.529,-23.3781 157.446,-22.885 161.144,-22.2633 156.969,-20.0498 164.925,-22.1346 164.925,-22.1346"/>
<text text-anchor="middle" x="91.5" y="-57" font-family="FreeSans" font-size="10.00" fill="#1c2021">organize</text>
</g>
</g>
</svg>
