<?xml version="1.0" encoding="UTF-8" standalone="no"?>
<!DOCTYPE svg PUBLIC "-//W3C//DTD SVG 1.1//EN"
 "http://www.w3.org/Graphics/SVG/1.1/DTD/svg11.dtd">
<!-- Generated by graphviz version 2.38.0 (20140413.2041)
 -->
<!-- Title: g Pages: 1 -->
<svg width="152pt" height="203pt"
 viewBox="0.00 0.00 152.00 203.00" xmlns="http://www.w3.org/2000/svg" xmlns:xlink="http://www.w3.org/1999/xlink">
<g id="graph0" class="graph" transform="scale(1 1) rotate(0) translate(4 199)">
<title>g</title>
<polygon fill="white" stroke="none" points="-4,4 -4,-199 148,-199 148,4 -4,4"/>
<!-- K -->
<g id="node1" class="node"><title>K</title>
<path fill="#a8e270" stroke="#2e3436" stroke-width="1.5" d="M12,-88C12,-88 42,-88 42,-88 48,-88 54,-94 54,-100 54,-100 54,-133 54,-133 54,-139 48,-145 42,-145 42,-145 12,-145 12,-145 6,-145 0,-139 0,-133 0,-133 0,-100 0,-100 0,-94 6,-88 12,-88"/>
<text text-anchor="middle" x="27" y="-133" font-family="FreeSans" font-size="10.00" fill="#1c2021">K1</text>
<polyline fill="none" stroke="#2e3436" stroke-width="1.5" points="0,-126 54,-126 "/>
<text text-anchor="middle" x="27" y="-114" font-family="FreeSans" font-size="10.00" fill="#1c2021">K2</text>
<polyline fill="none" stroke="#2e3436" stroke-width="1.5" points="0,-107 54,-107 "/>
<text text-anchor="middle" x="27" y="-95" font-family="FreeSans" font-size="10.00" fill="#1c2021">K3</text>
</g>
<!-- V1 -->
<g id="node2" class="node"><title>V1</title>
<path fill="#fadcad" stroke="#2e3436" stroke-width="1.5" d="M102,-156.5C102,-156.5 132,-156.5 132,-156.5 138,-156.5 144,-162.5 144,-168.5 144,-168.5 144,-182.5 144,-182.5 144,-188.5 138,-194.5 132,-194.5 132,-194.5 102,-194.5 102,-194.5 96,-194.5 90,-188.5 90,-182.5 90,-182.5 90,-168.5 90,-168.5 90,-162.5 96,-156.5 102,-156.5"/>
<text text-anchor="middle" x="117" y="-182.5" font-family="FreeSans" font-size="10.00" fill="#1c2021">V1</text>
<polyline fill="none" stroke="#2e3436" stroke-width="1.5" points="90,-175.5 144,-175.5 "/>
<text text-anchor="middle" x="117" y="-163.5" font-family="FreeSans" font-size="10.00" fill="#1c2021">K2</text>
</g>
<!-- K&#45;&gt;V1 -->
<g id="edge1" class="edge"><title>K:1&#45;&gt;V1:v</title>
<path fill="none" stroke="#2e3436" stroke-width="2" d="M54,-135.5C78.388,-135.5 66.17,-175.161 82.5504,-183.836"/>
<polygon fill="#2e3436" stroke="#2e3436" stroke-width="2" points="90,-185.5 81.9447,-187.159 86.2312,-185.171 82.5713,-184.353 82.6803,-183.865 82.7893,-183.377 86.4491,-184.195 83.4159,-180.571 90,-185.5 90,-185.5"/>
</g>
<!-- V2 -->
<g id="node3" class="node"><title>V2</title>
<path fill="#fadcad" stroke="#2e3436" stroke-width="1.5" d="M102,-69C102,-69 132,-69 132,-69 138,-69 144,-75 144,-81 144,-81 144,-114 144,-114 144,-120 138,-126 132,-126 132,-126 102,-126 102,-126 96,-126 90,-120 90,-114 90,-114 90,-81 90,-81 90,-75 96,-69 102,-69"/>
<text text-anchor="middle" x="117" y="-114" font-family="FreeSans" font-size="10.00" fill="#1c2021">V2</text>
<polyline fill="none" stroke="#2e3436" stroke-width="1.5" points="90,-107 144,-107 "/>
<text text-anchor="middle" x="117" y="-95" font-family="FreeSans" font-size="10.00" fill="#1c2021">K1</text>
<polyline fill="none" stroke="#2e3436" stroke-width="1.5" points="90,-88 144,-88 "/>
<text text-anchor="middle" x="117" y="-76" font-family="FreeSans" font-size="10.00" fill="#1c2021">K3</text>
</g>
<!-- K&#45;&gt;V2 -->
<g id="edge2" class="edge"><title>K:2&#45;&gt;V2:v</title>
<path fill="none" stroke="#2e3436" stroke-width="2" d="M54,-116.5C67.125,-116.5 72.175,-116.5 82.3981,-116.5"/>
<polygon fill="#2e3436" stroke="#2e3436" stroke-width="2" points="90,-116.5 82.5,-119.875 86.25,-117 82.5,-117 82.5,-116.5 82.5,-116 86.25,-116 82.5,-113.125 90,-116.5 90,-116.5"/>
</g>
<!-- V3 -->
<g id="node4" class="node"><title>V3</title>
<path fill="#fadcad" stroke="#2e3436" stroke-width="1.5" d="M102,-0.5C102,-0.5 132,-0.5 132,-0.5 138,-0.5 144,-6.5 144,-12.5 144,-12.5 144,-26.5 144,-26.5 144,-32.5 138,-38.5 132,-38.5 132,-38.5 102,-38.5 102,-38.5 96,-38.5 90,-32.5 90,-26.5 90,-26.5 90,-12.5 90,-12.5 90,-6.5 96,-0.5 102,-0.5"/>
<text text-anchor="middle" x="117" y="-26.5" font-family="FreeSans" font-size="10.00" fill="#1c2021">V3</text>
<polyline fill="none" stroke="#2e3436" stroke-width="1.5" points="90,-19.5 144,-19.5 "/>
<text text-anchor="middle" x="117" y="-7.5" font-family="FreeSans" font-size="10.00" fill="#1c2021">K1</text>
</g>
<!-- K&#45;&gt;V3 -->
<g id="edge3" class="edge"><title>K:3&#45;&gt;V3:v</title>
<path fill="none" stroke="#2e3436" stroke-width="2" d="M54,-97.5C85.2575,-97.5 60.8794,-40.6853 82.5746,-30.9203"/>
<polygon fill="#2e3436" stroke="#2e3436" stroke-width="2" points="90,-29.5 83.2676,-34.224 86.4107,-30.6956 82.7275,-31.4002 82.6335,-30.9091 82.5396,-30.418 86.2228,-29.7134 81.9995,-27.5942 90,-29.5 90,-29.5"/>
</g>
</g>
</svg>
