<?xml version="1.0" encoding="UTF-8" standalone="no"?>
<!DOCTYPE svg PUBLIC "-//W3C//DTD SVG 1.1//EN"
 "http://www.w3.org/Graphics/SVG/1.1/DTD/svg11.dtd">
<!-- Generated by graphviz version 2.38.0 (20140413.2041)
 -->
<!-- Title: g Pages: 1 -->
<svg width="142pt" height="136pt"
 viewBox="0.00 0.00 141.50 136.00" xmlns="http://www.w3.org/2000/svg" xmlns:xlink="http://www.w3.org/1999/xlink">
<g id="graph0" class="graph" transform="scale(1 1) rotate(0) translate(4 132)">
<title>g</title>
<polygon fill="white" stroke="none" points="-4,4 -4,-132 137.5,-132 137.5,4 -4,4"/>
<!-- N0 -->
<g id="node1" class="node"><title>N0</title>
<path fill="#ffffff" stroke="#2e3436" stroke-width="1.5" d="M13,-91.5C13,-91.5 72,-91.5 72,-91.5 78,-91.5 84,-97.5 84,-103.5 84,-103.5 84,-115.5 84,-115.5 84,-121.5 78,-127.5 72,-127.5 72,-127.5 13,-127.5 13,-127.5 7,-127.5 1,-121.5 1,-115.5 1,-115.5 1,-103.5 1,-103.5 1,-97.5 7,-91.5 13,-91.5"/>
<text text-anchor="start" x="9" y="-107.6" font-family="FreeSans" font-size="8.00" fill="#1c2021">message = &#39;Hello, &#39;</text>
</g>
<!-- N1 -->
<g id="node2" class="node"><title>N1</title>
<path fill="#ffffff" stroke="#2e3436" stroke-width="1.5" d="M12,-0.5C12,-0.5 73,-0.5 73,-0.5 79,-0.5 85,-6.5 85,-12.5 85,-12.5 85,-24.5 85,-24.5 85,-30.5 79,-36.5 73,-36.5 73,-36.5 12,-36.5 12,-36.5 6,-36.5 0,-30.5 0,-24.5 0,-24.5 0,-12.5 0,-12.5 0,-6.5 6,-0.5 12,-0.5"/>
<text text-anchor="start" x="8" y="-16.6" font-family="FreeSans" font-size="8.00" fill="#1c2021">message = &#39;World!&#39;</text>
</g>
<!-- N0&#45;&gt;N1 -->
<g id="edge1" class="edge"><title>N0&#45;&gt;N1</title>
<path fill="none" stroke="#2e3436" stroke-width="2" d="M42.5,-91.3399C42.5,-78.0425 42.5,-59.4274 42.5,-44.4783"/>
<polygon fill="#2e3436" stroke="#2e3436" stroke-width="2" points="42.5,-36.6074 45.8751,-44.1074 43,-40.3574 43.0001,-44.1074 42.5001,-44.1074 42.0001,-44.1074 42,-40.3574 39.1251,-44.1075 42.5,-36.6074 42.5,-36.6074"/>
<text text-anchor="middle" x="88" y="-66.6" font-family="FreeSans" font-size="8.00" fill="#2e3436">KNOWS</text>
<text text-anchor="start" x="42.5" y="-57.6" font-family="FreeSans" font-size="8.00" fill="#2e3436">message = &#39;brave Neo4j &#39;</text>
</g>
</g>
</svg>
