<?xml version="1.0" encoding="UTF-8" standalone="no"?>
<!DOCTYPE svg PUBLIC "-//W3C//DTD SVG 1.1//EN"
 "http://www.w3.org/Graphics/SVG/1.1/DTD/svg11.dtd">
<!-- Generated by graphviz version 2.36.0 (20140111.2315)
 -->
<!-- Title: g Pages: 1 -->
<svg width="141pt" height="138pt"
 viewBox="0.00 0.00 141.00 138.00" xmlns="http://www.w3.org/2000/svg" xmlns:xlink="http://www.w3.org/1999/xlink">
<g id="graph0" class="graph" transform="scale(1 1) rotate(0) translate(4 134)">
<title>g</title>
<polygon fill="white" stroke="none" points="-4,4 -4,-134 137,-134 137,4 -4,4"/>
<!-- N0 -->
<g id="node1" class="node"><title>N0</title>
<path fill="#ffffff" stroke="#2e3436" stroke-width="1.5" d="M12.5,-93C12.5,-93 71.5,-93 71.5,-93 77.5,-93 83.5,-99 83.5,-105 83.5,-105 83.5,-117 83.5,-117 83.5,-123 77.5,-129 71.5,-129 71.5,-129 12.5,-129 12.5,-129 6.5,-129 0.5,-123 0.5,-117 0.5,-117 0.5,-105 0.5,-105 0.5,-99 6.5,-93 12.5,-93"/>
<text text-anchor="start" x="8.5" y="-109.1" font-family="FreeSans" font-size="8.00" fill="#1c2021">message = &#39;Hello, &#39;</text>
</g>
<!-- N1 -->
<g id="node2" class="node"><title>N1</title>
<path fill="#ffffff" stroke="#2e3436" stroke-width="1.5" d="M11.5,-1C11.5,-1 72.5,-1 72.5,-1 78.5,-1 84.5,-7 84.5,-13 84.5,-13 84.5,-25 84.5,-25 84.5,-31 78.5,-37 72.5,-37 72.5,-37 11.5,-37 11.5,-37 5.5,-37 -0.5,-31 -0.5,-25 -0.5,-25 -0.5,-13 -0.5,-13 -0.5,-7 5.5,-1 11.5,-1"/>
<text text-anchor="start" x="7.5" y="-17.1" font-family="FreeSans" font-size="8.00" fill="#1c2021">message = &#39;World!&#39;</text>
</g>
<!-- N0&#45;&gt;N1 -->
<g id="edge1" class="edge"><title>N0&#45;&gt;N1</title>
<path fill="none" stroke="#2e3436" stroke-width="2" d="M42,-92.6471C42,-79.0758 42,-60.027 42,-44.84"/>
<polygon fill="#2e3436" stroke="#2e3436" stroke-width="2" points="42,-37.2996 45.3751,-44.7996 42.5,-41.0496 42.5001,-44.7996 42.0001,-44.7996 41.5001,-44.7996 41.5,-41.0496 38.6251,-44.7997 42,-37.2996 42,-37.2996"/>
<text text-anchor="middle" x="87.5" y="-67.6" font-family="FreeSans" font-size="8.00" fill="#2e3436">KNOWS</text>
<text text-anchor="start" x="42" y="-58.6" font-family="FreeSans" font-size="8.00" fill="#2e3436">message = &#39;brave Neo4j &#39;</text>
</g>
</g>
</svg>
