<?xml version="1.0" encoding="UTF-8" standalone="no"?>
<!DOCTYPE svg PUBLIC "-//W3C//DTD SVG 1.1//EN"
 "http://www.w3.org/Graphics/SVG/1.1/DTD/svg11.dtd">
<!-- Generated by graphviz version 2.38.0 (20140413.2041)
 -->
<!-- Title: g Pages: 1 -->
<svg width="504pt" height="125pt"
 viewBox="0.00 0.00 504.00 125.23" xmlns="http://www.w3.org/2000/svg" xmlns:xlink="http://www.w3.org/1999/xlink">
<g id="graph0" class="graph" transform="scale(0.556599 0.556599) rotate(0) translate(4 221)">
<title>g</title>
<polygon fill="white" stroke="none" points="-4,4 -4,-221 901.5,-221 901.5,4 -4,4"/>
<!-- N0 -->
<g id="node1" class="node"><title>N0</title>
<path fill="#ffffff" stroke="#2e3436" stroke-width="1.5" d="M12,-98.5C12,-98.5 81,-98.5 81,-98.5 87,-98.5 93,-104.5 93,-110.5 93,-110.5 93,-122.5 93,-122.5 93,-128.5 87,-134.5 81,-134.5 81,-134.5 12,-134.5 12,-134.5 6,-134.5 0,-128.5 0,-122.5 0,-122.5 0,-110.5 0,-110.5 0,-104.5 6,-98.5 12,-98.5"/>
<text text-anchor="middle" x="46.5" y="-123.6" font-family="FreeSans" font-size="8.00" fill="#1c2021">Person</text>
<polyline fill="none" stroke="#2e3436" stroke-width="1.5" points="0,-116.5 93,-116.5 "/>
<text text-anchor="start" x="8" y="-105.6" font-family="FreeSans" font-size="8.00" fill="#1c2021">name = &#39;Oliver Stone&#39;</text>
</g>
<!-- N4 -->
<g id="node2" class="node"><title>N4</title>
<path fill="#ffffff" stroke="#2e3436" stroke-width="1.5" d="M170.5,-0.5C170.5,-0.5 232.5,-0.5 232.5,-0.5 238.5,-0.5 244.5,-6.5 244.5,-12.5 244.5,-12.5 244.5,-31.5 244.5,-31.5 244.5,-37.5 238.5,-43.5 232.5,-43.5 232.5,-43.5 170.5,-43.5 170.5,-43.5 164.5,-43.5 158.5,-37.5 158.5,-31.5 158.5,-31.5 158.5,-12.5 158.5,-12.5 158.5,-6.5 164.5,-0.5 170.5,-0.5"/>
<text text-anchor="middle" x="201.5" y="-33.1" font-family="FreeSans" font-size="8.00" fill="#1c2021">Movie</text>
<polyline fill="none" stroke="#2e3436" stroke-width="1.5" points="158.5,-26.5 244.5,-26.5 "/>
<text text-anchor="start" x="166.5" y="-16.1" font-family="FreeSans" font-size="8.00" fill="#1c2021">name = &#39;WallStreet&#39;</text>
<text text-anchor="start" x="166.5" y="-7.1" font-family="FreeSans" font-size="8.00" fill="#1c2021">title = &#39;Wall Street&#39;</text>
</g>
<!-- N0&#45;&gt;N4 -->
<g id="edge1" class="edge"><title>N0&#45;&gt;N4</title>
<path fill="none" stroke="#2e3436" stroke-width="2" d="M55.6022,-98.3755C62.6294,-86.6438 73.3605,-71.5375 86.5,-62 105.501,-48.2078 129.734,-39.0348 151.051,-33.0723"/>
<polygon fill="#2e3436" stroke="#2e3436" stroke-width="2" points="158.456,-31.0948 152.081,-36.2906 154.962,-32.5454 151.339,-33.5129 151.21,-33.0299 151.081,-32.5468 154.704,-31.5793 150.339,-29.7691 158.456,-31.0948 158.456,-31.0948"/>
<text text-anchor="middle" x="108" y="-69.1" font-family="FreeSans" font-size="8.00" fill="#2e3436">DIRECTED</text>
</g>
<!-- N1 -->
<g id="node3" class="node"><title>N1</title>
<path fill="#ffffff" stroke="#2e3436" stroke-width="1.5" d="M399.5,-180.5C399.5,-180.5 475.5,-180.5 475.5,-180.5 481.5,-180.5 487.5,-186.5 487.5,-192.5 487.5,-192.5 487.5,-204.5 487.5,-204.5 487.5,-210.5 481.5,-216.5 475.5,-216.5 475.5,-216.5 399.5,-216.5 399.5,-216.5 393.5,-216.5 387.5,-210.5 387.5,-204.5 387.5,-204.5 387.5,-192.5 387.5,-192.5 387.5,-186.5 393.5,-180.5 399.5,-180.5"/>
<text text-anchor="middle" x="437.5" y="-205.6" font-family="FreeSans" font-size="8.00" fill="#1c2021">Person</text>
<polyline fill="none" stroke="#2e3436" stroke-width="1.5" points="387.5,-198.5 487.5,-198.5 "/>
<text text-anchor="start" x="395.5" y="-187.6" font-family="FreeSans" font-size="8.00" fill="#1c2021">name = &#39;Charlie Sheen&#39;</text>
</g>
<!-- N1&#45;&gt;N4 -->
<g id="edge2" class="edge"><title>N1&#45;&gt;N4</title>
<path fill="none" stroke="#4e9a06" stroke-width="2" d="M387.293,-193.295C316.444,-186.201 192.702,-169.161 165.5,-135 145.763,-110.213 163.168,-74.3371 179.947,-49.9149"/>
<polygon fill="#4e9a06" stroke="#4e9a06" stroke-width="2" points="184.403,-43.6582 182.801,-51.7251 182.635,-47.0028 180.459,-50.0572 180.052,-49.7672 179.645,-49.4771 181.82,-46.4226 177.303,-47.8092 184.403,-43.6582 184.403,-43.6582"/>
<text text-anchor="middle" x="186" y="-114.6" font-family="FreeSans" font-size="8.00" fill="#4e9a06">ACTED_IN</text>
</g>
<!-- N2 -->
<g id="node4" class="node"><title>N2</title>
<path fill="#ffffff" stroke="#2e3436" stroke-width="1.5" d="M504,-98.5C504,-98.5 577,-98.5 577,-98.5 583,-98.5 589,-104.5 589,-110.5 589,-110.5 589,-122.5 589,-122.5 589,-128.5 583,-134.5 577,-134.5 577,-134.5 504,-134.5 504,-134.5 498,-134.5 492,-128.5 492,-122.5 492,-122.5 492,-110.5 492,-110.5 492,-104.5 498,-98.5 504,-98.5"/>
<text text-anchor="middle" x="540.5" y="-123.6" font-family="FreeSans" font-size="8.00" fill="#1c2021">Person</text>
<polyline fill="none" stroke="#2e3436" stroke-width="1.5" points="492,-116.5 589,-116.5 "/>
<text text-anchor="start" x="500" y="-105.6" font-family="FreeSans" font-size="8.00" fill="#1c2021">name = &#39;Martin Sheen&#39;</text>
</g>
<!-- N1&#45;&gt;N2 -->
<g id="edge3" class="edge"><title>N1&#45;&gt;N2</title>
<path fill="none" stroke="#a40000" stroke-width="2" d="M459.596,-180.338C474.938,-168.422 495.516,-152.439 512.079,-139.575"/>
<polygon fill="#a40000" stroke="#a40000" stroke-width="2" points="518.44,-134.634 514.587,-141.9 515.786,-137.329 512.824,-139.629 512.517,-139.234 512.21,-138.839 515.172,-136.539 510.447,-136.569 518.44,-134.634 518.44,-134.634"/>
<text text-anchor="middle" x="509.5" y="-155.6" font-family="FreeSans" font-size="8.00" fill="#a40000">FATHER</text>
</g>
<!-- N7 -->
<g id="node5" class="node"><title>N7</title>
<path fill="#ffffff" stroke="#2e3436" stroke-width="1.5" d="M788.5,-4C788.5,-4 820.5,-4 820.5,-4 826.5,-4 832.5,-10 832.5,-16 832.5,-16 832.5,-28 832.5,-28 832.5,-34 826.5,-40 820.5,-40 820.5,-40 788.5,-40 788.5,-40 782.5,-40 776.5,-34 776.5,-28 776.5,-28 776.5,-16 776.5,-16 776.5,-10 782.5,-4 788.5,-4"/>
<text text-anchor="middle" x="804.5" y="-29.1" font-family="FreeSans" font-size="8.00" fill="#1c2021">Unblocked</text>
<polyline fill="none" stroke="#2e3436" stroke-width="1.5" points="776.5,-22 832.5,-22 "/>
<text text-anchor="middle" x="804.5" y="-11.1" font-family="FreeSans" font-size="8.00" fill="#1c2021"> </text>
</g>
<!-- N1&#45;&gt;N7 -->
<g id="edge4" class="edge"><title>N1&#45;&gt;N7</title>
<path fill="none" stroke="#204a87" stroke-width="2" d="M487.714,-197.295C583.945,-195.72 788.702,-186.273 832.5,-135 853.681,-110.204 836.628,-71.6862 821.385,-46.9043"/>
<polygon fill="#204a87" stroke="#204a87" stroke-width="2" points="817.168,-40.3015 824.049,-44.8051 819.608,-43.1926 821.627,-46.3528 821.205,-46.622 820.784,-46.8912 818.765,-43.731 818.361,-48.4389 817.168,-40.3015 817.168,-40.3015"/>
<text text-anchor="middle" x="870" y="-119.1" font-family="FreeSans" font-size="8.00" fill="#204a87">X</text>
<text text-anchor="start" x="842.5" y="-110.1" font-family="FreeSans" font-size="8.00" fill="#204a87">blocked = false</text>
</g>
<!-- N8 -->
<g id="node6" class="node"><title>N8</title>
<path fill="#ffffff" stroke="#2e3436" stroke-width="1.5" d="M409.5,-4C409.5,-4 439.5,-4 439.5,-4 445.5,-4 451.5,-10 451.5,-16 451.5,-16 451.5,-28 451.5,-28 451.5,-34 445.5,-40 439.5,-40 439.5,-40 409.5,-40 409.5,-40 403.5,-40 397.5,-34 397.5,-28 397.5,-28 397.5,-16 397.5,-16 397.5,-10 403.5,-4 409.5,-4"/>
<text text-anchor="middle" x="424.5" y="-29.1" font-family="FreeSans" font-size="8.00" fill="#1c2021">Blocked</text>
<polyline fill="none" stroke="#2e3436" stroke-width="1.5" points="397.5,-22 451.5,-22 "/>
<text text-anchor="middle" x="424.5" y="-11.1" font-family="FreeSans" font-size="8.00" fill="#1c2021"> </text>
</g>
<!-- N1&#45;&gt;N8 -->
<g id="edge5" class="edge"><title>N1&#45;&gt;N8</title>
<path fill="none" stroke="#204a87" stroke-width="2" d="M421.616,-180.458C402.777,-158.965 372.428,-119.964 360.5,-80 358.212,-72.3342 356.582,-68.9751 360.5,-62 367.105,-50.2406 378.854,-41.6101 390.498,-35.5026"/>
<polygon fill="#204a87" stroke="#204a87" stroke-width="2" points="397.302,-32.1936 392.034,-38.5088 394.149,-34.2833 390.776,-35.9233 390.558,-35.4737 390.339,-35.024 393.711,-33.384 389.082,-32.4386 397.302,-32.1936 397.302,-32.1936"/>
<text text-anchor="middle" x="412.5" y="-119.1" font-family="FreeSans" font-size="8.00" fill="#204a87">X</text>
<text text-anchor="start" x="386.5" y="-110.1" font-family="FreeSans" font-size="8.00" fill="#204a87">blocked = true</text>
</g>
<!-- N2&#45;&gt;N4 -->
<g id="edge7" class="edge"><title>N2&#45;&gt;N4</title>
<path fill="none" stroke="#4e9a06" stroke-width="2" d="M491.692,-104.967C461.781,-98.2971 422.782,-89.2173 388.5,-80 341.948,-67.4838 289.49,-51.3104 252.008,-39.3906"/>
<polygon fill="#4e9a06" stroke="#4e9a06" stroke-width="2" points="244.718,-37.0657 252.889,-36.129 248.443,-37.7287 252.015,-38.8681 251.863,-39.3445 251.712,-39.8208 248.139,-38.6815 250.838,-42.5599 244.718,-37.0657 244.718,-37.0657"/>
<text text-anchor="middle" x="409" y="-69.1" font-family="FreeSans" font-size="8.00" fill="#4e9a06">ACTED_IN</text>
</g>
<!-- N2&#45;&gt;N7 -->
<g id="edge8" class="edge"><title>N2&#45;&gt;N7</title>
<path fill="none" stroke="#204a87" stroke-width="2" d="M589.2,-102.399C610.663,-96.2286 636.055,-88.3855 658.5,-80 676.762,-73.1773 680.452,-69.3703 698.5,-62 721.884,-52.4506 748.573,-42.6371 769.321,-35.2429"/>
<polygon fill="#204a87" stroke="#204a87" stroke-width="2" points="776.396,-32.7329 770.456,-38.4212 773.029,-34.4579 769.495,-35.7116 769.328,-35.2404 769.161,-34.7692 772.695,-33.5154 768.2,-32.0596 776.396,-32.7329 776.396,-32.7329"/>
<text text-anchor="middle" x="726" y="-73.6" font-family="FreeSans" font-size="8.00" fill="#204a87">X</text>
<text text-anchor="start" x="698.5" y="-64.6" font-family="FreeSans" font-size="8.00" fill="#204a87">blocked = false</text>
</g>
<!-- N2&#45;&gt;N8 -->
<g id="edge9" class="edge"><title>N2&#45;&gt;N8</title>
<path fill="none" stroke="#204a87" stroke-width="2" d="M533.091,-98.2703C527.447,-86.7912 518.736,-72.0282 507.5,-62 493.594,-49.5886 475.049,-40.3728 459.016,-34.0254"/>
<polygon fill="#204a87" stroke="#204a87" stroke-width="2" points="451.852,-31.3097 460.061,-30.8123 455.536,-32.1714 459.042,-33.5007 458.865,-33.9682 458.688,-34.4357 455.181,-33.1065 457.669,-37.1241 451.852,-31.3097 451.852,-31.3097"/>
<text text-anchor="middle" x="550" y="-73.6" font-family="FreeSans" font-size="8.00" fill="#204a87">X</text>
<text text-anchor="start" x="522.5" y="-64.6" font-family="FreeSans" font-size="8.00" fill="#204a87">blocked = false</text>
</g>
<!-- N3 -->
<g id="node7" class="node"><title>N3</title>
<path fill="#ffffff" stroke="#2e3436" stroke-width="1.5" d="M576,-0.5C576,-0.5 683,-0.5 683,-0.5 689,-0.5 695,-6.5 695,-12.5 695,-12.5 695,-31.5 695,-31.5 695,-37.5 689,-43.5 683,-43.5 683,-43.5 576,-43.5 576,-43.5 570,-43.5 564,-37.5 564,-31.5 564,-31.5 564,-12.5 564,-12.5 564,-6.5 570,-0.5 576,-0.5"/>
<text text-anchor="middle" x="629.5" y="-33.1" font-family="FreeSans" font-size="8.00" fill="#1c2021">Movie</text>
<polyline fill="none" stroke="#2e3436" stroke-width="1.5" points="564,-26.5 695,-26.5 "/>
<text text-anchor="start" x="572" y="-16.1" font-family="FreeSans" font-size="8.00" fill="#1c2021">name = &#39;TheAmericanPresident&#39;</text>
<text text-anchor="start" x="572" y="-7.1" font-family="FreeSans" font-size="8.00" fill="#1c2021">title = &#39;The American President&#39;</text>
</g>
<!-- N2&#45;&gt;N3 -->
<g id="edge6" class="edge"><title>N2&#45;&gt;N3</title>
<path fill="none" stroke="#4e9a06" stroke-width="2" d="M573.297,-98.4017C581.47,-93.1925 589.802,-86.9733 596.5,-80 604.738,-71.4238 611.729,-60.4085 617.127,-50.3513"/>
<polygon fill="#4e9a06" stroke="#4e9a06" stroke-width="2" points="620.605,-43.5835 620.178,-51.7969 619.335,-47.1474 617.621,-50.4828 617.176,-50.2542 616.732,-50.0257 618.446,-46.6903 614.175,-48.7116 620.605,-43.5835 620.605,-43.5835"/>
<text text-anchor="middle" x="631" y="-69.1" font-family="FreeSans" font-size="8.00" fill="#4e9a06">ACTED_IN</text>
</g>
<!-- N5 -->
<g id="node8" class="node"><title>N5</title>
<path fill="#ffffff" stroke="#2e3436" stroke-width="1.5" d="M740.5,-98.5C740.5,-98.5 806.5,-98.5 806.5,-98.5 812.5,-98.5 818.5,-104.5 818.5,-110.5 818.5,-110.5 818.5,-122.5 818.5,-122.5 818.5,-128.5 812.5,-134.5 806.5,-134.5 806.5,-134.5 740.5,-134.5 740.5,-134.5 734.5,-134.5 728.5,-128.5 728.5,-122.5 728.5,-122.5 728.5,-110.5 728.5,-110.5 728.5,-104.5 734.5,-98.5 740.5,-98.5"/>
<text text-anchor="middle" x="773.5" y="-123.6" font-family="FreeSans" font-size="8.00" fill="#1c2021">Person</text>
<polyline fill="none" stroke="#2e3436" stroke-width="1.5" points="728.5,-116.5 818.5,-116.5 "/>
<text text-anchor="start" x="736.5" y="-105.6" font-family="FreeSans" font-size="8.00" fill="#1c2021">name = &#39;Rob Reiner&#39;</text>
</g>
<!-- N5&#45;&gt;N3 -->
<g id="edge10" class="edge"><title>N5&#45;&gt;N3</title>
<path fill="none" stroke="#2e3436" stroke-width="2" d="M773.589,-98.4759C772.742,-86.7915 769.718,-71.7005 760.5,-62 745.293,-45.9972 723.838,-36.4749 702.685,-30.8364"/>
<polygon fill="#2e3436" stroke="#2e3436" stroke-width="2" points="695.226,-28.9997 703.316,-27.516 698.987,-29.4109 702.628,-30.3076 702.509,-30.7931 702.389,-31.2786 698.748,-30.3819 701.702,-34.0702 695.226,-28.9997 695.226,-28.9997"/>
<text text-anchor="middle" x="792" y="-69.1" font-family="FreeSans" font-size="8.00" fill="#2e3436">DIRECTED</text>
</g>
<!-- N6 -->
<g id="node9" class="node"><title>N6</title>
<path fill="#ffffff" stroke="#2e3436" stroke-width="1.5" d="M233.5,-98.5C233.5,-98.5 317.5,-98.5 317.5,-98.5 323.5,-98.5 329.5,-104.5 329.5,-110.5 329.5,-110.5 329.5,-122.5 329.5,-122.5 329.5,-128.5 323.5,-134.5 317.5,-134.5 317.5,-134.5 233.5,-134.5 233.5,-134.5 227.5,-134.5 221.5,-128.5 221.5,-122.5 221.5,-122.5 221.5,-110.5 221.5,-110.5 221.5,-104.5 227.5,-98.5 233.5,-98.5"/>
<text text-anchor="middle" x="275.5" y="-123.6" font-family="FreeSans" font-size="8.00" fill="#1c2021">Person</text>
<polyline fill="none" stroke="#2e3436" stroke-width="1.5" points="221.5,-116.5 329.5,-116.5 "/>
<text text-anchor="start" x="229.5" y="-105.6" font-family="FreeSans" font-size="8.00" fill="#1c2021">name = &#39;Michael Douglas&#39;</text>
</g>
<!-- N6&#45;&gt;N4 -->
<g id="edge12" class="edge"><title>N6&#45;&gt;N4</title>
<path fill="none" stroke="#4e9a06" stroke-width="2" d="M261.581,-98.1015C250.641,-84.4259 235.218,-65.147 222.737,-49.5467"/>
<polygon fill="#4e9a06" stroke="#4e9a06" stroke-width="2" points="217.94,-43.5503 225.261,-47.2985 220.673,-46.1662 223.016,-49.0945 222.625,-49.4068 222.235,-49.7192 219.892,-46.7909 219.99,-51.5152 217.94,-43.5503 217.94,-43.5503"/>
<text text-anchor="middle" x="266" y="-69.1" font-family="FreeSans" font-size="8.00" fill="#4e9a06">ACTED_IN</text>
</g>
<!-- N6&#45;&gt;N3 -->
<g id="edge11" class="edge"><title>N6&#45;&gt;N3</title>
<path fill="none" stroke="#4e9a06" stroke-width="2" d="M329.873,-102.927C337.142,-101.261 344.501,-99.5835 351.5,-98 387.469,-89.8624 398.581,-94.4743 432.5,-80 445.765,-74.3394 446.255,-67.7059 459.5,-62 490.008,-48.8576 525.588,-39.8172 556.289,-33.7765"/>
<polygon fill="#4e9a06" stroke="#4e9a06" stroke-width="2" points="563.983,-32.3047 557.251,-37.0287 560.394,-33.5004 556.711,-34.2049 556.617,-33.7138 556.523,-33.2227 560.206,-32.5182 555.983,-30.3989 563.983,-32.3047 563.983,-32.3047"/>
<text text-anchor="middle" x="480" y="-69.1" font-family="FreeSans" font-size="8.00" fill="#4e9a06">ACTED_IN</text>
</g>
</g>
</svg>
