<?xml version="1.0" encoding="UTF-8" standalone="no"?>
<!DOCTYPE svg PUBLIC "-//W3C//DTD SVG 1.1//EN"
 "http://www.w3.org/Graphics/SVG/1.1/DTD/svg11.dtd">
<!-- Generated by graphviz version 2.38.0 (20140413.2041)
 -->
<!-- Title: g Pages: 1 -->
<svg width="240pt" height="293pt"
 viewBox="0.00 0.00 240.00 293.00" xmlns="http://www.w3.org/2000/svg" xmlns:xlink="http://www.w3.org/1999/xlink">
<g id="graph0" class="graph" transform="scale(1 1) rotate(0) translate(4 289)">
<title>g</title>
<polygon fill="white" stroke="none" points="-4,4 -4,-289 236,-289 236,4 -4,4"/>
<!-- TV Show -->
<g id="node1" class="node"><title>TV Show</title>
<polygon fill="white" stroke="#2e3436" stroke-width="1.5" points="143.5,-285 88.5,-285 88.5,-249 143.5,-249 143.5,-285"/>
<text text-anchor="middle" x="116" y="-264.5" font-family="FreeSans" font-size="10.00" fill="#1c2021">TV Show</text>
</g>
<!-- Season -->
<g id="node2" class="node"><title>Season</title>
<polygon fill="white" stroke="#2e3436" stroke-width="1.5" points="143,-202 89,-202 89,-166 143,-166 143,-202"/>
<text text-anchor="middle" x="116" y="-181.5" font-family="FreeSans" font-size="10.00" fill="#1c2021">Season</text>
</g>
<!-- TV Show&#45;&gt;Season -->
<g id="edge1" class="edge"><title>TV Show&#45;&gt;Season</title>
<path fill="none" stroke="#2e3436" d="M116,-248.822C116,-237.439 116,-222.326 116,-209.665"/>
<polygon fill="#2e3436" stroke="#2e3436" points="116,-209.653 119.375,-202.153 116,-205.903 116,-202.153 116,-202.153 116,-202.153 116,-205.903 112.625,-202.153 116,-209.653 116,-209.653"/>
<text text-anchor="middle" x="124" y="-223" font-family="FreeSans" font-size="10.00" fill="#1c2021">has</text>
</g>
<!-- Episode -->
<g id="node3" class="node"><title>Episode</title>
<polygon fill="white" stroke="#2e3436" stroke-width="1.5" points="143,-119 89,-119 89,-83 143,-83 143,-119"/>
<text text-anchor="middle" x="116" y="-98.5" font-family="FreeSans" font-size="10.00" fill="#1c2021">Episode</text>
</g>
<!-- Season&#45;&gt;Episode -->
<g id="edge2" class="edge"><title>Season&#45;&gt;Episode</title>
<path fill="none" stroke="#2e3436" d="M116,-165.822C116,-154.439 116,-139.326 116,-126.665"/>
<polygon fill="#2e3436" stroke="#2e3436" points="116,-126.653 119.375,-119.153 116,-122.903 116,-119.153 116,-119.153 116,-119.153 116,-122.903 112.625,-119.153 116,-126.653 116,-126.653"/>
<text text-anchor="middle" x="124" y="-140" font-family="FreeSans" font-size="10.00" fill="#1c2021">has</text>
</g>
<!-- Review -->
<g id="node5" class="node"><title>Review</title>
<polygon fill="white" stroke="#2e3436" stroke-width="1.5" points="88,-36 34,-36 34,-0 88,-0 88,-36"/>
<text text-anchor="middle" x="61" y="-15.5" font-family="FreeSans" font-size="10.00" fill="#1c2021">Review</text>
</g>
<!-- Episode&#45;&gt;Review -->
<g id="edge4" class="edge"><title>Episode&#45;&gt;Review</title>
<path fill="none" stroke="#2e3436" d="M104.336,-82.822C96.3877,-71.1164 85.7622,-55.4679 77.0219,-42.5959"/>
<polygon fill="#2e3436" stroke="#2e3436" points="76.8604,-42.3581 75.4394,-34.2573 74.7539,-39.2557 72.6473,-36.1533 72.6473,-36.1533 72.6473,-36.1533 74.7539,-39.2557 69.8551,-38.0492 76.8604,-42.3581 76.8604,-42.3581"/>
<text text-anchor="middle" x="100" y="-57" font-family="FreeSans" font-size="10.00" fill="#1c2021">has</text>
</g>
<!-- Character -->
<g id="node6" class="node"><title>Character</title>
<polygon fill="white" stroke="#2e3436" stroke-width="1.5" points="187.5,-36 128.5,-36 128.5,-0 187.5,-0 187.5,-36"/>
<text text-anchor="middle" x="158" y="-15.5" font-family="FreeSans" font-size="10.00" fill="#1c2021">Character</text>
</g>
<!-- Episode&#45;&gt;Character -->
<g id="edge5" class="edge"><title>Episode&#45;&gt;Character</title>
<path fill="none" stroke="#2e3436" d="M121.101,-82.9287C124.049,-74.0563 128.138,-63.1789 133,-54 135.06,-50.1109 137.497,-46.1574 140.027,-42.3753"/>
<polygon fill="#2e3436" stroke="#2e3436" points="140.034,-42.3653 147.093,-38.1445 142.179,-39.2895 144.325,-36.2137 144.325,-36.2137 144.325,-36.2137 142.179,-39.2895 141.557,-34.283 140.034,-42.3653 140.034,-42.3653"/>
<text text-anchor="middle" x="151" y="-57" font-family="FreeSans" font-size="10.00" fill="#1c2021">featured</text>
</g>
<!-- User -->
<g id="node4" class="node"><title>User</title>
<polygon fill="white" stroke="#2e3436" stroke-width="1.5" points="54,-119 0,-119 0,-83 54,-83 54,-119"/>
<text text-anchor="middle" x="27" y="-98.5" font-family="FreeSans" font-size="10.00" fill="#1c2021">User</text>
</g>
<!-- User&#45;&gt;Review -->
<g id="edge3" class="edge"><title>User&#45;&gt;Review</title>
<path fill="none" stroke="#2e3436" d="M22.8101,-82.768C21.4809,-73.8517 21.2046,-62.9834 25,-54 26.8701,-49.5736 29.604,-45.4307 32.7431,-41.6543"/>
<polygon fill="#2e3436" stroke="#2e3436" points="32.8499,-41.5388 40.4208,-38.3258 35.3967,-38.7862 37.9435,-36.0337 37.9435,-36.0337 37.9435,-36.0337 35.3967,-38.7862 35.4662,-33.7416 32.8499,-41.5388 32.8499,-41.5388"/>
<text text-anchor="middle" x="37" y="-57" font-family="FreeSans" font-size="10.00" fill="#1c2021">wrote</text>
</g>
<!-- Actor -->
<g id="node7" class="node"><title>Actor</title>
<polygon fill="white" stroke="#2e3436" stroke-width="1.5" points="232,-119 178,-119 178,-83 232,-83 232,-119"/>
<text text-anchor="middle" x="205" y="-98.5" font-family="FreeSans" font-size="10.00" fill="#1c2021">Actor</text>
</g>
<!-- Actor&#45;&gt;Character -->
<g id="edge6" class="edge"><title>Actor&#45;&gt;Character</title>
<path fill="none" stroke="#2e3436" d="M191.087,-76.0218C184.99,-65.5155 177.855,-53.2189 171.775,-42.7399"/>
<polygon fill="#2e3436" stroke="#2e3436" points="191.268,-76.3349 192.113,-84.5158 193.15,-79.5785 195.033,-82.822 195.033,-82.822 195.033,-82.822 193.15,-79.5785 197.952,-81.1281 191.268,-76.3349 191.268,-76.3349"/>
<polygon fill="#2e3436" stroke="#2e3436" points="171.717,-42.6403 170.872,-34.4594 169.835,-39.3968 167.953,-36.1533 167.953,-36.1533 167.953,-36.1533 169.835,-39.3968 165.034,-37.8471 171.717,-42.6403 171.717,-42.6403"/>
<text text-anchor="middle" x="199" y="-57" font-family="FreeSans" font-size="10.00" fill="#1c2021">played</text>
</g>
</g>
</svg>
