<?xml version="1.0" encoding="UTF-8" standalone="no"?>
<!DOCTYPE svg PUBLIC "-//W3C//DTD SVG 1.1//EN"
 "http://www.w3.org/Graphics/SVG/1.1/DTD/svg11.dtd">
<!-- Generated by graphviz version 2.36.0 (20140111.2315)
 -->
<!-- Title: g Pages: 1 -->
<svg width="240pt" height="296pt"
 viewBox="0.00 0.00 240.00 296.00" xmlns="http://www.w3.org/2000/svg" xmlns:xlink="http://www.w3.org/1999/xlink">
<g id="graph0" class="graph" transform="scale(1 1) rotate(0) translate(4 292)">
<title>g</title>
<polygon fill="white" stroke="none" points="-4,4 -4,-292 236,-292 236,4 -4,4"/>
<!-- TV Show -->
<g id="node1" class="node"><title>TV Show</title>
<polygon fill="white" stroke="#2e3436" stroke-width="1.5" points="143.25,-288 88.75,-288 88.75,-252 143.25,-252 143.25,-288"/>
<text text-anchor="middle" x="116" y="-267.5" font-family="FreeSans" font-size="10.00" fill="#1c2021">TV Show</text>
</g>
<!-- Season -->
<g id="node2" class="node"><title>Season</title>
<polygon fill="white" stroke="#2e3436" stroke-width="1.5" points="143,-204 89,-204 89,-168 143,-168 143,-204"/>
<text text-anchor="middle" x="116" y="-183.5" font-family="FreeSans" font-size="10.00" fill="#1c2021">Season</text>
</g>
<!-- TV Show&#45;&gt;Season -->
<g id="edge1" class="edge"><title>TV Show&#45;&gt;Season</title>
<path fill="none" stroke="#2e3436" d="M116,-251.61C116,-240.008 116,-224.58 116,-211.71"/>
<polygon fill="#2e3436" stroke="#2e3436" points="116,-211.584 119.375,-204.084 116,-207.834 116,-204.084 116,-204.084 116,-204.084 116,-207.834 112.625,-204.084 116,-211.584 116,-211.584"/>
<text text-anchor="middle" x="124" y="-225.5" font-family="FreeSans" font-size="10.00" fill="#1c2021">has</text>
</g>
<!-- Episode -->
<g id="node3" class="node"><title>Episode</title>
<polygon fill="white" stroke="#2e3436" stroke-width="1.5" points="143,-120 89,-120 89,-84 143,-84 143,-120"/>
<text text-anchor="middle" x="116" y="-99.5" font-family="FreeSans" font-size="10.00" fill="#1c2021">Episode</text>
</g>
<!-- Season&#45;&gt;Episode -->
<g id="edge2" class="edge"><title>Season&#45;&gt;Episode</title>
<path fill="none" stroke="#2e3436" d="M116,-167.61C116,-156.008 116,-140.58 116,-127.71"/>
<polygon fill="#2e3436" stroke="#2e3436" points="116,-127.584 119.375,-120.084 116,-123.834 116,-120.084 116,-120.084 116,-120.084 116,-123.834 112.625,-120.084 116,-127.584 116,-127.584"/>
<text text-anchor="middle" x="124" y="-141.5" font-family="FreeSans" font-size="10.00" fill="#1c2021">has</text>
</g>
<!-- Review -->
<g id="node5" class="node"><title>Review</title>
<polygon fill="white" stroke="#2e3436" stroke-width="1.5" points="88,-36 34,-36 34,-0 88,-0 88,-36"/>
<text text-anchor="middle" x="61" y="-15.5" font-family="FreeSans" font-size="10.00" fill="#1c2021">Review</text>
</g>
<!-- Episode&#45;&gt;Review -->
<g id="edge4" class="edge"><title>Episode&#45;&gt;Review</title>
<path fill="none" stroke="#2e3436" d="M104.336,-83.6099C96.334,-71.6798 85.6185,-55.7039 76.845,-42.6234"/>
<polygon fill="#2e3436" stroke="#2e3436" points="76.6365,-42.3125 75.2616,-34.2038 74.5476,-39.1982 72.4587,-36.0838 72.4587,-36.0838 72.4587,-36.0838 74.5476,-39.1982 69.6558,-37.9639 76.6365,-42.3125 76.6365,-42.3125"/>
<text text-anchor="middle" x="100" y="-57.5" font-family="FreeSans" font-size="10.00" fill="#1c2021">has</text>
</g>
<!-- Character -->
<g id="node6" class="node"><title>Character</title>
<polygon fill="white" stroke="#2e3436" stroke-width="1.5" points="187.25,-36 128.75,-36 128.75,-0 187.25,-0 187.25,-36"/>
<text text-anchor="middle" x="158" y="-15.5" font-family="FreeSans" font-size="10.00" fill="#1c2021">Character</text>
</g>
<!-- Episode&#45;&gt;Character -->
<g id="edge5" class="edge"><title>Episode&#45;&gt;Character</title>
<path fill="none" stroke="#2e3436" d="M120.908,-83.9964C123.852,-74.8502 127.997,-63.5255 133,-54 135.047,-50.1038 137.476,-46.1464 140.003,-42.3626"/>
<polygon fill="#2e3436" stroke="#2e3436" points="140.01,-42.3528 147.068,-38.13 142.154,-39.2764 144.299,-36.2001 144.299,-36.2001 144.299,-36.2001 142.154,-39.2764 141.53,-34.2701 140.01,-42.3528 140.01,-42.3528"/>
<text text-anchor="middle" x="151" y="-57.5" font-family="FreeSans" font-size="10.00" fill="#1c2021">featured</text>
</g>
<!-- User -->
<g id="node4" class="node"><title>User</title>
<polygon fill="white" stroke="#2e3436" stroke-width="1.5" points="54,-120 0,-120 0,-84 54,-84 54,-120"/>
<text text-anchor="middle" x="27" y="-99.5" font-family="FreeSans" font-size="10.00" fill="#1c2021">User</text>
</g>
<!-- User&#45;&gt;Review -->
<g id="edge3" class="edge"><title>User&#45;&gt;Review</title>
<path fill="none" stroke="#2e3436" d="M22.8095,-83.8395C21.4048,-74.6474 21.0587,-63.3288 25,-54 26.8701,-49.5736 29.604,-45.4307 32.7431,-41.6543"/>
<polygon fill="#2e3436" stroke="#2e3436" points="32.8499,-41.5388 40.4208,-38.3258 35.3967,-38.7862 37.9435,-36.0337 37.9435,-36.0337 37.9435,-36.0337 35.3967,-38.7862 35.4662,-33.7416 32.8499,-41.5388 32.8499,-41.5388"/>
<text text-anchor="middle" x="37" y="-57.5" font-family="FreeSans" font-size="10.00" fill="#1c2021">wrote</text>
</g>
<!-- Actor -->
<g id="node7" class="node"><title>Actor</title>
<polygon fill="white" stroke="#2e3436" stroke-width="1.5" points="232,-120 178,-120 178,-84 232,-84 232,-120"/>
<text text-anchor="middle" x="205" y="-99.5" font-family="FreeSans" font-size="10.00" fill="#1c2021">Actor</text>
</g>
<!-- Actor&#45;&gt;Character -->
<g id="edge6" class="edge"><title>Actor&#45;&gt;Character</title>
<path fill="none" stroke="#2e3436" d="M191.266,-77.0392C185.093,-66.2688 177.826,-53.5901 171.661,-42.8346"/>
<polygon fill="#2e3436" stroke="#2e3436" points="191.303,-77.103 192.104,-85.2882 193.168,-80.3564 195.033,-83.6099 195.033,-83.6099 195.033,-83.6099 193.168,-80.3564 197.961,-81.9316 191.303,-77.103 191.303,-77.103"/>
<polygon fill="#2e3436" stroke="#2e3436" points="171.522,-42.5908 170.72,-34.4055 169.657,-39.3373 167.792,-36.0838 167.792,-36.0838 167.792,-36.0838 169.657,-39.3373 164.864,-37.7622 171.522,-42.5908 171.522,-42.5908"/>
<text text-anchor="middle" x="199" y="-57.5" font-family="FreeSans" font-size="10.00" fill="#1c2021">played</text>
</g>
</g>
</svg>
