<?xml version="1.0" encoding="UTF-8" standalone="no"?>
<!DOCTYPE svg PUBLIC "-//W3C//DTD SVG 1.1//EN"
 "http://www.w3.org/Graphics/SVG/1.1/DTD/svg11.dtd">
<!-- Generated by graphviz version 2.36.0 (20140111.2315)
 -->
<!-- Title: g Pages: 1 -->
<svg width="389pt" height="138pt"
 viewBox="0.00 0.00 389.00 138.00" xmlns="http://www.w3.org/2000/svg" xmlns:xlink="http://www.w3.org/1999/xlink">
<g id="graph0" class="graph" transform="scale(1 1) rotate(0) translate(4 134)">
<title>g</title>
<polygon fill="white" stroke="none" points="-4,4 -4,-134 385,-134 385,4 -4,4"/>
<!-- N0 -->
<g id="node1" class="node"><title>N0</title>
<path fill="#ffffff" stroke="#2e3436" stroke-width="1.5" d="M49.5,-93C49.5,-93 126.5,-93 126.5,-93 132.5,-93 138.5,-99 138.5,-105 138.5,-105 138.5,-117 138.5,-117 138.5,-123 132.5,-129 126.5,-129 126.5,-129 49.5,-129 49.5,-129 43.5,-129 37.5,-123 37.5,-117 37.5,-117 37.5,-105 37.5,-105 37.5,-99 43.5,-93 49.5,-93"/>
<text text-anchor="start" x="45.5" y="-109.1" font-family="FreeSans" font-size="8.00" fill="#1c2021">name = &#39;Keanu Reeves&#39;</text>
</g>
<!-- N3 -->
<g id="node2" class="node"><title>N3</title>
<path fill="#ffffff" stroke="#2e3436" stroke-width="1.5" d="M133,-1C133,-1 225,-1 225,-1 231,-1 237,-7 237,-13 237,-13 237,-25 237,-25 237,-31 231,-37 225,-37 225,-37 133,-37 133,-37 127,-37 121,-31 121,-25 121,-25 121,-13 121,-13 121,-7 127,-1 133,-1"/>
<text text-anchor="start" x="129" y="-21.6" font-family="FreeSans" font-size="8.00" fill="#1c2021">title = &#39;The Matrix Reloaded&#39;</text>
<text text-anchor="start" x="129" y="-12.6" font-family="FreeSans" font-size="8.00" fill="#1c2021">year = 2003</text>
</g>
<!-- N0&#45;&gt;N3 -->
<g id="edge1" class="edge"><title>N0&#45;&gt;N3</title>
<path fill="none" stroke="#2e3436" stroke-width="2" d="M102.491,-92.9534C111.981,-82.0653 124.837,-67.8243 137,-56 141.751,-51.381 146.993,-46.6367 152.115,-42.1701"/>
<polygon fill="#2e3436" stroke="#2e3436" stroke-width="2" points="158.036,-37.0784 154.55,-44.5274 155.519,-39.9025 152.675,-42.3475 152.349,-41.9684 152.023,-41.5892 154.867,-39.1443 150.149,-39.4093 158.036,-37.0784 158.036,-37.0784"/>
<text text-anchor="middle" x="161" y="-67.6" font-family="FreeSans" font-size="8.00" fill="#2e3436">ACTS_IN</text>
<text text-anchor="start" x="137" y="-58.6" font-family="FreeSans" font-size="8.00" fill="#2e3436">name = &#39;Neo&#39;</text>
</g>
<!-- N2 -->
<g id="node3" class="node"><title>N2</title>
<path fill="#ffffff" stroke="#2e3436" stroke-width="1.5" d="M11.5,-1C11.5,-1 66.5,-1 66.5,-1 72.5,-1 78.5,-7 78.5,-13 78.5,-13 78.5,-25 78.5,-25 78.5,-31 72.5,-37 66.5,-37 66.5,-37 11.5,-37 11.5,-37 5.5,-37 -0.5,-31 -0.5,-25 -0.5,-25 -0.5,-13 -0.5,-13 -0.5,-7 5.5,-1 11.5,-1"/>
<text text-anchor="start" x="7.5" y="-21.6" font-family="FreeSans" font-size="8.00" fill="#1c2021">title = &#39;The Matrix&#39;</text>
<text text-anchor="start" x="7.5" y="-12.6" font-family="FreeSans" font-size="8.00" fill="#1c2021">year = 1999</text>
</g>
<!-- N0&#45;&gt;N2 -->
<g id="edge2" class="edge"><title>N0&#45;&gt;N2</title>
<path fill="none" stroke="#2e3436" stroke-width="2" d="M53.9593,-92.8758C47.1429,-87.7797 40.8892,-81.5058 37,-74 32.3683,-65.0613 31.9712,-54.1277 33.0723,-44.4424"/>
<polygon fill="#2e3436" stroke="#2e3436" stroke-width="2" points="34.2244,-37.0047 36.4115,-44.9329 34.1444,-40.787 33.5704,-44.4928 33.0763,-44.4163 32.5822,-44.3397 33.1562,-40.6339 29.7411,-43.8997 34.2244,-37.0047 34.2244,-37.0047"/>
<text text-anchor="middle" x="61" y="-67.6" font-family="FreeSans" font-size="8.00" fill="#2e3436">ACTS_IN</text>
<text text-anchor="start" x="37" y="-58.6" font-family="FreeSans" font-size="8.00" fill="#2e3436">name = &#39;Neo&#39;</text>
</g>
<!-- N1 -->
<g id="node4" class="node"><title>N1</title>
<path fill="#ffffff" stroke="#2e3436" stroke-width="1.5" d="M195.5,-93C195.5,-93 276.5,-93 276.5,-93 282.5,-93 288.5,-99 288.5,-105 288.5,-105 288.5,-117 288.5,-117 288.5,-123 282.5,-129 276.5,-129 276.5,-129 195.5,-129 195.5,-129 189.5,-129 183.5,-123 183.5,-117 183.5,-117 183.5,-105 183.5,-105 183.5,-99 189.5,-93 195.5,-93"/>
<text text-anchor="start" x="191.5" y="-109.1" font-family="FreeSans" font-size="8.00" fill="#1c2021">name = &#39;Monica Bellucci&#39;</text>
</g>
<!-- N1&#45;&gt;N3 -->
<g id="edge4" class="edge"><title>N1&#45;&gt;N3</title>
<path fill="none" stroke="#2e3436" stroke-width="2" d="M216.715,-92.8704C211.143,-87.2492 205.389,-80.7121 201,-74 195.142,-65.0415 190.37,-54.2713 186.787,-44.7142"/>
<polygon fill="#2e3436" stroke="#2e3436" stroke-width="2" points="184.169,-37.3675 189.865,-43.2998 185.899,-40.7322 187.157,-44.2647 186.686,-44.4325 186.215,-44.6003 184.957,-41.0678 183.507,-45.5652 184.169,-37.3675 184.169,-37.3675"/>
<text text-anchor="middle" x="239" y="-67.6" font-family="FreeSans" font-size="8.00" fill="#2e3436">ACTS_IN</text>
<text text-anchor="start" x="201" y="-58.6" font-family="FreeSans" font-size="8.00" fill="#2e3436">name = &#39;Persephone&#39;</text>
</g>
<!-- N4 -->
<g id="node5" class="node"><title>N4</title>
<path fill="#ffffff" stroke="#2e3436" stroke-width="1.5" d="M291.5,-1C291.5,-1 334.5,-1 334.5,-1 340.5,-1 346.5,-7 346.5,-13 346.5,-13 346.5,-25 346.5,-25 346.5,-31 340.5,-37 334.5,-37 334.5,-37 291.5,-37 291.5,-37 285.5,-37 279.5,-31 279.5,-25 279.5,-25 279.5,-13 279.5,-13 279.5,-7 285.5,-1 291.5,-1"/>
<text text-anchor="start" x="287.5" y="-21.6" font-family="FreeSans" font-size="8.00" fill="#1c2021">title = &#39;Malèna&#39;</text>
<text text-anchor="start" x="287.5" y="-12.6" font-family="FreeSans" font-size="8.00" fill="#1c2021">year = 2000</text>
</g>
<!-- N1&#45;&gt;N4 -->
<g id="edge3" class="edge"><title>N1&#45;&gt;N4</title>
<path fill="none" stroke="#2e3436" stroke-width="2" d="M260.148,-92.6674C266.993,-87.1345 274.164,-80.6969 280,-74 287.976,-64.8471 295.215,-53.5348 300.867,-43.6326"/>
<polygon fill="#2e3436" stroke="#2e3436" stroke-width="2" points="304.516,-37.0463 303.833,-45.2424 303.136,-40.5689 301.319,-43.8491 300.881,-43.6068 300.444,-43.3645 302.261,-40.0842 297.929,-41.9712 304.516,-37.0463 304.516,-37.0463"/>
<text text-anchor="middle" x="336.5" y="-67.6" font-family="FreeSans" font-size="8.00" fill="#2e3436">ACTS_IN</text>
<text text-anchor="start" x="292" y="-58.6" font-family="FreeSans" font-size="8.00" fill="#2e3436">name = &#39;Malèna Scordia&#39;</text>
</g>
</g>
</svg>
