<?xml version="1.0" encoding="UTF-8" standalone="no"?>
<!DOCTYPE svg PUBLIC "-//W3C//DTD SVG 1.1//EN"
 "http://www.w3.org/Graphics/SVG/1.1/DTD/svg11.dtd">
<!-- Generated by graphviz version 2.36.0 (20140111.2315)
 -->
<!-- Title: g Pages: 1 -->
<svg width="199pt" height="482pt"
 viewBox="0.00 0.00 199.00 482.00" xmlns="http://www.w3.org/2000/svg" xmlns:xlink="http://www.w3.org/1999/xlink">
<g id="graph0" class="graph" transform="scale(1 1) rotate(0) translate(4 478)">
<title>g</title>
<polygon fill="white" stroke="none" points="-4,4 -4,-478 195,-478 195,4 -4,4"/>
<!-- N0 -->
<g id="node1" class="node"><title>N0</title>
<path fill="#ffffff" stroke="#2e3436" stroke-width="1.5" d="M51,-437C51,-437 81,-437 81,-437 87,-437 93,-443 93,-449 93,-449 93,-461 93,-461 93,-467 87,-473 81,-473 81,-473 51,-473 51,-473 45,-473 39,-467 39,-461 39,-461 39,-449 39,-449 39,-443 45,-437 51,-437"/>
<text text-anchor="middle" x="66" y="-453.1" font-family="FreeSans" font-size="8.00" fill="#1c2021"> </text>
</g>
<!-- N1 -->
<g id="node2" class="node"><title>N1</title>
<path fill="#ffffff" stroke="#2e3436" stroke-width="1.5" d="M18.5,-353C18.5,-353 113.5,-353 113.5,-353 119.5,-353 125.5,-359 125.5,-365 125.5,-365 125.5,-377 125.5,-377 125.5,-383 119.5,-389 113.5,-389 113.5,-389 18.5,-389 18.5,-389 12.5,-389 6.5,-383 6.5,-377 6.5,-377 6.5,-365 6.5,-365 6.5,-359 12.5,-353 18.5,-353"/>
<text text-anchor="start" x="14.5" y="-369.1" font-family="FreeSans" font-size="8.00" fill="#1c2021">name = &#39;Thomas Andersson&#39;</text>
</g>
<!-- N0&#45;&gt;N1 -->
<g id="edge1" class="edge"><title>N0&#45;&gt;N1</title>
<path fill="none" stroke="#2e3436" stroke-width="2" d="M66,-436.61C66,-425.008 66,-409.58 66,-396.71"/>
<polygon fill="#2e3436" stroke="#2e3436" stroke-width="2" points="66,-389.084 69.3751,-396.584 66.5,-392.834 66.5001,-396.584 66.0001,-396.584 65.5001,-396.584 65.5,-392.834 62.6251,-396.584 66,-389.084 66,-389.084"/>
<text text-anchor="middle" x="78.5" y="-411.1" font-family="FreeSans" font-size="8.00" fill="#2e3436">ROOT</text>
</g>
<!-- N2 -->
<g id="node3" class="node"><title>N2</title>
<path fill="#ffffff" stroke="#2e3436" stroke-width="1.5" d="M11.5,-169C11.5,-169 58.5,-169 58.5,-169 64.5,-169 70.5,-175 70.5,-181 70.5,-181 70.5,-193 70.5,-193 70.5,-199 64.5,-205 58.5,-205 58.5,-205 11.5,-205 11.5,-205 5.5,-205 -0.5,-199 -0.5,-193 -0.5,-193 -0.5,-181 -0.5,-181 -0.5,-175 5.5,-169 11.5,-169"/>
<text text-anchor="start" x="7.5" y="-185.1" font-family="FreeSans" font-size="8.00" fill="#1c2021">name = &#39;Trinity&#39;</text>
</g>
<!-- N1&#45;&gt;N2 -->
<g id="edge2" class="edge"><title>N1&#45;&gt;N2</title>
<path fill="none" stroke="#4e9a06" stroke-width="2" d="M59.249,-352.841C53.8927,-338.438 46.7099,-317.197 43,-298 37.4345,-269.201 35.6651,-235.48 35.1416,-213.04"/>
<polygon fill="#4e9a06" stroke="#4e9a06" stroke-width="2" points="35.0003,-205.313 38.5119,-212.75 35.5688,-209.054 35.6374,-212.803 35.1375,-212.812 34.6376,-212.821 34.569,-209.072 31.7631,-212.874 35.0003,-205.313 35.0003,-205.313"/>
<text text-anchor="middle" x="58.5" y="-277.1" font-family="FreeSans" font-size="8.00" fill="#4e9a06">KNOWS</text>
</g>
<!-- N3 -->
<g id="node4" class="node"><title>N3</title>
<path fill="#ffffff" stroke="#2e3436" stroke-width="1.5" d="M100.5,-261C100.5,-261 161.5,-261 161.5,-261 167.5,-261 173.5,-267 173.5,-273 173.5,-273 173.5,-285 173.5,-285 173.5,-291 167.5,-297 161.5,-297 161.5,-297 100.5,-297 100.5,-297 94.5,-297 88.5,-291 88.5,-285 88.5,-285 88.5,-273 88.5,-273 88.5,-267 94.5,-261 100.5,-261"/>
<text text-anchor="start" x="96.5" y="-277.1" font-family="FreeSans" font-size="8.00" fill="#1c2021">name = &#39;Morpheus&#39;</text>
</g>
<!-- N1&#45;&gt;N3 -->
<g id="edge3" class="edge"><title>N1&#45;&gt;N3</title>
<path fill="none" stroke="#4e9a06" stroke-width="2" d="M78.5327,-352.647C88.6039,-338.702 102.852,-318.974 113.959,-303.595"/>
<polygon fill="#4e9a06" stroke="#4e9a06" stroke-width="2" points="118.506,-297.3 116.851,-305.356 116.716,-300.632 114.52,-303.672 114.115,-303.38 113.709,-303.087 115.905,-300.047 111.379,-301.404 118.506,-297.3 118.506,-297.3"/>
<text text-anchor="middle" x="120.5" y="-327.6" font-family="FreeSans" font-size="8.00" fill="#4e9a06">KNOWS</text>
<text text-anchor="start" x="105" y="-318.6" font-family="FreeSans" font-size="8.00" fill="#4e9a06">age = 3</text>
</g>
<!-- N3&#45;&gt;N2 -->
<g id="edge4" class="edge"><title>N3&#45;&gt;N2</title>
<path fill="none" stroke="#4e9a06" stroke-width="2" d="M112.49,-260.647C97.3501,-246.453 75.8191,-226.268 59.2937,-210.775"/>
<polygon fill="#4e9a06" stroke="#4e9a06" stroke-width="2" points="53.4529,-205.3 61.2328,-207.967 56.5307,-207.5 59.2665,-210.064 58.9245,-210.429 58.5825,-210.794 55.8467,-208.229 56.6162,-212.891 53.4529,-205.3 53.4529,-205.3"/>
<text text-anchor="middle" x="108" y="-235.6" font-family="FreeSans" font-size="8.00" fill="#4e9a06">KNOWS</text>
<text text-anchor="start" x="92" y="-226.6" font-family="FreeSans" font-size="8.00" fill="#4e9a06">age = 90</text>
</g>
<!-- N4 -->
<g id="node5" class="node"><title>N4</title>
<path fill="#ffffff" stroke="#2e3436" stroke-width="1.5" d="M117.5,-169C117.5,-169 168.5,-169 168.5,-169 174.5,-169 180.5,-175 180.5,-181 180.5,-181 180.5,-193 180.5,-193 180.5,-199 174.5,-205 168.5,-205 168.5,-205 117.5,-205 117.5,-205 111.5,-205 105.5,-199 105.5,-193 105.5,-193 105.5,-181 105.5,-181 105.5,-175 111.5,-169 117.5,-169"/>
<text text-anchor="start" x="113.5" y="-185.1" font-family="FreeSans" font-size="8.00" fill="#1c2021">name = &#39;Cypher&#39;</text>
</g>
<!-- N3&#45;&gt;N4 -->
<g id="edge5" class="edge"><title>N3&#45;&gt;N4</title>
<path fill="none" stroke="#4e9a06" stroke-width="2" d="M133.314,-260.647C135.123,-247.076 137.663,-228.027 139.688,-212.84"/>
<polygon fill="#4e9a06" stroke="#4e9a06" stroke-width="2" points="140.693,-205.3 143.047,-213.18 140.693,-209.083 140.198,-212.8 139.702,-212.734 139.206,-212.668 139.702,-208.951 136.357,-212.288 140.693,-205.3 140.693,-205.3"/>
<text text-anchor="middle" x="154.5" y="-231.1" font-family="FreeSans" font-size="8.00" fill="#4e9a06">KNOWS</text>
</g>
<!-- N5 -->
<g id="node6" class="node"><title>N5</title>
<path fill="#ffffff" stroke="#2e3436" stroke-width="1.5" d="M109,-85C109,-85 177,-85 177,-85 183,-85 189,-91 189,-97 189,-97 189,-109 189,-109 189,-115 183,-121 177,-121 177,-121 109,-121 109,-121 103,-121 97,-115 97,-109 97,-109 97,-97 97,-97 97,-91 103,-85 109,-85"/>
<text text-anchor="start" x="105" y="-101.1" font-family="FreeSans" font-size="8.00" fill="#1c2021">name = &#39;Agent Smith&#39;</text>
</g>
<!-- N4&#45;&gt;N5 -->
<g id="edge6" class="edge"><title>N4&#45;&gt;N5</title>
<path fill="none" stroke="#4e9a06" stroke-width="2" d="M143,-168.61C143,-157.008 143,-141.58 143,-128.71"/>
<polygon fill="#4e9a06" stroke="#4e9a06" stroke-width="2" points="143,-121.084 146.375,-128.584 143.5,-124.834 143.5,-128.584 143,-128.584 142.5,-128.584 142.5,-124.834 139.625,-128.584 143,-121.084 143,-121.084"/>
<text text-anchor="middle" x="158.5" y="-143.1" font-family="FreeSans" font-size="8.00" fill="#4e9a06">KNOWS</text>
</g>
<!-- N6 -->
<g id="node7" class="node"><title>N6</title>
<path fill="#ffffff" stroke="#2e3436" stroke-width="1.5" d="M106,-1C106,-1 180,-1 180,-1 186,-1 192,-7 192,-13 192,-13 192,-25 192,-25 192,-31 186,-37 180,-37 180,-37 106,-37 106,-37 100,-37 94,-31 94,-25 94,-25 94,-13 94,-13 94,-7 100,-1 106,-1"/>
<text text-anchor="start" x="102" y="-17.1" font-family="FreeSans" font-size="8.00" fill="#1c2021">name = &#39;The Architect&#39;</text>
</g>
<!-- N5&#45;&gt;N6 -->
<g id="edge7" class="edge"><title>N5&#45;&gt;N6</title>
<path fill="none" stroke="#a40000" stroke-width="2" d="M143,-84.6099C143,-73.0081 143,-57.5802 143,-44.7099"/>
<polygon fill="#a40000" stroke="#a40000" stroke-width="2" points="143,-37.0838 146.375,-44.5838 143.5,-40.8338 143.5,-44.5838 143,-44.5838 142.5,-44.5838 142.5,-40.8338 139.625,-44.5839 143,-37.0838 143,-37.0838"/>
<text text-anchor="middle" x="166" y="-59.1" font-family="FreeSans" font-size="8.00" fill="#a40000">CODED_BY</text>
</g>
</g>
</svg>
