<?xml version="1.0" encoding="UTF-8" standalone="no"?>
<!DOCTYPE svg PUBLIC "-//W3C//DTD SVG 1.1//EN"
 "http://www.w3.org/Graphics/SVG/1.1/DTD/svg11.dtd">
<!-- Generated by graphviz version 2.36.0 (20140111.2315)
 -->
<!-- Title: g Pages: 1 -->
<svg width="158pt" height="128pt"
 viewBox="0.00 0.00 158.38 128.00" xmlns="http://www.w3.org/2000/svg" xmlns:xlink="http://www.w3.org/1999/xlink">
<g id="graph0" class="graph" transform="scale(1 1) rotate(0) translate(4 124)">
<title>g</title>
<polygon fill="white" stroke="none" points="-4,4 -4,-124 154.381,-124 154.381,4 -4,4"/>
<!-- Person -->
<g id="node1" class="node"><title>Person</title>
<polygon fill="white" stroke="#2e3436" stroke-width="1.5" points="100.381,-120 46.3806,-120 46.3806,-84 100.381,-84 100.381,-120"/>
<text text-anchor="middle" x="73.3806" y="-99.5" font-family="FreeSans" font-size="10.00" fill="#1c2021">Person</text>
</g>
<!-- Movie -->
<g id="node2" class="node"><title>Movie</title>
<polygon fill="white" stroke="#2e3436" stroke-width="1.5" points="100.381,-36 46.3806,-36 46.3806,-0 100.381,-0 100.381,-36"/>
<text text-anchor="middle" x="73.3806" y="-15.5" font-family="FreeSans" font-size="10.00" fill="#1c2021">Movie</text>
</g>
<!-- Person&#45;&gt;Movie -->
<g id="edge1" class="edge"><title>Person&#45;&gt;Movie</title>
<path fill="none" stroke="#2e3436" d="M38.9083,-92.3149C25.4029,-87.0433 11.276,-78.7752 3.38055,-66 -7.73004,-48.0227 15.9553,-35.3739 38.723,-27.7612"/>
<polygon fill="#2e3436" stroke="#2e3436" points="39.2374,-92.4318 45.1731,-98.1247 42.7706,-93.6883 46.3039,-94.9448 46.3039,-94.9448 46.3039,-94.9448 42.7706,-93.6883 47.4347,-91.7649 39.2374,-92.4318 39.2374,-92.4318"/>
<polygon fill="#2e3436" stroke="#2e3436" points="38.8815,-27.7115 47.048,-28.6863 42.4595,-26.5888 46.0376,-25.4661 46.0376,-25.4661 46.0376,-25.4661 42.4595,-26.5888 45.0271,-22.2459 38.8815,-27.7115 38.8815,-27.7115"/>
<text text-anchor="middle" x="20.3806" y="-57.5" font-family="FreeSans" font-size="10.00" fill="#1c2021">acted in</text>
</g>
<!-- Person&#45;&gt;Movie -->
<g id="edge2" class="edge"><title>Person&#45;&gt;Movie</title>
<path fill="none" stroke="#2e3436" d="M71.7852,-76.1514C71.6176,-72.7419 71.4743,-69.2853 71.3806,-66 71.1795,-58.9587 71.341,-51.3271 71.6435,-44.3021"/>
<polygon fill="#2e3436" stroke="#2e3436" points="71.8002,-76.4296 68.8388,-84.1023 72.0045,-80.1741 72.2088,-83.9185 72.2088,-83.9185 72.2088,-83.9185 72.0045,-80.1741 75.5788,-83.7347 71.8002,-76.4296 71.8002,-76.4296"/>
<polygon fill="#2e3436" stroke="#2e3436" points="71.6643,-43.8958 75.4207,-36.5793 71.8572,-40.1508 72.0501,-36.4057 72.0501,-36.4057 72.0501,-36.4057 71.8572,-40.1508 68.6796,-36.2321 71.6643,-43.8958 71.6643,-43.8958"/>
<text text-anchor="middle" x="88.8806" y="-57.5" font-family="FreeSans" font-size="10.00" fill="#1c2021">directed</text>
</g>
<!-- Person&#45;&gt;Movie -->
<g id="edge3" class="edge"><title>Person&#45;&gt;Movie</title>
<path fill="none" stroke="#2e3436" d="M101.637,-78.3457C104.777,-74.5693 107.51,-70.4264 109.381,-66 112.943,-57.5676 109.67,-49.3138 103.885,-42.135"/>
<polygon fill="#2e3436" stroke="#2e3436" points="101.531,-78.4612 93.9598,-81.6742 98.9839,-81.2138 96.4371,-83.9663 96.4371,-83.9663 96.4371,-83.9663 98.9839,-81.2138 98.9144,-86.2584 101.531,-78.4612 101.531,-78.4612"/>
<polygon fill="#2e3436" stroke="#2e3436" points="103.639,-41.8695 101.003,-34.079 101.085,-39.1234 98.5311,-36.3773 98.5311,-36.3773 98.5311,-36.3773 101.085,-39.1234 96.0596,-38.6757 103.639,-41.8695 103.639,-41.8695"/>
<text text-anchor="middle" x="130.381" y="-57.5" font-family="FreeSans" font-size="10.00" fill="#1c2021">produced</text>
</g>
</g>
</svg>
