<?xml version="1.0" encoding="UTF-8" standalone="no"?>
<!DOCTYPE svg PUBLIC "-//W3C//DTD SVG 1.1//EN"
 "http://www.w3.org/Graphics/SVG/1.1/DTD/svg11.dtd">
<!-- Generated by graphviz version 2.38.0 (20140413.2041)
 -->
<!-- Title: g Pages: 1 -->
<svg width="504pt" height="333pt"
 viewBox="0.00 0.00 504.00 332.59" xmlns="http://www.w3.org/2000/svg" xmlns:xlink="http://www.w3.org/1999/xlink">
<g id="graph0" class="graph" transform="scale(0.44523 0.44523) rotate(0) translate(4 743)">
<title>g</title>
<polygon fill="white" stroke="none" points="-4,4 -4,-743 1128,-743 1128,4 -4,4"/>
<g id="clust1" class="cluster"><title>clusterFiles</title>
</g>
<g id="clust2" class="cluster"><title>clusterUsers</title>
</g>
<!-- N20 -->
<g id="node1" class="node"><title>N20</title>
<path fill="#ffffff" stroke="#2e3436" stroke-width="1.5" d="M659.5,-212.5C659.5,-212.5 778.5,-212.5 778.5,-212.5 784.5,-212.5 790.5,-218.5 790.5,-224.5 790.5,-224.5 790.5,-252.5 790.5,-252.5 790.5,-258.5 784.5,-264.5 778.5,-264.5 778.5,-264.5 659.5,-264.5 659.5,-264.5 653.5,-264.5 647.5,-258.5 647.5,-252.5 647.5,-252.5 647.5,-224.5 647.5,-224.5 647.5,-218.5 653.5,-212.5 659.5,-212.5"/>
<text text-anchor="middle" x="719" y="-247.7" font-family="FreeSans" font-size="16.00" fill="#1c2021">Node[20]</text>
<polyline fill="none" stroke="#2e3436" stroke-width="1.5" points="647.5,-238.5 790.5,-238.5 "/>
<text text-anchor="middle" x="719" y="-221.7" font-family="FreeSans" font-size="16.00" fill="#1c2021">&#39;name&#39; = &#39;HomeU1&#39;</text>
</g>
<!-- N17 -->
<g id="node2" class="node"><title>N17</title>
<path fill="#ffffff" stroke="#2e3436" stroke-width="1.5" d="M662.5,-114.5C662.5,-114.5 755.5,-114.5 755.5,-114.5 761.5,-114.5 767.5,-120.5 767.5,-126.5 767.5,-126.5 767.5,-154.5 767.5,-154.5 767.5,-160.5 761.5,-166.5 755.5,-166.5 755.5,-166.5 662.5,-166.5 662.5,-166.5 656.5,-166.5 650.5,-160.5 650.5,-154.5 650.5,-154.5 650.5,-126.5 650.5,-126.5 650.5,-120.5 656.5,-114.5 662.5,-114.5"/>
<text text-anchor="middle" x="709" y="-149.7" font-family="FreeSans" font-size="16.00" fill="#1c2021">Node[17]</text>
<polyline fill="none" stroke="#2e3436" stroke-width="1.5" points="650.5,-140.5 767.5,-140.5 "/>
<text text-anchor="middle" x="709" y="-123.7" font-family="FreeSans" font-size="16.00" fill="#1c2021">&#39;name&#39; = &#39;File1&#39;</text>
</g>
<!-- N20&#45;&gt;N17 -->
<g id="edge1" class="edge"><title>N20&#45;&gt;N17</title>
<path fill="none" stroke="red" stroke-width="2" d="M716.373,-212.277C715.236,-201.364 713.886,-188.405 712.654,-176.577"/>
<polygon fill="red" stroke="red" stroke-width="2" points="711.61,-166.554 717.122,-176.034 712.625,-171.476 713.143,-176.449 712.646,-176.501 712.149,-176.552 711.631,-171.579 708.17,-176.967 711.61,-166.554 711.61,-166.554"/>
<text text-anchor="middle" x="721.5" y="-187.6" font-family="FreeSans" font-size="8.00" fill="#1c2021">leaf</text>
</g>
<!-- N23 -->
<g id="node3" class="node"><title>N23</title>
<path fill="#ffffff" stroke="#2e3436" stroke-width="1.5" d="M814,-114.5C814,-114.5 930,-114.5 930,-114.5 936,-114.5 942,-120.5 942,-126.5 942,-126.5 942,-154.5 942,-154.5 942,-160.5 936,-166.5 930,-166.5 930,-166.5 814,-166.5 814,-166.5 808,-166.5 802,-160.5 802,-154.5 802,-154.5 802,-126.5 802,-126.5 802,-120.5 808,-114.5 814,-114.5"/>
<text text-anchor="middle" x="872" y="-149.7" font-family="FreeSans" font-size="16.00" fill="#1c2021">Node[23]</text>
<polyline fill="none" stroke="#2e3436" stroke-width="1.5" points="802,-140.5 942,-140.5 "/>
<text text-anchor="middle" x="872" y="-123.7" font-family="FreeSans" font-size="16.00" fill="#1c2021">&#39;name&#39; = &#39;Desktop&#39;</text>
</g>
<!-- N16 -->
<g id="node4" class="node"><title>N16</title>
<path fill="#ffffff" stroke="#2e3436" stroke-width="1.5" d="M700.5,-16.5C700.5,-16.5 793.5,-16.5 793.5,-16.5 799.5,-16.5 805.5,-22.5 805.5,-28.5 805.5,-28.5 805.5,-56.5 805.5,-56.5 805.5,-62.5 799.5,-68.5 793.5,-68.5 793.5,-68.5 700.5,-68.5 700.5,-68.5 694.5,-68.5 688.5,-62.5 688.5,-56.5 688.5,-56.5 688.5,-28.5 688.5,-28.5 688.5,-22.5 694.5,-16.5 700.5,-16.5"/>
<text text-anchor="middle" x="747" y="-51.7" font-family="FreeSans" font-size="16.00" fill="#1c2021">Node[16]</text>
<polyline fill="none" stroke="#2e3436" stroke-width="1.5" points="688.5,-42.5 805.5,-42.5 "/>
<text text-anchor="middle" x="747" y="-25.7" font-family="FreeSans" font-size="16.00" fill="#1c2021">&#39;name&#39; = &#39;File2&#39;</text>
</g>
<!-- N23&#45;&gt;N16 -->
<g id="edge2" class="edge"><title>N23&#45;&gt;N16</title>
<path fill="none" stroke="red" stroke-width="2" d="M839.158,-114.277C823.368,-102.151 804.292,-87.5 787.6,-74.6811"/>
<polygon fill="red" stroke="red" stroke-width="2" points="779.623,-68.5544 790.295,-71.0765 783.893,-71.2034 787.858,-74.2489 787.554,-74.6454 787.249,-75.042 783.284,-71.9965 784.813,-78.2144 779.623,-68.5544 779.623,-68.5544"/>
<text text-anchor="middle" x="819.5" y="-89.6" font-family="FreeSans" font-size="8.00" fill="#1c2021">leaf</text>
</g>
<!-- N10 -->
<g id="node5" class="node"><title>N10</title>
<path fill="#ffffff" stroke="#2e3436" stroke-width="1.5" d="M672.5,-310.5C672.5,-310.5 771.5,-310.5 771.5,-310.5 777.5,-310.5 783.5,-316.5 783.5,-322.5 783.5,-322.5 783.5,-350.5 783.5,-350.5 783.5,-356.5 777.5,-362.5 771.5,-362.5 771.5,-362.5 672.5,-362.5 672.5,-362.5 666.5,-362.5 660.5,-356.5 660.5,-350.5 660.5,-350.5 660.5,-322.5 660.5,-322.5 660.5,-316.5 666.5,-310.5 672.5,-310.5"/>
<text text-anchor="middle" x="722" y="-345.7" font-family="FreeSans" font-size="16.00" fill="#1c2021">Node[10]</text>
<polyline fill="none" stroke="#2e3436" stroke-width="1.5" points="660.5,-336.5 783.5,-336.5 "/>
<text text-anchor="middle" x="722" y="-319.7" font-family="FreeSans" font-size="16.00" fill="#1c2021">&#39;name&#39; = &#39;Home&#39;</text>
</g>
<!-- N10&#45;&gt;N20 -->
<g id="edge3" class="edge"><title>N10&#45;&gt;N20</title>
<path fill="none" stroke="red" stroke-width="2" d="M721.212,-310.277C720.871,-299.364 720.466,-286.405 720.096,-274.577"/>
<polygon fill="red" stroke="red" stroke-width="2" points="719.783,-264.554 724.593,-274.409 720.439,-269.536 720.595,-274.534 720.095,-274.55 719.596,-274.565 719.439,-269.568 715.598,-274.69 719.783,-264.554 719.783,-264.554"/>
<text text-anchor="middle" x="736.5" y="-285.6" font-family="FreeSans" font-size="8.00" fill="#1c2021">contains</text>
</g>
<!-- N15 -->
<g id="node6" class="node"><title>N15</title>
<path fill="#ffffff" stroke="#2e3436" stroke-width="1.5" d="M831.5,-212.5C831.5,-212.5 950.5,-212.5 950.5,-212.5 956.5,-212.5 962.5,-218.5 962.5,-224.5 962.5,-224.5 962.5,-252.5 962.5,-252.5 962.5,-258.5 956.5,-264.5 950.5,-264.5 950.5,-264.5 831.5,-264.5 831.5,-264.5 825.5,-264.5 819.5,-258.5 819.5,-252.5 819.5,-252.5 819.5,-224.5 819.5,-224.5 819.5,-218.5 825.5,-212.5 831.5,-212.5"/>
<text text-anchor="middle" x="891" y="-247.7" font-family="FreeSans" font-size="16.00" fill="#1c2021">Node[15]</text>
<polyline fill="none" stroke="#2e3436" stroke-width="1.5" points="819.5,-238.5 962.5,-238.5 "/>
<text text-anchor="middle" x="891" y="-221.7" font-family="FreeSans" font-size="16.00" fill="#1c2021">&#39;name&#39; = &#39;HomeU2&#39;</text>
</g>
<!-- N10&#45;&gt;N15 -->
<g id="edge4" class="edge"><title>N10&#45;&gt;N15</title>
<path fill="none" stroke="red" stroke-width="2" d="M766.403,-310.277C788.332,-297.82 814.952,-282.699 837.947,-269.636"/>
<polygon fill="red" stroke="red" stroke-width="2" points="846.894,-264.554 840.421,-273.406 842.793,-267.459 838.446,-269.928 838.199,-269.494 837.952,-269.059 842.299,-266.589 835.976,-265.581 846.894,-264.554 846.894,-264.554"/>
<text text-anchor="middle" x="826.5" y="-285.6" font-family="FreeSans" font-size="8.00" fill="#1c2021">contains</text>
</g>
<!-- N15&#45;&gt;N23 -->
<g id="edge6" class="edge"><title>N15&#45;&gt;N23</title>
<path fill="none" stroke="red" stroke-width="2" d="M886.008,-212.277C883.848,-201.364 881.283,-188.405 878.942,-176.577"/>
<polygon fill="red" stroke="red" stroke-width="2" points="876.959,-166.554 883.315,-175.49 878.42,-171.362 879.391,-176.267 878.9,-176.364 878.41,-176.461 877.439,-171.556 874.486,-177.238 876.959,-166.554 876.959,-166.554"/>
<text text-anchor="middle" x="897.5" y="-187.6" font-family="FreeSans" font-size="8.00" fill="#1c2021">contains</text>
</g>
<!-- N11 -->
<g id="node7" class="node"><title>N11</title>
<path fill="#ffffff" stroke="#2e3436" stroke-width="1.5" d="M1004,-212.5C1004,-212.5 1096,-212.5 1096,-212.5 1102,-212.5 1108,-218.5 1108,-224.5 1108,-224.5 1108,-252.5 1108,-252.5 1108,-258.5 1102,-264.5 1096,-264.5 1096,-264.5 1004,-264.5 1004,-264.5 998,-264.5 992,-258.5 992,-252.5 992,-252.5 992,-224.5 992,-224.5 992,-218.5 998,-212.5 1004,-212.5"/>
<text text-anchor="middle" x="1050" y="-247.7" font-family="FreeSans" font-size="16.00" fill="#1c2021">Node[11]</text>
<polyline fill="none" stroke="#2e3436" stroke-width="1.5" points="992,-238.5 1108,-238.5 "/>
<text text-anchor="middle" x="1050" y="-221.7" font-family="FreeSans" font-size="16.00" fill="#1c2021">&#39;name&#39; = &#39;init.d&#39;</text>
</g>
<!-- N12 -->
<g id="node8" class="node"><title>N12</title>
<path fill="#ffffff" stroke="#2e3436" stroke-width="1.5" d="M870,-310.5C870,-310.5 950,-310.5 950,-310.5 956,-310.5 962,-316.5 962,-322.5 962,-322.5 962,-350.5 962,-350.5 962,-356.5 956,-362.5 950,-362.5 950,-362.5 870,-362.5 870,-362.5 864,-362.5 858,-356.5 858,-350.5 858,-350.5 858,-322.5 858,-322.5 858,-316.5 864,-310.5 870,-310.5"/>
<text text-anchor="middle" x="910" y="-345.7" font-family="FreeSans" font-size="16.00" fill="#1c2021">Node[12]</text>
<polyline fill="none" stroke="#2e3436" stroke-width="1.5" points="858,-336.5 962,-336.5 "/>
<text text-anchor="middle" x="910" y="-319.7" font-family="FreeSans" font-size="16.00" fill="#1c2021">&#39;name&#39; = &#39;etc&#39;</text>
</g>
<!-- N12&#45;&gt;N11 -->
<g id="edge5" class="edge"><title>N12&#45;&gt;N11</title>
<path fill="none" stroke="red" stroke-width="2" d="M946.783,-310.277C964.628,-298.041 986.222,-283.233 1005.04,-270.332"/>
<polygon fill="red" stroke="red" stroke-width="2" points="1013.46,-264.554 1007.76,-273.921 1009.62,-267.794 1005.5,-270.622 1005.22,-270.21 1004.93,-269.797 1009.06,-266.97 1002.67,-266.498 1013.46,-264.554 1013.46,-264.554"/>
<text text-anchor="middle" x="999.5" y="-285.6" font-family="FreeSans" font-size="8.00" fill="#1c2021">contains</text>
</g>
<!-- N18 -->
<g id="node9" class="node"><title>N18</title>
<path fill="#ffffff" stroke="#2e3436" stroke-width="1.5" d="M664,-408.5C664,-408.5 780,-408.5 780,-408.5 786,-408.5 792,-414.5 792,-420.5 792,-420.5 792,-448.5 792,-448.5 792,-454.5 786,-460.5 780,-460.5 780,-460.5 664,-460.5 664,-460.5 658,-460.5 652,-454.5 652,-448.5 652,-448.5 652,-420.5 652,-420.5 652,-414.5 658,-408.5 664,-408.5"/>
<text text-anchor="middle" x="722" y="-443.7" font-family="FreeSans" font-size="16.00" fill="#1c2021">Node[18]</text>
<polyline fill="none" stroke="#2e3436" stroke-width="1.5" points="652,-434.5 792,-434.5 "/>
<text text-anchor="middle" x="722" y="-417.7" font-family="FreeSans" font-size="16.00" fill="#1c2021">&#39;name&#39; = &#39;FileRoot&#39;</text>
</g>
<!-- N18&#45;&gt;N10 -->
<g id="edge7" class="edge"><title>N18&#45;&gt;N10</title>
<path fill="none" stroke="red" stroke-width="2" d="M722,-408.277C722,-397.364 722,-384.405 722,-372.577"/>
<polygon fill="red" stroke="red" stroke-width="2" points="722,-362.554 726.5,-372.554 722.5,-367.554 722.5,-372.554 722,-372.554 721.5,-372.554 721.5,-367.554 717.5,-372.554 722,-362.554 722,-362.554"/>
<text text-anchor="middle" x="737.5" y="-383.6" font-family="FreeSans" font-size="8.00" fill="#1c2021">contains</text>
</g>
<!-- N18&#45;&gt;N12 -->
<g id="edge8" class="edge"><title>N18&#45;&gt;N12</title>
<path fill="none" stroke="red" stroke-width="2" d="M771.395,-408.277C796.113,-395.655 826.189,-380.297 851.999,-367.117"/>
<polygon fill="red" stroke="red" stroke-width="2" points="860.935,-362.554 854.076,-371.11 856.709,-365.274 852.256,-367.548 852.029,-367.102 851.802,-366.657 856.255,-364.383 849.983,-363.095 860.935,-362.554 860.935,-362.554"/>
<text text-anchor="middle" x="836.5" y="-383.6" font-family="FreeSans" font-size="8.00" fill="#1c2021">contains</text>
</g>
<!-- N7 -->
<g id="node10" class="node"><title>N7</title>
<path fill="#ffffff" stroke="#2e3436" stroke-width="1.5" d="M185.5,-506.5C185.5,-506.5 276.5,-506.5 276.5,-506.5 282.5,-506.5 288.5,-512.5 288.5,-518.5 288.5,-518.5 288.5,-546.5 288.5,-546.5 288.5,-552.5 282.5,-558.5 276.5,-558.5 276.5,-558.5 185.5,-558.5 185.5,-558.5 179.5,-558.5 173.5,-552.5 173.5,-546.5 173.5,-546.5 173.5,-518.5 173.5,-518.5 173.5,-512.5 179.5,-506.5 185.5,-506.5"/>
<text text-anchor="middle" x="231" y="-541.7" font-family="FreeSans" font-size="16.00" fill="#1c2021">Node[7]</text>
<polyline fill="none" stroke="#2e3436" stroke-width="1.5" points="173.5,-532.5 288.5,-532.5 "/>
<text text-anchor="middle" x="231" y="-515.7" font-family="FreeSans" font-size="16.00" fill="#1c2021">&#39;name&#39; = &#39;User&#39;</text>
</g>
<!-- N14 -->
<g id="node11" class="node"><title>N14</title>
<path fill="#ffffff" stroke="#2e3436" stroke-width="1.5" d="M181,-408.5C181,-408.5 281,-408.5 281,-408.5 287,-408.5 293,-414.5 293,-420.5 293,-420.5 293,-448.5 293,-448.5 293,-454.5 287,-460.5 281,-460.5 281,-460.5 181,-460.5 181,-460.5 175,-460.5 169,-454.5 169,-448.5 169,-448.5 169,-420.5 169,-420.5 169,-414.5 175,-408.5 181,-408.5"/>
<text text-anchor="middle" x="231" y="-443.7" font-family="FreeSans" font-size="16.00" fill="#1c2021">Node[14]</text>
<polyline fill="none" stroke="#2e3436" stroke-width="1.5" points="169,-434.5 293,-434.5 "/>
<text text-anchor="middle" x="231" y="-417.7" font-family="FreeSans" font-size="16.00" fill="#1c2021">&#39;name&#39; = &#39;User1&#39;</text>
</g>
<!-- N7&#45;&gt;N14 -->
<g id="edge9" class="edge"><title>N7&#45;&gt;N14</title>
<path fill="none" stroke="#2e3436" stroke-width="2" d="M231,-506.277C231,-494.592 231,-480.562 231,-468.087"/>
<polygon fill="#2e3436" stroke="#2e3436" stroke-width="2" points="231,-460.554 234.375,-468.054 231.5,-464.304 231.5,-468.054 231,-468.054 230.5,-468.054 230.5,-464.304 227.625,-468.054 231,-460.554 231,-460.554"/>
<text text-anchor="middle" x="246.5" y="-481.6" font-family="FreeSans" font-size="8.00" fill="#1c2021">member</text>
</g>
<!-- N13 -->
<g id="node12" class="node"><title>N13</title>
<path fill="#ffffff" stroke="#2e3436" stroke-width="1.5" d="M28,-408.5C28,-408.5 128,-408.5 128,-408.5 134,-408.5 140,-414.5 140,-420.5 140,-420.5 140,-448.5 140,-448.5 140,-454.5 134,-460.5 128,-460.5 128,-460.5 28,-460.5 28,-460.5 22,-460.5 16,-454.5 16,-448.5 16,-448.5 16,-420.5 16,-420.5 16,-414.5 22,-408.5 28,-408.5"/>
<text text-anchor="middle" x="78" y="-443.7" font-family="FreeSans" font-size="16.00" fill="#1c2021">Node[13]</text>
<polyline fill="none" stroke="#2e3436" stroke-width="1.5" points="16,-434.5 140,-434.5 "/>
<text text-anchor="middle" x="78" y="-417.7" font-family="FreeSans" font-size="16.00" fill="#1c2021">&#39;name&#39; = &#39;User2&#39;</text>
</g>
<!-- N7&#45;&gt;N13 -->
<g id="edge10" class="edge"><title>N7&#45;&gt;N13</title>
<path fill="none" stroke="#2e3436" stroke-width="2" d="M190.801,-506.277C170.421,-493.49 145.566,-477.894 124.379,-464.6"/>
<polygon fill="#2e3436" stroke="#2e3436" stroke-width="2" points="117.93,-460.554 126.077,-461.682 121.373,-462.124 124.549,-464.117 124.283,-464.541 124.018,-464.964 120.841,-462.971 122.49,-467.399 117.93,-460.554 117.93,-460.554"/>
<text text-anchor="middle" x="175.5" y="-481.6" font-family="FreeSans" font-size="8.00" fill="#1c2021">member</text>
</g>
<!-- N14&#45;&gt;N17 -->
<g id="edge12" class="edge"><title>N14&#45;&gt;N17</title>
<path fill="none" stroke="#2e3436" stroke-width="2" d="M272.168,-408.352C360.406,-354.449 567.34,-228.037 661.202,-170.699"/>
<polygon fill="#2e3436" stroke="#2e3436" stroke-width="2" points="667.762,-166.692 663.121,-173.482 664.822,-169.073 661.622,-171.028 661.362,-170.601 661.101,-170.175 664.301,-168.22 659.602,-167.721 667.762,-166.692 667.762,-166.692"/>
<text text-anchor="middle" x="485.5" y="-285.6" font-family="FreeSans" font-size="8.00" fill="#1c2021">owns</text>
</g>
<!-- N13&#45;&gt;N16 -->
<g id="edge11" class="edge"><title>N13&#45;&gt;N16</title>
<path fill="none" stroke="#2e3436" stroke-width="2" d="M130.566,-408.396C169.564,-388.003 216,-359.17 216,-337.5 216,-337.5 216,-337.5 216,-139.5 216,-92.8098 538.013,-60.6211 680.514,-48.6625"/>
<polygon fill="#2e3436" stroke="#2e3436" stroke-width="2" points="688.4,-48.006 681.206,-51.9916 684.704,-48.8154 680.967,-49.1265 680.926,-48.6283 680.884,-48.13 684.621,-47.8188 680.646,-45.2649 688.4,-48.006 688.4,-48.006"/>
<text text-anchor="middle" x="225.5" y="-236.6" font-family="FreeSans" font-size="8.00" fill="#1c2021">owns</text>
</g>
<!-- N8 -->
<g id="node13" class="node"><title>N8</title>
<path fill="#ffffff" stroke="#2e3436" stroke-width="1.5" d="M334,-408.5C334,-408.5 446,-408.5 446,-408.5 452,-408.5 458,-414.5 458,-420.5 458,-420.5 458,-448.5 458,-448.5 458,-454.5 452,-460.5 446,-460.5 446,-460.5 334,-460.5 334,-460.5 328,-460.5 322,-454.5 322,-448.5 322,-448.5 322,-420.5 322,-420.5 322,-414.5 328,-408.5 334,-408.5"/>
<text text-anchor="middle" x="390" y="-443.7" font-family="FreeSans" font-size="16.00" fill="#1c2021">Node[8]</text>
<polyline fill="none" stroke="#2e3436" stroke-width="1.5" points="322,-434.5 458,-434.5 "/>
<text text-anchor="middle" x="390" y="-417.7" font-family="FreeSans" font-size="16.00" fill="#1c2021">&#39;name&#39; = &#39;Admin2&#39;</text>
</g>
<!-- N9 -->
<g id="node14" class="node"><title>N9</title>
<path fill="#ffffff" stroke="#2e3436" stroke-width="1.5" d="M499,-408.5C499,-408.5 611,-408.5 611,-408.5 617,-408.5 623,-414.5 623,-420.5 623,-420.5 623,-448.5 623,-448.5 623,-454.5 617,-460.5 611,-460.5 611,-460.5 499,-460.5 499,-460.5 493,-460.5 487,-454.5 487,-448.5 487,-448.5 487,-420.5 487,-420.5 487,-414.5 493,-408.5 499,-408.5"/>
<text text-anchor="middle" x="555" y="-443.7" font-family="FreeSans" font-size="16.00" fill="#1c2021">Node[9]</text>
<polyline fill="none" stroke="#2e3436" stroke-width="1.5" points="487,-434.5 623,-434.5 "/>
<text text-anchor="middle" x="555" y="-417.7" font-family="FreeSans" font-size="16.00" fill="#1c2021">&#39;name&#39; = &#39;Admin1&#39;</text>
</g>
<!-- N21 -->
<g id="node15" class="node"><title>N21</title>
<path fill="#ffffff" stroke="#2e3436" stroke-width="1.5" d="M504,-604.5C504,-604.5 594,-604.5 594,-604.5 600,-604.5 606,-610.5 606,-616.5 606,-616.5 606,-644.5 606,-644.5 606,-650.5 600,-656.5 594,-656.5 594,-656.5 504,-656.5 504,-656.5 498,-656.5 492,-650.5 492,-644.5 492,-644.5 492,-616.5 492,-616.5 492,-610.5 498,-604.5 504,-604.5"/>
<text text-anchor="middle" x="549" y="-639.7" font-family="FreeSans" font-size="16.00" fill="#1c2021">Node[21]</text>
<polyline fill="none" stroke="#2e3436" stroke-width="1.5" points="492,-630.5 606,-630.5 "/>
<text text-anchor="middle" x="549" y="-613.7" font-family="FreeSans" font-size="16.00" fill="#1c2021">&#39;name&#39; = &#39;Role&#39;</text>
</g>
<!-- N21&#45;&gt;N7 -->
<g id="edge14" class="edge"><title>N21&#45;&gt;N7</title>
<path fill="none" stroke="#2e3436" stroke-width="2" d="M491.781,-612.226C436.649,-595.583 353.352,-570.437 295.803,-553.063"/>
<polygon fill="#2e3436" stroke="#2e3436" stroke-width="2" points="288.564,-550.878 296.719,-549.814 292.298,-551.483 295.888,-552.567 295.744,-553.045 295.599,-553.524 292.009,-552.44 294.769,-556.276 288.564,-550.878 288.564,-550.878"/>
<text text-anchor="middle" x="415" y="-579.6" font-family="FreeSans" font-size="8.00" fill="#1c2021">subRole</text>
</g>
<!-- N22 -->
<g id="node16" class="node"><title>N22</title>
<path fill="#ffffff" stroke="#2e3436" stroke-width="1.5" d="M486.5,-506.5C486.5,-506.5 611.5,-506.5 611.5,-506.5 617.5,-506.5 623.5,-512.5 623.5,-518.5 623.5,-518.5 623.5,-546.5 623.5,-546.5 623.5,-552.5 617.5,-558.5 611.5,-558.5 611.5,-558.5 486.5,-558.5 486.5,-558.5 480.5,-558.5 474.5,-552.5 474.5,-546.5 474.5,-546.5 474.5,-518.5 474.5,-518.5 474.5,-512.5 480.5,-506.5 486.5,-506.5"/>
<text text-anchor="middle" x="549" y="-541.7" font-family="FreeSans" font-size="16.00" fill="#1c2021">Node[22]</text>
<polyline fill="none" stroke="#2e3436" stroke-width="1.5" points="474.5,-532.5 623.5,-532.5 "/>
<text text-anchor="middle" x="549" y="-515.7" font-family="FreeSans" font-size="16.00" fill="#1c2021">&#39;name&#39; = &#39;SUDOers&#39;</text>
</g>
<!-- N21&#45;&gt;N22 -->
<g id="edge13" class="edge"><title>N21&#45;&gt;N22</title>
<path fill="none" stroke="#2e3436" stroke-width="2" d="M549,-604.277C549,-592.592 549,-578.562 549,-566.087"/>
<polygon fill="#2e3436" stroke="#2e3436" stroke-width="2" points="549,-558.554 552.375,-566.054 549.5,-562.304 549.5,-566.054 549,-566.054 548.5,-566.054 548.5,-562.304 545.625,-566.054 549,-558.554 549,-558.554"/>
<text text-anchor="middle" x="564" y="-579.6" font-family="FreeSans" font-size="8.00" fill="#1c2021">subRole</text>
</g>
<!-- N22&#45;&gt;N18 -->
<g id="edge17" class="edge"><title>N22&#45;&gt;N18</title>
<path fill="none" stroke="#2e3436" stroke-width="2" d="M594.454,-506.277C617.697,-493.379 646.087,-477.625 670.177,-464.257"/>
<polygon fill="#2e3436" stroke="#2e3436" stroke-width="2" points="676.85,-460.554 671.929,-467.145 673.813,-462.811 670.534,-464.631 670.292,-464.194 670.049,-463.756 673.328,-461.937 668.654,-461.242 676.85,-460.554 676.85,-460.554"/>
<text text-anchor="middle" x="658" y="-481.6" font-family="FreeSans" font-size="8.00" fill="#1c2021">canRead</text>
</g>
<!-- N22&#45;&gt;N8 -->
<g id="edge16" class="edge"><title>N22&#45;&gt;N8</title>
<path fill="none" stroke="#2e3436" stroke-width="2" d="M507.225,-506.277C486.045,-493.49 460.215,-477.894 438.198,-464.6"/>
<polygon fill="#2e3436" stroke="#2e3436" stroke-width="2" points="431.496,-460.554 439.661,-461.542 434.965,-462.065 438.175,-464.003 437.917,-464.431 437.658,-464.859 434.448,-462.921 436.172,-467.32 431.496,-460.554 431.496,-460.554"/>
<text text-anchor="middle" x="490.5" y="-481.6" font-family="FreeSans" font-size="8.00" fill="#1c2021">member</text>
</g>
<!-- N22&#45;&gt;N9 -->
<g id="edge15" class="edge"><title>N22&#45;&gt;N9</title>
<path fill="none" stroke="#2e3436" stroke-width="2" d="M550.576,-506.277C551.307,-494.592 552.184,-480.562 552.963,-468.087"/>
<polygon fill="#2e3436" stroke="#2e3436" stroke-width="2" points="553.434,-460.554 556.335,-468.25 553.699,-464.328 553.465,-468.071 552.966,-468.04 552.467,-468.009 552.701,-464.266 549.598,-467.829 553.434,-460.554 553.434,-460.554"/>
<text text-anchor="middle" x="568.5" y="-481.6" font-family="FreeSans" font-size="8.00" fill="#1c2021">member</text>
</g>
<!-- N19 -->
<g id="node17" class="node"><title>N19</title>
<path fill="#ffffff" stroke="#2e3436" stroke-width="1.5" d="M648.5,-702.5C648.5,-702.5 693.5,-702.5 693.5,-702.5 699.5,-702.5 705.5,-708.5 705.5,-714.5 705.5,-714.5 705.5,-726.5 705.5,-726.5 705.5,-732.5 699.5,-738.5 693.5,-738.5 693.5,-738.5 648.5,-738.5 648.5,-738.5 642.5,-738.5 636.5,-732.5 636.5,-726.5 636.5,-726.5 636.5,-714.5 636.5,-714.5 636.5,-708.5 642.5,-702.5 648.5,-702.5"/>
<text text-anchor="middle" x="671" y="-727.6" font-family="FreeSans" font-size="8.00" fill="#1c2021">Node[19]</text>
<polyline fill="none" stroke="#2e3436" stroke-width="1.5" points="636.5,-720.5 705.5,-720.5 "/>
<text text-anchor="middle" x="671" y="-709.6" font-family="FreeSans" font-size="8.00" fill="#1c2021">&#39;name&#39; = &#39;Root&#39;</text>
</g>
<!-- N19&#45;&gt;N18 -->
<g id="edge19" class="edge"><title>N19&#45;&gt;N18</title>
<path fill="none" stroke="#2e3436" stroke-width="2" d="M674.114,-702.162C682.413,-655.944 705.175,-529.194 716.055,-468.604"/>
<polygon fill="#2e3436" stroke="#2e3436" stroke-width="2" points="717.447,-460.856 719.443,-468.835 717.276,-464.636 716.613,-468.327 716.121,-468.238 715.629,-468.15 716.292,-464.459 712.799,-467.642 717.447,-460.856 717.447,-460.856"/>
<text text-anchor="middle" x="703.5" y="-579.6" font-family="FreeSans" font-size="8.00" fill="#1c2021">has</text>
</g>
<!-- N19&#45;&gt;N21 -->
<g id="edge18" class="edge"><title>N19&#45;&gt;N21</title>
<path fill="none" stroke="#2e3436" stroke-width="2" d="M647.188,-702.324C630.989,-690.64 609.133,-674.875 590.154,-661.185"/>
<polygon fill="#2e3436" stroke="#2e3436" stroke-width="2" points="583.84,-656.631 591.898,-658.281 587.174,-658.419 590.216,-660.613 589.923,-661.018 589.631,-661.424 586.589,-659.23 587.949,-663.756 583.84,-656.631 583.84,-656.631"/>
<text text-anchor="middle" x="627.5" y="-677.6" font-family="FreeSans" font-size="8.00" fill="#1c2021">has</text>
</g>
</g>
</svg>
