<?xml version="1.0" encoding="UTF-8" standalone="no"?>
<!DOCTYPE svg PUBLIC "-//W3C//DTD SVG 1.1//EN"
 "http://www.w3.org/Graphics/SVG/1.1/DTD/svg11.dtd">
<!-- Generated by graphviz version 2.36.0 (20140111.2315)
 -->
<!-- Title: g Pages: 1 -->
<svg width="504pt" height="339pt"
 viewBox="0.00 0.00 504.00 339.27" xmlns="http://www.w3.org/2000/svg" xmlns:xlink="http://www.w3.org/1999/xlink">
<g id="graph0" class="graph" transform="scale(0.44523 0.44523) rotate(0) translate(4 758)">
<title>g</title>
<polygon fill="white" stroke="none" points="-4,4 -4,-758 1128,-758 1128,4 -4,4"/>
<g id="clust1" class="cluster"><title>clusterFiles</title>
</g>
<g id="clust2" class="cluster"><title>clusterUsers</title>
</g>
<!-- N20 -->
<g id="node1" class="node"><title>N20</title>
<path fill="#ffffff" stroke="#2e3436" stroke-width="1.5" d="M659.5,-217C659.5,-217 778.5,-217 778.5,-217 784.5,-217 790.5,-223 790.5,-229 790.5,-229 790.5,-257 790.5,-257 790.5,-263 784.5,-269 778.5,-269 778.5,-269 659.5,-269 659.5,-269 653.5,-269 647.5,-263 647.5,-257 647.5,-257 647.5,-229 647.5,-229 647.5,-223 653.5,-217 659.5,-217"/>
<text text-anchor="middle" x="719" y="-252.2" font-family="FreeSans" font-size="16.00" fill="#1c2021">Node[20]</text>
<polyline fill="none" stroke="#2e3436" stroke-width="1.5" points="647.5,-243 790.5,-243 "/>
<text text-anchor="middle" x="719" y="-226.2" font-family="FreeSans" font-size="16.00" fill="#1c2021">&#39;name&#39; = &#39;HomeU1&#39;</text>
</g>
<!-- N17 -->
<g id="node2" class="node"><title>N17</title>
<path fill="#ffffff" stroke="#2e3436" stroke-width="1.5" d="M662.5,-117C662.5,-117 755.5,-117 755.5,-117 761.5,-117 767.5,-123 767.5,-129 767.5,-129 767.5,-157 767.5,-157 767.5,-163 761.5,-169 755.5,-169 755.5,-169 662.5,-169 662.5,-169 656.5,-169 650.5,-163 650.5,-157 650.5,-157 650.5,-129 650.5,-129 650.5,-123 656.5,-117 662.5,-117"/>
<text text-anchor="middle" x="709" y="-152.2" font-family="FreeSans" font-size="16.00" fill="#1c2021">Node[17]</text>
<polyline fill="none" stroke="#2e3436" stroke-width="1.5" points="650.5,-143 767.5,-143 "/>
<text text-anchor="middle" x="709" y="-126.2" font-family="FreeSans" font-size="16.00" fill="#1c2021">&#39;name&#39; = &#39;File1&#39;</text>
</g>
<!-- N20&#45;&gt;N17 -->
<g id="edge1" class="edge"><title>N20&#45;&gt;N17</title>
<path fill="none" stroke="red" stroke-width="2" d="M716.425,-216.763C715.258,-205.331 713.86,-191.624 712.592,-179.204"/>
<polygon fill="red" stroke="red" stroke-width="2" points="711.567,-169.152 717.059,-178.643 712.572,-174.075 713.079,-179.049 712.582,-179.1 712.084,-179.151 711.577,-174.177 708.105,-179.557 711.567,-169.152 711.567,-169.152"/>
<text text-anchor="middle" x="721.5" y="-191.1" font-family="FreeSans" font-size="8.00" fill="#1c2021">leaf</text>
</g>
<!-- N23 -->
<g id="node3" class="node"><title>N23</title>
<path fill="#ffffff" stroke="#2e3436" stroke-width="1.5" d="M814,-117C814,-117 930,-117 930,-117 936,-117 942,-123 942,-129 942,-129 942,-157 942,-157 942,-163 936,-169 930,-169 930,-169 814,-169 814,-169 808,-169 802,-163 802,-157 802,-157 802,-129 802,-129 802,-123 808,-117 814,-117"/>
<text text-anchor="middle" x="872" y="-152.2" font-family="FreeSans" font-size="16.00" fill="#1c2021">Node[23]</text>
<polyline fill="none" stroke="#2e3436" stroke-width="1.5" points="802,-143 942,-143 "/>
<text text-anchor="middle" x="872" y="-126.2" font-family="FreeSans" font-size="16.00" fill="#1c2021">&#39;name&#39; = &#39;Desktop&#39;</text>
</g>
<!-- N16 -->
<g id="node4" class="node"><title>N16</title>
<path fill="#ffffff" stroke="#2e3436" stroke-width="1.5" d="M700.5,-17C700.5,-17 793.5,-17 793.5,-17 799.5,-17 805.5,-23 805.5,-29 805.5,-29 805.5,-57 805.5,-57 805.5,-63 799.5,-69 793.5,-69 793.5,-69 700.5,-69 700.5,-69 694.5,-69 688.5,-63 688.5,-57 688.5,-57 688.5,-29 688.5,-29 688.5,-23 694.5,-17 700.5,-17"/>
<text text-anchor="middle" x="747" y="-52.2" font-family="FreeSans" font-size="16.00" fill="#1c2021">Node[16]</text>
<polyline fill="none" stroke="#2e3436" stroke-width="1.5" points="688.5,-43 805.5,-43 "/>
<text text-anchor="middle" x="747" y="-26.2" font-family="FreeSans" font-size="16.00" fill="#1c2021">&#39;name&#39; = &#39;File2&#39;</text>
</g>
<!-- N23&#45;&gt;N16 -->
<g id="edge2" class="edge"><title>N23&#45;&gt;N16</title>
<path fill="none" stroke="red" stroke-width="2" d="M839.809,-116.763C823.771,-104.188 804.219,-88.8596 787.204,-75.5199"/>
<polygon fill="red" stroke="red" stroke-width="2" points="779.082,-69.1519 789.728,-71.7804 783.325,-71.8434 787.26,-74.9283 786.951,-75.3218 786.643,-75.7153 782.708,-72.6304 784.175,-78.8632 779.082,-69.1519 779.082,-69.1519"/>
<text text-anchor="middle" x="819.5" y="-91.1" font-family="FreeSans" font-size="8.00" fill="#1c2021">leaf</text>
</g>
<!-- N10 -->
<g id="node5" class="node"><title>N10</title>
<path fill="#ffffff" stroke="#2e3436" stroke-width="1.5" d="M672.5,-317C672.5,-317 771.5,-317 771.5,-317 777.5,-317 783.5,-323 783.5,-329 783.5,-329 783.5,-357 783.5,-357 783.5,-363 777.5,-369 771.5,-369 771.5,-369 672.5,-369 672.5,-369 666.5,-369 660.5,-363 660.5,-357 660.5,-357 660.5,-329 660.5,-329 660.5,-323 666.5,-317 672.5,-317"/>
<text text-anchor="middle" x="722" y="-352.2" font-family="FreeSans" font-size="16.00" fill="#1c2021">Node[10]</text>
<polyline fill="none" stroke="#2e3436" stroke-width="1.5" points="660.5,-343 783.5,-343 "/>
<text text-anchor="middle" x="722" y="-326.2" font-family="FreeSans" font-size="16.00" fill="#1c2021">&#39;name&#39; = &#39;Home&#39;</text>
</g>
<!-- N10&#45;&gt;N20 -->
<g id="edge3" class="edge"><title>N10&#45;&gt;N20</title>
<path fill="none" stroke="red" stroke-width="2" d="M721.227,-316.763C720.877,-305.331 720.458,-291.624 720.078,-279.204"/>
<polygon fill="red" stroke="red" stroke-width="2" points="719.77,-269.152 724.574,-279.009 720.423,-274.134 720.576,-279.132 720.076,-279.147 719.576,-279.163 719.423,-274.165 715.578,-279.285 719.77,-269.152 719.77,-269.152"/>
<text text-anchor="middle" x="736.5" y="-291.1" font-family="FreeSans" font-size="8.00" fill="#1c2021">contains</text>
</g>
<!-- N15 -->
<g id="node6" class="node"><title>N15</title>
<path fill="#ffffff" stroke="#2e3436" stroke-width="1.5" d="M831.5,-217C831.5,-217 950.5,-217 950.5,-217 956.5,-217 962.5,-223 962.5,-229 962.5,-229 962.5,-257 962.5,-257 962.5,-263 956.5,-269 950.5,-269 950.5,-269 831.5,-269 831.5,-269 825.5,-269 819.5,-263 819.5,-257 819.5,-257 819.5,-229 819.5,-229 819.5,-223 825.5,-217 831.5,-217"/>
<text text-anchor="middle" x="891" y="-252.2" font-family="FreeSans" font-size="16.00" fill="#1c2021">Node[15]</text>
<polyline fill="none" stroke="#2e3436" stroke-width="1.5" points="819.5,-243 962.5,-243 "/>
<text text-anchor="middle" x="891" y="-226.2" font-family="FreeSans" font-size="16.00" fill="#1c2021">&#39;name&#39; = &#39;HomeU2&#39;</text>
</g>
<!-- N10&#45;&gt;N15 -->
<g id="edge4" class="edge"><title>N10&#45;&gt;N15</title>
<path fill="none" stroke="red" stroke-width="2" d="M765.522,-316.763C787.896,-303.788 815.327,-287.881 838.829,-274.253"/>
<polygon fill="red" stroke="red" stroke-width="2" points="847.626,-269.152 841.232,-278.061 843.551,-272.093 839.226,-274.601 838.975,-274.168 838.724,-273.736 843.05,-271.228 836.718,-270.276 847.626,-269.152 847.626,-269.152"/>
<text text-anchor="middle" x="826.5" y="-291.1" font-family="FreeSans" font-size="8.00" fill="#1c2021">contains</text>
</g>
<!-- N15&#45;&gt;N23 -->
<g id="edge6" class="edge"><title>N15&#45;&gt;N23</title>
<path fill="none" stroke="red" stroke-width="2" d="M886.107,-216.763C883.891,-205.331 881.233,-191.624 878.825,-179.204"/>
<polygon fill="red" stroke="red" stroke-width="2" points="876.876,-169.152 883.198,-178.113 878.319,-173.965 879.271,-178.874 878.78,-178.969 878.289,-179.064 877.337,-174.156 874.362,-179.826 876.876,-169.152 876.876,-169.152"/>
<text text-anchor="middle" x="897.5" y="-191.1" font-family="FreeSans" font-size="8.00" fill="#1c2021">contains</text>
</g>
<!-- N11 -->
<g id="node7" class="node"><title>N11</title>
<path fill="#ffffff" stroke="#2e3436" stroke-width="1.5" d="M1004,-217C1004,-217 1096,-217 1096,-217 1102,-217 1108,-223 1108,-229 1108,-229 1108,-257 1108,-257 1108,-263 1102,-269 1096,-269 1096,-269 1004,-269 1004,-269 998,-269 992,-263 992,-257 992,-257 992,-229 992,-229 992,-223 998,-217 1004,-217"/>
<text text-anchor="middle" x="1050" y="-252.2" font-family="FreeSans" font-size="16.00" fill="#1c2021">Node[11]</text>
<polyline fill="none" stroke="#2e3436" stroke-width="1.5" points="992,-243 1108,-243 "/>
<text text-anchor="middle" x="1050" y="-226.2" font-family="FreeSans" font-size="16.00" fill="#1c2021">&#39;name&#39; = &#39;init.d&#39;</text>
</g>
<!-- N12 -->
<g id="node8" class="node"><title>N12</title>
<path fill="#ffffff" stroke="#2e3436" stroke-width="1.5" d="M870,-317C870,-317 950,-317 950,-317 956,-317 962,-323 962,-329 962,-329 962,-357 962,-357 962,-363 956,-369 950,-369 950,-369 870,-369 870,-369 864,-369 858,-363 858,-357 858,-357 858,-329 858,-329 858,-323 864,-317 870,-317"/>
<text text-anchor="middle" x="910" y="-352.2" font-family="FreeSans" font-size="16.00" fill="#1c2021">Node[12]</text>
<polyline fill="none" stroke="#2e3436" stroke-width="1.5" points="858,-343 962,-343 "/>
<text text-anchor="middle" x="910" y="-326.2" font-family="FreeSans" font-size="16.00" fill="#1c2021">&#39;name&#39; = &#39;etc&#39;</text>
</g>
<!-- N12&#45;&gt;N11 -->
<g id="edge5" class="edge"><title>N12&#45;&gt;N11</title>
<path fill="none" stroke="red" stroke-width="2" d="M946.053,-316.763C964.262,-304.017 986.513,-288.441 1005.75,-274.975"/>
<polygon fill="red" stroke="red" stroke-width="2" points="1014.07,-269.152 1008.46,-278.573 1010.26,-272.429 1006.16,-275.296 1005.88,-274.887 1005.59,-274.477 1009.69,-271.61 1003.3,-271.2 1014.07,-269.152 1014.07,-269.152"/>
<text text-anchor="middle" x="999.5" y="-291.1" font-family="FreeSans" font-size="8.00" fill="#1c2021">contains</text>
</g>
<!-- N18 -->
<g id="node9" class="node"><title>N18</title>
<path fill="#ffffff" stroke="#2e3436" stroke-width="1.5" d="M664,-417C664,-417 780,-417 780,-417 786,-417 792,-423 792,-429 792,-429 792,-457 792,-457 792,-463 786,-469 780,-469 780,-469 664,-469 664,-469 658,-469 652,-463 652,-457 652,-457 652,-429 652,-429 652,-423 658,-417 664,-417"/>
<text text-anchor="middle" x="722" y="-452.2" font-family="FreeSans" font-size="16.00" fill="#1c2021">Node[18]</text>
<polyline fill="none" stroke="#2e3436" stroke-width="1.5" points="652,-443 792,-443 "/>
<text text-anchor="middle" x="722" y="-426.2" font-family="FreeSans" font-size="16.00" fill="#1c2021">&#39;name&#39; = &#39;FileRoot&#39;</text>
</g>
<!-- N18&#45;&gt;N10 -->
<g id="edge7" class="edge"><title>N18&#45;&gt;N10</title>
<path fill="none" stroke="red" stroke-width="2" d="M722,-416.763C722,-405.331 722,-391.624 722,-379.204"/>
<polygon fill="red" stroke="red" stroke-width="2" points="722,-369.152 726.5,-379.152 722.5,-374.152 722.5,-379.152 722,-379.152 721.5,-379.152 721.5,-374.152 717.5,-379.152 722,-369.152 722,-369.152"/>
<text text-anchor="middle" x="737.5" y="-391.1" font-family="FreeSans" font-size="8.00" fill="#1c2021">contains</text>
</g>
<!-- N18&#45;&gt;N12 -->
<g id="edge8" class="edge"><title>N18&#45;&gt;N12</title>
<path fill="none" stroke="red" stroke-width="2" d="M770.415,-416.763C795.523,-403.674 826.358,-387.601 852.654,-373.893"/>
<polygon fill="red" stroke="red" stroke-width="2" points="861.749,-369.152 854.962,-377.765 857.547,-371.907 853.113,-374.218 852.882,-373.774 852.651,-373.331 857.084,-371.02 850.802,-369.784 861.749,-369.152 861.749,-369.152"/>
<text text-anchor="middle" x="836.5" y="-391.1" font-family="FreeSans" font-size="8.00" fill="#1c2021">contains</text>
</g>
<!-- N7 -->
<g id="node10" class="node"><title>N7</title>
<path fill="#ffffff" stroke="#2e3436" stroke-width="1.5" d="M185.5,-517C185.5,-517 276.5,-517 276.5,-517 282.5,-517 288.5,-523 288.5,-529 288.5,-529 288.5,-557 288.5,-557 288.5,-563 282.5,-569 276.5,-569 276.5,-569 185.5,-569 185.5,-569 179.5,-569 173.5,-563 173.5,-557 173.5,-557 173.5,-529 173.5,-529 173.5,-523 179.5,-517 185.5,-517"/>
<text text-anchor="middle" x="231" y="-552.2" font-family="FreeSans" font-size="16.00" fill="#1c2021">Node[7]</text>
<polyline fill="none" stroke="#2e3436" stroke-width="1.5" points="173.5,-543 288.5,-543 "/>
<text text-anchor="middle" x="231" y="-526.2" font-family="FreeSans" font-size="16.00" fill="#1c2021">&#39;name&#39; = &#39;User&#39;</text>
</g>
<!-- N14 -->
<g id="node11" class="node"><title>N14</title>
<path fill="#ffffff" stroke="#2e3436" stroke-width="1.5" d="M181,-417C181,-417 281,-417 281,-417 287,-417 293,-423 293,-429 293,-429 293,-457 293,-457 293,-463 287,-469 281,-469 281,-469 181,-469 181,-469 175,-469 169,-463 169,-457 169,-457 169,-429 169,-429 169,-423 175,-417 181,-417"/>
<text text-anchor="middle" x="231" y="-452.2" font-family="FreeSans" font-size="16.00" fill="#1c2021">Node[14]</text>
<polyline fill="none" stroke="#2e3436" stroke-width="1.5" points="169,-443 293,-443 "/>
<text text-anchor="middle" x="231" y="-426.2" font-family="FreeSans" font-size="16.00" fill="#1c2021">&#39;name&#39; = &#39;User1&#39;</text>
</g>
<!-- N7&#45;&gt;N14 -->
<g id="edge9" class="edge"><title>N7&#45;&gt;N14</title>
<path fill="none" stroke="#2e3436" stroke-width="2" d="M231,-516.763C231,-504.646 231,-489.971 231,-476.983"/>
<polygon fill="#2e3436" stroke="#2e3436" stroke-width="2" points="231,-469.152 234.375,-476.652 231.5,-472.902 231.5,-476.652 231,-476.652 230.5,-476.652 230.5,-472.902 227.625,-476.652 231,-469.152 231,-469.152"/>
<text text-anchor="middle" x="246.5" y="-491.1" font-family="FreeSans" font-size="8.00" fill="#1c2021">member</text>
</g>
<!-- N13 -->
<g id="node12" class="node"><title>N13</title>
<path fill="#ffffff" stroke="#2e3436" stroke-width="1.5" d="M28,-417C28,-417 128,-417 128,-417 134,-417 140,-423 140,-429 140,-429 140,-457 140,-457 140,-463 134,-469 128,-469 128,-469 28,-469 28,-469 22,-469 16,-463 16,-457 16,-457 16,-429 16,-429 16,-423 22,-417 28,-417"/>
<text text-anchor="middle" x="78" y="-452.2" font-family="FreeSans" font-size="16.00" fill="#1c2021">Node[13]</text>
<polyline fill="none" stroke="#2e3436" stroke-width="1.5" points="16,-443 140,-443 "/>
<text text-anchor="middle" x="78" y="-426.2" font-family="FreeSans" font-size="16.00" fill="#1c2021">&#39;name&#39; = &#39;User2&#39;</text>
</g>
<!-- N7&#45;&gt;N13 -->
<g id="edge10" class="edge"><title>N7&#45;&gt;N13</title>
<path fill="none" stroke="#2e3436" stroke-width="2" d="M191.599,-516.763C170.897,-503.503 145.412,-487.179 123.831,-473.356"/>
<polygon fill="#2e3436" stroke="#2e3436" stroke-width="2" points="117.268,-469.152 125.404,-470.355 120.695,-470.754 123.853,-472.776 123.583,-473.197 123.314,-473.618 120.156,-471.596 121.763,-476.039 117.268,-469.152 117.268,-469.152"/>
<text text-anchor="middle" x="175.5" y="-491.1" font-family="FreeSans" font-size="8.00" fill="#1c2021">member</text>
</g>
<!-- N14&#45;&gt;N17 -->
<g id="edge12" class="edge"><title>N14&#45;&gt;N17</title>
<path fill="none" stroke="#2e3436" stroke-width="2" d="M271.342,-416.85C359.373,-361.969 568.299,-231.717 662.05,-173.27"/>
<polygon fill="#2e3436" stroke="#2e3436" stroke-width="2" points="668.597,-169.188 664.018,-176.02 665.68,-171.597 662.497,-173.58 662.233,-173.156 661.968,-172.732 665.151,-170.748 660.447,-170.292 668.597,-169.188 668.597,-169.188"/>
<text text-anchor="middle" x="485.5" y="-291.1" font-family="FreeSans" font-size="8.00" fill="#1c2021">owns</text>
</g>
<!-- N13&#45;&gt;N16 -->
<g id="edge11" class="edge"><title>N13&#45;&gt;N16</title>
<path fill="none" stroke="#2e3436" stroke-width="2" d="M129.386,-416.844C168.621,-395.896 216,-366.039 216,-344 216,-344 216,-344 216,-142 216,-95.2787 538.013,-61.8945 680.514,-49.4083"/>
<polygon fill="#2e3436" stroke="#2e3436" stroke-width="2" points="688.4,-48.7226 681.221,-52.7347 684.707,-49.5456 680.972,-49.8705 680.928,-49.3724 680.885,-48.8743 684.621,-48.5494 680.636,-46.0101 688.4,-48.7226 688.4,-48.7226"/>
<text text-anchor="middle" x="225.5" y="-241.1" font-family="FreeSans" font-size="8.00" fill="#1c2021">owns</text>
</g>
<!-- N8 -->
<g id="node13" class="node"><title>N8</title>
<path fill="#ffffff" stroke="#2e3436" stroke-width="1.5" d="M334,-417C334,-417 446,-417 446,-417 452,-417 458,-423 458,-429 458,-429 458,-457 458,-457 458,-463 452,-469 446,-469 446,-469 334,-469 334,-469 328,-469 322,-463 322,-457 322,-457 322,-429 322,-429 322,-423 328,-417 334,-417"/>
<text text-anchor="middle" x="390" y="-452.2" font-family="FreeSans" font-size="16.00" fill="#1c2021">Node[8]</text>
<polyline fill="none" stroke="#2e3436" stroke-width="1.5" points="322,-443 458,-443 "/>
<text text-anchor="middle" x="390" y="-426.2" font-family="FreeSans" font-size="16.00" fill="#1c2021">&#39;name&#39; = &#39;Admin2&#39;</text>
</g>
<!-- N9 -->
<g id="node14" class="node"><title>N9</title>
<path fill="#ffffff" stroke="#2e3436" stroke-width="1.5" d="M499,-417C499,-417 611,-417 611,-417 617,-417 623,-423 623,-429 623,-429 623,-457 623,-457 623,-463 617,-469 611,-469 611,-469 499,-469 499,-469 493,-469 487,-463 487,-457 487,-457 487,-429 487,-429 487,-423 493,-417 499,-417"/>
<text text-anchor="middle" x="555" y="-452.2" font-family="FreeSans" font-size="16.00" fill="#1c2021">Node[9]</text>
<polyline fill="none" stroke="#2e3436" stroke-width="1.5" points="487,-443 623,-443 "/>
<text text-anchor="middle" x="555" y="-426.2" font-family="FreeSans" font-size="16.00" fill="#1c2021">&#39;name&#39; = &#39;Admin1&#39;</text>
</g>
<!-- N21 -->
<g id="node15" class="node"><title>N21</title>
<path fill="#ffffff" stroke="#2e3436" stroke-width="1.5" d="M504,-617C504,-617 594,-617 594,-617 600,-617 606,-623 606,-629 606,-629 606,-657 606,-657 606,-663 600,-669 594,-669 594,-669 504,-669 504,-669 498,-669 492,-663 492,-657 492,-657 492,-629 492,-629 492,-623 498,-617 504,-617"/>
<text text-anchor="middle" x="549" y="-652.2" font-family="FreeSans" font-size="16.00" fill="#1c2021">Node[21]</text>
<polyline fill="none" stroke="#2e3436" stroke-width="1.5" points="492,-643 606,-643 "/>
<text text-anchor="middle" x="549" y="-626.2" font-family="FreeSans" font-size="16.00" fill="#1c2021">&#39;name&#39; = &#39;Role&#39;</text>
</g>
<!-- N21&#45;&gt;N7 -->
<g id="edge14" class="edge"><title>N21&#45;&gt;N7</title>
<path fill="none" stroke="#2e3436" stroke-width="2" d="M491.781,-624.366C436.649,-607.376 353.352,-581.706 295.803,-563.971"/>
<polygon fill="#2e3436" stroke="#2e3436" stroke-width="2" points="288.564,-561.74 296.725,-560.723 292.295,-562.366 295.879,-563.471 295.731,-563.949 295.584,-564.427 292,-563.322 294.737,-567.174 288.564,-561.74 288.564,-561.74"/>
<text text-anchor="middle" x="415" y="-591.1" font-family="FreeSans" font-size="8.00" fill="#1c2021">subRole</text>
</g>
<!-- N22 -->
<g id="node16" class="node"><title>N22</title>
<path fill="#ffffff" stroke="#2e3436" stroke-width="1.5" d="M486.5,-517C486.5,-517 611.5,-517 611.5,-517 617.5,-517 623.5,-523 623.5,-529 623.5,-529 623.5,-557 623.5,-557 623.5,-563 617.5,-569 611.5,-569 611.5,-569 486.5,-569 486.5,-569 480.5,-569 474.5,-563 474.5,-557 474.5,-557 474.5,-529 474.5,-529 474.5,-523 480.5,-517 486.5,-517"/>
<text text-anchor="middle" x="549" y="-552.2" font-family="FreeSans" font-size="16.00" fill="#1c2021">Node[22]</text>
<polyline fill="none" stroke="#2e3436" stroke-width="1.5" points="474.5,-543 623.5,-543 "/>
<text text-anchor="middle" x="549" y="-526.2" font-family="FreeSans" font-size="16.00" fill="#1c2021">&#39;name&#39; = &#39;SUDOers&#39;</text>
</g>
<!-- N21&#45;&gt;N22 -->
<g id="edge13" class="edge"><title>N21&#45;&gt;N22</title>
<path fill="none" stroke="#2e3436" stroke-width="2" d="M549,-616.763C549,-604.646 549,-589.971 549,-576.983"/>
<polygon fill="#2e3436" stroke="#2e3436" stroke-width="2" points="549,-569.152 552.375,-576.652 549.5,-572.902 549.5,-576.652 549,-576.652 548.5,-576.652 548.5,-572.902 545.625,-576.652 549,-569.152 549,-569.152"/>
<text text-anchor="middle" x="564" y="-591.1" font-family="FreeSans" font-size="8.00" fill="#1c2021">subRole</text>
</g>
<!-- N22&#45;&gt;N18 -->
<g id="edge17" class="edge"><title>N22&#45;&gt;N18</title>
<path fill="none" stroke="#2e3436" stroke-width="2" d="M593.552,-516.763C617.162,-503.388 646.273,-486.897 670.809,-472.999"/>
<polygon fill="#2e3436" stroke="#2e3436" stroke-width="2" points="677.599,-469.152 672.737,-475.785 674.583,-471.435 671.32,-473.284 671.073,-472.849 670.827,-472.414 674.09,-470.565 669.41,-469.912 677.599,-469.152 677.599,-469.152"/>
<text text-anchor="middle" x="658" y="-491.1" font-family="FreeSans" font-size="8.00" fill="#1c2021">canRead</text>
</g>
<!-- N22&#45;&gt;N8 -->
<g id="edge16" class="edge"><title>N22&#45;&gt;N8</title>
<path fill="none" stroke="#2e3436" stroke-width="2" d="M508.054,-516.763C486.447,-503.445 459.828,-487.038 437.338,-473.177"/>
<polygon fill="#2e3436" stroke="#2e3436" stroke-width="2" points="430.808,-469.152 438.963,-470.214 434.262,-470.694 437.455,-472.662 437.192,-473.087 436.93,-473.513 433.738,-471.545 435.422,-475.96 430.808,-469.152 430.808,-469.152"/>
<text text-anchor="middle" x="490.5" y="-491.1" font-family="FreeSans" font-size="8.00" fill="#1c2021">member</text>
</g>
<!-- N22&#45;&gt;N9 -->
<g id="edge15" class="edge"><title>N22&#45;&gt;N9</title>
<path fill="none" stroke="#2e3436" stroke-width="2" d="M550.545,-516.763C551.287,-504.646 552.185,-489.971 552.981,-476.983"/>
<polygon fill="#2e3436" stroke="#2e3436" stroke-width="2" points="553.46,-469.152 556.37,-476.844 553.73,-472.925 553.501,-476.668 553.002,-476.638 552.503,-476.607 552.732,-472.864 549.633,-476.432 553.46,-469.152 553.46,-469.152"/>
<text text-anchor="middle" x="568.5" y="-491.1" font-family="FreeSans" font-size="8.00" fill="#1c2021">member</text>
</g>
<!-- N19 -->
<g id="node17" class="node"><title>N19</title>
<path fill="#ffffff" stroke="#2e3436" stroke-width="1.5" d="M648.5,-717C648.5,-717 693.5,-717 693.5,-717 699.5,-717 705.5,-723 705.5,-729 705.5,-729 705.5,-741 705.5,-741 705.5,-747 699.5,-753 693.5,-753 693.5,-753 648.5,-753 648.5,-753 642.5,-753 636.5,-747 636.5,-741 636.5,-741 636.5,-729 636.5,-729 636.5,-723 642.5,-717 648.5,-717"/>
<text text-anchor="middle" x="671" y="-742.1" font-family="FreeSans" font-size="8.00" fill="#1c2021">Node[19]</text>
<polyline fill="none" stroke="#2e3436" stroke-width="1.5" points="636.5,-735 705.5,-735 "/>
<text text-anchor="middle" x="671" y="-724.1" font-family="FreeSans" font-size="8.00" fill="#1c2021">&#39;name&#39; = &#39;Root&#39;</text>
</g>
<!-- N19&#45;&gt;N18 -->
<g id="edge19" class="edge"><title>N19&#45;&gt;N18</title>
<path fill="none" stroke="#2e3436" stroke-width="2" d="M674.038,-716.728C682.325,-669.603 705.428,-538.23 716.259,-476.645"/>
<polygon fill="#2e3436" stroke="#2e3436" stroke-width="2" points="717.579,-469.138 719.604,-477.109 717.422,-472.918 716.773,-476.611 716.28,-476.524 715.788,-476.438 716.437,-472.744 712.956,-475.94 717.579,-469.138 717.579,-469.138"/>
<text text-anchor="middle" x="703.5" y="-591.1" font-family="FreeSans" font-size="8.00" fill="#1c2021">has</text>
</g>
<!-- N19&#45;&gt;N21 -->
<g id="edge18" class="edge"><title>N19&#45;&gt;N21</title>
<path fill="none" stroke="#2e3436" stroke-width="2" d="M647.766,-716.86C631.296,-704.71 608.772,-688.094 589.392,-673.797"/>
<polygon fill="#2e3436" stroke="#2e3436" stroke-width="2" points="583.222,-669.246 591.261,-670.982 586.537,-671.07 589.554,-673.296 589.258,-673.698 588.961,-674.101 585.943,-671.874 587.254,-676.414 583.222,-669.246 583.222,-669.246"/>
<text text-anchor="middle" x="627.5" y="-691.1" font-family="FreeSans" font-size="8.00" fill="#1c2021">has</text>
</g>
</g>
</svg>
