<?xml version="1.0" encoding="UTF-8" standalone="no"?>
<!DOCTYPE svg PUBLIC "-//W3C//DTD SVG 1.1//EN"
 "http://www.w3.org/Graphics/SVG/1.1/DTD/svg11.dtd">
<!-- Generated by graphviz version 2.38.0 (20140413.2041)
 -->
<!-- Title: g Pages: 1 -->
<svg width="219pt" height="401pt"
 viewBox="0.00 0.00 219.00 401.00" xmlns="http://www.w3.org/2000/svg" xmlns:xlink="http://www.w3.org/1999/xlink">
<g id="graph0" class="graph" transform="scale(1 1) rotate(0) translate(4 397)">
<title>g</title>
<polygon fill="white" stroke="none" points="-4,4 -4,-397 215,-397 215,4 -4,4"/>
<!-- N0 -->
<g id="node1" class="node"><title>N0</title>
<path fill="#ffffff" stroke="#2e3436" stroke-width="1.5" d="M104,-274.5C104,-274.5 173,-274.5 173,-274.5 179,-274.5 185,-280.5 185,-286.5 185,-286.5 185,-298.5 185,-298.5 185,-304.5 179,-310.5 173,-310.5 173,-310.5 104,-310.5 104,-310.5 98,-310.5 92,-304.5 92,-298.5 92,-298.5 92,-286.5 92,-286.5 92,-280.5 98,-274.5 104,-274.5"/>
<text text-anchor="start" x="100" y="-290.6" font-family="FreeSans" font-size="8.00" fill="#1c2021">Node[0]name = &#39;Lars&#39;</text>
</g>
<!-- N5 -->
<g id="node2" class="node"><title>N5</title>
<path fill="#ffffff" stroke="#2e3436" stroke-width="1.5" d="M104.5,-164.5C104.5,-164.5 172.5,-164.5 172.5,-164.5 178.5,-164.5 184.5,-170.5 184.5,-176.5 184.5,-176.5 184.5,-188.5 184.5,-188.5 184.5,-194.5 178.5,-200.5 172.5,-200.5 172.5,-200.5 104.5,-200.5 104.5,-200.5 98.5,-200.5 92.5,-194.5 92.5,-188.5 92.5,-188.5 92.5,-176.5 92.5,-176.5 92.5,-170.5 98.5,-164.5 104.5,-164.5"/>
<text text-anchor="start" x="100.5" y="-180.6" font-family="FreeSans" font-size="8.00" fill="#1c2021">Node[5]name = &#39;Dirk&#39;</text>
</g>
<!-- N0&#45;&gt;N5 -->
<g id="edge1" class="edge"><title>N0&#45;&gt;N5</title>
<path fill="none" stroke="#2e3436" stroke-width="2" d="M138.5,-274.148C138.5,-256.356 138.5,-228.513 138.5,-208.378"/>
<polygon fill="#2e3436" stroke="#2e3436" stroke-width="2" points="138.5,-200.809 141.875,-208.309 139,-204.559 139,-208.309 138.5,-208.309 138,-208.309 138,-204.559 135.125,-208.309 138.5,-200.809 138.5,-200.809"/>
<text text-anchor="middle" x="154" y="-235.6" font-family="FreeSans" font-size="8.00" fill="#2e3436">KNOWS</text>
</g>
<!-- N4 -->
<g id="node7" class="node"><title>N4</title>
<path fill="#ffffff" stroke="#2e3436" stroke-width="1.5" d="M102,-82.5C102,-82.5 175,-82.5 175,-82.5 181,-82.5 187,-88.5 187,-94.5 187,-94.5 187,-106.5 187,-106.5 187,-112.5 181,-118.5 175,-118.5 175,-118.5 102,-118.5 102,-118.5 96,-118.5 90,-112.5 90,-106.5 90,-106.5 90,-94.5 90,-94.5 90,-88.5 96,-82.5 102,-82.5"/>
<text text-anchor="start" x="98" y="-98.6" font-family="FreeSans" font-size="8.00" fill="#1c2021">Node[4]name = &#39;Peter&#39;</text>
</g>
<!-- N5&#45;&gt;N4 -->
<g id="edge6" class="edge"><title>N5&#45;&gt;N4</title>
<path fill="none" stroke="#2e3436" stroke-width="2" d="M138.5,-164.141C138.5,-153.058 138.5,-138.518 138.5,-126.236"/>
<polygon fill="#2e3436" stroke="#2e3436" stroke-width="2" points="138.5,-118.55 141.875,-126.05 139,-122.3 139,-126.05 138.5,-126.05 138,-126.05 138,-122.3 135.125,-126.05 138.5,-118.55 138.5,-118.55"/>
<text text-anchor="middle" x="154" y="-139.6" font-family="FreeSans" font-size="8.00" fill="#2e3436">KNOWS</text>
</g>
<!-- N1 -->
<g id="node3" class="node"><title>N1</title>
<path fill="#ffffff" stroke="#2e3436" stroke-width="1.5" d="M45,-0.5C45,-0.5 116,-0.5 116,-0.5 122,-0.5 128,-6.5 128,-12.5 128,-12.5 128,-24.5 128,-24.5 128,-30.5 122,-36.5 116,-36.5 116,-36.5 45,-36.5 45,-36.5 39,-36.5 33,-30.5 33,-24.5 33,-24.5 33,-12.5 33,-12.5 33,-6.5 39,-0.5 45,-0.5"/>
<text text-anchor="start" x="41" y="-16.6" font-family="FreeSans" font-size="8.00" fill="#1c2021">Node[1]name = &#39;Sara&#39;</text>
</g>
<!-- N2 -->
<g id="node4" class="node"><title>N2</title>
<path fill="#ffffff" stroke="#2e3436" stroke-width="1.5" d="M136,-356.5C136,-356.5 199,-356.5 199,-356.5 205,-356.5 211,-362.5 211,-368.5 211,-368.5 211,-380.5 211,-380.5 211,-386.5 205,-392.5 199,-392.5 199,-392.5 136,-392.5 136,-392.5 130,-392.5 124,-386.5 124,-380.5 124,-380.5 124,-368.5 124,-368.5 124,-362.5 130,-356.5 136,-356.5"/>
<text text-anchor="start" x="132" y="-372.6" font-family="FreeSans" font-size="8.00" fill="#1c2021">Node[2]name = &#39;Ed&#39;</text>
</g>
<!-- N2&#45;&gt;N0 -->
<g id="edge2" class="edge"><title>N2&#45;&gt;N0</title>
<path fill="none" stroke="#2e3436" stroke-width="2" d="M161.207,-356.141C157.152,-344.953 151.818,-330.24 147.34,-317.886"/>
<polygon fill="#2e3436" stroke="#2e3436" stroke-width="2" points="144.681,-310.55 150.41,-316.451 146.429,-313.905 147.707,-317.431 147.237,-317.601 146.767,-317.772 145.489,-314.246 144.064,-318.751 144.681,-310.55 144.681,-310.55"/>
<text text-anchor="middle" x="170" y="-331.6" font-family="FreeSans" font-size="8.00" fill="#2e3436">KNOWS</text>
</g>
<!-- N3 -->
<g id="node5" class="node"><title>N3</title>
<path fill="#ffffff" stroke="#2e3436" stroke-width="1.5" d="M12.5,-356.5C12.5,-356.5 80.5,-356.5 80.5,-356.5 86.5,-356.5 92.5,-362.5 92.5,-368.5 92.5,-368.5 92.5,-380.5 92.5,-380.5 92.5,-386.5 86.5,-392.5 80.5,-392.5 80.5,-392.5 12.5,-392.5 12.5,-392.5 6.5,-392.5 0.5,-386.5 0.5,-380.5 0.5,-380.5 0.5,-368.5 0.5,-368.5 0.5,-362.5 6.5,-356.5 12.5,-356.5"/>
<text text-anchor="start" x="8.5" y="-372.6" font-family="FreeSans" font-size="8.00" fill="#1c2021">Node[3]name = &#39;Lisa&#39;</text>
</g>
<!-- N3&#45;&gt;N0 -->
<g id="edge3" class="edge"><title>N3&#45;&gt;N0</title>
<path fill="none" stroke="#2e3436" stroke-width="2" d="M66.4626,-356.141C80.0577,-344.319 98.1769,-328.564 112.842,-315.811"/>
<polygon fill="#2e3436" stroke="#2e3436" stroke-width="2" points="118.892,-310.55 115.447,-318.018 116.391,-313.388 113.561,-315.849 113.233,-315.471 112.905,-315.094 115.735,-312.633 111.018,-312.925 118.892,-310.55 118.892,-310.55"/>
<text text-anchor="middle" x="111" y="-331.6" font-family="FreeSans" font-size="8.00" fill="#2e3436">KNOWS</text>
</g>
<!-- N6 -->
<g id="node6" class="node"><title>N6</title>
<path fill="#ffffff" stroke="#2e3436" stroke-width="1.5" d="M12,-219.5C12,-219.5 79,-219.5 79,-219.5 85,-219.5 91,-225.5 91,-231.5 91,-231.5 91,-243.5 91,-243.5 91,-249.5 85,-255.5 79,-255.5 79,-255.5 12,-255.5 12,-255.5 6,-255.5 0,-249.5 0,-243.5 0,-243.5 0,-231.5 0,-231.5 0,-225.5 6,-219.5 12,-219.5"/>
<text text-anchor="start" x="8" y="-235.6" font-family="FreeSans" font-size="8.00" fill="#1c2021">Node[6]name = &#39;Joe&#39;</text>
</g>
<!-- N3&#45;&gt;N6 -->
<g id="edge4" class="edge"><title>N3&#45;&gt;N6</title>
<path fill="none" stroke="#4e9a06" stroke-width="2" d="M46.3733,-356.402C46.1992,-332.897 45.8848,-290.445 45.6845,-263.408"/>
<polygon fill="#4e9a06" stroke="#4e9a06" stroke-width="2" points="45.6288,-255.885 49.0593,-263.36 46.1566,-259.632 46.1844,-263.382 45.6844,-263.385 45.1844,-263.389 45.1566,-259.639 42.3095,-263.41 45.6288,-255.885 45.6288,-255.885"/>
<text text-anchor="middle" x="58" y="-331.6" font-family="FreeSans" font-size="8.00" fill="#4e9a06">LIKES</text>
</g>
<!-- N6&#45;&gt;N1 -->
<g id="edge7" class="edge"><title>N6&#45;&gt;N1</title>
<path fill="none" stroke="#2e3436" stroke-width="2" d="M48.2464,-219.472C54.4033,-181.299 69.3314,-88.7456 76.5119,-44.2262"/>
<polygon fill="#2e3436" stroke="#2e3436" stroke-width="2" points="77.7179,-36.7488 79.8555,-44.6906 77.6144,-40.5306 77.0172,-44.2327 76.5236,-44.1531 76.03,-44.0735 76.6272,-40.3713 73.1917,-43.6157 77.7179,-36.7488 77.7179,-36.7488"/>
<text text-anchor="middle" x="77" y="-139.6" font-family="FreeSans" font-size="8.00" fill="#2e3436">KNOWS</text>
</g>
<!-- N4&#45;&gt;N1 -->
<g id="edge5" class="edge"><title>N4&#45;&gt;N1</title>
<path fill="none" stroke="#2e3436" stroke-width="2" d="M125.915,-82.1412C117.574,-70.6361 106.531,-55.4048 97.4232,-42.8423"/>
<polygon fill="#2e3436" stroke="#2e3436" stroke-width="2" points="92.8613,-36.5501 99.9961,-40.6412 95.4673,-39.2927 97.6684,-42.3287 97.2636,-42.6222 96.8588,-42.9157 94.6577,-39.8796 94.5312,-44.6032 92.8613,-36.5501 92.8613,-36.5501"/>
<text text-anchor="middle" x="127" y="-57.6" font-family="FreeSans" font-size="8.00" fill="#2e3436">KNOWS</text>
</g>
</g>
</svg>
