<?xml version="1.0" encoding="UTF-8" standalone="no"?>
<!DOCTYPE svg PUBLIC "-//W3C//DTD SVG 1.1//EN"
 "http://www.w3.org/Graphics/SVG/1.1/DTD/svg11.dtd">
<!-- Generated by graphviz version 2.36.0 (20140111.2315)
 -->
<!-- Title: g Pages: 1 -->
<svg width="218pt" height="410pt"
 viewBox="0.00 0.00 218.00 410.00" xmlns="http://www.w3.org/2000/svg" xmlns:xlink="http://www.w3.org/1999/xlink">
<g id="graph0" class="graph" transform="scale(1 1) rotate(0) translate(4 406)">
<title>g</title>
<polygon fill="white" stroke="none" points="-4,4 -4,-406 214,-406 214,4 -4,4"/>
<!-- N0 -->
<g id="node1" class="node"><title>N0</title>
<path fill="#ffffff" stroke="#2e3436" stroke-width="1.5" d="M103.5,-281C103.5,-281 172.5,-281 172.5,-281 178.5,-281 184.5,-287 184.5,-293 184.5,-293 184.5,-305 184.5,-305 184.5,-311 178.5,-317 172.5,-317 172.5,-317 103.5,-317 103.5,-317 97.5,-317 91.5,-311 91.5,-305 91.5,-305 91.5,-293 91.5,-293 91.5,-287 97.5,-281 103.5,-281"/>
<text text-anchor="start" x="99.5" y="-297.1" font-family="FreeSans" font-size="8.00" fill="#1c2021">Node[0]name = &#39;Lars&#39;</text>
</g>
<!-- N5 -->
<g id="node2" class="node"><title>N5</title>
<path fill="#ffffff" stroke="#2e3436" stroke-width="1.5" d="M104,-169C104,-169 172,-169 172,-169 178,-169 184,-175 184,-181 184,-181 184,-193 184,-193 184,-199 178,-205 172,-205 172,-205 104,-205 104,-205 98,-205 92,-199 92,-193 92,-193 92,-181 92,-181 92,-175 98,-169 104,-169"/>
<text text-anchor="start" x="100" y="-185.1" font-family="FreeSans" font-size="8.00" fill="#1c2021">Node[5]name = &#39;Dirk&#39;</text>
</g>
<!-- N0&#45;&gt;N5 -->
<g id="edge1" class="edge"><title>N0&#45;&gt;N5</title>
<path fill="none" stroke="#2e3436" stroke-width="2" d="M138,-280.812C138,-262.569 138,-233.567 138,-212.839"/>
<polygon fill="#2e3436" stroke="#2e3436" stroke-width="2" points="138,-205.067 141.375,-212.567 138.5,-208.817 138.5,-212.567 138,-212.567 137.5,-212.567 137.5,-208.817 134.625,-212.567 138,-205.067 138,-205.067"/>
<text text-anchor="middle" x="153.5" y="-241.1" font-family="FreeSans" font-size="8.00" fill="#2e3436">KNOWS</text>
</g>
<!-- N4 -->
<g id="node7" class="node"><title>N4</title>
<path fill="#ffffff" stroke="#2e3436" stroke-width="1.5" d="M101.5,-85C101.5,-85 174.5,-85 174.5,-85 180.5,-85 186.5,-91 186.5,-97 186.5,-97 186.5,-109 186.5,-109 186.5,-115 180.5,-121 174.5,-121 174.5,-121 101.5,-121 101.5,-121 95.5,-121 89.5,-115 89.5,-109 89.5,-109 89.5,-97 89.5,-97 89.5,-91 95.5,-85 101.5,-85"/>
<text text-anchor="start" x="97.5" y="-101.1" font-family="FreeSans" font-size="8.00" fill="#1c2021">Node[4]name = &#39;Peter&#39;</text>
</g>
<!-- N5&#45;&gt;N4 -->
<g id="edge6" class="edge"><title>N5&#45;&gt;N4</title>
<path fill="none" stroke="#2e3436" stroke-width="2" d="M138,-168.61C138,-157.008 138,-141.58 138,-128.71"/>
<polygon fill="#2e3436" stroke="#2e3436" stroke-width="2" points="138,-121.084 141.375,-128.584 138.5,-124.834 138.5,-128.584 138,-128.584 137.5,-128.584 137.5,-124.834 134.625,-128.584 138,-121.084 138,-121.084"/>
<text text-anchor="middle" x="153.5" y="-143.1" font-family="FreeSans" font-size="8.00" fill="#2e3436">KNOWS</text>
</g>
<!-- N1 -->
<g id="node3" class="node"><title>N1</title>
<path fill="#ffffff" stroke="#2e3436" stroke-width="1.5" d="M44.5,-1C44.5,-1 115.5,-1 115.5,-1 121.5,-1 127.5,-7 127.5,-13 127.5,-13 127.5,-25 127.5,-25 127.5,-31 121.5,-37 115.5,-37 115.5,-37 44.5,-37 44.5,-37 38.5,-37 32.5,-31 32.5,-25 32.5,-25 32.5,-13 32.5,-13 32.5,-7 38.5,-1 44.5,-1"/>
<text text-anchor="start" x="40.5" y="-17.1" font-family="FreeSans" font-size="8.00" fill="#1c2021">Node[1]name = &#39;Sara&#39;</text>
</g>
<!-- N2 -->
<g id="node4" class="node"><title>N2</title>
<path fill="#ffffff" stroke="#2e3436" stroke-width="1.5" d="M135.5,-365C135.5,-365 198.5,-365 198.5,-365 204.5,-365 210.5,-371 210.5,-377 210.5,-377 210.5,-389 210.5,-389 210.5,-395 204.5,-401 198.5,-401 198.5,-401 135.5,-401 135.5,-401 129.5,-401 123.5,-395 123.5,-389 123.5,-389 123.5,-377 123.5,-377 123.5,-371 129.5,-365 135.5,-365"/>
<text text-anchor="start" x="131.5" y="-381.1" font-family="FreeSans" font-size="8.00" fill="#1c2021">Node[2]name = &#39;Ed&#39;</text>
</g>
<!-- N2&#45;&gt;N0 -->
<g id="edge2" class="edge"><title>N2&#45;&gt;N0</title>
<path fill="none" stroke="#2e3436" stroke-width="2" d="M160.85,-364.61C156.708,-352.899 151.188,-337.289 146.61,-324.346"/>
<polygon fill="#2e3436" stroke="#2e3436" stroke-width="2" points="144.042,-317.084 149.724,-323.029 145.764,-320.453 147.014,-323.988 146.543,-324.155 146.071,-324.321 144.821,-320.786 143.361,-325.28 144.042,-317.084 144.042,-317.084"/>
<text text-anchor="middle" x="170.5" y="-339.1" font-family="FreeSans" font-size="8.00" fill="#2e3436">KNOWS</text>
</g>
<!-- N3 -->
<g id="node5" class="node"><title>N3</title>
<path fill="#ffffff" stroke="#2e3436" stroke-width="1.5" d="M12,-365C12,-365 80,-365 80,-365 86,-365 92,-371 92,-377 92,-377 92,-389 92,-389 92,-395 86,-401 80,-401 80,-401 12,-401 12,-401 6,-401 0,-395 0,-389 0,-389 0,-377 0,-377 0,-371 6,-365 12,-365"/>
<text text-anchor="start" x="8" y="-381.1" font-family="FreeSans" font-size="8.00" fill="#1c2021">Node[3]name = &#39;Lisa&#39;</text>
</g>
<!-- N3&#45;&gt;N0 -->
<g id="edge3" class="edge"><title>N3&#45;&gt;N0</title>
<path fill="none" stroke="#2e3436" stroke-width="2" d="M65.5108,-364.61C79.3871,-352.242 98.1417,-335.526 113.098,-322.195"/>
<polygon fill="#2e3436" stroke="#2e3436" stroke-width="2" points="118.833,-317.084 115.48,-324.594 116.366,-319.952 113.567,-322.447 113.234,-322.074 112.901,-321.701 115.701,-319.206 110.988,-319.555 118.833,-317.084 118.833,-317.084"/>
<text text-anchor="middle" x="113.5" y="-339.1" font-family="FreeSans" font-size="8.00" fill="#2e3436">KNOWS</text>
</g>
<!-- N6 -->
<g id="node6" class="node"><title>N6</title>
<path fill="#ffffff" stroke="#2e3436" stroke-width="1.5" d="M11.5,-225C11.5,-225 78.5,-225 78.5,-225 84.5,-225 90.5,-231 90.5,-237 90.5,-237 90.5,-249 90.5,-249 90.5,-255 84.5,-261 78.5,-261 78.5,-261 11.5,-261 11.5,-261 5.5,-261 -0.5,-255 -0.5,-249 -0.5,-249 -0.5,-237 -0.5,-237 -0.5,-231 5.5,-225 11.5,-225"/>
<text text-anchor="start" x="7.5" y="-241.1" font-family="FreeSans" font-size="8.00" fill="#1c2021">Node[6]name = &#39;Joe&#39;</text>
</g>
<!-- N3&#45;&gt;N6 -->
<g id="edge4" class="edge"><title>N3&#45;&gt;N6</title>
<path fill="none" stroke="#4e9a06" stroke-width="2" d="M45.8754,-364.801C45.701,-340.733 45.383,-296.847 45.182,-269.12"/>
<polygon fill="#4e9a06" stroke="#4e9a06" stroke-width="2" points="45.1262,-261.416 48.5556,-268.891 45.6534,-265.162 45.6806,-268.912 45.1806,-268.915 44.6807,-268.919 44.6534,-265.169 41.8057,-268.94 45.1262,-261.416 45.1262,-261.416"/>
<text text-anchor="middle" x="57.5" y="-339.1" font-family="FreeSans" font-size="8.00" fill="#4e9a06">LIKES</text>
</g>
<!-- N6&#45;&gt;N1 -->
<g id="edge7" class="edge"><title>N6&#45;&gt;N1</title>
<path fill="none" stroke="#2e3436" stroke-width="2" d="M47.6883,-224.949C53.8342,-185.966 68.9329,-90.1973 76.1009,-44.7317"/>
<polygon fill="#2e3436" stroke="#2e3436" stroke-width="2" points="77.3026,-37.1094 79.4683,-45.0436 77.2124,-40.8916 76.6284,-44.5958 76.1345,-44.5179 75.6406,-44.4401 76.2246,-40.7358 72.8007,-43.9923 77.3026,-37.1094 77.3026,-37.1094"/>
<text text-anchor="middle" x="77.5" y="-143.1" font-family="FreeSans" font-size="8.00" fill="#2e3436">KNOWS</text>
</g>
<!-- N4&#45;&gt;N1 -->
<g id="edge5" class="edge"><title>N4&#45;&gt;N1</title>
<path fill="none" stroke="#2e3436" stroke-width="2" d="M125.7,-84.6099C117.184,-72.5703 105.754,-56.4104 96.4551,-43.2641"/>
<polygon fill="#2e3436" stroke="#2e3436" stroke-width="2" points="92.0837,-37.0838 99.1701,-41.258 94.6574,-39.8567 96.8229,-42.9182 96.4147,-43.207 96.0065,-43.4957 93.841,-40.4341 93.6593,-45.1559 92.0837,-37.0838 92.0837,-37.0838"/>
<text text-anchor="middle" x="128.5" y="-59.1" font-family="FreeSans" font-size="8.00" fill="#2e3436">KNOWS</text>
</g>
</g>
</svg>
