<?xml version="1.0" encoding="UTF-8" standalone="no"?>
<!DOCTYPE svg PUBLIC "-//W3C//DTD SVG 1.1//EN"
 "http://www.w3.org/Graphics/SVG/1.1/DTD/svg11.dtd">
<!-- Generated by graphviz version 2.38.0 (20140413.2041)
 -->
<!-- Title: g Pages: 1 -->
<svg width="210pt" height="203pt"
 viewBox="0.00 0.00 210.31 203.49" xmlns="http://www.w3.org/2000/svg" xmlns:xlink="http://www.w3.org/1999/xlink">
<g id="graph0" class="graph" transform="scale(1 1) rotate(0) translate(109.059 103.098)">
<title>g</title>
<polygon fill="white" stroke="none" points="-109.059,100.392 -109.059,-103.098 101.25,-103.098 101.25,100.392 -109.059,100.392"/>
<!-- N0 -->
<g id="node1" class="node"><title>N0</title>
<path fill="#ffffff" stroke="#2e3436" stroke-width="1.5" d="M-15.0698,18.1677C-15.0698,18.1677 14.9302,18.1677 14.9302,18.1677 20.9302,18.1677 26.9302,12.1677 26.9302,6.1677 26.9302,6.1677 26.9302,-5.8323 26.9302,-5.8323 26.9302,-11.8323 20.9302,-17.8323 14.9302,-17.8323 14.9302,-17.8323 -15.0698,-17.8323 -15.0698,-17.8323 -21.0698,-17.8323 -27.0698,-11.8323 -27.0698,-5.8323 -27.0698,-5.8323 -27.0698,6.1677 -27.0698,6.1677 -27.0698,12.1677 -21.0698,18.1677 -15.0698,18.1677"/>
<text text-anchor="middle" x="-0.0697798" y="2.0677" font-family="FreeSans" font-size="8.00" fill="#1c2021"> </text>
</g>
<!-- N6 -->
<g id="node2" class="node"><title>N6</title>
<path fill="#ffffff" stroke="#2e3436" stroke-width="1.5" d="M55.2504,57.6912C55.2504,57.6912 85.2504,57.6912 85.2504,57.6912 91.2504,57.6912 97.2504,51.6912 97.2504,45.6912 97.2504,45.6912 97.2504,33.6912 97.2504,33.6912 97.2504,27.6912 91.2504,21.6912 85.2504,21.6912 85.2504,21.6912 55.2504,21.6912 55.2504,21.6912 49.2504,21.6912 43.2504,27.6912 43.2504,33.6912 43.2504,33.6912 43.2504,45.6912 43.2504,45.6912 43.2504,51.6912 49.2504,57.6912 55.2504,57.6912"/>
<text text-anchor="middle" x="70.2504" y="41.5912" font-family="FreeSans" font-size="8.00" fill="#1c2021"> </text>
</g>
<!-- N0&#45;&gt;N6 -->
<g id="edge1" class="edge"><title>N0&#45;&gt;N6</title>
<path fill="none" stroke="#2e3436" stroke-width="2" d="M27.3192,15.5617C30.1826,17.1711 33.1183,18.8211 36.0452,20.4662"/>
<polygon fill="#2e3436" stroke="#2e3436" stroke-width="2" points="42.8205,24.2742 37.9361,17.6573 39.7964,22.001 36.5274,20.1636 36.2824,20.5994 36.0374,21.0353 39.3065,22.8727 34.6288,23.5416 42.8205,24.2742 42.8205,24.2742"/>
<text text-anchor="middle" x="28.6822" y="24.4139" font-family="FreeSans" font-size="8.00" fill="#2e3436">X</text>
</g>
<!-- N5 -->
<g id="node3" class="node"><title>N5</title>
<path fill="#ffffff" stroke="#2e3436" stroke-width="1.5" d="M6.81005,95.8922C6.81005,95.8922 36.8101,95.8922 36.8101,95.8922 42.8101,95.8922 48.8101,89.8922 48.8101,83.8922 48.8101,83.8922 48.8101,71.8922 48.8101,71.8922 48.8101,65.8922 42.8101,59.8922 36.8101,59.8922 36.8101,59.8922 6.81005,59.8922 6.81005,59.8922 0.81005,59.8922 -5.18995,65.8922 -5.18995,71.8922 -5.18995,71.8922 -5.18995,83.8922 -5.18995,83.8922 -5.18995,89.8922 0.81005,95.8922 6.81005,95.8922"/>
<text text-anchor="middle" x="21.8101" y="79.7922" font-family="FreeSans" font-size="8.00" fill="#1c2021"> </text>
</g>
<!-- N0&#45;&gt;N5 -->
<g id="edge2" class="edge"><title>N0&#45;&gt;N5</title>
<path fill="none" stroke="#2e3436" stroke-width="2" d="M5.00489,18.1946C7.85635,28.324 11.4626,41.1345 14.6027,52.2892"/>
<polygon fill="#2e3436" stroke="#2e3436" stroke-width="2" points="16.6871,59.6938 17.9035,51.5598 16.1522,55.9486 15.136,52.3389 14.6547,52.4744 14.1734,52.6098 15.1896,56.2196 11.406,53.3889 16.6871,59.6938 16.6871,59.6938"/>
<text text-anchor="middle" x="6.80378" y="32.6419" font-family="FreeSans" font-size="8.00" fill="#2e3436">X</text>
</g>
<!-- N4 -->
<g id="node4" class="node"><title>N4</title>
<path fill="#ffffff" stroke="#2e3436" stroke-width="1.5" d="M-15.5743,-62.5976C-15.5743,-62.5976 14.4257,-62.5976 14.4257,-62.5976 20.4257,-62.5976 26.4257,-68.5976 26.4257,-74.5976 26.4257,-74.5976 26.4257,-86.5976 26.4257,-86.5976 26.4257,-92.5976 20.4257,-98.5976 14.4257,-98.5976 14.4257,-98.5976 -15.5743,-98.5976 -15.5743,-98.5976 -21.5743,-98.5976 -27.5743,-92.5976 -27.5743,-86.5976 -27.5743,-86.5976 -27.5743,-74.5976 -27.5743,-74.5976 -27.5743,-68.5976 -21.5743,-62.5976 -15.5743,-62.5976"/>
<text text-anchor="middle" x="-0.574309" y="-78.6976" font-family="FreeSans" font-size="8.00" fill="#1c2021"> </text>
</g>
<!-- N0&#45;&gt;N4 -->
<g id="edge3" class="edge"><title>N0&#45;&gt;N4</title>
<path fill="none" stroke="#2e3436" stroke-width="2" d="M-0.184265,-18.1592C-0.251998,-29.0019 -0.338846,-42.9046 -0.413391,-54.8378"/>
<polygon fill="#2e3436" stroke="#2e3436" stroke-width="2" points="-0.460276,-62.3432 -3.78826,-54.8223 -0.936792,-58.5902 -0.913317,-54.8403 -0.413327,-54.8434 0.0866635,-54.8465 0.0631886,-58.5964 2.96161,-54.8645 -0.460276,-62.3432 -0.460276,-62.3432"/>
<text text-anchor="middle" x="-3.29883" y="-39.0985" font-family="FreeSans" font-size="8.00" fill="#2e3436">X</text>
</g>
<!-- N3 -->
<g id="node5" class="node"><title>N3</title>
<path fill="#ffffff" stroke="#2e3436" stroke-width="1.5" d="M41.5162,-39.4767C41.5162,-39.4767 71.5162,-39.4767 71.5162,-39.4767 77.5162,-39.4767 83.5162,-45.4767 83.5162,-51.4767 83.5162,-51.4767 83.5162,-63.4767 83.5162,-63.4767 83.5162,-69.4767 77.5162,-75.4767 71.5162,-75.4767 71.5162,-75.4767 41.5162,-75.4767 41.5162,-75.4767 35.5162,-75.4767 29.5162,-69.4767 29.5162,-63.4767 29.5162,-63.4767 29.5162,-51.4767 29.5162,-51.4767 29.5162,-45.4767 35.5162,-39.4767 41.5162,-39.4767"/>
<text text-anchor="middle" x="56.5162" y="-55.5767" font-family="FreeSans" font-size="8.00" fill="#1c2021"> </text>
</g>
<!-- N0&#45;&gt;N3 -->
<g id="edge4" class="edge"><title>N0&#45;&gt;N3</title>
<path fill="none" stroke="#2e3436" stroke-width="2" d="M17.8344,-18.0714C22.6851,-23.0128 28.009,-28.4363 33.1138,-33.6366"/>
<polygon fill="#2e3436" stroke="#2e3436" stroke-width="2" points="38.5343,-39.1585 30.8718,-36.1705 35.5505,-36.8326 32.9235,-34.1565 33.2803,-33.8062 33.6371,-33.456 36.2641,-36.1321 35.6888,-31.4419 38.5343,-39.1585 38.5343,-39.1585"/>
<text text-anchor="middle" x="22.4741" y="-28.454" font-family="FreeSans" font-size="8.00" fill="#2e3436">X</text>
</g>
<!-- N2 -->
<g id="node6" class="node"><title>N2</title>
<path fill="#ffffff" stroke="#2e3436" stroke-width="1.5" d="M-93.0588,-2.40703C-93.0588,-2.40703 -63.0588,-2.40703 -63.0588,-2.40703 -57.0588,-2.40703 -51.0588,-8.40703 -51.0588,-14.407 -51.0588,-14.407 -51.0588,-26.407 -51.0588,-26.407 -51.0588,-32.407 -57.0588,-38.407 -63.0588,-38.407 -63.0588,-38.407 -93.0588,-38.407 -93.0588,-38.407 -99.0588,-38.407 -105.059,-32.407 -105.059,-26.407 -105.059,-26.407 -105.059,-14.407 -105.059,-14.407 -105.059,-8.40703 -99.0588,-2.40703 -93.0588,-2.40703"/>
<text text-anchor="middle" x="-78.0588" y="-18.507" font-family="FreeSans" font-size="8.00" fill="#1c2021"> </text>
</g>
<!-- N0&#45;&gt;N2 -->
<g id="edge5" class="edge"><title>N0&#45;&gt;N2</title>
<path fill="none" stroke="#2e3436" stroke-width="2" d="M-27.3465,-7.02834C-32.6011,-8.41458 -38.1686,-9.88338 -43.616,-11.3205"/>
<polygon fill="#2e3436" stroke="#2e3436" stroke-width="2" points="-50.9291,-13.2498 -44.5382,-8.07321 -47.4307,-11.8097 -43.8048,-10.8531 -43.6772,-11.3366 -43.5497,-11.82 -47.1756,-12.7766 -42.8163,-14.5999 -50.9291,-13.2498 -50.9291,-13.2498"/>
<text text-anchor="middle" x="-38.4813" y="-11.7744" font-family="FreeSans" font-size="8.00" fill="#2e3436">X</text>
</g>
<!-- N1 -->
<g id="node7" class="node"><title>N1</title>
<path fill="#ffffff" stroke="#2e3436" stroke-width="1.5" d="M-84.8738,58.7303C-84.8738,58.7303 -54.8738,58.7303 -54.8738,58.7303 -48.8738,58.7303 -42.8738,52.7303 -42.8738,46.7303 -42.8738,46.7303 -42.8738,34.7303 -42.8738,34.7303 -42.8738,28.7303 -48.8738,22.7303 -54.8738,22.7303 -54.8738,22.7303 -84.8738,22.7303 -84.8738,22.7303 -90.8738,22.7303 -96.8738,28.7303 -96.8738,34.7303 -96.8738,34.7303 -96.8738,46.7303 -96.8738,46.7303 -96.8738,52.7303 -90.8738,58.7303 -84.8738,58.7303"/>
<text text-anchor="middle" x="-69.8738" y="42.6303" font-family="FreeSans" font-size="8.00" fill="#1c2021"> </text>
</g>
<!-- N0&#45;&gt;N1 -->
<g id="edge6" class="edge"><title>N0&#45;&gt;N1</title>
<path fill="none" stroke="#2e3436" stroke-width="2" d="M-27.2577,15.9664C-30.1,17.6181 -33.0143,19.3115 -35.9197,20.9998"/>
<polygon fill="#2e3436" stroke="#2e3436" stroke-width="2" points="-42.6452,24.908 -34.4648,24.0579 -39.1517,23.4562 -35.9093,21.5721 -36.1605,21.1397 -36.4118,20.7074 -39.6541,22.5916 -37.8562,18.2216 -42.6452,24.908 -42.6452,24.908"/>
<text text-anchor="middle" x="-34.5887" y="15.8831" font-family="FreeSans" font-size="8.00" fill="#2e3436">X</text>
</g>
<!-- N5&#45;&gt;N6 -->
<g id="edge9" class="edge"><title>N5&#45;&gt;N6</title>
<path fill="none" stroke="#2e3436" stroke-width="2" d="M44.8953,59.6867C44.9927,59.6099 45.0902,59.533 45.1877,59.4561"/>
<polygon fill="#2e3436" stroke="#2e3436" stroke-width="2" points="47.236,57.8407 39.257,59.835 43.9819,59.7703 41.0373,62.0925 41.3469,62.4851 41.6565,62.8777 44.6011,60.5555 43.4369,65.1352 47.236,57.8407 47.236,57.8407"/>
<text text-anchor="middle" x="42.0415" y="56.9714" font-family="FreeSans" font-size="8.00" fill="#2e3436">X</text>
</g>
<!-- N3&#45;&gt;N4 -->
<g id="edge8" class="edge"><title>N3&#45;&gt;N4</title>
<path fill="none" stroke="#2e3436" stroke-width="2" d="M29.3086,-68.4954C29.1937,-68.542 29.0788,-68.5885 28.9638,-68.6351"/>
<polygon fill="#2e3436" stroke="#2e3436" stroke-width="2" points="26.5498,-69.6127 32.2344,-63.669 29.8379,-67.7415 33.3137,-66.3338 33.5014,-66.7973 33.689,-67.2607 30.2133,-68.6684 34.7683,-69.9255 26.5498,-69.6127 26.5498,-69.6127"/>
<text text-anchor="middle" x="26.1362" y="-62.1652" font-family="FreeSans" font-size="8.00" fill="#2e3436">X</text>
</g>
<!-- N1&#45;&gt;N2 -->
<g id="edge7" class="edge"><title>N1&#45;&gt;N2</title>
<path fill="none" stroke="#2e3436" stroke-width="2" d="M-72.2853,22.7178C-73.0115,17.2935 -73.8231,11.2308 -74.6032,5.4044"/>
<polygon fill="#2e3436" stroke="#2e3436" stroke-width="2" points="-75.6362,-2.31196 -77.9861,5.5696 -75.6341,1.47123 -75.1365,5.18807 -74.6409,5.12171 -74.1453,5.05536 -74.643,1.33852 -71.2958,4.67383 -75.6362,-2.31196 -75.6362,-2.31196"/>
<text text-anchor="middle" x="-76.4442" y="11.4611" font-family="FreeSans" font-size="8.00" fill="#2e3436">X</text>
</g>
</g>
</svg>
