<?xml version="1.0" encoding="UTF-8" standalone="no"?>
<!DOCTYPE svg PUBLIC "-//W3C//DTD SVG 1.1//EN"
 "http://www.w3.org/Graphics/SVG/1.1/DTD/svg11.dtd">
<!-- Generated by graphviz version 2.38.0 (20140413.2041)
 -->
<!-- Title: g Pages: 1 -->
<svg width="233pt" height="209pt"
 viewBox="0.00 0.00 233.00 209.00" xmlns="http://www.w3.org/2000/svg" xmlns:xlink="http://www.w3.org/1999/xlink">
<g id="graph0" class="graph" transform="scale(1 1) rotate(0) translate(4 205)">
<title>g</title>
<polygon fill="white" stroke="none" points="-4,4 -4,-205 229,-205 229,4 -4,4"/>
<!-- N0 -->
<g id="node1" class="node"><title>N0</title>
<path fill="#ffffff" stroke="#2e3436" stroke-width="1.5" d="M15.5,-82.5C15.5,-82.5 86.5,-82.5 86.5,-82.5 92.5,-82.5 98.5,-88.5 98.5,-94.5 98.5,-94.5 98.5,-106.5 98.5,-106.5 98.5,-112.5 92.5,-118.5 86.5,-118.5 86.5,-118.5 15.5,-118.5 15.5,-118.5 9.5,-118.5 3.5,-112.5 3.5,-106.5 3.5,-106.5 3.5,-94.5 3.5,-94.5 3.5,-88.5 9.5,-82.5 15.5,-82.5"/>
<text text-anchor="start" x="11.5" y="-98.6" font-family="FreeSans" font-size="8.00" fill="#1c2021">Node[0]name = &#39;Sara&#39;</text>
</g>
<!-- N1 -->
<g id="node2" class="node"><title>N1</title>
<path fill="#ffffff" stroke="#2e3436" stroke-width="1.5" d="M12,-0.5C12,-0.5 86,-0.5 86,-0.5 92,-0.5 98,-6.5 98,-12.5 98,-12.5 98,-24.5 98,-24.5 98,-30.5 92,-36.5 86,-36.5 86,-36.5 12,-36.5 12,-36.5 6,-36.5 0,-30.5 0,-24.5 0,-24.5 0,-12.5 0,-12.5 0,-6.5 6,-0.5 12,-0.5"/>
<text text-anchor="start" x="8" y="-16.6" font-family="FreeSans" font-size="8.00" fill="#1c2021">Node[1]name = &#39;Maria&#39;</text>
</g>
<!-- N0&#45;&gt;N1 -->
<g id="edge1" class="edge"><title>N0&#45;&gt;N1</title>
<path fill="none" stroke="#2e3436" stroke-width="2" d="M50.566,-82.1412C50.289,-71.0583 49.9254,-56.5177 49.6184,-44.2358"/>
<polygon fill="#2e3436" stroke="#2e3436" stroke-width="2" points="49.4263,-36.5501 52.9877,-43.9634 50.0199,-40.2864 50.1136,-44.0353 49.6138,-44.0478 49.1139,-44.0603 49.0202,-40.3114 46.2398,-44.1321 49.4263,-36.5501 49.4263,-36.5501"/>
<text text-anchor="middle" x="61.5" y="-57.6" font-family="FreeSans" font-size="8.00" fill="#2e3436">friend</text>
</g>
<!-- N2 -->
<g id="node3" class="node"><title>N2</title>
<path fill="#ffffff" stroke="#2e3436" stroke-width="1.5" d="M139,-0.5C139,-0.5 213,-0.5 213,-0.5 219,-0.5 225,-6.5 225,-12.5 225,-12.5 225,-24.5 225,-24.5 225,-30.5 219,-36.5 213,-36.5 213,-36.5 139,-36.5 139,-36.5 133,-36.5 127,-30.5 127,-24.5 127,-24.5 127,-12.5 127,-12.5 127,-6.5 133,-0.5 139,-0.5"/>
<text text-anchor="start" x="135" y="-16.6" font-family="FreeSans" font-size="8.00" fill="#1c2021">Node[2]name = &#39;Steve&#39;</text>
</g>
<!-- N3 -->
<g id="node4" class="node"><title>N3</title>
<path fill="#ffffff" stroke="#2e3436" stroke-width="1.5" d="M85.5,-164.5C85.5,-164.5 156.5,-164.5 156.5,-164.5 162.5,-164.5 168.5,-170.5 168.5,-176.5 168.5,-176.5 168.5,-188.5 168.5,-188.5 168.5,-194.5 162.5,-200.5 156.5,-200.5 156.5,-200.5 85.5,-200.5 85.5,-200.5 79.5,-200.5 73.5,-194.5 73.5,-188.5 73.5,-188.5 73.5,-176.5 73.5,-176.5 73.5,-170.5 79.5,-164.5 85.5,-164.5"/>
<text text-anchor="start" x="81.5" y="-180.6" font-family="FreeSans" font-size="8.00" fill="#1c2021">Node[3]name = &#39;John&#39;</text>
</g>
<!-- N3&#45;&gt;N0 -->
<g id="edge2" class="edge"><title>N3&#45;&gt;N0</title>
<path fill="none" stroke="#2e3436" stroke-width="2" d="M105.811,-164.141C95.6517,-152.531 82.1719,-137.125 71.1226,-124.497"/>
<polygon fill="#2e3436" stroke="#2e3436" stroke-width="2" points="65.9188,-118.55 73.3976,-121.972 68.7645,-121.043 71.2339,-123.865 70.8577,-124.194 70.4814,-124.524 68.012,-121.702 68.3177,-126.417 65.9188,-118.55 65.9188,-118.55"/>
<text text-anchor="middle" x="99.5" y="-139.6" font-family="FreeSans" font-size="8.00" fill="#2e3436">friend</text>
</g>
<!-- N4 -->
<g id="node5" class="node"><title>N4</title>
<path fill="#ffffff" stroke="#2e3436" stroke-width="1.5" d="M141.5,-82.5C141.5,-82.5 208.5,-82.5 208.5,-82.5 214.5,-82.5 220.5,-88.5 220.5,-94.5 220.5,-94.5 220.5,-106.5 220.5,-106.5 220.5,-112.5 214.5,-118.5 208.5,-118.5 208.5,-118.5 141.5,-118.5 141.5,-118.5 135.5,-118.5 129.5,-112.5 129.5,-106.5 129.5,-106.5 129.5,-94.5 129.5,-94.5 129.5,-88.5 135.5,-82.5 141.5,-82.5"/>
<text text-anchor="start" x="137.5" y="-98.6" font-family="FreeSans" font-size="8.00" fill="#1c2021">Node[4]name = &#39;Joe&#39;</text>
</g>
<!-- N3&#45;&gt;N4 -->
<g id="edge3" class="edge"><title>N3&#45;&gt;N4</title>
<path fill="none" stroke="#2e3436" stroke-width="2" d="M132.717,-164.141C140.483,-152.636 150.764,-137.405 159.244,-124.842"/>
<polygon fill="#2e3436" stroke="#2e3436" stroke-width="2" points="163.491,-118.55 162.092,-126.655 161.808,-121.938 159.71,-125.046 159.295,-124.766 158.881,-124.487 160.979,-121.379 156.498,-122.878 163.491,-118.55 163.491,-118.55"/>
<text text-anchor="middle" x="160.5" y="-139.6" font-family="FreeSans" font-size="8.00" fill="#2e3436">friend</text>
</g>
<!-- N4&#45;&gt;N2 -->
<g id="edge4" class="edge"><title>N4&#45;&gt;N2</title>
<path fill="none" stroke="#2e3436" stroke-width="2" d="M175.217,-82.1412C175.356,-71.0583 175.537,-56.5177 175.691,-44.2358"/>
<polygon fill="#2e3436" stroke="#2e3436" stroke-width="2" points="175.787,-36.5501 179.068,-44.0917 176.24,-40.3061 176.193,-44.0558 175.693,-44.0495 175.193,-44.0433 175.24,-40.2935 172.318,-44.0073 175.787,-36.5501 175.787,-36.5501"/>
<text text-anchor="middle" x="185.5" y="-57.6" font-family="FreeSans" font-size="8.00" fill="#2e3436">friend</text>
</g>
</g>
</svg>
