<?xml version="1.0" encoding="UTF-8" standalone="no"?>
<!DOCTYPE svg PUBLIC "-//W3C//DTD SVG 1.1//EN"
 "http://www.w3.org/Graphics/SVG/1.1/DTD/svg11.dtd">
<!-- Generated by graphviz version 2.38.0 (20140413.2041)
 -->
<!-- Title: g Pages: 1 -->
<svg width="286pt" height="373pt"
 viewBox="0.00 0.00 286.00 373.00" xmlns="http://www.w3.org/2000/svg" xmlns:xlink="http://www.w3.org/1999/xlink">
<g id="graph0" class="graph" transform="scale(1 1) rotate(0) translate(4 369)">
<title>g</title>
<polygon fill="white" stroke="none" points="-4,4 -4,-369 282,-369 282,4 -4,4"/>
<!-- N120 -->
<g id="node1" class="node"><title>N120</title>
<path fill="#ffffff" stroke="#2e3436" stroke-width="1.5" d="M150,-0.5C150,-0.5 230,-0.5 230,-0.5 236,-0.5 242,-6.5 242,-12.5 242,-12.5 242,-24.5 242,-24.5 242,-30.5 236,-36.5 230,-36.5 230,-36.5 150,-36.5 150,-36.5 144,-36.5 138,-30.5 138,-24.5 138,-24.5 138,-12.5 138,-12.5 138,-6.5 144,-0.5 150,-0.5"/>
<text text-anchor="start" x="146" y="-16.6" font-family="FreeSans" font-size="8.00" fill="#1c2021">Node[120]name = &#39;Sara&#39;</text>
</g>
<!-- N121 -->
<g id="node2" class="node"><title>N121</title>
<path fill="#ffffff" stroke="#2e3436" stroke-width="1.5" d="M39.5,-246.5C39.5,-246.5 124.5,-246.5 124.5,-246.5 130.5,-246.5 136.5,-252.5 136.5,-258.5 136.5,-258.5 136.5,-270.5 136.5,-270.5 136.5,-276.5 130.5,-282.5 124.5,-282.5 124.5,-282.5 39.5,-282.5 39.5,-282.5 33.5,-282.5 27.5,-276.5 27.5,-270.5 27.5,-270.5 27.5,-258.5 27.5,-258.5 27.5,-252.5 33.5,-246.5 39.5,-246.5"/>
<text text-anchor="start" x="35.5" y="-262.6" font-family="FreeSans" font-size="8.00" fill="#1c2021">Node[121]name = &#39;Johan&#39;</text>
</g>
<!-- N122 -->
<g id="node3" class="node"><title>N122</title>
<path fill="#ffffff" stroke="#2e3436" stroke-width="1.5" d="M43.5,-164.5C43.5,-164.5 120.5,-164.5 120.5,-164.5 126.5,-164.5 132.5,-170.5 132.5,-176.5 132.5,-176.5 132.5,-188.5 132.5,-188.5 132.5,-194.5 126.5,-200.5 120.5,-200.5 120.5,-200.5 43.5,-200.5 43.5,-200.5 37.5,-200.5 31.5,-194.5 31.5,-188.5 31.5,-188.5 31.5,-176.5 31.5,-176.5 31.5,-170.5 37.5,-164.5 43.5,-164.5"/>
<text text-anchor="start" x="39.5" y="-180.6" font-family="FreeSans" font-size="8.00" fill="#1c2021">Node[122]name = &#39;Emil&#39;</text>
</g>
<!-- N121&#45;&gt;N122 -->
<g id="edge1" class="edge"><title>N121&#45;&gt;N122</title>
<path fill="none" stroke="#2e3436" stroke-width="2" d="M82,-246.141C82,-235.058 82,-220.518 82,-208.236"/>
<polygon fill="#2e3436" stroke="#2e3436" stroke-width="2" points="82,-200.55 85.3751,-208.05 82.5,-204.3 82.5001,-208.05 82.0001,-208.05 81.5001,-208.05 81.5,-204.3 78.6251,-208.05 82,-200.55 82,-200.55"/>
<text text-anchor="middle" x="94" y="-221.6" font-family="FreeSans" font-size="8.00" fill="#2e3436">knows</text>
</g>
<!-- N125 -->
<g id="node4" class="node"><title>N125</title>
<path fill="#ffffff" stroke="#2e3436" stroke-width="1.5" d="M12,-82.5C12,-82.5 94,-82.5 94,-82.5 100,-82.5 106,-88.5 106,-94.5 106,-94.5 106,-106.5 106,-106.5 106,-112.5 100,-118.5 94,-118.5 94,-118.5 12,-118.5 12,-118.5 6,-118.5 0,-112.5 0,-106.5 0,-106.5 0,-94.5 0,-94.5 0,-88.5 6,-82.5 12,-82.5"/>
<text text-anchor="start" x="8" y="-98.6" font-family="FreeSans" font-size="8.00" fill="#1c2021">Node[125]name = &#39;Peter&#39;</text>
</g>
<!-- N122&#45;&gt;N125 -->
<g id="edge2" class="edge"><title>N122&#45;&gt;N125</title>
<path fill="none" stroke="#2e3436" stroke-width="2" d="M75.7074,-164.141C71.6516,-152.953 66.3184,-138.24 61.8398,-125.886"/>
<polygon fill="#2e3436" stroke="#2e3436" stroke-width="2" points="59.1807,-118.55 64.9097,-124.451 60.9288,-121.905 62.2068,-125.431 61.7367,-125.601 61.2667,-125.772 59.9886,-122.246 58.5638,-126.751 59.1807,-118.55 59.1807,-118.55"/>
<text text-anchor="middle" x="81" y="-139.6" font-family="FreeSans" font-size="8.00" fill="#2e3436">knows</text>
</g>
<!-- N124 -->
<g id="node5" class="node"><title>N124</title>
<path fill="#ffffff" stroke="#2e3436" stroke-width="1.5" d="M147,-82.5C147,-82.5 233,-82.5 233,-82.5 239,-82.5 245,-88.5 245,-94.5 245,-94.5 245,-106.5 245,-106.5 245,-112.5 239,-118.5 233,-118.5 233,-118.5 147,-118.5 147,-118.5 141,-118.5 135,-112.5 135,-106.5 135,-106.5 135,-94.5 135,-94.5 135,-88.5 141,-82.5 147,-82.5"/>
<text text-anchor="start" x="143" y="-98.6" font-family="FreeSans" font-size="8.00" fill="#1c2021">Node[124]name = &#39;Tobias&#39;</text>
</g>
<!-- N122&#45;&gt;N124 -->
<g id="edge3" class="edge"><title>N122&#45;&gt;N124</title>
<path fill="none" stroke="#2e3436" stroke-width="2" d="M105.169,-164.338C121.398,-152.316 143.215,-136.156 160.659,-123.234"/>
<polygon fill="#2e3436" stroke="#2e3436" stroke-width="2" points="166.87,-118.634 162.852,-125.81 164.154,-121.268 161.141,-123.5 160.843,-123.098 160.545,-122.696 163.559,-120.464 158.834,-120.386 166.87,-118.634 166.87,-118.634"/>
<text text-anchor="middle" x="152" y="-139.6" font-family="FreeSans" font-size="8.00" fill="#2e3436">knows</text>
</g>
<!-- N124&#45;&gt;N120 -->
<g id="edge6" class="edge"><title>N124&#45;&gt;N120</title>
<path fill="none" stroke="#4e9a06" stroke-width="2" d="M190,-82.1412C190,-71.0583 190,-56.5177 190,-44.2358"/>
<polygon fill="#4e9a06" stroke="#4e9a06" stroke-width="2" points="190,-36.5501 193.375,-44.0501 190.5,-40.3001 190.5,-44.0501 190,-44.0501 189.5,-44.0501 189.5,-40.3001 186.625,-44.0501 190,-36.5501 190,-36.5501"/>
<text text-anchor="middle" x="199.5" y="-57.6" font-family="FreeSans" font-size="8.00" fill="#4e9a06">loves</text>
</g>
<!-- N123 -->
<g id="node6" class="node"><title>N123</title>
<path fill="#ffffff" stroke="#2e3436" stroke-width="1.5" d="M132,-328.5C132,-328.5 212,-328.5 212,-328.5 218,-328.5 224,-334.5 224,-340.5 224,-340.5 224,-352.5 224,-352.5 224,-358.5 218,-364.5 212,-364.5 212,-364.5 132,-364.5 132,-364.5 126,-364.5 120,-358.5 120,-352.5 120,-352.5 120,-340.5 120,-340.5 120,-334.5 126,-328.5 132,-328.5"/>
<text text-anchor="start" x="128" y="-344.6" font-family="FreeSans" font-size="8.00" fill="#1c2021">Node[123]name = &#39;Root&#39;</text>
</g>
<!-- N123&#45;&gt;N121 -->
<g id="edge5" class="edge"><title>N123&#45;&gt;N121</title>
<path fill="none" stroke="#2e3436" stroke-width="2" d="M152.471,-328.141C139.172,-316.319 121.446,-300.564 107.1,-287.811"/>
<polygon fill="#2e3436" stroke="#2e3436" stroke-width="2" points="101.181,-282.55 109.029,-285.01 104.316,-284.668 107.119,-287.159 106.787,-287.533 106.455,-287.907 103.652,-285.415 104.545,-290.055 101.181,-282.55 101.181,-282.55"/>
<text text-anchor="middle" x="142" y="-303.6" font-family="FreeSans" font-size="8.00" fill="#2e3436">knows</text>
</g>
<!-- N126 -->
<g id="node7" class="node"><title>N126</title>
<path fill="#ffffff" stroke="#2e3436" stroke-width="1.5" d="M178,-246.5C178,-246.5 266,-246.5 266,-246.5 272,-246.5 278,-252.5 278,-258.5 278,-258.5 278,-270.5 278,-270.5 278,-276.5 272,-282.5 266,-282.5 266,-282.5 178,-282.5 178,-282.5 172,-282.5 166,-276.5 166,-270.5 166,-270.5 166,-258.5 166,-258.5 166,-252.5 172,-246.5 178,-246.5"/>
<text text-anchor="start" x="174" y="-262.6" font-family="FreeSans" font-size="8.00" fill="#1c2021">Node[126]name = &#39;Mattias&#39;</text>
</g>
<!-- N123&#45;&gt;N126 -->
<g id="edge4" class="edge"><title>N123&#45;&gt;N126</title>
<path fill="none" stroke="#2e3436" stroke-width="2" d="M182.849,-328.141C189.974,-316.742 199.385,-301.684 207.195,-289.189"/>
<polygon fill="#2e3436" stroke="#2e3436" stroke-width="2" points="211.344,-282.55 210.231,-290.699 209.78,-285.995 207.793,-289.175 207.369,-288.91 206.945,-288.645 208.932,-285.465 204.507,-287.121 211.344,-282.55 211.344,-282.55"/>
<text text-anchor="middle" x="211" y="-303.6" font-family="FreeSans" font-size="8.00" fill="#2e3436">knows</text>
</g>
</g>
</svg>
