<?xml version="1.0" encoding="UTF-8" standalone="no"?>
<!DOCTYPE svg PUBLIC "-//W3C//DTD SVG 1.1//EN"
 "http://www.w3.org/Graphics/SVG/1.1/DTD/svg11.dtd">
<!-- Generated by graphviz version 2.38.0 (20140413.2041)
 -->
<!-- Title: g Pages: 1 -->
<svg width="255pt" height="45pt"
 viewBox="0.00 0.00 255.00 45.00" xmlns="http://www.w3.org/2000/svg" xmlns:xlink="http://www.w3.org/1999/xlink">
<g id="graph0" class="graph" transform="scale(1 1) rotate(0) translate(4 41)">
<title>g</title>
<polygon fill="white" stroke="none" points="-4,4 -4,-41 251,-41 251,4 -4,4"/>
<!-- N180 -->
<g id="node1" class="node"><title>N180</title>
<path fill="#ffffff" stroke="#2e3436" stroke-width="1.5" d="M12,-0.5C12,-0.5 93,-0.5 93,-0.5 99,-0.5 105,-6.5 105,-12.5 105,-12.5 105,-24.5 105,-24.5 105,-30.5 99,-36.5 93,-36.5 93,-36.5 12,-36.5 12,-36.5 6,-36.5 0,-30.5 0,-24.5 0,-24.5 0,-12.5 0,-12.5 0,-6.5 6,-0.5 12,-0.5"/>
<text text-anchor="start" x="8" y="-16.6" font-family="FreeSans" font-size="8.00" fill="#1c2021">Node[180]name = &#39;Juliet&#39;</text>
</g>
<!-- N181 -->
<g id="node2" class="node"><title>N181</title>
<path fill="#ffffff" stroke="#2e3436" stroke-width="1.5" d="M146,-0.5C146,-0.5 235,-0.5 235,-0.5 241,-0.5 247,-6.5 247,-12.5 247,-12.5 247,-24.5 247,-24.5 247,-30.5 241,-36.5 235,-36.5 235,-36.5 146,-36.5 146,-36.5 140,-36.5 134,-30.5 134,-24.5 134,-24.5 134,-12.5 134,-12.5 134,-6.5 140,-0.5 146,-0.5"/>
<text text-anchor="start" x="142" y="-16.6" font-family="FreeSans" font-size="8.00" fill="#1c2021">Node[181]name = &#39;Romeo&#39;</text>
</g>
</g>
</svg>
