<?xml version="1.0" encoding="UTF-8" standalone="no"?>
<!DOCTYPE svg PUBLIC "-//W3C//DTD SVG 1.1//EN"
 "http://www.w3.org/Graphics/SVG/1.1/DTD/svg11.dtd">
<!-- Generated by graphviz version 2.38.0 (20140413.2041)
 -->
<!-- Title: g Pages: 1 -->
<svg width="121pt" height="145pt"
 viewBox="0.00 0.00 121.00 145.00" xmlns="http://www.w3.org/2000/svg" xmlns:xlink="http://www.w3.org/1999/xlink">
<g id="graph0" class="graph" transform="scale(1 1) rotate(0) translate(4 141)">
<title>g</title>
<polygon fill="white" stroke="none" points="-4,4 -4,-141 117,-141 117,4 -4,4"/>
<!-- N186 -->
<g id="node1" class="node"><title>N186</title>
<path fill="#ffffff" stroke="#2e3436" stroke-width="1.5" d="M16,-0.5C16,-0.5 97,-0.5 97,-0.5 103,-0.5 109,-6.5 109,-12.5 109,-12.5 109,-24.5 109,-24.5 109,-30.5 103,-36.5 97,-36.5 97,-36.5 16,-36.5 16,-36.5 10,-36.5 4,-30.5 4,-24.5 4,-24.5 4,-12.5 4,-12.5 4,-6.5 10,-0.5 16,-0.5"/>
<text text-anchor="start" x="12" y="-16.6" font-family="FreeSans" font-size="8.00" fill="#1c2021">Node[186]name = &#39;Juliet&#39;</text>
</g>
<!-- N187 -->
<g id="node2" class="node"><title>N187</title>
<path fill="#ffffff" stroke="#2e3436" stroke-width="1.5" d="M12,-100.5C12,-100.5 101,-100.5 101,-100.5 107,-100.5 113,-106.5 113,-112.5 113,-112.5 113,-124.5 113,-124.5 113,-130.5 107,-136.5 101,-136.5 101,-136.5 12,-136.5 12,-136.5 6,-136.5 0,-130.5 0,-124.5 0,-124.5 0,-112.5 0,-112.5 0,-106.5 6,-100.5 12,-100.5"/>
<text text-anchor="start" x="8" y="-116.6" font-family="FreeSans" font-size="8.00" fill="#1c2021">Node[187]name = &#39;Romeo&#39;</text>
</g>
<!-- N187&#45;&gt;N186 -->
<g id="edge1" class="edge"><title>N187&#45;&gt;N186</title>
<path fill="none" stroke="#2e3436" stroke-width="2" d="M56.5,-100.43C56.5,-84.9265 56.5,-61.8702 56.5,-44.3283"/>
<polygon fill="#2e3436" stroke="#2e3436" stroke-width="2" points="56.5,-36.7035 59.8751,-44.2035 57,-40.4535 57.0001,-44.2035 56.5001,-44.2035 56.0001,-44.2035 56,-40.4535 53.1251,-44.2035 56.5,-36.7035 56.5,-36.7035"/>
<text text-anchor="middle" x="81" y="-75.6" font-family="FreeSans" font-size="8.00" fill="#2e3436">LOVES</text>
<text text-anchor="start" x="56.5" y="-66.6" font-family="FreeSans" font-size="8.00" fill="#2e3436">cost = &#39;high&#39;</text>
<text text-anchor="start" x="56.5" y="-57.6" font-family="FreeSans" font-size="8.00" fill="#2e3436">since = &#39;1day&#39;</text>
</g>
</g>
</svg>
