<?xml version="1.0" encoding="UTF-8" standalone="no"?>
<!DOCTYPE svg PUBLIC "-//W3C//DTD SVG 1.1//EN"
 "http://www.w3.org/Graphics/SVG/1.1/DTD/svg11.dtd">
<!-- Generated by graphviz version 2.38.0 (20140413.2041)
 -->
<!-- Title: g Pages: 1 -->
<svg width="370pt" height="373pt"
 viewBox="0.00 0.00 369.50 373.00" xmlns="http://www.w3.org/2000/svg" xmlns:xlink="http://www.w3.org/1999/xlink">
<g id="graph0" class="graph" transform="scale(1 1) rotate(0) translate(4 369)">
<title>g</title>
<polygon fill="white" stroke="none" points="-4,4 -4,-369 365.5,-369 365.5,4 -4,4"/>
<!-- N149 -->
<g id="node1" class="node"><title>N149</title>
<path fill="#ffffff" stroke="#2e3436" stroke-width="1.5" d="M258,-82.5C258,-82.5 323,-82.5 323,-82.5 329,-82.5 335,-88.5 335,-94.5 335,-94.5 335,-106.5 335,-106.5 335,-112.5 329,-118.5 323,-118.5 323,-118.5 258,-118.5 258,-118.5 252,-118.5 246,-112.5 246,-106.5 246,-106.5 246,-94.5 246,-94.5 246,-88.5 252,-82.5 258,-82.5"/>
<text text-anchor="start" x="254" y="-98.6" font-family="FreeSans" font-size="8.00" fill="#1c2021">Node[149]name = &#39;f&#39;</text>
</g>
<!-- N150 -->
<g id="node2" class="node"><title>N150</title>
<path fill="#ffffff" stroke="#2e3436" stroke-width="1.5" d="M141,-0.5C141,-0.5 208,-0.5 208,-0.5 214,-0.5 220,-6.5 220,-12.5 220,-12.5 220,-24.5 220,-24.5 220,-30.5 214,-36.5 208,-36.5 208,-36.5 141,-36.5 141,-36.5 135,-36.5 129,-30.5 129,-24.5 129,-24.5 129,-12.5 129,-12.5 129,-6.5 135,-0.5 141,-0.5"/>
<text text-anchor="start" x="137" y="-16.6" font-family="FreeSans" font-size="8.00" fill="#1c2021">Node[150]name = &#39;g&#39;</text>
</g>
<!-- N149&#45;&gt;N150 -->
<g id="edge1" class="edge"><title>N149&#45;&gt;N150</title>
<path fill="none" stroke="#2e3436" stroke-width="2" d="M265.615,-82.338C248.031,-70.2109 224.34,-53.8721 205.522,-40.8948"/>
<polygon fill="#2e3436" stroke="#2e3436" stroke-width="2" points="199.344,-36.6336 207.434,-38.1133 202.715,-38.351 205.802,-40.4801 205.518,-40.8917 205.234,-41.3033 202.147,-39.1743 203.602,-43.67 199.344,-36.6336 199.344,-36.6336"/>
<text text-anchor="middle" x="240" y="-57.6" font-family="FreeSans" font-size="8.00" fill="#2e3436">to</text>
</g>
<!-- N151 -->
<g id="node3" class="node"><title>N151</title>
<path fill="#ffffff" stroke="#2e3436" stroke-width="1.5" d="M77,-164.5C77,-164.5 144,-164.5 144,-164.5 150,-164.5 156,-170.5 156,-176.5 156,-176.5 156,-188.5 156,-188.5 156,-194.5 150,-200.5 144,-200.5 144,-200.5 77,-200.5 77,-200.5 71,-200.5 65,-194.5 65,-188.5 65,-188.5 65,-176.5 65,-176.5 65,-170.5 71,-164.5 77,-164.5"/>
<text text-anchor="start" x="73" y="-180.6" font-family="FreeSans" font-size="8.00" fill="#1c2021">Node[151]name = &#39;d&#39;</text>
</g>
<!-- N151&#45;&gt;N150 -->
<g id="edge3" class="edge"><title>N151&#45;&gt;N150</title>
<path fill="none" stroke="#2e3436" stroke-width="2" d="M117.228,-164.469C128.626,-135.619 151.767,-77.0431 164.876,-43.8595"/>
<polygon fill="#2e3436" stroke="#2e3436" stroke-width="2" points="167.669,-36.79 168.053,-45.0055 166.757,-40.4615 165.379,-43.9492 164.914,-43.7654 164.449,-43.5817 165.826,-40.094 161.775,-42.5253 167.669,-36.79 167.669,-36.79"/>
<text text-anchor="middle" x="153" y="-98.6" font-family="FreeSans" font-size="8.00" fill="#2e3436">to</text>
</g>
<!-- N152 -->
<g id="node4" class="node"><title>N152</title>
<path fill="#ffffff" stroke="#2e3436" stroke-width="1.5" d="M12,-82.5C12,-82.5 79,-82.5 79,-82.5 85,-82.5 91,-88.5 91,-94.5 91,-94.5 91,-106.5 91,-106.5 91,-112.5 85,-118.5 79,-118.5 79,-118.5 12,-118.5 12,-118.5 6,-118.5 0,-112.5 0,-106.5 0,-106.5 0,-94.5 0,-94.5 0,-88.5 6,-82.5 12,-82.5"/>
<text text-anchor="start" x="8" y="-98.6" font-family="FreeSans" font-size="8.00" fill="#1c2021">Node[152]name = &#39;e&#39;</text>
</g>
<!-- N151&#45;&gt;N152 -->
<g id="edge2" class="edge"><title>N151&#45;&gt;N152</title>
<path fill="none" stroke="#2e3436" stroke-width="2" d="M96.396,-164.141C86.9623,-152.531 74.4453,-137.125 64.1853,-124.497"/>
<polygon fill="#2e3436" stroke="#2e3436" stroke-width="2" points="59.3532,-118.55 66.7021,-122.243 62.106,-121.145 64.4707,-124.056 64.0827,-124.371 63.6946,-124.686 61.3299,-121.776 61.4633,-126.499 59.3532,-118.55 59.3532,-118.55"/>
<text text-anchor="middle" x="84" y="-139.6" font-family="FreeSans" font-size="8.00" fill="#2e3436">to</text>
</g>
<!-- N152&#45;&gt;N150 -->
<g id="edge4" class="edge"><title>N152&#45;&gt;N150</title>
<path fill="none" stroke="#2e3436" stroke-width="2" d="M73.1737,-82.338C92.8136,-70.1582 119.304,-53.7299 140.274,-40.7257"/>
<polygon fill="#2e3436" stroke="#2e3436" stroke-width="2" points="146.872,-36.6336 142.277,-43.4547 143.949,-39.035 140.762,-41.0114 140.498,-40.5864 140.235,-40.1615 143.422,-38.1851 138.719,-37.7182 146.872,-36.6336 146.872,-36.6336"/>
<text text-anchor="middle" x="118" y="-57.6" font-family="FreeSans" font-size="8.00" fill="#2e3436">to</text>
</g>
<!-- N153 -->
<g id="node5" class="node"><title>N153</title>
<path fill="#ffffff" stroke="#2e3436" stroke-width="1.5" d="M257,-164.5C257,-164.5 324,-164.5 324,-164.5 330,-164.5 336,-170.5 336,-176.5 336,-176.5 336,-188.5 336,-188.5 336,-194.5 330,-200.5 324,-200.5 324,-200.5 257,-200.5 257,-200.5 251,-200.5 245,-194.5 245,-188.5 245,-188.5 245,-176.5 245,-176.5 245,-170.5 251,-164.5 257,-164.5"/>
<text text-anchor="start" x="253" y="-180.6" font-family="FreeSans" font-size="8.00" fill="#1c2021">Node[153]name = &#39;b&#39;</text>
</g>
<!-- N153&#45;&gt;N149 -->
<g id="edge5" class="edge"><title>N153&#45;&gt;N149</title>
<path fill="none" stroke="#2e3436" stroke-width="2" d="M290.5,-164.141C290.5,-153.058 290.5,-138.518 290.5,-126.236"/>
<polygon fill="#2e3436" stroke="#2e3436" stroke-width="2" points="290.5,-118.55 293.875,-126.05 291,-122.3 291,-126.05 290.5,-126.05 290,-126.05 290,-122.3 287.125,-126.05 290.5,-118.55 290.5,-118.55"/>
<text text-anchor="middle" x="294" y="-139.6" font-family="FreeSans" font-size="8.00" fill="#2e3436">to</text>
</g>
<!-- N154 -->
<g id="node6" class="node"><title>N154</title>
<path fill="#ffffff" stroke="#2e3436" stroke-width="1.5" d="M214,-246.5C214,-246.5 281,-246.5 281,-246.5 287,-246.5 293,-252.5 293,-258.5 293,-258.5 293,-270.5 293,-270.5 293,-276.5 287,-282.5 281,-282.5 281,-282.5 214,-282.5 214,-282.5 208,-282.5 202,-276.5 202,-270.5 202,-270.5 202,-258.5 202,-258.5 202,-252.5 208,-246.5 214,-246.5"/>
<text text-anchor="start" x="210" y="-262.6" font-family="FreeSans" font-size="8.00" fill="#1c2021">Node[154]name = &#39;c&#39;</text>
</g>
<!-- N154&#45;&gt;N149 -->
<g id="edge7" class="edge"><title>N154&#45;&gt;N149</title>
<path fill="none" stroke="#2e3436" stroke-width="2" d="M293.13,-247.966C314.591,-238.098 338.136,-222.964 350.5,-201 365.669,-174.052 341.155,-143.698 319.045,-123.681"/>
<polygon fill="#2e3436" stroke="#2e3436" stroke-width="2" points="313.205,-118.572 321.072,-120.97 316.357,-120.665 319.179,-123.134 318.85,-123.51 318.521,-123.887 315.698,-121.418 316.628,-126.051 313.205,-118.572 313.205,-118.572"/>
<text text-anchor="middle" x="358" y="-180.6" font-family="FreeSans" font-size="8.00" fill="#2e3436">to</text>
</g>
<!-- N154&#45;&gt;N150 -->
<g id="edge8" class="edge"><title>N154&#45;&gt;N150</title>
<path fill="none" stroke="#2e3436" stroke-width="2" d="M242.367,-246.342C229.644,-203.817 196.617,-93.4237 181.837,-44.0236"/>
<polygon fill="#2e3436" stroke="#2e3436" stroke-width="2" points="179.628,-36.6386 185.011,-42.8566 181.181,-40.088 182.256,-43.6806 181.777,-43.824 181.298,-43.9673 180.223,-40.3746 178.544,-44.7914 179.628,-36.6386 179.628,-36.6386"/>
<text text-anchor="middle" x="216" y="-139.6" font-family="FreeSans" font-size="8.00" fill="#2e3436">to</text>
</g>
<!-- N154&#45;&gt;N153 -->
<g id="edge6" class="edge"><title>N154&#45;&gt;N153</title>
<path fill="none" stroke="#2e3436" stroke-width="2" d="M256.83,-246.141C262.958,-234.742 271.051,-219.684 277.767,-207.189"/>
<polygon fill="#2e3436" stroke="#2e3436" stroke-width="2" points="281.336,-200.55 280.757,-208.754 280.001,-204.09 278.225,-207.393 277.785,-207.156 277.344,-206.92 279.12,-203.616 274.812,-205.558 281.336,-200.55 281.336,-200.55"/>
<text text-anchor="middle" x="274" y="-221.6" font-family="FreeSans" font-size="8.00" fill="#2e3436">to</text>
</g>
<!-- N155 -->
<g id="node7" class="node"><title>N155</title>
<path fill="#ffffff" stroke="#2e3436" stroke-width="1.5" d="M147,-328.5C147,-328.5 214,-328.5 214,-328.5 220,-328.5 226,-334.5 226,-340.5 226,-340.5 226,-352.5 226,-352.5 226,-358.5 220,-364.5 214,-364.5 214,-364.5 147,-364.5 147,-364.5 141,-364.5 135,-358.5 135,-352.5 135,-352.5 135,-340.5 135,-340.5 135,-334.5 141,-328.5 147,-328.5"/>
<text text-anchor="start" x="143" y="-344.6" font-family="FreeSans" font-size="8.00" fill="#1c2021">Node[155]name = &#39;a&#39;</text>
</g>
<!-- N155&#45;&gt;N151 -->
<g id="edge10" class="edge"><title>N155&#45;&gt;N151</title>
<path fill="none" stroke="#2e3436" stroke-width="2" d="M173.141,-328.469C160.675,-299.619 135.364,-241.043 121.026,-207.86"/>
<polygon fill="#2e3436" stroke="#2e3436" stroke-width="2" points="117.971,-200.79 124.044,-206.336 119.917,-204.034 121.405,-207.476 120.946,-207.675 120.487,-207.873 119,-204.431 117.848,-209.014 117.971,-200.79 117.971,-200.79"/>
<text text-anchor="middle" x="156" y="-262.6" font-family="FreeSans" font-size="8.00" fill="#2e3436">to</text>
</g>
<!-- N155&#45;&gt;N154 -->
<g id="edge9" class="edge"><title>N155&#45;&gt;N154</title>
<path fill="none" stroke="#2e3436" stroke-width="2" d="M195.038,-328.141C204.762,-316.531 217.664,-301.125 228.24,-288.497"/>
<polygon fill="#2e3436" stroke="#2e3436" stroke-width="2" points="233.221,-282.55 230.992,-290.467 231.196,-285.746 228.788,-288.621 228.405,-288.3 228.022,-287.979 230.429,-285.104 225.818,-286.133 233.221,-282.55 233.221,-282.55"/>
<text text-anchor="middle" x="220" y="-303.6" font-family="FreeSans" font-size="8.00" fill="#2e3436">to</text>
</g>
</g>
</svg>
