<?xml version="1.0" encoding="UTF-8" standalone="no"?>
<!DOCTYPE svg PUBLIC "-//W3C//DTD SVG 1.1//EN"
 "http://www.w3.org/Graphics/SVG/1.1/DTD/svg11.dtd">
<!-- Generated by graphviz version 2.38.0 (20140413.2041)
 -->
<!-- Title: g Pages: 1 -->
<svg width="121pt" height="127pt"
 viewBox="0.00 0.00 121.00 127.00" xmlns="http://www.w3.org/2000/svg" xmlns:xlink="http://www.w3.org/1999/xlink">
<g id="graph0" class="graph" transform="scale(1 1) rotate(0) translate(4 123)">
<title>g</title>
<polygon fill="white" stroke="none" points="-4,4 -4,-123 117,-123 117,4 -4,4"/>
<!-- N176 -->
<g id="node1" class="node"><title>N176</title>
<path fill="#ffffff" stroke="#2e3436" stroke-width="1.5" d="M16,-0.5C16,-0.5 97,-0.5 97,-0.5 103,-0.5 109,-6.5 109,-12.5 109,-12.5 109,-24.5 109,-24.5 109,-30.5 103,-36.5 97,-36.5 97,-36.5 16,-36.5 16,-36.5 10,-36.5 4,-30.5 4,-24.5 4,-24.5 4,-12.5 4,-12.5 4,-6.5 10,-0.5 16,-0.5"/>
<text text-anchor="start" x="12" y="-16.6" font-family="FreeSans" font-size="8.00" fill="#1c2021">Node[176]name = &#39;Juliet&#39;</text>
</g>
<!-- N177 -->
<g id="node2" class="node"><title>N177</title>
<path fill="#ffffff" stroke="#2e3436" stroke-width="1.5" d="M12,-82.5C12,-82.5 101,-82.5 101,-82.5 107,-82.5 113,-88.5 113,-94.5 113,-94.5 113,-106.5 113,-106.5 113,-112.5 107,-118.5 101,-118.5 101,-118.5 12,-118.5 12,-118.5 6,-118.5 0,-112.5 0,-106.5 0,-106.5 0,-94.5 0,-94.5 0,-88.5 6,-82.5 12,-82.5"/>
<text text-anchor="start" x="8" y="-98.6" font-family="FreeSans" font-size="8.00" fill="#1c2021">Node[177]name = &#39;Romeo&#39;</text>
</g>
<!-- N177&#45;&gt;N176 -->
<g id="edge1" class="edge"><title>N177&#45;&gt;N176</title>
<path fill="none" stroke="#2e3436" stroke-width="2" d="M56.5,-82.1412C56.5,-71.0583 56.5,-56.5177 56.5,-44.2358"/>
<polygon fill="#2e3436" stroke="#2e3436" stroke-width="2" points="56.5,-36.5501 59.8751,-44.0501 57,-40.3001 57.0001,-44.0501 56.5001,-44.0501 56.0001,-44.0501 56,-40.3001 53.1251,-44.0501 56.5,-36.5501 56.5,-36.5501"/>
<text text-anchor="middle" x="70.5" y="-57.6" font-family="FreeSans" font-size="8.00" fill="#2e3436">LOVES</text>
</g>
</g>
</svg>
