<?xml version="1.0" encoding="UTF-8" standalone="no"?>
<!DOCTYPE svg PUBLIC "-//W3C//DTD SVG 1.1//EN"
 "http://www.w3.org/Graphics/SVG/1.1/DTD/svg11.dtd">
<!-- Generated by graphviz version 2.38.0 (20140413.2041)
 -->
<!-- Title: g Pages: 1 -->
<svg width="235pt" height="127pt"
 viewBox="0.00 0.00 234.50 127.00" xmlns="http://www.w3.org/2000/svg" xmlns:xlink="http://www.w3.org/1999/xlink">
<g id="graph0" class="graph" transform="scale(1 1) rotate(0) translate(4 123)">
<title>g</title>
<polygon fill="white" stroke="none" points="-4,4 -4,-123 230.5,-123 230.5,4 -4,4"/>
<!-- N115 -->
<g id="node1" class="node"><title>N115</title>
<path fill="#ffffff" stroke="#2e3436" stroke-width="1.5" d="M12,-0.5C12,-0.5 86,-0.5 86,-0.5 92,-0.5 98,-6.5 98,-12.5 98,-12.5 98,-24.5 98,-24.5 98,-30.5 92,-36.5 86,-36.5 86,-36.5 12,-36.5 12,-36.5 6,-36.5 0,-30.5 0,-24.5 0,-24.5 0,-12.5 0,-12.5 0,-6.5 6,-0.5 12,-0.5"/>
<text text-anchor="start" x="8" y="-16.6" font-family="FreeSans" font-size="8.00" fill="#1c2021">Node[115]name = &#39;car&#39;</text>
</g>
<!-- N116 -->
<g id="node2" class="node"><title>N116</title>
<path fill="#ffffff" stroke="#2e3436" stroke-width="1.5" d="M139.5,-0.5C139.5,-0.5 214.5,-0.5 214.5,-0.5 220.5,-0.5 226.5,-6.5 226.5,-12.5 226.5,-12.5 226.5,-24.5 226.5,-24.5 226.5,-30.5 220.5,-36.5 214.5,-36.5 214.5,-36.5 139.5,-36.5 139.5,-36.5 133.5,-36.5 127.5,-30.5 127.5,-24.5 127.5,-24.5 127.5,-12.5 127.5,-12.5 127.5,-6.5 133.5,-0.5 139.5,-0.5"/>
<text text-anchor="start" x="135.5" y="-16.6" font-family="FreeSans" font-size="8.00" fill="#1c2021">Node[116]name = &#39;you&#39;</text>
</g>
<!-- N117 -->
<g id="node3" class="node"><title>N117</title>
<path fill="#ffffff" stroke="#2e3436" stroke-width="1.5" d="M80.5,-82.5C80.5,-82.5 145.5,-82.5 145.5,-82.5 151.5,-82.5 157.5,-88.5 157.5,-94.5 157.5,-94.5 157.5,-106.5 157.5,-106.5 157.5,-112.5 151.5,-118.5 145.5,-118.5 145.5,-118.5 80.5,-118.5 80.5,-118.5 74.5,-118.5 68.5,-112.5 68.5,-106.5 68.5,-106.5 68.5,-94.5 68.5,-94.5 68.5,-88.5 74.5,-82.5 80.5,-82.5"/>
<text text-anchor="start" x="76.5" y="-98.6" font-family="FreeSans" font-size="8.00" fill="#1c2021">Node[117]name = &#39;I&#39;</text>
</g>
<!-- N117&#45;&gt;N115 -->
<g id="edge2" class="edge"><title>N117&#45;&gt;N115</title>
<path fill="none" stroke="#4e9a06" stroke-width="2" d="M99.113,-82.1412C89.8244,-70.5305 77.5,-55.125 67.3978,-42.4972"/>
<polygon fill="#4e9a06" stroke="#4e9a06" stroke-width="2" points="62.6401,-36.5501 69.9608,-40.2983 65.3731,-39.166 67.7158,-42.0943 67.3253,-42.4066 66.9349,-42.719 64.5923,-39.7907 64.6899,-44.515 62.6401,-36.5501 62.6401,-36.5501"/>
<text text-anchor="middle" x="91" y="-57.6" font-family="FreeSans" font-size="8.00" fill="#4e9a06">own</text>
</g>
<!-- N117&#45;&gt;N116 -->
<g id="edge1" class="edge"><title>N117&#45;&gt;N116</title>
<path fill="none" stroke="#2e3436" stroke-width="2" d="M126.887,-82.1412C136.176,-70.5305 148.5,-55.125 158.602,-42.4972"/>
<polygon fill="#2e3436" stroke="#2e3436" stroke-width="2" points="163.36,-36.5501 161.31,-44.515 161.408,-39.7907 159.065,-42.719 158.675,-42.4066 158.284,-42.0943 160.627,-39.166 156.039,-40.2983 163.36,-36.5501 163.36,-36.5501"/>
<text text-anchor="middle" x="157" y="-57.6" font-family="FreeSans" font-size="8.00" fill="#2e3436">know</text>
</g>
</g>
</svg>
