<?xml version="1.0" encoding="UTF-8" standalone="no"?>
<!DOCTYPE svg PUBLIC "-//W3C//DTD SVG 1.1//EN"
 "http://www.w3.org/Graphics/SVG/1.1/DTD/svg11.dtd">
<!-- Generated by graphviz version 2.38.0 (20140413.2041)
 -->
<!-- Title: g Pages: 1 -->
<svg width="121pt" height="136pt"
 viewBox="0.00 0.00 121.00 136.00" xmlns="http://www.w3.org/2000/svg" xmlns:xlink="http://www.w3.org/1999/xlink">
<g id="graph0" class="graph" transform="scale(1 1) rotate(0) translate(4 132)">
<title>g</title>
<polygon fill="white" stroke="none" points="-4,4 -4,-132 117,-132 117,4 -4,4"/>
<!-- N182 -->
<g id="node1" class="node"><title>N182</title>
<path fill="#ffffff" stroke="#2e3436" stroke-width="1.5" d="M16,-0.5C16,-0.5 97,-0.5 97,-0.5 103,-0.5 109,-6.5 109,-12.5 109,-12.5 109,-24.5 109,-24.5 109,-30.5 103,-36.5 97,-36.5 97,-36.5 16,-36.5 16,-36.5 10,-36.5 4,-30.5 4,-24.5 4,-24.5 4,-12.5 4,-12.5 4,-6.5 10,-0.5 16,-0.5"/>
<text text-anchor="start" x="12" y="-16.6" font-family="FreeSans" font-size="8.00" fill="#1c2021">Node[182]name = &#39;Juliet&#39;</text>
</g>
<!-- N183 -->
<g id="node2" class="node"><title>N183</title>
<path fill="#ffffff" stroke="#2e3436" stroke-width="1.5" d="M12,-91.5C12,-91.5 101,-91.5 101,-91.5 107,-91.5 113,-97.5 113,-103.5 113,-103.5 113,-115.5 113,-115.5 113,-121.5 107,-127.5 101,-127.5 101,-127.5 12,-127.5 12,-127.5 6,-127.5 0,-121.5 0,-115.5 0,-115.5 0,-103.5 0,-103.5 0,-97.5 6,-91.5 12,-91.5"/>
<text text-anchor="start" x="8" y="-107.6" font-family="FreeSans" font-size="8.00" fill="#1c2021">Node[183]name = &#39;Romeo&#39;</text>
</g>
<!-- N183&#45;&gt;N182 -->
<g id="edge1" class="edge"><title>N183&#45;&gt;N182</title>
<path fill="none" stroke="#2e3436" stroke-width="2" d="M56.5,-91.3399C56.5,-78.0425 56.5,-59.4274 56.5,-44.4783"/>
<polygon fill="#2e3436" stroke="#2e3436" stroke-width="2" points="56.5,-36.6074 59.8751,-44.1074 57,-40.3574 57.0001,-44.1074 56.5001,-44.1074 56.0001,-44.1074 56,-40.3574 53.1251,-44.1075 56.5,-36.6074 56.5,-36.6074"/>
<text text-anchor="middle" x="78" y="-66.6" font-family="FreeSans" font-size="8.00" fill="#2e3436">LOVES</text>
<text text-anchor="start" x="56.5" y="-57.6" font-family="FreeSans" font-size="8.00" fill="#2e3436">cost = &#39;high&#39;</text>
</g>
</g>
</svg>
