<?xml version="1.0" encoding="UTF-8" standalone="no"?>
<!DOCTYPE svg PUBLIC "-//W3C//DTD SVG 1.1//EN"
 "http://www.w3.org/Graphics/SVG/1.1/DTD/svg11.dtd">
<!-- Generated by graphviz version 2.38.0 (20140413.2041)
 -->
<!-- Title: g Pages: 1 -->
<svg width="195pt" height="291pt"
 viewBox="0.00 0.00 194.50 291.00" xmlns="http://www.w3.org/2000/svg" xmlns:xlink="http://www.w3.org/1999/xlink">
<g id="graph0" class="graph" transform="scale(1 1) rotate(0) translate(4 287)">
<title>g</title>
<polygon fill="white" stroke="none" points="-4,4 -4,-287 190.5,-287 190.5,4 -4,4"/>
<!-- N0 -->
<g id="node1" class="node"><title>N0</title>
<path fill="#ffffff" stroke="#2e3436" stroke-width="1.5" d="M108,-246.5C108,-246.5 153,-246.5 153,-246.5 159,-246.5 165,-252.5 165,-258.5 165,-258.5 165,-270.5 165,-270.5 165,-276.5 159,-282.5 153,-282.5 153,-282.5 108,-282.5 108,-282.5 102,-282.5 96,-276.5 96,-270.5 96,-270.5 96,-258.5 96,-258.5 96,-252.5 102,-246.5 108,-246.5"/>
<text text-anchor="start" x="104" y="-262.6" font-family="FreeSans" font-size="8.00" fill="#1c2021">name = &#39;David&#39;</text>
</g>
<!-- N2 -->
<g id="node2" class="node"><title>N2</title>
<path fill="#ffffff" stroke="#2e3436" stroke-width="1.5" d="M36.5,-164.5C36.5,-164.5 86.5,-164.5 86.5,-164.5 92.5,-164.5 98.5,-170.5 98.5,-176.5 98.5,-176.5 98.5,-188.5 98.5,-188.5 98.5,-194.5 92.5,-200.5 86.5,-200.5 86.5,-200.5 36.5,-200.5 36.5,-200.5 30.5,-200.5 24.5,-194.5 24.5,-188.5 24.5,-188.5 24.5,-176.5 24.5,-176.5 24.5,-170.5 30.5,-164.5 36.5,-164.5"/>
<text text-anchor="start" x="32.5" y="-180.6" font-family="FreeSans" font-size="8.00" fill="#1c2021">name = &#39;Anders&#39;</text>
</g>
<!-- N0&#45;&gt;N2 -->
<g id="edge1" class="edge"><title>N0&#45;&gt;N2</title>
<path fill="none" stroke="#2e3436" stroke-width="2" d="M115.528,-246.141C105.514,-234.531 92.2266,-219.125 81.3351,-206.497"/>
<polygon fill="#2e3436" stroke="#2e3436" stroke-width="2" points="76.2057,-200.55 83.6599,-204.025 79.0336,-203.063 81.4828,-205.903 81.1042,-206.229 80.7256,-206.556 78.2763,-203.716 78.5485,-208.434 76.2057,-200.55 76.2057,-200.55"/>
<text text-anchor="middle" x="114" y="-221.6" font-family="FreeSans" font-size="8.00" fill="#2e3436">KNOWS</text>
</g>
<!-- N4 -->
<g id="node4" class="node"><title>N4</title>
<path fill="#ffffff" stroke="#2e3436" stroke-width="1.5" d="M12,-82.5C12,-82.5 63,-82.5 63,-82.5 69,-82.5 75,-88.5 75,-94.5 75,-94.5 75,-106.5 75,-106.5 75,-112.5 69,-118.5 63,-118.5 63,-118.5 12,-118.5 12,-118.5 6,-118.5 0,-112.5 0,-106.5 0,-106.5 0,-94.5 0,-94.5 0,-88.5 6,-82.5 12,-82.5"/>
<text text-anchor="start" x="8" y="-98.6" font-family="FreeSans" font-size="8.00" fill="#1c2021">name = &#39;Ceasar&#39;</text>
</g>
<!-- N2&#45;&gt;N4 -->
<g id="edge2" class="edge"><title>N2&#45;&gt;N4</title>
<path fill="none" stroke="#4e9a06" stroke-width="2" d="M45.5768,-164.321C41.4851,-158.863 37.6371,-152.535 35.5,-146 33.5056,-139.901 33.014,-133.082 33.2606,-126.649"/>
<polygon fill="#4e9a06" stroke="#4e9a06" stroke-width="2" points="33.9103,-118.791 36.6558,-126.543 34.0996,-122.569 33.7906,-126.307 33.2923,-126.265 32.794,-126.224 33.103,-122.487 29.9287,-125.987 33.9103,-118.791 33.9103,-118.791"/>
<text text-anchor="middle" x="52.5" y="-139.6" font-family="FreeSans" font-size="8.00" fill="#4e9a06">BLOCKS</text>
</g>
<!-- N3 -->
<g id="node5" class="node"><title>N3</title>
<path fill="#ffffff" stroke="#2e3436" stroke-width="1.5" d="M116.5,-82.5C116.5,-82.5 174.5,-82.5 174.5,-82.5 180.5,-82.5 186.5,-88.5 186.5,-94.5 186.5,-94.5 186.5,-106.5 186.5,-106.5 186.5,-112.5 180.5,-118.5 174.5,-118.5 174.5,-118.5 116.5,-118.5 116.5,-118.5 110.5,-118.5 104.5,-112.5 104.5,-106.5 104.5,-106.5 104.5,-94.5 104.5,-94.5 104.5,-88.5 110.5,-82.5 116.5,-82.5"/>
<text text-anchor="start" x="112.5" y="-98.6" font-family="FreeSans" font-size="8.00" fill="#1c2021">name = &#39;Bossman&#39;</text>
</g>
<!-- N2&#45;&gt;N3 -->
<g id="edge3" class="edge"><title>N2&#45;&gt;N3</title>
<path fill="none" stroke="#2e3436" stroke-width="2" d="M77.0199,-164.161C84.762,-155.746 94.3966,-145.618 103.5,-137 108.184,-132.565 113.322,-127.999 118.346,-123.679"/>
<polygon fill="#2e3436" stroke="#2e3436" stroke-width="2" points="124.159,-118.744 120.626,-126.171 121.624,-121.552 118.766,-123.979 118.442,-123.598 118.118,-123.217 120.977,-120.79 116.258,-121.025 124.159,-118.744 124.159,-118.744"/>
<text text-anchor="middle" x="119" y="-139.6" font-family="FreeSans" font-size="8.00" fill="#2e3436">KNOWS</text>
</g>
<!-- N1 -->
<g id="node3" class="node"><title>N1</title>
<path fill="#ffffff" stroke="#2e3436" stroke-width="1.5" d="M76.5,-0.5C76.5,-0.5 116.5,-0.5 116.5,-0.5 122.5,-0.5 128.5,-6.5 128.5,-12.5 128.5,-12.5 128.5,-24.5 128.5,-24.5 128.5,-30.5 122.5,-36.5 116.5,-36.5 116.5,-36.5 76.5,-36.5 76.5,-36.5 70.5,-36.5 64.5,-30.5 64.5,-24.5 64.5,-24.5 64.5,-12.5 64.5,-12.5 64.5,-6.5 70.5,-0.5 76.5,-0.5"/>
<text text-anchor="start" x="72.5" y="-16.6" font-family="FreeSans" font-size="8.00" fill="#1c2021">name = &#39;Emil&#39;</text>
</g>
<!-- N4&#45;&gt;N1 -->
<g id="edge6" class="edge"><title>N4&#45;&gt;N1</title>
<path fill="none" stroke="#2e3436" stroke-width="2" d="M50.3021,-82.1412C58.7871,-70.6361 70.0202,-55.4048 79.285,-42.8423"/>
<polygon fill="#2e3436" stroke="#2e3436" stroke-width="2" points="83.9256,-36.5501 82.1902,-44.5894 82.1022,-39.8649 79.8764,-42.8829 79.4739,-42.5861 79.0715,-42.2894 81.2973,-39.2713 76.7577,-40.5829 83.9256,-36.5501 83.9256,-36.5501"/>
<text text-anchor="middle" x="85" y="-57.6" font-family="FreeSans" font-size="8.00" fill="#2e3436">KNOWS</text>
</g>
<!-- N3&#45;&gt;N0 -->
<g id="edge4" class="edge"><title>N3&#45;&gt;N0</title>
<path fill="none" stroke="#4e9a06" stroke-width="2" d="M144.801,-118.737C143.692,-143.13 141.162,-189.087 136.5,-228 136.087,-231.444 135.572,-235.064 135.017,-238.621"/>
<polygon fill="#4e9a06" stroke="#4e9a06" stroke-width="2" points="133.765,-246.214 131.655,-238.265 133.882,-242.433 134.492,-238.733 134.985,-238.814 135.478,-238.896 134.868,-242.596 138.315,-239.363 133.765,-246.214 133.765,-246.214"/>
<text text-anchor="middle" x="159.5" y="-180.6" font-family="FreeSans" font-size="8.00" fill="#4e9a06">BLOCKS</text>
</g>
<!-- N3&#45;&gt;N1 -->
<g id="edge5" class="edge"><title>N3&#45;&gt;N1</title>
<path fill="none" stroke="#2e3436" stroke-width="2" d="M134.868,-82.1412C127.886,-70.7416 118.663,-55.6839 111.009,-43.1887"/>
<polygon fill="#2e3436" stroke="#2e3436" stroke-width="2" points="106.943,-36.5501 113.739,-41.1829 109.328,-39.4868 111.287,-42.6846 110.861,-42.9458 110.434,-43.2069 108.476,-40.0091 107.983,-44.7086 106.943,-36.5501 106.943,-36.5501"/>
<text text-anchor="middle" x="138" y="-57.6" font-family="FreeSans" font-size="8.00" fill="#2e3436">KNOWS</text>
</g>
</g>
</svg>
