<?xml version="1.0" encoding="UTF-8" standalone="no"?>
<!DOCTYPE svg PUBLIC "-//W3C//DTD SVG 1.1//EN"
 "http://www.w3.org/Graphics/SVG/1.1/DTD/svg11.dtd">
<!-- Generated by graphviz version 2.38.0 (20140413.2041)
 -->
<!-- Title: g Pages: 1 -->
<svg width="409pt" height="391pt"
 viewBox="0.00 0.00 409.00 391.00" xmlns="http://www.w3.org/2000/svg" xmlns:xlink="http://www.w3.org/1999/xlink">
<g id="graph0" class="graph" transform="scale(1 1) rotate(0) translate(4 387)">
<title>g</title>
<polygon fill="white" stroke="none" points="-4,4 -4,-387 405,-387 405,4 -4,4"/>
<!-- N0 -->
<g id="node1" class="node"><title>N0</title>
<path fill="#ffffff" stroke="#2e3436" stroke-width="1.5" d="M182.5,-346.5C182.5,-346.5 221.5,-346.5 221.5,-346.5 227.5,-346.5 233.5,-352.5 233.5,-358.5 233.5,-358.5 233.5,-370.5 233.5,-370.5 233.5,-376.5 227.5,-382.5 221.5,-382.5 221.5,-382.5 182.5,-382.5 182.5,-382.5 176.5,-382.5 170.5,-376.5 170.5,-370.5 170.5,-370.5 170.5,-358.5 170.5,-358.5 170.5,-352.5 176.5,-346.5 182.5,-346.5"/>
<text text-anchor="start" x="178.5" y="-362.6" font-family="FreeSans" font-size="8.00" fill="#1c2021">name = &#39;Bob&#39;</text>
</g>
<!-- N3 -->
<g id="node2" class="node"><title>N3</title>
<path fill="#ffffff" stroke="#2e3436" stroke-width="1.5" d="M77,-255.5C77,-255.5 119,-255.5 119,-255.5 125,-255.5 131,-261.5 131,-267.5 131,-267.5 131,-279.5 131,-279.5 131,-285.5 125,-291.5 119,-291.5 119,-291.5 77,-291.5 77,-291.5 71,-291.5 65,-285.5 65,-279.5 65,-279.5 65,-267.5 65,-267.5 65,-261.5 71,-255.5 77,-255.5"/>
<text text-anchor="start" x="73" y="-271.6" font-family="FreeSans" font-size="8.00" fill="#1c2021">name = &#39;Alice&#39;</text>
</g>
<!-- N0&#45;&gt;N3 -->
<g id="edge1" class="edge"><title>N0&#45;&gt;N3</title>
<path fill="none" stroke="#2e3436" stroke-width="2" d="M170.279,-362.324C145.585,-359.536 112.778,-351.313 96,-328 90.1736,-319.904 89.5834,-309.195 90.8632,-299.486"/>
<polygon fill="#2e3436" stroke="#2e3436" stroke-width="2" points="92.2263,-291.982 94.2063,-299.965 92.0479,-295.761 91.3776,-299.451 90.8857,-299.362 90.3937,-299.272 91.064,-295.583 87.565,-298.758 92.2263,-291.982 92.2263,-291.982"/>
<text text-anchor="middle" x="138" y="-321.6" font-family="FreeSans" font-size="8.00" fill="#2e3436">FRIEND</text>
<text text-anchor="start" x="96" y="-312.6" font-family="FreeSans" font-size="8.00" fill="#2e3436">status = &#39;CONFIRMED&#39;</text>
</g>
<!-- N1 -->
<g id="node3" class="node"><title>N1</title>
<path fill="#ffffff" stroke="#2e3436" stroke-width="1.5" d="M327,-255.5C327,-255.5 389,-255.5 389,-255.5 395,-255.5 401,-261.5 401,-267.5 401,-267.5 401,-279.5 401,-279.5 401,-285.5 395,-291.5 389,-291.5 389,-291.5 327,-291.5 327,-291.5 321,-291.5 315,-285.5 315,-279.5 315,-279.5 315,-267.5 315,-267.5 315,-261.5 321,-255.5 327,-255.5"/>
<text text-anchor="start" x="323" y="-280.6" font-family="FreeSans" font-size="8.00" fill="#1c2021">date = 1</text>
<text text-anchor="start" x="323" y="-271.6" font-family="FreeSans" font-size="8.00" fill="#1c2021">name = &#39;bob_s1&#39;</text>
<text text-anchor="start" x="323" y="-262.6" font-family="FreeSans" font-size="8.00" fill="#1c2021">text = &#39;bobs status1&#39;</text>
</g>
<!-- N0&#45;&gt;N1 -->
<g id="edge2" class="edge"><title>N0&#45;&gt;N1</title>
<path fill="none" stroke="#4e9a06" stroke-width="2" d="M232.078,-346.34C257.544,-331.811 294.137,-310.935 321.319,-295.427"/>
<polygon fill="#4e9a06" stroke="#4e9a06" stroke-width="2" points="328.014,-291.607 323.172,-298.255 325.005,-293.9 321.747,-295.758 321.5,-295.324 321.252,-294.89 324.509,-293.031 319.827,-292.393 328.014,-291.607 328.014,-291.607"/>
<text text-anchor="middle" x="310.5" y="-317.1" font-family="FreeSans" font-size="8.00" fill="#4e9a06">STATUS</text>
</g>
<!-- N6 -->
<g id="node5" class="node"><title>N6</title>
<path fill="#ffffff" stroke="#2e3436" stroke-width="1.5" d="M162,-164.5C162,-164.5 200,-164.5 200,-164.5 206,-164.5 212,-170.5 212,-176.5 212,-176.5 212,-188.5 212,-188.5 212,-194.5 206,-200.5 200,-200.5 200,-200.5 162,-200.5 162,-200.5 156,-200.5 150,-194.5 150,-188.5 150,-188.5 150,-176.5 150,-176.5 150,-170.5 156,-164.5 162,-164.5"/>
<text text-anchor="start" x="158" y="-180.6" font-family="FreeSans" font-size="8.00" fill="#1c2021">name = &#39;Joe&#39;</text>
</g>
<!-- N3&#45;&gt;N6 -->
<g id="edge4" class="edge"><title>N3&#45;&gt;N6</title>
<path fill="none" stroke="#2e3436" stroke-width="2" d="M98.139,-255.473C99.0509,-244.084 101.906,-229.346 110,-219 118.306,-208.384 130.628,-200.698 142.686,-195.253"/>
<polygon fill="#2e3436" stroke="#2e3436" stroke-width="2" points="149.723,-192.301 144.112,-198.315 146.458,-194.213 143,-195.663 142.807,-195.202 142.613,-194.741 146.071,-193.29 141.501,-192.09 149.723,-192.301 149.723,-192.301"/>
<text text-anchor="middle" x="145" y="-230.6" font-family="FreeSans" font-size="8.00" fill="#2e3436">FRIEND</text>
<text text-anchor="start" x="110" y="-221.6" font-family="FreeSans" font-size="8.00" fill="#2e3436">status = &#39;PENDING&#39;</text>
</g>
<!-- N4 -->
<g id="node6" class="node"><title>N4</title>
<path fill="#ffffff" stroke="#2e3436" stroke-width="1.5" d="M12,-164.5C12,-164.5 78,-164.5 78,-164.5 84,-164.5 90,-170.5 90,-176.5 90,-176.5 90,-188.5 90,-188.5 90,-194.5 84,-200.5 78,-200.5 78,-200.5 12,-200.5 12,-200.5 6,-200.5 0,-194.5 0,-188.5 0,-188.5 0,-176.5 0,-176.5 0,-170.5 6,-164.5 12,-164.5"/>
<text text-anchor="start" x="8" y="-189.6" font-family="FreeSans" font-size="8.00" fill="#1c2021">date = 2</text>
<text text-anchor="start" x="8" y="-180.6" font-family="FreeSans" font-size="8.00" fill="#1c2021">name = &#39;alice_s1&#39;</text>
<text text-anchor="start" x="8" y="-171.6" font-family="FreeSans" font-size="8.00" fill="#1c2021">text = &#39;Alices status1&#39;</text>
</g>
<!-- N3&#45;&gt;N4 -->
<g id="edge5" class="edge"><title>N3&#45;&gt;N4</title>
<path fill="none" stroke="#4e9a06" stroke-width="2" d="M64.7859,-258.408C56.1435,-253.036 47.8931,-245.982 43,-237 38.3452,-228.455 37.8318,-217.952 38.8512,-208.522"/>
<polygon fill="#4e9a06" stroke="#4e9a06" stroke-width="2" points="40.0107,-200.919 42.2164,-208.842 39.9396,-204.701 39.3742,-208.408 38.8799,-208.333 38.3856,-208.257 38.951,-204.55 35.5435,-207.824 40.0107,-200.919 40.0107,-200.919"/>
<text text-anchor="middle" x="59.5" y="-226.1" font-family="FreeSans" font-size="8.00" fill="#4e9a06">STATUS</text>
</g>
<!-- N2 -->
<g id="node4" class="node"><title>N2</title>
<path fill="#ffffff" stroke="#2e3436" stroke-width="1.5" d="M327,-164.5C327,-164.5 389,-164.5 389,-164.5 395,-164.5 401,-170.5 401,-176.5 401,-176.5 401,-188.5 401,-188.5 401,-194.5 395,-200.5 389,-200.5 389,-200.5 327,-200.5 327,-200.5 321,-200.5 315,-194.5 315,-188.5 315,-188.5 315,-176.5 315,-176.5 315,-170.5 321,-164.5 327,-164.5"/>
<text text-anchor="start" x="323" y="-189.6" font-family="FreeSans" font-size="8.00" fill="#1c2021">date = 4</text>
<text text-anchor="start" x="323" y="-180.6" font-family="FreeSans" font-size="8.00" fill="#1c2021">name = &#39;bob_s2&#39;</text>
<text text-anchor="start" x="323" y="-171.6" font-family="FreeSans" font-size="8.00" fill="#1c2021">text = &#39;bobs status2&#39;</text>
</g>
<!-- N1&#45;&gt;N2 -->
<g id="edge3" class="edge"><title>N1&#45;&gt;N2</title>
<path fill="none" stroke="#a40000" stroke-width="2" d="M358,-255.34C358,-242.043 358,-223.427 358,-208.478"/>
<polygon fill="#a40000" stroke="#a40000" stroke-width="2" points="358,-200.607 361.375,-208.107 358.5,-204.357 358.5,-208.107 358,-208.107 357.5,-208.107 357.5,-204.357 354.625,-208.107 358,-200.607 358,-200.607"/>
<text text-anchor="middle" x="369" y="-226.1" font-family="FreeSans" font-size="8.00" fill="#a40000">NEXT</text>
</g>
<!-- N6&#45;&gt;N0 -->
<g id="edge7" class="edge"><title>N6&#45;&gt;N0</title>
<path fill="none" stroke="#2e3436" stroke-width="2" d="M183.007,-200.707C186.735,-232.653 194.737,-301.25 199.07,-338.385"/>
<polygon fill="#2e3436" stroke="#2e3436" stroke-width="2" points="199.986,-346.241 195.765,-339.183 199.055,-342.574 198.621,-338.849 199.117,-338.791 199.614,-338.733 200.048,-342.458 202.47,-338.4 199.986,-346.241 199.986,-346.241"/>
<text text-anchor="middle" x="236" y="-276.1" font-family="FreeSans" font-size="8.00" fill="#2e3436">FRIEND</text>
<text text-anchor="start" x="194" y="-267.1" font-family="FreeSans" font-size="8.00" fill="#2e3436">status = &#39;CONFIRMED&#39;</text>
</g>
<!-- N7 -->
<g id="node8" class="node"><title>N7</title>
<path fill="#ffffff" stroke="#2e3436" stroke-width="1.5" d="M151.5,-82.5C151.5,-82.5 210.5,-82.5 210.5,-82.5 216.5,-82.5 222.5,-88.5 222.5,-94.5 222.5,-94.5 222.5,-106.5 222.5,-106.5 222.5,-112.5 216.5,-118.5 210.5,-118.5 210.5,-118.5 151.5,-118.5 151.5,-118.5 145.5,-118.5 139.5,-112.5 139.5,-106.5 139.5,-106.5 139.5,-94.5 139.5,-94.5 139.5,-88.5 145.5,-82.5 151.5,-82.5"/>
<text text-anchor="start" x="147.5" y="-107.6" font-family="FreeSans" font-size="8.00" fill="#1c2021">date = 3</text>
<text text-anchor="start" x="147.5" y="-98.6" font-family="FreeSans" font-size="8.00" fill="#1c2021">name = &#39;joe_s1&#39;</text>
<text text-anchor="start" x="147.5" y="-89.6" font-family="FreeSans" font-size="8.00" fill="#1c2021">text = &#39;Joe status1&#39;</text>
</g>
<!-- N6&#45;&gt;N7 -->
<g id="edge8" class="edge"><title>N6&#45;&gt;N7</title>
<path fill="none" stroke="#4e9a06" stroke-width="2" d="M181,-164.141C181,-153.058 181,-138.518 181,-126.236"/>
<polygon fill="#4e9a06" stroke="#4e9a06" stroke-width="2" points="181,-118.55 184.375,-126.05 181.5,-122.3 181.5,-126.05 181,-126.05 180.5,-126.05 180.5,-122.3 177.625,-126.05 181,-118.55 181,-118.55"/>
<text text-anchor="middle" x="197.5" y="-139.6" font-family="FreeSans" font-size="8.00" fill="#4e9a06">STATUS</text>
</g>
<!-- N5 -->
<g id="node7" class="node"><title>N5</title>
<path fill="#ffffff" stroke="#2e3436" stroke-width="1.5" d="M12,-82.5C12,-82.5 78,-82.5 78,-82.5 84,-82.5 90,-88.5 90,-94.5 90,-94.5 90,-106.5 90,-106.5 90,-112.5 84,-118.5 78,-118.5 78,-118.5 12,-118.5 12,-118.5 6,-118.5 0,-112.5 0,-106.5 0,-106.5 0,-94.5 0,-94.5 0,-88.5 6,-82.5 12,-82.5"/>
<text text-anchor="start" x="8" y="-107.6" font-family="FreeSans" font-size="8.00" fill="#1c2021">date = 5</text>
<text text-anchor="start" x="8" y="-98.6" font-family="FreeSans" font-size="8.00" fill="#1c2021">name = &#39;alice_s2&#39;</text>
<text text-anchor="start" x="8" y="-89.6" font-family="FreeSans" font-size="8.00" fill="#1c2021">text = &#39;Alices status2&#39;</text>
</g>
<!-- N4&#45;&gt;N5 -->
<g id="edge6" class="edge"><title>N4&#45;&gt;N5</title>
<path fill="none" stroke="#a40000" stroke-width="2" d="M45,-164.141C45,-153.058 45,-138.518 45,-126.236"/>
<polygon fill="#a40000" stroke="#a40000" stroke-width="2" points="45,-118.55 48.3751,-126.05 45.5,-122.3 45.5001,-126.05 45.0001,-126.05 44.5001,-126.05 44.5,-122.3 41.6251,-126.05 45,-118.55 45,-118.55"/>
<text text-anchor="middle" x="56" y="-139.6" font-family="FreeSans" font-size="8.00" fill="#a40000">NEXT</text>
</g>
<!-- N8 -->
<g id="node9" class="node"><title>N8</title>
<path fill="#ffffff" stroke="#2e3436" stroke-width="1.5" d="M151.5,-0.5C151.5,-0.5 210.5,-0.5 210.5,-0.5 216.5,-0.5 222.5,-6.5 222.5,-12.5 222.5,-12.5 222.5,-24.5 222.5,-24.5 222.5,-30.5 216.5,-36.5 210.5,-36.5 210.5,-36.5 151.5,-36.5 151.5,-36.5 145.5,-36.5 139.5,-30.5 139.5,-24.5 139.5,-24.5 139.5,-12.5 139.5,-12.5 139.5,-6.5 145.5,-0.5 151.5,-0.5"/>
<text text-anchor="start" x="147.5" y="-25.6" font-family="FreeSans" font-size="8.00" fill="#1c2021">date = 6</text>
<text text-anchor="start" x="147.5" y="-16.6" font-family="FreeSans" font-size="8.00" fill="#1c2021">name = &#39;joe_s2&#39;</text>
<text text-anchor="start" x="147.5" y="-7.6" font-family="FreeSans" font-size="8.00" fill="#1c2021">text = &#39;Joe status2&#39;</text>
</g>
<!-- N7&#45;&gt;N8 -->
<g id="edge9" class="edge"><title>N7&#45;&gt;N8</title>
<path fill="none" stroke="#a40000" stroke-width="2" d="M181,-82.1412C181,-71.0583 181,-56.5177 181,-44.2358"/>
<polygon fill="#a40000" stroke="#a40000" stroke-width="2" points="181,-36.5501 184.375,-44.0501 181.5,-40.3001 181.5,-44.0501 181,-44.0501 180.5,-44.0501 180.5,-40.3001 177.625,-44.0501 181,-36.5501 181,-36.5501"/>
<text text-anchor="middle" x="192" y="-57.6" font-family="FreeSans" font-size="8.00" fill="#a40000">NEXT</text>
</g>
</g>
</svg>
