<?xml version="1.0" encoding="UTF-8" standalone="no"?>
<!DOCTYPE svg PUBLIC "-//W3C//DTD SVG 1.1//EN"
 "http://www.w3.org/Graphics/SVG/1.1/DTD/svg11.dtd">
<!-- Generated by graphviz version 2.38.0 (20140413.2041)
 -->
<!-- Title: g Pages: 1 -->
<svg width="504pt" height="140pt"
 viewBox="0.00 0.00 504.00 140.20" xmlns="http://www.w3.org/2000/svg" xmlns:xlink="http://www.w3.org/1999/xlink">
<g id="graph0" class="graph" transform="scale(0.649066 0.649066) rotate(0) translate(4 212)">
<title>g</title>
<polygon fill="white" stroke="none" points="-4,4 -4,-212 772.5,-212 772.5,4 -4,4"/>
<!-- N0 -->
<g id="node1" class="node"><title>N0</title>
<path fill="#ffffff" stroke="#2e3436" stroke-width="1.5" d="M12,-89.5C12,-89.5 81,-89.5 81,-89.5 87,-89.5 93,-95.5 93,-101.5 93,-101.5 93,-113.5 93,-113.5 93,-119.5 87,-125.5 81,-125.5 81,-125.5 12,-125.5 12,-125.5 6,-125.5 0,-119.5 0,-113.5 0,-113.5 0,-101.5 0,-101.5 0,-95.5 6,-89.5 12,-89.5"/>
<text text-anchor="middle" x="46.5" y="-114.6" font-family="FreeSans" font-size="8.00" fill="#1c2021">Person</text>
<polyline fill="none" stroke="#2e3436" stroke-width="1.5" points="0,-107.5 93,-107.5 "/>
<text text-anchor="start" x="8" y="-96.6" font-family="FreeSans" font-size="8.00" fill="#1c2021">name = &#39;Oliver Stone&#39;</text>
</g>
<!-- N4 -->
<g id="node2" class="node"><title>N4</title>
<path fill="#ffffff" stroke="#2e3436" stroke-width="1.5" d="M144.5,-0.5C144.5,-0.5 206.5,-0.5 206.5,-0.5 212.5,-0.5 218.5,-6.5 218.5,-12.5 218.5,-12.5 218.5,-31.5 218.5,-31.5 218.5,-37.5 212.5,-43.5 206.5,-43.5 206.5,-43.5 144.5,-43.5 144.5,-43.5 138.5,-43.5 132.5,-37.5 132.5,-31.5 132.5,-31.5 132.5,-12.5 132.5,-12.5 132.5,-6.5 138.5,-0.5 144.5,-0.5"/>
<text text-anchor="middle" x="175.5" y="-33.1" font-family="FreeSans" font-size="8.00" fill="#1c2021">Movie</text>
<polyline fill="none" stroke="#2e3436" stroke-width="1.5" points="132.5,-26.5 218.5,-26.5 "/>
<text text-anchor="start" x="140.5" y="-16.1" font-family="FreeSans" font-size="8.00" fill="#1c2021">name = &#39;WallStreet&#39;</text>
<text text-anchor="start" x="140.5" y="-7.1" font-family="FreeSans" font-size="8.00" fill="#1c2021">title = &#39;Wall Street&#39;</text>
</g>
<!-- N0&#45;&gt;N4 -->
<g id="edge1" class="edge"><title>N0&#45;&gt;N4</title>
<path fill="none" stroke="#2e3436" stroke-width="2" d="M59.1101,-89.2254C66.3489,-80.2214 76.0599,-69.5451 86.5,-62 98.1518,-53.5792 111.909,-46.443 125.078,-40.6693"/>
<polygon fill="#2e3436" stroke="#2e3436" stroke-width="2" points="132.316,-37.6024 126.727,-43.6359 129.058,-39.5257 125.606,-40.9887 125.41,-40.5283 125.215,-40.068 128.668,-38.605 124.094,-37.4208 132.316,-37.6024 132.316,-37.6024"/>
<text text-anchor="middle" x="108" y="-64.6" font-family="FreeSans" font-size="8.00" fill="#2e3436">DIRECTED</text>
</g>
<!-- N1 -->
<g id="node3" class="node"><title>N1</title>
<path fill="#ffffff" stroke="#2e3436" stroke-width="1.5" d="M190.5,-171.5C190.5,-171.5 266.5,-171.5 266.5,-171.5 272.5,-171.5 278.5,-177.5 278.5,-183.5 278.5,-183.5 278.5,-195.5 278.5,-195.5 278.5,-201.5 272.5,-207.5 266.5,-207.5 266.5,-207.5 190.5,-207.5 190.5,-207.5 184.5,-207.5 178.5,-201.5 178.5,-195.5 178.5,-195.5 178.5,-183.5 178.5,-183.5 178.5,-177.5 184.5,-171.5 190.5,-171.5"/>
<text text-anchor="middle" x="228.5" y="-196.6" font-family="FreeSans" font-size="8.00" fill="#1c2021">Person</text>
<polyline fill="none" stroke="#2e3436" stroke-width="1.5" points="178.5,-189.5 278.5,-189.5 "/>
<text text-anchor="start" x="186.5" y="-178.6" font-family="FreeSans" font-size="8.00" fill="#1c2021">name = &#39;Charlie Sheen&#39;</text>
</g>
<!-- N1&#45;&gt;N4 -->
<g id="edge3" class="edge"><title>N1&#45;&gt;N4</title>
<path fill="none" stroke="#a40000" stroke-width="2" d="M203.335,-171.419C189.327,-160.317 173.202,-144.489 165.5,-126 155.533,-102.071 159.977,-72.3978 165.754,-51.0557"/>
<polygon fill="#a40000" stroke="#a40000" stroke-width="2" points="167.919,-43.5958 169.07,-51.7392 167.354,-47.3366 166.309,-50.9381 165.829,-50.7987 165.348,-50.6594 166.393,-47.0579 162.587,-49.8582 167.919,-43.5958 167.919,-43.5958"/>
<text text-anchor="middle" x="186" y="-105.6" font-family="FreeSans" font-size="8.00" fill="#a40000">ACTED_IN</text>
</g>
<!-- N2 -->
<g id="node4" class="node"><title>N2</title>
<path fill="#ffffff" stroke="#2e3436" stroke-width="1.5" d="M371,-89.5C371,-89.5 444,-89.5 444,-89.5 450,-89.5 456,-95.5 456,-101.5 456,-101.5 456,-113.5 456,-113.5 456,-119.5 450,-125.5 444,-125.5 444,-125.5 371,-125.5 371,-125.5 365,-125.5 359,-119.5 359,-113.5 359,-113.5 359,-101.5 359,-101.5 359,-95.5 365,-89.5 371,-89.5"/>
<text text-anchor="middle" x="407.5" y="-114.6" font-family="FreeSans" font-size="8.00" fill="#1c2021">Person</text>
<polyline fill="none" stroke="#2e3436" stroke-width="1.5" points="359,-107.5 456,-107.5 "/>
<text text-anchor="start" x="367" y="-96.6" font-family="FreeSans" font-size="8.00" fill="#1c2021">name = &#39;Martin Sheen&#39;</text>
</g>
<!-- N1&#45;&gt;N2 -->
<g id="edge2" class="edge"><title>N1&#45;&gt;N2</title>
<path fill="none" stroke="#4e9a06" stroke-width="2" d="M266.9,-171.338C294.86,-158.842 332.826,-141.874 362.259,-128.719"/>
<polygon fill="#4e9a06" stroke="#4e9a06" stroke-width="2" points="369.164,-125.634 363.693,-131.775 365.944,-127.62 362.52,-129.15 362.316,-128.694 362.112,-128.237 365.536,-126.707 360.939,-125.613 369.164,-125.634 369.164,-125.634"/>
<text text-anchor="middle" x="340.5" y="-146.6" font-family="FreeSans" font-size="8.00" fill="#4e9a06">FATHER</text>
</g>
<!-- N2&#45;&gt;N4 -->
<g id="edge5" class="edge"><title>N2&#45;&gt;N4</title>
<path fill="none" stroke="#a40000" stroke-width="2" d="M376.504,-89.3387C359.448,-80.3679 337.701,-69.6871 317.5,-62 287.906,-50.7383 253.709,-41.2449 226.291,-34.4447"/>
<polygon fill="#a40000" stroke="#a40000" stroke-width="2" points="218.747,-32.5989 226.834,-31.1031 222.508,-33.0045 226.151,-33.8957 226.032,-34.3814 225.913,-34.867 222.27,-33.9758 225.23,-37.6597 218.747,-32.5989 218.747,-32.5989"/>
<text text-anchor="middle" x="359" y="-64.6" font-family="FreeSans" font-size="8.00" fill="#a40000">ACTED_IN</text>
</g>
<!-- N3 -->
<g id="node5" class="node"><title>N3</title>
<path fill="#ffffff" stroke="#2e3436" stroke-width="1.5" d="M372,-0.5C372,-0.5 479,-0.5 479,-0.5 485,-0.5 491,-6.5 491,-12.5 491,-12.5 491,-31.5 491,-31.5 491,-37.5 485,-43.5 479,-43.5 479,-43.5 372,-43.5 372,-43.5 366,-43.5 360,-37.5 360,-31.5 360,-31.5 360,-12.5 360,-12.5 360,-6.5 366,-0.5 372,-0.5"/>
<text text-anchor="middle" x="425.5" y="-33.1" font-family="FreeSans" font-size="8.00" fill="#1c2021">Movie</text>
<polyline fill="none" stroke="#2e3436" stroke-width="1.5" points="360,-26.5 491,-26.5 "/>
<text text-anchor="start" x="368" y="-16.1" font-family="FreeSans" font-size="8.00" fill="#1c2021">title = &#39;The American President&#39;</text>
<text text-anchor="start" x="368" y="-7.1" font-family="FreeSans" font-size="8.00" fill="#1c2021">name = &#39;TheAmericanPresident&#39;</text>
</g>
<!-- N2&#45;&gt;N3 -->
<g id="edge4" class="edge"><title>N2&#45;&gt;N3</title>
<path fill="none" stroke="#a40000" stroke-width="2" d="M411.23,-89.1987C413.6,-78.2015 416.724,-63.7098 419.445,-51.0896"/>
<polygon fill="#a40000" stroke="#a40000" stroke-width="2" points="421.076,-43.5216 422.795,-51.5645 420.775,-47.2928 419.984,-50.9586 419.496,-50.8532 419.007,-50.7479 419.797,-47.0821 416.196,-50.142 421.076,-43.5216 421.076,-43.5216"/>
<text text-anchor="middle" x="438" y="-64.6" font-family="FreeSans" font-size="8.00" fill="#a40000">ACTED_IN</text>
</g>
<!-- N5 -->
<g id="node6" class="node"><title>N5</title>
<path fill="#ffffff" stroke="#2e3436" stroke-width="1.5" d="M497.5,-89.5C497.5,-89.5 563.5,-89.5 563.5,-89.5 569.5,-89.5 575.5,-95.5 575.5,-101.5 575.5,-101.5 575.5,-113.5 575.5,-113.5 575.5,-119.5 569.5,-125.5 563.5,-125.5 563.5,-125.5 497.5,-125.5 497.5,-125.5 491.5,-125.5 485.5,-119.5 485.5,-113.5 485.5,-113.5 485.5,-101.5 485.5,-101.5 485.5,-95.5 491.5,-89.5 497.5,-89.5"/>
<text text-anchor="middle" x="530.5" y="-114.6" font-family="FreeSans" font-size="8.00" fill="#1c2021">Person</text>
<polyline fill="none" stroke="#2e3436" stroke-width="1.5" points="485.5,-107.5 575.5,-107.5 "/>
<text text-anchor="start" x="493.5" y="-96.6" font-family="FreeSans" font-size="8.00" fill="#1c2021">name = &#39;Rob Reiner&#39;</text>
</g>
<!-- N5&#45;&gt;N3 -->
<g id="edge6" class="edge"><title>N5&#45;&gt;N3</title>
<path fill="none" stroke="#2e3436" stroke-width="2" d="M508.998,-89.401C494.143,-77.5876 474.129,-61.6717 457.42,-48.3837"/>
<polygon fill="#2e3436" stroke="#2e3436" stroke-width="2" points="451.429,-43.6195 459.4,-45.6461 454.675,-45.5623 457.61,-47.8964 457.299,-48.2877 456.988,-48.679 454.053,-46.345 455.198,-50.9293 451.429,-43.6195 451.429,-43.6195"/>
<text text-anchor="middle" x="506" y="-64.6" font-family="FreeSans" font-size="8.00" fill="#2e3436">DIRECTED</text>
</g>
<!-- N6 -->
<g id="node7" class="node"><title>N6</title>
<path fill="#ffffff" stroke="#2e3436" stroke-width="1.5" d="M233.5,-89.5C233.5,-89.5 317.5,-89.5 317.5,-89.5 323.5,-89.5 329.5,-95.5 329.5,-101.5 329.5,-101.5 329.5,-113.5 329.5,-113.5 329.5,-119.5 323.5,-125.5 317.5,-125.5 317.5,-125.5 233.5,-125.5 233.5,-125.5 227.5,-125.5 221.5,-119.5 221.5,-113.5 221.5,-113.5 221.5,-101.5 221.5,-101.5 221.5,-95.5 227.5,-89.5 233.5,-89.5"/>
<text text-anchor="middle" x="275.5" y="-114.6" font-family="FreeSans" font-size="8.00" fill="#1c2021">Person</text>
<polyline fill="none" stroke="#2e3436" stroke-width="1.5" points="221.5,-107.5 329.5,-107.5 "/>
<text text-anchor="start" x="229.5" y="-96.6" font-family="FreeSans" font-size="8.00" fill="#1c2021">name = &#39;Michael Douglas&#39;</text>
</g>
<!-- N6&#45;&gt;N4 -->
<g id="edge8" class="edge"><title>N6&#45;&gt;N4</title>
<path fill="none" stroke="#a40000" stroke-width="2" d="M225.047,-89.3731C215.444,-84.501 206.05,-78.4386 198.5,-71 192.773,-65.3577 188.283,-58.0067 184.849,-50.76"/>
<polygon fill="#a40000" stroke="#a40000" stroke-width="2" points="181.762,-43.6153 187.835,-49.1611 183.708,-46.8593 185.196,-50.3016 184.737,-50.4999 184.278,-50.6983 182.79,-47.256 181.639,-51.8388 181.762,-43.6153 181.762,-43.6153"/>
<text text-anchor="middle" x="219" y="-64.6" font-family="FreeSans" font-size="8.00" fill="#a40000">ACTED_IN</text>
</g>
<!-- N6&#45;&gt;N3 -->
<g id="edge7" class="edge"><title>N6&#45;&gt;N3</title>
<path fill="none" stroke="#a40000" stroke-width="2" d="M269.765,-89.2506C267.907,-80.2541 267.622,-69.5767 273.5,-62 283.669,-48.8922 318.564,-39.4295 352.358,-33.1102"/>
<polygon fill="#a40000" stroke="#a40000" stroke-width="2" points="359.995,-31.7301 353.215,-36.3851 356.394,-32.889 352.703,-33.5559 352.615,-33.0638 352.526,-32.5718 356.216,-31.905 352.014,-29.7426 359.995,-31.7301 359.995,-31.7301"/>
<text text-anchor="middle" x="294" y="-64.6" font-family="FreeSans" font-size="8.00" fill="#a40000">ACTED_IN</text>
</g>
<!-- N7 -->
<g id="node8" class="node"><title>N7</title>
<path fill="#ffffff" stroke="#2e3436" stroke-width="1.5" d="M621.5,-171.5C621.5,-171.5 687.5,-171.5 687.5,-171.5 693.5,-171.5 699.5,-177.5 699.5,-183.5 699.5,-183.5 699.5,-195.5 699.5,-195.5 699.5,-201.5 693.5,-207.5 687.5,-207.5 687.5,-207.5 621.5,-207.5 621.5,-207.5 615.5,-207.5 609.5,-201.5 609.5,-195.5 609.5,-195.5 609.5,-183.5 609.5,-183.5 609.5,-177.5 615.5,-171.5 621.5,-171.5"/>
<text text-anchor="start" x="617.5" y="-187.6" font-family="FreeSans" font-size="8.00" fill="#1c2021">name = &#39;Rob Reiner&#39;</text>
</g>
<!-- N8 -->
<g id="node9" class="node"><title>N8</title>
<path fill="#ffffff" stroke="#2e3436" stroke-width="1.5" d="M616.5,-89.5C616.5,-89.5 692.5,-89.5 692.5,-89.5 698.5,-89.5 704.5,-95.5 704.5,-101.5 704.5,-101.5 704.5,-113.5 704.5,-113.5 704.5,-119.5 698.5,-125.5 692.5,-125.5 692.5,-125.5 616.5,-125.5 616.5,-125.5 610.5,-125.5 604.5,-119.5 604.5,-113.5 604.5,-113.5 604.5,-101.5 604.5,-101.5 604.5,-95.5 610.5,-89.5 616.5,-89.5"/>
<text text-anchor="start" x="612.5" y="-105.6" font-family="FreeSans" font-size="8.00" fill="#1c2021">name = &#39;Charlie Sheen&#39;</text>
</g>
<!-- N7&#45;&gt;N8 -->
<g id="edge9" class="edge"><title>N7&#45;&gt;N8</title>
<path fill="none" stroke="#204a87" stroke-width="2" d="M654.5,-171.141C654.5,-160.058 654.5,-145.518 654.5,-133.236"/>
<polygon fill="#204a87" stroke="#204a87" stroke-width="2" points="654.5,-125.55 657.875,-133.05 655,-129.3 655,-133.05 654.5,-133.05 654,-133.05 654,-129.3 651.125,-133.05 654.5,-125.55 654.5,-125.55"/>
<text text-anchor="middle" x="711.5" y="-146.6" font-family="FreeSans" font-size="8.00" fill="#204a87">TYPE THAT HAS SPACE IN IT</text>
</g>
</g>
</svg>
