<?xml version="1.0" encoding="UTF-8" standalone="no"?>
<!DOCTYPE svg PUBLIC "-//W3C//DTD SVG 1.1//EN"
 "http://www.w3.org/Graphics/SVG/1.1/DTD/svg11.dtd">
<!-- Generated by graphviz version 2.38.0 (20140413.2041)
 -->
<!-- Title: g Pages: 1 -->
<svg width="504pt" height="299pt"
 viewBox="0.00 0.00 504.00 298.55" xmlns="http://www.w3.org/2000/svg" xmlns:xlink="http://www.w3.org/1999/xlink">
<g id="graph0" class="graph" transform="scale(0.890686 0.890686) rotate(0) translate(4 331.194)">
<title>g</title>
<polygon fill="white" stroke="none" points="-4,4 -4,-331.194 561.856,-331.194 561.856,4 -4,4"/>
<!-- N0 -->
<g id="node1" class="node"><title>N0</title>
<path fill="#ffffff" stroke="#2e3436" stroke-width="1.5" d="M12,-178.49C12,-178.49 52,-178.49 52,-178.49 58,-178.49 64,-184.49 64,-190.49 64,-190.49 64,-202.49 64,-202.49 64,-208.49 58,-214.49 52,-214.49 52,-214.49 12,-214.49 12,-214.49 6,-214.49 1.42109e-14,-208.49 1.42109e-14,-202.49 1.42109e-14,-202.49 1.42109e-14,-190.49 1.42109e-14,-190.49 1.42109e-14,-184.49 6,-178.49 12,-178.49"/>
<text text-anchor="start" x="8" y="-194.59" font-family="FreeSans" font-size="8.00" fill="#1c2021">name = &#39;cats&#39;</text>
</g>
<!-- N1 -->
<g id="node2" class="node"><title>N1</title>
<path fill="#ffffff" stroke="#2e3436" stroke-width="1.5" d="M497.856,-0.5C497.856,-0.5 545.856,-0.5 545.856,-0.5 551.856,-0.5 557.856,-6.5 557.856,-12.5 557.856,-12.5 557.856,-24.5 557.856,-24.5 557.856,-30.5 551.856,-36.5 545.856,-36.5 545.856,-36.5 497.856,-36.5 497.856,-36.5 491.856,-36.5 485.856,-30.5 485.856,-24.5 485.856,-24.5 485.856,-12.5 485.856,-12.5 485.856,-6.5 491.856,-0.5 497.856,-0.5"/>
<text text-anchor="start" x="493.856" y="-16.6" font-family="FreeSans" font-size="8.00" fill="#1c2021">name = &#39;nature&#39;</text>
</g>
<!-- N2 -->
<g id="node3" class="node"><title>N2</title>
<path fill="#ffffff" stroke="#2e3436" stroke-width="1.5" d="M167.475,-244.893C167.475,-244.893 206.475,-244.893 206.475,-244.893 212.475,-244.893 218.475,-250.893 218.475,-256.893 218.475,-256.893 218.475,-268.893 218.475,-268.893 218.475,-274.893 212.475,-280.893 206.475,-280.893 206.475,-280.893 167.475,-280.893 167.475,-280.893 161.475,-280.893 155.475,-274.893 155.475,-268.893 155.475,-268.893 155.475,-256.893 155.475,-256.893 155.475,-250.893 161.475,-244.893 167.475,-244.893"/>
<text text-anchor="start" x="163.475" y="-260.993" font-family="FreeSans" font-size="8.00" fill="#1c2021">name = &#39;Ben&#39;</text>
</g>
<!-- N3 -->
<g id="node4" class="node"><title>N3</title>
<path fill="#ffffff" stroke="#2e3436" stroke-width="1.5" d="M264.449,-213.031C264.449,-213.031 306.449,-213.031 306.449,-213.031 312.449,-213.031 318.449,-219.031 318.449,-225.031 318.449,-225.031 318.449,-237.031 318.449,-237.031 318.449,-243.031 312.449,-249.031 306.449,-249.031 306.449,-249.031 264.449,-249.031 264.449,-249.031 258.449,-249.031 252.449,-243.031 252.449,-237.031 252.449,-237.031 252.449,-225.031 252.449,-225.031 252.449,-219.031 258.449,-213.031 264.449,-213.031"/>
<text text-anchor="start" x="260.449" y="-229.131" font-family="FreeSans" font-size="8.00" fill="#1c2021">name = &#39;Sara&#39;</text>
</g>
<!-- N3&#45;&gt;N0 -->
<g id="edge1" class="edge"><title>N3&#45;&gt;N0</title>
<path fill="none" stroke="#2e3436" stroke-width="2" d="M252.315,-226.515C205.954,-220.197 121.833,-208.733 72.0284,-201.945"/>
<polygon fill="#2e3436" stroke="#2e3436" stroke-width="2" points="64.3408,-200.897 72.2279,-198.566 68.124,-200.908 71.8397,-201.415 71.7721,-201.91 71.7046,-202.405 67.9889,-201.899 71.3163,-205.254 64.3408,-200.897 64.3408,-200.897"/>
<text text-anchor="middle" x="150.672" y="-216.83" font-family="FreeSans" font-size="8.00" fill="#2e3436">LIKES</text>
</g>
<!-- N3&#45;&gt;N2 -->
<g id="edge4" class="edge"><title>N3&#45;&gt;N2</title>
<path fill="none" stroke="#4e9a06" stroke-width="2" d="M252.385,-241.729C243.916,-244.469 234.73,-247.442 225.993,-250.269"/>
<polygon fill="#4e9a06" stroke="#4e9a06" stroke-width="2" points="218.784,-252.601 224.881,-247.081 222.198,-250.971 225.766,-249.817 225.92,-250.292 226.074,-250.768 222.506,-251.922 226.959,-253.503 218.784,-252.601 218.784,-252.601"/>
<text text-anchor="middle" x="228.939" y="-239.599" font-family="FreeSans" font-size="8.00" fill="#4e9a06">FOLLOWS</text>
</g>
<!-- N6 -->
<g id="node5" class="node"><title>N6</title>
<path fill="#ffffff" stroke="#2e3436" stroke-width="1.5" d="M371.566,-290.694C371.566,-290.694 412.566,-290.694 412.566,-290.694 418.566,-290.694 424.566,-296.694 424.566,-302.694 424.566,-302.694 424.566,-314.694 424.566,-314.694 424.566,-320.694 418.566,-326.694 412.566,-326.694 412.566,-326.694 371.566,-326.694 371.566,-326.694 365.566,-326.694 359.566,-320.694 359.566,-314.694 359.566,-314.694 359.566,-302.694 359.566,-302.694 359.566,-296.694 365.566,-290.694 371.566,-290.694"/>
<text text-anchor="start" x="367.566" y="-306.794" font-family="FreeSans" font-size="8.00" fill="#1c2021">name = &#39;cars&#39;</text>
</g>
<!-- N3&#45;&gt;N6 -->
<g id="edge2" class="edge"><title>N3&#45;&gt;N6</title>
<path fill="none" stroke="#2e3436" stroke-width="2" d="M310.177,-249.044C325.274,-260.041 344.713,-274.201 360.863,-285.965"/>
<polygon fill="#2e3436" stroke="#2e3436" stroke-width="2" points="367.103,-290.51 359.053,-288.822 363.777,-288.706 360.746,-286.498 361.041,-286.094 361.335,-285.69 364.366,-287.898 363.028,-283.366 367.103,-290.51 367.103,-290.51"/>
<text text-anchor="middle" x="324.02" y="-270.104" font-family="FreeSans" font-size="8.00" fill="#2e3436">LIKES</text>
</g>
<!-- N4 -->
<g id="node6" class="node"><title>N4</title>
<path fill="#ffffff" stroke="#2e3436" stroke-width="1.5" d="M304.364,-87.6333C304.364,-87.6333 348.364,-87.6333 348.364,-87.6333 354.364,-87.6333 360.364,-93.6333 360.364,-99.6333 360.364,-99.6333 360.364,-111.633 360.364,-111.633 360.364,-117.633 354.364,-123.633 348.364,-123.633 348.364,-123.633 304.364,-123.633 304.364,-123.633 298.364,-123.633 292.364,-117.633 292.364,-111.633 292.364,-111.633 292.364,-99.6333 292.364,-99.6333 292.364,-93.6333 298.364,-87.6333 304.364,-87.6333"/>
<text text-anchor="start" x="300.364" y="-103.733" font-family="FreeSans" font-size="8.00" fill="#1c2021">name = &#39;bikes&#39;</text>
</g>
<!-- N3&#45;&gt;N4 -->
<g id="edge3" class="edge"><title>N3&#45;&gt;N4</title>
<path fill="none" stroke="#2e3436" stroke-width="2" d="M291.398,-212.797C298.398,-191.344 310.066,-155.583 317.981,-131.327"/>
<polygon fill="#2e3436" stroke="#2e3436" stroke-width="2" points="320.407,-123.889 321.29,-132.066 319.72,-127.609 318.556,-131.174 318.081,-131.019 317.606,-130.864 318.769,-127.299 314.872,-129.972 320.407,-123.889 320.407,-123.889"/>
<text text-anchor="middle" x="293.189" y="-174.662" font-family="FreeSans" font-size="8.00" fill="#2e3436">LIKES</text>
</g>
<!-- N7 -->
<g id="node7" class="node"><title>N7</title>
<path fill="#ffffff" stroke="#2e3436" stroke-width="1.5" d="M439.268,-87.7956C439.268,-87.7956 477.268,-87.7956 477.268,-87.7956 483.268,-87.7956 489.268,-93.7956 489.268,-99.7956 489.268,-99.7956 489.268,-111.796 489.268,-111.796 489.268,-117.796 483.268,-123.796 477.268,-123.796 477.268,-123.796 439.268,-123.796 439.268,-123.796 433.268,-123.796 427.268,-117.796 427.268,-111.796 427.268,-111.796 427.268,-99.7956 427.268,-99.7956 427.268,-93.7956 433.268,-87.7956 439.268,-87.7956"/>
<text text-anchor="start" x="435.268" y="-103.896" font-family="FreeSans" font-size="8.00" fill="#1c2021">name = &#39;Joe&#39;</text>
</g>
<!-- N3&#45;&gt;N7 -->
<g id="edge5" class="edge"><title>N3&#45;&gt;N7</title>
<path fill="none" stroke="#4e9a06" stroke-width="2" d="M318.702,-216.859C354.38,-195.265 409.606,-155.03 438.84,-129.153"/>
<polygon fill="#4e9a06" stroke="#4e9a06" stroke-width="2" points="444.667,-123.861 441.384,-131.402 442.227,-126.753 439.451,-129.274 439.115,-128.904 438.779,-128.534 441.555,-126.012 436.846,-126.405 444.667,-123.861 444.667,-123.861"/>
<text text-anchor="middle" x="358.271" y="-175.606" font-family="FreeSans" font-size="8.00" fill="#4e9a06">FOLLOWS</text>
</g>
<!-- N7&#45;&gt;N1 -->
<g id="edge9" class="edge"><title>N7&#45;&gt;N1</title>
<path fill="none" stroke="#2e3436" stroke-width="2" d="M471.443,-87.7079C480.907,-74.7156 493.769,-57.0582 504.133,-42.8309"/>
<polygon fill="#2e3436" stroke="#2e3436" stroke-width="2" points="508.698,-36.5645 507.01,-44.6139 506.894,-39.89 504.686,-42.9211 504.282,-42.6268 503.878,-42.3324 506.085,-39.3013 501.554,-40.6396 508.698,-36.5645 508.698,-36.5645"/>
<text text-anchor="middle" x="476.288" y="-67.8694" font-family="FreeSans" font-size="8.00" fill="#2e3436">LIKES</text>
</g>
<!-- N7&#45;&gt;N3 -->
<g id="edge13" class="edge"><title>N7&#45;&gt;N3</title>
<path fill="none" stroke="#4e9a06" stroke-width="2" d="M427.121,-118.056C391.138,-139.197 333.427,-181.181 303.882,-207.852"/>
<polygon fill="#4e9a06" stroke="#4e9a06" stroke-width="2" points="298.363,-212.971 301.566,-205.396 300.772,-210.054 303.521,-207.504 303.861,-207.87 304.201,-208.237 301.452,-210.787 306.157,-210.345 298.363,-212.971 298.363,-212.971"/>
<text text-anchor="middle" x="345.001" y="-165.554" font-family="FreeSans" font-size="8.00" fill="#4e9a06">FOLLOWS</text>
</g>
<!-- N7&#45;&gt;N4 -->
<g id="edge10" class="edge"><title>N7&#45;&gt;N4</title>
<path fill="none" stroke="#2e3436" stroke-width="2" d="M427.009,-105.757C409.466,-105.736 387.344,-105.708 368.312,-105.685"/>
<polygon fill="#2e3436" stroke="#2e3436" stroke-width="2" points="360.641,-105.675 368.145,-102.31 364.392,-105.18 368.142,-105.185 368.141,-105.685 368.14,-106.185 364.39,-106.18 368.137,-109.06 360.641,-105.675 360.641,-105.675"/>
<text text-anchor="middle" x="386.16" y="-108.321" font-family="FreeSans" font-size="8.00" fill="#2e3436">LIKES</text>
</g>
<!-- N5 -->
<g id="node8" class="node"><title>N5</title>
<path fill="#ffffff" stroke="#2e3436" stroke-width="1.5" d="M476.374,-213.294C476.374,-213.294 521.374,-213.294 521.374,-213.294 527.374,-213.294 533.374,-219.294 533.374,-225.294 533.374,-225.294 533.374,-237.294 533.374,-237.294 533.374,-243.294 527.374,-249.294 521.374,-249.294 521.374,-249.294 476.374,-249.294 476.374,-249.294 470.374,-249.294 464.374,-243.294 464.374,-237.294 464.374,-237.294 464.374,-225.294 464.374,-225.294 464.374,-219.294 470.374,-213.294 476.374,-213.294"/>
<text text-anchor="start" x="472.374" y="-229.394" font-family="FreeSans" font-size="8.00" fill="#1c2021">name = &#39;Maria&#39;</text>
</g>
<!-- N7&#45;&gt;N5 -->
<g id="edge11" class="edge"><title>N7&#45;&gt;N5</title>
<path fill="none" stroke="#4e9a06" stroke-width="2" d="M443.166,-123.975C437.235,-145.966 445.736,-182.004 460.36,-206.41"/>
<polygon fill="#4e9a06" stroke="#4e9a06" stroke-width="2" points="464.64,-212.964 457.713,-208.53 462.171,-210.098 460.12,-206.958 460.539,-206.685 460.957,-206.411 463.008,-209.551 463.364,-204.839 464.64,-212.964 464.64,-212.964"/>
<text text-anchor="middle" x="431.263" y="-167.793" font-family="FreeSans" font-size="8.00" fill="#4e9a06">FOLLOWS</text>
</g>
<!-- N7&#45;&gt;N5 -->
<g id="edge12" class="edge"><title>N7&#45;&gt;N5</title>
<path fill="none" stroke="#a40000" stroke-width="2" d="M489.423,-119.233C507.198,-140.2 519.375,-179.412 515.878,-205.734"/>
<polygon fill="#a40000" stroke="#a40000" stroke-width="2" points="514.375,-213.122 512.563,-205.1 514.633,-209.348 515.381,-205.673 515.871,-205.773 516.361,-205.873 515.613,-209.547 519.178,-206.446 514.375,-213.122 514.375,-213.122"/>
<text text-anchor="middle" x="488.651" y="-165.084" font-family="FreeSans" font-size="8.00" fill="#a40000">LOVES</text>
</g>
<!-- N5&#45;&gt;N6 -->
<g id="edge6" class="edge"><title>N5&#45;&gt;N6</title>
<path fill="none" stroke="#2e3436" stroke-width="2" d="M473.832,-249.441C458.7,-260.407 439.288,-274.474 423.175,-286.15"/>
<polygon fill="#2e3436" stroke="#2e3436" stroke-width="2" points="416.951,-290.661 421.044,-283.527 419.694,-288.055 422.731,-285.855 423.024,-286.26 423.317,-286.664 420.281,-288.865 425.004,-288.992 416.951,-290.661 416.951,-290.661"/>
<text text-anchor="middle" x="437.004" y="-270.395" font-family="FreeSans" font-size="8.00" fill="#2e3436">LIKES</text>
</g>
<!-- N5&#45;&gt;N7 -->
<g id="edge7" class="edge"><title>N5&#45;&gt;N7</title>
<path fill="none" stroke="#4e9a06" stroke-width="2" d="M501.177,-213.271C498.336,-191.596 487.201,-155.222 476.407,-130.841"/>
<polygon fill="#4e9a06" stroke="#4e9a06" stroke-width="2" points="473.229,-123.997 479.449,-129.378 475.262,-127.188 476.841,-130.589 476.388,-130.8 475.934,-131.01 474.355,-127.609 473.327,-132.221 473.229,-123.997 473.229,-123.997"/>
<text text-anchor="middle" x="509.292" y="-174.656" font-family="FreeSans" font-size="8.00" fill="#4e9a06">FOLLOWS</text>
</g>
<!-- N5&#45;&gt;N7 -->
<g id="edge8" class="edge"><title>N5&#45;&gt;N7</title>
<path fill="none" stroke="#a40000" stroke-width="2" d="M484.523,-213.044C474.225,-191.532 462.534,-155.745 457.791,-131.457"/>
<polygon fill="#a40000" stroke="#a40000" stroke-width="2" points="456.506,-124.008 461.107,-130.825 457.636,-127.618 458.274,-131.313 457.781,-131.399 457.289,-131.484 456.651,-127.788 454.455,-131.972 456.506,-124.008 456.506,-124.008"/>
<text text-anchor="middle" x="457.157" y="-174.851" font-family="FreeSans" font-size="8.00" fill="#a40000">LOVES</text>
</g>
</g>
</svg>
