<?xml version="1.0" encoding="UTF-8" standalone="no"?>
<!DOCTYPE svg PUBLIC "-//W3C//DTD SVG 1.1//EN"
 "http://www.w3.org/Graphics/SVG/1.1/DTD/svg11.dtd">
<!-- Generated by graphviz version 2.38.0 (20140413.2041)
 -->
<!-- Title: g Pages: 1 -->
<svg width="147pt" height="127pt"
 viewBox="0.00 0.00 146.50 127.00" xmlns="http://www.w3.org/2000/svg" xmlns:xlink="http://www.w3.org/1999/xlink">
<g id="graph0" class="graph" transform="scale(1 1) rotate(0) translate(4 123)">
<title>g</title>
<polygon fill="white" stroke="none" points="-4,4 -4,-123 142.5,-123 142.5,4 -4,4"/>
<!-- N0 -->
<g id="node1" class="node"><title>N0</title>
<path fill="#ffffff" stroke="#2e3436" stroke-width="1.5" d="M54.5,-82.5C54.5,-82.5 84.5,-82.5 84.5,-82.5 90.5,-82.5 96.5,-88.5 96.5,-94.5 96.5,-94.5 96.5,-106.5 96.5,-106.5 96.5,-112.5 90.5,-118.5 84.5,-118.5 84.5,-118.5 54.5,-118.5 54.5,-118.5 48.5,-118.5 42.5,-112.5 42.5,-106.5 42.5,-106.5 42.5,-94.5 42.5,-94.5 42.5,-88.5 48.5,-82.5 54.5,-82.5"/>
<text text-anchor="middle" x="69.5" y="-107.6" font-family="FreeSans" font-size="8.00" fill="#1c2021">Node[0]</text>
<polyline fill="none" stroke="#2e3436" stroke-width="1.5" points="42.5,-100.5 96.5,-100.5 "/>
<text text-anchor="start" x="50.5" y="-89.6" font-family="FreeSans" font-size="8.00" fill="#1c2021">name = &#39;A&#39;</text>
</g>
<!-- N2 -->
<g id="node2" class="node"><title>N2</title>
<path fill="#ffffff" stroke="#2e3436" stroke-width="1.5" d="M12,-0.5C12,-0.5 43,-0.5 43,-0.5 49,-0.5 55,-6.5 55,-12.5 55,-12.5 55,-24.5 55,-24.5 55,-30.5 49,-36.5 43,-36.5 43,-36.5 12,-36.5 12,-36.5 6,-36.5 0,-30.5 0,-24.5 0,-24.5 0,-12.5 0,-12.5 0,-6.5 6,-0.5 12,-0.5"/>
<text text-anchor="middle" x="27.5" y="-25.6" font-family="FreeSans" font-size="8.00" fill="#1c2021">Node[2]</text>
<polyline fill="none" stroke="#2e3436" stroke-width="1.5" points="0,-18.5 55,-18.5 "/>
<text text-anchor="start" x="8" y="-7.6" font-family="FreeSans" font-size="8.00" fill="#1c2021">name = &#39;C&#39;</text>
</g>
<!-- N0&#45;&gt;N2 -->
<g id="edge1" class="edge"><title>N0&#45;&gt;N2</title>
<path fill="none" stroke="#2e3436" stroke-width="2" d="M56.1372,-82.3581C52.0852,-76.7023 47.83,-70.2546 44.5,-64 41.2037,-57.8086 38.2256,-50.8353 35.7167,-44.2778"/>
<polygon fill="#2e3436" stroke="#2e3436" stroke-width="2" points="32.996,-36.8426 38.7428,-42.7261 34.7542,-40.1925 36.0429,-43.7141 35.5733,-43.8859 35.1038,-44.0577 33.8151,-40.5361 32.4038,-45.0457 32.996,-36.8426 32.996,-36.8426"/>
<text text-anchor="middle" x="60" y="-57.6" font-family="FreeSans" font-size="8.00" fill="#2e3436">KNOWS</text>
</g>
<!-- N1 -->
<g id="node3" class="node"><title>N1</title>
<path fill="#ffffff" stroke="#2e3436" stroke-width="1.5" d="M96.5,-0.5C96.5,-0.5 126.5,-0.5 126.5,-0.5 132.5,-0.5 138.5,-6.5 138.5,-12.5 138.5,-12.5 138.5,-24.5 138.5,-24.5 138.5,-30.5 132.5,-36.5 126.5,-36.5 126.5,-36.5 96.5,-36.5 96.5,-36.5 90.5,-36.5 84.5,-30.5 84.5,-24.5 84.5,-24.5 84.5,-12.5 84.5,-12.5 84.5,-6.5 90.5,-0.5 96.5,-0.5"/>
<text text-anchor="middle" x="111.5" y="-25.6" font-family="FreeSans" font-size="8.00" fill="#1c2021">Node[1]</text>
<polyline fill="none" stroke="#2e3436" stroke-width="1.5" points="84.5,-18.5 138.5,-18.5 "/>
<text text-anchor="start" x="92.5" y="-7.6" font-family="FreeSans" font-size="8.00" fill="#1c2021">name = &#39;B&#39;</text>
</g>
<!-- N0&#45;&gt;N1 -->
<g id="edge2" class="edge"><title>N0&#45;&gt;N1</title>
<path fill="none" stroke="#2e3436" stroke-width="2" d="M78.6134,-82.1412C84.5427,-70.8472 92.3572,-55.9625 98.8808,-43.5365"/>
<polygon fill="#2e3436" stroke="#2e3436" stroke-width="2" points="102.549,-36.5501 102.051,-44.7594 101.248,-40.1028 99.5051,-43.423 99.0624,-43.1906 98.6197,-42.9582 100.363,-39.6379 96.0742,-41.6218 102.549,-36.5501 102.549,-36.5501"/>
<text text-anchor="middle" x="108" y="-57.6" font-family="FreeSans" font-size="8.00" fill="#2e3436">KNOWS</text>
</g>
</g>
</svg>
