<?xml version="1.0" encoding="UTF-8" standalone="no"?>
<!DOCTYPE svg PUBLIC "-//W3C//DTD SVG 1.1//EN"
 "http://www.w3.org/Graphics/SVG/1.1/DTD/svg11.dtd">
<!-- Generated by graphviz version 2.38.0 (20140413.2041)
 -->
<!-- Title: g Pages: 1 -->
<svg width="504pt" height="90pt"
 viewBox="0.00 0.00 504.00 89.85" xmlns="http://www.w3.org/2000/svg" xmlns:xlink="http://www.w3.org/1999/xlink">
<g id="graph0" class="graph" transform="scale(0.429894 0.429894) rotate(0) translate(4 205)">
<title>g</title>
<polygon fill="white" stroke="none" points="-4,4 -4,-205 1168.38,-205 1168.38,4 -4,4"/>
<!-- N0 -->
<g id="node1" class="node"><title>N0</title>
<path fill="#ffffff" stroke="#2e3436" stroke-width="1.5" d="M242.883,-82.5C242.883,-82.5 303.883,-82.5 303.883,-82.5 309.883,-82.5 315.883,-88.5 315.883,-94.5 315.883,-94.5 315.883,-106.5 315.883,-106.5 315.883,-112.5 309.883,-118.5 303.883,-118.5 303.883,-118.5 242.883,-118.5 242.883,-118.5 236.883,-118.5 230.883,-112.5 230.883,-106.5 230.883,-106.5 230.883,-94.5 230.883,-94.5 230.883,-88.5 236.883,-82.5 242.883,-82.5"/>
<text text-anchor="start" x="238.883" y="-98.6" font-family="FreeSans" font-size="8.00" fill="#1c2021">name = &#39;U2G2R34&#39;</text>
</g>
<!-- N12 -->
<g id="node2" class="node"><title>N12</title>
<path fill="#ffffff" stroke="#2e3436" stroke-width="1.5" d="M174.383,-0.5C174.383,-0.5 220.383,-0.5 220.383,-0.5 226.383,-0.5 232.383,-6.5 232.383,-12.5 232.383,-12.5 232.383,-24.5 232.383,-24.5 232.383,-30.5 226.383,-36.5 220.383,-36.5 220.383,-36.5 174.383,-36.5 174.383,-36.5 168.383,-36.5 162.383,-30.5 162.383,-24.5 162.383,-24.5 162.383,-12.5 162.383,-12.5 162.383,-6.5 168.383,-0.5 174.383,-0.5"/>
<text text-anchor="start" x="170.383" y="-16.6" font-family="FreeSans" font-size="8.00" fill="#1c2021">name = &#39;Role3&#39;</text>
</g>
<!-- N0&#45;&gt;N12 -->
<g id="edge1" class="edge"><title>N0&#45;&gt;N12</title>
<path fill="none" stroke="#2e3436" stroke-width="2" d="M230.76,-89.9563C217.098,-84.6649 203.435,-76.5112 195.383,-64 191.713,-58.2976 190.792,-51.2806 191.167,-44.5187"/>
<polygon fill="#2e3436" stroke="#2e3436" stroke-width="2" points="192.116,-36.792 194.551,-44.6475 192.155,-40.575 191.698,-44.2971 191.202,-44.2361 190.705,-44.1752 191.162,-40.4531 187.852,-43.8247 192.116,-36.792 192.116,-36.792"/>
<text text-anchor="middle" x="210.383" y="-57.6" font-family="FreeSans" font-size="8.00" fill="#2e3436">hasRole</text>
</g>
<!-- N6 -->
<g id="node3" class="node"><title>N6</title>
<path fill="#ffffff" stroke="#2e3436" stroke-width="1.5" d="M14.383,-0.5C14.383,-0.5 60.383,-0.5 60.383,-0.5 66.383,-0.5 72.383,-6.5 72.383,-12.5 72.383,-12.5 72.383,-24.5 72.383,-24.5 72.383,-30.5 66.383,-36.5 60.383,-36.5 60.383,-36.5 14.383,-36.5 14.383,-36.5 8.38296,-36.5 2.38296,-30.5 2.38296,-24.5 2.38296,-24.5 2.38296,-12.5 2.38296,-12.5 2.38296,-6.5 8.38296,-0.5 14.383,-0.5"/>
<text text-anchor="start" x="10.383" y="-16.6" font-family="FreeSans" font-size="8.00" fill="#1c2021">name = &#39;Role4&#39;</text>
</g>
<!-- N0&#45;&gt;N6 -->
<g id="edge2" class="edge"><title>N0&#45;&gt;N6</title>
<path fill="none" stroke="#2e3436" stroke-width="2" d="M230.835,-88.9343C220.566,-86.5238 209.605,-84.0663 199.383,-82 152.115,-72.4458 136.347,-83.8161 92.383,-64 80.6254,-58.7005 69.2601,-50.2621 59.9434,-42.1512"/>
<polygon fill="#2e3436" stroke="#2e3436" stroke-width="2" points="54.1332,-36.9047 61.9615,-39.4262 57.2515,-39.0468 60.0348,-41.56 59.6997,-41.9311 59.3646,-42.3022 56.5813,-39.789 57.4378,-44.4361 54.1332,-36.9047 54.1332,-36.9047"/>
<text text-anchor="middle" x="107.383" y="-57.6" font-family="FreeSans" font-size="8.00" fill="#2e3436">hasRole</text>
</g>
<!-- N11 -->
<g id="node4" class="node"><title>N11</title>
<path fill="#ffffff" stroke="#2e3436" stroke-width="1.5" d="M334.383,-0.5C334.383,-0.5 386.383,-0.5 386.383,-0.5 392.383,-0.5 398.383,-6.5 398.383,-12.5 398.383,-12.5 398.383,-24.5 398.383,-24.5 398.383,-30.5 392.383,-36.5 386.383,-36.5 386.383,-36.5 334.383,-36.5 334.383,-36.5 328.383,-36.5 322.383,-30.5 322.383,-24.5 322.383,-24.5 322.383,-12.5 322.383,-12.5 322.383,-6.5 328.383,-0.5 334.383,-0.5"/>
<text text-anchor="start" x="330.383" y="-16.6" font-family="FreeSans" font-size="8.00" fill="#1c2021">name = &#39;Group2&#39;</text>
</g>
<!-- N0&#45;&gt;N11 -->
<g id="edge3" class="edge"><title>N0&#45;&gt;N11</title>
<path fill="none" stroke="#4e9a06" stroke-width="2" d="M292.261,-82.1412C305.117,-70.3194 322.251,-54.5635 336.119,-41.8112"/>
<polygon fill="#4e9a06" stroke="#4e9a06" stroke-width="2" points="341.841,-36.5501 338.605,-44.111 339.419,-39.4564 336.659,-41.9947 336.32,-41.6267 335.982,-41.2586 338.742,-38.7203 334.036,-39.1423 341.841,-36.5501 341.841,-36.5501"/>
<text text-anchor="middle" x="338.383" y="-57.6" font-family="FreeSans" font-size="8.00" fill="#4e9a06">hasGroup</text>
</g>
<!-- N1 -->
<g id="node5" class="node"><title>N1</title>
<path fill="#ffffff" stroke="#2e3436" stroke-width="1.5" d="M111.883,-82.5C111.883,-82.5 172.883,-82.5 172.883,-82.5 178.883,-82.5 184.883,-88.5 184.883,-94.5 184.883,-94.5 184.883,-106.5 184.883,-106.5 184.883,-112.5 178.883,-118.5 172.883,-118.5 172.883,-118.5 111.883,-118.5 111.883,-118.5 105.883,-118.5 99.883,-112.5 99.883,-106.5 99.883,-106.5 99.883,-94.5 99.883,-94.5 99.883,-88.5 105.883,-82.5 111.883,-82.5"/>
<text text-anchor="start" x="107.883" y="-98.6" font-family="FreeSans" font-size="8.00" fill="#1c2021">name = &#39;U1G3R34&#39;</text>
</g>
<!-- N1&#45;&gt;N12 -->
<g id="edge5" class="edge"><title>N1&#45;&gt;N12</title>
<path fill="none" stroke="#2e3436" stroke-width="2" d="M132.22,-82.1075C128.595,-73.4878 126.484,-63.1976 131.383,-55 136.915,-45.7433 145.783,-38.7594 155.247,-33.5469"/>
<polygon fill="#2e3436" stroke="#2e3436" stroke-width="2" points="162.204,-30.0572 157.014,-36.4366 159.077,-32.1854 155.725,-33.8667 155.5,-33.4198 155.276,-32.9728 158.628,-31.2916 153.987,-30.4029 162.204,-30.0572 162.204,-30.0572"/>
<text text-anchor="middle" x="146.383" y="-57.6" font-family="FreeSans" font-size="8.00" fill="#2e3436">hasRole</text>
</g>
<!-- N1&#45;&gt;N6 -->
<g id="edge4" class="edge"><title>N1&#45;&gt;N6</title>
<path fill="none" stroke="#2e3436" stroke-width="2" d="M99.7235,-94.3495C63.3699,-88.9796 15.1852,-79.1953 3.38296,-64 -2.02188,-57.0413 0.660791,-49.4327 6.38227,-42.5065"/>
<polygon fill="#2e3436" stroke="#2e3436" stroke-width="2" points="11.7922,-36.8781 9.02808,-44.6241 9.55401,-39.9282 6.95532,-42.6318 6.59484,-42.2853 6.23436,-41.9388 8.83305,-39.2352 4.1616,-39.9465 11.7922,-36.8781 11.7922,-36.8781"/>
<text text-anchor="middle" x="18.383" y="-57.6" font-family="FreeSans" font-size="8.00" fill="#2e3436">hasRole</text>
</g>
<!-- N13 -->
<g id="node6" class="node"><title>N13</title>
<path fill="#ffffff" stroke="#2e3436" stroke-width="1.5" d="M611.383,-0.5C611.383,-0.5 663.383,-0.5 663.383,-0.5 669.383,-0.5 675.383,-6.5 675.383,-12.5 675.383,-12.5 675.383,-24.5 675.383,-24.5 675.383,-30.5 669.383,-36.5 663.383,-36.5 663.383,-36.5 611.383,-36.5 611.383,-36.5 605.383,-36.5 599.383,-30.5 599.383,-24.5 599.383,-24.5 599.383,-12.5 599.383,-12.5 599.383,-6.5 605.383,-0.5 611.383,-0.5"/>
<text text-anchor="start" x="607.383" y="-16.6" font-family="FreeSans" font-size="8.00" fill="#1c2021">name = &#39;Group3&#39;</text>
</g>
<!-- N1&#45;&gt;N13 -->
<g id="edge6" class="edge"><title>N1&#45;&gt;N13</title>
<path fill="none" stroke="#4e9a06" stroke-width="2" d="M185.215,-88.2586C195.376,-85.9016 206.217,-83.6374 216.383,-82 307.118,-67.3862 331.695,-78.9036 422.383,-64 439.083,-61.2555 442.764,-58.2004 459.383,-55 514.931,-44.3025 530.346,-50.0761 585.383,-37 587.512,-36.4943 589.677,-35.9384 591.855,-35.3455"/>
<polygon fill="#4e9a06" stroke="#4e9a06" stroke-width="2" points="599.276,-33.2058 593.005,-38.5266 595.811,-34.7252 592.208,-35.7641 592.07,-35.2837 591.931,-34.8033 595.534,-33.7643 591.134,-32.0408 599.276,-33.2058 599.276,-33.2058"/>
<text text-anchor="middle" x="477.383" y="-57.6" font-family="FreeSans" font-size="8.00" fill="#4e9a06">hasGroup</text>
</g>
<!-- N2 -->
<g id="node7" class="node"><title>N2</title>
<path fill="#ffffff" stroke="#2e3436" stroke-width="1.5" d="M907.883,-164.5C907.883,-164.5 954.883,-164.5 954.883,-164.5 960.883,-164.5 966.883,-170.5 966.883,-176.5 966.883,-176.5 966.883,-188.5 966.883,-188.5 966.883,-194.5 960.883,-200.5 954.883,-200.5 954.883,-200.5 907.883,-200.5 907.883,-200.5 901.883,-200.5 895.883,-194.5 895.883,-188.5 895.883,-188.5 895.883,-176.5 895.883,-176.5 895.883,-170.5 901.883,-164.5 907.883,-164.5"/>
<text text-anchor="start" x="903.883" y="-180.6" font-family="FreeSans" font-size="8.00" fill="#1c2021">name = &#39;User2&#39;</text>
</g>
<!-- N2&#45;&gt;N0 -->
<g id="edge8" class="edge"><title>N2&#45;&gt;N0</title>
<path fill="none" stroke="#a40000" stroke-width="2" d="M895.671,-175.833C835.653,-166.491 710.687,-147.817 604.383,-137 486.499,-125.004 455.261,-138.495 338.383,-119 333.504,-118.186 328.461,-117.163 323.442,-116.022"/>
<polygon fill="#a40000" stroke="#a40000" stroke-width="2" points="316.128,-114.277 324.206,-112.735 319.892,-114.661 323.539,-115.531 323.423,-116.018 323.307,-116.504 319.659,-115.633 322.64,-119.3 316.128,-114.277 316.128,-114.277"/>
<text text-anchor="middle" x="704.883" y="-139.6" font-family="FreeSans" font-size="8.00" fill="#a40000">hasRoleInGroup</text>
</g>
<!-- N16 -->
<g id="node8" class="node"><title>N16</title>
<path fill="#ffffff" stroke="#2e3436" stroke-width="1.5" d="M1024.88,-82.5C1024.88,-82.5 1085.88,-82.5 1085.88,-82.5 1091.88,-82.5 1097.88,-88.5 1097.88,-94.5 1097.88,-94.5 1097.88,-106.5 1097.88,-106.5 1097.88,-112.5 1091.88,-118.5 1085.88,-118.5 1085.88,-118.5 1024.88,-118.5 1024.88,-118.5 1018.88,-118.5 1012.88,-112.5 1012.88,-106.5 1012.88,-106.5 1012.88,-94.5 1012.88,-94.5 1012.88,-88.5 1018.88,-82.5 1024.88,-82.5"/>
<text text-anchor="start" x="1020.88" y="-98.6" font-family="FreeSans" font-size="8.00" fill="#1c2021">name = &#39;U2G3R56&#39;</text>
</g>
<!-- N2&#45;&gt;N16 -->
<g id="edge7" class="edge"><title>N2&#45;&gt;N16</title>
<path fill="none" stroke="#a40000" stroke-width="2" d="M965.562,-164.461C975.98,-158.912 987.331,-152.499 997.383,-146 1007.96,-139.16 1019.06,-130.934 1028.68,-123.426"/>
<polygon fill="#a40000" stroke="#a40000" stroke-width="2" points="1034.77,-118.617 1030.97,-125.914 1032.13,-121.334 1029.19,-123.658 1028.88,-123.265 1028.57,-122.873 1031.51,-120.549 1026.79,-120.617 1034.77,-118.617 1034.77,-118.617"/>
<text text-anchor="middle" x="1037.88" y="-139.6" font-family="FreeSans" font-size="8.00" fill="#a40000">hasRoleInGroup</text>
</g>
<!-- N8 -->
<g id="node9" class="node"><title>N8</title>
<path fill="#ffffff" stroke="#2e3436" stroke-width="1.5" d="M900.883,-82.5C900.883,-82.5 961.883,-82.5 961.883,-82.5 967.883,-82.5 973.883,-88.5 973.883,-94.5 973.883,-94.5 973.883,-106.5 973.883,-106.5 973.883,-112.5 967.883,-118.5 961.883,-118.5 961.883,-118.5 900.883,-118.5 900.883,-118.5 894.883,-118.5 888.883,-112.5 888.883,-106.5 888.883,-106.5 888.883,-94.5 888.883,-94.5 888.883,-88.5 894.883,-82.5 900.883,-82.5"/>
<text text-anchor="start" x="896.883" y="-98.6" font-family="FreeSans" font-size="8.00" fill="#1c2021">name = &#39;U2G1R25&#39;</text>
</g>
<!-- N2&#45;&gt;N8 -->
<g id="edge9" class="edge"><title>N2&#45;&gt;N8</title>
<path fill="none" stroke="#a40000" stroke-width="2" d="M931.383,-164.141C931.383,-153.058 931.383,-138.518 931.383,-126.236"/>
<polygon fill="#a40000" stroke="#a40000" stroke-width="2" points="931.383,-118.55 934.758,-126.05 931.883,-122.3 931.883,-126.05 931.383,-126.05 930.883,-126.05 930.883,-122.3 928.008,-126.05 931.383,-118.55 931.383,-118.55"/>
<text text-anchor="middle" x="960.883" y="-139.6" font-family="FreeSans" font-size="8.00" fill="#a40000">hasRoleInGroup</text>
</g>
<!-- N16&#45;&gt;N13 -->
<g id="edge24" class="edge"><title>N16&#45;&gt;N13</title>
<path fill="none" stroke="#4e9a06" stroke-width="2" d="M1012.66,-87.5757C1004.63,-85.5528 996.278,-83.5943 988.383,-82 933.365,-70.8901 918.583,-74.1682 863.383,-64 845.462,-60.6989 841.318,-58.225 823.383,-55 764.675,-44.4431 748.506,-50.4083 690.383,-37 687.975,-36.4446 685.521,-35.8262 683.054,-35.1628"/>
<polygon fill="#4e9a06" stroke="#4e9a06" stroke-width="2" points="675.647,-33.0561 683.784,-31.8616 679.391,-33.6011 682.998,-34.627 682.861,-35.1079 682.724,-35.5888 679.117,-34.5629 681.938,-38.3541 675.647,-33.0561 675.647,-33.0561"/>
<text text-anchor="middle" x="881.383" y="-57.6" font-family="FreeSans" font-size="8.00" fill="#4e9a06">hasGroup</text>
</g>
<!-- N4 -->
<g id="node13" class="node"><title>N4</title>
<path fill="#ffffff" stroke="#2e3436" stroke-width="1.5" d="M1106.38,-0.5C1106.38,-0.5 1152.38,-0.5 1152.38,-0.5 1158.38,-0.5 1164.38,-6.5 1164.38,-12.5 1164.38,-12.5 1164.38,-24.5 1164.38,-24.5 1164.38,-30.5 1158.38,-36.5 1152.38,-36.5 1152.38,-36.5 1106.38,-36.5 1106.38,-36.5 1100.38,-36.5 1094.38,-30.5 1094.38,-24.5 1094.38,-24.5 1094.38,-12.5 1094.38,-12.5 1094.38,-6.5 1100.38,-0.5 1106.38,-0.5"/>
<text text-anchor="start" x="1102.38" y="-16.6" font-family="FreeSans" font-size="8.00" fill="#1c2021">name = &#39;Role6&#39;</text>
</g>
<!-- N16&#45;&gt;N4 -->
<g id="edge23" class="edge"><title>N16&#45;&gt;N4</title>
<path fill="none" stroke="#2e3436" stroke-width="2" d="M1071.44,-82.1412C1082.28,-70.425 1096.69,-54.8446 1108.43,-42.1535"/>
<polygon fill="#2e3436" stroke="#2e3436" stroke-width="2" points="1113.61,-36.5501 1111,-44.3477 1111.43,-39.6425 1108.89,-42.3954 1108.52,-42.0559 1108.15,-41.7163 1110.7,-38.9635 1106.04,-39.7641 1113.61,-36.5501 1113.61,-36.5501"/>
<text text-anchor="middle" x="1109.38" y="-57.6" font-family="FreeSans" font-size="8.00" fill="#2e3436">hasRole</text>
</g>
<!-- N7 -->
<g id="node15" class="node"><title>N7</title>
<path fill="#ffffff" stroke="#2e3436" stroke-width="1.5" d="M992.383,-0.5C992.383,-0.5 1038.38,-0.5 1038.38,-0.5 1044.38,-0.5 1050.38,-6.5 1050.38,-12.5 1050.38,-12.5 1050.38,-24.5 1050.38,-24.5 1050.38,-30.5 1044.38,-36.5 1038.38,-36.5 1038.38,-36.5 992.383,-36.5 992.383,-36.5 986.383,-36.5 980.383,-30.5 980.383,-24.5 980.383,-24.5 980.383,-12.5 980.383,-12.5 980.383,-6.5 986.383,-0.5 992.383,-0.5"/>
<text text-anchor="start" x="988.383" y="-16.6" font-family="FreeSans" font-size="8.00" fill="#1c2021">name = &#39;Role5&#39;</text>
</g>
<!-- N16&#45;&gt;N7 -->
<g id="edge22" class="edge"><title>N16&#45;&gt;N7</title>
<path fill="none" stroke="#2e3436" stroke-width="2" d="M1046.7,-82.1412C1041.06,-70.8472 1033.61,-55.9625 1027.4,-43.5365"/>
<polygon fill="#2e3436" stroke="#2e3436" stroke-width="2" points="1023.91,-36.5501 1030.28,-41.7489 1026.03,-39.6806 1027.71,-43.0347 1027.26,-43.2583 1026.81,-43.4819 1025.14,-40.1278 1024.24,-44.7677 1023.91,-36.5501 1023.91,-36.5501"/>
<text text-anchor="middle" x="1051.38" y="-57.6" font-family="FreeSans" font-size="8.00" fill="#2e3436">hasRole</text>
</g>
<!-- N10 -->
<g id="node14" class="node"><title>N10</title>
<path fill="#ffffff" stroke="#2e3436" stroke-width="1.5" d="M512.383,-0.5C512.383,-0.5 558.383,-0.5 558.383,-0.5 564.383,-0.5 570.383,-6.5 570.383,-12.5 570.383,-12.5 570.383,-24.5 570.383,-24.5 570.383,-30.5 564.383,-36.5 558.383,-36.5 558.383,-36.5 512.383,-36.5 512.383,-36.5 506.383,-36.5 500.383,-30.5 500.383,-24.5 500.383,-24.5 500.383,-12.5 500.383,-12.5 500.383,-6.5 506.383,-0.5 512.383,-0.5"/>
<text text-anchor="start" x="508.383" y="-16.6" font-family="FreeSans" font-size="8.00" fill="#1c2021">name = &#39;Role2&#39;</text>
</g>
<!-- N8&#45;&gt;N10 -->
<g id="edge17" class="edge"><title>N8&#45;&gt;N10</title>
<path fill="none" stroke="#2e3436" stroke-width="2" d="M888.794,-96.6606C835.163,-92.4571 740.465,-82.9437 661.383,-64 645.196,-60.1225 607.567,-46.6102 577.62,-35.4826"/>
<polygon fill="#2e3436" stroke="#2e3436" stroke-width="2" points="570.58,-32.8585 578.787,-32.3159 574.269,-33.6999 577.783,-35.0098 577.608,-35.4783 577.433,-35.9468 573.919,-34.6369 576.429,-38.6407 570.58,-32.8585 570.58,-32.8585"/>
<text text-anchor="middle" x="676.383" y="-57.6" font-family="FreeSans" font-size="8.00" fill="#2e3436">hasRole</text>
</g>
<!-- N8&#45;&gt;N7 -->
<g id="edge16" class="edge"><title>N8&#45;&gt;N7</title>
<path fill="none" stroke="#2e3436" stroke-width="2" d="M949.61,-82.1412C962.023,-70.3194 978.566,-54.5635 991.956,-41.8112"/>
<polygon fill="#2e3436" stroke="#2e3436" stroke-width="2" points="997.48,-36.5501 994.377,-44.1665 995.11,-39.4984 992.394,-42.0846 992.049,-41.7225 991.704,-41.3605 994.42,-38.7742 989.722,-39.2786 997.48,-36.5501 997.48,-36.5501"/>
<text text-anchor="middle" x="990.383" y="-57.6" font-family="FreeSans" font-size="8.00" fill="#2e3436">hasRole</text>
</g>
<!-- N9 -->
<g id="node16" class="node"><title>N9</title>
<path fill="#ffffff" stroke="#2e3436" stroke-width="1.5" d="M858.383,-0.5C858.383,-0.5 910.383,-0.5 910.383,-0.5 916.383,-0.5 922.383,-6.5 922.383,-12.5 922.383,-12.5 922.383,-24.5 922.383,-24.5 922.383,-30.5 916.383,-36.5 910.383,-36.5 910.383,-36.5 858.383,-36.5 858.383,-36.5 852.383,-36.5 846.383,-30.5 846.383,-24.5 846.383,-24.5 846.383,-12.5 846.383,-12.5 846.383,-6.5 852.383,-0.5 858.383,-0.5"/>
<text text-anchor="start" x="854.383" y="-16.6" font-family="FreeSans" font-size="8.00" fill="#1c2021">name = &#39;Group1&#39;</text>
</g>
<!-- N8&#45;&gt;N9 -->
<g id="edge18" class="edge"><title>N8&#45;&gt;N9</title>
<path fill="none" stroke="#4e9a06" stroke-width="2" d="M921.185,-82.1412C914.487,-70.7416 905.641,-55.6839 898.3,-43.1887"/>
<polygon fill="#4e9a06" stroke="#4e9a06" stroke-width="2" points="894.4,-36.5501 901.109,-41.3071 896.731,-39.5301 898.63,-42.7634 898.199,-43.0167 897.768,-43.27 895.868,-40.0367 895.289,-44.7263 894.4,-36.5501 894.4,-36.5501"/>
<text text-anchor="middle" x="926.383" y="-57.6" font-family="FreeSans" font-size="8.00" fill="#4e9a06">hasGroup</text>
</g>
<!-- N3 -->
<g id="node10" class="node"><title>N3</title>
<path fill="#ffffff" stroke="#2e3436" stroke-width="1.5" d="M371.883,-164.5C371.883,-164.5 418.883,-164.5 418.883,-164.5 424.883,-164.5 430.883,-170.5 430.883,-176.5 430.883,-176.5 430.883,-188.5 430.883,-188.5 430.883,-194.5 424.883,-200.5 418.883,-200.5 418.883,-200.5 371.883,-200.5 371.883,-200.5 365.883,-200.5 359.883,-194.5 359.883,-188.5 359.883,-188.5 359.883,-176.5 359.883,-176.5 359.883,-170.5 365.883,-164.5 371.883,-164.5"/>
<text text-anchor="start" x="367.883" y="-180.6" font-family="FreeSans" font-size="8.00" fill="#1c2021">name = &#39;User1&#39;</text>
</g>
<!-- N3&#45;&gt;N1 -->
<g id="edge10" class="edge"><title>N3&#45;&gt;N1</title>
<path fill="none" stroke="#a40000" stroke-width="2" d="M359.671,-170.208C316.009,-156.402 241.85,-132.952 192.494,-117.345"/>
<polygon fill="#a40000" stroke="#a40000" stroke-width="2" points="185.096,-115.006 193.265,-114.05 188.823,-115.66 192.398,-116.791 192.247,-117.267 192.097,-117.744 188.521,-116.614 191.23,-120.485 185.096,-115.006 185.096,-115.006"/>
<text text-anchor="middle" x="306.883" y="-139.6" font-family="FreeSans" font-size="8.00" fill="#a40000">hasRoleInGroup</text>
</g>
<!-- N5 -->
<g id="node11" class="node"><title>N5</title>
<path fill="#ffffff" stroke="#2e3436" stroke-width="1.5" d="M364.883,-82.5C364.883,-82.5 425.883,-82.5 425.883,-82.5 431.883,-82.5 437.883,-88.5 437.883,-94.5 437.883,-94.5 437.883,-106.5 437.883,-106.5 437.883,-112.5 431.883,-118.5 425.883,-118.5 425.883,-118.5 364.883,-118.5 364.883,-118.5 358.883,-118.5 352.883,-112.5 352.883,-106.5 352.883,-106.5 352.883,-94.5 352.883,-94.5 352.883,-88.5 358.883,-82.5 364.883,-82.5"/>
<text text-anchor="start" x="360.883" y="-98.6" font-family="FreeSans" font-size="8.00" fill="#1c2021">name = &#39;U1G2R23&#39;</text>
</g>
<!-- N3&#45;&gt;N5 -->
<g id="edge11" class="edge"><title>N3&#45;&gt;N5</title>
<path fill="none" stroke="#a40000" stroke-width="2" d="M395.383,-164.141C395.383,-153.058 395.383,-138.518 395.383,-126.236"/>
<polygon fill="#a40000" stroke="#a40000" stroke-width="2" points="395.383,-118.55 398.758,-126.05 395.883,-122.3 395.883,-126.05 395.383,-126.05 394.883,-126.05 394.883,-122.3 392.008,-126.05 395.383,-118.55 395.383,-118.55"/>
<text text-anchor="middle" x="424.883" y="-139.6" font-family="FreeSans" font-size="8.00" fill="#a40000">hasRoleInGroup</text>
</g>
<!-- N14 -->
<g id="node12" class="node"><title>N14</title>
<path fill="#ffffff" stroke="#2e3436" stroke-width="1.5" d="M632.883,-82.5C632.883,-82.5 693.883,-82.5 693.883,-82.5 699.883,-82.5 705.883,-88.5 705.883,-94.5 705.883,-94.5 705.883,-106.5 705.883,-106.5 705.883,-112.5 699.883,-118.5 693.883,-118.5 693.883,-118.5 632.883,-118.5 632.883,-118.5 626.883,-118.5 620.883,-112.5 620.883,-106.5 620.883,-106.5 620.883,-94.5 620.883,-94.5 620.883,-88.5 626.883,-82.5 632.883,-82.5"/>
<text text-anchor="start" x="628.883" y="-98.6" font-family="FreeSans" font-size="8.00" fill="#1c2021">name = &#39;U1G1R12&#39;</text>
</g>
<!-- N3&#45;&gt;N14 -->
<g id="edge12" class="edge"><title>N3&#45;&gt;N14</title>
<path fill="none" stroke="#a40000" stroke-width="2" d="M430.971,-170.877C477.752,-156.912 560.195,-132.302 613.269,-116.459"/>
<polygon fill="#a40000" stroke="#a40000" stroke-width="2" points="620.556,-114.284 614.335,-119.663 617.106,-115.836 613.513,-116.909 613.37,-116.429 613.227,-115.95 616.82,-114.878 612.404,-113.195 620.556,-114.284 620.556,-114.284"/>
<text text-anchor="middle" x="567.883" y="-139.6" font-family="FreeSans" font-size="8.00" fill="#a40000">hasRoleInGroup</text>
</g>
<!-- N5&#45;&gt;N12 -->
<g id="edge13" class="edge"><title>N5&#45;&gt;N12</title>
<path fill="none" stroke="#2e3436" stroke-width="2" d="M352.852,-87.7452C324.931,-79.8292 291.127,-69.8098 277.383,-64 261.783,-57.4059 245.309,-48.5909 231.391,-40.5465"/>
<polygon fill="#2e3436" stroke="#2e3436" stroke-width="2" points="224.779,-36.6725 232.956,-37.552 228.267,-38.1368 231.503,-40.0326 231.25,-40.464 230.997,-40.8954 227.762,-38.9996 229.544,-43.376 224.779,-36.6725 224.779,-36.6725"/>
<text text-anchor="middle" x="292.383" y="-57.6" font-family="FreeSans" font-size="8.00" fill="#2e3436">hasRole</text>
</g>
<!-- N5&#45;&gt;N11 -->
<g id="edge15" class="edge"><title>N5&#45;&gt;N11</title>
<path fill="none" stroke="#4e9a06" stroke-width="2" d="M387.788,-82.1412C382.847,-70.8472 376.335,-55.9625 370.899,-43.5365"/>
<polygon fill="#4e9a06" stroke="#4e9a06" stroke-width="2" points="367.842,-36.5501 373.941,-42.0685 369.804,-39.7853 371.307,-43.2209 370.849,-43.4213 370.391,-43.6217 368.887,-40.1861 367.757,-44.7741 367.842,-36.5501 367.842,-36.5501"/>
<text text-anchor="middle" x="397.383" y="-57.6" font-family="FreeSans" font-size="8.00" fill="#4e9a06">hasGroup</text>
</g>
<!-- N5&#45;&gt;N10 -->
<g id="edge14" class="edge"><title>N5&#45;&gt;N10</title>
<path fill="none" stroke="#2e3436" stroke-width="2" d="M438.045,-91.6811C458.863,-86.3597 483.437,-77.7136 502.383,-64 509.899,-58.5596 516.437,-50.9004 521.666,-43.4671"/>
<polygon fill="#2e3436" stroke="#2e3436" stroke-width="2" points="526.091,-36.7743 524.77,-44.8919 524.44,-40.1782 522.372,-43.3063 521.955,-43.0305 521.538,-42.7548 523.606,-39.6266 519.139,-41.1691 526.091,-36.7743 526.091,-36.7743"/>
<text text-anchor="middle" x="527.383" y="-57.6" font-family="FreeSans" font-size="8.00" fill="#2e3436">hasRole</text>
</g>
<!-- N14&#45;&gt;N10 -->
<g id="edge19" class="edge"><title>N14&#45;&gt;N10</title>
<path fill="none" stroke="#2e3436" stroke-width="2" d="M629.669,-82.4435C619.164,-76.8439 607.647,-70.4069 597.383,-64 586.214,-57.0283 574.373,-48.7636 564.066,-41.2603"/>
<polygon fill="#2e3436" stroke="#2e3436" stroke-width="2" points="557.866,-36.7053 565.908,-38.426 561.184,-38.5226 564.206,-40.7429 563.91,-41.1459 563.614,-41.5488 560.592,-39.3285 561.912,-43.8657 557.866,-36.7053 557.866,-36.7053"/>
<text text-anchor="middle" x="612.383" y="-57.6" font-family="FreeSans" font-size="8.00" fill="#2e3436">hasRole</text>
</g>
<!-- N14&#45;&gt;N9 -->
<g id="edge21" class="edge"><title>N14&#45;&gt;N9</title>
<path fill="none" stroke="#4e9a06" stroke-width="2" d="M705.994,-84.0752C744.252,-70.2261 800.237,-49.9601 839.25,-35.8378"/>
<polygon fill="#4e9a06" stroke="#4e9a06" stroke-width="2" points="846.329,-33.2752 840.425,-39.0016 842.973,-35.0218 839.447,-36.2983 839.277,-35.8281 839.106,-35.358 842.633,-34.0815 838.128,-32.6547 846.329,-33.2752 846.329,-33.2752"/>
<text text-anchor="middle" x="798.383" y="-57.6" font-family="FreeSans" font-size="8.00" fill="#4e9a06">hasGroup</text>
</g>
<!-- N15 -->
<g id="node17" class="node"><title>N15</title>
<path fill="#ffffff" stroke="#2e3436" stroke-width="1.5" d="M716.383,-0.5C716.383,-0.5 762.383,-0.5 762.383,-0.5 768.383,-0.5 774.383,-6.5 774.383,-12.5 774.383,-12.5 774.383,-24.5 774.383,-24.5 774.383,-30.5 768.383,-36.5 762.383,-36.5 762.383,-36.5 716.383,-36.5 716.383,-36.5 710.383,-36.5 704.383,-30.5 704.383,-24.5 704.383,-24.5 704.383,-12.5 704.383,-12.5 704.383,-6.5 710.383,-0.5 716.383,-0.5"/>
<text text-anchor="start" x="712.383" y="-16.6" font-family="FreeSans" font-size="8.00" fill="#1c2021">name = &#39;Role1&#39;</text>
</g>
<!-- N14&#45;&gt;N15 -->
<g id="edge20" class="edge"><title>N14&#45;&gt;N15</title>
<path fill="none" stroke="#2e3436" stroke-width="2" d="M679.874,-82.1412C691.004,-70.425 705.806,-54.8446 717.862,-42.1535"/>
<polygon fill="#2e3436" stroke="#2e3436" stroke-width="2" points="723.185,-36.5501 720.467,-44.3122 720.965,-39.6132 718.382,-42.332 718.02,-41.9876 717.657,-41.6432 720.24,-38.9245 715.573,-39.6631 723.185,-36.5501 723.185,-36.5501"/>
<text text-anchor="middle" x="718.383" y="-57.6" font-family="FreeSans" font-size="8.00" fill="#2e3436">hasRole</text>
</g>
</g>
</svg>
