<?xml version="1.0" encoding="UTF-8" standalone="no"?>
<!DOCTYPE svg PUBLIC "-//W3C//DTD SVG 1.1//EN"
 "http://www.w3.org/Graphics/SVG/1.1/DTD/svg11.dtd">
<!-- Generated by graphviz version 2.38.0 (20140413.2041)
 -->
<!-- Title: g Pages: 1 -->
<svg width="281pt" height="143pt"
 viewBox="0.00 0.00 281.00 143.00" xmlns="http://www.w3.org/2000/svg" xmlns:xlink="http://www.w3.org/1999/xlink">
<g id="graph0" class="graph" transform="scale(1 1) rotate(0) translate(4 139)">
<title>g</title>
<polygon fill="white" stroke="none" points="-4,4 -4,-139 277,-139 277,4 -4,4"/>
<!-- N0 -->
<g id="node1" class="node"><title>N0</title>
<path fill="#ffffff" stroke="#2e3436" stroke-width="1.5" d="M12,-0.5C12,-0.5 101,-0.5 101,-0.5 107,-0.5 113,-6.5 113,-12.5 113,-12.5 113,-24.5 113,-24.5 113,-30.5 107,-36.5 101,-36.5 101,-36.5 12,-36.5 12,-36.5 6,-36.5 0,-30.5 0,-24.5 0,-24.5 0,-12.5 0,-12.5 0,-6.5 6,-0.5 12,-0.5"/>
<text text-anchor="start" x="8" y="-25.6" font-family="FreeSans" font-size="8.00" fill="#1c2021">address = &#39;Sweden/Malmo&#39;</text>
<text text-anchor="start" x="8" y="-16.6" font-family="FreeSans" font-size="8.00" fill="#1c2021">name = &#39;Tobias&#39;</text>
<text text-anchor="start" x="8" y="-7.6" font-family="FreeSans" font-size="8.00" fill="#1c2021">age = 25</text>
</g>
<!-- N1 -->
<g id="node2" class="node"><title>N1</title>
<path fill="#ffffff" stroke="#2e3436" stroke-width="1.5" d="M154,-0.5C154,-0.5 261,-0.5 261,-0.5 267,-0.5 273,-6.5 273,-12.5 273,-12.5 273,-24.5 273,-24.5 273,-30.5 267,-36.5 261,-36.5 261,-36.5 154,-36.5 154,-36.5 148,-36.5 142,-30.5 142,-24.5 142,-24.5 142,-12.5 142,-12.5 142,-6.5 148,-0.5 154,-0.5"/>
<text text-anchor="start" x="150" y="-25.6" font-family="FreeSans" font-size="8.00" fill="#1c2021">email = &#39;peter_n@example.com&#39;</text>
<text text-anchor="start" x="150" y="-16.6" font-family="FreeSans" font-size="8.00" fill="#1c2021">name = &#39;Peter&#39;</text>
<text text-anchor="start" x="150" y="-7.6" font-family="FreeSans" font-size="8.00" fill="#1c2021">age = 34</text>
</g>
<!-- N2 -->
<g id="node3" class="node"><title>N2</title>
<path fill="#ffffff" stroke="#2e3436" stroke-width="1.5" d="M106.5,-82.5C106.5,-82.5 156.5,-82.5 156.5,-82.5 162.5,-82.5 168.5,-88.5 168.5,-94.5 168.5,-94.5 168.5,-122.5 168.5,-122.5 168.5,-128.5 162.5,-134.5 156.5,-134.5 156.5,-134.5 106.5,-134.5 106.5,-134.5 100.5,-134.5 94.5,-128.5 94.5,-122.5 94.5,-122.5 94.5,-94.5 94.5,-94.5 94.5,-88.5 100.5,-82.5 106.5,-82.5"/>
<text text-anchor="middle" x="131.5" y="-124.1" font-family="FreeSans" font-size="8.00" fill="#1c2021">Swedish</text>
<polyline fill="none" stroke="#2e3436" stroke-width="1.5" points="94.5,-117.5 168.5,-117.5 "/>
<text text-anchor="start" x="102.5" y="-107.1" font-family="FreeSans" font-size="8.00" fill="#1c2021">name = &#39;Andres&#39;</text>
<text text-anchor="start" x="102.5" y="-98.1" font-family="FreeSans" font-size="8.00" fill="#1c2021">age = 36</text>
<text text-anchor="start" x="102.5" y="-89.1" font-family="FreeSans" font-size="8.00" fill="#1c2021">belt = &#39;white&#39;</text>
</g>
<!-- N2&#45;&gt;N0 -->
<g id="edge2" class="edge"><title>N2&#45;&gt;N0</title>
<path fill="none" stroke="#2e3436" stroke-width="2" d="M109.807,-82.0468C99.0994,-69.4834 86.2875,-54.4507 75.9077,-42.2717"/>
<polygon fill="#2e3436" stroke="#2e3436" stroke-width="2" points="71.0274,-36.5455 78.461,-40.0645 73.8404,-39.0753 76.2729,-41.9294 75.8924,-42.2537 75.5118,-42.578 73.0794,-39.7239 73.3237,-44.4429 71.0274,-36.5455 71.0274,-36.5455"/>
<text text-anchor="middle" x="110" y="-57.6" font-family="FreeSans" font-size="8.00" fill="#2e3436">KNOWS</text>
</g>
<!-- N2&#45;&gt;N1 -->
<g id="edge1" class="edge"><title>N2&#45;&gt;N1</title>
<path fill="none" stroke="#2e3436" stroke-width="2" d="M153.482,-82.0468C164.333,-69.4834 177.315,-54.4507 187.834,-42.2717"/>
<polygon fill="#2e3436" stroke="#2e3436" stroke-width="2" points="192.779,-36.5455 190.431,-44.4277 190.706,-39.7104 188.255,-42.5485 187.877,-42.2217 187.498,-41.8949 189.949,-39.0568 185.322,-40.0157 192.779,-36.5455 192.779,-36.5455"/>
<text text-anchor="middle" x="191" y="-57.6" font-family="FreeSans" font-size="8.00" fill="#2e3436">KNOWS</text>
</g>
</g>
</svg>
