<?xml version="1.0" encoding="UTF-8" standalone="no"?>
<!DOCTYPE svg PUBLIC "-//W3C//DTD SVG 1.1//EN"
 "http://www.w3.org/Graphics/SVG/1.1/DTD/svg11.dtd">
<!-- Generated by graphviz version 2.38.0 (20140413.2041)
 -->
<!-- Title: g Pages: 1 -->
<svg width="400pt" height="209pt"
 viewBox="0.00 0.00 399.87 209.00" xmlns="http://www.w3.org/2000/svg" xmlns:xlink="http://www.w3.org/1999/xlink">
<g id="graph0" class="graph" transform="scale(1 1) rotate(0) translate(4 205)">
<title>g</title>
<polygon fill="white" stroke="none" points="-4,4 -4,-205 395.875,-205 395.875,4 -4,4"/>
<!-- N0 -->
<g id="node1" class="node"><title>N0</title>
<path fill="#ffffff" stroke="#2e3436" stroke-width="1.5" d="M165.875,-82.5C165.875,-82.5 207.875,-82.5 207.875,-82.5 213.875,-82.5 219.875,-88.5 219.875,-94.5 219.875,-94.5 219.875,-106.5 219.875,-106.5 219.875,-112.5 213.875,-118.5 207.875,-118.5 207.875,-118.5 165.875,-118.5 165.875,-118.5 159.875,-118.5 153.875,-112.5 153.875,-106.5 153.875,-106.5 153.875,-94.5 153.875,-94.5 153.875,-88.5 159.875,-82.5 165.875,-82.5"/>
<text text-anchor="start" x="161.875" y="-98.6" font-family="FreeSans" font-size="8.00" fill="#1c2021">name = &#39;Sara&#39;</text>
</g>
<!-- N3 -->
<g id="node2" class="node"><title>N3</title>
<path fill="#ffffff" stroke="#2e3436" stroke-width="1.5" d="M231.875,-0.5C231.875,-0.5 275.875,-0.5 275.875,-0.5 281.875,-0.5 287.875,-6.5 287.875,-12.5 287.875,-12.5 287.875,-24.5 287.875,-24.5 287.875,-30.5 281.875,-36.5 275.875,-36.5 275.875,-36.5 231.875,-36.5 231.875,-36.5 225.875,-36.5 219.875,-30.5 219.875,-24.5 219.875,-24.5 219.875,-12.5 219.875,-12.5 219.875,-6.5 225.875,-0.5 231.875,-0.5"/>
<text text-anchor="start" x="227.875" y="-16.6" font-family="FreeSans" font-size="8.00" fill="#1c2021">name = &#39;Bikes&#39;</text>
</g>
<!-- N0&#45;&gt;N3 -->
<g id="edge1" class="edge"><title>N0&#45;&gt;N3</title>
<path fill="none" stroke="#2e3436" stroke-width="2" d="M201.413,-82.1412C211.137,-70.5305 224.039,-55.125 234.615,-42.4972"/>
<polygon fill="#2e3436" stroke="#2e3436" stroke-width="2" points="239.595,-36.5501 237.367,-44.467 237.571,-39.7461 235.163,-42.621 234.78,-42.3 234.397,-41.9789 236.804,-39.104 232.192,-40.133 239.595,-36.5501 239.595,-36.5501"/>
<text text-anchor="middle" x="236.375" y="-57.6" font-family="FreeSans" font-size="8.00" fill="#2e3436">favorite</text>
</g>
<!-- N1 -->
<g id="node3" class="node"><title>N1</title>
<path fill="#ffffff" stroke="#2e3436" stroke-width="1.5" d="M27.3749,-0.5C27.3749,-0.5 68.3749,-0.5 68.3749,-0.5 74.3749,-0.5 80.3749,-6.5 80.3749,-12.5 80.3749,-12.5 80.3749,-24.5 80.3749,-24.5 80.3749,-30.5 74.3749,-36.5 68.3749,-36.5 68.3749,-36.5 27.3749,-36.5 27.3749,-36.5 21.3749,-36.5 15.3749,-30.5 15.3749,-24.5 15.3749,-24.5 15.3749,-12.5 15.3749,-12.5 15.3749,-6.5 21.3749,-0.5 27.3749,-0.5"/>
<text text-anchor="start" x="23.3749" y="-16.6" font-family="FreeSans" font-size="8.00" fill="#1c2021">name = &#39;Cats&#39;</text>
</g>
<!-- N0&#45;&gt;N1 -->
<g id="edge2" class="edge"><title>N0&#45;&gt;N1</title>
<path fill="none" stroke="#2e3436" stroke-width="2" d="M170.481,-82.248C161.248,-73.2506 149.134,-62.5734 136.875,-55 121.657,-45.5983 103.52,-37.8314 87.6022,-31.9847"/>
<polygon fill="#2e3436" stroke="#2e3436" stroke-width="2" points="80.4631,-29.4345 88.6614,-28.7792 84.1627,-30.2251 87.6942,-31.4866 87.526,-31.9575 87.3578,-32.4283 83.8263,-31.1668 86.3906,-35.1358 80.4631,-29.4345 80.4631,-29.4345"/>
<text text-anchor="middle" x="163.375" y="-57.6" font-family="FreeSans" font-size="8.00" fill="#2e3436">favorite</text>
</g>
<!-- N2 -->
<g id="node4" class="node"><title>N2</title>
<path fill="#ffffff" stroke="#2e3436" stroke-width="1.5" d="M60.8749,-82.5C60.8749,-82.5 112.875,-82.5 112.875,-82.5 118.875,-82.5 124.875,-88.5 124.875,-94.5 124.875,-94.5 124.875,-106.5 124.875,-106.5 124.875,-112.5 118.875,-118.5 112.875,-118.5 112.875,-118.5 60.8749,-118.5 60.8749,-118.5 54.8749,-118.5 48.8749,-112.5 48.8749,-106.5 48.8749,-106.5 48.8749,-94.5 48.8749,-94.5 48.8749,-88.5 54.8749,-82.5 60.8749,-82.5"/>
<text text-anchor="start" x="56.8749" y="-98.6" font-family="FreeSans" font-size="8.00" fill="#1c2021">name = &#39;Derrick&#39;</text>
</g>
<!-- N2&#45;&gt;N3 -->
<g id="edge3" class="edge"><title>N2&#45;&gt;N3</title>
<path fill="none" stroke="#2e3436" stroke-width="2" d="M88.9927,-82.4958C91.032,-73.1194 95.032,-61.9944 102.875,-55 118.844,-40.7587 173.169,-30.5191 212.08,-24.8005"/>
<polygon fill="#2e3436" stroke="#2e3436" stroke-width="2" points="219.64,-23.7172 212.695,-28.1219 215.999,-24.744 212.287,-25.2759 212.216,-24.781 212.145,-24.2861 215.857,-23.7541 211.737,-21.4401 219.64,-23.7172 219.64,-23.7172"/>
<text text-anchor="middle" x="116.375" y="-57.6" font-family="FreeSans" font-size="8.00" fill="#2e3436">favorite</text>
</g>
<!-- N2&#45;&gt;N1 -->
<g id="edge4" class="edge"><title>N2&#45;&gt;N1</title>
<path fill="none" stroke="#2e3436" stroke-width="2" d="M60.2467,-82.3261C54.4432,-77.1884 49.0835,-71.0224 45.8749,-64 43.1029,-57.9331 42.4258,-50.9031 42.7466,-44.2475"/>
<polygon fill="#2e3436" stroke="#2e3436" stroke-width="2" points="43.5159,-36.6865 46.1143,-44.4897 43.6337,-40.4679 43.254,-44.1986 42.7566,-44.148 42.2592,-44.0974 42.6388,-40.3667 39.3989,-43.8063 43.5159,-36.6865 43.5159,-36.6865"/>
<text text-anchor="middle" x="59.3749" y="-57.6" font-family="FreeSans" font-size="8.00" fill="#2e3436">favorite</text>
</g>
<!-- N4 -->
<g id="node5" class="node"><title>N4</title>
<path fill="#ffffff" stroke="#2e3436" stroke-width="1.5" d="M345.875,-82.5C345.875,-82.5 379.875,-82.5 379.875,-82.5 385.875,-82.5 391.875,-88.5 391.875,-94.5 391.875,-94.5 391.875,-106.5 391.875,-106.5 391.875,-112.5 385.875,-118.5 379.875,-118.5 379.875,-118.5 345.875,-118.5 345.875,-118.5 339.875,-118.5 333.875,-112.5 333.875,-106.5 333.875,-106.5 333.875,-94.5 333.875,-94.5 333.875,-88.5 339.875,-82.5 345.875,-82.5"/>
<text text-anchor="start" x="341.875" y="-98.6" font-family="FreeSans" font-size="8.00" fill="#1c2021">name = &#39;Jill&#39;</text>
</g>
<!-- N4&#45;&gt;N3 -->
<g id="edge5" class="edge"><title>N4&#45;&gt;N3</title>
<path fill="none" stroke="#2e3436" stroke-width="2" d="M339.492,-82.338C323.112,-70.3164 301.094,-54.1559 283.488,-41.2341"/>
<polygon fill="#2e3436" stroke="#2e3436" stroke-width="2" points="277.219,-36.6336 285.263,-38.3505 280.538,-38.4494 283.562,-40.6682 283.266,-41.0713 282.97,-41.4744 279.947,-39.2555 281.269,-43.7921 277.219,-36.6336 277.219,-36.6336"/>
<text text-anchor="middle" x="325.375" y="-57.6" font-family="FreeSans" font-size="8.00" fill="#2e3436">favorite</text>
</g>
<!-- N5 -->
<g id="node6" class="node"><title>N5</title>
<path fill="#ffffff" stroke="#2e3436" stroke-width="1.5" d="M167.875,-164.5C167.875,-164.5 205.875,-164.5 205.875,-164.5 211.875,-164.5 217.875,-170.5 217.875,-176.5 217.875,-176.5 217.875,-188.5 217.875,-188.5 217.875,-194.5 211.875,-200.5 205.875,-200.5 205.875,-200.5 167.875,-200.5 167.875,-200.5 161.875,-200.5 155.875,-194.5 155.875,-188.5 155.875,-188.5 155.875,-176.5 155.875,-176.5 155.875,-170.5 161.875,-164.5 167.875,-164.5"/>
<text text-anchor="start" x="163.875" y="-180.6" font-family="FreeSans" font-size="8.00" fill="#1c2021">name = &#39;Joe&#39;</text>
</g>
<!-- N5&#45;&gt;N0 -->
<g id="edge6" class="edge"><title>N5&#45;&gt;N0</title>
<path fill="none" stroke="#4e9a06" stroke-width="2" d="M186.875,-164.141C186.875,-153.058 186.875,-138.518 186.875,-126.236"/>
<polygon fill="#4e9a06" stroke="#4e9a06" stroke-width="2" points="186.875,-118.55 190.25,-126.05 187.375,-122.3 187.375,-126.05 186.875,-126.05 186.375,-126.05 186.375,-122.3 183.5,-126.05 186.875,-118.55 186.875,-118.55"/>
<text text-anchor="middle" x="197.375" y="-139.6" font-family="FreeSans" font-size="8.00" fill="#4e9a06">friend</text>
</g>
<!-- N5&#45;&gt;N3 -->
<g id="edge7" class="edge"><title>N5&#45;&gt;N3</title>
<path fill="none" stroke="#2e3436" stroke-width="2" d="M202.259,-164.407C220.337,-142.863 248.886,-103.81 256.875,-64 258.139,-57.7011 258.268,-50.8109 257.866,-44.3743"/>
<polygon fill="#2e3436" stroke="#2e3436" stroke-width="2" points="257.117,-36.5425 261.191,-43.6872 257.972,-40.2279 258.329,-43.9609 257.831,-44.0084 257.334,-44.056 256.977,-40.323 254.472,-44.3297 257.117,-36.5425 257.117,-36.5425"/>
<text text-anchor="middle" x="265.375" y="-98.6" font-family="FreeSans" font-size="8.00" fill="#2e3436">favorite</text>
</g>
<!-- N5&#45;&gt;N1 -->
<g id="edge8" class="edge"><title>N5&#45;&gt;N1</title>
<path fill="none" stroke="#2e3436" stroke-width="2" d="M155.726,-180.949C113.87,-178.325 40.8145,-166.712 6.8749,-119 -9.98027,-95.3052 8.81298,-63.6449 26.1392,-42.4624"/>
<polygon fill="#2e3436" stroke="#2e3436" stroke-width="2" points="31.1915,-36.5135 28.9089,-44.4148 29.1451,-39.6954 26.7176,-42.5537 26.3365,-42.23 25.9554,-41.9064 28.3829,-39.0481 23.764,-40.0453 31.1915,-36.5135 31.1915,-36.5135"/>
<text text-anchor="middle" x="20.3749" y="-98.6" font-family="FreeSans" font-size="8.00" fill="#2e3436">favorite</text>
</g>
</g>
</svg>
