<?xml version="1.0" encoding="UTF-8" standalone="no"?>
<!DOCTYPE svg PUBLIC "-//W3C//DTD SVG 1.1//EN"
 "http://www.w3.org/Graphics/SVG/1.1/DTD/svg11.dtd">
<!-- Generated by graphviz version 2.38.0 (20140413.2041)
 -->
<!-- Title: g Pages: 1 -->
<svg width="94pt" height="241pt"
 viewBox="0.00 0.00 94.00 241.00" xmlns="http://www.w3.org/2000/svg" xmlns:xlink="http://www.w3.org/1999/xlink">
<g id="graph0" class="graph" transform="scale(1 1) rotate(0) translate(4 237)">
<title>g</title>
<polygon fill="white" stroke="none" points="-4,4 -4,-237 90,-237 90,4 -4,4"/>
<!-- N0 -->
<g id="node1" class="node"><title>N0</title>
<path fill="#ffffff" stroke="#2e3436" stroke-width="1.5" d="M23.5,-196.5C23.5,-196.5 62.5,-196.5 62.5,-196.5 68.5,-196.5 74.5,-202.5 74.5,-208.5 74.5,-208.5 74.5,-220.5 74.5,-220.5 74.5,-226.5 68.5,-232.5 62.5,-232.5 62.5,-232.5 23.5,-232.5 23.5,-232.5 17.5,-232.5 11.5,-226.5 11.5,-220.5 11.5,-220.5 11.5,-208.5 11.5,-208.5 11.5,-202.5 17.5,-196.5 23.5,-196.5"/>
<text text-anchor="middle" x="43" y="-221.6" font-family="FreeSans" font-size="8.00" fill="#1c2021">Node[0]</text>
<polyline fill="none" stroke="#2e3436" stroke-width="1.5" points="11.5,-214.5 74.5,-214.5 "/>
<text text-anchor="start" x="19.5" y="-203.6" font-family="FreeSans" font-size="8.00" fill="#1c2021">name = &#39;Bob&#39;</text>
</g>
<!-- N1 -->
<g id="node2" class="node"><title>N1</title>
<path fill="#ffffff" stroke="#2e3436" stroke-width="1.5" d="M12,-98.5C12,-98.5 74,-98.5 74,-98.5 80,-98.5 86,-104.5 86,-110.5 86,-110.5 86,-138.5 86,-138.5 86,-144.5 80,-150.5 74,-150.5 74,-150.5 12,-150.5 12,-150.5 6,-150.5 0,-144.5 0,-138.5 0,-138.5 0,-110.5 0,-110.5 0,-104.5 6,-98.5 12,-98.5"/>
<text text-anchor="middle" x="43" y="-140.1" font-family="FreeSans" font-size="8.00" fill="#1c2021">Node[1]</text>
<polyline fill="none" stroke="#2e3436" stroke-width="1.5" points="0,-133.5 86,-133.5 "/>
<text text-anchor="start" x="8" y="-123.1" font-family="FreeSans" font-size="8.00" fill="#1c2021">date = 1</text>
<text text-anchor="start" x="8" y="-114.1" font-family="FreeSans" font-size="8.00" fill="#1c2021">name = &#39;bob_s1&#39;</text>
<text text-anchor="start" x="8" y="-105.1" font-family="FreeSans" font-size="8.00" fill="#1c2021">text = &#39;bobs status1&#39;</text>
</g>
<!-- N0&#45;&gt;N1 -->
<g id="edge1" class="edge"><title>N0&#45;&gt;N1</title>
<path fill="none" stroke="#2e3436" stroke-width="2" d="M43,-196.114C43,-185.329 43,-171.127 43,-158.289"/>
<polygon fill="#2e3436" stroke="#2e3436" stroke-width="2" points="43,-150.515 46.3751,-158.015 43.5,-154.265 43.5001,-158.015 43.0001,-158.015 42.5001,-158.015 42.5,-154.265 39.6251,-158.015 43,-150.515 43,-150.515"/>
<text text-anchor="middle" x="59.5" y="-171.6" font-family="FreeSans" font-size="8.00" fill="#2e3436">STATUS</text>
</g>
<!-- N2 -->
<g id="node3" class="node"><title>N2</title>
<path fill="#ffffff" stroke="#2e3436" stroke-width="1.5" d="M12,-0.5C12,-0.5 74,-0.5 74,-0.5 80,-0.5 86,-6.5 86,-12.5 86,-12.5 86,-40.5 86,-40.5 86,-46.5 80,-52.5 74,-52.5 74,-52.5 12,-52.5 12,-52.5 6,-52.5 0,-46.5 0,-40.5 0,-40.5 0,-12.5 0,-12.5 0,-6.5 6,-0.5 12,-0.5"/>
<text text-anchor="middle" x="43" y="-42.1" font-family="FreeSans" font-size="8.00" fill="#1c2021">Node[2]</text>
<polyline fill="none" stroke="#2e3436" stroke-width="1.5" points="0,-35.5 86,-35.5 "/>
<text text-anchor="start" x="8" y="-25.1" font-family="FreeSans" font-size="8.00" fill="#1c2021">date = 4</text>
<text text-anchor="start" x="8" y="-16.1" font-family="FreeSans" font-size="8.00" fill="#1c2021">name = &#39;bob_s2&#39;</text>
<text text-anchor="start" x="8" y="-7.1" font-family="FreeSans" font-size="8.00" fill="#1c2021">text = &#39;bobs status2&#39;</text>
</g>
<!-- N1&#45;&gt;N2 -->
<g id="edge2" class="edge"><title>N1&#45;&gt;N2</title>
<path fill="none" stroke="#4e9a06" stroke-width="2" d="M43,-98.2771C43,-86.5919 43,-72.5622 43,-60.0866"/>
<polygon fill="#4e9a06" stroke="#4e9a06" stroke-width="2" points="43,-52.5544 46.3751,-60.0544 43.5,-56.3044 43.5001,-60.0544 43.0001,-60.0544 42.5001,-60.0544 42.5,-56.3044 39.6251,-60.0545 43,-52.5544 43,-52.5544"/>
<text text-anchor="middle" x="54" y="-73.6" font-family="FreeSans" font-size="8.00" fill="#4e9a06">NEXT</text>
</g>
</g>
</svg>
