<?xml version="1.0" encoding="UTF-8" standalone="no"?>
<!DOCTYPE svg PUBLIC "-//W3C//DTD SVG 1.1//EN"
 "http://www.w3.org/Graphics/SVG/1.1/DTD/svg11.dtd">
<!-- Generated by graphviz version 2.38.0 (20140413.2041)
 -->
<!-- Title: g Pages: 1 -->
<svg width="228pt" height="45pt"
 viewBox="0.00 0.00 228.00 45.00" xmlns="http://www.w3.org/2000/svg" xmlns:xlink="http://www.w3.org/1999/xlink">
<g id="graph0" class="graph" transform="scale(1 1) rotate(0) translate(4 41)">
<title>g</title>
<polygon fill="white" stroke="none" points="-4,4 -4,-41 224,-41 224,4 -4,4"/>
<!-- N67 -->
<g id="node1" class="node"><title>N67</title>
<path fill="#ffffff" stroke="#2e3436" stroke-width="1.5" d="M12,-0.5C12,-0.5 42,-0.5 42,-0.5 48,-0.5 54,-6.5 54,-12.5 54,-12.5 54,-24.5 54,-24.5 54,-30.5 48,-36.5 42,-36.5 42,-36.5 12,-36.5 12,-36.5 6,-36.5 0,-30.5 0,-24.5 0,-24.5 0,-12.5 0,-12.5 0,-6.5 6,-0.5 12,-0.5"/>
<text text-anchor="middle" x="27" y="-25.6" font-family="FreeSans" font-size="8.00" fill="#1c2021">Node[67]</text>
<polyline fill="none" stroke="#2e3436" stroke-width="1.5" points="0,-18.5 54,-18.5 "/>
<text text-anchor="middle" x="27" y="-7.6" font-family="FreeSans" font-size="8.00" fill="#1c2021"> </text>
</g>
<!-- N68 -->
<g id="node2" class="node"><title>N68</title>
<path fill="#ffffff" stroke="#2e3436" stroke-width="1.5" d="M95,-0.5C95,-0.5 125,-0.5 125,-0.5 131,-0.5 137,-6.5 137,-12.5 137,-12.5 137,-24.5 137,-24.5 137,-30.5 131,-36.5 125,-36.5 125,-36.5 95,-36.5 95,-36.5 89,-36.5 83,-30.5 83,-24.5 83,-24.5 83,-12.5 83,-12.5 83,-6.5 89,-0.5 95,-0.5"/>
<text text-anchor="middle" x="110" y="-25.6" font-family="FreeSans" font-size="8.00" fill="#1c2021">Node[68]</text>
<polyline fill="none" stroke="#2e3436" stroke-width="1.5" points="83,-18.5 137,-18.5 "/>
<text text-anchor="middle" x="110" y="-7.6" font-family="FreeSans" font-size="8.00" fill="#1c2021"> </text>
</g>
<!-- N69 -->
<g id="node3" class="node"><title>N69</title>
<path fill="#ffffff" stroke="#2e3436" stroke-width="1.5" d="M178,-0.5C178,-0.5 208,-0.5 208,-0.5 214,-0.5 220,-6.5 220,-12.5 220,-12.5 220,-24.5 220,-24.5 220,-30.5 214,-36.5 208,-36.5 208,-36.5 178,-36.5 178,-36.5 172,-36.5 166,-30.5 166,-24.5 166,-24.5 166,-12.5 166,-12.5 166,-6.5 172,-0.5 178,-0.5"/>
<text text-anchor="middle" x="193" y="-25.6" font-family="FreeSans" font-size="8.00" fill="#1c2021">Node[69]</text>
<polyline fill="none" stroke="#2e3436" stroke-width="1.5" points="166,-18.5 220,-18.5 "/>
<text text-anchor="middle" x="193" y="-7.6" font-family="FreeSans" font-size="8.00" fill="#1c2021"> </text>
</g>
</g>
</svg>
