<?xml version="1.0" encoding="UTF-8" standalone="no"?>
<!DOCTYPE svg PUBLIC "-//W3C//DTD SVG 1.1//EN"
 "http://www.w3.org/Graphics/SVG/1.1/DTD/svg11.dtd">
<!-- Generated by graphviz version 2.38.0 (20140413.2041)
 -->
<!-- Title: g Pages: 1 -->
<svg width="504pt" height="58pt"
 viewBox="0.00 0.00 504.00 57.75" xmlns="http://www.w3.org/2000/svg" xmlns:xlink="http://www.w3.org/1999/xlink">
<g id="graph0" class="graph" transform="scale(0.276316 0.276316) rotate(0) translate(4 205)">
<title>g</title>
<polygon fill="white" stroke="none" points="-4,4 -4,-205 1820,-205 1820,4 -4,4"/>
<!-- N204 -->
<g id="node1" class="node"><title>N204</title>
<path fill="#ffffff" stroke="#2e3436" stroke-width="1.5" d="M28,-82.5C28,-82.5 58,-82.5 58,-82.5 64,-82.5 70,-88.5 70,-94.5 70,-94.5 70,-106.5 70,-106.5 70,-112.5 64,-118.5 58,-118.5 58,-118.5 28,-118.5 28,-118.5 22,-118.5 16,-112.5 16,-106.5 16,-106.5 16,-94.5 16,-94.5 16,-88.5 22,-82.5 28,-82.5"/>
<text text-anchor="middle" x="43" y="-107.6" font-family="FreeSans" font-size="8.00" fill="#1c2021">Node[204]</text>
<polyline fill="none" stroke="#2e3436" stroke-width="1.5" points="16,-100.5 70,-100.5 "/>
<text text-anchor="middle" x="43" y="-89.6" font-family="FreeSans" font-size="8.00" fill="#1c2021"> </text>
</g>
<!-- N207 -->
<g id="node2" class="node"><title>N207</title>
<path fill="#ffffff" stroke="#2e3436" stroke-width="1.5" d="M12,-0.5C12,-0.5 42,-0.5 42,-0.5 48,-0.5 54,-6.5 54,-12.5 54,-12.5 54,-24.5 54,-24.5 54,-30.5 48,-36.5 42,-36.5 42,-36.5 12,-36.5 12,-36.5 6,-36.5 0,-30.5 0,-24.5 0,-24.5 0,-12.5 0,-12.5 0,-6.5 6,-0.5 12,-0.5"/>
<text text-anchor="middle" x="27" y="-25.6" font-family="FreeSans" font-size="8.00" fill="#1c2021">Node[207]</text>
<polyline fill="none" stroke="#2e3436" stroke-width="1.5" points="0,-18.5 54,-18.5 "/>
<text text-anchor="middle" x="27" y="-7.6" font-family="FreeSans" font-size="8.00" fill="#1c2021"> </text>
</g>
<!-- N204&#45;&gt;N207 -->
<g id="edge1" class="edge"><title>N204&#45;&gt;N207</title>
<path fill="none" stroke="#2e3436" stroke-width="2" d="M39.5282,-82.1412C37.3117,-71.0583 34.4035,-56.5177 31.9472,-44.2358"/>
<polygon fill="#2e3436" stroke="#2e3436" stroke-width="2" points="30.41,-36.5501 35.1904,-43.2425 31.6358,-40.1292 32.3713,-43.8064 31.881,-43.9045 31.3907,-44.0025 30.6552,-40.3253 28.5715,-44.5664 30.41,-36.5501 30.41,-36.5501"/>
<text text-anchor="middle" x="50" y="-57.6" font-family="FreeSans" font-size="8.00" fill="#2e3436">HATES</text>
</g>
<!-- N205 -->
<g id="node3" class="node"><title>N205</title>
<path fill="#ffffff" stroke="#2e3436" stroke-width="1.5" d="M95,-0.5C95,-0.5 125,-0.5 125,-0.5 131,-0.5 137,-6.5 137,-12.5 137,-12.5 137,-24.5 137,-24.5 137,-30.5 131,-36.5 125,-36.5 125,-36.5 95,-36.5 95,-36.5 89,-36.5 83,-30.5 83,-24.5 83,-24.5 83,-12.5 83,-12.5 83,-6.5 89,-0.5 95,-0.5"/>
<text text-anchor="middle" x="110" y="-25.6" font-family="FreeSans" font-size="8.00" fill="#1c2021">Node[205]</text>
<polyline fill="none" stroke="#2e3436" stroke-width="1.5" points="83,-18.5 137,-18.5 "/>
<text text-anchor="middle" x="110" y="-7.6" font-family="FreeSans" font-size="8.00" fill="#1c2021"> </text>
</g>
<!-- N204&#45;&gt;N205 -->
<g id="edge2" class="edge"><title>N204&#45;&gt;N205</title>
<path fill="none" stroke="#4e9a06" stroke-width="2" d="M57.538,-82.1412C67.2619,-70.5305 80.1641,-55.125 90.7398,-42.4972"/>
<polygon fill="#4e9a06" stroke="#4e9a06" stroke-width="2" points="95.7205,-36.5501 93.4924,-44.467 93.6961,-39.7461 91.2883,-42.621 90.905,-42.3 90.5217,-41.9789 92.9294,-39.104 88.3176,-40.133 95.7205,-36.5501 95.7205,-36.5501"/>
<text text-anchor="middle" x="90.5" y="-57.6" font-family="FreeSans" font-size="8.00" fill="#4e9a06">LIKES</text>
</g>
<!-- N206 -->
<g id="node4" class="node"><title>N206</title>
<path fill="#ffffff" stroke="#2e3436" stroke-width="1.5" d="M28,-164.5C28,-164.5 58,-164.5 58,-164.5 64,-164.5 70,-170.5 70,-176.5 70,-176.5 70,-188.5 70,-188.5 70,-194.5 64,-200.5 58,-200.5 58,-200.5 28,-200.5 28,-200.5 22,-200.5 16,-194.5 16,-188.5 16,-188.5 16,-176.5 16,-176.5 16,-170.5 22,-164.5 28,-164.5"/>
<text text-anchor="middle" x="43" y="-189.6" font-family="FreeSans" font-size="8.00" fill="#1c2021">Node[206]</text>
<polyline fill="none" stroke="#2e3436" stroke-width="1.5" points="16,-182.5 70,-182.5 "/>
<text text-anchor="middle" x="43" y="-171.6" font-family="FreeSans" font-size="8.00" fill="#1c2021"> </text>
</g>
<!-- N206&#45;&gt;N204 -->
<g id="edge3" class="edge"><title>N206&#45;&gt;N204</title>
<path fill="none" stroke="#4e9a06" stroke-width="2" d="M43,-164.141C43,-153.058 43,-138.518 43,-126.236"/>
<polygon fill="#4e9a06" stroke="#4e9a06" stroke-width="2" points="43,-118.55 46.3751,-126.05 43.5,-122.3 43.5001,-126.05 43.0001,-126.05 42.5001,-126.05 42.5,-122.3 39.6251,-126.05 43,-118.55 43,-118.55"/>
<text text-anchor="middle" x="54.5" y="-139.6" font-family="FreeSans" font-size="8.00" fill="#4e9a06">LIKES</text>
</g>
<!-- N208 -->
<g id="node5" class="node"><title>N208</title>
<path fill="#ffffff" stroke="#2e3436" stroke-width="1.5" d="M142,-164.5C142,-164.5 172,-164.5 172,-164.5 178,-164.5 184,-170.5 184,-176.5 184,-176.5 184,-188.5 184,-188.5 184,-194.5 178,-200.5 172,-200.5 172,-200.5 142,-200.5 142,-200.5 136,-200.5 130,-194.5 130,-188.5 130,-188.5 130,-176.5 130,-176.5 130,-170.5 136,-164.5 142,-164.5"/>
<text text-anchor="middle" x="157" y="-189.6" font-family="FreeSans" font-size="8.00" fill="#1c2021">Node[208]</text>
<polyline fill="none" stroke="#2e3436" stroke-width="1.5" points="130,-182.5 184,-182.5 "/>
<text text-anchor="middle" x="157" y="-171.6" font-family="FreeSans" font-size="8.00" fill="#1c2021"> </text>
</g>
<!-- N209 -->
<g id="node6" class="node"><title>N209</title>
<path fill="#ffffff" stroke="#2e3436" stroke-width="1.5" d="M240,-82.5C240,-82.5 270,-82.5 270,-82.5 276,-82.5 282,-88.5 282,-94.5 282,-94.5 282,-106.5 282,-106.5 282,-112.5 276,-118.5 270,-118.5 270,-118.5 240,-118.5 240,-118.5 234,-118.5 228,-112.5 228,-106.5 228,-106.5 228,-94.5 228,-94.5 228,-88.5 234,-82.5 240,-82.5"/>
<text text-anchor="middle" x="255" y="-107.6" font-family="FreeSans" font-size="8.00" fill="#1c2021">Node[209]</text>
<polyline fill="none" stroke="#2e3436" stroke-width="1.5" points="228,-100.5 282,-100.5 "/>
<text text-anchor="middle" x="255" y="-89.6" font-family="FreeSans" font-size="8.00" fill="#1c2021"> </text>
</g>
<!-- N212 -->
<g id="node7" class="node"><title>N212</title>
<path fill="#ffffff" stroke="#2e3436" stroke-width="1.5" d="M198,-0.5C198,-0.5 228,-0.5 228,-0.5 234,-0.5 240,-6.5 240,-12.5 240,-12.5 240,-24.5 240,-24.5 240,-30.5 234,-36.5 228,-36.5 228,-36.5 198,-36.5 198,-36.5 192,-36.5 186,-30.5 186,-24.5 186,-24.5 186,-12.5 186,-12.5 186,-6.5 192,-0.5 198,-0.5"/>
<text text-anchor="middle" x="213" y="-25.6" font-family="FreeSans" font-size="8.00" fill="#1c2021">Node[212]</text>
<polyline fill="none" stroke="#2e3436" stroke-width="1.5" points="186,-18.5 240,-18.5 "/>
<text text-anchor="middle" x="213" y="-7.6" font-family="FreeSans" font-size="8.00" fill="#1c2021"> </text>
</g>
<!-- N209&#45;&gt;N212 -->
<g id="edge4" class="edge"><title>N209&#45;&gt;N212</title>
<path fill="none" stroke="#2e3436" stroke-width="2" d="M245.887,-82.1412C239.957,-70.8472 232.143,-55.9625 225.619,-43.5365"/>
<polygon fill="#2e3436" stroke="#2e3436" stroke-width="2" points="221.951,-36.5501 228.426,-41.6218 224.137,-39.6379 225.88,-42.9582 225.438,-43.1906 224.995,-43.423 223.252,-40.1028 222.449,-44.7594 221.951,-36.5501 221.951,-36.5501"/>
<text text-anchor="middle" x="250" y="-57.6" font-family="FreeSans" font-size="8.00" fill="#2e3436">HATES</text>
</g>
<!-- N210 -->
<g id="node8" class="node"><title>N210</title>
<path fill="#ffffff" stroke="#2e3436" stroke-width="1.5" d="M281,-0.5C281,-0.5 311,-0.5 311,-0.5 317,-0.5 323,-6.5 323,-12.5 323,-12.5 323,-24.5 323,-24.5 323,-30.5 317,-36.5 311,-36.5 311,-36.5 281,-36.5 281,-36.5 275,-36.5 269,-30.5 269,-24.5 269,-24.5 269,-12.5 269,-12.5 269,-6.5 275,-0.5 281,-0.5"/>
<text text-anchor="middle" x="296" y="-25.6" font-family="FreeSans" font-size="8.00" fill="#1c2021">Node[210]</text>
<polyline fill="none" stroke="#2e3436" stroke-width="1.5" points="269,-18.5 323,-18.5 "/>
<text text-anchor="middle" x="296" y="-7.6" font-family="FreeSans" font-size="8.00" fill="#1c2021"> </text>
</g>
<!-- N209&#45;&gt;N210 -->
<g id="edge5" class="edge"><title>N209&#45;&gt;N210</title>
<path fill="none" stroke="#4e9a06" stroke-width="2" d="M263.896,-82.1412C269.685,-70.8472 277.313,-55.9625 283.681,-43.5365"/>
<polygon fill="#4e9a06" stroke="#4e9a06" stroke-width="2" points="287.262,-36.5501 286.845,-44.7639 285.996,-40.1154 284.286,-43.4527 283.841,-43.2246 283.396,-42.9966 285.106,-39.6593 280.838,-41.6853 287.262,-36.5501 287.262,-36.5501"/>
<text text-anchor="middle" x="288.5" y="-57.6" font-family="FreeSans" font-size="8.00" fill="#4e9a06">LIKES</text>
</g>
<!-- N211 -->
<g id="node9" class="node"><title>N211</title>
<path fill="#ffffff" stroke="#2e3436" stroke-width="1.5" d="M240,-164.5C240,-164.5 270,-164.5 270,-164.5 276,-164.5 282,-170.5 282,-176.5 282,-176.5 282,-188.5 282,-188.5 282,-194.5 276,-200.5 270,-200.5 270,-200.5 240,-200.5 240,-200.5 234,-200.5 228,-194.5 228,-188.5 228,-188.5 228,-176.5 228,-176.5 228,-170.5 234,-164.5 240,-164.5"/>
<text text-anchor="middle" x="255" y="-189.6" font-family="FreeSans" font-size="8.00" fill="#1c2021">Node[211]</text>
<polyline fill="none" stroke="#2e3436" stroke-width="1.5" points="228,-182.5 282,-182.5 "/>
<text text-anchor="middle" x="255" y="-171.6" font-family="FreeSans" font-size="8.00" fill="#1c2021"> </text>
</g>
<!-- N211&#45;&gt;N209 -->
<g id="edge6" class="edge"><title>N211&#45;&gt;N209</title>
<path fill="none" stroke="#4e9a06" stroke-width="2" d="M255,-164.141C255,-153.058 255,-138.518 255,-126.236"/>
<polygon fill="#4e9a06" stroke="#4e9a06" stroke-width="2" points="255,-118.55 258.375,-126.05 255.5,-122.3 255.5,-126.05 255,-126.05 254.5,-126.05 254.5,-122.3 251.625,-126.05 255,-118.55 255,-118.55"/>
<text text-anchor="middle" x="266.5" y="-139.6" font-family="FreeSans" font-size="8.00" fill="#4e9a06">LIKES</text>
</g>
<!-- N213 -->
<g id="node10" class="node"><title>N213</title>
<path fill="#ffffff" stroke="#2e3436" stroke-width="1.5" d="M343,-164.5C343,-164.5 373,-164.5 373,-164.5 379,-164.5 385,-170.5 385,-176.5 385,-176.5 385,-188.5 385,-188.5 385,-194.5 379,-200.5 373,-200.5 373,-200.5 343,-200.5 343,-200.5 337,-200.5 331,-194.5 331,-188.5 331,-188.5 331,-176.5 331,-176.5 331,-170.5 337,-164.5 343,-164.5"/>
<text text-anchor="middle" x="358" y="-189.6" font-family="FreeSans" font-size="8.00" fill="#1c2021">Node[213]</text>
<polyline fill="none" stroke="#2e3436" stroke-width="1.5" points="331,-182.5 385,-182.5 "/>
<text text-anchor="middle" x="358" y="-171.6" font-family="FreeSans" font-size="8.00" fill="#1c2021"> </text>
</g>
<!-- N214 -->
<g id="node11" class="node"><title>N214</title>
<path fill="#ffffff" stroke="#2e3436" stroke-width="1.5" d="M452,-82.5C452,-82.5 482,-82.5 482,-82.5 488,-82.5 494,-88.5 494,-94.5 494,-94.5 494,-106.5 494,-106.5 494,-112.5 488,-118.5 482,-118.5 482,-118.5 452,-118.5 452,-118.5 446,-118.5 440,-112.5 440,-106.5 440,-106.5 440,-94.5 440,-94.5 440,-88.5 446,-82.5 452,-82.5"/>
<text text-anchor="middle" x="467" y="-107.6" font-family="FreeSans" font-size="8.00" fill="#1c2021">Node[214]</text>
<polyline fill="none" stroke="#2e3436" stroke-width="1.5" points="440,-100.5 494,-100.5 "/>
<text text-anchor="middle" x="467" y="-89.6" font-family="FreeSans" font-size="8.00" fill="#1c2021"> </text>
</g>
<!-- N217 -->
<g id="node12" class="node"><title>N217</title>
<path fill="#ffffff" stroke="#2e3436" stroke-width="1.5" d="M395,-0.5C395,-0.5 425,-0.5 425,-0.5 431,-0.5 437,-6.5 437,-12.5 437,-12.5 437,-24.5 437,-24.5 437,-30.5 431,-36.5 425,-36.5 425,-36.5 395,-36.5 395,-36.5 389,-36.5 383,-30.5 383,-24.5 383,-24.5 383,-12.5 383,-12.5 383,-6.5 389,-0.5 395,-0.5"/>
<text text-anchor="middle" x="410" y="-25.6" font-family="FreeSans" font-size="8.00" fill="#1c2021">Node[217]</text>
<polyline fill="none" stroke="#2e3436" stroke-width="1.5" points="383,-18.5 437,-18.5 "/>
<text text-anchor="middle" x="410" y="-7.6" font-family="FreeSans" font-size="8.00" fill="#1c2021"> </text>
</g>
<!-- N214&#45;&gt;N217 -->
<g id="edge7" class="edge"><title>N214&#45;&gt;N217</title>
<path fill="none" stroke="#2e3436" stroke-width="2" d="M454.632,-82.1412C446.434,-70.6361 435.582,-55.4048 426.631,-42.8423"/>
<polygon fill="#2e3436" stroke="#2e3436" stroke-width="2" points="422.148,-36.5501 429.249,-40.6998 424.731,-39.314 426.908,-42.3681 426.5,-42.6583 426.093,-42.9484 423.917,-39.8943 423.752,-44.6167 422.148,-36.5501 422.148,-36.5501"/>
<text text-anchor="middle" x="455" y="-57.6" font-family="FreeSans" font-size="8.00" fill="#2e3436">HATES</text>
</g>
<!-- N215 -->
<g id="node13" class="node"><title>N215</title>
<path fill="#ffffff" stroke="#2e3436" stroke-width="1.5" d="M478,-0.5C478,-0.5 508,-0.5 508,-0.5 514,-0.5 520,-6.5 520,-12.5 520,-12.5 520,-24.5 520,-24.5 520,-30.5 514,-36.5 508,-36.5 508,-36.5 478,-36.5 478,-36.5 472,-36.5 466,-30.5 466,-24.5 466,-24.5 466,-12.5 466,-12.5 466,-6.5 472,-0.5 478,-0.5"/>
<text text-anchor="middle" x="493" y="-25.6" font-family="FreeSans" font-size="8.00" fill="#1c2021">Node[215]</text>
<polyline fill="none" stroke="#2e3436" stroke-width="1.5" points="466,-18.5 520,-18.5 "/>
<text text-anchor="middle" x="493" y="-7.6" font-family="FreeSans" font-size="8.00" fill="#1c2021"> </text>
</g>
<!-- N214&#45;&gt;N215 -->
<g id="edge8" class="edge"><title>N214&#45;&gt;N215</title>
<path fill="none" stroke="#4e9a06" stroke-width="2" d="M472.642,-82.1412C476.278,-70.9527 481.059,-56.2404 485.075,-43.8855"/>
<polygon fill="#4e9a06" stroke="#4e9a06" stroke-width="2" points="487.459,-36.5501 488.35,-44.7261 486.775,-40.271 485.616,-43.8374 485.141,-43.6829 484.665,-43.5283 485.824,-39.9619 481.931,-42.6397 487.459,-36.5501 487.459,-36.5501"/>
<text text-anchor="middle" x="492.5" y="-57.6" font-family="FreeSans" font-size="8.00" fill="#4e9a06">LIKES</text>
</g>
<!-- N216 -->
<g id="node14" class="node"><title>N216</title>
<path fill="#ffffff" stroke="#2e3436" stroke-width="1.5" d="M452,-164.5C452,-164.5 482,-164.5 482,-164.5 488,-164.5 494,-170.5 494,-176.5 494,-176.5 494,-188.5 494,-188.5 494,-194.5 488,-200.5 482,-200.5 482,-200.5 452,-200.5 452,-200.5 446,-200.5 440,-194.5 440,-188.5 440,-188.5 440,-176.5 440,-176.5 440,-170.5 446,-164.5 452,-164.5"/>
<text text-anchor="middle" x="467" y="-189.6" font-family="FreeSans" font-size="8.00" fill="#1c2021">Node[216]</text>
<polyline fill="none" stroke="#2e3436" stroke-width="1.5" points="440,-182.5 494,-182.5 "/>
<text text-anchor="middle" x="467" y="-171.6" font-family="FreeSans" font-size="8.00" fill="#1c2021"> </text>
</g>
<!-- N216&#45;&gt;N214 -->
<g id="edge9" class="edge"><title>N216&#45;&gt;N214</title>
<path fill="none" stroke="#4e9a06" stroke-width="2" d="M467,-164.141C467,-153.058 467,-138.518 467,-126.236"/>
<polygon fill="#4e9a06" stroke="#4e9a06" stroke-width="2" points="467,-118.55 470.375,-126.05 467.5,-122.3 467.5,-126.05 467,-126.05 466.5,-126.05 466.5,-122.3 463.625,-126.05 467,-118.55 467,-118.55"/>
<text text-anchor="middle" x="478.5" y="-139.6" font-family="FreeSans" font-size="8.00" fill="#4e9a06">LIKES</text>
</g>
<!-- N218 -->
<g id="node15" class="node"><title>N218</title>
<path fill="#ffffff" stroke="#2e3436" stroke-width="1.5" d="M550,-164.5C550,-164.5 580,-164.5 580,-164.5 586,-164.5 592,-170.5 592,-176.5 592,-176.5 592,-188.5 592,-188.5 592,-194.5 586,-200.5 580,-200.5 580,-200.5 550,-200.5 550,-200.5 544,-200.5 538,-194.5 538,-188.5 538,-188.5 538,-176.5 538,-176.5 538,-170.5 544,-164.5 550,-164.5"/>
<text text-anchor="middle" x="565" y="-189.6" font-family="FreeSans" font-size="8.00" fill="#1c2021">Node[218]</text>
<polyline fill="none" stroke="#2e3436" stroke-width="1.5" points="538,-182.5 592,-182.5 "/>
<text text-anchor="middle" x="565" y="-171.6" font-family="FreeSans" font-size="8.00" fill="#1c2021"> </text>
</g>
<!-- N219 -->
<g id="node16" class="node"><title>N219</title>
<path fill="#ffffff" stroke="#2e3436" stroke-width="1.5" d="M641,-82.5C641,-82.5 671,-82.5 671,-82.5 677,-82.5 683,-88.5 683,-94.5 683,-94.5 683,-106.5 683,-106.5 683,-112.5 677,-118.5 671,-118.5 671,-118.5 641,-118.5 641,-118.5 635,-118.5 629,-112.5 629,-106.5 629,-106.5 629,-94.5 629,-94.5 629,-88.5 635,-82.5 641,-82.5"/>
<text text-anchor="middle" x="656" y="-107.6" font-family="FreeSans" font-size="8.00" fill="#1c2021">Node[219]</text>
<polyline fill="none" stroke="#2e3436" stroke-width="1.5" points="629,-100.5 683,-100.5 "/>
<text text-anchor="middle" x="656" y="-89.6" font-family="FreeSans" font-size="8.00" fill="#1c2021"> </text>
</g>
<!-- N222 -->
<g id="node17" class="node"><title>N222</title>
<path fill="#ffffff" stroke="#2e3436" stroke-width="1.5" d="M576,-0.5C576,-0.5 606,-0.5 606,-0.5 612,-0.5 618,-6.5 618,-12.5 618,-12.5 618,-24.5 618,-24.5 618,-30.5 612,-36.5 606,-36.5 606,-36.5 576,-36.5 576,-36.5 570,-36.5 564,-30.5 564,-24.5 564,-24.5 564,-12.5 564,-12.5 564,-6.5 570,-0.5 576,-0.5"/>
<text text-anchor="middle" x="591" y="-25.6" font-family="FreeSans" font-size="8.00" fill="#1c2021">Node[222]</text>
<polyline fill="none" stroke="#2e3436" stroke-width="1.5" points="564,-18.5 618,-18.5 "/>
<text text-anchor="middle" x="591" y="-7.6" font-family="FreeSans" font-size="8.00" fill="#1c2021"> </text>
</g>
<!-- N219&#45;&gt;N222 -->
<g id="edge10" class="edge"><title>N219&#45;&gt;N222</title>
<path fill="none" stroke="#2e3436" stroke-width="2" d="M641.896,-82.1412C632.462,-70.5305 619.945,-55.125 609.685,-42.4972"/>
<polygon fill="#2e3436" stroke="#2e3436" stroke-width="2" points="604.853,-36.5501 612.202,-40.2427 607.606,-39.1452 609.971,-42.0557 609.583,-42.371 609.195,-42.6863 606.83,-39.7758 606.963,-44.4992 604.853,-36.5501 604.853,-36.5501"/>
<text text-anchor="middle" x="640" y="-57.6" font-family="FreeSans" font-size="8.00" fill="#2e3436">HATES</text>
</g>
<!-- N220 -->
<g id="node18" class="node"><title>N220</title>
<path fill="#ffffff" stroke="#2e3436" stroke-width="1.5" d="M659,-0.5C659,-0.5 689,-0.5 689,-0.5 695,-0.5 701,-6.5 701,-12.5 701,-12.5 701,-24.5 701,-24.5 701,-30.5 695,-36.5 689,-36.5 689,-36.5 659,-36.5 659,-36.5 653,-36.5 647,-30.5 647,-24.5 647,-24.5 647,-12.5 647,-12.5 647,-6.5 653,-0.5 659,-0.5"/>
<text text-anchor="middle" x="674" y="-25.6" font-family="FreeSans" font-size="8.00" fill="#1c2021">Node[220]</text>
<polyline fill="none" stroke="#2e3436" stroke-width="1.5" points="647,-18.5 701,-18.5 "/>
<text text-anchor="middle" x="674" y="-7.6" font-family="FreeSans" font-size="8.00" fill="#1c2021"> </text>
</g>
<!-- N219&#45;&gt;N220 -->
<g id="edge11" class="edge"><title>N219&#45;&gt;N220</title>
<path fill="none" stroke="#4e9a06" stroke-width="2" d="M659.906,-82.1412C662.423,-70.9527 665.733,-56.2404 668.513,-43.8855"/>
<polygon fill="#4e9a06" stroke="#4e9a06" stroke-width="2" points="670.164,-36.5501 671.81,-44.6081 669.828,-40.3184 669.005,-43.9769 668.517,-43.8672 668.03,-43.7574 668.853,-40.0989 665.225,-43.1263 670.164,-36.5501 670.164,-36.5501"/>
<text text-anchor="middle" x="677.5" y="-57.6" font-family="FreeSans" font-size="8.00" fill="#4e9a06">LIKES</text>
</g>
<!-- N221 -->
<g id="node19" class="node"><title>N221</title>
<path fill="#ffffff" stroke="#2e3436" stroke-width="1.5" d="M641,-164.5C641,-164.5 671,-164.5 671,-164.5 677,-164.5 683,-170.5 683,-176.5 683,-176.5 683,-188.5 683,-188.5 683,-194.5 677,-200.5 671,-200.5 671,-200.5 641,-200.5 641,-200.5 635,-200.5 629,-194.5 629,-188.5 629,-188.5 629,-176.5 629,-176.5 629,-170.5 635,-164.5 641,-164.5"/>
<text text-anchor="middle" x="656" y="-189.6" font-family="FreeSans" font-size="8.00" fill="#1c2021">Node[221]</text>
<polyline fill="none" stroke="#2e3436" stroke-width="1.5" points="629,-182.5 683,-182.5 "/>
<text text-anchor="middle" x="656" y="-171.6" font-family="FreeSans" font-size="8.00" fill="#1c2021"> </text>
</g>
<!-- N221&#45;&gt;N219 -->
<g id="edge12" class="edge"><title>N221&#45;&gt;N219</title>
<path fill="none" stroke="#4e9a06" stroke-width="2" d="M656,-164.141C656,-153.058 656,-138.518 656,-126.236"/>
<polygon fill="#4e9a06" stroke="#4e9a06" stroke-width="2" points="656,-118.55 659.375,-126.05 656.5,-122.3 656.5,-126.05 656,-126.05 655.5,-126.05 655.5,-122.3 652.625,-126.05 656,-118.55 656,-118.55"/>
<text text-anchor="middle" x="667.5" y="-139.6" font-family="FreeSans" font-size="8.00" fill="#4e9a06">LIKES</text>
</g>
<!-- N223 -->
<g id="node20" class="node"><title>N223</title>
<path fill="#ffffff" stroke="#2e3436" stroke-width="1.5" d="M728,-164.5C728,-164.5 758,-164.5 758,-164.5 764,-164.5 770,-170.5 770,-176.5 770,-176.5 770,-188.5 770,-188.5 770,-194.5 764,-200.5 758,-200.5 758,-200.5 728,-200.5 728,-200.5 722,-200.5 716,-194.5 716,-188.5 716,-188.5 716,-176.5 716,-176.5 716,-170.5 722,-164.5 728,-164.5"/>
<text text-anchor="middle" x="743" y="-189.6" font-family="FreeSans" font-size="8.00" fill="#1c2021">Node[223]</text>
<polyline fill="none" stroke="#2e3436" stroke-width="1.5" points="716,-182.5 770,-182.5 "/>
<text text-anchor="middle" x="743" y="-171.6" font-family="FreeSans" font-size="8.00" fill="#1c2021"> </text>
</g>
<!-- N224 -->
<g id="node21" class="node"><title>N224</title>
<path fill="#ffffff" stroke="#2e3436" stroke-width="1.5" d="M815,-82.5C815,-82.5 845,-82.5 845,-82.5 851,-82.5 857,-88.5 857,-94.5 857,-94.5 857,-106.5 857,-106.5 857,-112.5 851,-118.5 845,-118.5 845,-118.5 815,-118.5 815,-118.5 809,-118.5 803,-112.5 803,-106.5 803,-106.5 803,-94.5 803,-94.5 803,-88.5 809,-82.5 815,-82.5"/>
<text text-anchor="middle" x="830" y="-107.6" font-family="FreeSans" font-size="8.00" fill="#1c2021">Node[224]</text>
<polyline fill="none" stroke="#2e3436" stroke-width="1.5" points="803,-100.5 857,-100.5 "/>
<text text-anchor="middle" x="830" y="-89.6" font-family="FreeSans" font-size="8.00" fill="#1c2021"> </text>
</g>
<!-- N227 -->
<g id="node22" class="node"><title>N227</title>
<path fill="#ffffff" stroke="#2e3436" stroke-width="1.5" d="M742,-0.5C742,-0.5 772,-0.5 772,-0.5 778,-0.5 784,-6.5 784,-12.5 784,-12.5 784,-24.5 784,-24.5 784,-30.5 778,-36.5 772,-36.5 772,-36.5 742,-36.5 742,-36.5 736,-36.5 730,-30.5 730,-24.5 730,-24.5 730,-12.5 730,-12.5 730,-6.5 736,-0.5 742,-0.5"/>
<text text-anchor="middle" x="757" y="-25.6" font-family="FreeSans" font-size="8.00" fill="#1c2021">Node[227]</text>
<polyline fill="none" stroke="#2e3436" stroke-width="1.5" points="730,-18.5 784,-18.5 "/>
<text text-anchor="middle" x="757" y="-7.6" font-family="FreeSans" font-size="8.00" fill="#1c2021"> </text>
</g>
<!-- N224&#45;&gt;N227 -->
<g id="edge13" class="edge"><title>N224&#45;&gt;N227</title>
<path fill="none" stroke="#2e3436" stroke-width="2" d="M814.16,-82.1412C803.469,-70.425 789.252,-54.8446 777.671,-42.1535"/>
<polygon fill="#2e3436" stroke="#2e3436" stroke-width="2" points="772.558,-36.5501 780.107,-39.8153 775.455,-38.9832 777.983,-41.7532 777.614,-42.0903 777.244,-42.4273 774.717,-39.6572 775.121,-44.3652 772.558,-36.5501 772.558,-36.5501"/>
<text text-anchor="middle" x="810" y="-57.6" font-family="FreeSans" font-size="8.00" fill="#2e3436">HATES</text>
</g>
<!-- N225 -->
<g id="node23" class="node"><title>N225</title>
<path fill="#ffffff" stroke="#2e3436" stroke-width="1.5" d="M825,-0.5C825,-0.5 855,-0.5 855,-0.5 861,-0.5 867,-6.5 867,-12.5 867,-12.5 867,-24.5 867,-24.5 867,-30.5 861,-36.5 855,-36.5 855,-36.5 825,-36.5 825,-36.5 819,-36.5 813,-30.5 813,-24.5 813,-24.5 813,-12.5 813,-12.5 813,-6.5 819,-0.5 825,-0.5"/>
<text text-anchor="middle" x="840" y="-25.6" font-family="FreeSans" font-size="8.00" fill="#1c2021">Node[225]</text>
<polyline fill="none" stroke="#2e3436" stroke-width="1.5" points="813,-18.5 867,-18.5 "/>
<text text-anchor="middle" x="840" y="-7.6" font-family="FreeSans" font-size="8.00" fill="#1c2021"> </text>
</g>
<!-- N224&#45;&gt;N225 -->
<g id="edge14" class="edge"><title>N224&#45;&gt;N225</title>
<path fill="none" stroke="#4e9a06" stroke-width="2" d="M832.17,-82.1412C833.555,-71.0583 835.373,-56.5177 836.908,-44.2358"/>
<polygon fill="#4e9a06" stroke="#4e9a06" stroke-width="2" points="837.869,-36.5501 840.287,-44.4108 837.9,-40.3332 837.435,-44.0542 836.938,-43.9922 836.442,-43.9302 836.907,-40.2091 833.589,-43.5735 837.869,-36.5501 837.869,-36.5501"/>
<text text-anchor="middle" x="847.5" y="-57.6" font-family="FreeSans" font-size="8.00" fill="#4e9a06">LIKES</text>
</g>
<!-- N226 -->
<g id="node24" class="node"><title>N226</title>
<path fill="#ffffff" stroke="#2e3436" stroke-width="1.5" d="M815,-164.5C815,-164.5 845,-164.5 845,-164.5 851,-164.5 857,-170.5 857,-176.5 857,-176.5 857,-188.5 857,-188.5 857,-194.5 851,-200.5 845,-200.5 845,-200.5 815,-200.5 815,-200.5 809,-200.5 803,-194.5 803,-188.5 803,-188.5 803,-176.5 803,-176.5 803,-170.5 809,-164.5 815,-164.5"/>
<text text-anchor="middle" x="830" y="-189.6" font-family="FreeSans" font-size="8.00" fill="#1c2021">Node[226]</text>
<polyline fill="none" stroke="#2e3436" stroke-width="1.5" points="803,-182.5 857,-182.5 "/>
<text text-anchor="middle" x="830" y="-171.6" font-family="FreeSans" font-size="8.00" fill="#1c2021"> </text>
</g>
<!-- N226&#45;&gt;N224 -->
<g id="edge15" class="edge"><title>N226&#45;&gt;N224</title>
<path fill="none" stroke="#4e9a06" stroke-width="2" d="M830,-164.141C830,-153.058 830,-138.518 830,-126.236"/>
<polygon fill="#4e9a06" stroke="#4e9a06" stroke-width="2" points="830,-118.55 833.375,-126.05 830.5,-122.3 830.5,-126.05 830,-126.05 829.5,-126.05 829.5,-122.3 826.625,-126.05 830,-118.55 830,-118.55"/>
<text text-anchor="middle" x="841.5" y="-139.6" font-family="FreeSans" font-size="8.00" fill="#4e9a06">LIKES</text>
</g>
<!-- N228 -->
<g id="node25" class="node"><title>N228</title>
<path fill="#ffffff" stroke="#2e3436" stroke-width="1.5" d="M921,-164.5C921,-164.5 951,-164.5 951,-164.5 957,-164.5 963,-170.5 963,-176.5 963,-176.5 963,-188.5 963,-188.5 963,-194.5 957,-200.5 951,-200.5 951,-200.5 921,-200.5 921,-200.5 915,-200.5 909,-194.5 909,-188.5 909,-188.5 909,-176.5 909,-176.5 909,-170.5 915,-164.5 921,-164.5"/>
<text text-anchor="middle" x="936" y="-189.6" font-family="FreeSans" font-size="8.00" fill="#1c2021">Node[228]</text>
<polyline fill="none" stroke="#2e3436" stroke-width="1.5" points="909,-182.5 963,-182.5 "/>
<text text-anchor="middle" x="936" y="-171.6" font-family="FreeSans" font-size="8.00" fill="#1c2021"> </text>
</g>
<!-- N229 -->
<g id="node26" class="node"><title>N229</title>
<path fill="#ffffff" stroke="#2e3436" stroke-width="1.5" d="M1015,-82.5C1015,-82.5 1045,-82.5 1045,-82.5 1051,-82.5 1057,-88.5 1057,-94.5 1057,-94.5 1057,-106.5 1057,-106.5 1057,-112.5 1051,-118.5 1045,-118.5 1045,-118.5 1015,-118.5 1015,-118.5 1009,-118.5 1003,-112.5 1003,-106.5 1003,-106.5 1003,-94.5 1003,-94.5 1003,-88.5 1009,-82.5 1015,-82.5"/>
<text text-anchor="middle" x="1030" y="-107.6" font-family="FreeSans" font-size="8.00" fill="#1c2021">Node[229]</text>
<polyline fill="none" stroke="#2e3436" stroke-width="1.5" points="1003,-100.5 1057,-100.5 "/>
<text text-anchor="middle" x="1030" y="-89.6" font-family="FreeSans" font-size="8.00" fill="#1c2021"> </text>
</g>
<!-- N232 -->
<g id="node27" class="node"><title>N232</title>
<path fill="#ffffff" stroke="#2e3436" stroke-width="1.5" d="M944,-0.5C944,-0.5 974,-0.5 974,-0.5 980,-0.5 986,-6.5 986,-12.5 986,-12.5 986,-24.5 986,-24.5 986,-30.5 980,-36.5 974,-36.5 974,-36.5 944,-36.5 944,-36.5 938,-36.5 932,-30.5 932,-24.5 932,-24.5 932,-12.5 932,-12.5 932,-6.5 938,-0.5 944,-0.5"/>
<text text-anchor="middle" x="959" y="-25.6" font-family="FreeSans" font-size="8.00" fill="#1c2021">Node[232]</text>
<polyline fill="none" stroke="#2e3436" stroke-width="1.5" points="932,-18.5 986,-18.5 "/>
<text text-anchor="middle" x="959" y="-7.6" font-family="FreeSans" font-size="8.00" fill="#1c2021"> </text>
</g>
<!-- N229&#45;&gt;N232 -->
<g id="edge16" class="edge"><title>N229&#45;&gt;N232</title>
<path fill="none" stroke="#2e3436" stroke-width="2" d="M1014.59,-82.1412C1004.29,-70.5305 990.617,-55.125 979.41,-42.4972"/>
<polygon fill="#2e3436" stroke="#2e3436" stroke-width="2" points="974.132,-36.5501 981.635,-39.9193 976.995,-39.0229 979.484,-41.8277 979.11,-42.1596 978.736,-42.4915 976.247,-39.6867 976.586,-44.3998 974.132,-36.5501 974.132,-36.5501"/>
<text text-anchor="middle" x="1011" y="-57.6" font-family="FreeSans" font-size="8.00" fill="#2e3436">HATES</text>
</g>
<!-- N230 -->
<g id="node28" class="node"><title>N230</title>
<path fill="#ffffff" stroke="#2e3436" stroke-width="1.5" d="M1027,-0.5C1027,-0.5 1057,-0.5 1057,-0.5 1063,-0.5 1069,-6.5 1069,-12.5 1069,-12.5 1069,-24.5 1069,-24.5 1069,-30.5 1063,-36.5 1057,-36.5 1057,-36.5 1027,-36.5 1027,-36.5 1021,-36.5 1015,-30.5 1015,-24.5 1015,-24.5 1015,-12.5 1015,-12.5 1015,-6.5 1021,-0.5 1027,-0.5"/>
<text text-anchor="middle" x="1042" y="-25.6" font-family="FreeSans" font-size="8.00" fill="#1c2021">Node[230]</text>
<polyline fill="none" stroke="#2e3436" stroke-width="1.5" points="1015,-18.5 1069,-18.5 "/>
<text text-anchor="middle" x="1042" y="-7.6" font-family="FreeSans" font-size="8.00" fill="#1c2021"> </text>
</g>
<!-- N229&#45;&gt;N230 -->
<g id="edge17" class="edge"><title>N229&#45;&gt;N230</title>
<path fill="none" stroke="#4e9a06" stroke-width="2" d="M1032.6,-82.1412C1034.27,-71.0583 1036.45,-56.5177 1038.29,-44.2358"/>
<polygon fill="#4e9a06" stroke="#4e9a06" stroke-width="2" points="1039.44,-36.5501 1041.67,-44.4678 1039.38,-40.3328 1038.82,-44.0413 1038.33,-43.9671 1037.84,-43.8929 1038.39,-40.1844 1034.99,-43.4664 1039.44,-36.5501 1039.44,-36.5501"/>
<text text-anchor="middle" x="1048.5" y="-57.6" font-family="FreeSans" font-size="8.00" fill="#4e9a06">LIKES</text>
</g>
<!-- N231 -->
<g id="node29" class="node"><title>N231</title>
<path fill="#ffffff" stroke="#2e3436" stroke-width="1.5" d="M1015,-164.5C1015,-164.5 1045,-164.5 1045,-164.5 1051,-164.5 1057,-170.5 1057,-176.5 1057,-176.5 1057,-188.5 1057,-188.5 1057,-194.5 1051,-200.5 1045,-200.5 1045,-200.5 1015,-200.5 1015,-200.5 1009,-200.5 1003,-194.5 1003,-188.5 1003,-188.5 1003,-176.5 1003,-176.5 1003,-170.5 1009,-164.5 1015,-164.5"/>
<text text-anchor="middle" x="1030" y="-189.6" font-family="FreeSans" font-size="8.00" fill="#1c2021">Node[231]</text>
<polyline fill="none" stroke="#2e3436" stroke-width="1.5" points="1003,-182.5 1057,-182.5 "/>
<text text-anchor="middle" x="1030" y="-171.6" font-family="FreeSans" font-size="8.00" fill="#1c2021"> </text>
</g>
<!-- N231&#45;&gt;N229 -->
<g id="edge18" class="edge"><title>N231&#45;&gt;N229</title>
<path fill="none" stroke="#4e9a06" stroke-width="2" d="M1030,-164.141C1030,-153.058 1030,-138.518 1030,-126.236"/>
<polygon fill="#4e9a06" stroke="#4e9a06" stroke-width="2" points="1030,-118.55 1033.38,-126.05 1030.5,-122.3 1030.5,-126.05 1030,-126.05 1029.5,-126.05 1029.5,-122.3 1026.63,-126.05 1030,-118.55 1030,-118.55"/>
<text text-anchor="middle" x="1041.5" y="-139.6" font-family="FreeSans" font-size="8.00" fill="#4e9a06">LIKES</text>
</g>
<!-- N233 -->
<g id="node30" class="node"><title>N233</title>
<path fill="#ffffff" stroke="#2e3436" stroke-width="1.5" d="M1101,-164.5C1101,-164.5 1131,-164.5 1131,-164.5 1137,-164.5 1143,-170.5 1143,-176.5 1143,-176.5 1143,-188.5 1143,-188.5 1143,-194.5 1137,-200.5 1131,-200.5 1131,-200.5 1101,-200.5 1101,-200.5 1095,-200.5 1089,-194.5 1089,-188.5 1089,-188.5 1089,-176.5 1089,-176.5 1089,-170.5 1095,-164.5 1101,-164.5"/>
<text text-anchor="middle" x="1116" y="-189.6" font-family="FreeSans" font-size="8.00" fill="#1c2021">Node[233]</text>
<polyline fill="none" stroke="#2e3436" stroke-width="1.5" points="1089,-182.5 1143,-182.5 "/>
<text text-anchor="middle" x="1116" y="-171.6" font-family="FreeSans" font-size="8.00" fill="#1c2021"> </text>
</g>
<!-- N234 -->
<g id="node31" class="node"><title>N234</title>
<path fill="#ffffff" stroke="#2e3436" stroke-width="1.5" d="M1187,-82.5C1187,-82.5 1217,-82.5 1217,-82.5 1223,-82.5 1229,-88.5 1229,-94.5 1229,-94.5 1229,-106.5 1229,-106.5 1229,-112.5 1223,-118.5 1217,-118.5 1217,-118.5 1187,-118.5 1187,-118.5 1181,-118.5 1175,-112.5 1175,-106.5 1175,-106.5 1175,-94.5 1175,-94.5 1175,-88.5 1181,-82.5 1187,-82.5"/>
<text text-anchor="middle" x="1202" y="-107.6" font-family="FreeSans" font-size="8.00" fill="#1c2021">Node[234]</text>
<polyline fill="none" stroke="#2e3436" stroke-width="1.5" points="1175,-100.5 1229,-100.5 "/>
<text text-anchor="middle" x="1202" y="-89.6" font-family="FreeSans" font-size="8.00" fill="#1c2021"> </text>
</g>
<!-- N237 -->
<g id="node32" class="node"><title>N237</title>
<path fill="#ffffff" stroke="#2e3436" stroke-width="1.5" d="M1110,-0.5C1110,-0.5 1140,-0.5 1140,-0.5 1146,-0.5 1152,-6.5 1152,-12.5 1152,-12.5 1152,-24.5 1152,-24.5 1152,-30.5 1146,-36.5 1140,-36.5 1140,-36.5 1110,-36.5 1110,-36.5 1104,-36.5 1098,-30.5 1098,-24.5 1098,-24.5 1098,-12.5 1098,-12.5 1098,-6.5 1104,-0.5 1110,-0.5"/>
<text text-anchor="middle" x="1125" y="-25.6" font-family="FreeSans" font-size="8.00" fill="#1c2021">Node[237]</text>
<polyline fill="none" stroke="#2e3436" stroke-width="1.5" points="1098,-18.5 1152,-18.5 "/>
<text text-anchor="middle" x="1125" y="-7.6" font-family="FreeSans" font-size="8.00" fill="#1c2021"> </text>
</g>
<!-- N234&#45;&gt;N237 -->
<g id="edge19" class="edge"><title>N234&#45;&gt;N237</title>
<path fill="none" stroke="#2e3436" stroke-width="2" d="M1185.29,-82.1412C1174.02,-70.425 1159.02,-54.8446 1146.8,-42.1535"/>
<polygon fill="#2e3436" stroke="#2e3436" stroke-width="2" points="1141.41,-36.5501 1149.04,-39.6133 1144.37,-38.9052 1146.97,-41.607 1146.61,-41.9538 1146.25,-42.3005 1143.65,-39.5987 1144.18,-44.2942 1141.41,-36.5501 1141.41,-36.5501"/>
<text text-anchor="middle" x="1180" y="-57.6" font-family="FreeSans" font-size="8.00" fill="#2e3436">HATES</text>
</g>
<!-- N235 -->
<g id="node33" class="node"><title>N235</title>
<path fill="#ffffff" stroke="#2e3436" stroke-width="1.5" d="M1193,-0.5C1193,-0.5 1223,-0.5 1223,-0.5 1229,-0.5 1235,-6.5 1235,-12.5 1235,-12.5 1235,-24.5 1235,-24.5 1235,-30.5 1229,-36.5 1223,-36.5 1223,-36.5 1193,-36.5 1193,-36.5 1187,-36.5 1181,-30.5 1181,-24.5 1181,-24.5 1181,-12.5 1181,-12.5 1181,-6.5 1187,-0.5 1193,-0.5"/>
<text text-anchor="middle" x="1208" y="-25.6" font-family="FreeSans" font-size="8.00" fill="#1c2021">Node[235]</text>
<polyline fill="none" stroke="#2e3436" stroke-width="1.5" points="1181,-18.5 1235,-18.5 "/>
<text text-anchor="middle" x="1208" y="-7.6" font-family="FreeSans" font-size="8.00" fill="#1c2021"> </text>
</g>
<!-- N234&#45;&gt;N235 -->
<g id="edge20" class="edge"><title>N234&#45;&gt;N235</title>
<path fill="none" stroke="#4e9a06" stroke-width="2" d="M1203.3,-82.1412C1204.13,-71.0583 1205.22,-56.5177 1206.14,-44.2358"/>
<polygon fill="#4e9a06" stroke="#4e9a06" stroke-width="2" points="1206.72,-36.5501 1209.53,-44.2815 1206.94,-40.327 1206.66,-44.0665 1206.16,-44.0291 1205.66,-43.9917 1205.94,-40.2522 1202.79,-43.7766 1206.72,-36.5501 1206.72,-36.5501"/>
<text text-anchor="middle" x="1216.5" y="-57.6" font-family="FreeSans" font-size="8.00" fill="#4e9a06">LIKES</text>
</g>
<!-- N236 -->
<g id="node34" class="node"><title>N236</title>
<path fill="#ffffff" stroke="#2e3436" stroke-width="1.5" d="M1187,-164.5C1187,-164.5 1217,-164.5 1217,-164.5 1223,-164.5 1229,-170.5 1229,-176.5 1229,-176.5 1229,-188.5 1229,-188.5 1229,-194.5 1223,-200.5 1217,-200.5 1217,-200.5 1187,-200.5 1187,-200.5 1181,-200.5 1175,-194.5 1175,-188.5 1175,-188.5 1175,-176.5 1175,-176.5 1175,-170.5 1181,-164.5 1187,-164.5"/>
<text text-anchor="middle" x="1202" y="-189.6" font-family="FreeSans" font-size="8.00" fill="#1c2021">Node[236]</text>
<polyline fill="none" stroke="#2e3436" stroke-width="1.5" points="1175,-182.5 1229,-182.5 "/>
<text text-anchor="middle" x="1202" y="-171.6" font-family="FreeSans" font-size="8.00" fill="#1c2021"> </text>
</g>
<!-- N236&#45;&gt;N234 -->
<g id="edge21" class="edge"><title>N236&#45;&gt;N234</title>
<path fill="none" stroke="#4e9a06" stroke-width="2" d="M1202,-164.141C1202,-153.058 1202,-138.518 1202,-126.236"/>
<polygon fill="#4e9a06" stroke="#4e9a06" stroke-width="2" points="1202,-118.55 1205.38,-126.05 1202.5,-122.3 1202.5,-126.05 1202,-126.05 1201.5,-126.05 1201.5,-122.3 1198.63,-126.05 1202,-118.55 1202,-118.55"/>
<text text-anchor="middle" x="1213.5" y="-139.6" font-family="FreeSans" font-size="8.00" fill="#4e9a06">LIKES</text>
</g>
<!-- N238 -->
<g id="node35" class="node"><title>N238</title>
<path fill="#ffffff" stroke="#2e3436" stroke-width="1.5" d="M1273,-164.5C1273,-164.5 1303,-164.5 1303,-164.5 1309,-164.5 1315,-170.5 1315,-176.5 1315,-176.5 1315,-188.5 1315,-188.5 1315,-194.5 1309,-200.5 1303,-200.5 1303,-200.5 1273,-200.5 1273,-200.5 1267,-200.5 1261,-194.5 1261,-188.5 1261,-188.5 1261,-176.5 1261,-176.5 1261,-170.5 1267,-164.5 1273,-164.5"/>
<text text-anchor="middle" x="1288" y="-189.6" font-family="FreeSans" font-size="8.00" fill="#1c2021">Node[238]</text>
<polyline fill="none" stroke="#2e3436" stroke-width="1.5" points="1261,-182.5 1315,-182.5 "/>
<text text-anchor="middle" x="1288" y="-171.6" font-family="FreeSans" font-size="8.00" fill="#1c2021"> </text>
</g>
<!-- N239 -->
<g id="node36" class="node"><title>N239</title>
<path fill="#ffffff" stroke="#2e3436" stroke-width="1.5" d="M1359,-82.5C1359,-82.5 1389,-82.5 1389,-82.5 1395,-82.5 1401,-88.5 1401,-94.5 1401,-94.5 1401,-106.5 1401,-106.5 1401,-112.5 1395,-118.5 1389,-118.5 1389,-118.5 1359,-118.5 1359,-118.5 1353,-118.5 1347,-112.5 1347,-106.5 1347,-106.5 1347,-94.5 1347,-94.5 1347,-88.5 1353,-82.5 1359,-82.5"/>
<text text-anchor="middle" x="1374" y="-107.6" font-family="FreeSans" font-size="8.00" fill="#1c2021">Node[239]</text>
<polyline fill="none" stroke="#2e3436" stroke-width="1.5" points="1347,-100.5 1401,-100.5 "/>
<text text-anchor="middle" x="1374" y="-89.6" font-family="FreeSans" font-size="8.00" fill="#1c2021"> </text>
</g>
<!-- N242 -->
<g id="node37" class="node"><title>N242</title>
<path fill="#ffffff" stroke="#2e3436" stroke-width="1.5" d="M1276,-0.5C1276,-0.5 1306,-0.5 1306,-0.5 1312,-0.5 1318,-6.5 1318,-12.5 1318,-12.5 1318,-24.5 1318,-24.5 1318,-30.5 1312,-36.5 1306,-36.5 1306,-36.5 1276,-36.5 1276,-36.5 1270,-36.5 1264,-30.5 1264,-24.5 1264,-24.5 1264,-12.5 1264,-12.5 1264,-6.5 1270,-0.5 1276,-0.5"/>
<text text-anchor="middle" x="1291" y="-25.6" font-family="FreeSans" font-size="8.00" fill="#1c2021">Node[242]</text>
<polyline fill="none" stroke="#2e3436" stroke-width="1.5" points="1264,-18.5 1318,-18.5 "/>
<text text-anchor="middle" x="1291" y="-7.6" font-family="FreeSans" font-size="8.00" fill="#1c2021"> </text>
</g>
<!-- N239&#45;&gt;N242 -->
<g id="edge22" class="edge"><title>N239&#45;&gt;N242</title>
<path fill="none" stroke="#2e3436" stroke-width="2" d="M1355.99,-82.1412C1343.73,-70.3194 1327.38,-54.5635 1314.15,-41.8112"/>
<polygon fill="#2e3436" stroke="#2e3436" stroke-width="2" points="1308.69,-36.5501 1316.43,-39.3249 1311.74,-38.7925 1314.44,-41.3949 1314.09,-41.7549 1313.74,-42.1149 1311.04,-39.5125 1311.75,-44.185 1308.69,-36.5501 1308.69,-36.5501"/>
<text text-anchor="middle" x="1348" y="-57.6" font-family="FreeSans" font-size="8.00" fill="#2e3436">HATES</text>
</g>
<!-- N240 -->
<g id="node38" class="node"><title>N240</title>
<path fill="#ffffff" stroke="#2e3436" stroke-width="1.5" d="M1359,-0.5C1359,-0.5 1389,-0.5 1389,-0.5 1395,-0.5 1401,-6.5 1401,-12.5 1401,-12.5 1401,-24.5 1401,-24.5 1401,-30.5 1395,-36.5 1389,-36.5 1389,-36.5 1359,-36.5 1359,-36.5 1353,-36.5 1347,-30.5 1347,-24.5 1347,-24.5 1347,-12.5 1347,-12.5 1347,-6.5 1353,-0.5 1359,-0.5"/>
<text text-anchor="middle" x="1374" y="-25.6" font-family="FreeSans" font-size="8.00" fill="#1c2021">Node[240]</text>
<polyline fill="none" stroke="#2e3436" stroke-width="1.5" points="1347,-18.5 1401,-18.5 "/>
<text text-anchor="middle" x="1374" y="-7.6" font-family="FreeSans" font-size="8.00" fill="#1c2021"> </text>
</g>
<!-- N239&#45;&gt;N240 -->
<g id="edge23" class="edge"><title>N239&#45;&gt;N240</title>
<path fill="none" stroke="#4e9a06" stroke-width="2" d="M1374,-82.1412C1374,-71.0583 1374,-56.5177 1374,-44.2358"/>
<polygon fill="#4e9a06" stroke="#4e9a06" stroke-width="2" points="1374,-36.5501 1377.38,-44.0501 1374.5,-40.3001 1374.5,-44.0501 1374,-44.0501 1373.5,-44.0501 1373.5,-40.3001 1370.63,-44.0501 1374,-36.5501 1374,-36.5501"/>
<text text-anchor="middle" x="1385.5" y="-57.6" font-family="FreeSans" font-size="8.00" fill="#4e9a06">LIKES</text>
</g>
<!-- N241 -->
<g id="node39" class="node"><title>N241</title>
<path fill="#ffffff" stroke="#2e3436" stroke-width="1.5" d="M1359,-164.5C1359,-164.5 1389,-164.5 1389,-164.5 1395,-164.5 1401,-170.5 1401,-176.5 1401,-176.5 1401,-188.5 1401,-188.5 1401,-194.5 1395,-200.5 1389,-200.5 1389,-200.5 1359,-200.5 1359,-200.5 1353,-200.5 1347,-194.5 1347,-188.5 1347,-188.5 1347,-176.5 1347,-176.5 1347,-170.5 1353,-164.5 1359,-164.5"/>
<text text-anchor="middle" x="1374" y="-189.6" font-family="FreeSans" font-size="8.00" fill="#1c2021">Node[241]</text>
<polyline fill="none" stroke="#2e3436" stroke-width="1.5" points="1347,-182.5 1401,-182.5 "/>
<text text-anchor="middle" x="1374" y="-171.6" font-family="FreeSans" font-size="8.00" fill="#1c2021"> </text>
</g>
<!-- N241&#45;&gt;N239 -->
<g id="edge24" class="edge"><title>N241&#45;&gt;N239</title>
<path fill="none" stroke="#4e9a06" stroke-width="2" d="M1374,-164.141C1374,-153.058 1374,-138.518 1374,-126.236"/>
<polygon fill="#4e9a06" stroke="#4e9a06" stroke-width="2" points="1374,-118.55 1377.38,-126.05 1374.5,-122.3 1374.5,-126.05 1374,-126.05 1373.5,-126.05 1373.5,-122.3 1370.63,-126.05 1374,-118.55 1374,-118.55"/>
<text text-anchor="middle" x="1385.5" y="-139.6" font-family="FreeSans" font-size="8.00" fill="#4e9a06">LIKES</text>
</g>
<!-- N243 -->
<g id="node40" class="node"><title>N243</title>
<path fill="#ffffff" stroke="#2e3436" stroke-width="1.5" d="M1442,-164.5C1442,-164.5 1472,-164.5 1472,-164.5 1478,-164.5 1484,-170.5 1484,-176.5 1484,-176.5 1484,-188.5 1484,-188.5 1484,-194.5 1478,-200.5 1472,-200.5 1472,-200.5 1442,-200.5 1442,-200.5 1436,-200.5 1430,-194.5 1430,-188.5 1430,-188.5 1430,-176.5 1430,-176.5 1430,-170.5 1436,-164.5 1442,-164.5"/>
<text text-anchor="middle" x="1457" y="-189.6" font-family="FreeSans" font-size="8.00" fill="#1c2021">Node[243]</text>
<polyline fill="none" stroke="#2e3436" stroke-width="1.5" points="1430,-182.5 1484,-182.5 "/>
<text text-anchor="middle" x="1457" y="-171.6" font-family="FreeSans" font-size="8.00" fill="#1c2021"> </text>
</g>
<!-- N244 -->
<g id="node41" class="node"><title>N244</title>
<path fill="#ffffff" stroke="#2e3436" stroke-width="1.5" d="M1525,-82.5C1525,-82.5 1555,-82.5 1555,-82.5 1561,-82.5 1567,-88.5 1567,-94.5 1567,-94.5 1567,-106.5 1567,-106.5 1567,-112.5 1561,-118.5 1555,-118.5 1555,-118.5 1525,-118.5 1525,-118.5 1519,-118.5 1513,-112.5 1513,-106.5 1513,-106.5 1513,-94.5 1513,-94.5 1513,-88.5 1519,-82.5 1525,-82.5"/>
<text text-anchor="middle" x="1540" y="-107.6" font-family="FreeSans" font-size="8.00" fill="#1c2021">Node[244]</text>
<polyline fill="none" stroke="#2e3436" stroke-width="1.5" points="1513,-100.5 1567,-100.5 "/>
<text text-anchor="middle" x="1540" y="-89.6" font-family="FreeSans" font-size="8.00" fill="#1c2021"> </text>
</g>
<!-- N247 -->
<g id="node42" class="node"><title>N247</title>
<path fill="#ffffff" stroke="#2e3436" stroke-width="1.5" d="M1484,-0.5C1484,-0.5 1514,-0.5 1514,-0.5 1520,-0.5 1526,-6.5 1526,-12.5 1526,-12.5 1526,-24.5 1526,-24.5 1526,-30.5 1520,-36.5 1514,-36.5 1514,-36.5 1484,-36.5 1484,-36.5 1478,-36.5 1472,-30.5 1472,-24.5 1472,-24.5 1472,-12.5 1472,-12.5 1472,-6.5 1478,-0.5 1484,-0.5"/>
<text text-anchor="middle" x="1499" y="-25.6" font-family="FreeSans" font-size="8.00" fill="#1c2021">Node[247]</text>
<polyline fill="none" stroke="#2e3436" stroke-width="1.5" points="1472,-18.5 1526,-18.5 "/>
<text text-anchor="middle" x="1499" y="-7.6" font-family="FreeSans" font-size="8.00" fill="#1c2021"> </text>
</g>
<!-- N244&#45;&gt;N247 -->
<g id="edge25" class="edge"><title>N244&#45;&gt;N247</title>
<path fill="none" stroke="#2e3436" stroke-width="2" d="M1528.72,-82.4709C1525.11,-76.7132 1521.21,-70.1768 1518,-64 1514.64,-57.5403 1511.38,-50.3549 1508.54,-43.6753"/>
<polygon fill="#2e3436" stroke="#2e3436" stroke-width="2" points="1505.63,-36.6839 1511.62,-42.3112 1507.53,-39.9539 1508.97,-43.416 1508.51,-43.6081 1508.05,-43.8002 1506.61,-40.3382 1505.39,-44.905 1505.63,-36.6839 1505.63,-36.6839"/>
<text text-anchor="middle" x="1532" y="-57.6" font-family="FreeSans" font-size="8.00" fill="#2e3436">HATES</text>
</g>
<!-- N245 -->
<g id="node43" class="node"><title>N245</title>
<path fill="#ffffff" stroke="#2e3436" stroke-width="1.5" d="M1567,-0.5C1567,-0.5 1597,-0.5 1597,-0.5 1603,-0.5 1609,-6.5 1609,-12.5 1609,-12.5 1609,-24.5 1609,-24.5 1609,-30.5 1603,-36.5 1597,-36.5 1597,-36.5 1567,-36.5 1567,-36.5 1561,-36.5 1555,-30.5 1555,-24.5 1555,-24.5 1555,-12.5 1555,-12.5 1555,-6.5 1561,-0.5 1567,-0.5"/>
<text text-anchor="middle" x="1582" y="-25.6" font-family="FreeSans" font-size="8.00" fill="#1c2021">Node[245]</text>
<polyline fill="none" stroke="#2e3436" stroke-width="1.5" points="1555,-18.5 1609,-18.5 "/>
<text text-anchor="middle" x="1582" y="-7.6" font-family="FreeSans" font-size="8.00" fill="#1c2021"> </text>
</g>
<!-- N244&#45;&gt;N245 -->
<g id="edge26" class="edge"><title>N244&#45;&gt;N245</title>
<path fill="none" stroke="#4e9a06" stroke-width="2" d="M1549.11,-82.1412C1555.04,-70.8472 1562.86,-55.9625 1569.38,-43.5365"/>
<polygon fill="#4e9a06" stroke="#4e9a06" stroke-width="2" points="1573.05,-36.5501 1572.55,-44.7594 1571.75,-40.1028 1570.01,-43.423 1569.56,-43.1906 1569.12,-42.9582 1570.86,-39.6379 1566.57,-41.6218 1573.05,-36.5501 1573.05,-36.5501"/>
<text text-anchor="middle" x="1573.5" y="-57.6" font-family="FreeSans" font-size="8.00" fill="#4e9a06">LIKES</text>
</g>
<!-- N246 -->
<g id="node44" class="node"><title>N246</title>
<path fill="#ffffff" stroke="#2e3436" stroke-width="1.5" d="M1525,-164.5C1525,-164.5 1555,-164.5 1555,-164.5 1561,-164.5 1567,-170.5 1567,-176.5 1567,-176.5 1567,-188.5 1567,-188.5 1567,-194.5 1561,-200.5 1555,-200.5 1555,-200.5 1525,-200.5 1525,-200.5 1519,-200.5 1513,-194.5 1513,-188.5 1513,-188.5 1513,-176.5 1513,-176.5 1513,-170.5 1519,-164.5 1525,-164.5"/>
<text text-anchor="middle" x="1540" y="-189.6" font-family="FreeSans" font-size="8.00" fill="#1c2021">Node[246]</text>
<polyline fill="none" stroke="#2e3436" stroke-width="1.5" points="1513,-182.5 1567,-182.5 "/>
<text text-anchor="middle" x="1540" y="-171.6" font-family="FreeSans" font-size="8.00" fill="#1c2021"> </text>
</g>
<!-- N246&#45;&gt;N244 -->
<g id="edge27" class="edge"><title>N246&#45;&gt;N244</title>
<path fill="none" stroke="#4e9a06" stroke-width="2" d="M1540,-164.141C1540,-153.058 1540,-138.518 1540,-126.236"/>
<polygon fill="#4e9a06" stroke="#4e9a06" stroke-width="2" points="1540,-118.55 1543.38,-126.05 1540.5,-122.3 1540.5,-126.05 1540,-126.05 1539.5,-126.05 1539.5,-122.3 1536.63,-126.05 1540,-118.55 1540,-118.55"/>
<text text-anchor="middle" x="1551.5" y="-139.6" font-family="FreeSans" font-size="8.00" fill="#4e9a06">LIKES</text>
</g>
<!-- N248 -->
<g id="node45" class="node"><title>N248</title>
<path fill="#ffffff" stroke="#2e3436" stroke-width="1.5" d="M1608,-164.5C1608,-164.5 1638,-164.5 1638,-164.5 1644,-164.5 1650,-170.5 1650,-176.5 1650,-176.5 1650,-188.5 1650,-188.5 1650,-194.5 1644,-200.5 1638,-200.5 1638,-200.5 1608,-200.5 1608,-200.5 1602,-200.5 1596,-194.5 1596,-188.5 1596,-188.5 1596,-176.5 1596,-176.5 1596,-170.5 1602,-164.5 1608,-164.5"/>
<text text-anchor="middle" x="1623" y="-189.6" font-family="FreeSans" font-size="8.00" fill="#1c2021">Node[248]</text>
<polyline fill="none" stroke="#2e3436" stroke-width="1.5" points="1596,-182.5 1650,-182.5 "/>
<text text-anchor="middle" x="1623" y="-171.6" font-family="FreeSans" font-size="8.00" fill="#1c2021"> </text>
</g>
<!-- N249 -->
<g id="node46" class="node"><title>N249</title>
<path fill="#ffffff" stroke="#2e3436" stroke-width="1.5" d="M1691,-82.5C1691,-82.5 1721,-82.5 1721,-82.5 1727,-82.5 1733,-88.5 1733,-94.5 1733,-94.5 1733,-106.5 1733,-106.5 1733,-112.5 1727,-118.5 1721,-118.5 1721,-118.5 1691,-118.5 1691,-118.5 1685,-118.5 1679,-112.5 1679,-106.5 1679,-106.5 1679,-94.5 1679,-94.5 1679,-88.5 1685,-82.5 1691,-82.5"/>
<text text-anchor="middle" x="1706" y="-107.6" font-family="FreeSans" font-size="8.00" fill="#1c2021">Node[249]</text>
<polyline fill="none" stroke="#2e3436" stroke-width="1.5" points="1679,-100.5 1733,-100.5 "/>
<text text-anchor="middle" x="1706" y="-89.6" font-family="FreeSans" font-size="8.00" fill="#1c2021"> </text>
</g>
<!-- N252 -->
<g id="node47" class="node"><title>N252</title>
<path fill="#ffffff" stroke="#2e3436" stroke-width="1.5" d="M1691,-0.5C1691,-0.5 1721,-0.5 1721,-0.5 1727,-0.5 1733,-6.5 1733,-12.5 1733,-12.5 1733,-24.5 1733,-24.5 1733,-30.5 1727,-36.5 1721,-36.5 1721,-36.5 1691,-36.5 1691,-36.5 1685,-36.5 1679,-30.5 1679,-24.5 1679,-24.5 1679,-12.5 1679,-12.5 1679,-6.5 1685,-0.5 1691,-0.5"/>
<text text-anchor="middle" x="1706" y="-25.6" font-family="FreeSans" font-size="8.00" fill="#1c2021">Node[252]</text>
<polyline fill="none" stroke="#2e3436" stroke-width="1.5" points="1679,-18.5 1733,-18.5 "/>
<text text-anchor="middle" x="1706" y="-7.6" font-family="FreeSans" font-size="8.00" fill="#1c2021"> </text>
</g>
<!-- N249&#45;&gt;N252 -->
<g id="edge28" class="edge"><title>N249&#45;&gt;N252</title>
<path fill="none" stroke="#2e3436" stroke-width="2" d="M1706,-82.1412C1706,-71.0583 1706,-56.5177 1706,-44.2358"/>
<polygon fill="#2e3436" stroke="#2e3436" stroke-width="2" points="1706,-36.5501 1709.38,-44.0501 1706.5,-40.3001 1706.5,-44.0501 1706,-44.0501 1705.5,-44.0501 1705.5,-40.3001 1702.63,-44.0501 1706,-36.5501 1706,-36.5501"/>
<text text-anchor="middle" x="1720" y="-57.6" font-family="FreeSans" font-size="8.00" fill="#2e3436">HATES</text>
</g>
<!-- N250 -->
<g id="node48" class="node"><title>N250</title>
<path fill="#ffffff" stroke="#2e3436" stroke-width="1.5" d="M1774,-0.5C1774,-0.5 1804,-0.5 1804,-0.5 1810,-0.5 1816,-6.5 1816,-12.5 1816,-12.5 1816,-24.5 1816,-24.5 1816,-30.5 1810,-36.5 1804,-36.5 1804,-36.5 1774,-36.5 1774,-36.5 1768,-36.5 1762,-30.5 1762,-24.5 1762,-24.5 1762,-12.5 1762,-12.5 1762,-6.5 1768,-0.5 1774,-0.5"/>
<text text-anchor="middle" x="1789" y="-25.6" font-family="FreeSans" font-size="8.00" fill="#1c2021">Node[250]</text>
<polyline fill="none" stroke="#2e3436" stroke-width="1.5" points="1762,-18.5 1816,-18.5 "/>
<text text-anchor="middle" x="1789" y="-7.6" font-family="FreeSans" font-size="8.00" fill="#1c2021"> </text>
</g>
<!-- N249&#45;&gt;N250 -->
<g id="edge29" class="edge"><title>N249&#45;&gt;N250</title>
<path fill="none" stroke="#4e9a06" stroke-width="2" d="M1724.01,-82.1412C1736.27,-70.3194 1752.62,-54.5635 1765.85,-41.8112"/>
<polygon fill="#4e9a06" stroke="#4e9a06" stroke-width="2" points="1771.31,-36.5501 1768.25,-44.185 1768.96,-39.5125 1766.26,-42.1149 1765.91,-41.7549 1765.56,-41.3949 1768.26,-38.7925 1763.57,-39.3249 1771.31,-36.5501 1771.31,-36.5501"/>
<text text-anchor="middle" x="1760.5" y="-57.6" font-family="FreeSans" font-size="8.00" fill="#4e9a06">LIKES</text>
</g>
<!-- N251 -->
<g id="node49" class="node"><title>N251</title>
<path fill="#ffffff" stroke="#2e3436" stroke-width="1.5" d="M1691,-164.5C1691,-164.5 1721,-164.5 1721,-164.5 1727,-164.5 1733,-170.5 1733,-176.5 1733,-176.5 1733,-188.5 1733,-188.5 1733,-194.5 1727,-200.5 1721,-200.5 1721,-200.5 1691,-200.5 1691,-200.5 1685,-200.5 1679,-194.5 1679,-188.5 1679,-188.5 1679,-176.5 1679,-176.5 1679,-170.5 1685,-164.5 1691,-164.5"/>
<text text-anchor="middle" x="1706" y="-189.6" font-family="FreeSans" font-size="8.00" fill="#1c2021">Node[251]</text>
<polyline fill="none" stroke="#2e3436" stroke-width="1.5" points="1679,-182.5 1733,-182.5 "/>
<text text-anchor="middle" x="1706" y="-171.6" font-family="FreeSans" font-size="8.00" fill="#1c2021"> </text>
</g>
<!-- N251&#45;&gt;N249 -->
<g id="edge30" class="edge"><title>N251&#45;&gt;N249</title>
<path fill="none" stroke="#4e9a06" stroke-width="2" d="M1706,-164.141C1706,-153.058 1706,-138.518 1706,-126.236"/>
<polygon fill="#4e9a06" stroke="#4e9a06" stroke-width="2" points="1706,-118.55 1709.38,-126.05 1706.5,-122.3 1706.5,-126.05 1706,-126.05 1705.5,-126.05 1705.5,-122.3 1702.63,-126.05 1706,-118.55 1706,-118.55"/>
<text text-anchor="middle" x="1717.5" y="-139.6" font-family="FreeSans" font-size="8.00" fill="#4e9a06">LIKES</text>
</g>
<!-- N253 -->
<g id="node50" class="node"><title>N253</title>
<path fill="#ffffff" stroke="#2e3436" stroke-width="1.5" d="M1774,-164.5C1774,-164.5 1804,-164.5 1804,-164.5 1810,-164.5 1816,-170.5 1816,-176.5 1816,-176.5 1816,-188.5 1816,-188.5 1816,-194.5 1810,-200.5 1804,-200.5 1804,-200.5 1774,-200.5 1774,-200.5 1768,-200.5 1762,-194.5 1762,-188.5 1762,-188.5 1762,-176.5 1762,-176.5 1762,-170.5 1768,-164.5 1774,-164.5"/>
<text text-anchor="middle" x="1789" y="-189.6" font-family="FreeSans" font-size="8.00" fill="#1c2021">Node[253]</text>
<polyline fill="none" stroke="#2e3436" stroke-width="1.5" points="1762,-182.5 1816,-182.5 "/>
<text text-anchor="middle" x="1789" y="-171.6" font-family="FreeSans" font-size="8.00" fill="#1c2021"> </text>
</g>
</g>
</svg>
