<?xml version="1.0" encoding="UTF-8" standalone="no"?>
<!DOCTYPE svg PUBLIC "-//W3C//DTD SVG 1.1//EN"
 "http://www.w3.org/Graphics/SVG/1.1/DTD/svg11.dtd">
<!-- Generated by graphviz version 2.38.0 (20140413.2041)
 -->
<!-- Title: g Pages: 1 -->
<svg width="318pt" height="127pt"
 viewBox="0.00 0.00 318.00 127.00" xmlns="http://www.w3.org/2000/svg" xmlns:xlink="http://www.w3.org/1999/xlink">
<g id="graph0" class="graph" transform="scale(1 1) rotate(0) translate(4 123)">
<title>g</title>
<polygon fill="white" stroke="none" points="-4,4 -4,-123 314,-123 314,4 -4,4"/>
<!-- N47 -->
<g id="node1" class="node"><title>N47</title>
<path fill="#ffffff" stroke="#2e3436" stroke-width="1.5" d="M12,-0.5C12,-0.5 42,-0.5 42,-0.5 48,-0.5 54,-6.5 54,-12.5 54,-12.5 54,-24.5 54,-24.5 54,-30.5 48,-36.5 42,-36.5 42,-36.5 12,-36.5 12,-36.5 6,-36.5 0,-30.5 0,-24.5 0,-24.5 0,-12.5 0,-12.5 0,-6.5 6,-0.5 12,-0.5"/>
<text text-anchor="middle" x="27" y="-25.6" font-family="FreeSans" font-size="8.00" fill="#1c2021">Node[47]</text>
<polyline fill="none" stroke="#2e3436" stroke-width="1.5" points="0,-18.5 54,-18.5 "/>
<text text-anchor="start" x="8" y="-7.6" font-family="FreeSans" font-size="8.00" fill="#1c2021">ID = &#39;fra&#39;</text>
</g>
<!-- N48 -->
<g id="node2" class="node"><title>N48</title>
<path fill="#ffffff" stroke="#2e3436" stroke-width="1.5" d="M12,-82.5C12,-82.5 42,-82.5 42,-82.5 48,-82.5 54,-88.5 54,-94.5 54,-94.5 54,-106.5 54,-106.5 54,-112.5 48,-118.5 42,-118.5 42,-118.5 12,-118.5 12,-118.5 6,-118.5 0,-112.5 0,-106.5 0,-106.5 0,-94.5 0,-94.5 0,-88.5 6,-82.5 12,-82.5"/>
<text text-anchor="middle" x="27" y="-107.6" font-family="FreeSans" font-size="8.00" fill="#1c2021">Node[48]</text>
<polyline fill="none" stroke="#2e3436" stroke-width="1.5" points="0,-100.5 54,-100.5 "/>
<text text-anchor="middle" x="27" y="-89.6" font-family="FreeSans" font-size="8.00" fill="#1c2021"> </text>
</g>
<!-- N48&#45;&gt;N47 -->
<g id="edge1" class="edge"><title>N48&#45;&gt;N47</title>
<path fill="none" stroke="#2e3436" stroke-width="2" d="M27,-82.1412C27,-71.0583 27,-56.5177 27,-44.2358"/>
<polygon fill="#2e3436" stroke="#2e3436" stroke-width="2" points="27,-36.5501 30.3751,-44.0501 27.5,-40.3001 27.5001,-44.0501 27.0001,-44.0501 26.5001,-44.0501 26.5,-40.3001 23.6251,-44.0501 27,-36.5501 27,-36.5501"/>
<text text-anchor="middle" x="33.5" y="-57.6" font-family="FreeSans" font-size="8.00" fill="#2e3436">has</text>
</g>
<!-- N49 -->
<g id="node3" class="node"><title>N49</title>
<path fill="#ffffff" stroke="#2e3436" stroke-width="1.5" d="M95.5,-0.5C95.5,-0.5 138.5,-0.5 138.5,-0.5 144.5,-0.5 150.5,-6.5 150.5,-12.5 150.5,-12.5 150.5,-24.5 150.5,-24.5 150.5,-30.5 144.5,-36.5 138.5,-36.5 138.5,-36.5 95.5,-36.5 95.5,-36.5 89.5,-36.5 83.5,-30.5 83.5,-24.5 83.5,-24.5 83.5,-12.5 83.5,-12.5 83.5,-6.5 89.5,-0.5 95.5,-0.5"/>
<text text-anchor="middle" x="117" y="-25.6" font-family="FreeSans" font-size="8.00" fill="#1c2021">Node[49]</text>
<polyline fill="none" stroke="#2e3436" stroke-width="1.5" points="83.5,-18.5 150.5,-18.5 "/>
<text text-anchor="start" x="91.5" y="-7.6" font-family="FreeSans" font-size="8.00" fill="#1c2021">name = &#39;John&#39;</text>
</g>
<!-- N50 -->
<g id="node4" class="node"><title>N50</title>
<path fill="#ffffff" stroke="#2e3436" stroke-width="1.5" d="M102,-82.5C102,-82.5 132,-82.5 132,-82.5 138,-82.5 144,-88.5 144,-94.5 144,-94.5 144,-106.5 144,-106.5 144,-112.5 138,-118.5 132,-118.5 132,-118.5 102,-118.5 102,-118.5 96,-118.5 90,-112.5 90,-106.5 90,-106.5 90,-94.5 90,-94.5 90,-88.5 96,-82.5 102,-82.5"/>
<text text-anchor="middle" x="117" y="-107.6" font-family="FreeSans" font-size="8.00" fill="#1c2021">Node[50]</text>
<polyline fill="none" stroke="#2e3436" stroke-width="1.5" points="90,-100.5 144,-100.5 "/>
<text text-anchor="start" x="98" y="-89.6" font-family="FreeSans" font-size="8.00" fill="#1c2021">age = 1</text>
</g>
<!-- N50&#45;&gt;N49 -->
<g id="edge2" class="edge"><title>N50&#45;&gt;N49</title>
<path fill="none" stroke="#4e9a06" stroke-width="2" d="M117,-82.1412C117,-71.0583 117,-56.5177 117,-44.2358"/>
<polygon fill="#4e9a06" stroke="#4e9a06" stroke-width="2" points="117,-36.5501 120.375,-44.0501 117.5,-40.3001 117.5,-44.0501 117,-44.0501 116.5,-44.0501 116.5,-40.3001 113.625,-44.0501 117,-36.5501 117,-36.5501"/>
<text text-anchor="middle" x="129" y="-57.6" font-family="FreeSans" font-size="8.00" fill="#4e9a06">knows</text>
</g>
<!-- N51 -->
<g id="node5" class="node"><title>N51</title>
<path fill="#ffffff" stroke="#2e3436" stroke-width="1.5" d="M185,-82.5C185,-82.5 215,-82.5 215,-82.5 221,-82.5 227,-88.5 227,-94.5 227,-94.5 227,-106.5 227,-106.5 227,-112.5 221,-118.5 215,-118.5 215,-118.5 185,-118.5 185,-118.5 179,-118.5 173,-112.5 173,-106.5 173,-106.5 173,-94.5 173,-94.5 173,-88.5 179,-82.5 185,-82.5"/>
<text text-anchor="middle" x="200" y="-107.6" font-family="FreeSans" font-size="8.00" fill="#1c2021">Node[51]</text>
<polyline fill="none" stroke="#2e3436" stroke-width="1.5" points="173,-100.5 227,-100.5 "/>
<text text-anchor="start" x="181" y="-89.6" font-family="FreeSans" font-size="8.00" fill="#1c2021">age = 1</text>
</g>
<!-- N52 -->
<g id="node6" class="node"><title>N52</title>
<path fill="#ffffff" stroke="#2e3436" stroke-width="1.5" d="M268,-82.5C268,-82.5 298,-82.5 298,-82.5 304,-82.5 310,-88.5 310,-94.5 310,-94.5 310,-106.5 310,-106.5 310,-112.5 304,-118.5 298,-118.5 298,-118.5 268,-118.5 268,-118.5 262,-118.5 256,-112.5 256,-106.5 256,-106.5 256,-94.5 256,-94.5 256,-88.5 262,-82.5 268,-82.5"/>
<text text-anchor="middle" x="283" y="-107.6" font-family="FreeSans" font-size="8.00" fill="#1c2021">Node[52]</text>
<polyline fill="none" stroke="#2e3436" stroke-width="1.5" points="256,-100.5 310,-100.5 "/>
<text text-anchor="start" x="264" y="-89.6" font-family="FreeSans" font-size="8.00" fill="#1c2021">age = 1</text>
</g>
</g>
</svg>
