<?xml version="1.0" encoding="UTF-8" standalone="no"?>
<!DOCTYPE svg PUBLIC "-//W3C//DTD SVG 1.1//EN"
 "http://www.w3.org/Graphics/SVG/1.1/DTD/svg11.dtd">
<!-- Generated by graphviz version 2.38.0 (20140413.2041)
 -->
<!-- Title: g Pages: 1 -->
<svg width="295pt" height="373pt"
 viewBox="0.00 0.00 295.00 373.00" xmlns="http://www.w3.org/2000/svg" xmlns:xlink="http://www.w3.org/1999/xlink">
<g id="graph0" class="graph" transform="scale(1 1) rotate(0) translate(4 369)">
<title>g</title>
<polygon fill="white" stroke="none" points="-4,4 -4,-369 291,-369 291,4 -4,4"/>
<!-- N13 -->
<g id="node1" class="node"><title>N13</title>
<path fill="#ffffff" stroke="#2e3436" stroke-width="1.5" d="M219,-82.5C219,-82.5 249,-82.5 249,-82.5 255,-82.5 261,-88.5 261,-94.5 261,-94.5 261,-106.5 261,-106.5 261,-112.5 255,-118.5 249,-118.5 249,-118.5 219,-118.5 219,-118.5 213,-118.5 207,-112.5 207,-106.5 207,-106.5 207,-94.5 207,-94.5 207,-88.5 213,-82.5 219,-82.5"/>
<text text-anchor="middle" x="234" y="-107.6" font-family="FreeSans" font-size="8.00" fill="#1c2021">Node[13]</text>
<polyline fill="none" stroke="#2e3436" stroke-width="1.5" points="207,-100.5 261,-100.5 "/>
<text text-anchor="start" x="215" y="-89.6" font-family="FreeSans" font-size="8.00" fill="#1c2021">name = &#39;f&#39;</text>
</g>
<!-- N14 -->
<g id="node2" class="node"><title>N14</title>
<path fill="#ffffff" stroke="#2e3436" stroke-width="1.5" d="M122,-0.5C122,-0.5 152,-0.5 152,-0.5 158,-0.5 164,-6.5 164,-12.5 164,-12.5 164,-24.5 164,-24.5 164,-30.5 158,-36.5 152,-36.5 152,-36.5 122,-36.5 122,-36.5 116,-36.5 110,-30.5 110,-24.5 110,-24.5 110,-12.5 110,-12.5 110,-6.5 116,-0.5 122,-0.5"/>
<text text-anchor="middle" x="137" y="-25.6" font-family="FreeSans" font-size="8.00" fill="#1c2021">Node[14]</text>
<polyline fill="none" stroke="#2e3436" stroke-width="1.5" points="110,-18.5 164,-18.5 "/>
<text text-anchor="start" x="118" y="-7.6" font-family="FreeSans" font-size="8.00" fill="#1c2021">name = &#39;g&#39;</text>
</g>
<!-- N13&#45;&gt;N14 -->
<g id="edge1" class="edge"><title>N13&#45;&gt;N14</title>
<path fill="none" stroke="#2e3436" stroke-width="2" d="M215.774,-82.1456C206.713,-73.7271 195.483,-63.6006 185,-55 179.468,-50.4619 173.43,-45.7899 167.56,-41.3862"/>
<polygon fill="#2e3436" stroke="#2e3436" stroke-width="2" points="161.288,-36.7321 169.323,-38.4915 164.598,-38.5654 167.609,-40.8002 167.311,-41.2017 167.013,-41.6032 164.002,-39.3684 165.3,-43.9119 161.288,-36.7321 161.288,-36.7321"/>
<text text-anchor="middle" x="197.5" y="-57.6" font-family="FreeSans" font-size="8.00" fill="#2e3436">to</text>
</g>
<!-- N15 -->
<g id="node3" class="node"><title>N15</title>
<path fill="#ffffff" stroke="#2e3436" stroke-width="1.5" d="M77,-164.5C77,-164.5 107,-164.5 107,-164.5 113,-164.5 119,-170.5 119,-176.5 119,-176.5 119,-188.5 119,-188.5 119,-194.5 113,-200.5 107,-200.5 107,-200.5 77,-200.5 77,-200.5 71,-200.5 65,-194.5 65,-188.5 65,-188.5 65,-176.5 65,-176.5 65,-170.5 71,-164.5 77,-164.5"/>
<text text-anchor="middle" x="92" y="-189.6" font-family="FreeSans" font-size="8.00" fill="#1c2021">Node[15]</text>
<polyline fill="none" stroke="#2e3436" stroke-width="1.5" points="65,-182.5 119,-182.5 "/>
<text text-anchor="start" x="73" y="-171.6" font-family="FreeSans" font-size="8.00" fill="#1c2021">name = &#39;d&#39;</text>
</g>
<!-- N15&#45;&gt;N14 -->
<g id="edge2" class="edge"><title>N15&#45;&gt;N14</title>
<path fill="none" stroke="#2e3436" stroke-width="2" d="M96.7307,-164.469C104.711,-135.74 120.879,-77.5348 130.117,-44.2791"/>
<polygon fill="#2e3436" stroke="#2e3436" stroke-width="2" points="132.197,-36.79 133.442,-44.9198 131.675,-40.5371 130.672,-44.1503 130.19,-44.0164 129.708,-43.8826 130.712,-40.2694 126.938,-43.1131 132.197,-36.79 132.197,-36.79"/>
<text text-anchor="middle" x="121.5" y="-98.6" font-family="FreeSans" font-size="8.00" fill="#2e3436">to</text>
</g>
<!-- N16 -->
<g id="node4" class="node"><title>N16</title>
<path fill="#ffffff" stroke="#2e3436" stroke-width="1.5" d="M12,-82.5C12,-82.5 42,-82.5 42,-82.5 48,-82.5 54,-88.5 54,-94.5 54,-94.5 54,-106.5 54,-106.5 54,-112.5 48,-118.5 42,-118.5 42,-118.5 12,-118.5 12,-118.5 6,-118.5 0,-112.5 0,-106.5 0,-106.5 0,-94.5 0,-94.5 0,-88.5 6,-82.5 12,-82.5"/>
<text text-anchor="middle" x="27" y="-107.6" font-family="FreeSans" font-size="8.00" fill="#1c2021">Node[16]</text>
<polyline fill="none" stroke="#2e3436" stroke-width="1.5" points="0,-100.5 54,-100.5 "/>
<text text-anchor="start" x="8" y="-89.6" font-family="FreeSans" font-size="8.00" fill="#1c2021">name = &#39;e&#39;</text>
</g>
<!-- N15&#45;&gt;N16 -->
<g id="edge3" class="edge"><title>N15&#45;&gt;N16</title>
<path fill="none" stroke="#2e3436" stroke-width="2" d="M77.896,-164.141C68.4623,-152.531 55.9453,-137.125 45.6853,-124.497"/>
<polygon fill="#2e3436" stroke="#2e3436" stroke-width="2" points="40.8532,-118.55 48.2021,-122.243 43.606,-121.145 45.9707,-124.056 45.5827,-124.371 45.1946,-124.686 42.8299,-121.776 42.9633,-126.499 40.8532,-118.55 40.8532,-118.55"/>
<text text-anchor="middle" x="65.5" y="-139.6" font-family="FreeSans" font-size="8.00" fill="#2e3436">to</text>
</g>
<!-- N16&#45;&gt;N14 -->
<g id="edge4" class="edge"><title>N16&#45;&gt;N14</title>
<path fill="none" stroke="#2e3436" stroke-width="2" d="M47.6632,-82.3514C58.087,-73.8892 71.0291,-63.6644 83,-55 89.6105,-50.2154 96.8238,-45.2838 103.764,-40.6752"/>
<polygon fill="#2e3436" stroke="#2e3436" stroke-width="2" points="110.035,-36.5469 105.626,-43.4898 107.178,-39.0265 104.045,-41.0884 103.77,-40.6707 103.495,-40.2531 106.628,-38.1912 101.915,-37.8517 110.035,-36.5469 110.035,-36.5469"/>
<text text-anchor="middle" x="86.5" y="-57.6" font-family="FreeSans" font-size="8.00" fill="#2e3436">to</text>
</g>
<!-- N17 -->
<g id="node5" class="node"><title>N17</title>
<path fill="#ffffff" stroke="#2e3436" stroke-width="1.5" d="M219,-164.5C219,-164.5 249,-164.5 249,-164.5 255,-164.5 261,-170.5 261,-176.5 261,-176.5 261,-188.5 261,-188.5 261,-194.5 255,-200.5 249,-200.5 249,-200.5 219,-200.5 219,-200.5 213,-200.5 207,-194.5 207,-188.5 207,-188.5 207,-176.5 207,-176.5 207,-170.5 213,-164.5 219,-164.5"/>
<text text-anchor="middle" x="234" y="-189.6" font-family="FreeSans" font-size="8.00" fill="#1c2021">Node[17]</text>
<polyline fill="none" stroke="#2e3436" stroke-width="1.5" points="207,-182.5 261,-182.5 "/>
<text text-anchor="start" x="215" y="-171.6" font-family="FreeSans" font-size="8.00" fill="#1c2021">name = &#39;b&#39;</text>
</g>
<!-- N17&#45;&gt;N13 -->
<g id="edge5" class="edge"><title>N17&#45;&gt;N13</title>
<path fill="none" stroke="#2e3436" stroke-width="2" d="M234,-164.141C234,-153.058 234,-138.518 234,-126.236"/>
<polygon fill="#2e3436" stroke="#2e3436" stroke-width="2" points="234,-118.55 237.375,-126.05 234.5,-122.3 234.5,-126.05 234,-126.05 233.5,-126.05 233.5,-122.3 230.625,-126.05 234,-118.55 234,-118.55"/>
<text text-anchor="middle" x="237.5" y="-139.6" font-family="FreeSans" font-size="8.00" fill="#2e3436">to</text>
</g>
<!-- N18 -->
<g id="node6" class="node"><title>N18</title>
<path fill="#ffffff" stroke="#2e3436" stroke-width="1.5" d="M185,-246.5C185,-246.5 215,-246.5 215,-246.5 221,-246.5 227,-252.5 227,-258.5 227,-258.5 227,-270.5 227,-270.5 227,-276.5 221,-282.5 215,-282.5 215,-282.5 185,-282.5 185,-282.5 179,-282.5 173,-276.5 173,-270.5 173,-270.5 173,-258.5 173,-258.5 173,-252.5 179,-246.5 185,-246.5"/>
<text text-anchor="middle" x="200" y="-271.6" font-family="FreeSans" font-size="8.00" fill="#1c2021">Node[18]</text>
<polyline fill="none" stroke="#2e3436" stroke-width="1.5" points="173,-264.5 227,-264.5 "/>
<text text-anchor="start" x="181" y="-253.6" font-family="FreeSans" font-size="8.00" fill="#1c2021">name = &#39;c&#39;</text>
</g>
<!-- N18&#45;&gt;N13 -->
<g id="edge7" class="edge"><title>N18&#45;&gt;N13</title>
<path fill="none" stroke="#2e3436" stroke-width="2" d="M227.138,-249.491C244.633,-238.813 265.931,-222.316 276,-201 288.192,-175.188 271.027,-144.885 255.111,-124.562"/>
<polygon fill="#2e3436" stroke="#2e3436" stroke-width="2" points="250.246,-118.592 257.6,-122.274 253.002,-121.183 255.371,-124.09 254.984,-124.406 254.596,-124.722 252.227,-121.815 252.368,-126.538 250.246,-118.592 250.246,-118.592"/>
<text text-anchor="middle" x="283.5" y="-180.6" font-family="FreeSans" font-size="8.00" fill="#2e3436">to</text>
</g>
<!-- N18&#45;&gt;N14 -->
<g id="edge6" class="edge"><title>N18&#45;&gt;N14</title>
<path fill="none" stroke="#2e3436" stroke-width="2" d="M195.57,-246.342C184.59,-203.817 156.087,-93.4237 143.332,-44.0236"/>
<polygon fill="#2e3436" stroke="#2e3436" stroke-width="2" points="141.425,-36.6386 146.568,-43.0567 142.847,-40.1446 143.784,-43.7755 143.3,-43.9005 142.816,-44.0255 141.879,-40.3946 140.032,-44.7443 141.425,-36.6386 141.425,-36.6386"/>
<text text-anchor="middle" x="172.5" y="-139.6" font-family="FreeSans" font-size="8.00" fill="#2e3436">to</text>
</g>
<!-- N18&#45;&gt;N17 -->
<g id="edge8" class="edge"><title>N18&#45;&gt;N17</title>
<path fill="none" stroke="#2e3436" stroke-width="2" d="M207.377,-246.141C212.177,-234.847 218.503,-219.962 223.784,-207.536"/>
<polygon fill="#2e3436" stroke="#2e3436" stroke-width="2" points="226.754,-200.55 226.926,-208.773 225.747,-204.197 224.28,-207.648 223.82,-207.453 223.36,-207.257 224.827,-203.806 220.714,-206.132 226.754,-200.55 226.754,-200.55"/>
<text text-anchor="middle" x="221.5" y="-221.6" font-family="FreeSans" font-size="8.00" fill="#2e3436">to</text>
</g>
<!-- N19 -->
<g id="node7" class="node"><title>N19</title>
<path fill="#ffffff" stroke="#2e3436" stroke-width="1.5" d="M132,-328.5C132,-328.5 162,-328.5 162,-328.5 168,-328.5 174,-334.5 174,-340.5 174,-340.5 174,-352.5 174,-352.5 174,-358.5 168,-364.5 162,-364.5 162,-364.5 132,-364.5 132,-364.5 126,-364.5 120,-358.5 120,-352.5 120,-352.5 120,-340.5 120,-340.5 120,-334.5 126,-328.5 132,-328.5"/>
<text text-anchor="middle" x="147" y="-353.6" font-family="FreeSans" font-size="8.00" fill="#1c2021">Node[19]</text>
<polyline fill="none" stroke="#2e3436" stroke-width="1.5" points="120,-346.5 174,-346.5 "/>
<text text-anchor="start" x="128" y="-335.6" font-family="FreeSans" font-size="8.00" fill="#1c2021">name = &#39;a&#39;</text>
</g>
<!-- N19&#45;&gt;N15 -->
<g id="edge9" class="edge"><title>N19&#45;&gt;N15</title>
<path fill="none" stroke="#2e3436" stroke-width="2" d="M141.218,-328.469C131.464,-299.74 111.703,-241.535 100.413,-208.279"/>
<polygon fill="#2e3436" stroke="#2e3436" stroke-width="2" points="97.8701,-200.79 103.477,-206.807 99.5491,-204.18 100.755,-207.731 100.281,-207.892 99.8078,-208.053 98.6022,-204.502 97.0854,-208.977 97.8701,-200.79 97.8701,-200.79"/>
<text text-anchor="middle" x="127.5" y="-262.6" font-family="FreeSans" font-size="8.00" fill="#2e3436">to</text>
</g>
<!-- N19&#45;&gt;N18 -->
<g id="edge10" class="edge"><title>N19&#45;&gt;N18</title>
<path fill="none" stroke="#2e3436" stroke-width="2" d="M158.5,-328.141C166.122,-316.636 176.213,-301.405 184.536,-288.842"/>
<polygon fill="#2e3436" stroke="#2e3436" stroke-width="2" points="188.704,-282.55 187.376,-290.666 187.05,-285.952 184.979,-289.079 184.562,-288.802 184.145,-288.526 186.216,-285.4 181.748,-286.938 188.704,-282.55 188.704,-282.55"/>
<text text-anchor="middle" x="178.5" y="-303.6" font-family="FreeSans" font-size="8.00" fill="#2e3436">to</text>
</g>
</g>
</svg>
