<?xml version="1.0" encoding="UTF-8" standalone="no"?>
<!DOCTYPE svg PUBLIC "-//W3C//DTD SVG 1.1//EN"
 "http://www.w3.org/Graphics/SVG/1.1/DTD/svg11.dtd">
<!-- Generated by graphviz version 2.38.0 (20140413.2041)
 -->
<!-- Title: g Pages: 1 -->
<svg width="70pt" height="127pt"
 viewBox="0.00 0.00 70.00 127.00" xmlns="http://www.w3.org/2000/svg" xmlns:xlink="http://www.w3.org/1999/xlink">
<g id="graph0" class="graph" transform="scale(1 1) rotate(0) translate(4 123)">
<title>g</title>
<polygon fill="white" stroke="none" points="-4,4 -4,-123 66,-123 66,4 -4,4"/>
<!-- N337 -->
<g id="node1" class="node"><title>N337</title>
<path fill="#ffffff" stroke="#2e3436" stroke-width="1.5" d="M12,-0.5C12,-0.5 50,-0.5 50,-0.5 56,-0.5 62,-6.5 62,-12.5 62,-12.5 62,-24.5 62,-24.5 62,-30.5 56,-36.5 50,-36.5 50,-36.5 12,-36.5 12,-36.5 6,-36.5 -3.55271e-15,-30.5 -3.55271e-15,-24.5 -3.55271e-15,-24.5 -3.55271e-15,-12.5 -3.55271e-15,-12.5 -3.55271e-15,-6.5 6,-0.5 12,-0.5"/>
<text text-anchor="middle" x="31" y="-25.6" font-family="FreeSans" font-size="8.00" fill="#1c2021">Node[337]</text>
<polyline fill="none" stroke="#2e3436" stroke-width="1.5" points="-3.55271e-15,-18.5 62,-18.5 "/>
<text text-anchor="start" x="8" y="-7.6" font-family="FreeSans" font-size="8.00" fill="#1c2021">name = &#39;you&#39;</text>
</g>
<!-- N338 -->
<g id="node2" class="node"><title>N338</title>
<path fill="#ffffff" stroke="#2e3436" stroke-width="1.5" d="M16,-82.5C16,-82.5 46,-82.5 46,-82.5 52,-82.5 58,-88.5 58,-94.5 58,-94.5 58,-106.5 58,-106.5 58,-112.5 52,-118.5 46,-118.5 46,-118.5 16,-118.5 16,-118.5 10,-118.5 4,-112.5 4,-106.5 4,-106.5 4,-94.5 4,-94.5 4,-88.5 10,-82.5 16,-82.5"/>
<text text-anchor="middle" x="31" y="-107.6" font-family="FreeSans" font-size="8.00" fill="#1c2021">Node[338]</text>
<polyline fill="none" stroke="#2e3436" stroke-width="1.5" points="4,-100.5 58,-100.5 "/>
<text text-anchor="start" x="12" y="-89.6" font-family="FreeSans" font-size="8.00" fill="#1c2021">name = &#39;I&#39;</text>
</g>
<!-- N338&#45;&gt;N337 -->
<g id="edge1" class="edge"><title>N338&#45;&gt;N337</title>
<path fill="none" stroke="#2e3436" stroke-width="2" d="M31,-82.1412C31,-71.0583 31,-56.5177 31,-44.2358"/>
<polygon fill="#2e3436" stroke="#2e3436" stroke-width="2" points="31,-36.5501 34.3751,-44.0501 31.5,-40.3001 31.5001,-44.0501 31.0001,-44.0501 30.5001,-44.0501 30.5,-40.3001 27.6251,-44.0501 31,-36.5501 31,-36.5501"/>
<text text-anchor="middle" x="41" y="-57.6" font-family="FreeSans" font-size="8.00" fill="#2e3436">know</text>
</g>
</g>
</svg>
