<?xml version="1.0" encoding="UTF-8" standalone="no"?>
<!DOCTYPE svg PUBLIC "-//W3C//DTD SVG 1.1//EN"
 "http://www.w3.org/Graphics/SVG/1.1/DTD/svg11.dtd">
<!-- Generated by graphviz version 2.38.0 (20140413.2041)
 -->
<!-- Title: g Pages: 1 -->
<svg width="228pt" height="337pt"
 viewBox="0.00 0.00 228.00 337.00" xmlns="http://www.w3.org/2000/svg" xmlns:xlink="http://www.w3.org/1999/xlink">
<g id="graph0" class="graph" transform="scale(1 1) rotate(0) translate(4 333)">
<title>g</title>
<polygon fill="white" stroke="none" points="-4,4 -4,-333 224,-333 224,4 -4,4"/>
<!-- N33 -->
<g id="node1" class="node"><title>N33</title>
<path fill="#ffffff" stroke="#2e3436" stroke-width="1.5" d="M12,-146.5C12,-146.5 42,-146.5 42,-146.5 48,-146.5 54,-152.5 54,-158.5 54,-158.5 54,-170.5 54,-170.5 54,-176.5 48,-182.5 42,-182.5 42,-182.5 12,-182.5 12,-182.5 6,-182.5 0,-176.5 0,-170.5 0,-170.5 0,-158.5 0,-158.5 0,-152.5 6,-146.5 12,-146.5"/>
<text text-anchor="middle" x="27" y="-171.6" font-family="FreeSans" font-size="8.00" fill="#1c2021">Node[33]</text>
<polyline fill="none" stroke="#2e3436" stroke-width="1.5" points="0,-164.5 54,-164.5 "/>
<text text-anchor="start" x="8" y="-153.6" font-family="FreeSans" font-size="8.00" fill="#1c2021">name = &#39;f&#39;</text>
</g>
<!-- N35 -->
<g id="node2" class="node"><title>N35</title>
<path fill="#ffffff" stroke="#2e3436" stroke-width="1.5" d="M93,-0.5C93,-0.5 123,-0.5 123,-0.5 129,-0.5 135,-6.5 135,-12.5 135,-12.5 135,-24.5 135,-24.5 135,-30.5 129,-36.5 123,-36.5 123,-36.5 93,-36.5 93,-36.5 87,-36.5 81,-30.5 81,-24.5 81,-24.5 81,-12.5 81,-12.5 81,-6.5 87,-0.5 93,-0.5"/>
<text text-anchor="middle" x="108" y="-25.6" font-family="FreeSans" font-size="8.00" fill="#1c2021">Node[35]</text>
<polyline fill="none" stroke="#2e3436" stroke-width="1.5" points="81,-18.5 135,-18.5 "/>
<text text-anchor="start" x="89" y="-7.6" font-family="FreeSans" font-size="8.00" fill="#1c2021">name = &#39;e&#39;</text>
</g>
<!-- N33&#45;&gt;N35 -->
<g id="edge1" class="edge"><title>N33&#45;&gt;N35</title>
<path fill="none" stroke="#2e3436" stroke-width="2" d="M36.6098,-146.416C51.042,-120.759 78.3588,-72.1954 94.6972,-43.1495"/>
<polygon fill="#2e3436" stroke="#2e3436" stroke-width="2" points="98.4027,-36.5619 97.6672,-44.7534 96.9999,-40.0755 95.1614,-43.3439 94.7257,-43.0988 94.2899,-42.8536 96.1284,-39.5852 91.7841,-41.4441 98.4027,-36.5619 98.4027,-36.5619"/>
<text text-anchor="middle" x="82.5" y="-112.1" font-family="FreeSans" font-size="8.00" fill="#2e3436">to</text>
<text text-anchor="start" x="68" y="-103.1" font-family="FreeSans" font-size="8.00" fill="#2e3436">cost = 1</text>
</g>
<!-- N34 -->
<g id="node3" class="node"><title>N34</title>
<path fill="#ffffff" stroke="#2e3436" stroke-width="1.5" d="M178,-91.5C178,-91.5 208,-91.5 208,-91.5 214,-91.5 220,-97.5 220,-103.5 220,-103.5 220,-115.5 220,-115.5 220,-121.5 214,-127.5 208,-127.5 208,-127.5 178,-127.5 178,-127.5 172,-127.5 166,-121.5 166,-115.5 166,-115.5 166,-103.5 166,-103.5 166,-97.5 172,-91.5 178,-91.5"/>
<text text-anchor="middle" x="193" y="-116.6" font-family="FreeSans" font-size="8.00" fill="#1c2021">Node[34]</text>
<polyline fill="none" stroke="#2e3436" stroke-width="1.5" points="166,-109.5 220,-109.5 "/>
<text text-anchor="start" x="174" y="-98.6" font-family="FreeSans" font-size="8.00" fill="#1c2021">name = &#39;d&#39;</text>
</g>
<!-- N34&#45;&gt;N35 -->
<g id="edge2" class="edge"><title>N34&#45;&gt;N35</title>
<path fill="none" stroke="#2e3436" stroke-width="2" d="M176.611,-91.3399C163.323,-77.4269 144.476,-57.6924 129.896,-42.4265"/>
<polygon fill="#2e3436" stroke="#2e3436" stroke-width="2" points="124.339,-36.6074 131.959,-39.7002 127.29,-38.974 129.88,-41.6859 129.519,-42.0312 129.157,-42.3766 126.567,-39.6647 127.078,-44.3622 124.339,-36.6074 124.339,-36.6074"/>
<text text-anchor="middle" x="172.5" y="-66.6" font-family="FreeSans" font-size="8.00" fill="#2e3436">to</text>
<text text-anchor="start" x="158" y="-57.6" font-family="FreeSans" font-size="8.00" fill="#2e3436">cost = 1</text>
</g>
<!-- N36 -->
<g id="node4" class="node"><title>N36</title>
<path fill="#ffffff" stroke="#2e3436" stroke-width="1.5" d="M93,-146.5C93,-146.5 123,-146.5 123,-146.5 129,-146.5 135,-152.5 135,-158.5 135,-158.5 135,-170.5 135,-170.5 135,-176.5 129,-182.5 123,-182.5 123,-182.5 93,-182.5 93,-182.5 87,-182.5 81,-176.5 81,-170.5 81,-170.5 81,-158.5 81,-158.5 81,-152.5 87,-146.5 93,-146.5"/>
<text text-anchor="middle" x="108" y="-171.6" font-family="FreeSans" font-size="8.00" fill="#1c2021">Node[36]</text>
<polyline fill="none" stroke="#2e3436" stroke-width="1.5" points="81,-164.5 135,-164.5 "/>
<text text-anchor="start" x="89" y="-153.6" font-family="FreeSans" font-size="8.00" fill="#1c2021">name = &#39;b&#39;</text>
</g>
<!-- N36&#45;&gt;N35 -->
<g id="edge3" class="edge"><title>N36&#45;&gt;N35</title>
<path fill="none" stroke="#2e3436" stroke-width="2" d="M108,-146.416C108,-121.083 108,-73.4212 108,-44.2618"/>
<polygon fill="#2e3436" stroke="#2e3436" stroke-width="2" points="108,-36.5619 111.375,-44.0619 108.5,-40.3119 108.5,-44.0619 108,-44.0619 107.5,-44.0619 107.5,-40.3119 104.625,-44.062 108,-36.5619 108,-36.5619"/>
<text text-anchor="middle" x="122.5" y="-112.1" font-family="FreeSans" font-size="8.00" fill="#2e3436">to</text>
<text text-anchor="start" x="108" y="-103.1" font-family="FreeSans" font-size="8.00" fill="#2e3436">cost = 1</text>
</g>
<!-- N37 -->
<g id="node5" class="node"><title>N37</title>
<path fill="#ffffff" stroke="#2e3436" stroke-width="1.5" d="M167,-201.5C167,-201.5 197,-201.5 197,-201.5 203,-201.5 209,-207.5 209,-213.5 209,-213.5 209,-225.5 209,-225.5 209,-231.5 203,-237.5 197,-237.5 197,-237.5 167,-237.5 167,-237.5 161,-237.5 155,-231.5 155,-225.5 155,-225.5 155,-213.5 155,-213.5 155,-207.5 161,-201.5 167,-201.5"/>
<text text-anchor="middle" x="182" y="-226.6" font-family="FreeSans" font-size="8.00" fill="#1c2021">Node[37]</text>
<polyline fill="none" stroke="#2e3436" stroke-width="1.5" points="155,-219.5 209,-219.5 "/>
<text text-anchor="start" x="163" y="-208.6" font-family="FreeSans" font-size="8.00" fill="#1c2021">name = &#39;c&#39;</text>
</g>
<!-- N37&#45;&gt;N34 -->
<g id="edge4" class="edge"><title>N37&#45;&gt;N34</title>
<path fill="none" stroke="#2e3436" stroke-width="2" d="M183.767,-201.148C185.58,-183.356 188.415,-155.513 190.466,-135.378"/>
<polygon fill="#2e3436" stroke="#2e3436" stroke-width="2" points="191.237,-127.809 193.835,-135.612 191.354,-131.59 190.974,-135.321 190.477,-135.27 189.98,-135.22 190.36,-131.489 187.119,-134.928 191.237,-127.809 191.237,-127.809"/>
<text text-anchor="middle" x="203.5" y="-167.1" font-family="FreeSans" font-size="8.00" fill="#2e3436">to</text>
<text text-anchor="start" x="189" y="-158.1" font-family="FreeSans" font-size="8.00" fill="#2e3436">cost = 1</text>
</g>
<!-- N38 -->
<g id="node6" class="node"><title>N38</title>
<path fill="#ffffff" stroke="#2e3436" stroke-width="1.5" d="M93,-292.5C93,-292.5 123,-292.5 123,-292.5 129,-292.5 135,-298.5 135,-304.5 135,-304.5 135,-316.5 135,-316.5 135,-322.5 129,-328.5 123,-328.5 123,-328.5 93,-328.5 93,-328.5 87,-328.5 81,-322.5 81,-316.5 81,-316.5 81,-304.5 81,-304.5 81,-298.5 87,-292.5 93,-292.5"/>
<text text-anchor="middle" x="108" y="-317.6" font-family="FreeSans" font-size="8.00" fill="#1c2021">Node[38]</text>
<polyline fill="none" stroke="#2e3436" stroke-width="1.5" points="81,-310.5 135,-310.5 "/>
<text text-anchor="start" x="89" y="-299.6" font-family="FreeSans" font-size="8.00" fill="#1c2021">name = &#39;a&#39;</text>
</g>
<!-- N38&#45;&gt;N33 -->
<g id="edge7" class="edge"><title>N38&#45;&gt;N33</title>
<path fill="none" stroke="#2e3436" stroke-width="2" d="M87.1741,-292.444C81.4028,-286.989 75.4952,-280.632 71,-274 53.1713,-247.696 40.7093,-213.058 33.708,-190.073"/>
<polygon fill="#2e3436" stroke="#2e3436" stroke-width="2" points="31.5431,-182.753 36.9068,-188.988 33.0862,-186.208 34.1499,-189.804 33.6704,-189.945 33.1909,-190.087 32.1273,-186.491 30.434,-190.903 31.5431,-182.753 31.5431,-182.753"/>
<text text-anchor="middle" x="85.5" y="-267.6" font-family="FreeSans" font-size="8.00" fill="#2e3436">to</text>
<text text-anchor="start" x="71" y="-258.6" font-family="FreeSans" font-size="8.00" fill="#2e3436">cost = 1</text>
</g>
<!-- N38&#45;&gt;N36 -->
<g id="edge6" class="edge"><title>N38&#45;&gt;N36</title>
<path fill="none" stroke="#2e3436" stroke-width="2" d="M107.414,-292.168C107.245,-286.39 107.083,-279.918 107,-274 106.596,-245.314 107.027,-212.359 107.442,-190.367"/>
<polygon fill="#2e3436" stroke="#2e3436" stroke-width="2" points="107.592,-182.789 110.818,-190.354 108.018,-186.548 107.943,-190.297 107.443,-190.287 106.943,-190.277 107.018,-186.528 104.069,-190.22 107.592,-182.789 107.592,-182.789"/>
<text text-anchor="middle" x="121.5" y="-267.6" font-family="FreeSans" font-size="8.00" fill="#2e3436">to</text>
<text text-anchor="start" x="107" y="-258.6" font-family="FreeSans" font-size="8.00" fill="#2e3436">cost = 1</text>
</g>
<!-- N38&#45;&gt;N37 -->
<g id="edge5" class="edge"><title>N38&#45;&gt;N37</title>
<path fill="none" stroke="#2e3436" stroke-width="2" d="M125.982,-292.294C131.616,-286.634 137.733,-280.201 143,-274 150.98,-264.604 159.119,-253.691 165.883,-244.181"/>
<polygon fill="#2e3436" stroke="#2e3436" stroke-width="2" points="170.327,-237.857 168.776,-245.934 168.58,-241.213 166.424,-244.281 166.015,-243.993 165.605,-243.706 167.762,-240.638 163.253,-242.053 170.327,-237.857 170.327,-237.857"/>
<text text-anchor="middle" x="170.5" y="-267.6" font-family="FreeSans" font-size="8.00" fill="#2e3436">to</text>
<text text-anchor="start" x="156" y="-258.6" font-family="FreeSans" font-size="8.00" fill="#2e3436">cost = 1</text>
</g>
</g>
</svg>
