<?xml version="1.0" encoding="UTF-8" standalone="no"?>
<!DOCTYPE svg PUBLIC "-//W3C//DTD SVG 1.1//EN"
 "http://www.w3.org/Graphics/SVG/1.1/DTD/svg11.dtd">
<!-- Generated by graphviz version 2.38.0 (20140413.2041)
 -->
<!-- Title: g Pages: 1 -->
<svg width="161pt" height="127pt"
 viewBox="0.00 0.00 160.50 127.00" xmlns="http://www.w3.org/2000/svg" xmlns:xlink="http://www.w3.org/1999/xlink">
<g id="graph0" class="graph" transform="scale(1 1) rotate(0) translate(4 123)">
<title>g</title>
<polygon fill="white" stroke="none" points="-4,4 -4,-123 156.5,-123 156.5,4 -4,4"/>
<!-- N166 -->
<g id="node1" class="node"><title>N166</title>
<path fill="#ffffff" stroke="#2e3436" stroke-width="1.5" d="M12,-0.5C12,-0.5 49,-0.5 49,-0.5 55,-0.5 61,-6.5 61,-12.5 61,-12.5 61,-24.5 61,-24.5 61,-30.5 55,-36.5 49,-36.5 49,-36.5 12,-36.5 12,-36.5 6,-36.5 0,-30.5 0,-24.5 0,-24.5 0,-12.5 0,-12.5 0,-6.5 6,-0.5 12,-0.5"/>
<text text-anchor="middle" x="30.5" y="-25.6" font-family="FreeSans" font-size="8.00" fill="#1c2021">Node[166]</text>
<polyline fill="none" stroke="#2e3436" stroke-width="1.5" points="0,-18.5 61,-18.5 "/>
<text text-anchor="start" x="8" y="-7.6" font-family="FreeSans" font-size="8.00" fill="#1c2021">name = &#39;car&#39;</text>
</g>
<!-- N167 -->
<g id="node2" class="node"><title>N167</title>
<path fill="#ffffff" stroke="#2e3436" stroke-width="1.5" d="M102.5,-0.5C102.5,-0.5 140.5,-0.5 140.5,-0.5 146.5,-0.5 152.5,-6.5 152.5,-12.5 152.5,-12.5 152.5,-24.5 152.5,-24.5 152.5,-30.5 146.5,-36.5 140.5,-36.5 140.5,-36.5 102.5,-36.5 102.5,-36.5 96.5,-36.5 90.5,-30.5 90.5,-24.5 90.5,-24.5 90.5,-12.5 90.5,-12.5 90.5,-6.5 96.5,-0.5 102.5,-0.5"/>
<text text-anchor="middle" x="121.5" y="-25.6" font-family="FreeSans" font-size="8.00" fill="#1c2021">Node[167]</text>
<polyline fill="none" stroke="#2e3436" stroke-width="1.5" points="90.5,-18.5 152.5,-18.5 "/>
<text text-anchor="start" x="98.5" y="-7.6" font-family="FreeSans" font-size="8.00" fill="#1c2021">name = &#39;you&#39;</text>
</g>
<!-- N168 -->
<g id="node3" class="node"><title>N168</title>
<path fill="#ffffff" stroke="#2e3436" stroke-width="1.5" d="M60.5,-82.5C60.5,-82.5 90.5,-82.5 90.5,-82.5 96.5,-82.5 102.5,-88.5 102.5,-94.5 102.5,-94.5 102.5,-106.5 102.5,-106.5 102.5,-112.5 96.5,-118.5 90.5,-118.5 90.5,-118.5 60.5,-118.5 60.5,-118.5 54.5,-118.5 48.5,-112.5 48.5,-106.5 48.5,-106.5 48.5,-94.5 48.5,-94.5 48.5,-88.5 54.5,-82.5 60.5,-82.5"/>
<text text-anchor="middle" x="75.5" y="-107.6" font-family="FreeSans" font-size="8.00" fill="#1c2021">Node[168]</text>
<polyline fill="none" stroke="#2e3436" stroke-width="1.5" points="48.5,-100.5 102.5,-100.5 "/>
<text text-anchor="start" x="56.5" y="-89.6" font-family="FreeSans" font-size="8.00" fill="#1c2021">name = &#39;I&#39;</text>
</g>
<!-- N168&#45;&gt;N166 -->
<g id="edge1" class="edge"><title>N168&#45;&gt;N166</title>
<path fill="none" stroke="#2e3436" stroke-width="2" d="M65.7357,-82.1412C59.3234,-70.7416 50.8535,-55.6839 43.8249,-43.1887"/>
<polygon fill="#2e3436" stroke="#2e3436" stroke-width="2" points="40.0907,-36.5501 46.7093,-41.4323 42.365,-39.5734 44.2035,-42.8418 43.7677,-43.0869 43.3319,-43.3321 41.4934,-40.0636 40.8261,-44.7416 40.0907,-36.5501 40.0907,-36.5501"/>
<text text-anchor="middle" x="62.5" y="-57.6" font-family="FreeSans" font-size="8.00" fill="#2e3436">own</text>
</g>
<!-- N168&#45;&gt;N167 -->
<g id="edge2" class="edge"><title>N168&#45;&gt;N167</title>
<path fill="none" stroke="#4e9a06" stroke-width="2" d="M85.4813,-82.1412C92.0361,-70.7416 100.694,-55.6839 107.879,-43.1887"/>
<polygon fill="#4e9a06" stroke="#4e9a06" stroke-width="2" points="111.696,-36.5501 110.883,-44.7343 110.26,-40.0502 108.391,-43.3011 107.958,-43.0519 107.524,-42.8027 109.393,-39.5518 105.032,-41.3695 111.696,-36.5501 111.696,-36.5501"/>
<text text-anchor="middle" x="110.5" y="-57.6" font-family="FreeSans" font-size="8.00" fill="#4e9a06">know</text>
</g>
</g>
</svg>
