<?xml version="1.0" encoding="UTF-8" standalone="no"?>
<!DOCTYPE svg PUBLIC "-//W3C//DTD SVG 1.1//EN"
 "http://www.w3.org/Graphics/SVG/1.1/DTD/svg11.dtd">
<!-- Generated by graphviz version 2.38.0 (20140413.2041)
 -->
<!-- Title: g Pages: 1 -->
<svg width="161pt" height="134pt"
 viewBox="0.00 0.00 161.00 134.00" xmlns="http://www.w3.org/2000/svg" xmlns:xlink="http://www.w3.org/1999/xlink">
<g id="graph0" class="graph" transform="scale(1 1) rotate(0) translate(4 130)">
<title>g</title>
<polygon fill="white" stroke="none" points="-4,4 -4,-130 157,-130 157,4 -4,4"/>
<!-- N334 -->
<g id="node1" class="node"><title>N334</title>
<path fill="#ffffff" stroke="#2e3436" stroke-width="1.5" d="M12,-4C12,-4 50,-4 50,-4 56,-4 62,-10 62,-16 62,-16 62,-28 62,-28 62,-34 56,-40 50,-40 50,-40 12,-40 12,-40 6,-40 0,-34 0,-28 0,-28 0,-16 0,-16 0,-10 6,-4 12,-4"/>
<text text-anchor="middle" x="31" y="-29.1" font-family="FreeSans" font-size="8.00" fill="#1c2021">Node[334]</text>
<polyline fill="none" stroke="#2e3436" stroke-width="1.5" points="0,-22 62,-22 "/>
<text text-anchor="start" x="8" y="-11.1" font-family="FreeSans" font-size="8.00" fill="#1c2021">name = &#39;you&#39;</text>
</g>
<!-- N335 -->
<g id="node2" class="node"><title>N335</title>
<path fill="#ffffff" stroke="#2e3436" stroke-width="1.5" d="M103,-0.5C103,-0.5 141,-0.5 141,-0.5 147,-0.5 153,-6.5 153,-12.5 153,-12.5 153,-31.5 153,-31.5 153,-37.5 147,-43.5 141,-43.5 141,-43.5 103,-43.5 103,-43.5 97,-43.5 91,-37.5 91,-31.5 91,-31.5 91,-12.5 91,-12.5 91,-6.5 97,-0.5 103,-0.5"/>
<text text-anchor="middle" x="122" y="-33.1" font-family="FreeSans" font-size="8.00" fill="#1c2021">Node[335]</text>
<polyline fill="none" stroke="#2e3436" stroke-width="1.5" points="91,-26.5 153,-26.5 "/>
<text text-anchor="start" x="99" y="-16.1" font-family="FreeSans" font-size="8.00" fill="#1c2021">name = &#39;him&#39;</text>
<text text-anchor="start" x="99" y="-7.1" font-family="FreeSans" font-size="8.00" fill="#1c2021">age = 25</text>
</g>
<!-- N336 -->
<g id="node3" class="node"><title>N336</title>
<path fill="#ffffff" stroke="#2e3436" stroke-width="1.5" d="M61,-89.5C61,-89.5 91,-89.5 91,-89.5 97,-89.5 103,-95.5 103,-101.5 103,-101.5 103,-113.5 103,-113.5 103,-119.5 97,-125.5 91,-125.5 91,-125.5 61,-125.5 61,-125.5 55,-125.5 49,-119.5 49,-113.5 49,-113.5 49,-101.5 49,-101.5 49,-95.5 55,-89.5 61,-89.5"/>
<text text-anchor="middle" x="76" y="-114.6" font-family="FreeSans" font-size="8.00" fill="#1c2021">Node[336]</text>
<polyline fill="none" stroke="#2e3436" stroke-width="1.5" points="49,-107.5 103,-107.5 "/>
<text text-anchor="start" x="57" y="-96.6" font-family="FreeSans" font-size="8.00" fill="#1c2021">name = &#39;I&#39;</text>
</g>
<!-- N336&#45;&gt;N334 -->
<g id="edge2" class="edge"><title>N336&#45;&gt;N334</title>
<path fill="none" stroke="#2e3436" stroke-width="2" d="M66.676,-89.1987C60.0993,-76.9953 51.2036,-60.4889 43.9405,-47.0118"/>
<polygon fill="#2e3436" stroke="#2e3436" stroke-width="2" points="40.3121,-40.2791 46.8413,-45.2802 42.5313,-43.343 44.3104,-46.6442 43.8702,-46.8814 43.4301,-47.1186 41.651,-43.8174 40.8992,-48.4825 40.3121,-40.2791 40.3121,-40.2791"/>
<text text-anchor="middle" x="67" y="-64.6" font-family="FreeSans" font-size="8.00" fill="#2e3436">know</text>
</g>
<!-- N336&#45;&gt;N335 -->
<g id="edge1" class="edge"><title>N336&#45;&gt;N335</title>
<path fill="none" stroke="#2e3436" stroke-width="2" d="M85.5312,-89.1987C91.7039,-77.994 99.875,-63.1617 106.918,-50.3773"/>
<polygon fill="#2e3436" stroke="#2e3436" stroke-width="2" points="110.695,-43.5216 110.032,-51.7193 109.323,-47.0475 107.514,-50.332 107.076,-50.0908 106.638,-49.8495 108.447,-46.5649 104.12,-48.4622 110.695,-43.5216 110.695,-43.5216"/>
<text text-anchor="middle" x="110" y="-64.6" font-family="FreeSans" font-size="8.00" fill="#2e3436">know</text>
</g>
</g>
</svg>
