<?xml version="1.0" encoding="UTF-8" standalone="no"?>
<!DOCTYPE svg PUBLIC "-//W3C//DTD SVG 1.1//EN"
 "http://www.w3.org/Graphics/SVG/1.1/DTD/svg11.dtd">
<!-- Generated by graphviz version 2.38.0 (20140413.2041)
 -->
<!-- Title: g Pages: 1 -->
<svg width="504pt" height="122pt"
 viewBox="0.00 0.00 504.00 121.96" xmlns="http://www.w3.org/2000/svg" xmlns:xlink="http://www.w3.org/1999/xlink">
<g id="graph0" class="graph" transform="scale(0.896797 0.896797) rotate(0) translate(4 132)">
<title>g</title>
<polygon fill="white" stroke="none" points="-4,4 -4,-132 558,-132 558,4 -4,4"/>
<!-- N3 -->
<g id="node1" class="node"><title>N3</title>
<path fill="#ffffff" stroke="#2e3436" stroke-width="1.5" d="M12,-91.5C12,-91.5 50,-91.5 50,-91.5 56,-91.5 62,-97.5 62,-103.5 62,-103.5 62,-115.5 62,-115.5 62,-121.5 56,-127.5 50,-127.5 50,-127.5 12,-127.5 12,-127.5 6,-127.5 0,-121.5 0,-115.5 0,-115.5 0,-103.5 0,-103.5 0,-97.5 6,-91.5 12,-91.5"/>
<text text-anchor="middle" x="31" y="-116.6" font-family="FreeSans" font-size="8.00" fill="#1c2021">Node[3]</text>
<polyline fill="none" stroke="#2e3436" stroke-width="1.5" points="0,-109.5 62,-109.5 "/>
<text text-anchor="start" x="8" y="-98.6" font-family="FreeSans" font-size="8.00" fill="#1c2021">name = &#39;bob&#39;</text>
</g>
<!-- N4 -->
<g id="node2" class="node"><title>N4</title>
<path fill="#ffffff" stroke="#2e3436" stroke-width="1.5" d="M16,-0.5C16,-0.5 46,-0.5 46,-0.5 52,-0.5 58,-6.5 58,-12.5 58,-12.5 58,-24.5 58,-24.5 58,-30.5 52,-36.5 46,-36.5 46,-36.5 16,-36.5 16,-36.5 10,-36.5 4,-30.5 4,-24.5 4,-24.5 4,-12.5 4,-12.5 4,-6.5 10,-0.5 16,-0.5"/>
<text text-anchor="middle" x="31" y="-25.6" font-family="FreeSans" font-size="8.00" fill="#1c2021">Node[4]</text>
<polyline fill="none" stroke="#2e3436" stroke-width="1.5" points="4,-18.5 58,-18.5 "/>
<text text-anchor="start" x="12" y="-7.6" font-family="FreeSans" font-size="8.00" fill="#1c2021">age = 12</text>
</g>
<!-- N3&#45;&gt;N4 -->
<g id="edge1" class="edge"><title>N3&#45;&gt;N4</title>
<path fill="none" stroke="#2e3436" stroke-width="2" d="M31,-91.3399C31,-78.0425 31,-59.4274 31,-44.4783"/>
<polygon fill="#2e3436" stroke="#2e3436" stroke-width="2" points="31,-36.6074 34.3751,-44.1074 31.5,-40.3574 31.5001,-44.1074 31.0001,-44.1074 30.5001,-44.1074 30.5,-40.3574 27.6251,-44.1075 31,-36.6074 31,-36.6074"/>
<text text-anchor="middle" x="55.5" y="-66.6" font-family="FreeSans" font-size="8.00" fill="#2e3436">KNOWS</text>
<text text-anchor="start" x="31" y="-57.6" font-family="FreeSans" font-size="8.00" fill="#2e3436">since = &#39;2010&#39;</text>
</g>
<!-- N6 -->
<g id="node3" class="node"><title>N6</title>
<path fill="#ffffff" stroke="#2e3436" stroke-width="1.5" d="M107,-91.5C107,-91.5 181,-91.5 181,-91.5 187,-91.5 193,-97.5 193,-103.5 193,-103.5 193,-115.5 193,-115.5 193,-121.5 187,-127.5 181,-127.5 181,-127.5 107,-127.5 107,-127.5 101,-127.5 95,-121.5 95,-115.5 95,-115.5 95,-103.5 95,-103.5 95,-97.5 101,-91.5 107,-91.5"/>
<text text-anchor="middle" x="144" y="-116.6" font-family="FreeSans" font-size="8.00" fill="#1c2021">Node[6]</text>
<polyline fill="none" stroke="#2e3436" stroke-width="1.5" points="95,-109.5 193,-109.5 "/>
<text text-anchor="start" x="103" y="-98.6" font-family="FreeSans" font-size="8.00" fill="#1c2021">name = &#39;Tobias Tester&#39;</text>
</g>
<!-- N7 -->
<g id="node4" class="node"><title>N7</title>
<path fill="#ffffff" stroke="#2e3436" stroke-width="1.5" d="M153,-0.5C153,-0.5 229,-0.5 229,-0.5 235,-0.5 241,-6.5 241,-12.5 241,-12.5 241,-24.5 241,-24.5 241,-30.5 235,-36.5 229,-36.5 229,-36.5 153,-36.5 153,-36.5 147,-36.5 141,-30.5 141,-24.5 141,-24.5 141,-12.5 141,-12.5 141,-6.5 147,-0.5 153,-0.5"/>
<text text-anchor="middle" x="191" y="-25.6" font-family="FreeSans" font-size="8.00" fill="#1c2021">Node[7]</text>
<polyline fill="none" stroke="#2e3436" stroke-width="1.5" points="141,-18.5 241,-18.5 "/>
<text text-anchor="start" x="149" y="-7.6" font-family="FreeSans" font-size="8.00" fill="#1c2021">name = &#39;Andres Tester&#39;</text>
</g>
<!-- N6&#45;&gt;N7 -->
<g id="edge2" class="edge"><title>N6&#45;&gt;N7</title>
<path fill="none" stroke="#4e9a06" stroke-width="2" d="M131.582,-91.2968C125.342,-80.3841 120.373,-66.2533 127,-55 130.128,-49.6881 134.369,-45.1146 139.189,-41.1904"/>
<polygon fill="#4e9a06" stroke="#4e9a06" stroke-width="2" points="145.563,-36.5602 141.478,-43.6986 142.823,-39.1686 139.789,-41.3725 139.495,-40.9679 139.201,-40.5634 142.235,-38.3595 137.511,-38.2373 145.563,-36.5602 145.563,-36.5602"/>
<text text-anchor="middle" x="168" y="-66.6" font-family="FreeSans" font-size="8.00" fill="#4e9a06">FRIENDS</text>
<text text-anchor="start" x="127" y="-57.6" font-family="FreeSans" font-size="8.00" fill="#4e9a06">name = &#39;tobias&#45;andres&#39;</text>
</g>
<!-- N7&#45;&gt;N6 -->
<g id="edge3" class="edge"><title>N7&#45;&gt;N6</title>
<path fill="none" stroke="#4e9a06" stroke-width="2" d="M205.484,-36.5796C212.851,-47.4429 218.93,-61.5652 212,-73 208.676,-78.4847 204.197,-83.1621 199.114,-87.1419"/>
<polygon fill="#4e9a06" stroke="#4e9a06" stroke-width="2" points="192.903,-91.4999 197.104,-84.4292 195.686,-88.9366 198.755,-86.7827 199.042,-87.192 199.33,-87.6013 196.26,-89.7552 200.981,-89.9547 192.903,-91.4999 192.903,-91.4999"/>
<text text-anchor="middle" x="257" y="-66.6" font-family="FreeSans" font-size="8.00" fill="#4e9a06">FRIENDS</text>
<text text-anchor="start" x="216" y="-57.6" font-family="FreeSans" font-size="8.00" fill="#4e9a06">name = &#39;andres&#45;tobias&#39;</text>
</g>
<!-- N9 -->
<g id="node5" class="node"><title>N9</title>
<path fill="#ffffff" stroke="#2e3436" stroke-width="1.5" d="M243,-91.5C243,-91.5 273,-91.5 273,-91.5 279,-91.5 285,-97.5 285,-103.5 285,-103.5 285,-115.5 285,-115.5 285,-121.5 279,-127.5 273,-127.5 273,-127.5 243,-127.5 243,-127.5 237,-127.5 231,-121.5 231,-115.5 231,-115.5 231,-103.5 231,-103.5 231,-97.5 237,-91.5 243,-91.5"/>
<text text-anchor="middle" x="258" y="-116.6" font-family="FreeSans" font-size="8.00" fill="#1c2021">Node[9]</text>
<polyline fill="none" stroke="#2e3436" stroke-width="1.5" points="231,-109.5 285,-109.5 "/>
<text text-anchor="start" x="239" y="-98.6" font-family="FreeSans" font-size="8.00" fill="#1c2021">age = 1</text>
</g>
<!-- N11 -->
<g id="node6" class="node"><title>N11</title>
<path fill="#ffffff" stroke="#2e3436" stroke-width="1.5" d="M339.5,-0.5C339.5,-0.5 382.5,-0.5 382.5,-0.5 388.5,-0.5 394.5,-6.5 394.5,-12.5 394.5,-12.5 394.5,-24.5 394.5,-24.5 394.5,-30.5 388.5,-36.5 382.5,-36.5 382.5,-36.5 339.5,-36.5 339.5,-36.5 333.5,-36.5 327.5,-30.5 327.5,-24.5 327.5,-24.5 327.5,-12.5 327.5,-12.5 327.5,-6.5 333.5,-0.5 339.5,-0.5"/>
<text text-anchor="middle" x="361" y="-25.6" font-family="FreeSans" font-size="8.00" fill="#1c2021">Node[11]</text>
<polyline fill="none" stroke="#2e3436" stroke-width="1.5" points="327.5,-18.5 394.5,-18.5 "/>
<text text-anchor="start" x="335.5" y="-7.6" font-family="FreeSans" font-size="8.00" fill="#1c2021">name = &#39;John&#39;</text>
</g>
<!-- N12 -->
<g id="node7" class="node"><title>N12</title>
<path fill="#ffffff" stroke="#2e3436" stroke-width="1.5" d="M346,-91.5C346,-91.5 376,-91.5 376,-91.5 382,-91.5 388,-97.5 388,-103.5 388,-103.5 388,-115.5 388,-115.5 388,-121.5 382,-127.5 376,-127.5 376,-127.5 346,-127.5 346,-127.5 340,-127.5 334,-121.5 334,-115.5 334,-115.5 334,-103.5 334,-103.5 334,-97.5 340,-91.5 346,-91.5"/>
<text text-anchor="middle" x="361" y="-116.6" font-family="FreeSans" font-size="8.00" fill="#1c2021">Node[12]</text>
<polyline fill="none" stroke="#2e3436" stroke-width="1.5" points="334,-109.5 388,-109.5 "/>
<text text-anchor="start" x="342" y="-98.6" font-family="FreeSans" font-size="8.00" fill="#1c2021">age = 1</text>
</g>
<!-- N12&#45;&gt;N11 -->
<g id="edge4" class="edge"><title>N12&#45;&gt;N11</title>
<path fill="none" stroke="#a40000" stroke-width="2" d="M361,-91.3399C361,-78.0425 361,-59.4274 361,-44.4783"/>
<polygon fill="#a40000" stroke="#a40000" stroke-width="2" points="361,-36.6074 364.375,-44.1074 361.5,-40.3574 361.5,-44.1074 361,-44.1074 360.5,-44.1074 360.5,-40.3574 357.625,-44.1075 361,-36.6074 361,-36.6074"/>
<text text-anchor="middle" x="373" y="-62.1" font-family="FreeSans" font-size="8.00" fill="#a40000">knows</text>
</g>
<!-- N13 -->
<g id="node8" class="node"><title>N13</title>
<path fill="#ffffff" stroke="#2e3436" stroke-width="1.5" d="M429,-91.5C429,-91.5 459,-91.5 459,-91.5 465,-91.5 471,-97.5 471,-103.5 471,-103.5 471,-115.5 471,-115.5 471,-121.5 465,-127.5 459,-127.5 459,-127.5 429,-127.5 429,-127.5 423,-127.5 417,-121.5 417,-115.5 417,-115.5 417,-103.5 417,-103.5 417,-97.5 423,-91.5 429,-91.5"/>
<text text-anchor="middle" x="444" y="-116.6" font-family="FreeSans" font-size="8.00" fill="#1c2021">Node[13]</text>
<polyline fill="none" stroke="#2e3436" stroke-width="1.5" points="417,-109.5 471,-109.5 "/>
<text text-anchor="start" x="425" y="-98.6" font-family="FreeSans" font-size="8.00" fill="#1c2021">age = 1</text>
</g>
<!-- N14 -->
<g id="node9" class="node"><title>N14</title>
<path fill="#ffffff" stroke="#2e3436" stroke-width="1.5" d="M512,-91.5C512,-91.5 542,-91.5 542,-91.5 548,-91.5 554,-97.5 554,-103.5 554,-103.5 554,-115.5 554,-115.5 554,-121.5 548,-127.5 542,-127.5 542,-127.5 512,-127.5 512,-127.5 506,-127.5 500,-121.5 500,-115.5 500,-115.5 500,-103.5 500,-103.5 500,-97.5 506,-91.5 512,-91.5"/>
<text text-anchor="middle" x="527" y="-116.6" font-family="FreeSans" font-size="8.00" fill="#1c2021">Node[14]</text>
<polyline fill="none" stroke="#2e3436" stroke-width="1.5" points="500,-109.5 554,-109.5 "/>
<text text-anchor="start" x="508" y="-98.6" font-family="FreeSans" font-size="8.00" fill="#1c2021">age = 1</text>
</g>
</g>
</svg>
