<?xml version="1.0" encoding="UTF-8" standalone="no"?>
<!DOCTYPE svg PUBLIC "-//W3C//DTD SVG 1.1//EN"
 "http://www.w3.org/Graphics/SVG/1.1/DTD/svg11.dtd">
<!-- Generated by graphviz version 2.38.0 (20140413.2041)
 -->
<!-- Title: g Pages: 1 -->
<svg width="334pt" height="52pt"
 viewBox="0.00 0.00 334.00 52.00" xmlns="http://www.w3.org/2000/svg" xmlns:xlink="http://www.w3.org/1999/xlink">
<g id="graph0" class="graph" transform="scale(1 1) rotate(0) translate(4 48)">
<title>g</title>
<polygon fill="white" stroke="none" points="-4,4 -4,-48 330,-48 330,4 -4,4"/>
<!-- N314 -->
<g id="node1" class="node"><title>N314</title>
<path fill="#ffffff" stroke="#2e3436" stroke-width="1.5" d="M12,-4C12,-4 72,-4 72,-4 78,-4 84,-10 84,-16 84,-16 84,-28 84,-28 84,-34 78,-40 72,-40 72,-40 12,-40 12,-40 6,-40 -7.10543e-15,-34 -7.10543e-15,-28 -7.10543e-15,-28 -7.10543e-15,-16 -7.10543e-15,-16 -7.10543e-15,-10 6,-4 12,-4"/>
<text text-anchor="middle" x="42" y="-29.1" font-family="FreeSans" font-size="8.00" fill="#1c2021">Node[314]: Person</text>
<polyline fill="none" stroke="#2e3436" stroke-width="1.5" points="-7.10543e-15,-22 84,-22 "/>
<text text-anchor="start" x="8" y="-11.1" font-family="FreeSans" font-size="8.00" fill="#1c2021">name = &#39;Andres&#39;</text>
</g>
<!-- N315 -->
<g id="node2" class="node"><title>N315</title>
<path fill="#ffffff" stroke="#2e3436" stroke-width="1.5" d="M125,-0.5C125,-0.5 193,-0.5 193,-0.5 199,-0.5 205,-6.5 205,-12.5 205,-12.5 205,-31.5 205,-31.5 205,-37.5 199,-43.5 193,-43.5 193,-43.5 125,-43.5 125,-43.5 119,-43.5 113,-37.5 113,-31.5 113,-31.5 113,-12.5 113,-12.5 113,-6.5 119,-0.5 125,-0.5"/>
<text text-anchor="middle" x="159" y="-33.1" font-family="FreeSans" font-size="8.00" fill="#1c2021">Node[315]: Person</text>
<polyline fill="none" stroke="#2e3436" stroke-width="1.5" points="113,-26.5 205,-26.5 "/>
<text text-anchor="start" x="121" y="-16.1" font-family="FreeSans" font-size="8.00" fill="#1c2021">name = &#39;Andres&#39;</text>
<text text-anchor="start" x="121" y="-7.1" font-family="FreeSans" font-size="8.00" fill="#1c2021">position = &#39;Developer&#39;</text>
</g>
<!-- N316 -->
<g id="node3" class="node"><title>N316</title>
<path fill="#ffffff" stroke="#2e3436" stroke-width="1.5" d="M246,-0.5C246,-0.5 314,-0.5 314,-0.5 320,-0.5 326,-6.5 326,-12.5 326,-12.5 326,-31.5 326,-31.5 326,-37.5 320,-43.5 314,-43.5 314,-43.5 246,-43.5 246,-43.5 240,-43.5 234,-37.5 234,-31.5 234,-31.5 234,-12.5 234,-12.5 234,-6.5 240,-0.5 246,-0.5"/>
<text text-anchor="middle" x="280" y="-33.1" font-family="FreeSans" font-size="8.00" fill="#1c2021">Node[316]: Person</text>
<polyline fill="none" stroke="#2e3436" stroke-width="1.5" points="234,-26.5 326,-26.5 "/>
<text text-anchor="start" x="242" y="-16.1" font-family="FreeSans" font-size="8.00" fill="#1c2021">name = &#39;Michael&#39;</text>
<text text-anchor="start" x="242" y="-7.1" font-family="FreeSans" font-size="8.00" fill="#1c2021">position = &#39;Developer&#39;</text>
</g>
</g>
</svg>
