<?xml version="1.0" encoding="UTF-8" standalone="no"?>
<!DOCTYPE svg PUBLIC "-//W3C//DTD SVG 1.1//EN"
 "http://www.w3.org/Graphics/SVG/1.1/DTD/svg11.dtd">
<!-- Generated by graphviz version 2.38.0 (20140413.2041)
 -->
<!-- Title: g Pages: 1 -->
<svg width="245pt" height="337pt"
 viewBox="0.00 0.00 245.00 337.00" xmlns="http://www.w3.org/2000/svg" xmlns:xlink="http://www.w3.org/1999/xlink">
<g id="graph0" class="graph" transform="scale(1 1) rotate(0) translate(4 333)">
<title>g</title>
<polygon fill="white" stroke="none" points="-4,4 -4,-333 241,-333 241,4 -4,4"/>
<!-- N7 -->
<g id="node1" class="node"><title>N7</title>
<path fill="#ffffff" stroke="#2e3436" stroke-width="1.5" d="M12,-146.5C12,-146.5 42,-146.5 42,-146.5 48,-146.5 54,-152.5 54,-158.5 54,-158.5 54,-170.5 54,-170.5 54,-176.5 48,-182.5 42,-182.5 42,-182.5 12,-182.5 12,-182.5 6,-182.5 0,-176.5 0,-170.5 0,-170.5 0,-158.5 0,-158.5 0,-152.5 6,-146.5 12,-146.5"/>
<text text-anchor="middle" x="27" y="-171.6" font-family="FreeSans" font-size="8.00" fill="#1c2021">Node[7]</text>
<polyline fill="none" stroke="#2e3436" stroke-width="1.5" points="0,-164.5 54,-164.5 "/>
<text text-anchor="start" x="8" y="-153.6" font-family="FreeSans" font-size="8.00" fill="#1c2021">name = &#39;f&#39;</text>
</g>
<!-- N9 -->
<g id="node2" class="node"><title>N9</title>
<path fill="#ffffff" stroke="#2e3436" stroke-width="1.5" d="M100,-0.5C100,-0.5 130,-0.5 130,-0.5 136,-0.5 142,-6.5 142,-12.5 142,-12.5 142,-24.5 142,-24.5 142,-30.5 136,-36.5 130,-36.5 130,-36.5 100,-36.5 100,-36.5 94,-36.5 88,-30.5 88,-24.5 88,-24.5 88,-12.5 88,-12.5 88,-6.5 94,-0.5 100,-0.5"/>
<text text-anchor="middle" x="115" y="-25.6" font-family="FreeSans" font-size="8.00" fill="#1c2021">Node[9]</text>
<polyline fill="none" stroke="#2e3436" stroke-width="1.5" points="88,-18.5 142,-18.5 "/>
<text text-anchor="start" x="96" y="-7.6" font-family="FreeSans" font-size="8.00" fill="#1c2021">name = &#39;e&#39;</text>
</g>
<!-- N7&#45;&gt;N9 -->
<g id="edge1" class="edge"><title>N7&#45;&gt;N9</title>
<path fill="none" stroke="#2e3436" stroke-width="2" d="M37.4403,-146.416C53.1197,-120.759 82.7972,-72.1954 100.548,-43.1495"/>
<polygon fill="#2e3436" stroke="#2e3436" stroke-width="2" points="104.573,-36.5619 103.542,-44.7215 103.044,-40.0225 101.089,-43.2223 100.662,-42.9616 100.236,-42.7008 102.191,-39.501 97.7825,-41.2016 104.573,-36.5619 104.573,-36.5619"/>
<text text-anchor="middle" x="89" y="-112.1" font-family="FreeSans" font-size="8.00" fill="#2e3436">to</text>
<text text-anchor="start" x="71" y="-103.1" font-family="FreeSans" font-size="8.00" fill="#2e3436">cost = 1.0</text>
</g>
<!-- N8 -->
<g id="node3" class="node"><title>N8</title>
<path fill="#ffffff" stroke="#2e3436" stroke-width="1.5" d="M192,-91.5C192,-91.5 222,-91.5 222,-91.5 228,-91.5 234,-97.5 234,-103.5 234,-103.5 234,-115.5 234,-115.5 234,-121.5 228,-127.5 222,-127.5 222,-127.5 192,-127.5 192,-127.5 186,-127.5 180,-121.5 180,-115.5 180,-115.5 180,-103.5 180,-103.5 180,-97.5 186,-91.5 192,-91.5"/>
<text text-anchor="middle" x="207" y="-116.6" font-family="FreeSans" font-size="8.00" fill="#1c2021">Node[8]</text>
<polyline fill="none" stroke="#2e3436" stroke-width="1.5" points="180,-109.5 234,-109.5 "/>
<text text-anchor="start" x="188" y="-98.6" font-family="FreeSans" font-size="8.00" fill="#1c2021">name = &#39;d&#39;</text>
</g>
<!-- N8&#45;&gt;N9 -->
<g id="edge2" class="edge"><title>N8&#45;&gt;N9</title>
<path fill="none" stroke="#2e3436" stroke-width="2" d="M189.261,-91.3399C174.752,-77.3038 154.118,-57.3427 138.281,-42.0223"/>
<polygon fill="#2e3436" stroke="#2e3436" stroke-width="2" points="132.684,-36.6074 140.421,-39.3964 135.727,-38.8554 138.422,-41.4628 138.075,-41.8221 137.727,-42.1815 135.032,-39.5741 135.728,-44.2478 132.684,-36.6074 132.684,-36.6074"/>
<text text-anchor="middle" x="187" y="-66.6" font-family="FreeSans" font-size="8.00" fill="#2e3436">to</text>
<text text-anchor="start" x="169" y="-57.6" font-family="FreeSans" font-size="8.00" fill="#2e3436">cost = 0.5</text>
</g>
<!-- N10 -->
<g id="node4" class="node"><title>N10</title>
<path fill="#ffffff" stroke="#2e3436" stroke-width="1.5" d="M100,-146.5C100,-146.5 130,-146.5 130,-146.5 136,-146.5 142,-152.5 142,-158.5 142,-158.5 142,-170.5 142,-170.5 142,-176.5 136,-182.5 130,-182.5 130,-182.5 100,-182.5 100,-182.5 94,-182.5 88,-176.5 88,-170.5 88,-170.5 88,-158.5 88,-158.5 88,-152.5 94,-146.5 100,-146.5"/>
<text text-anchor="middle" x="115" y="-171.6" font-family="FreeSans" font-size="8.00" fill="#1c2021">Node[10]</text>
<polyline fill="none" stroke="#2e3436" stroke-width="1.5" points="88,-164.5 142,-164.5 "/>
<text text-anchor="start" x="96" y="-153.6" font-family="FreeSans" font-size="8.00" fill="#1c2021">name = &#39;b&#39;</text>
</g>
<!-- N10&#45;&gt;N9 -->
<g id="edge3" class="edge"><title>N10&#45;&gt;N9</title>
<path fill="none" stroke="#2e3436" stroke-width="2" d="M115,-146.416C115,-121.083 115,-73.4212 115,-44.2618"/>
<polygon fill="#2e3436" stroke="#2e3436" stroke-width="2" points="115,-36.5619 118.375,-44.0619 115.5,-40.3119 115.5,-44.0619 115,-44.0619 114.5,-44.0619 114.5,-40.3119 111.625,-44.062 115,-36.5619 115,-36.5619"/>
<text text-anchor="middle" x="133" y="-112.1" font-family="FreeSans" font-size="8.00" fill="#2e3436">to</text>
<text text-anchor="start" x="115" y="-103.1" font-family="FreeSans" font-size="8.00" fill="#2e3436">cost = 0.5</text>
</g>
<!-- N11 -->
<g id="node5" class="node"><title>N11</title>
<path fill="#ffffff" stroke="#2e3436" stroke-width="1.5" d="M176,-201.5C176,-201.5 206,-201.5 206,-201.5 212,-201.5 218,-207.5 218,-213.5 218,-213.5 218,-225.5 218,-225.5 218,-231.5 212,-237.5 206,-237.5 206,-237.5 176,-237.5 176,-237.5 170,-237.5 164,-231.5 164,-225.5 164,-225.5 164,-213.5 164,-213.5 164,-207.5 170,-201.5 176,-201.5"/>
<text text-anchor="middle" x="191" y="-226.6" font-family="FreeSans" font-size="8.00" fill="#1c2021">Node[11]</text>
<polyline fill="none" stroke="#2e3436" stroke-width="1.5" points="164,-219.5 218,-219.5 "/>
<text text-anchor="start" x="172" y="-208.6" font-family="FreeSans" font-size="8.00" fill="#1c2021">name = &#39;c&#39;</text>
</g>
<!-- N11&#45;&gt;N8 -->
<g id="edge4" class="edge"><title>N11&#45;&gt;N8</title>
<path fill="none" stroke="#2e3436" stroke-width="2" d="M193.571,-201.148C196.207,-183.356 200.331,-155.513 203.314,-135.378"/>
<polygon fill="#2e3436" stroke="#2e3436" stroke-width="2" points="204.436,-127.809 206.675,-135.723 204.381,-131.592 203.831,-135.301 203.337,-135.228 202.842,-135.155 203.392,-131.445 199.998,-134.733 204.436,-127.809 204.436,-127.809"/>
<text text-anchor="middle" x="219" y="-167.1" font-family="FreeSans" font-size="8.00" fill="#2e3436">to</text>
<text text-anchor="start" x="201" y="-158.1" font-family="FreeSans" font-size="8.00" fill="#2e3436">cost = 0.5</text>
</g>
<!-- N12 -->
<g id="node6" class="node"><title>N12</title>
<path fill="#ffffff" stroke="#2e3436" stroke-width="1.5" d="M100,-292.5C100,-292.5 130,-292.5 130,-292.5 136,-292.5 142,-298.5 142,-304.5 142,-304.5 142,-316.5 142,-316.5 142,-322.5 136,-328.5 130,-328.5 130,-328.5 100,-328.5 100,-328.5 94,-328.5 88,-322.5 88,-316.5 88,-316.5 88,-304.5 88,-304.5 88,-298.5 94,-292.5 100,-292.5"/>
<text text-anchor="middle" x="115" y="-317.6" font-family="FreeSans" font-size="8.00" fill="#1c2021">Node[12]</text>
<polyline fill="none" stroke="#2e3436" stroke-width="1.5" points="88,-310.5 142,-310.5 "/>
<text text-anchor="start" x="96" y="-299.6" font-family="FreeSans" font-size="8.00" fill="#1c2021">name = &#39;a&#39;</text>
</g>
<!-- N12&#45;&gt;N7 -->
<g id="edge5" class="edge"><title>N12&#45;&gt;N7</title>
<path fill="none" stroke="#2e3436" stroke-width="2" d="M87.9532,-292.523C81.0854,-287.238 74.1909,-280.951 69,-274 49.9979,-248.554 38.4943,-213.438 32.4461,-190.128"/>
<polygon fill="#2e3436" stroke="#2e3436" stroke-width="2" points="30.6012,-182.707 35.686,-189.171 31.9911,-186.225 32.8959,-189.865 32.4106,-189.985 31.9254,-190.106 31.0207,-186.467 29.1353,-190.799 30.6012,-182.707 30.6012,-182.707"/>
<text text-anchor="middle" x="87" y="-267.6" font-family="FreeSans" font-size="8.00" fill="#2e3436">to</text>
<text text-anchor="start" x="69" y="-258.6" font-family="FreeSans" font-size="8.00" fill="#2e3436">cost = 0.5</text>
</g>
<!-- N12&#45;&gt;N10 -->
<g id="edge7" class="edge"><title>N12&#45;&gt;N10</title>
<path fill="none" stroke="#2e3436" stroke-width="2" d="M113.242,-292.185C112.735,-286.408 112.25,-279.932 112,-274 110.791,-245.327 112.082,-212.369 113.327,-190.373"/>
<polygon fill="#2e3436" stroke="#2e3436" stroke-width="2" points="113.778,-182.794 116.701,-190.481 114.054,-186.567 113.831,-190.31 113.332,-190.28 112.833,-190.251 113.056,-186.507 109.963,-190.079 113.778,-182.794 113.778,-182.794"/>
<text text-anchor="middle" x="130" y="-267.6" font-family="FreeSans" font-size="8.00" fill="#2e3436">to</text>
<text text-anchor="start" x="112" y="-258.6" font-family="FreeSans" font-size="8.00" fill="#2e3436">cost = 1.5</text>
</g>
<!-- N12&#45;&gt;N11 -->
<g id="edge6" class="edge"><title>N12&#45;&gt;N11</title>
<path fill="none" stroke="#2e3436" stroke-width="2" d="M136.291,-292.376C142.629,-286.823 149.376,-280.43 155,-274 163.024,-264.825 170.735,-253.778 176.947,-244.11"/>
<polygon fill="#2e3436" stroke="#2e3436" stroke-width="2" points="180.994,-237.677 179.857,-245.822 179.42,-241.117 177.423,-244.291 177,-244.025 176.577,-243.759 178.574,-240.585 174.143,-242.228 180.994,-237.677 180.994,-237.677"/>
<text text-anchor="middle" x="186" y="-267.6" font-family="FreeSans" font-size="8.00" fill="#2e3436">to</text>
<text text-anchor="start" x="168" y="-258.6" font-family="FreeSans" font-size="8.00" fill="#2e3436">cost = 0.5</text>
</g>
</g>
</svg>
