<?xml version="1.0" encoding="UTF-8" standalone="no"?>
<!DOCTYPE svg PUBLIC "-//W3C//DTD SVG 1.1//EN"
 "http://www.w3.org/Graphics/SVG/1.1/DTD/svg11.dtd">
<!-- Generated by graphviz version 2.38.0 (20140413.2041)
 -->
<!-- Title: g Pages: 1 -->
<svg width="68pt" height="127pt"
 viewBox="0.00 0.00 68.00 127.00" xmlns="http://www.w3.org/2000/svg" xmlns:xlink="http://www.w3.org/1999/xlink">
<g id="graph0" class="graph" transform="scale(1 1) rotate(0) translate(4 123)">
<title>g</title>
<polygon fill="white" stroke="none" points="-4,4 -4,-123 64,-123 64,4 -4,4"/>
<!-- N63 -->
<g id="node1" class="node"><title>N63</title>
<path fill="#ffffff" stroke="#2e3436" stroke-width="1.5" d="M15,-82.5C15,-82.5 45,-82.5 45,-82.5 51,-82.5 57,-88.5 57,-94.5 57,-94.5 57,-106.5 57,-106.5 57,-112.5 51,-118.5 45,-118.5 45,-118.5 15,-118.5 15,-118.5 9,-118.5 3,-112.5 3,-106.5 3,-106.5 3,-94.5 3,-94.5 3,-88.5 9,-82.5 15,-82.5"/>
<text text-anchor="middle" x="30" y="-107.6" font-family="FreeSans" font-size="8.00" fill="#1c2021">Node[63]</text>
<polyline fill="none" stroke="#2e3436" stroke-width="1.5" points="3,-100.5 57,-100.5 "/>
<text text-anchor="start" x="11" y="-89.6" font-family="FreeSans" font-size="8.00" fill="#1c2021">age = &#39;18&#39;</text>
</g>
<!-- N64 -->
<g id="node2" class="node"><title>N64</title>
<path fill="#ffffff" stroke="#2e3436" stroke-width="1.5" d="M12,-0.5C12,-0.5 48,-0.5 48,-0.5 54,-0.5 60,-6.5 60,-12.5 60,-12.5 60,-24.5 60,-24.5 60,-30.5 54,-36.5 48,-36.5 48,-36.5 12,-36.5 12,-36.5 6,-36.5 -3.55271e-15,-30.5 -3.55271e-15,-24.5 -3.55271e-15,-24.5 -3.55271e-15,-12.5 -3.55271e-15,-12.5 -3.55271e-15,-6.5 6,-0.5 12,-0.5"/>
<text text-anchor="middle" x="30" y="-25.6" font-family="FreeSans" font-size="8.00" fill="#1c2021">Node[64]</text>
<polyline fill="none" stroke="#2e3436" stroke-width="1.5" points="-3.55271e-15,-18.5 60,-18.5 "/>
<text text-anchor="start" x="8" y="-7.6" font-family="FreeSans" font-size="8.00" fill="#1c2021">name = &#39;joe&#39;</text>
</g>
<!-- N63&#45;&gt;N64 -->
<g id="edge1" class="edge"><title>N63&#45;&gt;N64</title>
<path fill="none" stroke="#2e3436" stroke-width="2" d="M30,-82.1412C30,-71.0583 30,-56.5177 30,-44.2358"/>
<polygon fill="#2e3436" stroke="#2e3436" stroke-width="2" points="30,-36.5501 33.3751,-44.0501 30.5,-40.3001 30.5001,-44.0501 30.0001,-44.0501 29.5001,-44.0501 29.5,-40.3001 26.6251,-44.0501 30,-36.5501 30,-36.5501"/>
<text text-anchor="middle" x="42" y="-57.6" font-family="FreeSans" font-size="8.00" fill="#2e3436">knows</text>
</g>
</g>
</svg>
