<?xml version="1.0" encoding="UTF-8" standalone="no"?>
<!DOCTYPE svg PUBLIC "-//W3C//DTD SVG 1.1//EN"
 "http://www.w3.org/Graphics/SVG/1.1/DTD/svg11.dtd">
<!-- Generated by graphviz version 2.38.0 (20140413.2041)
 -->
<!-- Title: g Pages: 1 -->
<svg width="286pt" height="127pt"
 viewBox="0.00 0.00 286.00 127.00" xmlns="http://www.w3.org/2000/svg" xmlns:xlink="http://www.w3.org/1999/xlink">
<g id="graph0" class="graph" transform="scale(1 1) rotate(0) translate(4 123)">
<title>g</title>
<polygon fill="white" stroke="none" points="-4,4 -4,-123 282,-123 282,4 -4,4"/>
<!-- N90 -->
<g id="node1" class="node"><title>N90</title>
<path fill="#ffffff" stroke="#2e3436" stroke-width="1.5" d="M12,-0.5C12,-0.5 62,-0.5 62,-0.5 68,-0.5 74,-6.5 74,-12.5 74,-12.5 74,-24.5 74,-24.5 74,-30.5 68,-36.5 62,-36.5 62,-36.5 12,-36.5 12,-36.5 6,-36.5 0,-30.5 0,-24.5 0,-24.5 0,-12.5 0,-12.5 0,-6.5 6,-0.5 12,-0.5"/>
<text text-anchor="middle" x="37" y="-25.6" font-family="FreeSans" font-size="8.00" fill="#1c2021">Node[90]</text>
<polyline fill="none" stroke="#2e3436" stroke-width="1.5" points="0,-18.5 74,-18.5 "/>
<text text-anchor="start" x="8" y="-7.6" font-family="FreeSans" font-size="8.00" fill="#1c2021">name = &#39;Cookie&#39;</text>
</g>
<!-- N91 -->
<g id="node2" class="node"><title>N91</title>
<path fill="#ffffff" stroke="#2e3436" stroke-width="1.5" d="M115.5,-0.5C115.5,-0.5 162.5,-0.5 162.5,-0.5 168.5,-0.5 174.5,-6.5 174.5,-12.5 174.5,-12.5 174.5,-24.5 174.5,-24.5 174.5,-30.5 168.5,-36.5 162.5,-36.5 162.5,-36.5 115.5,-36.5 115.5,-36.5 109.5,-36.5 103.5,-30.5 103.5,-24.5 103.5,-24.5 103.5,-12.5 103.5,-12.5 103.5,-6.5 109.5,-0.5 115.5,-0.5"/>
<text text-anchor="middle" x="139" y="-25.6" font-family="FreeSans" font-size="8.00" fill="#1c2021">Node[91]</text>
<polyline fill="none" stroke="#2e3436" stroke-width="1.5" points="103.5,-18.5 174.5,-18.5 "/>
<text text-anchor="start" x="111.5" y="-7.6" font-family="FreeSans" font-size="8.00" fill="#1c2021">name = &#39;Johan&#39;</text>
</g>
<!-- N92 -->
<g id="node3" class="node"><title>N92</title>
<path fill="#ffffff" stroke="#2e3436" stroke-width="1.5" d="M118,-82.5C118,-82.5 160,-82.5 160,-82.5 166,-82.5 172,-88.5 172,-94.5 172,-94.5 172,-106.5 172,-106.5 172,-112.5 166,-118.5 160,-118.5 160,-118.5 118,-118.5 118,-118.5 112,-118.5 106,-112.5 106,-106.5 106,-106.5 106,-94.5 106,-94.5 106,-88.5 112,-82.5 118,-82.5"/>
<text text-anchor="middle" x="139" y="-107.6" font-family="FreeSans" font-size="8.00" fill="#1c2021">Node[92]</text>
<polyline fill="none" stroke="#2e3436" stroke-width="1.5" points="106,-100.5 172,-100.5 "/>
<text text-anchor="start" x="114" y="-89.6" font-family="FreeSans" font-size="8.00" fill="#1c2021">name = &#39;Root&#39;</text>
</g>
<!-- N92&#45;&gt;N90 -->
<g id="edge2" class="edge"><title>N92&#45;&gt;N90</title>
<path fill="none" stroke="#4e9a06" stroke-width="2" d="M117.118,-82.338C101.925,-70.4218 81.5474,-54.4391 65.1455,-41.5749"/>
<polygon fill="#4e9a06" stroke="#4e9a06" stroke-width="2" points="58.8454,-36.6336 66.8297,-38.6066 62.1047,-38.5545 65.0554,-40.8688 64.7468,-41.2622 64.4382,-41.6556 61.4875,-39.3413 62.6639,-43.9178 58.8454,-36.6336 58.8454,-36.6336"/>
<text text-anchor="middle" x="103.5" y="-57.6" font-family="FreeSans" font-size="8.00" fill="#4e9a06">LIKES</text>
</g>
<!-- N92&#45;&gt;N91 -->
<g id="edge1" class="edge"><title>N92&#45;&gt;N91</title>
<path fill="none" stroke="#2e3436" stroke-width="2" d="M139,-82.1412C139,-71.0583 139,-56.5177 139,-44.2358"/>
<polygon fill="#2e3436" stroke="#2e3436" stroke-width="2" points="139,-36.5501 142.375,-44.0501 139.5,-40.3001 139.5,-44.0501 139,-44.0501 138.5,-44.0501 138.5,-40.3001 135.625,-44.0501 139,-36.5501 139,-36.5501"/>
<text text-anchor="middle" x="154.5" y="-57.6" font-family="FreeSans" font-size="8.00" fill="#2e3436">KNOWS</text>
</g>
<!-- N93 -->
<g id="node4" class="node"><title>N93</title>
<path fill="#ffffff" stroke="#2e3436" stroke-width="1.5" d="M216,-0.5C216,-0.5 266,-0.5 266,-0.5 272,-0.5 278,-6.5 278,-12.5 278,-12.5 278,-24.5 278,-24.5 278,-30.5 272,-36.5 266,-36.5 266,-36.5 216,-36.5 216,-36.5 210,-36.5 204,-30.5 204,-24.5 204,-24.5 204,-12.5 204,-12.5 204,-6.5 210,-0.5 216,-0.5"/>
<text text-anchor="middle" x="241" y="-25.6" font-family="FreeSans" font-size="8.00" fill="#1c2021">Node[93]</text>
<polyline fill="none" stroke="#2e3436" stroke-width="1.5" points="204,-18.5 278,-18.5 "/>
<text text-anchor="start" x="212" y="-7.6" font-family="FreeSans" font-size="8.00" fill="#1c2021">name = &#39;Mattias&#39;</text>
</g>
<!-- N92&#45;&gt;N93 -->
<g id="edge3" class="edge"><title>N92&#45;&gt;N93</title>
<path fill="none" stroke="#2e3436" stroke-width="2" d="M160.882,-82.338C176.075,-70.4218 196.453,-54.4391 212.855,-41.5749"/>
<polygon fill="#2e3436" stroke="#2e3436" stroke-width="2" points="219.155,-36.6336 215.336,-43.9178 216.512,-39.3413 213.562,-41.6556 213.253,-41.2622 212.945,-40.8688 215.895,-38.5545 211.17,-38.6066 219.155,-36.6336 219.155,-36.6336"/>
<text text-anchor="middle" x="209.5" y="-57.6" font-family="FreeSans" font-size="8.00" fill="#2e3436">KNOWS</text>
</g>
</g>
</svg>
