<?xml version="1.0" encoding="UTF-8" standalone="no"?>
<!DOCTYPE svg PUBLIC "-//W3C//DTD SVG 1.1//EN"
 "http://www.w3.org/Graphics/SVG/1.1/DTD/svg11.dtd">
<!-- Generated by graphviz version 2.38.0 (20140413.2041)
 -->
<!-- Title: g Pages: 1 -->
<svg width="321pt" height="45pt"
 viewBox="0.00 0.00 321.00 45.00" xmlns="http://www.w3.org/2000/svg" xmlns:xlink="http://www.w3.org/1999/xlink">
<g id="graph0" class="graph" transform="scale(1 1) rotate(0) translate(4 41)">
<title>g</title>
<polygon fill="white" stroke="none" points="-4,4 -4,-41 317,-41 317,4 -4,4"/>
<!-- N75 -->
<g id="node1" class="node"><title>N75</title>
<path fill="#ffffff" stroke="#2e3436" stroke-width="1.5" d="M12,-0.5C12,-0.5 52,-0.5 52,-0.5 58,-0.5 64,-6.5 64,-12.5 64,-12.5 64,-24.5 64,-24.5 64,-30.5 58,-36.5 52,-36.5 52,-36.5 12,-36.5 12,-36.5 6,-36.5 0,-30.5 0,-24.5 0,-24.5 0,-12.5 0,-12.5 0,-6.5 6,-0.5 12,-0.5"/>
<text text-anchor="middle" x="32" y="-25.6" font-family="FreeSans" font-size="8.00" fill="#1c2021">Node[75]</text>
<polyline fill="none" stroke="#2e3436" stroke-width="1.5" points="0,-18.5 64,-18.5 "/>
<text text-anchor="start" x="8" y="-7.6" font-family="FreeSans" font-size="8.00" fill="#1c2021">foo = [1, 2, 3]</text>
</g>
<!-- N77 -->
<g id="node2" class="node"><title>N77</title>
<path fill="#ffffff" stroke="#2e3436" stroke-width="1.5" d="M105,-0.5C105,-0.5 135,-0.5 135,-0.5 141,-0.5 147,-6.5 147,-12.5 147,-12.5 147,-24.5 147,-24.5 147,-30.5 141,-36.5 135,-36.5 135,-36.5 105,-36.5 105,-36.5 99,-36.5 93,-30.5 93,-24.5 93,-24.5 93,-12.5 93,-12.5 93,-6.5 99,-0.5 105,-0.5"/>
<text text-anchor="middle" x="120" y="-25.6" font-family="FreeSans" font-size="8.00" fill="#1c2021">Node[77]</text>
<polyline fill="none" stroke="#2e3436" stroke-width="1.5" points="93,-18.5 147,-18.5 "/>
<text text-anchor="middle" x="120" y="-7.6" font-family="FreeSans" font-size="8.00" fill="#1c2021"> </text>
</g>
<!-- N78 -->
<g id="node3" class="node"><title>N78</title>
<path fill="#ffffff" stroke="#2e3436" stroke-width="1.5" d="M188,-0.5C188,-0.5 218,-0.5 218,-0.5 224,-0.5 230,-6.5 230,-12.5 230,-12.5 230,-24.5 230,-24.5 230,-30.5 224,-36.5 218,-36.5 218,-36.5 188,-36.5 188,-36.5 182,-36.5 176,-30.5 176,-24.5 176,-24.5 176,-12.5 176,-12.5 176,-6.5 182,-0.5 188,-0.5"/>
<text text-anchor="middle" x="203" y="-25.6" font-family="FreeSans" font-size="8.00" fill="#1c2021">Node[78]</text>
<polyline fill="none" stroke="#2e3436" stroke-width="1.5" points="176,-18.5 230,-18.5 "/>
<text text-anchor="middle" x="203" y="-7.6" font-family="FreeSans" font-size="8.00" fill="#1c2021"> </text>
</g>
<!-- N79 -->
<g id="node4" class="node"><title>N79</title>
<path fill="#ffffff" stroke="#2e3436" stroke-width="1.5" d="M271,-0.5C271,-0.5 301,-0.5 301,-0.5 307,-0.5 313,-6.5 313,-12.5 313,-12.5 313,-24.5 313,-24.5 313,-30.5 307,-36.5 301,-36.5 301,-36.5 271,-36.5 271,-36.5 265,-36.5 259,-30.5 259,-24.5 259,-24.5 259,-12.5 259,-12.5 259,-6.5 265,-0.5 271,-0.5"/>
<text text-anchor="middle" x="286" y="-25.6" font-family="FreeSans" font-size="8.00" fill="#1c2021">Node[79]</text>
<polyline fill="none" stroke="#2e3436" stroke-width="1.5" points="259,-18.5 313,-18.5 "/>
<text text-anchor="start" x="267" y="-7.6" font-family="FreeSans" font-size="8.00" fill="#1c2021">foo = &#39;bar&#39;</text>
</g>
</g>
</svg>
