<?xml version="1.0" encoding="UTF-8" standalone="no"?>
<!DOCTYPE svg PUBLIC "-//W3C//DTD SVG 1.1//EN"
 "http://www.w3.org/Graphics/SVG/1.1/DTD/svg11.dtd">
<!-- Generated by graphviz version 2.38.0 (20140413.2041)
 -->
<!-- Title: g Pages: 1 -->
<svg width="504pt" height="41pt"
 viewBox="0.00 0.00 504.00 40.50" xmlns="http://www.w3.org/2000/svg" xmlns:xlink="http://www.w3.org/1999/xlink">
<g id="graph0" class="graph" transform="scale(0.9 0.9) rotate(0) translate(4 41)">
<title>g</title>
<polygon fill="white" stroke="none" points="-4,4 -4,-41 556,-41 556,4 -4,4"/>
<!-- N67 -->
<g id="node1" class="node"><title>N67</title>
<path fill="#ffffff" stroke="#2e3436" stroke-width="1.5" d="M12,-0.5C12,-0.5 42,-0.5 42,-0.5 48,-0.5 54,-6.5 54,-12.5 54,-12.5 54,-24.5 54,-24.5 54,-30.5 48,-36.5 42,-36.5 42,-36.5 12,-36.5 12,-36.5 6,-36.5 0,-30.5 0,-24.5 0,-24.5 0,-12.5 0,-12.5 0,-6.5 6,-0.5 12,-0.5"/>
<text text-anchor="middle" x="27" y="-25.6" font-family="FreeSans" font-size="8.00" fill="#1c2021">Node[67]</text>
<polyline fill="none" stroke="#2e3436" stroke-width="1.5" points="0,-18.5 54,-18.5 "/>
<text text-anchor="middle" x="27" y="-7.6" font-family="FreeSans" font-size="8.00" fill="#1c2021"> </text>
</g>
<!-- N68 -->
<g id="node2" class="node"><title>N68</title>
<path fill="#ffffff" stroke="#2e3436" stroke-width="1.5" d="M95,-0.5C95,-0.5 125,-0.5 125,-0.5 131,-0.5 137,-6.5 137,-12.5 137,-12.5 137,-24.5 137,-24.5 137,-30.5 131,-36.5 125,-36.5 125,-36.5 95,-36.5 95,-36.5 89,-36.5 83,-30.5 83,-24.5 83,-24.5 83,-12.5 83,-12.5 83,-6.5 89,-0.5 95,-0.5"/>
<text text-anchor="middle" x="110" y="-25.6" font-family="FreeSans" font-size="8.00" fill="#1c2021">Node[68]</text>
<polyline fill="none" stroke="#2e3436" stroke-width="1.5" points="83,-18.5 137,-18.5 "/>
<text text-anchor="middle" x="110" y="-7.6" font-family="FreeSans" font-size="8.00" fill="#1c2021"> </text>
</g>
<!-- N69 -->
<g id="node3" class="node"><title>N69</title>
<path fill="#ffffff" stroke="#2e3436" stroke-width="1.5" d="M178,-0.5C178,-0.5 208,-0.5 208,-0.5 214,-0.5 220,-6.5 220,-12.5 220,-12.5 220,-24.5 220,-24.5 220,-30.5 214,-36.5 208,-36.5 208,-36.5 178,-36.5 178,-36.5 172,-36.5 166,-30.5 166,-24.5 166,-24.5 166,-12.5 166,-12.5 166,-6.5 172,-0.5 178,-0.5"/>
<text text-anchor="middle" x="193" y="-25.6" font-family="FreeSans" font-size="8.00" fill="#1c2021">Node[69]</text>
<polyline fill="none" stroke="#2e3436" stroke-width="1.5" points="166,-18.5 220,-18.5 "/>
<text text-anchor="middle" x="193" y="-7.6" font-family="FreeSans" font-size="8.00" fill="#1c2021"> </text>
</g>
<!-- N70 -->
<g id="node4" class="node"><title>N70</title>
<path fill="#ffffff" stroke="#2e3436" stroke-width="1.5" d="M261,-0.5C261,-0.5 291,-0.5 291,-0.5 297,-0.5 303,-6.5 303,-12.5 303,-12.5 303,-24.5 303,-24.5 303,-30.5 297,-36.5 291,-36.5 291,-36.5 261,-36.5 261,-36.5 255,-36.5 249,-30.5 249,-24.5 249,-24.5 249,-12.5 249,-12.5 249,-6.5 255,-0.5 261,-0.5"/>
<text text-anchor="middle" x="276" y="-25.6" font-family="FreeSans" font-size="8.00" fill="#1c2021">Node[70]</text>
<polyline fill="none" stroke="#2e3436" stroke-width="1.5" points="249,-18.5 303,-18.5 "/>
<text text-anchor="middle" x="276" y="-7.6" font-family="FreeSans" font-size="8.00" fill="#1c2021"> </text>
</g>
<!-- N71 -->
<g id="node5" class="node"><title>N71</title>
<path fill="#ffffff" stroke="#2e3436" stroke-width="1.5" d="M344,-0.5C344,-0.5 374,-0.5 374,-0.5 380,-0.5 386,-6.5 386,-12.5 386,-12.5 386,-24.5 386,-24.5 386,-30.5 380,-36.5 374,-36.5 374,-36.5 344,-36.5 344,-36.5 338,-36.5 332,-30.5 332,-24.5 332,-24.5 332,-12.5 332,-12.5 332,-6.5 338,-0.5 344,-0.5"/>
<text text-anchor="middle" x="359" y="-25.6" font-family="FreeSans" font-size="8.00" fill="#1c2021">Node[71]</text>
<polyline fill="none" stroke="#2e3436" stroke-width="1.5" points="332,-18.5 386,-18.5 "/>
<text text-anchor="middle" x="359" y="-7.6" font-family="FreeSans" font-size="8.00" fill="#1c2021"> </text>
</g>
<!-- N72 -->
<g id="node6" class="node"><title>N72</title>
<path fill="#ffffff" stroke="#2e3436" stroke-width="1.5" d="M427,-0.5C427,-0.5 457,-0.5 457,-0.5 463,-0.5 469,-6.5 469,-12.5 469,-12.5 469,-24.5 469,-24.5 469,-30.5 463,-36.5 457,-36.5 457,-36.5 427,-36.5 427,-36.5 421,-36.5 415,-30.5 415,-24.5 415,-24.5 415,-12.5 415,-12.5 415,-6.5 421,-0.5 427,-0.5"/>
<text text-anchor="middle" x="442" y="-25.6" font-family="FreeSans" font-size="8.00" fill="#1c2021">Node[72]</text>
<polyline fill="none" stroke="#2e3436" stroke-width="1.5" points="415,-18.5 469,-18.5 "/>
<text text-anchor="middle" x="442" y="-7.6" font-family="FreeSans" font-size="8.00" fill="#1c2021"> </text>
</g>
<!-- N73 -->
<g id="node7" class="node"><title>N73</title>
<path fill="#ffffff" stroke="#2e3436" stroke-width="1.5" d="M510,-0.5C510,-0.5 540,-0.5 540,-0.5 546,-0.5 552,-6.5 552,-12.5 552,-12.5 552,-24.5 552,-24.5 552,-30.5 546,-36.5 540,-36.5 540,-36.5 510,-36.5 510,-36.5 504,-36.5 498,-30.5 498,-24.5 498,-24.5 498,-12.5 498,-12.5 498,-6.5 504,-0.5 510,-0.5"/>
<text text-anchor="middle" x="525" y="-25.6" font-family="FreeSans" font-size="8.00" fill="#1c2021">Node[73]</text>
<polyline fill="none" stroke="#2e3436" stroke-width="1.5" points="498,-18.5 552,-18.5 "/>
<text text-anchor="middle" x="525" y="-7.6" font-family="FreeSans" font-size="8.00" fill="#1c2021"> </text>
</g>
</g>
</svg>
