<?xml version="1.0" encoding="UTF-8" standalone="no"?>
<!DOCTYPE svg PUBLIC "-//W3C//DTD SVG 1.1//EN"
 "http://www.w3.org/Graphics/SVG/1.1/DTD/svg11.dtd">
<!-- Generated by graphviz version 2.38.0 (20140413.2041)
 -->
<!-- Title: g Pages: 1 -->
<svg width="404pt" height="45pt"
 viewBox="0.00 0.00 404.00 45.00" xmlns="http://www.w3.org/2000/svg" xmlns:xlink="http://www.w3.org/1999/xlink">
<g id="graph0" class="graph" transform="scale(1 1) rotate(0) translate(4 41)">
<title>g</title>
<polygon fill="white" stroke="none" points="-4,4 -4,-41 400,-41 400,4 -4,4"/>
<!-- N190 -->
<g id="node1" class="node"><title>N190</title>
<path fill="#ffffff" stroke="#2e3436" stroke-width="1.5" d="M12,-0.5C12,-0.5 98,-0.5 98,-0.5 104,-0.5 110,-6.5 110,-12.5 110,-12.5 110,-24.5 110,-24.5 110,-30.5 104,-36.5 98,-36.5 98,-36.5 12,-36.5 12,-36.5 6,-36.5 0,-30.5 0,-24.5 0,-24.5 0,-12.5 0,-12.5 0,-6.5 6,-0.5 12,-0.5"/>
<text text-anchor="middle" x="55" y="-25.6" font-family="FreeSans" font-size="8.00" fill="#1c2021">Node[190]: Director</text>
<polyline fill="none" stroke="#2e3436" stroke-width="1.5" points="0,-18.5 110,-18.5 "/>
<text text-anchor="start" x="8" y="-7.6" font-family="FreeSans" font-size="8.00" fill="#1c2021">name = &#39;Steven Spielberg&#39;</text>
</g>
<!-- N191 -->
<g id="node2" class="node"><title>N191</title>
<path fill="#ffffff" stroke="#2e3436" stroke-width="1.5" d="M151,-0.5C151,-0.5 239,-0.5 239,-0.5 245,-0.5 251,-6.5 251,-12.5 251,-12.5 251,-24.5 251,-24.5 251,-30.5 245,-36.5 239,-36.5 239,-36.5 151,-36.5 151,-36.5 145,-36.5 139,-30.5 139,-24.5 139,-24.5 139,-12.5 139,-12.5 139,-6.5 145,-0.5 151,-0.5"/>
<text text-anchor="middle" x="195" y="-25.6" font-family="FreeSans" font-size="8.00" fill="#1c2021">Node[191]: Director, Actor</text>
<polyline fill="none" stroke="#2e3436" stroke-width="1.5" points="139,-18.5 251,-18.5 "/>
<text text-anchor="start" x="147" y="-7.6" font-family="FreeSans" font-size="8.00" fill="#1c2021">name = &#39;Clint Eastwood&#39;</text>
</g>
<!-- N192 -->
<g id="node3" class="node"><title>N192</title>
<path fill="#ffffff" stroke="#2e3436" stroke-width="1.5" d="M292,-0.5C292,-0.5 384,-0.5 384,-0.5 390,-0.5 396,-6.5 396,-12.5 396,-12.5 396,-24.5 396,-24.5 396,-30.5 390,-36.5 384,-36.5 384,-36.5 292,-36.5 292,-36.5 286,-36.5 280,-30.5 280,-24.5 280,-24.5 280,-12.5 280,-12.5 280,-6.5 286,-0.5 292,-0.5"/>
<text text-anchor="middle" x="338" y="-25.6" font-family="FreeSans" font-size="8.00" fill="#1c2021">Node[192]: Actor</text>
<polyline fill="none" stroke="#2e3436" stroke-width="1.5" points="280,-18.5 396,-18.5 "/>
<text text-anchor="start" x="288" y="-7.6" font-family="FreeSans" font-size="8.00" fill="#1c2021">name = &#39;Donald Sutherland&#39;</text>
</g>
</g>
</svg>
