<?xml version="1.0" encoding="UTF-8" standalone="no"?>
<!DOCTYPE svg PUBLIC "-//W3C//DTD SVG 1.1//EN"
 "http://www.w3.org/Graphics/SVG/1.1/DTD/svg11.dtd">
<!-- Generated by graphviz version 2.38.0 (20140413.2041)
 -->
<!-- Title: g Pages: 1 -->
<svg width="69pt" height="52pt"
 viewBox="0.00 0.00 69.00 52.00" xmlns="http://www.w3.org/2000/svg" xmlns:xlink="http://www.w3.org/1999/xlink">
<g id="graph0" class="graph" transform="scale(1 1) rotate(0) translate(4 48)">
<title>g</title>
<polygon fill="white" stroke="none" points="-4,4 -4,-48 65,-48 65,4 -4,4"/>
<!-- N65 -->
<g id="node1" class="node"><title>N65</title>
<path fill="#ffffff" stroke="#2e3436" stroke-width="1.5" d="M12,-0.5C12,-0.5 49,-0.5 49,-0.5 55,-0.5 61,-6.5 61,-12.5 61,-12.5 61,-31.5 61,-31.5 61,-37.5 55,-43.5 49,-43.5 49,-43.5 12,-43.5 12,-43.5 6,-43.5 0,-37.5 0,-31.5 0,-31.5 0,-12.5 0,-12.5 0,-6.5 6,-0.5 12,-0.5"/>
<text text-anchor="middle" x="30.5" y="-33.1" font-family="FreeSans" font-size="8.00" fill="#1c2021">Node[65]</text>
<polyline fill="none" stroke="#2e3436" stroke-width="1.5" points="0,-26.5 61,-26.5 "/>
<text text-anchor="start" x="8" y="-16.1" font-family="FreeSans" font-size="8.00" fill="#1c2021">foo2 = &#39;bar2&#39;</text>
<text text-anchor="start" x="8" y="-7.1" font-family="FreeSans" font-size="8.00" fill="#1c2021">foo = &#39;bar&#39;</text>
</g>
</g>
</svg>
