<?xml version="1.0" encoding="UTF-8" standalone="no"?>
<!DOCTYPE svg PUBLIC "-//W3C//DTD SVG 1.1//EN"
 "http://www.w3.org/Graphics/SVG/1.1/DTD/svg11.dtd">
<!-- Generated by graphviz version 2.38.0 (20140413.2041)
 -->
<!-- Title: g Pages: 1 -->
<svg width="411pt" height="136pt"
 viewBox="0.00 0.00 411.00 136.00" xmlns="http://www.w3.org/2000/svg" xmlns:xlink="http://www.w3.org/1999/xlink">
<g id="graph0" class="graph" transform="scale(1 1) rotate(0) translate(4 132)">
<title>g</title>
<polygon fill="white" stroke="none" points="-4,4 -4,-132 407,-132 407,4 -4,4"/>
<!-- N131 -->
<g id="node1" class="node"><title>N131</title>
<path fill="#ffffff" stroke="#2e3436" stroke-width="1.5" d="M12,-91.5C12,-91.5 42,-91.5 42,-91.5 48,-91.5 54,-97.5 54,-103.5 54,-103.5 54,-115.5 54,-115.5 54,-121.5 48,-127.5 42,-127.5 42,-127.5 12,-127.5 12,-127.5 6,-127.5 0,-121.5 0,-115.5 0,-115.5 0,-103.5 0,-103.5 0,-97.5 6,-91.5 12,-91.5"/>
<text text-anchor="middle" x="27" y="-116.6" font-family="FreeSans" font-size="8.00" fill="#1c2021">Node[131]</text>
<polyline fill="none" stroke="#2e3436" stroke-width="1.5" points="0,-109.5 54,-109.5 "/>
<text text-anchor="middle" x="27" y="-98.6" font-family="FreeSans" font-size="8.00" fill="#1c2021"> </text>
</g>
<!-- N132 -->
<g id="node2" class="node"><title>N132</title>
<path fill="#ffffff" stroke="#2e3436" stroke-width="1.5" d="M12,-0.5C12,-0.5 42,-0.5 42,-0.5 48,-0.5 54,-6.5 54,-12.5 54,-12.5 54,-24.5 54,-24.5 54,-30.5 48,-36.5 42,-36.5 42,-36.5 12,-36.5 12,-36.5 6,-36.5 0,-30.5 0,-24.5 0,-24.5 0,-12.5 0,-12.5 0,-6.5 6,-0.5 12,-0.5"/>
<text text-anchor="middle" x="27" y="-25.6" font-family="FreeSans" font-size="8.00" fill="#1c2021">Node[132]</text>
<polyline fill="none" stroke="#2e3436" stroke-width="1.5" points="0,-18.5 54,-18.5 "/>
<text text-anchor="middle" x="27" y="-7.6" font-family="FreeSans" font-size="8.00" fill="#1c2021"> </text>
</g>
<!-- N131&#45;&gt;N132 -->
<g id="edge1" class="edge"><title>N131&#45;&gt;N132</title>
<path fill="none" stroke="#2e3436" stroke-width="2" d="M27,-91.3399C27,-78.0425 27,-59.4274 27,-44.4783"/>
<polygon fill="#2e3436" stroke="#2e3436" stroke-width="2" points="27,-36.6074 30.3751,-44.1074 27.5,-40.3574 27.5001,-44.1074 27.0001,-44.1074 26.5001,-44.1074 26.5,-40.3574 23.6251,-44.1075 27,-36.6074 27,-36.6074"/>
<text text-anchor="middle" x="42.5" y="-62.1" font-family="FreeSans" font-size="8.00" fill="#2e3436">KNOWS</text>
</g>
<!-- N133 -->
<g id="node3" class="node"><title>N133</title>
<path fill="#ffffff" stroke="#2e3436" stroke-width="1.5" d="M95,-91.5C95,-91.5 125,-91.5 125,-91.5 131,-91.5 137,-97.5 137,-103.5 137,-103.5 137,-115.5 137,-115.5 137,-121.5 131,-127.5 125,-127.5 125,-127.5 95,-127.5 95,-127.5 89,-127.5 83,-121.5 83,-115.5 83,-115.5 83,-103.5 83,-103.5 83,-97.5 89,-91.5 95,-91.5"/>
<text text-anchor="middle" x="110" y="-116.6" font-family="FreeSans" font-size="8.00" fill="#1c2021">Node[133]</text>
<polyline fill="none" stroke="#2e3436" stroke-width="1.5" points="83,-109.5 137,-109.5 "/>
<text text-anchor="middle" x="110" y="-98.6" font-family="FreeSans" font-size="8.00" fill="#1c2021"> </text>
</g>
<!-- N134 -->
<g id="node4" class="node"><title>N134</title>
<path fill="#ffffff" stroke="#2e3436" stroke-width="1.5" d="M95,-0.5C95,-0.5 125,-0.5 125,-0.5 131,-0.5 137,-6.5 137,-12.5 137,-12.5 137,-24.5 137,-24.5 137,-30.5 131,-36.5 125,-36.5 125,-36.5 95,-36.5 95,-36.5 89,-36.5 83,-30.5 83,-24.5 83,-24.5 83,-12.5 83,-12.5 83,-6.5 89,-0.5 95,-0.5"/>
<text text-anchor="middle" x="110" y="-25.6" font-family="FreeSans" font-size="8.00" fill="#1c2021">Node[134]</text>
<polyline fill="none" stroke="#2e3436" stroke-width="1.5" points="83,-18.5 137,-18.5 "/>
<text text-anchor="middle" x="110" y="-7.6" font-family="FreeSans" font-size="8.00" fill="#1c2021"> </text>
</g>
<!-- N133&#45;&gt;N134 -->
<g id="edge2" class="edge"><title>N133&#45;&gt;N134</title>
<path fill="none" stroke="#2e3436" stroke-width="2" d="M110,-91.3399C110,-78.0425 110,-59.4274 110,-44.4783"/>
<polygon fill="#2e3436" stroke="#2e3436" stroke-width="2" points="110,-36.6074 113.375,-44.1074 110.5,-40.3574 110.5,-44.1074 110,-44.1074 109.5,-44.1074 109.5,-40.3574 106.625,-44.1075 110,-36.6074 110,-36.6074"/>
<text text-anchor="middle" x="125.5" y="-62.1" font-family="FreeSans" font-size="8.00" fill="#2e3436">KNOWS</text>
</g>
<!-- N135 -->
<g id="node5" class="node"><title>N135</title>
<path fill="#ffffff" stroke="#2e3436" stroke-width="1.5" d="M178,-91.5C178,-91.5 208,-91.5 208,-91.5 214,-91.5 220,-97.5 220,-103.5 220,-103.5 220,-115.5 220,-115.5 220,-121.5 214,-127.5 208,-127.5 208,-127.5 178,-127.5 178,-127.5 172,-127.5 166,-121.5 166,-115.5 166,-115.5 166,-103.5 166,-103.5 166,-97.5 172,-91.5 178,-91.5"/>
<text text-anchor="middle" x="193" y="-116.6" font-family="FreeSans" font-size="8.00" fill="#1c2021">Node[135]</text>
<polyline fill="none" stroke="#2e3436" stroke-width="1.5" points="166,-109.5 220,-109.5 "/>
<text text-anchor="middle" x="193" y="-98.6" font-family="FreeSans" font-size="8.00" fill="#1c2021"> </text>
</g>
<!-- N136 -->
<g id="node6" class="node"><title>N136</title>
<path fill="#ffffff" stroke="#2e3436" stroke-width="1.5" d="M178,-0.5C178,-0.5 208,-0.5 208,-0.5 214,-0.5 220,-6.5 220,-12.5 220,-12.5 220,-24.5 220,-24.5 220,-30.5 214,-36.5 208,-36.5 208,-36.5 178,-36.5 178,-36.5 172,-36.5 166,-30.5 166,-24.5 166,-24.5 166,-12.5 166,-12.5 166,-6.5 172,-0.5 178,-0.5"/>
<text text-anchor="middle" x="193" y="-25.6" font-family="FreeSans" font-size="8.00" fill="#1c2021">Node[136]</text>
<polyline fill="none" stroke="#2e3436" stroke-width="1.5" points="166,-18.5 220,-18.5 "/>
<text text-anchor="middle" x="193" y="-7.6" font-family="FreeSans" font-size="8.00" fill="#1c2021"> </text>
</g>
<!-- N135&#45;&gt;N136 -->
<g id="edge3" class="edge"><title>N135&#45;&gt;N136</title>
<path fill="none" stroke="#2e3436" stroke-width="2" d="M193,-91.3399C193,-78.0425 193,-59.4274 193,-44.4783"/>
<polygon fill="#2e3436" stroke="#2e3436" stroke-width="2" points="193,-36.6074 196.375,-44.1074 193.5,-40.3574 193.5,-44.1074 193,-44.1074 192.5,-44.1074 192.5,-40.3574 189.625,-44.1075 193,-36.6074 193,-36.6074"/>
<text text-anchor="middle" x="208.5" y="-62.1" font-family="FreeSans" font-size="8.00" fill="#2e3436">KNOWS</text>
</g>
<!-- N137 -->
<g id="node7" class="node"><title>N137</title>
<path fill="#ffffff" stroke="#2e3436" stroke-width="1.5" d="M261,-91.5C261,-91.5 291,-91.5 291,-91.5 297,-91.5 303,-97.5 303,-103.5 303,-103.5 303,-115.5 303,-115.5 303,-121.5 297,-127.5 291,-127.5 291,-127.5 261,-127.5 261,-127.5 255,-127.5 249,-121.5 249,-115.5 249,-115.5 249,-103.5 249,-103.5 249,-97.5 255,-91.5 261,-91.5"/>
<text text-anchor="middle" x="276" y="-116.6" font-family="FreeSans" font-size="8.00" fill="#1c2021">Node[137]</text>
<polyline fill="none" stroke="#2e3436" stroke-width="1.5" points="249,-109.5 303,-109.5 "/>
<text text-anchor="middle" x="276" y="-98.6" font-family="FreeSans" font-size="8.00" fill="#1c2021"> </text>
</g>
<!-- N138 -->
<g id="node8" class="node"><title>N138</title>
<path fill="#ffffff" stroke="#2e3436" stroke-width="1.5" d="M261,-0.5C261,-0.5 291,-0.5 291,-0.5 297,-0.5 303,-6.5 303,-12.5 303,-12.5 303,-24.5 303,-24.5 303,-30.5 297,-36.5 291,-36.5 291,-36.5 261,-36.5 261,-36.5 255,-36.5 249,-30.5 249,-24.5 249,-24.5 249,-12.5 249,-12.5 249,-6.5 255,-0.5 261,-0.5"/>
<text text-anchor="middle" x="276" y="-25.6" font-family="FreeSans" font-size="8.00" fill="#1c2021">Node[138]</text>
<polyline fill="none" stroke="#2e3436" stroke-width="1.5" points="249,-18.5 303,-18.5 "/>
<text text-anchor="middle" x="276" y="-7.6" font-family="FreeSans" font-size="8.00" fill="#1c2021"> </text>
</g>
<!-- N137&#45;&gt;N138 -->
<g id="edge4" class="edge"><title>N137&#45;&gt;N138</title>
<path fill="none" stroke="#2e3436" stroke-width="2" d="M276,-91.3399C276,-78.0425 276,-59.4274 276,-44.4783"/>
<polygon fill="#2e3436" stroke="#2e3436" stroke-width="2" points="276,-36.6074 279.375,-44.1074 276.5,-40.3574 276.5,-44.1074 276,-44.1074 275.5,-44.1074 275.5,-40.3574 272.625,-44.1075 276,-36.6074 276,-36.6074"/>
<text text-anchor="middle" x="291.5" y="-62.1" font-family="FreeSans" font-size="8.00" fill="#2e3436">KNOWS</text>
</g>
<!-- N139 -->
<g id="node9" class="node"><title>N139</title>
<path fill="#ffffff" stroke="#2e3436" stroke-width="1.5" d="M344,-91.5C344,-91.5 374,-91.5 374,-91.5 380,-91.5 386,-97.5 386,-103.5 386,-103.5 386,-115.5 386,-115.5 386,-121.5 380,-127.5 374,-127.5 374,-127.5 344,-127.5 344,-127.5 338,-127.5 332,-121.5 332,-115.5 332,-115.5 332,-103.5 332,-103.5 332,-97.5 338,-91.5 344,-91.5"/>
<text text-anchor="middle" x="359" y="-116.6" font-family="FreeSans" font-size="8.00" fill="#1c2021">Node[139]</text>
<polyline fill="none" stroke="#2e3436" stroke-width="1.5" points="332,-109.5 386,-109.5 "/>
<text text-anchor="middle" x="359" y="-98.6" font-family="FreeSans" font-size="8.00" fill="#1c2021"> </text>
</g>
<!-- N140 -->
<g id="node10" class="node"><title>N140</title>
<path fill="#ffffff" stroke="#2e3436" stroke-width="1.5" d="M344,-0.5C344,-0.5 374,-0.5 374,-0.5 380,-0.5 386,-6.5 386,-12.5 386,-12.5 386,-24.5 386,-24.5 386,-30.5 380,-36.5 374,-36.5 374,-36.5 344,-36.5 344,-36.5 338,-36.5 332,-30.5 332,-24.5 332,-24.5 332,-12.5 332,-12.5 332,-6.5 338,-0.5 344,-0.5"/>
<text text-anchor="middle" x="359" y="-25.6" font-family="FreeSans" font-size="8.00" fill="#1c2021">Node[140]</text>
<polyline fill="none" stroke="#2e3436" stroke-width="1.5" points="332,-18.5 386,-18.5 "/>
<text text-anchor="middle" x="359" y="-7.6" font-family="FreeSans" font-size="8.00" fill="#1c2021"> </text>
</g>
<!-- N139&#45;&gt;N140 -->
<g id="edge5" class="edge"><title>N139&#45;&gt;N140</title>
<path fill="none" stroke="#2e3436" stroke-width="2" d="M359,-91.3399C359,-78.0425 359,-59.4274 359,-44.4783"/>
<polygon fill="#2e3436" stroke="#2e3436" stroke-width="2" points="359,-36.6074 362.375,-44.1074 359.5,-40.3574 359.5,-44.1074 359,-44.1074 358.5,-44.1074 358.5,-40.3574 355.625,-44.1075 359,-36.6074 359,-36.6074"/>
<text text-anchor="middle" x="381" y="-66.6" font-family="FreeSans" font-size="8.00" fill="#2e3436">KNOWS</text>
<text text-anchor="start" x="359" y="-57.6" font-family="FreeSans" font-size="8.00" fill="#2e3436">jim = &#39;tobias&#39;</text>
</g>
</g>
</svg>
