<?xml version="1.0" encoding="UTF-8" standalone="no"?>
<!DOCTYPE svg PUBLIC "-//W3C//DTD SVG 1.1//EN"
 "http://www.w3.org/Graphics/SVG/1.1/DTD/svg11.dtd">
<!-- Generated by graphviz version 2.38.0 (20140413.2041)
 -->
<!-- Title: g Pages: 1 -->
<svg width="95pt" height="145pt"
 viewBox="0.00 0.00 94.50 145.00" xmlns="http://www.w3.org/2000/svg" xmlns:xlink="http://www.w3.org/1999/xlink">
<g id="graph0" class="graph" transform="scale(1 1) rotate(0) translate(4 141)">
<title>g</title>
<polygon fill="white" stroke="none" points="-4,4 -4,-141 90.5,-141 90.5,4 -4,4"/>
<!-- N114 -->
<g id="node1" class="node"><title>N114</title>
<path fill="#ffffff" stroke="#2e3436" stroke-width="1.5" d="M15.5,-0.5C15.5,-0.5 59.5,-0.5 59.5,-0.5 65.5,-0.5 71.5,-6.5 71.5,-12.5 71.5,-12.5 71.5,-24.5 71.5,-24.5 71.5,-30.5 65.5,-36.5 59.5,-36.5 59.5,-36.5 15.5,-36.5 15.5,-36.5 9.5,-36.5 3.5,-30.5 3.5,-24.5 3.5,-24.5 3.5,-12.5 3.5,-12.5 3.5,-6.5 9.5,-0.5 15.5,-0.5"/>
<text text-anchor="middle" x="37.5" y="-25.6" font-family="FreeSans" font-size="8.00" fill="#1c2021">Node[114]</text>
<polyline fill="none" stroke="#2e3436" stroke-width="1.5" points="3.5,-18.5 71.5,-18.5 "/>
<text text-anchor="start" x="11.5" y="-7.6" font-family="FreeSans" font-size="8.00" fill="#1c2021">name = &#39;Juliet&#39;</text>
</g>
<!-- N115 -->
<g id="node2" class="node"><title>N115</title>
<path fill="#ffffff" stroke="#2e3436" stroke-width="1.5" d="M12,-100.5C12,-100.5 63,-100.5 63,-100.5 69,-100.5 75,-106.5 75,-112.5 75,-112.5 75,-124.5 75,-124.5 75,-130.5 69,-136.5 63,-136.5 63,-136.5 12,-136.5 12,-136.5 6,-136.5 -7.10543e-15,-130.5 -7.10543e-15,-124.5 -7.10543e-15,-124.5 -7.10543e-15,-112.5 -7.10543e-15,-112.5 -7.10543e-15,-106.5 6,-100.5 12,-100.5"/>
<text text-anchor="middle" x="37.5" y="-125.6" font-family="FreeSans" font-size="8.00" fill="#1c2021">Node[115]</text>
<polyline fill="none" stroke="#2e3436" stroke-width="1.5" points="-7.10543e-15,-118.5 75,-118.5 "/>
<text text-anchor="start" x="8" y="-107.6" font-family="FreeSans" font-size="8.00" fill="#1c2021">name = &#39;Romeo&#39;</text>
</g>
<!-- N115&#45;&gt;N114 -->
<g id="edge1" class="edge"><title>N115&#45;&gt;N114</title>
<path fill="none" stroke="#2e3436" stroke-width="2" d="M37.5,-100.43C37.5,-84.9265 37.5,-61.8702 37.5,-44.3283"/>
<polygon fill="#2e3436" stroke="#2e3436" stroke-width="2" points="37.5,-36.7035 40.8751,-44.2035 38,-40.4535 38.0001,-44.2035 37.5001,-44.2035 37.0001,-44.2035 37,-40.4535 34.1251,-44.2035 37.5,-36.7035 37.5,-36.7035"/>
<text text-anchor="middle" x="62" y="-75.6" font-family="FreeSans" font-size="8.00" fill="#2e3436">LOVES</text>
<text text-anchor="start" x="37.5" y="-66.6" font-family="FreeSans" font-size="8.00" fill="#2e3436">since = &#39;1day&#39;</text>
<text text-anchor="start" x="37.5" y="-57.6" font-family="FreeSans" font-size="8.00" fill="#2e3436">cost = &#39;high&#39;</text>
</g>
</g>
</svg>
