<?xml version="1.0" encoding="UTF-8" standalone="no"?>
<!DOCTYPE svg PUBLIC "-//W3C//DTD SVG 1.1//EN"
 "http://www.w3.org/Graphics/SVG/1.1/DTD/svg11.dtd">
<!-- Generated by graphviz version 2.38.0 (20140413.2041)
 -->
<!-- Title: g Pages: 1 -->
<svg width="210pt" height="373pt"
 viewBox="0.00 0.00 210.00 373.00" xmlns="http://www.w3.org/2000/svg" xmlns:xlink="http://www.w3.org/1999/xlink">
<g id="graph0" class="graph" transform="scale(1 1) rotate(0) translate(4 369)">
<title>g</title>
<polygon fill="white" stroke="none" points="-4,4 -4,-369 206,-369 206,4 -4,4"/>
<!-- N171 -->
<g id="node1" class="node"><title>N171</title>
<path fill="#ffffff" stroke="#2e3436" stroke-width="1.5" d="M113,-0.5C113,-0.5 155,-0.5 155,-0.5 161,-0.5 167,-6.5 167,-12.5 167,-12.5 167,-24.5 167,-24.5 167,-30.5 161,-36.5 155,-36.5 155,-36.5 113,-36.5 113,-36.5 107,-36.5 101,-30.5 101,-24.5 101,-24.5 101,-12.5 101,-12.5 101,-6.5 107,-0.5 113,-0.5"/>
<text text-anchor="middle" x="134" y="-25.6" font-family="FreeSans" font-size="8.00" fill="#1c2021">Node[171]</text>
<polyline fill="none" stroke="#2e3436" stroke-width="1.5" points="101,-18.5 167,-18.5 "/>
<text text-anchor="start" x="109" y="-7.6" font-family="FreeSans" font-size="8.00" fill="#1c2021">name = &#39;Sara&#39;</text>
</g>
<!-- N172 -->
<g id="node2" class="node"><title>N172</title>
<path fill="#ffffff" stroke="#2e3436" stroke-width="1.5" d="M39.5,-246.5C39.5,-246.5 86.5,-246.5 86.5,-246.5 92.5,-246.5 98.5,-252.5 98.5,-258.5 98.5,-258.5 98.5,-270.5 98.5,-270.5 98.5,-276.5 92.5,-282.5 86.5,-282.5 86.5,-282.5 39.5,-282.5 39.5,-282.5 33.5,-282.5 27.5,-276.5 27.5,-270.5 27.5,-270.5 27.5,-258.5 27.5,-258.5 27.5,-252.5 33.5,-246.5 39.5,-246.5"/>
<text text-anchor="middle" x="63" y="-271.6" font-family="FreeSans" font-size="8.00" fill="#1c2021">Node[172]</text>
<polyline fill="none" stroke="#2e3436" stroke-width="1.5" points="27.5,-264.5 98.5,-264.5 "/>
<text text-anchor="start" x="35.5" y="-253.6" font-family="FreeSans" font-size="8.00" fill="#1c2021">name = &#39;Johan&#39;</text>
</g>
<!-- N173 -->
<g id="node3" class="node"><title>N173</title>
<path fill="#ffffff" stroke="#2e3436" stroke-width="1.5" d="M43,-164.5C43,-164.5 83,-164.5 83,-164.5 89,-164.5 95,-170.5 95,-176.5 95,-176.5 95,-188.5 95,-188.5 95,-194.5 89,-200.5 83,-200.5 83,-200.5 43,-200.5 43,-200.5 37,-200.5 31,-194.5 31,-188.5 31,-188.5 31,-176.5 31,-176.5 31,-170.5 37,-164.5 43,-164.5"/>
<text text-anchor="middle" x="63" y="-189.6" font-family="FreeSans" font-size="8.00" fill="#1c2021">Node[173]</text>
<polyline fill="none" stroke="#2e3436" stroke-width="1.5" points="31,-182.5 95,-182.5 "/>
<text text-anchor="start" x="39" y="-171.6" font-family="FreeSans" font-size="8.00" fill="#1c2021">name = &#39;Emil&#39;</text>
</g>
<!-- N172&#45;&gt;N173 -->
<g id="edge1" class="edge"><title>N172&#45;&gt;N173</title>
<path fill="none" stroke="#2e3436" stroke-width="2" d="M63,-246.141C63,-235.058 63,-220.518 63,-208.236"/>
<polygon fill="#2e3436" stroke="#2e3436" stroke-width="2" points="63,-200.55 66.3751,-208.05 63.5,-204.3 63.5001,-208.05 63.0001,-208.05 62.5001,-208.05 62.5,-204.3 59.6251,-208.05 63,-200.55 63,-200.55"/>
<text text-anchor="middle" x="75" y="-221.6" font-family="FreeSans" font-size="8.00" fill="#2e3436">knows</text>
</g>
<!-- N176 -->
<g id="node4" class="node"><title>N176</title>
<path fill="#ffffff" stroke="#2e3436" stroke-width="1.5" d="M12,-82.5C12,-82.5 56,-82.5 56,-82.5 62,-82.5 68,-88.5 68,-94.5 68,-94.5 68,-106.5 68,-106.5 68,-112.5 62,-118.5 56,-118.5 56,-118.5 12,-118.5 12,-118.5 6,-118.5 0,-112.5 0,-106.5 0,-106.5 0,-94.5 0,-94.5 0,-88.5 6,-82.5 12,-82.5"/>
<text text-anchor="middle" x="34" y="-107.6" font-family="FreeSans" font-size="8.00" fill="#1c2021">Node[176]</text>
<polyline fill="none" stroke="#2e3436" stroke-width="1.5" points="0,-100.5 68,-100.5 "/>
<text text-anchor="start" x="8" y="-89.6" font-family="FreeSans" font-size="8.00" fill="#1c2021">name = &#39;Peter&#39;</text>
</g>
<!-- N173&#45;&gt;N176 -->
<g id="edge2" class="edge"><title>N173&#45;&gt;N176</title>
<path fill="none" stroke="#2e3436" stroke-width="2" d="M56.7074,-164.141C52.6516,-152.953 47.3184,-138.24 42.8398,-125.886"/>
<polygon fill="#2e3436" stroke="#2e3436" stroke-width="2" points="40.1807,-118.55 45.9097,-124.451 41.9288,-121.905 43.2068,-125.431 42.7367,-125.601 42.2667,-125.772 40.9886,-122.246 39.5638,-126.751 40.1807,-118.55 40.1807,-118.55"/>
<text text-anchor="middle" x="62" y="-139.6" font-family="FreeSans" font-size="8.00" fill="#2e3436">knows</text>
</g>
<!-- N175 -->
<g id="node5" class="node"><title>N175</title>
<path fill="#ffffff" stroke="#2e3436" stroke-width="1.5" d="M109.5,-82.5C109.5,-82.5 158.5,-82.5 158.5,-82.5 164.5,-82.5 170.5,-88.5 170.5,-94.5 170.5,-94.5 170.5,-106.5 170.5,-106.5 170.5,-112.5 164.5,-118.5 158.5,-118.5 158.5,-118.5 109.5,-118.5 109.5,-118.5 103.5,-118.5 97.5,-112.5 97.5,-106.5 97.5,-106.5 97.5,-94.5 97.5,-94.5 97.5,-88.5 103.5,-82.5 109.5,-82.5"/>
<text text-anchor="middle" x="134" y="-107.6" font-family="FreeSans" font-size="8.00" fill="#1c2021">Node[175]</text>
<polyline fill="none" stroke="#2e3436" stroke-width="1.5" points="97.5,-100.5 170.5,-100.5 "/>
<text text-anchor="start" x="105.5" y="-89.6" font-family="FreeSans" font-size="8.00" fill="#1c2021">name = &#39;Tobias&#39;</text>
</g>
<!-- N173&#45;&gt;N175 -->
<g id="edge3" class="edge"><title>N173&#45;&gt;N175</title>
<path fill="none" stroke="#2e3436" stroke-width="2" d="M78.4059,-164.141C88.7104,-152.531 102.383,-137.125 113.59,-124.497"/>
<polygon fill="#2e3436" stroke="#2e3436" stroke-width="2" points="118.868,-118.55 116.414,-126.4 116.753,-121.687 114.264,-124.491 113.89,-124.16 113.516,-123.828 116.005,-121.023 111.365,-121.919 118.868,-118.55 118.868,-118.55"/>
<text text-anchor="middle" x="113" y="-139.6" font-family="FreeSans" font-size="8.00" fill="#2e3436">knows</text>
</g>
<!-- N175&#45;&gt;N171 -->
<g id="edge6" class="edge"><title>N175&#45;&gt;N171</title>
<path fill="none" stroke="#4e9a06" stroke-width="2" d="M134,-82.1412C134,-71.0583 134,-56.5177 134,-44.2358"/>
<polygon fill="#4e9a06" stroke="#4e9a06" stroke-width="2" points="134,-36.5501 137.375,-44.0501 134.5,-40.3001 134.5,-44.0501 134,-44.0501 133.5,-44.0501 133.5,-40.3001 130.625,-44.0501 134,-36.5501 134,-36.5501"/>
<text text-anchor="middle" x="143.5" y="-57.6" font-family="FreeSans" font-size="8.00" fill="#4e9a06">loves</text>
</g>
<!-- N174 -->
<g id="node6" class="node"><title>N174</title>
<path fill="#ffffff" stroke="#2e3436" stroke-width="1.5" d="M104,-328.5C104,-328.5 146,-328.5 146,-328.5 152,-328.5 158,-334.5 158,-340.5 158,-340.5 158,-352.5 158,-352.5 158,-358.5 152,-364.5 146,-364.5 146,-364.5 104,-364.5 104,-364.5 98,-364.5 92,-358.5 92,-352.5 92,-352.5 92,-340.5 92,-340.5 92,-334.5 98,-328.5 104,-328.5"/>
<text text-anchor="middle" x="125" y="-353.6" font-family="FreeSans" font-size="8.00" fill="#1c2021">Node[174]</text>
<polyline fill="none" stroke="#2e3436" stroke-width="1.5" points="92,-346.5 158,-346.5 "/>
<text text-anchor="start" x="100" y="-335.6" font-family="FreeSans" font-size="8.00" fill="#1c2021">name = &#39;Root&#39;</text>
</g>
<!-- N174&#45;&gt;N172 -->
<g id="edge5" class="edge"><title>N174&#45;&gt;N172</title>
<path fill="none" stroke="#2e3436" stroke-width="2" d="M111.547,-328.141C102.549,-316.531 90.6094,-301.125 80.8229,-288.497"/>
<polygon fill="#2e3436" stroke="#2e3436" stroke-width="2" points="76.2138,-282.55 83.4758,-286.411 78.9062,-285.208 81.2034,-288.172 80.8082,-288.478 80.4129,-288.785 78.1158,-285.82 78.1405,-290.546 76.2138,-282.55 76.2138,-282.55"/>
<text text-anchor="middle" x="108" y="-303.6" font-family="FreeSans" font-size="8.00" fill="#2e3436">knows</text>
</g>
<!-- N177 -->
<g id="node7" class="node"><title>N177</title>
<path fill="#ffffff" stroke="#2e3436" stroke-width="1.5" d="M140,-246.5C140,-246.5 190,-246.5 190,-246.5 196,-246.5 202,-252.5 202,-258.5 202,-258.5 202,-270.5 202,-270.5 202,-276.5 196,-282.5 190,-282.5 190,-282.5 140,-282.5 140,-282.5 134,-282.5 128,-276.5 128,-270.5 128,-270.5 128,-258.5 128,-258.5 128,-252.5 134,-246.5 140,-246.5"/>
<text text-anchor="middle" x="165" y="-271.6" font-family="FreeSans" font-size="8.00" fill="#1c2021">Node[177]</text>
<polyline fill="none" stroke="#2e3436" stroke-width="1.5" points="128,-264.5 202,-264.5 "/>
<text text-anchor="start" x="136" y="-253.6" font-family="FreeSans" font-size="8.00" fill="#1c2021">name = &#39;Mattias&#39;</text>
</g>
<!-- N174&#45;&gt;N177 -->
<g id="edge4" class="edge"><title>N174&#45;&gt;N177</title>
<path fill="none" stroke="#2e3436" stroke-width="2" d="M133.679,-328.141C139.326,-316.847 146.769,-301.962 152.982,-289.536"/>
<polygon fill="#2e3436" stroke="#2e3436" stroke-width="2" points="156.475,-282.55 156.139,-290.768 155.245,-286.128 153.568,-289.482 153.121,-289.258 152.674,-289.035 154.351,-285.681 150.102,-287.749 156.475,-282.55 156.475,-282.55"/>
<text text-anchor="middle" x="159" y="-303.6" font-family="FreeSans" font-size="8.00" fill="#2e3436">knows</text>
</g>
</g>
</svg>
