<?xml version="1.0" encoding="UTF-8" standalone="no"?>
<!DOCTYPE svg PUBLIC "-//W3C//DTD SVG 1.1//EN"
 "http://www.w3.org/Graphics/SVG/1.1/DTD/svg11.dtd">
<!-- Generated by graphviz version 2.38.0 (20140413.2041)
 -->
<!-- Title: g Pages: 1 -->
<svg width="504pt" height="74pt"
 viewBox="0.00 0.00 504.00 74.34" xmlns="http://www.w3.org/2000/svg" xmlns:xlink="http://www.w3.org/1999/xlink">
<g id="graph0" class="graph" transform="scale(0.330383 0.330383) rotate(0) translate(4 221)">
<title>g</title>
<polygon fill="white" stroke="none" points="-4,4 -4,-221 1521.5,-221 1521.5,4 -4,4"/>
<!-- N0 -->
<g id="node1" class="node"><title>N0</title>
<path fill="#ffffff" stroke="#2e3436" stroke-width="1.5" d="M12,-98.5C12,-98.5 81,-98.5 81,-98.5 87,-98.5 93,-104.5 93,-110.5 93,-110.5 93,-122.5 93,-122.5 93,-128.5 87,-134.5 81,-134.5 81,-134.5 12,-134.5 12,-134.5 6,-134.5 0,-128.5 0,-122.5 0,-122.5 0,-110.5 0,-110.5 0,-104.5 6,-98.5 12,-98.5"/>
<text text-anchor="middle" x="46.5" y="-123.6" font-family="FreeSans" font-size="8.00" fill="#1c2021">Person</text>
<polyline fill="none" stroke="#2e3436" stroke-width="1.5" points="0,-116.5 93,-116.5 "/>
<text text-anchor="start" x="8" y="-105.6" font-family="FreeSans" font-size="8.00" fill="#1c2021">name = &#39;Oliver Stone&#39;</text>
</g>
<!-- N4 -->
<g id="node2" class="node"><title>N4</title>
<path fill="#ffffff" stroke="#2e3436" stroke-width="1.5" d="M144.5,-0.5C144.5,-0.5 206.5,-0.5 206.5,-0.5 212.5,-0.5 218.5,-6.5 218.5,-12.5 218.5,-12.5 218.5,-31.5 218.5,-31.5 218.5,-37.5 212.5,-43.5 206.5,-43.5 206.5,-43.5 144.5,-43.5 144.5,-43.5 138.5,-43.5 132.5,-37.5 132.5,-31.5 132.5,-31.5 132.5,-12.5 132.5,-12.5 132.5,-6.5 138.5,-0.5 144.5,-0.5"/>
<text text-anchor="middle" x="175.5" y="-33.1" font-family="FreeSans" font-size="8.00" fill="#1c2021">Movie</text>
<polyline fill="none" stroke="#2e3436" stroke-width="1.5" points="132.5,-26.5 218.5,-26.5 "/>
<text text-anchor="start" x="140.5" y="-16.1" font-family="FreeSans" font-size="8.00" fill="#1c2021">name = &#39;WallStreet&#39;</text>
<text text-anchor="start" x="140.5" y="-7.1" font-family="FreeSans" font-size="8.00" fill="#1c2021">title = &#39;Wall Street&#39;</text>
</g>
<!-- N0&#45;&gt;N4 -->
<g id="edge1" class="edge"><title>N0&#45;&gt;N4</title>
<path fill="none" stroke="#2e3436" stroke-width="2" d="M56.171,-98.2202C63.3203,-86.7188 73.9645,-71.9496 86.5,-62 97.9772,-52.8904 111.912,-45.4728 125.315,-39.6477"/>
<polygon fill="#2e3436" stroke="#2e3436" stroke-width="2" points="132.26,-36.7461 126.641,-42.7516 128.992,-38.6532 125.532,-40.0989 125.339,-39.6375 125.147,-39.1762 128.607,-37.7305 124.038,-36.5234 132.26,-36.7461 132.26,-36.7461"/>
<text text-anchor="middle" x="108" y="-69.1" font-family="FreeSans" font-size="8.00" fill="#2e3436">DIRECTED</text>
</g>
<!-- N1 -->
<g id="node3" class="node"><title>N1</title>
<path fill="#ffffff" stroke="#2e3436" stroke-width="1.5" d="M845.5,-180.5C845.5,-180.5 921.5,-180.5 921.5,-180.5 927.5,-180.5 933.5,-186.5 933.5,-192.5 933.5,-192.5 933.5,-204.5 933.5,-204.5 933.5,-210.5 927.5,-216.5 921.5,-216.5 921.5,-216.5 845.5,-216.5 845.5,-216.5 839.5,-216.5 833.5,-210.5 833.5,-204.5 833.5,-204.5 833.5,-192.5 833.5,-192.5 833.5,-186.5 839.5,-180.5 845.5,-180.5"/>
<text text-anchor="middle" x="883.5" y="-205.6" font-family="FreeSans" font-size="8.00" fill="#1c2021">Person</text>
<polyline fill="none" stroke="#2e3436" stroke-width="1.5" points="833.5,-198.5 933.5,-198.5 "/>
<text text-anchor="start" x="841.5" y="-187.6" font-family="FreeSans" font-size="8.00" fill="#1c2021">name = &#39;Charlie Sheen&#39;</text>
</g>
<!-- N1&#45;&gt;N4 -->
<g id="edge9" class="edge"><title>N1&#45;&gt;N4</title>
<path fill="none" stroke="#204a87" stroke-width="2" d="M833.316,-196.869C679.278,-194.419 220.945,-183.114 176.5,-135 156.053,-112.865 159.994,-76.4867 166.29,-51.2208"/>
<polygon fill="#204a87" stroke="#204a87" stroke-width="2" points="168.295,-43.7646 169.607,-51.8837 167.804,-47.5158 166.831,-51.1371 166.348,-51.0073 165.865,-50.8774 166.839,-47.2561 163.088,-50.1308 168.295,-43.7646 168.295,-43.7646"/>
<text text-anchor="middle" x="197" y="-114.6" font-family="FreeSans" font-size="8.00" fill="#204a87">ACTED_IN</text>
</g>
<!-- N14 -->
<g id="node4" class="node"><title>N14</title>
<path fill="#ffffff" stroke="#2e3436" stroke-width="1.5" d="M696.5,-4C696.5,-4 726.5,-4 726.5,-4 732.5,-4 738.5,-10 738.5,-16 738.5,-16 738.5,-28 738.5,-28 738.5,-34 732.5,-40 726.5,-40 726.5,-40 696.5,-40 696.5,-40 690.5,-40 684.5,-34 684.5,-28 684.5,-28 684.5,-16 684.5,-16 684.5,-10 690.5,-4 696.5,-4"/>
<text text-anchor="middle" x="711.5" y="-29.1" font-family="FreeSans" font-size="8.00" fill="#1c2021">Blocked</text>
<polyline fill="none" stroke="#2e3436" stroke-width="1.5" points="684.5,-22 738.5,-22 "/>
<text text-anchor="middle" x="711.5" y="-11.1" font-family="FreeSans" font-size="8.00" fill="#1c2021"> </text>
</g>
<!-- N1&#45;&gt;N14 -->
<g id="edge2" class="edge"><title>N1&#45;&gt;N14</title>
<path fill="none" stroke="#4e9a06" stroke-width="2" d="M833.138,-196.8C787.348,-193.152 722.106,-179.761 689.5,-135 670.704,-109.197 684.276,-71.5167 696.922,-47.1256"/>
<polygon fill="#4e9a06" stroke="#4e9a06" stroke-width="2" points="700.608,-40.3152 700.006,-48.5176 699.263,-43.8512 697.478,-47.1492 697.038,-46.9112 696.598,-46.6732 698.383,-43.3752 694.07,-45.3048 700.608,-40.3152 700.608,-40.3152"/>
<text text-anchor="middle" x="715.5" y="-119.1" font-family="FreeSans" font-size="8.00" fill="#4e9a06">X</text>
<text text-anchor="start" x="689.5" y="-110.1" font-family="FreeSans" font-size="8.00" fill="#4e9a06">blocked = true</text>
</g>
<!-- N13 -->
<g id="node5" class="node"><title>N13</title>
<path fill="#ffffff" stroke="#2e3436" stroke-width="1.5" d="M970.5,-4C970.5,-4 1002.5,-4 1002.5,-4 1008.5,-4 1014.5,-10 1014.5,-16 1014.5,-16 1014.5,-28 1014.5,-28 1014.5,-34 1008.5,-40 1002.5,-40 1002.5,-40 970.5,-40 970.5,-40 964.5,-40 958.5,-34 958.5,-28 958.5,-28 958.5,-16 958.5,-16 958.5,-10 964.5,-4 970.5,-4"/>
<text text-anchor="middle" x="986.5" y="-29.1" font-family="FreeSans" font-size="8.00" fill="#1c2021">Unblocked</text>
<polyline fill="none" stroke="#2e3436" stroke-width="1.5" points="958.5,-22 1014.5,-22 "/>
<text text-anchor="middle" x="986.5" y="-11.1" font-family="FreeSans" font-size="8.00" fill="#1c2021"> </text>
</g>
<!-- N1&#45;&gt;N13 -->
<g id="edge3" class="edge"><title>N1&#45;&gt;N13</title>
<path fill="none" stroke="#4e9a06" stroke-width="2" d="M905.779,-180.241C919.988,-168.503 938.169,-152.055 951.5,-135 968.647,-113.062 973.447,-106.654 981.5,-80 984.583,-69.7954 985.96,-58.1301 986.52,-48.0218"/>
<polygon fill="#4e9a06" stroke="#4e9a06" stroke-width="2" points="986.81,-40.3067 989.9,-47.9283 987.168,-44.0729 987.027,-47.8202 986.528,-47.8014 986.028,-47.7826 986.169,-44.0352 983.155,-47.6745 986.81,-40.3067 986.81,-40.3067"/>
<text text-anchor="middle" x="1003" y="-119.1" font-family="FreeSans" font-size="8.00" fill="#4e9a06">X</text>
<text text-anchor="start" x="975.5" y="-110.1" font-family="FreeSans" font-size="8.00" fill="#4e9a06">blocked = false</text>
</g>
<!-- N12 -->
<g id="node6" class="node"><title>N12</title>
<path fill="#ffffff" stroke="#2e3436" stroke-width="1.5" d="M572.5,-4C572.5,-4 602.5,-4 602.5,-4 608.5,-4 614.5,-10 614.5,-16 614.5,-16 614.5,-28 614.5,-28 614.5,-34 608.5,-40 602.5,-40 602.5,-40 572.5,-40 572.5,-40 566.5,-40 560.5,-34 560.5,-28 560.5,-28 560.5,-16 560.5,-16 560.5,-10 566.5,-4 572.5,-4"/>
<text text-anchor="middle" x="587.5" y="-29.1" font-family="FreeSans" font-size="8.00" fill="#1c2021">Blocked</text>
<polyline fill="none" stroke="#2e3436" stroke-width="1.5" points="560.5,-22 614.5,-22 "/>
<text text-anchor="middle" x="587.5" y="-11.1" font-family="FreeSans" font-size="8.00" fill="#1c2021"> </text>
</g>
<!-- N1&#45;&gt;N12 -->
<g id="edge4" class="edge"><title>N1&#45;&gt;N12</title>
<path fill="none" stroke="#4e9a06" stroke-width="2" d="M833.423,-191.95C765.822,-183.423 650.473,-164.878 621.5,-135 598.651,-111.437 591.1,-73.0227 588.638,-47.8773"/>
<polygon fill="#4e9a06" stroke="#4e9a06" stroke-width="2" points="588.005,-40.2151 591.986,-47.4115 588.812,-43.9111 589.121,-47.6484 588.623,-47.6896 588.125,-47.7308 587.816,-43.9935 585.259,-47.9677 588.005,-40.2151 588.005,-40.2151"/>
<text text-anchor="middle" x="647.5" y="-119.1" font-family="FreeSans" font-size="8.00" fill="#4e9a06">X</text>
<text text-anchor="start" x="621.5" y="-110.1" font-family="FreeSans" font-size="8.00" fill="#4e9a06">blocked = true</text>
</g>
<!-- N11 -->
<g id="node7" class="node"><title>N11</title>
<path fill="#ffffff" stroke="#2e3436" stroke-width="1.5" d="M1094.5,-4C1094.5,-4 1126.5,-4 1126.5,-4 1132.5,-4 1138.5,-10 1138.5,-16 1138.5,-16 1138.5,-28 1138.5,-28 1138.5,-34 1132.5,-40 1126.5,-40 1126.5,-40 1094.5,-40 1094.5,-40 1088.5,-40 1082.5,-34 1082.5,-28 1082.5,-28 1082.5,-16 1082.5,-16 1082.5,-10 1088.5,-4 1094.5,-4"/>
<text text-anchor="middle" x="1110.5" y="-29.1" font-family="FreeSans" font-size="8.00" fill="#1c2021">Unblocked</text>
<polyline fill="none" stroke="#2e3436" stroke-width="1.5" points="1082.5,-22 1138.5,-22 "/>
<text text-anchor="middle" x="1110.5" y="-11.1" font-family="FreeSans" font-size="8.00" fill="#1c2021"> </text>
</g>
<!-- N1&#45;&gt;N11 -->
<g id="edge5" class="edge"><title>N1&#45;&gt;N11</title>
<path fill="none" stroke="#4e9a06" stroke-width="2" d="M933.554,-182.986C964.989,-172.509 1005.49,-156.433 1037.5,-135 1065.96,-115.939 1073.62,-109.223 1091.5,-80 1097.59,-70.0471 1101.98,-57.9102 1105,-47.3978"/>
<polygon fill="#4e9a06" stroke="#4e9a06" stroke-width="2" points="1106.96,-40.0846 1108.28,-48.2027 1106.47,-43.8362 1105.5,-47.4584 1105.02,-47.329 1104.54,-47.1995 1105.51,-43.5774 1101.76,-46.4553 1106.96,-40.0846 1106.96,-40.0846"/>
<text text-anchor="middle" x="1107" y="-119.1" font-family="FreeSans" font-size="8.00" fill="#4e9a06">X</text>
<text text-anchor="start" x="1079.5" y="-110.1" font-family="FreeSans" font-size="8.00" fill="#4e9a06">blocked = false</text>
</g>
<!-- N10 -->
<g id="node8" class="node"><title>N10</title>
<path fill="#ffffff" stroke="#2e3436" stroke-width="1.5" d="M1219.5,-4C1219.5,-4 1249.5,-4 1249.5,-4 1255.5,-4 1261.5,-10 1261.5,-16 1261.5,-16 1261.5,-28 1261.5,-28 1261.5,-34 1255.5,-40 1249.5,-40 1249.5,-40 1219.5,-40 1219.5,-40 1213.5,-40 1207.5,-34 1207.5,-28 1207.5,-28 1207.5,-16 1207.5,-16 1207.5,-10 1213.5,-4 1219.5,-4"/>
<text text-anchor="middle" x="1234.5" y="-29.1" font-family="FreeSans" font-size="8.00" fill="#1c2021">Blocked</text>
<polyline fill="none" stroke="#2e3436" stroke-width="1.5" points="1207.5,-22 1261.5,-22 "/>
<text text-anchor="middle" x="1234.5" y="-11.1" font-family="FreeSans" font-size="8.00" fill="#1c2021"> </text>
</g>
<!-- N1&#45;&gt;N10 -->
<g id="edge6" class="edge"><title>N1&#45;&gt;N10</title>
<path fill="none" stroke="#4e9a06" stroke-width="2" d="M933.703,-191.896C987.355,-184.44 1073.82,-168.136 1141.5,-135 1176.72,-117.754 1186.82,-111.263 1210.5,-80 1217.87,-70.2634 1223.43,-57.9257 1227.33,-47.2208"/>
<polygon fill="#4e9a06" stroke="#4e9a06" stroke-width="2" points="1229.77,-40.1225 1230.53,-48.3122 1229.03,-43.8316 1227.81,-47.3782 1227.34,-47.2158 1226.86,-47.0533 1228.08,-43.5067 1224.14,-46.1194 1229.77,-40.1225 1229.77,-40.1225"/>
<text text-anchor="middle" x="1222.5" y="-119.1" font-family="FreeSans" font-size="8.00" fill="#4e9a06">X</text>
<text text-anchor="start" x="1196.5" y="-110.1" font-family="FreeSans" font-size="8.00" fill="#4e9a06">blocked = true</text>
</g>
<!-- N9 -->
<g id="node9" class="node"><title>N9</title>
<path fill="#ffffff" stroke="#2e3436" stroke-width="1.5" d="M846.5,-4C846.5,-4 878.5,-4 878.5,-4 884.5,-4 890.5,-10 890.5,-16 890.5,-16 890.5,-28 890.5,-28 890.5,-34 884.5,-40 878.5,-40 878.5,-40 846.5,-40 846.5,-40 840.5,-40 834.5,-34 834.5,-28 834.5,-28 834.5,-16 834.5,-16 834.5,-10 840.5,-4 846.5,-4"/>
<text text-anchor="middle" x="862.5" y="-29.1" font-family="FreeSans" font-size="8.00" fill="#1c2021">Unblocked</text>
<polyline fill="none" stroke="#2e3436" stroke-width="1.5" points="834.5,-22 890.5,-22 "/>
<text text-anchor="middle" x="862.5" y="-11.1" font-family="FreeSans" font-size="8.00" fill="#1c2021"> </text>
</g>
<!-- N1&#45;&gt;N9 -->
<g id="edge7" class="edge"><title>N1&#45;&gt;N9</title>
<path fill="none" stroke="#4e9a06" stroke-width="2" d="M885.85,-180.453C888.865,-154.411 892.491,-103.384 881.5,-62 880.175,-57.0114 878.198,-51.8989 876.013,-47.0862"/>
<polygon fill="#4e9a06" stroke="#4e9a06" stroke-width="2" points="872.714,-40.299 879.028,-45.5692 874.803,-43.4532 876.442,-46.8259 875.993,-47.0445 875.543,-47.2631 873.904,-43.8904 872.957,-48.5199 872.714,-40.299 872.714,-40.299"/>
<text text-anchor="middle" x="917" y="-119.1" font-family="FreeSans" font-size="8.00" fill="#4e9a06">X</text>
<text text-anchor="start" x="889.5" y="-110.1" font-family="FreeSans" font-size="8.00" fill="#4e9a06">blocked = false</text>
</g>
<!-- N2 -->
<g id="node10" class="node"><title>N2</title>
<path fill="#ffffff" stroke="#2e3436" stroke-width="1.5" d="M768,-98.5C768,-98.5 841,-98.5 841,-98.5 847,-98.5 853,-104.5 853,-110.5 853,-110.5 853,-122.5 853,-122.5 853,-128.5 847,-134.5 841,-134.5 841,-134.5 768,-134.5 768,-134.5 762,-134.5 756,-128.5 756,-122.5 756,-122.5 756,-110.5 756,-110.5 756,-104.5 762,-98.5 768,-98.5"/>
<text text-anchor="middle" x="804.5" y="-123.6" font-family="FreeSans" font-size="8.00" fill="#1c2021">Person</text>
<polyline fill="none" stroke="#2e3436" stroke-width="1.5" points="756,-116.5 853,-116.5 "/>
<text text-anchor="start" x="764" y="-105.6" font-family="FreeSans" font-size="8.00" fill="#1c2021">name = &#39;Martin Sheen&#39;</text>
</g>
<!-- N1&#45;&gt;N2 -->
<g id="edge8" class="edge"><title>N1&#45;&gt;N2</title>
<path fill="none" stroke="#a40000" stroke-width="2" d="M866.358,-180.141C854.788,-168.425 839.403,-152.845 826.87,-140.154"/>
<polygon fill="#a40000" stroke="#a40000" stroke-width="2" points="821.337,-134.55 829.008,-137.515 824.328,-136.867 826.963,-139.535 826.607,-139.887 826.251,-140.238 823.616,-137.57 824.205,-142.258 821.337,-134.55 821.337,-134.55"/>
<text text-anchor="middle" x="863.5" y="-155.6" font-family="FreeSans" font-size="8.00" fill="#a40000">FATHER</text>
</g>
<!-- N2&#45;&gt;N4 -->
<g id="edge17" class="edge"><title>N2&#45;&gt;N4</title>
<path fill="none" stroke="#204a87" stroke-width="2" d="M755.864,-102.15C748.421,-100.504 740.79,-99.0378 733.5,-98 637.277,-84.3012 390.891,-103.17 296.5,-80 268.501,-73.1272 239.199,-59.5138 216.445,-47.3146"/>
<polygon fill="#204a87" stroke="#204a87" stroke-width="2" points="209.602,-43.583 217.802,-44.2107 213.134,-44.9394 216.426,-46.7348 216.186,-47.1737 215.947,-47.6127 212.655,-45.8174 214.571,-50.1368 209.602,-43.583 209.602,-43.583"/>
<text text-anchor="middle" x="317" y="-69.1" font-family="FreeSans" font-size="8.00" fill="#204a87">ACTED_IN</text>
</g>
<!-- N2&#45;&gt;N14 -->
<g id="edge10" class="edge"><title>N2&#45;&gt;N14</title>
<path fill="none" stroke="#4e9a06" stroke-width="2" d="M776.49,-98.4386C768.64,-93.0283 760.38,-86.6971 753.5,-80 743.288,-70.0595 733.712,-57.432 726.289,-46.59"/>
<polygon fill="#4e9a06" stroke="#4e9a06" stroke-width="2" points="721.96,-40.1101 728.933,-44.4713 724.459,-42.9504 726.542,-46.0685 726.126,-46.3463 725.711,-46.6241 723.627,-43.506 723.32,-48.2213 721.96,-40.1101 721.96,-40.1101"/>
<text text-anchor="middle" x="781" y="-73.6" font-family="FreeSans" font-size="8.00" fill="#4e9a06">X</text>
<text text-anchor="start" x="753.5" y="-64.6" font-family="FreeSans" font-size="8.00" fill="#4e9a06">blocked = false</text>
</g>
<!-- N2&#45;&gt;N13 -->
<g id="edge11" class="edge"><title>N2&#45;&gt;N13</title>
<path fill="none" stroke="#4e9a06" stroke-width="2" d="M845.662,-98.4143C858.545,-92.8134 872.727,-86.383 885.5,-80 907.895,-68.8089 932.361,-55.0422 951.605,-43.8419"/>
<polygon fill="#4e9a06" stroke="#4e9a06" stroke-width="2" points="958.181,-39.9957 953.411,-46.6953 955.197,-42.3204 951.96,-44.2135 951.707,-43.7819 951.455,-43.3503 954.692,-41.4572 950.003,-40.8686 958.181,-39.9957 958.181,-39.9957"/>
<text text-anchor="middle" x="947" y="-73.6" font-family="FreeSans" font-size="8.00" fill="#4e9a06">X</text>
<text text-anchor="start" x="919.5" y="-64.6" font-family="FreeSans" font-size="8.00" fill="#4e9a06">blocked = false</text>
</g>
<!-- N2&#45;&gt;N12 -->
<g id="edge13" class="edge"><title>N2&#45;&gt;N12</title>
<path fill="none" stroke="#4e9a06" stroke-width="2" d="M755.93,-103.628C726.048,-96.0149 690.818,-86.3956 676.5,-80 655.35,-70.5529 633.417,-56.5618 616.616,-44.8058"/>
<polygon fill="#4e9a06" stroke="#4e9a06" stroke-width="2" points="610.21,-40.2581 618.279,-41.8479 613.557,-42.0213 616.615,-44.1922 616.326,-44.5999 616.036,-45.0076 612.978,-42.8367 614.372,-47.3519 610.21,-40.2581 610.21,-40.2581"/>
<text text-anchor="middle" x="704" y="-73.6" font-family="FreeSans" font-size="8.00" fill="#4e9a06">X</text>
<text text-anchor="start" x="676.5" y="-64.6" font-family="FreeSans" font-size="8.00" fill="#4e9a06">blocked = false</text>
</g>
<!-- N2&#45;&gt;N11 -->
<g id="edge12" class="edge"><title>N2&#45;&gt;N11</title>
<path fill="none" stroke="#4e9a06" stroke-width="2" d="M853.28,-102.977C860.704,-101.216 868.291,-99.4984 875.5,-98 922.286,-88.2755 935.739,-93.7621 981.5,-80 1014.4,-70.1061 1049.99,-53.9351 1075.43,-41.3398"/>
<polygon fill="#4e9a06" stroke="#4e9a06" stroke-width="2" points="1082.33,-37.8903 1077.13,-44.2636 1079.2,-40.0149 1075.84,-41.6923 1075.62,-41.2451 1075.4,-40.7979 1078.75,-39.1205 1074.11,-38.2265 1082.33,-37.8903 1082.33,-37.8903"/>
<text text-anchor="middle" x="1057" y="-73.6" font-family="FreeSans" font-size="8.00" fill="#4e9a06">X</text>
<text text-anchor="start" x="1029.5" y="-64.6" font-family="FreeSans" font-size="8.00" fill="#4e9a06">blocked = false</text>
</g>
<!-- N2&#45;&gt;N10 -->
<g id="edge14" class="edge"><title>N2&#45;&gt;N10</title>
<path fill="none" stroke="#4e9a06" stroke-width="2" d="M853.178,-102.424C860.615,-100.74 868.234,-99.1906 875.5,-98 970.565,-82.4241 997.731,-102.076 1091.5,-80 1130.11,-70.9096 1172.02,-53.2002 1200.42,-39.9215"/>
<polygon fill="#4e9a06" stroke="#4e9a06" stroke-width="2" points="1207.34,-36.6489 1202,-42.9064 1204.17,-38.7042 1200.77,-40.3074 1200.56,-39.8554 1200.35,-39.4034 1203.74,-37.8002 1199.12,-36.8044 1207.34,-36.6489 1207.34,-36.6489"/>
<text text-anchor="middle" x="1176" y="-73.6" font-family="FreeSans" font-size="8.00" fill="#4e9a06">X</text>
<text text-anchor="start" x="1148.5" y="-64.6" font-family="FreeSans" font-size="8.00" fill="#4e9a06">blocked = false</text>
</g>
<!-- N2&#45;&gt;N9 -->
<g id="edge15" class="edge"><title>N2&#45;&gt;N9</title>
<path fill="none" stroke="#4e9a06" stroke-width="2" d="M808.527,-98.2379C811.572,-87.3018 816.447,-73.167 823.5,-62 827.102,-56.2975 831.674,-50.7805 836.41,-45.7787"/>
<polygon fill="#4e9a06" stroke="#4e9a06" stroke-width="2" points="841.996,-40.1633 839.099,-47.8606 839.706,-43.1744 837.061,-45.8329 836.707,-45.4803 836.352,-45.1276 838.997,-42.4691 834.314,-43.0999 841.996,-40.1633 841.996,-40.1633"/>
<text text-anchor="middle" x="851" y="-73.6" font-family="FreeSans" font-size="8.00" fill="#4e9a06">X</text>
<text text-anchor="start" x="823.5" y="-64.6" font-family="FreeSans" font-size="8.00" fill="#4e9a06">blocked = false</text>
</g>
<!-- N3 -->
<g id="node11" class="node"><title>N3</title>
<path fill="#ffffff" stroke="#2e3436" stroke-width="1.5" d="M372,-0.5C372,-0.5 479,-0.5 479,-0.5 485,-0.5 491,-6.5 491,-12.5 491,-12.5 491,-31.5 491,-31.5 491,-37.5 485,-43.5 479,-43.5 479,-43.5 372,-43.5 372,-43.5 366,-43.5 360,-37.5 360,-31.5 360,-31.5 360,-12.5 360,-12.5 360,-6.5 366,-0.5 372,-0.5"/>
<text text-anchor="middle" x="425.5" y="-33.1" font-family="FreeSans" font-size="8.00" fill="#1c2021">Movie</text>
<polyline fill="none" stroke="#2e3436" stroke-width="1.5" points="360,-26.5 491,-26.5 "/>
<text text-anchor="start" x="368" y="-16.1" font-family="FreeSans" font-size="8.00" fill="#1c2021">title = &#39;The American President&#39;</text>
<text text-anchor="start" x="368" y="-7.1" font-family="FreeSans" font-size="8.00" fill="#1c2021">name = &#39;TheAmericanPresident&#39;</text>
</g>
<!-- N2&#45;&gt;N3 -->
<g id="edge16" class="edge"><title>N2&#45;&gt;N3</title>
<path fill="none" stroke="#204a87" stroke-width="2" d="M755.769,-102.727C748.339,-101.001 740.737,-99.3594 733.5,-98 672.71,-86.5809 655.772,-93.8967 595.5,-80 558.135,-71.3848 517.367,-57.8628 485.123,-46.151"/>
<polygon fill="#204a87" stroke="#204a87" stroke-width="2" points="477.958,-43.5277 486.162,-42.9373 481.652,-44.3476 485.173,-45.637 485.001,-46.1065 484.829,-46.576 481.308,-45.2866 483.841,-49.2757 477.958,-43.5277 477.958,-43.5277"/>
<text text-anchor="middle" x="616" y="-69.1" font-family="FreeSans" font-size="8.00" fill="#204a87">ACTED_IN</text>
</g>
<!-- N5 -->
<g id="node12" class="node"><title>N5</title>
<path fill="#ffffff" stroke="#2e3436" stroke-width="1.5" d="M392.5,-98.5C392.5,-98.5 458.5,-98.5 458.5,-98.5 464.5,-98.5 470.5,-104.5 470.5,-110.5 470.5,-110.5 470.5,-122.5 470.5,-122.5 470.5,-128.5 464.5,-134.5 458.5,-134.5 458.5,-134.5 392.5,-134.5 392.5,-134.5 386.5,-134.5 380.5,-128.5 380.5,-122.5 380.5,-122.5 380.5,-110.5 380.5,-110.5 380.5,-104.5 386.5,-98.5 392.5,-98.5"/>
<text text-anchor="middle" x="425.5" y="-123.6" font-family="FreeSans" font-size="8.00" fill="#1c2021">Person</text>
<polyline fill="none" stroke="#2e3436" stroke-width="1.5" points="380.5,-116.5 470.5,-116.5 "/>
<text text-anchor="start" x="388.5" y="-105.6" font-family="FreeSans" font-size="8.00" fill="#1c2021">name = &#39;Rob Reiner&#39;</text>
</g>
<!-- N5&#45;&gt;N3 -->
<g id="edge18" class="edge"><title>N5&#45;&gt;N3</title>
<path fill="none" stroke="#2e3436" stroke-width="2" d="M424.328,-98.1743C423.99,-92.3968 423.667,-85.9237 423.5,-80 423.237,-70.6603 423.44,-60.4617 423.8,-51.3062"/>
<polygon fill="#2e3436" stroke="#2e3436" stroke-width="2" points="424.15,-43.5768 427.183,-51.2218 424.48,-47.3456 424.311,-51.0917 423.811,-51.0691 423.312,-51.0465 423.481,-47.3003 420.44,-50.9164 424.15,-43.5768 424.15,-43.5768"/>
<text text-anchor="middle" x="445" y="-69.1" font-family="FreeSans" font-size="8.00" fill="#2e3436">DIRECTED</text>
</g>
<!-- N6 -->
<g id="node13" class="node"><title>N6</title>
<path fill="#ffffff" stroke="#2e3436" stroke-width="1.5" d="M244.5,-98.5C244.5,-98.5 328.5,-98.5 328.5,-98.5 334.5,-98.5 340.5,-104.5 340.5,-110.5 340.5,-110.5 340.5,-122.5 340.5,-122.5 340.5,-128.5 334.5,-134.5 328.5,-134.5 328.5,-134.5 244.5,-134.5 244.5,-134.5 238.5,-134.5 232.5,-128.5 232.5,-122.5 232.5,-122.5 232.5,-110.5 232.5,-110.5 232.5,-104.5 238.5,-98.5 244.5,-98.5"/>
<text text-anchor="middle" x="286.5" y="-123.6" font-family="FreeSans" font-size="8.00" fill="#1c2021">Person</text>
<polyline fill="none" stroke="#2e3436" stroke-width="1.5" points="232.5,-116.5 340.5,-116.5 "/>
<text text-anchor="start" x="240.5" y="-105.6" font-family="FreeSans" font-size="8.00" fill="#1c2021">name = &#39;Michael Douglas&#39;</text>
</g>
<!-- N6&#45;&gt;N4 -->
<g id="edge20" class="edge"><title>N6&#45;&gt;N4</title>
<path fill="none" stroke="#204a87" stroke-width="2" d="M232.125,-101.447C219.908,-96.2801 207.82,-89.3188 198.5,-80 190.606,-72.1069 185.323,-61.1468 181.835,-50.9441"/>
<polygon fill="#204a87" stroke="#204a87" stroke-width="2" points="179.601,-43.7035 185.038,-49.8751 181.185,-47.1394 182.29,-50.7227 181.813,-50.8702 181.335,-51.0176 180.229,-47.4343 178.588,-51.8653 179.601,-43.7035 179.601,-43.7035"/>
<text text-anchor="middle" x="219" y="-69.1" font-family="FreeSans" font-size="8.00" fill="#204a87">ACTED_IN</text>
</g>
<!-- N6&#45;&gt;N3 -->
<g id="edge19" class="edge"><title>N6&#45;&gt;N3</title>
<path fill="none" stroke="#204a87" stroke-width="2" d="M312.319,-98.3182C333.652,-84.1218 364.219,-63.7806 388.21,-47.8151"/>
<polygon fill="#204a87" stroke="#204a87" stroke-width="2" points="394.473,-43.6473 390.099,-50.6121 391.628,-46.1411 388.506,-48.2186 388.229,-47.8024 387.952,-47.3861 391.074,-45.3086 386.36,-44.9926 394.473,-43.6473 394.473,-43.6473"/>
<text text-anchor="middle" x="385" y="-69.1" font-family="FreeSans" font-size="8.00" fill="#204a87">ACTED_IN</text>
</g>
<!-- N7 -->
<g id="node14" class="node"><title>N7</title>
<path fill="#ffffff" stroke="#2e3436" stroke-width="1.5" d="M1370.5,-180.5C1370.5,-180.5 1436.5,-180.5 1436.5,-180.5 1442.5,-180.5 1448.5,-186.5 1448.5,-192.5 1448.5,-192.5 1448.5,-204.5 1448.5,-204.5 1448.5,-210.5 1442.5,-216.5 1436.5,-216.5 1436.5,-216.5 1370.5,-216.5 1370.5,-216.5 1364.5,-216.5 1358.5,-210.5 1358.5,-204.5 1358.5,-204.5 1358.5,-192.5 1358.5,-192.5 1358.5,-186.5 1364.5,-180.5 1370.5,-180.5"/>
<text text-anchor="start" x="1366.5" y="-196.6" font-family="FreeSans" font-size="8.00" fill="#1c2021">name = &#39;Rob Reiner&#39;</text>
</g>
<!-- N8 -->
<g id="node15" class="node"><title>N8</title>
<path fill="#ffffff" stroke="#2e3436" stroke-width="1.5" d="M1365.5,-98.5C1365.5,-98.5 1441.5,-98.5 1441.5,-98.5 1447.5,-98.5 1453.5,-104.5 1453.5,-110.5 1453.5,-110.5 1453.5,-122.5 1453.5,-122.5 1453.5,-128.5 1447.5,-134.5 1441.5,-134.5 1441.5,-134.5 1365.5,-134.5 1365.5,-134.5 1359.5,-134.5 1353.5,-128.5 1353.5,-122.5 1353.5,-122.5 1353.5,-110.5 1353.5,-110.5 1353.5,-104.5 1359.5,-98.5 1365.5,-98.5"/>
<text text-anchor="start" x="1361.5" y="-114.6" font-family="FreeSans" font-size="8.00" fill="#1c2021">name = &#39;Charlie Sheen&#39;</text>
</g>
<!-- N7&#45;&gt;N8 -->
<g id="edge21" class="edge"><title>N7&#45;&gt;N8</title>
<path fill="none" stroke="#8f5902" stroke-width="2" d="M1403.5,-180.141C1403.5,-169.058 1403.5,-154.518 1403.5,-142.236"/>
<polygon fill="#8f5902" stroke="#8f5902" stroke-width="2" points="1403.5,-134.55 1406.88,-142.05 1404,-138.3 1404,-142.05 1403.5,-142.05 1403,-142.05 1403,-138.3 1400.13,-142.05 1403.5,-134.55 1403.5,-134.55"/>
<text text-anchor="middle" x="1460.5" y="-155.6" font-family="FreeSans" font-size="8.00" fill="#8f5902">TYPE THAT HAS SPACE IN IT</text>
</g>
</g>
</svg>
