<?xml version="1.0" encoding="UTF-8" standalone="no"?>
<!DOCTYPE svg PUBLIC "-//W3C//DTD SVG 1.1//EN"
 "http://www.w3.org/Graphics/SVG/1.1/DTD/svg11.dtd">
<!-- Generated by graphviz version 2.38.0 (20140413.2041)
 -->
<!-- Title: g Pages: 1 -->
<svg width="202pt" height="473pt"
 viewBox="0.00 0.00 201.50 473.00" xmlns="http://www.w3.org/2000/svg" xmlns:xlink="http://www.w3.org/1999/xlink">
<g id="graph0" class="graph" transform="scale(1 1) rotate(0) translate(4 469)">
<title>g</title>
<polygon fill="white" stroke="none" points="-4,4 -4,-469 197.5,-469 197.5,4 -4,4"/>
<!-- N0 -->
<g id="node1" class="node"><title>N0</title>
<path fill="#ffffff" stroke="#2e3436" stroke-width="1.5" d="M113,-428.5C113,-428.5 143,-428.5 143,-428.5 149,-428.5 155,-434.5 155,-440.5 155,-440.5 155,-452.5 155,-452.5 155,-458.5 149,-464.5 143,-464.5 143,-464.5 113,-464.5 113,-464.5 107,-464.5 101,-458.5 101,-452.5 101,-452.5 101,-440.5 101,-440.5 101,-434.5 107,-428.5 113,-428.5"/>
<text text-anchor="middle" x="128" y="-444.6" font-family="FreeSans" font-size="8.00" fill="#1c2021"> </text>
</g>
<!-- N1 -->
<g id="node2" class="node"><title>N1</title>
<path fill="#ffffff" stroke="#2e3436" stroke-width="1.5" d="M80.5,-346.5C80.5,-346.5 175.5,-346.5 175.5,-346.5 181.5,-346.5 187.5,-352.5 187.5,-358.5 187.5,-358.5 187.5,-370.5 187.5,-370.5 187.5,-376.5 181.5,-382.5 175.5,-382.5 175.5,-382.5 80.5,-382.5 80.5,-382.5 74.5,-382.5 68.5,-376.5 68.5,-370.5 68.5,-370.5 68.5,-358.5 68.5,-358.5 68.5,-352.5 74.5,-346.5 80.5,-346.5"/>
<text text-anchor="start" x="76.5" y="-362.6" font-family="FreeSans" font-size="8.00" fill="#1c2021">name = &#39;Thomas Andersson&#39;</text>
</g>
<!-- N0&#45;&gt;N1 -->
<g id="edge1" class="edge"><title>N0&#45;&gt;N1</title>
<path fill="none" stroke="#2e3436" stroke-width="2" d="M128,-428.141C128,-417.058 128,-402.518 128,-390.236"/>
<polygon fill="#2e3436" stroke="#2e3436" stroke-width="2" points="128,-382.55 131.375,-390.05 128.5,-386.3 128.5,-390.05 128,-390.05 127.5,-390.05 127.5,-386.3 124.625,-390.05 128,-382.55 128,-382.55"/>
<text text-anchor="middle" x="140.5" y="-403.6" font-family="FreeSans" font-size="8.00" fill="#2e3436">ROOT</text>
</g>
<!-- N3 -->
<g id="node3" class="node"><title>N3</title>
<path fill="#ffffff" stroke="#2e3436" stroke-width="1.5" d="M34.5,-255.5C34.5,-255.5 95.5,-255.5 95.5,-255.5 101.5,-255.5 107.5,-261.5 107.5,-267.5 107.5,-267.5 107.5,-279.5 107.5,-279.5 107.5,-285.5 101.5,-291.5 95.5,-291.5 95.5,-291.5 34.5,-291.5 34.5,-291.5 28.5,-291.5 22.5,-285.5 22.5,-279.5 22.5,-279.5 22.5,-267.5 22.5,-267.5 22.5,-261.5 28.5,-255.5 34.5,-255.5"/>
<text text-anchor="start" x="30.5" y="-271.6" font-family="FreeSans" font-size="8.00" fill="#1c2021">name = &#39;Morpheus&#39;</text>
</g>
<!-- N1&#45;&gt;N3 -->
<g id="edge2" class="edge"><title>N1&#45;&gt;N3</title>
<path fill="none" stroke="#4e9a06" stroke-width="2" d="M115.853,-346.34C106.092,-332.55 92.282,-313.041 81.5165,-297.833"/>
<polygon fill="#4e9a06" stroke="#4e9a06" stroke-width="2" points="77.1097,-291.607 84.1977,-295.779 79.6845,-294.379 81.8511,-297.44 81.443,-297.729 81.0349,-298.018 78.8683,-294.957 78.6883,-299.679 77.1097,-291.607 77.1097,-291.607"/>
<text text-anchor="middle" x="118.5" y="-321.6" font-family="FreeSans" font-size="8.00" fill="#4e9a06">KNOWS</text>
<text text-anchor="start" x="103" y="-312.6" font-family="FreeSans" font-size="8.00" fill="#4e9a06">age = 3</text>
</g>
<!-- N2 -->
<g id="node4" class="node"><title>N2</title>
<path fill="#ffffff" stroke="#2e3436" stroke-width="1.5" d="M134.5,-164.5C134.5,-164.5 181.5,-164.5 181.5,-164.5 187.5,-164.5 193.5,-170.5 193.5,-176.5 193.5,-176.5 193.5,-188.5 193.5,-188.5 193.5,-194.5 187.5,-200.5 181.5,-200.5 181.5,-200.5 134.5,-200.5 134.5,-200.5 128.5,-200.5 122.5,-194.5 122.5,-188.5 122.5,-188.5 122.5,-176.5 122.5,-176.5 122.5,-170.5 128.5,-164.5 134.5,-164.5"/>
<text text-anchor="start" x="130.5" y="-180.6" font-family="FreeSans" font-size="8.00" fill="#1c2021">name = &#39;Trinity&#39;</text>
</g>
<!-- N1&#45;&gt;N2 -->
<g id="edge3" class="edge"><title>N1&#45;&gt;N2</title>
<path fill="none" stroke="#4e9a06" stroke-width="2" d="M135.174,-346.415C137.345,-340.654 139.539,-334.129 141,-328 150.854,-286.675 155.098,-237.279 156.85,-208.255"/>
<polygon fill="#4e9a06" stroke="#4e9a06" stroke-width="2" points="157.28,-200.632 160.227,-208.311 157.568,-204.405 157.356,-208.149 156.857,-208.12 156.358,-208.092 156.57,-204.348 153.488,-207.93 157.28,-200.632 157.28,-200.632"/>
<text text-anchor="middle" x="167.5" y="-271.6" font-family="FreeSans" font-size="8.00" fill="#4e9a06">KNOWS</text>
</g>
<!-- N3&#45;&gt;N2 -->
<g id="edge5" class="edge"><title>N3&#45;&gt;N2</title>
<path fill="none" stroke="#4e9a06" stroke-width="2" d="M78.6178,-255.353C87.6082,-244.463 99.9193,-230.336 112,-219 116.864,-214.435 122.285,-209.86 127.649,-205.585"/>
<polygon fill="#4e9a06" stroke="#4e9a06" stroke-width="2" points="133.885,-200.722 130.046,-207.996 131.235,-203.422 128.278,-205.728 127.971,-205.334 127.663,-204.94 130.62,-202.634 125.895,-202.673 133.885,-200.722 133.885,-200.722"/>
<text text-anchor="middle" x="128" y="-230.6" font-family="FreeSans" font-size="8.00" fill="#4e9a06">KNOWS</text>
<text text-anchor="start" x="112" y="-221.6" font-family="FreeSans" font-size="8.00" fill="#4e9a06">age = 90</text>
</g>
<!-- N4 -->
<g id="node5" class="node"><title>N4</title>
<path fill="#ffffff" stroke="#2e3436" stroke-width="1.5" d="M23.5,-164.5C23.5,-164.5 74.5,-164.5 74.5,-164.5 80.5,-164.5 86.5,-170.5 86.5,-176.5 86.5,-176.5 86.5,-188.5 86.5,-188.5 86.5,-194.5 80.5,-200.5 74.5,-200.5 74.5,-200.5 23.5,-200.5 23.5,-200.5 17.5,-200.5 11.5,-194.5 11.5,-188.5 11.5,-188.5 11.5,-176.5 11.5,-176.5 11.5,-170.5 17.5,-164.5 23.5,-164.5"/>
<text text-anchor="start" x="19.5" y="-180.6" font-family="FreeSans" font-size="8.00" fill="#1c2021">name = &#39;Cypher&#39;</text>
</g>
<!-- N3&#45;&gt;N4 -->
<g id="edge4" class="edge"><title>N3&#45;&gt;N4</title>
<path fill="none" stroke="#4e9a06" stroke-width="2" d="M54.3126,-255.434C51.3381,-249.782 48.5101,-243.318 47,-237 44.7939,-227.771 44.6655,-217.394 45.3084,-208.253"/>
<polygon fill="#4e9a06" stroke="#4e9a06" stroke-width="2" points="46.0392,-200.598 48.6861,-208.384 46.1805,-204.378 45.8241,-208.111 45.3264,-208.064 44.8287,-208.016 45.1851,-204.283 41.9667,-207.743 46.0392,-200.598 46.0392,-200.598"/>
<text text-anchor="middle" x="62.5" y="-226.1" font-family="FreeSans" font-size="8.00" fill="#4e9a06">KNOWS</text>
</g>
<!-- N5 -->
<g id="node6" class="node"><title>N5</title>
<path fill="#ffffff" stroke="#2e3436" stroke-width="1.5" d="M15,-82.5C15,-82.5 83,-82.5 83,-82.5 89,-82.5 95,-88.5 95,-94.5 95,-94.5 95,-106.5 95,-106.5 95,-112.5 89,-118.5 83,-118.5 83,-118.5 15,-118.5 15,-118.5 9,-118.5 3,-112.5 3,-106.5 3,-106.5 3,-94.5 3,-94.5 3,-88.5 9,-82.5 15,-82.5"/>
<text text-anchor="start" x="11" y="-98.6" font-family="FreeSans" font-size="8.00" fill="#1c2021">name = &#39;Agent Smith&#39;</text>
</g>
<!-- N4&#45;&gt;N5 -->
<g id="edge6" class="edge"><title>N4&#45;&gt;N5</title>
<path fill="none" stroke="#4e9a06" stroke-width="2" d="M49,-164.141C49,-153.058 49,-138.518 49,-126.236"/>
<polygon fill="#4e9a06" stroke="#4e9a06" stroke-width="2" points="49,-118.55 52.3751,-126.05 49.5,-122.3 49.5001,-126.05 49.0001,-126.05 48.5001,-126.05 48.5,-122.3 45.6251,-126.05 49,-118.55 49,-118.55"/>
<text text-anchor="middle" x="64.5" y="-139.6" font-family="FreeSans" font-size="8.00" fill="#4e9a06">KNOWS</text>
</g>
<!-- N6 -->
<g id="node7" class="node"><title>N6</title>
<path fill="#ffffff" stroke="#2e3436" stroke-width="1.5" d="M12,-0.5C12,-0.5 86,-0.5 86,-0.5 92,-0.5 98,-6.5 98,-12.5 98,-12.5 98,-24.5 98,-24.5 98,-30.5 92,-36.5 86,-36.5 86,-36.5 12,-36.5 12,-36.5 6,-36.5 0,-30.5 0,-24.5 0,-24.5 0,-12.5 0,-12.5 0,-6.5 6,-0.5 12,-0.5"/>
<text text-anchor="start" x="8" y="-16.6" font-family="FreeSans" font-size="8.00" fill="#1c2021">name = &#39;The Architect&#39;</text>
</g>
<!-- N5&#45;&gt;N6 -->
<g id="edge7" class="edge"><title>N5&#45;&gt;N6</title>
<path fill="none" stroke="#a40000" stroke-width="2" d="M49,-82.1412C49,-71.0583 49,-56.5177 49,-44.2358"/>
<polygon fill="#a40000" stroke="#a40000" stroke-width="2" points="49,-36.5501 52.3751,-44.0501 49.5,-40.3001 49.5001,-44.0501 49.0001,-44.0501 48.5001,-44.0501 48.5,-40.3001 45.6251,-44.0501 49,-36.5501 49,-36.5501"/>
<text text-anchor="middle" x="72" y="-57.6" font-family="FreeSans" font-size="8.00" fill="#a40000">CODED_BY</text>
</g>
</g>
</svg>
