<?xml version="1.0" encoding="UTF-8" standalone="no"?>
<!DOCTYPE svg PUBLIC "-//W3C//DTD SVG 1.1//EN"
 "http://www.w3.org/Graphics/SVG/1.1/DTD/svg11.dtd">
<!-- Generated by graphviz version 2.38.0 (20140413.2041)
 -->
<!-- Title: g Pages: 1 -->
<svg width="89pt" height="136pt"
 viewBox="0.00 0.00 88.50 136.00" xmlns="http://www.w3.org/2000/svg" xmlns:xlink="http://www.w3.org/1999/xlink">
<g id="graph0" class="graph" transform="scale(1 1) rotate(0) translate(4 132)">
<title>g</title>
<polygon fill="white" stroke="none" points="-4,4 -4,-132 84.5,-132 84.5,4 -4,4"/>
<!-- N108 -->
<g id="node1" class="node"><title>N108</title>
<path fill="#ffffff" stroke="#2e3436" stroke-width="1.5" d="M15.5,-0.5C15.5,-0.5 59.5,-0.5 59.5,-0.5 65.5,-0.5 71.5,-6.5 71.5,-12.5 71.5,-12.5 71.5,-24.5 71.5,-24.5 71.5,-30.5 65.5,-36.5 59.5,-36.5 59.5,-36.5 15.5,-36.5 15.5,-36.5 9.5,-36.5 3.5,-30.5 3.5,-24.5 3.5,-24.5 3.5,-12.5 3.5,-12.5 3.5,-6.5 9.5,-0.5 15.5,-0.5"/>
<text text-anchor="middle" x="37.5" y="-25.6" font-family="FreeSans" font-size="8.00" fill="#1c2021">Node[108]</text>
<polyline fill="none" stroke="#2e3436" stroke-width="1.5" points="3.5,-18.5 71.5,-18.5 "/>
<text text-anchor="start" x="11.5" y="-7.6" font-family="FreeSans" font-size="8.00" fill="#1c2021">name = &#39;Juliet&#39;</text>
</g>
<!-- N109 -->
<g id="node2" class="node"><title>N109</title>
<path fill="#ffffff" stroke="#2e3436" stroke-width="1.5" d="M12,-91.5C12,-91.5 63,-91.5 63,-91.5 69,-91.5 75,-97.5 75,-103.5 75,-103.5 75,-115.5 75,-115.5 75,-121.5 69,-127.5 63,-127.5 63,-127.5 12,-127.5 12,-127.5 6,-127.5 -7.10543e-15,-121.5 -7.10543e-15,-115.5 -7.10543e-15,-115.5 -7.10543e-15,-103.5 -7.10543e-15,-103.5 -7.10543e-15,-97.5 6,-91.5 12,-91.5"/>
<text text-anchor="middle" x="37.5" y="-116.6" font-family="FreeSans" font-size="8.00" fill="#1c2021">Node[109]</text>
<polyline fill="none" stroke="#2e3436" stroke-width="1.5" points="-7.10543e-15,-109.5 75,-109.5 "/>
<text text-anchor="start" x="8" y="-98.6" font-family="FreeSans" font-size="8.00" fill="#1c2021">name = &#39;Romeo&#39;</text>
</g>
<!-- N109&#45;&gt;N108 -->
<g id="edge1" class="edge"><title>N109&#45;&gt;N108</title>
<path fill="none" stroke="#2e3436" stroke-width="2" d="M37.5,-91.3399C37.5,-78.0425 37.5,-59.4274 37.5,-44.4783"/>
<polygon fill="#2e3436" stroke="#2e3436" stroke-width="2" points="37.5,-36.6074 40.8751,-44.1074 38,-40.3574 38.0001,-44.1074 37.5001,-44.1074 37.0001,-44.1074 37,-40.3574 34.1251,-44.1075 37.5,-36.6074 37.5,-36.6074"/>
<text text-anchor="middle" x="59" y="-66.6" font-family="FreeSans" font-size="8.00" fill="#2e3436">LOVES</text>
<text text-anchor="start" x="37.5" y="-57.6" font-family="FreeSans" font-size="8.00" fill="#2e3436">cost = &#39;high&#39;</text>
</g>
</g>
</svg>
