<?xml version="1.0" encoding="UTF-8" standalone="no"?>
<!DOCTYPE svg PUBLIC "-//W3C//DTD SVG 1.1//EN"
 "http://www.w3.org/Graphics/SVG/1.1/DTD/svg11.dtd">
<!-- Generated by graphviz version 2.36.0 (20140111.2315)
 -->
<!-- Title: g Pages: 1 -->
<svg width="264pt" height="236pt"
 viewBox="0.00 0.00 264.00 236.00" xmlns="http://www.w3.org/2000/svg" xmlns:xlink="http://www.w3.org/1999/xlink">
<g id="graph0" class="graph" transform="scale(1 1) rotate(0) translate(4 232)">
<title>g</title>
<polygon fill="white" stroke="none" points="-4,4 -4,-232 260,-232 260,4 -4,4"/>
<!-- N0 -->
<g id="node1" class="node"><title>N0</title>
<path fill="#ffffff" stroke="#2e3436" stroke-width="1.5" d="M12,-89.5C12,-89.5 56,-89.5 56,-89.5 62,-89.5 68,-95.5 68,-101.5 68,-101.5 68,-120.5 68,-120.5 68,-126.5 62,-132.5 56,-132.5 56,-132.5 12,-132.5 12,-132.5 6,-132.5 0,-126.5 0,-120.5 0,-120.5 0,-101.5 0,-101.5 0,-95.5 6,-89.5 12,-89.5"/>
<text text-anchor="middle" x="34" y="-122.1" font-family="FreeSans" font-size="8.00" fill="#1c2021">Person</text>
<polyline fill="none" stroke="#2e3436" stroke-width="1.5" points="0,-115.5 68,-115.5 "/>
<text text-anchor="start" x="8" y="-105.1" font-family="FreeSans" font-size="8.00" fill="#1c2021">name = &#39;D&#39;</text>
<text text-anchor="start" x="8" y="-96.1" font-family="FreeSans" font-size="8.00" fill="#1c2021">eyes = &#39;brown&#39;</text>
</g>
<!-- N1 -->
<g id="node2" class="node"><title>N1</title>
<path fill="#ffffff" stroke="#2e3436" stroke-width="1.5" d="M109.5,-184.5C109.5,-184.5 150.5,-184.5 150.5,-184.5 156.5,-184.5 162.5,-190.5 162.5,-196.5 162.5,-196.5 162.5,-215.5 162.5,-215.5 162.5,-221.5 156.5,-227.5 150.5,-227.5 150.5,-227.5 109.5,-227.5 109.5,-227.5 103.5,-227.5 97.5,-221.5 97.5,-215.5 97.5,-215.5 97.5,-196.5 97.5,-196.5 97.5,-190.5 103.5,-184.5 109.5,-184.5"/>
<text text-anchor="middle" x="130" y="-217.1" font-family="FreeSans" font-size="8.00" fill="#1c2021">Person</text>
<polyline fill="none" stroke="#2e3436" stroke-width="1.5" points="97.5,-210.5 162.5,-210.5 "/>
<text text-anchor="start" x="105.5" y="-200.1" font-family="FreeSans" font-size="8.00" fill="#1c2021">name = &#39;A&#39;</text>
<text text-anchor="start" x="105.5" y="-191.1" font-family="FreeSans" font-size="8.00" fill="#1c2021">property = 13</text>
</g>
<!-- N1&#45;&gt;N0 -->
<g id="edge1" class="edge"><title>N1&#45;&gt;N0</title>
<path fill="none" stroke="#2e3436" stroke-width="2" d="M108.694,-184.36C94.5257,-170.634 75.8067,-152.5 60.6527,-137.82"/>
<polygon fill="#2e3436" stroke="#2e3436" stroke-width="2" points="55.246,-132.582 62.9811,-135.376 58.2873,-134.832 60.9807,-137.441 60.6328,-137.801 60.2849,-138.16 57.5915,-135.55 58.2845,-140.225 55.246,-132.582 55.246,-132.582"/>
<text text-anchor="middle" x="103.5" y="-159.1" font-family="FreeSans" font-size="8.00" fill="#2e3436">KNOWS</text>
</g>
<!-- N3 -->
<g id="node3" class="node"><title>N3</title>
<path fill="#ffffff" stroke="#2e3436" stroke-width="1.5" d="M109.5,-85C109.5,-85 150.5,-85 150.5,-85 156.5,-85 162.5,-91 162.5,-97 162.5,-97 162.5,-125 162.5,-125 162.5,-131 156.5,-137 150.5,-137 150.5,-137 109.5,-137 109.5,-137 103.5,-137 97.5,-131 97.5,-125 97.5,-125 97.5,-97 97.5,-97 97.5,-91 103.5,-85 109.5,-85"/>
<text text-anchor="middle" x="130" y="-126.6" font-family="FreeSans" font-size="8.00" fill="#1c2021">Person</text>
<polyline fill="none" stroke="#2e3436" stroke-width="1.5" points="97.5,-120 162.5,-120 "/>
<text text-anchor="start" x="105.5" y="-109.6" font-family="FreeSans" font-size="8.00" fill="#1c2021">name = &#39;C&#39;</text>
<text text-anchor="start" x="105.5" y="-100.6" font-family="FreeSans" font-size="8.00" fill="#1c2021">property = 44</text>
<text text-anchor="start" x="105.5" y="-91.6" font-family="FreeSans" font-size="8.00" fill="#1c2021">eyes = &#39;blue&#39;</text>
</g>
<!-- N1&#45;&gt;N3 -->
<g id="edge2" class="edge"><title>N1&#45;&gt;N3</title>
<path fill="none" stroke="#2e3436" stroke-width="2" d="M130,-184.36C130,-172.73 130,-157.934 130,-144.756"/>
<polygon fill="#2e3436" stroke="#2e3436" stroke-width="2" points="130,-137.221 133.375,-144.721 130.5,-140.971 130.5,-144.721 130,-144.721 129.5,-144.721 129.5,-140.971 126.625,-144.721 130,-137.221 130,-137.221"/>
<text text-anchor="middle" x="145.5" y="-159.1" font-family="FreeSans" font-size="8.00" fill="#2e3436">KNOWS</text>
</g>
<!-- N2 -->
<g id="node4" class="node"><title>N2</title>
<path fill="#ffffff" stroke="#2e3436" stroke-width="1.5" d="M203.5,-85C203.5,-85 244.5,-85 244.5,-85 250.5,-85 256.5,-91 256.5,-97 256.5,-97 256.5,-125 256.5,-125 256.5,-131 250.5,-137 244.5,-137 244.5,-137 203.5,-137 203.5,-137 197.5,-137 191.5,-131 191.5,-125 191.5,-125 191.5,-97 191.5,-97 191.5,-91 197.5,-85 203.5,-85"/>
<text text-anchor="middle" x="224" y="-126.6" font-family="FreeSans" font-size="8.00" fill="#1c2021">Person</text>
<polyline fill="none" stroke="#2e3436" stroke-width="1.5" points="191.5,-120 256.5,-120 "/>
<text text-anchor="start" x="199.5" y="-109.6" font-family="FreeSans" font-size="8.00" fill="#1c2021">name = &#39;B&#39;</text>
<text text-anchor="start" x="199.5" y="-100.6" font-family="FreeSans" font-size="8.00" fill="#1c2021">property = 33</text>
<text text-anchor="start" x="199.5" y="-91.6" font-family="FreeSans" font-size="8.00" fill="#1c2021">eyes = &#39;blue&#39;</text>
</g>
<!-- N1&#45;&gt;N2 -->
<g id="edge3" class="edge"><title>N1&#45;&gt;N2</title>
<path fill="none" stroke="#2e3436" stroke-width="2" d="M150.862,-184.36C163.277,-172.077 179.259,-156.265 193.116,-142.556"/>
<polygon fill="#2e3436" stroke="#2e3436" stroke-width="2" points="198.508,-137.221 195.55,-144.895 196.194,-140.214 193.528,-142.851 193.176,-142.496 192.825,-142.14 195.491,-139.503 190.803,-140.096 198.508,-137.221 198.508,-137.221"/>
<text text-anchor="middle" x="192.5" y="-159.1" font-family="FreeSans" font-size="8.00" fill="#2e3436">KNOWS</text>
</g>
<!-- N4 -->
<g id="node5" class="node"><title>N4</title>
<path fill="#ffffff" stroke="#2e3436" stroke-width="1.5" d="M164.5,-1C164.5,-1 195.5,-1 195.5,-1 201.5,-1 207.5,-7 207.5,-13 207.5,-13 207.5,-25 207.5,-25 207.5,-31 201.5,-37 195.5,-37 195.5,-37 164.5,-37 164.5,-37 158.5,-37 152.5,-31 152.5,-25 152.5,-25 152.5,-13 152.5,-13 152.5,-7 158.5,-1 164.5,-1"/>
<text text-anchor="middle" x="180" y="-26.1" font-family="FreeSans" font-size="8.00" fill="#1c2021">Person</text>
<polyline fill="none" stroke="#2e3436" stroke-width="1.5" points="152.5,-19 207.5,-19 "/>
<text text-anchor="start" x="160.5" y="-8.1" font-family="FreeSans" font-size="8.00" fill="#1c2021">name = &#39;D&#39;</text>
</g>
<!-- N3&#45;&gt;N4 -->
<g id="edge5" class="edge"><title>N3&#45;&gt;N4</title>
<path fill="none" stroke="#2e3436" stroke-width="2" d="M143.928,-84.93C151.047,-72.1155 159.667,-56.5988 166.696,-43.9479"/>
<polygon fill="#2e3436" stroke="#2e3436" stroke-width="2" points="170.417,-37.2497 169.725,-45.445 169.033,-40.7707 167.212,-44.0488 166.774,-43.8059 166.337,-43.5631 168.159,-40.285 163.824,-42.1669 170.417,-37.2497 170.417,-37.2497"/>
<text text-anchor="middle" x="175.5" y="-59.1" font-family="FreeSans" font-size="8.00" fill="#2e3436">KNOWS</text>
</g>
<!-- N2&#45;&gt;N4 -->
<g id="edge4" class="edge"><title>N2&#45;&gt;N4</title>
<path fill="none" stroke="#2e3436" stroke-width="2" d="M211.744,-84.93C205.537,-72.2341 198.033,-56.8859 191.88,-44.3"/>
<polygon fill="#2e3436" stroke="#2e3436" stroke-width="2" points="188.433,-37.2497 194.759,-42.5053 190.529,-40.3991 192.177,-43.768 191.727,-43.9876 191.278,-44.2072 189.631,-40.8383 188.695,-45.47 188.433,-37.2497 188.433,-37.2497"/>
<text text-anchor="middle" x="217.5" y="-59.1" font-family="FreeSans" font-size="8.00" fill="#2e3436">KNOWS</text>
</g>
</g>
</svg>
