<?xml version="1.0" encoding="UTF-8" standalone="no"?>
<!DOCTYPE svg PUBLIC "-//W3C//DTD SVG 1.1//EN"
 "http://www.w3.org/Graphics/SVG/1.1/DTD/svg11.dtd">
<!-- Generated by graphviz version 2.36.0 (20140111.2315)
 -->
<!-- Title: g Pages: 1 -->
<svg width="87pt" height="128pt"
 viewBox="0.00 0.00 87.00 128.00" xmlns="http://www.w3.org/2000/svg" xmlns:xlink="http://www.w3.org/1999/xlink">
<g id="graph0" class="graph" transform="scale(1 1) rotate(0) translate(4 124)">
<title>g</title>
<polygon fill="white" stroke="none" points="-4,4 -4,-124 83,-124 83,4 -4,4"/>
<!-- Start node -->
<g id="node1" class="node"><title>Start node</title>
<path fill="#ffffff" stroke="#2e3436" stroke-width="1.5" d="M48.25,-120C48.25,-120 11.75,-120 11.75,-120 5.75,-120 -0.25,-114 -0.25,-108 -0.25,-108 -0.25,-96 -0.25,-96 -0.25,-90 5.75,-84 11.75,-84 11.75,-84 48.25,-84 48.25,-84 54.25,-84 60.25,-90 60.25,-96 60.25,-96 60.25,-108 60.25,-108 60.25,-114 54.25,-120 48.25,-120"/>
<text text-anchor="middle" x="30" y="-99.5" font-family="FreeSans" font-size="10.00" fill="#1c2021">Start node</text>
</g>
<!-- End node -->
<g id="node2" class="node"><title>End node</title>
<path fill="#ffffff" stroke="#2e3436" stroke-width="1.5" d="M45.5,-36C45.5,-36 14.5,-36 14.5,-36 8.5,-36 2.5,-30 2.5,-24 2.5,-24 2.5,-12 2.5,-12 2.5,-6 8.5,-0 14.5,-0 14.5,-0 45.5,-0 45.5,-0 51.5,-0 57.5,-6 57.5,-12 57.5,-12 57.5,-24 57.5,-24 57.5,-30 51.5,-36 45.5,-36"/>
<text text-anchor="middle" x="30" y="-15.5" font-family="FreeSans" font-size="10.00" fill="#1c2021">End node</text>
</g>
<!-- Start node&#45;&gt;End node -->
<g id="edge1" class="edge"><title>Start node&#45;&gt;End node</title>
<path fill="none" stroke="#2e3436" stroke-width="2" d="M30,-83.6099C30,-72.0081 30,-56.5802 30,-43.7099"/>
<polygon fill="#2e3436" stroke="#2e3436" stroke-width="2" points="30,-36.0838 33.3751,-43.5838 30.5,-39.8338 30.5001,-43.5838 30.0001,-43.5838 29.5001,-43.5838 29.5,-39.8338 26.6251,-43.5839 30,-36.0838 30,-36.0838"/>
<text text-anchor="middle" x="54.5" y="-57.5" font-family="FreeSans" font-size="10.00" fill="#1c2021">relationship</text>
</g>
</g>
</svg>
