<?xml version="1.0" encoding="UTF-8" standalone="no"?>
<!DOCTYPE svg PUBLIC "-//W3C//DTD SVG 1.1//EN"
 "http://www.w3.org/Graphics/SVG/1.1/DTD/svg11.dtd">
<!-- Generated by graphviz version 2.36.0 (20140111.2315)
 -->
<!-- Title: g Pages: 1 -->
<svg width="304pt" height="214pt"
 viewBox="0.00 0.00 304.00 214.00" xmlns="http://www.w3.org/2000/svg" xmlns:xlink="http://www.w3.org/1999/xlink">
<g id="graph0" class="graph" transform="scale(1 1) rotate(0) translate(4 210)">
<title>g</title>
<polygon fill="white" stroke="none" points="-4,4 -4,-210 300,-210 300,4 -4,4"/>
<!-- N0 -->
<g id="node1" class="node"><title>N0</title>
<path fill="#ffffff" stroke="#2e3436" stroke-width="1.5" d="M83,-169C83,-169 169,-169 169,-169 175,-169 181,-175 181,-181 181,-181 181,-193 181,-193 181,-199 175,-205 169,-205 169,-205 83,-205 83,-205 77,-205 71,-199 71,-193 71,-193 71,-181 71,-181 71,-175 77,-169 83,-169"/>
<text text-anchor="middle" x="126" y="-194.1" font-family="FreeSans" font-size="8.00" fill="#1c2021">Actor</text>
<polyline fill="none" stroke="#2e3436" stroke-width="1.5" points="71,-187 181,-187 "/>
<text text-anchor="start" x="79" y="-176.1" font-family="FreeSans" font-size="8.00" fill="#1c2021">name = &#39;Anthony Hopkins&#39;</text>
</g>
<!-- N1 -->
<g id="node2" class="node"><title>N1</title>
<path fill="#ffffff" stroke="#2e3436" stroke-width="1.5" d="M11.5,-85C11.5,-85 82.5,-85 82.5,-85 88.5,-85 94.5,-91 94.5,-97 94.5,-97 94.5,-109 94.5,-109 94.5,-115 88.5,-121 82.5,-121 82.5,-121 11.5,-121 11.5,-121 5.5,-121 -0.5,-115 -0.5,-109 -0.5,-109 -0.5,-97 -0.5,-97 -0.5,-91 5.5,-85 11.5,-85"/>
<text text-anchor="middle" x="47" y="-110.1" font-family="FreeSans" font-size="8.00" fill="#1c2021">Actor</text>
<polyline fill="none" stroke="#2e3436" stroke-width="1.5" points="-0.5,-103 94.5,-103 "/>
<text text-anchor="start" x="7.5" y="-92.1" font-family="FreeSans" font-size="8.00" fill="#1c2021">name = &#39;Helen Mirren&#39;</text>
</g>
<!-- N0&#45;&gt;N1 -->
<g id="edge1" class="edge"><title>N0&#45;&gt;N1</title>
<path fill="none" stroke="#2e3436" stroke-width="2" d="M109.246,-168.61C97.4361,-156.351 81.5109,-139.821 68.7251,-126.55"/>
<polygon fill="#2e3436" stroke="#2e3436" stroke-width="2" points="63.4588,-121.084 71.093,-124.143 66.4207,-123.438 69.0225,-126.138 68.6624,-126.485 68.3024,-126.832 65.7005,-124.131 66.2319,-128.827 63.4588,-121.084 63.4588,-121.084"/>
<text text-anchor="middle" x="107.5" y="-143.1" font-family="FreeSans" font-size="8.00" fill="#2e3436">KNOWS</text>
</g>
<!-- N3 -->
<g id="node3" class="node"><title>N3</title>
<path fill="#ffffff" stroke="#2e3436" stroke-width="1.5" d="M86.5,-1C86.5,-1 139.5,-1 139.5,-1 145.5,-1 151.5,-7 151.5,-13 151.5,-13 151.5,-25 151.5,-25 151.5,-31 145.5,-37 139.5,-37 139.5,-37 86.5,-37 86.5,-37 80.5,-37 74.5,-31 74.5,-25 74.5,-25 74.5,-13 74.5,-13 74.5,-7 80.5,-1 86.5,-1"/>
<text text-anchor="middle" x="113" y="-26.1" font-family="FreeSans" font-size="8.00" fill="#1c2021">Movie</text>
<polyline fill="none" stroke="#2e3436" stroke-width="1.5" points="74.5,-19 151.5,-19 "/>
<text text-anchor="start" x="82.5" y="-8.1" font-family="FreeSans" font-size="8.00" fill="#1c2021">title = &#39;Hitchcock&#39;</text>
</g>
<!-- N0&#45;&gt;N3 -->
<g id="edge2" class="edge"><title>N0&#45;&gt;N3</title>
<path fill="none" stroke="#4e9a06" stroke-width="2" d="M128.301,-168.819C128.993,-162.871 129.659,-156.153 130,-150 131.741,-118.557 135.1,-101.58 126,-56 125.239,-52.1879 124.147,-48.2381 122.915,-44.4127"/>
<polygon fill="#4e9a06" stroke="#4e9a06" stroke-width="2" points="120.423,-37.2784 126.082,-43.2462 122.132,-40.6538 123.368,-44.1941 122.896,-44.359 122.424,-44.5239 121.188,-40.9836 119.71,-45.4718 120.423,-37.2784 120.423,-37.2784"/>
<text text-anchor="middle" x="150.5" y="-101.1" font-family="FreeSans" font-size="8.00" fill="#4e9a06">ACTS_IN</text>
</g>
<!-- N1&#45;&gt;N3 -->
<g id="edge3" class="edge"><title>N1&#45;&gt;N3</title>
<path fill="none" stroke="#4e9a06" stroke-width="2" d="M60.9969,-84.6099C70.6873,-72.5703 83.6941,-56.4104 94.2752,-43.2641"/>
<polygon fill="#4e9a06" stroke="#4e9a06" stroke-width="2" points="99.2496,-37.0838 97.1762,-45.0426 97.2878,-40.3187 94.9365,-43.24 94.547,-42.9264 94.1575,-42.6129 96.5088,-39.6916 91.9178,-40.8103 99.2496,-37.0838 99.2496,-37.0838"/>
<text text-anchor="middle" x="101.5" y="-59.1" font-family="FreeSans" font-size="8.00" fill="#4e9a06">ACTS_IN</text>
</g>
<!-- N2 -->
<g id="node4" class="node"><title>N2</title>
<path fill="#ffffff" stroke="#2e3436" stroke-width="1.5" d="M222,-169C222,-169 284,-169 284,-169 290,-169 296,-175 296,-181 296,-181 296,-193 296,-193 296,-199 290,-205 284,-205 284,-205 222,-205 222,-205 216,-205 210,-199 210,-193 210,-193 210,-181 210,-181 210,-175 216,-169 222,-169"/>
<text text-anchor="middle" x="253" y="-194.1" font-family="FreeSans" font-size="8.00" fill="#1c2021">Actor</text>
<polyline fill="none" stroke="#2e3436" stroke-width="1.5" points="210,-187 296,-187 "/>
<text text-anchor="start" x="218" y="-176.1" font-family="FreeSans" font-size="8.00" fill="#1c2021">name = &#39;Hitchcock&#39;</text>
</g>
</g>
</svg>
