<?xml version="1.0" encoding="UTF-8" standalone="no"?>
<!DOCTYPE svg PUBLIC "-//W3C//DTD SVG 1.1//EN"
 "http://www.w3.org/Graphics/SVG/1.1/DTD/svg11.dtd">
<!-- Generated by graphviz version 2.36.0 (20140111.2315)
 -->
<!-- Title: g Pages: 1 -->
<svg width="178pt" height="130pt"
 viewBox="0.00 0.00 178.00 130.00" xmlns="http://www.w3.org/2000/svg" xmlns:xlink="http://www.w3.org/1999/xlink">
<g id="graph0" class="graph" transform="scale(1 1) rotate(0) translate(4 126)">
<title>g</title>
<polygon fill="white" stroke="none" points="-4,4 -4,-126 174,-126 174,4 -4,4"/>
<!-- N0 -->
<g id="node1" class="node"><title>N0</title>
<path fill="#ffffff" stroke="#2e3436" stroke-width="1.5" d="M11.5,-1C11.5,-1 60.5,-1 60.5,-1 66.5,-1 72.5,-7 72.5,-13 72.5,-13 72.5,-25 72.5,-25 72.5,-31 66.5,-37 60.5,-37 60.5,-37 11.5,-37 11.5,-37 5.5,-37 -0.5,-31 -0.5,-25 -0.5,-25 -0.5,-13 -0.5,-13 -0.5,-7 5.5,-1 11.5,-1"/>
<text text-anchor="start" x="7.5" y="-21.6" font-family="FreeSans" font-size="8.00" fill="#1c2021">name = &#39;Tobias&#39;</text>
<text text-anchor="start" x="7.5" y="-12.6" font-family="FreeSans" font-size="8.00" fill="#1c2021">age = 25</text>
</g>
<!-- N1 -->
<g id="node2" class="node"><title>N1</title>
<path fill="#ffffff" stroke="#2e3436" stroke-width="1.5" d="M114,-1C114,-1 158,-1 158,-1 164,-1 170,-7 170,-13 170,-13 170,-25 170,-25 170,-31 164,-37 158,-37 158,-37 114,-37 114,-37 108,-37 102,-31 102,-25 102,-25 102,-13 102,-13 102,-7 108,-1 114,-1"/>
<text text-anchor="start" x="110" y="-21.6" font-family="FreeSans" font-size="8.00" fill="#1c2021">name = &#39;Peter&#39;</text>
<text text-anchor="start" x="110" y="-12.6" font-family="FreeSans" font-size="8.00" fill="#1c2021">age = 34</text>
</g>
<!-- N2 -->
<g id="node3" class="node"><title>N2</title>
<path fill="#ffffff" stroke="#2e3436" stroke-width="1.5" d="M61,-85C61,-85 111,-85 111,-85 117,-85 123,-91 123,-97 123,-97 123,-109 123,-109 123,-115 117,-121 111,-121 111,-121 61,-121 61,-121 55,-121 49,-115 49,-109 49,-109 49,-97 49,-97 49,-91 55,-85 61,-85"/>
<text text-anchor="start" x="57" y="-105.6" font-family="FreeSans" font-size="8.00" fill="#1c2021">name = &#39;Andres&#39;</text>
<text text-anchor="start" x="57" y="-96.6" font-family="FreeSans" font-size="8.00" fill="#1c2021">age = 36</text>
</g>
<!-- N2&#45;&gt;N0 -->
<g id="edge2" class="edge"><title>N2&#45;&gt;N0</title>
<path fill="none" stroke="#2e3436" stroke-width="2" d="M75.3963,-84.6099C68.1218,-72.6798 58.3804,-56.7039 50.4045,-43.6234"/>
<polygon fill="#2e3436" stroke="#2e3436" stroke-width="2" points="46.417,-37.0838 53.2031,-41.7303 48.7962,-40.0253 50.7485,-43.227 50.3216,-43.4873 49.8947,-43.7476 47.9424,-40.5459 47.44,-45.2444 46.417,-37.0838 46.417,-37.0838"/>
<text text-anchor="middle" x="79.5" y="-59.1" font-family="FreeSans" font-size="8.00" fill="#2e3436">KNOWS</text>
</g>
<!-- N2&#45;&gt;N1 -->
<g id="edge1" class="edge"><title>N2&#45;&gt;N1</title>
<path fill="none" stroke="#2e3436" stroke-width="2" d="M96.6037,-84.6099C103.878,-72.6798 113.62,-56.7039 121.595,-43.6234"/>
<polygon fill="#2e3436" stroke="#2e3436" stroke-width="2" points="125.583,-37.0838 124.56,-45.2444 124.058,-40.5459 122.105,-43.7476 121.678,-43.4873 121.252,-43.227 123.204,-40.0253 118.797,-41.7303 125.583,-37.0838 125.583,-37.0838"/>
<text text-anchor="middle" x="129.5" y="-59.1" font-family="FreeSans" font-size="8.00" fill="#2e3436">KNOWS</text>
</g>
</g>
</svg>
