<?xml version="1.0" encoding="UTF-8" standalone="no"?>
<!DOCTYPE svg PUBLIC "-//W3C//DTD SVG 1.1//EN"
 "http://www.w3.org/Graphics/SVG/1.1/DTD/svg11.dtd">
<!-- Generated by graphviz version 2.36.0 (20140111.2315)
 -->
<!-- Title: g Pages: 1 -->
<svg width="78pt" height="130pt"
 viewBox="0.00 0.00 77.67 130.00" xmlns="http://www.w3.org/2000/svg" xmlns:xlink="http://www.w3.org/1999/xlink">
<g id="graph0" class="graph" transform="scale(1 1) rotate(0) translate(4 126)">
<title>g</title>
<polygon fill="white" stroke="none" points="-4,4 -4,-126 73.6704,-126 73.6704,4 -4,4"/>
<!-- N0 -->
<g id="node1" class="node"><title>N0</title>
<path fill="#ffffff" stroke="#2e3436" stroke-width="1.5" d="M14.1704,-85C14.1704,-85 57.1704,-85 57.1704,-85 63.1704,-85 69.1704,-91 69.1704,-97 69.1704,-97 69.1704,-109 69.1704,-109 69.1704,-115 63.1704,-121 57.1704,-121 57.1704,-121 14.1704,-121 14.1704,-121 8.17044,-121 2.17044,-115 2.17044,-109 2.17044,-109 2.17044,-97 2.17044,-97 2.17044,-91 8.17044,-85 14.1704,-85"/>
<text text-anchor="start" x="10.1704" y="-110.1" font-family="FreeSans" font-size="8.00" fill="#1c2021">name = &#39;A&#39;</text>
<text text-anchor="start" x="10.1704" y="-101.1" font-family="FreeSans" font-size="8.00" fill="#1c2021">happy = &#39;Yes!&#39;</text>
<text text-anchor="start" x="10.1704" y="-92.1" font-family="FreeSans" font-size="8.00" fill="#1c2021">age = 55</text>
</g>
<!-- N1 -->
<g id="node2" class="node"><title>N1</title>
<path fill="#ffffff" stroke="#2e3436" stroke-width="1.5" d="M20.6704,-1C20.6704,-1 50.6704,-1 50.6704,-1 56.6704,-1 62.6704,-7 62.6704,-13 62.6704,-13 62.6704,-25 62.6704,-25 62.6704,-31 56.6704,-37 50.6704,-37 50.6704,-37 20.6704,-37 20.6704,-37 14.6704,-37 8.67044,-31 8.67044,-25 8.67044,-25 8.67044,-13 8.67044,-13 8.67044,-7 14.6704,-1 20.6704,-1"/>
<text text-anchor="start" x="16.6704" y="-17.1" font-family="FreeSans" font-size="8.00" fill="#1c2021">name = &#39;B&#39;</text>
</g>
<!-- N0&#45;&gt;N1 -->
<g id="edge1" class="edge"><title>N0&#45;&gt;N1</title>
<path fill="none" stroke="#2e3436" stroke-width="2" d="M14.5722,-84.9198C9.35641,-79.4807 4.46541,-73.03 1.67044,-66 -1.5972,-57.7811 1.52396,-49.7134 6.98409,-42.6863"/>
<polygon fill="#2e3436" stroke="#2e3436" stroke-width="2" points="12.0318,-37.0479 9.54384,-44.887 9.90308,-40.1754 7.4018,-42.9694 7.02927,-42.6359 6.65674,-42.3024 9.15802,-39.5084 4.5147,-40.3847 12.0318,-37.0479 12.0318,-37.0479"/>
<text text-anchor="middle" x="17.1704" y="-59.1" font-family="FreeSans" font-size="8.00" fill="#2e3436">KNOWS</text>
</g>
<!-- N0&#45;&gt;N1 -->
<g id="edge2" class="edge"><title>N0&#45;&gt;N1</title>
<path fill="none" stroke="#4e9a06" stroke-width="2" d="M35.6704,-84.6099C35.6704,-73.0081 35.6704,-57.5802 35.6704,-44.7099"/>
<polygon fill="#4e9a06" stroke="#4e9a06" stroke-width="2" points="35.6704,-37.0838 39.0455,-44.5838 36.1705,-40.8338 36.1705,-44.5838 35.6705,-44.5838 35.1705,-44.5838 35.1705,-40.8338 32.2955,-44.5839 35.6704,-37.0838 35.6704,-37.0838"/>
<text text-anchor="middle" x="52.6704" y="-59.1" font-family="FreeSans" font-size="8.00" fill="#4e9a06">BLOCKS</text>
</g>
</g>
</svg>
