<?xml version="1.0" encoding="UTF-8" standalone="no"?>
<!DOCTYPE svg PUBLIC "-//W3C//DTD SVG 1.1//EN"
 "http://www.w3.org/Graphics/SVG/1.1/DTD/svg11.dtd">
<!-- Generated by graphviz version 2.36.0 (20140111.2315)
 -->
<!-- Title: g Pages: 1 -->
<svg width="369pt" height="550pt"
 viewBox="0.00 0.00 369.00 550.00" xmlns="http://www.w3.org/2000/svg" xmlns:xlink="http://www.w3.org/1999/xlink">
<g id="graph0" class="graph" transform="scale(1 1) rotate(0) translate(4 546)">
<title>g</title>
<polygon fill="white" stroke="none" points="-4,4 -4,-546 365,-546 365,4 -4,4"/>
<!-- N0 -->
<g id="node1" class="node"><title>N0</title>
<path fill="#ffffff" stroke="#2e3436" stroke-width="1.5" d="M169.5,-421C169.5,-421 204.5,-421 204.5,-421 210.5,-421 216.5,-427 216.5,-433 216.5,-433 216.5,-445 216.5,-445 216.5,-451 210.5,-457 204.5,-457 204.5,-457 169.5,-457 169.5,-457 163.5,-457 157.5,-451 157.5,-445 157.5,-445 157.5,-433 157.5,-433 157.5,-427 163.5,-421 169.5,-421"/>
<text text-anchor="start" x="165.5" y="-437.1" font-family="FreeSans" font-size="8.00" fill="#1c2021">name = &#39;Bill&#39;</text>
</g>
<!-- N2 -->
<g id="node2" class="node"><title>N2</title>
<path fill="#ffffff" stroke="#2e3436" stroke-width="1.5" d="M30.5,-337C30.5,-337 77.5,-337 77.5,-337 83.5,-337 89.5,-343 89.5,-349 89.5,-349 89.5,-361 89.5,-361 89.5,-367 83.5,-373 77.5,-373 77.5,-373 30.5,-373 30.5,-373 24.5,-373 18.5,-367 18.5,-361 18.5,-361 18.5,-349 18.5,-349 18.5,-343 24.5,-337 30.5,-337"/>
<text text-anchor="start" x="26.5" y="-353.1" font-family="FreeSans" font-size="8.00" fill="#1c2021">name = &#39;Bill_s1&#39;</text>
</g>
<!-- N0&#45;&gt;N2 -->
<g id="edge1" class="edge"><title>N0&#45;&gt;N2</title>
<path fill="none" stroke="#2e3436" stroke-width="2" d="M159.119,-420.81C138.548,-408.127 110.432,-390.792 88.4531,-377.242"/>
<polygon fill="#2e3436" stroke="#2e3436" stroke-width="2" points="81.8445,-373.167 89.9999,-374.231 85.2989,-374.71 88.491,-376.678 88.2286,-377.103 87.9662,-377.529 84.7741,-375.561 86.4573,-379.976 81.8445,-373.167 81.8445,-373.167"/>
<text text-anchor="middle" x="135.5" y="-395.1" font-family="FreeSans" font-size="8.00" fill="#2e3436">has</text>
</g>
<!-- N11 -->
<g id="node3" class="node"><title>N11</title>
<path fill="#ffffff" stroke="#2e3436" stroke-width="1.5" d="M168,-337C168,-337 206,-337 206,-337 212,-337 218,-343 218,-349 218,-349 218,-361 218,-361 218,-367 212,-373 206,-373 206,-373 168,-373 168,-373 162,-373 156,-367 156,-361 156,-361 156,-349 156,-349 156,-343 162,-337 168,-337"/>
<text text-anchor="start" x="164" y="-353.1" font-family="FreeSans" font-size="8.00" fill="#1c2021">name = &#39;Joe&#39;</text>
</g>
<!-- N0&#45;&gt;N11 -->
<g id="edge2" class="edge"><title>N0&#45;&gt;N11</title>
<path fill="none" stroke="#4e9a06" stroke-width="2" d="M187,-420.61C187,-409.008 187,-393.58 187,-380.71"/>
<polygon fill="#4e9a06" stroke="#4e9a06" stroke-width="2" points="187,-373.084 190.375,-380.584 187.5,-376.834 187.5,-380.584 187,-380.584 186.5,-380.584 186.5,-376.834 183.625,-380.584 187,-373.084 187,-373.084"/>
<text text-anchor="middle" x="209" y="-395.1" font-family="FreeSans" font-size="8.00" fill="#4e9a06">jane_knows</text>
</g>
<!-- N4 -->
<g id="node6" class="node"><title>N4</title>
<path fill="#ffffff" stroke="#2e3436" stroke-width="1.5" d="M11.5,-253C11.5,-253 58.5,-253 58.5,-253 64.5,-253 70.5,-259 70.5,-265 70.5,-265 70.5,-277 70.5,-277 70.5,-283 64.5,-289 58.5,-289 58.5,-289 11.5,-289 11.5,-289 5.5,-289 -0.5,-283 -0.5,-277 -0.5,-277 -0.5,-265 -0.5,-265 -0.5,-259 5.5,-253 11.5,-253"/>
<text text-anchor="start" x="7.5" y="-269.1" font-family="FreeSans" font-size="8.00" fill="#1c2021">name = &#39;Bill_s2&#39;</text>
</g>
<!-- N2&#45;&gt;N4 -->
<g id="edge4" class="edge"><title>N2&#45;&gt;N4</title>
<path fill="none" stroke="#a40000" stroke-width="2" d="M49.9706,-336.61C47.2824,-325.008 43.7076,-309.58 40.7255,-296.71"/>
<polygon fill="#a40000" stroke="#a40000" stroke-width="2" points="38.9585,-289.084 43.9394,-295.628 40.2921,-292.624 41.1386,-296.277 40.6515,-296.39 40.1644,-296.503 39.3179,-292.85 37.3636,-297.152 38.9585,-289.084 38.9585,-289.084"/>
<text text-anchor="middle" x="54" y="-311.1" font-family="FreeSans" font-size="8.00" fill="#a40000">next</text>
</g>
<!-- N6 -->
<g id="node8" class="node"><title>N6</title>
<path fill="#ffffff" stroke="#2e3436" stroke-width="1.5" d="M111.5,-253C111.5,-253 162.5,-253 162.5,-253 168.5,-253 174.5,-259 174.5,-265 174.5,-265 174.5,-277 174.5,-277 174.5,-283 168.5,-289 162.5,-289 162.5,-289 111.5,-289 111.5,-289 105.5,-289 99.5,-283 99.5,-277 99.5,-277 99.5,-265 99.5,-265 99.5,-259 105.5,-253 111.5,-253"/>
<text text-anchor="start" x="107.5" y="-269.1" font-family="FreeSans" font-size="8.00" fill="#1c2021">name = &#39;Joe_s1&#39;</text>
</g>
<!-- N11&#45;&gt;N6 -->
<g id="edge11" class="edge"><title>N11&#45;&gt;N6</title>
<path fill="none" stroke="#2e3436" stroke-width="2" d="M176.396,-336.61C169.122,-324.68 159.38,-308.704 151.405,-295.623"/>
<polygon fill="#2e3436" stroke="#2e3436" stroke-width="2" points="147.417,-289.084 154.203,-293.73 149.796,-292.025 151.748,-295.227 151.322,-295.487 150.895,-295.748 148.942,-292.546 148.44,-297.244 147.417,-289.084 147.417,-289.084"/>
<text text-anchor="middle" x="171.5" y="-311.1" font-family="FreeSans" font-size="8.00" fill="#2e3436">has</text>
</g>
<!-- N7 -->
<g id="node10" class="node"><title>N7</title>
<path fill="#ffffff" stroke="#2e3436" stroke-width="1.5" d="M215.5,-253C215.5,-253 254.5,-253 254.5,-253 260.5,-253 266.5,-259 266.5,-265 266.5,-265 266.5,-277 266.5,-277 266.5,-283 260.5,-289 254.5,-289 254.5,-289 215.5,-289 215.5,-289 209.5,-289 203.5,-283 203.5,-277 203.5,-277 203.5,-265 203.5,-265 203.5,-259 209.5,-253 215.5,-253"/>
<text text-anchor="start" x="211.5" y="-269.1" font-family="FreeSans" font-size="8.00" fill="#1c2021">name = &#39;Bob&#39;</text>
</g>
<!-- N11&#45;&gt;N7 -->
<g id="edge12" class="edge"><title>N11&#45;&gt;N7</title>
<path fill="none" stroke="#4e9a06" stroke-width="2" d="M197.18,-336.61C204.163,-324.68 213.515,-308.704 221.172,-295.623"/>
<polygon fill="#4e9a06" stroke="#4e9a06" stroke-width="2" points="225,-289.084 224.123,-297.261 223.537,-292.573 221.642,-295.809 221.211,-295.556 220.779,-295.304 222.674,-292.068 218.298,-293.851 225,-289.084 225,-289.084"/>
<text text-anchor="middle" x="236" y="-311.1" font-family="FreeSans" font-size="8.00" fill="#4e9a06">jane_knows</text>
</g>
<!-- N1 -->
<g id="node4" class="node"><title>N1</title>
<path fill="#ffffff" stroke="#2e3436" stroke-width="1.5" d="M297,-85C297,-85 349,-85 349,-85 355,-85 361,-91 361,-97 361,-97 361,-109 361,-109 361,-115 355,-121 349,-121 349,-121 297,-121 297,-121 291,-121 285,-115 285,-109 285,-109 285,-97 285,-97 285,-91 291,-85 297,-85"/>
<text text-anchor="start" x="293" y="-101.1" font-family="FreeSans" font-size="8.00" fill="#1c2021">name = &#39;Ted_s1&#39;</text>
</g>
<!-- N3 -->
<g id="node5" class="node"><title>N3</title>
<path fill="#ffffff" stroke="#2e3436" stroke-width="1.5" d="M297,-1C297,-1 349,-1 349,-1 355,-1 361,-7 361,-13 361,-13 361,-25 361,-25 361,-31 355,-37 349,-37 349,-37 297,-37 297,-37 291,-37 285,-31 285,-25 285,-25 285,-13 285,-13 285,-7 291,-1 297,-1"/>
<text text-anchor="start" x="293" y="-17.1" font-family="FreeSans" font-size="8.00" fill="#1c2021">name = &#39;Ted_s2&#39;</text>
</g>
<!-- N1&#45;&gt;N3 -->
<g id="edge3" class="edge"><title>N1&#45;&gt;N3</title>
<path fill="none" stroke="#a40000" stroke-width="2" d="M323,-84.6099C323,-73.0081 323,-57.5802 323,-44.7099"/>
<polygon fill="#a40000" stroke="#a40000" stroke-width="2" points="323,-37.0838 326.375,-44.5838 323.5,-40.8338 323.5,-44.5838 323,-44.5838 322.5,-44.5838 322.5,-40.8338 319.625,-44.5839 323,-37.0838 323,-37.0838"/>
<text text-anchor="middle" x="331" y="-59.1" font-family="FreeSans" font-size="8.00" fill="#a40000">next</text>
</g>
<!-- N5 -->
<g id="node7" class="node"><title>N5</title>
<path fill="#ffffff" stroke="#2e3436" stroke-width="1.5" d="M165.5,-505C165.5,-505 208.5,-505 208.5,-505 214.5,-505 220.5,-511 220.5,-517 220.5,-517 220.5,-529 220.5,-529 220.5,-535 214.5,-541 208.5,-541 208.5,-541 165.5,-541 165.5,-541 159.5,-541 153.5,-535 153.5,-529 153.5,-529 153.5,-517 153.5,-517 153.5,-511 159.5,-505 165.5,-505"/>
<text text-anchor="start" x="161.5" y="-521.1" font-family="FreeSans" font-size="8.00" fill="#1c2021">name = &#39;Jane&#39;</text>
</g>
<!-- N5&#45;&gt;N0 -->
<g id="edge5" class="edge"><title>N5&#45;&gt;N0</title>
<path fill="none" stroke="#4e9a06" stroke-width="2" d="M187,-504.61C187,-493.008 187,-477.58 187,-464.71"/>
<polygon fill="#4e9a06" stroke="#4e9a06" stroke-width="2" points="187,-457.084 190.375,-464.584 187.5,-460.834 187.5,-464.584 187,-464.584 186.5,-464.584 186.5,-460.834 183.625,-464.584 187,-457.084 187,-457.084"/>
<text text-anchor="middle" x="209" y="-479.1" font-family="FreeSans" font-size="8.00" fill="#4e9a06">jane_knows</text>
</g>
<!-- N9 -->
<g id="node9" class="node"><title>N9</title>
<path fill="#ffffff" stroke="#2e3436" stroke-width="1.5" d="M88.5,-169C88.5,-169 139.5,-169 139.5,-169 145.5,-169 151.5,-175 151.5,-181 151.5,-181 151.5,-193 151.5,-193 151.5,-199 145.5,-205 139.5,-205 139.5,-205 88.5,-205 88.5,-205 82.5,-205 76.5,-199 76.5,-193 76.5,-193 76.5,-181 76.5,-181 76.5,-175 82.5,-169 88.5,-169"/>
<text text-anchor="start" x="84.5" y="-185.1" font-family="FreeSans" font-size="8.00" fill="#1c2021">name = &#39;Joe_s2&#39;</text>
</g>
<!-- N6&#45;&gt;N9 -->
<g id="edge6" class="edge"><title>N6&#45;&gt;N9</title>
<path fill="none" stroke="#a40000" stroke-width="2" d="M132.122,-252.61C128.837,-240.899 124.459,-225.289 120.829,-212.346"/>
<polygon fill="#a40000" stroke="#a40000" stroke-width="2" points="118.792,-205.084 124.067,-211.394 120.286,-208.559 121.299,-212.17 120.817,-212.305 120.336,-212.44 119.323,-208.83 117.568,-213.217 118.792,-205.084 118.792,-205.084"/>
<text text-anchor="middle" x="135" y="-227.1" font-family="FreeSans" font-size="8.00" fill="#a40000">next</text>
</g>
<!-- N10 -->
<g id="node11" class="node"><title>N10</title>
<path fill="#ffffff" stroke="#2e3436" stroke-width="1.5" d="M193,-169C193,-169 245,-169 245,-169 251,-169 257,-175 257,-181 257,-181 257,-193 257,-193 257,-199 251,-205 245,-205 245,-205 193,-205 193,-205 187,-205 181,-199 181,-193 181,-193 181,-181 181,-181 181,-175 187,-169 193,-169"/>
<text text-anchor="start" x="189" y="-185.1" font-family="FreeSans" font-size="8.00" fill="#1c2021">name = &#39;Bob_s1&#39;</text>
</g>
<!-- N7&#45;&gt;N10 -->
<g id="edge7" class="edge"><title>N7&#45;&gt;N10</title>
<path fill="none" stroke="#2e3436" stroke-width="2" d="M224.311,-252.677C221.337,-246.945 218.509,-240.393 217,-234 215.416,-227.29 215.126,-219.88 215.439,-213.003"/>
<polygon fill="#2e3436" stroke="#2e3436" stroke-width="2" points="216.04,-205.249 218.825,-212.988 216.249,-209.026 215.959,-212.765 215.46,-212.727 214.962,-212.688 215.252,-208.949 212.095,-212.465 216.04,-205.249 216.04,-205.249"/>
<text text-anchor="middle" x="223.5" y="-227.1" font-family="FreeSans" font-size="8.00" fill="#2e3436">has</text>
</g>
<!-- N8 -->
<g id="node12" class="node"><title>N8</title>
<path fill="#ffffff" stroke="#2e3436" stroke-width="1.5" d="M303.5,-169C303.5,-169 342.5,-169 342.5,-169 348.5,-169 354.5,-175 354.5,-181 354.5,-181 354.5,-193 354.5,-193 354.5,-199 348.5,-205 342.5,-205 342.5,-205 303.5,-205 303.5,-205 297.5,-205 291.5,-199 291.5,-193 291.5,-193 291.5,-181 291.5,-181 291.5,-175 297.5,-169 303.5,-169"/>
<text text-anchor="start" x="299.5" y="-185.1" font-family="FreeSans" font-size="8.00" fill="#1c2021">name = &#39;Ted&#39;</text>
</g>
<!-- N7&#45;&gt;N8 -->
<g id="edge8" class="edge"><title>N7&#45;&gt;N8</title>
<path fill="none" stroke="#204a87" stroke-width="2" d="M243.285,-252.92C248.37,-243.623 255.527,-232.349 264,-224 270.085,-218.003 277.35,-212.557 284.667,-207.819"/>
<polygon fill="#204a87" stroke="#204a87" stroke-width="2" points="291.369,-203.672 286.767,-210.489 288.443,-206.071 285.254,-208.044 284.991,-207.619 284.728,-207.194 287.917,-205.22 283.215,-204.749 291.369,-203.672 291.369,-203.672"/>
<text text-anchor="middle" x="285" y="-227.1" font-family="FreeSans" font-size="8.00" fill="#204a87">bob_knows</text>
</g>
<!-- N8&#45;&gt;N0 -->
<g id="edge10" class="edge"><title>N8&#45;&gt;N0</title>
<path fill="none" stroke="#204a87" stroke-width="2" d="M319.836,-205.011C311.938,-243.664 288.274,-339.575 238,-402 233.657,-407.393 228.305,-412.336 222.718,-416.719"/>
<polygon fill="#204a87" stroke="#204a87" stroke-width="2" points="216.601,-421.248 220.62,-414.073 219.317,-418.615 222.331,-416.383 222.628,-416.785 222.926,-417.187 219.912,-419.419 224.637,-419.498 216.601,-421.248 216.601,-421.248"/>
<text text-anchor="middle" x="311" y="-311.1" font-family="FreeSans" font-size="8.00" fill="#204a87">bob_knows</text>
</g>
<!-- N8&#45;&gt;N1 -->
<g id="edge9" class="edge"><title>N8&#45;&gt;N1</title>
<path fill="none" stroke="#2e3436" stroke-width="2" d="M323,-168.61C323,-157.008 323,-141.58 323,-128.71"/>
<polygon fill="#2e3436" stroke="#2e3436" stroke-width="2" points="323,-121.084 326.375,-128.584 323.5,-124.834 323.5,-128.584 323,-128.584 322.5,-128.584 322.5,-124.834 319.625,-128.584 323,-121.084 323,-121.084"/>
<text text-anchor="middle" x="329.5" y="-143.1" font-family="FreeSans" font-size="8.00" fill="#2e3436">has</text>
</g>
</g>
</svg>
