<?xml version="1.0" encoding="UTF-8" standalone="no"?>
<!DOCTYPE svg PUBLIC "-//W3C//DTD SVG 1.1//EN"
 "http://www.w3.org/Graphics/SVG/1.1/DTD/svg11.dtd">
<!-- Generated by graphviz version 2.36.0 (20140111.2315)
 -->
<!-- Title: g Pages: 1 -->
<svg width="504pt" height="102pt"
 viewBox="0.00 0.00 504.00 102.31" xmlns="http://www.w3.org/2000/svg" xmlns:xlink="http://www.w3.org/1999/xlink">
<g id="graph0" class="graph" transform="scale(0.710474 0.710474) rotate(0) translate(4 140)">
<title>g</title>
<polygon fill="white" stroke="none" points="-4,4 -4,-140 705.386,-140 705.386,4 -4,4"/>
<!-- N0 -->
<g id="node1" class="node"><title>N0</title>
<path fill="#ffffff" stroke="#2e3436" stroke-width="1.5" d="M207.386,-0.5C207.386,-0.5 269.386,-0.5 269.386,-0.5 275.386,-0.5 281.386,-6.5 281.386,-12.5 281.386,-12.5 281.386,-31.5 281.386,-31.5 281.386,-37.5 275.386,-43.5 269.386,-43.5 269.386,-43.5 207.386,-43.5 207.386,-43.5 201.386,-43.5 195.386,-37.5 195.386,-31.5 195.386,-31.5 195.386,-12.5 195.386,-12.5 195.386,-6.5 201.386,-0.5 207.386,-0.5"/>
<text text-anchor="middle" x="238.386" y="-33.1" font-family="FreeSans" font-size="8.00" fill="#1c2021">Movie</text>
<polyline fill="none" stroke="#2e3436" stroke-width="1.5" points="195.386,-26.5 281.386,-26.5 "/>
<text text-anchor="start" x="203.386" y="-16.1" font-family="FreeSans" font-size="8.00" fill="#1c2021">title = &#39;The Matrix&#39;</text>
<text text-anchor="start" x="203.386" y="-7.1" font-family="FreeSans" font-size="8.00" fill="#1c2021">year = &#39;1999&#45;03&#45;31&#39;</text>
</g>
<!-- N1 -->
<g id="node2" class="node"><title>N1</title>
<path fill="#ffffff" stroke="#2e3436" stroke-width="1.5" d="M35.3856,-0.5C35.3856,-0.5 127.386,-0.5 127.386,-0.5 133.386,-0.5 139.386,-6.5 139.386,-12.5 139.386,-12.5 139.386,-31.5 139.386,-31.5 139.386,-37.5 133.386,-43.5 127.386,-43.5 127.386,-43.5 35.3856,-43.5 35.3856,-43.5 29.3856,-43.5 23.3856,-37.5 23.3856,-31.5 23.3856,-31.5 23.3856,-12.5 23.3856,-12.5 23.3856,-6.5 29.3856,-0.5 35.3856,-0.5"/>
<text text-anchor="middle" x="81.3856" y="-33.1" font-family="FreeSans" font-size="8.00" fill="#1c2021">Movie</text>
<polyline fill="none" stroke="#2e3436" stroke-width="1.5" points="23.3856,-26.5 139.386,-26.5 "/>
<text text-anchor="start" x="31.3856" y="-16.1" font-family="FreeSans" font-size="8.00" fill="#1c2021">title = &#39;The Matrix Reloaded&#39;</text>
<text text-anchor="start" x="31.3856" y="-7.1" font-family="FreeSans" font-size="8.00" fill="#1c2021">year = &#39;2003&#45;05&#45;07&#39;</text>
</g>
<!-- N2 -->
<g id="node3" class="node"><title>N2</title>
<path fill="#ffffff" stroke="#2e3436" stroke-width="1.5" d="M442.386,-0.5C442.386,-0.5 540.386,-0.5 540.386,-0.5 546.386,-0.5 552.386,-6.5 552.386,-12.5 552.386,-12.5 552.386,-31.5 552.386,-31.5 552.386,-37.5 546.386,-43.5 540.386,-43.5 540.386,-43.5 442.386,-43.5 442.386,-43.5 436.386,-43.5 430.386,-37.5 430.386,-31.5 430.386,-31.5 430.386,-12.5 430.386,-12.5 430.386,-6.5 436.386,-0.5 442.386,-0.5"/>
<text text-anchor="middle" x="491.386" y="-33.1" font-family="FreeSans" font-size="8.00" fill="#1c2021">Movie</text>
<polyline fill="none" stroke="#2e3436" stroke-width="1.5" points="430.386,-26.5 552.386,-26.5 "/>
<text text-anchor="start" x="438.386" y="-16.1" font-family="FreeSans" font-size="8.00" fill="#1c2021">title = &#39;The Matrix Revolutions&#39;</text>
<text text-anchor="start" x="438.386" y="-7.1" font-family="FreeSans" font-size="8.00" fill="#1c2021">year = &#39;2003&#45;10&#45;27&#39;</text>
</g>
<!-- N3 -->
<g id="node4" class="node"><title>N3</title>
<path fill="#ffffff" stroke="#2e3436" stroke-width="1.5" d="M93.8856,-99C93.8856,-99 170.886,-99 170.886,-99 176.886,-99 182.886,-105 182.886,-111 182.886,-111 182.886,-123 182.886,-123 182.886,-129 176.886,-135 170.886,-135 170.886,-135 93.8856,-135 93.8856,-135 87.8856,-135 81.8856,-129 81.8856,-123 81.8856,-123 81.8856,-111 81.8856,-111 81.8856,-105 87.8856,-99 93.8856,-99"/>
<text text-anchor="middle" x="132.386" y="-124.1" font-family="FreeSans" font-size="8.00" fill="#1c2021">Actor</text>
<polyline fill="none" stroke="#2e3436" stroke-width="1.5" points="81.8856,-117 182.886,-117 "/>
<text text-anchor="start" x="89.8856" y="-106.1" font-family="FreeSans" font-size="8.00" fill="#1c2021">name = &#39;Keanu Reeves&#39;</text>
</g>
<!-- N3&#45;&gt;N0 -->
<g id="edge3" class="edge"><title>N3&#45;&gt;N0</title>
<path fill="none" stroke="#2e3436" stroke-width="2" d="M147.964,-98.756C158.191,-87.7892 172.089,-73.5346 185.386,-62 190.709,-57.382 196.544,-52.7251 202.336,-48.3161"/>
<polygon fill="#2e3436" stroke="#2e3436" stroke-width="2" points="208.576,-43.6427 204.596,-50.8398 205.874,-46.2908 202.873,-48.5386 202.573,-48.1383 202.273,-47.7381 205.275,-45.4903 200.55,-45.4368 208.576,-43.6427 208.576,-43.6427"/>
<text text-anchor="middle" x="205.886" y="-73.6" font-family="FreeSans" font-size="8.00" fill="#2e3436">ACTS_IN</text>
<text text-anchor="start" x="185.386" y="-64.6" font-family="FreeSans" font-size="8.00" fill="#2e3436">role = &#39;Neo&#39;</text>
</g>
<!-- N3&#45;&gt;N1 -->
<g id="edge2" class="edge"><title>N3&#45;&gt;N1</title>
<path fill="none" stroke="#2e3436" stroke-width="2" d="M81.6577,-108.132C50.1839,-102.097 13.9689,-92.6504 4.38559,-80 -5.10767,-67.4684 2.9071,-56.42 16.7951,-47.468"/>
<polygon fill="#2e3436" stroke="#2e3436" stroke-width="2" points="23.5475,-43.5046 18.7878,-50.2118 20.5666,-45.8341 17.3325,-47.7324 17.0794,-47.3012 16.8263,-46.8699 20.0604,-44.9717 15.3709,-44.3905 23.5475,-43.5046 23.5475,-43.5046"/>
<text text-anchor="middle" x="24.8856" y="-73.6" font-family="FreeSans" font-size="8.00" fill="#2e3436">ACTS_IN</text>
<text text-anchor="start" x="4.38559" y="-64.6" font-family="FreeSans" font-size="8.00" fill="#2e3436">role = &#39;Neo&#39;</text>
</g>
<!-- N3&#45;&gt;N2 -->
<g id="edge1" class="edge"><title>N3&#45;&gt;N2</title>
<path fill="none" stroke="#2e3436" stroke-width="2" d="M182.929,-101.089C187.79,-99.9317 192.665,-98.8751 197.386,-98 279.047,-82.8604 305.149,-107.872 383.386,-80 396.971,-75.16 397.858,-69.1456 410.386,-62 419.44,-56.8352 429.284,-51.7108 438.888,-46.9572"/>
<polygon fill="#2e3436" stroke="#2e3436" stroke-width="2" points="445.825,-43.5662 440.569,-49.8923 442.675,-45.6624 439.306,-47.3094 439.087,-46.8602 438.867,-46.411 442.236,-44.764 437.604,-43.8282 445.825,-43.5662 445.825,-43.5662"/>
<text text-anchor="middle" x="430.886" y="-73.6" font-family="FreeSans" font-size="8.00" fill="#2e3436">ACTS_IN</text>
<text text-anchor="start" x="410.386" y="-64.6" font-family="FreeSans" font-size="8.00" fill="#2e3436">role = &#39;Neo&#39;</text>
</g>
<!-- N4 -->
<g id="node5" class="node"><title>N4</title>
<path fill="#ffffff" stroke="#2e3436" stroke-width="1.5" d="M524.386,-99C524.386,-99 622.386,-99 622.386,-99 628.386,-99 634.386,-105 634.386,-111 634.386,-111 634.386,-123 634.386,-123 634.386,-129 628.386,-135 622.386,-135 622.386,-135 524.386,-135 524.386,-135 518.386,-135 512.386,-129 512.386,-123 512.386,-123 512.386,-111 512.386,-111 512.386,-105 518.386,-99 524.386,-99"/>
<text text-anchor="middle" x="573.386" y="-124.1" font-family="FreeSans" font-size="8.00" fill="#1c2021">Actor</text>
<polyline fill="none" stroke="#2e3436" stroke-width="1.5" points="512.386,-117 634.386,-117 "/>
<text text-anchor="start" x="520.386" y="-106.1" font-family="FreeSans" font-size="8.00" fill="#1c2021">name = &#39;Laurence Fishburne&#39;</text>
</g>
<!-- N4&#45;&gt;N0 -->
<g id="edge6" class="edge"><title>N4&#45;&gt;N0</title>
<path fill="none" stroke="#2e3436" stroke-width="2" d="M563.914,-98.917C556.082,-86.5234 543.766,-70.5 528.386,-62 518.035,-56.2796 369.257,-38.241 288.944,-28.835"/>
<polygon fill="#2e3436" stroke="#2e3436" stroke-width="2" points="281.392,-27.9524 289.233,-25.471 285.175,-27.8912 288.899,-28.3265 288.841,-28.8232 288.783,-29.3198 285.059,-28.8844 288.45,-32.1753 281.392,-27.9524 281.392,-27.9524"/>
<text text-anchor="middle" x="579.386" y="-73.6" font-family="FreeSans" font-size="8.00" fill="#2e3436">ACTS_IN</text>
<text text-anchor="start" x="548.386" y="-64.6" font-family="FreeSans" font-size="8.00" fill="#2e3436">role = &#39;Morpheus&#39;</text>
</g>
<!-- N4&#45;&gt;N1 -->
<g id="edge5" class="edge"><title>N4&#45;&gt;N1</title>
<path fill="none" stroke="#2e3436" stroke-width="2" d="M512.348,-115.161C458.626,-112.655 379.104,-104.586 314.386,-80 300.903,-74.8782 300.793,-67.3138 287.386,-62 242.554,-44.2323 227.761,-53.0053 180.386,-44 169.587,-41.9473 158.153,-39.6437 147.041,-37.3344"/>
<polygon fill="#2e3436" stroke="#2e3436" stroke-width="2" points="139.41,-35.7378 147.442,-33.9705 143.183,-36.0165 146.854,-36.7845 146.751,-37.2739 146.649,-37.7633 142.978,-36.9953 146.06,-40.5774 139.41,-35.7378 139.41,-35.7378"/>
<text text-anchor="middle" x="345.386" y="-73.6" font-family="FreeSans" font-size="8.00" fill="#2e3436">ACTS_IN</text>
<text text-anchor="start" x="314.386" y="-64.6" font-family="FreeSans" font-size="8.00" fill="#2e3436">role = &#39;Morpheus&#39;</text>
</g>
<!-- N4&#45;&gt;N2 -->
<g id="edge4" class="edge"><title>N4&#45;&gt;N2</title>
<path fill="none" stroke="#2e3436" stroke-width="2" d="M615.459,-98.8056C633.043,-89.0776 647.165,-76.0624 636.386,-62 626.658,-49.3109 592.961,-39.8278 560.499,-33.3917"/>
<polygon fill="#2e3436" stroke="#2e3436" stroke-width="2" points="552.728,-31.9024 560.729,-29.9995 556.505,-32.1172 560.188,-32.8231 560.094,-33.3142 560,-33.8052 556.317,-33.0994 559.459,-36.6289 552.728,-31.9024 552.728,-31.9024"/>
<text text-anchor="middle" x="670.386" y="-73.6" font-family="FreeSans" font-size="8.00" fill="#2e3436">ACTS_IN</text>
<text text-anchor="start" x="639.386" y="-64.6" font-family="FreeSans" font-size="8.00" fill="#2e3436">role = &#39;Morpheus&#39;</text>
</g>
<!-- N5 -->
<g id="node6" class="node"><title>N5</title>
<path fill="#ffffff" stroke="#2e3436" stroke-width="1.5" d="M224.386,-99C224.386,-99 314.386,-99 314.386,-99 320.386,-99 326.386,-105 326.386,-111 326.386,-111 326.386,-123 326.386,-123 326.386,-129 320.386,-135 314.386,-135 314.386,-135 224.386,-135 224.386,-135 218.386,-135 212.386,-129 212.386,-123 212.386,-123 212.386,-111 212.386,-111 212.386,-105 218.386,-99 224.386,-99"/>
<text text-anchor="middle" x="269.386" y="-124.1" font-family="FreeSans" font-size="8.00" fill="#1c2021">Actor</text>
<polyline fill="none" stroke="#2e3436" stroke-width="1.5" points="212.386,-117 326.386,-117 "/>
<text text-anchor="start" x="220.386" y="-106.1" font-family="FreeSans" font-size="8.00" fill="#1c2021">name = &#39;Carrie&#45;Anne Moss&#39;</text>
</g>
<!-- N5&#45;&gt;N0 -->
<g id="edge9" class="edge"><title>N5&#45;&gt;N0</title>
<path fill="none" stroke="#2e3436" stroke-width="2" d="M248.898,-98.8211C243.835,-93.3805 239.09,-86.9536 236.386,-80 232.908,-71.06 232.349,-60.7238 232.997,-51.3281"/>
<polygon fill="#2e3436" stroke="#2e3436" stroke-width="2" points="233.788,-43.7084 236.371,-51.5168 233.898,-47.49 233.511,-51.2199 233.014,-51.1683 232.516,-51.1166 232.904,-47.3867 229.657,-50.8197 233.788,-43.7084 233.788,-43.7084"/>
<text text-anchor="middle" x="260.386" y="-73.6" font-family="FreeSans" font-size="8.00" fill="#2e3436">ACTS_IN</text>
<text text-anchor="start" x="236.386" y="-64.6" font-family="FreeSans" font-size="8.00" fill="#2e3436">role = &#39;Trinity&#39;</text>
</g>
<!-- N5&#45;&gt;N1 -->
<g id="edge8" class="edge"><title>N5&#45;&gt;N1</title>
<path fill="none" stroke="#2e3436" stroke-width="2" d="M212.042,-101.684C206.754,-100.417 201.474,-99.1721 196.386,-98 159.179,-89.4287 142.967,-102.859 112.386,-80 102.636,-72.712 95.5931,-61.4203 90.7097,-50.8036"/>
<polygon fill="#2e3436" stroke="#2e3436" stroke-width="2" points="87.6672,-43.6189 93.6997,-49.209 89.5899,-46.877 91.0523,-50.3301 90.5919,-50.5251 90.1315,-50.7201 88.6691,-47.267 87.4841,-51.8412 87.6672,-43.6189 87.6672,-43.6189"/>
<text text-anchor="middle" x="136.386" y="-73.6" font-family="FreeSans" font-size="8.00" fill="#2e3436">ACTS_IN</text>
<text text-anchor="start" x="112.386" y="-64.6" font-family="FreeSans" font-size="8.00" fill="#2e3436">role = &#39;Trinity&#39;</text>
</g>
<!-- N5&#45;&gt;N2 -->
<g id="edge7" class="edge"><title>N5&#45;&gt;N2</title>
<path fill="none" stroke="#2e3436" stroke-width="2" d="M326.431,-110.388C374.107,-104.758 437.546,-94.787 458.386,-80 468.56,-72.7807 476.056,-61.3621 481.308,-50.6346"/>
<polygon fill="#2e3436" stroke="#2e3436" stroke-width="2" points="484.442,-43.736 484.413,-51.9604 483.346,-47.3572 481.795,-50.7715 481.34,-50.5647 480.885,-50.3579 482.436,-46.9436 478.267,-49.169 484.442,-43.736 484.442,-43.736"/>
<text text-anchor="middle" x="497.386" y="-73.6" font-family="FreeSans" font-size="8.00" fill="#2e3436">ACTS_IN</text>
<text text-anchor="start" x="473.386" y="-64.6" font-family="FreeSans" font-size="8.00" fill="#2e3436">role = &#39;Trinity&#39;</text>
</g>
</g>
</svg>
