<?xml version="1.0" encoding="UTF-8" standalone="no"?>
<!DOCTYPE svg PUBLIC "-//W3C//DTD SVG 1.1//EN"
 "http://www.w3.org/Graphics/SVG/1.1/DTD/svg11.dtd">
<!-- Generated by graphviz version 2.36.0 (20140111.2315)
 -->
<!-- Title: g Pages: 1 -->
<svg width="194pt" height="298pt"
 viewBox="0.00 0.00 194.00 298.00" xmlns="http://www.w3.org/2000/svg" xmlns:xlink="http://www.w3.org/1999/xlink">
<g id="graph0" class="graph" transform="scale(1 1) rotate(0) translate(4 294)">
<title>g</title>
<polygon fill="white" stroke="none" points="-4,4 -4,-294 190,-294 190,4 -4,4"/>
<!-- N0 -->
<g id="node1" class="node"><title>N0</title>
<path fill="#ffffff" stroke="#2e3436" stroke-width="1.5" d="M107.5,-253C107.5,-253 152.5,-253 152.5,-253 158.5,-253 164.5,-259 164.5,-265 164.5,-265 164.5,-277 164.5,-277 164.5,-283 158.5,-289 152.5,-289 152.5,-289 107.5,-289 107.5,-289 101.5,-289 95.5,-283 95.5,-277 95.5,-277 95.5,-265 95.5,-265 95.5,-259 101.5,-253 107.5,-253"/>
<text text-anchor="start" x="103.5" y="-269.1" font-family="FreeSans" font-size="8.00" fill="#1c2021">name = &#39;David&#39;</text>
</g>
<!-- N2 -->
<g id="node2" class="node"><title>N2</title>
<path fill="#ffffff" stroke="#2e3436" stroke-width="1.5" d="M36,-169C36,-169 86,-169 86,-169 92,-169 98,-175 98,-181 98,-181 98,-193 98,-193 98,-199 92,-205 86,-205 86,-205 36,-205 36,-205 30,-205 24,-199 24,-193 24,-193 24,-181 24,-181 24,-175 30,-169 36,-169"/>
<text text-anchor="start" x="32" y="-185.1" font-family="FreeSans" font-size="8.00" fill="#1c2021">name = &#39;Anders&#39;</text>
</g>
<!-- N0&#45;&gt;N2 -->
<g id="edge1" class="edge"><title>N0&#45;&gt;N2</title>
<path fill="none" stroke="#2e3436" stroke-width="2" d="M115.367,-252.61C105.144,-240.461 91.3905,-224.116 80.2749,-210.906"/>
<polygon fill="#2e3436" stroke="#2e3436" stroke-width="2" points="75.3754,-205.084 82.7867,-208.65 78.1725,-207.631 80.5869,-210.501 80.2043,-210.823 79.8217,-211.144 77.4073,-208.275 77.6219,-212.996 75.3754,-205.084 75.3754,-205.084"/>
<text text-anchor="middle" x="115.5" y="-227.1" font-family="FreeSans" font-size="8.00" fill="#2e3436">KNOWS</text>
</g>
<!-- N3 -->
<g id="node4" class="node"><title>N3</title>
<path fill="#ffffff" stroke="#2e3436" stroke-width="1.5" d="M116,-85C116,-85 174,-85 174,-85 180,-85 186,-91 186,-97 186,-97 186,-109 186,-109 186,-115 180,-121 174,-121 174,-121 116,-121 116,-121 110,-121 104,-115 104,-109 104,-109 104,-97 104,-97 104,-91 110,-85 116,-85"/>
<text text-anchor="start" x="112" y="-101.1" font-family="FreeSans" font-size="8.00" fill="#1c2021">name = &#39;Bossman&#39;</text>
</g>
<!-- N2&#45;&gt;N3 -->
<g id="edge2" class="edge"><title>N2&#45;&gt;N3</title>
<path fill="none" stroke="#2e3436" stroke-width="2" d="M75.6881,-168.931C83.5431,-160.059 93.5259,-149.182 103,-140 107.759,-135.388 113.003,-130.647 118.126,-126.182"/>
<polygon fill="#2e3436" stroke="#2e3436" stroke-width="2" points="124.048,-121.09 120.561,-128.539 121.53,-123.914 118.687,-126.359 118.361,-125.98 118.035,-125.601 120.878,-123.156 116.16,-123.421 124.048,-121.09 124.048,-121.09"/>
<text text-anchor="middle" x="118.5" y="-143.1" font-family="FreeSans" font-size="8.00" fill="#2e3436">KNOWS</text>
</g>
<!-- N4 -->
<g id="node5" class="node"><title>N4</title>
<path fill="#ffffff" stroke="#2e3436" stroke-width="1.5" d="M11.5,-85C11.5,-85 62.5,-85 62.5,-85 68.5,-85 74.5,-91 74.5,-97 74.5,-97 74.5,-109 74.5,-109 74.5,-115 68.5,-121 62.5,-121 62.5,-121 11.5,-121 11.5,-121 5.5,-121 -0.5,-115 -0.5,-109 -0.5,-109 -0.5,-97 -0.5,-97 -0.5,-91 5.5,-85 11.5,-85"/>
<text text-anchor="start" x="7.5" y="-101.1" font-family="FreeSans" font-size="8.00" fill="#1c2021">name = &#39;Ceasar&#39;</text>
</g>
<!-- N2&#45;&gt;N4 -->
<g id="edge3" class="edge"><title>N2&#45;&gt;N4</title>
<path fill="none" stroke="#4e9a06" stroke-width="2" d="M45.347,-168.916C41.1539,-163.296 37.1822,-156.749 35,-150 32.8788,-143.44 32.4139,-136.079 32.7301,-129.201"/>
<polygon fill="#4e9a06" stroke="#4e9a06" stroke-width="2" points="33.4076,-121.426 36.1187,-129.19 33.5801,-125.205 33.2545,-128.941 32.7564,-128.897 32.2583,-128.854 32.5839,-125.118 29.3942,-128.604 33.4076,-121.426 33.4076,-121.426"/>
<text text-anchor="middle" x="52" y="-143.1" font-family="FreeSans" font-size="8.00" fill="#4e9a06">BLOCKS</text>
</g>
<!-- N1 -->
<g id="node3" class="node"><title>N1</title>
<path fill="#ffffff" stroke="#2e3436" stroke-width="1.5" d="M76,-1C76,-1 116,-1 116,-1 122,-1 128,-7 128,-13 128,-13 128,-25 128,-25 128,-31 122,-37 116,-37 116,-37 76,-37 76,-37 70,-37 64,-31 64,-25 64,-25 64,-13 64,-13 64,-7 70,-1 76,-1"/>
<text text-anchor="start" x="72" y="-17.1" font-family="FreeSans" font-size="8.00" fill="#1c2021">name = &#39;Emil&#39;</text>
</g>
<!-- N3&#45;&gt;N0 -->
<g id="edge5" class="edge"><title>N3&#45;&gt;N0</title>
<path fill="none" stroke="#4e9a06" stroke-width="2" d="M144.653,-121.311C143.989,-146.289 142.117,-193.849 137,-234 136.532,-237.675 135.915,-241.539 135.241,-245.317"/>
<polygon fill="#4e9a06" stroke="#4e9a06" stroke-width="2" points="133.807,-252.861 131.892,-244.863 134.016,-249.084 134.716,-245.4 135.207,-245.493 135.698,-245.586 134.998,-249.27 138.523,-246.123 133.807,-252.861 133.807,-252.861"/>
<text text-anchor="middle" x="160" y="-185.1" font-family="FreeSans" font-size="8.00" fill="#4e9a06">BLOCKS</text>
</g>
<!-- N3&#45;&gt;N1 -->
<g id="edge4" class="edge"><title>N3&#45;&gt;N1</title>
<path fill="none" stroke="#2e3436" stroke-width="2" d="M134.608,-84.6099C127.479,-72.6798 117.933,-56.7039 110.116,-43.6234"/>
<polygon fill="#2e3436" stroke="#2e3436" stroke-width="2" points="106.209,-37.0838 112.953,-41.7907 108.561,-40.0464 110.485,-43.2655 110.056,-43.522 109.627,-43.7785 107.703,-40.5594 107.159,-45.2532 106.209,-37.0838 106.209,-37.0838"/>
<text text-anchor="middle" x="139.5" y="-59.1" font-family="FreeSans" font-size="8.00" fill="#2e3436">KNOWS</text>
</g>
<!-- N4&#45;&gt;N1 -->
<g id="edge6" class="edge"><title>N4&#45;&gt;N1</title>
<path fill="none" stroke="#2e3436" stroke-width="2" d="M49.5124,-84.6099C58.175,-72.5703 69.8023,-56.4104 79.2612,-43.2641"/>
<polygon fill="#2e3436" stroke="#2e3436" stroke-width="2" points="83.708,-37.0838 82.0672,-45.1429 81.9236,-40.4198 79.7335,-43.4638 79.3276,-43.1718 78.9217,-42.8798 81.1119,-39.8358 76.588,-41.2006 83.708,-37.0838 83.708,-37.0838"/>
<text text-anchor="middle" x="86.5" y="-59.1" font-family="FreeSans" font-size="8.00" fill="#2e3436">KNOWS</text>
</g>
</g>
</svg>
