<?xml version="1.0" encoding="UTF-8" standalone="no"?>
<!DOCTYPE svg PUBLIC "-//W3C//DTD SVG 1.1//EN"
 "http://www.w3.org/Graphics/SVG/1.1/DTD/svg11.dtd">
<!-- Generated by graphviz version 2.36.0 (20140111.2315)
 -->
<!-- Title: g Pages: 1 -->
<svg width="451pt" height="298pt"
 viewBox="0.00 0.00 451.00 298.00" xmlns="http://www.w3.org/2000/svg" xmlns:xlink="http://www.w3.org/1999/xlink">
<g id="graph0" class="graph" transform="scale(1 1) rotate(0) translate(4 294)">
<title>g</title>
<polygon fill="white" stroke="none" points="-4,4 -4,-294 447,-294 447,4 -4,4"/>
<!-- N0 -->
<g id="node1" class="node"><title>N0</title>
<path fill="#ffffff" stroke="#2e3436" stroke-width="1.5" d="M169.5,-253C169.5,-253 278.5,-253 278.5,-253 284.5,-253 290.5,-259 290.5,-265 290.5,-265 290.5,-277 290.5,-277 290.5,-283 284.5,-289 278.5,-289 278.5,-289 169.5,-289 169.5,-289 163.5,-289 157.5,-283 157.5,-277 157.5,-277 157.5,-265 157.5,-265 157.5,-259 163.5,-253 169.5,-253"/>
<text text-anchor="middle" x="224" y="-278.1" font-family="FreeSans" font-size="8.00" fill="#1c2021">TVShow</text>
<polyline fill="none" stroke="#2e3436" stroke-width="1.5" points="157.5,-271 290.5,-271 "/>
<text text-anchor="start" x="165.5" y="-260.1" font-family="FreeSans" font-size="8.00" fill="#1c2021">name = &#39;How I Met Your Mother&#39;</text>
</g>
<!-- N1 -->
<g id="node2" class="node"><title>N1</title>
<path fill="#ffffff" stroke="#2e3436" stroke-width="1.5" d="M180,-169C180,-169 268,-169 268,-169 274,-169 280,-175 280,-181 280,-181 280,-193 280,-193 280,-199 274,-205 268,-205 268,-205 180,-205 180,-205 174,-205 168,-199 168,-193 168,-193 168,-181 168,-181 168,-175 174,-169 180,-169"/>
<text text-anchor="middle" x="224" y="-194.1" font-family="FreeSans" font-size="8.00" fill="#1c2021">Season</text>
<polyline fill="none" stroke="#2e3436" stroke-width="1.5" points="168,-187 280,-187 "/>
<text text-anchor="start" x="176" y="-176.1" font-family="FreeSans" font-size="8.00" fill="#1c2021">name = &#39;HIMYM Season 1&#39;</text>
</g>
<!-- N0&#45;&gt;N1 -->
<g id="edge1" class="edge"><title>N0&#45;&gt;N1</title>
<path fill="none" stroke="#2e3436" stroke-width="2" d="M224,-252.61C224,-241.008 224,-225.58 224,-212.71"/>
<polygon fill="#2e3436" stroke="#2e3436" stroke-width="2" points="224,-205.084 227.375,-212.584 224.5,-208.834 224.5,-212.584 224,-212.584 223.5,-212.584 223.5,-208.834 220.625,-212.584 224,-205.084 224,-205.084"/>
<text text-anchor="middle" x="251.5" y="-227.1" font-family="FreeSans" font-size="8.00" fill="#2e3436">HAS_SEASON</text>
</g>
<!-- N2 -->
<g id="node3" class="node"><title>N2</title>
<path fill="#ffffff" stroke="#2e3436" stroke-width="1.5" d="M204,-85C204,-85 244,-85 244,-85 250,-85 256,-91 256,-97 256,-97 256,-109 256,-109 256,-115 250,-121 244,-121 244,-121 204,-121 204,-121 198,-121 192,-115 192,-109 192,-109 192,-97 192,-97 192,-91 198,-85 204,-85"/>
<text text-anchor="middle" x="224" y="-110.1" font-family="FreeSans" font-size="8.00" fill="#1c2021">Episode</text>
<polyline fill="none" stroke="#2e3436" stroke-width="1.5" points="192,-103 256,-103 "/>
<text text-anchor="start" x="200" y="-92.1" font-family="FreeSans" font-size="8.00" fill="#1c2021">name = &#39;Pilot&#39;</text>
</g>
<!-- N1&#45;&gt;N2 -->
<g id="edge2" class="edge"><title>N1&#45;&gt;N2</title>
<path fill="none" stroke="#4e9a06" stroke-width="2" d="M224,-168.61C224,-157.008 224,-141.58 224,-128.71"/>
<polygon fill="#4e9a06" stroke="#4e9a06" stroke-width="2" points="224,-121.084 227.375,-128.584 224.5,-124.834 224.5,-128.584 224,-128.584 223.5,-128.584 223.5,-124.834 220.625,-128.584 224,-121.084 224,-121.084"/>
<text text-anchor="middle" x="253" y="-143.1" font-family="FreeSans" font-size="8.00" fill="#4e9a06">HAS_EPISODE</text>
</g>
<!-- N3 -->
<g id="node4" class="node"><title>N3</title>
<path fill="#ffffff" stroke="#2e3436" stroke-width="1.5" d="M95.5,-1C95.5,-1 160.5,-1 160.5,-1 166.5,-1 172.5,-7 172.5,-13 172.5,-13 172.5,-25 172.5,-25 172.5,-31 166.5,-37 160.5,-37 160.5,-37 95.5,-37 95.5,-37 89.5,-37 83.5,-31 83.5,-25 83.5,-25 83.5,-13 83.5,-13 83.5,-7 89.5,-1 95.5,-1"/>
<text text-anchor="middle" x="128" y="-26.1" font-family="FreeSans" font-size="8.00" fill="#1c2021">Character</text>
<polyline fill="none" stroke="#2e3436" stroke-width="1.5" points="83.5,-19 172.5,-19 "/>
<text text-anchor="start" x="91.5" y="-8.1" font-family="FreeSans" font-size="8.00" fill="#1c2021">name = &#39;Ted Mosby&#39;</text>
</g>
<!-- N2&#45;&gt;N3 -->
<g id="edge3" class="edge"><title>N2&#45;&gt;N3</title>
<path fill="none" stroke="#a40000" stroke-width="2" d="M193.211,-84.9358C184.356,-79.4105 174.951,-72.9097 167,-66 159.344,-59.3468 151.898,-51.1417 145.598,-43.5121"/>
<polygon fill="#a40000" stroke="#a40000" stroke-width="2" points="140.598,-37.2853 147.925,-41.0195 143.336,-39.896 145.684,-42.8198 145.294,-43.1329 144.904,-43.446 142.556,-40.5222 142.663,-45.2462 140.598,-37.2853 140.598,-37.2853"/>
<text text-anchor="middle" x="217" y="-59.1" font-family="FreeSans" font-size="8.00" fill="#a40000">FEATURED_CHARACTER</text>
</g>
<!-- N5 -->
<g id="node5" class="node"><title>N5</title>
<path fill="#ffffff" stroke="#2e3436" stroke-width="1.5" d="M255,-1C255,-1 431,-1 431,-1 437,-1 443,-7 443,-13 443,-13 443,-25 443,-25 443,-31 437,-37 431,-37 431,-37 255,-37 255,-37 249,-37 243,-31 243,-25 243,-25 243,-13 243,-13 243,-7 249,-1 255,-1"/>
<text text-anchor="start" x="251" y="-21.6" font-family="FreeSans" font-size="8.00" fill="#1c2021">title = &#39;Meet Me At The Bar In 15 Minutes &amp; Suit Up&#39;</text>
<text text-anchor="start" x="251" y="-12.6" font-family="FreeSans" font-size="8.00" fill="#1c2021">content = &#39;It was awesome&#39;</text>
</g>
<!-- N2&#45;&gt;N5 -->
<g id="edge4" class="edge"><title>N2&#45;&gt;N5</title>
<path fill="none" stroke="#204a87" stroke-width="2" d="M248.946,-84.8101C267.193,-72.2365 292.075,-55.0909 311.664,-41.5931"/>
<polygon fill="#204a87" stroke="#204a87" stroke-width="2" points="318.087,-37.1673 313.826,-44.202 315.282,-39.7068 312.194,-41.8346 311.911,-41.4229 311.627,-41.0112 314.715,-38.8833 309.996,-38.6438 318.087,-37.1673 318.087,-37.1673"/>
<text text-anchor="middle" x="317.5" y="-59.1" font-family="FreeSans" font-size="8.00" fill="#204a87">HAS_REVIEW</text>
</g>
<!-- N4 -->
<g id="node6" class="node"><title>N4</title>
<path fill="#ffffff" stroke="#2e3436" stroke-width="1.5" d="M11.5,-85C11.5,-85 82.5,-85 82.5,-85 88.5,-85 94.5,-91 94.5,-97 94.5,-97 94.5,-109 94.5,-109 94.5,-115 88.5,-121 82.5,-121 82.5,-121 11.5,-121 11.5,-121 5.5,-121 -0.5,-115 -0.5,-109 -0.5,-109 -0.5,-97 -0.5,-97 -0.5,-91 5.5,-85 11.5,-85"/>
<text text-anchor="middle" x="47" y="-110.1" font-family="FreeSans" font-size="8.00" fill="#1c2021">Actor</text>
<polyline fill="none" stroke="#2e3436" stroke-width="1.5" points="-0.5,-103 94.5,-103 "/>
<text text-anchor="start" x="7.5" y="-92.1" font-family="FreeSans" font-size="8.00" fill="#1c2021">name = &#39;Josh Radnor&#39;</text>
</g>
<!-- N4&#45;&gt;N3 -->
<g id="edge5" class="edge"><title>N4&#45;&gt;N3</title>
<path fill="none" stroke="#8f5902" stroke-width="2" d="M41.7014,-84.9753C39.8719,-75.6956 39.4738,-64.4206 45,-56 52.276,-44.9132 63.7807,-37.2235 75.9333,-31.8962"/>
<polygon fill="#8f5902" stroke="#8f5902" stroke-width="2" points="83.1364,-29.0248 77.4194,-34.9372 79.8381,-30.8779 76.3547,-32.2666 76.1696,-31.8021 75.9844,-31.3377 79.4678,-29.949 74.9198,-28.667 83.1364,-29.0248 83.1364,-29.0248"/>
<text text-anchor="middle" x="89" y="-59.1" font-family="FreeSans" font-size="8.00" fill="#8f5902">PLAYED_CHARACTER</text>
</g>
<!-- N6 -->
<g id="node7" class="node"><title>N6</title>
<path fill="#ffffff" stroke="#2e3436" stroke-width="1.5" d="M353.5,-85C353.5,-85 426.5,-85 426.5,-85 432.5,-85 438.5,-91 438.5,-97 438.5,-97 438.5,-109 438.5,-109 438.5,-115 432.5,-121 426.5,-121 426.5,-121 353.5,-121 353.5,-121 347.5,-121 341.5,-115 341.5,-109 341.5,-109 341.5,-97 341.5,-97 341.5,-91 347.5,-85 353.5,-85"/>
<text text-anchor="middle" x="390" y="-110.1" font-family="FreeSans" font-size="8.00" fill="#1c2021">User</text>
<polyline fill="none" stroke="#2e3436" stroke-width="1.5" points="341.5,-103 438.5,-103 "/>
<text text-anchor="start" x="349.5" y="-92.1" font-family="FreeSans" font-size="8.00" fill="#1c2021">name = &#39;WakenPayne&#39;</text>
</g>
<!-- N6&#45;&gt;N5 -->
<g id="edge6" class="edge"><title>N6&#45;&gt;N5</title>
<path fill="none" stroke="#5c3566" stroke-width="2" d="M380.033,-84.6099C373.195,-72.6798 364.038,-56.7039 356.54,-43.6234"/>
<polygon fill="#5c3566" stroke="#5c3566" stroke-width="2" points="352.792,-37.0838 359.45,-41.9125 355.091,-40.0887 356.955,-43.3421 356.522,-43.5908 356.088,-43.8394 354.223,-40.586 353.593,-45.2691 352.792,-37.0838 352.792,-37.0838"/>
<text text-anchor="middle" x="403.5" y="-59.1" font-family="FreeSans" font-size="8.00" fill="#5c3566">WROTE_REVIEW</text>
</g>
</g>
</svg>
