<?xml version="1.0" encoding="UTF-8" standalone="no"?>
<!DOCTYPE svg PUBLIC "-//W3C//DTD SVG 1.1//EN"
 "http://www.w3.org/Graphics/SVG/1.1/DTD/svg11.dtd">
<!-- Generated by graphviz version 2.36.0 (20140111.2315)
 -->
<!-- Title: g Pages: 1 -->
<svg width="202pt" height="130pt"
 viewBox="0.00 0.00 202.00 130.00" xmlns="http://www.w3.org/2000/svg" xmlns:xlink="http://www.w3.org/1999/xlink">
<g id="graph0" class="graph" transform="scale(1 1) rotate(0) translate(4 126)">
<title>g</title>
<polygon fill="white" stroke="none" points="-4,4 -4,-126 198,-126 198,4 -4,4"/>
<!-- N0 -->
<g id="node1" class="node"><title>N0</title>
<path fill="#ffffff" stroke="#2e3436" stroke-width="1.5" d="M67.5,-85C67.5,-85 126.5,-85 126.5,-85 132.5,-85 138.5,-91 138.5,-97 138.5,-97 138.5,-109 138.5,-109 138.5,-115 132.5,-121 126.5,-121 126.5,-121 67.5,-121 67.5,-121 61.5,-121 55.5,-115 55.5,-109 55.5,-109 55.5,-97 55.5,-97 55.5,-91 61.5,-85 67.5,-85"/>
<text text-anchor="start" x="63.5" y="-101.1" font-family="FreeSans" font-size="8.00" fill="#1c2021">Node[0]name = &#39;A&#39;</text>
</g>
<!-- N2 -->
<g id="node2" class="node"><title>N2</title>
<path fill="#ffffff" stroke="#2e3436" stroke-width="1.5" d="M11.5,-1C11.5,-1 70.5,-1 70.5,-1 76.5,-1 82.5,-7 82.5,-13 82.5,-13 82.5,-25 82.5,-25 82.5,-31 76.5,-37 70.5,-37 70.5,-37 11.5,-37 11.5,-37 5.5,-37 -0.5,-31 -0.5,-25 -0.5,-25 -0.5,-13 -0.5,-13 -0.5,-7 5.5,-1 11.5,-1"/>
<text text-anchor="start" x="7.5" y="-17.1" font-family="FreeSans" font-size="8.00" fill="#1c2021">Node[2]name = &#39;C&#39;</text>
</g>
<!-- N0&#45;&gt;N2 -->
<g id="edge1" class="edge"><title>N0&#45;&gt;N2</title>
<path fill="none" stroke="#2e3436" stroke-width="2" d="M85.1238,-84.6099C76.9764,-72.6798 66.0661,-56.7039 57.1331,-43.6234"/>
<polygon fill="#2e3436" stroke="#2e3436" stroke-width="2" points="52.667,-37.0838 59.6839,-41.374 55.1948,-39.8986 57.3097,-42.9954 56.8968,-43.2774 56.4839,-43.5593 54.369,-40.4626 54.1097,-45.1808 52.667,-37.0838 52.667,-37.0838"/>
<text text-anchor="middle" x="88.5" y="-59.1" font-family="FreeSans" font-size="8.00" fill="#2e3436">KNOWS</text>
</g>
<!-- N1 -->
<g id="node3" class="node"><title>N1</title>
<path fill="#ffffff" stroke="#2e3436" stroke-width="1.5" d="M123.5,-1C123.5,-1 182.5,-1 182.5,-1 188.5,-1 194.5,-7 194.5,-13 194.5,-13 194.5,-25 194.5,-25 194.5,-31 188.5,-37 182.5,-37 182.5,-37 123.5,-37 123.5,-37 117.5,-37 111.5,-31 111.5,-25 111.5,-25 111.5,-13 111.5,-13 111.5,-7 117.5,-1 123.5,-1"/>
<text text-anchor="start" x="119.5" y="-17.1" font-family="FreeSans" font-size="8.00" fill="#1c2021">Node[1]name = &#39;B&#39;</text>
</g>
<!-- N0&#45;&gt;N1 -->
<g id="edge2" class="edge"><title>N0&#45;&gt;N1</title>
<path fill="none" stroke="#2e3436" stroke-width="2" d="M108.876,-84.6099C117.024,-72.6798 127.934,-56.7039 136.867,-43.6234"/>
<polygon fill="#2e3436" stroke="#2e3436" stroke-width="2" points="141.333,-37.0838 139.89,-45.1808 139.631,-40.4626 137.516,-43.5593 137.103,-43.2774 136.69,-42.9954 138.805,-39.8986 134.316,-41.374 141.333,-37.0838 141.333,-37.0838"/>
<text text-anchor="middle" x="143.5" y="-59.1" font-family="FreeSans" font-size="8.00" fill="#2e3436">KNOWS</text>
</g>
</g>
</svg>
