<?xml version="1.0" encoding="UTF-8" standalone="no"?>
<!DOCTYPE svg PUBLIC "-//W3C//DTD SVG 1.1//EN"
 "http://www.w3.org/Graphics/SVG/1.1/DTD/svg11.dtd">
<!-- Generated by graphviz version 2.36.0 (20140111.2315)
 -->
<!-- Title: g Pages: 1 -->
<svg width="82pt" height="130pt"
 viewBox="0.00 0.00 82.00 130.00" xmlns="http://www.w3.org/2000/svg" xmlns:xlink="http://www.w3.org/1999/xlink">
<g id="graph0" class="graph" transform="scale(1 1) rotate(0) translate(4 126)">
<title>g</title>
<polygon fill="white" stroke="none" points="-4,4 -4,-126 78,-126 78,4 -4,4"/>
<!-- N0 -->
<g id="node1" class="node"><title>N0</title>
<path fill="#ffffff" stroke="#2e3436" stroke-width="1.5" d="M12,-85C12,-85 62,-85 62,-85 68,-85 74,-91 74,-97 74,-97 74,-109 74,-109 74,-115 68,-121 62,-121 62,-121 12,-121 12,-121 6,-121 0,-115 0,-109 0,-109 0,-97 0,-97 0,-91 6,-85 12,-85"/>
<text text-anchor="start" x="8" y="-101.1" font-family="FreeSans" font-size="8.00" fill="#1c2021">name = &#39;ROOT&#39;</text>
</g>
<!-- N1 -->
<g id="node2" class="node"><title>N1</title>
<path fill="#ffffff" stroke="#2e3436" stroke-width="1.5" d="M22,-1C22,-1 52,-1 52,-1 58,-1 64,-7 64,-13 64,-13 64,-25 64,-25 64,-31 58,-37 52,-37 52,-37 22,-37 22,-37 16,-37 10,-31 10,-25 10,-25 10,-13 10,-13 10,-7 16,-1 22,-1"/>
<text text-anchor="start" x="18" y="-17.1" font-family="FreeSans" font-size="8.00" fill="#1c2021">value = 25</text>
</g>
<!-- N0&#45;&gt;N1 -->
<g id="edge1" class="edge"><title>N0&#45;&gt;N1</title>
<path fill="none" stroke="#2e3436" stroke-width="2" d="M19.866,-84.7223C15.4599,-79.1909 11.3127,-72.7404 9,-66 6.30528,-58.1461 8.85025,-50.2053 13.3237,-43.183"/>
<polygon fill="#2e3436" stroke="#2e3436" stroke-width="2" points="17.8791,-37.0211 16.1344,-45.0584 16.0519,-40.3338 13.8226,-43.3493 13.4205,-43.052 13.0185,-42.7548 15.2478,-39.7393 10.7066,-41.0456 17.8791,-37.0211 17.8791,-37.0211"/>
<text text-anchor="middle" x="18.5" y="-59.1" font-family="FreeSans" font-size="8.00" fill="#2e3436">LINK</text>
</g>
<!-- N1&#45;&gt;N0 -->
<g id="edge2" class="edge"><title>N1&#45;&gt;N0</title>
<path fill="none" stroke="#2e3436" stroke-width="2" d="M37,-37.0838C37,-48.6176 37,-64.0338 37,-76.9488"/>
<polygon fill="#2e3436" stroke="#2e3436" stroke-width="2" points="37,-84.6099 33.6251,-77.1099 36.5,-80.8599 36.5001,-77.1099 37.0001,-77.1099 37.5001,-77.1099 37.5,-80.8599 40.3751,-77.11 37,-84.6099 37,-84.6099"/>
<text text-anchor="middle" x="46.5" y="-59.1" font-family="FreeSans" font-size="8.00" fill="#2e3436">LINK</text>
</g>
</g>
</svg>
