<?xml version="1.0" encoding="UTF-8" standalone="no"?>
<!DOCTYPE svg PUBLIC "-//W3C//DTD SVG 1.1//EN"
 "http://www.w3.org/Graphics/SVG/1.1/DTD/svg11.dtd">
<!-- Generated by graphviz version 2.36.0 (20140111.2315)
 -->
<!-- Title: g Pages: 1 -->
<svg width="303pt" height="253pt"
 viewBox="0.00 0.00 302.64 253.40" xmlns="http://www.w3.org/2000/svg" xmlns:xlink="http://www.w3.org/1999/xlink">
<g id="graph0" class="graph" transform="scale(1 1) rotate(0) translate(4 249.402)">
<title>g</title>
<polygon fill="white" stroke="none" points="-4,4 -4,-249.402 298.642,-249.402 298.642,4 -4,4"/>
<!-- N0 -->
<g id="node1" class="node"><title>N0</title>
<path fill="#ffffff" stroke="#2e3436" stroke-width="1.5" d="M192.482,-0.5C192.482,-0.5 222.482,-0.5 222.482,-0.5 228.482,-0.5 234.482,-6.5 234.482,-12.5 234.482,-12.5 234.482,-24.5 234.482,-24.5 234.482,-30.5 228.482,-36.5 222.482,-36.5 222.482,-36.5 192.482,-36.5 192.482,-36.5 186.482,-36.5 180.482,-30.5 180.482,-24.5 180.482,-24.5 180.482,-12.5 180.482,-12.5 180.482,-6.5 186.482,-0.5 192.482,-0.5"/>
<text text-anchor="middle" x="207.482" y="-25.6" font-family="FreeSans" font-size="8.00" fill="#1c2021">Leaf</text>
<polyline fill="none" stroke="#2e3436" stroke-width="1.5" points="180.482,-18.5 234.482,-18.5 "/>
<text text-anchor="start" x="188.482" y="-7.6" font-family="FreeSans" font-size="8.00" fill="#1c2021">count = 1</text>
</g>
<!-- N5 -->
<g id="node2" class="node"><title>N5</title>
<path fill="#ffffff" stroke="#2e3436" stroke-width="1.5" d="M252.642,-104.701C252.642,-104.701 282.642,-104.701 282.642,-104.701 288.642,-104.701 294.642,-110.701 294.642,-116.701 294.642,-116.701 294.642,-128.701 294.642,-128.701 294.642,-134.701 288.642,-140.701 282.642,-140.701 282.642,-140.701 252.642,-140.701 252.642,-140.701 246.642,-140.701 240.642,-134.701 240.642,-128.701 240.642,-128.701 240.642,-116.701 240.642,-116.701 240.642,-110.701 246.642,-104.701 252.642,-104.701"/>
<text text-anchor="middle" x="267.642" y="-129.801" font-family="FreeSans" font-size="8.00" fill="#1c2021">Leaf</text>
<polyline fill="none" stroke="#2e3436" stroke-width="1.5" points="240.642,-122.701 294.642,-122.701 "/>
<text text-anchor="start" x="248.642" y="-111.801" font-family="FreeSans" font-size="8.00" fill="#1c2021">count = 6</text>
</g>
<!-- N0&#45;&gt;N5 -->
<g id="edge1" class="edge"><title>N0&#45;&gt;N5</title>
<path fill="none" stroke="#2e3436" stroke-width="2" d="M217.961,-36.6505C227.735,-53.5802 242.4,-78.9809 253.266,-97.801"/>
<polygon fill="#2e3436" stroke="#2e3436" stroke-width="2" points="257.081,-104.409 250.408,-99.6014 254.773,-101.411 252.898,-98.1639 253.331,-97.9139 253.764,-97.6639 255.639,-100.911 256.254,-96.2264 257.081,-104.409 257.081,-104.409"/>
<text text-anchor="middle" x="232.614" y="-69.8257" font-family="FreeSans" font-size="8.00" fill="#2e3436">X</text>
</g>
<!-- N4 -->
<g id="node3" class="node"><title>N4</title>
<path fill="#ffffff" stroke="#2e3436" stroke-width="1.5" d="M12,-104.701C12,-104.701 42,-104.701 42,-104.701 48,-104.701 54,-110.701 54,-116.701 54,-116.701 54,-128.701 54,-128.701 54,-134.701 48,-140.701 42,-140.701 42,-140.701 12,-140.701 12,-140.701 6,-140.701 0,-134.701 0,-128.701 0,-128.701 0,-116.701 0,-116.701 0,-110.701 6,-104.701 12,-104.701"/>
<text text-anchor="middle" x="27" y="-129.801" font-family="FreeSans" font-size="8.00" fill="#1c2021">Leaf</text>
<polyline fill="none" stroke="#2e3436" stroke-width="1.5" points="0,-122.701 54,-122.701 "/>
<text text-anchor="start" x="8" y="-111.801" font-family="FreeSans" font-size="8.00" fill="#1c2021">count = 5</text>
</g>
<!-- N0&#45;&gt;N4 -->
<g id="edge2" class="edge"><title>N0&#45;&gt;N4</title>
<path fill="none" stroke="#2e3436" stroke-width="2" d="M180.462,-34.1C148.564,-52.5163 95.4871,-83.1601 60.8702,-103.146"/>
<polygon fill="#2e3436" stroke="#2e3436" stroke-width="2" points="54.2046,-106.995 59.0123,-100.322 57.2022,-104.687 60.4498,-102.811 60.6999,-103.245 60.9499,-103.678 57.7023,-105.553 62.3874,-106.167 54.2046,-106.995 54.2046,-106.995"/>
<text text-anchor="middle" x="117.666" y="-71.2231" font-family="FreeSans" font-size="8.00" fill="#2e3436">X</text>
</g>
<!-- N3 -->
<g id="node4" class="node"><title>N3</title>
<path fill="#ffffff" stroke="#2e3436" stroke-width="1.5" d="M72.1606,-208.902C72.1606,-208.902 102.161,-208.902 102.161,-208.902 108.161,-208.902 114.161,-214.902 114.161,-220.902 114.161,-220.902 114.161,-232.902 114.161,-232.902 114.161,-238.902 108.161,-244.902 102.161,-244.902 102.161,-244.902 72.1606,-244.902 72.1606,-244.902 66.1606,-244.902 60.1606,-238.902 60.1606,-232.902 60.1606,-232.902 60.1606,-220.902 60.1606,-220.902 60.1606,-214.902 66.1606,-208.902 72.1606,-208.902"/>
<text text-anchor="middle" x="87.1606" y="-234.002" font-family="FreeSans" font-size="8.00" fill="#1c2021">Leaf</text>
<polyline fill="none" stroke="#2e3436" stroke-width="1.5" points="60.1606,-226.902 114.161,-226.902 "/>
<text text-anchor="start" x="68.1606" y="-216.002" font-family="FreeSans" font-size="8.00" fill="#1c2021">count = 4</text>
</g>
<!-- N0&#45;&gt;N3 -->
<g id="edge3" class="edge"><title>N0&#45;&gt;N3</title>
<path fill="none" stroke="#2e3436" stroke-width="2" d="M197.014,-36.6298C175.459,-73.965 126.084,-159.485 101.547,-201.984"/>
<polygon fill="#2e3436" stroke="#2e3436" stroke-width="2" points="97.6893,-208.666 98.5165,-200.483 99.1313,-205.168 101.006,-201.921 101.439,-202.171 101.872,-202.421 99.9973,-205.668 104.362,-203.858 97.6893,-208.666 97.6893,-208.666"/>
<text text-anchor="middle" x="146.281" y="-112.907" font-family="FreeSans" font-size="8.00" fill="#2e3436">X</text>
</g>
<!-- N2 -->
<g id="node5" class="node"><title>N2</title>
<path fill="#ffffff" stroke="#2e3436" stroke-width="1.5" d="M192.482,-208.902C192.482,-208.902 222.482,-208.902 222.482,-208.902 228.482,-208.902 234.482,-214.902 234.482,-220.902 234.482,-220.902 234.482,-232.902 234.482,-232.902 234.482,-238.902 228.482,-244.902 222.482,-244.902 222.482,-244.902 192.482,-244.902 192.482,-244.902 186.482,-244.902 180.482,-238.902 180.482,-232.902 180.482,-232.902 180.482,-220.902 180.482,-220.902 180.482,-214.902 186.482,-208.902 192.482,-208.902"/>
<text text-anchor="middle" x="207.482" y="-234.002" font-family="FreeSans" font-size="8.00" fill="#1c2021">Leaf</text>
<polyline fill="none" stroke="#2e3436" stroke-width="1.5" points="180.482,-226.902 234.482,-226.902 "/>
<text text-anchor="start" x="188.482" y="-216.002" font-family="FreeSans" font-size="8.00" fill="#1c2021">count = 3</text>
</g>
<!-- N0&#45;&gt;N2 -->
<g id="edge4" class="edge"><title>N0&#45;&gt;N2</title>
<path fill="none" stroke="#2e3436" stroke-width="2" d="M207.482,-36.6298C207.482,-73.6571 207.482,-158.077 207.482,-200.924"/>
<polygon fill="#2e3436" stroke="#2e3436" stroke-width="2" points="207.482,-208.666 204.107,-201.166 206.982,-204.916 206.982,-201.166 207.482,-201.166 207.982,-201.166 207.982,-204.916 210.857,-201.166 207.482,-208.666 207.482,-208.666"/>
<text text-anchor="middle" x="204.482" y="-121.377" font-family="FreeSans" font-size="8.00" fill="#2e3436">X</text>
</g>
<!-- N1 -->
<g id="node6" class="node"><title>N1</title>
<path fill="#ffffff" stroke="#2e3436" stroke-width="1.5" d="M72.1606,-0.5C72.1606,-0.5 102.161,-0.5 102.161,-0.5 108.161,-0.5 114.161,-6.5 114.161,-12.5 114.161,-12.5 114.161,-24.5 114.161,-24.5 114.161,-30.5 108.161,-36.5 102.161,-36.5 102.161,-36.5 72.1606,-36.5 72.1606,-36.5 66.1606,-36.5 60.1606,-30.5 60.1606,-24.5 60.1606,-24.5 60.1606,-12.5 60.1606,-12.5 60.1606,-6.5 66.1606,-0.5 72.1606,-0.5"/>
<text text-anchor="middle" x="87.1606" y="-25.6" font-family="FreeSans" font-size="8.00" fill="#1c2021">Leaf</text>
<polyline fill="none" stroke="#2e3436" stroke-width="1.5" points="60.1606,-18.5 114.161,-18.5 "/>
<text text-anchor="start" x="68.1606" y="-7.6" font-family="FreeSans" font-size="8.00" fill="#1c2021">count = 2</text>
</g>
<!-- N0&#45;&gt;N1 -->
<g id="edge5" class="edge"><title>N0&#45;&gt;N1</title>
<path fill="none" stroke="#2e3436" stroke-width="2" d="M180.479,-18.5C163.262,-18.5 140.774,-18.5 122.189,-18.5"/>
<polygon fill="#2e3436" stroke="#2e3436" stroke-width="2" points="114.489,-18.5 121.989,-15.1249 118.239,-18 121.989,-17.9999 121.989,-18.4999 121.989,-18.9999 118.239,-19 121.989,-21.8749 114.489,-18.5 114.489,-18.5"/>
<text text-anchor="middle" x="148.334" y="-21.1" font-family="FreeSans" font-size="8.00" fill="#2e3436">X</text>
</g>
<!-- N4&#45;&gt;N5 -->
<g id="edge15" class="edge"><title>N4&#45;&gt;N5</title>
<path fill="none" stroke="#2e3436" stroke-width="2" d="M54.137,-122.701C98.0334,-122.701 184.566,-122.701 232.901,-122.701"/>
<polygon fill="#2e3436" stroke="#2e3436" stroke-width="2" points="240.604,-122.701 233.105,-126.076 236.855,-123.201 233.105,-123.201 233.104,-122.701 233.104,-122.201 236.854,-122.201 233.104,-119.326 240.604,-122.701 240.604,-122.701"/>
<text text-anchor="middle" x="140.519" y="-125.301" font-family="FreeSans" font-size="8.00" fill="#2e3436">X</text>
</g>
<!-- N3&#45;&gt;N5 -->
<g id="edge13" class="edge"><title>N3&#45;&gt;N5</title>
<path fill="none" stroke="#2e3436" stroke-width="2" d="M114.181,-211.302C146.078,-192.886 199.155,-162.242 233.772,-142.256"/>
<polygon fill="#2e3436" stroke="#2e3436" stroke-width="2" points="240.438,-138.408 235.63,-145.081 237.44,-140.716 234.192,-142.591 233.942,-142.158 233.692,-141.725 236.94,-139.85 232.255,-139.235 240.438,-138.408 240.438,-138.408"/>
<text text-anchor="middle" x="170.976" y="-179.379" font-family="FreeSans" font-size="8.00" fill="#2e3436">X</text>
</g>
<!-- N3&#45;&gt;N4 -->
<g id="edge14" class="edge"><title>N3&#45;&gt;N4</title>
<path fill="none" stroke="#2e3436" stroke-width="2" d="M76.6814,-208.752C66.907,-191.822 52.2419,-166.421 41.3761,-147.601"/>
<polygon fill="#2e3436" stroke="#2e3436" stroke-width="2" points="37.5609,-140.993 44.2338,-145.801 39.869,-143.991 41.744,-147.238 41.311,-147.488 40.878,-147.738 39.003,-144.491 38.3881,-149.176 37.5609,-140.993 37.5609,-140.993"/>
<text text-anchor="middle" x="56.0288" y="-180.777" font-family="FreeSans" font-size="8.00" fill="#2e3436">X</text>
</g>
<!-- N2&#45;&gt;N5 -->
<g id="edge10" class="edge"><title>N2&#45;&gt;N5</title>
<path fill="none" stroke="#2e3436" stroke-width="2" d="M217.961,-208.752C227.735,-191.822 242.4,-166.421 253.266,-147.601"/>
<polygon fill="#2e3436" stroke="#2e3436" stroke-width="2" points="257.081,-140.993 256.254,-149.176 255.639,-144.491 253.764,-147.738 253.331,-147.488 252.898,-147.238 254.773,-143.991 250.408,-145.801 257.081,-140.993 257.081,-140.993"/>
<text text-anchor="middle" x="232.614" y="-180.777" font-family="FreeSans" font-size="8.00" fill="#2e3436">X</text>
</g>
<!-- N2&#45;&gt;N4 -->
<g id="edge11" class="edge"><title>N2&#45;&gt;N4</title>
<path fill="none" stroke="#2e3436" stroke-width="2" d="M180.462,-211.302C148.564,-192.886 95.4871,-162.242 60.8702,-142.256"/>
<polygon fill="#2e3436" stroke="#2e3436" stroke-width="2" points="54.2046,-138.408 62.3874,-139.235 57.7023,-139.85 60.9499,-141.725 60.6999,-142.158 60.4498,-142.591 57.2022,-140.716 59.0123,-145.081 54.2046,-138.408 54.2046,-138.408"/>
<text text-anchor="middle" x="117.666" y="-179.379" font-family="FreeSans" font-size="8.00" fill="#2e3436">X</text>
</g>
<!-- N2&#45;&gt;N3 -->
<g id="edge12" class="edge"><title>N2&#45;&gt;N3</title>
<path fill="none" stroke="#2e3436" stroke-width="2" d="M180.479,-226.902C163.262,-226.902 140.774,-226.902 122.189,-226.902"/>
<polygon fill="#2e3436" stroke="#2e3436" stroke-width="2" points="114.489,-226.902 121.989,-223.527 118.239,-226.402 121.989,-226.402 121.989,-226.902 121.989,-227.402 118.239,-227.402 121.989,-230.277 114.489,-226.902 114.489,-226.902"/>
<text text-anchor="middle" x="148.334" y="-229.502" font-family="FreeSans" font-size="8.00" fill="#2e3436">X</text>
</g>
<!-- N1&#45;&gt;N5 -->
<g id="edge6" class="edge"><title>N1&#45;&gt;N5</title>
<path fill="none" stroke="#2e3436" stroke-width="2" d="M114.181,-34.1C146.078,-52.5163 199.155,-83.1601 233.772,-103.146"/>
<polygon fill="#2e3436" stroke="#2e3436" stroke-width="2" points="240.438,-106.995 232.255,-106.167 236.94,-105.553 233.692,-103.678 233.942,-103.245 234.192,-102.811 237.44,-104.687 235.63,-100.322 240.438,-106.995 240.438,-106.995"/>
<text text-anchor="middle" x="170.976" y="-71.2231" font-family="FreeSans" font-size="8.00" fill="#2e3436">X</text>
</g>
<!-- N1&#45;&gt;N4 -->
<g id="edge7" class="edge"><title>N1&#45;&gt;N4</title>
<path fill="none" stroke="#2e3436" stroke-width="2" d="M76.6814,-36.6505C66.907,-53.5802 52.2419,-78.9809 41.3761,-97.801"/>
<polygon fill="#2e3436" stroke="#2e3436" stroke-width="2" points="37.5609,-104.409 38.3881,-96.2264 39.003,-100.911 40.878,-97.6639 41.311,-97.9139 41.744,-98.1639 39.869,-101.411 44.2338,-99.6014 37.5609,-104.409 37.5609,-104.409"/>
<text text-anchor="middle" x="56.0288" y="-69.8257" font-family="FreeSans" font-size="8.00" fill="#2e3436">X</text>
</g>
<!-- N1&#45;&gt;N3 -->
<g id="edge8" class="edge"><title>N1&#45;&gt;N3</title>
<path fill="none" stroke="#2e3436" stroke-width="2" d="M87.1606,-36.6298C87.1606,-73.6571 87.1606,-158.077 87.1606,-200.924"/>
<polygon fill="#2e3436" stroke="#2e3436" stroke-width="2" points="87.1606,-208.666 83.7857,-201.166 86.6606,-204.916 86.6607,-201.166 87.1607,-201.166 87.6607,-201.166 87.6606,-204.916 90.5357,-201.166 87.1606,-208.666 87.1606,-208.666"/>
<text text-anchor="middle" x="84.1606" y="-121.377" font-family="FreeSans" font-size="8.00" fill="#2e3436">X</text>
</g>
<!-- N1&#45;&gt;N2 -->
<g id="edge9" class="edge"><title>N1&#45;&gt;N2</title>
<path fill="none" stroke="#2e3436" stroke-width="2" d="M97.6278,-36.6298C119.183,-73.965 168.558,-159.485 193.095,-201.984"/>
<polygon fill="#2e3436" stroke="#2e3436" stroke-width="2" points="196.953,-208.666 190.28,-203.858 194.645,-205.668 192.77,-202.421 193.203,-202.171 193.636,-201.921 195.511,-205.168 196.126,-200.483 196.953,-208.666 196.953,-208.666"/>
<text text-anchor="middle" x="148.361" y="-121.907" font-family="FreeSans" font-size="8.00" fill="#2e3436">X</text>
</g>
</g>
</svg>
