<?xml version="1.0" encoding="UTF-8" standalone="no"?>
<!DOCTYPE svg PUBLIC "-//W3C//DTD SVG 1.1//EN"
 "http://www.w3.org/Graphics/SVG/1.1/DTD/svg11.dtd">
<!-- Generated by graphviz version 2.36.0 (20140111.2315)
 -->
<!-- Title: g Pages: 1 -->
<svg width="159pt" height="138pt"
 viewBox="0.00 0.00 159.00 138.00" xmlns="http://www.w3.org/2000/svg" xmlns:xlink="http://www.w3.org/1999/xlink">
<g id="graph0" class="graph" transform="scale(1 1) rotate(0) translate(4 134)">
<title>g</title>
<polygon fill="white" stroke="none" points="-4,4 -4,-134 155,-134 155,4 -4,4"/>
<!-- N0 -->
<g id="node1" class="node"><title>N0</title>
<path fill="#ffffff" stroke="#2e3436" stroke-width="1.5" d="M12,-93C12,-93 48,-93 48,-93 54,-93 60,-99 60,-105 60,-105 60,-117 60,-117 60,-123 54,-129 48,-129 48,-129 12,-129 12,-129 6,-129 0,-123 0,-117 0,-117 0,-105 0,-105 0,-99 6,-93 12,-93"/>
<text text-anchor="start" x="8" y="-109.1" font-family="FreeSans" font-size="8.00" fill="#1c2021">name = &#39;me&#39;</text>
</g>
<!-- N1 -->
<g id="node2" class="node"><title>N1</title>
<path fill="#ffffff" stroke="#2e3436" stroke-width="1.5" d="M53.5,-1C53.5,-1 96.5,-1 96.5,-1 102.5,-1 108.5,-7 108.5,-13 108.5,-13 108.5,-25 108.5,-25 108.5,-31 102.5,-37 96.5,-37 96.5,-37 53.5,-37 53.5,-37 47.5,-37 41.5,-31 41.5,-25 41.5,-25 41.5,-13 41.5,-13 41.5,-7 47.5,-1 53.5,-1"/>
<text text-anchor="start" x="49.5" y="-17.1" font-family="FreeSans" font-size="8.00" fill="#1c2021">name = &#39;meat&#39;</text>
</g>
<!-- N0&#45;&gt;N1 -->
<g id="edge1" class="edge"><title>N0&#45;&gt;N1</title>
<path fill="none" stroke="#2e3436" stroke-width="2" d="M33.735,-92.8439C36.512,-81.9122 40.883,-67.6636 47,-56 49.2686,-51.6744 52.0696,-47.3432 55.0149,-43.2601"/>
<polygon fill="#2e3436" stroke="#2e3436" stroke-width="2" points="59.706,-37.0847 57.8567,-45.0985 57.8357,-40.3733 55.5673,-43.3594 55.1692,-43.057 54.771,-42.7545 57.0394,-39.7684 52.4816,-41.0154 59.706,-37.0847 59.706,-37.0847"/>
<text text-anchor="middle" x="65.5" y="-67.6" font-family="FreeSans" font-size="8.00" fill="#2e3436">ATE</text>
<text text-anchor="start" x="47" y="-58.6" font-family="FreeSans" font-size="8.00" fill="#2e3436">times = 10</text>
</g>
<!-- N2 -->
<g id="node3" class="node"><title>N2</title>
<path fill="#ffffff" stroke="#2e3436" stroke-width="1.5" d="M101,-93C101,-93 139,-93 139,-93 145,-93 151,-99 151,-105 151,-105 151,-117 151,-117 151,-123 145,-129 139,-129 139,-129 101,-129 101,-129 95,-129 89,-123 89,-117 89,-117 89,-105 89,-105 89,-99 95,-93 101,-93"/>
<text text-anchor="start" x="97" y="-109.1" font-family="FreeSans" font-size="8.00" fill="#1c2021">name = &#39;you&#39;</text>
</g>
<!-- N2&#45;&gt;N1 -->
<g id="edge2" class="edge"><title>N2&#45;&gt;N1</title>
<path fill="none" stroke="#2e3436" stroke-width="2" d="M111.324,-92.6471C104.413,-78.8268 94.6631,-59.3261 87.004,-44.008"/>
<polygon fill="#2e3436" stroke="#2e3436" stroke-width="2" points="83.6498,-37.2996 90.0227,-42.4985 85.7741,-40.4301 87.4512,-43.7842 87.004,-44.0078 86.5568,-44.2315 84.8797,-40.8774 83.9853,-45.5172 83.6498,-37.2996 83.6498,-37.2996"/>
<text text-anchor="middle" x="117.5" y="-67.6" font-family="FreeSans" font-size="8.00" fill="#2e3436">ATE</text>
<text text-anchor="start" x="101" y="-58.6" font-family="FreeSans" font-size="8.00" fill="#2e3436">times = 5</text>
</g>
</g>
</svg>
