<?xml version="1.0" encoding="UTF-8" standalone="no"?>
<!DOCTYPE svg PUBLIC "-//W3C//DTD SVG 1.1//EN"
 "http://www.w3.org/Graphics/SVG/1.1/DTD/svg11.dtd">
<!-- Generated by graphviz version 2.36.0 (20140111.2315)
 -->
<!-- Title: g Pages: 1 -->
<svg width="69pt" height="214pt"
 viewBox="0.00 0.00 69.00 214.00" xmlns="http://www.w3.org/2000/svg" xmlns:xlink="http://www.w3.org/1999/xlink">
<g id="graph0" class="graph" transform="scale(1 1) rotate(0) translate(4 210)">
<title>g</title>
<polygon fill="white" stroke="none" points="-4,4 -4,-210 65,-210 65,4 -4,4"/>
<!-- N0 -->
<g id="node1" class="node"><title>N0</title>
<path fill="#ffffff" stroke="#2e3436" stroke-width="1.5" d="M11.5,-169C11.5,-169 48.5,-169 48.5,-169 54.5,-169 60.5,-175 60.5,-181 60.5,-181 60.5,-193 60.5,-193 60.5,-199 54.5,-205 48.5,-205 48.5,-205 11.5,-205 11.5,-205 5.5,-205 -0.5,-199 -0.5,-193 -0.5,-193 -0.5,-181 -0.5,-181 -0.5,-175 5.5,-169 11.5,-169"/>
<text text-anchor="start" x="7.5" y="-194.1" font-family="FreeSans" font-size="8.00" fill="#1c2021">name = &#39;A&#39;</text>
<text text-anchor="start" x="7.5" y="-185.1" font-family="FreeSans" font-size="8.00" fill="#1c2021">age = 34</text>
<text text-anchor="start" x="7.5" y="-176.1" font-family="FreeSans" font-size="8.00" fill="#1c2021">length = 170</text>
</g>
<!-- N1 -->
<g id="node2" class="node"><title>N1</title>
<path fill="#ffffff" stroke="#2e3436" stroke-width="1.5" d="M15,-85C15,-85 45,-85 45,-85 51,-85 57,-91 57,-97 57,-97 57,-109 57,-109 57,-115 51,-121 45,-121 45,-121 15,-121 15,-121 9,-121 3,-115 3,-109 3,-109 3,-97 3,-97 3,-91 9,-85 15,-85"/>
<text text-anchor="start" x="11" y="-105.6" font-family="FreeSans" font-size="8.00" fill="#1c2021">name = &#39;B&#39;</text>
<text text-anchor="start" x="11" y="-96.6" font-family="FreeSans" font-size="8.00" fill="#1c2021">age = 34</text>
</g>
<!-- N0&#45;&gt;N1 -->
<g id="edge1" class="edge"><title>N0&#45;&gt;N1</title>
<path fill="none" stroke="#2e3436" stroke-width="2" d="M30,-168.61C30,-157.008 30,-141.58 30,-128.71"/>
<polygon fill="#2e3436" stroke="#2e3436" stroke-width="2" points="30,-121.084 33.3751,-128.584 30.5,-124.834 30.5001,-128.584 30.0001,-128.584 29.5001,-128.584 29.5,-124.834 26.6251,-128.584 30,-121.084 30,-121.084"/>
<text text-anchor="middle" x="45.5" y="-143.1" font-family="FreeSans" font-size="8.00" fill="#2e3436">KNOWS</text>
</g>
<!-- N2 -->
<g id="node3" class="node"><title>N2</title>
<path fill="#ffffff" stroke="#2e3436" stroke-width="1.5" d="M11.5,-1C11.5,-1 48.5,-1 48.5,-1 54.5,-1 60.5,-7 60.5,-13 60.5,-13 60.5,-25 60.5,-25 60.5,-31 54.5,-37 48.5,-37 48.5,-37 11.5,-37 11.5,-37 5.5,-37 -0.5,-31 -0.5,-25 -0.5,-25 -0.5,-13 -0.5,-13 -0.5,-7 5.5,-1 11.5,-1"/>
<text text-anchor="start" x="7.5" y="-26.1" font-family="FreeSans" font-size="8.00" fill="#1c2021">name = &#39;C&#39;</text>
<text text-anchor="start" x="7.5" y="-17.1" font-family="FreeSans" font-size="8.00" fill="#1c2021">age = 32</text>
<text text-anchor="start" x="7.5" y="-8.1" font-family="FreeSans" font-size="8.00" fill="#1c2021">length = 185</text>
</g>
<!-- N1&#45;&gt;N2 -->
<g id="edge2" class="edge"><title>N1&#45;&gt;N2</title>
<path fill="none" stroke="#2e3436" stroke-width="2" d="M30,-84.6099C30,-73.0081 30,-57.5802 30,-44.7099"/>
<polygon fill="#2e3436" stroke="#2e3436" stroke-width="2" points="30,-37.0838 33.3751,-44.5838 30.5,-40.8338 30.5001,-44.5838 30.0001,-44.5838 29.5001,-44.5838 29.5,-40.8338 26.6251,-44.5839 30,-37.0838 30,-37.0838"/>
<text text-anchor="middle" x="45.5" y="-59.1" font-family="FreeSans" font-size="8.00" fill="#2e3436">KNOWS</text>
</g>
</g>
</svg>
