<?xml version="1.0" encoding="UTF-8" standalone="no"?>
<!DOCTYPE svg PUBLIC "-//W3C//DTD SVG 1.1//EN"
 "http://www.w3.org/Graphics/SVG/1.1/DTD/svg11.dtd">
<!-- Generated by graphviz version 2.36.0 (20140111.2315)
 -->
<!-- Title: g Pages: 1 -->
<svg width="209pt" height="214pt"
 viewBox="0.00 0.00 209.00 214.00" xmlns="http://www.w3.org/2000/svg" xmlns:xlink="http://www.w3.org/1999/xlink">
<g id="graph0" class="graph" transform="scale(1 1) rotate(0) translate(4 210)">
<title>g</title>
<polygon fill="white" stroke="none" points="-4,4 -4,-210 205,-210 205,4 -4,4"/>
<!-- N0 -->
<g id="node1" class="node"><title>N0</title>
<path fill="#ffffff" stroke="#2e3436" stroke-width="1.5" d="M12,-85C12,-85 42,-85 42,-85 48,-85 54,-91 54,-97 54,-97 54,-109 54,-109 54,-115 48,-121 42,-121 42,-121 12,-121 12,-121 6,-121 0,-115 0,-109 0,-109 0,-97 0,-97 0,-91 6,-85 12,-85"/>
<text text-anchor="start" x="8" y="-101.1" font-family="FreeSans" font-size="8.00" fill="#1c2021">name = &#39;A&#39;</text>
</g>
<!-- N3 -->
<g id="node2" class="node"><title>N3</title>
<path fill="#ffffff" stroke="#2e3436" stroke-width="1.5" d="M62.5,-1C62.5,-1 93.5,-1 93.5,-1 99.5,-1 105.5,-7 105.5,-13 105.5,-13 105.5,-25 105.5,-25 105.5,-31 99.5,-37 93.5,-37 93.5,-37 62.5,-37 62.5,-37 56.5,-37 50.5,-31 50.5,-25 50.5,-25 50.5,-13 50.5,-13 50.5,-7 56.5,-1 62.5,-1"/>
<text text-anchor="start" x="58.5" y="-17.1" font-family="FreeSans" font-size="8.00" fill="#1c2021">name = &#39;C&#39;</text>
</g>
<!-- N0&#45;&gt;N3 -->
<g id="edge1" class="edge"><title>N0&#45;&gt;N3</title>
<path fill="none" stroke="#2e3436" stroke-width="2" d="M37.8158,-84.6099C45.2358,-72.6798 55.172,-56.7039 63.3074,-43.6234"/>
<polygon fill="#2e3436" stroke="#2e3436" stroke-width="2" points="67.3747,-37.0838 66.2795,-45.235 65.8187,-40.5323 63.8382,-43.7166 63.4136,-43.4526 62.989,-43.1885 64.9696,-40.0041 60.5477,-41.6701 67.3747,-37.0838 67.3747,-37.0838"/>
<text text-anchor="middle" x="71.5" y="-59.1" font-family="FreeSans" font-size="8.00" fill="#2e3436">KNOWS</text>
</g>
<!-- N1 -->
<g id="node3" class="node"><title>N1</title>
<path fill="#ffffff" stroke="#2e3436" stroke-width="1.5" d="M92.5,-169C92.5,-169 131.5,-169 131.5,-169 137.5,-169 143.5,-175 143.5,-181 143.5,-181 143.5,-193 143.5,-193 143.5,-199 137.5,-205 131.5,-205 131.5,-205 92.5,-205 92.5,-205 86.5,-205 80.5,-199 80.5,-193 80.5,-193 80.5,-181 80.5,-181 80.5,-175 86.5,-169 92.5,-169"/>
<text text-anchor="start" x="88.5" y="-185.1" font-family="FreeSans" font-size="8.00" fill="#1c2021">name = &#39;root&#39;</text>
</g>
<!-- N1&#45;&gt;N0 -->
<g id="edge4" class="edge"><title>N1&#45;&gt;N0</title>
<path fill="none" stroke="#4e9a06" stroke-width="2" d="M93.9737,-168.61C81.2667,-156.351 64.132,-139.821 50.3751,-126.55"/>
<polygon fill="#4e9a06" stroke="#4e9a06" stroke-width="2" points="44.7089,-121.084 52.4498,-123.862 47.7549,-123.328 50.4537,-125.931 50.1066,-126.291 49.7594,-126.651 47.0606,-124.047 47.7633,-128.72 44.7089,-121.084 44.7089,-121.084"/>
<text text-anchor="middle" x="78" y="-143.1" font-family="FreeSans" font-size="8.00" fill="#4e9a06">X</text>
</g>
<!-- N1&#45;&gt;N3 -->
<g id="edge2" class="edge"><title>N1&#45;&gt;N3</title>
<path fill="none" stroke="#4e9a06" stroke-width="2" d="M110.866,-168.893C108.895,-143.764 103.949,-95.5696 93,-56 91.9437,-52.1825 90.5868,-48.2298 89.1219,-44.4031"/>
<polygon fill="#4e9a06" stroke="#4e9a06" stroke-width="2" points="86.2225,-37.2681 92.1728,-42.9457 88.0975,-40.5539 89.5093,-44.028 89.0461,-44.2163 88.5829,-44.4045 87.1711,-40.9304 85.9194,-45.4869 86.2225,-37.2681 86.2225,-37.2681"/>
<text text-anchor="middle" x="108" y="-101.1" font-family="FreeSans" font-size="8.00" fill="#4e9a06">X</text>
</g>
<!-- N2 -->
<g id="node4" class="node"><title>N2</title>
<path fill="#ffffff" stroke="#2e3436" stroke-width="1.5" d="M159,-85C159,-85 189,-85 189,-85 195,-85 201,-91 201,-97 201,-97 201,-109 201,-109 201,-115 195,-121 189,-121 189,-121 159,-121 159,-121 153,-121 147,-115 147,-109 147,-109 147,-97 147,-97 147,-91 153,-85 159,-85"/>
<text text-anchor="start" x="155" y="-101.1" font-family="FreeSans" font-size="8.00" fill="#1c2021">name = &#39;B&#39;</text>
</g>
<!-- N1&#45;&gt;N2 -->
<g id="edge3" class="edge"><title>N1&#45;&gt;N2</title>
<path fill="none" stroke="#4e9a06" stroke-width="2" d="M125.149,-168.61C134.252,-156.57 146.47,-140.41 156.41,-127.264"/>
<polygon fill="#4e9a06" stroke="#4e9a06" stroke-width="2" points="161.083,-121.084 159.252,-129.102 159.22,-124.377 156.958,-127.368 156.56,-127.066 156.161,-126.765 158.422,-123.774 153.867,-125.031 161.083,-121.084 161.083,-121.084"/>
<text text-anchor="middle" x="149" y="-143.1" font-family="FreeSans" font-size="8.00" fill="#4e9a06">X</text>
</g>
</g>
</svg>
