<?xml version="1.0" encoding="UTF-8" standalone="no"?>
<!DOCTYPE svg PUBLIC "-//W3C//DTD SVG 1.1//EN"
 "http://www.w3.org/Graphics/SVG/1.1/DTD/svg11.dtd">
<!-- Generated by graphviz version 2.36.0 (20140111.2315)
 -->
<!-- Title: g Pages: 1 -->
<svg width="135pt" height="214pt"
 viewBox="0.00 0.00 135.00 214.00" xmlns="http://www.w3.org/2000/svg" xmlns:xlink="http://www.w3.org/1999/xlink">
<g id="graph0" class="graph" transform="scale(1 1) rotate(0) translate(4 210)">
<title>g</title>
<polygon fill="white" stroke="none" points="-4,4 -4,-210 131,-210 131,4 -4,4"/>
<!-- N0 -->
<g id="node1" class="node"><title>N0</title>
<path fill="#ffffff" stroke="#2e3436" stroke-width="1.5" d="M65,-169C65,-169 115,-169 115,-169 121,-169 127,-175 127,-181 127,-181 127,-193 127,-193 127,-199 121,-205 115,-205 115,-205 65,-205 65,-205 59,-205 53,-199 53,-193 53,-193 53,-181 53,-181 53,-175 59,-169 65,-169"/>
<text text-anchor="start" x="61" y="-185.1" font-family="FreeSans" font-size="8.00" fill="#1c2021">name = &#39;ROOT&#39;</text>
</g>
<!-- N2 -->
<g id="node2" class="node"><title>N2</title>
<path fill="#ffffff" stroke="#2e3436" stroke-width="1.5" d="M12,-85C12,-85 42,-85 42,-85 48,-85 54,-91 54,-97 54,-97 54,-109 54,-109 54,-115 48,-121 42,-121 42,-121 12,-121 12,-121 6,-121 0,-115 0,-109 0,-109 0,-97 0,-97 0,-91 6,-85 12,-85"/>
<text text-anchor="start" x="8" y="-101.1" font-family="FreeSans" font-size="8.00" fill="#1c2021">value = 10</text>
</g>
<!-- N0&#45;&gt;N2 -->
<g id="edge1" class="edge"><title>N0&#45;&gt;N2</title>
<path fill="none" stroke="#2e3436" stroke-width="2" d="M76.6393,-168.61C67.3894,-156.57 54.9739,-140.41 44.8737,-127.264"/>
<polygon fill="#2e3436" stroke="#2e3436" stroke-width="2" points="40.1254,-121.084 47.3711,-124.975 42.8066,-123.753 45.0912,-126.727 44.6948,-127.031 44.2983,-127.336 42.0136,-124.362 42.0184,-129.087 40.1254,-121.084 40.1254,-121.084"/>
<text text-anchor="middle" x="72.5" y="-143.1" font-family="FreeSans" font-size="8.00" fill="#2e3436">LINK</text>
</g>
<!-- N1 -->
<g id="node3" class="node"><title>N1</title>
<path fill="#ffffff" stroke="#2e3436" stroke-width="1.5" d="M66,-1C66,-1 96,-1 96,-1 102,-1 108,-7 108,-13 108,-13 108,-25 108,-25 108,-31 102,-37 96,-37 96,-37 66,-37 66,-37 60,-37 54,-31 54,-25 54,-25 54,-13 54,-13 54,-7 60,-1 66,-1"/>
<text text-anchor="start" x="62" y="-17.1" font-family="FreeSans" font-size="8.00" fill="#1c2021">value = 25</text>
</g>
<!-- N2&#45;&gt;N1 -->
<g id="edge3" class="edge"><title>N2&#45;&gt;N1</title>
<path fill="none" stroke="#2e3436" stroke-width="2" d="M38.452,-84.6099C46.3084,-72.6798 56.8291,-56.7039 65.4431,-43.6234"/>
<polygon fill="#2e3436" stroke="#2e3436" stroke-width="2" points="69.7497,-37.0838 68.4434,-45.2039 68.1048,-40.4907 66.0423,-43.6226 65.6247,-43.3476 65.2071,-43.0726 67.2696,-39.9407 62.806,-41.4914 69.7497,-37.0838 69.7497,-37.0838"/>
<text text-anchor="middle" x="67.5" y="-59.1" font-family="FreeSans" font-size="8.00" fill="#2e3436">LINK</text>
</g>
<!-- N1&#45;&gt;N0 -->
<g id="edge2" class="edge"><title>N1&#45;&gt;N0</title>
<path fill="none" stroke="#2e3436" stroke-width="2" d="M82.5173,-37.2064C83.0199,-43.1569 83.5622,-49.8694 84,-56 86.6642,-93.3044 87.4822,-102.631 89,-140 89.2796,-146.884 89.4843,-154.351 89.6329,-161.226"/>
<polygon fill="#2e3436" stroke="#2e3436" stroke-width="2" points="89.7826,-168.956 86.2629,-161.523 89.21,-165.216 89.1373,-161.467 89.6372,-161.457 90.1371,-161.448 90.2098,-165.197 93.0116,-161.392 89.7826,-168.956 89.7826,-168.956"/>
<text text-anchor="middle" x="97.5" y="-101.1" font-family="FreeSans" font-size="8.00" fill="#2e3436">LINK</text>
</g>
</g>
</svg>
