<?xml version="1.0" encoding="UTF-8" standalone="no"?>
<!DOCTYPE svg PUBLIC "-//W3C//DTD SVG 1.1//EN"
 "http://www.w3.org/Graphics/SVG/1.1/DTD/svg11.dtd">
<!-- Generated by graphviz version 2.36.0 (20140111.2315)
 -->
<!-- Title: g Pages: 1 -->
<svg width="264pt" height="152pt"
 viewBox="0.00 0.00 264.00 152.00" xmlns="http://www.w3.org/2000/svg" xmlns:xlink="http://www.w3.org/1999/xlink">
<g id="graph0" class="graph" transform="scale(1 1) rotate(0) translate(4 148)">
<title>g</title>
<polygon fill="white" stroke="none" points="-4,4 -4,-148 260,-148 260,4 -4,4"/>
<!-- N0 -->
<g id="node1" class="node"><title>N0</title>
<path fill="#ffffff" stroke="#2e3436" stroke-width="1.5" d="M12,-5.5C12,-5.5 56,-5.5 56,-5.5 62,-5.5 68,-11.5 68,-17.5 68,-17.5 68,-36.5 68,-36.5 68,-42.5 62,-48.5 56,-48.5 56,-48.5 12,-48.5 12,-48.5 6,-48.5 0,-42.5 0,-36.5 0,-36.5 0,-17.5 0,-17.5 0,-11.5 6,-5.5 12,-5.5"/>
<text text-anchor="middle" x="34" y="-38.1" font-family="FreeSans" font-size="8.00" fill="#1c2021">Person</text>
<polyline fill="none" stroke="#2e3436" stroke-width="1.5" points="0,-31.5 68,-31.5 "/>
<text text-anchor="start" x="8" y="-21.1" font-family="FreeSans" font-size="8.00" fill="#1c2021">name = &#39;D&#39;</text>
<text text-anchor="start" x="8" y="-12.1" font-family="FreeSans" font-size="8.00" fill="#1c2021">eyes = &#39;brown&#39;</text>
</g>
<!-- N1 -->
<g id="node2" class="node"><title>N1</title>
<path fill="#ffffff" stroke="#2e3436" stroke-width="1.5" d="M109.5,-100.5C109.5,-100.5 150.5,-100.5 150.5,-100.5 156.5,-100.5 162.5,-106.5 162.5,-112.5 162.5,-112.5 162.5,-131.5 162.5,-131.5 162.5,-137.5 156.5,-143.5 150.5,-143.5 150.5,-143.5 109.5,-143.5 109.5,-143.5 103.5,-143.5 97.5,-137.5 97.5,-131.5 97.5,-131.5 97.5,-112.5 97.5,-112.5 97.5,-106.5 103.5,-100.5 109.5,-100.5"/>
<text text-anchor="middle" x="130" y="-133.1" font-family="FreeSans" font-size="8.00" fill="#1c2021">Person</text>
<polyline fill="none" stroke="#2e3436" stroke-width="1.5" points="97.5,-126.5 162.5,-126.5 "/>
<text text-anchor="start" x="105.5" y="-116.1" font-family="FreeSans" font-size="8.00" fill="#1c2021">name = &#39;A&#39;</text>
<text text-anchor="start" x="105.5" y="-107.1" font-family="FreeSans" font-size="8.00" fill="#1c2021">property = 13</text>
</g>
<!-- N1&#45;&gt;N0 -->
<g id="edge1" class="edge"><title>N1&#45;&gt;N0</title>
<path fill="none" stroke="#2e3436" stroke-width="2" d="M108.694,-100.36C94.5257,-86.6343 75.8067,-68.5003 60.6527,-53.8198"/>
<polygon fill="#2e3436" stroke="#2e3436" stroke-width="2" points="55.246,-48.582 62.9811,-51.3764 58.2873,-50.8321 60.9807,-53.4414 60.6328,-53.8005 60.2849,-54.1596 57.5915,-51.5504 58.2845,-56.2246 55.246,-48.582 55.246,-48.582"/>
<text text-anchor="middle" x="103.5" y="-75.1" font-family="FreeSans" font-size="8.00" fill="#2e3436">KNOWS</text>
</g>
<!-- N3 -->
<g id="node3" class="node"><title>N3</title>
<path fill="#ffffff" stroke="#2e3436" stroke-width="1.5" d="M109.5,-1C109.5,-1 150.5,-1 150.5,-1 156.5,-1 162.5,-7 162.5,-13 162.5,-13 162.5,-41 162.5,-41 162.5,-47 156.5,-53 150.5,-53 150.5,-53 109.5,-53 109.5,-53 103.5,-53 97.5,-47 97.5,-41 97.5,-41 97.5,-13 97.5,-13 97.5,-7 103.5,-1 109.5,-1"/>
<text text-anchor="middle" x="130" y="-42.6" font-family="FreeSans" font-size="8.00" fill="#1c2021">Person</text>
<polyline fill="none" stroke="#2e3436" stroke-width="1.5" points="97.5,-36 162.5,-36 "/>
<text text-anchor="start" x="105.5" y="-25.6" font-family="FreeSans" font-size="8.00" fill="#1c2021">name = &#39;C&#39;</text>
<text text-anchor="start" x="105.5" y="-16.6" font-family="FreeSans" font-size="8.00" fill="#1c2021">property = 44</text>
<text text-anchor="start" x="105.5" y="-7.6" font-family="FreeSans" font-size="8.00" fill="#1c2021">eyes = &#39;blue&#39;</text>
</g>
<!-- N1&#45;&gt;N3 -->
<g id="edge2" class="edge"><title>N1&#45;&gt;N3</title>
<path fill="none" stroke="#2e3436" stroke-width="2" d="M130,-100.36C130,-88.7296 130,-73.9341 130,-60.7564"/>
<polygon fill="#2e3436" stroke="#2e3436" stroke-width="2" points="130,-53.2208 133.375,-60.7207 130.5,-56.9708 130.5,-60.7208 130,-60.7208 129.5,-60.7208 129.5,-56.9708 126.625,-60.7208 130,-53.2208 130,-53.2208"/>
<text text-anchor="middle" x="145.5" y="-75.1" font-family="FreeSans" font-size="8.00" fill="#2e3436">KNOWS</text>
</g>
<!-- N2 -->
<g id="node4" class="node"><title>N2</title>
<path fill="#ffffff" stroke="#2e3436" stroke-width="1.5" d="M203.5,-1C203.5,-1 244.5,-1 244.5,-1 250.5,-1 256.5,-7 256.5,-13 256.5,-13 256.5,-41 256.5,-41 256.5,-47 250.5,-53 244.5,-53 244.5,-53 203.5,-53 203.5,-53 197.5,-53 191.5,-47 191.5,-41 191.5,-41 191.5,-13 191.5,-13 191.5,-7 197.5,-1 203.5,-1"/>
<text text-anchor="middle" x="224" y="-42.6" font-family="FreeSans" font-size="8.00" fill="#1c2021">Person</text>
<polyline fill="none" stroke="#2e3436" stroke-width="1.5" points="191.5,-36 256.5,-36 "/>
<text text-anchor="start" x="199.5" y="-25.6" font-family="FreeSans" font-size="8.00" fill="#1c2021">name = &#39;B&#39;</text>
<text text-anchor="start" x="199.5" y="-16.6" font-family="FreeSans" font-size="8.00" fill="#1c2021">property = 33</text>
<text text-anchor="start" x="199.5" y="-7.6" font-family="FreeSans" font-size="8.00" fill="#1c2021">eyes = &#39;blue&#39;</text>
</g>
<!-- N1&#45;&gt;N2 -->
<g id="edge3" class="edge"><title>N1&#45;&gt;N2</title>
<path fill="none" stroke="#2e3436" stroke-width="2" d="M150.862,-100.36C163.277,-88.0774 179.259,-72.2648 193.116,-58.5558"/>
<polygon fill="#2e3436" stroke="#2e3436" stroke-width="2" points="198.508,-53.2208 195.55,-60.8949 196.194,-56.2137 193.528,-58.8511 193.176,-58.4957 192.825,-58.1402 195.491,-55.5028 190.803,-56.0965 198.508,-53.2208 198.508,-53.2208"/>
<text text-anchor="middle" x="192.5" y="-75.1" font-family="FreeSans" font-size="8.00" fill="#2e3436">KNOWS</text>
</g>
</g>
</svg>
