<?xml version="1.0" encoding="UTF-8" standalone="no"?>
<!DOCTYPE svg PUBLIC "-//W3C//DTD SVG 1.1//EN"
 "http://www.w3.org/Graphics/SVG/1.1/DTD/svg11.dtd">
<!-- Generated by graphviz version 2.36.0 (20140111.2315)
 -->
<!-- Title: g Pages: 1 -->
<svg width="206pt" height="210pt"
 viewBox="0.00 0.00 205.76 210.07" xmlns="http://www.w3.org/2000/svg" xmlns:xlink="http://www.w3.org/1999/xlink">
<g id="graph0" class="graph" transform="scale(1 1) rotate(0) translate(4 206.068)">
<title>g</title>
<polygon fill="white" stroke="none" points="-4,4 -4,-206.068 201.76,-206.068 201.76,4 -4,4"/>
<!-- N0 -->
<g id="node1" class="node"><title>N0</title>
<path fill="#ffffff" stroke="#2e3436" stroke-width="1.5" d="M83.7827,-83.0135C83.7827,-83.0135 113.783,-83.0135 113.783,-83.0135 119.783,-83.0135 125.783,-89.0135 125.783,-95.0135 125.783,-95.0135 125.783,-107.014 125.783,-107.014 125.783,-113.014 119.783,-119.014 113.783,-119.014 113.783,-119.014 83.7827,-119.014 83.7827,-119.014 77.7827,-119.014 71.7827,-113.014 71.7827,-107.014 71.7827,-107.014 71.7827,-95.0135 71.7827,-95.0135 71.7827,-89.0135 77.7827,-83.0135 83.7827,-83.0135"/>
<text text-anchor="middle" x="98.7827" y="-99.1135" font-family="FreeSans" font-size="8.00" fill="#1c2021"> </text>
</g>
<!-- N6 -->
<g id="node2" class="node"><title>N6</title>
<path fill="#ffffff" stroke="#2e3436" stroke-width="1.5" d="M155.176,-41.5082C155.176,-41.5082 185.176,-41.5082 185.176,-41.5082 191.176,-41.5082 197.176,-47.5082 197.176,-53.5082 197.176,-53.5082 197.176,-65.5082 197.176,-65.5082 197.176,-71.5082 191.176,-77.5082 185.176,-77.5082 185.176,-77.5082 155.176,-77.5082 155.176,-77.5082 149.176,-77.5082 143.176,-71.5082 143.176,-65.5082 143.176,-65.5082 143.176,-53.5082 143.176,-53.5082 143.176,-47.5082 149.176,-41.5082 155.176,-41.5082"/>
<text text-anchor="middle" x="170.176" y="-57.6082" font-family="FreeSans" font-size="8.00" fill="#1c2021"> </text>
</g>
<!-- N0&#45;&gt;N6 -->
<g id="edge1" class="edge"><title>N0&#45;&gt;N6</title>
<path fill="none" stroke="#2e3436" stroke-width="2" d="M126.181,-85.0852C129.536,-83.1349 132.994,-81.1244 136.428,-79.1279"/>
<polygon fill="#2e3436" stroke="#2e3436" stroke-width="2" points="142.969,-75.3254 138.181,-82.0127 139.978,-77.6424 136.737,-79.5272 136.485,-79.0949 136.234,-78.6626 139.476,-76.7779 134.789,-76.1771 142.969,-75.3254 142.969,-75.3254"/>
<text text-anchor="middle" x="128.305" y="-84.7065" font-family="FreeSans" font-size="8.00" fill="#2e3436">X</text>
</g>
<!-- N5 -->
<g id="node3" class="node"><title>N5</title>
<path fill="#ffffff" stroke="#2e3436" stroke-width="1.5" d="M83.6173,-0.5C83.6173,-0.5 113.617,-0.5 113.617,-0.5 119.617,-0.5 125.617,-6.5 125.617,-12.5 125.617,-12.5 125.617,-24.5 125.617,-24.5 125.617,-30.5 119.617,-36.5 113.617,-36.5 113.617,-36.5 83.6173,-36.5 83.6173,-36.5 77.6173,-36.5 71.6173,-30.5 71.6173,-24.5 71.6173,-24.5 71.6173,-12.5 71.6173,-12.5 71.6173,-6.5 77.6173,-0.5 83.6173,-0.5"/>
<text text-anchor="middle" x="98.6173" y="-16.6" font-family="FreeSans" font-size="8.00" fill="#1c2021"> </text>
</g>
<!-- N0&#45;&gt;N5 -->
<g id="edge2" class="edge"><title>N0&#45;&gt;N5</title>
<path fill="none" stroke="#2e3436" stroke-width="2" d="M98.746,-82.7011C98.7235,-71.4842 98.6944,-56.9496 98.6695,-44.5472"/>
<polygon fill="#2e3436" stroke="#2e3436" stroke-width="2" points="98.6539,-36.7612 102.044,-44.2544 99.1615,-40.5102 99.169,-44.2602 98.669,-44.2612 98.169,-44.2622 98.1615,-40.5122 95.294,-44.268 98.6539,-36.7612 98.6539,-36.7612"/>
<text text-anchor="middle" x="95.7078" y="-66.2241" font-family="FreeSans" font-size="8.00" fill="#2e3436">X</text>
</g>
<!-- N4 -->
<g id="node4" class="node"><title>N4</title>
<path fill="#ffffff" stroke="#2e3436" stroke-width="1.5" d="M13.0364,-125.462C13.0364,-125.462 43.0364,-125.462 43.0364,-125.462 49.0364,-125.462 55.0364,-131.462 55.0364,-137.462 55.0364,-137.462 55.0364,-149.462 55.0364,-149.462 55.0364,-155.462 49.0364,-161.462 43.0364,-161.462 43.0364,-161.462 13.0364,-161.462 13.0364,-161.462 7.03641,-161.462 1.03641,-155.462 1.03641,-149.462 1.03641,-149.462 1.03641,-137.462 1.03641,-137.462 1.03641,-131.462 7.03641,-125.462 13.0364,-125.462"/>
<text text-anchor="middle" x="28.0364" y="-141.562" font-family="FreeSans" font-size="8.00" fill="#1c2021"> </text>
</g>
<!-- N0&#45;&gt;N4 -->
<g id="edge3" class="edge"><title>N0&#45;&gt;N4</title>
<path fill="none" stroke="#2e3436" stroke-width="2" d="M71.6327,-117.304C68.4861,-119.192 65.2477,-121.135 62.0246,-123.069"/>
<polygon fill="#2e3436" stroke="#2e3436" stroke-width="2" points="55.4647,-127.004 60.1595,-120.252 58.4231,-124.646 61.6387,-122.717 61.8959,-123.146 62.1532,-123.574 58.9376,-125.504 63.6324,-126.04 55.4647,-127.004 55.4647,-127.004"/>
<text text-anchor="middle" x="63.8287" y="-122.786" font-family="FreeSans" font-size="8.00" fill="#2e3436">X</text>
</g>
<!-- N3 -->
<g id="node5" class="node"><title>N3</title>
<path fill="#ffffff" stroke="#2e3436" stroke-width="1.5" d="M155.76,-123.55C155.76,-123.55 185.76,-123.55 185.76,-123.55 191.76,-123.55 197.76,-129.55 197.76,-135.55 197.76,-135.55 197.76,-147.55 197.76,-147.55 197.76,-153.55 191.76,-159.55 185.76,-159.55 185.76,-159.55 155.76,-159.55 155.76,-159.55 149.76,-159.55 143.76,-153.55 143.76,-147.55 143.76,-147.55 143.76,-135.55 143.76,-135.55 143.76,-129.55 149.76,-123.55 155.76,-123.55"/>
<text text-anchor="middle" x="170.76" y="-139.65" font-family="FreeSans" font-size="8.00" fill="#1c2021"> </text>
</g>
<!-- N0&#45;&gt;N3 -->
<g id="edge4" class="edge"><title>N0&#45;&gt;N3</title>
<path fill="none" stroke="#2e3436" stroke-width="2" d="M125.994,-116.339C129.577,-118.356 133.284,-120.444 136.96,-122.514"/>
<polygon fill="#2e3436" stroke="#2e3436" stroke-width="2" points="143.51,-126.203 135.319,-125.464 139.997,-124.799 136.73,-122.958 136.975,-122.523 137.221,-122.087 140.488,-123.927 138.632,-119.582 143.51,-126.203 143.51,-126.203"/>
<text text-anchor="middle" x="128.477" y="-122.026" font-family="FreeSans" font-size="8.00" fill="#2e3436">X</text>
</g>
<!-- N2 -->
<g id="node6" class="node"><title>N2</title>
<path fill="#ffffff" stroke="#2e3436" stroke-width="1.5" d="M85.2197,-165.568C85.2197,-165.568 115.22,-165.568 115.22,-165.568 121.22,-165.568 127.22,-171.568 127.22,-177.568 127.22,-177.568 127.22,-189.568 127.22,-189.568 127.22,-195.568 121.22,-201.568 115.22,-201.568 115.22,-201.568 85.2197,-201.568 85.2197,-201.568 79.2197,-201.568 73.2197,-195.568 73.2197,-189.568 73.2197,-189.568 73.2197,-177.568 73.2197,-177.568 73.2197,-171.568 79.2197,-165.568 85.2197,-165.568"/>
<text text-anchor="middle" x="100.22" y="-181.668" font-family="FreeSans" font-size="8.00" fill="#1c2021"> </text>
</g>
<!-- N0&#45;&gt;N2 -->
<g id="edge5" class="edge"><title>N0&#45;&gt;N2</title>
<path fill="none" stroke="#2e3436" stroke-width="2" d="M99.1017,-119.335C99.297,-130.557 99.5501,-145.099 99.7661,-157.508"/>
<polygon fill="#2e3436" stroke="#2e3436" stroke-width="2" points="99.9017,-165.297 96.3966,-157.857 99.3365,-161.557 99.2712,-157.807 99.7711,-157.799 100.271,-157.79 100.336,-161.539 103.146,-157.74 99.9017,-165.297 99.9017,-165.297"/>
<text text-anchor="middle" x="96.4339" y="-141.021" font-family="FreeSans" font-size="8.00" fill="#2e3436">X</text>
</g>
<!-- N1 -->
<g id="node7" class="node"><title>N1</title>
<path fill="#ffffff" stroke="#2e3436" stroke-width="1.5" d="M12,-42.3961C12,-42.3961 42,-42.3961 42,-42.3961 48,-42.3961 54,-48.3961 54,-54.3961 54,-54.3961 54,-66.3961 54,-66.3961 54,-72.3961 48,-78.3961 42,-78.3961 42,-78.3961 12,-78.3961 12,-78.3961 6,-78.3961 0,-72.3961 0,-66.3961 0,-66.3961 0,-54.3961 0,-54.3961 0,-48.3961 6,-42.3961 12,-42.3961"/>
<text text-anchor="middle" x="27" y="-58.4961" font-family="FreeSans" font-size="8.00" fill="#1c2021"> </text>
</g>
<!-- N0&#45;&gt;N1 -->
<g id="edge6" class="edge"><title>N0&#45;&gt;N1</title>
<path fill="none" stroke="#2e3436" stroke-width="2" d="M71.6448,-85.6578C68.0716,-83.6359 64.3751,-81.5443 60.7091,-79.47"/>
<polygon fill="#2e3436" stroke="#2e3436" stroke-width="2" points="54.1764,-75.7735 62.3659,-76.5297 57.6863,-77.1851 60.9501,-79.0319 60.7038,-79.4671 60.4576,-79.9022 57.1939,-78.0554 59.0417,-82.4044 54.1764,-75.7735 54.1764,-75.7735"/>
<text text-anchor="middle" x="63.1769" y="-85.1639" font-family="FreeSans" font-size="8.00" fill="#2e3436">X</text>
</g>
</g>
</svg>
