<?xml version="1.0" encoding="UTF-8" standalone="no"?>
<!DOCTYPE svg PUBLIC "-//W3C//DTD SVG 1.1//EN"
 "http://www.w3.org/Graphics/SVG/1.1/DTD/svg11.dtd">
<!-- Generated by graphviz version 2.36.0 (20140111.2315)
 -->
<!-- Title: g Pages: 1 -->
<svg width="444pt" height="214pt"
 viewBox="0.00 0.00 444.00 214.00" xmlns="http://www.w3.org/2000/svg" xmlns:xlink="http://www.w3.org/1999/xlink">
<g id="graph0" class="graph" transform="scale(1 1) rotate(0) translate(4 210)">
<title>g</title>
<polygon fill="white" stroke="none" points="-4,4 -4,-210 440,-210 440,4 -4,4"/>
<!-- N0 -->
<g id="node1" class="node"><title>N0</title>
<path fill="#ffffff" stroke="#2e3436" stroke-width="1.5" d="M84.5,-1C84.5,-1 137.5,-1 137.5,-1 143.5,-1 149.5,-7 149.5,-13 149.5,-13 149.5,-25 149.5,-25 149.5,-31 143.5,-37 137.5,-37 137.5,-37 84.5,-37 84.5,-37 78.5,-37 72.5,-31 72.5,-25 72.5,-25 72.5,-13 72.5,-13 72.5,-7 78.5,-1 84.5,-1"/>
<text text-anchor="start" x="80.5" y="-17.1" font-family="FreeSans" font-size="8.00" fill="#1c2021">name = &#39;Animals&#39;</text>
</g>
<!-- N1 -->
<g id="node2" class="node"><title>N1</title>
<path fill="#ffffff" stroke="#2e3436" stroke-width="1.5" d="M230,-1C230,-1 278,-1 278,-1 284,-1 290,-7 290,-13 290,-13 290,-25 290,-25 290,-31 284,-37 278,-37 278,-37 230,-37 230,-37 224,-37 218,-31 218,-25 218,-25 218,-13 218,-13 218,-7 224,-1 230,-1"/>
<text text-anchor="start" x="226" y="-17.1" font-family="FreeSans" font-size="8.00" fill="#1c2021">name = &#39;Hobby&#39;</text>
</g>
<!-- N2 -->
<g id="node3" class="node"><title>N2</title>
<path fill="#ffffff" stroke="#2e3436" stroke-width="1.5" d="M209,-85C209,-85 259,-85 259,-85 265,-85 271,-91 271,-97 271,-97 271,-109 271,-109 271,-115 265,-121 259,-121 259,-121 209,-121 209,-121 203,-121 197,-115 197,-109 197,-109 197,-97 197,-97 197,-91 203,-85 209,-85"/>
<text text-anchor="start" x="205" y="-101.1" font-family="FreeSans" font-size="8.00" fill="#1c2021">name = &#39;Surfing&#39;</text>
</g>
<!-- N2&#45;&gt;N1 -->
<g id="edge1" class="edge"><title>N2&#45;&gt;N1</title>
<path fill="none" stroke="#2e3436" stroke-width="2" d="M238.241,-84.6099C241.071,-73.0081 244.834,-57.5802 247.973,-44.7099"/>
<polygon fill="#2e3436" stroke="#2e3436" stroke-width="2" points="249.833,-37.0838 251.335,-45.17 249.43,-40.8455 248.542,-44.4887 248.056,-44.3702 247.57,-44.2518 248.459,-40.6086 244.777,-43.5705 249.833,-37.0838 249.833,-37.0838"/>
<text text-anchor="middle" x="258.5" y="-59.1" font-family="FreeSans" font-size="8.00" fill="#2e3436">tagged</text>
</g>
<!-- N3 -->
<g id="node4" class="node"><title>N3</title>
<path fill="#ffffff" stroke="#2e3436" stroke-width="1.5" d="M266,-169C266,-169 308,-169 308,-169 314,-169 320,-175 320,-181 320,-181 320,-193 320,-193 320,-199 314,-205 308,-205 308,-205 266,-205 266,-205 260,-205 254,-199 254,-193 254,-193 254,-181 254,-181 254,-175 260,-169 266,-169"/>
<text text-anchor="start" x="262" y="-185.1" font-family="FreeSans" font-size="8.00" fill="#1c2021">name = &#39;Sara&#39;</text>
</g>
<!-- N6 -->
<g id="node5" class="node"><title>N6</title>
<path fill="#ffffff" stroke="#2e3436" stroke-width="1.5" d="M106,-85C106,-85 156,-85 156,-85 162,-85 168,-91 168,-97 168,-97 168,-109 168,-109 168,-115 162,-121 156,-121 156,-121 106,-121 106,-121 100,-121 94,-115 94,-109 94,-109 94,-97 94,-97 94,-91 100,-85 106,-85"/>
<text text-anchor="start" x="102" y="-101.1" font-family="FreeSans" font-size="8.00" fill="#1c2021">name = &#39;Horses&#39;</text>
</g>
<!-- N3&#45;&gt;N6 -->
<g id="edge2" class="edge"><title>N3&#45;&gt;N6</title>
<path fill="none" stroke="#4e9a06" stroke-width="2" d="M274.432,-168.972C266.423,-159.221 255.268,-147.476 243,-140 218.862,-125.291 208.892,-130.707 182,-122 179.906,-121.322 177.769,-120.618 175.612,-119.897"/>
<polygon fill="#4e9a06" stroke="#4e9a06" stroke-width="2" points="168.247,-117.399 176.434,-116.612 171.959,-118.13 175.51,-119.334 175.35,-119.808 175.189,-120.281 171.638,-119.077 174.266,-123.004 168.247,-117.399 168.247,-117.399"/>
<text text-anchor="middle" x="269.5" y="-143.1" font-family="FreeSans" font-size="8.00" fill="#4e9a06">favorite</text>
</g>
<!-- N7 -->
<g id="node6" class="node"><title>N7</title>
<path fill="#ffffff" stroke="#2e3436" stroke-width="1.5" d="M313,-85C313,-85 357,-85 357,-85 363,-85 369,-91 369,-97 369,-97 369,-109 369,-109 369,-115 363,-121 357,-121 357,-121 313,-121 313,-121 307,-121 301,-115 301,-109 301,-109 301,-97 301,-97 301,-91 307,-85 313,-85"/>
<text text-anchor="start" x="309" y="-101.1" font-family="FreeSans" font-size="8.00" fill="#1c2021">name = &#39;Bikes&#39;</text>
</g>
<!-- N3&#45;&gt;N7 -->
<g id="edge3" class="edge"><title>N3&#45;&gt;N7</title>
<path fill="none" stroke="#4e9a06" stroke-width="2" d="M297.18,-168.61C304.163,-156.68 313.515,-140.704 321.172,-127.623"/>
<polygon fill="#4e9a06" stroke="#4e9a06" stroke-width="2" points="325,-121.084 324.123,-129.261 323.537,-124.573 321.642,-127.809 321.211,-127.556 320.779,-127.304 322.674,-124.068 318.298,-125.851 325,-121.084 325,-121.084"/>
<text text-anchor="middle" x="327.5" y="-143.1" font-family="FreeSans" font-size="8.00" fill="#4e9a06">favorite</text>
</g>
<!-- N6&#45;&gt;N0 -->
<g id="edge6" class="edge"><title>N6&#45;&gt;N0</title>
<path fill="none" stroke="#2e3436" stroke-width="2" d="M126.759,-84.6099C123.929,-73.0081 120.166,-57.5802 117.027,-44.7099"/>
<polygon fill="#2e3436" stroke="#2e3436" stroke-width="2" points="115.167,-37.0838 120.223,-43.5705 116.541,-40.6086 117.43,-44.2518 116.944,-44.3702 116.458,-44.4887 115.57,-40.8455 113.665,-45.17 115.167,-37.0838 115.167,-37.0838"/>
<text text-anchor="middle" x="135.5" y="-59.1" font-family="FreeSans" font-size="8.00" fill="#2e3436">tagged</text>
</g>
<!-- N7&#45;&gt;N1 -->
<g id="edge7" class="edge"><title>N7&#45;&gt;N1</title>
<path fill="none" stroke="#2e3436" stroke-width="2" d="M317.822,-84.6099C305.713,-72.3514 289.385,-55.8214 276.275,-42.5501"/>
<polygon fill="#2e3436" stroke="#2e3436" stroke-width="2" points="270.876,-37.0838 278.547,-40.0478 273.867,-39.4003 276.502,-42.0682 276.146,-42.4196 275.79,-42.771 273.155,-40.1031 273.745,-44.7914 270.876,-37.0838 270.876,-37.0838"/>
<text text-anchor="middle" x="312.5" y="-59.1" font-family="FreeSans" font-size="8.00" fill="#2e3436">tagged</text>
</g>
<!-- N4 -->
<g id="node7" class="node"><title>N4</title>
<path fill="#ffffff" stroke="#2e3436" stroke-width="1.5" d="M11.5,-85C11.5,-85 52.5,-85 52.5,-85 58.5,-85 64.5,-91 64.5,-97 64.5,-97 64.5,-109 64.5,-109 64.5,-115 58.5,-121 52.5,-121 52.5,-121 11.5,-121 11.5,-121 5.5,-121 -0.5,-115 -0.5,-109 -0.5,-109 -0.5,-97 -0.5,-97 -0.5,-91 5.5,-85 11.5,-85"/>
<text text-anchor="start" x="7.5" y="-101.1" font-family="FreeSans" font-size="8.00" fill="#1c2021">name = &#39;Cats&#39;</text>
</g>
<!-- N4&#45;&gt;N0 -->
<g id="edge4" class="edge"><title>N4&#45;&gt;N0</title>
<path fill="none" stroke="#2e3436" stroke-width="2" d="M48.7539,-84.6099C60.5639,-72.3514 76.4891,-55.8214 89.2749,-42.5501"/>
<polygon fill="#2e3436" stroke="#2e3436" stroke-width="2" points="94.5412,-37.0838 91.7681,-44.8267 92.2995,-40.1314 89.6976,-42.832 89.3376,-42.4851 88.9775,-42.1381 91.5793,-39.4375 86.907,-40.1434 94.5412,-37.0838 94.5412,-37.0838"/>
<text text-anchor="middle" x="89.5" y="-59.1" font-family="FreeSans" font-size="8.00" fill="#2e3436">tagged</text>
</g>
<!-- N5 -->
<g id="node8" class="node"><title>N5</title>
<path fill="#ffffff" stroke="#2e3436" stroke-width="1.5" d="M372,-169C372,-169 424,-169 424,-169 430,-169 436,-175 436,-181 436,-181 436,-193 436,-193 436,-199 430,-205 424,-205 424,-205 372,-205 372,-205 366,-205 360,-199 360,-193 360,-193 360,-181 360,-181 360,-175 366,-169 372,-169"/>
<text text-anchor="start" x="368" y="-185.1" font-family="FreeSans" font-size="8.00" fill="#1c2021">name = &#39;Derrick&#39;</text>
</g>
<!-- N5&#45;&gt;N7 -->
<g id="edge5" class="edge"><title>N5&#45;&gt;N7</title>
<path fill="none" stroke="#4e9a06" stroke-width="2" d="M384.639,-168.61C375.389,-156.57 362.974,-140.41 352.874,-127.264"/>
<polygon fill="#4e9a06" stroke="#4e9a06" stroke-width="2" points="348.125,-121.084 355.371,-124.975 350.807,-123.753 353.091,-126.727 352.695,-127.031 352.298,-127.336 350.014,-124.362 350.018,-129.087 348.125,-121.084 348.125,-121.084"/>
<text text-anchor="middle" x="384.5" y="-143.1" font-family="FreeSans" font-size="8.00" fill="#4e9a06">favorite</text>
</g>
<!-- N8 -->
<g id="node9" class="node"><title>N8</title>
<path fill="#ffffff" stroke="#2e3436" stroke-width="1.5" d="M104,-169C104,-169 142,-169 142,-169 148,-169 154,-175 154,-181 154,-181 154,-193 154,-193 154,-199 148,-205 142,-205 142,-205 104,-205 104,-205 98,-205 92,-199 92,-193 92,-193 92,-181 92,-181 92,-175 98,-169 104,-169"/>
<text text-anchor="start" x="100" y="-185.1" font-family="FreeSans" font-size="8.00" fill="#1c2021">name = &#39;Joe&#39;</text>
</g>
<!-- N8&#45;&gt;N2 -->
<g id="edge8" class="edge"><title>N8&#45;&gt;N2</title>
<path fill="none" stroke="#4e9a06" stroke-width="2" d="M130.633,-168.914C135.594,-159.386 142.844,-147.886 152,-140 158.334,-134.545 173.815,-127.321 189.64,-120.776"/>
<polygon fill="#4e9a06" stroke="#4e9a06" stroke-width="2" points="196.904,-117.826 191.226,-123.775 193.618,-119.7 190.144,-121.112 189.956,-120.648 189.768,-120.185 193.242,-118.774 188.686,-117.521 196.904,-117.826 196.904,-117.826"/>
<text text-anchor="middle" x="165.5" y="-143.1" font-family="FreeSans" font-size="8.00" fill="#4e9a06">favorite</text>
</g>
<!-- N8&#45;&gt;N6 -->
<g id="edge10" class="edge"><title>N8&#45;&gt;N6</title>
<path fill="none" stroke="#4e9a06" stroke-width="2" d="M100.221,-168.593C92.3402,-160.361 86.488,-150.131 91,-140 93.1452,-135.183 96.2886,-130.741 99.8859,-126.741"/>
<polygon fill="#4e9a06" stroke="#4e9a06" stroke-width="2" points="105.418,-121.207 102.503,-128.897 103.12,-124.213 100.469,-126.865 100.116,-126.512 99.7619,-126.158 102.413,-123.506 97.7285,-124.126 105.418,-121.207 105.418,-121.207"/>
<text text-anchor="middle" x="104.5" y="-143.1" font-family="FreeSans" font-size="8.00" fill="#4e9a06">favorite</text>
</g>
<!-- N8&#45;&gt;N7 -->
<g id="edge9" class="edge"><title>N8&#45;&gt;N7</title>
<path fill="none" stroke="#4e9a06" stroke-width="2" d="M150.414,-168.979C166.894,-159.353 188.572,-147.733 209,-140 241.464,-127.711 251.728,-131.895 285,-122 287.725,-121.19 290.518,-120.314 293.324,-119.4"/>
<polygon fill="#4e9a06" stroke="#4e9a06" stroke-width="2" points="300.741,-116.909 294.705,-122.496 297.345,-118.577 293.79,-119.77 293.631,-119.296 293.472,-118.822 297.027,-117.629 292.557,-116.097 300.741,-116.909 300.741,-116.909"/>
<text text-anchor="middle" x="222.5" y="-143.1" font-family="FreeSans" font-size="8.00" fill="#4e9a06">favorite</text>
</g>
<!-- N8&#45;&gt;N4 -->
<g id="edge11" class="edge"><title>N8&#45;&gt;N4</title>
<path fill="none" stroke="#4e9a06" stroke-width="2" d="M91.7619,-173.988C79.5132,-168.138 66.0226,-160.145 56,-150 49.893,-143.818 44.9806,-135.763 41.2296,-128.125"/>
<polygon fill="#4e9a06" stroke="#4e9a06" stroke-width="2" points="38.1104,-121.293 44.2955,-126.714 40.1227,-124.496 41.6801,-127.908 41.2253,-128.115 40.7704,-128.323 39.213,-124.912 38.1551,-129.517 38.1104,-121.293 38.1104,-121.293"/>
<text text-anchor="middle" x="69.5" y="-143.1" font-family="FreeSans" font-size="8.00" fill="#4e9a06">favorite</text>
</g>
</g>
</svg>
