<?xml version="1.0" encoding="UTF-8" standalone="no"?>
<!DOCTYPE svg PUBLIC "-//W3C//DTD SVG 1.1//EN"
 "http://www.w3.org/Graphics/SVG/1.1/DTD/svg11.dtd">
<!-- Generated by graphviz version 2.36.0 (20140111.2315)
 -->
<!-- Title: g Pages: 1 -->
<svg width="314pt" height="130pt"
 viewBox="0.00 0.00 314.00 130.00" xmlns="http://www.w3.org/2000/svg" xmlns:xlink="http://www.w3.org/1999/xlink">
<g id="graph0" class="graph" transform="scale(1 1) rotate(0) translate(4 126)">
<title>g</title>
<polygon fill="white" stroke="none" points="-4,4 -4,-126 310,-126 310,4 -4,4"/>
<!-- N0 -->
<g id="node1" class="node"><title>N0</title>
<path fill="#ffffff" stroke="#2e3436" stroke-width="1.5" d="M11.5,-1C11.5,-1 42.5,-1 42.5,-1 48.5,-1 54.5,-7 54.5,-13 54.5,-13 54.5,-25 54.5,-25 54.5,-31 48.5,-37 42.5,-37 42.5,-37 11.5,-37 11.5,-37 5.5,-37 -0.5,-31 -0.5,-25 -0.5,-25 -0.5,-13 -0.5,-13 -0.5,-7 5.5,-1 11.5,-1"/>
<text text-anchor="start" x="7.5" y="-17.1" font-family="FreeSans" font-size="8.00" fill="#1c2021">name = &#39;D&#39;</text>
</g>
<!-- N1 -->
<g id="node2" class="node"><title>N1</title>
<path fill="#ffffff" stroke="#2e3436" stroke-width="1.5" d="M96,-1C96,-1 126,-1 126,-1 132,-1 138,-7 138,-13 138,-13 138,-25 138,-25 138,-31 132,-37 126,-37 126,-37 96,-37 96,-37 90,-37 84,-31 84,-25 84,-25 84,-13 84,-13 84,-7 90,-1 96,-1"/>
<text text-anchor="start" x="92" y="-17.1" font-family="FreeSans" font-size="8.00" fill="#1c2021">name = &#39;E&#39;</text>
</g>
<!-- N2 -->
<g id="node3" class="node"><title>N2</title>
<path fill="#ffffff" stroke="#2e3436" stroke-width="1.5" d="M138,-85C138,-85 168,-85 168,-85 174,-85 180,-91 180,-97 180,-97 180,-109 180,-109 180,-115 174,-121 168,-121 168,-121 138,-121 138,-121 132,-121 126,-115 126,-109 126,-109 126,-97 126,-97 126,-91 132,-85 138,-85"/>
<text text-anchor="start" x="134" y="-101.1" font-family="FreeSans" font-size="8.00" fill="#1c2021">name = &#39;A&#39;</text>
</g>
<!-- N2&#45;&gt;N0 -->
<g id="edge2" class="edge"><title>N2&#45;&gt;N0</title>
<path fill="none" stroke="#2e3436" stroke-width="2" d="M125.992,-88.8135C113.534,-82.3987 98.7217,-74.2919 86,-66 74.8265,-58.7172 63.1238,-49.8756 53.1142,-41.8976"/>
<polygon fill="#2e3436" stroke="#2e3436" stroke-width="2" points="47.1206,-37.0633 55.0772,-39.1449 50.3534,-39.0284 53.2723,-41.3827 52.9584,-41.7719 52.6445,-42.1611 49.7256,-39.8068 50.8396,-44.3989 47.1206,-37.0633 47.1206,-37.0633"/>
<text text-anchor="middle" x="101.5" y="-59.1" font-family="FreeSans" font-size="8.00" fill="#2e3436">KNOWS</text>
</g>
<!-- N2&#45;&gt;N1 -->
<g id="edge1" class="edge"><title>N2&#45;&gt;N1</title>
<path fill="none" stroke="#2e3436" stroke-width="2" d="M139.867,-84.9817C135.736,-79.1596 131.376,-72.4777 128,-66 124.474,-59.2357 121.334,-51.5719 118.742,-44.4666"/>
<polygon fill="#2e3436" stroke="#2e3436" stroke-width="2" points="116.151,-37.045 121.809,-43.0137 117.859,-40.4207 119.095,-43.9612 118.623,-44.126 118.151,-44.2908 116.915,-40.7503 115.436,-45.2383 116.151,-37.045 116.151,-37.045"/>
<text text-anchor="middle" x="143.5" y="-59.1" font-family="FreeSans" font-size="8.00" fill="#2e3436">KNOWS</text>
</g>
<!-- N4 -->
<g id="node4" class="node"><title>N4</title>
<path fill="#ffffff" stroke="#2e3436" stroke-width="1.5" d="M179.5,-1C179.5,-1 210.5,-1 210.5,-1 216.5,-1 222.5,-7 222.5,-13 222.5,-13 222.5,-25 222.5,-25 222.5,-31 216.5,-37 210.5,-37 210.5,-37 179.5,-37 179.5,-37 173.5,-37 167.5,-31 167.5,-25 167.5,-25 167.5,-13 167.5,-13 167.5,-7 173.5,-1 179.5,-1"/>
<text text-anchor="start" x="175.5" y="-17.1" font-family="FreeSans" font-size="8.00" fill="#1c2021">name = &#39;C&#39;</text>
</g>
<!-- N2&#45;&gt;N4 -->
<g id="edge3" class="edge"><title>N2&#45;&gt;N4</title>
<path fill="none" stroke="#2e3436" stroke-width="2" d="M161.907,-84.6099C167.962,-72.7892 176.05,-56.9967 182.715,-43.9841"/>
<polygon fill="#2e3436" stroke="#2e3436" stroke-width="2" points="186.25,-37.0838 185.835,-45.2978 184.985,-40.6495 183.276,-43.9871 182.831,-43.7592 182.386,-43.5312 184.095,-40.1936 179.827,-42.2206 186.25,-37.0838 186.25,-37.0838"/>
<text text-anchor="middle" x="192.5" y="-59.1" font-family="FreeSans" font-size="8.00" fill="#2e3436">KNOWS</text>
</g>
<!-- N3 -->
<g id="node5" class="node"><title>N3</title>
<path fill="#ffffff" stroke="#2e3436" stroke-width="1.5" d="M264,-1C264,-1 294,-1 294,-1 300,-1 306,-7 306,-13 306,-13 306,-25 306,-25 306,-31 300,-37 294,-37 294,-37 264,-37 264,-37 258,-37 252,-31 252,-25 252,-25 252,-13 252,-13 252,-7 258,-1 264,-1"/>
<text text-anchor="start" x="260" y="-17.1" font-family="FreeSans" font-size="8.00" fill="#1c2021">name = &#39;B&#39;</text>
</g>
<!-- N2&#45;&gt;N3 -->
<g id="edge4" class="edge"><title>N2&#45;&gt;N3</title>
<path fill="none" stroke="#2e3436" stroke-width="2" d="M180.199,-86.9667C191.156,-80.7155 203.821,-73.2388 215,-66 226.714,-58.4151 239.251,-49.5732 250.098,-41.6794"/>
<polygon fill="#2e3436" stroke="#2e3436" stroke-width="2" points="256.269,-37.158 252.214,-44.313 253.54,-39.7775 250.515,-41.9937 250.219,-41.5904 249.924,-41.1871 252.949,-38.9708 248.225,-38.8679 256.269,-37.158 256.269,-37.158"/>
<text text-anchor="middle" x="245.5" y="-59.1" font-family="FreeSans" font-size="8.00" fill="#2e3436">KNOWS</text>
</g>
</g>
</svg>
