<?xml version="1.0" encoding="UTF-8" standalone="no"?>
<!DOCTYPE svg PUBLIC "-//W3C//DTD SVG 1.1//EN"
 "http://www.w3.org/Graphics/SVG/1.1/DTD/svg11.dtd">
<!-- Generated by graphviz version 2.36.0 (20140111.2315)
 -->
<!-- Title: g Pages: 1 -->
<svg width="259pt" height="298pt"
 viewBox="0.00 0.00 259.00 298.00" xmlns="http://www.w3.org/2000/svg" xmlns:xlink="http://www.w3.org/1999/xlink">
<g id="graph0" class="graph" transform="scale(1 1) rotate(0) translate(4 294)">
<title>g</title>
<polygon fill="white" stroke="none" points="-4,4 -4,-294 255,-294 255,4 -4,4"/>
<!-- N0 -->
<g id="node1" class="node"><title>N0</title>
<path fill="#ffffff" stroke="#2e3436" stroke-width="1.5" d="M31.5,-85C31.5,-85 66.5,-85 66.5,-85 72.5,-85 78.5,-91 78.5,-97 78.5,-97 78.5,-109 78.5,-109 78.5,-115 72.5,-121 66.5,-121 66.5,-121 31.5,-121 31.5,-121 25.5,-121 19.5,-115 19.5,-109 19.5,-109 19.5,-97 19.5,-97 19.5,-91 25.5,-85 31.5,-85"/>
<text text-anchor="start" x="27.5" y="-101.1" font-family="FreeSans" font-size="8.00" fill="#1c2021">name = &#39;Bill&#39;</text>
</g>
<!-- N3 -->
<g id="node2" class="node"><title>N3</title>
<path fill="#ffffff" stroke="#2e3436" stroke-width="1.5" d="M119,-1C119,-1 155,-1 155,-1 161,-1 167,-7 167,-13 167,-13 167,-25 167,-25 167,-31 161,-37 155,-37 155,-37 119,-37 119,-37 113,-37 107,-31 107,-25 107,-25 107,-13 107,-13 107,-7 113,-1 119,-1"/>
<text text-anchor="start" x="115" y="-17.1" font-family="FreeSans" font-size="8.00" fill="#1c2021">name = &#39;Ian&#39;</text>
</g>
<!-- N0&#45;&gt;N3 -->
<g id="edge1" class="edge"><title>N0&#45;&gt;N3</title>
<path fill="none" stroke="#2e3436" stroke-width="2" d="M64.8585,-84.9935C73.3077,-76.1388 83.9966,-65.2577 94,-56 98.9305,-51.437 104.327,-46.7185 109.58,-42.2597"/>
<polygon fill="#2e3436" stroke="#2e3436" stroke-width="2" points="115.644,-37.1697 112.069,-44.5766 113.093,-39.9636 110.221,-42.3744 109.9,-41.9915 109.578,-41.6085 112.451,-39.1976 107.73,-39.4064 115.644,-37.1697 115.644,-37.1697"/>
<text text-anchor="middle" x="106" y="-59.1" font-family="FreeSans" font-size="8.00" fill="#2e3436">knows</text>
</g>
<!-- N2 -->
<g id="node3" class="node"><title>N2</title>
<path fill="#ffffff" stroke="#2e3436" stroke-width="1.5" d="M12,-1C12,-1 64,-1 64,-1 70,-1 76,-7 76,-13 76,-13 76,-25 76,-25 76,-31 70,-37 64,-37 64,-37 12,-37 12,-37 6,-37 0,-31 0,-25 0,-25 0,-13 0,-13 0,-7 6,-1 12,-1"/>
<text text-anchor="start" x="8" y="-17.1" font-family="FreeSans" font-size="8.00" fill="#1c2021">name = &#39;Derrick&#39;</text>
</g>
<!-- N0&#45;&gt;N2 -->
<g id="edge2" class="edge"><title>N0&#45;&gt;N2</title>
<path fill="none" stroke="#2e3436" stroke-width="2" d="M41.4021,-84.7543C39.2029,-78.9171 37.0998,-72.2837 36,-66 34.8114,-59.2087 34.6507,-51.7721 34.9602,-44.8958"/>
<polygon fill="#2e3436" stroke="#2e3436" stroke-width="2" points="35.5062,-37.1534 38.3452,-44.8722 35.7411,-40.9293 35.4773,-44.67 34.9785,-44.6348 34.4798,-44.5996 34.7436,-40.8589 31.6119,-44.3974 35.5062,-37.1534 35.5062,-37.1534"/>
<text text-anchor="middle" x="48" y="-59.1" font-family="FreeSans" font-size="8.00" fill="#2e3436">knows</text>
</g>
<!-- N1 -->
<g id="node4" class="node"><title>N1</title>
<path fill="#ffffff" stroke="#2e3436" stroke-width="1.5" d="M115,-169C115,-169 157,-169 157,-169 163,-169 169,-175 169,-181 169,-181 169,-193 169,-193 169,-199 163,-205 157,-205 157,-205 115,-205 115,-205 109,-205 103,-199 103,-193 103,-193 103,-181 103,-181 103,-175 109,-169 115,-169"/>
<text text-anchor="start" x="111" y="-185.1" font-family="FreeSans" font-size="8.00" fill="#1c2021">name = &#39;Sara&#39;</text>
</g>
<!-- N1&#45;&gt;N0 -->
<g id="edge5" class="edge"><title>N1&#45;&gt;N0</title>
<path fill="none" stroke="#2e3436" stroke-width="2" d="M115.176,-168.775C108.319,-162.939 100.73,-156.301 94,-150 86.2015,-142.698 77.9502,-134.433 70.6726,-126.943"/>
<polygon fill="#2e3436" stroke="#2e3436" stroke-width="2" points="65.3207,-121.395 72.9569,-124.45 68.2842,-123.747 70.8877,-126.446 70.5279,-126.793 70.168,-127.14 67.5644,-124.441 68.0989,-129.136 65.3207,-121.395 65.3207,-121.395"/>
<text text-anchor="middle" x="106" y="-143.1" font-family="FreeSans" font-size="8.00" fill="#2e3436">knows</text>
</g>
<!-- N1&#45;&gt;N3 -->
<g id="edge4" class="edge"><title>N1&#45;&gt;N3</title>
<path fill="none" stroke="#2e3436" stroke-width="2" d="M136.103,-168.86C136.281,-139.412 136.644,-79.0916 136.85,-44.9677"/>
<polygon fill="#2e3436" stroke="#2e3436" stroke-width="2" points="136.896,-37.2951 140.225,-44.8154 137.373,-41.0481 137.351,-44.798 136.851,-44.795 136.351,-44.792 136.373,-41.042 133.476,-44.7746 136.896,-37.2951 136.896,-37.2951"/>
<text text-anchor="middle" x="149" y="-101.1" font-family="FreeSans" font-size="8.00" fill="#2e3436">knows</text>
</g>
<!-- N4 -->
<g id="node5" class="node"><title>N4</title>
<path fill="#ffffff" stroke="#2e3436" stroke-width="1.5" d="M205,-85C205,-85 239,-85 239,-85 245,-85 251,-91 251,-97 251,-97 251,-109 251,-109 251,-115 245,-121 239,-121 239,-121 205,-121 205,-121 199,-121 193,-115 193,-109 193,-109 193,-97 193,-97 193,-91 199,-85 205,-85"/>
<text text-anchor="start" x="201" y="-101.1" font-family="FreeSans" font-size="8.00" fill="#1c2021">name = &#39;Jill&#39;</text>
</g>
<!-- N1&#45;&gt;N4 -->
<g id="edge3" class="edge"><title>N1&#45;&gt;N4</title>
<path fill="none" stroke="#2e3436" stroke-width="2" d="M154.238,-168.61C167.095,-156.351 184.431,-139.821 198.35,-126.55"/>
<polygon fill="#2e3436" stroke="#2e3436" stroke-width="2" points="204.083,-121.084 200.984,-128.702 201.714,-124.034 199,-126.621 198.655,-126.259 198.31,-125.898 201.024,-123.31 196.326,-123.817 204.083,-121.084 204.083,-121.084"/>
<text text-anchor="middle" x="196" y="-143.1" font-family="FreeSans" font-size="8.00" fill="#2e3436">knows</text>
</g>
<!-- N5 -->
<g id="node6" class="node"><title>N5</title>
<path fill="#ffffff" stroke="#2e3436" stroke-width="1.5" d="M62,-253C62,-253 100,-253 100,-253 106,-253 112,-259 112,-265 112,-265 112,-277 112,-277 112,-283 106,-289 100,-289 100,-289 62,-289 62,-289 56,-289 50,-283 50,-277 50,-277 50,-265 50,-265 50,-259 56,-253 62,-253"/>
<text text-anchor="start" x="58" y="-269.1" font-family="FreeSans" font-size="8.00" fill="#1c2021">name = &#39;Joe&#39;</text>
</g>
<!-- N5&#45;&gt;N0 -->
<g id="edge7" class="edge"><title>N5&#45;&gt;N0</title>
<path fill="none" stroke="#2e3436" stroke-width="2" d="M75.8453,-252.742C72.1592,-239.933 67.2884,-221.99 64,-206 58.5971,-179.727 54.3797,-149.262 51.8112,-128.515"/>
<polygon fill="#2e3436" stroke="#2e3436" stroke-width="2" points="50.9086,-121.068 55.1617,-128.108 51.8562,-124.731 52.3076,-128.454 51.8112,-128.514 51.3148,-128.574 50.8635,-124.851 48.4607,-128.92 50.9086,-121.068 50.9086,-121.068"/>
<text text-anchor="middle" x="76" y="-185.1" font-family="FreeSans" font-size="8.00" fill="#2e3436">knows</text>
</g>
<!-- N5&#45;&gt;N1 -->
<g id="edge6" class="edge"><title>N5&#45;&gt;N1</title>
<path fill="none" stroke="#2e3436" stroke-width="2" d="M92.6641,-252.61C100.666,-240.68 111.382,-224.704 120.155,-211.623"/>
<polygon fill="#2e3436" stroke="#2e3436" stroke-width="2" points="124.541,-205.084 123.166,-213.193 122.868,-208.477 120.779,-211.591 120.364,-211.313 119.948,-211.034 122.037,-207.92 117.561,-209.433 124.541,-205.084 124.541,-205.084"/>
<text text-anchor="middle" x="124" y="-227.1" font-family="FreeSans" font-size="8.00" fill="#2e3436">knows</text>
</g>
</g>
</svg>
