<?xml version="1.0" encoding="UTF-8" standalone="no"?>
<!DOCTYPE svg PUBLIC "-//W3C//DTD SVG 1.1//EN"
 "http://www.w3.org/Graphics/SVG/1.1/DTD/svg11.dtd">
<!-- Generated by graphviz version 2.36.0 (20140111.2315)
 -->
<!-- Title: g Pages: 1 -->
<svg width="492pt" height="342pt"
 viewBox="0.00 0.00 492.00 342.00" xmlns="http://www.w3.org/2000/svg" xmlns:xlink="http://www.w3.org/1999/xlink">
<g id="graph0" class="graph" transform="scale(1 1) rotate(0) translate(4 338)">
<title>g</title>
<polygon fill="white" stroke="none" points="-4,4 -4,-338 488,-338 488,4 -4,4"/>
<!-- N0 -->
<g id="node1" class="node"><title>N0</title>
<path fill="#ffffff" stroke="#2e3436" stroke-width="1.5" d="M321.5,-297C321.5,-297 384.5,-297 384.5,-297 390.5,-297 396.5,-303 396.5,-309 396.5,-309 396.5,-321 396.5,-321 396.5,-327 390.5,-333 384.5,-333 384.5,-333 321.5,-333 321.5,-333 315.5,-333 309.5,-327 309.5,-321 309.5,-321 309.5,-309 309.5,-309 309.5,-303 315.5,-297 321.5,-297"/>
<text text-anchor="start" x="317.5" y="-313.1" font-family="FreeSans" font-size="8.00" fill="#1c2021">name = &#39;Clark Kent&#39;</text>
</g>
<!-- N2 -->
<g id="node2" class="node"><title>N2</title>
<path fill="#ffffff" stroke="#2e3436" stroke-width="1.5" d="M317.5,-205C317.5,-205 388.5,-205 388.5,-205 394.5,-205 400.5,-211 400.5,-217 400.5,-217 400.5,-229 400.5,-229 400.5,-235 394.5,-241 388.5,-241 388.5,-241 317.5,-241 317.5,-241 311.5,-241 305.5,-235 305.5,-229 305.5,-229 305.5,-217 305.5,-217 305.5,-211 311.5,-205 317.5,-205"/>
<text text-anchor="start" x="313.5" y="-221.1" font-family="FreeSans" font-size="8.00" fill="#1c2021">name = &#39;Jimmy Olsen&#39;</text>
</g>
<!-- N0&#45;&gt;N2 -->
<g id="edge1" class="edge"><title>N0&#45;&gt;N2</title>
<path fill="none" stroke="#2e3436" stroke-width="2" d="M353,-296.647C353,-283.076 353,-264.027 353,-248.84"/>
<polygon fill="#2e3436" stroke="#2e3436" stroke-width="2" points="353,-241.3 356.375,-248.8 353.5,-245.05 353.5,-248.8 353,-248.8 352.5,-248.8 352.5,-245.05 349.625,-248.8 353,-241.3 353,-241.3"/>
<text text-anchor="middle" x="371.5" y="-271.6" font-family="FreeSans" font-size="8.00" fill="#2e3436">KNOWS</text>
<text text-anchor="start" x="353" y="-262.6" font-family="FreeSans" font-size="8.00" fill="#2e3436">weight = 4</text>
</g>
<!-- N1 -->
<g id="node3" class="node"><title>N1</title>
<path fill="#ffffff" stroke="#2e3436" stroke-width="1.5" d="M180.5,-205C180.5,-205 239.5,-205 239.5,-205 245.5,-205 251.5,-211 251.5,-217 251.5,-217 251.5,-229 251.5,-229 251.5,-235 245.5,-241 239.5,-241 239.5,-241 180.5,-241 180.5,-241 174.5,-241 168.5,-235 168.5,-229 168.5,-229 168.5,-217 168.5,-217 168.5,-211 174.5,-205 180.5,-205"/>
<text text-anchor="start" x="176.5" y="-221.1" font-family="FreeSans" font-size="8.00" fill="#1c2021">name = &#39;Lois Lane&#39;</text>
</g>
<!-- N0&#45;&gt;N1 -->
<g id="edge2" class="edge"><title>N0&#45;&gt;N1</title>
<path fill="none" stroke="#2e3436" stroke-width="2" d="M325.766,-296.86C302.408,-282.159 268.659,-260.919 243.622,-245.161"/>
<polygon fill="#2e3436" stroke="#2e3436" stroke-width="2" points="237.132,-241.076 245.278,-242.215 240.572,-242.651 243.746,-244.648 243.48,-245.071 243.214,-245.494 240.04,-243.497 241.682,-247.928 237.132,-241.076 237.132,-241.076"/>
<text text-anchor="middle" x="313.5" y="-271.6" font-family="FreeSans" font-size="8.00" fill="#2e3436">KNOWS</text>
<text text-anchor="start" x="295" y="-262.6" font-family="FreeSans" font-size="8.00" fill="#2e3436">weight = 4</text>
</g>
<!-- N5 -->
<g id="node4" class="node"><title>N5</title>
<path fill="#ffffff" stroke="#2e3436" stroke-width="1.5" d="M325.5,-1C325.5,-1 392.5,-1 392.5,-1 398.5,-1 404.5,-7 404.5,-13 404.5,-13 404.5,-25 404.5,-25 404.5,-31 398.5,-37 392.5,-37 392.5,-37 325.5,-37 325.5,-37 319.5,-37 313.5,-31 313.5,-25 313.5,-25 313.5,-13 313.5,-13 313.5,-7 319.5,-1 325.5,-1"/>
<text text-anchor="start" x="321.5" y="-17.1" font-family="FreeSans" font-size="8.00" fill="#1c2021">name = &#39;Daily Planet&#39;</text>
</g>
<!-- N0&#45;&gt;N5 -->
<g id="edge3" class="edge"><title>N0&#45;&gt;N5</title>
<path fill="none" stroke="#4e9a06" stroke-width="2" d="M378.069,-296.681C384.783,-291.238 391.653,-284.845 397,-278 436.546,-227.373 432.004,-203.742 440,-140 442.102,-123.242 445.715,-117.892 440,-102 431.026,-77.0465 420.689,-74.8127 402,-56 397.364,-51.3334 392.18,-46.6225 387.06,-42.2158"/>
<polygon fill="#4e9a06" stroke="#4e9a06" stroke-width="2" points="381.116,-37.2032 389.025,-39.4581 384.305,-39.2385 387.172,-41.656 386.85,-42.0382 386.527,-42.4204 383.66,-40.0029 384.674,-44.6183 381.116,-37.2032 381.116,-37.2032"/>
<text text-anchor="middle" x="461" y="-179.1" font-family="FreeSans" font-size="8.00" fill="#4e9a06">WORKS_AT</text>
<text text-anchor="start" x="438" y="-170.1" font-family="FreeSans" font-size="8.00" fill="#4e9a06">weight = 2</text>
<text text-anchor="start" x="438" y="-161.1" font-family="FreeSans" font-size="8.00" fill="#4e9a06">activity = 45</text>
</g>
<!-- N2&#45;&gt;N5 -->
<g id="edge8" class="edge"><title>N2&#45;&gt;N5</title>
<path fill="none" stroke="#4e9a06" stroke-width="2" d="M365.337,-204.852C368.8,-199.13 372.129,-192.539 374,-186 389.901,-130.437 390.278,-112.247 377,-56 376.08,-52.1044 374.671,-48.1498 373.037,-44.3575"/>
<polygon fill="#4e9a06" stroke="#4e9a06" stroke-width="2" points="369.689,-37.3233 375.96,-42.6443 371.752,-40.4942 373.364,-43.8801 372.912,-44.0951 372.461,-44.31 370.849,-40.9241 369.865,-45.5458 369.689,-37.3233 369.689,-37.3233"/>
<text text-anchor="middle" x="410" y="-128.1" font-family="FreeSans" font-size="8.00" fill="#4e9a06">WORKS_AT</text>
<text text-anchor="start" x="387" y="-119.1" font-family="FreeSans" font-size="8.00" fill="#4e9a06">weight = 2</text>
<text text-anchor="start" x="387" y="-110.1" font-family="FreeSans" font-size="8.00" fill="#4e9a06">activity = 10</text>
</g>
<!-- N3 -->
<g id="node6" class="node"><title>N3</title>
<path fill="#ffffff" stroke="#2e3436" stroke-width="1.5" d="M258.5,-103C258.5,-103 325.5,-103 325.5,-103 331.5,-103 337.5,-109 337.5,-115 337.5,-115 337.5,-127 337.5,-127 337.5,-133 331.5,-139 325.5,-139 325.5,-139 258.5,-139 258.5,-139 252.5,-139 246.5,-133 246.5,-127 246.5,-127 246.5,-115 246.5,-115 246.5,-109 252.5,-103 258.5,-103"/>
<text text-anchor="start" x="254.5" y="-119.1" font-family="FreeSans" font-size="8.00" fill="#1c2021">name = &#39;Perry White&#39;</text>
</g>
<!-- N2&#45;&gt;N3 -->
<g id="edge7" class="edge"><title>N2&#45;&gt;N3</title>
<path fill="none" stroke="#2e3436" stroke-width="2" d="M342.375,-204.581C332.491,-188.378 317.674,-164.089 306.666,-146.042"/>
<polygon fill="#2e3436" stroke="#2e3436" stroke-width="2" points="302.504,-139.219 309.291,-143.864 304.883,-142.16 306.836,-145.361 306.409,-145.622 305.983,-145.882 304.03,-142.681 303.528,-147.379 302.504,-139.219 302.504,-139.219"/>
<text text-anchor="middle" x="348.5" y="-174.6" font-family="FreeSans" font-size="8.00" fill="#2e3436">KNOWS</text>
<text text-anchor="start" x="330" y="-165.6" font-family="FreeSans" font-size="8.00" fill="#2e3436">weight = 4</text>
</g>
<!-- N1&#45;&gt;N5 -->
<g id="edge6" class="edge"><title>N1&#45;&gt;N5</title>
<path fill="none" stroke="#4e9a06" stroke-width="2" d="M203.378,-204.724C197.477,-188.345 189.283,-162.906 186,-140 180.309,-100.295 185.897,-78.6514 219,-56 244.558,-38.5116 278.005,-29.5183 305.798,-24.8939"/>
<polygon fill="#4e9a06" stroke="#4e9a06" stroke-width="2" points="313.476,-23.702 306.583,-28.1877 309.847,-24.7714 306.141,-25.3467 306.065,-24.8526 305.988,-24.3585 309.694,-23.7832 305.547,-21.5175 313.476,-23.702 313.476,-23.702"/>
<text text-anchor="middle" x="209" y="-128.1" font-family="FreeSans" font-size="8.00" fill="#4e9a06">WORKS_AT</text>
<text text-anchor="start" x="186" y="-119.1" font-family="FreeSans" font-size="8.00" fill="#4e9a06">weight = 2</text>
<text text-anchor="start" x="186" y="-110.1" font-family="FreeSans" font-size="8.00" fill="#4e9a06">activity = 56</text>
</g>
<!-- N4 -->
<g id="node5" class="node"><title>N4</title>
<path fill="#ffffff" stroke="#2e3436" stroke-width="1.5" d="M11.5,-103C11.5,-103 100.5,-103 100.5,-103 106.5,-103 112.5,-109 112.5,-115 112.5,-115 112.5,-127 112.5,-127 112.5,-133 106.5,-139 100.5,-139 100.5,-139 11.5,-139 11.5,-139 5.5,-139 -0.5,-133 -0.5,-127 -0.5,-127 -0.5,-115 -0.5,-115 -0.5,-109 5.5,-103 11.5,-103"/>
<text text-anchor="start" x="7.5" y="-119.1" font-family="FreeSans" font-size="8.00" fill="#1c2021">name = &#39;Anderson Cooper&#39;</text>
</g>
<!-- N1&#45;&gt;N4 -->
<g id="edge4" class="edge"><title>N1&#45;&gt;N4</title>
<path fill="none" stroke="#2e3436" stroke-width="2" d="M168.228,-211.708C149.954,-205.972 128.881,-197.599 112,-186 96.2094,-175.15 82.0383,-158.856 71.9022,-145.424"/>
<polygon fill="#2e3436" stroke="#2e3436" stroke-width="2" points="67.261,-139.096 74.4183,-143.148 69.8821,-141.824 72.1001,-144.848 71.6969,-145.144 71.2937,-145.44 69.0758,-142.416 68.9755,-147.14 67.261,-139.096 67.261,-139.096"/>
<text text-anchor="middle" x="130.5" y="-174.6" font-family="FreeSans" font-size="8.00" fill="#2e3436">KNOWS</text>
<text text-anchor="start" x="112" y="-165.6" font-family="FreeSans" font-size="8.00" fill="#2e3436">weight = 4</text>
</g>
<!-- N1&#45;&gt;N3 -->
<g id="edge5" class="edge"><title>N1&#45;&gt;N3</title>
<path fill="none" stroke="#2e3436" stroke-width="2" d="M224.283,-204.581C237.805,-188.091 258.194,-163.226 273.066,-145.09"/>
<polygon fill="#2e3436" stroke="#2e3436" stroke-width="2" points="277.88,-139.219 275.735,-147.159 275.889,-142.436 273.511,-145.336 273.125,-145.019 272.738,-144.702 275.116,-141.802 270.515,-142.879 277.88,-139.219 277.88,-139.219"/>
<text text-anchor="middle" x="279.5" y="-174.6" font-family="FreeSans" font-size="8.00" fill="#2e3436">KNOWS</text>
<text text-anchor="start" x="261" y="-165.6" font-family="FreeSans" font-size="8.00" fill="#2e3436">weight = 4</text>
</g>
<!-- N6 -->
<g id="node7" class="node"><title>N6</title>
<path fill="#ffffff" stroke="#2e3436" stroke-width="1.5" d="M163.5,-1C163.5,-1 206.5,-1 206.5,-1 212.5,-1 218.5,-7 218.5,-13 218.5,-13 218.5,-25 218.5,-25 218.5,-31 212.5,-37 206.5,-37 206.5,-37 163.5,-37 163.5,-37 157.5,-37 151.5,-31 151.5,-25 151.5,-25 151.5,-13 151.5,-13 151.5,-7 157.5,-1 163.5,-1"/>
<text text-anchor="start" x="159.5" y="-17.1" font-family="FreeSans" font-size="8.00" fill="#1c2021">name = &#39;CNN&#39;</text>
</g>
<!-- N4&#45;&gt;N6 -->
<g id="edge11" class="edge"><title>N4&#45;&gt;N6</title>
<path fill="none" stroke="#4e9a06" stroke-width="2" d="M65.2013,-102.819C73.5006,-88.6805 86.8633,-68.9303 103,-56 115.088,-46.3136 130.188,-38.714 144.124,-33.0441"/>
<polygon fill="#4e9a06" stroke="#4e9a06" stroke-width="2" points="151.283,-30.2541 145.52,-36.1221 147.971,-32.0817 144.477,-33.4433 144.295,-32.9774 144.113,-32.5116 147.607,-31.1499 143.069,-29.8328 151.283,-30.2541 151.283,-30.2541"/>
<text text-anchor="middle" x="126" y="-77.1" font-family="FreeSans" font-size="8.00" fill="#4e9a06">WORKS_AT</text>
<text text-anchor="start" x="103" y="-68.1" font-family="FreeSans" font-size="8.00" fill="#4e9a06">weight = 2</text>
<text text-anchor="start" x="103" y="-59.1" font-family="FreeSans" font-size="8.00" fill="#4e9a06">activity = 2</text>
</g>
<!-- N3&#45;&gt;N5 -->
<g id="edge10" class="edge"><title>N3&#45;&gt;N5</title>
<path fill="none" stroke="#4e9a06" stroke-width="2" d="M300.448,-102.873C307.246,-89.656 317.386,-71.1337 328,-56 331.055,-51.6446 334.538,-47.1986 338.04,-42.9842"/>
<polygon fill="#4e9a06" stroke="#4e9a06" stroke-width="2" points="343.137,-37.0127 340.835,-44.9085 341.083,-40.1897 338.648,-43.0421 338.268,-42.7175 337.887,-42.3929 340.322,-39.5405 335.701,-40.5265 343.137,-37.0127 343.137,-37.0127"/>
<text text-anchor="middle" x="351" y="-77.1" font-family="FreeSans" font-size="8.00" fill="#4e9a06">WORKS_AT</text>
<text text-anchor="start" x="328" y="-68.1" font-family="FreeSans" font-size="8.00" fill="#4e9a06">weight = 2</text>
<text text-anchor="start" x="328" y="-59.1" font-family="FreeSans" font-size="8.00" fill="#4e9a06">activity = 6</text>
</g>
<!-- N3&#45;&gt;N6 -->
<g id="edge9" class="edge"><title>N3&#45;&gt;N6</title>
<path fill="none" stroke="#4e9a06" stroke-width="2" d="M273.362,-102.581C255.564,-85.9477 228.649,-60.7933 209.202,-42.6183"/>
<polygon fill="#4e9a06" stroke="#4e9a06" stroke-width="2" points="203.424,-37.2191 211.208,-39.8743 206.506,-39.4143 209.245,-41.9748 208.904,-42.3401 208.563,-42.7054 205.823,-40.1449 206.599,-44.8059 203.424,-37.2191 203.424,-37.2191"/>
<text text-anchor="middle" x="275" y="-77.1" font-family="FreeSans" font-size="8.00" fill="#4e9a06">WORKS_AT</text>
<text text-anchor="start" x="252" y="-68.1" font-family="FreeSans" font-size="8.00" fill="#4e9a06">weight = 2</text>
<text text-anchor="start" x="252" y="-59.1" font-family="FreeSans" font-size="8.00" fill="#4e9a06">activity = 3</text>
</g>
</g>
</svg>
