<?xml version="1.0" encoding="UTF-8" standalone="no"?>
<!DOCTYPE svg PUBLIC "-//W3C//DTD SVG 1.1//EN"
 "http://www.w3.org/Graphics/SVG/1.1/DTD/svg11.dtd">
<!-- Generated by graphviz version 2.36.0 (20140111.2315)
 -->
<!-- Title: g Pages: 1 -->
<svg width="432pt" height="130pt"
 viewBox="0.00 0.00 432.00 130.00" xmlns="http://www.w3.org/2000/svg" xmlns:xlink="http://www.w3.org/1999/xlink">
<g id="graph0" class="graph" transform="scale(1 1) rotate(0) translate(4 126)">
<title>g</title>
<polygon fill="white" stroke="none" points="-4,4 -4,-126 428,-126 428,4 -4,4"/>
<!-- N0 -->
<g id="node1" class="node"><title>N0</title>
<path fill="#ffffff" stroke="#2e3436" stroke-width="1.5" d="M24,-1C24,-1 94,-1 94,-1 100,-1 106,-7 106,-13 106,-13 106,-25 106,-25 106,-31 100,-37 94,-37 94,-37 24,-37 24,-37 18,-37 12,-31 12,-25 12,-25 12,-13 12,-13 12,-7 18,-1 24,-1"/>
<text text-anchor="start" x="20" y="-17.1" font-family="FreeSans" font-size="8.00" fill="#1c2021">Node[0]name = &#39;Pet1&#39;</text>
</g>
<!-- N1 -->
<g id="node2" class="node"><title>N1</title>
<path fill="#ffffff" stroke="#2e3436" stroke-width="1.5" d="M280,-1C280,-1 350,-1 350,-1 356,-1 362,-7 362,-13 362,-13 362,-25 362,-25 362,-31 356,-37 350,-37 350,-37 280,-37 280,-37 274,-37 268,-31 268,-25 268,-25 268,-13 268,-13 268,-7 274,-1 280,-1"/>
<text text-anchor="start" x="276" y="-17.1" font-family="FreeSans" font-size="8.00" fill="#1c2021">Node[1]name = &#39;Pet2&#39;</text>
</g>
<!-- N2 -->
<g id="node3" class="node"><title>N2</title>
<path fill="#ffffff" stroke="#2e3436" stroke-width="1.5" d="M179,-85C179,-85 249,-85 249,-85 255,-85 261,-91 261,-97 261,-97 261,-109 261,-109 261,-115 255,-121 249,-121 249,-121 179,-121 179,-121 173,-121 167,-115 167,-109 167,-109 167,-97 167,-97 167,-91 173,-85 179,-85"/>
<text text-anchor="start" x="175" y="-101.1" font-family="FreeSans" font-size="8.00" fill="#1c2021">Node[2]name = &#39;Pet0&#39;</text>
</g>
<!-- N2&#45;&gt;N0 -->
<g id="edge3" class="edge"><title>N2&#45;&gt;N0</title>
<path fill="none" stroke="#2e3436" stroke-width="2" d="M181.507,-84.8101C157.142,-71.9201 123.694,-54.225 97.9031,-40.581"/>
<polygon fill="#2e3436" stroke="#2e3436" stroke-width="2" points="91.1845,-37.0266 99.3922,-37.5506 94.733,-38.3383 98.0477,-40.0919 97.8139,-40.5339 97.5801,-40.9758 94.2654,-39.2222 96.2357,-43.5171 91.1845,-37.0266 91.1845,-37.0266"/>
<text text-anchor="middle" x="167.5" y="-59.1" font-family="FreeSans" font-size="8.00" fill="#2e3436">descendant</text>
</g>
<!-- N2&#45;&gt;N1 -->
<g id="edge2" class="edge"><title>N2&#45;&gt;N1</title>
<path fill="none" stroke="#2e3436" stroke-width="2" d="M235.42,-84.6099C250.788,-72.1325 271.607,-55.2297 288.097,-41.8423"/>
<polygon fill="#2e3436" stroke="#2e3436" stroke-width="2" points="293.958,-37.0838 290.262,-44.4313 291.362,-39.8357 288.45,-42.1993 288.135,-41.8112 287.82,-41.423 290.731,-39.0593 286.008,-39.191 293.958,-37.0838 293.958,-37.0838"/>
<text text-anchor="middle" x="292.5" y="-59.1" font-family="FreeSans" font-size="8.00" fill="#2e3436">descendant</text>
</g>
<!-- N3 -->
<g id="node4" class="node"><title>N3</title>
<path fill="#ffffff" stroke="#2e3436" stroke-width="1.5" d="M154,-1C154,-1 224,-1 224,-1 230,-1 236,-7 236,-13 236,-13 236,-25 236,-25 236,-31 230,-37 224,-37 224,-37 154,-37 154,-37 148,-37 142,-31 142,-25 142,-25 142,-13 142,-13 142,-7 148,-1 154,-1"/>
<text text-anchor="start" x="150" y="-17.1" font-family="FreeSans" font-size="8.00" fill="#1c2021">Node[3]name = &#39;Pet3&#39;</text>
</g>
<!-- N2&#45;&gt;N3 -->
<g id="edge1" class="edge"><title>N2&#45;&gt;N3</title>
<path fill="none" stroke="#2e3436" stroke-width="2" d="M208.698,-84.6099C205.128,-72.8987 200.369,-57.2888 196.423,-44.3463"/>
<polygon fill="#2e3436" stroke="#2e3436" stroke-width="2" points="194.208,-37.0838 199.624,-43.2736 195.78,-40.525 196.874,-44.112 196.396,-44.2578 195.917,-44.4037 194.824,-40.8167 193.167,-45.2421 194.208,-37.0838 194.208,-37.0838"/>
<text text-anchor="middle" x="224.5" y="-59.1" font-family="FreeSans" font-size="8.00" fill="#2e3436">descendant</text>
</g>
<!-- N4 -->
<g id="node5" class="node"><title>N4</title>
<path fill="#ffffff" stroke="#2e3436" stroke-width="1.5" d="M11.5,-85C11.5,-85 100.5,-85 100.5,-85 106.5,-85 112.5,-91 112.5,-97 112.5,-97 112.5,-109 112.5,-109 112.5,-115 106.5,-121 100.5,-121 100.5,-121 11.5,-121 11.5,-121 5.5,-121 -0.5,-115 -0.5,-109 -0.5,-109 -0.5,-97 -0.5,-97 -0.5,-91 5.5,-85 11.5,-85"/>
<text text-anchor="start" x="7.5" y="-101.1" font-family="FreeSans" font-size="8.00" fill="#1c2021">Node[4]name = &#39;Principal1&#39;</text>
</g>
<!-- N4&#45;&gt;N0 -->
<g id="edge5" class="edge"><title>N4&#45;&gt;N0</title>
<path fill="none" stroke="#4e9a06" stroke-width="2" d="M37.3262,-84.8372C30.5441,-76.4919 25.3432,-66.1002 29,-56 30.6358,-51.4819 33.1136,-47.1323 35.9579,-43.114"/>
<polygon fill="#4e9a06" stroke="#4e9a06" stroke-width="2" points="40.6608,-37.0956 38.7022,-45.0834 38.7458,-40.3583 36.4368,-43.3132 36.0428,-43.0053 35.6488,-42.6975 37.9578,-39.7426 33.3834,-40.9272 40.6608,-37.0956 40.6608,-37.0956"/>
<text text-anchor="middle" x="38.5" y="-59.1" font-family="FreeSans" font-size="8.00" fill="#4e9a06">owns</text>
</g>
<!-- N4&#45;&gt;N3 -->
<g id="edge4" class="edge"><title>N4&#45;&gt;N3</title>
<path fill="none" stroke="#4e9a06" stroke-width="2" d="M62.2105,-84.6087C66.4473,-74.9783 72.9473,-63.4783 82,-56 90.5867,-48.9066 112.638,-41.016 134.507,-34.4342"/>
<polygon fill="#4e9a06" stroke="#4e9a06" stroke-width="2" points="141.897,-32.2553 135.657,-37.6138 138.441,-33.7955 134.844,-34.8561 134.703,-34.3766 134.561,-33.897 138.158,-32.8364 133.748,-31.1393 141.897,-32.2553 141.897,-32.2553"/>
<text text-anchor="middle" x="91.5" y="-59.1" font-family="FreeSans" font-size="8.00" fill="#4e9a06">owns</text>
</g>
<!-- N5 -->
<g id="node6" class="node"><title>N5</title>
<path fill="#ffffff" stroke="#2e3436" stroke-width="1.5" d="M323.5,-85C323.5,-85 412.5,-85 412.5,-85 418.5,-85 424.5,-91 424.5,-97 424.5,-97 424.5,-109 424.5,-109 424.5,-115 418.5,-121 412.5,-121 412.5,-121 323.5,-121 323.5,-121 317.5,-121 311.5,-115 311.5,-109 311.5,-109 311.5,-97 311.5,-97 311.5,-91 317.5,-85 323.5,-85"/>
<text text-anchor="start" x="319.5" y="-101.1" font-family="FreeSans" font-size="8.00" fill="#1c2021">Node[5]name = &#39;Principal2&#39;</text>
</g>
<!-- N5&#45;&gt;N1 -->
<g id="edge6" class="edge"><title>N5&#45;&gt;N1</title>
<path fill="none" stroke="#4e9a06" stroke-width="2" d="M356.76,-84.6099C349.049,-72.6798 338.723,-56.7039 330.269,-43.6234"/>
<polygon fill="#4e9a06" stroke="#4e9a06" stroke-width="2" points="326.042,-37.0838 332.948,-41.5506 328.498,-39.9619 330.533,-43.1113 330.113,-43.3827 329.693,-43.6541 327.658,-40.5047 327.279,-45.2148 326.042,-37.0838 326.042,-37.0838"/>
<text text-anchor="middle" x="353.5" y="-59.1" font-family="FreeSans" font-size="8.00" fill="#4e9a06">owns</text>
</g>
</g>
</svg>
