<?xml version="1.0" encoding="UTF-8" standalone="no"?>
<!DOCTYPE svg PUBLIC "-//W3C//DTD SVG 1.1//EN"
 "http://www.w3.org/Graphics/SVG/1.1/DTD/svg11.dtd">
<!-- Generated by graphviz version 2.36.0 (20140111.2315)
 -->
<!-- Title: g Pages: 1 -->
<svg width="308pt" height="130pt"
 viewBox="0.00 0.00 308.00 130.00" xmlns="http://www.w3.org/2000/svg" xmlns:xlink="http://www.w3.org/1999/xlink">
<g id="graph0" class="graph" transform="scale(1 1) rotate(0) translate(4 126)">
<title>g</title>
<polygon fill="white" stroke="none" points="-4,4 -4,-126 304,-126 304,4 -4,4"/>
<!-- N90 -->
<g id="node1" class="node"><title>N90</title>
<path fill="#ffffff" stroke="#2e3436" stroke-width="1.5" d="M12,-1C12,-1 88,-1 88,-1 94,-1 100,-7 100,-13 100,-13 100,-25 100,-25 100,-31 94,-37 88,-37 88,-37 12,-37 12,-37 6,-37 0,-31 0,-25 0,-25 0,-13 0,-13 0,-7 6,-1 12,-1"/>
<text text-anchor="start" x="8" y="-17.1" font-family="FreeSans" font-size="8.00" fill="#1c2021">Node[90]name = &#39;John&#39;</text>
</g>
<!-- N91 -->
<g id="node2" class="node"><title>N91</title>
<path fill="#ffffff" stroke="#2e3436" stroke-width="1.5" d="M23.5,-85C23.5,-85 76.5,-85 76.5,-85 82.5,-85 88.5,-91 88.5,-97 88.5,-97 88.5,-109 88.5,-109 88.5,-115 82.5,-121 76.5,-121 76.5,-121 23.5,-121 23.5,-121 17.5,-121 11.5,-115 11.5,-109 11.5,-109 11.5,-97 11.5,-97 11.5,-91 17.5,-85 23.5,-85"/>
<text text-anchor="start" x="19.5" y="-101.1" font-family="FreeSans" font-size="8.00" fill="#1c2021">Node[91]age = 1</text>
</g>
<!-- N91&#45;&gt;N90 -->
<g id="edge1" class="edge"><title>N91&#45;&gt;N90</title>
<path fill="none" stroke="#2e3436" stroke-width="2" d="M50,-84.6099C50,-73.0081 50,-57.5802 50,-44.7099"/>
<polygon fill="#2e3436" stroke="#2e3436" stroke-width="2" points="50,-37.0838 53.3751,-44.5838 50.5,-40.8338 50.5001,-44.5838 50.0001,-44.5838 49.5001,-44.5838 49.5,-40.8338 46.6251,-44.5839 50,-37.0838 50,-37.0838"/>
<text text-anchor="middle" x="62" y="-59.1" font-family="FreeSans" font-size="8.00" fill="#2e3436">knows</text>
</g>
<!-- N92 -->
<g id="node3" class="node"><title>N92</title>
<path fill="#ffffff" stroke="#2e3436" stroke-width="1.5" d="M129.5,-85C129.5,-85 182.5,-85 182.5,-85 188.5,-85 194.5,-91 194.5,-97 194.5,-97 194.5,-109 194.5,-109 194.5,-115 188.5,-121 182.5,-121 182.5,-121 129.5,-121 129.5,-121 123.5,-121 117.5,-115 117.5,-109 117.5,-109 117.5,-97 117.5,-97 117.5,-91 123.5,-85 129.5,-85"/>
<text text-anchor="start" x="125.5" y="-101.1" font-family="FreeSans" font-size="8.00" fill="#1c2021">Node[92]age = 1</text>
</g>
<!-- N93 -->
<g id="node4" class="node"><title>N93</title>
<path fill="#ffffff" stroke="#2e3436" stroke-width="1.5" d="M235.5,-85C235.5,-85 288.5,-85 288.5,-85 294.5,-85 300.5,-91 300.5,-97 300.5,-97 300.5,-109 300.5,-109 300.5,-115 294.5,-121 288.5,-121 288.5,-121 235.5,-121 235.5,-121 229.5,-121 223.5,-115 223.5,-109 223.5,-109 223.5,-97 223.5,-97 223.5,-91 229.5,-85 235.5,-85"/>
<text text-anchor="start" x="231.5" y="-101.1" font-family="FreeSans" font-size="8.00" fill="#1c2021">Node[93]age = 1</text>
</g>
</g>
</svg>
