<?xml version="1.0" encoding="UTF-8" standalone="no"?>
<!DOCTYPE svg PUBLIC "-//W3C//DTD SVG 1.1//EN"
 "http://www.w3.org/Graphics/SVG/1.1/DTD/svg11.dtd">
<!-- Generated by graphviz version 2.36.0 (20140111.2315)
 -->
<!-- Title: g Pages: 1 -->
<svg width="106pt" height="138pt"
 viewBox="0.00 0.00 106.00 138.00" xmlns="http://www.w3.org/2000/svg" xmlns:xlink="http://www.w3.org/1999/xlink">
<g id="graph0" class="graph" transform="scale(1 1) rotate(0) translate(4 134)">
<title>g</title>
<polygon fill="white" stroke="none" points="-4,4 -4,-134 102,-134 102,4 -4,4"/>
<!-- N19 -->
<g id="node1" class="node"><title>N19</title>
<path fill="#ffffff" stroke="#2e3436" stroke-width="1.5" d="M11.5,-1C11.5,-1 86.5,-1 86.5,-1 92.5,-1 98.5,-7 98.5,-13 98.5,-13 98.5,-25 98.5,-25 98.5,-31 92.5,-37 86.5,-37 86.5,-37 11.5,-37 11.5,-37 5.5,-37 -0.5,-31 -0.5,-25 -0.5,-25 -0.5,-13 -0.5,-13 -0.5,-7 5.5,-1 11.5,-1"/>
<text text-anchor="start" x="7.5" y="-17.1" font-family="FreeSans" font-size="8.00" fill="#1c2021">Node[19]name = &#39;Sara&#39;</text>
</g>
<!-- N20 -->
<g id="node2" class="node"><title>N20</title>
<path fill="#ffffff" stroke="#2e3436" stroke-width="1.5" d="M13.5,-93C13.5,-93 84.5,-93 84.5,-93 90.5,-93 96.5,-99 96.5,-105 96.5,-105 96.5,-117 96.5,-117 96.5,-123 90.5,-129 84.5,-129 84.5,-129 13.5,-129 13.5,-129 7.5,-129 1.5,-123 1.5,-117 1.5,-117 1.5,-105 1.5,-105 1.5,-99 7.5,-93 13.5,-93"/>
<text text-anchor="start" x="9.5" y="-109.1" font-family="FreeSans" font-size="8.00" fill="#1c2021">Node[20]name = &#39;Joe&#39;</text>
</g>
<!-- N20&#45;&gt;N19 -->
<g id="edge1" class="edge"><title>N20&#45;&gt;N19</title>
<path fill="none" stroke="#2e3436" stroke-width="2" d="M30.0591,-92.9981C25.1818,-87.4745 20.5834,-80.9591 18,-74 15.2159,-66.5001 15.2159,-63.4999 18,-56 19.6953,-51.4331 22.2585,-47.0573 25.1988,-43.0274"/>
<polygon fill="#2e3436" stroke="#2e3436" stroke-width="2" points="30.0591,-37.0019 27.9773,-44.9584 28.0939,-40.2346 25.7395,-43.1534 25.3503,-42.8395 24.9612,-42.5256 27.3156,-39.6068 22.7234,-40.7205 30.0591,-37.0019 30.0591,-37.0019"/>
<text text-anchor="middle" x="30" y="-63.1" font-family="FreeSans" font-size="8.00" fill="#2e3436">knows</text>
</g>
<!-- N20&#45;&gt;N19 -->
<g id="edge2" class="edge"><title>N20&#45;&gt;N19</title>
<path fill="none" stroke="#4e9a06" stroke-width="2" d="M49,-92.6471C49,-79.0758 49,-60.027 49,-44.84"/>
<polygon fill="#4e9a06" stroke="#4e9a06" stroke-width="2" points="49,-37.2996 52.3751,-44.7996 49.5,-41.0496 49.5001,-44.7996 49.0001,-44.7996 48.5001,-44.7996 48.5,-41.0496 45.6251,-44.7997 49,-37.2996 49,-37.2996"/>
<text text-anchor="middle" x="67" y="-67.6" font-family="FreeSans" font-size="8.00" fill="#4e9a06">LOVES</text>
<text text-anchor="start" x="49" y="-58.6" font-family="FreeSans" font-size="8.00" fill="#4e9a06">foo = &#39;bar&#39;</text>
</g>
</g>
</svg>
