<?xml version="1.0" encoding="UTF-8" standalone="no"?>
<!DOCTYPE svg PUBLIC "-//W3C//DTD SVG 1.1//EN"
 "http://www.w3.org/Graphics/SVG/1.1/DTD/svg11.dtd">
<!-- Generated by graphviz version 2.36.0 (20140111.2315)
 -->
<!-- Title: g Pages: 1 -->
<svg width="104pt" height="138pt"
 viewBox="0.00 0.00 104.00 138.00" xmlns="http://www.w3.org/2000/svg" xmlns:xlink="http://www.w3.org/1999/xlink">
<g id="graph0" class="graph" transform="scale(1 1) rotate(0) translate(4 134)">
<title>g</title>
<polygon fill="white" stroke="none" points="-4,4 -4,-134 100,-134 100,4 -4,4"/>
<!-- N83 -->
<g id="node1" class="node"><title>N83</title>
<path fill="#ffffff" stroke="#2e3436" stroke-width="1.5" d="M11.5,-93C11.5,-93 82.5,-93 82.5,-93 88.5,-93 94.5,-99 94.5,-105 94.5,-105 94.5,-117 94.5,-117 94.5,-123 88.5,-129 82.5,-129 82.5,-129 11.5,-129 11.5,-129 5.5,-129 -0.5,-123 -0.5,-117 -0.5,-117 -0.5,-105 -0.5,-105 -0.5,-99 5.5,-93 11.5,-93"/>
<text text-anchor="start" x="7.5" y="-109.1" font-family="FreeSans" font-size="8.00" fill="#1c2021">Node[83]name = &#39;bob&#39;</text>
</g>
<!-- N84 -->
<g id="node2" class="node"><title>N84</title>
<path fill="#ffffff" stroke="#2e3436" stroke-width="1.5" d="M18.5,-1C18.5,-1 75.5,-1 75.5,-1 81.5,-1 87.5,-7 87.5,-13 87.5,-13 87.5,-25 87.5,-25 87.5,-31 81.5,-37 75.5,-37 75.5,-37 18.5,-37 18.5,-37 12.5,-37 6.5,-31 6.5,-25 6.5,-25 6.5,-13 6.5,-13 6.5,-7 12.5,-1 18.5,-1"/>
<text text-anchor="start" x="14.5" y="-17.1" font-family="FreeSans" font-size="8.00" fill="#1c2021">Node[84]age = 12</text>
</g>
<!-- N83&#45;&gt;N84 -->
<g id="edge1" class="edge"><title>N83&#45;&gt;N84</title>
<path fill="none" stroke="#2e3436" stroke-width="2" d="M47,-92.6471C47,-79.0758 47,-60.027 47,-44.84"/>
<polygon fill="#2e3436" stroke="#2e3436" stroke-width="2" points="47,-37.2996 50.3751,-44.7996 47.5,-41.0496 47.5001,-44.7996 47.0001,-44.7996 46.5001,-44.7996 46.5,-41.0496 43.6251,-44.7997 47,-37.2996 47,-37.2996"/>
<text text-anchor="middle" x="71.5" y="-67.6" font-family="FreeSans" font-size="8.00" fill="#2e3436">KNOWS</text>
<text text-anchor="start" x="47" y="-58.6" font-family="FreeSans" font-size="8.00" fill="#2e3436">since = &#39;2010&#39;</text>
</g>
</g>
</svg>
