<?xml version="1.0" encoding="UTF-8" standalone="no"?>
<!DOCTYPE svg PUBLIC "-//W3C//DTD SVG 1.1//EN"
 "http://www.w3.org/Graphics/SVG/1.1/DTD/svg11.dtd">
<!-- Generated by graphviz version 2.36.0 (20140111.2315)
 -->
<!-- Title: g Pages: 1 -->
<svg width="118pt" height="46pt"
 viewBox="0.00 0.00 118.00 46.00" xmlns="http://www.w3.org/2000/svg" xmlns:xlink="http://www.w3.org/1999/xlink">
<g id="graph0" class="graph" transform="scale(1 1) rotate(0) translate(4 42)">
<title>g</title>
<polygon fill="white" stroke="none" points="-4,4 -4,-42 114,-42 114,4 -4,4"/>
<!-- N121 -->
<g id="node1" class="node"><title>N121</title>
<path fill="#ffffff" stroke="#2e3436" stroke-width="1.5" d="M11,-1C11,-1 99,-1 99,-1 105,-1 111,-7 111,-13 111,-13 111,-25 111,-25 111,-31 105,-37 99,-37 99,-37 11,-37 11,-37 5,-37 -1,-31 -1,-25 -1,-25 -1,-13 -1,-13 -1,-7 5,-1 11,-1"/>
<text text-anchor="middle" x="55" y="-26.1" font-family="FreeSans" font-size="8.00" fill="#1c2021">Node[121]: Actor, Director</text>
<polyline fill="none" stroke="#2e3436" stroke-width="1.5" points="-1,-19 111,-19 "/>
<text text-anchor="start" x="7" y="-8.1" font-family="FreeSans" font-size="8.00" fill="#1c2021">name = &#39;Clint Eastwood&#39;</text>
</g>
</g>
</svg>
