<?xml version="1.0" encoding="UTF-8" standalone="no"?>
<!DOCTYPE svg PUBLIC "-//W3C//DTD SVG 1.1//EN"
 "http://www.w3.org/Graphics/SVG/1.1/DTD/svg11.dtd">
<!-- Generated by graphviz version 2.36.0 (20140111.2315)
 -->
<!-- Title: g Pages: 1 -->
<svg width="106pt" height="130pt"
 viewBox="0.00 0.00 106.00 130.00" xmlns="http://www.w3.org/2000/svg" xmlns:xlink="http://www.w3.org/1999/xlink">
<g id="graph0" class="graph" transform="scale(1 1) rotate(0) translate(4 126)">
<title>g</title>
<polygon fill="white" stroke="none" points="-4,4 -4,-126 102,-126 102,4 -4,4"/>
<!-- N189 -->
<g id="node1" class="node"><title>N189</title>
<path fill="#ffffff" stroke="#2e3436" stroke-width="1.5" d="M11.5,-1C11.5,-1 86.5,-1 86.5,-1 92.5,-1 98.5,-7 98.5,-13 98.5,-13 98.5,-25 98.5,-25 98.5,-31 92.5,-37 86.5,-37 86.5,-37 11.5,-37 11.5,-37 5.5,-37 -0.5,-31 -0.5,-25 -0.5,-25 -0.5,-13 -0.5,-13 -0.5,-7 5.5,-1 11.5,-1"/>
<text text-anchor="start" x="7.5" y="-17.1" font-family="FreeSans" font-size="8.00" fill="#1c2021">Node[189]name = &#39;you&#39;</text>
</g>
<!-- N190 -->
<g id="node2" class="node"><title>N190</title>
<path fill="#ffffff" stroke="#2e3436" stroke-width="1.5" d="M16.5,-85C16.5,-85 81.5,-85 81.5,-85 87.5,-85 93.5,-91 93.5,-97 93.5,-97 93.5,-109 93.5,-109 93.5,-115 87.5,-121 81.5,-121 81.5,-121 16.5,-121 16.5,-121 10.5,-121 4.5,-115 4.5,-109 4.5,-109 4.5,-97 4.5,-97 4.5,-91 10.5,-85 16.5,-85"/>
<text text-anchor="start" x="12.5" y="-101.1" font-family="FreeSans" font-size="8.00" fill="#1c2021">Node[190]name = &#39;I&#39;</text>
</g>
<!-- N190&#45;&gt;N189 -->
<g id="edge1" class="edge"><title>N190&#45;&gt;N189</title>
<path fill="none" stroke="#2e3436" stroke-width="2" d="M49,-84.6099C49,-73.0081 49,-57.5802 49,-44.7099"/>
<polygon fill="#2e3436" stroke="#2e3436" stroke-width="2" points="49,-37.0838 52.3751,-44.5838 49.5,-40.8338 49.5001,-44.5838 49.0001,-44.5838 48.5001,-44.5838 48.5,-40.8338 45.6251,-44.5839 49,-37.0838 49,-37.0838"/>
<text text-anchor="middle" x="59" y="-59.1" font-family="FreeSans" font-size="8.00" fill="#2e3436">know</text>
</g>
</g>
</svg>
