<?xml version="1.0" encoding="UTF-8" standalone="no"?>
<!DOCTYPE svg PUBLIC "-//W3C//DTD SVG 1.1//EN"
 "http://www.w3.org/Graphics/SVG/1.1/DTD/svg11.dtd">
<!-- Generated by graphviz version 2.36.0 (20140111.2315)
 -->
<!-- Title: g Pages: 1 -->
<svg width="90pt" height="46pt"
 viewBox="0.00 0.00 90.00 46.00" xmlns="http://www.w3.org/2000/svg" xmlns:xlink="http://www.w3.org/1999/xlink">
<g id="graph0" class="graph" transform="scale(1 1) rotate(0) translate(4 42)">
<title>g</title>
<polygon fill="white" stroke="none" points="-4,4 -4,-42 86,-42 86,4 -4,4"/>
<!-- N140 -->
<g id="node1" class="node"><title>N140</title>
<path fill="#ffffff" stroke="#2e3436" stroke-width="1.5" d="M11,-1C11,-1 71,-1 71,-1 77,-1 83,-7 83,-13 83,-13 83,-25 83,-25 83,-31 77,-37 71,-37 71,-37 11,-37 11,-37 5,-37 -1,-31 -1,-25 -1,-25 -1,-13 -1,-13 -1,-7 5,-1 11,-1"/>
<text text-anchor="middle" x="41" y="-26.1" font-family="FreeSans" font-size="8.00" fill="#1c2021">Node[140]: Person</text>
<polyline fill="none" stroke="#2e3436" stroke-width="1.5" points="-1,-19 83,-19 "/>
<text text-anchor="start" x="7" y="-8.1" font-family="FreeSans" font-size="8.00" fill="#1c2021">name = &#39;Andres&#39;</text>
</g>
</g>
</svg>
