<?xml version="1.0" encoding="UTF-8" standalone="no"?>
<!DOCTYPE svg PUBLIC "-//W3C//DTD SVG 1.1//EN"
 "http://www.w3.org/Graphics/SVG/1.1/DTD/svg11.dtd">
<!-- Generated by graphviz version 2.36.0 (20140111.2315)
 -->
<!-- Title: g Pages: 1 -->
<svg width="293pt" height="342pt"
 viewBox="0.00 0.00 293.00 342.00" xmlns="http://www.w3.org/2000/svg" xmlns:xlink="http://www.w3.org/1999/xlink">
<g id="graph0" class="graph" transform="scale(1 1) rotate(0) translate(4 338)">
<title>g</title>
<polygon fill="white" stroke="none" points="-4,4 -4,-338 289,-338 289,4 -4,4"/>
<!-- N27 -->
<g id="node1" class="node"><title>N27</title>
<path fill="#ffffff" stroke="#2e3436" stroke-width="1.5" d="M12,-149C12,-149 72,-149 72,-149 78,-149 84,-155 84,-161 84,-161 84,-173 84,-173 84,-179 78,-185 72,-185 72,-185 12,-185 12,-185 6,-185 0,-179 0,-173 0,-173 0,-161 0,-161 0,-155 6,-149 12,-149"/>
<text text-anchor="start" x="8" y="-165.1" font-family="FreeSans" font-size="8.00" fill="#1c2021">Node[27]name = &#39;f&#39;</text>
</g>
<!-- N29 -->
<g id="node2" class="node"><title>N29</title>
<path fill="#ffffff" stroke="#2e3436" stroke-width="1.5" d="M103,-1C103,-1 165,-1 165,-1 171,-1 177,-7 177,-13 177,-13 177,-25 177,-25 177,-31 171,-37 165,-37 165,-37 103,-37 103,-37 97,-37 91,-31 91,-25 91,-25 91,-13 91,-13 91,-7 97,-1 103,-1"/>
<text text-anchor="start" x="99" y="-17.1" font-family="FreeSans" font-size="8.00" fill="#1c2021">Node[29]name = &#39;e&#39;</text>
</g>
<!-- N27&#45;&gt;N29 -->
<g id="edge1" class="edge"><title>N27&#45;&gt;N29</title>
<path fill="none" stroke="#2e3436" stroke-width="2" d="M52.7336,-148.966C69.0576,-123.061 100.19,-73.6556 118.823,-44.085"/>
<polygon fill="#2e3436" stroke="#2e3436" stroke-width="2" points="123.05,-37.3779 121.907,-45.5225 121.473,-40.8171 119.474,-43.9897 119.051,-43.7232 118.628,-43.4566 120.627,-40.2839 116.196,-41.9239 123.05,-37.3779 123.05,-37.3779"/>
<text text-anchor="middle" x="106" y="-113.6" font-family="FreeSans" font-size="8.00" fill="#2e3436">to</text>
<text text-anchor="start" x="88" y="-104.6" font-family="FreeSans" font-size="8.00" fill="#2e3436">cost = 1.2</text>
</g>
<!-- N28 -->
<g id="node3" class="node"><title>N28</title>
<path fill="#ffffff" stroke="#2e3436" stroke-width="1.5" d="M211,-93C211,-93 273,-93 273,-93 279,-93 285,-99 285,-105 285,-105 285,-117 285,-117 285,-123 279,-129 273,-129 273,-129 211,-129 211,-129 205,-129 199,-123 199,-117 199,-117 199,-105 199,-105 199,-99 205,-93 211,-93"/>
<text text-anchor="start" x="207" y="-109.1" font-family="FreeSans" font-size="8.00" fill="#1c2021">Node[28]name = &#39;d&#39;</text>
</g>
<!-- N28&#45;&gt;N29 -->
<g id="edge2" class="edge"><title>N28&#45;&gt;N29</title>
<path fill="none" stroke="#2e3436" stroke-width="2" d="M221.432,-92.8598C204.166,-78.4719 179.383,-57.8194 160.609,-42.174"/>
<polygon fill="#2e3436" stroke="#2e3436" stroke-width="2" points="154.492,-37.0763 162.414,-39.285 157.693,-39.0929 160.573,-41.4936 160.253,-41.8778 159.933,-42.2619 157.052,-39.8612 158.093,-44.4705 154.492,-37.0763 154.492,-37.0763"/>
<text text-anchor="middle" x="215" y="-67.6" font-family="FreeSans" font-size="8.00" fill="#2e3436">to</text>
<text text-anchor="start" x="197" y="-58.6" font-family="FreeSans" font-size="8.00" fill="#2e3436">cost = 0.5</text>
</g>
<!-- N30 -->
<g id="node4" class="node"><title>N30</title>
<path fill="#ffffff" stroke="#2e3436" stroke-width="1.5" d="M103,-149C103,-149 165,-149 165,-149 171,-149 177,-155 177,-161 177,-161 177,-173 177,-173 177,-179 171,-185 165,-185 165,-185 103,-185 103,-185 97,-185 91,-179 91,-173 91,-173 91,-161 91,-161 91,-155 97,-149 103,-149"/>
<text text-anchor="start" x="99" y="-165.1" font-family="FreeSans" font-size="8.00" fill="#1c2021">Node[30]name = &#39;b&#39;</text>
</g>
<!-- N30&#45;&gt;N29 -->
<g id="edge3" class="edge"><title>N30&#45;&gt;N29</title>
<path fill="none" stroke="#2e3436" stroke-width="2" d="M134,-148.966C134,-123.389 134,-74.9026 134,-45.2174"/>
<polygon fill="#2e3436" stroke="#2e3436" stroke-width="2" points="134,-37.3779 137.375,-44.8778 134.5,-41.1278 134.5,-44.8778 134,-44.8779 133.5,-44.8779 133.5,-41.1279 130.625,-44.8779 134,-37.3779 134,-37.3779"/>
<text text-anchor="middle" x="152" y="-113.6" font-family="FreeSans" font-size="8.00" fill="#2e3436">to</text>
<text text-anchor="start" x="134" y="-104.6" font-family="FreeSans" font-size="8.00" fill="#2e3436">cost = 0.5</text>
</g>
<!-- N31 -->
<g id="node5" class="node"><title>N31</title>
<path fill="#ffffff" stroke="#2e3436" stroke-width="1.5" d="M195,-205C195,-205 257,-205 257,-205 263,-205 269,-211 269,-217 269,-217 269,-229 269,-229 269,-235 263,-241 257,-241 257,-241 195,-241 195,-241 189,-241 183,-235 183,-229 183,-229 183,-217 183,-217 183,-211 189,-205 195,-205"/>
<text text-anchor="start" x="191" y="-221.1" font-family="FreeSans" font-size="8.00" fill="#1c2021">Node[31]name = &#39;c&#39;</text>
</g>
<!-- N31&#45;&gt;N28 -->
<g id="edge4" class="edge"><title>N31&#45;&gt;N28</title>
<path fill="none" stroke="#2e3436" stroke-width="2" d="M228.5,-204.812C231.165,-186.488 235.409,-157.31 238.427,-136.565"/>
<polygon fill="#2e3436" stroke="#2e3436" stroke-width="2" points="239.518,-129.067 241.778,-136.975 239.473,-132.85 238.933,-136.561 238.438,-136.489 237.943,-136.417 238.483,-132.706 235.098,-136.003 239.518,-129.067 239.518,-129.067"/>
<text text-anchor="middle" x="254" y="-169.6" font-family="FreeSans" font-size="8.00" fill="#2e3436">to</text>
<text text-anchor="start" x="236" y="-160.6" font-family="FreeSans" font-size="8.00" fill="#2e3436">cost = 0.5</text>
</g>
<!-- N32 -->
<g id="node6" class="node"><title>N32</title>
<path fill="#ffffff" stroke="#2e3436" stroke-width="1.5" d="M103,-297C103,-297 165,-297 165,-297 171,-297 177,-303 177,-309 177,-309 177,-321 177,-321 177,-327 171,-333 165,-333 165,-333 103,-333 103,-333 97,-333 91,-327 91,-321 91,-321 91,-309 91,-309 91,-303 97,-297 103,-297"/>
<text text-anchor="start" x="99" y="-313.1" font-family="FreeSans" font-size="8.00" fill="#1c2021">Node[32]name = &#39;a&#39;</text>
</g>
<!-- N32&#45;&gt;N27 -->
<g id="edge6" class="edge"><title>N32&#45;&gt;N27</title>
<path fill="none" stroke="#2e3436" stroke-width="2" d="M109.418,-296.673C102.854,-291.23 96.1607,-284.839 91,-278 71.1151,-251.647 57.1178,-215.952 49.3107,-192.466"/>
<polygon fill="#2e3436" stroke="#2e3436" stroke-width="2" points="46.9938,-185.297 52.5117,-191.396 48.6228,-188.712 49.776,-192.28 49.3003,-192.434 48.8245,-192.588 47.6713,-189.019 46.0888,-193.472 46.9938,-185.297 46.9938,-185.297"/>
<text text-anchor="middle" x="109" y="-271.6" font-family="FreeSans" font-size="8.00" fill="#2e3436">to</text>
<text text-anchor="start" x="91" y="-262.6" font-family="FreeSans" font-size="8.00" fill="#2e3436">cost = 0.5</text>
</g>
<!-- N32&#45;&gt;N30 -->
<g id="edge5" class="edge"><title>N32&#45;&gt;N30</title>
<path fill="none" stroke="#2e3436" stroke-width="2" d="M134,-296.966C134,-271.389 134,-222.903 134,-193.217"/>
<polygon fill="#2e3436" stroke="#2e3436" stroke-width="2" points="134,-185.378 137.375,-192.878 134.5,-189.128 134.5,-192.878 134,-192.878 133.5,-192.878 133.5,-189.128 130.625,-192.878 134,-185.378 134,-185.378"/>
<text text-anchor="middle" x="152" y="-271.6" font-family="FreeSans" font-size="8.00" fill="#2e3436">to</text>
<text text-anchor="start" x="134" y="-262.6" font-family="FreeSans" font-size="8.00" fill="#2e3436">cost = 1.5</text>
</g>
<!-- N32&#45;&gt;N31 -->
<g id="edge7" class="edge"><title>N32&#45;&gt;N31</title>
<path fill="none" stroke="#2e3436" stroke-width="2" d="M155.497,-296.98C162.529,-291.158 170.26,-284.476 177,-278 187.129,-268.267 197.684,-256.825 206.392,-246.985"/>
<polygon fill="#2e3436" stroke="#2e3436" stroke-width="2" points="211.555,-241.095 209.15,-248.96 209.459,-244.244 206.988,-247.064 206.612,-246.735 206.236,-246.405 208.707,-243.585 204.074,-244.51 211.555,-241.095 211.555,-241.095"/>
<text text-anchor="middle" x="211" y="-271.6" font-family="FreeSans" font-size="8.00" fill="#2e3436">to</text>
<text text-anchor="start" x="193" y="-262.6" font-family="FreeSans" font-size="8.00" fill="#2e3436">cost = 0.5</text>
</g>
</g>
</svg>
