<?xml version="1.0" encoding="UTF-8" standalone="no"?>
<!DOCTYPE svg PUBLIC "-//W3C//DTD SVG 1.1//EN"
 "http://www.w3.org/Graphics/SVG/1.1/DTD/svg11.dtd">
<!-- Generated by graphviz version 2.36.0 (20140111.2315)
 -->
<!-- Title: g Pages: 1 -->
<svg width="237pt" height="46pt"
 viewBox="0.00 0.00 237.00 46.00" xmlns="http://www.w3.org/2000/svg" xmlns:xlink="http://www.w3.org/1999/xlink">
<g id="graph0" class="graph" transform="scale(1 1) rotate(0) translate(4 42)">
<title>g</title>
<polygon fill="white" stroke="none" points="-4,4 -4,-42 233,-42 233,4 -4,4"/>
<!-- N4 -->
<g id="node1" class="node"><title>N4</title>
<path fill="#ffffff" stroke="#2e3436" stroke-width="1.5" d="M12,-1C12,-1 84,-1 84,-1 90,-1 96,-7 96,-13 96,-13 96,-25 96,-25 96,-31 90,-37 84,-37 84,-37 12,-37 12,-37 6,-37 0,-31 0,-25 0,-25 0,-13 0,-13 0,-7 6,-1 12,-1"/>
<text text-anchor="start" x="8" y="-17.1" font-family="FreeSans" font-size="8.00" fill="#1c2021">Node[4]name = &#39;Juliet&#39;</text>
</g>
<!-- N5 -->
<g id="node2" class="node"><title>N5</title>
<path fill="#ffffff" stroke="#2e3436" stroke-width="1.5" d="M137,-1C137,-1 217,-1 217,-1 223,-1 229,-7 229,-13 229,-13 229,-25 229,-25 229,-31 223,-37 217,-37 217,-37 137,-37 137,-37 131,-37 125,-31 125,-25 125,-25 125,-13 125,-13 125,-7 131,-1 137,-1"/>
<text text-anchor="start" x="133" y="-17.1" font-family="FreeSans" font-size="8.00" fill="#1c2021">Node[5]name = &#39;Romeo&#39;</text>
</g>
</g>
</svg>
