<?xml version="1.0" encoding="UTF-8" standalone="no"?>
<!DOCTYPE svg PUBLIC "-//W3C//DTD SVG 1.1//EN"
 "http://www.w3.org/Graphics/SVG/1.1/DTD/svg11.dtd">
<!-- Generated by graphviz version 2.36.0 (20140111.2315)
 -->
<!-- Title: g Pages: 1 -->
<svg width="303pt" height="342pt"
 viewBox="0.00 0.00 303.00 342.00" xmlns="http://www.w3.org/2000/svg" xmlns:xlink="http://www.w3.org/1999/xlink">
<g id="graph0" class="graph" transform="scale(1 1) rotate(0) translate(4 338)">
<title>g</title>
<polygon fill="white" stroke="none" points="-4,4 -4,-338 299,-338 299,4 -4,4"/>
<!-- N156 -->
<g id="node1" class="node"><title>N156</title>
<path fill="#ffffff" stroke="#2e3436" stroke-width="1.5" d="M11.5,-149C11.5,-149 76.5,-149 76.5,-149 82.5,-149 88.5,-155 88.5,-161 88.5,-161 88.5,-173 88.5,-173 88.5,-179 82.5,-185 76.5,-185 76.5,-185 11.5,-185 11.5,-185 5.5,-185 -0.5,-179 -0.5,-173 -0.5,-173 -0.5,-161 -0.5,-161 -0.5,-155 5.5,-149 11.5,-149"/>
<text text-anchor="start" x="7.5" y="-165.1" font-family="FreeSans" font-size="8.00" fill="#1c2021">Node[156]name = &#39;f&#39;</text>
</g>
<!-- N158 -->
<g id="node2" class="node"><title>N158</title>
<path fill="#ffffff" stroke="#2e3436" stroke-width="1.5" d="M104.5,-1C104.5,-1 171.5,-1 171.5,-1 177.5,-1 183.5,-7 183.5,-13 183.5,-13 183.5,-25 183.5,-25 183.5,-31 177.5,-37 171.5,-37 171.5,-37 104.5,-37 104.5,-37 98.5,-37 92.5,-31 92.5,-25 92.5,-25 92.5,-13 92.5,-13 92.5,-7 98.5,-1 104.5,-1"/>
<text text-anchor="start" x="100.5" y="-17.1" font-family="FreeSans" font-size="8.00" fill="#1c2021">Node[158]name = &#39;e&#39;</text>
</g>
<!-- N156&#45;&gt;N158 -->
<g id="edge1" class="edge"><title>N156&#45;&gt;N158</title>
<path fill="none" stroke="#2e3436" stroke-width="2" d="M54.967,-148.966C71.7162,-122.951 103.723,-73.2383 122.734,-43.7118"/>
<polygon fill="#2e3436" stroke="#2e3436" stroke-width="2" points="126.812,-37.3779 125.589,-45.5109 125.202,-40.8016 123.172,-43.9546 122.751,-43.6839 122.331,-43.4132 124.361,-40.2602 119.914,-41.8569 126.812,-37.3779 126.812,-37.3779"/>
<text text-anchor="middle" x="109" y="-113.6" font-family="FreeSans" font-size="8.00" fill="#2e3436">to</text>
<text text-anchor="start" x="91" y="-104.6" font-family="FreeSans" font-size="8.00" fill="#2e3436">cost = 1.2</text>
</g>
<!-- N157 -->
<g id="node3" class="node"><title>N157</title>
<path fill="#ffffff" stroke="#2e3436" stroke-width="1.5" d="M215.5,-93C215.5,-93 282.5,-93 282.5,-93 288.5,-93 294.5,-99 294.5,-105 294.5,-105 294.5,-117 294.5,-117 294.5,-123 288.5,-129 282.5,-129 282.5,-129 215.5,-129 215.5,-129 209.5,-129 203.5,-123 203.5,-117 203.5,-117 203.5,-105 203.5,-105 203.5,-99 209.5,-93 215.5,-93"/>
<text text-anchor="start" x="211.5" y="-109.1" font-family="FreeSans" font-size="8.00" fill="#1c2021">Node[157]name = &#39;d&#39;</text>
</g>
<!-- N157&#45;&gt;N158 -->
<g id="edge2" class="edge"><title>N157&#45;&gt;N158</title>
<path fill="none" stroke="#2e3436" stroke-width="2" d="M227.86,-92.8598C210.038,-78.4093 184.422,-57.6397 165.097,-41.9702"/>
<polygon fill="#2e3436" stroke="#2e3436" stroke-width="2" points="159.061,-37.0763 167.012,-39.1783 162.289,-39.0497 165.201,-41.4115 164.887,-41.7999 164.572,-42.1883 161.659,-39.8265 162.761,-44.4215 159.061,-37.0763 159.061,-37.0763"/>
<text text-anchor="middle" x="222" y="-67.6" font-family="FreeSans" font-size="8.00" fill="#2e3436">to</text>
<text text-anchor="start" x="204" y="-58.6" font-family="FreeSans" font-size="8.00" fill="#2e3436">cost = 0.5</text>
</g>
<!-- N159 -->
<g id="node4" class="node"><title>N159</title>
<path fill="#ffffff" stroke="#2e3436" stroke-width="1.5" d="M105.5,-149C105.5,-149 172.5,-149 172.5,-149 178.5,-149 184.5,-155 184.5,-161 184.5,-161 184.5,-173 184.5,-173 184.5,-179 178.5,-185 172.5,-185 172.5,-185 105.5,-185 105.5,-185 99.5,-185 93.5,-179 93.5,-173 93.5,-173 93.5,-161 93.5,-161 93.5,-155 99.5,-149 105.5,-149"/>
<text text-anchor="start" x="101.5" y="-165.1" font-family="FreeSans" font-size="8.00" fill="#1c2021">Node[159]name = &#39;b&#39;</text>
</g>
<!-- N159&#45;&gt;N158 -->
<g id="edge3" class="edge"><title>N159&#45;&gt;N158</title>
<path fill="none" stroke="#2e3436" stroke-width="2" d="M138.883,-148.966C138.708,-123.389 138.376,-74.9026 138.173,-45.2174"/>
<polygon fill="#2e3436" stroke="#2e3436" stroke-width="2" points="138.119,-37.3779 141.545,-44.8545 138.645,-41.1243 138.67,-44.8742 138.17,-44.8777 137.671,-44.8811 137.645,-41.1312 134.796,-44.9008 138.119,-37.3779 138.119,-37.3779"/>
<text text-anchor="middle" x="157" y="-113.6" font-family="FreeSans" font-size="8.00" fill="#2e3436">to</text>
<text text-anchor="start" x="139" y="-104.6" font-family="FreeSans" font-size="8.00" fill="#2e3436">cost = 0.5</text>
</g>
<!-- N160 -->
<g id="node5" class="node"><title>N160</title>
<path fill="#ffffff" stroke="#2e3436" stroke-width="1.5" d="M200.5,-205C200.5,-205 267.5,-205 267.5,-205 273.5,-205 279.5,-211 279.5,-217 279.5,-217 279.5,-229 279.5,-229 279.5,-235 273.5,-241 267.5,-241 267.5,-241 200.5,-241 200.5,-241 194.5,-241 188.5,-235 188.5,-229 188.5,-229 188.5,-217 188.5,-217 188.5,-211 194.5,-205 200.5,-205"/>
<text text-anchor="start" x="196.5" y="-221.1" font-family="FreeSans" font-size="8.00" fill="#1c2021">Node[160]name = &#39;c&#39;</text>
</g>
<!-- N160&#45;&gt;N157 -->
<g id="edge4" class="edge"><title>N160&#45;&gt;N157</title>
<path fill="none" stroke="#2e3436" stroke-width="2" d="M236.344,-204.812C238.843,-186.488 242.821,-157.31 245.65,-136.565"/>
<polygon fill="#2e3436" stroke="#2e3436" stroke-width="2" points="246.673,-129.067 249.003,-136.954 246.661,-132.85 246.155,-136.566 245.659,-136.498 245.164,-136.43 245.671,-132.715 242.315,-136.042 246.673,-129.067 246.673,-129.067"/>
<text text-anchor="middle" x="262" y="-169.6" font-family="FreeSans" font-size="8.00" fill="#2e3436">to</text>
<text text-anchor="start" x="244" y="-160.6" font-family="FreeSans" font-size="8.00" fill="#2e3436">cost = 0.5</text>
</g>
<!-- N161 -->
<g id="node6" class="node"><title>N161</title>
<path fill="#ffffff" stroke="#2e3436" stroke-width="1.5" d="M105.5,-297C105.5,-297 172.5,-297 172.5,-297 178.5,-297 184.5,-303 184.5,-309 184.5,-309 184.5,-321 184.5,-321 184.5,-327 178.5,-333 172.5,-333 172.5,-333 105.5,-333 105.5,-333 99.5,-333 93.5,-327 93.5,-321 93.5,-321 93.5,-309 93.5,-309 93.5,-303 99.5,-297 105.5,-297"/>
<text text-anchor="start" x="101.5" y="-313.1" font-family="FreeSans" font-size="8.00" fill="#1c2021">Node[161]name = &#39;a&#39;</text>
</g>
<!-- N161&#45;&gt;N156 -->
<g id="edge7" class="edge"><title>N161&#45;&gt;N156</title>
<path fill="none" stroke="#2e3436" stroke-width="2" d="M114.964,-296.967C108.261,-291.443 101.356,-284.935 96,-278 75.6098,-251.602 60.5891,-215.917 52.0719,-192.446"/>
<polygon fill="#2e3436" stroke="#2e3436" stroke-width="2" points="49.5365,-185.282 55.2205,-191.226 51.259,-188.65 52.5102,-192.185 52.0388,-192.352 51.5675,-192.519 50.3163,-188.984 48.8572,-193.478 49.5365,-185.282 49.5365,-185.282"/>
<text text-anchor="middle" x="114" y="-271.6" font-family="FreeSans" font-size="8.00" fill="#2e3436">to</text>
<text text-anchor="start" x="96" y="-262.6" font-family="FreeSans" font-size="8.00" fill="#2e3436">cost = 0.5</text>
</g>
<!-- N161&#45;&gt;N159 -->
<g id="edge6" class="edge"><title>N161&#45;&gt;N159</title>
<path fill="none" stroke="#2e3436" stroke-width="2" d="M139,-296.966C139,-271.389 139,-222.903 139,-193.217"/>
<polygon fill="#2e3436" stroke="#2e3436" stroke-width="2" points="139,-185.378 142.375,-192.878 139.5,-189.128 139.5,-192.878 139,-192.878 138.5,-192.878 138.5,-189.128 135.625,-192.878 139,-185.378 139,-185.378"/>
<text text-anchor="middle" x="157" y="-271.6" font-family="FreeSans" font-size="8.00" fill="#2e3436">to</text>
<text text-anchor="start" x="139" y="-262.6" font-family="FreeSans" font-size="8.00" fill="#2e3436">cost = 1.5</text>
</g>
<!-- N161&#45;&gt;N160 -->
<g id="edge5" class="edge"><title>N161&#45;&gt;N160</title>
<path fill="none" stroke="#2e3436" stroke-width="2" d="M160.385,-296.862C167.41,-291.032 175.165,-284.375 182,-278 192.502,-268.204 203.611,-256.82 212.854,-247.037"/>
<polygon fill="#2e3436" stroke="#2e3436" stroke-width="2" points="218.061,-241.487 215.391,-249.266 215.86,-244.564 213.294,-247.299 212.929,-246.957 212.565,-246.614 215.13,-243.879 210.468,-244.647 218.061,-241.487 218.061,-241.487"/>
<text text-anchor="middle" x="218" y="-271.6" font-family="FreeSans" font-size="8.00" fill="#2e3436">to</text>
<text text-anchor="start" x="200" y="-262.6" font-family="FreeSans" font-size="8.00" fill="#2e3436">cost = 0.5</text>
</g>
</g>
</svg>
