<?xml version="1.0" encoding="UTF-8" standalone="no"?>
<!DOCTYPE svg PUBLIC "-//W3C//DTD SVG 1.1//EN"
 "http://www.w3.org/Graphics/SVG/1.1/DTD/svg11.dtd">
<!-- Generated by graphviz version 2.36.0 (20140111.2315)
 -->
<!-- Title: g Pages: 1 -->
<svg width="281pt" height="342pt"
 viewBox="0.00 0.00 281.00 342.00" xmlns="http://www.w3.org/2000/svg" xmlns:xlink="http://www.w3.org/1999/xlink">
<g id="graph0" class="graph" transform="scale(1 1) rotate(0) translate(4 338)">
<title>g</title>
<polygon fill="white" stroke="none" points="-4,4 -4,-338 277,-338 277,4 -4,4"/>
<!-- N33 -->
<g id="node1" class="node"><title>N33</title>
<path fill="#ffffff" stroke="#2e3436" stroke-width="1.5" d="M12,-149C12,-149 72,-149 72,-149 78,-149 84,-155 84,-161 84,-161 84,-173 84,-173 84,-179 78,-185 72,-185 72,-185 12,-185 12,-185 6,-185 0,-179 0,-173 0,-173 0,-161 0,-161 0,-155 6,-149 12,-149"/>
<text text-anchor="start" x="8" y="-165.1" font-family="FreeSans" font-size="8.00" fill="#1c2021">Node[33]name = &#39;f&#39;</text>
</g>
<!-- N35 -->
<g id="node2" class="node"><title>N35</title>
<path fill="#ffffff" stroke="#2e3436" stroke-width="1.5" d="M98,-1C98,-1 160,-1 160,-1 166,-1 172,-7 172,-13 172,-13 172,-25 172,-25 172,-31 166,-37 160,-37 160,-37 98,-37 98,-37 92,-37 86,-31 86,-25 86,-25 86,-13 86,-13 86,-7 92,-1 98,-1"/>
<text text-anchor="start" x="94" y="-17.1" font-family="FreeSans" font-size="8.00" fill="#1c2021">Node[35]name = &#39;e&#39;</text>
</g>
<!-- N33&#45;&gt;N35 -->
<g id="edge1" class="edge"><title>N33&#45;&gt;N35</title>
<path fill="none" stroke="#2e3436" stroke-width="2" d="M52.1503,-148.966C67.5871,-123.061 97.0271,-73.6556 114.648,-44.085"/>
<polygon fill="#2e3436" stroke="#2e3436" stroke-width="2" points="118.645,-37.3779 117.705,-45.5484 117.155,-40.8552 115.235,-44.0767 114.805,-43.8207 114.376,-43.5648 116.296,-40.3433 111.906,-42.093 118.645,-37.3779 118.645,-37.3779"/>
<text text-anchor="middle" x="100.5" y="-113.6" font-family="FreeSans" font-size="8.00" fill="#2e3436">to</text>
<text text-anchor="start" x="86" y="-104.6" font-family="FreeSans" font-size="8.00" fill="#2e3436">cost = 1</text>
</g>
<!-- N34 -->
<g id="node3" class="node"><title>N34</title>
<path fill="#ffffff" stroke="#2e3436" stroke-width="1.5" d="M199,-93C199,-93 261,-93 261,-93 267,-93 273,-99 273,-105 273,-105 273,-117 273,-117 273,-123 267,-129 261,-129 261,-129 199,-129 199,-129 193,-129 187,-123 187,-117 187,-117 187,-105 187,-105 187,-99 193,-93 199,-93"/>
<text text-anchor="start" x="195" y="-109.1" font-family="FreeSans" font-size="8.00" fill="#1c2021">Node[34]name = &#39;d&#39;</text>
</g>
<!-- N34&#45;&gt;N35 -->
<g id="edge2" class="edge"><title>N34&#45;&gt;N35</title>
<path fill="none" stroke="#2e3436" stroke-width="2" d="M210.526,-92.6471C194.458,-78.3287 171.547,-57.9133 154.103,-42.3687"/>
<polygon fill="#2e3436" stroke="#2e3436" stroke-width="2" points="148.414,-37.2996 156.259,-39.7695 151.546,-39.4212 154.346,-41.916 154.014,-42.2893 153.681,-42.6626 150.881,-40.1678 151.768,-44.809 148.414,-37.2996 148.414,-37.2996"/>
<text text-anchor="middle" x="202.5" y="-67.6" font-family="FreeSans" font-size="8.00" fill="#2e3436">to</text>
<text text-anchor="start" x="188" y="-58.6" font-family="FreeSans" font-size="8.00" fill="#2e3436">cost = 1</text>
</g>
<!-- N36 -->
<g id="node4" class="node"><title>N36</title>
<path fill="#ffffff" stroke="#2e3436" stroke-width="1.5" d="M101,-149C101,-149 163,-149 163,-149 169,-149 175,-155 175,-161 175,-161 175,-173 175,-173 175,-179 169,-185 163,-185 163,-185 101,-185 101,-185 95,-185 89,-179 89,-173 89,-173 89,-161 89,-161 89,-155 95,-149 101,-149"/>
<text text-anchor="start" x="97" y="-165.1" font-family="FreeSans" font-size="8.00" fill="#1c2021">Node[36]name = &#39;b&#39;</text>
</g>
<!-- N36&#45;&gt;N35 -->
<g id="edge3" class="edge"><title>N36&#45;&gt;N35</title>
<path fill="none" stroke="#2e3436" stroke-width="2" d="M131.65,-148.966C131.124,-123.389 130.128,-74.9026 129.518,-45.2174"/>
<polygon fill="#2e3436" stroke="#2e3436" stroke-width="2" points="129.357,-37.3779 132.886,-44.8069 129.934,-41.1168 130.011,-44.866 129.511,-44.8763 129.011,-44.8866 128.934,-41.1373 126.137,-44.9456 129.357,-37.3779 129.357,-37.3779"/>
<text text-anchor="middle" x="145.5" y="-113.6" font-family="FreeSans" font-size="8.00" fill="#2e3436">to</text>
<text text-anchor="start" x="131" y="-104.6" font-family="FreeSans" font-size="8.00" fill="#2e3436">cost = 1</text>
</g>
<!-- N37 -->
<g id="node5" class="node"><title>N37</title>
<path fill="#ffffff" stroke="#2e3436" stroke-width="1.5" d="M191,-205C191,-205 253,-205 253,-205 259,-205 265,-211 265,-217 265,-217 265,-229 265,-229 265,-235 259,-241 253,-241 253,-241 191,-241 191,-241 185,-241 179,-235 179,-229 179,-229 179,-217 179,-217 179,-211 185,-205 191,-205"/>
<text text-anchor="start" x="187" y="-221.1" font-family="FreeSans" font-size="8.00" fill="#1c2021">Node[37]name = &#39;c&#39;</text>
</g>
<!-- N37&#45;&gt;N34 -->
<g id="edge4" class="edge"><title>N37&#45;&gt;N34</title>
<path fill="none" stroke="#2e3436" stroke-width="2" d="M223.25,-204.812C224.583,-186.488 226.705,-157.31 228.213,-136.565"/>
<polygon fill="#2e3436" stroke="#2e3436" stroke-width="2" points="228.759,-129.067 231.581,-136.792 228.985,-132.843 228.713,-136.583 228.215,-136.547 227.716,-136.511 227.988,-132.771 224.849,-136.302 228.759,-129.067 228.759,-129.067"/>
<text text-anchor="middle" x="241.5" y="-169.6" font-family="FreeSans" font-size="8.00" fill="#2e3436">to</text>
<text text-anchor="start" x="227" y="-160.6" font-family="FreeSans" font-size="8.00" fill="#2e3436">cost = 1</text>
</g>
<!-- N38 -->
<g id="node6" class="node"><title>N38</title>
<path fill="#ffffff" stroke="#2e3436" stroke-width="1.5" d="M101,-297C101,-297 163,-297 163,-297 169,-297 175,-303 175,-309 175,-309 175,-321 175,-321 175,-327 169,-333 163,-333 163,-333 101,-333 101,-333 95,-333 89,-327 89,-321 89,-321 89,-309 89,-309 89,-303 95,-297 101,-297"/>
<text text-anchor="start" x="97" y="-313.1" font-family="FreeSans" font-size="8.00" fill="#1c2021">Node[38]name = &#39;a&#39;</text>
</g>
<!-- N38&#45;&gt;N33 -->
<g id="edge7" class="edge"><title>N38&#45;&gt;N33</title>
<path fill="none" stroke="#2e3436" stroke-width="2" d="M112.431,-296.75C106.71,-291.124 100.731,-284.614 96,-278 76.5684,-250.832 60.6599,-215.612 51.2622,-192.436"/>
<polygon fill="#2e3436" stroke="#2e3436" stroke-width="2" points="48.4435,-185.36 54.3545,-191.079 50.2958,-188.659 51.6836,-192.143 51.2191,-192.328 50.7546,-192.513 49.3668,-189.029 48.0837,-193.577 48.4435,-185.36 48.4435,-185.36"/>
<text text-anchor="middle" x="110.5" y="-271.6" font-family="FreeSans" font-size="8.00" fill="#2e3436">to</text>
<text text-anchor="start" x="96" y="-262.6" font-family="FreeSans" font-size="8.00" fill="#2e3436">cost = 1</text>
</g>
<!-- N38&#45;&gt;N36 -->
<g id="edge6" class="edge"><title>N38&#45;&gt;N36</title>
<path fill="none" stroke="#2e3436" stroke-width="2" d="M132,-296.966C132,-271.389 132,-222.903 132,-193.217"/>
<polygon fill="#2e3436" stroke="#2e3436" stroke-width="2" points="132,-185.378 135.375,-192.878 132.5,-189.128 132.5,-192.878 132,-192.878 131.5,-192.878 131.5,-189.128 128.625,-192.878 132,-185.378 132,-185.378"/>
<text text-anchor="middle" x="146.5" y="-271.6" font-family="FreeSans" font-size="8.00" fill="#2e3436">to</text>
<text text-anchor="start" x="132" y="-262.6" font-family="FreeSans" font-size="8.00" fill="#2e3436">cost = 1</text>
</g>
<!-- N38&#45;&gt;N37 -->
<g id="edge5" class="edge"><title>N38&#45;&gt;N37</title>
<path fill="none" stroke="#2e3436" stroke-width="2" d="M149.353,-296.647C163.547,-282.453 183.732,-262.268 199.225,-246.775"/>
<polygon fill="#2e3436" stroke="#2e3436" stroke-width="2" points="204.7,-241.3 201.784,-248.989 202.402,-244.305 199.751,-246.957 199.397,-246.603 199.043,-246.249 201.695,-243.598 197.011,-244.216 204.7,-241.3 204.7,-241.3"/>
<text text-anchor="middle" x="199.5" y="-271.6" font-family="FreeSans" font-size="8.00" fill="#2e3436">to</text>
<text text-anchor="start" x="185" y="-262.6" font-family="FreeSans" font-size="8.00" fill="#2e3436">cost = 1</text>
</g>
</g>
</svg>
