<?xml version="1.0" encoding="UTF-8" standalone="no"?>
<!DOCTYPE svg PUBLIC "-//W3C//DTD SVG 1.1//EN"
 "http://www.w3.org/Graphics/SVG/1.1/DTD/svg11.dtd">
<!-- Generated by graphviz version 2.36.0 (20140111.2315)
 -->
<!-- Title: g Pages: 1 -->
<svg width="358pt" height="46pt"
 viewBox="0.00 0.00 358.00 46.00" xmlns="http://www.w3.org/2000/svg" xmlns:xlink="http://www.w3.org/1999/xlink">
<g id="graph0" class="graph" transform="scale(1 1) rotate(0) translate(4 42)">
<title>g</title>
<polygon fill="white" stroke="none" points="-4,4 -4,-42 354,-42 354,4 -4,4"/>
<!-- N52 -->
<g id="node1" class="node"><title>N52</title>
<path fill="#ffffff" stroke="#2e3436" stroke-width="1.5" d="M12,-1C12,-1 98,-1 98,-1 104,-1 110,-7 110,-13 110,-13 110,-25 110,-25 110,-31 104,-37 98,-37 98,-37 12,-37 12,-37 6,-37 0,-31 0,-25 0,-25 0,-13 0,-13 0,-7 6,-1 12,-1"/>
<text text-anchor="middle" x="55" y="-26.1" font-family="FreeSans" font-size="8.00" fill="#1c2021">Node[52]: Person</text>
<polyline fill="none" stroke="#2e3436" stroke-width="1.5" points="0,-19 110,-19 "/>
<text text-anchor="start" x="8" y="-8.1" font-family="FreeSans" font-size="8.00" fill="#1c2021">name = &#39;Steven Spielberg&#39;</text>
</g>
<!-- N53 -->
<g id="node2" class="node"><title>N53</title>
<path fill="#ffffff" stroke="#2e3436" stroke-width="1.5" d="M151,-1C151,-1 229,-1 229,-1 235,-1 241,-7 241,-13 241,-13 241,-25 241,-25 241,-31 235,-37 229,-37 229,-37 151,-37 151,-37 145,-37 139,-31 139,-25 139,-25 139,-13 139,-13 139,-7 145,-1 151,-1"/>
<text text-anchor="middle" x="190" y="-26.1" font-family="FreeSans" font-size="8.00" fill="#1c2021">Node[53]: Person</text>
<polyline fill="none" stroke="#2e3436" stroke-width="1.5" points="139,-19 241,-19 "/>
<text text-anchor="start" x="147" y="-8.1" font-family="FreeSans" font-size="8.00" fill="#1c2021">name = &#39;Clint Eastwood&#39;</text>
</g>
<!-- N54 -->
<g id="node3" class="node"><title>N54</title>
<path fill="#ffffff" stroke="#2e3436" stroke-width="1.5" d="M282,-1C282,-1 338,-1 338,-1 344,-1 350,-7 350,-13 350,-13 350,-25 350,-25 350,-31 344,-37 338,-37 338,-37 282,-37 282,-37 276,-37 270,-31 270,-25 270,-25 270,-13 270,-13 270,-7 276,-1 282,-1"/>
<text text-anchor="middle" x="310" y="-26.1" font-family="FreeSans" font-size="8.00" fill="#1c2021">Node[54]: Person</text>
<polyline fill="none" stroke="#2e3436" stroke-width="1.5" points="270,-19 350,-19 "/>
<text text-anchor="middle" x="310" y="-8.1" font-family="FreeSans" font-size="8.00" fill="#1c2021"> </text>
</g>
</g>
</svg>
