<?xml version="1.0" encoding="UTF-8" standalone="no"?>
<!DOCTYPE svg PUBLIC "-//W3C//DTD SVG 1.1//EN"
 "http://www.w3.org/Graphics/SVG/1.1/DTD/svg11.dtd">
<!-- Generated by graphviz version 2.36.0 (20140111.2315)
 -->
<!-- Title: g Pages: 1 -->
<svg width="359pt" height="382pt"
 viewBox="0.00 0.00 359.00 382.00" xmlns="http://www.w3.org/2000/svg" xmlns:xlink="http://www.w3.org/1999/xlink">
<g id="graph0" class="graph" transform="scale(1 1) rotate(0) translate(4 378)">
<title>g</title>
<polygon fill="white" stroke="none" points="-4,4 -4,-378 355,-378 355,4 -4,4"/>
<!-- N13 -->
<g id="node1" class="node"><title>N13</title>
<path fill="#ffffff" stroke="#2e3436" stroke-width="1.5" d="M252,-85C252,-85 312,-85 312,-85 318,-85 324,-91 324,-97 324,-97 324,-109 324,-109 324,-115 318,-121 312,-121 312,-121 252,-121 252,-121 246,-121 240,-115 240,-109 240,-109 240,-97 240,-97 240,-91 246,-85 252,-85"/>
<text text-anchor="start" x="248" y="-101.1" font-family="FreeSans" font-size="8.00" fill="#1c2021">Node[13]name = &#39;f&#39;</text>
</g>
<!-- N14 -->
<g id="node2" class="node"><title>N14</title>
<path fill="#ffffff" stroke="#2e3436" stroke-width="1.5" d="M138,-1C138,-1 200,-1 200,-1 206,-1 212,-7 212,-13 212,-13 212,-25 212,-25 212,-31 206,-37 200,-37 200,-37 138,-37 138,-37 132,-37 126,-31 126,-25 126,-25 126,-13 126,-13 126,-7 132,-1 138,-1"/>
<text text-anchor="start" x="134" y="-17.1" font-family="FreeSans" font-size="8.00" fill="#1c2021">Node[14]name = &#39;g&#39;</text>
</g>
<!-- N13&#45;&gt;N14 -->
<g id="edge1" class="edge"><title>N13&#45;&gt;N14</title>
<path fill="none" stroke="#2e3436" stroke-width="2" d="M258.311,-84.8101C240.984,-72.2365 217.357,-55.0909 198.756,-41.5931"/>
<polygon fill="#2e3436" stroke="#2e3436" stroke-width="2" points="192.657,-37.1673 200.71,-38.8406 195.986,-38.965 199.021,-41.1675 198.727,-41.5722 198.434,-41.9769 195.399,-39.7744 196.745,-44.3038 192.657,-37.1673 192.657,-37.1673"/>
<text text-anchor="middle" x="235.5" y="-59.1" font-family="FreeSans" font-size="8.00" fill="#2e3436">to</text>
</g>
<!-- N15 -->
<g id="node3" class="node"><title>N15</title>
<path fill="#ffffff" stroke="#2e3436" stroke-width="1.5" d="M77,-169C77,-169 139,-169 139,-169 145,-169 151,-175 151,-181 151,-181 151,-193 151,-193 151,-199 145,-205 139,-205 139,-205 77,-205 77,-205 71,-205 65,-199 65,-193 65,-193 65,-181 65,-181 65,-175 71,-169 77,-169"/>
<text text-anchor="start" x="73" y="-185.1" font-family="FreeSans" font-size="8.00" fill="#1c2021">Node[15]name = &#39;d&#39;</text>
</g>
<!-- N15&#45;&gt;N14 -->
<g id="edge2" class="edge"><title>N15&#45;&gt;N14</title>
<path fill="none" stroke="#2e3436" stroke-width="2" d="M114.298,-168.86C125.165,-139.287 147.473,-78.582 159.983,-44.5371"/>
<polygon fill="#2e3436" stroke="#2e3436" stroke-width="2" points="162.645,-37.2951 163.225,-45.499 161.82,-40.9875 160.527,-44.5073 160.058,-44.3349 159.588,-44.1624 160.882,-40.6425 156.89,-43.1708 162.645,-37.2951 162.645,-37.2951"/>
<text text-anchor="middle" x="148.5" y="-101.1" font-family="FreeSans" font-size="8.00" fill="#2e3436">to</text>
</g>
<!-- N16 -->
<g id="node4" class="node"><title>N16</title>
<path fill="#ffffff" stroke="#2e3436" stroke-width="1.5" d="M12,-85C12,-85 74,-85 74,-85 80,-85 86,-91 86,-97 86,-97 86,-109 86,-109 86,-115 80,-121 74,-121 74,-121 12,-121 12,-121 6,-121 0,-115 0,-109 0,-109 0,-97 0,-97 0,-91 6,-85 12,-85"/>
<text text-anchor="start" x="8" y="-101.1" font-family="FreeSans" font-size="8.00" fill="#1c2021">Node[16]name = &#39;e&#39;</text>
</g>
<!-- N15&#45;&gt;N16 -->
<g id="edge3" class="edge"><title>N15&#45;&gt;N16</title>
<path fill="none" stroke="#2e3436" stroke-width="2" d="M94.2152,-168.61C84.6716,-156.57 71.8619,-140.41 61.4411,-127.264"/>
<polygon fill="#2e3436" stroke="#2e3436" stroke-width="2" points="56.5421,-121.084 63.8459,-124.865 59.2634,-123.712 61.5929,-126.651 61.201,-126.961 60.8092,-127.272 58.4797,-124.333 58.5562,-129.058 56.5421,-121.084 56.5421,-121.084"/>
<text text-anchor="middle" x="83.5" y="-143.1" font-family="FreeSans" font-size="8.00" fill="#2e3436">to</text>
</g>
<!-- N16&#45;&gt;N14 -->
<g id="edge4" class="edge"><title>N16&#45;&gt;N14</title>
<path fill="none" stroke="#2e3436" stroke-width="2" d="M69.4137,-84.8101C88.8181,-72.1818 115.309,-54.9417 136.091,-41.4172"/>
<polygon fill="#2e3436" stroke="#2e3436" stroke-width="2" points="142.621,-37.1673 138.176,-44.0869 139.751,-39.6318 136.608,-41.6773 136.335,-41.2582 136.062,-40.8391 139.205,-38.7937 134.494,-38.4295 142.621,-37.1673 142.621,-37.1673"/>
<text text-anchor="middle" x="117.5" y="-59.1" font-family="FreeSans" font-size="8.00" fill="#2e3436">to</text>
</g>
<!-- N17 -->
<g id="node5" class="node"><title>N17</title>
<path fill="#ffffff" stroke="#2e3436" stroke-width="1.5" d="M251,-169C251,-169 313,-169 313,-169 319,-169 325,-175 325,-181 325,-181 325,-193 325,-193 325,-199 319,-205 313,-205 313,-205 251,-205 251,-205 245,-205 239,-199 239,-193 239,-193 239,-181 239,-181 239,-175 245,-169 251,-169"/>
<text text-anchor="start" x="247" y="-185.1" font-family="FreeSans" font-size="8.00" fill="#1c2021">Node[17]name = &#39;b&#39;</text>
</g>
<!-- N17&#45;&gt;N13 -->
<g id="edge5" class="edge"><title>N17&#45;&gt;N13</title>
<path fill="none" stroke="#2e3436" stroke-width="2" d="M282,-168.61C282,-157.008 282,-141.58 282,-128.71"/>
<polygon fill="#2e3436" stroke="#2e3436" stroke-width="2" points="282,-121.084 285.375,-128.584 282.5,-124.834 282.5,-128.584 282,-128.584 281.5,-128.584 281.5,-124.834 278.625,-128.584 282,-121.084 282,-121.084"/>
<text text-anchor="middle" x="285.5" y="-143.1" font-family="FreeSans" font-size="8.00" fill="#2e3436">to</text>
</g>
<!-- N18 -->
<g id="node6" class="node"><title>N18</title>
<path fill="#ffffff" stroke="#2e3436" stroke-width="1.5" d="M209,-253C209,-253 271,-253 271,-253 277,-253 283,-259 283,-265 283,-265 283,-277 283,-277 283,-283 277,-289 271,-289 271,-289 209,-289 209,-289 203,-289 197,-283 197,-277 197,-277 197,-265 197,-265 197,-259 203,-253 209,-253"/>
<text text-anchor="start" x="205" y="-269.1" font-family="FreeSans" font-size="8.00" fill="#1c2021">Node[18]name = &#39;c&#39;</text>
</g>
<!-- N18&#45;&gt;N13 -->
<g id="edge7" class="edge"><title>N18&#45;&gt;N13</title>
<path fill="none" stroke="#2e3436" stroke-width="2" d="M283.073,-254.135C304.268,-243.884 327.829,-228.24 340,-206 355.082,-178.441 330.944,-147.07 309.366,-126.48"/>
<polygon fill="#2e3436" stroke="#2e3436" stroke-width="2" points="303.673,-121.23 311.474,-123.833 306.769,-123.404 309.525,-125.947 309.186,-126.314 308.847,-126.682 306.091,-124.139 306.898,-128.795 303.673,-121.23 303.673,-121.23"/>
<text text-anchor="middle" x="347.5" y="-185.1" font-family="FreeSans" font-size="8.00" fill="#2e3436">to</text>
</g>
<!-- N18&#45;&gt;N14 -->
<g id="edge6" class="edge"><title>N18&#45;&gt;N14</title>
<path fill="none" stroke="#2e3436" stroke-width="2" d="M235.12,-252.816C222.783,-209.375 190.311,-95.0379 175.974,-44.5552"/>
<polygon fill="#2e3436" stroke="#2e3436" stroke-width="2" points="173.914,-37.3038 179.21,-43.5964 175.42,-40.7745 176.444,-44.3818 175.963,-44.5184 175.482,-44.6551 174.458,-41.0477 172.717,-45.4405 173.914,-37.3038 173.914,-37.3038"/>
<text text-anchor="middle" x="208.5" y="-143.1" font-family="FreeSans" font-size="8.00" fill="#2e3436">to</text>
</g>
<!-- N18&#45;&gt;N17 -->
<g id="edge8" class="edge"><title>N18&#45;&gt;N17</title>
<path fill="none" stroke="#2e3436" stroke-width="2" d="M248.907,-252.61C254.962,-240.789 263.05,-224.997 269.715,-211.984"/>
<polygon fill="#2e3436" stroke="#2e3436" stroke-width="2" points="273.25,-205.084 272.835,-213.298 271.985,-208.649 270.276,-211.987 269.831,-211.759 269.386,-211.531 271.095,-208.194 266.827,-210.221 273.25,-205.084 273.25,-205.084"/>
<text text-anchor="middle" x="266.5" y="-227.1" font-family="FreeSans" font-size="8.00" fill="#2e3436">to</text>
</g>
<!-- N19 -->
<g id="node7" class="node"><title>N19</title>
<path fill="#ffffff" stroke="#2e3436" stroke-width="1.5" d="M144,-337C144,-337 206,-337 206,-337 212,-337 218,-343 218,-349 218,-349 218,-361 218,-361 218,-367 212,-373 206,-373 206,-373 144,-373 144,-373 138,-373 132,-367 132,-361 132,-361 132,-349 132,-349 132,-343 138,-337 144,-337"/>
<text text-anchor="start" x="140" y="-353.1" font-family="FreeSans" font-size="8.00" fill="#1c2021">Node[19]name = &#39;a&#39;</text>
</g>
<!-- N19&#45;&gt;N15 -->
<g id="edge9" class="edge"><title>N19&#45;&gt;N15</title>
<path fill="none" stroke="#2e3436" stroke-width="2" d="M168.082,-336.86C156.146,-307.287 131.645,-246.582 117.904,-212.537"/>
<polygon fill="#2e3436" stroke="#2e3436" stroke-width="2" points="114.981,-205.295 120.917,-210.987 116.848,-208.585 118.251,-212.063 117.788,-212.25 117.324,-212.437 115.92,-208.96 114.658,-213.513 114.981,-205.295 114.981,-205.295"/>
<text text-anchor="middle" x="152.5" y="-269.1" font-family="FreeSans" font-size="8.00" fill="#2e3436">to</text>
</g>
<!-- N19&#45;&gt;N18 -->
<g id="edge10" class="edge"><title>N19&#45;&gt;N18</title>
<path fill="none" stroke="#2e3436" stroke-width="2" d="M188.785,-336.61C198.328,-324.57 211.138,-308.41 221.559,-295.264"/>
<polygon fill="#2e3436" stroke="#2e3436" stroke-width="2" points="226.458,-289.084 224.444,-297.058 224.52,-292.333 222.191,-295.272 221.799,-294.961 221.407,-294.651 223.737,-291.712 219.154,-292.865 226.458,-289.084 226.458,-289.084"/>
<text text-anchor="middle" x="214.5" y="-311.1" font-family="FreeSans" font-size="8.00" fill="#2e3436">to</text>
</g>
</g>
</svg>
