<?xml version="1.0" encoding="UTF-8" standalone="no"?>
<!DOCTYPE svg PUBLIC "-//W3C//DTD SVG 1.1//EN"
 "http://www.w3.org/Graphics/SVG/1.1/DTD/svg11.dtd">
<!-- Generated by graphviz version 2.36.0 (20140111.2315)
 -->
<!-- Title: g Pages: 1 -->
<svg width="100pt" height="130pt"
 viewBox="0.00 0.00 100.00 130.00" xmlns="http://www.w3.org/2000/svg" xmlns:xlink="http://www.w3.org/1999/xlink">
<g id="graph0" class="graph" transform="scale(1 1) rotate(0) translate(4 126)">
<title>g</title>
<polygon fill="white" stroke="none" points="-4,4 -4,-126 96,-126 96,4 -4,4"/>
<!-- N41 -->
<g id="node1" class="node"><title>N41</title>
<path fill="#ffffff" stroke="#2e3436" stroke-width="1.5" d="M16,-85C16,-85 76,-85 76,-85 82,-85 88,-91 88,-97 88,-97 88,-109 88,-109 88,-115 82,-121 76,-121 76,-121 16,-121 16,-121 10,-121 4,-115 4,-109 4,-109 4,-97 4,-97 4,-91 10,-85 16,-85"/>
<text text-anchor="start" x="12" y="-101.1" font-family="FreeSans" font-size="8.00" fill="#1c2021">Node[41]age = &#39;18&#39;</text>
</g>
<!-- N42 -->
<g id="node2" class="node"><title>N42</title>
<path fill="#ffffff" stroke="#2e3436" stroke-width="1.5" d="M11.5,-1C11.5,-1 80.5,-1 80.5,-1 86.5,-1 92.5,-7 92.5,-13 92.5,-13 92.5,-25 92.5,-25 92.5,-31 86.5,-37 80.5,-37 80.5,-37 11.5,-37 11.5,-37 5.5,-37 -0.5,-31 -0.5,-25 -0.5,-25 -0.5,-13 -0.5,-13 -0.5,-7 5.5,-1 11.5,-1"/>
<text text-anchor="start" x="7.5" y="-17.1" font-family="FreeSans" font-size="8.00" fill="#1c2021">Node[42]name = &#39;joe&#39;</text>
</g>
<!-- N41&#45;&gt;N42 -->
<g id="edge1" class="edge"><title>N41&#45;&gt;N42</title>
<path fill="none" stroke="#2e3436" stroke-width="2" d="M46,-84.6099C46,-73.0081 46,-57.5802 46,-44.7099"/>
<polygon fill="#2e3436" stroke="#2e3436" stroke-width="2" points="46,-37.0838 49.3751,-44.5838 46.5,-40.8338 46.5001,-44.5838 46.0001,-44.5838 45.5001,-44.5838 45.5,-40.8338 42.6251,-44.5839 46,-37.0838 46,-37.0838"/>
<text text-anchor="middle" x="58" y="-59.1" font-family="FreeSans" font-size="8.00" fill="#2e3436">knows</text>
</g>
</g>
</svg>
