<?xml version="1.0" encoding="UTF-8" standalone="no"?>
<!DOCTYPE svg PUBLIC "-//W3C//DTD SVG 1.1//EN"
 "http://www.w3.org/Graphics/SVG/1.1/DTD/svg11.dtd">
<!-- Generated by graphviz version 2.36.0 (20140111.2315)
 -->
<!-- Title: g Pages: 1 -->
<svg width="369pt" height="382pt"
 viewBox="0.00 0.00 369.00 382.00" xmlns="http://www.w3.org/2000/svg" xmlns:xlink="http://www.w3.org/1999/xlink">
<g id="graph0" class="graph" transform="scale(1 1) rotate(0) translate(4 378)">
<title>g</title>
<polygon fill="white" stroke="none" points="-4,4 -4,-378 365,-378 365,4 -4,4"/>
<!-- N142 -->
<g id="node1" class="node"><title>N142</title>
<path fill="#ffffff" stroke="#2e3436" stroke-width="1.5" d="M257.5,-85C257.5,-85 322.5,-85 322.5,-85 328.5,-85 334.5,-91 334.5,-97 334.5,-97 334.5,-109 334.5,-109 334.5,-115 328.5,-121 322.5,-121 322.5,-121 257.5,-121 257.5,-121 251.5,-121 245.5,-115 245.5,-109 245.5,-109 245.5,-97 245.5,-97 245.5,-91 251.5,-85 257.5,-85"/>
<text text-anchor="start" x="253.5" y="-101.1" font-family="FreeSans" font-size="8.00" fill="#1c2021">Node[142]name = &#39;f&#39;</text>
</g>
<!-- N143 -->
<g id="node2" class="node"><title>N143</title>
<path fill="#ffffff" stroke="#2e3436" stroke-width="1.5" d="M140.5,-1C140.5,-1 207.5,-1 207.5,-1 213.5,-1 219.5,-7 219.5,-13 219.5,-13 219.5,-25 219.5,-25 219.5,-31 213.5,-37 207.5,-37 207.5,-37 140.5,-37 140.5,-37 134.5,-37 128.5,-31 128.5,-25 128.5,-25 128.5,-13 128.5,-13 128.5,-7 134.5,-1 140.5,-1"/>
<text text-anchor="start" x="136.5" y="-17.1" font-family="FreeSans" font-size="8.00" fill="#1c2021">Node[143]name = &#39;g&#39;</text>
</g>
<!-- N142&#45;&gt;N143 -->
<g id="edge1" class="edge"><title>N142&#45;&gt;N143</title>
<path fill="none" stroke="#2e3436" stroke-width="2" d="M265.683,-84.8101C247.896,-72.2365 223.641,-55.0909 204.546,-41.5931"/>
<polygon fill="#2e3436" stroke="#2e3436" stroke-width="2" points="198.285,-37.1673 206.358,-38.7406 201.636,-38.9236 204.698,-41.0883 204.41,-41.4966 204.121,-41.9049 201.059,-39.7402 202.462,-44.2525 198.285,-37.1673 198.285,-37.1673"/>
<text text-anchor="middle" x="242.5" y="-59.1" font-family="FreeSans" font-size="8.00" fill="#2e3436">to</text>
</g>
<!-- N144 -->
<g id="node3" class="node"><title>N144</title>
<path fill="#ffffff" stroke="#2e3436" stroke-width="1.5" d="M76.5,-169C76.5,-169 143.5,-169 143.5,-169 149.5,-169 155.5,-175 155.5,-181 155.5,-181 155.5,-193 155.5,-193 155.5,-199 149.5,-205 143.5,-205 143.5,-205 76.5,-205 76.5,-205 70.5,-205 64.5,-199 64.5,-193 64.5,-193 64.5,-181 64.5,-181 64.5,-175 70.5,-169 76.5,-169"/>
<text text-anchor="start" x="72.5" y="-185.1" font-family="FreeSans" font-size="8.00" fill="#1c2021">Node[144]name = &#39;d&#39;</text>
</g>
<!-- N144&#45;&gt;N143 -->
<g id="edge3" class="edge"><title>N144&#45;&gt;N143</title>
<path fill="none" stroke="#2e3436" stroke-width="2" d="M116.608,-168.86C128.01,-139.287 151.414,-78.582 164.54,-44.5371"/>
<polygon fill="#2e3436" stroke="#2e3436" stroke-width="2" points="167.332,-37.2951 167.783,-45.5072 166.449,-40.974 165.1,-44.4729 164.634,-44.2931 164.167,-44.1132 165.516,-40.6142 161.485,-43.0789 167.332,-37.2951 167.332,-37.2951"/>
<text text-anchor="middle" x="152.5" y="-101.1" font-family="FreeSans" font-size="8.00" fill="#2e3436">to</text>
</g>
<!-- N145 -->
<g id="node4" class="node"><title>N145</title>
<path fill="#ffffff" stroke="#2e3436" stroke-width="1.5" d="M11.5,-85C11.5,-85 78.5,-85 78.5,-85 84.5,-85 90.5,-91 90.5,-97 90.5,-97 90.5,-109 90.5,-109 90.5,-115 84.5,-121 78.5,-121 78.5,-121 11.5,-121 11.5,-121 5.5,-121 -0.5,-115 -0.5,-109 -0.5,-109 -0.5,-97 -0.5,-97 -0.5,-91 5.5,-85 11.5,-85"/>
<text text-anchor="start" x="7.5" y="-101.1" font-family="FreeSans" font-size="8.00" fill="#1c2021">Node[145]name = &#39;e&#39;</text>
</g>
<!-- N144&#45;&gt;N145 -->
<g id="edge2" class="edge"><title>N144&#45;&gt;N145</title>
<path fill="none" stroke="#2e3436" stroke-width="2" d="M96.2152,-168.61C86.6716,-156.57 73.8619,-140.41 63.4411,-127.264"/>
<polygon fill="#2e3436" stroke="#2e3436" stroke-width="2" points="58.5421,-121.084 65.8459,-124.865 61.2634,-123.712 63.5929,-126.651 63.201,-126.961 62.8092,-127.272 60.4797,-124.333 60.5562,-129.058 58.5421,-121.084 58.5421,-121.084"/>
<text text-anchor="middle" x="85.5" y="-143.1" font-family="FreeSans" font-size="8.00" fill="#2e3436">to</text>
</g>
<!-- N145&#45;&gt;N143 -->
<g id="edge4" class="edge"><title>N145&#45;&gt;N143</title>
<path fill="none" stroke="#2e3436" stroke-width="2" d="M72.0426,-84.8101C91.995,-72.1272 119.266,-54.7924 140.583,-41.2418"/>
<polygon fill="#2e3436" stroke="#2e3436" stroke-width="2" points="146.993,-37.1673 142.474,-44.039 144.096,-39.6009 140.932,-41.6127 140.663,-41.1907 140.395,-40.7687 143.56,-38.757 138.853,-38.3424 146.993,-37.1673 146.993,-37.1673"/>
<text text-anchor="middle" x="121.5" y="-59.1" font-family="FreeSans" font-size="8.00" fill="#2e3436">to</text>
</g>
<!-- N146 -->
<g id="node5" class="node"><title>N146</title>
<path fill="#ffffff" stroke="#2e3436" stroke-width="1.5" d="M256.5,-169C256.5,-169 323.5,-169 323.5,-169 329.5,-169 335.5,-175 335.5,-181 335.5,-181 335.5,-193 335.5,-193 335.5,-199 329.5,-205 323.5,-205 323.5,-205 256.5,-205 256.5,-205 250.5,-205 244.5,-199 244.5,-193 244.5,-193 244.5,-181 244.5,-181 244.5,-175 250.5,-169 256.5,-169"/>
<text text-anchor="start" x="252.5" y="-185.1" font-family="FreeSans" font-size="8.00" fill="#1c2021">Node[146]name = &#39;b&#39;</text>
</g>
<!-- N146&#45;&gt;N142 -->
<g id="edge5" class="edge"><title>N146&#45;&gt;N142</title>
<path fill="none" stroke="#2e3436" stroke-width="2" d="M290,-168.61C290,-157.008 290,-141.58 290,-128.71"/>
<polygon fill="#2e3436" stroke="#2e3436" stroke-width="2" points="290,-121.084 293.375,-128.584 290.5,-124.834 290.5,-128.584 290,-128.584 289.5,-128.584 289.5,-124.834 286.625,-128.584 290,-121.084 290,-121.084"/>
<text text-anchor="middle" x="293.5" y="-143.1" font-family="FreeSans" font-size="8.00" fill="#2e3436">to</text>
</g>
<!-- N147 -->
<g id="node6" class="node"><title>N147</title>
<path fill="#ffffff" stroke="#2e3436" stroke-width="1.5" d="M213.5,-253C213.5,-253 280.5,-253 280.5,-253 286.5,-253 292.5,-259 292.5,-265 292.5,-265 292.5,-277 292.5,-277 292.5,-283 286.5,-289 280.5,-289 280.5,-289 213.5,-289 213.5,-289 207.5,-289 201.5,-283 201.5,-277 201.5,-277 201.5,-265 201.5,-265 201.5,-259 207.5,-253 213.5,-253"/>
<text text-anchor="start" x="209.5" y="-269.1" font-family="FreeSans" font-size="8.00" fill="#1c2021">Node[147]name = &#39;c&#39;</text>
</g>
<!-- N147&#45;&gt;N142 -->
<g id="edge6" class="edge"><title>N147&#45;&gt;N142</title>
<path fill="none" stroke="#2e3436" stroke-width="2" d="M292.661,-253.826C314.13,-243.651 337.673,-228.172 350,-206 365.396,-178.308 340.468,-146.964 318.212,-126.417"/>
<polygon fill="#2e3436" stroke="#2e3436" stroke-width="2" points="312.341,-121.178 320.184,-123.653 315.472,-123.302 318.27,-125.798 317.937,-126.171 317.604,-126.545 314.806,-124.048 315.69,-128.69 312.341,-121.178 312.341,-121.178"/>
<text text-anchor="middle" x="357.5" y="-185.1" font-family="FreeSans" font-size="8.00" fill="#2e3436">to</text>
</g>
<!-- N147&#45;&gt;N143 -->
<g id="edge8" class="edge"><title>N147&#45;&gt;N143</title>
<path fill="none" stroke="#2e3436" stroke-width="2" d="M241.982,-252.816C229.298,-209.375 195.911,-95.0379 181.17,-44.5552"/>
<polygon fill="#2e3436" stroke="#2e3436" stroke-width="2" points="179.053,-37.3038 184.395,-43.5571 180.584,-40.7633 181.635,-44.363 181.155,-44.5031 180.675,-44.6433 179.624,-41.0436 177.915,-45.4491 179.053,-37.3038 179.053,-37.3038"/>
<text text-anchor="middle" x="215.5" y="-143.1" font-family="FreeSans" font-size="8.00" fill="#2e3436">to</text>
</g>
<!-- N147&#45;&gt;N146 -->
<g id="edge7" class="edge"><title>N147&#45;&gt;N146</title>
<path fill="none" stroke="#2e3436" stroke-width="2" d="M256.119,-252.61C262.318,-240.789 270.599,-224.997 277.423,-211.984"/>
<polygon fill="#2e3436" stroke="#2e3436" stroke-width="2" points="281.041,-205.084 280.547,-213.293 279.743,-208.637 278.001,-211.958 277.558,-211.726 277.115,-211.494 278.857,-208.173 274.569,-210.159 281.041,-205.084 281.041,-205.084"/>
<text text-anchor="middle" x="275.5" y="-227.1" font-family="FreeSans" font-size="8.00" fill="#2e3436">to</text>
</g>
<!-- N148 -->
<g id="node7" class="node"><title>N148</title>
<path fill="#ffffff" stroke="#2e3436" stroke-width="1.5" d="M146.5,-337C146.5,-337 213.5,-337 213.5,-337 219.5,-337 225.5,-343 225.5,-349 225.5,-349 225.5,-361 225.5,-361 225.5,-367 219.5,-373 213.5,-373 213.5,-373 146.5,-373 146.5,-373 140.5,-373 134.5,-367 134.5,-361 134.5,-361 134.5,-349 134.5,-349 134.5,-343 140.5,-337 146.5,-337"/>
<text text-anchor="start" x="142.5" y="-353.1" font-family="FreeSans" font-size="8.00" fill="#1c2021">Node[148]name = &#39;a&#39;</text>
</g>
<!-- N148&#45;&gt;N144 -->
<g id="edge9" class="edge"><title>N148&#45;&gt;N144</title>
<path fill="none" stroke="#2e3436" stroke-width="2" d="M172.772,-336.86C160.302,-307.287 134.703,-246.582 120.347,-212.537"/>
<polygon fill="#2e3436" stroke="#2e3436" stroke-width="2" points="117.293,-205.295 123.317,-210.894 119.211,-208.556 120.668,-212.012 120.207,-212.206 119.747,-212.4 118.29,-208.945 117.098,-213.517 117.293,-205.295 117.293,-205.295"/>
<text text-anchor="middle" x="155.5" y="-269.1" font-family="FreeSans" font-size="8.00" fill="#2e3436">to</text>
</g>
<!-- N148&#45;&gt;N147 -->
<g id="edge10" class="edge"><title>N148&#45;&gt;N147</title>
<path fill="none" stroke="#2e3436" stroke-width="2" d="M194.209,-336.61C204.136,-324.461 217.49,-308.116 228.284,-294.906"/>
<polygon fill="#2e3436" stroke="#2e3436" stroke-width="2" points="233.041,-289.084 230.909,-297.027 231.056,-292.304 228.683,-295.208 228.296,-294.892 227.909,-294.575 230.281,-291.671 225.682,-292.756 233.041,-289.084 233.041,-289.084"/>
<text text-anchor="middle" x="221.5" y="-311.1" font-family="FreeSans" font-size="8.00" fill="#2e3436">to</text>
</g>
</g>
</svg>
