<?xml version="1.0" encoding="UTF-8" standalone="no"?>
<!DOCTYPE svg PUBLIC "-//W3C//DTD SVG 1.1//EN"
 "http://www.w3.org/Graphics/SVG/1.1/DTD/svg11.dtd">
<!-- Generated by graphviz version 2.36.0 (20140111.2315)
 -->
<!-- Title: g Pages: 1 -->
<svg width="112pt" height="130pt"
 viewBox="0.00 0.00 112.00 130.00" xmlns="http://www.w3.org/2000/svg" xmlns:xlink="http://www.w3.org/1999/xlink">
<g id="graph0" class="graph" transform="scale(1 1) rotate(0) translate(4 126)">
<title>g</title>
<polygon fill="white" stroke="none" points="-4,4 -4,-126 108,-126 108,4 -4,4"/>
<!-- N0 -->
<g id="node1" class="node"><title>N0</title>
<path fill="#ffffff" stroke="#2e3436" stroke-width="1.5" d="M16,-1C16,-1 88,-1 88,-1 94,-1 100,-7 100,-13 100,-13 100,-25 100,-25 100,-31 94,-37 88,-37 88,-37 16,-37 16,-37 10,-37 4,-31 4,-25 4,-25 4,-13 4,-13 4,-7 10,-1 16,-1"/>
<text text-anchor="start" x="12" y="-17.1" font-family="FreeSans" font-size="8.00" fill="#1c2021">Node[0]name = &#39;Juliet&#39;</text>
</g>
<!-- N1 -->
<g id="node2" class="node"><title>N1</title>
<path fill="#ffffff" stroke="#2e3436" stroke-width="1.5" d="M12,-85C12,-85 92,-85 92,-85 98,-85 104,-91 104,-97 104,-97 104,-109 104,-109 104,-115 98,-121 92,-121 92,-121 12,-121 12,-121 6,-121 0,-115 0,-109 0,-109 0,-97 0,-97 0,-91 6,-85 12,-85"/>
<text text-anchor="start" x="8" y="-101.1" font-family="FreeSans" font-size="8.00" fill="#1c2021">Node[1]name = &#39;Romeo&#39;</text>
</g>
<!-- N1&#45;&gt;N0 -->
<g id="edge1" class="edge"><title>N1&#45;&gt;N0</title>
<path fill="none" stroke="#2e3436" stroke-width="2" d="M52,-84.6099C52,-73.0081 52,-57.5802 52,-44.7099"/>
<polygon fill="#2e3436" stroke="#2e3436" stroke-width="2" points="52,-37.0838 55.3751,-44.5838 52.5,-40.8338 52.5001,-44.5838 52.0001,-44.5838 51.5001,-44.5838 51.5,-40.8338 48.6251,-44.5839 52,-37.0838 52,-37.0838"/>
<text text-anchor="middle" x="66" y="-59.1" font-family="FreeSans" font-size="8.00" fill="#2e3436">LOVES</text>
</g>
</g>
</svg>
