<?xml version="1.0" encoding="UTF-8" standalone="no"?>
<!DOCTYPE svg PUBLIC "-//W3C//DTD SVG 1.1//EN"
 "http://www.w3.org/Graphics/SVG/1.1/DTD/svg11.dtd">
<!-- Generated by graphviz version 2.36.0 (20140111.2315)
 -->
<!-- Title: g Pages: 1 -->
<svg width="348pt" height="382pt"
 viewBox="0.00 0.00 348.00 382.00" xmlns="http://www.w3.org/2000/svg" xmlns:xlink="http://www.w3.org/1999/xlink">
<g id="graph0" class="graph" transform="scale(1 1) rotate(0) translate(4 378)">
<title>g</title>
<polygon fill="white" stroke="none" points="-4,4 -4,-378 344,-378 344,4 -4,4"/>
<!-- N82 -->
<g id="node1" class="node"><title>N82</title>
<path fill="#ffffff" stroke="#2e3436" stroke-width="1.5" d="M15.5,-1C15.5,-1 90.5,-1 90.5,-1 96.5,-1 102.5,-7 102.5,-13 102.5,-13 102.5,-25 102.5,-25 102.5,-31 96.5,-37 90.5,-37 90.5,-37 15.5,-37 15.5,-37 9.5,-37 3.5,-31 3.5,-25 3.5,-25 3.5,-13 3.5,-13 3.5,-7 9.5,-1 15.5,-1"/>
<text text-anchor="start" x="11.5" y="-17.1" font-family="FreeSans" font-size="8.00" fill="#1c2021">Node[82]name = &#39;Sara&#39;</text>
</g>
<!-- N83 -->
<g id="node2" class="node"><title>N83</title>
<path fill="#ffffff" stroke="#2e3436" stroke-width="1.5" d="M112,-253C112,-253 192,-253 192,-253 198,-253 204,-259 204,-265 204,-265 204,-277 204,-277 204,-283 198,-289 192,-289 192,-289 112,-289 112,-289 106,-289 100,-283 100,-277 100,-277 100,-265 100,-265 100,-259 106,-253 112,-253"/>
<text text-anchor="start" x="108" y="-269.1" font-family="FreeSans" font-size="8.00" fill="#1c2021">Node[83]name = &#39;Johan&#39;</text>
</g>
<!-- N84 -->
<g id="node3" class="node"><title>N84</title>
<path fill="#ffffff" stroke="#2e3436" stroke-width="1.5" d="M115.5,-169C115.5,-169 188.5,-169 188.5,-169 194.5,-169 200.5,-175 200.5,-181 200.5,-181 200.5,-193 200.5,-193 200.5,-199 194.5,-205 188.5,-205 188.5,-205 115.5,-205 115.5,-205 109.5,-205 103.5,-199 103.5,-193 103.5,-193 103.5,-181 103.5,-181 103.5,-175 109.5,-169 115.5,-169"/>
<text text-anchor="start" x="111.5" y="-185.1" font-family="FreeSans" font-size="8.00" fill="#1c2021">Node[84]name = &#39;Emil&#39;</text>
</g>
<!-- N83&#45;&gt;N84 -->
<g id="edge1" class="edge"><title>N83&#45;&gt;N84</title>
<path fill="none" stroke="#2e3436" stroke-width="2" d="M152,-252.61C152,-241.008 152,-225.58 152,-212.71"/>
<polygon fill="#2e3436" stroke="#2e3436" stroke-width="2" points="152,-205.084 155.375,-212.584 152.5,-208.834 152.5,-212.584 152,-212.584 151.5,-212.584 151.5,-208.834 148.625,-212.584 152,-205.084 152,-205.084"/>
<text text-anchor="middle" x="164" y="-227.1" font-family="FreeSans" font-size="8.00" fill="#2e3436">knows</text>
</g>
<!-- N86 -->
<g id="node4" class="node"><title>N86</title>
<path fill="#ffffff" stroke="#2e3436" stroke-width="1.5" d="M12,-85C12,-85 94,-85 94,-85 100,-85 106,-91 106,-97 106,-97 106,-109 106,-109 106,-115 100,-121 94,-121 94,-121 12,-121 12,-121 6,-121 0,-115 0,-109 0,-109 0,-97 0,-97 0,-91 6,-85 12,-85"/>
<text text-anchor="start" x="8" y="-101.1" font-family="FreeSans" font-size="8.00" fill="#1c2021">Node[86]name = &#39;Tobias&#39;</text>
</g>
<!-- N84&#45;&gt;N86 -->
<g id="edge2" class="edge"><title>N84&#45;&gt;N86</title>
<path fill="none" stroke="#2e3436" stroke-width="2" d="M131.005,-168.61C116.073,-156.242 95.891,-139.526 79.7969,-126.195"/>
<polygon fill="#2e3436" stroke="#2e3436" stroke-width="2" points="73.6256,-121.084 81.5545,-123.269 76.8326,-123.091 79.7206,-125.483 79.4016,-125.868 79.0827,-126.253 76.1947,-123.861 77.2487,-128.467 73.6256,-121.084 73.6256,-121.084"/>
<text text-anchor="middle" x="121" y="-143.1" font-family="FreeSans" font-size="8.00" fill="#2e3436">knows</text>
</g>
<!-- N87 -->
<g id="node5" class="node"><title>N87</title>
<path fill="#ffffff" stroke="#2e3436" stroke-width="1.5" d="M147.5,-85C147.5,-85 224.5,-85 224.5,-85 230.5,-85 236.5,-91 236.5,-97 236.5,-97 236.5,-109 236.5,-109 236.5,-115 230.5,-121 224.5,-121 224.5,-121 147.5,-121 147.5,-121 141.5,-121 135.5,-115 135.5,-109 135.5,-109 135.5,-97 135.5,-97 135.5,-91 141.5,-85 147.5,-85"/>
<text text-anchor="start" x="143.5" y="-101.1" font-family="FreeSans" font-size="8.00" fill="#1c2021">Node[87]name = &#39;Peter&#39;</text>
</g>
<!-- N84&#45;&gt;N87 -->
<g id="edge3" class="edge"><title>N84&#45;&gt;N87</title>
<path fill="none" stroke="#2e3436" stroke-width="2" d="M159.211,-168.61C164.066,-156.899 170.539,-141.289 175.905,-128.346"/>
<polygon fill="#2e3436" stroke="#2e3436" stroke-width="2" points="178.916,-121.084 179.161,-129.305 177.942,-124.739 176.506,-128.203 176.044,-128.012 175.582,-127.82 177.018,-124.356 172.926,-126.719 178.916,-121.084 178.916,-121.084"/>
<text text-anchor="middle" x="184" y="-143.1" font-family="FreeSans" font-size="8.00" fill="#2e3436">knows</text>
</g>
<!-- N86&#45;&gt;N82 -->
<g id="edge6" class="edge"><title>N86&#45;&gt;N82</title>
<path fill="none" stroke="#4e9a06" stroke-width="2" d="M53,-84.6099C53,-73.0081 53,-57.5802 53,-44.7099"/>
<polygon fill="#4e9a06" stroke="#4e9a06" stroke-width="2" points="53,-37.0838 56.3751,-44.5838 53.5,-40.8338 53.5001,-44.5838 53.0001,-44.5838 52.5001,-44.5838 52.5,-40.8338 49.6251,-44.5839 53,-37.0838 53,-37.0838"/>
<text text-anchor="middle" x="62.5" y="-59.1" font-family="FreeSans" font-size="8.00" fill="#4e9a06">loves</text>
</g>
<!-- N85 -->
<g id="node6" class="node"><title>N85</title>
<path fill="#ffffff" stroke="#2e3436" stroke-width="1.5" d="M200.5,-337C200.5,-337 275.5,-337 275.5,-337 281.5,-337 287.5,-343 287.5,-349 287.5,-349 287.5,-361 287.5,-361 287.5,-367 281.5,-373 275.5,-373 275.5,-373 200.5,-373 200.5,-373 194.5,-373 188.5,-367 188.5,-361 188.5,-361 188.5,-349 188.5,-349 188.5,-343 194.5,-337 200.5,-337"/>
<text text-anchor="start" x="196.5" y="-353.1" font-family="FreeSans" font-size="8.00" fill="#1c2021">Node[85]name = &#39;Root&#39;</text>
</g>
<!-- N85&#45;&gt;N83 -->
<g id="edge4" class="edge"><title>N85&#45;&gt;N83</title>
<path fill="none" stroke="#2e3436" stroke-width="2" d="M219.762,-336.61C206.905,-324.351 189.569,-307.821 175.65,-294.55"/>
<polygon fill="#2e3436" stroke="#2e3436" stroke-width="2" points="169.917,-289.084 177.674,-291.817 172.976,-291.31 175.69,-293.898 175.345,-294.259 175,-294.621 172.286,-292.034 173.016,-296.702 169.917,-289.084 169.917,-289.084"/>
<text text-anchor="middle" x="213" y="-311.1" font-family="FreeSans" font-size="8.00" fill="#2e3436">knows</text>
</g>
<!-- N88 -->
<g id="node7" class="node"><title>N88</title>
<path fill="#ffffff" stroke="#2e3436" stroke-width="1.5" d="M245.5,-253C245.5,-253 328.5,-253 328.5,-253 334.5,-253 340.5,-259 340.5,-265 340.5,-265 340.5,-277 340.5,-277 340.5,-283 334.5,-289 328.5,-289 328.5,-289 245.5,-289 245.5,-289 239.5,-289 233.5,-283 233.5,-277 233.5,-277 233.5,-265 233.5,-265 233.5,-259 239.5,-253 245.5,-253"/>
<text text-anchor="start" x="241.5" y="-269.1" font-family="FreeSans" font-size="8.00" fill="#1c2021">Node[88]name = &#39;Mattias&#39;</text>
</g>
<!-- N85&#45;&gt;N88 -->
<g id="edge5" class="edge"><title>N85&#45;&gt;N88</title>
<path fill="none" stroke="#2e3436" stroke-width="2" d="M248.392,-336.61C255.521,-324.68 265.067,-308.704 272.884,-295.623"/>
<polygon fill="#2e3436" stroke="#2e3436" stroke-width="2" points="276.791,-289.084 275.841,-297.253 275.297,-292.559 273.373,-295.778 272.944,-295.522 272.515,-295.265 274.439,-292.046 270.047,-293.791 276.791,-289.084 276.791,-289.084"/>
<text text-anchor="middle" x="278" y="-311.1" font-family="FreeSans" font-size="8.00" fill="#2e3436">knows</text>
</g>
</g>
</svg>
