<?xml version="1.0" encoding="UTF-8" standalone="no"?>
<!DOCTYPE svg PUBLIC "-//W3C//DTD SVG 1.1//EN"
 "http://www.w3.org/Graphics/SVG/1.1/DTD/svg11.dtd">
<!-- Generated by graphviz version 2.36.0 (20140111.2315)
 -->
<!-- Title: g Pages: 1 -->
<svg width="120pt" height="148pt"
 viewBox="0.00 0.00 120.00 148.00" xmlns="http://www.w3.org/2000/svg" xmlns:xlink="http://www.w3.org/1999/xlink">
<g id="graph0" class="graph" transform="scale(1 1) rotate(0) translate(4 144)">
<title>g</title>
<polygon fill="white" stroke="none" points="-4,4 -4,-144 116,-144 116,4 -4,4"/>
<!-- N186 -->
<g id="node1" class="node"><title>N186</title>
<path fill="#ffffff" stroke="#2e3436" stroke-width="1.5" d="M15.5,-1C15.5,-1 96.5,-1 96.5,-1 102.5,-1 108.5,-7 108.5,-13 108.5,-13 108.5,-25 108.5,-25 108.5,-31 102.5,-37 96.5,-37 96.5,-37 15.5,-37 15.5,-37 9.5,-37 3.5,-31 3.5,-25 3.5,-25 3.5,-13 3.5,-13 3.5,-7 9.5,-1 15.5,-1"/>
<text text-anchor="start" x="11.5" y="-17.1" font-family="FreeSans" font-size="8.00" fill="#1c2021">Node[186]name = &#39;Juliet&#39;</text>
</g>
<!-- N187 -->
<g id="node2" class="node"><title>N187</title>
<path fill="#ffffff" stroke="#2e3436" stroke-width="1.5" d="M11.5,-103C11.5,-103 100.5,-103 100.5,-103 106.5,-103 112.5,-109 112.5,-115 112.5,-115 112.5,-127 112.5,-127 112.5,-133 106.5,-139 100.5,-139 100.5,-139 11.5,-139 11.5,-139 5.5,-139 -0.5,-133 -0.5,-127 -0.5,-127 -0.5,-115 -0.5,-115 -0.5,-109 5.5,-103 11.5,-103"/>
<text text-anchor="start" x="7.5" y="-119.1" font-family="FreeSans" font-size="8.00" fill="#1c2021">Node[187]name = &#39;Romeo&#39;</text>
</g>
<!-- N187&#45;&gt;N186 -->
<g id="edge1" class="edge"><title>N187&#45;&gt;N186</title>
<path fill="none" stroke="#2e3436" stroke-width="2" d="M56,-102.581C56,-86.6647 56,-62.9459 56,-45.0062"/>
<polygon fill="#2e3436" stroke="#2e3436" stroke-width="2" points="56,-37.2191 59.3751,-44.719 56.5,-40.9691 56.5001,-44.7191 56.0001,-44.7191 55.5001,-44.7191 55.5,-40.9691 52.6251,-44.7191 56,-37.2191 56,-37.2191"/>
<text text-anchor="middle" x="80.5" y="-77.1" font-family="FreeSans" font-size="8.00" fill="#2e3436">LOVES</text>
<text text-anchor="start" x="56" y="-68.1" font-family="FreeSans" font-size="8.00" fill="#2e3436">cost = &#39;high&#39;</text>
<text text-anchor="start" x="56" y="-59.1" font-family="FreeSans" font-size="8.00" fill="#2e3436">since = &#39;1day&#39;</text>
</g>
</g>
</svg>
