<?xml version="1.0" encoding="UTF-8" standalone="no"?>
<!DOCTYPE svg PUBLIC "-//W3C//DTD SVG 1.1//EN"
 "http://www.w3.org/Graphics/SVG/1.1/DTD/svg11.dtd">
<!-- Generated by graphviz version 2.36.0 (20140111.2315)
 -->
<!-- Title: g Pages: 1 -->
<svg width="112pt" height="46pt"
 viewBox="0.00 0.00 112.00 46.00" xmlns="http://www.w3.org/2000/svg" xmlns:xlink="http://www.w3.org/1999/xlink">
<g id="graph0" class="graph" transform="scale(1 1) rotate(0) translate(4 42)">
<title>g</title>
<polygon fill="white" stroke="none" points="-4,4 -4,-42 108,-42 108,4 -4,4"/>
<!-- N48 -->
<g id="node1" class="node"><title>N48</title>
<path fill="#ffffff" stroke="#2e3436" stroke-width="1.5" d="M12,-1C12,-1 92,-1 92,-1 98,-1 104,-7 104,-13 104,-13 104,-25 104,-25 104,-31 98,-37 92,-37 92,-37 12,-37 12,-37 6,-37 0,-31 0,-25 0,-25 0,-13 0,-13 0,-7 6,-1 12,-1"/>
<text text-anchor="middle" x="52" y="-26.1" font-family="FreeSans" font-size="8.00" fill="#1c2021">Node[48]: Person, Actor</text>
<polyline fill="none" stroke="#2e3436" stroke-width="1.5" points="0,-19 104,-19 "/>
<text text-anchor="start" x="8" y="-8.1" font-family="FreeSans" font-size="8.00" fill="#1c2021">name = &#39;Clint Eastwood&#39;</text>
</g>
</g>
</svg>
