<?xml version="1.0" encoding="UTF-8" standalone="no"?>
<!DOCTYPE svg PUBLIC "-//W3C//DTD SVG 1.1//EN"
 "http://www.w3.org/Graphics/SVG/1.1/DTD/svg11.dtd">
<!-- Generated by graphviz version 2.36.0 (20140111.2315)
 -->
<!-- Title: g Pages: 1 -->
<svg width="186pt" height="214pt"
 viewBox="0.00 0.00 186.00 214.00" xmlns="http://www.w3.org/2000/svg" xmlns:xlink="http://www.w3.org/1999/xlink">
<g id="graph0" class="graph" transform="scale(1 1) rotate(0) translate(4 210)">
<title>g</title>
<polygon fill="white" stroke="none" points="-4,4 -4,-210 182,-210 182,4 -4,4"/>
<!-- N81 -->
<g id="node1" class="node"><title>N81</title>
<path fill="#ffffff" stroke="#2e3436" stroke-width="1.5" d="M53,-85C53,-85 83,-85 83,-85 89,-85 95,-91 95,-97 95,-97 95,-109 95,-109 95,-115 89,-121 83,-121 83,-121 53,-121 53,-121 47,-121 41,-115 41,-109 41,-109 41,-97 41,-97 41,-91 47,-85 53,-85"/>
<text text-anchor="middle" x="68" y="-101.1" font-family="FreeSans" font-size="8.00" fill="#1c2021">Node[81]</text>
</g>
<!-- N82 -->
<g id="node2" class="node"><title>N82</title>
<path fill="#ffffff" stroke="#2e3436" stroke-width="1.5" d="M12,-1C12,-1 42,-1 42,-1 48,-1 54,-7 54,-13 54,-13 54,-25 54,-25 54,-31 48,-37 42,-37 42,-37 12,-37 12,-37 6,-37 0,-31 0,-25 0,-25 0,-13 0,-13 0,-7 6,-1 12,-1"/>
<text text-anchor="middle" x="27" y="-17.1" font-family="FreeSans" font-size="8.00" fill="#1c2021">Node[82]</text>
</g>
<!-- N81&#45;&gt;N82 -->
<g id="edge1" class="edge"><title>N81&#45;&gt;N82</title>
<path fill="none" stroke="#2e3436" stroke-width="2" d="M59.305,-84.6099C53.3946,-72.7892 45.4983,-56.9967 38.9921,-43.9841"/>
<polygon fill="#2e3436" stroke="#2e3436" stroke-width="2" points="35.5419,-37.0838 41.9148,-42.2827 37.6662,-40.2143 39.3433,-43.5684 38.8961,-43.7921 38.4489,-44.0157 36.7718,-40.6616 35.8774,-45.3014 35.5419,-37.0838 35.5419,-37.0838"/>
<text text-anchor="middle" x="61.5" y="-59.1" font-family="FreeSans" font-size="8.00" fill="#2e3436">LIKES</text>
</g>
<!-- N84 -->
<g id="node3" class="node"><title>N84</title>
<path fill="#ffffff" stroke="#2e3436" stroke-width="1.5" d="M95,-1C95,-1 125,-1 125,-1 131,-1 137,-7 137,-13 137,-13 137,-25 137,-25 137,-31 131,-37 125,-37 125,-37 95,-37 95,-37 89,-37 83,-31 83,-25 83,-25 83,-13 83,-13 83,-7 89,-1 95,-1"/>
<text text-anchor="middle" x="110" y="-17.1" font-family="FreeSans" font-size="8.00" fill="#1c2021">Node[84]</text>
</g>
<!-- N81&#45;&gt;N84 -->
<g id="edge2" class="edge"><title>N81&#45;&gt;N84</title>
<path fill="none" stroke="#4e9a06" stroke-width="2" d="M76.9071,-84.6099C82.9616,-72.7892 91.0505,-56.9967 97.7154,-43.9841"/>
<polygon fill="#4e9a06" stroke="#4e9a06" stroke-width="2" points="101.25,-37.0838 100.835,-45.2978 99.9852,-40.6495 98.2756,-43.9871 97.8306,-43.7592 97.3856,-43.5312 99.0952,-40.1936 94.8267,-42.2206 101.25,-37.0838 101.25,-37.0838"/>
<text text-anchor="middle" x="105" y="-59.1" font-family="FreeSans" font-size="8.00" fill="#4e9a06">HATES</text>
</g>
<!-- N83 -->
<g id="node4" class="node"><title>N83</title>
<path fill="#ffffff" stroke="#2e3436" stroke-width="1.5" d="M53,-169C53,-169 83,-169 83,-169 89,-169 95,-175 95,-181 95,-181 95,-193 95,-193 95,-199 89,-205 83,-205 83,-205 53,-205 53,-205 47,-205 41,-199 41,-193 41,-193 41,-181 41,-181 41,-175 47,-169 53,-169"/>
<text text-anchor="middle" x="68" y="-185.1" font-family="FreeSans" font-size="8.00" fill="#1c2021">Node[83]</text>
</g>
<!-- N83&#45;&gt;N81 -->
<g id="edge3" class="edge"><title>N83&#45;&gt;N81</title>
<path fill="none" stroke="#2e3436" stroke-width="2" d="M68,-168.61C68,-157.008 68,-141.58 68,-128.71"/>
<polygon fill="#2e3436" stroke="#2e3436" stroke-width="2" points="68,-121.084 71.3751,-128.584 68.5,-124.834 68.5001,-128.584 68.0001,-128.584 67.5001,-128.584 67.5,-124.834 64.6251,-128.584 68,-121.084 68,-121.084"/>
<text text-anchor="middle" x="79.5" y="-143.1" font-family="FreeSans" font-size="8.00" fill="#2e3436">LIKES</text>
</g>
<!-- N85 -->
<g id="node5" class="node"><title>N85</title>
<path fill="#ffffff" stroke="#2e3436" stroke-width="1.5" d="M136,-169C136,-169 166,-169 166,-169 172,-169 178,-175 178,-181 178,-181 178,-193 178,-193 178,-199 172,-205 166,-205 166,-205 136,-205 136,-205 130,-205 124,-199 124,-193 124,-193 124,-181 124,-181 124,-175 130,-169 136,-169"/>
<text text-anchor="middle" x="151" y="-185.1" font-family="FreeSans" font-size="8.00" fill="#1c2021">Node[85]</text>
</g>
</g>
</svg>
