<?xml version="1.0" encoding="UTF-8" standalone="no"?>
<!DOCTYPE svg PUBLIC "-//W3C//DTD SVG 1.1//EN"
 "http://www.w3.org/Graphics/SVG/1.1/DTD/svg11.dtd">
<!-- Generated by graphviz version 2.36.0 (20140111.2315)
 -->
<!-- Title: g Pages: 1 -->
<svg width="286pt" height="382pt"
 viewBox="0.00 0.00 286.00 382.00" xmlns="http://www.w3.org/2000/svg" xmlns:xlink="http://www.w3.org/1999/xlink">
<g id="graph0" class="graph" transform="scale(1 1) rotate(0) translate(4 378)">
<title>g</title>
<polygon fill="white" stroke="none" points="-4,4 -4,-378 282,-378 282,4 -4,4"/>
<!-- N108 -->
<g id="node1" class="node"><title>N108</title>
<path fill="#ffffff" stroke="#2e3436" stroke-width="1.5" d="M150,-1C150,-1 230,-1 230,-1 236,-1 242,-7 242,-13 242,-13 242,-25 242,-25 242,-31 236,-37 230,-37 230,-37 150,-37 150,-37 144,-37 138,-31 138,-25 138,-25 138,-13 138,-13 138,-7 144,-1 150,-1"/>
<text text-anchor="start" x="146" y="-17.1" font-family="FreeSans" font-size="8.00" fill="#1c2021">Node[108]name = &#39;Sara&#39;</text>
</g>
<!-- N109 -->
<g id="node2" class="node"><title>N109</title>
<path fill="#ffffff" stroke="#2e3436" stroke-width="1.5" d="M39.5,-253C39.5,-253 124.5,-253 124.5,-253 130.5,-253 136.5,-259 136.5,-265 136.5,-265 136.5,-277 136.5,-277 136.5,-283 130.5,-289 124.5,-289 124.5,-289 39.5,-289 39.5,-289 33.5,-289 27.5,-283 27.5,-277 27.5,-277 27.5,-265 27.5,-265 27.5,-259 33.5,-253 39.5,-253"/>
<text text-anchor="start" x="35.5" y="-269.1" font-family="FreeSans" font-size="8.00" fill="#1c2021">Node[109]name = &#39;Johan&#39;</text>
</g>
<!-- N110 -->
<g id="node3" class="node"><title>N110</title>
<path fill="#ffffff" stroke="#2e3436" stroke-width="1.5" d="M43.5,-169C43.5,-169 120.5,-169 120.5,-169 126.5,-169 132.5,-175 132.5,-181 132.5,-181 132.5,-193 132.5,-193 132.5,-199 126.5,-205 120.5,-205 120.5,-205 43.5,-205 43.5,-205 37.5,-205 31.5,-199 31.5,-193 31.5,-193 31.5,-181 31.5,-181 31.5,-175 37.5,-169 43.5,-169"/>
<text text-anchor="start" x="39.5" y="-185.1" font-family="FreeSans" font-size="8.00" fill="#1c2021">Node[110]name = &#39;Emil&#39;</text>
</g>
<!-- N109&#45;&gt;N110 -->
<g id="edge1" class="edge"><title>N109&#45;&gt;N110</title>
<path fill="none" stroke="#2e3436" stroke-width="2" d="M82,-252.61C82,-241.008 82,-225.58 82,-212.71"/>
<polygon fill="#2e3436" stroke="#2e3436" stroke-width="2" points="82,-205.084 85.3751,-212.584 82.5,-208.834 82.5001,-212.584 82.0001,-212.584 81.5001,-212.584 81.5,-208.834 78.6251,-212.584 82,-205.084 82,-205.084"/>
<text text-anchor="middle" x="94" y="-227.1" font-family="FreeSans" font-size="8.00" fill="#2e3436">knows</text>
</g>
<!-- N113 -->
<g id="node4" class="node"><title>N113</title>
<path fill="#ffffff" stroke="#2e3436" stroke-width="1.5" d="M12,-85C12,-85 94,-85 94,-85 100,-85 106,-91 106,-97 106,-97 106,-109 106,-109 106,-115 100,-121 94,-121 94,-121 12,-121 12,-121 6,-121 0,-115 0,-109 0,-109 0,-97 0,-97 0,-91 6,-85 12,-85"/>
<text text-anchor="start" x="8" y="-101.1" font-family="FreeSans" font-size="8.00" fill="#1c2021">Node[113]name = &#39;Peter&#39;</text>
</g>
<!-- N110&#45;&gt;N113 -->
<g id="edge2" class="edge"><title>N110&#45;&gt;N113</title>
<path fill="none" stroke="#2e3436" stroke-width="2" d="M75.8498,-168.61C71.7081,-156.899 66.1875,-141.289 61.6103,-128.346"/>
<polygon fill="#2e3436" stroke="#2e3436" stroke-width="2" points="59.0418,-121.084 64.7244,-127.029 60.7636,-124.453 62.014,-127.988 61.5426,-128.155 61.0712,-128.321 59.8208,-124.786 58.3607,-129.28 59.0418,-121.084 59.0418,-121.084"/>
<text text-anchor="middle" x="82" y="-143.1" font-family="FreeSans" font-size="8.00" fill="#2e3436">knows</text>
</g>
<!-- N112 -->
<g id="node5" class="node"><title>N112</title>
<path fill="#ffffff" stroke="#2e3436" stroke-width="1.5" d="M147,-85C147,-85 233,-85 233,-85 239,-85 245,-91 245,-97 245,-97 245,-109 245,-109 245,-115 239,-121 233,-121 233,-121 147,-121 147,-121 141,-121 135,-115 135,-109 135,-109 135,-97 135,-97 135,-91 141,-85 147,-85"/>
<text text-anchor="start" x="143" y="-101.1" font-family="FreeSans" font-size="8.00" fill="#1c2021">Node[112]name = &#39;Tobias&#39;</text>
</g>
<!-- N110&#45;&gt;N112 -->
<g id="edge3" class="edge"><title>N110&#45;&gt;N112</title>
<path fill="none" stroke="#2e3436" stroke-width="2" d="M104.64,-168.81C121.057,-156.346 143.39,-139.389 161.095,-125.946"/>
<polygon fill="#2e3436" stroke="#2e3436" stroke-width="2" points="167.389,-121.167 163.457,-128.391 164.705,-123.833 161.718,-126.101 161.416,-125.703 161.114,-125.304 164.1,-123.037 159.375,-123.015 167.389,-121.167 167.389,-121.167"/>
<text text-anchor="middle" x="155" y="-143.1" font-family="FreeSans" font-size="8.00" fill="#2e3436">knows</text>
</g>
<!-- N112&#45;&gt;N108 -->
<g id="edge6" class="edge"><title>N112&#45;&gt;N108</title>
<path fill="none" stroke="#4e9a06" stroke-width="2" d="M190,-84.6099C190,-73.0081 190,-57.5802 190,-44.7099"/>
<polygon fill="#4e9a06" stroke="#4e9a06" stroke-width="2" points="190,-37.0838 193.375,-44.5838 190.5,-40.8338 190.5,-44.5838 190,-44.5838 189.5,-44.5838 189.5,-40.8338 186.625,-44.5839 190,-37.0838 190,-37.0838"/>
<text text-anchor="middle" x="199.5" y="-59.1" font-family="FreeSans" font-size="8.00" fill="#4e9a06">loves</text>
</g>
<!-- N111 -->
<g id="node6" class="node"><title>N111</title>
<path fill="#ffffff" stroke="#2e3436" stroke-width="1.5" d="M132,-337C132,-337 212,-337 212,-337 218,-337 224,-343 224,-349 224,-349 224,-361 224,-361 224,-367 218,-373 212,-373 212,-373 132,-373 132,-373 126,-373 120,-367 120,-361 120,-361 120,-349 120,-349 120,-343 126,-337 132,-337"/>
<text text-anchor="start" x="128" y="-353.1" font-family="FreeSans" font-size="8.00" fill="#1c2021">Node[111]name = &#39;Root&#39;</text>
</g>
<!-- N111&#45;&gt;N109 -->
<g id="edge5" class="edge"><title>N111&#45;&gt;N109</title>
<path fill="none" stroke="#2e3436" stroke-width="2" d="M152.913,-336.61C139.339,-324.242 120.992,-307.526 106.361,-294.195"/>
<polygon fill="#2e3436" stroke="#2e3436" stroke-width="2" points="100.751,-289.084 108.568,-291.64 103.859,-291.24 106.631,-293.765 106.295,-294.135 105.958,-294.505 103.186,-291.979 104.022,-296.63 100.751,-289.084 100.751,-289.084"/>
<text text-anchor="middle" x="145" y="-311.1" font-family="FreeSans" font-size="8.00" fill="#2e3436">knows</text>
</g>
<!-- N114 -->
<g id="node7" class="node"><title>N114</title>
<path fill="#ffffff" stroke="#2e3436" stroke-width="1.5" d="M178,-253C178,-253 266,-253 266,-253 272,-253 278,-259 278,-265 278,-265 278,-277 278,-277 278,-283 272,-289 266,-289 266,-289 178,-289 178,-289 172,-289 166,-283 166,-277 166,-277 166,-265 166,-265 166,-259 172,-253 178,-253"/>
<text text-anchor="start" x="174" y="-269.1" font-family="FreeSans" font-size="8.00" fill="#1c2021">Node[114]name = &#39;Mattias&#39;</text>
</g>
<!-- N111&#45;&gt;N114 -->
<g id="edge4" class="edge"><title>N111&#45;&gt;N114</title>
<path fill="none" stroke="#2e3436" stroke-width="2" d="M182.604,-336.61C189.878,-324.68 199.62,-308.704 207.595,-295.623"/>
<polygon fill="#2e3436" stroke="#2e3436" stroke-width="2" points="211.583,-289.084 210.56,-297.244 210.058,-292.546 208.105,-295.748 207.678,-295.487 207.252,-295.227 209.204,-292.025 204.797,-293.73 211.583,-289.084 211.583,-289.084"/>
<text text-anchor="middle" x="212" y="-311.1" font-family="FreeSans" font-size="8.00" fill="#2e3436">knows</text>
</g>
</g>
</svg>
