<?xml version="1.0" encoding="UTF-8" standalone="no"?>
<!DOCTYPE svg PUBLIC "-//W3C//DTD SVG 1.1//EN"
 "http://www.w3.org/Graphics/SVG/1.1/DTD/svg11.dtd">
<!-- Generated by graphviz version 2.36.0 (20140111.2315)
 -->
<!-- Title: g Pages: 1 -->
<svg width="221pt" height="52pt"
 viewBox="0.00 0.00 221.00 52.00" xmlns="http://www.w3.org/2000/svg" xmlns:xlink="http://www.w3.org/1999/xlink">
<g id="graph0" class="graph" transform="scale(1 1) rotate(0) translate(4 48)">
<title>g</title>
<polygon fill="white" stroke="none" points="-4,4 -4,-48 217,-48 217,4 -4,4"/>
<!-- N141 -->
<g id="node1" class="node"><title>N141</title>
<path fill="#ffffff" stroke="#2e3436" stroke-width="1.5" d="M12,-0.5C12,-0.5 80,-0.5 80,-0.5 86,-0.5 92,-6.5 92,-12.5 92,-12.5 92,-31.5 92,-31.5 92,-37.5 86,-43.5 80,-43.5 80,-43.5 12,-43.5 12,-43.5 6,-43.5 0,-37.5 0,-31.5 0,-31.5 0,-12.5 0,-12.5 0,-6.5 6,-0.5 12,-0.5"/>
<text text-anchor="middle" x="46" y="-33.1" font-family="FreeSans" font-size="8.00" fill="#1c2021">Node[141]: Person</text>
<polyline fill="none" stroke="#2e3436" stroke-width="1.5" points="0,-26.5 92,-26.5 "/>
<text text-anchor="start" x="8" y="-16.1" font-family="FreeSans" font-size="8.00" fill="#1c2021">name = &#39;Andres&#39;</text>
<text text-anchor="start" x="8" y="-7.1" font-family="FreeSans" font-size="8.00" fill="#1c2021">position = &#39;Developer&#39;</text>
</g>
<!-- N142 -->
<g id="node2" class="node"><title>N142</title>
<path fill="#ffffff" stroke="#2e3436" stroke-width="1.5" d="M133,-0.5C133,-0.5 201,-0.5 201,-0.5 207,-0.5 213,-6.5 213,-12.5 213,-12.5 213,-31.5 213,-31.5 213,-37.5 207,-43.5 201,-43.5 201,-43.5 133,-43.5 133,-43.5 127,-43.5 121,-37.5 121,-31.5 121,-31.5 121,-12.5 121,-12.5 121,-6.5 127,-0.5 133,-0.5"/>
<text text-anchor="middle" x="167" y="-33.1" font-family="FreeSans" font-size="8.00" fill="#1c2021">Node[142]: Person</text>
<polyline fill="none" stroke="#2e3436" stroke-width="1.5" points="121,-26.5 213,-26.5 "/>
<text text-anchor="start" x="129" y="-16.1" font-family="FreeSans" font-size="8.00" fill="#1c2021">name = &#39;Michael&#39;</text>
<text text-anchor="start" x="129" y="-7.1" font-family="FreeSans" font-size="8.00" fill="#1c2021">position = &#39;Developer&#39;</text>
</g>
</g>
</svg>
