<?xml version="1.0" encoding="UTF-8" standalone="no"?>
<!DOCTYPE svg PUBLIC "-//W3C//DTD SVG 1.1//EN"
 "http://www.w3.org/Graphics/SVG/1.1/DTD/svg11.dtd">
<!-- Generated by graphviz version 2.36.0 (20140111.2315)
 -->
<!-- Title: g Pages: 1 -->
<svg width="120pt" height="138pt"
 viewBox="0.00 0.00 120.00 138.00" xmlns="http://www.w3.org/2000/svg" xmlns:xlink="http://www.w3.org/1999/xlink">
<g id="graph0" class="graph" transform="scale(1 1) rotate(0) translate(4 134)">
<title>g</title>
<polygon fill="white" stroke="none" points="-4,4 -4,-134 116,-134 116,4 -4,4"/>
<!-- N184 -->
<g id="node1" class="node"><title>N184</title>
<path fill="#ffffff" stroke="#2e3436" stroke-width="1.5" d="M15.5,-1C15.5,-1 96.5,-1 96.5,-1 102.5,-1 108.5,-7 108.5,-13 108.5,-13 108.5,-25 108.5,-25 108.5,-31 102.5,-37 96.5,-37 96.5,-37 15.5,-37 15.5,-37 9.5,-37 3.5,-31 3.5,-25 3.5,-25 3.5,-13 3.5,-13 3.5,-7 9.5,-1 15.5,-1"/>
<text text-anchor="start" x="11.5" y="-17.1" font-family="FreeSans" font-size="8.00" fill="#1c2021">Node[184]name = &#39;Juliet&#39;</text>
</g>
<!-- N185 -->
<g id="node2" class="node"><title>N185</title>
<path fill="#ffffff" stroke="#2e3436" stroke-width="1.5" d="M11.5,-93C11.5,-93 100.5,-93 100.5,-93 106.5,-93 112.5,-99 112.5,-105 112.5,-105 112.5,-117 112.5,-117 112.5,-123 106.5,-129 100.5,-129 100.5,-129 11.5,-129 11.5,-129 5.5,-129 -0.5,-123 -0.5,-117 -0.5,-117 -0.5,-105 -0.5,-105 -0.5,-99 5.5,-93 11.5,-93"/>
<text text-anchor="start" x="7.5" y="-109.1" font-family="FreeSans" font-size="8.00" fill="#1c2021">Node[185]name = &#39;Romeo&#39;</text>
</g>
<!-- N185&#45;&gt;N184 -->
<g id="edge1" class="edge"><title>N185&#45;&gt;N184</title>
<path fill="none" stroke="#2e3436" stroke-width="2" d="M56,-92.6471C56,-79.0758 56,-60.027 56,-44.84"/>
<polygon fill="#2e3436" stroke="#2e3436" stroke-width="2" points="56,-37.2996 59.3751,-44.7996 56.5,-41.0496 56.5001,-44.7996 56.0001,-44.7996 55.5001,-44.7996 55.5,-41.0496 52.6251,-44.7997 56,-37.2996 56,-37.2996"/>
<text text-anchor="middle" x="81.5" y="-67.6" font-family="FreeSans" font-size="8.00" fill="#2e3436">LOVES</text>
<text text-anchor="start" x="56" y="-58.6" font-family="FreeSans" font-size="8.00" fill="#2e3436">cost = &#39;deadly&#39;</text>
</g>
</g>
</svg>
