<?xml version="1.0" encoding="UTF-8" standalone="no"?>
<!DOCTYPE svg PUBLIC "-//W3C//DTD SVG 1.1//EN"
 "http://www.w3.org/Graphics/SVG/1.1/DTD/svg11.dtd">
<!-- Generated by graphviz version 2.36.0 (20140111.2315)
 -->
<!-- Title: g Pages: 1 -->
<svg width="442pt" height="46pt"
 viewBox="0.00 0.00 442.00 46.00" xmlns="http://www.w3.org/2000/svg" xmlns:xlink="http://www.w3.org/1999/xlink">
<g id="graph0" class="graph" transform="scale(1 1) rotate(0) translate(4 42)">
<title>g</title>
<polygon fill="white" stroke="none" points="-4,4 -4,-42 438,-42 438,4 -4,4"/>
<!-- N122 -->
<g id="node1" class="node"><title>N122</title>
<path fill="#ffffff" stroke="#2e3436" stroke-width="1.5" d="M12,-1C12,-1 106,-1 106,-1 112,-1 118,-7 118,-13 118,-13 118,-25 118,-25 118,-31 112,-37 106,-37 106,-37 12,-37 12,-37 6,-37 0,-31 0,-25 0,-25 0,-13 0,-13 0,-7 6,-1 12,-1"/>
<text text-anchor="middle" x="59" y="-26.1" font-family="FreeSans" font-size="8.00" fill="#1c2021">Node[122]: Person, Director</text>
<polyline fill="none" stroke="#2e3436" stroke-width="1.5" points="0,-19 118,-19 "/>
<text text-anchor="start" x="8" y="-8.1" font-family="FreeSans" font-size="8.00" fill="#1c2021">name = &#39;Steven Spielberg&#39;</text>
</g>
<!-- N123 -->
<g id="node2" class="node"><title>N123</title>
<path fill="#ffffff" stroke="#2e3436" stroke-width="1.5" d="M159,-1C159,-1 277,-1 277,-1 283,-1 289,-7 289,-13 289,-13 289,-25 289,-25 289,-31 283,-37 277,-37 277,-37 159,-37 159,-37 153,-37 147,-31 147,-25 147,-25 147,-13 147,-13 147,-7 153,-1 159,-1"/>
<text text-anchor="middle" x="218" y="-26.1" font-family="FreeSans" font-size="8.00" fill="#1c2021">Node[123]: Person, Actor, Director</text>
<polyline fill="none" stroke="#2e3436" stroke-width="1.5" points="147,-19 289,-19 "/>
<text text-anchor="start" x="155" y="-8.1" font-family="FreeSans" font-size="8.00" fill="#1c2021">name = &#39;Clint Eastwood&#39;</text>
</g>
<!-- N124 -->
<g id="node3" class="node"><title>N124</title>
<path fill="#ffffff" stroke="#2e3436" stroke-width="1.5" d="M330,-1C330,-1 422,-1 422,-1 428,-1 434,-7 434,-13 434,-13 434,-25 434,-25 434,-31 428,-37 422,-37 422,-37 330,-37 330,-37 324,-37 318,-31 318,-25 318,-25 318,-13 318,-13 318,-7 324,-1 330,-1"/>
<text text-anchor="middle" x="376" y="-26.1" font-family="FreeSans" font-size="8.00" fill="#1c2021">Node[124]: Person, Actor</text>
<polyline fill="none" stroke="#2e3436" stroke-width="1.5" points="318,-19 434,-19 "/>
<text text-anchor="start" x="326" y="-8.1" font-family="FreeSans" font-size="8.00" fill="#1c2021">name = &#39;Donald Sutherland&#39;</text>
</g>
</g>
</svg>
