<?xml version="1.0" encoding="UTF-8" standalone="no"?>
<!DOCTYPE svg PUBLIC "-//W3C//DTD SVG 1.1//EN"
 "http://www.w3.org/Graphics/SVG/1.1/DTD/svg11.dtd">
<!-- Generated by graphviz version 2.36.0 (20140111.2315)
 -->
<!-- Title: g Pages: 1 -->
<svg width="116pt" height="148pt"
 viewBox="0.00 0.00 116.00 148.00" xmlns="http://www.w3.org/2000/svg" xmlns:xlink="http://www.w3.org/1999/xlink">
<g id="graph0" class="graph" transform="scale(1 1) rotate(0) translate(4 144)">
<title>g</title>
<polygon fill="white" stroke="none" points="-4,4 -4,-144 112,-144 112,4 -4,4"/>
<!-- N10 -->
<g id="node1" class="node"><title>N10</title>
<path fill="#ffffff" stroke="#2e3436" stroke-width="1.5" d="M15.5,-1C15.5,-1 92.5,-1 92.5,-1 98.5,-1 104.5,-7 104.5,-13 104.5,-13 104.5,-25 104.5,-25 104.5,-31 98.5,-37 92.5,-37 92.5,-37 15.5,-37 15.5,-37 9.5,-37 3.5,-31 3.5,-25 3.5,-25 3.5,-13 3.5,-13 3.5,-7 9.5,-1 15.5,-1"/>
<text text-anchor="start" x="11.5" y="-17.1" font-family="FreeSans" font-size="8.00" fill="#1c2021">Node[10]name = &#39;Juliet&#39;</text>
</g>
<!-- N11 -->
<g id="node2" class="node"><title>N11</title>
<path fill="#ffffff" stroke="#2e3436" stroke-width="1.5" d="M12,-103C12,-103 96,-103 96,-103 102,-103 108,-109 108,-115 108,-115 108,-127 108,-127 108,-133 102,-139 96,-139 96,-139 12,-139 12,-139 6,-139 0,-133 0,-127 0,-127 0,-115 0,-115 0,-109 6,-103 12,-103"/>
<text text-anchor="start" x="8" y="-119.1" font-family="FreeSans" font-size="8.00" fill="#1c2021">Node[11]name = &#39;Romeo&#39;</text>
</g>
<!-- N11&#45;&gt;N10 -->
<g id="edge1" class="edge"><title>N11&#45;&gt;N10</title>
<path fill="none" stroke="#2e3436" stroke-width="2" d="M54,-102.581C54,-86.6647 54,-62.9459 54,-45.0062"/>
<polygon fill="#2e3436" stroke="#2e3436" stroke-width="2" points="54,-37.2191 57.3751,-44.719 54.5,-40.9691 54.5001,-44.7191 54.0001,-44.7191 53.5001,-44.7191 53.5,-40.9691 50.6251,-44.7191 54,-37.2191 54,-37.2191"/>
<text text-anchor="middle" x="78.5" y="-77.1" font-family="FreeSans" font-size="8.00" fill="#2e3436">LOVES</text>
<text text-anchor="start" x="54" y="-68.1" font-family="FreeSans" font-size="8.00" fill="#2e3436">cost = &#39;high&#39;</text>
<text text-anchor="start" x="54" y="-59.1" font-family="FreeSans" font-size="8.00" fill="#2e3436">since = &#39;1day&#39;</text>
</g>
</g>
</svg>
