<?xml version="1.0" encoding="UTF-8" standalone="no"?>
<!DOCTYPE svg PUBLIC "-//W3C//DTD SVG 1.1//EN"
 "http://www.w3.org/Graphics/SVG/1.1/DTD/svg11.dtd">
<!-- Generated by graphviz version 2.36.0 (20140111.2315)
 -->
<!-- Title: g Pages: 1 -->
<svg width="226pt" height="130pt"
 viewBox="0.00 0.00 226.00 130.00" xmlns="http://www.w3.org/2000/svg" xmlns:xlink="http://www.w3.org/1999/xlink">
<g id="graph0" class="graph" transform="scale(1 1) rotate(0) translate(4 126)">
<title>g</title>
<polygon fill="white" stroke="none" points="-4,4 -4,-126 222,-126 222,4 -4,4"/>
<!-- N89 -->
<g id="node1" class="node"><title>N89</title>
<path fill="#ffffff" stroke="#2e3436" stroke-width="1.5" d="M12,-1C12,-1 82,-1 82,-1 88,-1 94,-7 94,-13 94,-13 94,-25 94,-25 94,-31 88,-37 82,-37 82,-37 12,-37 12,-37 6,-37 0,-31 0,-25 0,-25 0,-13 0,-13 0,-7 6,-1 12,-1"/>
<text text-anchor="start" x="8" y="-17.1" font-family="FreeSans" font-size="8.00" fill="#1c2021">Node[89]name = &#39;car&#39;</text>
</g>
<!-- N90 -->
<g id="node2" class="node"><title>N90</title>
<path fill="#ffffff" stroke="#2e3436" stroke-width="1.5" d="M135.5,-1C135.5,-1 206.5,-1 206.5,-1 212.5,-1 218.5,-7 218.5,-13 218.5,-13 218.5,-25 218.5,-25 218.5,-31 212.5,-37 206.5,-37 206.5,-37 135.5,-37 135.5,-37 129.5,-37 123.5,-31 123.5,-25 123.5,-25 123.5,-13 123.5,-13 123.5,-7 129.5,-1 135.5,-1"/>
<text text-anchor="start" x="131.5" y="-17.1" font-family="FreeSans" font-size="8.00" fill="#1c2021">Node[90]name = &#39;you&#39;</text>
</g>
<!-- N91 -->
<g id="node3" class="node"><title>N91</title>
<path fill="#ffffff" stroke="#2e3436" stroke-width="1.5" d="M79,-85C79,-85 139,-85 139,-85 145,-85 151,-91 151,-97 151,-97 151,-109 151,-109 151,-115 145,-121 139,-121 139,-121 79,-121 79,-121 73,-121 67,-115 67,-109 67,-109 67,-97 67,-97 67,-91 73,-85 79,-85"/>
<text text-anchor="start" x="75" y="-101.1" font-family="FreeSans" font-size="8.00" fill="#1c2021">Node[91]name = &#39;I&#39;</text>
</g>
<!-- N91&#45;&gt;N89 -->
<g id="edge2" class="edge"><title>N91&#45;&gt;N89</title>
<path fill="none" stroke="#4e9a06" stroke-width="2" d="M95.8514,-84.6099C86.7483,-72.5703 74.5298,-56.4104 64.59,-43.2641"/>
<polygon fill="#4e9a06" stroke="#4e9a06" stroke-width="2" points="59.9171,-37.0838 67.1325,-41.0308 62.5776,-39.7735 64.8392,-42.7647 64.4404,-43.0663 64.0416,-43.3679 61.7799,-40.3766 61.7483,-45.1018 59.9171,-37.0838 59.9171,-37.0838"/>
<text text-anchor="middle" x="90" y="-59.1" font-family="FreeSans" font-size="8.00" fill="#4e9a06">own</text>
</g>
<!-- N91&#45;&gt;N90 -->
<g id="edge1" class="edge"><title>N91&#45;&gt;N90</title>
<path fill="none" stroke="#2e3436" stroke-width="2" d="M122.149,-84.6099C131.252,-72.5703 143.47,-56.4104 153.41,-43.2641"/>
<polygon fill="#2e3436" stroke="#2e3436" stroke-width="2" points="158.083,-37.0838 156.252,-45.1018 156.22,-40.3766 153.958,-43.3679 153.56,-43.0663 153.161,-42.7647 155.422,-39.7735 150.867,-41.0308 158.083,-37.0838 158.083,-37.0838"/>
<text text-anchor="middle" x="154" y="-59.1" font-family="FreeSans" font-size="8.00" fill="#2e3436">know</text>
</g>
</g>
</svg>
