<?xml version="1.0" encoding="UTF-8" standalone="no"?>
<!DOCTYPE svg PUBLIC "-//W3C//DTD SVG 1.1//EN"
 "http://www.w3.org/Graphics/SVG/1.1/DTD/svg11.dtd">
<!-- Generated by graphviz version 2.36.0 (20140111.2315)
 -->
<!-- Title: g Pages: 1 -->
<svg width="102pt" height="130pt"
 viewBox="0.00 0.00 102.00 130.00" xmlns="http://www.w3.org/2000/svg" xmlns:xlink="http://www.w3.org/1999/xlink">
<g id="graph0" class="graph" transform="scale(1 1) rotate(0) translate(4 126)">
<title>g</title>
<polygon fill="white" stroke="none" points="-4,4 -4,-126 98,-126 98,4 -4,4"/>
<!-- N9 -->
<g id="node1" class="node"><title>N9</title>
<path fill="#ffffff" stroke="#2e3436" stroke-width="1.5" d="M11.5,-1C11.5,-1 82.5,-1 82.5,-1 88.5,-1 94.5,-7 94.5,-13 94.5,-13 94.5,-25 94.5,-25 94.5,-31 88.5,-37 82.5,-37 82.5,-37 11.5,-37 11.5,-37 5.5,-37 -0.5,-31 -0.5,-25 -0.5,-25 -0.5,-13 -0.5,-13 -0.5,-7 5.5,-1 11.5,-1"/>
<text text-anchor="start" x="7.5" y="-17.1" font-family="FreeSans" font-size="8.00" fill="#1c2021">Node[9]name = &#39;Sara&#39;</text>
</g>
<!-- N10 -->
<g id="node2" class="node"><title>N10</title>
<path fill="#ffffff" stroke="#2e3436" stroke-width="1.5" d="M11.5,-85C11.5,-85 82.5,-85 82.5,-85 88.5,-85 94.5,-91 94.5,-97 94.5,-97 94.5,-109 94.5,-109 94.5,-115 88.5,-121 82.5,-121 82.5,-121 11.5,-121 11.5,-121 5.5,-121 -0.5,-115 -0.5,-109 -0.5,-109 -0.5,-97 -0.5,-97 -0.5,-91 5.5,-85 11.5,-85"/>
<text text-anchor="start" x="7.5" y="-101.1" font-family="FreeSans" font-size="8.00" fill="#1c2021">Node[10]name = &#39;Joe&#39;</text>
</g>
<!-- N10&#45;&gt;N9 -->
<g id="edge1" class="edge"><title>N10&#45;&gt;N9</title>
<path fill="none" stroke="#2e3436" stroke-width="2" d="M28.0591,-84.9981C23.1818,-79.4745 18.5834,-72.9591 16,-66 13.0748,-58.12 15.7477,-50.2661 20.5415,-43.3365"/>
<polygon fill="#2e3436" stroke="#2e3436" stroke-width="2" points="25.4405,-37.2583 23.3617,-45.2156 23.4765,-40.4917 21.1233,-43.4115 20.734,-43.0977 20.3447,-42.7839 22.6979,-39.8642 18.1062,-40.9798 25.4405,-37.2583 25.4405,-37.2583"/>
<text text-anchor="middle" x="28" y="-59.1" font-family="FreeSans" font-size="8.00" fill="#2e3436">knows</text>
</g>
<!-- N10&#45;&gt;N9 -->
<g id="edge2" class="edge"><title>N10&#45;&gt;N9</title>
<path fill="none" stroke="#4e9a06" stroke-width="2" d="M47,-84.6099C47,-73.0081 47,-57.5802 47,-44.7099"/>
<polygon fill="#4e9a06" stroke="#4e9a06" stroke-width="2" points="47,-37.0838 50.3751,-44.5838 47.5,-40.8338 47.5001,-44.5838 47.0001,-44.5838 46.5001,-44.5838 46.5,-40.8338 43.6251,-44.5839 47,-37.0838 47,-37.0838"/>
<text text-anchor="middle" x="61" y="-59.1" font-family="FreeSans" font-size="8.00" fill="#4e9a06">LOVES</text>
</g>
</g>
</svg>
