<?xml version="1.0" encoding="UTF-8" standalone="no"?>
<!DOCTYPE svg PUBLIC "-//W3C//DTD SVG 1.1//EN"
 "http://www.w3.org/Graphics/SVG/1.1/DTD/svg11.dtd">
<!-- Generated by graphviz version 2.36.0 (20140111.2315)
 -->
<!-- Title: g Pages: 1 -->
<svg width="286pt" height="342pt"
 viewBox="0.00 0.00 286.00 342.00" xmlns="http://www.w3.org/2000/svg" xmlns:xlink="http://www.w3.org/1999/xlink">
<g id="graph0" class="graph" transform="scale(1 1) rotate(0) translate(4 338)">
<title>g</title>
<polygon fill="white" stroke="none" points="-4,4 -4,-338 282,-338 282,4 -4,4"/>
<!-- N7 -->
<g id="node1" class="node"><title>N7</title>
<path fill="#ffffff" stroke="#2e3436" stroke-width="1.5" d="M12,-149C12,-149 68,-149 68,-149 74,-149 80,-155 80,-161 80,-161 80,-173 80,-173 80,-179 74,-185 68,-185 68,-185 12,-185 12,-185 6,-185 0,-179 0,-173 0,-173 0,-161 0,-161 0,-155 6,-149 12,-149"/>
<text text-anchor="start" x="8" y="-165.1" font-family="FreeSans" font-size="8.00" fill="#1c2021">Node[7]name = &#39;f&#39;</text>
</g>
<!-- N9 -->
<g id="node2" class="node"><title>N9</title>
<path fill="#ffffff" stroke="#2e3436" stroke-width="1.5" d="M102,-1C102,-1 160,-1 160,-1 166,-1 172,-7 172,-13 172,-13 172,-25 172,-25 172,-31 166,-37 160,-37 160,-37 102,-37 102,-37 96,-37 90,-31 90,-25 90,-25 90,-13 90,-13 90,-7 96,-1 102,-1"/>
<text text-anchor="start" x="98" y="-17.1" font-family="FreeSans" font-size="8.00" fill="#1c2021">Node[9]name = &#39;e&#39;</text>
</g>
<!-- N7&#45;&gt;N9 -->
<g id="edge1" class="edge"><title>N7&#45;&gt;N9</title>
<path fill="none" stroke="#2e3436" stroke-width="2" d="M50.617,-148.966C66.7635,-123.061 97.5571,-73.6556 115.988,-44.085"/>
<polygon fill="#2e3436" stroke="#2e3436" stroke-width="2" points="120.169,-37.3779 119.066,-45.528 118.609,-40.8248 116.626,-44.0072 116.201,-43.7428 115.777,-43.4783 117.761,-40.2958 113.337,-41.9575 120.169,-37.3779 120.169,-37.3779"/>
<text text-anchor="middle" x="104" y="-113.6" font-family="FreeSans" font-size="8.00" fill="#2e3436">to</text>
<text text-anchor="start" x="86" y="-104.6" font-family="FreeSans" font-size="8.00" fill="#2e3436">cost = 1.0</text>
</g>
<!-- N8 -->
<g id="node3" class="node"><title>N8</title>
<path fill="#ffffff" stroke="#2e3436" stroke-width="1.5" d="M208,-93C208,-93 266,-93 266,-93 272,-93 278,-99 278,-105 278,-105 278,-117 278,-117 278,-123 272,-129 266,-129 266,-129 208,-129 208,-129 202,-129 196,-123 196,-117 196,-117 196,-105 196,-105 196,-99 202,-93 208,-93"/>
<text text-anchor="start" x="204" y="-109.1" font-family="FreeSans" font-size="8.00" fill="#1c2021">Node[8]name = &#39;d&#39;</text>
</g>
<!-- N8&#45;&gt;N9 -->
<g id="edge2" class="edge"><title>N8&#45;&gt;N9</title>
<path fill="none" stroke="#2e3436" stroke-width="2" d="M216.562,-92.6471C199.698,-78.3287 175.653,-57.9133 157.345,-42.3687"/>
<polygon fill="#2e3436" stroke="#2e3436" stroke-width="2" points="151.375,-37.2996 159.277,-39.5811 154.557,-39.3456 157.416,-41.7727 157.092,-42.1539 156.769,-42.535 153.91,-40.1079 154.908,-44.7267 151.375,-37.2996 151.375,-37.2996"/>
<text text-anchor="middle" x="211" y="-67.6" font-family="FreeSans" font-size="8.00" fill="#2e3436">to</text>
<text text-anchor="start" x="193" y="-58.6" font-family="FreeSans" font-size="8.00" fill="#2e3436">cost = 0.5</text>
</g>
<!-- N10 -->
<g id="node4" class="node"><title>N10</title>
<path fill="#ffffff" stroke="#2e3436" stroke-width="1.5" d="M100,-149C100,-149 162,-149 162,-149 168,-149 174,-155 174,-161 174,-161 174,-173 174,-173 174,-179 168,-185 162,-185 162,-185 100,-185 100,-185 94,-185 88,-179 88,-173 88,-173 88,-161 88,-161 88,-155 94,-149 100,-149"/>
<text text-anchor="start" x="96" y="-165.1" font-family="FreeSans" font-size="8.00" fill="#1c2021">Node[10]name = &#39;b&#39;</text>
</g>
<!-- N10&#45;&gt;N9 -->
<g id="edge3" class="edge"><title>N10&#45;&gt;N9</title>
<path fill="none" stroke="#2e3436" stroke-width="2" d="M131,-148.966C131,-123.389 131,-74.9026 131,-45.2174"/>
<polygon fill="#2e3436" stroke="#2e3436" stroke-width="2" points="131,-37.3779 134.375,-44.8778 131.5,-41.1278 131.5,-44.8778 131,-44.8779 130.5,-44.8779 130.5,-41.1279 127.625,-44.8779 131,-37.3779 131,-37.3779"/>
<text text-anchor="middle" x="149" y="-113.6" font-family="FreeSans" font-size="8.00" fill="#2e3436">to</text>
<text text-anchor="start" x="131" y="-104.6" font-family="FreeSans" font-size="8.00" fill="#2e3436">cost = 0.5</text>
</g>
<!-- N11 -->
<g id="node5" class="node"><title>N11</title>
<path fill="#ffffff" stroke="#2e3436" stroke-width="1.5" d="M192,-205C192,-205 254,-205 254,-205 260,-205 266,-211 266,-217 266,-217 266,-229 266,-229 266,-235 260,-241 254,-241 254,-241 192,-241 192,-241 186,-241 180,-235 180,-229 180,-229 180,-217 180,-217 180,-211 186,-205 192,-205"/>
<text text-anchor="start" x="188" y="-221.1" font-family="FreeSans" font-size="8.00" fill="#1c2021">Node[11]name = &#39;c&#39;</text>
</g>
<!-- N11&#45;&gt;N8 -->
<g id="edge4" class="edge"><title>N11&#45;&gt;N8</title>
<path fill="none" stroke="#2e3436" stroke-width="2" d="M225.188,-204.812C227.52,-186.488 231.233,-157.31 233.874,-136.565"/>
<polygon fill="#2e3436" stroke="#2e3436" stroke-width="2" points="234.828,-129.067 237.229,-136.933 234.85,-132.85 234.377,-136.57 233.881,-136.507 233.385,-136.444 233.858,-132.724 230.533,-136.081 234.828,-129.067 234.828,-129.067"/>
<text text-anchor="middle" x="250" y="-169.6" font-family="FreeSans" font-size="8.00" fill="#2e3436">to</text>
<text text-anchor="start" x="232" y="-160.6" font-family="FreeSans" font-size="8.00" fill="#2e3436">cost = 0.5</text>
</g>
<!-- N12 -->
<g id="node6" class="node"><title>N12</title>
<path fill="#ffffff" stroke="#2e3436" stroke-width="1.5" d="M100,-297C100,-297 162,-297 162,-297 168,-297 174,-303 174,-309 174,-309 174,-321 174,-321 174,-327 168,-333 162,-333 162,-333 100,-333 100,-333 94,-333 88,-327 88,-321 88,-321 88,-309 88,-309 88,-303 94,-297 100,-297"/>
<text text-anchor="start" x="96" y="-313.1" font-family="FreeSans" font-size="8.00" fill="#1c2021">Node[12]name = &#39;a&#39;</text>
</g>
<!-- N12&#45;&gt;N7 -->
<g id="edge5" class="edge"><title>N12&#45;&gt;N7</title>
<path fill="none" stroke="#2e3436" stroke-width="2" d="M106.384,-296.699C99.8202,-291.256 93.1346,-284.859 88,-278 68.2818,-251.661 54.626,-215.962 47.0561,-192.472"/>
<polygon fill="#2e3436" stroke="#2e3436" stroke-width="2" points="44.8123,-185.302 50.2732,-191.451 46.4095,-188.731 47.5295,-192.31 47.0523,-192.459 46.5751,-192.609 45.4551,-189.03 43.8313,-193.467 44.8123,-185.302 44.8123,-185.302"/>
<text text-anchor="middle" x="106" y="-271.6" font-family="FreeSans" font-size="8.00" fill="#2e3436">to</text>
<text text-anchor="start" x="88" y="-262.6" font-family="FreeSans" font-size="8.00" fill="#2e3436">cost = 0.5</text>
</g>
<!-- N12&#45;&gt;N10 -->
<g id="edge7" class="edge"><title>N12&#45;&gt;N10</title>
<path fill="none" stroke="#2e3436" stroke-width="2" d="M131,-296.966C131,-271.389 131,-222.903 131,-193.217"/>
<polygon fill="#2e3436" stroke="#2e3436" stroke-width="2" points="131,-185.378 134.375,-192.878 131.5,-189.128 131.5,-192.878 131,-192.878 130.5,-192.878 130.5,-189.128 127.625,-192.878 131,-185.378 131,-185.378"/>
<text text-anchor="middle" x="149" y="-271.6" font-family="FreeSans" font-size="8.00" fill="#2e3436">to</text>
<text text-anchor="start" x="131" y="-262.6" font-family="FreeSans" font-size="8.00" fill="#2e3436">cost = 1.5</text>
</g>
<!-- N12&#45;&gt;N11 -->
<g id="edge6" class="edge"><title>N12&#45;&gt;N11</title>
<path fill="none" stroke="#2e3436" stroke-width="2" d="M152.497,-296.98C159.529,-291.158 167.26,-284.476 174,-278 184.129,-268.267 194.684,-256.825 203.392,-246.985"/>
<polygon fill="#2e3436" stroke="#2e3436" stroke-width="2" points="208.555,-241.095 206.15,-248.96 206.459,-244.244 203.988,-247.064 203.612,-246.735 203.236,-246.405 205.707,-243.585 201.074,-244.51 208.555,-241.095 208.555,-241.095"/>
<text text-anchor="middle" x="208" y="-271.6" font-family="FreeSans" font-size="8.00" fill="#2e3436">to</text>
<text text-anchor="start" x="190" y="-262.6" font-family="FreeSans" font-size="8.00" fill="#2e3436">cost = 0.5</text>
</g>
</g>
</svg>
