<?xml version="1.0" encoding="UTF-8" standalone="no"?>
<!DOCTYPE svg PUBLIC "-//W3C//DTD SVG 1.1//EN"
 "http://www.w3.org/Graphics/SVG/1.1/DTD/svg11.dtd">
<!-- Generated by graphviz version 2.36.0 (20140111.2315)
 -->
<!-- Title: g Pages: 1 -->
<svg width="116pt" height="46pt"
 viewBox="0.00 0.00 116.00 46.00" xmlns="http://www.w3.org/2000/svg" xmlns:xlink="http://www.w3.org/1999/xlink">
<g id="graph0" class="graph" transform="scale(1 1) rotate(0) translate(4 42)">
<title>g</title>
<polygon fill="white" stroke="none" points="-4,4 -4,-42 112,-42 112,4 -4,4"/>
<!-- N125 -->
<g id="node1" class="node"><title>N125</title>
<path fill="#ffffff" stroke="#2e3436" stroke-width="1.5" d="M12,-1C12,-1 96,-1 96,-1 102,-1 108,-7 108,-13 108,-13 108,-25 108,-25 108,-31 102,-37 96,-37 96,-37 12,-37 12,-37 6,-37 0,-31 0,-25 0,-25 0,-13 0,-13 0,-7 6,-1 12,-1"/>
<text text-anchor="middle" x="54" y="-26.1" font-family="FreeSans" font-size="8.00" fill="#1c2021">Node[125]: Person, Actor</text>
<polyline fill="none" stroke="#2e3436" stroke-width="1.5" points="0,-19 108,-19 "/>
<text text-anchor="start" x="8" y="-8.1" font-family="FreeSans" font-size="8.00" fill="#1c2021">name = &#39;Clint Eastwood&#39;</text>
</g>
</g>
</svg>
