<?xml version="1.0" encoding="UTF-8" standalone="no"?>
<!DOCTYPE svg PUBLIC "-//W3C//DTD SVG 1.1//EN"
 "http://www.w3.org/Graphics/SVG/1.1/DTD/svg11.dtd">
<!-- Generated by graphviz version 2.36.0 (20140111.2315)
 -->
<!-- Title: g Pages: 1 -->
<svg width="432pt" height="46pt"
 viewBox="0.00 0.00 432.00 46.00" xmlns="http://www.w3.org/2000/svg" xmlns:xlink="http://www.w3.org/1999/xlink">
<g id="graph0" class="graph" transform="scale(1 1) rotate(0) translate(4 42)">
<title>g</title>
<polygon fill="white" stroke="none" points="-4,4 -4,-42 428,-42 428,4 -4,4"/>
<!-- N45 -->
<g id="node1" class="node"><title>N45</title>
<path fill="#ffffff" stroke="#2e3436" stroke-width="1.5" d="M11.5,-1C11.5,-1 100.5,-1 100.5,-1 106.5,-1 112.5,-7 112.5,-13 112.5,-13 112.5,-25 112.5,-25 112.5,-31 106.5,-37 100.5,-37 100.5,-37 11.5,-37 11.5,-37 5.5,-37 -0.5,-31 -0.5,-25 -0.5,-25 -0.5,-13 -0.5,-13 -0.5,-7 5.5,-1 11.5,-1"/>
<text text-anchor="middle" x="56" y="-26.1" font-family="FreeSans" font-size="8.00" fill="#1c2021">Node[45]: Person, Director</text>
<polyline fill="none" stroke="#2e3436" stroke-width="1.5" points="-0.5,-19 112.5,-19 "/>
<text text-anchor="start" x="7.5" y="-8.1" font-family="FreeSans" font-size="8.00" fill="#1c2021">name = &#39;Steven Spielberg&#39;</text>
</g>
<!-- N46 -->
<g id="node2" class="node"><title>N46</title>
<path fill="#ffffff" stroke="#2e3436" stroke-width="1.5" d="M153.5,-1C153.5,-1 266.5,-1 266.5,-1 272.5,-1 278.5,-7 278.5,-13 278.5,-13 278.5,-25 278.5,-25 278.5,-31 272.5,-37 266.5,-37 266.5,-37 153.5,-37 153.5,-37 147.5,-37 141.5,-31 141.5,-25 141.5,-25 141.5,-13 141.5,-13 141.5,-7 147.5,-1 153.5,-1"/>
<text text-anchor="middle" x="210" y="-26.1" font-family="FreeSans" font-size="8.00" fill="#1c2021">Node[46]: Person, Actor, Director</text>
<polyline fill="none" stroke="#2e3436" stroke-width="1.5" points="141.5,-19 278.5,-19 "/>
<text text-anchor="start" x="149.5" y="-8.1" font-family="FreeSans" font-size="8.00" fill="#1c2021">name = &#39;Clint Eastwood&#39;</text>
</g>
<!-- N47 -->
<g id="node3" class="node"><title>N47</title>
<path fill="#ffffff" stroke="#2e3436" stroke-width="1.5" d="M320,-1C320,-1 412,-1 412,-1 418,-1 424,-7 424,-13 424,-13 424,-25 424,-25 424,-31 418,-37 412,-37 412,-37 320,-37 320,-37 314,-37 308,-31 308,-25 308,-25 308,-13 308,-13 308,-7 314,-1 320,-1"/>
<text text-anchor="middle" x="366" y="-26.1" font-family="FreeSans" font-size="8.00" fill="#1c2021">Node[47]: Person, Actor</text>
<polyline fill="none" stroke="#2e3436" stroke-width="1.5" points="308,-19 424,-19 "/>
<text text-anchor="start" x="316" y="-8.1" font-family="FreeSans" font-size="8.00" fill="#1c2021">name = &#39;Donald Sutherland&#39;</text>
</g>
</g>
</svg>
