<?xml version="1.0" encoding="UTF-8" standalone="no"?>
<!DOCTYPE svg PUBLIC "-//W3C//DTD SVG 1.1//EN"
 "http://www.w3.org/Graphics/SVG/1.1/DTD/svg11.dtd">
<!-- Generated by graphviz version 2.36.0 (20140111.2315)
 -->
<!-- Title: g Pages: 1 -->
<svg width="352pt" height="382pt"
 viewBox="0.00 0.00 352.00 382.00" xmlns="http://www.w3.org/2000/svg" xmlns:xlink="http://www.w3.org/1999/xlink">
<g id="graph0" class="graph" transform="scale(1 1) rotate(0) translate(4 378)">
<title>g</title>
<polygon fill="white" stroke="none" points="-4,4 -4,-378 348,-378 348,4 -4,4"/>
<!-- N94 -->
<g id="node1" class="node"><title>N94</title>
<path fill="#ffffff" stroke="#2e3436" stroke-width="1.5" d="M15.5,-1C15.5,-1 90.5,-1 90.5,-1 96.5,-1 102.5,-7 102.5,-13 102.5,-13 102.5,-25 102.5,-25 102.5,-31 96.5,-37 90.5,-37 90.5,-37 15.5,-37 15.5,-37 9.5,-37 3.5,-31 3.5,-25 3.5,-25 3.5,-13 3.5,-13 3.5,-7 9.5,-1 15.5,-1"/>
<text text-anchor="start" x="11.5" y="-17.1" font-family="FreeSans" font-size="8.00" fill="#1c2021">Node[94]name = &#39;Sara&#39;</text>
</g>
<!-- N95 -->
<g id="node2" class="node"><title>N95</title>
<path fill="#ffffff" stroke="#2e3436" stroke-width="1.5" d="M112,-253C112,-253 192,-253 192,-253 198,-253 204,-259 204,-265 204,-265 204,-277 204,-277 204,-283 198,-289 192,-289 192,-289 112,-289 112,-289 106,-289 100,-283 100,-277 100,-277 100,-265 100,-265 100,-259 106,-253 112,-253"/>
<text text-anchor="start" x="108" y="-269.1" font-family="FreeSans" font-size="8.00" fill="#1c2021">Node[95]name = &#39;Johan&#39;</text>
</g>
<!-- N96 -->
<g id="node3" class="node"><title>N96</title>
<path fill="#ffffff" stroke="#2e3436" stroke-width="1.5" d="M115.5,-169C115.5,-169 188.5,-169 188.5,-169 194.5,-169 200.5,-175 200.5,-181 200.5,-181 200.5,-193 200.5,-193 200.5,-199 194.5,-205 188.5,-205 188.5,-205 115.5,-205 115.5,-205 109.5,-205 103.5,-199 103.5,-193 103.5,-193 103.5,-181 103.5,-181 103.5,-175 109.5,-169 115.5,-169"/>
<text text-anchor="start" x="111.5" y="-185.1" font-family="FreeSans" font-size="8.00" fill="#1c2021">Node[96]name = &#39;Emil&#39;</text>
</g>
<!-- N95&#45;&gt;N96 -->
<g id="edge1" class="edge"><title>N95&#45;&gt;N96</title>
<path fill="none" stroke="#2e3436" stroke-width="2" d="M152,-252.61C152,-241.008 152,-225.58 152,-212.71"/>
<polygon fill="#2e3436" stroke="#2e3436" stroke-width="2" points="152,-205.084 155.375,-212.584 152.5,-208.834 152.5,-212.584 152,-212.584 151.5,-212.584 151.5,-208.834 148.625,-212.584 152,-205.084 152,-205.084"/>
<text text-anchor="middle" x="164" y="-227.1" font-family="FreeSans" font-size="8.00" fill="#2e3436">knows</text>
</g>
<!-- N98 -->
<g id="node4" class="node"><title>N98</title>
<path fill="#ffffff" stroke="#2e3436" stroke-width="1.5" d="M12,-85C12,-85 94,-85 94,-85 100,-85 106,-91 106,-97 106,-97 106,-109 106,-109 106,-115 100,-121 94,-121 94,-121 12,-121 12,-121 6,-121 0,-115 0,-109 0,-109 0,-97 0,-97 0,-91 6,-85 12,-85"/>
<text text-anchor="start" x="8" y="-101.1" font-family="FreeSans" font-size="8.00" fill="#1c2021">Node[98]name = &#39;Tobias&#39;</text>
</g>
<!-- N96&#45;&gt;N98 -->
<g id="edge2" class="edge"><title>N96&#45;&gt;N98</title>
<path fill="none" stroke="#2e3436" stroke-width="2" d="M131.005,-168.61C116.073,-156.242 95.891,-139.526 79.7969,-126.195"/>
<polygon fill="#2e3436" stroke="#2e3436" stroke-width="2" points="73.6256,-121.084 81.5545,-123.269 76.8326,-123.091 79.7206,-125.483 79.4016,-125.868 79.0827,-126.253 76.1947,-123.861 77.2487,-128.467 73.6256,-121.084 73.6256,-121.084"/>
<text text-anchor="middle" x="121" y="-143.1" font-family="FreeSans" font-size="8.00" fill="#2e3436">knows</text>
</g>
<!-- N99 -->
<g id="node5" class="node"><title>N99</title>
<path fill="#ffffff" stroke="#2e3436" stroke-width="1.5" d="M147.5,-85C147.5,-85 224.5,-85 224.5,-85 230.5,-85 236.5,-91 236.5,-97 236.5,-97 236.5,-109 236.5,-109 236.5,-115 230.5,-121 224.5,-121 224.5,-121 147.5,-121 147.5,-121 141.5,-121 135.5,-115 135.5,-109 135.5,-109 135.5,-97 135.5,-97 135.5,-91 141.5,-85 147.5,-85"/>
<text text-anchor="start" x="143.5" y="-101.1" font-family="FreeSans" font-size="8.00" fill="#1c2021">Node[99]name = &#39;Peter&#39;</text>
</g>
<!-- N96&#45;&gt;N99 -->
<g id="edge3" class="edge"><title>N96&#45;&gt;N99</title>
<path fill="none" stroke="#2e3436" stroke-width="2" d="M159.211,-168.61C164.066,-156.899 170.539,-141.289 175.905,-128.346"/>
<polygon fill="#2e3436" stroke="#2e3436" stroke-width="2" points="178.916,-121.084 179.161,-129.305 177.942,-124.739 176.506,-128.203 176.044,-128.012 175.582,-127.82 177.018,-124.356 172.926,-126.719 178.916,-121.084 178.916,-121.084"/>
<text text-anchor="middle" x="184" y="-143.1" font-family="FreeSans" font-size="8.00" fill="#2e3436">knows</text>
</g>
<!-- N98&#45;&gt;N94 -->
<g id="edge6" class="edge"><title>N98&#45;&gt;N94</title>
<path fill="none" stroke="#4e9a06" stroke-width="2" d="M53,-84.6099C53,-73.0081 53,-57.5802 53,-44.7099"/>
<polygon fill="#4e9a06" stroke="#4e9a06" stroke-width="2" points="53,-37.0838 56.3751,-44.5838 53.5,-40.8338 53.5001,-44.5838 53.0001,-44.5838 52.5001,-44.5838 52.5,-40.8338 49.6251,-44.5839 53,-37.0838 53,-37.0838"/>
<text text-anchor="middle" x="62.5" y="-59.1" font-family="FreeSans" font-size="8.00" fill="#4e9a06">loves</text>
</g>
<!-- N97 -->
<g id="node6" class="node"><title>N97</title>
<path fill="#ffffff" stroke="#2e3436" stroke-width="1.5" d="M202.5,-337C202.5,-337 277.5,-337 277.5,-337 283.5,-337 289.5,-343 289.5,-349 289.5,-349 289.5,-361 289.5,-361 289.5,-367 283.5,-373 277.5,-373 277.5,-373 202.5,-373 202.5,-373 196.5,-373 190.5,-367 190.5,-361 190.5,-361 190.5,-349 190.5,-349 190.5,-343 196.5,-337 202.5,-337"/>
<text text-anchor="start" x="198.5" y="-353.1" font-family="FreeSans" font-size="8.00" fill="#1c2021">Node[97]name = &#39;Root&#39;</text>
</g>
<!-- N97&#45;&gt;N95 -->
<g id="edge5" class="edge"><title>N97&#45;&gt;N95</title>
<path fill="none" stroke="#2e3436" stroke-width="2" d="M221.337,-336.61C208.182,-324.351 190.443,-307.821 176.2,-294.55"/>
<polygon fill="#2e3436" stroke="#2e3436" stroke-width="2" points="170.334,-289.084 178.122,-291.728 173.418,-291.275 176.162,-293.831 175.821,-294.197 175.48,-294.563 172.737,-292.006 173.52,-296.666 170.334,-289.084 170.334,-289.084"/>
<text text-anchor="middle" x="214" y="-311.1" font-family="FreeSans" font-size="8.00" fill="#2e3436">knows</text>
</g>
<!-- N100 -->
<g id="node7" class="node"><title>N100</title>
<path fill="#ffffff" stroke="#2e3436" stroke-width="1.5" d="M245,-253C245,-253 333,-253 333,-253 339,-253 345,-259 345,-265 345,-265 345,-277 345,-277 345,-283 339,-289 333,-289 333,-289 245,-289 245,-289 239,-289 233,-283 233,-277 233,-277 233,-265 233,-265 233,-259 239,-253 245,-253"/>
<text text-anchor="start" x="241" y="-269.1" font-family="FreeSans" font-size="8.00" fill="#1c2021">Node[100]name = &#39;Mattias&#39;</text>
</g>
<!-- N97&#45;&gt;N100 -->
<g id="edge4" class="edge"><title>N97&#45;&gt;N100</title>
<path fill="none" stroke="#2e3436" stroke-width="2" d="M250.392,-336.61C257.521,-324.68 267.067,-308.704 274.884,-295.623"/>
<polygon fill="#2e3436" stroke="#2e3436" stroke-width="2" points="278.791,-289.084 277.841,-297.253 277.297,-292.559 275.373,-295.778 274.944,-295.522 274.515,-295.265 276.439,-292.046 272.047,-293.791 278.791,-289.084 278.791,-289.084"/>
<text text-anchor="middle" x="280" y="-311.1" font-family="FreeSans" font-size="8.00" fill="#2e3436">knows</text>
</g>
</g>
</svg>
