<?xml version="1.0" encoding="UTF-8" standalone="no"?>
<!DOCTYPE svg PUBLIC "-//W3C//DTD SVG 1.1//EN"
 "http://www.w3.org/Graphics/SVG/1.1/DTD/svg11.dtd">
<!-- Generated by graphviz version 2.36.0 (20140111.2315)
 -->
<!-- Title: g Pages: 1 -->
<svg width="104pt" height="130pt"
 viewBox="0.00 0.00 104.00 130.00" xmlns="http://www.w3.org/2000/svg" xmlns:xlink="http://www.w3.org/1999/xlink">
<g id="graph0" class="graph" transform="scale(1 1) rotate(0) translate(4 126)">
<title>g</title>
<polygon fill="white" stroke="none" points="-4,4 -4,-126 100,-126 100,4 -4,4"/>
<!-- N254 -->
<g id="node1" class="node"><title>N254</title>
<path fill="#ffffff" stroke="#2e3436" stroke-width="1.5" d="M15.5,-85C15.5,-85 80.5,-85 80.5,-85 86.5,-85 92.5,-91 92.5,-97 92.5,-97 92.5,-109 92.5,-109 92.5,-115 86.5,-121 80.5,-121 80.5,-121 15.5,-121 15.5,-121 9.5,-121 3.5,-115 3.5,-109 3.5,-109 3.5,-97 3.5,-97 3.5,-91 9.5,-85 15.5,-85"/>
<text text-anchor="start" x="11.5" y="-101.1" font-family="FreeSans" font-size="8.00" fill="#1c2021">Node[254]age = &#39;18&#39;</text>
</g>
<!-- N255 -->
<g id="node2" class="node"><title>N255</title>
<path fill="#ffffff" stroke="#2e3436" stroke-width="1.5" d="M11,-1C11,-1 85,-1 85,-1 91,-1 97,-7 97,-13 97,-13 97,-25 97,-25 97,-31 91,-37 85,-37 85,-37 11,-37 11,-37 5,-37 -1,-31 -1,-25 -1,-25 -1,-13 -1,-13 -1,-7 5,-1 11,-1"/>
<text text-anchor="start" x="7" y="-17.1" font-family="FreeSans" font-size="8.00" fill="#1c2021">Node[255]name = &#39;joe&#39;</text>
</g>
<!-- N254&#45;&gt;N255 -->
<g id="edge1" class="edge"><title>N254&#45;&gt;N255</title>
<path fill="none" stroke="#2e3436" stroke-width="2" d="M48,-84.6099C48,-73.0081 48,-57.5802 48,-44.7099"/>
<polygon fill="#2e3436" stroke="#2e3436" stroke-width="2" points="48,-37.0838 51.3751,-44.5838 48.5,-40.8338 48.5001,-44.5838 48.0001,-44.5838 47.5001,-44.5838 47.5,-40.8338 44.6251,-44.5839 48,-37.0838 48,-37.0838"/>
<text text-anchor="middle" x="60" y="-59.1" font-family="FreeSans" font-size="8.00" fill="#2e3436">knows</text>
</g>
</g>
</svg>
