<?xml version="1.0" encoding="UTF-8" standalone="no"?>
<!DOCTYPE svg PUBLIC "-//W3C//DTD SVG 1.1//EN"
 "http://www.w3.org/Graphics/SVG/1.1/DTD/svg11.dtd">
<!-- Generated by graphviz version 2.36.0 (20140111.2315)
 -->
<!-- Title: g Pages: 1 -->
<svg width="79pt" height="138pt"
 viewBox="0.00 0.00 79.00 138.00" xmlns="http://www.w3.org/2000/svg" xmlns:xlink="http://www.w3.org/1999/xlink">
<g id="graph0" class="graph" transform="scale(1 1) rotate(0) translate(4 134)">
<title>g</title>
<polygon fill="white" stroke="none" points="-4,4 -4,-134 75,-134 75,4 -4,4"/>
<!-- N68 -->
<g id="node1" class="node"><title>N68</title>
<path fill="#ffffff" stroke="#2e3436" stroke-width="1.5" d="M12,-93C12,-93 42,-93 42,-93 48,-93 54,-99 54,-105 54,-105 54,-117 54,-117 54,-123 48,-129 42,-129 42,-129 12,-129 12,-129 6,-129 0,-123 0,-117 0,-117 0,-105 0,-105 0,-99 6,-93 12,-93"/>
<text text-anchor="middle" x="27" y="-109.1" font-family="FreeSans" font-size="8.00" fill="#1c2021">Node[68]</text>
</g>
<!-- N69 -->
<g id="node2" class="node"><title>N69</title>
<path fill="#ffffff" stroke="#2e3436" stroke-width="1.5" d="M12,-1C12,-1 42,-1 42,-1 48,-1 54,-7 54,-13 54,-13 54,-25 54,-25 54,-31 48,-37 42,-37 42,-37 12,-37 12,-37 6,-37 0,-31 0,-25 0,-25 0,-13 0,-13 0,-7 6,-1 12,-1"/>
<text text-anchor="middle" x="27" y="-17.1" font-family="FreeSans" font-size="8.00" fill="#1c2021">Node[69]</text>
</g>
<!-- N68&#45;&gt;N69 -->
<g id="edge1" class="edge"><title>N68&#45;&gt;N69</title>
<path fill="none" stroke="#2e3436" stroke-width="2" d="M27,-92.6471C27,-79.0758 27,-60.027 27,-44.84"/>
<polygon fill="#2e3436" stroke="#2e3436" stroke-width="2" points="27,-37.2996 30.3751,-44.7996 27.5,-41.0496 27.5001,-44.7996 27.0001,-44.7996 26.5001,-44.7996 26.5,-41.0496 23.6251,-44.7997 27,-37.2996 27,-37.2996"/>
<text text-anchor="middle" x="49" y="-67.6" font-family="FreeSans" font-size="8.00" fill="#2e3436">KNOWS</text>
<text text-anchor="start" x="27" y="-58.6" font-family="FreeSans" font-size="8.00" fill="#2e3436">jim = &#39;tobias&#39;</text>
</g>
</g>
</svg>
