<?xml version="1.0" encoding="UTF-8" standalone="no"?>
<!DOCTYPE svg PUBLIC "-//W3C//DTD SVG 1.1//EN"
 "http://www.w3.org/Graphics/SVG/1.1/DTD/svg11.dtd">
<!-- Generated by graphviz version 2.36.0 (20140111.2315)
 -->
<!-- Title: g Pages: 1 -->
<svg width="289pt" height="342pt"
 viewBox="0.00 0.00 289.00 342.00" xmlns="http://www.w3.org/2000/svg" xmlns:xlink="http://www.w3.org/1999/xlink">
<g id="graph0" class="graph" transform="scale(1 1) rotate(0) translate(4 338)">
<title>g</title>
<polygon fill="white" stroke="none" points="-4,4 -4,-338 285,-338 285,4 -4,4"/>
<!-- N162 -->
<g id="node1" class="node"><title>N162</title>
<path fill="#ffffff" stroke="#2e3436" stroke-width="1.5" d="M11.5,-149C11.5,-149 76.5,-149 76.5,-149 82.5,-149 88.5,-155 88.5,-161 88.5,-161 88.5,-173 88.5,-173 88.5,-179 82.5,-185 76.5,-185 76.5,-185 11.5,-185 11.5,-185 5.5,-185 -0.5,-179 -0.5,-173 -0.5,-173 -0.5,-161 -0.5,-161 -0.5,-155 5.5,-149 11.5,-149"/>
<text text-anchor="start" x="7.5" y="-165.1" font-family="FreeSans" font-size="8.00" fill="#1c2021">Node[162]name = &#39;f&#39;</text>
</g>
<!-- N164 -->
<g id="node2" class="node"><title>N164</title>
<path fill="#ffffff" stroke="#2e3436" stroke-width="1.5" d="M97.5,-1C97.5,-1 164.5,-1 164.5,-1 170.5,-1 176.5,-7 176.5,-13 176.5,-13 176.5,-25 176.5,-25 176.5,-31 170.5,-37 164.5,-37 164.5,-37 97.5,-37 97.5,-37 91.5,-37 85.5,-31 85.5,-25 85.5,-25 85.5,-13 85.5,-13 85.5,-7 91.5,-1 97.5,-1"/>
<text text-anchor="start" x="93.5" y="-17.1" font-family="FreeSans" font-size="8.00" fill="#1c2021">Node[164]name = &#39;e&#39;</text>
</g>
<!-- N162&#45;&gt;N164 -->
<g id="edge1" class="edge"><title>N162&#45;&gt;N164</title>
<path fill="none" stroke="#2e3436" stroke-width="2" d="M54.1503,-148.966C69.5871,-123.061 99.0271,-73.6556 116.648,-44.085"/>
<polygon fill="#2e3436" stroke="#2e3436" stroke-width="2" points="120.645,-37.3779 119.705,-45.5484 119.155,-40.8552 117.235,-44.0767 116.805,-43.8207 116.376,-43.5648 118.296,-40.3433 113.906,-42.093 120.645,-37.3779 120.645,-37.3779"/>
<text text-anchor="middle" x="102.5" y="-113.6" font-family="FreeSans" font-size="8.00" fill="#2e3436">to</text>
<text text-anchor="start" x="88" y="-104.6" font-family="FreeSans" font-size="8.00" fill="#2e3436">cost = 1</text>
</g>
<!-- N163 -->
<g id="node3" class="node"><title>N163</title>
<path fill="#ffffff" stroke="#2e3436" stroke-width="1.5" d="M201.5,-93C201.5,-93 268.5,-93 268.5,-93 274.5,-93 280.5,-99 280.5,-105 280.5,-105 280.5,-117 280.5,-117 280.5,-123 274.5,-129 268.5,-129 268.5,-129 201.5,-129 201.5,-129 195.5,-129 189.5,-123 189.5,-117 189.5,-117 189.5,-105 189.5,-105 189.5,-99 195.5,-93 201.5,-93"/>
<text text-anchor="start" x="197.5" y="-109.1" font-family="FreeSans" font-size="8.00" fill="#1c2021">Node[163]name = &#39;d&#39;</text>
</g>
<!-- N163&#45;&gt;N164 -->
<g id="edge2" class="edge"><title>N163&#45;&gt;N164</title>
<path fill="none" stroke="#2e3436" stroke-width="2" d="M214.948,-92.6471C198.402,-78.3287 174.811,-57.9133 156.848,-42.3687"/>
<polygon fill="#2e3436" stroke="#2e3436" stroke-width="2" points="150.991,-37.2996 158.871,-39.6554 154.154,-39.3755 156.989,-41.8294 156.662,-42.2075 156.335,-42.5856 153.499,-40.1316 154.453,-44.7596 150.991,-37.2996 150.991,-37.2996"/>
<text text-anchor="middle" x="207.5" y="-67.6" font-family="FreeSans" font-size="8.00" fill="#2e3436">to</text>
<text text-anchor="start" x="193" y="-58.6" font-family="FreeSans" font-size="8.00" fill="#2e3436">cost = 1</text>
</g>
<!-- N165 -->
<g id="node4" class="node"><title>N165</title>
<path fill="#ffffff" stroke="#2e3436" stroke-width="1.5" d="M105.5,-149C105.5,-149 172.5,-149 172.5,-149 178.5,-149 184.5,-155 184.5,-161 184.5,-161 184.5,-173 184.5,-173 184.5,-179 178.5,-185 172.5,-185 172.5,-185 105.5,-185 105.5,-185 99.5,-185 93.5,-179 93.5,-173 93.5,-173 93.5,-161 93.5,-161 93.5,-155 99.5,-149 105.5,-149"/>
<text text-anchor="start" x="101.5" y="-165.1" font-family="FreeSans" font-size="8.00" fill="#1c2021">Node[165]name = &#39;b&#39;</text>
</g>
<!-- N165&#45;&gt;N164 -->
<g id="edge3" class="edge"><title>N165&#45;&gt;N164</title>
<path fill="none" stroke="#2e3436" stroke-width="2" d="M138.067,-148.966C136.665,-123.389 134.008,-74.9026 132.382,-45.2174"/>
<polygon fill="#2e3436" stroke="#2e3436" stroke-width="2" points="131.952,-37.3779 135.733,-44.6819 132.657,-41.0949 132.862,-44.8393 132.363,-44.8666 131.863,-44.894 131.658,-41.1496 128.993,-45.0513 131.952,-37.3779 131.952,-37.3779"/>
<text text-anchor="middle" x="151.5" y="-113.6" font-family="FreeSans" font-size="8.00" fill="#2e3436">to</text>
<text text-anchor="start" x="137" y="-104.6" font-family="FreeSans" font-size="8.00" fill="#2e3436">cost = 1</text>
</g>
<!-- N166 -->
<g id="node5" class="node"><title>N166</title>
<path fill="#ffffff" stroke="#2e3436" stroke-width="1.5" d="M196.5,-205C196.5,-205 263.5,-205 263.5,-205 269.5,-205 275.5,-211 275.5,-217 275.5,-217 275.5,-229 275.5,-229 275.5,-235 269.5,-241 263.5,-241 263.5,-241 196.5,-241 196.5,-241 190.5,-241 184.5,-235 184.5,-229 184.5,-229 184.5,-217 184.5,-217 184.5,-211 190.5,-205 196.5,-205"/>
<text text-anchor="start" x="192.5" y="-221.1" font-family="FreeSans" font-size="8.00" fill="#1c2021">Node[166]name = &#39;c&#39;</text>
</g>
<!-- N166&#45;&gt;N163 -->
<g id="edge4" class="edge"><title>N166&#45;&gt;N163</title>
<path fill="none" stroke="#2e3436" stroke-width="2" d="M230.781,-204.812C231.614,-186.488 232.94,-157.31 233.883,-136.565"/>
<polygon fill="#2e3436" stroke="#2e3436" stroke-width="2" points="234.224,-129.067 237.255,-136.712 234.553,-132.836 234.383,-136.582 233.884,-136.559 233.384,-136.536 233.554,-132.79 230.512,-136.406 234.224,-129.067 234.224,-129.067"/>
<text text-anchor="middle" x="248.5" y="-169.6" font-family="FreeSans" font-size="8.00" fill="#2e3436">to</text>
<text text-anchor="start" x="234" y="-160.6" font-family="FreeSans" font-size="8.00" fill="#2e3436">cost = 1</text>
</g>
<!-- N167 -->
<g id="node6" class="node"><title>N167</title>
<path fill="#ffffff" stroke="#2e3436" stroke-width="1.5" d="M105.5,-297C105.5,-297 172.5,-297 172.5,-297 178.5,-297 184.5,-303 184.5,-309 184.5,-309 184.5,-321 184.5,-321 184.5,-327 178.5,-333 172.5,-333 172.5,-333 105.5,-333 105.5,-333 99.5,-333 93.5,-327 93.5,-321 93.5,-321 93.5,-309 93.5,-309 93.5,-303 99.5,-297 105.5,-297"/>
<text text-anchor="start" x="101.5" y="-313.1" font-family="FreeSans" font-size="8.00" fill="#1c2021">Node[167]name = &#39;a&#39;</text>
</g>
<!-- N167&#45;&gt;N162 -->
<g id="edge6" class="edge"><title>N167&#45;&gt;N162</title>
<path fill="none" stroke="#2e3436" stroke-width="2" d="M119.576,-296.644C113.862,-291.013 107.849,-284.528 103,-278 82.7117,-250.686 65.1166,-215.499 54.5426,-192.371"/>
<polygon fill="#2e3436" stroke="#2e3436" stroke-width="2" points="51.3617,-185.311 57.5197,-190.762 53.358,-188.524 54.8984,-191.943 54.4426,-192.149 53.9867,-192.354 52.4463,-188.935 51.3655,-193.535 51.3617,-185.311 51.3617,-185.311"/>
<text text-anchor="middle" x="117.5" y="-271.6" font-family="FreeSans" font-size="8.00" fill="#2e3436">to</text>
<text text-anchor="start" x="103" y="-262.6" font-family="FreeSans" font-size="8.00" fill="#2e3436">cost = 1</text>
</g>
<!-- N167&#45;&gt;N165 -->
<g id="edge5" class="edge"><title>N167&#45;&gt;N165</title>
<path fill="none" stroke="#2e3436" stroke-width="2" d="M139,-296.966C139,-271.389 139,-222.903 139,-193.217"/>
<polygon fill="#2e3436" stroke="#2e3436" stroke-width="2" points="139,-185.378 142.375,-192.878 139.5,-189.128 139.5,-192.878 139,-192.878 138.5,-192.878 138.5,-189.128 135.625,-192.878 139,-185.378 139,-185.378"/>
<text text-anchor="middle" x="153.5" y="-271.6" font-family="FreeSans" font-size="8.00" fill="#2e3436">to</text>
<text text-anchor="start" x="139" y="-262.6" font-family="FreeSans" font-size="8.00" fill="#2e3436">cost = 1</text>
</g>
<!-- N167&#45;&gt;N166 -->
<g id="edge7" class="edge"><title>N167&#45;&gt;N166</title>
<path fill="none" stroke="#2e3436" stroke-width="2" d="M156.546,-296.647C170.897,-282.453 191.307,-262.268 206.972,-246.775"/>
<polygon fill="#2e3436" stroke="#2e3436" stroke-width="2" points="212.508,-241.3 209.549,-248.973 210.193,-244.292 207.527,-246.929 207.176,-246.574 206.824,-246.218 209.49,-243.581 204.802,-244.174 212.508,-241.3 212.508,-241.3"/>
<text text-anchor="middle" x="207.5" y="-271.6" font-family="FreeSans" font-size="8.00" fill="#2e3436">to</text>
<text text-anchor="start" x="193" y="-262.6" font-family="FreeSans" font-size="8.00" fill="#2e3436">cost = 1</text>
</g>
</g>
</svg>
