<?xml version="1.0" encoding="UTF-8" standalone="no"?>
<!DOCTYPE svg PUBLIC "-//W3C//DTD SVG 1.1//EN"
 "http://www.w3.org/Graphics/SVG/1.1/DTD/svg11.dtd">
<!-- Generated by graphviz version 2.36.0 (20140111.2315)
 -->
<!-- Title: g Pages: 1 -->
<svg width="108pt" height="138pt"
 viewBox="0.00 0.00 108.00 138.00" xmlns="http://www.w3.org/2000/svg" xmlns:xlink="http://www.w3.org/1999/xlink">
<g id="graph0" class="graph" transform="scale(1 1) rotate(0) translate(4 134)">
<title>g</title>
<polygon fill="white" stroke="none" points="-4,4 -4,-134 104,-134 104,4 -4,4"/>
<!-- N220 -->
<g id="node1" class="node"><title>N220</title>
<path fill="#ffffff" stroke="#2e3436" stroke-width="1.5" d="M12,-93C12,-93 88,-93 88,-93 94,-93 100,-99 100,-105 100,-105 100,-117 100,-117 100,-123 94,-129 88,-129 88,-129 12,-129 12,-129 6,-129 0,-123 0,-117 0,-117 0,-105 0,-105 0,-99 6,-93 12,-93"/>
<text text-anchor="start" x="8" y="-109.1" font-family="FreeSans" font-size="8.00" fill="#1c2021">Node[220]name = &#39;bob&#39;</text>
</g>
<!-- N221 -->
<g id="node2" class="node"><title>N221</title>
<path fill="#ffffff" stroke="#2e3436" stroke-width="1.5" d="M19,-1C19,-1 81,-1 81,-1 87,-1 93,-7 93,-13 93,-13 93,-25 93,-25 93,-31 87,-37 81,-37 81,-37 19,-37 19,-37 13,-37 7,-31 7,-25 7,-25 7,-13 7,-13 7,-7 13,-1 19,-1"/>
<text text-anchor="start" x="15" y="-17.1" font-family="FreeSans" font-size="8.00" fill="#1c2021">Node[221]age = 12</text>
</g>
<!-- N220&#45;&gt;N221 -->
<g id="edge1" class="edge"><title>N220&#45;&gt;N221</title>
<path fill="none" stroke="#2e3436" stroke-width="2" d="M50,-92.6471C50,-79.0758 50,-60.027 50,-44.84"/>
<polygon fill="#2e3436" stroke="#2e3436" stroke-width="2" points="50,-37.2996 53.3751,-44.7996 50.5,-41.0496 50.5001,-44.7996 50.0001,-44.7996 49.5001,-44.7996 49.5,-41.0496 46.6251,-44.7997 50,-37.2996 50,-37.2996"/>
<text text-anchor="middle" x="74.5" y="-67.6" font-family="FreeSans" font-size="8.00" fill="#2e3436">KNOWS</text>
<text text-anchor="start" x="50" y="-58.6" font-family="FreeSans" font-size="8.00" fill="#2e3436">since = &#39;2010&#39;</text>
</g>
</g>
</svg>
