<?xml version="1.0" encoding="UTF-8" standalone="no"?>
<!DOCTYPE svg PUBLIC "-//W3C//DTD SVG 1.1//EN"
 "http://www.w3.org/Graphics/SVG/1.1/DTD/svg11.dtd">
<!-- Generated by graphviz version 2.36.0 (20140111.2315)
 -->
<!-- Title: g Pages: 1 -->
<svg width="116pt" height="138pt"
 viewBox="0.00 0.00 116.00 138.00" xmlns="http://www.w3.org/2000/svg" xmlns:xlink="http://www.w3.org/1999/xlink">
<g id="graph0" class="graph" transform="scale(1 1) rotate(0) translate(4 134)">
<title>g</title>
<polygon fill="white" stroke="none" points="-4,4 -4,-134 112,-134 112,4 -4,4"/>
<!-- N12 -->
<g id="node1" class="node"><title>N12</title>
<path fill="#ffffff" stroke="#2e3436" stroke-width="1.5" d="M15.5,-1C15.5,-1 92.5,-1 92.5,-1 98.5,-1 104.5,-7 104.5,-13 104.5,-13 104.5,-25 104.5,-25 104.5,-31 98.5,-37 92.5,-37 92.5,-37 15.5,-37 15.5,-37 9.5,-37 3.5,-31 3.5,-25 3.5,-25 3.5,-13 3.5,-13 3.5,-7 9.5,-1 15.5,-1"/>
<text text-anchor="start" x="11.5" y="-17.1" font-family="FreeSans" font-size="8.00" fill="#1c2021">Node[12]name = &#39;Juliet&#39;</text>
</g>
<!-- N13 -->
<g id="node2" class="node"><title>N13</title>
<path fill="#ffffff" stroke="#2e3436" stroke-width="1.5" d="M12,-93C12,-93 96,-93 96,-93 102,-93 108,-99 108,-105 108,-105 108,-117 108,-117 108,-123 102,-129 96,-129 96,-129 12,-129 12,-129 6,-129 0,-123 0,-117 0,-117 0,-105 0,-105 0,-99 6,-93 12,-93"/>
<text text-anchor="start" x="8" y="-109.1" font-family="FreeSans" font-size="8.00" fill="#1c2021">Node[13]name = &#39;Romeo&#39;</text>
</g>
<!-- N13&#45;&gt;N12 -->
<g id="edge1" class="edge"><title>N13&#45;&gt;N12</title>
<path fill="none" stroke="#2e3436" stroke-width="2" d="M54,-92.6471C54,-79.0758 54,-60.027 54,-44.84"/>
<polygon fill="#2e3436" stroke="#2e3436" stroke-width="2" points="54,-37.2996 57.3751,-44.7996 54.5,-41.0496 54.5001,-44.7996 54.0001,-44.7996 53.5001,-44.7996 53.5,-41.0496 50.6251,-44.7997 54,-37.2996 54,-37.2996"/>
<text text-anchor="middle" x="75.5" y="-67.6" font-family="FreeSans" font-size="8.00" fill="#2e3436">LOVES</text>
<text text-anchor="start" x="54" y="-58.6" font-family="FreeSans" font-size="8.00" fill="#2e3436">cost = &#39;high&#39;</text>
</g>
</g>
</svg>
