<?xml version="1.0" encoding="UTF-8" standalone="no"?>
<!DOCTYPE svg PUBLIC "-//W3C//DTD SVG 1.1//EN"
 "http://www.w3.org/Graphics/SVG/1.1/DTD/svg11.dtd">
<!-- Generated by graphviz version 2.36.0 (20140111.2315)
 -->
<!-- Title: g Pages: 1 -->
<svg width="504pt" height="104pt"
 viewBox="0.00 0.00 504.00 104.40" xmlns="http://www.w3.org/2000/svg" xmlns:xlink="http://www.w3.org/1999/xlink">
<g id="graph0" class="graph" transform="scale(0.9 0.9) rotate(0) translate(4 112)">
<title>g</title>
<polygon fill="white" stroke="none" points="-4,4 -4,-112 556,-112 556,4 -4,4"/>
<!-- A1 -->
<g id="node1" class="node"><title>A1</title>
<path fill="#a8e270" stroke="#2e3436" stroke-width="1.5" d="M125,-108C125,-108 95,-108 95,-108 89,-108 83,-102 83,-96 83,-96 83,-84 83,-84 83,-78 89,-72 95,-72 95,-72 125,-72 125,-72 131,-72 137,-78 137,-84 137,-84 137,-96 137,-96 137,-102 131,-108 125,-108"/>
<text text-anchor="middle" x="110" y="-87.5" font-family="FreeSans" font-size="10.00" fill="#1c2021">A1</text>
</g>
<!-- B1 -->
<g id="node7" class="node"><title>B1</title>
<path fill="#fadcad" stroke="#2e3436" stroke-width="1.5" d="M208,-36C208,-36 178,-36 178,-36 172,-36 166,-30 166,-24 166,-24 166,-12 166,-12 166,-6 172,-0 178,-0 178,-0 208,-0 208,-0 214,-0 220,-6 220,-12 220,-12 220,-24 220,-24 220,-30 214,-36 208,-36"/>
<text text-anchor="middle" x="193" y="-15.5" font-family="FreeSans" font-size="10.00" fill="#1c2021">B1</text>
</g>
<!-- A1&#45;&gt;B1 -->
<g id="edge1" class="edge"><title>A1&#45;&gt;B1</title>
<path fill="none" stroke="#2e3436" stroke-width="2" d="M130.517,-71.6966C143.382,-60.8463 159.899,-46.9167 172.719,-36.1043"/>
</g>
<!-- B2 -->
<g id="node8" class="node"><title>B2</title>
<path fill="#fadcad" stroke="#2e3436" stroke-width="1.5" d="M42,-36C42,-36 12,-36 12,-36 6,-36 0,-30 0,-24 0,-24 0,-12 0,-12 0,-6 6,-0 12,-0 12,-0 42,-0 42,-0 48,-0 54,-6 54,-12 54,-12 54,-24 54,-24 54,-30 48,-36 42,-36"/>
<text text-anchor="middle" x="27" y="-15.5" font-family="FreeSans" font-size="10.00" fill="#1c2021">B2</text>
</g>
<!-- A1&#45;&gt;B2 -->
<g id="edge2" class="edge"><title>A1&#45;&gt;B2</title>
<path fill="none" stroke="#2e3436" stroke-width="2" d="M89.4831,-71.6966C76.6177,-60.8463 60.1012,-46.9167 47.2809,-36.1043"/>
</g>
<!-- A2 -->
<g id="node2" class="node"><title>A2</title>
<path fill="#a8e270" stroke="#2e3436" stroke-width="1.5" d="M208,-108C208,-108 178,-108 178,-108 172,-108 166,-102 166,-96 166,-96 166,-84 166,-84 166,-78 172,-72 178,-72 178,-72 208,-72 208,-72 214,-72 220,-78 220,-84 220,-84 220,-96 220,-96 220,-102 214,-108 208,-108"/>
<text text-anchor="middle" x="193" y="-87.5" font-family="FreeSans" font-size="10.00" fill="#1c2021">A2</text>
</g>
<!-- B4 -->
<g id="node9" class="node"><title>B4</title>
<path fill="#fadcad" stroke="#2e3436" stroke-width="1.5" d="M291,-36C291,-36 261,-36 261,-36 255,-36 249,-30 249,-24 249,-24 249,-12 249,-12 249,-6 255,-0 261,-0 261,-0 291,-0 291,-0 297,-0 303,-6 303,-12 303,-12 303,-24 303,-24 303,-30 297,-36 291,-36"/>
<text text-anchor="middle" x="276" y="-15.5" font-family="FreeSans" font-size="10.00" fill="#1c2021">B4</text>
</g>
<!-- A2&#45;&gt;B4 -->
<g id="edge3" class="edge"><title>A2&#45;&gt;B4</title>
<path fill="none" stroke="#2e3436" stroke-width="2" d="M213.517,-71.6966C226.382,-60.8463 242.899,-46.9167 255.719,-36.1043"/>
</g>
<!-- B6 -->
<g id="node10" class="node"><title>B6</title>
<path fill="#fadcad" stroke="#2e3436" stroke-width="1.5" d="M125,-36C125,-36 95,-36 95,-36 89,-36 83,-30 83,-24 83,-24 83,-12 83,-12 83,-6 89,-0 95,-0 95,-0 125,-0 125,-0 131,-0 137,-6 137,-12 137,-12 137,-24 137,-24 137,-30 131,-36 125,-36"/>
<text text-anchor="middle" x="110" y="-15.5" font-family="FreeSans" font-size="10.00" fill="#1c2021">B6</text>
</g>
<!-- A2&#45;&gt;B6 -->
<g id="edge4" class="edge"><title>A2&#45;&gt;B6</title>
<path fill="none" stroke="#2e3436" stroke-width="2" d="M172.483,-71.6966C159.618,-60.8463 143.101,-46.9167 130.281,-36.1043"/>
</g>
<!-- A3 -->
<g id="node3" class="node"><title>A3</title>
<path fill="#a8e270" stroke="#2e3436" stroke-width="1.5" d="M457,-108C457,-108 427,-108 427,-108 421,-108 415,-102 415,-96 415,-96 415,-84 415,-84 415,-78 421,-72 427,-72 427,-72 457,-72 457,-72 463,-72 469,-78 469,-84 469,-84 469,-96 469,-96 469,-102 463,-108 457,-108"/>
<text text-anchor="middle" x="442" y="-87.5" font-family="FreeSans" font-size="10.00" fill="#1c2021">A3</text>
</g>
<!-- B3 -->
<g id="node11" class="node"><title>B3</title>
<path fill="#fadcad" stroke="#2e3436" stroke-width="1.5" d="M457,-36C457,-36 427,-36 427,-36 421,-36 415,-30 415,-24 415,-24 415,-12 415,-12 415,-6 421,-0 427,-0 427,-0 457,-0 457,-0 463,-0 469,-6 469,-12 469,-12 469,-24 469,-24 469,-30 463,-36 457,-36"/>
<text text-anchor="middle" x="442" y="-15.5" font-family="FreeSans" font-size="10.00" fill="#1c2021">B3</text>
</g>
<!-- A3&#45;&gt;B3 -->
<g id="edge5" class="edge"><title>A3&#45;&gt;B3</title>
<path fill="none" stroke="#2e3436" stroke-width="2" d="M442,-71.6966C442,-60.8463 442,-46.9167 442,-36.1043"/>
</g>
<!-- B5 -->
<g id="node12" class="node"><title>B5</title>
<path fill="#fadcad" stroke="#2e3436" stroke-width="1.5" d="M374,-36C374,-36 344,-36 344,-36 338,-36 332,-30 332,-24 332,-24 332,-12 332,-12 332,-6 338,-0 344,-0 344,-0 374,-0 374,-0 380,-0 386,-6 386,-12 386,-12 386,-24 386,-24 386,-30 380,-36 374,-36"/>
<text text-anchor="middle" x="359" y="-15.5" font-family="FreeSans" font-size="10.00" fill="#1c2021">B5</text>
</g>
<!-- A3&#45;&gt;B5 -->
<g id="edge6" class="edge"><title>A3&#45;&gt;B5</title>
<path fill="none" stroke="#2e3436" stroke-width="2" d="M421.483,-71.6966C408.618,-60.8463 392.101,-46.9167 379.281,-36.1043"/>
</g>
<!-- B7 -->
<g id="node13" class="node"><title>B7</title>
<path fill="#fadcad" stroke="#2e3436" stroke-width="1.5" d="M540,-36C540,-36 510,-36 510,-36 504,-36 498,-30 498,-24 498,-24 498,-12 498,-12 498,-6 504,-0 510,-0 510,-0 540,-0 540,-0 546,-0 552,-6 552,-12 552,-12 552,-24 552,-24 552,-30 546,-36 540,-36"/>
<text text-anchor="middle" x="525" y="-15.5" font-family="FreeSans" font-size="10.00" fill="#1c2021">B7</text>
</g>
<!-- A3&#45;&gt;B7 -->
<g id="edge7" class="edge"><title>A3&#45;&gt;B7</title>
<path fill="none" stroke="#2e3436" stroke-width="2" d="M462.517,-71.6966C475.382,-60.8463 491.899,-46.9167 504.719,-36.1043"/>
</g>
<!-- C1 -->
<g id="node4" class="node"><title>C1</title>
<path fill="#95bbe3" stroke="#2e3436" stroke-width="1.5" d="M291,-108C291,-108 261,-108 261,-108 255,-108 249,-102 249,-96 249,-96 249,-84 249,-84 249,-78 255,-72 261,-72 261,-72 291,-72 291,-72 297,-72 303,-78 303,-84 303,-84 303,-96 303,-96 303,-102 297,-108 291,-108"/>
<text text-anchor="middle" x="276" y="-87.5" font-family="FreeSans" font-size="10.00" fill="#1c2021">C1</text>
</g>
<!-- C1&#45;&gt;B1 -->
<g id="edge8" class="edge"><title>C1&#45;&gt;B1</title>
<path fill="none" stroke="#2e3436" stroke-width="2" d="M255.483,-71.6966C242.618,-60.8463 226.101,-46.9167 213.281,-36.1043"/>
</g>
<!-- C1&#45;&gt;B4 -->
<g id="edge9" class="edge"><title>C1&#45;&gt;B4</title>
<path fill="none" stroke="#2e3436" stroke-width="2" d="M276,-71.6966C276,-60.8463 276,-46.9167 276,-36.1043"/>
</g>
<!-- C1&#45;&gt;B5 -->
<g id="edge10" class="edge"><title>C1&#45;&gt;B5</title>
<path fill="none" stroke="#2e3436" stroke-width="2" d="M296.517,-71.6966C309.382,-60.8463 325.899,-46.9167 338.719,-36.1043"/>
</g>
<!-- C2 -->
<g id="node5" class="node"><title>C2</title>
<path fill="#95bbe3" stroke="#2e3436" stroke-width="1.5" d="M540,-108C540,-108 510,-108 510,-108 504,-108 498,-102 498,-96 498,-96 498,-84 498,-84 498,-78 504,-72 510,-72 510,-72 540,-72 540,-72 546,-72 552,-78 552,-84 552,-84 552,-96 552,-96 552,-102 546,-108 540,-108"/>
<text text-anchor="middle" x="525" y="-87.5" font-family="FreeSans" font-size="10.00" fill="#1c2021">C2</text>
</g>
<!-- C2&#45;&gt;B3 -->
<g id="edge11" class="edge"><title>C2&#45;&gt;B3</title>
<path fill="none" stroke="#2e3436" stroke-width="2" d="M504.483,-71.6966C491.618,-60.8463 475.101,-46.9167 462.281,-36.1043"/>
</g>
<!-- C2&#45;&gt;B7 -->
<g id="edge12" class="edge"><title>C2&#45;&gt;B7</title>
<path fill="none" stroke="#2e3436" stroke-width="2" d="M525,-71.6966C525,-60.8463 525,-46.9167 525,-36.1043"/>
</g>
<!-- C3 -->
<g id="node6" class="node"><title>C3</title>
<path fill="#95bbe3" stroke="#2e3436" stroke-width="1.5" d="M42,-108C42,-108 12,-108 12,-108 6,-108 0,-102 0,-96 0,-96 0,-84 0,-84 0,-78 6,-72 12,-72 12,-72 42,-72 42,-72 48,-72 54,-78 54,-84 54,-84 54,-96 54,-96 54,-102 48,-108 42,-108"/>
<text text-anchor="middle" x="27" y="-87.5" font-family="FreeSans" font-size="10.00" fill="#1c2021">C3</text>
</g>
<!-- C3&#45;&gt;B2 -->
<g id="edge13" class="edge"><title>C3&#45;&gt;B2</title>
<path fill="none" stroke="#2e3436" stroke-width="2" d="M27,-71.6966C27,-60.8463 27,-46.9167 27,-36.1043"/>
</g>
<!-- C3&#45;&gt;B6 -->
<g id="edge14" class="edge"><title>C3&#45;&gt;B6</title>
<path fill="none" stroke="#2e3436" stroke-width="2" d="M47.5169,-71.6966C60.3823,-60.8463 76.8988,-46.9167 89.7191,-36.1043"/>
</g>
</g>
</svg>
