<?xml version="1.0" encoding="UTF-8" standalone="no"?>
<!DOCTYPE svg PUBLIC "-//W3C//DTD SVG 1.1//EN"
 "http://www.w3.org/Graphics/SVG/1.1/DTD/svg11.dtd">
<!-- Generated by graphviz version 2.36.0 (20140111.2315)
 -->
<!-- Title: g Pages: 1 -->
<svg width="206pt" height="348pt"
 viewBox="0.00 0.00 206.11 348.00" xmlns="http://www.w3.org/2000/svg" xmlns:xlink="http://www.w3.org/1999/xlink">
<g id="graph0" class="graph" transform="scale(1 1) rotate(0) translate(4 344)">
<title>g</title>
<polygon fill="white" stroke="none" points="-4,4 -4,-344 202.11,-344 202.11,4 -4,4"/>
<!-- A Property -->
<g id="node1" class="node"><title>A Property</title>
<path fill="#a8e270" stroke="#2e3436" stroke-width="1.5" d="M145.188,-340C145.188,-340 108.188,-340 108.188,-340 102.188,-340 96.188,-334 96.188,-328 96.188,-328 96.188,-316 96.188,-316 96.188,-310 102.188,-304 108.188,-304 108.188,-304 145.188,-304 145.188,-304 151.188,-304 157.188,-310 157.188,-316 157.188,-316 157.188,-328 157.188,-328 157.188,-334 151.188,-340 145.188,-340"/>
<text text-anchor="middle" x="126.688" y="-319.5" font-family="FreeSans" font-size="10.00" fill="#1c2021">A Property</text>
</g>
<!-- Key -->
<g id="node2" class="node"><title>Key</title>
<path fill="#fadcad" stroke="#2e3436" stroke-width="1.5" d="M180.688,-256C180.688,-256 150.688,-256 150.688,-256 144.688,-256 138.688,-250 138.688,-244 138.688,-244 138.688,-232 138.688,-232 138.688,-226 144.688,-220 150.688,-220 150.688,-220 180.688,-220 180.688,-220 186.688,-220 192.688,-226 192.688,-232 192.688,-232 192.688,-244 192.688,-244 192.688,-250 186.688,-256 180.688,-256"/>
<text text-anchor="middle" x="165.688" y="-235.5" font-family="FreeSans" font-size="10.00" fill="#1c2021">Key</text>
</g>
<!-- A Property&#45;&gt;Key -->
<g id="edge1" class="edge"><title>A Property&#45;&gt;Key</title>
<path fill="none" stroke="#2e3436" stroke-width="2" d="M134.959,-303.61C140.581,-291.789 148.092,-275.997 154.281,-262.984"/>
<polygon fill="#2e3436" stroke="#2e3436" stroke-width="2" points="157.563,-256.084 157.389,-264.306 156.404,-259.685 154.793,-263.072 154.341,-262.857 153.89,-262.642 155.501,-259.256 151.294,-261.407 157.563,-256.084 157.563,-256.084"/>
<text text-anchor="middle" x="159.188" y="-277.5" font-family="FreeSans" font-size="10.00" fill="#1c2021">has a</text>
</g>
<!-- Value -->
<g id="node4" class="node"><title>Value</title>
<path fill="#fadcad" stroke="#2e3436" stroke-width="1.5" d="M97.688,-256C97.688,-256 67.688,-256 67.688,-256 61.688,-256 55.688,-250 55.688,-244 55.688,-244 55.688,-232 55.688,-232 55.688,-226 61.688,-220 67.688,-220 67.688,-220 97.688,-220 97.688,-220 103.688,-220 109.688,-226 109.688,-232 109.688,-232 109.688,-244 109.688,-244 109.688,-250 103.688,-256 97.688,-256"/>
<text text-anchor="middle" x="82.688" y="-235.5" font-family="FreeSans" font-size="10.00" fill="#1c2021">Value</text>
</g>
<!-- A Property&#45;&gt;Value -->
<g id="edge3" class="edge"><title>A Property&#45;&gt;Value</title>
<path fill="none" stroke="#2e3436" stroke-width="2" d="M117.357,-303.61C111.014,-291.789 102.54,-275.997 95.5575,-262.984"/>
<polygon fill="#2e3436" stroke="#2e3436" stroke-width="2" points="91.8549,-256.084 98.375,-261.097 94.0686,-259.152 95.8417,-262.456 95.4011,-262.693 94.9605,-262.929 93.1875,-259.625 92.4272,-264.288 91.8549,-256.084 91.8549,-256.084"/>
<text text-anchor="middle" x="118.188" y="-277.5" font-family="FreeSans" font-size="10.00" fill="#1c2021">has a</text>
</g>
<!-- Primitive -->
<g id="node3" class="node"><title>Primitive</title>
<path fill="#fadcad" stroke="#2e3436" stroke-width="1.5" d="M54.688,-0.5C54.688,-0.5 134.688,-0.5 134.688,-0.5 140.688,-0.5 146.688,-6.5 146.688,-12.5 146.688,-12.5 146.688,-159.5 146.688,-159.5 146.688,-165.5 140.688,-171.5 134.688,-171.5 134.688,-171.5 54.688,-171.5 54.688,-171.5 48.688,-171.5 42.688,-165.5 42.688,-159.5 42.688,-159.5 42.688,-12.5 42.688,-12.5 42.688,-6.5 48.688,-0.5 54.688,-0.5"/>
<text text-anchor="middle" x="69.688" y="-83.5" font-family="FreeSans" font-size="10.00" fill="#1c2021">Primitive</text>
<polyline fill="none" stroke="#2e3436" stroke-width="1.5" points="96.688,-0.5 96.688,-171.5 "/>
<text text-anchor="middle" x="121.688" y="-159.5" font-family="FreeSans" font-size="10.00" fill="#1c2021">boolean</text>
<polyline fill="none" stroke="#2e3436" stroke-width="1.5" points="96.688,-152.5 146.688,-152.5 "/>
<text text-anchor="middle" x="121.688" y="-140.5" font-family="FreeSans" font-size="10.00" fill="#1c2021">byte</text>
<polyline fill="none" stroke="#2e3436" stroke-width="1.5" points="96.688,-133.5 146.688,-133.5 "/>
<text text-anchor="middle" x="121.688" y="-121.5" font-family="FreeSans" font-size="10.00" fill="#1c2021">short</text>
<polyline fill="none" stroke="#2e3436" stroke-width="1.5" points="96.688,-114.5 146.688,-114.5 "/>
<text text-anchor="middle" x="121.688" y="-102.5" font-family="FreeSans" font-size="10.00" fill="#1c2021">int</text>
<polyline fill="none" stroke="#2e3436" stroke-width="1.5" points="96.688,-95.5 146.688,-95.5 "/>
<text text-anchor="middle" x="121.688" y="-83.5" font-family="FreeSans" font-size="10.00" fill="#1c2021">long</text>
<polyline fill="none" stroke="#2e3436" stroke-width="1.5" points="96.688,-76.5 146.688,-76.5 "/>
<text text-anchor="middle" x="121.688" y="-64.5" font-family="FreeSans" font-size="10.00" fill="#1c2021">float</text>
<polyline fill="none" stroke="#2e3436" stroke-width="1.5" points="96.688,-57.5 146.688,-57.5 "/>
<text text-anchor="middle" x="121.688" y="-45.5" font-family="FreeSans" font-size="10.00" fill="#1c2021">double</text>
<polyline fill="none" stroke="#2e3436" stroke-width="1.5" points="96.688,-38.5 146.688,-38.5 "/>
<text text-anchor="middle" x="121.688" y="-26.5" font-family="FreeSans" font-size="10.00" fill="#1c2021">char</text>
<polyline fill="none" stroke="#2e3436" stroke-width="1.5" points="96.688,-19.5 146.688,-19.5 "/>
<text text-anchor="middle" x="121.688" y="-7.5" font-family="FreeSans" font-size="10.00" fill="#1c2021">String</text>
</g>
<!-- Key&#45;&gt;Primitive -->
<g id="edge2" class="edge"><title>Key&#45;&gt;Primitive:String</title>
<path fill="none" stroke="#2e3436" stroke-width="2" d="M171.462,-219.938C187.907,-168.796 229.204,-19.7198 155.213,-10.4524"/>
<polygon fill="#2e3436" stroke="#2e3436" stroke-width="2" points="147.688,-10 155.377,-7.08127 151.461,-9.72599 155.204,-9.95109 155.174,-10.4502 155.144,-10.9493 151.401,-10.7242 154.972,-13.8191 147.688,-10 147.688,-10"/>
<text text-anchor="middle" x="186.188" y="-193.5" font-family="FreeSans" font-size="10.00" fill="#1c2021">is a</text>
</g>
<!-- Value&#45;&gt;Primitive -->
<g id="edge4" class="edge"><title>Value&#45;&gt;Primitive</title>
<path fill="none" stroke="#2e3436" stroke-width="2" d="M84.0646,-219.793C84.911,-209.212 86.0691,-194.737 87.3102,-179.222"/>
<polygon fill="#2e3436" stroke="#2e3436" stroke-width="2" points="87.9252,-171.535 90.6913,-179.28 88.1245,-175.313 87.8254,-179.051 87.327,-179.011 86.8286,-178.971 87.1277,-175.233 83.9628,-178.742 87.9252,-171.535 87.9252,-171.535"/>
<text text-anchor="middle" x="104.188" y="-193.5" font-family="FreeSans" font-size="10.00" fill="#1c2021">can be a</text>
</g>
<!-- Value&#45;&gt;Primitive -->
<g id="edge5" class="edge"><title>Value&#45;&gt;Primitive</title>
<path fill="none" stroke="#2e3436" stroke-width="2" d="M55.6086,-232.897C28.49,-227.325 -7.94302,-215.038 1.688,-190 9.353,-170.073 22.8553,-151.6 37.2351,-135.962"/>
<polygon fill="#2e3436" stroke="#2e3436" stroke-width="2" points="42.5635,-130.331 39.8598,-138.098 40.3491,-133.398 37.7716,-136.122 37.4084,-135.779 37.0452,-135.435 39.6228,-132.711 34.957,-133.459 42.5635,-130.331 42.5635,-130.331"/>
<text text-anchor="middle" x="39.688" y="-193.5" font-family="FreeSans" font-size="10.00" fill="#1c2021">can be an array of</text>
</g>
</g>
</svg>
