<?xml version="1.0" encoding="UTF-8" standalone="no"?>
<!DOCTYPE svg PUBLIC "-//W3C//DTD SVG 1.1//EN"
 "http://www.w3.org/Graphics/SVG/1.1/DTD/svg11.dtd">
<!-- Generated by graphviz version 2.36.0 (20140111.2315)
 -->
<!-- Title: g Pages: 1 -->
<svg width="212pt" height="44pt"
 viewBox="0.00 0.00 212.00 44.00" xmlns="http://www.w3.org/2000/svg" xmlns:xlink="http://www.w3.org/1999/xlink">
<g id="graph0" class="graph" transform="scale(1 1) rotate(0) translate(4 40)">
<title>g</title>
<polygon fill="white" stroke="none" points="-4,4 -4,-40 208,-40 208,4 -4,4"/>
<!-- Start node -->
<g id="node1" class="node"><title>Start node</title>
<path fill="#ffffff" stroke="#2e3436" stroke-width="1.5" d="M49.5,-36C49.5,-36 12.5,-36 12.5,-36 6.5,-36 0.5,-30 0.5,-24 0.5,-24 0.5,-12 0.5,-12 0.5,-6 6.5,-0 12.5,-0 12.5,-0 49.5,-0 49.5,-0 55.5,-0 61.5,-6 61.5,-12 61.5,-12 61.5,-24 61.5,-24 61.5,-30 55.5,-36 49.5,-36"/>
<text text-anchor="middle" x="31" y="-15.5" font-family="FreeSans" font-size="10.00" fill="#1c2021">Start node</text>
</g>
<!-- End node -->
<g id="node2" class="node"><title>End node</title>
<path fill="#ffffff" stroke="#2e3436" stroke-width="1.5" d="M192,-36C192,-36 160,-36 160,-36 154,-36 148,-30 148,-24 148,-24 148,-12 148,-12 148,-6 154,-0 160,-0 160,-0 192,-0 192,-0 198,-0 204,-6 204,-12 204,-12 204,-24 204,-24 204,-30 198,-36 192,-36"/>
<text text-anchor="middle" x="176" y="-15.5" font-family="FreeSans" font-size="10.00" fill="#1c2021">End node</text>
</g>
<!-- Start node&#45;&gt;End node -->
<g id="edge1" class="edge"><title>Start node&#45;&gt;End node</title>
<path fill="none" stroke="#2e3436" stroke-width="2" d="M61.6297,-18C84.5135,-18 116.232,-18 140.302,-18"/>
<polygon fill="#2e3436" stroke="#2e3436" stroke-width="2" points="147.827,-18 140.327,-21.3751 144.077,-18.5 140.327,-18.5001 140.327,-18.0001 140.327,-17.5001 144.077,-17.5 140.327,-14.6251 147.827,-18 147.827,-18"/>
<text text-anchor="middle" x="105" y="-21" font-family="FreeSans" font-size="10.00" fill="#1c2021">relationship</text>
</g>
</g>
</svg>
