<?xml version="1.0" encoding="UTF-8" standalone="no"?>
<!DOCTYPE svg PUBLIC "-//W3C//DTD SVG 1.1//EN"
 "http://www.w3.org/Graphics/SVG/1.1/DTD/svg11.dtd">
<!-- Generated by graphviz version 2.36.0 (20140111.2315)
 -->
<!-- Title: g Pages: 1 -->
<svg width="262pt" height="212pt"
 viewBox="0.00 0.00 262.00 212.00" xmlns="http://www.w3.org/2000/svg" xmlns:xlink="http://www.w3.org/1999/xlink">
<g id="graph0" class="graph" transform="scale(1 1) rotate(0) translate(4 208)">
<title>g</title>
<polygon fill="white" stroke="none" points="-4,4 -4,-208 258,-208 258,4 -4,4"/>
<!-- A Node -->
<g id="node1" class="node"><title>A Node</title>
<path fill="#a8e270" stroke="#2e3436" stroke-width="1.5" d="M147,-204C147,-204 117,-204 117,-204 111,-204 105,-198 105,-192 105,-192 105,-180 105,-180 105,-174 111,-168 117,-168 117,-168 147,-168 147,-168 153,-168 159,-174 159,-180 159,-180 159,-192 159,-192 159,-198 153,-204 147,-204"/>
<text text-anchor="middle" x="132" y="-183.5" font-family="FreeSans" font-size="10.00" fill="#1c2021">A Node</text>
</g>
<!-- Relationships -->
<g id="node2" class="node"><title>Relationships</title>
<path fill="#fadcad" stroke="#2e3436" stroke-width="1.5" d="M62,-120C62,-120 12,-120 12,-120 6,-120 0,-114 0,-108 0,-108 0,-96 0,-96 0,-90 6,-84 12,-84 12,-84 62,-84 62,-84 68,-84 74,-90 74,-96 74,-96 74,-108 74,-108 74,-114 68,-120 62,-120"/>
<text text-anchor="middle" x="37" y="-99.5" font-family="FreeSans" font-size="10.00" fill="#1c2021">Relationships</text>
</g>
<!-- A Node&#45;&gt;Relationships -->
<g id="edge1" class="edge"><title>A Node&#45;&gt;Relationships</title>
<path fill="none" stroke="#2e3436" stroke-width="2" d="M104.851,-172.599C93.6502,-166.709 80.9838,-158.984 71,-150 63.5137,-143.264 56.6881,-134.618 51.1493,-126.583"/>
<polygon fill="#2e3436" stroke="#2e3436" stroke-width="2" points="46.8132,-120.033 53.7673,-124.424 49.3,-122.884 51.37,-126.011 50.9531,-126.287 50.5361,-126.563 48.4662,-123.436 48.1388,-128.15 46.8132,-120.033 46.8132,-120.033"/>
<text text-anchor="middle" x="90.5" y="-141.5" font-family="FreeSans" font-size="10.00" fill="#1c2021">can have</text>
</g>
<!-- Properties -->
<g id="node3" class="node"><title>Properties</title>
<path fill="#fadcad" stroke="#2e3436" stroke-width="1.5" d="M110.5,-36C110.5,-36 75.5,-36 75.5,-36 69.5,-36 63.5,-30 63.5,-24 63.5,-24 63.5,-12 63.5,-12 63.5,-6 69.5,-0 75.5,-0 75.5,-0 110.5,-0 110.5,-0 116.5,-0 122.5,-6 122.5,-12 122.5,-12 122.5,-24 122.5,-24 122.5,-30 116.5,-36 110.5,-36"/>
<text text-anchor="middle" x="93" y="-15.5" font-family="FreeSans" font-size="10.00" fill="#1c2021">Properties</text>
</g>
<!-- A Node&#45;&gt;Properties -->
<g id="edge2" class="edge"><title>A Node&#45;&gt;Properties</title>
<path fill="none" stroke="#2e3436" stroke-width="2" d="M131.55,-167.984C130.432,-142.531 126.541,-93.3298 113,-54 111.723,-50.2902 110.046,-46.5267 108.205,-42.911"/>
<polygon fill="#2e3436" stroke="#2e3436" stroke-width="2" points="104.527,-36.1928 111.089,-41.1503 106.766,-39.2419 108.567,-42.5311 108.129,-42.7712 107.69,-43.0114 105.889,-39.7221 105.168,-44.3921 104.527,-36.1928 104.527,-36.1928"/>
<text text-anchor="middle" x="146.5" y="-99.5" font-family="FreeSans" font-size="10.00" fill="#1c2021">can have</text>
</g>
<!-- Labels -->
<g id="node4" class="node"><title>Labels</title>
<path fill="#fadcad" stroke="#2e3436" stroke-width="1.5" d="M242,-120C242,-120 212,-120 212,-120 206,-120 200,-114 200,-108 200,-108 200,-96 200,-96 200,-90 206,-84 212,-84 212,-84 242,-84 242,-84 248,-84 254,-90 254,-96 254,-96 254,-108 254,-108 254,-114 248,-120 242,-120"/>
<text text-anchor="middle" x="227" y="-99.5" font-family="FreeSans" font-size="10.00" fill="#1c2021">Labels</text>
</g>
<!-- A Node&#45;&gt;Labels -->
<g id="edge3" class="edge"><title>A Node&#45;&gt;Labels</title>
<path fill="none" stroke="#2e3436" stroke-width="2" d="M152.147,-167.61C166.476,-155.242 185.842,-138.526 201.286,-125.195"/>
<polygon fill="#2e3436" stroke="#2e3436" stroke-width="2" points="207.208,-120.084 203.735,-127.539 204.696,-122.913 201.857,-125.363 201.53,-124.984 201.203,-124.606 204.042,-122.156 199.325,-122.43 207.208,-120.084 207.208,-120.084"/>
<text text-anchor="middle" x="204.5" y="-141.5" font-family="FreeSans" font-size="10.00" fill="#1c2021">can have</text>
</g>
<!-- Relationships&#45;&gt;Properties -->
<g id="edge4" class="edge"><title>Relationships&#45;&gt;Properties</title>
<path fill="none" stroke="#2e3436" stroke-width="2" d="M48.8762,-83.6099C57.0236,-71.6798 67.9339,-55.7039 76.8669,-42.6234"/>
<polygon fill="#2e3436" stroke="#2e3436" stroke-width="2" points="81.333,-36.0838 79.8903,-44.1808 79.631,-39.4626 77.5161,-42.5593 77.1032,-42.2774 76.6903,-41.9954 78.8052,-38.8986 74.3161,-40.374 81.333,-36.0838 81.333,-36.0838"/>
<text text-anchor="middle" x="88.5" y="-57.5" font-family="FreeSans" font-size="10.00" fill="#1c2021">can have</text>
</g>
</g>
</svg>
