<?xml version="1.0" encoding="UTF-8" standalone="no"?>
<!DOCTYPE svg PUBLIC "-//W3C//DTD SVG 1.1//EN"
 "http://www.w3.org/Graphics/SVG/1.1/DTD/svg11.dtd">
<!-- Generated by graphviz version 2.36.0 (20140111.2315)
 -->
<!-- Title: g Pages: 1 -->
<svg width="359pt" height="212pt"
 viewBox="0.00 0.00 359.00 212.00" xmlns="http://www.w3.org/2000/svg" xmlns:xlink="http://www.w3.org/1999/xlink">
<g id="graph0" class="graph" transform="scale(1 1) rotate(0) translate(4 208)">
<title>g</title>
<polygon fill="white" stroke="none" points="-4,4 -4,-208 355,-208 355,4 -4,4"/>
<!-- A Relationship -->
<g id="node1" class="node"><title>A Relationship</title>
<path fill="#a8e270" stroke="#2e3436" stroke-width="1.5" d="M184,-204C184,-204 130,-204 130,-204 124,-204 118,-198 118,-192 118,-192 118,-180 118,-180 118,-174 124,-168 130,-168 130,-168 184,-168 184,-168 190,-168 196,-174 196,-180 196,-180 196,-192 196,-192 196,-198 190,-204 184,-204"/>
<text text-anchor="middle" x="157" y="-183.5" font-family="FreeSans" font-size="10.00" fill="#1c2021">A Relationship</text>
</g>
<!-- Start node -->
<g id="node2" class="node"><title>Start node</title>
<path fill="#fadcad" stroke="#2e3436" stroke-width="1.5" d="M48.25,-120C48.25,-120 11.75,-120 11.75,-120 5.75,-120 -0.25,-114 -0.25,-108 -0.25,-108 -0.25,-96 -0.25,-96 -0.25,-90 5.75,-84 11.75,-84 11.75,-84 48.25,-84 48.25,-84 54.25,-84 60.25,-90 60.25,-96 60.25,-96 60.25,-108 60.25,-108 60.25,-114 54.25,-120 48.25,-120"/>
<text text-anchor="middle" x="30" y="-99.5" font-family="FreeSans" font-size="10.00" fill="#1c2021">Start node</text>
</g>
<!-- A Relationship&#45;&gt;Start node -->
<g id="edge1" class="edge"><title>A Relationship&#45;&gt;Start node</title>
<path fill="none" stroke="#2e3436" stroke-width="2" d="M130.377,-167.81C110.734,-155.127 83.8858,-137.792 62.8989,-124.242"/>
<polygon fill="#2e3436" stroke="#2e3436" stroke-width="2" points="56.5883,-120.167 64.7198,-121.4 60.0099,-121.781 63.1603,-123.815 62.8891,-124.236 62.6179,-124.656 59.4675,-122.621 61.0584,-127.071 56.5883,-120.167 56.5883,-120.167"/>
<text text-anchor="middle" x="113.5" y="-141.5" font-family="FreeSans" font-size="10.00" fill="#1c2021">has a</text>
</g>
<!-- End node -->
<g id="node3" class="node"><title>End node</title>
<path fill="#fadcad" stroke="#2e3436" stroke-width="1.5" d="M133.5,-120C133.5,-120 102.5,-120 102.5,-120 96.5,-120 90.5,-114 90.5,-108 90.5,-108 90.5,-96 90.5,-96 90.5,-90 96.5,-84 102.5,-84 102.5,-84 133.5,-84 133.5,-84 139.5,-84 145.5,-90 145.5,-96 145.5,-96 145.5,-108 145.5,-108 145.5,-114 139.5,-120 133.5,-120"/>
<text text-anchor="middle" x="118" y="-99.5" font-family="FreeSans" font-size="10.00" fill="#1c2021">End node</text>
</g>
<!-- A Relationship&#45;&gt;End node -->
<g id="edge2" class="edge"><title>A Relationship&#45;&gt;End node</title>
<path fill="none" stroke="#2e3436" stroke-width="2" d="M147.199,-167.722C144.138,-162.126 140.826,-155.853 138,-150 134.472,-142.693 130.911,-134.605 127.791,-127.228"/>
<polygon fill="#2e3436" stroke="#2e3436" stroke-width="2" points="124.836,-120.143 130.838,-125.766 126.741,-123.412 128.185,-126.873 127.723,-127.065 127.262,-127.258 125.818,-123.797 124.608,-128.365 124.836,-120.143 124.836,-120.143"/>
<text text-anchor="middle" x="149.5" y="-141.5" font-family="FreeSans" font-size="10.00" fill="#1c2021">has a</text>
</g>
<!-- Relationship type -->
<g id="node4" class="node"><title>Relationship type</title>
<path fill="#fadcad" stroke="#2e3436" stroke-width="1.5" d="M251.25,-120C251.25,-120 186.75,-120 186.75,-120 180.75,-120 174.75,-114 174.75,-108 174.75,-108 174.75,-96 174.75,-96 174.75,-90 180.75,-84 186.75,-84 186.75,-84 251.25,-84 251.25,-84 257.25,-84 263.25,-90 263.25,-96 263.25,-96 263.25,-108 263.25,-108 263.25,-114 257.25,-120 251.25,-120"/>
<text text-anchor="middle" x="219" y="-99.5" font-family="FreeSans" font-size="10.00" fill="#1c2021">Relationship type</text>
</g>
<!-- A Relationship&#45;&gt;Relationship type -->
<g id="edge3" class="edge"><title>A Relationship&#45;&gt;Relationship type</title>
<path fill="none" stroke="#2e3436" stroke-width="2" d="M170.149,-167.61C179.252,-155.57 191.47,-139.41 201.41,-126.264"/>
<polygon fill="#2e3436" stroke="#2e3436" stroke-width="2" points="206.083,-120.084 204.252,-128.102 204.22,-123.377 201.958,-126.368 201.56,-126.066 201.161,-125.765 203.422,-122.774 198.867,-124.031 206.083,-120.084 206.083,-120.084"/>
<text text-anchor="middle" x="203.5" y="-141.5" font-family="FreeSans" font-size="10.00" fill="#1c2021">has a</text>
</g>
<!-- Properties -->
<g id="node5" class="node"><title>Properties</title>
<path fill="#fadcad" stroke="#2e3436" stroke-width="1.5" d="M339.5,-120C339.5,-120 304.5,-120 304.5,-120 298.5,-120 292.5,-114 292.5,-108 292.5,-108 292.5,-96 292.5,-96 292.5,-90 298.5,-84 304.5,-84 304.5,-84 339.5,-84 339.5,-84 345.5,-84 351.5,-90 351.5,-96 351.5,-96 351.5,-108 351.5,-108 351.5,-114 345.5,-120 339.5,-120"/>
<text text-anchor="middle" x="322" y="-99.5" font-family="FreeSans" font-size="10.00" fill="#1c2021">Properties</text>
</g>
<!-- A Relationship&#45;&gt;Properties -->
<g id="edge4" class="edge"><title>A Relationship&#45;&gt;Properties</title>
<path fill="none" stroke="#2e3436" stroke-width="2" d="M191.589,-167.81C219.118,-154.129 257.538,-135.036 285.544,-121.117"/>
<polygon fill="#2e3436" stroke="#2e3436" stroke-width="2" points="292.427,-117.697 287.213,-124.057 289.291,-119.814 285.933,-121.483 285.711,-121.035 285.488,-120.587 288.846,-118.918 284.209,-118.012 292.427,-117.697 292.427,-117.697"/>
<text text-anchor="middle" x="269.5" y="-141.5" font-family="FreeSans" font-size="10.00" fill="#1c2021">can have</text>
</g>
<!-- Name -->
<g id="node6" class="node"><title>Name</title>
<path fill="#fadcad" stroke="#2e3436" stroke-width="1.5" d="M234,-36C234,-36 204,-36 204,-36 198,-36 192,-30 192,-24 192,-24 192,-12 192,-12 192,-6 198,-0 204,-0 204,-0 234,-0 234,-0 240,-0 246,-6 246,-12 246,-12 246,-24 246,-24 246,-30 240,-36 234,-36"/>
<text text-anchor="middle" x="219" y="-15.5" font-family="FreeSans" font-size="10.00" fill="#1c2021">Name</text>
</g>
<!-- Relationship type&#45;&gt;Name -->
<g id="edge5" class="edge"><title>Relationship type&#45;&gt;Name</title>
<path fill="none" stroke="#2e3436" stroke-width="2" d="M219,-83.6099C219,-72.0081 219,-56.5802 219,-43.7099"/>
<polygon fill="#2e3436" stroke="#2e3436" stroke-width="2" points="219,-36.0838 222.375,-43.5838 219.5,-39.8338 219.5,-43.5838 219,-43.5838 218.5,-43.5838 218.5,-39.8338 215.625,-43.5839 219,-36.0838 219,-36.0838"/>
<text text-anchor="middle" x="263" y="-57.5" font-family="FreeSans" font-size="10.00" fill="#1c2021">uniquely identified by</text>
</g>
</g>
</svg>
