<?xml version="1.0" encoding="UTF-8" standalone="no"?>
<!DOCTYPE svg PUBLIC "-//W3C//DTD SVG 1.1//EN"
 "http://www.w3.org/Graphics/SVG/1.1/DTD/svg11.dtd">
<!-- Generated by graphviz version 2.36.0 (20140111.2315)
 -->
<!-- Title: g Pages: 1 -->
<svg width="145pt" height="128pt"
 viewBox="0.00 0.00 145.00 128.00" xmlns="http://www.w3.org/2000/svg" xmlns:xlink="http://www.w3.org/1999/xlink">
<g id="graph0" class="graph" transform="scale(1 1) rotate(0) translate(4 124)">
<title>g</title>
<polygon fill="white" stroke="none" points="-4,4 -4,-124 141,-124 141,4 -4,4"/>
<!-- A Label -->
<g id="node1" class="node"><title>A Label</title>
<path fill="#a8e270" stroke="#2e3436" stroke-width="1.5" d="M83,-120C83,-120 53,-120 53,-120 47,-120 41,-114 41,-108 41,-108 41,-96 41,-96 41,-90 47,-84 53,-84 53,-84 83,-84 83,-84 89,-84 95,-90 95,-96 95,-96 95,-108 95,-108 95,-114 89,-120 83,-120"/>
<text text-anchor="middle" x="68" y="-99.5" font-family="FreeSans" font-size="10.00" fill="#1c2021">A Label</text>
</g>
<!-- Name -->
<g id="node2" class="node"><title>Name</title>
<path fill="#fadcad" stroke="#2e3436" stroke-width="1.5" d="M42,-36C42,-36 12,-36 12,-36 6,-36 0,-30 0,-24 0,-24 0,-12 0,-12 0,-6 6,-0 12,-0 12,-0 42,-0 42,-0 48,-0 54,-6 54,-12 54,-12 54,-24 54,-24 54,-30 48,-36 42,-36"/>
<text text-anchor="middle" x="27" y="-15.5" font-family="FreeSans" font-size="10.00" fill="#1c2021">Name</text>
</g>
<!-- A Label&#45;&gt;Name -->
<g id="edge1" class="edge"><title>A Label&#45;&gt;Name</title>
<path fill="none" stroke="#2e3436" stroke-width="2" d="M59.305,-83.6099C53.3946,-71.7892 45.4983,-55.9967 38.9921,-42.9841"/>
<polygon fill="#2e3436" stroke="#2e3436" stroke-width="2" points="35.5419,-36.0838 41.9148,-41.2827 37.6662,-39.2143 39.3433,-42.5684 38.8961,-42.7921 38.4489,-43.0157 36.7718,-39.6616 35.8774,-44.3014 35.5419,-36.0838 35.5419,-36.0838"/>
<text text-anchor="middle" x="61.5" y="-57.5" font-family="FreeSans" font-size="10.00" fill="#1c2021">has a</text>
</g>
<!-- Node -->
<g id="node3" class="node"><title>Node</title>
<path fill="#fadcad" stroke="#2e3436" stroke-width="1.5" d="M125,-36C125,-36 95,-36 95,-36 89,-36 83,-30 83,-24 83,-24 83,-12 83,-12 83,-6 89,-0 95,-0 95,-0 125,-0 125,-0 131,-0 137,-6 137,-12 137,-12 137,-24 137,-24 137,-30 131,-36 125,-36"/>
<text text-anchor="middle" x="110" y="-15.5" font-family="FreeSans" font-size="10.00" fill="#1c2021">Node</text>
</g>
<!-- A Label&#45;&gt;Node -->
<g id="edge2" class="edge"><title>A Label&#45;&gt;Node</title>
<path fill="none" stroke="#2e3436" stroke-width="2" d="M76.9071,-83.6099C82.9616,-71.7892 91.0505,-55.9967 97.7154,-42.9841"/>
<polygon fill="#2e3436" stroke="#2e3436" stroke-width="2" points="101.25,-36.0838 100.835,-44.2978 99.9852,-39.6495 98.2756,-42.9871 97.8306,-42.7592 97.3856,-42.5312 99.0952,-39.1936 94.8267,-41.2206 101.25,-36.0838 101.25,-36.0838"/>
<text text-anchor="middle" x="105.5" y="-57.5" font-family="FreeSans" font-size="10.00" fill="#1c2021">groups</text>
</g>
</g>
</svg>
