<?xml version="1.0" encoding="UTF-8" standalone="no"?>
<!DOCTYPE svg PUBLIC "-//W3C//DTD SVG 1.1//EN"
 "http://www.w3.org/Graphics/SVG/1.1/DTD/svg11.dtd">
<!-- Generated by graphviz version 2.36.0 (20140111.2315)
 -->
<!-- Title: g Pages: 1 -->
<svg width="110pt" height="44pt"
 viewBox="0.00 0.00 110.00 44.00" xmlns="http://www.w3.org/2000/svg" xmlns:xlink="http://www.w3.org/1999/xlink">
<g id="graph0" class="graph" transform="scale(1 1) rotate(0) translate(4 40)">
<title>g</title>
<polygon fill="white" stroke="none" points="-4,4 -4,-40 106,-40 106,4 -4,4"/>
<!-- Node -->
<g id="node1" class="node"><title>Node</title>
<path fill="#ffffff" stroke="#2e3436" stroke-width="1.5" d="M42,-36C42,-36 12,-36 12,-36 6,-36 0,-30 0,-24 0,-24 0,-12 0,-12 0,-6 6,-0 12,-0 12,-0 42,-0 42,-0 48,-0 54,-6 54,-12 54,-12 54,-24 54,-24 54,-30 48,-36 42,-36"/>
<text text-anchor="middle" x="27" y="-15.5" font-family="FreeSans" font-size="10.00" fill="#1c2021">Node</text>
</g>
<!-- Node&#45;&gt;Node -->
<g id="edge1" class="edge"><title>Node&#45;&gt;Node</title>
<path fill="none" stroke="#2e3436" stroke-width="2" d="M54.0821,-24.427C69.1367,-25.6267 83,-23.4844 83,-18 83,-13.4583 73.4927,-11.2084 61.6747,-11.2506"/>
<polygon fill="#2e3436" stroke="#2e3436" stroke-width="2" points="54.0821,-11.573 61.4321,-7.88275 57.8075,-10.9143 61.5541,-10.7552 61.5753,-11.2547 61.5965,-11.7543 57.8499,-11.9134 61.7185,-14.6267 54.0821,-11.573 54.0821,-11.573"/>
<text text-anchor="middle" x="92.5" y="-15.5" font-family="FreeSans" font-size="10.00" fill="#1c2021">loop</text>
</g>
</g>
</svg>
