<?xml version="1.0" encoding="UTF-8" standalone="no"?>
<!DOCTYPE svg PUBLIC "-//W3C//DTD SVG 1.1//EN"
 "http://www.w3.org/Graphics/SVG/1.1/DTD/svg11.dtd">
<!-- Generated by graphviz version 2.36.0 (20140111.2315)
 -->
<!-- Title: g Pages: 1 -->
<svg width="231pt" height="296pt"
 viewBox="0.00 0.00 231.00 296.00" xmlns="http://www.w3.org/2000/svg" xmlns:xlink="http://www.w3.org/1999/xlink">
<g id="graph0" class="graph" transform="scale(1 1) rotate(0) translate(4 292)">
<title>g</title>
<polygon fill="white" stroke="none" points="-4,4 -4,-292 227,-292 227,4 -4,4"/>
<!-- Indexes -->
<g id="node1" class="node"><title>Indexes</title>
<path fill="#a8e270" stroke="#2e3436" stroke-width="1.5" d="M147,-288C147,-288 117,-288 117,-288 111,-288 105,-282 105,-276 105,-276 105,-264 105,-264 105,-258 111,-252 117,-252 117,-252 147,-252 147,-252 153,-252 159,-258 159,-264 159,-264 159,-276 159,-276 159,-282 153,-288 147,-288"/>
<text text-anchor="middle" x="132" y="-267.5" font-family="FreeSans" font-size="10.00" fill="#1c2021">Indexes</text>
</g>
<!-- Relationships -->
<g id="node2" class="node"><title>Relationships</title>
<path fill="#fadcad" stroke="#2e3436" stroke-width="1.5" d="M62,-204C62,-204 12,-204 12,-204 6,-204 0,-198 0,-192 0,-192 0,-180 0,-180 0,-174 6,-168 12,-168 12,-168 62,-168 62,-168 68,-168 74,-174 74,-180 74,-180 74,-192 74,-192 74,-198 68,-204 62,-204"/>
<text text-anchor="middle" x="37" y="-183.5" font-family="FreeSans" font-size="10.00" fill="#1c2021">Relationships</text>
</g>
<!-- Indexes&#45;&gt;Relationships -->
<g id="edge5" class="edge"><title>Indexes&#45;&gt;Relationships</title>
<path fill="none" stroke="#2e3436" stroke-width="2" d="M104.927,-252.535C96.6268,-247.031 87.6676,-240.605 80,-234 71.587,-226.752 63.1586,-217.96 56.0212,-209.949"/>
<polygon fill="#2e3436" stroke="#2e3436" stroke-width="2" points="50.8364,-204.015 58.3125,-207.442 53.6801,-206.51 56.1473,-209.334 55.7708,-209.663 55.3942,-209.992 52.927,-207.168 53.2291,-211.883 50.8364,-204.015 50.8364,-204.015"/>
<text text-anchor="middle" x="95" y="-225.5" font-family="FreeSans" font-size="10.00" fill="#1c2021">map to</text>
</g>
<!-- Nodes -->
<g id="node3" class="node"><title>Nodes</title>
<path fill="#fadcad" stroke="#2e3436" stroke-width="1.5" d="M147,-120C147,-120 117,-120 117,-120 111,-120 105,-114 105,-108 105,-108 105,-96 105,-96 105,-90 111,-84 117,-84 117,-84 147,-84 147,-84 153,-84 159,-90 159,-96 159,-96 159,-108 159,-108 159,-114 153,-120 147,-120"/>
<text text-anchor="middle" x="132" y="-99.5" font-family="FreeSans" font-size="10.00" fill="#1c2021">Nodes</text>
</g>
<!-- Indexes&#45;&gt;Nodes -->
<g id="edge4" class="edge"><title>Indexes&#45;&gt;Nodes</title>
<path fill="none" stroke="#2e3436" stroke-width="2" d="M132,-251.86C132,-222.412 132,-162.092 132,-127.968"/>
<polygon fill="#2e3436" stroke="#2e3436" stroke-width="2" points="132,-120.295 135.375,-127.795 132.5,-124.045 132.5,-127.795 132,-127.795 131.5,-127.795 131.5,-124.045 128.625,-127.795 132,-120.295 132,-120.295"/>
<text text-anchor="middle" x="147" y="-183.5" font-family="FreeSans" font-size="10.00" fill="#1c2021">map to</text>
</g>
<!-- Properties -->
<g id="node4" class="node"><title>Properties</title>
<path fill="#fadcad" stroke="#2e3436" stroke-width="1.5" d="M194.5,-36C194.5,-36 159.5,-36 159.5,-36 153.5,-36 147.5,-30 147.5,-24 147.5,-24 147.5,-12 147.5,-12 147.5,-6 153.5,-0 159.5,-0 159.5,-0 194.5,-0 194.5,-0 200.5,-0 206.5,-6 206.5,-12 206.5,-12 206.5,-24 206.5,-24 206.5,-30 200.5,-36 194.5,-36"/>
<text text-anchor="middle" x="177" y="-15.5" font-family="FreeSans" font-size="10.00" fill="#1c2021">Properties</text>
</g>
<!-- Indexes&#45;&gt;Properties -->
<g id="edge6" class="edge"><title>Indexes&#45;&gt;Properties</title>
<path fill="none" stroke="#2e3436" stroke-width="2" d="M144.709,-251.788C153.231,-239.229 163.81,-221.422 169,-204 186.629,-144.826 181.439,-127.641 185,-66 185.308,-60.6755 185.598,-59.2997 185,-54 184.62,-50.6341 184.041,-47.12 183.365,-43.6723"/>
<polygon fill="#2e3436" stroke="#2e3436" stroke-width="2" points="181.767,-36.3142 186.657,-42.9273 183.051,-39.8727 183.847,-43.5373 183.358,-43.6434 182.87,-43.7495 182.074,-40.0849 180.06,-44.3595 181.767,-36.3142 181.767,-36.3142"/>
<text text-anchor="middle" x="202.5" y="-141.5" font-family="FreeSans" font-size="10.00" fill="#1c2021">map from</text>
</g>
<!-- Relationships&#45;&gt;Nodes -->
<g id="edge1" class="edge"><title>Relationships&#45;&gt;Nodes</title>
<path fill="none" stroke="#2e3436" stroke-width="2" d="M47.9313,-167.603C54.4453,-158.121 63.3175,-146.601 73,-138 80.5923,-131.256 89.6722,-125.122 98.4066,-119.939"/>
<polygon fill="#2e3436" stroke="#2e3436" stroke-width="2" points="104.988,-116.167 100.159,-122.825 101.983,-118.466 98.7296,-120.33 98.481,-119.897 98.2323,-119.463 101.486,-117.598 96.8027,-116.968 104.988,-116.167 104.988,-116.167"/>
<text text-anchor="middle" x="91.5" y="-141.5" font-family="FreeSans" font-size="10.00" fill="#1c2021">organize</text>
</g>
<!-- Relationships&#45;&gt;Properties -->
<g id="edge3" class="edge"><title>Relationships&#45;&gt;Properties</title>
<path fill="none" stroke="#2e3436" stroke-width="2" d="M38.905,-167.92C42.0734,-146.34 50.1736,-109.007 70,-84 88.2337,-61.0015 117.002,-44.1805 140.118,-33.4189"/>
<polygon fill="#2e3436" stroke="#2e3436" stroke-width="2" points="147.093,-30.2735 141.643,-36.4334 143.88,-32.2709 140.461,-33.8126 140.256,-33.3568 140.05,-32.901 143.469,-31.3593 138.868,-30.2802 147.093,-30.2735 147.093,-30.2735"/>
<text text-anchor="middle" x="80.5" y="-99.5" font-family="FreeSans" font-size="10.00" fill="#1c2021">have</text>
</g>
<!-- Nodes&#45;&gt;Properties -->
<g id="edge2" class="edge"><title>Nodes&#45;&gt;Properties</title>
<path fill="none" stroke="#2e3436" stroke-width="2" d="M141.543,-83.6099C148.03,-71.7892 156.697,-55.9967 163.838,-42.9841"/>
<polygon fill="#2e3436" stroke="#2e3436" stroke-width="2" points="167.625,-36.0838 166.975,-44.2826 166.259,-39.6119 164.455,-42.8994 164.016,-42.6589 163.578,-42.4183 165.382,-39.1308 161.058,-41.0351 167.625,-36.0838 167.625,-36.0838"/>
<text text-anchor="middle" x="167.5" y="-57.5" font-family="FreeSans" font-size="10.00" fill="#1c2021">have</text>
</g>
</g>
</svg>
