<?xml version="1.0" encoding="UTF-8" standalone="no"?>
<!DOCTYPE svg PUBLIC "-//W3C//DTD SVG 1.1//EN"
 "http://www.w3.org/Graphics/SVG/1.1/DTD/svg11.dtd">
<!-- Generated by graphviz version 2.36.0 (20140111.2315)
 -->
<!-- Title: g Pages: 1 -->
<svg width="152pt" height="202pt"
 viewBox="0.00 0.00 152.00 202.00" xmlns="http://www.w3.org/2000/svg" xmlns:xlink="http://www.w3.org/1999/xlink">
<g id="graph0" class="graph" transform="scale(1 1) rotate(0) translate(4 198)">
<title>g</title>
<polygon fill="white" stroke="none" points="-4,4 -4,-198 148,-198 148,4 -4,4"/>
<!-- K -->
<g id="node1" class="node"><title>K</title>
<path fill="#a8e270" stroke="#2e3436" stroke-width="1.5" d="M12,-87.5C12,-87.5 42,-87.5 42,-87.5 48,-87.5 54,-93.5 54,-99.5 54,-99.5 54,-132.5 54,-132.5 54,-138.5 48,-144.5 42,-144.5 42,-144.5 12,-144.5 12,-144.5 6,-144.5 0,-138.5 0,-132.5 0,-132.5 0,-99.5 0,-99.5 0,-93.5 6,-87.5 12,-87.5"/>
<text text-anchor="middle" x="27" y="-132.5" font-family="FreeSans" font-size="10.00" fill="#1c2021">K1</text>
<polyline fill="none" stroke="#2e3436" stroke-width="1.5" points="0,-125.5 54,-125.5 "/>
<text text-anchor="middle" x="27" y="-113.5" font-family="FreeSans" font-size="10.00" fill="#1c2021">K2</text>
<polyline fill="none" stroke="#2e3436" stroke-width="1.5" points="0,-106.5 54,-106.5 "/>
<text text-anchor="middle" x="27" y="-94.5" font-family="FreeSans" font-size="10.00" fill="#1c2021">K3</text>
</g>
<!-- V1 -->
<g id="node2" class="node"><title>V1</title>
<path fill="#fadcad" stroke="#2e3436" stroke-width="1.5" d="M102,-156C102,-156 132,-156 132,-156 138,-156 144,-162 144,-168 144,-168 144,-182 144,-182 144,-188 138,-194 132,-194 132,-194 102,-194 102,-194 96,-194 90,-188 90,-182 90,-182 90,-168 90,-168 90,-162 96,-156 102,-156"/>
<text text-anchor="middle" x="117" y="-182" font-family="FreeSans" font-size="10.00" fill="#1c2021">V1</text>
<polyline fill="none" stroke="#2e3436" stroke-width="1.5" points="90,-175 144,-175 "/>
<text text-anchor="middle" x="117" y="-163" font-family="FreeSans" font-size="10.00" fill="#1c2021">K2</text>
</g>
<!-- K&#45;&gt;V1 -->
<g id="edge1" class="edge"><title>K:1&#45;&gt;V1:v</title>
<path fill="none" stroke="#2e3436" stroke-width="2" d="M54,-135C78.388,-135 66.17,-174.661 82.5504,-183.336"/>
<polygon fill="#2e3436" stroke="#2e3436" stroke-width="2" points="90,-185 81.9447,-186.659 86.2312,-184.671 82.5713,-183.853 82.6803,-183.365 82.7893,-182.877 86.4491,-183.695 83.4159,-180.071 90,-185 90,-185"/>
</g>
<!-- V2 -->
<g id="node3" class="node"><title>V2</title>
<path fill="#fadcad" stroke="#2e3436" stroke-width="1.5" d="M102,-68.5C102,-68.5 132,-68.5 132,-68.5 138,-68.5 144,-74.5 144,-80.5 144,-80.5 144,-113.5 144,-113.5 144,-119.5 138,-125.5 132,-125.5 132,-125.5 102,-125.5 102,-125.5 96,-125.5 90,-119.5 90,-113.5 90,-113.5 90,-80.5 90,-80.5 90,-74.5 96,-68.5 102,-68.5"/>
<text text-anchor="middle" x="117" y="-113.5" font-family="FreeSans" font-size="10.00" fill="#1c2021">V2</text>
<polyline fill="none" stroke="#2e3436" stroke-width="1.5" points="90,-106.5 144,-106.5 "/>
<text text-anchor="middle" x="117" y="-94.5" font-family="FreeSans" font-size="10.00" fill="#1c2021">K1</text>
<polyline fill="none" stroke="#2e3436" stroke-width="1.5" points="90,-87.5 144,-87.5 "/>
<text text-anchor="middle" x="117" y="-75.5" font-family="FreeSans" font-size="10.00" fill="#1c2021">K3</text>
</g>
<!-- K&#45;&gt;V2 -->
<g id="edge2" class="edge"><title>K:2&#45;&gt;V2:v</title>
<path fill="none" stroke="#2e3436" stroke-width="2" d="M54,-116C67.125,-116 72.175,-116 82.3981,-116"/>
<polygon fill="#2e3436" stroke="#2e3436" stroke-width="2" points="90,-116 82.5,-119.375 86.25,-116.5 82.5,-116.5 82.5,-116 82.5,-115.5 86.25,-115.5 82.5,-112.625 90,-116 90,-116"/>
</g>
<!-- V3 -->
<g id="node4" class="node"><title>V3</title>
<path fill="#fadcad" stroke="#2e3436" stroke-width="1.5" d="M102,-0C102,-0 132,-0 132,-0 138,-0 144,-6 144,-12 144,-12 144,-26 144,-26 144,-32 138,-38 132,-38 132,-38 102,-38 102,-38 96,-38 90,-32 90,-26 90,-26 90,-12 90,-12 90,-6 96,-0 102,-0"/>
<text text-anchor="middle" x="117" y="-26" font-family="FreeSans" font-size="10.00" fill="#1c2021">V3</text>
<polyline fill="none" stroke="#2e3436" stroke-width="1.5" points="90,-19 144,-19 "/>
<text text-anchor="middle" x="117" y="-7" font-family="FreeSans" font-size="10.00" fill="#1c2021">K1</text>
</g>
<!-- K&#45;&gt;V3 -->
<g id="edge3" class="edge"><title>K:3&#45;&gt;V3:v</title>
<path fill="none" stroke="#2e3436" stroke-width="2" d="M54,-97C85.2575,-97 60.8794,-40.1853 82.5746,-30.4203"/>
<polygon fill="#2e3436" stroke="#2e3436" stroke-width="2" points="90,-29 83.2676,-33.724 86.4107,-30.1956 82.7275,-30.9002 82.6335,-30.4091 82.5396,-29.918 86.2228,-29.2134 81.9995,-27.0942 90,-29 90,-29"/>
</g>
</g>
</svg>
