<?xml version="1.0" encoding="UTF-8" standalone="no"?>
<!DOCTYPE svg PUBLIC "-//W3C//DTD SVG 1.1//EN"
 "http://www.w3.org/Graphics/SVG/1.1/DTD/svg11.dtd">
<!-- Generated by graphviz version 2.36.0 (20140111.2315)
 -->
<!-- Title: g Pages: 1 -->
<svg width="98pt" height="130pt"
 viewBox="0.00 0.00 98.00 130.00" xmlns="http://www.w3.org/2000/svg" xmlns:xlink="http://www.w3.org/1999/xlink">
<g id="graph0" class="graph" transform="scale(1 1) rotate(0) translate(4 126)">
<title>g</title>
<polygon fill="white" stroke="none" points="-4,4 -4,-126 94,-126 94,4 -4,4"/>
<!-- N0 -->
<g id="node1" class="node"><title>N0</title>
<path fill="#ffffff" stroke="#2e3436" stroke-width="1.5" d="M12,-1C12,-1 78,-1 78,-1 84,-1 90,-7 90,-13 90,-13 90,-25 90,-25 90,-31 84,-37 78,-37 78,-37 12,-37 12,-37 6,-37 0,-31 0,-25 0,-25 0,-13 0,-13 0,-7 6,-1 12,-1"/>
<text text-anchor="start" x="8" y="-17.1" font-family="FreeSans" font-size="8.00" fill="#1c2021">Node[0]name = &#39;you&#39;</text>
</g>
<!-- N1 -->
<g id="node2" class="node"><title>N1</title>
<path fill="#ffffff" stroke="#2e3436" stroke-width="1.5" d="M17,-85C17,-85 73,-85 73,-85 79,-85 85,-91 85,-97 85,-97 85,-109 85,-109 85,-115 79,-121 73,-121 73,-121 17,-121 17,-121 11,-121 5,-115 5,-109 5,-109 5,-97 5,-97 5,-91 11,-85 17,-85"/>
<text text-anchor="start" x="13" y="-101.1" font-family="FreeSans" font-size="8.00" fill="#1c2021">Node[1]name = &#39;I&#39;</text>
</g>
<!-- N1&#45;&gt;N0 -->
<g id="edge1" class="edge"><title>N1&#45;&gt;N0</title>
<path fill="none" stroke="#2e3436" stroke-width="2" d="M45,-84.6099C45,-73.0081 45,-57.5802 45,-44.7099"/>
<polygon fill="#2e3436" stroke="#2e3436" stroke-width="2" points="45,-37.0838 48.3751,-44.5838 45.5,-40.8338 45.5001,-44.5838 45.0001,-44.5838 44.5001,-44.5838 44.5,-40.8338 41.6251,-44.5839 45,-37.0838 45,-37.0838"/>
<text text-anchor="middle" x="55" y="-59.1" font-family="FreeSans" font-size="8.00" fill="#2e3436">know</text>
</g>
</g>
</svg>
