<?xml version="1.0" encoding="UTF-8" standalone="no"?>
<!DOCTYPE svg PUBLIC "-//W3C//DTD SVG 1.1//EN"
 "http://www.w3.org/Graphics/SVG/1.1/DTD/svg11.dtd">
<!-- Generated by graphviz version 2.36.0 (20140111.2315)
 -->
<!-- Title: g Pages: 1 -->
<svg width="504pt" height="127pt"
 viewBox="0.00 0.00 504.00 126.83" xmlns="http://www.w3.org/2000/svg" xmlns:xlink="http://www.w3.org/1999/xlink">
<g id="graph0" class="graph" transform="scale(0.556291 0.556291) rotate(0) translate(4 224)">
<title>g</title>
<polygon fill="white" stroke="none" points="-4,4 -4,-224 902,-224 902,4 -4,4"/>
<!-- N0 -->
<g id="node1" class="node"><title>N0</title>
<path fill="#ffffff" stroke="#2e3436" stroke-width="1.5" d="M11.5,-99C11.5,-99 80.5,-99 80.5,-99 86.5,-99 92.5,-105 92.5,-111 92.5,-111 92.5,-123 92.5,-123 92.5,-129 86.5,-135 80.5,-135 80.5,-135 11.5,-135 11.5,-135 5.5,-135 -0.5,-129 -0.5,-123 -0.5,-123 -0.5,-111 -0.5,-111 -0.5,-105 5.5,-99 11.5,-99"/>
<text text-anchor="middle" x="46" y="-124.1" font-family="FreeSans" font-size="8.00" fill="#1c2021">Person</text>
<polyline fill="none" stroke="#2e3436" stroke-width="1.5" points="-0.5,-117 92.5,-117 "/>
<text text-anchor="start" x="7.5" y="-106.1" font-family="FreeSans" font-size="8.00" fill="#1c2021">name = &#39;Oliver Stone&#39;</text>
</g>
<!-- N4 -->
<g id="node2" class="node"><title>N4</title>
<path fill="#ffffff" stroke="#2e3436" stroke-width="1.5" d="M170,-0.5C170,-0.5 232,-0.5 232,-0.5 238,-0.5 244,-6.5 244,-12.5 244,-12.5 244,-31.5 244,-31.5 244,-37.5 238,-43.5 232,-43.5 232,-43.5 170,-43.5 170,-43.5 164,-43.5 158,-37.5 158,-31.5 158,-31.5 158,-12.5 158,-12.5 158,-6.5 164,-0.5 170,-0.5"/>
<text text-anchor="middle" x="201" y="-33.1" font-family="FreeSans" font-size="8.00" fill="#1c2021">Movie</text>
<polyline fill="none" stroke="#2e3436" stroke-width="1.5" points="158,-26.5 244,-26.5 "/>
<text text-anchor="start" x="166" y="-16.1" font-family="FreeSans" font-size="8.00" fill="#1c2021">name = &#39;WallStreet&#39;</text>
<text text-anchor="start" x="166" y="-7.1" font-family="FreeSans" font-size="8.00" fill="#1c2021">title = &#39;Wall Street&#39;</text>
</g>
<!-- N0&#45;&gt;N4 -->
<g id="edge1" class="edge"><title>N0&#45;&gt;N4</title>
<path fill="none" stroke="#2e3436" stroke-width="2" d="M54.9172,-98.9672C61.9242,-87.09 72.7087,-71.693 86,-62 104.97,-48.1655 129.199,-38.987 150.522,-33.0318"/>
<polygon fill="#2e3436" stroke="#2e3436" stroke-width="2" points="157.929,-31.0574 151.551,-36.2502 154.434,-32.5064 150.811,-33.4722 150.682,-32.9891 150.553,-32.506 154.177,-31.5401 149.813,-29.728 157.929,-31.0574 157.929,-31.0574"/>
<text text-anchor="middle" x="107.5" y="-69.1" font-family="FreeSans" font-size="8.00" fill="#2e3436">DIRECTED</text>
</g>
<!-- N1 -->
<g id="node3" class="node"><title>N1</title>
<path fill="#ffffff" stroke="#2e3436" stroke-width="1.5" d="M399,-183C399,-183 475,-183 475,-183 481,-183 487,-189 487,-195 487,-195 487,-207 487,-207 487,-213 481,-219 475,-219 475,-219 399,-219 399,-219 393,-219 387,-213 387,-207 387,-207 387,-195 387,-195 387,-189 393,-183 399,-183"/>
<text text-anchor="middle" x="437" y="-208.1" font-family="FreeSans" font-size="8.00" fill="#1c2021">Person</text>
<polyline fill="none" stroke="#2e3436" stroke-width="1.5" points="387,-201 487,-201 "/>
<text text-anchor="start" x="395" y="-190.1" font-family="FreeSans" font-size="8.00" fill="#1c2021">name = &#39;Charlie Sheen&#39;</text>
</g>
<!-- N1&#45;&gt;N4 -->
<g id="edge2" class="edge"><title>N1&#45;&gt;N4</title>
<path fill="none" stroke="#4e9a06" stroke-width="2" d="M386.778,-195.508C315.911,-188.012 192.145,-170.274 165,-136 145.168,-110.96 162.593,-74.7708 179.403,-50.1407"/>
<polygon fill="#4e9a06" stroke="#4e9a06" stroke-width="2" points="183.867,-43.8308 182.29,-51.9027 182.109,-47.1809 179.943,-50.2421 179.535,-49.9533 179.127,-49.6645 181.293,-46.6033 176.78,-48.0039 183.867,-43.8308 183.867,-43.8308"/>
<text text-anchor="middle" x="185.5" y="-115.1" font-family="FreeSans" font-size="8.00" fill="#4e9a06">ACTED_IN</text>
</g>
<!-- N2 -->
<g id="node4" class="node"><title>N2</title>
<path fill="#ffffff" stroke="#2e3436" stroke-width="1.5" d="M503.5,-99C503.5,-99 576.5,-99 576.5,-99 582.5,-99 588.5,-105 588.5,-111 588.5,-111 588.5,-123 588.5,-123 588.5,-129 582.5,-135 576.5,-135 576.5,-135 503.5,-135 503.5,-135 497.5,-135 491.5,-129 491.5,-123 491.5,-123 491.5,-111 491.5,-111 491.5,-105 497.5,-99 503.5,-99"/>
<text text-anchor="middle" x="540" y="-124.1" font-family="FreeSans" font-size="8.00" fill="#1c2021">Person</text>
<polyline fill="none" stroke="#2e3436" stroke-width="1.5" points="491.5,-117 588.5,-117 "/>
<text text-anchor="start" x="499.5" y="-106.1" font-family="FreeSans" font-size="8.00" fill="#1c2021">name = &#39;Martin Sheen&#39;</text>
</g>
<!-- N1&#45;&gt;N2 -->
<g id="edge3" class="edge"><title>N1&#45;&gt;N2</title>
<path fill="none" stroke="#a40000" stroke-width="2" d="M458.844,-182.61C474.516,-170.133 495.748,-153.23 512.564,-139.842"/>
<polygon fill="#a40000" stroke="#a40000" stroke-width="2" points="518.541,-135.084 514.775,-142.396 515.919,-137.811 512.985,-140.146 512.673,-139.755 512.362,-139.364 515.296,-137.028 510.571,-137.115 518.541,-135.084 518.541,-135.084"/>
<text text-anchor="middle" x="512" y="-157.1" font-family="FreeSans" font-size="8.00" fill="#a40000">FATHER</text>
</g>
<!-- N7 -->
<g id="node5" class="node"><title>N7</title>
<path fill="#ffffff" stroke="#2e3436" stroke-width="1.5" d="M788,-4C788,-4 820,-4 820,-4 826,-4 832,-10 832,-16 832,-16 832,-28 832,-28 832,-34 826,-40 820,-40 820,-40 788,-40 788,-40 782,-40 776,-34 776,-28 776,-28 776,-16 776,-16 776,-10 782,-4 788,-4"/>
<text text-anchor="middle" x="804" y="-29.1" font-family="FreeSans" font-size="8.00" fill="#1c2021">Unblocked</text>
<polyline fill="none" stroke="#2e3436" stroke-width="1.5" points="776,-22 832,-22 "/>
<text text-anchor="middle" x="804" y="-11.1" font-family="FreeSans" font-size="8.00" fill="#1c2021"> </text>
</g>
<!-- N1&#45;&gt;N7 -->
<g id="edge4" class="edge"><title>N1&#45;&gt;N7</title>
<path fill="none" stroke="#204a87" stroke-width="2" d="M487.227,-199.594C583.478,-197.638 788.271,-187.385 832,-136 853.524,-110.708 835.881,-71.3297 820.484,-46.3677"/>
<polygon fill="#204a87" stroke="#204a87" stroke-width="2" points="816.439,-40.0415 823.323,-44.5425 818.881,-42.9317 820.9,-46.0912 820.479,-46.3605 820.058,-46.6298 818.038,-43.4703 817.636,-48.1785 816.439,-40.0415 816.439,-40.0415"/>
<text text-anchor="middle" x="870.5" y="-119.6" font-family="FreeSans" font-size="8.00" fill="#204a87">X</text>
<text text-anchor="start" x="843" y="-110.6" font-family="FreeSans" font-size="8.00" fill="#204a87">blocked = false</text>
</g>
<!-- N8 -->
<g id="node6" class="node"><title>N8</title>
<path fill="#ffffff" stroke="#2e3436" stroke-width="1.5" d="M409,-4C409,-4 439,-4 439,-4 445,-4 451,-10 451,-16 451,-16 451,-28 451,-28 451,-34 445,-40 439,-40 439,-40 409,-40 409,-40 403,-40 397,-34 397,-28 397,-28 397,-16 397,-16 397,-10 403,-4 409,-4"/>
<text text-anchor="middle" x="424" y="-29.1" font-family="FreeSans" font-size="8.00" fill="#1c2021">Blocked</text>
<polyline fill="none" stroke="#2e3436" stroke-width="1.5" points="397,-22 451,-22 "/>
<text text-anchor="middle" x="424" y="-11.1" font-family="FreeSans" font-size="8.00" fill="#1c2021"> </text>
</g>
<!-- N1&#45;&gt;N8 -->
<g id="edge5" class="edge"><title>N1&#45;&gt;N8</title>
<path fill="none" stroke="#204a87" stroke-width="2" d="M421.439,-182.915C402.621,-160.981 371.981,-120.856 360,-80 357.749,-72.3233 356.082,-68.9751 360,-62 366.605,-50.2406 378.354,-41.6101 389.998,-35.5026"/>
<polygon fill="#204a87" stroke="#204a87" stroke-width="2" points="396.802,-32.1936 391.534,-38.5088 393.649,-34.2833 390.276,-35.9233 390.058,-35.4737 389.839,-35.024 393.211,-33.384 388.582,-32.4386 396.802,-32.1936 396.802,-32.1936"/>
<text text-anchor="middle" x="412" y="-119.6" font-family="FreeSans" font-size="8.00" fill="#204a87">X</text>
<text text-anchor="start" x="386" y="-110.6" font-family="FreeSans" font-size="8.00" fill="#204a87">blocked = true</text>
</g>
<!-- N2&#45;&gt;N4 -->
<g id="edge7" class="edge"><title>N2&#45;&gt;N4</title>
<path fill="none" stroke="#4e9a06" stroke-width="2" d="M491.2,-105.268C461.291,-98.4869 422.293,-89.2775 388,-80 341.467,-67.4112 289.007,-51.2458 251.52,-39.3475"/>
<polygon fill="#4e9a06" stroke="#4e9a06" stroke-width="2" points="244.228,-37.027 252.399,-36.0854 247.953,-37.6878 251.527,-38.825 251.375,-39.3015 251.224,-39.7779 247.65,-38.6407 250.352,-42.5176 244.228,-37.027 244.228,-37.027"/>
<text text-anchor="middle" x="408.5" y="-69.1" font-family="FreeSans" font-size="8.00" fill="#4e9a06">ACTED_IN</text>
</g>
<!-- N2&#45;&gt;N7 -->
<g id="edge8" class="edge"><title>N2&#45;&gt;N7</title>
<path fill="none" stroke="#204a87" stroke-width="2" d="M588.69,-102.653C610.152,-96.3844 635.545,-88.439 658,-80 676.249,-73.1419 679.952,-69.3703 698,-62 721.384,-52.4506 748.073,-42.6371 768.821,-35.2429"/>
<polygon fill="#204a87" stroke="#204a87" stroke-width="2" points="775.896,-32.7329 769.956,-38.4212 772.529,-34.4579 768.995,-35.7116 768.828,-35.2404 768.661,-34.7692 772.195,-33.5154 767.7,-32.0596 775.896,-32.7329 775.896,-32.7329"/>
<text text-anchor="middle" x="725.5" y="-73.6" font-family="FreeSans" font-size="8.00" fill="#204a87">X</text>
<text text-anchor="start" x="698" y="-64.6" font-family="FreeSans" font-size="8.00" fill="#204a87">blocked = false</text>
</g>
<!-- N2&#45;&gt;N8 -->
<g id="edge9" class="edge"><title>N2&#45;&gt;N8</title>
<path fill="none" stroke="#204a87" stroke-width="2" d="M532.748,-98.8591C527.124,-87.237 518.373,-72.193 507,-62 493.12,-49.5597 474.577,-40.3415 458.539,-33.9999"/>
<polygon fill="#204a87" stroke="#204a87" stroke-width="2" points="451.372,-31.2875 459.581,-30.7858 455.056,-32.1472 458.563,-33.4746 458.386,-33.9423 458.209,-34.4099 454.702,-33.0825 457.192,-37.0988 451.372,-31.2875 451.372,-31.2875"/>
<text text-anchor="middle" x="549.5" y="-73.6" font-family="FreeSans" font-size="8.00" fill="#204a87">X</text>
<text text-anchor="start" x="522" y="-64.6" font-family="FreeSans" font-size="8.00" fill="#204a87">blocked = false</text>
</g>
<!-- N3 -->
<g id="node7" class="node"><title>N3</title>
<path fill="#ffffff" stroke="#2e3436" stroke-width="1.5" d="M575.5,-0.5C575.5,-0.5 682.5,-0.5 682.5,-0.5 688.5,-0.5 694.5,-6.5 694.5,-12.5 694.5,-12.5 694.5,-31.5 694.5,-31.5 694.5,-37.5 688.5,-43.5 682.5,-43.5 682.5,-43.5 575.5,-43.5 575.5,-43.5 569.5,-43.5 563.5,-37.5 563.5,-31.5 563.5,-31.5 563.5,-12.5 563.5,-12.5 563.5,-6.5 569.5,-0.5 575.5,-0.5"/>
<text text-anchor="middle" x="629" y="-33.1" font-family="FreeSans" font-size="8.00" fill="#1c2021">Movie</text>
<polyline fill="none" stroke="#2e3436" stroke-width="1.5" points="563.5,-26.5 694.5,-26.5 "/>
<text text-anchor="start" x="571.5" y="-16.1" font-family="FreeSans" font-size="8.00" fill="#1c2021">name = &#39;TheAmericanPresident&#39;</text>
<text text-anchor="start" x="571.5" y="-7.1" font-family="FreeSans" font-size="8.00" fill="#1c2021">title = &#39;The American President&#39;</text>
</g>
<!-- N2&#45;&gt;N3 -->
<g id="edge6" class="edge"><title>N2&#45;&gt;N3</title>
<path fill="none" stroke="#4e9a06" stroke-width="2" d="M572.207,-98.9706C580.565,-93.6121 589.137,-87.1901 596,-80 604.211,-71.3977 611.197,-60.3775 616.598,-50.3237"/>
<polygon fill="#4e9a06" stroke="#4e9a06" stroke-width="2" points="620.079,-43.5594 619.648,-51.7725 618.808,-47.1225 617.092,-50.4568 616.647,-50.228 616.203,-49.9992 617.919,-46.6649 613.646,-48.6834 620.079,-43.5594 620.079,-43.5594"/>
<text text-anchor="middle" x="630.5" y="-69.1" font-family="FreeSans" font-size="8.00" fill="#4e9a06">ACTED_IN</text>
</g>
<!-- N5 -->
<g id="node8" class="node"><title>N5</title>
<path fill="#ffffff" stroke="#2e3436" stroke-width="1.5" d="M740,-99C740,-99 806,-99 806,-99 812,-99 818,-105 818,-111 818,-111 818,-123 818,-123 818,-129 812,-135 806,-135 806,-135 740,-135 740,-135 734,-135 728,-129 728,-123 728,-123 728,-111 728,-111 728,-105 734,-99 740,-99"/>
<text text-anchor="middle" x="773" y="-124.1" font-family="FreeSans" font-size="8.00" fill="#1c2021">Person</text>
<polyline fill="none" stroke="#2e3436" stroke-width="1.5" points="728,-117 818,-117 "/>
<text text-anchor="start" x="736" y="-106.1" font-family="FreeSans" font-size="8.00" fill="#1c2021">name = &#39;Rob Reiner&#39;</text>
</g>
<!-- N5&#45;&gt;N3 -->
<g id="edge10" class="edge"><title>N5&#45;&gt;N3</title>
<path fill="none" stroke="#2e3436" stroke-width="2" d="M773.133,-98.8198C772.306,-87.0275 769.289,-71.796 760,-62 744.81,-45.981 723.36,-36.4543 702.206,-30.8168"/>
<polygon fill="#2e3436" stroke="#2e3436" stroke-width="2" points="694.747,-28.9806 702.836,-27.4962 698.507,-29.3915 702.149,-30.2878 702.029,-30.7734 701.91,-31.2589 698.268,-30.3625 701.222,-34.0505 694.747,-28.9806 694.747,-28.9806"/>
<text text-anchor="middle" x="791.5" y="-69.1" font-family="FreeSans" font-size="8.00" fill="#2e3436">DIRECTED</text>
</g>
<!-- N6 -->
<g id="node9" class="node"><title>N6</title>
<path fill="#ffffff" stroke="#2e3436" stroke-width="1.5" d="M233,-99C233,-99 317,-99 317,-99 323,-99 329,-105 329,-111 329,-111 329,-123 329,-123 329,-129 323,-135 317,-135 317,-135 233,-135 233,-135 227,-135 221,-129 221,-123 221,-123 221,-111 221,-111 221,-105 227,-99 233,-99"/>
<text text-anchor="middle" x="275" y="-124.1" font-family="FreeSans" font-size="8.00" fill="#1c2021">Person</text>
<polyline fill="none" stroke="#2e3436" stroke-width="1.5" points="221,-117 329,-117 "/>
<text text-anchor="start" x="229" y="-106.1" font-family="FreeSans" font-size="8.00" fill="#1c2021">name = &#39;Michael Douglas&#39;</text>
</g>
<!-- N6&#45;&gt;N4 -->
<g id="edge12" class="edge"><title>N6&#45;&gt;N4</title>
<path fill="none" stroke="#4e9a06" stroke-width="2" d="M261.427,-98.9424C250.45,-85.147 234.8,-65.4785 222.177,-49.6145"/>
<polygon fill="#4e9a06" stroke="#4e9a06" stroke-width="2" points="217.328,-43.5208 224.639,-47.2882 220.055,-46.1439 222.389,-49.0783 221.998,-49.3896 221.607,-49.7009 219.272,-46.7665 219.357,-51.491 217.328,-43.5208 217.328,-43.5208"/>
<text text-anchor="middle" x="265.5" y="-69.1" font-family="FreeSans" font-size="8.00" fill="#4e9a06">ACTED_IN</text>
</g>
<!-- N6&#45;&gt;N3 -->
<g id="edge11" class="edge"><title>N6&#45;&gt;N3</title>
<path fill="none" stroke="#4e9a06" stroke-width="2" d="M329.363,-103.028C336.634,-101.321 343.996,-99.6077 351,-98 386.944,-89.7502 398.081,-94.4743 432,-80 445.265,-74.3394 445.755,-67.7059 459,-62 489.508,-48.8576 525.088,-39.8172 555.789,-33.7765"/>
<polygon fill="#4e9a06" stroke="#4e9a06" stroke-width="2" points="563.483,-32.3047 556.751,-37.0287 559.894,-33.5004 556.211,-34.2049 556.117,-33.7138 556.023,-33.2227 559.706,-32.5182 555.483,-30.3989 563.483,-32.3047 563.483,-32.3047"/>
<text text-anchor="middle" x="479.5" y="-69.1" font-family="FreeSans" font-size="8.00" fill="#4e9a06">ACTED_IN</text>
</g>
</g>
</svg>
