<?xml version="1.0" encoding="UTF-8" standalone="no"?>
<!DOCTYPE svg PUBLIC "-//W3C//DTD SVG 1.1//EN"
 "http://www.w3.org/Graphics/SVG/1.1/DTD/svg11.dtd">
<!-- Generated by graphviz version 2.36.0 (20140111.2315)
 -->
<!-- Title: g Pages: 1 -->
<svg width="112pt" height="138pt"
 viewBox="0.00 0.00 112.00 138.00" xmlns="http://www.w3.org/2000/svg" xmlns:xlink="http://www.w3.org/1999/xlink">
<g id="graph0" class="graph" transform="scale(1 1) rotate(0) translate(4 134)">
<title>g</title>
<polygon fill="white" stroke="none" points="-4,4 -4,-134 108,-134 108,4 -4,4"/>
<!-- N8 -->
<g id="node1" class="node"><title>N8</title>
<path fill="#ffffff" stroke="#2e3436" stroke-width="1.5" d="M16,-1C16,-1 88,-1 88,-1 94,-1 100,-7 100,-13 100,-13 100,-25 100,-25 100,-31 94,-37 88,-37 88,-37 16,-37 16,-37 10,-37 4,-31 4,-25 4,-25 4,-13 4,-13 4,-7 10,-1 16,-1"/>
<text text-anchor="start" x="12" y="-17.1" font-family="FreeSans" font-size="8.00" fill="#1c2021">Node[8]name = &#39;Juliet&#39;</text>
</g>
<!-- N9 -->
<g id="node2" class="node"><title>N9</title>
<path fill="#ffffff" stroke="#2e3436" stroke-width="1.5" d="M12,-93C12,-93 92,-93 92,-93 98,-93 104,-99 104,-105 104,-105 104,-117 104,-117 104,-123 98,-129 92,-129 92,-129 12,-129 12,-129 6,-129 0,-123 0,-117 0,-117 0,-105 0,-105 0,-99 6,-93 12,-93"/>
<text text-anchor="start" x="8" y="-109.1" font-family="FreeSans" font-size="8.00" fill="#1c2021">Node[9]name = &#39;Romeo&#39;</text>
</g>
<!-- N9&#45;&gt;N8 -->
<g id="edge1" class="edge"><title>N9&#45;&gt;N8</title>
<path fill="none" stroke="#2e3436" stroke-width="2" d="M52,-92.6471C52,-79.0758 52,-60.027 52,-44.84"/>
<polygon fill="#2e3436" stroke="#2e3436" stroke-width="2" points="52,-37.2996 55.3751,-44.7996 52.5,-41.0496 52.5001,-44.7996 52.0001,-44.7996 51.5001,-44.7996 51.5,-41.0496 48.6251,-44.7997 52,-37.2996 52,-37.2996"/>
<text text-anchor="middle" x="73.5" y="-67.6" font-family="FreeSans" font-size="8.00" fill="#2e3436">LOVES</text>
<text text-anchor="start" x="52" y="-58.6" font-family="FreeSans" font-size="8.00" fill="#2e3436">cost = &#39;high&#39;</text>
</g>
</g>
</svg>
