<?xml version="1.0" encoding="UTF-8" standalone="no"?>
<!DOCTYPE svg PUBLIC "-//W3C//DTD SVG 1.1//EN"
 "http://www.w3.org/Graphics/SVG/1.1/DTD/svg11.dtd">
<!-- Generated by graphviz version 2.26.3 (20100126.1600)
 -->
<!-- Title: g Pages: 1 -->
<svg width="339pt" height="216pt"
 viewBox="0.00 0.00 339.00 216.00" xmlns="http://www.w3.org/2000/svg" xmlns:xlink="http://www.w3.org/1999/xlink">
<g id="graph1" class="graph" transform="scale(1 1) rotate(0) translate(4 212)">
<title>g</title>
<polygon fill="white" stroke="white" points="-4,5 -4,-212 336,-212 336,5 -4,5"/>
<!-- Un Chemin -->
<g id="node1" class="node"><title>Un Chemin</title>
<polygon fill="#a8e270" stroke="#a8e270" stroke-width="1.5" points="153,-208 107,-208 95,-196 95,-184 107,-172 153,-172 165,-184 165,-196 153,-208"/>
<path fill="#a8e270" stroke="#a8e270" stroke-width="1.5" d="M107,-208C101,-208 95,-202 95,-196"/>
<path fill="#a8e270" stroke="#a8e270" stroke-width="1.5" d="M95,-184C95,-178 101,-172 107,-172"/>
<path fill="#a8e270" stroke="#a8e270" stroke-width="1.5" d="M153,-172C159,-172 165,-178 165,-184"/>
<path fill="#a8e270" stroke="#a8e270" stroke-width="1.5" d="M165,-196C165,-202 159,-208 153,-208"/>
<polyline fill="none" stroke="#2e3436" stroke-width="1.5" points="153,-208 107,-208 "/>
<path fill="none" stroke="#2e3436" stroke-width="1.5" d="M107,-208C101,-208 95,-202 95,-196"/>
<polyline fill="none" stroke="#2e3436" stroke-width="1.5" points="95,-196 95,-184 "/>
<path fill="none" stroke="#2e3436" stroke-width="1.5" d="M95,-184C95,-178 101,-172 107,-172"/>
<polyline fill="none" stroke="#2e3436" stroke-width="1.5" points="107,-172 153,-172 "/>
<path fill="none" stroke="#2e3436" stroke-width="1.5" d="M153,-172C159,-172 165,-178 165,-184"/>
<polyline fill="none" stroke="#2e3436" stroke-width="1.5" points="165,-184 165,-196 "/>
<path fill="none" stroke="#2e3436" stroke-width="1.5" d="M165,-196C165,-202 159,-208 153,-208"/>
<text text-anchor="middle" x="130" y="-187.5" font-family="FreeSans" font-size="10.00" fill="#1c2021">Un Chemin</text>
</g>
<!-- Noeud de départ -->
<g id="node3" class="node"><title>Noeud de départ</title>
<polygon fill="#fadcad" stroke="#fadcad" stroke-width="1.5" points="86,-122 12,-122 2.84217e-14,-110 1.42109e-14,-98 12,-86 86,-86 98,-98 98,-110 86,-122"/>
<path fill="#fadcad" stroke="#fadcad" stroke-width="1.5" d="M12,-122C6,-122 3.55271e-14,-116 2.84217e-14,-110"/>
<path fill="#fadcad" stroke="#fadcad" stroke-width="1.5" d="M1.42109e-14,-98C7.10543e-15,-92 6,-86 12,-86"/>
<path fill="#fadcad" stroke="#fadcad" stroke-width="1.5" d="M86,-86C92,-86 98,-92 98,-98"/>
<path fill="#fadcad" stroke="#fadcad" stroke-width="1.5" d="M98,-110C98,-116 92,-122 86,-122"/>
<polyline fill="none" stroke="#2e3436" stroke-width="1.5" points="86,-122 12,-122 "/>
<path fill="none" stroke="#2e3436" stroke-width="1.5" d="M12,-122C6,-122 3.55271e-14,-116 2.84217e-14,-110"/>
<polyline fill="none" stroke="#2e3436" stroke-width="1.5" points="2.84217e-14,-110 1.42109e-14,-98 "/>
<path fill="none" stroke="#2e3436" stroke-width="1.5" d="M1.42109e-14,-98C7.10543e-15,-92 6,-86 12,-86"/>
<polyline fill="none" stroke="#2e3436" stroke-width="1.5" points="12,-86 86,-86 "/>
<path fill="none" stroke="#2e3436" stroke-width="1.5" d="M86,-86C92,-86 98,-92 98,-98"/>
<polyline fill="none" stroke="#2e3436" stroke-width="1.5" points="98,-98 98,-110 "/>
<path fill="none" stroke="#2e3436" stroke-width="1.5" d="M98,-110C98,-116 92,-122 86,-122"/>
<text text-anchor="middle" x="49" y="-101.5" font-family="FreeSans" font-size="10.00" fill="#1c2021">Noeud de départ</text>
</g>
<!-- Un Chemin&#45;&gt;Noeud de départ -->
<g id="edge2" class="edge"><title>Un Chemin&#45;&gt;Noeud de départ</title>
<path fill="none" stroke="#2e3436" stroke-width="2" d="M112.822,-171.762C100.794,-158.991 84.6036,-141.801 71.5395,-127.931"/>
<polygon fill="#2e3436" stroke="#2e3436" points="66.1533,-122.212 73.7523,-125.358 69.0884,-124.599 71.6595,-127.329 71.2955,-127.672 70.9315,-128.015 68.3604,-125.285 68.8387,-129.986 66.1533,-122.212 66.1533,-122.212"/>
<text text-anchor="middle" x="106" y="-144.5" font-family="FreeSans" font-size="10.00" fill="#1c2021">a un</text>
</g>
<!-- Relations -->
<g id="node5" class="node"><title>Relations</title>
<polygon fill="#fadcad" stroke="#fadcad" stroke-width="1.5" points="173,-122 139,-122 127,-110 127,-98 139,-86 173,-86 185,-98 185,-110 173,-122"/>
<path fill="#fadcad" stroke="#fadcad" stroke-width="1.5" d="M139,-122C133,-122 127,-116 127,-110"/>
<path fill="#fadcad" stroke="#fadcad" stroke-width="1.5" d="M127,-98C127,-92 133,-86 139,-86"/>
<path fill="#fadcad" stroke="#fadcad" stroke-width="1.5" d="M173,-86C179,-86 185,-92 185,-98"/>
<path fill="#fadcad" stroke="#fadcad" stroke-width="1.5" d="M185,-110C185,-116 179,-122 173,-122"/>
<polyline fill="none" stroke="#2e3436" stroke-width="1.5" points="173,-122 139,-122 "/>
<path fill="none" stroke="#2e3436" stroke-width="1.5" d="M139,-122C133,-122 127,-116 127,-110"/>
<polyline fill="none" stroke="#2e3436" stroke-width="1.5" points="127,-110 127,-98 "/>
<path fill="none" stroke="#2e3436" stroke-width="1.5" d="M127,-98C127,-92 133,-86 139,-86"/>
<polyline fill="none" stroke="#2e3436" stroke-width="1.5" points="139,-86 173,-86 "/>
<path fill="none" stroke="#2e3436" stroke-width="1.5" d="M173,-86C179,-86 185,-92 185,-98"/>
<polyline fill="none" stroke="#2e3436" stroke-width="1.5" points="185,-98 185,-110 "/>
<path fill="none" stroke="#2e3436" stroke-width="1.5" d="M185,-110C185,-116 179,-122 173,-122"/>
<text text-anchor="middle" x="156" y="-101.5" font-family="FreeSans" font-size="10.00" fill="#1c2021">Relations</text>
</g>
<!-- Un Chemin&#45;&gt;Relations -->
<g id="edge4" class="edge"><title>Un Chemin&#45;&gt;Relations</title>
<path fill="none" stroke="#2e3436" stroke-width="2" d="M126.165,-171.956C124.864,-162.239 124.504,-150.189 128,-140 129.381,-135.974 131.417,-132.052 133.771,-128.368"/>
<polygon fill="#2e3436" stroke="#2e3436" points="138.28,-122.021 136.688,-130.089 136.516,-125.367 134.344,-128.424 133.936,-128.135 133.529,-127.845 135.701,-124.788 131.185,-126.18 138.28,-122.021 138.28,-122.021"/>
<text text-anchor="middle" x="188.5" y="-144.5" font-family="FreeSans" font-size="10.00" fill="#1c2021">contient une ou plusieurs</text>
</g>
<!-- Noeud d&#39;arrivée -->
<g id="node9" class="node"><title>Noeud d&#39;arrivée</title>
<polygon fill="#fadcad" stroke="#fadcad" stroke-width="1.5" points="319,-122 251,-122 239,-110 239,-98 251,-86 319,-86 331,-98 331,-110 319,-122"/>
<path fill="#fadcad" stroke="#fadcad" stroke-width="1.5" d="M251,-122C245,-122 239,-116 239,-110"/>
<path fill="#fadcad" stroke="#fadcad" stroke-width="1.5" d="M239,-98C239,-92 245,-86 251,-86"/>
<path fill="#fadcad" stroke="#fadcad" stroke-width="1.5" d="M319,-86C325,-86 331,-92 331,-98"/>
<path fill="#fadcad" stroke="#fadcad" stroke-width="1.5" d="M331,-110C331,-116 325,-122 319,-122"/>
<polyline fill="none" stroke="#2e3436" stroke-width="1.5" points="319,-122 251,-122 "/>
<path fill="none" stroke="#2e3436" stroke-width="1.5" d="M251,-122C245,-122 239,-116 239,-110"/>
<polyline fill="none" stroke="#2e3436" stroke-width="1.5" points="239,-110 239,-98 "/>
<path fill="none" stroke="#2e3436" stroke-width="1.5" d="M239,-98C239,-92 245,-86 251,-86"/>
<polyline fill="none" stroke="#2e3436" stroke-width="1.5" points="251,-86 319,-86 "/>
<path fill="none" stroke="#2e3436" stroke-width="1.5" d="M319,-86C325,-86 331,-92 331,-98"/>
<polyline fill="none" stroke="#2e3436" stroke-width="1.5" points="331,-98 331,-110 "/>
<path fill="none" stroke="#2e3436" stroke-width="1.5" d="M331,-110C331,-116 325,-122 319,-122"/>
<text text-anchor="middle" x="285" y="-101.5" font-family="FreeSans" font-size="10.00" fill="#1c2021">Noeud d&#39;arrivée</text>
</g>
<!-- Un Chemin&#45;&gt;Noeud d&#39;arrivée -->
<g id="edge8" class="edge"><title>Un Chemin&#45;&gt;Noeud d&#39;arrivée</title>
<path fill="none" stroke="#2e3436" stroke-width="2" d="M165.217,-186.176C191.279,-181.882 226.529,-172.853 252,-154 260.794,-147.491 267.932,-137.89 273.291,-128.836"/>
<polygon fill="#2e3436" stroke="#2e3436" points="277.04,-122.08 276.352,-130.275 275.658,-125.601 273.838,-128.88 273.401,-128.638 272.964,-128.395 274.784,-125.116 270.45,-127 277.04,-122.08 277.04,-122.08"/>
<text text-anchor="middle" x="276" y="-144.5" font-family="FreeSans" font-size="10.00" fill="#1c2021">a un</text>
</g>
<!-- Noeud -->
<g id="node7" class="node"><title>Noeud</title>
<polygon fill="#fadcad" stroke="#fadcad" stroke-width="1.5" points="171,-36 141,-36 129,-24 129,-12 141,-1.46056e-14 171,-6.71068e-15 183,-12 183,-24 171,-36"/>
<path fill="#fadcad" stroke="#fadcad" stroke-width="1.5" d="M141,-36C135,-36 129,-30 129,-24"/>
<path fill="#fadcad" stroke="#fadcad" stroke-width="1.5" d="M129,-12C129,-6 135,-1.61846e-14 141,-1.46056e-14"/>
<path fill="#fadcad" stroke="#fadcad" stroke-width="1.5" d="M171,-6.71068e-15C177,-5.1317e-15 183,-6 183,-12"/>
<path fill="#fadcad" stroke="#fadcad" stroke-width="1.5" d="M183,-24C183,-30 177,-36 171,-36"/>
<polyline fill="none" stroke="#2e3436" stroke-width="1.5" points="171,-36 141,-36 "/>
<path fill="none" stroke="#2e3436" stroke-width="1.5" d="M141,-36C135,-36 129,-30 129,-24"/>
<polyline fill="none" stroke="#2e3436" stroke-width="1.5" points="129,-24 129,-12 "/>
<path fill="none" stroke="#2e3436" stroke-width="1.5" d="M129,-12C129,-6 135,-1.61846e-14 141,-1.46056e-14"/>
<polyline fill="none" stroke="#2e3436" stroke-width="1.5" points="141,-1.46056e-14 171,-6.71068e-15 "/>
<path fill="none" stroke="#2e3436" stroke-width="1.5" d="M171,-6.71068e-15C177,-5.1317e-15 183,-6 183,-12"/>
<polyline fill="none" stroke="#2e3436" stroke-width="1.5" points="183,-12 183,-24 "/>
<path fill="none" stroke="#2e3436" stroke-width="1.5" d="M183,-24C183,-30 177,-36 171,-36"/>
<text text-anchor="middle" x="156" y="-15.5" font-family="FreeSans" font-size="10.00" fill="#1c2021">Noeud</text>
</g>
<!-- Relations&#45;&gt;Noeud -->
<g id="edge6" class="edge"><title>Relations&#45;&gt;Noeud</title>
<path fill="none" stroke="#2e3436" stroke-width="2" d="M156,-85.7616C156,-73.5615 156,-57.3273 156,-43.8076"/>
<polygon fill="#2e3436" stroke="#2e3436" points="156,-36.2121 159.375,-43.7121 156.5,-39.9621 156.5,-43.7121 156,-43.7121 155.5,-43.7121 155.5,-39.9621 152.625,-43.7121 156,-36.2121 156,-36.2121"/>
<text text-anchor="middle" x="210" y="-58.5" font-family="FreeSans" font-size="10.00" fill="#1c2021">accompagnées par un</text>
</g>
</g>
</svg>
