<?xml version="1.0" encoding="UTF-8" standalone="no"?>
<!DOCTYPE svg PUBLIC "-//W3C//DTD SVG 1.1//EN"
 "http://www.w3.org/Graphics/SVG/1.1/DTD/svg11.dtd">
<!-- Generated by graphviz version 2.26.3 (20100126.1600)
 -->
<!-- Title: g Pages: 1 -->
<svg width="159pt" height="302pt"
 viewBox="0.00 0.00 159.00 302.00" xmlns="http://www.w3.org/2000/svg" xmlns:xlink="http://www.w3.org/1999/xlink">
<g id="graph1" class="graph" transform="scale(1 1) rotate(0) translate(4 298)">
<title>g</title>
<polygon fill="white" stroke="white" points="-4,5 -4,-298 156,-298 156,5 -4,5"/>
<!-- / -->
<g id="node1" class="node"><title>/</title>
<polygon fill="#fcee7d" stroke="#fcee7d" stroke-width="1.5" points="83,-294 53,-294 41,-282 41,-270 53,-258 83,-258 95,-270 95,-282 83,-294"/>
<path fill="#fcee7d" stroke="#fcee7d" stroke-width="1.5" d="M53,-294C47,-294 41,-288 41,-282"/>
<path fill="#fcee7d" stroke="#fcee7d" stroke-width="1.5" d="M41,-270C41,-264 47,-258 53,-258"/>
<path fill="#fcee7d" stroke="#fcee7d" stroke-width="1.5" d="M83,-258C89,-258 95,-264 95,-270"/>
<path fill="#fcee7d" stroke="#fcee7d" stroke-width="1.5" d="M95,-282C95,-288 89,-294 83,-294"/>
<polyline fill="none" stroke="#2e3436" stroke-width="1.5" points="83,-294 53,-294 "/>
<path fill="none" stroke="#2e3436" stroke-width="1.5" d="M53,-294C47,-294 41,-288 41,-282"/>
<polyline fill="none" stroke="#2e3436" stroke-width="1.5" points="41,-282 41,-270 "/>
<path fill="none" stroke="#2e3436" stroke-width="1.5" d="M41,-270C41,-264 47,-258 53,-258"/>
<polyline fill="none" stroke="#2e3436" stroke-width="1.5" points="53,-258 83,-258 "/>
<path fill="none" stroke="#2e3436" stroke-width="1.5" d="M83,-258C89,-258 95,-264 95,-270"/>
<polyline fill="none" stroke="#2e3436" stroke-width="1.5" points="95,-270 95,-282 "/>
<path fill="none" stroke="#2e3436" stroke-width="1.5" d="M95,-282C95,-288 89,-294 83,-294"/>
<text text-anchor="middle" x="68" y="-273.5" font-family="FreeSans" font-size="10.00" fill="#1c2021">/</text>
</g>
<!-- A -->
<g id="node3" class="node"><title>A</title>
<polygon fill="#ffffff" stroke="#ffffff" stroke-width="1.5" points="83,-220 53,-220 41,-208 41,-196 53,-184 83,-184 95,-196 95,-208 83,-220"/>
<path fill="#ffffff" stroke="#ffffff" stroke-width="1.5" d="M53,-220C47,-220 41,-214 41,-208"/>
<path fill="#ffffff" stroke="#ffffff" stroke-width="1.5" d="M41,-196C41,-190 47,-184 53,-184"/>
<path fill="#ffffff" stroke="#ffffff" stroke-width="1.5" d="M83,-184C89,-184 95,-190 95,-196"/>
<path fill="#ffffff" stroke="#ffffff" stroke-width="1.5" d="M95,-208C95,-214 89,-220 83,-220"/>
<polyline fill="none" stroke="#2e3436" stroke-width="1.5" points="83,-220 53,-220 "/>
<path fill="none" stroke="#2e3436" stroke-width="1.5" d="M53,-220C47,-220 41,-214 41,-208"/>
<polyline fill="none" stroke="#2e3436" stroke-width="1.5" points="41,-208 41,-196 "/>
<path fill="none" stroke="#2e3436" stroke-width="1.5" d="M41,-196C41,-190 47,-184 53,-184"/>
<polyline fill="none" stroke="#2e3436" stroke-width="1.5" points="53,-184 83,-184 "/>
<path fill="none" stroke="#2e3436" stroke-width="1.5" d="M83,-184C89,-184 95,-190 95,-196"/>
<polyline fill="none" stroke="#2e3436" stroke-width="1.5" points="95,-196 95,-208 "/>
<path fill="none" stroke="#2e3436" stroke-width="1.5" d="M95,-208C95,-214 89,-220 83,-220"/>
<text text-anchor="middle" x="68" y="-199.5" font-family="FreeSans" font-size="10.00" fill="#1c2021">A</text>
</g>
<!-- /&#45;&gt;A -->
<g id="edge2" class="edge"><title>/&#45;&gt;A</title>
<path fill="none" stroke="#2e3436" stroke-width="2" d="M68,-257.708C68,-248.657 68,-237.579 68,-227.693"/>
<polygon fill="#2e3436" stroke="#2e3436" points="68,-220.082 71.3751,-227.582 68.5,-223.832 68.5001,-227.582 68.0001,-227.582 67.5001,-227.582 67.5,-223.832 64.6251,-227.582 68,-220.082 68,-220.082"/>
</g>
<!-- B -->
<g id="node5" class="node"><title>B</title>
<polygon fill="#ffffff" stroke="#ffffff" stroke-width="1.5" points="42,-134 12,-134 1.42109e-14,-122 7.10543e-15,-110 12,-98 42,-98 54,-110 54,-122 42,-134"/>
<path fill="#ffffff" stroke="#ffffff" stroke-width="1.5" d="M12,-134C6,-134 1.77636e-14,-128 1.42109e-14,-122"/>
<path fill="#ffffff" stroke="#ffffff" stroke-width="1.5" d="M7.10543e-15,-110C3.55271e-15,-104 6,-98 12,-98"/>
<path fill="#ffffff" stroke="#ffffff" stroke-width="1.5" d="M42,-98C48,-98 54,-104 54,-110"/>
<path fill="#ffffff" stroke="#ffffff" stroke-width="1.5" d="M54,-122C54,-128 48,-134 42,-134"/>
<polyline fill="none" stroke="#2e3436" stroke-width="1.5" points="42,-134 12,-134 "/>
<path fill="none" stroke="#2e3436" stroke-width="1.5" d="M12,-134C6,-134 1.77636e-14,-128 1.42109e-14,-122"/>
<polyline fill="none" stroke="#2e3436" stroke-width="1.5" points="1.42109e-14,-122 7.10543e-15,-110 "/>
<path fill="none" stroke="#2e3436" stroke-width="1.5" d="M7.10543e-15,-110C3.55271e-15,-104 6,-98 12,-98"/>
<polyline fill="none" stroke="#2e3436" stroke-width="1.5" points="12,-98 42,-98 "/>
<path fill="none" stroke="#2e3436" stroke-width="1.5" d="M42,-98C48,-98 54,-104 54,-110"/>
<polyline fill="none" stroke="#2e3436" stroke-width="1.5" points="54,-110 54,-122 "/>
<path fill="none" stroke="#2e3436" stroke-width="1.5" d="M54,-122C54,-128 48,-134 42,-134"/>
<text text-anchor="middle" x="27" y="-113.5" font-family="FreeSans" font-size="10.00" fill="#1c2021">B</text>
</g>
<!-- A&#45;&gt;B -->
<g id="edge4" class="edge"><title>A&#45;&gt;B</title>
<path fill="none" stroke="#2e3436" stroke-width="2" d="M51.6291,-183.913C47.3498,-178.458 43.079,-172.251 40,-166 36.314,-158.517 33.5905,-149.873 31.6166,-141.898"/>
<polygon fill="#2e3436" stroke="#2e3436" points="29.8847,-134.214 34.8263,-140.788 31.197,-137.762 32.0216,-141.42 31.5339,-141.53 31.0461,-141.64 30.2215,-137.982 28.2415,-142.272 29.8847,-134.214 29.8847,-134.214"/>
<text text-anchor="middle" x="54.5" y="-156.5" font-family="FreeSans" font-size="10.00" fill="#1c2021">fichier</text>
</g>
<!-- C -->
<g id="node7" class="node"><title>C</title>
<polygon fill="#ffffff" stroke="#ffffff" stroke-width="1.5" points="139,-134 109,-134 97,-122 97,-110 109,-98 139,-98 151,-110 151,-122 139,-134"/>
<path fill="#ffffff" stroke="#ffffff" stroke-width="1.5" d="M109,-134C103,-134 97,-128 97,-122"/>
<path fill="#ffffff" stroke="#ffffff" stroke-width="1.5" d="M97,-110C97,-104 103,-98 109,-98"/>
<path fill="#ffffff" stroke="#ffffff" stroke-width="1.5" d="M139,-98C145,-98 151,-104 151,-110"/>
<path fill="#ffffff" stroke="#ffffff" stroke-width="1.5" d="M151,-122C151,-128 145,-134 139,-134"/>
<polyline fill="none" stroke="#2e3436" stroke-width="1.5" points="139,-134 109,-134 "/>
<path fill="none" stroke="#2e3436" stroke-width="1.5" d="M109,-134C103,-134 97,-128 97,-122"/>
<polyline fill="none" stroke="#2e3436" stroke-width="1.5" points="97,-122 97,-110 "/>
<path fill="none" stroke="#2e3436" stroke-width="1.5" d="M97,-110C97,-104 103,-98 109,-98"/>
<polyline fill="none" stroke="#2e3436" stroke-width="1.5" points="109,-98 139,-98 "/>
<path fill="none" stroke="#2e3436" stroke-width="1.5" d="M139,-98C145,-98 151,-104 151,-110"/>
<polyline fill="none" stroke="#2e3436" stroke-width="1.5" points="151,-110 151,-122 "/>
<path fill="none" stroke="#2e3436" stroke-width="1.5" d="M151,-122C151,-128 145,-134 139,-134"/>
<text text-anchor="middle" x="124" y="-113.5" font-family="FreeSans" font-size="10.00" fill="#1c2021">C</text>
</g>
<!-- A&#45;&gt;C -->
<g id="edge6" class="edge"><title>A&#45;&gt;C</title>
<path fill="none" stroke="#2e3436" stroke-width="2" d="M79.8762,-183.762C88.0431,-171.219 98.9863,-154.414 107.931,-140.677"/>
<polygon fill="#2e3436" stroke="#2e3436" points="112.141,-134.212 110.877,-142.339 110.514,-137.627 108.467,-140.77 108.048,-140.497 107.629,-140.224 109.676,-137.082 105.22,-138.655 112.141,-134.212 112.141,-134.212"/>
<text text-anchor="middle" x="113.5" y="-156.5" font-family="FreeSans" font-size="10.00" fill="#1c2021">fichier</text>
</g>
<!-- D -->
<g id="node9" class="node"><title>D</title>
<polygon fill="#ffffff" stroke="#ffffff" stroke-width="1.5" points="91,-36 61,-36 49,-24 49,-12 61,-1.46056e-14 91,-6.71068e-15 103,-12 103,-24 91,-36"/>
<path fill="#ffffff" stroke="#ffffff" stroke-width="1.5" d="M61,-36C55,-36 49,-30 49,-24"/>
<path fill="#ffffff" stroke="#ffffff" stroke-width="1.5" d="M49,-12C49,-6 55,-1.61846e-14 61,-1.46056e-14"/>
<path fill="#ffffff" stroke="#ffffff" stroke-width="1.5" d="M91,-6.71068e-15C97,-5.1317e-15 103,-6 103,-12"/>
<path fill="#ffffff" stroke="#ffffff" stroke-width="1.5" d="M103,-24C103,-30 97,-36 91,-36"/>
<polyline fill="none" stroke="#2e3436" stroke-width="1.5" points="91,-36 61,-36 "/>
<path fill="none" stroke="#2e3436" stroke-width="1.5" d="M61,-36C55,-36 49,-30 49,-24"/>
<polyline fill="none" stroke="#2e3436" stroke-width="1.5" points="49,-24 49,-12 "/>
<path fill="none" stroke="#2e3436" stroke-width="1.5" d="M49,-12C49,-6 55,-1.61846e-14 61,-1.46056e-14"/>
<polyline fill="none" stroke="#2e3436" stroke-width="1.5" points="61,-1.46056e-14 91,-6.71068e-15 "/>
<path fill="none" stroke="#2e3436" stroke-width="1.5" d="M91,-6.71068e-15C97,-5.1317e-15 103,-6 103,-12"/>
<polyline fill="none" stroke="#2e3436" stroke-width="1.5" points="103,-12 103,-24 "/>
<path fill="none" stroke="#2e3436" stroke-width="1.5" d="M103,-24C103,-30 97,-36 91,-36"/>
<text text-anchor="middle" x="76" y="-15.5" font-family="FreeSans" font-size="10.00" fill="#1c2021">D</text>
</g>
<!-- B&#45;&gt;D -->
<g id="edge10" class="edge"><title>B&#45;&gt;D</title>
<path fill="none" stroke="#a40000" stroke-width="2" d="M16.8029,-97.8424C10.9925,-84.8825 6.26301,-67.4391 14,-54 20.164,-43.2931 30.8687,-35.477 41.6663,-29.9195"/>
<polygon fill="#a40000" stroke="#a40000" points="48.7285,-26.586 43.3868,-32.8396 45.5507,-28.6389 42.1596,-30.2396 41.9461,-29.7875 41.7327,-29.3353 45.1239,-27.7346 40.5054,-26.7354 48.7285,-26.586 48.7285,-26.586"/>
<text text-anchor="middle" x="53" y="-71" font-family="FreeSans" font-size="10.00" fill="#a40000">lien symbolique </text>
<text text-anchor="middle" x="53" y="-58" font-family="FreeSans" font-size="10.00" fill="#a40000">{nom: &quot;E&quot;}</text>
</g>
<!-- C&#45;&gt;D -->
<g id="edge8" class="edge"><title>C&#45;&gt;D</title>
<path fill="none" stroke="#2e3436" stroke-width="2" d="M117.739,-97.972C113.126,-85.3859 106.391,-68.3397 99,-54 97.0887,-50.2917 94.9069,-46.475 92.6657,-42.7765"/>
<polygon fill="#2e3436" stroke="#2e3436" points="88.6131,-36.2958 95.4513,-40.8654 91.0253,-39.2102 93.0136,-42.3898 92.5897,-42.6549 92.1658,-42.92 90.1775,-39.7405 89.7281,-44.4443 88.6131,-36.2958 88.6131,-36.2958"/>
<text text-anchor="middle" x="124.5" y="-64.5" font-family="FreeSans" font-size="10.00" fill="#1c2021">fichier</text>
</g>
</g>
</svg>
