<?xml version="1.0" encoding="UTF-8" standalone="no"?>
<!DOCTYPE svg PUBLIC "-//W3C//DTD SVG 1.1//EN"
 "http://www.w3.org/Graphics/SVG/1.1/DTD/svg11.dtd">
<!-- Generated by graphviz version 2.26.3 (20100126.1600)
 -->
<!-- Title: g Pages: 1 -->
<svg width="176pt" height="314pt"
 viewBox="0.00 0.00 176.00 314.00" xmlns="http://www.w3.org/2000/svg" xmlns:xlink="http://www.w3.org/1999/xlink">
<g id="graph1" class="graph" transform="scale(1 1) rotate(0) translate(4 310)">
<title>g</title>
<polygon fill="white" stroke="white" points="-4,5 -4,-310 173,-310 173,5 -4,5"/>
<!-- Graphe -->
<g id="node1" class="node"><title>Graphe</title>
<polygon fill="#a8e270" stroke="#a8e270" stroke-width="1.5" points="67,-306 37,-306 25,-294 25,-282 37,-270 67,-270 79,-282 79,-294 67,-306"/>
<path fill="#a8e270" stroke="#a8e270" stroke-width="1.5" d="M37,-306C31,-306 25,-300 25,-294"/>
<path fill="#a8e270" stroke="#a8e270" stroke-width="1.5" d="M25,-282C25,-276 31,-270 37,-270"/>
<path fill="#a8e270" stroke="#a8e270" stroke-width="1.5" d="M67,-270C73,-270 79,-276 79,-282"/>
<path fill="#a8e270" stroke="#a8e270" stroke-width="1.5" d="M79,-294C79,-300 73,-306 67,-306"/>
<polyline fill="none" stroke="#2e3436" stroke-width="1.5" points="67,-306 37,-306 "/>
<path fill="none" stroke="#2e3436" stroke-width="1.5" d="M37,-306C31,-306 25,-300 25,-294"/>
<polyline fill="none" stroke="#2e3436" stroke-width="1.5" points="25,-294 25,-282 "/>
<path fill="none" stroke="#2e3436" stroke-width="1.5" d="M25,-282C25,-276 31,-270 37,-270"/>
<polyline fill="none" stroke="#2e3436" stroke-width="1.5" points="37,-270 67,-270 "/>
<path fill="none" stroke="#2e3436" stroke-width="1.5" d="M67,-270C73,-270 79,-276 79,-282"/>
<polyline fill="none" stroke="#2e3436" stroke-width="1.5" points="79,-282 79,-294 "/>
<path fill="none" stroke="#2e3436" stroke-width="1.5" d="M79,-294C79,-300 73,-306 67,-306"/>
<text text-anchor="middle" x="52" y="-285.5" font-family="FreeSans" font-size="10.00" fill="#1c2021">Graphe</text>
</g>
<!-- Noeuds -->
<g id="node3" class="node"><title>Noeuds</title>
<polygon fill="#fadcad" stroke="#fadcad" stroke-width="1.5" points="42,-122 12,-122 1.42109e-14,-110 7.10543e-15,-98 12,-86 42,-86 54,-98 54,-110 42,-122"/>
<path fill="#fadcad" stroke="#fadcad" stroke-width="1.5" d="M12,-122C6,-122 1.77636e-14,-116 1.42109e-14,-110"/>
<path fill="#fadcad" stroke="#fadcad" stroke-width="1.5" d="M7.10543e-15,-98C3.55271e-15,-92 6,-86 12,-86"/>
<path fill="#fadcad" stroke="#fadcad" stroke-width="1.5" d="M42,-86C48,-86 54,-92 54,-98"/>
<path fill="#fadcad" stroke="#fadcad" stroke-width="1.5" d="M54,-110C54,-116 48,-122 42,-122"/>
<polyline fill="none" stroke="#2e3436" stroke-width="1.5" points="42,-122 12,-122 "/>
<path fill="none" stroke="#2e3436" stroke-width="1.5" d="M12,-122C6,-122 1.77636e-14,-116 1.42109e-14,-110"/>
<polyline fill="none" stroke="#2e3436" stroke-width="1.5" points="1.42109e-14,-110 7.10543e-15,-98 "/>
<path fill="none" stroke="#2e3436" stroke-width="1.5" d="M7.10543e-15,-98C3.55271e-15,-92 6,-86 12,-86"/>
<polyline fill="none" stroke="#2e3436" stroke-width="1.5" points="12,-86 42,-86 "/>
<path fill="none" stroke="#2e3436" stroke-width="1.5" d="M42,-86C48,-86 54,-92 54,-98"/>
<polyline fill="none" stroke="#2e3436" stroke-width="1.5" points="54,-98 54,-110 "/>
<path fill="none" stroke="#2e3436" stroke-width="1.5" d="M54,-110C54,-116 48,-122 42,-122"/>
<text text-anchor="middle" x="27" y="-101.5" font-family="FreeSans" font-size="10.00" fill="#1c2021">Noeuds</text>
</g>
<!-- Graphe&#45;&gt;Noeuds -->
<g id="edge2" class="edge"><title>Graphe&#45;&gt;Noeuds</title>
<path fill="none" stroke="#2e3436" stroke-width="2" d="M43.6116,-269.721C36.7955,-253.803 27.7228,-229.906 24,-208 19.5185,-181.63 21.2254,-150.969 23.4609,-129.804"/>
<polygon fill="#2e3436" stroke="#2e3436" points="24.3318,-122.187 26.833,-130.021 24.4026,-125.969 23.9766,-129.695 23.4798,-129.638 22.9831,-129.581 23.409,-125.856 20.1267,-129.255 24.3318,-122.187 24.3318,-122.187"/>
<text text-anchor="middle" x="57" y="-194" font-family="FreeSans" font-size="10.00" fill="#1c2021">enregistre les</text>
<text text-anchor="middle" x="57" y="-181" font-family="FreeSans" font-size="10.00" fill="#1c2021"> données en</text>
</g>
<!-- Relations -->
<g id="node5" class="node"><title>Relations</title>
<polygon fill="#fadcad" stroke="#fadcad" stroke-width="1.5" points="150,-208 116,-208 104,-196 104,-184 116,-172 150,-172 162,-184 162,-196 150,-208"/>
<path fill="#fadcad" stroke="#fadcad" stroke-width="1.5" d="M116,-208C110,-208 104,-202 104,-196"/>
<path fill="#fadcad" stroke="#fadcad" stroke-width="1.5" d="M104,-184C104,-178 110,-172 116,-172"/>
<path fill="#fadcad" stroke="#fadcad" stroke-width="1.5" d="M150,-172C156,-172 162,-178 162,-184"/>
<path fill="#fadcad" stroke="#fadcad" stroke-width="1.5" d="M162,-196C162,-202 156,-208 150,-208"/>
<polyline fill="none" stroke="#2e3436" stroke-width="1.5" points="150,-208 116,-208 "/>
<path fill="none" stroke="#2e3436" stroke-width="1.5" d="M116,-208C110,-208 104,-202 104,-196"/>
<polyline fill="none" stroke="#2e3436" stroke-width="1.5" points="104,-196 104,-184 "/>
<path fill="none" stroke="#2e3436" stroke-width="1.5" d="M104,-184C104,-178 110,-172 116,-172"/>
<polyline fill="none" stroke="#2e3436" stroke-width="1.5" points="116,-172 150,-172 "/>
<path fill="none" stroke="#2e3436" stroke-width="1.5" d="M150,-172C156,-172 162,-178 162,-184"/>
<polyline fill="none" stroke="#2e3436" stroke-width="1.5" points="162,-184 162,-196 "/>
<path fill="none" stroke="#2e3436" stroke-width="1.5" d="M162,-196C162,-202 156,-208 150,-208"/>
<text text-anchor="middle" x="133" y="-187.5" font-family="FreeSans" font-size="10.00" fill="#1c2021">Relations</text>
</g>
<!-- Graphe&#45;&gt;Relations -->
<g id="edge4" class="edge"><title>Graphe&#45;&gt;Relations</title>
<path fill="none" stroke="#2e3436" stroke-width="2" d="M67.2355,-269.567C80.2147,-253.864 98.9579,-231.187 113.117,-214.056"/>
<polygon fill="#2e3436" stroke="#2e3436" points="118.107,-208.019 115.93,-215.95 116.103,-211.228 113.714,-214.119 113.328,-213.8 112.943,-213.482 115.332,-210.591 110.727,-211.65 118.107,-208.019 118.107,-208.019"/>
<text text-anchor="middle" x="135" y="-243" font-family="FreeSans" font-size="10.00" fill="#1c2021">enregistre les</text>
<text text-anchor="middle" x="135" y="-230" font-family="FreeSans" font-size="10.00" fill="#1c2021"> données en</text>
</g>
<!-- Propriétés -->
<g id="node8" class="node"><title>Propriétés</title>
<polygon fill="#fadcad" stroke="#fadcad" stroke-width="1.5" points="108,-36 68,-36 56,-24 56,-12 68,-1.5099e-14 108,-6.21725e-15 120,-12 120,-24 108,-36"/>
<path fill="#fadcad" stroke="#fadcad" stroke-width="1.5" d="M68,-36C62,-36 56,-30 56,-24"/>
<path fill="#fadcad" stroke="#fadcad" stroke-width="1.5" d="M56,-12C56,-6 62,-1.64313e-14 68,-1.5099e-14"/>
<path fill="#fadcad" stroke="#fadcad" stroke-width="1.5" d="M108,-6.21725e-15C114,-4.88498e-15 120,-6 120,-12"/>
<path fill="#fadcad" stroke="#fadcad" stroke-width="1.5" d="M120,-24C120,-30 114,-36 108,-36"/>
<polyline fill="none" stroke="#2e3436" stroke-width="1.5" points="108,-36 68,-36 "/>
<path fill="none" stroke="#2e3436" stroke-width="1.5" d="M68,-36C62,-36 56,-30 56,-24"/>
<polyline fill="none" stroke="#2e3436" stroke-width="1.5" points="56,-24 56,-12 "/>
<path fill="none" stroke="#2e3436" stroke-width="1.5" d="M56,-12C56,-6 62,-1.64313e-14 68,-1.5099e-14"/>
<polyline fill="none" stroke="#2e3436" stroke-width="1.5" points="68,-1.5099e-14 108,-6.21725e-15 "/>
<path fill="none" stroke="#2e3436" stroke-width="1.5" d="M108,-6.21725e-15C114,-4.88498e-15 120,-6 120,-12"/>
<polyline fill="none" stroke="#2e3436" stroke-width="1.5" points="120,-12 120,-24 "/>
<path fill="none" stroke="#2e3436" stroke-width="1.5" d="M120,-24C120,-30 114,-36 108,-36"/>
<text text-anchor="middle" x="88" y="-15.5" font-family="FreeSans" font-size="10.00" fill="#1c2021">Propriétés</text>
</g>
<!-- Noeuds&#45;&gt;Propriétés -->
<g id="edge8" class="edge"><title>Noeuds&#45;&gt;Propriétés</title>
<path fill="none" stroke="#2e3436" stroke-width="2" d="M39.9365,-85.7616C48.8327,-73.2195 60.753,-56.4138 70.4966,-42.677"/>
<polygon fill="#2e3436" stroke="#2e3436" points="75.0821,-36.2121 73.4958,-44.2821 73.3204,-39.5601 71.1508,-42.6188 70.743,-42.3295 70.3352,-42.0402 72.5047,-38.9815 67.9902,-40.3769 75.0821,-36.2121 75.0821,-36.2121"/>
<text text-anchor="middle" x="81" y="-58.5" font-family="FreeSans" font-size="10.00" fill="#1c2021">contient</text>
</g>
<!-- Relations&#45;&gt;Noeuds -->
<g id="edge6" class="edge"><title>Relations&#45;&gt;Noeuds</title>
<path fill="none" stroke="#2e3436" stroke-width="2" d="M103.822,-177.995C91.1043,-171.928 76.5067,-163.769 65,-154 56.4391,-146.732 48.6156,-137.218 42.322,-128.443"/>
<polygon fill="#2e3436" stroke="#2e3436" points="38.0209,-122.226 45.0636,-126.473 40.5657,-125.025 42.6993,-128.109 42.2881,-128.394 41.8769,-128.678 39.7433,-125.594 39.5125,-130.314 38.0209,-122.226 38.0209,-122.226"/>
<text text-anchor="middle" x="86" y="-144.5" font-family="FreeSans" font-size="10.00" fill="#1c2021">organise</text>
</g>
<!-- Relations&#45;&gt;Propriétés -->
<g id="edge10" class="edge"><title>Relations&#45;&gt;Propriétés</title>
<path fill="none" stroke="#2e3436" stroke-width="2" d="M131.556,-171.912C129.023,-145.386 122.592,-94.6739 108,-54 106.676,-50.3091 105.001,-46.5474 103.187,-42.9146"/>
<polygon fill="#2e3436" stroke="#2e3436" points="99.5814,-36.14 106.084,-41.1751 101.785,-39.2155 103.546,-42.5258 103.105,-42.7607 102.664,-42.9957 100.902,-39.6853 100.126,-44.3464 99.5814,-36.14 99.5814,-36.14"/>
<text text-anchor="middle" x="144" y="-101.5" font-family="FreeSans" font-size="10.00" fill="#1c2021">contient</text>
</g>
</g>
</svg>
