<?xml version="1.0" encoding="UTF-8" standalone="no"?>
<!DOCTYPE svg PUBLIC "-//W3C//DTD SVG 1.1//EN"
 "http://www.w3.org/Graphics/SVG/1.1/DTD/svg11.dtd">
<!-- Generated by graphviz version 2.26.3 (20100126.1600)
 -->
<!-- Title: g Pages: 1 -->
<svg width="272pt" height="44pt"
 viewBox="0.00 0.00 272.00 44.00" xmlns="http://www.w3.org/2000/svg" xmlns:xlink="http://www.w3.org/1999/xlink">
<g id="graph1" class="graph" transform="scale(1 1) rotate(0) translate(4 40)">
<title>g</title>
<polygon fill="white" stroke="white" points="-4,5 -4,-40 269,-40 269,5 -4,5"/>
<!-- Noeud de départ -->
<g id="node1" class="node"><title>Noeud de départ</title>
<polygon fill="#ffffff" stroke="#ffffff" stroke-width="1.5" points="86,-36 12,-36 2.84217e-14,-24 1.42109e-14,-12 12,-1.60235e-14 86,-5.29282e-15 98,-12 98,-24 86,-36"/>
<path fill="#ffffff" stroke="#ffffff" stroke-width="1.5" d="M12,-36C6,-36 3.55271e-14,-30 2.84217e-14,-24"/>
<path fill="#ffffff" stroke="#ffffff" stroke-width="1.5" d="M1.42109e-14,-12C7.10543e-15,-6 6,-1.68935e-14 12,-1.60235e-14"/>
<path fill="#ffffff" stroke="#ffffff" stroke-width="1.5" d="M86,-5.29282e-15C92,-4.42277e-15 98,-6 98,-12"/>
<path fill="#ffffff" stroke="#ffffff" stroke-width="1.5" d="M98,-24C98,-30 92,-36 86,-36"/>
<polyline fill="none" stroke="#2e3436" stroke-width="1.5" points="86,-36 12,-36 "/>
<path fill="none" stroke="#2e3436" stroke-width="1.5" d="M12,-36C6,-36 3.55271e-14,-30 2.84217e-14,-24"/>
<polyline fill="none" stroke="#2e3436" stroke-width="1.5" points="2.84217e-14,-24 1.42109e-14,-12 "/>
<path fill="none" stroke="#2e3436" stroke-width="1.5" d="M1.42109e-14,-12C7.10543e-15,-6 6,-1.68935e-14 12,-1.60235e-14"/>
<polyline fill="none" stroke="#2e3436" stroke-width="1.5" points="12,-1.60235e-14 86,-5.29282e-15 "/>
<path fill="none" stroke="#2e3436" stroke-width="1.5" d="M86,-5.29282e-15C92,-4.42277e-15 98,-6 98,-12"/>
<polyline fill="none" stroke="#2e3436" stroke-width="1.5" points="98,-12 98,-24 "/>
<path fill="none" stroke="#2e3436" stroke-width="1.5" d="M98,-24C98,-30 92,-36 86,-36"/>
<text text-anchor="middle" x="49" y="-15.5" font-family="FreeSans" font-size="10.00" fill="#1c2021">Noeud de départ</text>
</g>
<!-- Noeud d&#39;arrivée -->
<g id="node3" class="node"><title>Noeud d&#39;arrivée</title>
<polygon fill="#ffffff" stroke="#ffffff" stroke-width="1.5" points="252,-36 184,-36 172,-24 172,-12 184,-1.591e-14 252,-5.4063e-15 264,-12 264,-24 252,-36"/>
<path fill="#ffffff" stroke="#ffffff" stroke-width="1.5" d="M184,-36C178,-36 172,-30 172,-24"/>
<path fill="#ffffff" stroke="#ffffff" stroke-width="1.5" d="M172,-12C172,-6 178,-1.68368e-14 184,-1.591e-14"/>
<path fill="#ffffff" stroke="#ffffff" stroke-width="1.5" d="M252,-5.4063e-15C258,-4.47951e-15 264,-6 264,-12"/>
<path fill="#ffffff" stroke="#ffffff" stroke-width="1.5" d="M264,-24C264,-30 258,-36 252,-36"/>
<polyline fill="none" stroke="#2e3436" stroke-width="1.5" points="252,-36 184,-36 "/>
<path fill="none" stroke="#2e3436" stroke-width="1.5" d="M184,-36C178,-36 172,-30 172,-24"/>
<polyline fill="none" stroke="#2e3436" stroke-width="1.5" points="172,-24 172,-12 "/>
<path fill="none" stroke="#2e3436" stroke-width="1.5" d="M172,-12C172,-6 178,-1.68368e-14 184,-1.591e-14"/>
<polyline fill="none" stroke="#2e3436" stroke-width="1.5" points="184,-1.591e-14 252,-5.4063e-15 "/>
<path fill="none" stroke="#2e3436" stroke-width="1.5" d="M252,-5.4063e-15C258,-4.47951e-15 264,-6 264,-12"/>
<polyline fill="none" stroke="#2e3436" stroke-width="1.5" points="264,-12 264,-24 "/>
<path fill="none" stroke="#2e3436" stroke-width="1.5" d="M264,-24C264,-30 258,-36 252,-36"/>
<text text-anchor="middle" x="218" y="-15.5" font-family="FreeSans" font-size="10.00" fill="#1c2021">Noeud d&#39;arrivée</text>
</g>
<!-- Noeud de départ&#45;&gt;Noeud d&#39;arrivée -->
<g id="edge2" class="edge"><title>Noeud de départ&#45;&gt;Noeud d&#39;arrivée</title>
<path fill="none" stroke="#2e3436" stroke-width="2" d="M98.3361,-18C118.988,-18 143.05,-18 164.159,-18"/>
<polygon fill="#2e3436" stroke="#2e3436" points="171.79,-18 164.29,-21.3751 168.04,-18.5 164.29,-18.5001 164.29,-18.0001 164.29,-17.5001 168.04,-17.5 164.29,-14.6251 171.79,-18 171.79,-18"/>
<text text-anchor="middle" x="135" y="-22" font-family="FreeSans" font-size="10.00" fill="#1c2021">relation</text>
</g>
</g>
</svg>
