<?xml version="1.0" encoding="UTF-8" standalone="no"?>
<!DOCTYPE svg PUBLIC "-//W3C//DTD SVG 1.1//EN"
 "http://www.w3.org/Graphics/SVG/1.1/DTD/svg11.dtd">
<!-- Generated by graphviz version 2.26.3 (20100126.1600)
 -->
<!-- Title: g Pages: 1 -->
<svg width="350pt" height="324pt"
 viewBox="0.00 0.00 350.00 324.00" xmlns="http://www.w3.org/2000/svg" xmlns:xlink="http://www.w3.org/1999/xlink">
<g id="graph1" class="graph" transform="scale(1 1) rotate(0) translate(4 320)">
<title>g</title>
<polygon fill="white" stroke="white" points="-4,5 -4,-320 347,-320 347,5 -4,5"/>
<!-- Traversée -->
<g id="node1" class="node"><title>Traversée</title>
<polygon fill="#a8e270" stroke="#a8e270" stroke-width="1.5" points="249,-316 211,-316 199,-304 199,-292 211,-280 249,-280 261,-292 261,-304 249,-316"/>
<path fill="#a8e270" stroke="#a8e270" stroke-width="1.5" d="M211,-316C205,-316 199,-310 199,-304"/>
<path fill="#a8e270" stroke="#a8e270" stroke-width="1.5" d="M199,-292C199,-286 205,-280 211,-280"/>
<path fill="#a8e270" stroke="#a8e270" stroke-width="1.5" d="M249,-280C255,-280 261,-286 261,-292"/>
<path fill="#a8e270" stroke="#a8e270" stroke-width="1.5" d="M261,-304C261,-310 255,-316 249,-316"/>
<polyline fill="none" stroke="#2e3436" stroke-width="1.5" points="249,-316 211,-316 "/>
<path fill="none" stroke="#2e3436" stroke-width="1.5" d="M211,-316C205,-316 199,-310 199,-304"/>
<polyline fill="none" stroke="#2e3436" stroke-width="1.5" points="199,-304 199,-292 "/>
<path fill="none" stroke="#2e3436" stroke-width="1.5" d="M199,-292C199,-286 205,-280 211,-280"/>
<polyline fill="none" stroke="#2e3436" stroke-width="1.5" points="211,-280 249,-280 "/>
<path fill="none" stroke="#2e3436" stroke-width="1.5" d="M249,-280C255,-280 261,-286 261,-292"/>
<polyline fill="none" stroke="#2e3436" stroke-width="1.5" points="261,-292 261,-304 "/>
<path fill="none" stroke="#2e3436" stroke-width="1.5" d="M261,-304C261,-310 255,-316 249,-316"/>
<text text-anchor="middle" x="230" y="-295.5" font-family="FreeSans" font-size="10.00" fill="#1c2021">Traversée</text>
</g>
<!-- Graphe -->
<g id="node2" class="node"><title>Graphe</title>
<polygon fill="#95bbe3" stroke="#95bbe3" stroke-width="1.5" points="134,-230 104,-230 92,-218 92,-206 104,-194 134,-194 146,-206 146,-218 134,-230"/>
<path fill="#95bbe3" stroke="#95bbe3" stroke-width="1.5" d="M104,-230C98,-230 92,-224 92,-218"/>
<path fill="#95bbe3" stroke="#95bbe3" stroke-width="1.5" d="M92,-206C92,-200 98,-194 104,-194"/>
<path fill="#95bbe3" stroke="#95bbe3" stroke-width="1.5" d="M134,-194C140,-194 146,-200 146,-206"/>
<path fill="#95bbe3" stroke="#95bbe3" stroke-width="1.5" d="M146,-218C146,-224 140,-230 134,-230"/>
<polyline fill="none" stroke="#2e3436" stroke-width="1.5" points="134,-230 104,-230 "/>
<path fill="none" stroke="#2e3436" stroke-width="1.5" d="M104,-230C98,-230 92,-224 92,-218"/>
<polyline fill="none" stroke="#2e3436" stroke-width="1.5" points="92,-218 92,-206 "/>
<path fill="none" stroke="#2e3436" stroke-width="1.5" d="M92,-206C92,-200 98,-194 104,-194"/>
<polyline fill="none" stroke="#2e3436" stroke-width="1.5" points="104,-194 134,-194 "/>
<path fill="none" stroke="#2e3436" stroke-width="1.5" d="M134,-194C140,-194 146,-200 146,-206"/>
<polyline fill="none" stroke="#2e3436" stroke-width="1.5" points="146,-206 146,-218 "/>
<path fill="none" stroke="#2e3436" stroke-width="1.5" d="M146,-218C146,-224 140,-230 134,-230"/>
<text text-anchor="middle" x="119" y="-209.5" font-family="FreeSans" font-size="10.00" fill="#1c2021">Graphe</text>
</g>
<!-- Traversée&#45;&gt;Graphe -->
<g id="edge8" class="edge"><title>Traversée&#45;&gt;Graphe</title>
<path fill="none" stroke="#a40000" stroke-width="2" d="M198.884,-286.823C184.854,-280.83 168.637,-272.499 156,-262 147.528,-254.961 139.933,-245.594 133.861,-236.871"/>
<polygon fill="#a40000" stroke="#a40000" points="129.526,-230.375 136.497,-234.74 132.024,-233.217 134.106,-236.336 133.69,-236.613 133.274,-236.891 131.192,-233.772 130.882,-238.487 129.526,-230.375 129.526,-230.375"/>
<text text-anchor="middle" x="175" y="-252.5" font-family="FreeSans" font-size="10.00" fill="#a40000">navigue</text>
</g>
<!-- Chemin -->
<g id="node3" class="node"><title>Chemin</title>
<polygon fill="#95bbe3" stroke="#95bbe3" stroke-width="1.5" points="251,-176 221,-176 209,-164 209,-152 221,-140 251,-140 263,-152 263,-164 251,-176"/>
<path fill="#95bbe3" stroke="#95bbe3" stroke-width="1.5" d="M221,-176C215,-176 209,-170 209,-164"/>
<path fill="#95bbe3" stroke="#95bbe3" stroke-width="1.5" d="M209,-152C209,-146 215,-140 221,-140"/>
<path fill="#95bbe3" stroke="#95bbe3" stroke-width="1.5" d="M251,-140C257,-140 263,-146 263,-152"/>
<path fill="#95bbe3" stroke="#95bbe3" stroke-width="1.5" d="M263,-164C263,-170 257,-176 251,-176"/>
<polyline fill="none" stroke="#2e3436" stroke-width="1.5" points="251,-176 221,-176 "/>
<path fill="none" stroke="#2e3436" stroke-width="1.5" d="M221,-176C215,-176 209,-170 209,-164"/>
<polyline fill="none" stroke="#2e3436" stroke-width="1.5" points="209,-164 209,-152 "/>
<path fill="none" stroke="#2e3436" stroke-width="1.5" d="M209,-152C209,-146 215,-140 221,-140"/>
<polyline fill="none" stroke="#2e3436" stroke-width="1.5" points="221,-140 251,-140 "/>
<path fill="none" stroke="#2e3436" stroke-width="1.5" d="M251,-140C257,-140 263,-146 263,-152"/>
<polyline fill="none" stroke="#2e3436" stroke-width="1.5" points="263,-152 263,-164 "/>
<path fill="none" stroke="#2e3436" stroke-width="1.5" d="M263,-164C263,-170 257,-176 251,-176"/>
<text text-anchor="middle" x="236" y="-155.5" font-family="FreeSans" font-size="10.00" fill="#1c2021">Chemin</text>
</g>
<!-- Traversée&#45;&gt;Chemin -->
<g id="edge10" class="edge"><title>Traversée&#45;&gt;Chemin</title>
<path fill="none" stroke="#a40000" stroke-width="2" d="M229.71,-279.943C229.631,-270.436 229.648,-258.584 230,-248 230.719,-226.42 232.404,-201.978 233.806,-184.016"/>
<polygon fill="#a40000" stroke="#a40000" points="234.425,-176.254 237.193,-183.999 234.625,-180.032 234.327,-183.77 233.828,-183.73 233.33,-183.69 233.629,-179.952 230.464,-183.461 234.425,-176.254 234.425,-176.254"/>
<text text-anchor="middle" x="249" y="-252.5" font-family="FreeSans" font-size="10.00" fill="#a40000">identifie</text>
</g>
<!-- Algorithme -->
<g id="node4" class="node"><title>Algorithme</title>
<polygon fill="#95bbe3" stroke="#95bbe3" stroke-width="1.5" points="330,-230 286,-230 274,-218 274,-206 286,-194 330,-194 342,-206 342,-218 330,-230"/>
<path fill="#95bbe3" stroke="#95bbe3" stroke-width="1.5" d="M286,-230C280,-230 274,-224 274,-218"/>
<path fill="#95bbe3" stroke="#95bbe3" stroke-width="1.5" d="M274,-206C274,-200 280,-194 286,-194"/>
<path fill="#95bbe3" stroke="#95bbe3" stroke-width="1.5" d="M330,-194C336,-194 342,-200 342,-206"/>
<path fill="#95bbe3" stroke="#95bbe3" stroke-width="1.5" d="M342,-218C342,-224 336,-230 330,-230"/>
<polyline fill="none" stroke="#2e3436" stroke-width="1.5" points="330,-230 286,-230 "/>
<path fill="none" stroke="#2e3436" stroke-width="1.5" d="M286,-230C280,-230 274,-224 274,-218"/>
<polyline fill="none" stroke="#2e3436" stroke-width="1.5" points="274,-218 274,-206 "/>
<path fill="none" stroke="#2e3436" stroke-width="1.5" d="M274,-206C274,-200 280,-194 286,-194"/>
<polyline fill="none" stroke="#2e3436" stroke-width="1.5" points="286,-194 330,-194 "/>
<path fill="none" stroke="#2e3436" stroke-width="1.5" d="M330,-194C336,-194 342,-200 342,-206"/>
<polyline fill="none" stroke="#2e3436" stroke-width="1.5" points="342,-206 342,-218 "/>
<path fill="none" stroke="#2e3436" stroke-width="1.5" d="M342,-218C342,-224 336,-230 330,-230"/>
<text text-anchor="middle" x="308" y="-209.5" font-family="FreeSans" font-size="10.00" fill="#1c2021">Algorithme</text>
</g>
<!-- Traversée&#45;&gt;Algorithme -->
<g id="edge12" class="edge"><title>Traversée&#45;&gt;Algorithme</title>
<path fill="none" stroke="#a40000" stroke-width="2" d="M255.504,-279.867C262.219,-274.504 269.2,-268.356 275,-262 281.97,-254.362 288.504,-245.115 293.889,-236.661"/>
<polygon fill="#a40000" stroke="#a40000" points="297.947,-230.097 296.874,-238.251 296.4,-233.55 294.428,-236.739 294.003,-236.476 293.578,-236.213 295.55,-233.024 291.132,-234.701 297.947,-230.097 297.947,-230.097"/>
<text text-anchor="middle" x="305" y="-252.5" font-family="FreeSans" font-size="10.00" fill="#a40000">exprime</text>
</g>
<!-- Relations -->
<g id="node5" class="node"><title>Relations</title>
<polygon fill="#fadcad" stroke="#fadcad" stroke-width="1.5" points="46,-122 12,-122 1.42109e-14,-110 7.10543e-15,-98 12,-86 46,-86 58,-98 58,-110 46,-122"/>
<path fill="#fadcad" stroke="#fadcad" stroke-width="1.5" d="M12,-122C6,-122 1.77636e-14,-116 1.42109e-14,-110"/>
<path fill="#fadcad" stroke="#fadcad" stroke-width="1.5" d="M7.10543e-15,-98C3.55271e-15,-92 6,-86 12,-86"/>
<path fill="#fadcad" stroke="#fadcad" stroke-width="1.5" d="M46,-86C52,-86 58,-92 58,-98"/>
<path fill="#fadcad" stroke="#fadcad" stroke-width="1.5" d="M58,-110C58,-116 52,-122 46,-122"/>
<polyline fill="none" stroke="#2e3436" stroke-width="1.5" points="46,-122 12,-122 "/>
<path fill="none" stroke="#2e3436" stroke-width="1.5" d="M12,-122C6,-122 1.77636e-14,-116 1.42109e-14,-110"/>
<polyline fill="none" stroke="#2e3436" stroke-width="1.5" points="1.42109e-14,-110 7.10543e-15,-98 "/>
<path fill="none" stroke="#2e3436" stroke-width="1.5" d="M7.10543e-15,-98C3.55271e-15,-92 6,-86 12,-86"/>
<polyline fill="none" stroke="#2e3436" stroke-width="1.5" points="12,-86 46,-86 "/>
<path fill="none" stroke="#2e3436" stroke-width="1.5" d="M46,-86C52,-86 58,-92 58,-98"/>
<polyline fill="none" stroke="#2e3436" stroke-width="1.5" points="58,-98 58,-110 "/>
<path fill="none" stroke="#2e3436" stroke-width="1.5" d="M58,-110C58,-116 52,-122 46,-122"/>
<text text-anchor="middle" x="29" y="-101.5" font-family="FreeSans" font-size="10.00" fill="#1c2021">Relations</text>
</g>
<!-- Graphe&#45;&gt;Relations -->
<g id="edge6" class="edge"><title>Graphe&#45;&gt;Relations</title>
<path fill="none" stroke="#2e3436" stroke-width="2" d="M91.6253,-209.288C70.3425,-205.578 42.1366,-196.795 28,-176 18.9029,-162.618 19.2607,-144.362 21.838,-129.581"/>
<polygon fill="#2e3436" stroke="#2e3436" points="23.3497,-122.213 25.1484,-130.238 23.0858,-125.987 22.3321,-129.661 21.8423,-129.56 21.3525,-129.46 22.1062,-125.786 18.5361,-128.882 23.3497,-122.213 23.3497,-122.213"/>
<text text-anchor="middle" x="61" y="-162" font-family="FreeSans" font-size="10.00" fill="#1c2021">enregistre les</text>
<text text-anchor="middle" x="61" y="-149" font-family="FreeSans" font-size="10.00" fill="#1c2021">données en</text>
</g>
<!-- Noeuds -->
<g id="node7" class="node"><title>Noeuds</title>
<polygon fill="#fadcad" stroke="#fadcad" stroke-width="1.5" points="193,-36 163,-36 151,-24 151,-12 163,-1.46056e-14 193,-6.71068e-15 205,-12 205,-24 193,-36"/>
<path fill="#fadcad" stroke="#fadcad" stroke-width="1.5" d="M163,-36C157,-36 151,-30 151,-24"/>
<path fill="#fadcad" stroke="#fadcad" stroke-width="1.5" d="M151,-12C151,-6 157,-1.61846e-14 163,-1.46056e-14"/>
<path fill="#fadcad" stroke="#fadcad" stroke-width="1.5" d="M193,-6.71068e-15C199,-5.1317e-15 205,-6 205,-12"/>
<path fill="#fadcad" stroke="#fadcad" stroke-width="1.5" d="M205,-24C205,-30 199,-36 193,-36"/>
<polyline fill="none" stroke="#2e3436" stroke-width="1.5" points="193,-36 163,-36 "/>
<path fill="none" stroke="#2e3436" stroke-width="1.5" d="M163,-36C157,-36 151,-30 151,-24"/>
<polyline fill="none" stroke="#2e3436" stroke-width="1.5" points="151,-24 151,-12 "/>
<path fill="none" stroke="#2e3436" stroke-width="1.5" d="M151,-12C151,-6 157,-1.61846e-14 163,-1.46056e-14"/>
<polyline fill="none" stroke="#2e3436" stroke-width="1.5" points="163,-1.46056e-14 193,-6.71068e-15 "/>
<path fill="none" stroke="#2e3436" stroke-width="1.5" d="M193,-6.71068e-15C199,-5.1317e-15 205,-6 205,-12"/>
<polyline fill="none" stroke="#2e3436" stroke-width="1.5" points="205,-12 205,-24 "/>
<path fill="none" stroke="#2e3436" stroke-width="1.5" d="M205,-24C205,-30 199,-36 193,-36"/>
<text text-anchor="middle" x="178" y="-15.5" font-family="FreeSans" font-size="10.00" fill="#1c2021">Noeuds</text>
</g>
<!-- Graphe&#45;&gt;Noeuds -->
<g id="edge4" class="edge"><title>Graphe&#45;&gt;Noeuds</title>
<path fill="none" stroke="#2e3436" stroke-width="2" d="M118.622,-193.887C118.659,-168.869 120.762,-122.676 134,-86 139.651,-70.3445 149.483,-54.6288 158.421,-42.2555"/>
<polygon fill="#2e3436" stroke="#2e3436" points="162.987,-36.1077 161.225,-44.1411 161.153,-39.4163 158.917,-42.4269 158.515,-42.1287 158.114,-41.8306 160.35,-38.8201 155.806,-40.1164 162.987,-36.1077 162.987,-36.1077"/>
<text text-anchor="middle" x="167" y="-108" font-family="FreeSans" font-size="10.00" fill="#1c2021">enregistre les</text>
<text text-anchor="middle" x="167" y="-95" font-family="FreeSans" font-size="10.00" fill="#1c2021">données en</text>
</g>
<!-- Chemin&#45;&gt;Noeuds -->
<g id="edge14" class="edge"><title>Chemin&#45;&gt;Noeuds</title>
<path fill="none" stroke="#2e3436" stroke-width="2" d="M228.536,-139.984C218.369,-115.443 200.112,-71.3729 188.548,-43.4614"/>
<polygon fill="#2e3436" stroke="#2e3436" points="185.619,-36.3914 191.608,-42.0285 187.517,-39.6644 188.952,-43.1289 188.49,-43.3203 188.028,-43.5117 186.593,-40.0472 185.372,-44.6121 185.619,-36.3914 185.619,-36.3914"/>
<text text-anchor="middle" x="240" y="-101.5" font-family="FreeSans" font-size="10.00" fill="#1c2021">ordonne</text>
</g>
<!-- Relations&#45;&gt;Noeuds -->
<g id="edge2" class="edge"><title>Relations&#45;&gt;Noeuds</title>
<path fill="none" stroke="#2e3436" stroke-width="2" d="M33.2229,-85.9512C36.6109,-75.2483 42.4268,-62.2115 52,-54 65.7084,-42.2415 110.879,-31.2209 143.213,-24.5458"/>
<polygon fill="#2e3436" stroke="#2e3436" points="150.719,-23.026 144.038,-27.8223 147.143,-24.2603 143.467,-25.0045 143.368,-24.5144 143.269,-24.0244 146.944,-23.2802 142.698,-21.2066 150.719,-23.026 150.719,-23.026"/>
<text text-anchor="middle" x="73" y="-58.5" font-family="FreeSans" font-size="10.00" fill="#1c2021">organise</text>
</g>
</g>
</svg>
