<?xml version="1.0" encoding="UTF-8" standalone="no"?>
<!DOCTYPE svg PUBLIC "-//W3C//DTD SVG 1.1//EN"
 "http://www.w3.org/Graphics/SVG/1.1/DTD/svg11.dtd">
<!-- Generated by graphviz version 2.26.3 (20100126.1600)
 -->
<!-- Title: g Pages: 1 -->
<svg width="404pt" height="44pt"
 viewBox="0.00 0.00 404.00 44.00" xmlns="http://www.w3.org/2000/svg" xmlns:xlink="http://www.w3.org/1999/xlink">
<g id="graph1" class="graph" transform="scale(1 1) rotate(0) translate(4 40)">
<title>g</title>
<polygon fill="white" stroke="white" points="-4,5 -4,-40 401,-40 401,5 -4,5"/>
<!-- START -->
<g id="node1" class="node"><title>START</title>
<polygon fill="#ffffff" stroke="#ffffff" stroke-width="1.5" points="42,-36 12,-36 1.42109e-14,-24 7.10543e-15,-12 12,-1.46056e-14 42,-6.71068e-15 54,-12 54,-24 42,-36"/>
<path fill="#ffffff" stroke="#ffffff" stroke-width="1.5" d="M12,-36C6,-36 1.77636e-14,-30 1.42109e-14,-24"/>
<path fill="#ffffff" stroke="#ffffff" stroke-width="1.5" d="M7.10543e-15,-12C3.55271e-15,-6 6,-1.61846e-14 12,-1.46056e-14"/>
<path fill="#ffffff" stroke="#ffffff" stroke-width="1.5" d="M42,-6.71068e-15C48,-5.1317e-15 54,-6 54,-12"/>
<path fill="#ffffff" stroke="#ffffff" stroke-width="1.5" d="M54,-24C54,-30 48,-36 42,-36"/>
<polyline fill="none" stroke="#2e3436" stroke-width="1.5" points="42,-36 12,-36 "/>
<path fill="none" stroke="#2e3436" stroke-width="1.5" d="M12,-36C6,-36 1.77636e-14,-30 1.42109e-14,-24"/>
<polyline fill="none" stroke="#2e3436" stroke-width="1.5" points="1.42109e-14,-24 7.10543e-15,-12 "/>
<path fill="none" stroke="#2e3436" stroke-width="1.5" d="M7.10543e-15,-12C3.55271e-15,-6 6,-1.61846e-14 12,-1.46056e-14"/>
<polyline fill="none" stroke="#2e3436" stroke-width="1.5" points="12,-1.46056e-14 42,-6.71068e-15 "/>
<path fill="none" stroke="#2e3436" stroke-width="1.5" d="M42,-6.71068e-15C48,-5.1317e-15 54,-6 54,-12"/>
<polyline fill="none" stroke="#2e3436" stroke-width="1.5" points="54,-12 54,-24 "/>
<path fill="none" stroke="#2e3436" stroke-width="1.5" d="M54,-24C54,-30 48,-36 42,-36"/>
</g>
<!-- MIDDLE -->
<g id="node2" class="node"><title>MIDDLE</title>
<polygon fill="#fcee7d" stroke="#fcee7d" stroke-width="1.5" points="214,-36 184,-36 172,-24 172,-12 184,-1.46056e-14 214,-6.71068e-15 226,-12 226,-24 214,-36"/>
<path fill="#fcee7d" stroke="#fcee7d" stroke-width="1.5" d="M184,-36C178,-36 172,-30 172,-24"/>
<path fill="#fcee7d" stroke="#fcee7d" stroke-width="1.5" d="M172,-12C172,-6 178,-1.61846e-14 184,-1.46056e-14"/>
<path fill="#fcee7d" stroke="#fcee7d" stroke-width="1.5" d="M214,-6.71068e-15C220,-5.1317e-15 226,-6 226,-12"/>
<path fill="#fcee7d" stroke="#fcee7d" stroke-width="1.5" d="M226,-24C226,-30 220,-36 214,-36"/>
<polyline fill="none" stroke="#2e3436" stroke-width="1.5" points="214,-36 184,-36 "/>
<path fill="none" stroke="#2e3436" stroke-width="1.5" d="M184,-36C178,-36 172,-30 172,-24"/>
<polyline fill="none" stroke="#2e3436" stroke-width="1.5" points="172,-24 172,-12 "/>
<path fill="none" stroke="#2e3436" stroke-width="1.5" d="M172,-12C172,-6 178,-1.61846e-14 184,-1.46056e-14"/>
<polyline fill="none" stroke="#2e3436" stroke-width="1.5" points="184,-1.46056e-14 214,-6.71068e-15 "/>
<path fill="none" stroke="#2e3436" stroke-width="1.5" d="M214,-6.71068e-15C220,-5.1317e-15 226,-6 226,-12"/>
<polyline fill="none" stroke="#2e3436" stroke-width="1.5" points="226,-12 226,-24 "/>
<path fill="none" stroke="#2e3436" stroke-width="1.5" d="M226,-24C226,-30 220,-36 214,-36"/>
<text text-anchor="middle" x="199" y="-15.5" font-family="FreeSans" font-size="10.00" fill="#1c2021">Noeud</text>
</g>
<!-- START&#45;&gt;MIDDLE -->
<g id="edge4" class="edge"><title>START&#45;&gt;MIDDLE</title>
<path fill="none" stroke="#2e3436" stroke-width="2" d="M54.2539,-18C83.9444,-18 131.529,-18 163.972,-18"/>
<polygon fill="#2e3436" stroke="#2e3436" points="171.874,-18 164.374,-21.3751 168.124,-18.5 164.374,-18.5001 164.374,-18.0001 164.374,-17.5001 168.124,-17.5 164.374,-14.6251 171.874,-18 171.874,-18"/>
<text text-anchor="middle" x="113" y="-22" font-family="FreeSans" font-size="10.00" fill="#1c2021">relation entrante</text>
</g>
<!-- END -->
<g id="node3" class="node"><title>END</title>
<polygon fill="#ffffff" stroke="#ffffff" stroke-width="1.5" points="384,-36 354,-36 342,-24 342,-12 354,-1.46056e-14 384,-6.71068e-15 396,-12 396,-24 384,-36"/>
<path fill="#ffffff" stroke="#ffffff" stroke-width="1.5" d="M354,-36C348,-36 342,-30 342,-24"/>
<path fill="#ffffff" stroke="#ffffff" stroke-width="1.5" d="M342,-12C342,-6 348,-1.61846e-14 354,-1.46056e-14"/>
<path fill="#ffffff" stroke="#ffffff" stroke-width="1.5" d="M384,-6.71068e-15C390,-5.1317e-15 396,-6 396,-12"/>
<path fill="#ffffff" stroke="#ffffff" stroke-width="1.5" d="M396,-24C396,-30 390,-36 384,-36"/>
<polyline fill="none" stroke="#2e3436" stroke-width="1.5" points="384,-36 354,-36 "/>
<path fill="none" stroke="#2e3436" stroke-width="1.5" d="M354,-36C348,-36 342,-30 342,-24"/>
<polyline fill="none" stroke="#2e3436" stroke-width="1.5" points="342,-24 342,-12 "/>
<path fill="none" stroke="#2e3436" stroke-width="1.5" d="M342,-12C342,-6 348,-1.61846e-14 354,-1.46056e-14"/>
<polyline fill="none" stroke="#2e3436" stroke-width="1.5" points="354,-1.46056e-14 384,-6.71068e-15 "/>
<path fill="none" stroke="#2e3436" stroke-width="1.5" d="M384,-6.71068e-15C390,-5.1317e-15 396,-6 396,-12"/>
<polyline fill="none" stroke="#2e3436" stroke-width="1.5" points="396,-12 396,-24 "/>
<path fill="none" stroke="#2e3436" stroke-width="1.5" d="M396,-24C396,-30 390,-36 384,-36"/>
</g>
<!-- MIDDLE&#45;&gt;END -->
<g id="edge2" class="edge"><title>MIDDLE&#45;&gt;END</title>
<path fill="none" stroke="#2e3436" stroke-width="2" d="M226.313,-18C255.559,-18 302.055,-18 333.973,-18"/>
<polygon fill="#2e3436" stroke="#2e3436" points="341.754,-18 334.254,-21.3751 338.004,-18.5 334.254,-18.5001 334.254,-18.0001 334.254,-17.5001 338.004,-17.5 334.254,-14.6251 341.754,-18 341.754,-18"/>
<text text-anchor="middle" x="284" y="-22" font-family="FreeSans" font-size="10.00" fill="#1c2021">relation sortante</text>
</g>
</g>
</svg>
