<?xml version="1.0" encoding="UTF-8" standalone="no"?>
<!DOCTYPE svg PUBLIC "-//W3C//DTD SVG 1.1//EN"
 "http://www.w3.org/Graphics/SVG/1.1/DTD/svg11.dtd">
<!-- Generated by graphviz version 2.26.3 (20100126.1600)
 -->
<!-- Title: g Pages: 1 -->
<svg width="215pt" height="302pt"
 viewBox="0.00 0.00 215.00 302.00" xmlns="http://www.w3.org/2000/svg" xmlns:xlink="http://www.w3.org/1999/xlink">
<g id="graph1" class="graph" transform="scale(1 1) rotate(0) translate(4 298)">
<title>g</title>
<polygon fill="white" stroke="white" points="-4,5 -4,-298 212,-298 212,5 -4,5"/>
<!-- Indexs -->
<g id="node1" class="node"><title>Indexs</title>
<polygon fill="#a8e270" stroke="#a8e270" stroke-width="1.5" points="131,-294 101,-294 89,-282 89,-270 101,-258 131,-258 143,-270 143,-282 131,-294"/>
<path fill="#a8e270" stroke="#a8e270" stroke-width="1.5" d="M101,-294C95,-294 89,-288 89,-282"/>
<path fill="#a8e270" stroke="#a8e270" stroke-width="1.5" d="M89,-270C89,-264 95,-258 101,-258"/>
<path fill="#a8e270" stroke="#a8e270" stroke-width="1.5" d="M131,-258C137,-258 143,-264 143,-270"/>
<path fill="#a8e270" stroke="#a8e270" stroke-width="1.5" d="M143,-282C143,-288 137,-294 131,-294"/>
<polyline fill="none" stroke="#2e3436" stroke-width="1.5" points="131,-294 101,-294 "/>
<path fill="none" stroke="#2e3436" stroke-width="1.5" d="M101,-294C95,-294 89,-288 89,-282"/>
<polyline fill="none" stroke="#2e3436" stroke-width="1.5" points="89,-282 89,-270 "/>
<path fill="none" stroke="#2e3436" stroke-width="1.5" d="M89,-270C89,-264 95,-258 101,-258"/>
<polyline fill="none" stroke="#2e3436" stroke-width="1.5" points="101,-258 131,-258 "/>
<path fill="none" stroke="#2e3436" stroke-width="1.5" d="M131,-258C137,-258 143,-264 143,-270"/>
<polyline fill="none" stroke="#2e3436" stroke-width="1.5" points="143,-270 143,-282 "/>
<path fill="none" stroke="#2e3436" stroke-width="1.5" d="M143,-282C143,-288 137,-294 131,-294"/>
<text text-anchor="middle" x="116" y="-273.5" font-family="FreeSans" font-size="10.00" fill="#1c2021">Indexs</text>
</g>
<!-- Relations -->
<g id="node2" class="node"><title>Relations</title>
<polygon fill="#fadcad" stroke="#fadcad" stroke-width="1.5" points="46,-208 12,-208 1.42109e-14,-196 7.10543e-15,-184 12,-172 46,-172 58,-184 58,-196 46,-208"/>
<path fill="#fadcad" stroke="#fadcad" stroke-width="1.5" d="M12,-208C6,-208 1.77636e-14,-202 1.42109e-14,-196"/>
<path fill="#fadcad" stroke="#fadcad" stroke-width="1.5" d="M7.10543e-15,-184C3.55271e-15,-178 6,-172 12,-172"/>
<path fill="#fadcad" stroke="#fadcad" stroke-width="1.5" d="M46,-172C52,-172 58,-178 58,-184"/>
<path fill="#fadcad" stroke="#fadcad" stroke-width="1.5" d="M58,-196C58,-202 52,-208 46,-208"/>
<polyline fill="none" stroke="#2e3436" stroke-width="1.5" points="46,-208 12,-208 "/>
<path fill="none" stroke="#2e3436" stroke-width="1.5" d="M12,-208C6,-208 1.77636e-14,-202 1.42109e-14,-196"/>
<polyline fill="none" stroke="#2e3436" stroke-width="1.5" points="1.42109e-14,-196 7.10543e-15,-184 "/>
<path fill="none" stroke="#2e3436" stroke-width="1.5" d="M7.10543e-15,-184C3.55271e-15,-178 6,-172 12,-172"/>
<polyline fill="none" stroke="#2e3436" stroke-width="1.5" points="12,-172 46,-172 "/>
<path fill="none" stroke="#2e3436" stroke-width="1.5" d="M46,-172C52,-172 58,-178 58,-184"/>
<polyline fill="none" stroke="#2e3436" stroke-width="1.5" points="58,-184 58,-196 "/>
<path fill="none" stroke="#2e3436" stroke-width="1.5" d="M58,-196C58,-202 52,-208 46,-208"/>
<text text-anchor="middle" x="29" y="-187.5" font-family="FreeSans" font-size="10.00" fill="#1c2021">Relations</text>
</g>
<!-- Indexs&#45;&gt;Relations -->
<g id="edge10" class="edge"><title>Indexs&#45;&gt;Relations</title>
<path fill="none" stroke="#2e3436" stroke-width="2" d="M88.9428,-259.923C80.4625,-254.211 71.395,-247.357 64,-240 56.4576,-232.497 49.4476,-223.188 43.7126,-214.643"/>
<polygon fill="#2e3436" stroke="#2e3436" points="39.5878,-208.301 46.5063,-212.749 42.0516,-211.172 44.0962,-214.316 43.677,-214.589 43.2579,-214.861 41.2133,-211.718 40.8478,-216.429 39.5878,-208.301 39.5878,-208.301"/>
<text text-anchor="middle" x="79" y="-230.5" font-family="FreeSans" font-size="10.00" fill="#1c2021">relie à</text>
</g>
<!-- Noeuds -->
<g id="node4" class="node"><title>Noeuds</title>
<polygon fill="#fadcad" stroke="#fadcad" stroke-width="1.5" points="131,-122 101,-122 89,-110 89,-98 101,-86 131,-86 143,-98 143,-110 131,-122"/>
<path fill="#fadcad" stroke="#fadcad" stroke-width="1.5" d="M101,-122C95,-122 89,-116 89,-110"/>
<path fill="#fadcad" stroke="#fadcad" stroke-width="1.5" d="M89,-98C89,-92 95,-86 101,-86"/>
<path fill="#fadcad" stroke="#fadcad" stroke-width="1.5" d="M131,-86C137,-86 143,-92 143,-98"/>
<path fill="#fadcad" stroke="#fadcad" stroke-width="1.5" d="M143,-110C143,-116 137,-122 131,-122"/>
<polyline fill="none" stroke="#2e3436" stroke-width="1.5" points="131,-122 101,-122 "/>
<path fill="none" stroke="#2e3436" stroke-width="1.5" d="M101,-122C95,-122 89,-116 89,-110"/>
<polyline fill="none" stroke="#2e3436" stroke-width="1.5" points="89,-110 89,-98 "/>
<path fill="none" stroke="#2e3436" stroke-width="1.5" d="M89,-98C89,-92 95,-86 101,-86"/>
<polyline fill="none" stroke="#2e3436" stroke-width="1.5" points="101,-86 131,-86 "/>
<path fill="none" stroke="#2e3436" stroke-width="1.5" d="M131,-86C137,-86 143,-92 143,-98"/>
<polyline fill="none" stroke="#2e3436" stroke-width="1.5" points="143,-98 143,-110 "/>
<path fill="none" stroke="#2e3436" stroke-width="1.5" d="M143,-110C143,-116 137,-122 131,-122"/>
<text text-anchor="middle" x="116" y="-101.5" font-family="FreeSans" font-size="10.00" fill="#1c2021">Noeuds</text>
</g>
<!-- Indexs&#45;&gt;Noeuds -->
<g id="edge8" class="edge"><title>Indexs&#45;&gt;Noeuds</title>
<path fill="none" stroke="#2e3436" stroke-width="2" d="M116,-257.918C116,-227.336 116,-165.293 116,-130.032"/>
<polygon fill="#2e3436" stroke="#2e3436" points="116,-122.098 119.375,-129.598 116.5,-125.848 116.5,-129.598 116,-129.598 115.5,-129.598 115.5,-125.848 112.625,-129.598 116,-122.098 116,-122.098"/>
<text text-anchor="middle" x="131" y="-187.5" font-family="FreeSans" font-size="10.00" fill="#1c2021">relie à</text>
</g>
<!-- Propriétés -->
<g id="node6" class="node"><title>Propriétés</title>
<polygon fill="#fadcad" stroke="#fadcad" stroke-width="1.5" points="176,-36 136,-36 124,-24 124,-12 136,-1.5099e-14 176,-6.21725e-15 188,-12 188,-24 176,-36"/>
<path fill="#fadcad" stroke="#fadcad" stroke-width="1.5" d="M136,-36C130,-36 124,-30 124,-24"/>
<path fill="#fadcad" stroke="#fadcad" stroke-width="1.5" d="M124,-12C124,-6 130,-1.64313e-14 136,-1.5099e-14"/>
<path fill="#fadcad" stroke="#fadcad" stroke-width="1.5" d="M176,-6.21725e-15C182,-4.88498e-15 188,-6 188,-12"/>
<path fill="#fadcad" stroke="#fadcad" stroke-width="1.5" d="M188,-24C188,-30 182,-36 176,-36"/>
<polyline fill="none" stroke="#2e3436" stroke-width="1.5" points="176,-36 136,-36 "/>
<path fill="none" stroke="#2e3436" stroke-width="1.5" d="M136,-36C130,-36 124,-30 124,-24"/>
<polyline fill="none" stroke="#2e3436" stroke-width="1.5" points="124,-24 124,-12 "/>
<path fill="none" stroke="#2e3436" stroke-width="1.5" d="M124,-12C124,-6 130,-1.64313e-14 136,-1.5099e-14"/>
<polyline fill="none" stroke="#2e3436" stroke-width="1.5" points="136,-1.5099e-14 176,-6.21725e-15 "/>
<path fill="none" stroke="#2e3436" stroke-width="1.5" d="M176,-6.21725e-15C182,-4.88498e-15 188,-6 188,-12"/>
<polyline fill="none" stroke="#2e3436" stroke-width="1.5" points="188,-12 188,-24 "/>
<path fill="none" stroke="#2e3436" stroke-width="1.5" d="M188,-24C188,-30 182,-36 176,-36"/>
<text text-anchor="middle" x="156" y="-15.5" font-family="FreeSans" font-size="10.00" fill="#1c2021">Propriétés</text>
</g>
<!-- Indexs&#45;&gt;Propriétés -->
<g id="edge12" class="edge"><title>Indexs&#45;&gt;Propriétés</title>
<path fill="none" stroke="#2e3436" stroke-width="2" d="M128.669,-257.896C137.171,-244.71 147.744,-226.067 153,-208 170.524,-147.763 166.992,-130.606 171,-68 171.398,-61.7905 172.22,-60.1014 171,-54 170.29,-50.4521 169.223,-46.8168 167.979,-43.2851"/>
<polygon fill="#2e3436" stroke="#2e3436" points="165.234,-36.2427 171.103,-42.0048 167.062,-39.555 168.424,-43.049 167.958,-43.2306 167.492,-43.4122 166.13,-39.9182 164.814,-44.4563 165.234,-36.2427 165.234,-36.2427"/>
<text text-anchor="middle" x="186.5" y="-144.5" font-family="FreeSans" font-size="10.00" fill="#1c2021">relié des</text>
</g>
<!-- Relations&#45;&gt;Noeuds -->
<g id="edge2" class="edge"><title>Relations&#45;&gt;Noeuds</title>
<path fill="none" stroke="#2e3436" stroke-width="2" d="M34.2827,-171.744C37.9602,-161.492 43.7102,-148.992 52,-140 60.2932,-131.004 71.3636,-123.693 81.9632,-118.069"/>
<polygon fill="#2e3436" stroke="#2e3436" points="88.8267,-114.615 83.644,-121.001 85.7016,-116.748 82.3517,-118.433 82.127,-117.986 81.9023,-117.54 85.2521,-115.854 80.61,-114.972 88.8267,-114.615 88.8267,-114.615"/>
<text text-anchor="middle" x="73" y="-144.5" font-family="FreeSans" font-size="10.00" fill="#1c2021">organise</text>
</g>
<!-- Relations&#45;&gt;Propriétés -->
<g id="edge6" class="edge"><title>Relations&#45;&gt;Propriétés</title>
<path fill="none" stroke="#2e3436" stroke-width="2" d="M25.1275,-171.893C21.445,-149.823 18.6192,-112.232 35,-86 53.2191,-56.8244 88.7408,-39.0431 116.605,-29.0204"/>
<polygon fill="#2e3436" stroke="#2e3436" points="123.874,-26.5167 117.882,-32.1503 120.491,-28.2107 116.945,-29.432 116.782,-28.9593 116.62,-28.4865 120.165,-27.2652 115.683,-25.7683 123.874,-26.5167 123.874,-26.5167"/>
<text text-anchor="middle" x="55" y="-101.5" font-family="FreeSans" font-size="10.00" fill="#1c2021">contient</text>
</g>
<!-- Noeuds&#45;&gt;Propriétés -->
<g id="edge4" class="edge"><title>Noeuds&#45;&gt;Propriétés</title>
<path fill="none" stroke="#2e3436" stroke-width="2" d="M118.454,-85.7852C120.237,-76.0184 123.202,-63.9757 128,-54 129.935,-49.9774 132.375,-45.9806 135.005,-42.1934"/>
<polygon fill="#2e3436" stroke="#2e3436" points="139.553,-36.0501 137.803,-44.0862 137.723,-39.3615 135.492,-42.3755 135.09,-42.0779 134.688,-41.7804 136.92,-38.7665 132.378,-40.0697 139.553,-36.0501 139.553,-36.0501"/>
<text text-anchor="middle" x="148" y="-58.5" font-family="FreeSans" font-size="10.00" fill="#1c2021">contient</text>
</g>
</g>
</svg>
