<?xml version="1.0" encoding="UTF-8" standalone="no"?>
<!DOCTYPE svg PUBLIC "-//W3C//DTD SVG 1.1//EN"
 "http://www.w3.org/Graphics/SVG/1.1/DTD/svg11.dtd">
<!-- Generated by graphviz version 2.26.3 (20100126.1600)
 -->
<!-- Title: g Pages: 1 -->
<svg width="504pt" height="102pt"
 viewBox="0.00 0.00 504.00 101.58" xmlns="http://www.w3.org/2000/svg" xmlns:xlink="http://www.w3.org/1999/xlink">
<g id="graph1" class="graph" transform="scale(0.781395 0.781395) rotate(0) translate(4 126)">
<title>g</title>
<polygon fill="white" stroke="white" points="-4,5 -4,-126 642,-126 642,5 -4,5"/>
<!-- Une Relation -->
<g id="node1" class="node"><title>Une Relation</title>
<polygon fill="#a8e270" stroke="#a8e270" stroke-width="1.5" points="259,-122 207,-122 195,-110 195,-98 207,-86 259,-86 271,-98 271,-110 259,-122"/>
<path fill="#a8e270" stroke="#a8e270" stroke-width="1.5" d="M207,-122C201,-122 195,-116 195,-110"/>
<path fill="#a8e270" stroke="#a8e270" stroke-width="1.5" d="M195,-98C195,-92 201,-86 207,-86"/>
<path fill="#a8e270" stroke="#a8e270" stroke-width="1.5" d="M259,-86C265,-86 271,-92 271,-98"/>
<path fill="#a8e270" stroke="#a8e270" stroke-width="1.5" d="M271,-110C271,-116 265,-122 259,-122"/>
<polyline fill="none" stroke="#2e3436" stroke-width="1.5" points="259,-122 207,-122 "/>
<path fill="none" stroke="#2e3436" stroke-width="1.5" d="M207,-122C201,-122 195,-116 195,-110"/>
<polyline fill="none" stroke="#2e3436" stroke-width="1.5" points="195,-110 195,-98 "/>
<path fill="none" stroke="#2e3436" stroke-width="1.5" d="M195,-98C195,-92 201,-86 207,-86"/>
<polyline fill="none" stroke="#2e3436" stroke-width="1.5" points="207,-86 259,-86 "/>
<path fill="none" stroke="#2e3436" stroke-width="1.5" d="M259,-86C265,-86 271,-92 271,-98"/>
<polyline fill="none" stroke="#2e3436" stroke-width="1.5" points="271,-98 271,-110 "/>
<path fill="none" stroke="#2e3436" stroke-width="1.5" d="M271,-110C271,-116 265,-122 259,-122"/>
<text text-anchor="middle" x="233" y="-101.5" font-family="FreeSans" font-size="10.00" fill="#1c2021">Une Relation</text>
</g>
<!-- Noeud de départ -->
<g id="node3" class="node"><title>Noeud de départ</title>
<polygon fill="#fadcad" stroke="#fadcad" stroke-width="1.5" points="86,-36 12,-36 2.84217e-14,-24 1.42109e-14,-12 12,-1.60235e-14 86,-5.29282e-15 98,-12 98,-24 86,-36"/>
<path fill="#fadcad" stroke="#fadcad" stroke-width="1.5" d="M12,-36C6,-36 3.55271e-14,-30 2.84217e-14,-24"/>
<path fill="#fadcad" stroke="#fadcad" stroke-width="1.5" d="M1.42109e-14,-12C7.10543e-15,-6 6,-1.68935e-14 12,-1.60235e-14"/>
<path fill="#fadcad" stroke="#fadcad" stroke-width="1.5" d="M86,-5.29282e-15C92,-4.42277e-15 98,-6 98,-12"/>
<path fill="#fadcad" stroke="#fadcad" stroke-width="1.5" d="M98,-24C98,-30 92,-36 86,-36"/>
<polyline fill="none" stroke="#2e3436" stroke-width="1.5" points="86,-36 12,-36 "/>
<path fill="none" stroke="#2e3436" stroke-width="1.5" d="M12,-36C6,-36 3.55271e-14,-30 2.84217e-14,-24"/>
<polyline fill="none" stroke="#2e3436" stroke-width="1.5" points="2.84217e-14,-24 1.42109e-14,-12 "/>
<path fill="none" stroke="#2e3436" stroke-width="1.5" d="M1.42109e-14,-12C7.10543e-15,-6 6,-1.68935e-14 12,-1.60235e-14"/>
<polyline fill="none" stroke="#2e3436" stroke-width="1.5" points="12,-1.60235e-14 86,-5.29282e-15 "/>
<path fill="none" stroke="#2e3436" stroke-width="1.5" d="M86,-5.29282e-15C92,-4.42277e-15 98,-6 98,-12"/>
<polyline fill="none" stroke="#2e3436" stroke-width="1.5" points="98,-12 98,-24 "/>
<path fill="none" stroke="#2e3436" stroke-width="1.5" d="M98,-24C98,-30 92,-36 86,-36"/>
<text text-anchor="middle" x="49" y="-15.5" font-family="FreeSans" font-size="10.00" fill="#1c2021">Noeud de départ</text>
</g>
<!-- Une Relation&#45;&gt;Noeud de départ -->
<g id="edge2" class="edge"><title>Une Relation&#45;&gt;Noeud de départ</title>
<path fill="none" stroke="#2e3436" stroke-width="2" d="M194.875,-86.1807C165.712,-72.5503 125.398,-53.7078 94.5395,-39.2848"/>
<polygon fill="#2e3436" stroke="#2e3436" points="87.7091,-36.0923 95.9327,-36.2105 91.3181,-37.2272 94.7153,-38.8151 94.5036,-39.268 94.2919,-39.721 90.8947,-38.1331 93.0745,-42.3256 87.7091,-36.0923 87.7091,-36.0923"/>
<text text-anchor="middle" x="164" y="-58.5" font-family="FreeSans" font-size="10.00" fill="#1c2021">a un</text>
</g>
<!-- Noeud d&#39;arrivée -->
<g id="node5" class="node"><title>Noeud d&#39;arrivée</title>
<polygon fill="#fadcad" stroke="#fadcad" stroke-width="1.5" points="207,-36 139,-36 127,-24 127,-12 139,-1.591e-14 207,-5.4063e-15 219,-12 219,-24 207,-36"/>
<path fill="#fadcad" stroke="#fadcad" stroke-width="1.5" d="M139,-36C133,-36 127,-30 127,-24"/>
<path fill="#fadcad" stroke="#fadcad" stroke-width="1.5" d="M127,-12C127,-6 133,-1.68368e-14 139,-1.591e-14"/>
<path fill="#fadcad" stroke="#fadcad" stroke-width="1.5" d="M207,-5.4063e-15C213,-4.47951e-15 219,-6 219,-12"/>
<path fill="#fadcad" stroke="#fadcad" stroke-width="1.5" d="M219,-24C219,-30 213,-36 207,-36"/>
<polyline fill="none" stroke="#2e3436" stroke-width="1.5" points="207,-36 139,-36 "/>
<path fill="none" stroke="#2e3436" stroke-width="1.5" d="M139,-36C133,-36 127,-30 127,-24"/>
<polyline fill="none" stroke="#2e3436" stroke-width="1.5" points="127,-24 127,-12 "/>
<path fill="none" stroke="#2e3436" stroke-width="1.5" d="M127,-12C127,-6 133,-1.68368e-14 139,-1.591e-14"/>
<polyline fill="none" stroke="#2e3436" stroke-width="1.5" points="139,-1.591e-14 207,-5.4063e-15 "/>
<path fill="none" stroke="#2e3436" stroke-width="1.5" d="M207,-5.4063e-15C213,-4.47951e-15 219,-6 219,-12"/>
<polyline fill="none" stroke="#2e3436" stroke-width="1.5" points="219,-12 219,-24 "/>
<path fill="none" stroke="#2e3436" stroke-width="1.5" d="M219,-24C219,-30 213,-36 207,-36"/>
<text text-anchor="middle" x="173" y="-15.5" font-family="FreeSans" font-size="10.00" fill="#1c2021">Noeud d&#39;arrivée</text>
</g>
<!-- Une Relation&#45;&gt;Noeud d&#39;arrivée -->
<g id="edge4" class="edge"><title>Une Relation&#45;&gt;Noeud d&#39;arrivée</title>
<path fill="none" stroke="#2e3436" stroke-width="2" d="M220.276,-85.7616C211.525,-73.2195 199.8,-56.4138 190.217,-42.677"/>
<polygon fill="#2e3436" stroke="#2e3436" points="185.706,-36.2121 192.765,-40.4319 188.262,-39.0015 190.408,-42.077 189.998,-42.3631 189.587,-42.6492 187.442,-39.5737 187.23,-44.2942 185.706,-36.2121 185.706,-36.2121"/>
<text text-anchor="middle" x="218" y="-58.5" font-family="FreeSans" font-size="10.00" fill="#1c2021">a un</text>
</g>
<!-- Type de relation -->
<g id="node7" class="node"><title>Type de relation</title>
<polygon fill="#fadcad" stroke="#fadcad" stroke-width="1.5" points="328,-36 260,-36 248,-24 248,-12 260,-1.591e-14 328,-5.4063e-15 340,-12 340,-24 328,-36"/>
<path fill="#fadcad" stroke="#fadcad" stroke-width="1.5" d="M260,-36C254,-36 248,-30 248,-24"/>
<path fill="#fadcad" stroke="#fadcad" stroke-width="1.5" d="M248,-12C248,-6 254,-1.68368e-14 260,-1.591e-14"/>
<path fill="#fadcad" stroke="#fadcad" stroke-width="1.5" d="M328,-5.4063e-15C334,-4.47951e-15 340,-6 340,-12"/>
<path fill="#fadcad" stroke="#fadcad" stroke-width="1.5" d="M340,-24C340,-30 334,-36 328,-36"/>
<polyline fill="none" stroke="#2e3436" stroke-width="1.5" points="328,-36 260,-36 "/>
<path fill="none" stroke="#2e3436" stroke-width="1.5" d="M260,-36C254,-36 248,-30 248,-24"/>
<polyline fill="none" stroke="#2e3436" stroke-width="1.5" points="248,-24 248,-12 "/>
<path fill="none" stroke="#2e3436" stroke-width="1.5" d="M248,-12C248,-6 254,-1.68368e-14 260,-1.591e-14"/>
<polyline fill="none" stroke="#2e3436" stroke-width="1.5" points="260,-1.591e-14 328,-5.4063e-15 "/>
<path fill="none" stroke="#2e3436" stroke-width="1.5" d="M328,-5.4063e-15C334,-4.47951e-15 340,-6 340,-12"/>
<polyline fill="none" stroke="#2e3436" stroke-width="1.5" points="340,-12 340,-24 "/>
<path fill="none" stroke="#2e3436" stroke-width="1.5" d="M340,-24C340,-30 334,-36 328,-36"/>
<text text-anchor="middle" x="294" y="-15.5" font-family="FreeSans" font-size="10.00" fill="#1c2021">Type de relation</text>
</g>
<!-- Une Relation&#45;&gt;Type de relation -->
<g id="edge6" class="edge"><title>Une Relation&#45;&gt;Type de relation</title>
<path fill="none" stroke="#2e3436" stroke-width="2" d="M245.937,-85.7616C254.833,-73.2195 266.753,-56.4138 276.497,-42.677"/>
<polygon fill="#2e3436" stroke="#2e3436" points="281.082,-36.2121 279.496,-44.2821 279.32,-39.5601 277.151,-42.6188 276.743,-42.3295 276.335,-42.0402 278.505,-38.9815 273.99,-40.3769 281.082,-36.2121 281.082,-36.2121"/>
<text text-anchor="middle" x="278" y="-58.5" font-family="FreeSans" font-size="10.00" fill="#1c2021">a un</text>
</g>
<!-- Properités -->
<g id="node9" class="node"><title>Properités</title>
<polygon fill="#fadcad" stroke="#fadcad" stroke-width="1.5" points="421,-36 381,-36 369,-24 369,-12 381,-1.5099e-14 421,-6.21725e-15 433,-12 433,-24 421,-36"/>
<path fill="#fadcad" stroke="#fadcad" stroke-width="1.5" d="M381,-36C375,-36 369,-30 369,-24"/>
<path fill="#fadcad" stroke="#fadcad" stroke-width="1.5" d="M369,-12C369,-6 375,-1.64313e-14 381,-1.5099e-14"/>
<path fill="#fadcad" stroke="#fadcad" stroke-width="1.5" d="M421,-6.21725e-15C427,-4.88498e-15 433,-6 433,-12"/>
<path fill="#fadcad" stroke="#fadcad" stroke-width="1.5" d="M433,-24C433,-30 427,-36 421,-36"/>
<polyline fill="none" stroke="#2e3436" stroke-width="1.5" points="421,-36 381,-36 "/>
<path fill="none" stroke="#2e3436" stroke-width="1.5" d="M381,-36C375,-36 369,-30 369,-24"/>
<polyline fill="none" stroke="#2e3436" stroke-width="1.5" points="369,-24 369,-12 "/>
<path fill="none" stroke="#2e3436" stroke-width="1.5" d="M369,-12C369,-6 375,-1.64313e-14 381,-1.5099e-14"/>
<polyline fill="none" stroke="#2e3436" stroke-width="1.5" points="381,-1.5099e-14 421,-6.21725e-15 "/>
<path fill="none" stroke="#2e3436" stroke-width="1.5" d="M421,-6.21725e-15C427,-4.88498e-15 433,-6 433,-12"/>
<polyline fill="none" stroke="#2e3436" stroke-width="1.5" points="433,-12 433,-24 "/>
<path fill="none" stroke="#2e3436" stroke-width="1.5" d="M433,-24C433,-30 427,-36 421,-36"/>
<text text-anchor="middle" x="401" y="-15.5" font-family="FreeSans" font-size="10.00" fill="#1c2021">Properités</text>
</g>
<!-- Une Relation&#45;&gt;Properités -->
<g id="edge8" class="edge"><title>Une Relation&#45;&gt;Properités</title>
<path fill="none" stroke="#2e3436" stroke-width="2" d="M268.218,-85.9716C295.627,-71.9412 333.638,-52.4827 361.971,-37.9792"/>
<polygon fill="#2e3436" stroke="#2e3436" points="368.953,-34.4049 363.815,-40.8268 365.843,-36.5588 362.505,-38.2676 362.277,-37.8225 362.049,-37.3774 365.387,-35.6686 360.739,-34.8183 368.953,-34.4049 368.953,-34.4049"/>
<text text-anchor="middle" x="361.5" y="-58.5" font-family="FreeSans" font-size="10.00" fill="#1c2021">peut avoir des</text>
</g>
<!-- Type de Relation -->
<g id="node10" class="node"><title>Type de Relation</title>
<polygon fill="#fadcad" stroke="#fadcad" stroke-width="1.5" points="538,-122 470,-122 458,-110 458,-98 470,-86 538,-86 550,-98 550,-110 538,-122"/>
<path fill="#fadcad" stroke="#fadcad" stroke-width="1.5" d="M470,-122C464,-122 458,-116 458,-110"/>
<path fill="#fadcad" stroke="#fadcad" stroke-width="1.5" d="M458,-98C458,-92 464,-86 470,-86"/>
<path fill="#fadcad" stroke="#fadcad" stroke-width="1.5" d="M538,-86C544,-86 550,-92 550,-98"/>
<path fill="#fadcad" stroke="#fadcad" stroke-width="1.5" d="M550,-110C550,-116 544,-122 538,-122"/>
<polyline fill="none" stroke="#2e3436" stroke-width="1.5" points="538,-122 470,-122 "/>
<path fill="none" stroke="#2e3436" stroke-width="1.5" d="M470,-122C464,-122 458,-116 458,-110"/>
<polyline fill="none" stroke="#2e3436" stroke-width="1.5" points="458,-110 458,-98 "/>
<path fill="none" stroke="#2e3436" stroke-width="1.5" d="M458,-98C458,-92 464,-86 470,-86"/>
<polyline fill="none" stroke="#2e3436" stroke-width="1.5" points="470,-86 538,-86 "/>
<path fill="none" stroke="#2e3436" stroke-width="1.5" d="M538,-86C544,-86 550,-92 550,-98"/>
<polyline fill="none" stroke="#2e3436" stroke-width="1.5" points="550,-98 550,-110 "/>
<path fill="none" stroke="#2e3436" stroke-width="1.5" d="M550,-110C550,-116 544,-122 538,-122"/>
<text text-anchor="middle" x="504" y="-101.5" font-family="FreeSans" font-size="10.00" fill="#1c2021">Type de Relation</text>
</g>
<!-- Nom -->
<g id="node12" class="node"><title>Nom</title>
<polygon fill="#fadcad" stroke="#fadcad" stroke-width="1.5" points="519,-36 489,-36 477,-24 477,-12 489,-1.46056e-14 519,-6.71068e-15 531,-12 531,-24 519,-36"/>
<path fill="#fadcad" stroke="#fadcad" stroke-width="1.5" d="M489,-36C483,-36 477,-30 477,-24"/>
<path fill="#fadcad" stroke="#fadcad" stroke-width="1.5" d="M477,-12C477,-6 483,-1.61846e-14 489,-1.46056e-14"/>
<path fill="#fadcad" stroke="#fadcad" stroke-width="1.5" d="M519,-6.71068e-15C525,-5.1317e-15 531,-6 531,-12"/>
<path fill="#fadcad" stroke="#fadcad" stroke-width="1.5" d="M531,-24C531,-30 525,-36 519,-36"/>
<polyline fill="none" stroke="#2e3436" stroke-width="1.5" points="519,-36 489,-36 "/>
<path fill="none" stroke="#2e3436" stroke-width="1.5" d="M489,-36C483,-36 477,-30 477,-24"/>
<polyline fill="none" stroke="#2e3436" stroke-width="1.5" points="477,-24 477,-12 "/>
<path fill="none" stroke="#2e3436" stroke-width="1.5" d="M477,-12C477,-6 483,-1.61846e-14 489,-1.46056e-14"/>
<polyline fill="none" stroke="#2e3436" stroke-width="1.5" points="489,-1.46056e-14 519,-6.71068e-15 "/>
<path fill="none" stroke="#2e3436" stroke-width="1.5" d="M519,-6.71068e-15C525,-5.1317e-15 531,-6 531,-12"/>
<polyline fill="none" stroke="#2e3436" stroke-width="1.5" points="531,-12 531,-24 "/>
<path fill="none" stroke="#2e3436" stroke-width="1.5" d="M531,-24C531,-30 525,-36 519,-36"/>
<text text-anchor="middle" x="504" y="-15.5" font-family="FreeSans" font-size="10.00" fill="#1c2021">Nom</text>
</g>
<!-- Type de Relation&#45;&gt;Nom -->
<g id="edge10" class="edge"><title>Type de Relation&#45;&gt;Nom</title>
<path fill="none" stroke="#2e3436" stroke-width="2" d="M504,-85.7616C504,-73.5615 504,-57.3273 504,-43.8076"/>
<polygon fill="#2e3436" stroke="#2e3436" points="504,-36.2121 507.375,-43.7121 504.5,-39.9621 504.5,-43.7121 504,-43.7121 503.5,-43.7121 503.5,-39.9621 500.625,-43.7121 504,-36.2121 504,-36.2121"/>
<text text-anchor="middle" x="570.5" y="-58.5" font-family="FreeSans" font-size="10.00" fill="#1c2021">identifié uniquement par un</text>
</g>
</g>
</svg>
