<?xml version="1.0" encoding="UTF-8" standalone="no"?>
<!DOCTYPE svg PUBLIC "-//W3C//DTD SVG 1.1//EN"
 "http://www.w3.org/Graphics/SVG/1.1/DTD/svg11.dtd">
<!-- Generated by graphviz version 2.26.3 (20100126.1600)
 -->
<!-- Title: g Pages: 1 -->
<svg width="156pt" height="216pt"
 viewBox="0.00 0.00 156.00 216.00" xmlns="http://www.w3.org/2000/svg" xmlns:xlink="http://www.w3.org/1999/xlink">
<g id="graph1" class="graph" transform="scale(1 1) rotate(0) translate(4 212)">
<title>g</title>
<polygon fill="white" stroke="white" points="-4,5 -4,-212 153,-212 153,5 -4,5"/>
<!-- Maja -->
<g id="node1" class="node"><title>Maja</title>
<polygon fill="#ffffff" stroke="#ffffff" stroke-width="1.5" points="42,-208 12,-208 1.42109e-14,-196 7.10543e-15,-184 12,-172 42,-172 54,-184 54,-196 42,-208"/>
<path fill="#ffffff" stroke="#ffffff" stroke-width="1.5" d="M12,-208C6,-208 1.77636e-14,-202 1.42109e-14,-196"/>
<path fill="#ffffff" stroke="#ffffff" stroke-width="1.5" d="M7.10543e-15,-184C3.55271e-15,-178 6,-172 12,-172"/>
<path fill="#ffffff" stroke="#ffffff" stroke-width="1.5" d="M42,-172C48,-172 54,-178 54,-184"/>
<path fill="#ffffff" stroke="#ffffff" stroke-width="1.5" d="M54,-196C54,-202 48,-208 42,-208"/>
<polyline fill="none" stroke="#2e3436" stroke-width="1.5" points="42,-208 12,-208 "/>
<path fill="none" stroke="#2e3436" stroke-width="1.5" d="M12,-208C6,-208 1.77636e-14,-202 1.42109e-14,-196"/>
<polyline fill="none" stroke="#2e3436" stroke-width="1.5" points="1.42109e-14,-196 7.10543e-15,-184 "/>
<path fill="none" stroke="#2e3436" stroke-width="1.5" d="M7.10543e-15,-184C3.55271e-15,-178 6,-172 12,-172"/>
<polyline fill="none" stroke="#2e3436" stroke-width="1.5" points="12,-172 42,-172 "/>
<path fill="none" stroke="#2e3436" stroke-width="1.5" d="M42,-172C48,-172 54,-178 54,-184"/>
<polyline fill="none" stroke="#2e3436" stroke-width="1.5" points="54,-184 54,-196 "/>
<path fill="none" stroke="#2e3436" stroke-width="1.5" d="M54,-196C54,-202 48,-208 42,-208"/>
<text text-anchor="middle" x="27" y="-187.5" font-family="FreeSans" font-size="10.00" fill="#1c2021">Maja</text>
</g>
<!-- Oscar -->
<g id="node3" class="node"><title>Oscar</title>
<polygon fill="#ffffff" stroke="#ffffff" stroke-width="1.5" points="84,-122 54,-122 42,-110 42,-98 54,-86 84,-86 96,-98 96,-110 84,-122"/>
<path fill="#ffffff" stroke="#ffffff" stroke-width="1.5" d="M54,-122C48,-122 42,-116 42,-110"/>
<path fill="#ffffff" stroke="#ffffff" stroke-width="1.5" d="M42,-98C42,-92 48,-86 54,-86"/>
<path fill="#ffffff" stroke="#ffffff" stroke-width="1.5" d="M84,-86C90,-86 96,-92 96,-98"/>
<path fill="#ffffff" stroke="#ffffff" stroke-width="1.5" d="M96,-110C96,-116 90,-122 84,-122"/>
<polyline fill="none" stroke="#2e3436" stroke-width="1.5" points="84,-122 54,-122 "/>
<path fill="none" stroke="#2e3436" stroke-width="1.5" d="M54,-122C48,-122 42,-116 42,-110"/>
<polyline fill="none" stroke="#2e3436" stroke-width="1.5" points="42,-110 42,-98 "/>
<path fill="none" stroke="#2e3436" stroke-width="1.5" d="M42,-98C42,-92 48,-86 54,-86"/>
<polyline fill="none" stroke="#2e3436" stroke-width="1.5" points="54,-86 84,-86 "/>
<path fill="none" stroke="#2e3436" stroke-width="1.5" d="M84,-86C90,-86 96,-92 96,-98"/>
<polyline fill="none" stroke="#2e3436" stroke-width="1.5" points="96,-98 96,-110 "/>
<path fill="none" stroke="#2e3436" stroke-width="1.5" d="M96,-110C96,-116 90,-122 84,-122"/>
<text text-anchor="middle" x="69" y="-101.5" font-family="FreeSans" font-size="10.00" fill="#1c2021">Oscar</text>
</g>
<!-- Maja&#45;&gt;Oscar -->
<g id="edge2" class="edge"><title>Maja&#45;&gt;Oscar</title>
<path fill="none" stroke="#2e3436" stroke-width="2" d="M16.5527,-171.613C12.4289,-161.796 9.77675,-149.76 15,-140 19.5274,-131.54 27.0179,-124.725 34.9993,-119.397"/>
<polygon fill="#2e3436" stroke="#2e3436" points="41.7648,-115.267 37.1216,-122.056 38.8245,-117.648 35.6237,-119.602 35.3632,-119.175 35.1027,-118.748 38.3035,-116.794 33.6048,-116.294 41.7648,-115.267 41.7648,-115.267"/>
<text text-anchor="middle" x="24" y="-144.5" font-family="FreeSans" font-size="10.00" fill="#1c2021">suit</text>
</g>
<!-- Oscar&#45;&gt;Maja -->
<g id="edge4" class="edge"><title>Oscar&#45;&gt;Maja</title>
<path fill="none" stroke="#2e3436" stroke-width="2" d="M60.1057,-122.212C54.0391,-134.634 45.9255,-151.248 39.249,-164.919"/>
<polygon fill="#2e3436" stroke="#2e3436" points="35.9071,-171.762 36.1658,-163.541 37.1035,-168.173 38.7492,-164.803 39.1984,-165.022 39.6477,-165.242 38.0021,-168.611 42.2311,-166.503 35.9071,-171.762 35.9071,-171.762"/>
<text text-anchor="middle" x="59" y="-144.5" font-family="FreeSans" font-size="10.00" fill="#1c2021">suit</text>
</g>
<!-- William -->
<g id="node8" class="node"><title>William</title>
<polygon fill="#ffffff" stroke="#ffffff" stroke-width="1.5" points="84,-36 54,-36 42,-24 42,-12 54,-1.46056e-14 84,-6.71068e-15 96,-12 96,-24 84,-36"/>
<path fill="#ffffff" stroke="#ffffff" stroke-width="1.5" d="M54,-36C48,-36 42,-30 42,-24"/>
<path fill="#ffffff" stroke="#ffffff" stroke-width="1.5" d="M42,-12C42,-6 48,-1.61846e-14 54,-1.46056e-14"/>
<path fill="#ffffff" stroke="#ffffff" stroke-width="1.5" d="M84,-6.71068e-15C90,-5.1317e-15 96,-6 96,-12"/>
<path fill="#ffffff" stroke="#ffffff" stroke-width="1.5" d="M96,-24C96,-30 90,-36 84,-36"/>
<polyline fill="none" stroke="#2e3436" stroke-width="1.5" points="84,-36 54,-36 "/>
<path fill="none" stroke="#2e3436" stroke-width="1.5" d="M54,-36C48,-36 42,-30 42,-24"/>
<polyline fill="none" stroke="#2e3436" stroke-width="1.5" points="42,-24 42,-12 "/>
<path fill="none" stroke="#2e3436" stroke-width="1.5" d="M42,-12C42,-6 48,-1.61846e-14 54,-1.46056e-14"/>
<polyline fill="none" stroke="#2e3436" stroke-width="1.5" points="54,-1.46056e-14 84,-6.71068e-15 "/>
<path fill="none" stroke="#2e3436" stroke-width="1.5" d="M84,-6.71068e-15C90,-5.1317e-15 96,-6 96,-12"/>
<polyline fill="none" stroke="#2e3436" stroke-width="1.5" points="96,-12 96,-24 "/>
<path fill="none" stroke="#2e3436" stroke-width="1.5" d="M96,-24C96,-30 90,-36 84,-36"/>
<text text-anchor="middle" x="69" y="-15.5" font-family="FreeSans" font-size="10.00" fill="#1c2021">William</text>
</g>
<!-- Oscar&#45;&gt;William -->
<g id="edge8" class="edge"><title>Oscar&#45;&gt;William</title>
<path fill="none" stroke="#a40000" stroke-width="2" d="M69,-85.7616C69,-73.5615 69,-57.3273 69,-43.8076"/>
<polygon fill="#a40000" stroke="#a40000" points="69,-36.2121 72.3751,-43.7121 69.5,-39.9621 69.5001,-43.7121 69.0001,-43.7121 68.5001,-43.7121 68.5,-39.9621 65.6251,-43.7121 69,-36.2121 69,-36.2121"/>
<text text-anchor="middle" x="85.5" y="-58.5" font-family="FreeSans" font-size="10.00" fill="#a40000">bloque</text>
</g>
<!-- Alice -->
<g id="node5" class="node"><title>Alice</title>
<polygon fill="#ffffff" stroke="#ffffff" stroke-width="1.5" points="136,-208 106,-208 94,-196 94,-184 106,-172 136,-172 148,-184 148,-196 136,-208"/>
<path fill="#ffffff" stroke="#ffffff" stroke-width="1.5" d="M106,-208C100,-208 94,-202 94,-196"/>
<path fill="#ffffff" stroke="#ffffff" stroke-width="1.5" d="M94,-184C94,-178 100,-172 106,-172"/>
<path fill="#ffffff" stroke="#ffffff" stroke-width="1.5" d="M136,-172C142,-172 148,-178 148,-184"/>
<path fill="#ffffff" stroke="#ffffff" stroke-width="1.5" d="M148,-196C148,-202 142,-208 136,-208"/>
<polyline fill="none" stroke="#2e3436" stroke-width="1.5" points="136,-208 106,-208 "/>
<path fill="none" stroke="#2e3436" stroke-width="1.5" d="M106,-208C100,-208 94,-202 94,-196"/>
<polyline fill="none" stroke="#2e3436" stroke-width="1.5" points="94,-196 94,-184 "/>
<path fill="none" stroke="#2e3436" stroke-width="1.5" d="M94,-184C94,-178 100,-172 106,-172"/>
<polyline fill="none" stroke="#2e3436" stroke-width="1.5" points="106,-172 136,-172 "/>
<path fill="none" stroke="#2e3436" stroke-width="1.5" d="M136,-172C142,-172 148,-178 148,-184"/>
<polyline fill="none" stroke="#2e3436" stroke-width="1.5" points="148,-184 148,-196 "/>
<path fill="none" stroke="#2e3436" stroke-width="1.5" d="M148,-196C148,-202 142,-208 136,-208"/>
<text text-anchor="middle" x="121" y="-187.5" font-family="FreeSans" font-size="10.00" fill="#1c2021">Alice</text>
</g>
<!-- Alice&#45;&gt;Oscar -->
<g id="edge6" class="edge"><title>Alice&#45;&gt;Oscar</title>
<path fill="none" stroke="#2e3436" stroke-width="2" d="M109.972,-171.762C102.389,-159.219 92.227,-142.414 83.921,-128.677"/>
<polygon fill="#2e3436" stroke="#2e3436" points="80.012,-122.212 86.7808,-126.884 82.3802,-125.162 84.3205,-128.371 83.8927,-128.63 83.4648,-128.889 81.5244,-125.68 81.0046,-130.376 80.012,-122.212 80.012,-122.212"/>
<text text-anchor="middle" x="107" y="-144.5" font-family="FreeSans" font-size="10.00" fill="#1c2021">suit</text>
</g>
</g>
</svg>
