<?xml version="1.0" encoding="UTF-8" standalone="no"?>
<!DOCTYPE svg PUBLIC "-//W3C//DTD SVG 1.1//EN"
 "http://www.w3.org/Graphics/SVG/1.1/DTD/svg11.dtd">
<!-- Generated by graphviz version 2.26.3 (20100126.1600)
 -->
<!-- Title: g Pages: 1 -->
<svg width="345pt" height="410pt"
 viewBox="0.00 0.00 345.00 410.00" xmlns="http://www.w3.org/2000/svg" xmlns:xlink="http://www.w3.org/1999/xlink">
<g id="graph1" class="graph" transform="scale(1 1) rotate(0) translate(4 406)">
<title>g</title>
<polygon fill="white" stroke="white" points="-4,5 -4,-406 342,-406 342,5 -4,5"/>
<!-- Base de données Graphe -->
<g id="node1" class="node"><title>Base de données Graphe</title>
<polygon fill="#a8e270" stroke="#a8e270" stroke-width="1.5" points="126,-402 12,-402 4.73695e-14,-390 2.36848e-14,-378 12,-366 126,-366 138,-378 138,-390 126,-402"/>
<path fill="#a8e270" stroke="#a8e270" stroke-width="1.5" d="M12,-402C6,-402 5.92119e-14,-396 4.73695e-14,-390"/>
<path fill="#a8e270" stroke="#a8e270" stroke-width="1.5" d="M2.36848e-14,-378C1.18424e-14,-372 6,-366 12,-366"/>
<path fill="#a8e270" stroke="#a8e270" stroke-width="1.5" d="M126,-366C132,-366 138,-372 138,-378"/>
<path fill="#a8e270" stroke="#a8e270" stroke-width="1.5" d="M138,-390C138,-396 132,-402 126,-402"/>
<polyline fill="none" stroke="#2e3436" stroke-width="1.5" points="126,-402 12,-402 "/>
<path fill="none" stroke="#2e3436" stroke-width="1.5" d="M12,-402C6,-402 5.92119e-14,-396 4.73695e-14,-390"/>
<polyline fill="none" stroke="#2e3436" stroke-width="1.5" points="4.73695e-14,-390 2.36848e-14,-378 "/>
<path fill="none" stroke="#2e3436" stroke-width="1.5" d="M2.36848e-14,-378C1.18424e-14,-372 6,-366 12,-366"/>
<polyline fill="none" stroke="#2e3436" stroke-width="1.5" points="12,-366 126,-366 "/>
<path fill="none" stroke="#2e3436" stroke-width="1.5" d="M126,-366C132,-366 138,-372 138,-378"/>
<polyline fill="none" stroke="#2e3436" stroke-width="1.5" points="138,-378 138,-390 "/>
<path fill="none" stroke="#2e3436" stroke-width="1.5" d="M138,-390C138,-396 132,-402 126,-402"/>
<text text-anchor="middle" x="69" y="-381.5" font-family="FreeSans" font-size="10.00" fill="#1c2021">Base de données Graphe</text>
</g>
<!-- Graphe -->
<g id="node2" class="node"><title>Graphe</title>
<polygon fill="#95bbe3" stroke="#95bbe3" stroke-width="1.5" points="154,-316 124,-316 112,-304 112,-292 124,-280 154,-280 166,-292 166,-304 154,-316"/>
<path fill="#95bbe3" stroke="#95bbe3" stroke-width="1.5" d="M124,-316C118,-316 112,-310 112,-304"/>
<path fill="#95bbe3" stroke="#95bbe3" stroke-width="1.5" d="M112,-292C112,-286 118,-280 124,-280"/>
<path fill="#95bbe3" stroke="#95bbe3" stroke-width="1.5" d="M154,-280C160,-280 166,-286 166,-292"/>
<path fill="#95bbe3" stroke="#95bbe3" stroke-width="1.5" d="M166,-304C166,-310 160,-316 154,-316"/>
<polyline fill="none" stroke="#2e3436" stroke-width="1.5" points="154,-316 124,-316 "/>
<path fill="none" stroke="#2e3436" stroke-width="1.5" d="M124,-316C118,-316 112,-310 112,-304"/>
<polyline fill="none" stroke="#2e3436" stroke-width="1.5" points="112,-304 112,-292 "/>
<path fill="none" stroke="#2e3436" stroke-width="1.5" d="M112,-292C112,-286 118,-280 124,-280"/>
<polyline fill="none" stroke="#2e3436" stroke-width="1.5" points="124,-280 154,-280 "/>
<path fill="none" stroke="#2e3436" stroke-width="1.5" d="M154,-280C160,-280 166,-286 166,-292"/>
<polyline fill="none" stroke="#2e3436" stroke-width="1.5" points="166,-292 166,-304 "/>
<path fill="none" stroke="#2e3436" stroke-width="1.5" d="M166,-304C166,-310 160,-316 154,-316"/>
<text text-anchor="middle" x="139" y="-295.5" font-family="FreeSans" font-size="10.00" fill="#1c2021">Graphe</text>
</g>
<!-- Base de données Graphe&#45;&gt;Graphe -->
<g id="edge8" class="edge"><title>Base de données Graphe&#45;&gt;Graphe</title>
<path fill="none" stroke="#a40000" stroke-width="2" d="M76.2908,-365.816C80.8064,-355.83 87.2264,-343.568 95,-334 98.6759,-329.476 102.998,-325.123 107.472,-321.103"/>
<polygon fill="#a40000" stroke="#a40000" points="113.183,-316.202 109.689,-323.647 110.663,-319.023 107.817,-321.465 107.491,-321.086 107.166,-320.707 110.012,-318.264 105.293,-318.525 113.183,-316.202 113.183,-316.202"/>
<text text-anchor="middle" x="106" y="-338.5" font-family="FreeSans" font-size="10.00" fill="#a40000">gère</text>
</g>
<!-- Indexs -->
<g id="node3" class="node"><title>Indexs</title>
<polygon fill="#95bbe3" stroke="#95bbe3" stroke-width="1.5" points="56,-316 26,-316 14,-304 14,-292 26,-280 56,-280 68,-292 68,-304 56,-316"/>
<path fill="#95bbe3" stroke="#95bbe3" stroke-width="1.5" d="M26,-316C20,-316 14,-310 14,-304"/>
<path fill="#95bbe3" stroke="#95bbe3" stroke-width="1.5" d="M14,-292C14,-286 20,-280 26,-280"/>
<path fill="#95bbe3" stroke="#95bbe3" stroke-width="1.5" d="M56,-280C62,-280 68,-286 68,-292"/>
<path fill="#95bbe3" stroke="#95bbe3" stroke-width="1.5" d="M68,-304C68,-310 62,-316 56,-316"/>
<polyline fill="none" stroke="#2e3436" stroke-width="1.5" points="56,-316 26,-316 "/>
<path fill="none" stroke="#2e3436" stroke-width="1.5" d="M26,-316C20,-316 14,-310 14,-304"/>
<polyline fill="none" stroke="#2e3436" stroke-width="1.5" points="14,-304 14,-292 "/>
<path fill="none" stroke="#2e3436" stroke-width="1.5" d="M14,-292C14,-286 20,-280 26,-280"/>
<polyline fill="none" stroke="#2e3436" stroke-width="1.5" points="26,-280 56,-280 "/>
<path fill="none" stroke="#2e3436" stroke-width="1.5" d="M56,-280C62,-280 68,-286 68,-292"/>
<polyline fill="none" stroke="#2e3436" stroke-width="1.5" points="68,-292 68,-304 "/>
<path fill="none" stroke="#2e3436" stroke-width="1.5" d="M68,-304C68,-310 62,-316 56,-316"/>
<text text-anchor="middle" x="41" y="-295.5" font-family="FreeSans" font-size="10.00" fill="#1c2021">Indexs</text>
</g>
<!-- Base de données Graphe&#45;&gt;Indexs -->
<g id="edge14" class="edge"><title>Base de données Graphe&#45;&gt;Indexs</title>
<path fill="none" stroke="#a40000" stroke-width="2" d="M49.7209,-365.786C45.3562,-360.511 41.3265,-354.426 39,-348 36.2496,-340.403 35.7615,-331.727 36.2549,-323.759"/>
<polygon fill="#a40000" stroke="#a40000" points="37.0281,-316.092 39.6334,-323.893 37.1493,-319.874 36.7729,-323.605 36.2754,-323.555 35.778,-323.504 36.1543,-319.773 32.9175,-323.216 37.0281,-316.092 37.0281,-316.092"/>
<text text-anchor="middle" x="50" y="-338.5" font-family="FreeSans" font-size="10.00" fill="#a40000">gère</text>
</g>
<!-- Relations -->
<g id="node4" class="node"><title>Relations</title>
<polygon fill="#fadcad" stroke="#fadcad" stroke-width="1.5" points="126,-208 92,-208 80,-196 80,-184 92,-172 126,-172 138,-184 138,-196 126,-208"/>
<path fill="#fadcad" stroke="#fadcad" stroke-width="1.5" d="M92,-208C86,-208 80,-202 80,-196"/>
<path fill="#fadcad" stroke="#fadcad" stroke-width="1.5" d="M80,-184C80,-178 86,-172 92,-172"/>
<path fill="#fadcad" stroke="#fadcad" stroke-width="1.5" d="M126,-172C132,-172 138,-178 138,-184"/>
<path fill="#fadcad" stroke="#fadcad" stroke-width="1.5" d="M138,-196C138,-202 132,-208 126,-208"/>
<polyline fill="none" stroke="#2e3436" stroke-width="1.5" points="126,-208 92,-208 "/>
<path fill="none" stroke="#2e3436" stroke-width="1.5" d="M92,-208C86,-208 80,-202 80,-196"/>
<polyline fill="none" stroke="#2e3436" stroke-width="1.5" points="80,-196 80,-184 "/>
<path fill="none" stroke="#2e3436" stroke-width="1.5" d="M80,-184C80,-178 86,-172 92,-172"/>
<polyline fill="none" stroke="#2e3436" stroke-width="1.5" points="92,-172 126,-172 "/>
<path fill="none" stroke="#2e3436" stroke-width="1.5" d="M126,-172C132,-172 138,-178 138,-184"/>
<polyline fill="none" stroke="#2e3436" stroke-width="1.5" points="138,-184 138,-196 "/>
<path fill="none" stroke="#2e3436" stroke-width="1.5" d="M138,-196C138,-202 132,-208 126,-208"/>
<text text-anchor="middle" x="109" y="-187.5" font-family="FreeSans" font-size="10.00" fill="#1c2021">Relations</text>
</g>
<!-- Graphe&#45;&gt;Relations -->
<g id="edge12" class="edge"><title>Graphe&#45;&gt;Relations</title>
<path fill="none" stroke="#2e3436" stroke-width="2" d="M127.907,-279.839C124.932,-274.283 121.992,-268.04 120,-262 115.099,-247.143 112.366,-229.83 110.85,-215.905"/>
<polygon fill="#2e3436" stroke="#2e3436" points="110.091,-208.142 114.18,-215.278 110.954,-211.825 111.319,-215.557 110.821,-215.606 110.324,-215.655 109.959,-211.923 107.462,-215.935 110.091,-208.142 110.091,-208.142"/>
<text text-anchor="middle" x="153" y="-248" font-family="FreeSans" font-size="10.00" fill="#1c2021">enregistre les</text>
<text text-anchor="middle" x="153" y="-235" font-family="FreeSans" font-size="10.00" fill="#1c2021">données en</text>
</g>
<!-- Noeuds -->
<g id="node6" class="node"><title>Noeuds</title>
<polygon fill="#fadcad" stroke="#fadcad" stroke-width="1.5" points="163,-122 133,-122 121,-110 121,-98 133,-86 163,-86 175,-98 175,-110 163,-122"/>
<path fill="#fadcad" stroke="#fadcad" stroke-width="1.5" d="M133,-122C127,-122 121,-116 121,-110"/>
<path fill="#fadcad" stroke="#fadcad" stroke-width="1.5" d="M121,-98C121,-92 127,-86 133,-86"/>
<path fill="#fadcad" stroke="#fadcad" stroke-width="1.5" d="M163,-86C169,-86 175,-92 175,-98"/>
<path fill="#fadcad" stroke="#fadcad" stroke-width="1.5" d="M175,-110C175,-116 169,-122 163,-122"/>
<polyline fill="none" stroke="#2e3436" stroke-width="1.5" points="163,-122 133,-122 "/>
<path fill="none" stroke="#2e3436" stroke-width="1.5" d="M133,-122C127,-122 121,-116 121,-110"/>
<polyline fill="none" stroke="#2e3436" stroke-width="1.5" points="121,-110 121,-98 "/>
<path fill="none" stroke="#2e3436" stroke-width="1.5" d="M121,-98C121,-92 127,-86 133,-86"/>
<polyline fill="none" stroke="#2e3436" stroke-width="1.5" points="133,-86 163,-86 "/>
<path fill="none" stroke="#2e3436" stroke-width="1.5" d="M163,-86C169,-86 175,-92 175,-98"/>
<polyline fill="none" stroke="#2e3436" stroke-width="1.5" points="175,-98 175,-110 "/>
<path fill="none" stroke="#2e3436" stroke-width="1.5" d="M175,-110C175,-116 169,-122 163,-122"/>
<text text-anchor="middle" x="148" y="-101.5" font-family="FreeSans" font-size="10.00" fill="#1c2021">Noeuds</text>
</g>
<!-- Graphe&#45;&gt;Noeuds -->
<g id="edge10" class="edge"><title>Graphe&#45;&gt;Noeuds</title>
<path fill="none" stroke="#2e3436" stroke-width="2" d="M166.112,-285.133C175.078,-279.398 184.026,-271.711 189,-262 213.72,-213.741 211.363,-189.396 189,-140 186.9,-135.362 183.875,-131.084 180.405,-127.22"/>
<polygon fill="#2e3436" stroke="#2e3436" points="175.059,-121.861 182.745,-124.788 178.061,-124.163 180.71,-126.818 180.356,-127.171 180.002,-127.524 177.353,-124.869 177.966,-129.555 175.059,-121.861 175.059,-121.861"/>
<text text-anchor="middle" x="239" y="-194" font-family="FreeSans" font-size="10.00" fill="#1c2021">enregistre les</text>
<text text-anchor="middle" x="239" y="-181" font-family="FreeSans" font-size="10.00" fill="#1c2021">données en</text>
</g>
<!-- Indexs&#45;&gt;Relations -->
<g id="edge18" class="edge"><title>Indexs&#45;&gt;Relations</title>
<path fill="none" stroke="#2e3436" stroke-width="2" d="M47.6471,-279.998C53.6453,-264.901 63.3089,-243.125 75,-226 77.8658,-221.802 81.2215,-217.623 84.6879,-213.678"/>
<polygon fill="#2e3436" stroke="#2e3436" points="89.8016,-208.09 87.2277,-215.902 87.6386,-211.194 85.1068,-213.961 84.738,-213.623 84.3691,-213.286 86.9009,-210.519 82.2483,-211.344 89.8016,-208.09 89.8016,-208.09"/>
<text text-anchor="middle" x="90" y="-241.5" font-family="FreeSans" font-size="10.00" fill="#1c2021">relie à</text>
</g>
<!-- Indexs&#45;&gt;Noeuds -->
<g id="edge16" class="edge"><title>Indexs&#45;&gt;Noeuds</title>
<path fill="none" stroke="#2e3436" stroke-width="2" d="M34.4621,-279.922C26.3281,-254.131 15.7081,-206.125 35,-172 39.4915,-164.055 82.2212,-139.629 113.816,-122.334"/>
<polygon fill="#2e3436" stroke="#2e3436" points="120.772,-118.542 115.802,-125.095 117.719,-120.776 114.426,-122.571 114.187,-122.132 113.947,-121.693 117.24,-119.898 112.571,-119.168 120.772,-118.542 120.772,-118.542"/>
<text text-anchor="middle" x="50" y="-187.5" font-family="FreeSans" font-size="10.00" fill="#1c2021">relie à</text>
</g>
<!-- Propriétés -->
<g id="node8" class="node"><title>Propriétés</title>
<polygon fill="#fadcad" stroke="#fadcad" stroke-width="1.5" points="72,-36 32,-36 20,-24 20,-12 32,-1.5099e-14 72,-6.21725e-15 84,-12 84,-24 72,-36"/>
<path fill="#fadcad" stroke="#fadcad" stroke-width="1.5" d="M32,-36C26,-36 20,-30 20,-24"/>
<path fill="#fadcad" stroke="#fadcad" stroke-width="1.5" d="M20,-12C20,-6 26,-1.64313e-14 32,-1.5099e-14"/>
<path fill="#fadcad" stroke="#fadcad" stroke-width="1.5" d="M72,-6.21725e-15C78,-4.88498e-15 84,-6 84,-12"/>
<path fill="#fadcad" stroke="#fadcad" stroke-width="1.5" d="M84,-24C84,-30 78,-36 72,-36"/>
<polyline fill="none" stroke="#2e3436" stroke-width="1.5" points="72,-36 32,-36 "/>
<path fill="none" stroke="#2e3436" stroke-width="1.5" d="M32,-36C26,-36 20,-30 20,-24"/>
<polyline fill="none" stroke="#2e3436" stroke-width="1.5" points="20,-24 20,-12 "/>
<path fill="none" stroke="#2e3436" stroke-width="1.5" d="M20,-12C20,-6 26,-1.64313e-14 32,-1.5099e-14"/>
<polyline fill="none" stroke="#2e3436" stroke-width="1.5" points="32,-1.5099e-14 72,-6.21725e-15 "/>
<path fill="none" stroke="#2e3436" stroke-width="1.5" d="M72,-6.21725e-15C78,-4.88498e-15 84,-6 84,-12"/>
<polyline fill="none" stroke="#2e3436" stroke-width="1.5" points="84,-12 84,-24 "/>
<path fill="none" stroke="#2e3436" stroke-width="1.5" d="M84,-24C84,-30 78,-36 72,-36"/>
<text text-anchor="middle" x="52" y="-15.5" font-family="FreeSans" font-size="10.00" fill="#1c2021">Propriétés</text>
</g>
<!-- Indexs&#45;&gt;Propriétés -->
<g id="edge20" class="edge"><title>Indexs&#45;&gt;Propriétés</title>
<path fill="none" stroke="#2e3436" stroke-width="2" d="M26.8734,-279.862C23.3474,-274.407 20.0035,-268.212 18,-262 1.33509,-210.333 3.43608,-193.608 12,-140 17.5128,-105.491 31.2759,-67.4924 41.1162,-43.2216"/>
<polygon fill="#2e3436" stroke="#2e3436" points="44.0307,-36.149 44.2936,-44.3693 43.0642,-39.8067 41.6354,-43.2739 41.1731,-43.0834 40.7108,-42.8929 42.1396,-39.4257 38.0527,-41.7975 44.0307,-36.149 44.0307,-36.149"/>
<text text-anchor="middle" x="32.5" y="-144.5" font-family="FreeSans" font-size="10.00" fill="#1c2021">relie des</text>
</g>
<!-- Relations&#45;&gt;Noeuds -->
<g id="edge2" class="edge"><title>Relations&#45;&gt;Noeuds</title>
<path fill="none" stroke="#2e3436" stroke-width="2" d="M117.271,-171.762C122.907,-159.333 130.441,-142.719 136.639,-129.052"/>
<polygon fill="#2e3436" stroke="#2e3436" points="139.741,-122.212 139.717,-130.436 138.648,-125.834 137.099,-129.249 136.643,-129.043 136.188,-128.836 137.737,-125.421 133.57,-127.649 139.741,-122.212 139.741,-122.212"/>
<text text-anchor="middle" x="156" y="-144.5" font-family="FreeSans" font-size="10.00" fill="#1c2021">organisent</text>
</g>
<!-- Relations&#45;&gt;Propriétés -->
<g id="edge6" class="edge"><title>Relations&#45;&gt;Propriétés</title>
<path fill="none" stroke="#2e3436" stroke-width="2" d="M94.825,-171.733C85.3988,-158.619 73.5822,-140.13 67,-122 57.7258,-96.456 54.1658,-65.4243 52.8101,-43.9412"/>
<polygon fill="#2e3436" stroke="#2e3436" points="52.3912,-36.2065 56.167,-43.5129 53.0933,-39.924 53.2962,-43.6685 52.7969,-43.6955 52.2977,-43.7226 52.0948,-39.9781 49.4269,-43.8781 52.3912,-36.2065 52.3912,-36.2065"/>
<text text-anchor="middle" x="87" y="-101.5" font-family="FreeSans" font-size="10.00" fill="#1c2021">contient</text>
</g>
<!-- Noeuds&#45;&gt;Propriétés -->
<g id="edge4" class="edge"><title>Noeuds&#45;&gt;Propriétés</title>
<path fill="none" stroke="#2e3436" stroke-width="2" d="M127.641,-85.7616C113.259,-72.8774 93.8538,-55.494 78.2996,-41.5601"/>
<polygon fill="#2e3436" stroke="#2e3436" points="72.3298,-36.2121 80.168,-38.7027 75.4566,-38.3419 78.2497,-40.8441 77.9161,-41.2165 77.5824,-41.5889 74.7893,-39.0867 75.6641,-43.7303 72.3298,-36.2121 72.3298,-36.2121"/>
<text text-anchor="middle" x="125" y="-58.5" font-family="FreeSans" font-size="10.00" fill="#1c2021">contient</text>
</g>
<!-- Traversée -->
<g id="node17" class="node"><title>Traversée</title>
<polygon fill="#fadcad" stroke="#fadcad" stroke-width="1.5" points="244,-402 206,-402 194,-390 194,-378 206,-366 244,-366 256,-378 256,-390 244,-402"/>
<path fill="#fadcad" stroke="#fadcad" stroke-width="1.5" d="M206,-402C200,-402 194,-396 194,-390"/>
<path fill="#fadcad" stroke="#fadcad" stroke-width="1.5" d="M194,-378C194,-372 200,-366 206,-366"/>
<path fill="#fadcad" stroke="#fadcad" stroke-width="1.5" d="M244,-366C250,-366 256,-372 256,-378"/>
<path fill="#fadcad" stroke="#fadcad" stroke-width="1.5" d="M256,-390C256,-396 250,-402 244,-402"/>
<polyline fill="none" stroke="#2e3436" stroke-width="1.5" points="244,-402 206,-402 "/>
<path fill="none" stroke="#2e3436" stroke-width="1.5" d="M206,-402C200,-402 194,-396 194,-390"/>
<polyline fill="none" stroke="#2e3436" stroke-width="1.5" points="194,-390 194,-378 "/>
<path fill="none" stroke="#2e3436" stroke-width="1.5" d="M194,-378C194,-372 200,-366 206,-366"/>
<polyline fill="none" stroke="#2e3436" stroke-width="1.5" points="206,-366 244,-366 "/>
<path fill="none" stroke="#2e3436" stroke-width="1.5" d="M244,-366C250,-366 256,-372 256,-378"/>
<polyline fill="none" stroke="#2e3436" stroke-width="1.5" points="256,-378 256,-390 "/>
<path fill="none" stroke="#2e3436" stroke-width="1.5" d="M256,-390C256,-396 250,-402 244,-402"/>
<text text-anchor="middle" x="225" y="-381.5" font-family="FreeSans" font-size="10.00" fill="#1c2021">Traversée</text>
</g>
<!-- Traversée&#45;&gt;Graphe -->
<g id="edge22" class="edge"><title>Traversée&#45;&gt;Graphe</title>
<path fill="none" stroke="#2e3436" stroke-width="2" d="M193.627,-375.631C178.668,-370.111 161.737,-361.365 151,-348 145.521,-341.18 142.478,-332.254 140.809,-323.834"/>
<polygon fill="#2e3436" stroke="#2e3436" points="139.633,-316.319 144.127,-323.207 140.707,-319.946 141.287,-323.651 140.793,-323.729 140.299,-323.806 139.719,-320.101 137.459,-324.251 139.633,-316.319 139.633,-316.319"/>
<text text-anchor="middle" x="170" y="-338.5" font-family="FreeSans" font-size="10.00" fill="#1c2021">navigue</text>
</g>
<!-- Chemins -->
<g id="node20" class="node"><title>Chemins</title>
<polygon fill="#fadcad" stroke="#fadcad" stroke-width="1.5" points="311,-262 277,-262 265,-250 265,-238 277,-226 311,-226 323,-238 323,-250 311,-262"/>
<path fill="#fadcad" stroke="#fadcad" stroke-width="1.5" d="M277,-262C271,-262 265,-256 265,-250"/>
<path fill="#fadcad" stroke="#fadcad" stroke-width="1.5" d="M265,-238C265,-232 271,-226 277,-226"/>
<path fill="#fadcad" stroke="#fadcad" stroke-width="1.5" d="M311,-226C317,-226 323,-232 323,-238"/>
<path fill="#fadcad" stroke="#fadcad" stroke-width="1.5" d="M323,-250C323,-256 317,-262 311,-262"/>
<polyline fill="none" stroke="#2e3436" stroke-width="1.5" points="311,-262 277,-262 "/>
<path fill="none" stroke="#2e3436" stroke-width="1.5" d="M277,-262C271,-262 265,-256 265,-250"/>
<polyline fill="none" stroke="#2e3436" stroke-width="1.5" points="265,-250 265,-238 "/>
<path fill="none" stroke="#2e3436" stroke-width="1.5" d="M265,-238C265,-232 271,-226 277,-226"/>
<polyline fill="none" stroke="#2e3436" stroke-width="1.5" points="277,-226 311,-226 "/>
<path fill="none" stroke="#2e3436" stroke-width="1.5" d="M311,-226C317,-226 323,-232 323,-238"/>
<polyline fill="none" stroke="#2e3436" stroke-width="1.5" points="323,-238 323,-250 "/>
<path fill="none" stroke="#2e3436" stroke-width="1.5" d="M323,-250C323,-256 317,-262 311,-262"/>
<text text-anchor="middle" x="294" y="-241.5" font-family="FreeSans" font-size="10.00" fill="#1c2021">Chemins</text>
</g>
<!-- Traversée&#45;&gt;Chemins -->
<g id="edge24" class="edge"><title>Traversée&#45;&gt;Chemins</title>
<path fill="none" stroke="#2e3436" stroke-width="2" d="M222.816,-365.67C222.219,-356.088 222.344,-344.252 225,-334 231.887,-307.423 238.032,-301.584 255,-280 258.367,-275.717 262.259,-271.492 266.254,-267.527"/>
<polygon fill="#2e3436" stroke="#2e3436" points="271.726,-262.3 268.634,-269.921 269.36,-265.252 266.648,-267.842 266.303,-267.48 265.957,-267.119 268.669,-264.529 263.971,-265.04 271.726,-262.3 271.726,-262.3"/>
<text text-anchor="middle" x="244" y="-338.5" font-family="FreeSans" font-size="10.00" fill="#1c2021">identifie</text>
</g>
<!-- Algorithme -->
<g id="node22" class="node"><title>Algorithme</title>
<polygon fill="#fadcad" stroke="#fadcad" stroke-width="1.5" points="325,-316 281,-316 269,-304 269,-292 281,-280 325,-280 337,-292 337,-304 325,-316"/>
<path fill="#fadcad" stroke="#fadcad" stroke-width="1.5" d="M281,-316C275,-316 269,-310 269,-304"/>
<path fill="#fadcad" stroke="#fadcad" stroke-width="1.5" d="M269,-292C269,-286 275,-280 281,-280"/>
<path fill="#fadcad" stroke="#fadcad" stroke-width="1.5" d="M325,-280C331,-280 337,-286 337,-292"/>
<path fill="#fadcad" stroke="#fadcad" stroke-width="1.5" d="M337,-304C337,-310 331,-316 325,-316"/>
<polyline fill="none" stroke="#2e3436" stroke-width="1.5" points="325,-316 281,-316 "/>
<path fill="none" stroke="#2e3436" stroke-width="1.5" d="M281,-316C275,-316 269,-310 269,-304"/>
<polyline fill="none" stroke="#2e3436" stroke-width="1.5" points="269,-304 269,-292 "/>
<path fill="none" stroke="#2e3436" stroke-width="1.5" d="M269,-292C269,-286 275,-280 281,-280"/>
<polyline fill="none" stroke="#2e3436" stroke-width="1.5" points="281,-280 325,-280 "/>
<path fill="none" stroke="#2e3436" stroke-width="1.5" d="M325,-280C331,-280 337,-286 337,-292"/>
<polyline fill="none" stroke="#2e3436" stroke-width="1.5" points="337,-292 337,-304 "/>
<path fill="none" stroke="#2e3436" stroke-width="1.5" d="M337,-304C337,-310 331,-316 325,-316"/>
<text text-anchor="middle" x="303" y="-295.5" font-family="FreeSans" font-size="10.00" fill="#1c2021">Algorithme</text>
</g>
<!-- Traversée&#45;&gt;Algorithme -->
<g id="edge26" class="edge"><title>Traversée&#45;&gt;Algorithme</title>
<path fill="none" stroke="#2e3436" stroke-width="2" d="M250.504,-365.867C257.219,-360.504 264.2,-354.356 270,-348 276.97,-340.362 283.504,-331.115 288.889,-322.661"/>
<polygon fill="#2e3436" stroke="#2e3436" points="292.947,-316.097 291.874,-324.251 291.4,-319.55 289.428,-322.739 289.003,-322.476 288.578,-322.213 290.55,-319.024 286.132,-320.701 292.947,-316.097 292.947,-316.097"/>
<text text-anchor="middle" x="300" y="-338.5" font-family="FreeSans" font-size="10.00" fill="#1c2021">exprime</text>
</g>
<!-- Chemins&#45;&gt;Noeuds -->
<g id="edge28" class="edge"><title>Chemins&#45;&gt;Noeuds</title>
<path fill="none" stroke="#2e3436" stroke-width="2" d="M294.661,-225.925C294.37,-210.378 291.814,-187.994 281,-172 258.273,-138.388 213.648,-120.461 182.38,-111.602"/>
<polygon fill="#2e3436" stroke="#2e3436" points="175.136,-109.643 183.257,-108.343 178.886,-110.139 182.506,-111.119 182.376,-111.601 182.245,-112.084 178.625,-111.105 181.495,-114.859 175.136,-109.643 175.136,-109.643"/>
<text text-anchor="middle" x="313" y="-187.5" font-family="FreeSans" font-size="10.00" fill="#1c2021">ordonne</text>
</g>
</g>
</svg>
