<?xml version="1.0" encoding="UTF-8" standalone="no"?>
<!DOCTYPE svg PUBLIC "-//W3C//DTD SVG 1.1//EN"
 "http://www.w3.org/Graphics/SVG/1.1/DTD/svg11.dtd">
<!-- Generated by graphviz version 2.26.3 (20100126.1600)
 -->
<!-- Title: g Pages: 1 -->
<svg width="83pt" height="130pt"
 viewBox="0.00 0.00 83.00 130.00" xmlns="http://www.w3.org/2000/svg" xmlns:xlink="http://www.w3.org/1999/xlink">
<g id="graph1" class="graph" transform="scale(1 1) rotate(0) translate(4 126)">
<title>g</title>
<polygon fill="white" stroke="white" points="-4,5 -4,-126 80,-126 80,5 -4,5"/>
<!-- Noeud 1 -->
<g id="node1" class="node"><title>Noeud 1</title>
<polygon fill="#ffffff" stroke="#ffffff" stroke-width="1.5" points="44,-122 12,-122 1.65793e-14,-110 8.28967e-15,-98 12,-86 44,-86 56,-98 56,-110 44,-122"/>
<path fill="#ffffff" stroke="#ffffff" stroke-width="1.5" d="M12,-122C6,-122 2.07242e-14,-116 1.65793e-14,-110"/>
<path fill="#ffffff" stroke="#ffffff" stroke-width="1.5" d="M8.28967e-15,-98C4.14483e-15,-92 6,-86 12,-86"/>
<path fill="#ffffff" stroke="#ffffff" stroke-width="1.5" d="M44,-86C50,-86 56,-92 56,-98"/>
<path fill="#ffffff" stroke="#ffffff" stroke-width="1.5" d="M56,-110C56,-116 50,-122 44,-122"/>
<polyline fill="none" stroke="#2e3436" stroke-width="1.5" points="44,-122 12,-122 "/>
<path fill="none" stroke="#2e3436" stroke-width="1.5" d="M12,-122C6,-122 2.07242e-14,-116 1.65793e-14,-110"/>
<polyline fill="none" stroke="#2e3436" stroke-width="1.5" points="1.65793e-14,-110 8.28967e-15,-98 "/>
<path fill="none" stroke="#2e3436" stroke-width="1.5" d="M8.28967e-15,-98C4.14483e-15,-92 6,-86 12,-86"/>
<polyline fill="none" stroke="#2e3436" stroke-width="1.5" points="12,-86 44,-86 "/>
<path fill="none" stroke="#2e3436" stroke-width="1.5" d="M44,-86C50,-86 56,-92 56,-98"/>
<polyline fill="none" stroke="#2e3436" stroke-width="1.5" points="56,-98 56,-110 "/>
<path fill="none" stroke="#2e3436" stroke-width="1.5" d="M56,-110C56,-116 50,-122 44,-122"/>
<text text-anchor="middle" x="28" y="-101.5" font-family="FreeSans" font-size="10.00" fill="#1c2021">Noeud 1</text>
</g>
<!-- Noeud 2 -->
<g id="node3" class="node"><title>Noeud 2</title>
<polygon fill="#ffffff" stroke="#ffffff" stroke-width="1.5" points="44,-36 12,-36 1.65793e-14,-24 8.28967e-15,-12 12,-1.47184e-14 44,-6.5979e-15 56,-12 56,-24 44,-36"/>
<path fill="#ffffff" stroke="#ffffff" stroke-width="1.5" d="M12,-36C6,-36 2.07242e-14,-30 1.65793e-14,-24"/>
<path fill="#ffffff" stroke="#ffffff" stroke-width="1.5" d="M8.28967e-15,-12C4.14483e-15,-6 6,-1.6241e-14 12,-1.47184e-14"/>
<path fill="#ffffff" stroke="#ffffff" stroke-width="1.5" d="M44,-6.5979e-15C50,-5.07531e-15 56,-6 56,-12"/>
<path fill="#ffffff" stroke="#ffffff" stroke-width="1.5" d="M56,-24C56,-30 50,-36 44,-36"/>
<polyline fill="none" stroke="#2e3436" stroke-width="1.5" points="44,-36 12,-36 "/>
<path fill="none" stroke="#2e3436" stroke-width="1.5" d="M12,-36C6,-36 2.07242e-14,-30 1.65793e-14,-24"/>
<polyline fill="none" stroke="#2e3436" stroke-width="1.5" points="1.65793e-14,-24 8.28967e-15,-12 "/>
<path fill="none" stroke="#2e3436" stroke-width="1.5" d="M8.28967e-15,-12C4.14483e-15,-6 6,-1.6241e-14 12,-1.47184e-14"/>
<polyline fill="none" stroke="#2e3436" stroke-width="1.5" points="12,-1.47184e-14 44,-6.5979e-15 "/>
<path fill="none" stroke="#2e3436" stroke-width="1.5" d="M44,-6.5979e-15C50,-5.07531e-15 56,-6 56,-12"/>
<polyline fill="none" stroke="#2e3436" stroke-width="1.5" points="56,-12 56,-24 "/>
<path fill="none" stroke="#2e3436" stroke-width="1.5" d="M56,-24C56,-30 50,-36 44,-36"/>
<text text-anchor="middle" x="28" y="-15.5" font-family="FreeSans" font-size="10.00" fill="#1c2021">Noeud 2</text>
</g>
<!-- Noeud 1&#45;&gt;Noeud 2 -->
<g id="edge2" class="edge"><title>Noeud 1&#45;&gt;Noeud 2</title>
<path fill="none" stroke="#2e3436" stroke-width="2" d="M28,-85.7616C28,-73.5615 28,-57.3273 28,-43.8076"/>
<polygon fill="#2e3436" stroke="#2e3436" points="28,-36.2121 31.3751,-43.7121 28.5,-39.9621 28.5001,-43.7121 28.0001,-43.7121 27.5001,-43.7121 27.5,-39.9621 24.6251,-43.7121 28,-36.2121 28,-36.2121"/>
<text text-anchor="middle" x="51.5" y="-58.5" font-family="FreeSans" font-size="10.00" fill="#1c2021">Relation 1</text>
</g>
</g>
</svg>
