<?xml version="1.0" encoding="UTF-8" standalone="no"?>
<!DOCTYPE svg PUBLIC "-//W3C//DTD SVG 1.1//EN"
 "http://www.w3.org/Graphics/SVG/1.1/DTD/svg11.dtd">
<!-- Generated by graphviz version 2.26.3 (20100126.1600)
 -->
<!-- Title: g Pages: 1 -->
<svg width="279pt" height="370pt"
 viewBox="0.00 0.00 278.51 370.00" xmlns="http://www.w3.org/2000/svg" xmlns:xlink="http://www.w3.org/1999/xlink">
<g id="graph1" class="graph" transform="scale(1 1) rotate(0) translate(4 366)">
<title>g</title>
<polygon fill="white" stroke="white" points="-4,5 -4,-366 275.507,-366 275.507,5 -4,5"/>
<!-- Une Propriété -->
<g id="node1" class="node"><title>Une Propriété</title>
<polygon fill="#a8e270" stroke="#a8e270" stroke-width="1.5" points="203.507,-362 145.507,-362 133.507,-350 133.507,-338 145.507,-326 203.507,-326 215.507,-338 215.507,-350 203.507,-362"/>
<path fill="#a8e270" stroke="#a8e270" stroke-width="1.5" d="M145.507,-362C139.507,-362 133.507,-356 133.507,-350"/>
<path fill="#a8e270" stroke="#a8e270" stroke-width="1.5" d="M133.507,-338C133.507,-332 139.507,-326 145.507,-326"/>
<path fill="#a8e270" stroke="#a8e270" stroke-width="1.5" d="M203.507,-326C209.507,-326 215.507,-332 215.507,-338"/>
<path fill="#a8e270" stroke="#a8e270" stroke-width="1.5" d="M215.507,-350C215.507,-356 209.507,-362 203.507,-362"/>
<polyline fill="none" stroke="#2e3436" stroke-width="1.5" points="203.507,-362 145.507,-362 "/>
<path fill="none" stroke="#2e3436" stroke-width="1.5" d="M145.507,-362C139.507,-362 133.507,-356 133.507,-350"/>
<polyline fill="none" stroke="#2e3436" stroke-width="1.5" points="133.507,-350 133.507,-338 "/>
<path fill="none" stroke="#2e3436" stroke-width="1.5" d="M133.507,-338C133.507,-332 139.507,-326 145.507,-326"/>
<polyline fill="none" stroke="#2e3436" stroke-width="1.5" points="145.507,-326 203.507,-326 "/>
<path fill="none" stroke="#2e3436" stroke-width="1.5" d="M203.507,-326C209.507,-326 215.507,-332 215.507,-338"/>
<polyline fill="none" stroke="#2e3436" stroke-width="1.5" points="215.507,-338 215.507,-350 "/>
<path fill="none" stroke="#2e3436" stroke-width="1.5" d="M215.507,-350C215.507,-356 209.507,-362 203.507,-362"/>
<text text-anchor="middle" x="174.507" y="-341.5" font-family="FreeSans" font-size="10.00" fill="#1c2021">Une Propriété</text>
</g>
<!-- Clé -->
<g id="node3" class="node"><title>Clé</title>
<polygon fill="#fadcad" stroke="#fadcad" stroke-width="1.5" points="237.507,-276 207.507,-276 195.507,-264 195.507,-252 207.507,-240 237.507,-240 249.507,-252 249.507,-264 237.507,-276"/>
<path fill="#fadcad" stroke="#fadcad" stroke-width="1.5" d="M207.507,-276C201.507,-276 195.507,-270 195.507,-264"/>
<path fill="#fadcad" stroke="#fadcad" stroke-width="1.5" d="M195.507,-252C195.507,-246 201.507,-240 207.507,-240"/>
<path fill="#fadcad" stroke="#fadcad" stroke-width="1.5" d="M237.507,-240C243.507,-240 249.507,-246 249.507,-252"/>
<path fill="#fadcad" stroke="#fadcad" stroke-width="1.5" d="M249.507,-264C249.507,-270 243.507,-276 237.507,-276"/>
<polyline fill="none" stroke="#2e3436" stroke-width="1.5" points="237.507,-276 207.507,-276 "/>
<path fill="none" stroke="#2e3436" stroke-width="1.5" d="M207.507,-276C201.507,-276 195.507,-270 195.507,-264"/>
<polyline fill="none" stroke="#2e3436" stroke-width="1.5" points="195.507,-264 195.507,-252 "/>
<path fill="none" stroke="#2e3436" stroke-width="1.5" d="M195.507,-252C195.507,-246 201.507,-240 207.507,-240"/>
<polyline fill="none" stroke="#2e3436" stroke-width="1.5" points="207.507,-240 237.507,-240 "/>
<path fill="none" stroke="#2e3436" stroke-width="1.5" d="M237.507,-240C243.507,-240 249.507,-246 249.507,-252"/>
<polyline fill="none" stroke="#2e3436" stroke-width="1.5" points="249.507,-252 249.507,-264 "/>
<path fill="none" stroke="#2e3436" stroke-width="1.5" d="M249.507,-264C249.507,-270 243.507,-276 237.507,-276"/>
<text text-anchor="middle" x="222.507" y="-255.5" font-family="FreeSans" font-size="10.00" fill="#1c2021">Clé</text>
</g>
<!-- Une Propriété&#45;&gt;Clé -->
<g id="edge2" class="edge"><title>Une Propriété&#45;&gt;Clé</title>
<path fill="none" stroke="#2e3436" stroke-width="2" d="M184.686,-325.762C191.623,-313.333 200.896,-296.719 208.524,-283.052"/>
<polygon fill="#2e3436" stroke="#2e3436" points="212.342,-276.212 211.633,-284.406 210.951,-279.73 209.123,-283.005 208.686,-282.761 208.25,-282.517 210.077,-279.243 205.739,-281.116 212.342,-276.212 212.342,-276.212"/>
<text text-anchor="middle" x="214.507" y="-298.5" font-family="FreeSans" font-size="10.00" fill="#1c2021">a une</text>
</g>
<!-- Valeur -->
<g id="node7" class="node"><title>Valeur</title>
<polygon fill="#fadcad" stroke="#fadcad" stroke-width="1.5" points="146.507,-276 116.507,-276 104.507,-264 104.507,-252 116.507,-240 146.507,-240 158.507,-252 158.507,-264 146.507,-276"/>
<path fill="#fadcad" stroke="#fadcad" stroke-width="1.5" d="M116.507,-276C110.507,-276 104.507,-270 104.507,-264"/>
<path fill="#fadcad" stroke="#fadcad" stroke-width="1.5" d="M104.507,-252C104.507,-246 110.507,-240 116.507,-240"/>
<path fill="#fadcad" stroke="#fadcad" stroke-width="1.5" d="M146.507,-240C152.507,-240 158.507,-246 158.507,-252"/>
<path fill="#fadcad" stroke="#fadcad" stroke-width="1.5" d="M158.507,-264C158.507,-270 152.507,-276 146.507,-276"/>
<polyline fill="none" stroke="#2e3436" stroke-width="1.5" points="146.507,-276 116.507,-276 "/>
<path fill="none" stroke="#2e3436" stroke-width="1.5" d="M116.507,-276C110.507,-276 104.507,-270 104.507,-264"/>
<polyline fill="none" stroke="#2e3436" stroke-width="1.5" points="104.507,-264 104.507,-252 "/>
<path fill="none" stroke="#2e3436" stroke-width="1.5" d="M104.507,-252C104.507,-246 110.507,-240 116.507,-240"/>
<polyline fill="none" stroke="#2e3436" stroke-width="1.5" points="116.507,-240 146.507,-240 "/>
<path fill="none" stroke="#2e3436" stroke-width="1.5" d="M146.507,-240C152.507,-240 158.507,-246 158.507,-252"/>
<polyline fill="none" stroke="#2e3436" stroke-width="1.5" points="158.507,-252 158.507,-264 "/>
<path fill="none" stroke="#2e3436" stroke-width="1.5" d="M158.507,-264C158.507,-270 152.507,-276 146.507,-276"/>
<text text-anchor="middle" x="131.507" y="-255.5" font-family="FreeSans" font-size="10.00" fill="#1c2021">Valeur</text>
</g>
<!-- Une Propriété&#45;&gt;Valeur -->
<g id="edge6" class="edge"><title>Une Propriété&#45;&gt;Valeur</title>
<path fill="none" stroke="#2e3436" stroke-width="2" d="M156.618,-325.692C152.138,-320.328 147.704,-314.224 144.507,-308 140.695,-300.58 137.937,-291.953 135.971,-283.974"/>
<polygon fill="#2e3436" stroke="#2e3436" points="134.258,-276.281 139.182,-282.868 135.561,-279.833 136.376,-283.493 135.888,-283.602 135.4,-283.71 134.585,-280.05 132.593,-284.335 134.258,-276.281 134.258,-276.281"/>
<text text-anchor="middle" x="158.507" y="-298.5" font-family="FreeSans" font-size="10.00" fill="#1c2021">a une</text>
</g>
<!-- Primitive -->
<g id="node5" class="node"><title>Primitive</title>
<polygon fill="#fadcad" stroke="#fadcad" stroke-width="1.5" points="84.5066,-0.5 178.507,-0.5 190.507,-12.5 190.507,-177.5 178.507,-189.5 84.5066,-189.5 72.5066,-177.5 72.5066,-12.5 84.5066,-0.5"/>
<path fill="#fadcad" stroke="#fadcad" stroke-width="1.5" d="M178.507,-0.5C184.507,-0.5 190.507,-6.5 190.507,-12.5"/>
<path fill="#fadcad" stroke="#fadcad" stroke-width="1.5" d="M190.507,-177.5C190.507,-183.5 184.507,-189.5 178.507,-189.5"/>
<path fill="#fadcad" stroke="#fadcad" stroke-width="1.5" d="M84.5066,-189.5C78.5066,-189.5 72.5066,-183.5 72.5066,-177.5"/>
<path fill="#fadcad" stroke="#fadcad" stroke-width="1.5" d="M72.5066,-12.5C72.5066,-6.5 78.5066,-0.5 84.5066,-0.5"/>
<polyline fill="none" stroke="#2e3436" stroke-width="1.5" points="84.5066,-0.5 178.507,-0.5 "/>
<path fill="none" stroke="#2e3436" stroke-width="1.5" d="M178.507,-0.5C184.507,-0.5 190.507,-6.5 190.507,-12.5"/>
<polyline fill="none" stroke="#2e3436" stroke-width="1.5" points="190.507,-12.5 190.507,-177.5 "/>
<path fill="none" stroke="#2e3436" stroke-width="1.5" d="M190.507,-177.5C190.507,-183.5 184.507,-189.5 178.507,-189.5"/>
<polyline fill="none" stroke="#2e3436" stroke-width="1.5" points="178.507,-189.5 84.5066,-189.5 "/>
<path fill="none" stroke="#2e3436" stroke-width="1.5" d="M84.5066,-189.5C78.5066,-189.5 72.5066,-183.5 72.5066,-177.5"/>
<polyline fill="none" stroke="#2e3436" stroke-width="1.5" points="72.5066,-177.5 72.5066,-12.5 "/>
<path fill="none" stroke="#2e3436" stroke-width="1.5" d="M72.5066,-12.5C72.5066,-6.5 78.5066,-0.5 84.5066,-0.5"/>
<text text-anchor="middle" x="104.007" y="-92.5" font-family="FreeSans" font-size="10.00" fill="#1c2021">Primitives</text>
<polyline fill="none" stroke="#2e3436" stroke-width="1.5" points="135.507,-0.5 135.507,-189.5 "/>
<text text-anchor="middle" x="163.007" y="-176.5" font-family="FreeSans" font-size="10.00" fill="#1c2021">boolean</text>
<polyline fill="none" stroke="#2e3436" stroke-width="1.5" points="135.507,-168.5 190.507,-168.5 "/>
<text text-anchor="middle" x="163.007" y="-155.5" font-family="FreeSans" font-size="10.00" fill="#1c2021">byte</text>
<polyline fill="none" stroke="#2e3436" stroke-width="1.5" points="135.507,-147.5 190.507,-147.5 "/>
<text text-anchor="middle" x="163.007" y="-134.5" font-family="FreeSans" font-size="10.00" fill="#1c2021">short</text>
<polyline fill="none" stroke="#2e3436" stroke-width="1.5" points="135.507,-126.5 190.507,-126.5 "/>
<text text-anchor="middle" x="163.007" y="-113.5" font-family="FreeSans" font-size="10.00" fill="#1c2021">int</text>
<polyline fill="none" stroke="#2e3436" stroke-width="1.5" points="135.507,-105.5 190.507,-105.5 "/>
<text text-anchor="middle" x="163.007" y="-92.5" font-family="FreeSans" font-size="10.00" fill="#1c2021">long</text>
<polyline fill="none" stroke="#2e3436" stroke-width="1.5" points="135.507,-84.5 190.507,-84.5 "/>
<text text-anchor="middle" x="163.007" y="-71.5" font-family="FreeSans" font-size="10.00" fill="#1c2021">float</text>
<polyline fill="none" stroke="#2e3436" stroke-width="1.5" points="135.507,-63.5 190.507,-63.5 "/>
<text text-anchor="middle" x="163.007" y="-50.5" font-family="FreeSans" font-size="10.00" fill="#1c2021">double</text>
<polyline fill="none" stroke="#2e3436" stroke-width="1.5" points="135.507,-42.5 190.507,-42.5 "/>
<text text-anchor="middle" x="163.007" y="-29.5" font-family="FreeSans" font-size="10.00" fill="#1c2021">char</text>
<polyline fill="none" stroke="#2e3436" stroke-width="1.5" points="135.507,-21.5 190.507,-21.5 "/>
<text text-anchor="middle" x="163.007" y="-8.5" font-family="FreeSans" font-size="10.00" fill="#1c2021">String</text>
</g>
<!-- Clé&#45;&gt;Primitive -->
<g id="edge4" class="edge"><title>Clé&#45;&gt;Primitive:String</title>
<path fill="none" stroke="#2e3436" stroke-width="2" d="M226.606,-239.702C241.75,-185.347 280.481,-21.0194 198.284,-11.4374"/>
<polygon fill="#2e3436" stroke="#2e3436" points="190.507,-11 198.184,-8.05161 194.279,-10.7114 198.023,-10.9221 197.995,-11.4213 197.967,-11.9205 194.223,-11.7099 197.805,-14.791 190.507,-11 190.507,-11"/>
<text text-anchor="middle" x="252.007" y="-212.5" font-family="FreeSans" font-size="10.00" fill="#1c2021">est une</text>
</g>
<!-- Valeur&#45;&gt;Primitive -->
<g id="edge8" class="edge"><title>Valeur&#45;&gt;Primitive</title>
<path fill="none" stroke="#2e3436" stroke-width="2" d="M130.293,-239.694C129.97,-234.025 129.666,-227.757 129.507,-222 129.284,-213.984 129.165,-205.682 129.125,-197.338"/>
<polygon fill="#2e3436" stroke="#2e3436" points="129.109,-189.67 132.5,-197.163 129.617,-193.419 129.625,-197.169 129.125,-197.17 128.625,-197.171 128.617,-193.421 125.75,-197.176 129.109,-189.67 129.109,-189.67"/>
<text text-anchor="middle" x="162.507" y="-212.5" font-family="FreeSans" font-size="10.00" fill="#1c2021">peut être une</text>
</g>
<!-- Valeur&#45;&gt;Primitive -->
<g id="edge10" class="edge"><title>Valeur&#45;&gt;Primitive</title>
<path fill="none" stroke="#2e3436" stroke-width="2" d="M104.459,-253.91C71.8607,-248.364 20.0138,-237.358 8.50663,-222 -17.8738,-186.792 23.8439,-151.197 65.6743,-126.686"/>
<polygon fill="#2e3436" stroke="#2e3436" points="72.3784,-122.849 67.5456,-129.504 69.3721,-125.146 66.1174,-127.009 65.8691,-126.575 65.6207,-126.141 68.8753,-124.278 64.1926,-123.646 72.3784,-122.849 72.3784,-122.849"/>
<text text-anchor="middle" x="65.5066" y="-212.5" font-family="FreeSans" font-size="10.00" fill="#1c2021">peut être un tableau de</text>
</g>
</g>
</svg>
