<?xml version="1.0" encoding="UTF-8" standalone="no"?>
<!DOCTYPE svg PUBLIC "-//W3C//DTD SVG 1.1//EN"
 "http://www.w3.org/Graphics/SVG/1.1/DTD/svg11.dtd">
<!-- Generated by graphviz version 2.38.0 (20140413.2041)
 -->
<!-- Title: g Pages: 1 -->
<svg width="316pt" height="188pt"
 viewBox="0.00 0.00 315.50 188.00" xmlns="http://www.w3.org/2000/svg" xmlns:xlink="http://www.w3.org/1999/xlink">
<g id="graph0" class="graph" transform="scale(1 1) rotate(0) translate(4 184)">
<title>g</title>
<polygon fill="white" stroke="none" points="-4,4 -4,-184 311.5,-184 311.5,4 -4,4"/>
<!-- A Relationship -->
<g id="node1" class="node"><title>A Relationship</title>
<path fill="#a8e270" stroke="#2e3436" stroke-width="1.5" d="M145.5,-180C145.5,-180 91.5,-180 91.5,-180 85.5,-180 79.5,-174 79.5,-168 79.5,-168 79.5,-156 79.5,-156 79.5,-150 85.5,-144 91.5,-144 91.5,-144 145.5,-144 145.5,-144 151.5,-144 157.5,-150 157.5,-156 157.5,-156 157.5,-168 157.5,-168 157.5,-174 151.5,-180 145.5,-180"/>
<text text-anchor="middle" x="118.5" y="-159.5" font-family="FreeSans" font-size="10.00" fill="#1c2021">A Relationship</text>
</g>
<!-- Start node -->
<g id="node2" class="node"><title>Start node</title>
<path fill="#95bbe3" stroke="#2e3436" stroke-width="1.5" d="M49,-97C49,-97 12,-97 12,-97 6,-97 -3.55271e-15,-91 -3.55271e-15,-85 -3.55271e-15,-85 -3.55271e-15,-73 -3.55271e-15,-73 -3.55271e-15,-67 6,-61 12,-61 12,-61 49,-61 49,-61 55,-61 61,-67 61,-73 61,-73 61,-85 61,-85 61,-91 55,-97 49,-97"/>
<text text-anchor="middle" x="30.5" y="-76.5" font-family="FreeSans" font-size="10.00" fill="#1c2021">Start node</text>
</g>
<!-- A Relationship&#45;&gt;Start node -->
<g id="edge1" class="edge"><title>A Relationship&#45;&gt;Start node</title>
<path fill="none" stroke="#2e3436" stroke-width="2" d="M99.8375,-143.822C86.7703,-131.794 69.1804,-115.604 54.9873,-102.539"/>
<polygon fill="#2e3436" stroke="#2e3436" stroke-width="2" points="49.1356,-97.1533 56.9396,-99.7494 52.2334,-99.325 54.9925,-101.865 54.6539,-102.233 54.3153,-102.6 51.5561,-100.061 52.3682,-104.716 49.1356,-97.1533 49.1356,-97.1533"/>
<text text-anchor="middle" x="92" y="-118" font-family="FreeSans" font-size="10.00" fill="#1c2021">has a</text>
</g>
<!-- End node -->
<g id="node3" class="node"><title>End node</title>
<path fill="#fadcad" stroke="#2e3436" stroke-width="1.5" d="M134.5,-97C134.5,-97 102.5,-97 102.5,-97 96.5,-97 90.5,-91 90.5,-85 90.5,-85 90.5,-73 90.5,-73 90.5,-67 96.5,-61 102.5,-61 102.5,-61 134.5,-61 134.5,-61 140.5,-61 146.5,-67 146.5,-73 146.5,-73 146.5,-85 146.5,-85 146.5,-91 140.5,-97 134.5,-97"/>
<text text-anchor="middle" x="118.5" y="-76.5" font-family="FreeSans" font-size="10.00" fill="#1c2021">End node</text>
</g>
<!-- A Relationship&#45;&gt;End node -->
<g id="edge2" class="edge"><title>A Relationship&#45;&gt;End node</title>
<path fill="none" stroke="#2e3436" stroke-width="2" d="M118.5,-143.822C118.5,-132.439 118.5,-117.326 118.5,-104.665"/>
<polygon fill="#2e3436" stroke="#2e3436" stroke-width="2" points="118.5,-97.1533 121.875,-104.653 119,-100.903 119,-104.653 118.5,-104.653 118,-104.653 118,-100.903 115.125,-104.653 118.5,-97.1533 118.5,-97.1533"/>
<text text-anchor="middle" x="130" y="-118" font-family="FreeSans" font-size="10.00" fill="#1c2021">has a</text>
</g>
<!-- Relationship type -->
<g id="node4" class="node"><title>Relationship type</title>
<path fill="#fadcad" stroke="#2e3436" stroke-width="1.5" d="M252,-97C252,-97 187,-97 187,-97 181,-97 175,-91 175,-85 175,-85 175,-73 175,-73 175,-67 181,-61 187,-61 187,-61 252,-61 252,-61 258,-61 264,-67 264,-73 264,-73 264,-85 264,-85 264,-91 258,-97 252,-97"/>
<text text-anchor="middle" x="219.5" y="-76.5" font-family="FreeSans" font-size="10.00" fill="#1c2021">Relationship type</text>
</g>
<!-- A Relationship&#45;&gt;Relationship type -->
<g id="edge3" class="edge"><title>A Relationship&#45;&gt;Relationship type</title>
<path fill="none" stroke="#2e3436" stroke-width="2" d="M139.92,-143.822C155.051,-131.687 175.466,-115.314 191.831,-102.19"/>
<polygon fill="#2e3436" stroke="#2e3436" stroke-width="2" points="198.111,-97.1533 194.372,-104.478 195.499,-99.8895 192.573,-102.236 192.26,-101.846 191.948,-101.456 194.873,-99.1094 190.149,-99.2127 198.111,-97.1533 198.111,-97.1533"/>
<text text-anchor="middle" x="186" y="-118" font-family="FreeSans" font-size="10.00" fill="#1c2021">has a</text>
</g>
<!-- Name -->
<g id="node5" class="node"><title>Name</title>
<text text-anchor="middle" x="219.5" y="-4.5" font-family="FreeSans" font-size="10.00" fill="#1c2021">Name</text>
</g>
<!-- Relationship type&#45;&gt;Name -->
<g id="edge4" class="edge"><title>Relationship type&#45;&gt;Name</title>
<path fill="none" stroke="#a40000" stroke-width="2" d="M219.5,-60.6966C219.5,-48.8126 219.5,-33.2347 219.5,-22.1044"/>
<polygon fill="#a40000" stroke="#a40000" stroke-width="2" points="219.5,-14.2871 222.875,-21.7871 220,-18.0371 220,-21.7871 219.5,-21.7871 219,-21.7872 219,-18.0372 216.125,-21.7872 219.5,-14.2871 219.5,-14.2871"/>
<text text-anchor="middle" x="263.5" y="-35" font-family="FreeSans" font-size="10.00" fill="#a40000">uniquely identified by</text>
</g>
</g>
</svg>
