<?xml version="1.0" encoding="UTF-8" standalone="no"?>
<!DOCTYPE svg PUBLIC "-//W3C//DTD SVG 1.1//EN"
 "http://www.w3.org/Graphics/SVG/1.1/DTD/svg11.dtd">
<!-- Generated by graphviz version 2.38.0 (20140413.2041)
 -->
<!-- Title: g Pages: 1 -->
<svg width="504pt" height="102pt"
 viewBox="0.00 0.00 504.00 101.60" xmlns="http://www.w3.org/2000/svg" xmlns:xlink="http://www.w3.org/1999/xlink">
<g id="graph0" class="graph" transform="scale(0.710456 0.710456) rotate(0) translate(4 139)">
<title>g</title>
<polygon fill="white" stroke="none" points="-4,4 -4,-139 705.403,-139 705.403,4 -4,4"/>
<!-- N0 -->
<g id="node1" class="node"><title>N0</title>
<path fill="#ffffff" stroke="#2e3436" stroke-width="1.5" d="M207.403,-0.5C207.403,-0.5 269.403,-0.5 269.403,-0.5 275.403,-0.5 281.403,-6.5 281.403,-12.5 281.403,-12.5 281.403,-31.5 281.403,-31.5 281.403,-37.5 275.403,-43.5 269.403,-43.5 269.403,-43.5 207.403,-43.5 207.403,-43.5 201.403,-43.5 195.403,-37.5 195.403,-31.5 195.403,-31.5 195.403,-12.5 195.403,-12.5 195.403,-6.5 201.403,-0.5 207.403,-0.5"/>
<text text-anchor="middle" x="238.403" y="-33.1" font-family="FreeSans" font-size="8.00" fill="#1c2021">Movie</text>
<polyline fill="none" stroke="#2e3436" stroke-width="1.5" points="195.403,-26.5 281.403,-26.5 "/>
<text text-anchor="start" x="203.403" y="-16.1" font-family="FreeSans" font-size="8.00" fill="#1c2021">title = &#39;The Matrix&#39;</text>
<text text-anchor="start" x="203.403" y="-7.1" font-family="FreeSans" font-size="8.00" fill="#1c2021">year = &#39;1999&#45;03&#45;31&#39;</text>
</g>
<!-- N1 -->
<g id="node2" class="node"><title>N1</title>
<path fill="#ffffff" stroke="#2e3436" stroke-width="1.5" d="M35.4033,-0.5C35.4033,-0.5 127.403,-0.5 127.403,-0.5 133.403,-0.5 139.403,-6.5 139.403,-12.5 139.403,-12.5 139.403,-31.5 139.403,-31.5 139.403,-37.5 133.403,-43.5 127.403,-43.5 127.403,-43.5 35.4033,-43.5 35.4033,-43.5 29.4033,-43.5 23.4033,-37.5 23.4033,-31.5 23.4033,-31.5 23.4033,-12.5 23.4033,-12.5 23.4033,-6.5 29.4033,-0.5 35.4033,-0.5"/>
<text text-anchor="middle" x="81.4033" y="-33.1" font-family="FreeSans" font-size="8.00" fill="#1c2021">Movie</text>
<polyline fill="none" stroke="#2e3436" stroke-width="1.5" points="23.4033,-26.5 139.403,-26.5 "/>
<text text-anchor="start" x="31.4033" y="-16.1" font-family="FreeSans" font-size="8.00" fill="#1c2021">title = &#39;The Matrix Reloaded&#39;</text>
<text text-anchor="start" x="31.4033" y="-7.1" font-family="FreeSans" font-size="8.00" fill="#1c2021">year = &#39;2003&#45;05&#45;07&#39;</text>
</g>
<!-- N2 -->
<g id="node3" class="node"><title>N2</title>
<path fill="#ffffff" stroke="#2e3436" stroke-width="1.5" d="M442.403,-0.5C442.403,-0.5 540.403,-0.5 540.403,-0.5 546.403,-0.5 552.403,-6.5 552.403,-12.5 552.403,-12.5 552.403,-31.5 552.403,-31.5 552.403,-37.5 546.403,-43.5 540.403,-43.5 540.403,-43.5 442.403,-43.5 442.403,-43.5 436.403,-43.5 430.403,-37.5 430.403,-31.5 430.403,-31.5 430.403,-12.5 430.403,-12.5 430.403,-6.5 436.403,-0.5 442.403,-0.5"/>
<text text-anchor="middle" x="491.403" y="-33.1" font-family="FreeSans" font-size="8.00" fill="#1c2021">Movie</text>
<polyline fill="none" stroke="#2e3436" stroke-width="1.5" points="430.403,-26.5 552.403,-26.5 "/>
<text text-anchor="start" x="438.403" y="-16.1" font-family="FreeSans" font-size="8.00" fill="#1c2021">title = &#39;The Matrix Revolutions&#39;</text>
<text text-anchor="start" x="438.403" y="-7.1" font-family="FreeSans" font-size="8.00" fill="#1c2021">year = &#39;2003&#45;10&#45;27&#39;</text>
</g>
<!-- N3 -->
<g id="node4" class="node"><title>N3</title>
<path fill="#ffffff" stroke="#2e3436" stroke-width="1.5" d="M93.9033,-98.5C93.9033,-98.5 170.903,-98.5 170.903,-98.5 176.903,-98.5 182.903,-104.5 182.903,-110.5 182.903,-110.5 182.903,-122.5 182.903,-122.5 182.903,-128.5 176.903,-134.5 170.903,-134.5 170.903,-134.5 93.9033,-134.5 93.9033,-134.5 87.9033,-134.5 81.9033,-128.5 81.9033,-122.5 81.9033,-122.5 81.9033,-110.5 81.9033,-110.5 81.9033,-104.5 87.9033,-98.5 93.9033,-98.5"/>
<text text-anchor="middle" x="132.403" y="-123.6" font-family="FreeSans" font-size="8.00" fill="#1c2021">Actor</text>
<polyline fill="none" stroke="#2e3436" stroke-width="1.5" points="81.9033,-116.5 182.903,-116.5 "/>
<text text-anchor="start" x="89.9033" y="-105.6" font-family="FreeSans" font-size="8.00" fill="#1c2021">name = &#39;Keanu Reeves&#39;</text>
</g>
<!-- N3&#45;&gt;N0 -->
<g id="edge3" class="edge"><title>N3&#45;&gt;N0</title>
<path fill="none" stroke="#2e3436" stroke-width="2" d="M148.007,-98.4304C158.243,-87.5711 172.143,-73.4495 185.403,-62 190.737,-57.3944 196.578,-52.7439 202.372,-48.3375"/>
<polygon fill="#2e3436" stroke="#2e3436" stroke-width="2" points="208.614,-43.6656 204.632,-50.8617 205.911,-46.313 202.909,-48.56 202.609,-48.1597 202.31,-47.7594 205.312,-45.5124 200.587,-45.4577 208.614,-43.6656 208.614,-43.6656"/>
<text text-anchor="middle" x="205.903" y="-73.6" font-family="FreeSans" font-size="8.00" fill="#2e3436">ACTS_IN</text>
<text text-anchor="start" x="185.403" y="-64.6" font-family="FreeSans" font-size="8.00" fill="#2e3436">role = &#39;Neo&#39;</text>
</g>
<!-- N3&#45;&gt;N1 -->
<g id="edge2" class="edge"><title>N3&#45;&gt;N1</title>
<path fill="none" stroke="#2e3436" stroke-width="2" d="M81.6839,-107.835C50.2139,-101.925 13.9998,-92.6203 4.40334,-80 -5.11262,-67.4857 2.89622,-56.4418 16.7857,-47.4886"/>
<polygon fill="#2e3436" stroke="#2e3436" stroke-width="2" points="23.5394,-43.5243 18.7798,-50.2316 20.5585,-45.8538 17.3245,-47.7522 17.0713,-47.3209 16.8182,-46.8897 20.0523,-44.9914 15.3628,-44.4103 23.5394,-43.5243 23.5394,-43.5243"/>
<text text-anchor="middle" x="24.9033" y="-73.6" font-family="FreeSans" font-size="8.00" fill="#2e3436">ACTS_IN</text>
<text text-anchor="start" x="4.40334" y="-64.6" font-family="FreeSans" font-size="8.00" fill="#2e3436">role = &#39;Neo&#39;</text>
</g>
<!-- N3&#45;&gt;N2 -->
<g id="edge1" class="edge"><title>N3&#45;&gt;N2</title>
<path fill="none" stroke="#2e3436" stroke-width="2" d="M182.96,-101.015C187.818,-99.8876 192.689,-98.8566 197.403,-98 279.118,-83.1528 305.167,-107.872 383.403,-80 396.989,-75.16 397.876,-69.1456 410.403,-62 419.458,-56.8352 429.302,-51.7108 438.906,-46.9572"/>
<polygon fill="#2e3436" stroke="#2e3436" stroke-width="2" points="445.842,-43.5662 440.587,-49.8923 442.693,-45.6624 439.324,-47.3094 439.104,-46.8602 438.885,-46.411 442.254,-44.764 437.622,-43.8282 445.842,-43.5662 445.842,-43.5662"/>
<text text-anchor="middle" x="430.903" y="-73.6" font-family="FreeSans" font-size="8.00" fill="#2e3436">ACTS_IN</text>
<text text-anchor="start" x="410.403" y="-64.6" font-family="FreeSans" font-size="8.00" fill="#2e3436">role = &#39;Neo&#39;</text>
</g>
<!-- N4 -->
<g id="node5" class="node"><title>N4</title>
<path fill="#ffffff" stroke="#2e3436" stroke-width="1.5" d="M524.403,-98.5C524.403,-98.5 622.403,-98.5 622.403,-98.5 628.403,-98.5 634.403,-104.5 634.403,-110.5 634.403,-110.5 634.403,-122.5 634.403,-122.5 634.403,-128.5 628.403,-134.5 622.403,-134.5 622.403,-134.5 524.403,-134.5 524.403,-134.5 518.403,-134.5 512.403,-128.5 512.403,-122.5 512.403,-122.5 512.403,-110.5 512.403,-110.5 512.403,-104.5 518.403,-98.5 524.403,-98.5"/>
<text text-anchor="middle" x="573.403" y="-123.6" font-family="FreeSans" font-size="8.00" fill="#1c2021">Actor</text>
<polyline fill="none" stroke="#2e3436" stroke-width="1.5" points="512.403,-116.5 634.403,-116.5 "/>
<text text-anchor="start" x="520.403" y="-105.6" font-family="FreeSans" font-size="8.00" fill="#1c2021">name = &#39;Laurence Fishburne&#39;</text>
</g>
<!-- N4&#45;&gt;N0 -->
<g id="edge6" class="edge"><title>N4&#45;&gt;N0</title>
<path fill="none" stroke="#2e3436" stroke-width="2" d="M563.731,-98.3173C555.872,-86.0738 543.613,-70.3601 528.403,-62 518.039,-56.3033 369.267,-38.2539 288.958,-28.8403"/>
<polygon fill="#2e3436" stroke="#2e3436" stroke-width="2" points="281.407,-27.957 289.249,-25.4763 285.19,-27.8961 288.915,-28.3319 288.857,-28.8285 288.798,-29.3251 285.074,-28.8893 288.464,-32.1806 281.407,-27.957 281.407,-27.957"/>
<text text-anchor="middle" x="579.403" y="-73.6" font-family="FreeSans" font-size="8.00" fill="#2e3436">ACTS_IN</text>
<text text-anchor="start" x="548.403" y="-64.6" font-family="FreeSans" font-size="8.00" fill="#2e3436">role = &#39;Morpheus&#39;</text>
</g>
<!-- N4&#45;&gt;N1 -->
<g id="edge5" class="edge"><title>N4&#45;&gt;N1</title>
<path fill="none" stroke="#2e3436" stroke-width="2" d="M512.369,-114.807C458.649,-112.423 379.128,-104.519 314.403,-80 300.916,-74.891 300.811,-67.3138 287.403,-62 242.572,-44.2323 227.779,-53.0053 180.403,-44 169.605,-41.9473 158.171,-39.6437 147.058,-37.3344"/>
<polygon fill="#2e3436" stroke="#2e3436" stroke-width="2" points="139.428,-35.7378 147.46,-33.9705 143.201,-36.0165 146.871,-36.7845 146.769,-37.2739 146.666,-37.7633 142.996,-36.9953 146.078,-40.5774 139.428,-35.7378 139.428,-35.7378"/>
<text text-anchor="middle" x="345.403" y="-73.6" font-family="FreeSans" font-size="8.00" fill="#2e3436">ACTS_IN</text>
<text text-anchor="start" x="314.403" y="-64.6" font-family="FreeSans" font-size="8.00" fill="#2e3436">role = &#39;Morpheus&#39;</text>
</g>
<!-- N4&#45;&gt;N2 -->
<g id="edge4" class="edge"><title>N4&#45;&gt;N2</title>
<path fill="none" stroke="#2e3436" stroke-width="2" d="M615.871,-98.2904C633.245,-88.6953 647.054,-75.8935 636.403,-62 626.676,-49.3109 592.979,-39.8278 560.516,-33.3917"/>
<polygon fill="#2e3436" stroke="#2e3436" stroke-width="2" points="552.746,-31.9024 560.747,-29.9995 556.523,-32.1172 560.206,-32.8231 560.112,-33.3142 560.018,-33.8052 556.335,-33.0994 559.476,-36.6289 552.746,-31.9024 552.746,-31.9024"/>
<text text-anchor="middle" x="670.403" y="-73.6" font-family="FreeSans" font-size="8.00" fill="#2e3436">ACTS_IN</text>
<text text-anchor="start" x="639.403" y="-64.6" font-family="FreeSans" font-size="8.00" fill="#2e3436">role = &#39;Morpheus&#39;</text>
</g>
<!-- N5 -->
<g id="node6" class="node"><title>N5</title>
<path fill="#ffffff" stroke="#2e3436" stroke-width="1.5" d="M224.403,-98.5C224.403,-98.5 314.403,-98.5 314.403,-98.5 320.403,-98.5 326.403,-104.5 326.403,-110.5 326.403,-110.5 326.403,-122.5 326.403,-122.5 326.403,-128.5 320.403,-134.5 314.403,-134.5 314.403,-134.5 224.403,-134.5 224.403,-134.5 218.403,-134.5 212.403,-128.5 212.403,-122.5 212.403,-122.5 212.403,-110.5 212.403,-110.5 212.403,-104.5 218.403,-98.5 224.403,-98.5"/>
<text text-anchor="middle" x="269.403" y="-123.6" font-family="FreeSans" font-size="8.00" fill="#1c2021">Actor</text>
<polyline fill="none" stroke="#2e3436" stroke-width="1.5" points="212.403,-116.5 326.403,-116.5 "/>
<text text-anchor="start" x="220.403" y="-105.6" font-family="FreeSans" font-size="8.00" fill="#1c2021">name = &#39;Carrie&#45;Anne Moss&#39;</text>
</g>
<!-- N5&#45;&gt;N0 -->
<g id="edge9" class="edge"><title>N5&#45;&gt;N0</title>
<path fill="none" stroke="#2e3436" stroke-width="2" d="M248.575,-98.2375C243.643,-92.9516 239.05,-86.7352 236.403,-80 232.895,-71.0722 232.328,-60.7389 232.979,-51.3422"/>
<polygon fill="#2e3436" stroke="#2e3436" stroke-width="2" points="233.774,-43.7208 236.353,-51.5307 233.882,-47.5024 233.493,-51.2322 232.996,-51.1803 232.498,-51.1284 232.888,-47.3986 229.639,-50.8299 233.774,-43.7208 233.774,-43.7208"/>
<text text-anchor="middle" x="260.403" y="-73.6" font-family="FreeSans" font-size="8.00" fill="#2e3436">ACTS_IN</text>
<text text-anchor="start" x="236.403" y="-64.6" font-family="FreeSans" font-size="8.00" fill="#2e3436">role = &#39;Trinity&#39;</text>
</g>
<!-- N5&#45;&gt;N1 -->
<g id="edge8" class="edge"><title>N5&#45;&gt;N1</title>
<path fill="none" stroke="#2e3436" stroke-width="2" d="M212.061,-101.4C207.108,-100.231 202.17,-99.0837 197.403,-98 159.749,-89.439 143.361,-103.082 112.403,-80 102.644,-72.7238 95.6007,-61.4339 90.7187,-50.8153"/>
<polygon fill="#2e3436" stroke="#2e3436" stroke-width="2" points="87.6774,-43.6289 93.7086,-49.2205 89.5994,-46.8875 91.0609,-50.341 90.6005,-50.5359 90.14,-50.7307 88.6785,-47.2772 87.4923,-51.8512 87.6774,-43.6289 87.6774,-43.6289"/>
<text text-anchor="middle" x="136.403" y="-73.6" font-family="FreeSans" font-size="8.00" fill="#2e3436">ACTS_IN</text>
<text text-anchor="start" x="112.403" y="-64.6" font-family="FreeSans" font-size="8.00" fill="#2e3436">role = &#39;Trinity&#39;</text>
</g>
<!-- N5&#45;&gt;N2 -->
<g id="edge7" class="edge"><title>N5&#45;&gt;N2</title>
<path fill="none" stroke="#2e3436" stroke-width="2" d="M326.445,-110.049C374.117,-104.552 437.555,-94.7532 458.403,-80 468.587,-72.7937 476.084,-61.377 481.335,-50.6475"/>
<polygon fill="#2e3436" stroke="#2e3436" stroke-width="2" points="484.467,-43.747 484.441,-51.9714 483.373,-47.3684 481.823,-50.7831 481.367,-50.5765 480.912,-50.3698 482.462,-46.9551 478.294,-49.1816 484.467,-43.747 484.467,-43.747"/>
<text text-anchor="middle" x="497.403" y="-73.6" font-family="FreeSans" font-size="8.00" fill="#2e3436">ACTS_IN</text>
<text text-anchor="start" x="473.403" y="-64.6" font-family="FreeSans" font-size="8.00" fill="#2e3436">role = &#39;Trinity&#39;</text>
</g>
</g>
</svg>
