<?xml version="1.0" encoding="UTF-8" standalone="no"?>
<!DOCTYPE svg PUBLIC "-//W3C//DTD SVG 1.1//EN"
 "http://www.w3.org/Graphics/SVG/1.1/DTD/svg11.dtd">
<!-- Generated by graphviz version 2.38.0 (20140413.2041)
 -->
<!-- Title: g Pages: 1 -->
<svg width="210pt" height="183pt"
 viewBox="0.00 0.00 209.68 183.30" xmlns="http://www.w3.org/2000/svg" xmlns:xlink="http://www.w3.org/1999/xlink">
<g id="graph0" class="graph" transform="scale(1 1) rotate(0) translate(104.831 91.627)">
<title>g</title>
<polygon fill="white" stroke="none" points="-104.831,91.6764 -104.831,-91.627 104.851,-91.627 104.851,91.6764 -104.831,91.6764"/>
<!-- N0 -->
<g id="node1" class="node"><title>N0</title>
<path fill="#ffffff" stroke="#2e3436" stroke-width="1.5" d="M-14.9892,18.0448C-14.9892,18.0448 15.0108,18.0448 15.0108,18.0448 21.0108,18.0448 27.0108,12.0448 27.0108,6.04476 27.0108,6.04476 27.0108,-5.95524 27.0108,-5.95524 27.0108,-11.9552 21.0108,-17.9552 15.0108,-17.9552 15.0108,-17.9552 -14.9892,-17.9552 -14.9892,-17.9552 -20.9892,-17.9552 -26.9892,-11.9552 -26.9892,-5.95524 -26.9892,-5.95524 -26.9892,6.04476 -26.9892,6.04476 -26.9892,12.0448 -20.9892,18.0448 -14.9892,18.0448"/>
<text text-anchor="middle" x="0.0107847" y="1.94476" font-family="FreeSans" font-size="8.00" fill="#1c2021"> </text>
</g>
<!-- N6 -->
<g id="node2" class="node"><title>N6</title>
<path fill="#ffffff" stroke="#2e3436" stroke-width="1.5" d="M12.9139,87.1764C12.9139,87.1764 42.9139,87.1764 42.9139,87.1764 48.9139,87.1764 54.9139,81.1764 54.9139,75.1764 54.9139,75.1764 54.9139,63.1764 54.9139,63.1764 54.9139,57.1764 48.9139,51.1764 42.9139,51.1764 42.9139,51.1764 12.9139,51.1764 12.9139,51.1764 6.91391,51.1764 0.913908,57.1764 0.913908,63.1764 0.913908,63.1764 0.913908,75.1764 0.913908,75.1764 0.913908,81.1764 6.91391,87.1764 12.9139,87.1764"/>
<text text-anchor="start" x="8.91391" y="71.0764" font-family="FreeSans" font-size="8.00" fill="#1c2021">count = 6</text>
</g>
<!-- N0&#45;&gt;N6 -->
<g id="edge1" class="edge"><title>N0&#45;&gt;N6</title>
<path fill="none" stroke="#2e3436" stroke-width="2" d="M7.342,18.2083C10.4891,26.0055 14.2214,35.2523 17.6371,43.7151"/>
<polygon fill="#2e3436" stroke="#2e3436" stroke-width="2" points="20.5348,50.8941 20.8573,42.676 19.5948,47.2296 18.1912,43.7521 17.7276,43.9393 17.2639,44.1264 18.6675,47.6038 14.5979,45.2025 20.5348,50.8941 20.5348,50.8941"/>
<text text-anchor="middle" x="9.48957" y="28.3617" font-family="FreeSans" font-size="8.00" fill="#2e3436">X</text>
</g>
<!-- N5 -->
<g id="node3" class="node"><title>N5</title>
<path fill="#ffffff" stroke="#2e3436" stroke-width="1.5" d="M58.8505,28.3797C58.8505,28.3797 88.8505,28.3797 88.8505,28.3797 94.8505,28.3797 100.851,22.3797 100.851,16.3797 100.851,16.3797 100.851,4.37973 100.851,4.37973 100.851,-1.62027 94.8505,-7.62027 88.8505,-7.62027 88.8505,-7.62027 58.8505,-7.62027 58.8505,-7.62027 52.8505,-7.62027 46.8505,-1.62027 46.8505,4.37973 46.8505,4.37973 46.8505,16.3797 46.8505,16.3797 46.8505,22.3797 52.8505,28.3797 58.8505,28.3797"/>
<text text-anchor="start" x="54.8505" y="12.2797" font-family="FreeSans" font-size="8.00" fill="#1c2021">count = 5</text>
</g>
<!-- N0&#45;&gt;N5 -->
<g id="edge2" class="edge"><title>N0&#45;&gt;N5</title>
<path fill="none" stroke="#2e3436" stroke-width="2" d="M27.0867,3.83444C30.9995,4.38208 35.0713,4.95201 39.1084,5.51705"/>
<polygon fill="#2e3436" stroke="#2e3436" stroke-width="2" points="46.7779,6.59051 39.8182,2.20841 43.1334,5.5755 39.4196,5.05565 39.3503,5.55083 39.281,6.046 42.9948,6.56584 38.8824,8.89325 46.7779,6.59051 46.7779,6.59051"/>
<text text-anchor="middle" x="30.0975" y="2.07574" font-family="FreeSans" font-size="8.00" fill="#2e3436">X</text>
</g>
<!-- N4 -->
<g id="node4" class="node"><title>N4</title>
<path fill="#ffffff" stroke="#2e3436" stroke-width="1.5" d="M30.9117,-40.7472C30.9117,-40.7472 60.9117,-40.7472 60.9117,-40.7472 66.9117,-40.7472 72.9117,-46.7472 72.9117,-52.7472 72.9117,-52.7472 72.9117,-64.7472 72.9117,-64.7472 72.9117,-70.7472 66.9117,-76.7472 60.9117,-76.7472 60.9117,-76.7472 30.9117,-76.7472 30.9117,-76.7472 24.9117,-76.7472 18.9117,-70.7472 18.9117,-64.7472 18.9117,-64.7472 18.9117,-52.7472 18.9117,-52.7472 18.9117,-46.7472 24.9117,-40.7472 30.9117,-40.7472"/>
<text text-anchor="start" x="26.9117" y="-56.8472" font-family="FreeSans" font-size="8.00" fill="#1c2021">count = 4</text>
</g>
<!-- N0&#45;&gt;N4 -->
<g id="edge3" class="edge"><title>N0&#45;&gt;N4</title>
<path fill="none" stroke="#2e3436" stroke-width="2" d="M14.2825,-18.2351C18.2926,-23.3714 22.7172,-29.0386 26.9544,-34.4659"/>
<polygon fill="#2e3436" stroke="#2e3436" stroke-width="2" points="31.8065,-40.6806 24.5307,-36.8459 29.1046,-38.0324 26.7969,-35.0766 27.191,-34.7689 27.5851,-34.4612 29.8928,-37.4171 29.8513,-32.6919 31.8065,-40.6806 31.8065,-40.6806"/>
<text text-anchor="middle" x="17.6185" y="-28.9505" font-family="FreeSans" font-size="8.00" fill="#2e3436">X</text>
</g>
<!-- N3 -->
<g id="node5" class="node"><title>N3</title>
<path fill="#ffffff" stroke="#2e3436" stroke-width="1.5" d="M-42.8688,-51.127C-42.8688,-51.127 -12.8688,-51.127 -12.8688,-51.127 -6.86875,-51.127 -0.86875,-57.127 -0.86875,-63.127 -0.86875,-63.127 -0.86875,-75.127 -0.86875,-75.127 -0.86875,-81.127 -6.86875,-87.127 -12.8688,-87.127 -12.8688,-87.127 -42.8688,-87.127 -42.8688,-87.127 -48.8688,-87.127 -54.8688,-81.127 -54.8688,-75.127 -54.8688,-75.127 -54.8688,-63.127 -54.8688,-63.127 -54.8688,-57.127 -48.8688,-51.127 -42.8688,-51.127"/>
<text text-anchor="start" x="-46.8688" y="-67.227" font-family="FreeSans" font-size="8.00" fill="#1c2021">count = 3</text>
</g>
<!-- N0&#45;&gt;N3 -->
<g id="edge4" class="edge"><title>N0&#45;&gt;N3</title>
<path fill="none" stroke="#2e3436" stroke-width="2" d="M-7.31423,-18.1293C-10.4587,-25.931 -14.1878,-35.1832 -17.6007,-43.6509"/>
<polygon fill="#2e3436" stroke="#2e3436" stroke-width="2" points="-20.4959,-50.8342 -20.8224,-42.6162 -19.5577,-47.1691 -18.1558,-43.691 -17.6921,-43.8779 -17.2283,-44.0648 -18.6302,-47.543 -14.5618,-45.1396 -20.4959,-50.8342 -20.4959,-50.8342"/>
<text text-anchor="middle" x="-15.4575" y="-33.4901" font-family="FreeSans" font-size="8.00" fill="#2e3436">X</text>
</g>
<!-- N2 -->
<g id="node6" class="node"><title>N2</title>
<path fill="#ffffff" stroke="#2e3436" stroke-width="1.5" d="M-88.8314,7.54528C-88.8314,7.54528 -58.8314,7.54528 -58.8314,7.54528 -52.8314,7.54528 -46.8314,1.54528 -46.8314,-4.45472 -46.8314,-4.45472 -46.8314,-16.4547 -46.8314,-16.4547 -46.8314,-22.4547 -52.8314,-28.4547 -58.8314,-28.4547 -58.8314,-28.4547 -88.8314,-28.4547 -88.8314,-28.4547 -94.8314,-28.4547 -100.831,-22.4547 -100.831,-16.4547 -100.831,-16.4547 -100.831,-4.45472 -100.831,-4.45472 -100.831,1.54528 -94.8314,7.54528 -88.8314,7.54528"/>
<text text-anchor="start" x="-92.8314" y="-8.55472" font-family="FreeSans" font-size="8.00" fill="#1c2021">count = 2</text>
</g>
<!-- N0&#45;&gt;N2 -->
<g id="edge5" class="edge"><title>N0&#45;&gt;N2</title>
<path fill="none" stroke="#2e3436" stroke-width="2" d="M-27.066,-3.80524C-30.9789,-4.36161 -35.0509,-4.9406 -39.0881,-5.51464"/>
<polygon fill="#2e3436" stroke="#2e3436" stroke-width="2" points="-46.7578,-6.60519 -39.8077,-2.20792 -43.1156,-5.58223 -39.4029,-5.05429 -39.3325,-5.54931 -39.2621,-6.04433 -42.9748,-6.57227 -38.8574,-8.8907 -46.7578,-6.60519 -46.7578,-6.60519"/>
<text text-anchor="middle" x="-36.077" y="-7.25994" font-family="FreeSans" font-size="8.00" fill="#2e3436">X</text>
</g>
<!-- N1 -->
<g id="node7" class="node"><title>N1</title>
<path fill="#ffffff" stroke="#2e3436" stroke-width="1.5" d="M-60.9868,76.7281C-60.9868,76.7281 -30.9868,76.7281 -30.9868,76.7281 -24.9868,76.7281 -18.9868,70.7281 -18.9868,64.7281 -18.9868,64.7281 -18.9868,52.7281 -18.9868,52.7281 -18.9868,46.7281 -24.9868,40.7281 -30.9868,40.7281 -30.9868,40.7281 -60.9868,40.7281 -60.9868,40.7281 -66.9868,40.7281 -72.9868,46.7281 -72.9868,52.7281 -72.9868,52.7281 -72.9868,64.7281 -72.9868,64.7281 -72.9868,70.7281 -66.9868,76.7281 -60.9868,76.7281"/>
<text text-anchor="start" x="-64.9868" y="60.6281" font-family="FreeSans" font-size="8.00" fill="#1c2021">count = 1</text>
</g>
<!-- N0&#45;&gt;N1 -->
<g id="edge6" class="edge"><title>N0&#45;&gt;N1</title>
<path fill="none" stroke="#2e3436" stroke-width="2" d="M-14.291,18.2909C-18.3095,23.4176 -22.7434,29.0744 -26.9896,34.4916"/>
<polygon fill="#2e3436" stroke="#2e3436" stroke-width="2" points="-31.8519,40.6949 -24.5688,36.8741 -29.1449,38.0519 -26.8315,35.1005 -27.2251,34.7921 -27.6186,34.4836 -29.932,37.435 -29.8813,32.71 -31.8519,40.6949 -31.8519,40.6949"/>
<text text-anchor="middle" x="-23.6403" y="32.7913" font-family="FreeSans" font-size="8.00" fill="#2e3436">X</text>
</g>
<!-- N6&#45;&gt;N1 -->
<g id="edge12" class="edge"><title>N6&#45;&gt;N1</title>
<path fill="none" stroke="#2e3436" stroke-width="2" d="M0.815633,65.3451C-3.10035,64.7915 -7.17561,64.2153 -11.216,63.6441"/>
<polygon fill="#2e3436" stroke="#2e3436" stroke-width="2" points="-18.8918,62.5589 -11.9382,66.9506 -15.2488,63.5789 -11.5357,64.104 -11.4657,63.6089 -11.3957,63.1138 -15.1087,62.5888 -10.9932,60.2671 -18.8918,62.5589 -18.8918,62.5589"/>
<text text-anchor="middle" x="-8.20018" y="61.8946" font-family="FreeSans" font-size="8.00" fill="#2e3436">X</text>
</g>
<!-- N5&#45;&gt;N6 -->
<g id="edge11" class="edge"><title>N5&#45;&gt;N6</title>
<path fill="none" stroke="#2e3436" stroke-width="2" d="M59.5677,28.6611C55.5545,33.7977 51.1265,39.4654 46.8859,44.8931"/>
<polygon fill="#2e3436" stroke="#2e3436" stroke-width="2" points="42.0301,51.1083 49.3071,47.276 44.7329,48.4611 47.0416,45.506 46.6476,45.1982 46.2536,44.8904 43.9449,47.8454 43.988,43.1203 42.0301,51.1083 42.0301,51.1083"/>
<text text-anchor="middle" x="50.2268" y="43.1771" font-family="FreeSans" font-size="8.00" fill="#2e3436">X</text>
</g>
<!-- N4&#45;&gt;N5 -->
<g id="edge10" class="edge"><title>N4&#45;&gt;N5</title>
<path fill="none" stroke="#2e3436" stroke-width="2" d="M53.2523,-40.5849C56.4035,-32.7883 60.1405,-23.5421 63.5606,-15.0798"/>
<polygon fill="#2e3436" stroke="#2e3436" stroke-width="2" points="66.462,-7.90127 66.7806,-16.1195 65.5203,-11.5654 64.1151,-15.0422 63.6515,-14.8548 63.1879,-14.6675 64.5932,-11.1907 60.5224,-13.5901 66.462,-7.90127 66.462,-7.90127"/>
<text text-anchor="middle" x="55.4065" y="-30.4324" font-family="FreeSans" font-size="8.00" fill="#2e3436">X</text>
</g>
<!-- N3&#45;&gt;N4 -->
<g id="edge9" class="edge"><title>N3&#45;&gt;N4</title>
<path fill="none" stroke="#2e3436" stroke-width="2" d="M-0.814576,-65.3209C3.09504,-64.7709 7.16366,-64.1985 11.1975,-63.631"/>
<polygon fill="#2e3436" stroke="#2e3436" stroke-width="2" points="18.8608,-62.5529 11.9042,-66.9399 15.217,-63.5705 11.5036,-64.0929 11.4339,-63.5978 11.3643,-63.1027 15.0777,-62.5802 10.9637,-60.2557 18.8608,-62.5529 18.8608,-62.5529"/>
<text text-anchor="middle" x="2.19144" y="-67.076" font-family="FreeSans" font-size="8.00" fill="#2e3436">X</text>
</g>
<!-- N2&#45;&gt;N3 -->
<g id="edge8" class="edge"><title>N2&#45;&gt;N3</title>
<path fill="none" stroke="#2e3436" stroke-width="2" d="M-59.5405,-28.6974C-55.525,-33.8232 -51.0944,-39.4789 -46.8515,-44.8951"/>
<polygon fill="#2e3436" stroke="#2e3436" stroke-width="2" points="-41.9929,-51.0972 -49.275,-47.2744 -44.6991,-48.4535 -47.0117,-45.5014 -46.6181,-45.1931 -46.2245,-44.8847 -43.9119,-47.8368 -43.9613,-43.1117 -41.9929,-51.0972 -41.9929,-51.0972"/>
<text text-anchor="middle" x="-56.196" y="-39.3963" font-family="FreeSans" font-size="8.00" fill="#2e3436">X</text>
</g>
<!-- N1&#45;&gt;N2 -->
<g id="edge7" class="edge"><title>N1&#45;&gt;N2</title>
<path fill="none" stroke="#2e3436" stroke-width="2" d="M-53.3026,40.5511C-56.4432,32.7482 -60.1676,23.4945 -63.5762,15.0254"/>
<polygon fill="#2e3436" stroke="#2e3436" stroke-width="2" points="-66.4677,7.84106 -66.7983,16.0588 -65.5314,11.5066 -64.1312,14.9854 -63.6674,14.7987 -63.2035,14.612 -64.6037,11.1332 -60.5364,13.5385 -66.4677,7.84106 -66.4677,7.84106"/>
<text text-anchor="middle" x="-61.4394" y="25.1883" font-family="FreeSans" font-size="8.00" fill="#2e3436">X</text>
</g>
</g>
</svg>
