<?xml version="1.0" encoding="UTF-8" standalone="no"?>
<!DOCTYPE svg PUBLIC "-//W3C//DTD SVG 1.1//EN"
 "http://www.w3.org/Graphics/SVG/1.1/DTD/svg11.dtd">
<!-- Generated by graphviz version 2.38.0 (20140413.2041)
 -->
<!-- Title: g Pages: 1 -->
<svg width="220pt" height="210pt"
 viewBox="0.00 0.00 220.00 210.00" xmlns="http://www.w3.org/2000/svg" xmlns:xlink="http://www.w3.org/1999/xlink">
<g id="graph0" class="graph" transform="scale(1 1) rotate(0) translate(4 206)">
<title>g</title>
<polygon fill="white" stroke="none" points="-4,4 -4,-206 216,-206 216,4 -4,4"/>
<!-- Maja -->
<g id="node1" class="node"><title>Maja</title>
<path fill="#ffffff" stroke="#2e3436" stroke-width="1.5" d="M65,-202C65,-202 12,-202 12,-202 6,-202 0,-196 0,-190 0,-190 0,-178 0,-178 0,-172 6,-166 12,-166 12,-166 65,-166 65,-166 71,-166 77,-172 77,-178 77,-178 77,-190 77,-190 77,-196 71,-202 65,-202"/>
<text text-anchor="middle" x="38.5" y="-181.5" font-family="FreeSans" font-size="10.00" fill="#1c2021">name = &#39;Maja&#39;</text>
</g>
<!-- Oscar -->
<g id="node2" class="node"><title>Oscar</title>
<path fill="#ffffff" stroke="#2e3436" stroke-width="1.5" d="M120,-119C120,-119 63,-119 63,-119 57,-119 51,-113 51,-107 51,-107 51,-95 51,-95 51,-89 57,-83 63,-83 63,-83 120,-83 120,-83 126,-83 132,-89 132,-95 132,-95 132,-107 132,-107 132,-113 126,-119 120,-119"/>
<text text-anchor="middle" x="91.5" y="-98.5" font-family="FreeSans" font-size="10.00" fill="#1c2021">name = &#39;Oscar&#39;</text>
</g>
<!-- Maja&#45;&gt;Oscar -->
<g id="edge1" class="edge"><title>Maja&#45;&gt;Oscar</title>
<path fill="none" stroke="#2e3436" stroke-width="2" d="M16.1213,-165.988C7.50054,-157.324 1.08966,-146.616 7.5,-137 15.8582,-124.463 29.6477,-116.409 43.6615,-111.239"/>
<polygon fill="#2e3436" stroke="#2e3436" stroke-width="2" points="50.9827,-108.789 44.9411,-114.37 47.5851,-110.453 44.0289,-111.643 43.8702,-111.169 43.7116,-110.695 47.2678,-109.505 42.7993,-107.968 50.9827,-108.789 50.9827,-108.789"/>
<text text-anchor="middle" x="31.5" y="-140" font-family="FreeSans" font-size="10.00" fill="#1c2021">FOLLOWS</text>
</g>
<!-- Oscar&#45;&gt;Maja -->
<g id="edge2" class="edge"><title>Oscar&#45;&gt;Maja</title>
<path fill="none" stroke="#2e3436" stroke-width="2" d="M80.2763,-119.153C72.6207,-130.853 62.3821,-146.501 53.9571,-159.377"/>
<polygon fill="#2e3436" stroke="#2e3436" stroke-width="2" points="49.7399,-165.822 51.0223,-157.698 51.3748,-162.41 53.428,-159.272 53.8464,-159.546 54.2648,-159.82 52.2116,-162.958 56.6706,-161.394 49.7399,-165.822 49.7399,-165.822"/>
<text text-anchor="middle" x="91.5" y="-140" font-family="FreeSans" font-size="10.00" fill="#1c2021">FOLLOWS</text>
</g>
<!-- William -->
<g id="node4" class="node"><title>William</title>
<path fill="#ffffff" stroke="#2e3436" stroke-width="1.5" d="M123,-36C123,-36 60,-36 60,-36 54,-36 48,-30 48,-24 48,-24 48,-12 48,-12 48,-6 54,-0 60,-0 60,-0 123,-0 123,-0 129,-0 135,-6 135,-12 135,-12 135,-24 135,-24 135,-30 129,-36 123,-36"/>
<text text-anchor="middle" x="91.5" y="-15.5" font-family="FreeSans" font-size="10.00" fill="#1c2021">name = &#39;William&#39;</text>
</g>
<!-- Oscar&#45;&gt;William -->
<g id="edge4" class="edge"><title>Oscar&#45;&gt;William</title>
<path fill="none" stroke="#2e3436" stroke-width="2" d="M91.5,-82.822C91.5,-71.4386 91.5,-56.3263 91.5,-43.6649"/>
<polygon fill="#2e3436" stroke="#2e3436" stroke-width="2" points="91.5,-36.1533 94.8751,-43.6532 92,-39.9032 92.0001,-43.6532 91.5001,-43.6533 91.0001,-43.6533 91,-39.9033 88.1251,-43.6533 91.5,-36.1533 91.5,-36.1533"/>
<text text-anchor="middle" x="111.5" y="-57" font-family="FreeSans" font-size="10.00" fill="#1c2021">BLOCKS</text>
</g>
<!-- Alice -->
<g id="node3" class="node"><title>Alice</title>
<path fill="#ffffff" stroke="#2e3436" stroke-width="1.5" d="M200,-202C200,-202 147,-202 147,-202 141,-202 135,-196 135,-190 135,-190 135,-178 135,-178 135,-172 141,-166 147,-166 147,-166 200,-166 200,-166 206,-166 212,-172 212,-178 212,-178 212,-190 212,-190 212,-196 206,-202 200,-202"/>
<text text-anchor="middle" x="173.5" y="-181.5" font-family="FreeSans" font-size="10.00" fill="#1c2021">name = &#39;Alice&#39;</text>
</g>
<!-- Alice&#45;&gt;Oscar -->
<g id="edge3" class="edge"><title>Alice&#45;&gt;Oscar</title>
<path fill="none" stroke="#2e3436" stroke-width="2" d="M156.11,-165.822C143.934,-153.794 127.543,-137.604 114.318,-124.539"/>
<polygon fill="#2e3436" stroke="#2e3436" stroke-width="2" points="108.865,-119.153 116.573,-122.023 111.884,-121.433 114.552,-124.068 114.201,-124.424 113.849,-124.78 111.182,-122.144 111.829,-126.825 108.865,-119.153 108.865,-119.153"/>
<text text-anchor="middle" x="160.5" y="-140" font-family="FreeSans" font-size="10.00" fill="#1c2021">FOLLOWS</text>
</g>
</g>
</svg>
