<?xml version="1.0" encoding="UTF-8" standalone="no"?>
<!DOCTYPE svg PUBLIC "-//W3C//DTD SVG 1.1//EN"
 "http://www.w3.org/Graphics/SVG/1.1/DTD/svg11.dtd">
<!-- Generated by graphviz version 2.38.0 (20140413.2041)
 -->
<!-- Title: g Pages: 1 -->
<svg width="159pt" height="45pt"
 viewBox="0.00 0.00 159.00 45.00" xmlns="http://www.w3.org/2000/svg" xmlns:xlink="http://www.w3.org/1999/xlink">
<g id="graph0" class="graph" transform="scale(1 1) rotate(0) translate(4 41)">
<title>g</title>
<polygon fill="white" stroke="none" points="-4,4 -4,-41 155,-41 155,4 -4,4"/>
<!-- N2 -->
<g id="node1" class="node"><title>N2</title>
<path fill="#ffffff" stroke="#2e3436" stroke-width="1.5" d="M12,-0.5C12,-0.5 79,-0.5 79,-0.5 85,-0.5 91,-6.5 91,-12.5 91,-12.5 91,-24.5 91,-24.5 91,-30.5 85,-36.5 79,-36.5 79,-36.5 12,-36.5 12,-36.5 6,-36.5 0,-30.5 0,-24.5 0,-24.5 0,-12.5 0,-12.5 0,-6.5 6,-0.5 12,-0.5"/>
<text text-anchor="start" x="8" y="-21.1" font-family="FreeSans" font-size="8.00" fill="#1c2021">name = &#39;Tom Hanks&#39;</text>
<text text-anchor="start" x="8" y="-12.1" font-family="FreeSans" font-size="8.00" fill="#1c2021">born = 1956</text>
</g>
<!-- N2&#45;&gt;N2 -->
<g id="edge1" class="edge"><title>N2&#45;&gt;N2</title>
<path fill="none" stroke="#2e3436" stroke-width="2" d="M91.3327,-25.2484C107.192,-25.3198 120,-23.0703 120,-18.5 120,-14.6795 111.05,-12.4808 98.8491,-11.9039"/>
<polygon fill="#2e3436" stroke="#2e3436" stroke-width="2" points="91.3327,-11.7516 98.8996,-8.52934 95.0921,-11.3277 98.8413,-11.4037 98.8312,-11.9036 98.8211,-12.4035 95.0718,-12.3275 98.7628,-15.278 91.3327,-11.7516 91.3327,-11.7516"/>
<text text-anchor="middle" x="135.5" y="-16.6" font-family="FreeSans" font-size="8.00" fill="#1c2021">KNOWS</text>
</g>
</g>
</svg>
