<?xml version="1.0" encoding="UTF-8" standalone="no"?>
<!DOCTYPE svg PUBLIC "-//W3C//DTD SVG 1.1//EN"
 "http://www.w3.org/Graphics/SVG/1.1/DTD/svg11.dtd">
<!-- Generated by graphviz version 2.38.0 (20140413.2041)
 -->
<!-- Title: g Pages: 1 -->
<svg width="239pt" height="136pt"
 viewBox="0.00 0.00 239.00 136.00" xmlns="http://www.w3.org/2000/svg" xmlns:xlink="http://www.w3.org/1999/xlink">
<g id="graph0" class="graph" transform="scale(1 1) rotate(0) translate(4 132)">
<title>g</title>
<polygon fill="white" stroke="none" points="-4,4 -4,-132 235,-132 235,4 -4,4"/>
<!-- N2 -->
<g id="node1" class="node"><title>N2</title>
<path fill="#ffffff" stroke="#2e3436" stroke-width="1.5" d="M12,-91.5C12,-91.5 79,-91.5 79,-91.5 85,-91.5 91,-97.5 91,-103.5 91,-103.5 91,-115.5 91,-115.5 91,-121.5 85,-127.5 79,-127.5 79,-127.5 12,-127.5 12,-127.5 6,-127.5 0,-121.5 0,-115.5 0,-115.5 0,-103.5 0,-103.5 0,-97.5 6,-91.5 12,-91.5"/>
<text text-anchor="start" x="8" y="-112.1" font-family="FreeSans" font-size="8.00" fill="#1c2021">name = &#39;Tom Hanks&#39;</text>
<text text-anchor="start" x="8" y="-103.1" font-family="FreeSans" font-size="8.00" fill="#1c2021">born = 1956</text>
</g>
<!-- N3 -->
<g id="node2" class="node"><title>N3</title>
<path fill="#ffffff" stroke="#2e3436" stroke-width="1.5" d="M77,-0.5C77,-0.5 144,-0.5 144,-0.5 150,-0.5 156,-6.5 156,-12.5 156,-12.5 156,-24.5 156,-24.5 156,-30.5 150,-36.5 144,-36.5 144,-36.5 77,-36.5 77,-36.5 71,-36.5 65,-30.5 65,-24.5 65,-24.5 65,-12.5 65,-12.5 65,-6.5 71,-0.5 77,-0.5"/>
<text text-anchor="start" x="73" y="-21.1" font-family="FreeSans" font-size="8.00" fill="#1c2021">title = &#39;Forrest Gump&#39;</text>
<text text-anchor="start" x="73" y="-12.1" font-family="FreeSans" font-size="8.00" fill="#1c2021">released = 1994</text>
</g>
<!-- N2&#45;&gt;N3 -->
<g id="edge1" class="edge"><title>N2&#45;&gt;N3</title>
<path fill="none" stroke="#2e3436" stroke-width="2" d="M55.1462,-91.117C61.3573,-80.391 69.861,-66.5272 78.5,-55 81.6428,-50.8065 85.1825,-46.5215 88.732,-42.4454"/>
<polygon fill="#2e3436" stroke="#2e3436" stroke-width="2" points="93.8944,-36.6578 91.4206,-44.5014 91.7713,-39.7891 89.2751,-42.5876 88.902,-42.2548 88.5288,-41.922 91.025,-39.1235 86.3833,-40.0082 93.8944,-36.6578 93.8944,-36.6578"/>
<text text-anchor="middle" x="109" y="-66.6" font-family="FreeSans" font-size="8.00" fill="#2e3436">ACTED_IN</text>
<text text-anchor="start" x="78.5" y="-57.6" font-family="FreeSans" font-size="8.00" fill="#2e3436">roles = [&#39;Forrest&#39;]</text>
</g>
<!-- N4 -->
<g id="node3" class="node"><title>N4</title>
<path fill="#ffffff" stroke="#2e3436" stroke-width="1.5" d="M132,-91.5C132,-91.5 219,-91.5 219,-91.5 225,-91.5 231,-97.5 231,-103.5 231,-103.5 231,-115.5 231,-115.5 231,-121.5 225,-127.5 219,-127.5 219,-127.5 132,-127.5 132,-127.5 126,-127.5 120,-121.5 120,-115.5 120,-115.5 120,-103.5 120,-103.5 120,-97.5 126,-91.5 132,-91.5"/>
<text text-anchor="start" x="128" y="-112.1" font-family="FreeSans" font-size="8.00" fill="#1c2021">name = &#39;Robert Zemeckis&#39;</text>
<text text-anchor="start" x="128" y="-103.1" font-family="FreeSans" font-size="8.00" fill="#1c2021">born = 1951</text>
</g>
<!-- N4&#45;&gt;N3 -->
<g id="edge2" class="edge"><title>N4&#45;&gt;N3</title>
<path fill="none" stroke="#4e9a06" stroke-width="2" d="M165.854,-91.117C159.643,-80.391 151.139,-66.5272 142.5,-55 139.357,-50.8065 135.818,-46.5215 132.268,-42.4454"/>
<polygon fill="#4e9a06" stroke="#4e9a06" stroke-width="2" points="127.106,-36.6578 134.617,-40.0082 129.975,-39.1235 132.471,-41.922 132.098,-42.2548 131.725,-42.5876 129.229,-39.7891 129.579,-44.5014 127.106,-36.6578 127.106,-36.6578"/>
<text text-anchor="middle" x="175" y="-62.1" font-family="FreeSans" font-size="8.00" fill="#4e9a06">DIRECTED</text>
</g>
</g>
</svg>
