<?xml version="1.0" encoding="UTF-8" standalone="no"?>
<!DOCTYPE svg PUBLIC "-//W3C//DTD SVG 1.1//EN"
 "http://www.w3.org/Graphics/SVG/1.1/DTD/svg11.dtd">
<!-- Generated by graphviz version 2.38.0 (20140413.2041)
 -->
<!-- Title: g Pages: 1 -->
<svg width="367pt" height="45pt"
 viewBox="0.00 0.00 367.00 45.00" xmlns="http://www.w3.org/2000/svg" xmlns:xlink="http://www.w3.org/1999/xlink">
<g id="graph0" class="graph" transform="scale(1 1) rotate(0) translate(4 41)">
<title>g</title>
<polygon fill="white" stroke="none" points="-4,4 -4,-41 363,-41 363,4 -4,4"/>
<!-- N2 -->
<g id="node1" class="node"><title>N2</title>
<path fill="#ffffff" stroke="#2e3436" stroke-width="1.5" d="M12,-0.5C12,-0.5 121,-0.5 121,-0.5 127,-0.5 133,-6.5 133,-12.5 133,-12.5 133,-24.5 133,-24.5 133,-30.5 127,-36.5 121,-36.5 121,-36.5 12,-36.5 12,-36.5 6,-36.5 0,-30.5 0,-24.5 0,-24.5 0,-12.5 0,-12.5 0,-6.5 6,-0.5 12,-0.5"/>
<text text-anchor="middle" x="21" y="-16.6" font-family="FreeSans" font-size="8.00" fill="#1c2021">Person</text>
<polyline fill="none" stroke="#2e3436" stroke-width="1.5" points="42,-0.5 42,-36.5 "/>
<text text-anchor="start" x="50" y="-21.1" font-family="FreeSans" font-size="8.00" fill="#1c2021">name = &#39;Tom Hanks&#39;</text>
<text text-anchor="start" x="50" y="-12.1" font-family="FreeSans" font-size="8.00" fill="#1c2021">born = 1956</text>
</g>
<!-- N3 -->
<g id="node2" class="node"><title>N3</title>
<path fill="#ffffff" stroke="#2e3436" stroke-width="1.5" d="M242,-0.5C242,-0.5 347,-0.5 347,-0.5 353,-0.5 359,-6.5 359,-12.5 359,-12.5 359,-24.5 359,-24.5 359,-30.5 353,-36.5 347,-36.5 347,-36.5 242,-36.5 242,-36.5 236,-36.5 230,-30.5 230,-24.5 230,-24.5 230,-12.5 230,-12.5 230,-6.5 236,-0.5 242,-0.5"/>
<text text-anchor="middle" x="249" y="-16.6" font-family="FreeSans" font-size="8.00" fill="#1c2021">Movie</text>
<polyline fill="none" stroke="#2e3436" stroke-width="1.5" points="268,-0.5 268,-36.5 "/>
<text text-anchor="start" x="276" y="-21.1" font-family="FreeSans" font-size="8.00" fill="#1c2021">title = &#39;Forrest Gump&#39;</text>
<text text-anchor="start" x="276" y="-12.1" font-family="FreeSans" font-size="8.00" fill="#1c2021">released = 1994</text>
</g>
<!-- N2&#45;&gt;N3 -->
<g id="edge1" class="edge"><title>N2&#45;&gt;N3</title>
<path fill="none" stroke="#2e3436" stroke-width="2" d="M133.172,-18.5C161.047,-18.5 193.612,-18.5 222.084,-18.5"/>
<polygon fill="#2e3436" stroke="#2e3436" stroke-width="2" points="229.612,-18.5 222.113,-21.8751 225.862,-19 222.112,-19.0001 222.112,-18.5001 222.112,-18.0001 225.862,-18 222.112,-15.1251 229.612,-18.5 229.612,-18.5"/>
<text text-anchor="middle" x="181.5" y="-30.1" font-family="FreeSans" font-size="8.00" fill="#1c2021">ACTED_IN</text>
<text text-anchor="start" x="151" y="-21.1" font-family="FreeSans" font-size="8.00" fill="#1c2021">roles = [&#39;Forrest&#39;]</text>
</g>
</g>
</svg>
