<?xml version="1.0" encoding="UTF-8" standalone="no"?>
<!DOCTYPE svg PUBLIC "-//W3C//DTD SVG 1.1//EN"
 "http://www.w3.org/Graphics/SVG/1.1/DTD/svg11.dtd">
<!-- Generated by graphviz version 2.38.0 (20140413.2041)
 -->
<!-- Title: g Pages: 1 -->
<svg width="159pt" height="52pt"
 viewBox="0.00 0.00 159.00 52.00" xmlns="http://www.w3.org/2000/svg" xmlns:xlink="http://www.w3.org/1999/xlink">
<g id="graph0" class="graph" transform="scale(1 1) rotate(0) translate(4 48)">
<title>g</title>
<polygon fill="white" stroke="none" points="-4,4 -4,-48 155,-48 155,4 -4,4"/>
<!-- N2 -->
<g id="node1" class="node"><title>N2</title>
<path fill="#ffffff" stroke="#2e3436" stroke-width="1.5" d="M12,-0.5C12,-0.5 79,-0.5 79,-0.5 85,-0.5 91,-6.5 91,-12.5 91,-12.5 91,-31.5 91,-31.5 91,-37.5 85,-43.5 79,-43.5 79,-43.5 12,-43.5 12,-43.5 6,-43.5 0,-37.5 0,-31.5 0,-31.5 0,-12.5 0,-12.5 0,-6.5 6,-0.5 12,-0.5"/>
<text text-anchor="middle" x="45.5" y="-33.1" font-family="FreeSans" font-size="8.00" fill="#1c2021">Person</text>
<polyline fill="none" stroke="#2e3436" stroke-width="1.5" points="0,-26.5 91,-26.5 "/>
<text text-anchor="start" x="8" y="-16.1" font-family="FreeSans" font-size="8.00" fill="#1c2021">name = &#39;Tom Hanks&#39;</text>
<text text-anchor="start" x="8" y="-7.1" font-family="FreeSans" font-size="8.00" fill="#1c2021">born = 1956</text>
</g>
<!-- N2&#45;&gt;N2 -->
<g id="edge1" class="edge"><title>N2&#45;&gt;N2</title>
<path fill="none" stroke="#2e3436" stroke-width="2" d="M91.3327,-29.8731C107.192,-29.9564 120,-27.332 120,-22 120,-17.5428 111.05,-14.9776 98.8491,-14.3046"/>
<polygon fill="#2e3436" stroke="#2e3436" stroke-width="2" points="91.3327,-14.1269 98.9104,-10.9302 95.0935,-13.7157 98.8424,-13.8044 98.8306,-14.3042 98.8188,-14.8041 95.0699,-14.7154 98.7508,-17.6783 91.3327,-14.1269 91.3327,-14.1269"/>
<text text-anchor="middle" x="135.5" y="-20.1" font-family="FreeSans" font-size="8.00" fill="#2e3436">KNOWS</text>
</g>
</g>
</svg>
