<?xml version="1.0" encoding="UTF-8" standalone="no"?>
<!DOCTYPE svg PUBLIC "-//W3C//DTD SVG 1.1//EN"
 "http://www.w3.org/Graphics/SVG/1.1/DTD/svg11.dtd">
<!-- Generated by graphviz version 2.38.0 (20140413.2041)
 -->
<!-- Title: g Pages: 1 -->
<svg width="239pt" height="150pt"
 viewBox="0.00 0.00 239.00 150.00" xmlns="http://www.w3.org/2000/svg" xmlns:xlink="http://www.w3.org/1999/xlink">
<g id="graph0" class="graph" transform="scale(1 1) rotate(0) translate(4 146)">
<title>g</title>
<polygon fill="white" stroke="none" points="-4,4 -4,-146 235,-146 235,4 -4,4"/>
<!-- N2 -->
<g id="node1" class="node"><title>N2</title>
<path fill="#ffffff" stroke="#2e3436" stroke-width="1.5" d="M12,-98.5C12,-98.5 79,-98.5 79,-98.5 85,-98.5 91,-104.5 91,-110.5 91,-110.5 91,-129.5 91,-129.5 91,-135.5 85,-141.5 79,-141.5 79,-141.5 12,-141.5 12,-141.5 6,-141.5 0,-135.5 0,-129.5 0,-129.5 0,-110.5 0,-110.5 0,-104.5 6,-98.5 12,-98.5"/>
<text text-anchor="middle" x="45.5" y="-131.1" font-family="FreeSans" font-size="8.00" fill="#1c2021">Person</text>
<polyline fill="none" stroke="#2e3436" stroke-width="1.5" points="0,-124.5 91,-124.5 "/>
<text text-anchor="start" x="8" y="-114.1" font-family="FreeSans" font-size="8.00" fill="#1c2021">name = &#39;Tom Hanks&#39;</text>
<text text-anchor="start" x="8" y="-105.1" font-family="FreeSans" font-size="8.00" fill="#1c2021">born = 1956</text>
</g>
<!-- N3 -->
<g id="node2" class="node"><title>N3</title>
<path fill="#ffffff" stroke="#2e3436" stroke-width="1.5" d="M77,-0.5C77,-0.5 144,-0.5 144,-0.5 150,-0.5 156,-6.5 156,-12.5 156,-12.5 156,-31.5 156,-31.5 156,-37.5 150,-43.5 144,-43.5 144,-43.5 77,-43.5 77,-43.5 71,-43.5 65,-37.5 65,-31.5 65,-31.5 65,-12.5 65,-12.5 65,-6.5 71,-0.5 77,-0.5"/>
<text text-anchor="middle" x="110.5" y="-33.1" font-family="FreeSans" font-size="8.00" fill="#1c2021">Movie</text>
<polyline fill="none" stroke="#2e3436" stroke-width="1.5" points="65,-26.5 156,-26.5 "/>
<text text-anchor="start" x="73" y="-16.1" font-family="FreeSans" font-size="8.00" fill="#1c2021">title = &#39;Forrest Gump&#39;</text>
<text text-anchor="start" x="73" y="-7.1" font-family="FreeSans" font-size="8.00" fill="#1c2021">released = 1994</text>
</g>
<!-- N2&#45;&gt;N3 -->
<g id="edge1" class="edge"><title>N2&#45;&gt;N3</title>
<path fill="none" stroke="#2e3436" stroke-width="2" d="M56.332,-98.4602C62.4296,-87.392 70.4244,-73.6545 78.5,-62 81.3823,-57.8404 84.5937,-53.5716 87.8388,-49.4549"/>
<polygon fill="#2e3436" stroke="#2e3436" stroke-width="2" points="92.583,-43.5628 90.5082,-51.5212 90.6206,-46.7972 88.2688,-49.7181 87.8794,-49.4046 87.4899,-49.091 89.8417,-46.1701 85.2505,-47.2879 92.583,-43.5628 92.583,-43.5628"/>
<text text-anchor="middle" x="109" y="-73.6" font-family="FreeSans" font-size="8.00" fill="#1c2021">ACTED_IN</text>
<text text-anchor="start" x="78.5" y="-64.6" font-family="FreeSans" font-size="8.00" fill="#1c2021">roles = [&#39;Forrest&#39;]</text>
</g>
<!-- N4 -->
<g id="node3" class="node"><title>N4</title>
<path fill="#ffffff" stroke="#2e3436" stroke-width="1.5" d="M132,-98.5C132,-98.5 219,-98.5 219,-98.5 225,-98.5 231,-104.5 231,-110.5 231,-110.5 231,-129.5 231,-129.5 231,-135.5 225,-141.5 219,-141.5 219,-141.5 132,-141.5 132,-141.5 126,-141.5 120,-135.5 120,-129.5 120,-129.5 120,-110.5 120,-110.5 120,-104.5 126,-98.5 132,-98.5"/>
<text text-anchor="middle" x="175.5" y="-131.1" font-family="FreeSans" font-size="8.00" fill="#1c2021">Person</text>
<polyline fill="none" stroke="#2e3436" stroke-width="1.5" points="120,-124.5 231,-124.5 "/>
<text text-anchor="start" x="128" y="-114.1" font-family="FreeSans" font-size="8.00" fill="#1c2021">name = &#39;Robert Zemeckis&#39;</text>
<text text-anchor="start" x="128" y="-105.1" font-family="FreeSans" font-size="8.00" fill="#1c2021">born = 1951</text>
</g>
<!-- N4&#45;&gt;N3 -->
<g id="edge2" class="edge"><title>N4&#45;&gt;N3</title>
<path fill="none" stroke="#2e3436" stroke-width="2" d="M164.668,-98.4602C158.57,-87.392 150.576,-73.6545 142.5,-62 139.618,-57.8404 136.406,-53.5716 133.161,-49.4549"/>
<polygon fill="#2e3436" stroke="#2e3436" stroke-width="2" points="128.417,-43.5628 135.749,-47.2879 131.158,-46.1701 133.51,-49.091 133.121,-49.4046 132.731,-49.7181 130.379,-46.7972 130.492,-51.5212 128.417,-43.5628 128.417,-43.5628"/>
<text text-anchor="middle" x="174" y="-69.1" font-family="FreeSans" font-size="8.00" fill="#1c2021">DIRECTED</text>
</g>
</g>
</svg>
