<?xml version="1.0" encoding="UTF-8" standalone="no"?>
<!DOCTYPE svg PUBLIC "-//W3C//DTD SVG 1.1//EN"
 "http://www.w3.org/Graphics/SVG/1.1/DTD/svg11.dtd">
<!-- Generated by graphviz version 2.38.0 (20140413.2041)
 -->
<!-- Title: g Pages: 1 -->
<svg width="158pt" height="127pt"
 viewBox="0.00 0.00 158.35 127.00" xmlns="http://www.w3.org/2000/svg" xmlns:xlink="http://www.w3.org/1999/xlink">
<g id="graph0" class="graph" transform="scale(1 1) rotate(0) translate(4 123)">
<title>g</title>
<polygon fill="white" stroke="none" points="-4,4 -4,-123 154.349,-123 154.349,4 -4,4"/>
<!-- Person -->
<g id="node1" class="node"><title>Person</title>
<polygon fill="white" stroke="#2e3436" stroke-width="1.5" points="100.349,-119 46.3492,-119 46.3492,-83 100.349,-83 100.349,-119"/>
<text text-anchor="middle" x="73.3492" y="-98.5" font-family="FreeSans" font-size="10.00" fill="#1c2021">Person</text>
</g>
<!-- Movie -->
<g id="node2" class="node"><title>Movie</title>
<polygon fill="white" stroke="#2e3436" stroke-width="1.5" points="100.349,-36 46.3492,-36 46.3492,-0 100.349,-0 100.349,-36"/>
<text text-anchor="middle" x="73.3492" y="-15.5" font-family="FreeSans" font-size="10.00" fill="#1c2021">Movie</text>
</g>
<!-- Person&#45;&gt;Movie -->
<g id="edge1" class="edge"><title>Person&#45;&gt;Movie</title>
<path fill="none" stroke="#2e3436" d="M38.877,-91.3149C25.3716,-86.0433 11.2447,-77.7752 3.34924,-65 -7.68845,-47.1407 15.9875,-34.7948 38.7332,-27.4239"/>
<polygon fill="#2e3436" stroke="#2e3436" points="39.2061,-91.4318 45.1417,-97.1247 42.7393,-92.6883 46.2726,-93.9448 46.2726,-93.9448 46.2726,-93.9448 42.7393,-92.6883 47.4034,-90.7649 39.2061,-91.4318 39.2061,-91.4318"/>
<polygon fill="#2e3436" stroke="#2e3436" points="38.8639,-27.3843 47.0211,-28.4342 42.4521,-26.2946 46.0403,-25.2049 46.0403,-25.2049 46.0403,-25.2049 42.4521,-26.2946 45.0596,-21.9755 38.8639,-27.3843 38.8639,-27.3843"/>
<text text-anchor="middle" x="20.3492" y="-57" font-family="FreeSans" font-size="10.00" fill="#1c2021">acted in</text>
</g>
<!-- Person&#45;&gt;Movie -->
<g id="edge2" class="edge"><title>Person&#45;&gt;Movie</title>
<path fill="none" stroke="#2e3436" d="M71.7538,-75.1514C71.5862,-71.7419 71.443,-68.2853 71.3492,-65 71.1525,-58.1083 71.3153,-50.6389 71.6178,-43.7634"/>
<polygon fill="#2e3436" stroke="#2e3436" points="71.7689,-75.4296 68.8074,-83.1023 71.9732,-79.1741 72.1774,-82.9185 72.1774,-82.9185 72.1774,-82.9185 71.9732,-79.1741 75.5474,-82.7347 71.7689,-75.4296 71.7689,-75.4296"/>
<polygon fill="#2e3436" stroke="#2e3436" points="71.6303,-43.5247 75.3942,-36.2122 71.8271,-39.7799 72.0238,-36.0351 72.0238,-36.0351 72.0238,-36.0351 71.8271,-39.7799 68.6535,-35.858 71.6303,-43.5247 71.6303,-43.5247"/>
<text text-anchor="middle" x="88.8492" y="-57" font-family="FreeSans" font-size="10.00" fill="#1c2021">directed</text>
</g>
<!-- Person&#45;&gt;Movie -->
<g id="edge3" class="edge"><title>Person&#45;&gt;Movie</title>
<path fill="none" stroke="#2e3436" d="M101.606,-77.3457C104.745,-73.5693 107.479,-69.4264 109.349,-65 112.803,-56.8262 109.69,-48.866 104.095,-41.9282"/>
<polygon fill="#2e3436" stroke="#2e3436" points="101.499,-77.4612 93.9285,-80.6742 98.9525,-80.2138 96.4058,-82.9663 96.4058,-82.9663 96.4058,-82.9663 98.9525,-80.2138 98.8831,-85.2584 101.499,-77.4612 101.499,-77.4612"/>
<polygon fill="#2e3436" stroke="#2e3436" points="104.017,-41.8443 101.371,-34.0572 101.46,-39.1016 98.9025,-36.3588 98.9025,-36.3588 98.9025,-36.3588 101.46,-39.1016 96.434,-38.6604 104.017,-41.8443 104.017,-41.8443"/>
<text text-anchor="middle" x="130.349" y="-57" font-family="FreeSans" font-size="10.00" fill="#1c2021">produced</text>
</g>
</g>
</svg>
