<?xml version="1.0" encoding="UTF-8" standalone="no"?>
<!DOCTYPE svg PUBLIC "-//W3C//DTD SVG 1.1//EN"
 "http://www.w3.org/Graphics/SVG/1.1/DTD/svg11.dtd">
<!-- Generated by graphviz version 2.38.0 (20140413.2041)
 -->
<!-- Title: g Pages: 1 -->
<svg width="262pt" height="210pt"
 viewBox="0.00 0.00 262.00 210.00" xmlns="http://www.w3.org/2000/svg" xmlns:xlink="http://www.w3.org/1999/xlink">
<g id="graph0" class="graph" transform="scale(1 1) rotate(0) translate(4 206)">
<title>g</title>
<polygon fill="white" stroke="none" points="-4,4 -4,-206 258,-206 258,4 -4,4"/>
<!-- A Node -->
<g id="node1" class="node"><title>A Node</title>
<path fill="#a8e270" stroke="#2e3436" stroke-width="1.5" d="M147,-202C147,-202 117,-202 117,-202 111,-202 105,-196 105,-190 105,-190 105,-178 105,-178 105,-172 111,-166 117,-166 117,-166 147,-166 147,-166 153,-166 159,-172 159,-178 159,-178 159,-190 159,-190 159,-196 153,-202 147,-202"/>
<text text-anchor="middle" x="132" y="-181.5" font-family="FreeSans" font-size="10.00" fill="#1c2021">A Node</text>
</g>
<!-- Relationships -->
<g id="node2" class="node"><title>Relationships</title>
<path fill="#fadcad" stroke="#2e3436" stroke-width="1.5" d="M62,-119C62,-119 12,-119 12,-119 6,-119 0,-113 0,-107 0,-107 0,-95 0,-95 0,-89 6,-83 12,-83 12,-83 62,-83 62,-83 68,-83 74,-89 74,-95 74,-95 74,-107 74,-107 74,-113 68,-119 62,-119"/>
<text text-anchor="middle" x="37" y="-98.5" font-family="FreeSans" font-size="10.00" fill="#1c2021">Relationships</text>
</g>
<!-- A Node&#45;&gt;Relationships -->
<g id="edge1" class="edge"><title>A Node&#45;&gt;Relationships</title>
<path fill="none" stroke="#2e3436" stroke-width="2" d="M104.895,-170.549C93.7026,-164.651 81.0297,-156.932 71,-148 63.6998,-141.498 56.9867,-133.195 51.4885,-125.438"/>
<polygon fill="#2e3436" stroke="#2e3436" stroke-width="2" points="47.1695,-119.101 54.1824,-123.398 49.6947,-121.918 51.8067,-125.017 51.3935,-125.298 50.9804,-125.58 48.8684,-122.481 48.6047,-127.199 47.1695,-119.101 47.1695,-119.101"/>
<text text-anchor="middle" x="90.5" y="-140" font-family="FreeSans" font-size="10.00" fill="#1c2021">can have</text>
</g>
<!-- Properties -->
<g id="node3" class="node"><title>Properties</title>
<path fill="#fadcad" stroke="#2e3436" stroke-width="1.5" d="M111,-36C111,-36 75,-36 75,-36 69,-36 63,-30 63,-24 63,-24 63,-12 63,-12 63,-6 69,-0 75,-0 75,-0 111,-0 111,-0 117,-0 123,-6 123,-12 123,-12 123,-24 123,-24 123,-30 117,-36 111,-36"/>
<text text-anchor="middle" x="93" y="-15.5" font-family="FreeSans" font-size="10.00" fill="#1c2021">Properties</text>
</g>
<!-- A Node&#45;&gt;Properties -->
<g id="edge2" class="edge"><title>A Node&#45;&gt;Properties</title>
<path fill="none" stroke="#2e3436" stroke-width="2" d="M131.489,-165.825C130.295,-140.643 126.308,-92.5131 113,-54 111.719,-50.2916 110.039,-46.5289 108.198,-42.9135"/>
<polygon fill="#2e3436" stroke="#2e3436" stroke-width="2" points="104.519,-36.1956 111.081,-41.1525 106.758,-39.2445 108.56,-42.5335 108.121,-42.7737 107.683,-43.0139 105.881,-39.7248 105.161,-44.3949 104.519,-36.1956 104.519,-36.1956"/>
<text text-anchor="middle" x="146.5" y="-98.5" font-family="FreeSans" font-size="10.00" fill="#1c2021">can have</text>
</g>
<!-- Labels -->
<g id="node4" class="node"><title>Labels</title>
<path fill="#fadcad" stroke="#2e3436" stroke-width="1.5" d="M242,-119C242,-119 212,-119 212,-119 206,-119 200,-113 200,-107 200,-107 200,-95 200,-95 200,-89 206,-83 212,-83 212,-83 242,-83 242,-83 248,-83 254,-89 254,-95 254,-95 254,-107 254,-107 254,-113 248,-119 242,-119"/>
<text text-anchor="middle" x="227" y="-98.5" font-family="FreeSans" font-size="10.00" fill="#1c2021">Labels</text>
</g>
<!-- A Node&#45;&gt;Labels -->
<g id="edge3" class="edge"><title>A Node&#45;&gt;Labels</title>
<path fill="none" stroke="#2e3436" stroke-width="2" d="M152.147,-165.822C166.38,-153.687 185.582,-137.314 200.974,-124.19"/>
<polygon fill="#2e3436" stroke="#2e3436" stroke-width="2" points="206.882,-119.153 203.365,-126.588 204.353,-121.967 201.499,-124.4 201.175,-124.019 200.85,-123.639 203.704,-121.206 198.985,-121.451 206.882,-119.153 206.882,-119.153"/>
<text text-anchor="middle" x="204.5" y="-140" font-family="FreeSans" font-size="10.00" fill="#1c2021">can have</text>
</g>
<!-- Relationships&#45;&gt;Properties -->
<g id="edge4" class="edge"><title>Relationships&#45;&gt;Properties</title>
<path fill="none" stroke="#2e3436" stroke-width="2" d="M48.8762,-82.822C56.9689,-71.1164 67.7876,-55.4679 76.6868,-42.5959"/>
<polygon fill="#2e3436" stroke="#2e3436" stroke-width="2" points="81.141,-36.1533 79.6519,-44.2418 79.4197,-39.5222 77.2871,-42.6068 76.8758,-42.3225 76.4645,-42.0381 78.5971,-38.9535 74.0997,-40.4031 81.141,-36.1533 81.141,-36.1533"/>
<text text-anchor="middle" x="88.5" y="-57" font-family="FreeSans" font-size="10.00" fill="#1c2021">can have</text>
</g>
</g>
</svg>
