<?xml version="1.0" encoding="UTF-8" standalone="no"?>
<!DOCTYPE svg PUBLIC "-//W3C//DTD SVG 1.1//EN"
 "http://www.w3.org/Graphics/SVG/1.1/DTD/svg11.dtd">
<!-- Generated by graphviz version 2.38.0 (20140413.2041)
 -->
<!-- Title: g Pages: 1 -->
<svg width="114pt" height="150pt"
 viewBox="0.00 0.00 113.50 150.00" xmlns="http://www.w3.org/2000/svg" xmlns:xlink="http://www.w3.org/1999/xlink">
<g id="graph0" class="graph" transform="scale(1 1) rotate(0) translate(4 146)">
<title>g</title>
<polygon fill="white" stroke="none" points="-4,4 -4,-146 109.5,-146 109.5,4 -4,4"/>
<!-- N2 -->
<g id="node1" class="node"><title>N2</title>
<path fill="#ffffff" stroke="#2e3436" stroke-width="1.5" d="M12,-98.5C12,-98.5 79,-98.5 79,-98.5 85,-98.5 91,-104.5 91,-110.5 91,-110.5 91,-129.5 91,-129.5 91,-135.5 85,-141.5 79,-141.5 79,-141.5 12,-141.5 12,-141.5 6,-141.5 0,-135.5 0,-129.5 0,-129.5 0,-110.5 0,-110.5 0,-104.5 6,-98.5 12,-98.5"/>
<text text-anchor="middle" x="45.5" y="-131.1" font-family="FreeSans" font-size="8.00" fill="#1c2021">Person</text>
<polyline fill="none" stroke="#2e3436" stroke-width="1.5" points="0,-124.5 91,-124.5 "/>
<text text-anchor="start" x="8" y="-114.1" font-family="FreeSans" font-size="8.00" fill="#1c2021">name = &#39;Tom Hanks&#39;</text>
<text text-anchor="start" x="8" y="-105.1" font-family="FreeSans" font-size="8.00" fill="#1c2021">born = 1956</text>
</g>
<!-- N5 -->
<g id="node2" class="node"><title>N5</title>
<path fill="#ffffff" stroke="#2e3436" stroke-width="1.5" d="M17,-0.5C17,-0.5 74,-0.5 74,-0.5 80,-0.5 86,-6.5 86,-12.5 86,-12.5 86,-31.5 86,-31.5 86,-37.5 80,-43.5 74,-43.5 74,-43.5 17,-43.5 17,-43.5 11,-43.5 5,-37.5 5,-31.5 5,-31.5 5,-12.5 5,-12.5 5,-6.5 11,-0.5 17,-0.5"/>
<text text-anchor="middle" x="45.5" y="-33.1" font-family="FreeSans" font-size="8.00" fill="#1c2021">Movie</text>
<polyline fill="none" stroke="#2e3436" stroke-width="1.5" points="5,-26.5 86,-26.5 "/>
<text text-anchor="start" x="13" y="-16.1" font-family="FreeSans" font-size="8.00" fill="#1c2021">title = &#39;Cloud Atlas&#39;</text>
<text text-anchor="start" x="13" y="-7.1" font-family="FreeSans" font-size="8.00" fill="#1c2021">released = 2012</text>
</g>
<!-- N2&#45;&gt;N5 -->
<g id="edge1" class="edge"><title>N2&#45;&gt;N5</title>
<path fill="none" stroke="#2e3436" stroke-width="2" d="M45.5,-98.1694C45.5,-84.4572 45.5,-66.3342 45.5,-51.3189"/>
<polygon fill="#2e3436" stroke="#2e3436" stroke-width="2" points="45.5,-43.7899 48.8751,-51.2899 46,-47.5399 46.0001,-51.2899 45.5001,-51.2899 45.0001,-51.2899 45,-47.5399 42.1251,-51.29 45.5,-43.7899 45.5,-43.7899"/>
<text text-anchor="middle" x="75.5" y="-73.6" font-family="FreeSans" font-size="8.00" fill="#2e3436">ACTED_IN</text>
<text text-anchor="start" x="45.5" y="-64.6" font-family="FreeSans" font-size="8.00" fill="#2e3436">roles = [&#39;Zachry&#39;]</text>
</g>
</g>
</svg>
