<?xml version="1.0" encoding="UTF-8" standalone="no"?>
<!DOCTYPE svg PUBLIC "-//W3C//DTD SVG 1.1//EN"
 "http://www.w3.org/Graphics/SVG/1.1/DTD/svg11.dtd">
<!-- Generated by graphviz version 2.38.0 (20140413.2041)
 -->
<!-- Title: g Pages: 1 -->
<svg width="145pt" height="127pt"
 viewBox="0.00 0.00 145.00 127.00" xmlns="http://www.w3.org/2000/svg" xmlns:xlink="http://www.w3.org/1999/xlink">
<g id="graph0" class="graph" transform="scale(1 1) rotate(0) translate(4 123)">
<title>g</title>
<polygon fill="white" stroke="none" points="-4,4 -4,-123 141,-123 141,4 -4,4"/>
<!-- A Label -->
<g id="node1" class="node"><title>A Label</title>
<path fill="#a8e270" stroke="#2e3436" stroke-width="1.5" d="M83,-119C83,-119 53,-119 53,-119 47,-119 41,-113 41,-107 41,-107 41,-95 41,-95 41,-89 47,-83 53,-83 53,-83 83,-83 83,-83 89,-83 95,-89 95,-95 95,-95 95,-107 95,-107 95,-113 89,-119 83,-119"/>
<text text-anchor="middle" x="68" y="-98.5" font-family="FreeSans" font-size="10.00" fill="#1c2021">A Label</text>
</g>
<!-- Name -->
<g id="node2" class="node"><title>Name</title>
<path fill="#fadcad" stroke="#2e3436" stroke-width="1.5" d="M42,-36C42,-36 12,-36 12,-36 6,-36 0,-30 0,-24 0,-24 0,-12 0,-12 0,-6 6,-0 12,-0 12,-0 42,-0 42,-0 48,-0 54,-6 54,-12 54,-12 54,-24 54,-24 54,-30 48,-36 42,-36"/>
<text text-anchor="middle" x="27" y="-15.5" font-family="FreeSans" font-size="10.00" fill="#1c2021">Name</text>
</g>
<!-- A Label&#45;&gt;Name -->
<g id="edge1" class="edge"><title>A Label&#45;&gt;Name</title>
<path fill="none" stroke="#2e3436" stroke-width="2" d="M59.305,-82.822C53.4343,-71.2238 45.6042,-55.7547 39.1233,-42.9508"/>
<polygon fill="#2e3436" stroke="#2e3436" stroke-width="2" points="35.6825,-36.1533 42.0809,-41.3206 37.8222,-39.2732 39.5158,-42.6191 39.0697,-42.8449 38.6236,-43.0707 36.93,-39.7249 36.0584,-44.3691 35.6825,-36.1533 35.6825,-36.1533"/>
<text text-anchor="middle" x="61.5" y="-57" font-family="FreeSans" font-size="10.00" fill="#1c2021">has a</text>
</g>
<!-- Node -->
<g id="node3" class="node"><title>Node</title>
<path fill="#fadcad" stroke="#2e3436" stroke-width="1.5" d="M125,-36C125,-36 95,-36 95,-36 89,-36 83,-30 83,-24 83,-24 83,-12 83,-12 83,-6 89,-0 95,-0 95,-0 125,-0 125,-0 131,-0 137,-6 137,-12 137,-12 137,-24 137,-24 137,-30 131,-36 125,-36"/>
<text text-anchor="middle" x="110" y="-15.5" font-family="FreeSans" font-size="10.00" fill="#1c2021">Node</text>
</g>
<!-- A Label&#45;&gt;Node -->
<g id="edge2" class="edge"><title>A Label&#45;&gt;Node</title>
<path fill="none" stroke="#2e3436" stroke-width="2" d="M76.9071,-82.822C82.921,-71.2238 90.942,-55.7547 97.5811,-42.9508"/>
<polygon fill="#2e3436" stroke="#2e3436" stroke-width="2" points="101.106,-36.1533 100.649,-44.365 99.8234,-39.7125 98.0972,-43.0416 97.6533,-42.8114 97.2094,-42.5813 98.9356,-39.2522 94.6571,-41.2578 101.106,-36.1533 101.106,-36.1533"/>
<text text-anchor="middle" x="105.5" y="-57" font-family="FreeSans" font-size="10.00" fill="#1c2021">groups</text>
</g>
</g>
</svg>
