<?xml version="1.0" encoding="UTF-8" standalone="no"?>
<!DOCTYPE svg PUBLIC "-//W3C//DTD SVG 1.1//EN"
 "http://www.w3.org/Graphics/SVG/1.1/DTD/svg11.dtd">
<!-- Generated by graphviz version 2.38.0 (20140413.2041)
 -->
<!-- Title: g Pages: 1 -->
<svg width="400pt" height="401pt"
 viewBox="0.00 0.00 400.01 401.00" xmlns="http://www.w3.org/2000/svg" xmlns:xlink="http://www.w3.org/1999/xlink">
<g id="graph0" class="graph" transform="scale(1 1) rotate(0) translate(4 397)">
<title>g</title>
<polygon fill="white" stroke="none" points="-4,4 -4,-397 396.012,-397 396.012,4 -4,4"/>
<!-- Graph Database -->
<g id="node1" class="node"><title>Graph Database</title>
<path fill="#a8e270" stroke="#2e3436" stroke-width="1.5" d="M113.012,-393C113.012,-393 51.0118,-393 51.0118,-393 45.0118,-393 39.0118,-387 39.0118,-381 39.0118,-381 39.0118,-369 39.0118,-369 39.0118,-363 45.0118,-357 51.0118,-357 51.0118,-357 113.012,-357 113.012,-357 119.012,-357 125.012,-363 125.012,-369 125.012,-369 125.012,-381 125.012,-381 125.012,-387 119.012,-393 113.012,-393"/>
<text text-anchor="middle" x="82.0118" y="-372.5" font-family="FreeSans" font-size="10.00" fill="#1c2021">Graph Database</text>
</g>
<!-- Graph -->
<g id="node2" class="node"><title>Graph</title>
<path fill="#95bbe3" stroke="#2e3436" stroke-width="1.5" d="M184.012,-310C184.012,-310 154.012,-310 154.012,-310 148.012,-310 142.012,-304 142.012,-298 142.012,-298 142.012,-286 142.012,-286 142.012,-280 148.012,-274 154.012,-274 154.012,-274 184.012,-274 184.012,-274 190.012,-274 196.012,-280 196.012,-286 196.012,-286 196.012,-298 196.012,-298 196.012,-304 190.012,-310 184.012,-310"/>
<text text-anchor="middle" x="169.012" y="-289.5" font-family="FreeSans" font-size="10.00" fill="#1c2021">Graph</text>
</g>
<!-- Graph Database&#45;&gt;Graph -->
<g id="edge4" class="edge"><title>Graph Database&#45;&gt;Graph</title>
<path fill="none" stroke="#a40000" stroke-width="2" d="M100.462,-356.822C113.381,-344.794 130.771,-328.604 144.803,-315.539"/>
<polygon fill="#a40000" stroke="#a40000" stroke-width="2" points="150.588,-310.153 147.399,-317.734 148.184,-313.075 145.439,-315.63 145.099,-315.264 144.758,-314.898 147.503,-312.343 142.799,-312.794 150.588,-310.153 150.588,-310.153"/>
<text text-anchor="middle" x="151.012" y="-331" font-family="FreeSans" font-size="10.00" fill="#a40000">manages</text>
</g>
<!-- Indexes -->
<g id="node3" class="node"><title>Indexes</title>
<path fill="#95bbe3" stroke="#2e3436" stroke-width="1.5" d="M42.0118,-310C42.0118,-310 12.0118,-310 12.0118,-310 6.01183,-310 0.0118277,-304 0.0118277,-298 0.0118277,-298 0.0118277,-286 0.0118277,-286 0.0118277,-280 6.01183,-274 12.0118,-274 12.0118,-274 42.0118,-274 42.0118,-274 48.0118,-274 54.0118,-280 54.0118,-286 54.0118,-286 54.0118,-298 54.0118,-298 54.0118,-304 48.0118,-310 42.0118,-310"/>
<text text-anchor="middle" x="27.0118" y="-289.5" font-family="FreeSans" font-size="10.00" fill="#1c2021">Indexes</text>
</g>
<!-- Graph Database&#45;&gt;Indexes -->
<g id="edge7" class="edge"><title>Graph Database&#45;&gt;Indexes</title>
<path fill="none" stroke="#a40000" stroke-width="2" d="M61.4089,-356.768C55.9139,-351.47 50.3152,-345.35 46.0118,-339 41.5038,-332.348 37.7637,-324.458 34.8284,-317.108"/>
<polygon fill="#a40000" stroke="#a40000" stroke-width="2" points="32.1628,-310.003 37.9574,-315.84 33.9483,-313.339 35.2656,-316.85 34.7975,-317.025 34.3294,-317.201 33.012,-313.69 31.6376,-318.211 32.1628,-310.003 32.1628,-310.003"/>
<text text-anchor="middle" x="66.0118" y="-331" font-family="FreeSans" font-size="10.00" fill="#a40000">manages</text>
</g>
<!-- Relationships -->
<g id="node4" class="node"><title>Relationships</title>
<path fill="#fadcad" stroke="#2e3436" stroke-width="1.5" d="M141.012,-202C141.012,-202 91.0118,-202 91.0118,-202 85.0118,-202 79.0118,-196 79.0118,-190 79.0118,-190 79.0118,-178 79.0118,-178 79.0118,-172 85.0118,-166 91.0118,-166 91.0118,-166 141.012,-166 141.012,-166 147.012,-166 153.012,-172 153.012,-178 153.012,-178 153.012,-190 153.012,-190 153.012,-196 147.012,-202 141.012,-202"/>
<text text-anchor="middle" x="116.012" y="-181.5" font-family="FreeSans" font-size="10.00" fill="#1c2021">Relationships</text>
</g>
<!-- Graph&#45;&gt;Relationships -->
<g id="edge6" class="edge"><title>Graph&#45;&gt;Relationships</title>
<path fill="none" stroke="#2e3436" stroke-width="2" d="M143.183,-273.725C137.364,-268.666 131.797,-262.676 128.012,-256 120.052,-241.961 117.068,-224.027 116.067,-209.695"/>
<polygon fill="#2e3436" stroke="#2e3436" stroke-width="2" points="115.695,-202.152 119.435,-209.476 116.379,-205.872 116.563,-209.618 116.064,-209.642 115.565,-209.667 115.38,-205.922 112.693,-209.809 115.695,-202.152 115.695,-202.152"/>
<text text-anchor="middle" x="159.512" y="-235.5" font-family="FreeSans" font-size="10.00" fill="#1c2021">records data in</text>
</g>
<!-- Nodes -->
<g id="node5" class="node"><title>Nodes</title>
<path fill="#fadcad" stroke="#2e3436" stroke-width="1.5" d="M151.012,-119C151.012,-119 121.012,-119 121.012,-119 115.012,-119 109.012,-113 109.012,-107 109.012,-107 109.012,-95 109.012,-95 109.012,-89 115.012,-83 121.012,-83 121.012,-83 151.012,-83 151.012,-83 157.012,-83 163.012,-89 163.012,-95 163.012,-95 163.012,-107 163.012,-107 163.012,-113 157.012,-119 151.012,-119"/>
<text text-anchor="middle" x="136.012" y="-98.5" font-family="FreeSans" font-size="10.00" fill="#1c2021">Nodes</text>
</g>
<!-- Graph&#45;&gt;Nodes -->
<g id="edge5" class="edge"><title>Graph&#45;&gt;Nodes</title>
<path fill="none" stroke="#2e3436" stroke-width="2" d="M184.59,-273.649C188.426,-268.349 192.006,-262.258 194.012,-256 198.895,-240.763 196.079,-235.866 194.012,-220 189.082,-182.157 191.281,-169.941 172.012,-137 169.469,-132.652 166.24,-128.484 162.764,-124.636"/>
<polygon fill="#2e3436" stroke="#2e3436" stroke-width="2" points="157.546,-119.244 165.186,-122.287 160.513,-121.591 163.12,-124.286 162.761,-124.634 162.402,-124.981 159.794,-122.286 160.336,-126.981 157.546,-119.244 157.546,-119.244"/>
<text text-anchor="middle" x="222.512" y="-181.5" font-family="FreeSans" font-size="10.00" fill="#1c2021">records data in</text>
</g>
<!-- Indexes&#45;&gt;Relationships -->
<g id="edge9" class="edge"><title>Indexes&#45;&gt;Relationships</title>
<path fill="none" stroke="#2e3436" stroke-width="2" d="M39.0503,-273.855C49.6072,-259.151 65.6309,-237.614 81.0118,-220 84.5868,-215.906 88.5318,-211.698 92.4457,-207.683"/>
<polygon fill="#2e3436" stroke="#2e3436" stroke-width="2" points="97.7259,-202.356 94.843,-210.059 95.4411,-205.372 92.8011,-208.035 92.446,-207.683 92.0909,-207.331 94.7308,-204.668 90.049,-205.307 97.7259,-202.356 97.7259,-202.356"/>
<text text-anchor="middle" x="96.0118" y="-235.5" font-family="FreeSans" font-size="10.00" fill="#1c2021">map to</text>
</g>
<!-- Indexes&#45;&gt;Nodes -->
<g id="edge8" class="edge"><title>Indexes&#45;&gt;Nodes</title>
<path fill="none" stroke="#2e3436" stroke-width="2" d="M23.3133,-273.824C18.796,-248.338 14.0155,-199.88 34.0118,-166 41.9616,-152.531 75.4641,-132.943 101.933,-118.99"/>
<polygon fill="#2e3436" stroke="#2e3436" stroke-width="2" points="108.837,-115.393 103.745,-121.851 105.743,-117.569 102.417,-119.302 102.186,-118.858 101.955,-118.415 105.28,-116.682 100.626,-115.865 108.837,-115.393 108.837,-115.393"/>
<text text-anchor="middle" x="49.0118" y="-181.5" font-family="FreeSans" font-size="10.00" fill="#1c2021">map to</text>
</g>
<!-- Properties -->
<g id="node6" class="node"><title>Properties</title>
<path fill="#fadcad" stroke="#2e3436" stroke-width="1.5" d="M77.0118,-36C77.0118,-36 41.0118,-36 41.0118,-36 35.0118,-36 29.0118,-30 29.0118,-24 29.0118,-24 29.0118,-12 29.0118,-12 29.0118,-6 35.0118,-0 41.0118,-0 41.0118,-0 77.0118,-0 77.0118,-0 83.0118,-0 89.0118,-6 89.0118,-12 89.0118,-12 89.0118,-24 89.0118,-24 89.0118,-30 83.0118,-36 77.0118,-36"/>
<text text-anchor="middle" x="59.0118" y="-15.5" font-family="FreeSans" font-size="10.00" fill="#1c2021">Properties</text>
</g>
<!-- Indexes&#45;&gt;Properties -->
<g id="edge10" class="edge"><title>Indexes&#45;&gt;Properties</title>
<path fill="none" stroke="#2e3436" stroke-width="2" d="M18.92,-273.899C16.6184,-268.313 14.37,-262 13.0118,-256 1.31477,-204.327 -5.08811,-188.804 6.01183,-137 13.3886,-102.572 31.6084,-66.0554 44.6234,-42.9212"/>
<polygon fill="#2e3436" stroke="#2e3436" stroke-width="2" points="48.4776,-36.1884 47.6805,-44.3741 47.0485,-39.6913 45.1854,-42.9458 44.7515,-42.6974 44.3176,-42.449 46.1806,-39.1945 41.8225,-41.0206 48.4776,-36.1884 48.4776,-36.1884"/>
<text text-anchor="middle" x="26.5118" y="-140" font-family="FreeSans" font-size="10.00" fill="#1c2021">map from</text>
</g>
<!-- Relationships&#45;&gt;Nodes -->
<g id="edge1" class="edge"><title>Relationships&#45;&gt;Nodes</title>
<path fill="none" stroke="#2e3436" stroke-width="2" d="M120.253,-165.822C123.064,-154.439 126.795,-139.326 129.922,-126.665"/>
<polygon fill="#2e3436" stroke="#2e3436" stroke-width="2" points="131.776,-119.153 133.255,-127.244 131.363,-122.914 130.464,-126.554 129.979,-126.435 129.493,-126.315 130.392,-122.674 126.702,-125.626 131.776,-119.153 131.776,-119.153"/>
<text text-anchor="middle" x="146.512" y="-140" font-family="FreeSans" font-size="10.00" fill="#1c2021">organize</text>
</g>
<!-- Relationships&#45;&gt;Properties -->
<g id="edge3" class="edge"><title>Relationships&#45;&gt;Properties</title>
<path fill="none" stroke="#2e3436" stroke-width="2" d="M101.233,-165.74C91.5914,-153.503 79.6117,-136.254 73.0118,-119 63.6675,-94.5716 60.4597,-64.6518 59.4096,-43.9383"/>
<polygon fill="#2e3436" stroke="#2e3436" stroke-width="2" points="59.0962,-36.2107 62.7724,-43.5677 59.7478,-39.9373 59.8998,-43.6842 59.4002,-43.7045 58.9006,-43.7248 58.7486,-39.9778 56.028,-43.8413 59.0962,-36.2107 59.0962,-36.2107"/>
<text text-anchor="middle" x="83.5118" y="-98.5" font-family="FreeSans" font-size="10.00" fill="#1c2021">have</text>
</g>
<!-- Nodes&#45;&gt;Properties -->
<g id="edge2" class="edge"><title>Nodes&#45;&gt;Properties</title>
<path fill="none" stroke="#2e3436" stroke-width="2" d="M119.682,-82.822C108.35,-70.9016 93.1317,-54.8924 80.7716,-41.8901"/>
<polygon fill="#2e3436" stroke="#2e3436" stroke-width="2" points="75.318,-36.1533 82.9316,-39.2638 78.2641,-38.5267 80.8478,-41.2446 80.4854,-41.5891 80.123,-41.9336 77.5393,-39.2157 78.0393,-43.9144 75.318,-36.1533 75.318,-36.1533"/>
<text text-anchor="middle" x="113.512" y="-57" font-family="FreeSans" font-size="10.00" fill="#1c2021">have</text>
</g>
<!-- Traversal -->
<g id="node7" class="node"><title>Traversal</title>
<path fill="#fadcad" stroke="#2e3436" stroke-width="1.5" d="M306.012,-393C306.012,-393 274.012,-393 274.012,-393 268.012,-393 262.012,-387 262.012,-381 262.012,-381 262.012,-369 262.012,-369 262.012,-363 268.012,-357 274.012,-357 274.012,-357 306.012,-357 306.012,-357 312.012,-357 318.012,-363 318.012,-369 318.012,-369 318.012,-381 318.012,-381 318.012,-387 312.012,-393 306.012,-393"/>
<text text-anchor="middle" x="290.012" y="-372.5" font-family="FreeSans" font-size="10.00" fill="#1c2021">Traversal</text>
</g>
<!-- Traversal&#45;&gt;Graph -->
<g id="edge11" class="edge"><title>Traversal&#45;&gt;Graph</title>
<path fill="none" stroke="#2e3436" stroke-width="2" d="M261.918,-364.229C246.691,-358.216 227.981,-349.622 213.012,-339 203.962,-332.579 195.243,-324.118 187.987,-316.206"/>
<polygon fill="#2e3436" stroke="#2e3436" stroke-width="2" points="182.742,-310.305 190.247,-313.669 185.607,-312.776 188.098,-315.579 187.725,-315.911 187.351,-316.243 184.86,-313.44 185.202,-318.153 182.742,-310.305 182.742,-310.305"/>
<text text-anchor="middle" x="233.512" y="-331" font-family="FreeSans" font-size="10.00" fill="#1c2021">navigates</text>
</g>
<!-- Paths -->
<g id="node8" class="node"><title>Paths</title>
<path fill="#fadcad" stroke="#2e3436" stroke-width="1.5" d="M312.012,-256C312.012,-256 282.012,-256 282.012,-256 276.012,-256 270.012,-250 270.012,-244 270.012,-244 270.012,-232 270.012,-232 270.012,-226 276.012,-220 282.012,-220 282.012,-220 312.012,-220 312.012,-220 318.012,-220 324.012,-226 324.012,-232 324.012,-232 324.012,-244 324.012,-244 324.012,-250 318.012,-256 312.012,-256"/>
<text text-anchor="middle" x="297.012" y="-235.5" font-family="FreeSans" font-size="10.00" fill="#1c2021">Paths</text>
</g>
<!-- Traversal&#45;&gt;Paths -->
<g id="edge12" class="edge"><title>Traversal&#45;&gt;Paths</title>
<path fill="none" stroke="#2e3436" stroke-width="2" d="M287.083,-356.962C286.237,-351.269 285.43,-344.878 285.012,-339 283.184,-313.286 287.442,-284.023 291.381,-263.828"/>
<polygon fill="#2e3436" stroke="#2e3436" stroke-width="2" points="292.919,-256.294 294.726,-264.317 292.659,-260.068 291.909,-263.743 291.419,-263.643 290.929,-263.543 291.679,-259.868 288.112,-262.968 292.919,-256.294 292.919,-256.294"/>
<text text-anchor="middle" x="304.012" y="-331" font-family="FreeSans" font-size="10.00" fill="#1c2021">identifies</text>
</g>
<!-- Algorithm -->
<g id="node9" class="node"><title>Algorithm</title>
<path fill="#fadcad" stroke="#2e3436" stroke-width="1.5" d="M380.012,-310C380.012,-310 346.012,-310 346.012,-310 340.012,-310 334.012,-304 334.012,-298 334.012,-298 334.012,-286 334.012,-286 334.012,-280 340.012,-274 346.012,-274 346.012,-274 380.012,-274 380.012,-274 386.012,-274 392.012,-280 392.012,-286 392.012,-286 392.012,-298 392.012,-298 392.012,-304 386.012,-310 380.012,-310"/>
<text text-anchor="middle" x="363.012" y="-289.5" font-family="FreeSans" font-size="10.00" fill="#1c2021">Algorithm</text>
</g>
<!-- Traversal&#45;&gt;Algorithm -->
<g id="edge13" class="edge"><title>Traversal&#45;&gt;Algorithm</title>
<path fill="none" stroke="#2e3436" stroke-width="2" d="M311.615,-356.692C317.829,-351.3 324.43,-345.149 330.012,-339 336.183,-332.203 342.244,-324.242 347.454,-316.871"/>
<polygon fill="#2e3436" stroke="#2e3436" stroke-width="2" points="351.977,-310.319 350.494,-318.408 350.258,-313.689 348.128,-316.775 347.716,-316.491 347.305,-316.206 349.435,-313.121 344.939,-314.573 351.977,-310.319 351.977,-310.319"/>
<text text-anchor="middle" x="359.512" y="-331" font-family="FreeSans" font-size="10.00" fill="#1c2021">expresses</text>
</g>
<!-- Paths&#45;&gt;Nodes -->
<g id="edge14" class="edge"><title>Paths&#45;&gt;Nodes</title>
<path fill="none" stroke="#2e3436" stroke-width="2" d="M297.402,-219.715C296.923,-204.322 294.112,-181.848 283.012,-166 257.18,-129.12 205.298,-113.294 170.603,-106.64"/>
<polygon fill="#2e3436" stroke="#2e3436" stroke-width="2" points="163.044,-105.282 171.023,-103.286 166.824,-105.453 170.514,-106.116 170.426,-106.608 170.338,-107.1 166.647,-106.437 169.829,-109.93 163.044,-105.282 163.044,-105.282"/>
<text text-anchor="middle" x="306.012" y="-181.5" font-family="FreeSans" font-size="10.00" fill="#1c2021">order</text>
</g>
</g>
</svg>
