<?xml version="1.0" encoding="UTF-8" standalone="no"?>
<!DOCTYPE svg PUBLIC "-//W3C//DTD SVG 1.1//EN"
 "http://www.w3.org/Graphics/SVG/1.1/DTD/svg11.dtd">
<!-- Generated by graphviz version 2.38.0 (20140413.2041)
 -->
<!-- Title: g Pages: 1 -->
<svg width="391pt" height="136pt"
 viewBox="0.00 0.00 390.50 136.00" xmlns="http://www.w3.org/2000/svg" xmlns:xlink="http://www.w3.org/1999/xlink">
<g id="graph0" class="graph" transform="scale(1 1) rotate(0) translate(4 132)">
<title>g</title>
<polygon fill="white" stroke="none" points="-4,4 -4,-132 386.5,-132 386.5,4 -4,4"/>
<!-- N0 -->
<g id="node1" class="node"><title>N0</title>
<path fill="#ffffff" stroke="#2e3436" stroke-width="1.5" d="M50,-91.5C50,-91.5 127,-91.5 127,-91.5 133,-91.5 139,-97.5 139,-103.5 139,-103.5 139,-115.5 139,-115.5 139,-121.5 133,-127.5 127,-127.5 127,-127.5 50,-127.5 50,-127.5 44,-127.5 38,-121.5 38,-115.5 38,-115.5 38,-103.5 38,-103.5 38,-97.5 44,-91.5 50,-91.5"/>
<text text-anchor="start" x="46" y="-107.6" font-family="FreeSans" font-size="8.00" fill="#1c2021">name = &#39;Keanu Reeves&#39;</text>
</g>
<!-- N3 -->
<g id="node2" class="node"><title>N3</title>
<path fill="#ffffff" stroke="#2e3436" stroke-width="1.5" d="M133.5,-0.5C133.5,-0.5 225.5,-0.5 225.5,-0.5 231.5,-0.5 237.5,-6.5 237.5,-12.5 237.5,-12.5 237.5,-24.5 237.5,-24.5 237.5,-30.5 231.5,-36.5 225.5,-36.5 225.5,-36.5 133.5,-36.5 133.5,-36.5 127.5,-36.5 121.5,-30.5 121.5,-24.5 121.5,-24.5 121.5,-12.5 121.5,-12.5 121.5,-6.5 127.5,-0.5 133.5,-0.5"/>
<text text-anchor="start" x="129.5" y="-21.1" font-family="FreeSans" font-size="8.00" fill="#1c2021">title = &#39;The Matrix Reloaded&#39;</text>
<text text-anchor="start" x="129.5" y="-12.1" font-family="FreeSans" font-size="8.00" fill="#1c2021">year = 2003</text>
</g>
<!-- N0&#45;&gt;N3 -->
<g id="edge1" class="edge"><title>N0&#45;&gt;N3</title>
<path fill="none" stroke="#2e3436" stroke-width="2" d="M103.414,-91.1118C112.859,-80.3838 125.512,-66.5198 137.5,-55 142.151,-50.5305 147.272,-45.9475 152.292,-41.6222"/>
<polygon fill="#2e3436" stroke="#2e3436" stroke-width="2" points="158.104,-36.6854 154.573,-44.1133 155.569,-39.4943 152.711,-41.9222 152.388,-41.5411 152.064,-41.16 154.922,-38.7322 150.203,-38.9689 158.104,-36.6854 158.104,-36.6854"/>
<text text-anchor="middle" x="161.5" y="-66.6" font-family="FreeSans" font-size="8.00" fill="#2e3436">ACTS_IN</text>
<text text-anchor="start" x="137.5" y="-57.6" font-family="FreeSans" font-size="8.00" fill="#2e3436">name = &#39;Neo&#39;</text>
</g>
<!-- N2 -->
<g id="node3" class="node"><title>N2</title>
<path fill="#ffffff" stroke="#2e3436" stroke-width="1.5" d="M12,-0.5C12,-0.5 67,-0.5 67,-0.5 73,-0.5 79,-6.5 79,-12.5 79,-12.5 79,-24.5 79,-24.5 79,-30.5 73,-36.5 67,-36.5 67,-36.5 12,-36.5 12,-36.5 6,-36.5 0,-30.5 0,-24.5 0,-24.5 0,-12.5 0,-12.5 0,-6.5 6,-0.5 12,-0.5"/>
<text text-anchor="start" x="8" y="-21.1" font-family="FreeSans" font-size="8.00" fill="#1c2021">title = &#39;The Matrix&#39;</text>
<text text-anchor="start" x="8" y="-12.1" font-family="FreeSans" font-size="8.00" fill="#1c2021">year = 1999</text>
</g>
<!-- N0&#45;&gt;N2 -->
<g id="edge2" class="edge"><title>N0&#45;&gt;N2</title>
<path fill="none" stroke="#2e3436" stroke-width="2" d="M53.9457,-91.3071C47.3329,-86.3483 41.2959,-80.2672 37.5,-73 32.995,-64.3753 32.509,-53.8578 33.5083,-44.4378"/>
<polygon fill="#2e3436" stroke="#2e3436" stroke-width="2" points="34.6414,-36.8488 36.8718,-44.7651 34.5821,-40.6316 34.0283,-44.3404 33.5338,-44.2666 33.0393,-44.1928 33.5931,-40.4839 30.1958,-43.7682 34.6414,-36.8488 34.6414,-36.8488"/>
<text text-anchor="middle" x="61.5" y="-66.6" font-family="FreeSans" font-size="8.00" fill="#2e3436">ACTS_IN</text>
<text text-anchor="start" x="37.5" y="-57.6" font-family="FreeSans" font-size="8.00" fill="#2e3436">name = &#39;Neo&#39;</text>
</g>
<!-- N1 -->
<g id="node4" class="node"><title>N1</title>
<path fill="#ffffff" stroke="#2e3436" stroke-width="1.5" d="M196,-91.5C196,-91.5 277,-91.5 277,-91.5 283,-91.5 289,-97.5 289,-103.5 289,-103.5 289,-115.5 289,-115.5 289,-121.5 283,-127.5 277,-127.5 277,-127.5 196,-127.5 196,-127.5 190,-127.5 184,-121.5 184,-115.5 184,-115.5 184,-103.5 184,-103.5 184,-97.5 190,-91.5 196,-91.5"/>
<text text-anchor="start" x="192" y="-107.6" font-family="FreeSans" font-size="8.00" fill="#1c2021">name = &#39;Monica Bellucci&#39;</text>
</g>
<!-- N1&#45;&gt;N3 -->
<g id="edge4" class="edge"><title>N1&#45;&gt;N3</title>
<path fill="none" stroke="#2e3436" stroke-width="2" d="M216.855,-91.2739C211.398,-85.8141 205.796,-79.4975 201.5,-73 195.643,-64.1425 190.871,-53.4752 187.288,-44.004"/>
<polygon fill="#2e3436" stroke="#2e3436" stroke-width="2" points="184.67,-36.7223 190.383,-42.6384 186.409,-40.082 187.678,-43.611 187.207,-43.7801 186.737,-43.9493 185.468,-40.4203 184.031,-44.9218 184.67,-36.7223 184.67,-36.7223"/>
<text text-anchor="middle" x="239.5" y="-66.6" font-family="FreeSans" font-size="8.00" fill="#2e3436">ACTS_IN</text>
<text text-anchor="start" x="201.5" y="-57.6" font-family="FreeSans" font-size="8.00" fill="#2e3436">name = &#39;Persephone&#39;</text>
</g>
<!-- N4 -->
<g id="node5" class="node"><title>N4</title>
<path fill="#ffffff" stroke="#2e3436" stroke-width="1.5" d="M292,-0.5C292,-0.5 335,-0.5 335,-0.5 341,-0.5 347,-6.5 347,-12.5 347,-12.5 347,-24.5 347,-24.5 347,-30.5 341,-36.5 335,-36.5 335,-36.5 292,-36.5 292,-36.5 286,-36.5 280,-30.5 280,-24.5 280,-24.5 280,-12.5 280,-12.5 280,-6.5 286,-0.5 292,-0.5"/>
<text text-anchor="start" x="288" y="-21.1" font-family="FreeSans" font-size="8.00" fill="#1c2021">title = &#39;Malèna&#39;</text>
<text text-anchor="start" x="288" y="-12.1" font-family="FreeSans" font-size="8.00" fill="#1c2021">year = 2000</text>
</g>
<!-- N1&#45;&gt;N4 -->
<g id="edge3" class="edge"><title>N1&#45;&gt;N4</title>
<path fill="none" stroke="#2e3436" stroke-width="2" d="M260.642,-91.4383C267.488,-85.983 274.66,-79.6278 280.5,-73 288.28,-64.1712 295.36,-53.2883 300.95,-43.648"/>
<polygon fill="#2e3436" stroke="#2e3436" stroke-width="2" points="304.746,-36.8951 304.013,-45.0868 303.345,-40.409 301.507,-43.678 301.071,-43.433 300.635,-43.188 302.473,-39.919 298.129,-41.7792 304.746,-36.8951 304.746,-36.8951"/>
<text text-anchor="middle" x="338" y="-66.6" font-family="FreeSans" font-size="8.00" fill="#2e3436">ACTS_IN</text>
<text text-anchor="start" x="293.5" y="-57.6" font-family="FreeSans" font-size="8.00" fill="#2e3436">name = &#39;Malèna Scordia&#39;</text>
</g>
</g>
</svg>
