<?xml version="1.0" encoding="UTF-8" standalone="no"?>
<!DOCTYPE svg PUBLIC "-//W3C//DTD SVG 1.1//EN"
 "http://www.w3.org/Graphics/SVG/1.1/DTD/svg11.dtd">
<!-- Generated by graphviz version 2.26.3 (20100126.1600)
 -->
<!-- Title: g Pages: 1 -->
<svg width="132pt" height="144pt"
 viewBox="0.00 0.00 132.00 144.00" xmlns="http://www.w3.org/2000/svg" xmlns:xlink="http://www.w3.org/1999/xlink">
<g id="graph1" class="graph" transform="scale(1 1) rotate(0) translate(4 140)">
<title>g</title>
<polygon fill="white" stroke="white" points="-4,5 -4,-140 129,-140 129,5 -4,5"/>
<!-- N1 -->
<g id="node1" class="node"><title>N1</title>
<polygon fill="#ffffff" stroke="#ffffff" stroke-width="1.5" points="11.5,-99 66.5,-99 78.5,-111 78.5,-123 66.5,-135 11.5,-135 -0.5,-123 -0.5,-111 11.5,-99"/>
<path fill="#ffffff" stroke="#ffffff" stroke-width="1.5" d="M66.5,-99C72.5,-99 78.5,-105 78.5,-111"/>
<path fill="#ffffff" stroke="#ffffff" stroke-width="1.5" d="M78.5,-123C78.5,-129 72.5,-135 66.5,-135"/>
<path fill="#ffffff" stroke="#ffffff" stroke-width="1.5" d="M11.5,-135C5.5,-135 -0.5,-129 -0.5,-123"/>
<path fill="#ffffff" stroke="#ffffff" stroke-width="1.5" d="M-0.5,-111C-0.5,-105 5.5,-99 11.5,-99"/>
<polyline fill="none" stroke="#2e3436" stroke-width="1.5" points="11.5,-99 66.5,-99 "/>
<path fill="none" stroke="#2e3436" stroke-width="1.5" d="M66.5,-99C72.5,-99 78.5,-105 78.5,-111"/>
<polyline fill="none" stroke="#2e3436" stroke-width="1.5" points="78.5,-111 78.5,-123 "/>
<path fill="none" stroke="#2e3436" stroke-width="1.5" d="M78.5,-123C78.5,-129 72.5,-135 66.5,-135"/>
<polyline fill="none" stroke="#2e3436" stroke-width="1.5" points="66.5,-135 11.5,-135 "/>
<path fill="none" stroke="#2e3436" stroke-width="1.5" d="M11.5,-135C5.5,-135 -0.5,-129 -0.5,-123"/>
<polyline fill="none" stroke="#2e3436" stroke-width="1.5" points="-0.5,-123 -0.5,-111 "/>
<path fill="none" stroke="#2e3436" stroke-width="1.5" d="M-0.5,-111C-0.5,-105 5.5,-99 11.5,-99"/>
<text text-anchor="start" x="7.5" y="-115.8" font-family="FreeSans" font-size="8.00" fill="#1c2021">message = &#39;Hello, &#39;</text>
</g>
<!-- N2 -->
<g id="node3" class="node"><title>N2</title>
<polygon fill="#ffffff" stroke="#ffffff" stroke-width="1.5" points="11.5,-1 66.5,-1 78.5,-13 78.5,-25 66.5,-37 11.5,-37 -0.5,-25 -0.5,-13 11.5,-1"/>
<path fill="#ffffff" stroke="#ffffff" stroke-width="1.5" d="M66.5,-1C72.5,-1 78.5,-7 78.5,-13"/>
<path fill="#ffffff" stroke="#ffffff" stroke-width="1.5" d="M78.5,-25C78.5,-31 72.5,-37 66.5,-37"/>
<path fill="#ffffff" stroke="#ffffff" stroke-width="1.5" d="M11.5,-37C5.5,-37 -0.5,-31 -0.5,-25"/>
<path fill="#ffffff" stroke="#ffffff" stroke-width="1.5" d="M-0.5,-13C-0.5,-7 5.5,-1 11.5,-1"/>
<polyline fill="none" stroke="#2e3436" stroke-width="1.5" points="11.5,-1 66.5,-1 "/>
<path fill="none" stroke="#2e3436" stroke-width="1.5" d="M66.5,-1C72.5,-1 78.5,-7 78.5,-13"/>
<polyline fill="none" stroke="#2e3436" stroke-width="1.5" points="78.5,-13 78.5,-25 "/>
<path fill="none" stroke="#2e3436" stroke-width="1.5" d="M78.5,-25C78.5,-31 72.5,-37 66.5,-37"/>
<polyline fill="none" stroke="#2e3436" stroke-width="1.5" points="66.5,-37 11.5,-37 "/>
<path fill="none" stroke="#2e3436" stroke-width="1.5" d="M11.5,-37C5.5,-37 -0.5,-31 -0.5,-25"/>
<polyline fill="none" stroke="#2e3436" stroke-width="1.5" points="-0.5,-25 -0.5,-13 "/>
<path fill="none" stroke="#2e3436" stroke-width="1.5" d="M-0.5,-13C-0.5,-7 5.5,-1 11.5,-1"/>
<text text-anchor="start" x="7.5" y="-17.8" font-family="FreeSans" font-size="8.00" fill="#1c2021">message = &#39;World!&#39;</text>
</g>
<!-- N1&#45;&gt;N2 -->
<g id="edge2" class="edge"><title>N1&#45;&gt;N2</title>
<path fill="none" stroke="#2e3436" stroke-width="2" d="M39,-98.5669C39,-83.4147 39,-61.7696 39,-44.8795"/>
<polygon fill="#2e3436" stroke="#2e3436" points="39,-37.0193 42.3751,-44.5192 39.5,-40.7693 39.5001,-44.5193 39.0001,-44.5193 38.5001,-44.5193 38.5,-40.7693 35.6251,-44.5193 39,-37.0193 39,-37.0193"/>
<text text-anchor="middle" x="81.5" y="-72.8" font-family="FreeSans" font-size="8.00" fill="#2e3436">NEXT</text>
<text text-anchor="start" x="39" y="-60.8" font-family="FreeSans" font-size="8.00" fill="#2e3436">message = &#39;brave Neo4j &#39;</text>
</g>
</g>
</svg>
